<svg id="e0fi2jgm3hnzn1" xmlns="http://www.w3.org/2000/svg" xmlns:xlink="http://www.w3.org/1999/xlink" viewBox="0 0 769 769" shape-rendering="geometricPrecision" text-rendering="geometricPrecision">
    <style>
        <![CDATA[#e0fi2jgm3hnzn1{pointer-events: all} #e0fi2jgm3hnzn1:hover * {animation-play-state: running !important}#e0fi2jgm3hnzn5_to {animation: e0fi2jgm3hnzn5_to__to 8000ms linear infinite normal forwards}@keyframes e0fi2jgm3hnzn5_to__to { 0% {transform: translate(-34.750000px,-34.500000px)} 60% {transform: translate(-4.750000px,-34.500000px)} 100% {transform: translate(-34.750000px,-34.500000px)} }#e0fi2jgm3hnzn6_to {animation: e0fi2jgm3hnzn6_to__to 8000ms linear infinite normal forwards}@keyframes e0fi2jgm3hnzn6_to__to { 0% {transform: translate(0px,0px)} 34% {transform: translate(-20px,0px)} 100% {transform: translate(0px,0px)} }]]>
    </style>
<style type="text/css">
	.st0{fill:url(#SVGID_1_);}
	.st1{fill:#FFFFFF;stroke:#01507B;stroke-width:20;stroke-miterlimit:16;}
	.st2{fill:#DDDDDD;}
	.st3{fill:#01507B;}
</style>
<radialGradient id="SVGID_1_" cx="385.802" cy="384.6929" r="383.1984" gradientUnits="userSpaceOnUse">
	<stop  offset="0" style="stop-color:#FFC43D"/>
	<stop  offset="0.0388" style="stop-color:#FCBA3C"/>
	<stop  offset="0.3236" style="stop-color:#E77538"/>
	<stop  offset="0.5292" style="stop-color:#D94A35"/>
	<stop  offset="0.6335" style="stop-color:#D43934"/>
	<stop  offset="0.6579" style="stop-color:#CE3732"/>
	<stop  offset="0.7731" style="stop-color:#B62F2A"/>
	<stop  offset="0.8803" style="stop-color:#A82A26"/>
	<stop  offset="0.971" style="stop-color:#A32824"/>
</radialGradient>
<path class="st0" d="M769,384.78c0,96.16,0,192.32,0,288.49c0,44.08-33.24,84.37-76.66,92.62c-6.42,1.22-13.05,1.92-19.58,1.92
	c-191.68,0.1-383.36,0.08-575.04,0.08c-46.99,0-88-36.04-94.16-82.8c-0.54-4.13-0.91-8.31-0.91-12.47
	C2.6,480.45,2.6,288.29,2.6,96.13c0-44.09,33.26-84.39,76.66-92.63c6.42-1.22,13.05-1.92,19.58-1.92
	C290.68,1.48,482.52,1.5,674.37,1.5c44.09,0,84.44,33.3,92.63,76.66c1.21,6.42,1.91,13.05,1.92,19.58
	C769.03,193.42,769,289.1,769,384.78z"/>
    <g id="e0fi2jgm3hnzn4" transform="matrix(4 0 0 4 -807.79211426000006 -2303.22470092000003)">
        <g id="e0fi2jgm3hnzn5_to" transform="translate(-34.750000,-34.500000)">
            <path
                id="e0fi2jgm3hnzn5"
                d="M390.500000,707.960000C389.790000,710.650000,389.320000,713.440000,388.330000,716.030000C384.090000,727.100000,373.560000,734.220000,361.730000,734.220000C329.600000,734.220000,297.460000,734.210000,265.330000,734.230000C257.970000,734.240000,251.480000,732.120000,246.530000,726.480000C240.480000,719.590000,238.880000,711.610000,242.030000,703.050000C245.180000,694.490000,251.580000,689.520000,260.660000,688.140000C261.540000,688.010000,262.430000,687.920000,263.310000,687.810000C263.810000,685.180000,264.110000,682.500000,264.850000,679.950000C269.270000,664.800000,284.910000,656.160000,300.050000,660.490000C301.680000,660.960000,302.300000,660.480000,303.080000,659.150000C310.390000,646.740000,323.510000,640.640000,337.100000,642.310000C351.870000,644.130000,363.460000,655,366.620000,669.380000C367.080000,671.470000,367.200000,673.640000,367.340000,675.790000C367.410000,676.750000,367.600000,677.170000,368.660000,677.490000C380.980000,681.180000,388.280000,689.300000,390.180000,702.120000C390.220000,702.400000,390.390000,702.660000,390.500000,702.920000C390.500000,704.600000,390.500000,706.280000,390.500000,707.960000Z"
                transform="translate(0,0)"
                fill="#dddddd"
                stroke="#666666"
                stroke-width="5"
            />
        </g>
        <g id="e0fi2jgm3hnzn6_to" transform="translate(0,0)">
            <g id="e0fi2jgm3hnzn6" transform="translate(0,0)">

                <path
                    id="e0fi2jgm3hnzn8"
                    d="M390.500000,707.960000C389.790000,710.650000,389.320000,713.440000,388.330000,716.030000C384.090000,727.100000,373.560000,734.220000,361.730000,734.220000C329.600000,734.220000,297.460000,734.210000,265.330000,734.230000C257.970000,734.240000,251.480000,732.120000,246.530000,726.480000C240.480000,719.590000,238.880000,711.610000,242.030000,703.050000C245.180000,694.490000,251.580000,689.520000,260.660000,688.140000C261.540000,688.010000,262.430000,687.920000,263.310000,687.810000C263.810000,685.180000,264.110000,682.500000,264.850000,679.950000C269.270000,664.800000,284.910000,656.160000,300.050000,660.490000C301.680000,660.960000,302.300000,660.480000,303.080000,659.150000C310.390000,646.740000,323.510000,640.640000,337.100000,642.310000C351.870000,644.130000,363.460000,655,366.620000,669.380000C367.080000,671.470000,367.200000,673.640000,367.340000,675.790000C367.410000,676.750000,367.600000,677.170000,368.660000,677.490000C380.980000,681.180000,388.280000,689.300000,390.180000,702.120000C390.220000,702.400000,390.390000,702.660000,390.500000,702.920000C390.500000,704.600000,390.500000,706.280000,390.500000,707.960000Z"
                    fill="#fff"
                    stroke="none"
                    stroke-width="1"
                />
            </g>
        </g>
    </g>
</svg>
