<svg id="ey3w0brz1361" xmlns="http://www.w3.org/2000/svg" xmlns:xlink="http://www.w3.org/1999/xlink" viewBox="0 0 769 769" shape-rendering="geometricPrecision" text-rendering="geometricPrecision">
    <style>
        <![CDATA[#ey3w0brz1361{pointer-events: all} #ey3w0brz1361:hover * {animation-play-state: running !important}#ey3w0brz1365_ts {animation: ey3w0brz1365_ts__ts 3000ms linear infinite normal forwards}@keyframes ey3w0brz1365_ts__ts { 0% {transform: translate(319.537322px,683.248836px) scale(1,1)} 50% {transform: translate(319.537322px,683.248836px) scale(1,1)} 53.333333% {transform: translate(319.537322px,683.248836px) scale(0.800000,0.800000)} 56.666667% {transform: translate(319.537322px,683.248836px) scale(1,1)} 100% {transform: translate(319.537322px,683.248836px) scale(1,1)} }#ey3w0brz1366_to {animation: ey3w0brz1366_to__to 3000ms linear infinite normal forwards}@keyframes ey3w0brz1366_to__to { 0% {transform: translate(319.226515px,660.270000px)} 3.333333% {transform: translate(319.226515px,650.270000px)} 50% {transform: translate(319.226515px,650.270000px)} 53.333333% {transform: translate(319.226515px,660.270000px)} 100% {transform: translate(319.226515px,660.270000px)} }]]>
    </style>
<style type="text/css">
	.st0{fill:url(#SVGID_1_);}
	.st1{fill:#FFFFFF;stroke:#01507B;stroke-width:20;stroke-miterlimit:16;}
	.st2{fill:#DDDDDD;}
	.st3{fill:#01507B;}
</style>
<radialGradient id="SVGID_1_" cx="385.802" cy="384.6929" r="383.1984" gradientUnits="userSpaceOnUse">
	<stop  offset="0" style="stop-color:#FFC43D"/>
	<stop  offset="0.0388" style="stop-color:#FCBA3C"/>
	<stop  offset="0.3236" style="stop-color:#E77538"/>
	<stop  offset="0.5292" style="stop-color:#D94A35"/>
	<stop  offset="0.6335" style="stop-color:#D43934"/>
	<stop  offset="0.6579" style="stop-color:#CE3732"/>
	<stop  offset="0.7731" style="stop-color:#B62F2A"/>
	<stop  offset="0.8803" style="stop-color:#A82A26"/>
	<stop  offset="0.971" style="stop-color:#A32824"/>
</radialGradient>
<path class="st0" d="M769,384.78c0,96.16,0,192.32,0,288.49c0,44.08-33.24,84.37-76.66,92.62c-6.42,1.22-13.05,1.92-19.58,1.92
	c-191.68,0.1-383.36,0.08-575.04,0.08c-46.99,0-88-36.04-94.16-82.8c-0.54-4.13-0.91-8.31-0.91-12.47
	C2.6,480.45,2.6,288.29,2.6,96.13c0-44.09,33.26-84.39,76.66-92.63c6.42-1.22,13.05-1.92,19.58-1.92
	C290.68,1.48,482.52,1.5,674.37,1.5c44.09,0,84.44,33.3,92.63,76.66c1.21,6.42,1.91,13.05,1.92,19.58
	C769.03,193.42,769,289.1,769,384.78z"/>
    <g id="ey3w0brz1364" transform="matrix(4 0 0 4 -894.57956696000008 -2347.56054688499989)">
        <g id="ey3w0brz1365_ts" transform="translate(319.537322,683.248836) scale(1,1)">
            <path
                id="ey3w0brz1365"
                d="M398.450000,661.500000C397.760000,675.100000,397.790000,688.780000,396.230000,702.280000C393.540000,725.410000,381.590000,743.370000,361.660000,755.060000C349.040000,762.460000,335.290000,767.940000,321.960000,774.110000C320.530000,774.770000,318.280000,774.860000,316.870000,774.220000C303.650000,768.150000,289.980000,762.790000,277.480000,755.450000C252.800000,740.970000,241.630000,718.080000,240.900000,690C240.400000,670.510000,240.750000,651,240.670000,631.500000C240.660000,628.080000,242.220000,625.840000,245.260000,624.460000C268.830000,613.760000,292.370000,602.990000,316.010000,592.450000C317.860000,591.620000,320.730000,591.650000,322.590000,592.480000C346.100000,602.970000,369.520000,613.690000,392.970000,624.310000C396.340000,625.840000,397.890000,628.250000,397.850000,632C397.740000,641.820000,397.810000,651.640000,397.810000,661.460000C398.020000,661.480000,398.230000,661.490000,398.450000,661.500000Z"
                transform="translate(-319.537322,-683.248836)"
                fill="#ffffff"
                stroke="none"
                stroke-width="1"
            />
        </g>
        <g id="ey3w0brz1366_to" transform="translate(319.226515,660.270000)">
            <g id="ey3w0brz1366" transform="translate(-435.412720,-668.135345)">
                <path
                    id="ey3w0brz1367"
                    d="M182.786287,792.184189C182.786287,785.439911,182.791843,788.583340,182.781843,782.185730C182.731843,758.801365,171.411843,750.198629,156.971843,749.962264C142.271843,749.725899,130.691843,758.486212,130.431843,782.185730C130.361843,788.772431,130.431843,804.688612,130.431843,811.826831C128.761843,811.826831,157.184706,811.811073,155.984706,811.826831C148.894706,811.952892,144.944947,812.027090,155.984706,811.826831C146.140014,811.783797,144.812539,811.866554,155.984706,811.826831C161.990584,811.797947,156.553643,811.811073,155.984706,811.826831C157.038005,812.314031,135.134706,811.874104,155.984706,811.826831C161.634706,811.811073,154.086121,811.935012,148.025337,811.826831C155.569524,811.734163,168.240312,792.209743,159.937111,792.184189C166.527331,792.331159,172.806101,792.572716,182.786287,792.184189Z"
                    transform="matrix(1 0 0 1 278.83909316000006 -112.81884341000011)"
                    fill="#555555"
                    stroke="none"
                    stroke-width="1"
                />
                <path
                    id="ey3w0brz1368"
                    d="M306.220000,679.645986C306.220000,672.894041,305.900000,662.823507,306.220000,656.472805C306.700000,647.175045,312.490000,643.907721,319.190000,643.880049C326.010000,643.838541,331.880000,646.953670,332.290000,656.472805C332.550000,662.657476,332.290000,672.990893,332.290000,679.659822C323.670000,679.645986,315.190000,679.645986,306.220000,679.645986Z"
                    transform="matrix(1 0 0 1 116.16750131500032 6.73998140999970)"
                    fill="#ffffff"
                    stroke="none"
                    stroke-width="1"
                />
            </g>
        </g>
        <g id="ey3w0brz1369">
            <path
                id="ey3w0brz13610"
                d="M345.439176,668.613095C345.548675,668.713012,345.335234,668.762031,345.434732,668.534458C345.363915,668.643822,345.327573,668.653598,319.171297,668.613095C304.471297,668.463095,293.078548,668.642453,293.094732,668.613095C304.522012,668.522677,288.714815,668.672007,293.094732,668.603095C291.424732,668.603095,290.040912,668.603095,288.840912,668.613095C281.750912,668.693095,279.960000,672.020000,279.950000,678.980000C279.930000,692.880000,279.920000,706.780000,279.960000,720.670000C279.980000,726.680000,282.190000,728.950000,288,728.960000C308.850000,728.990000,329.690000,728.990000,350.540000,728.960000C356.190000,728.950000,358.480000,726.640000,358.490000,721.010000C358.520000,708.470000,358.510000,695.940000,358.520000,683.400000C358.530000,670.630000,358.549176,669.393095,345.439176,668.613095Z"
                fill="#fbbc00"
                stroke="#666666"
                stroke-width="5"
                stroke-miterlimit="10"
            />
            <path
                id="ey3w0brz13611"
                d="M309.450000,696.360000C309.360000,690.990000,313.860000,686.430000,319.230000,686.440000C324.530000,686.450000,328.870000,690.630000,329.060000,695.910000C329.260000,701.260000,324.830000,705.940000,319.470000,706.060000C314.060000,706.160000,309.540000,701.790000,309.450000,696.360000Z"
                fill="#ffffff"
                stroke="#666666"
                stroke-width="5"
                stroke-miterlimit="10"
            />
        </g>
    </g>
    <g id="ey3w0brz13612" transform="matrix(4 0 0 4 64.03240204000002 -297.81402588000009)" />
</svg>
