<svg id="eogero0w7rr1" xmlns="http://www.w3.org/2000/svg" xmlns:xlink="http://www.w3.org/1999/xlink" viewBox="0 0 499.170000 498.380000" shape-rendering="geometricPrecision" text-rendering="geometricPrecision">
    <style>
        <![CDATA[#eogero0w7rr6_ts {animation: eogero0w7rr6_ts__ts 4000ms linear infinite normal forwards}@keyframes eogero0w7rr6_ts__ts { 0% {transform: translate(249.728516px,255.818359px) scale(1,1)} 42.500000% {transform: translate(249.728516px,255.818359px) scale(1,1);animation-timing-function: cubic-bezier(0.420000,0,0.580000,1)} 47.500000% {transform: translate(249.728516px,255.818359px) scale(1,0.038149);animation-timing-function: cubic-bezier(0.445000,0.050000,0.550000,0.950000)} 52.500000% {transform: translate(249.728516px,255.818359px) scale(1,1.003279);animation-timing-function: cubic-bezier(0.420000,0,0.580000,1)} 57.500000% {transform: translate(249.728516px,255.818359px) scale(1,1.003279);animation-timing-function: cubic-bezier(0.420000,0,0.580000,1)} 65% {transform: translate(249.728516px,255.818359px) scale(1,0.040000);animation-timing-function: cubic-bezier(0.390000,0.575000,0.565000,1)} 70% {transform: translate(249.728516px,255.818359px) scale(1,1)} 100% {transform: translate(249.728516px,255.818359px) scale(1,1)} }]]>
    </style>
    <defs>
        <radialGradient id="eo3z0svo1z33-fill" cx="250.357201" cy="249.769770" r="383.733600" spreadMethod="pad" gradientUnits="userSpaceOnUse">
			<stop  offset="0" style="stop-color:#FFC43D"/>
			<stop  offset="0.0388" style="stop-color:#FCBA3C"/>
			<stop  offset="0.3236" style="stop-color:#E77538"/>
			<stop  offset="0.5292" style="stop-color:#D94A35"/>
			<stop  offset="0.6335" style="stop-color:#D43934"/>
			<stop  offset="0.6579" style="stop-color:#CE3732"/>
			<stop  offset="0.7731" style="stop-color:#B62F2A"/>
			<stop  offset="0.8803" style="stop-color:#A82A26"/>
			<stop  offset="0.971" style="stop-color:#A32824"/>
        </radialGradient>
    </defs>
    <g id="eo3z0svo1z32">
        <path
            id="eo3z0svo1z33"
            d="M499.860000,249.830000C499.860000,312.440000,499.860000,375.050000,499.860000,437.670000C499.860000,466.370000,478.220000,492.600000,449.950000,497.980000C445.770000,498.770000,441.450000,499.230000,437.200000,499.230000C312.400000,499.300000,187.590000,499.280000,62.790000,499.280000C32.190000,499.280000,5.490000,475.810000,1.480000,445.370000C1.130000,442.680000,0.890000,439.960000,0.890000,437.250000C0.850000,312.120000,0.850000,187,0.850000,61.890000C0.850000,33.180000,22.510000,6.940000,50.760000,1.580000C54.940000,0.790000,59.260000,0.330000,63.510000,0.330000C188.420000,0.260000,313.320000,0.280000,438.240000,0.280000C466.950000,0.280000,493.220000,21.960000,498.550000,50.190000C499.340000,54.370000,499.790000,58.690000,499.800000,62.940000C499.880000,125.230000,499.860000,187.530000,499.860000,249.830000Z"
            fill="url(#eo3z0svo1z33-fill)"
            stroke="none"
            stroke-width="1"
        />
    </g>
    <g id="eogero0w7rr4" transform="matrix(1 0 0 1 -1.05468750000000 4)">
        <path
            id="eogero0w7rr5"
            d="M485.730000,225.440000C481.050000,204.980000,470.800000,187.240000,454.800000,173.300000C444.320000,164.180000,433.560000,155.380000,422.700000,146.710000C410.290000,136.810000,398.100000,126.510000,384.960000,117.660000C365.370000,104.470000,343.570000,100.500000,320.420000,106.310000C305.660000,110.010000,292.830000,117.330000,282.120000,128.140000C279.920000,130.360000,278.300000,130.860000,275.350000,129.350000C258.930000,120.990000,242.330000,120.970000,225.960000,129.420000C222.590000,131.160000,220.900000,130.440000,218.510000,127.980000C204.190000,113.250000,186.500000,105.390000,166.150000,104.020000C146.420000,102.690000,128.370000,107.920000,112.720000,120.270000C91.450000,137.060000,69.850000,153.460000,49.220000,171.010000C27.410000,189.580000,14.780000,213.580000,12.740000,242.420000C12.060000,251.970000,12.250000,261.740000,13.430000,271.240000C15.350000,286.710000,21.590000,300.830000,30.330000,313.670000C51.480000,344.740000,81.090000,361.250000,118.560000,362.970000C139.710000,363.940000,159.800000,359.190000,178.040000,348.100000C196.960000,336.600000,211.690000,321.030000,221.810000,301.300000C223.180000,298.630000,224.230000,298.470000,226.710000,299.700000C233.970000,303.320000,241.770000,305.540000,249.840000,305.730000C258.570000,305.930000,266.900000,303.340000,274.730000,299.560000C277.240000,298.350000,278.090000,299.110000,279.310000,301.120000C282.780000,306.880000,286.090000,312.800000,290.140000,318.150000C312.460000,347.600000,342.300000,362.400000,379.200000,363.040000C381.680000,363.040000,384.180000,363.210000,386.650000,363.010000C409.860000,361.110000,430.820000,353.270000,448.560000,338.120000C483.620000,308.160000,495.990000,270.280000,485.730000,225.440000ZM250.580000,271.930000C238.490000,272.660000,230.850000,261.420000,230.910000,252.800000C230.990000,242.320000,240.010000,233.200000,250.450000,233.210000C261.530000,233.220000,269.930000,241.580000,270.100000,252.410000C270.240000,261.310000,262.430000,272.850000,250.580000,271.930000Z"
            fill="#222222"
            stroke="none"
            stroke-width="1"
        />
    </g>
    <g id="eogero0w7rr6_ts" transform="translate(249.728516,255.818359) scale(1,1)">
        <g id="eogero0w7rr6" transform="translate(-254.199219,-251.818359)">
            <g id="eogero0w7rr7">
                <path
                    id="eogero0w7rr8"
                    d="M454.660000,251.430000C455.450000,294.050000,419.350000,323.490000,384.160000,324.280000C340.970000,325.250000,309.710000,288.730000,309.690000,251.950000C309.670000,211.080000,345.200000,179.260000,381.860000,179.300000C423.160000,179.360000,455.940000,214.510000,454.660000,251.430000Z"
                    fill="rgb(246,233,196)"
                    stroke="none"
                    stroke-width="1"
                />
                <path
                    id="eogero0w7rr9"
                    d="M53.760000,252.440000C52.050000,211.860000,87.640000,179.050000,126.600000,179.380000C165.670000,179.710000,200.120000,212.690000,198.580000,254.540000C197.260000,290.340000,167.800000,325.150000,123.350000,324.320000C87.560000,323.660000,52.180000,290.860000,53.760000,252.440000Z"
                    fill="rgb(246,233,196)"
                    stroke="none"
                    stroke-width="1"
                />
                <path
                    id="eogero0w7rr10"
                    d="M329.360000,249.660000C330.730000,234.440000,337.340000,222.450000,348.290000,212.600000C357.950000,203.920000,369.270000,199.800000,382.280000,199.910000C387.160000,199.950000,390.420000,203.970000,390.860000,207.450000C391.370000,211.450000,388.440000,215.590000,384.060000,216.700000C379.750000,217.780000,375.240000,218.230000,371.070000,219.690000C356.150000,224.880000,349.210000,236.270000,347.460000,251.340000C346.980000,255.460000,345.110000,258.550000,341.330000,260.110000C337.760000,261.590000,334.410000,260.280000,332.330000,257.380000C330.780000,255.210000,330.310000,252.270000,329.360000,249.660000Z"
                    fill="rgb(255,255,255)"
                    stroke="none"
                    stroke-width="1"
                />
                <path
                    id="eogero0w7rr11"
                    d="M74.160000,248.070000C75.140000,225.330000,94.440000,203.760000,117.910000,200.330000C120.350000,199.970000,122.870000,200,125.350000,200C130.700000,200.010000,135,203.780000,135.050000,208.390000C135.100000,213,130.830000,216.930000,125.640000,217.360000C115.710000,218.190000,106.970000,221.660000,100.170000,229.250000C94.640000,235.420000,92.400000,242.860000,91.420000,250.900000C91.150000,253.160000,90.350000,255.620000,89.020000,257.420000C86.950000,260.210000,83.780000,261.570000,80.300000,260.170000C76.840000,258.770000,74.240000,256.400000,74.160000,252.240000C74.140000,250.850000,74.160000,249.460000,74.160000,248.070000Z"
                    fill="rgb(255,255,255)"
                    stroke="none"
                    stroke-width="1"
                />
            </g>
        </g>
    </g>
</svg>
