<?xml version="1.0" encoding="UTF-8" standalone="no"?>
<svg
   xmlns:dc="http://purl.org/dc/elements/1.1/"
   xmlns:cc="http://creativecommons.org/ns#"
   xmlns:rdf="http://www.w3.org/1999/02/22-rdf-syntax-ns#"
   xmlns:svg="http://www.w3.org/2000/svg"
   xmlns="http://www.w3.org/2000/svg"
   xmlns:sodipodi="http://sodipodi.sourceforge.net/DTD/sodipodi-0.dtd"
   xmlns:inkscape="http://www.inkscape.org/namespaces/inkscape"
   id="e0lirv1yvuvyd1"
   viewBox="0 0 499.170000 498.380000"
   width="500"
   height="500"
   shape-rendering="geometricPrecision"
   text-rendering="geometricPrecision"
   version="1.1"
   sodipodi:docname="search.svg"
   inkscape:version="0.92.4 (5da689c313, 2019-01-14)">
  <metadata
     id="metadata16">
    <rdf:RDF>
      <cc:Work
         rdf:about="">
        <dc:format>image/svg+xml</dc:format>
        <dc:type
           rdf:resource="http://purl.org/dc/dcmitype/StillImage" />
        <dc:title></dc:title>
      </cc:Work>
    </rdf:RDF>
  </metadata>
  <defs
     id="defs14" />
  <sodipodi:namedview
     pagecolor="#ffffff"
     bordercolor="#666666"
     borderopacity="1"
     objecttolerance="10"
     gridtolerance="10"
     guidetolerance="10"
     inkscape:pageopacity="0"
     inkscape:pageshadow="2"
     inkscape:window-width="732"
     inkscape:window-height="480"
     id="namedview12"
     showgrid="false"
     inkscape:zoom="0.47353425"
     inkscape:cx="249.58501"
     inkscape:cy="249.19"
     inkscape:window-x="0"
     inkscape:window-y="0"
     inkscape:window-maximized="0"
     inkscape:current-layer="e0lirv1yvuvyd1" />

    <style>
        <![CDATA[#er0zs9ajx7h85_tr {animation: er0zs9ajx7h85_tr__tr 35000ms linear infinite normal forwards}@keyframes er0zs9ajx7h85_tr__tr { 0% {transform: translate(250.589844px,249.511719px) rotate(0deg)} 30% {transform: translate(250.589844px,249.511719px) rotate(0deg);animation-timing-function: cubic-bezier(0.600000,-0.020000,0.245000,0.985000)} 54% {transform: translate(250.589844px,249.511719px) rotate(0deg)} 100% {transform: translate(250.589844px,249.511719px) rotate(0deg)} }#er0zs9ajx7h85_ts {animation: er0zs9ajx7h85_ts__ts 3500ms linear infinite normal forwards}@keyframes er0zs9ajx7h85_ts__ts { 0% {transform: scale(1,1)} 68% {transform: scale(1,1);animation-timing-function: cubic-bezier(0.420000,0,0.580000,1)} 76% {transform: scale(1.214359,0.936995);animation-timing-function: cubic-bezier(0.420000,0,0.580000,1)} 80% {transform: scale(1.214359,0.936995);animation-timing-function: cubic-bezier(0.420000,0,0.260000,1.005000)} 86% {transform: scale(0.400000,0.400000);animation-timing-function: cubic-bezier(0.420000,0,0.260000,1.005000)} 92% {transform: scale(0.400000,0.400000);animation-timing-function: cubic-bezier(0.870000,0.015000,0.580000,1)} 100% {transform: scale(1,1)} }]]>
    </style>
	
	<style type="text/css">
	.st0{fill:#efcc2a;}
	.st1{fill:#F6E9C4;}
	.st2{display:none;fill:#ffffff;}
	.st3{fill:#ffffff;}
</style>

    <defs>
        <radialGradient id="e6hh4muv6fxl4-fill" cx="250.357266" cy="249.770979" r="383.733600" spreadMethod="pad" gradientUnits="userSpaceOnUse">
            <stop id="e6hh4muv6fxl4-fill-0" offset="0%" stop-color="rgb(255,196,61)" />
            <stop id="e6hh4muv6fxl4-fill-1" offset="3.880000%" stop-color="rgb(252,186,60)" />
            <stop id="e6hh4muv6fxl4-fill-2" offset="32.360000%" stop-color="rgb(231,117,56)" />
            <stop id="e6hh4muv6fxl4-fill-3" offset="52.920000%" stop-color="rgb(217,74,53)" />
            <stop id="e6hh4muv6fxl4-fill-4" offset="63.350000%" stop-color="rgb(212,57,52)" />
            <stop id="e6hh4muv6fxl4-fill-5" offset="65.790000%" stop-color="rgb(206,55,50)" />
            <stop id="e6hh4muv6fxl4-fill-6" offset="77.310000%" stop-color="rgb(182,47,42)" />
            <stop id="e6hh4muv6fxl4-fill-7" offset="88.030000%" stop-color="rgb(168,42,38)" />
            <stop id="e6hh4muv6fxl4-fill-8" offset="97.100000%" stop-color="rgb(163,40,36)" />
        </radialGradient>
    </defs>
    <g id="e6hh4muv6fxl2" display="none">
        <path
            id="e6hh4muv6fxl3"
            d="M498.100000,249.400000C498.100000,311.730000,498.100000,374.060000,498.100000,436.390000C498.100000,464.960000,476.550000,491.080000,448.410000,496.430000C444.250000,497.220000,439.950000,497.670000,435.720000,497.670000C311.480000,497.740000,187.240000,497.720000,63,497.720000C32.550000,497.720000,5.960000,474.360000,1.970000,444.050000C1.620000,441.380000,1.380000,438.660000,1.380000,435.970000C1.340000,311.420000,1.350000,186.860000,1.350000,62.310000C1.350000,33.730000,22.910000,7.610000,51.040000,2.270000C55.200000,1.480000,59.500000,1.030000,63.730000,1.030000C188.080000,0.970000,312.420000,0.980000,436.770000,0.980000C465.340000,0.980000,491.500000,22.560000,496.810000,50.670000C497.600000,54.830000,498.050000,59.130000,498.050000,63.360000C498.120000,125.370000,498.100000,187.390000,498.100000,249.400000Z"
            fill="rgb(167,169,172)"
            stroke="none"
            stroke-width="1"
        />
    </g>
    <path
        id="e6hh4muv6fxl4"
        d="M499.860000,249.830000C499.860000,312.440000,499.860000,375.050000,499.860000,437.670000C499.860000,466.370000,478.220000,492.600000,449.950000,497.980000C445.770000,498.770000,441.450000,499.230000,437.200000,499.230000C312.400000,499.300000,187.590000,499.280000,62.790000,499.280000C32.190000,499.280000,5.490000,475.810000,1.480000,445.370000C1.130000,442.680000,0.890000,439.960000,0.890000,437.250000C0.850000,312.120000,0.850000,187,0.850000,61.890000C0.850000,33.180000,22.510000,6.940000,50.760000,1.580000C54.940000,0.790000,59.260000,0.330000,63.510000,0.330000C188.420000,0.260000,313.320000,0.280000,438.240000,0.280000C466.950000,0.280000,493.220000,21.960000,498.550000,50.190000C499.340000,54.370000,499.790000,58.690000,499.800000,62.940000C499.880000,125.230000,499.860000,187.530000,499.860000,249.830000Z"
        fill="url(#e6hh4muv6fxl4-fill)"
        stroke="none"
        stroke-width="1"
    />

	<g id="er0zs9ajx7h84">
		<g id="er0zs9ajx7h85_tr" transform="translate(250.589844,249.511719) rotate(0)">
			<g id="er0zs9ajx7h85_ts" transform="scale(1,1)">
				<g id="er0zs9ajx7h85" transform="translate(-250.589844,-249.511719)">
					
					<path id="er0zs9ajx7h87" class="st2" d="M472,249.4c0.1,122-99.3,221.5-221.4,221.5c-122.1,0-221.4-99.4-221.4-221.5
						c0-122.1,99.4-221.4,221.5-221.4C372.7,28.2,471.9,127.3,472,249.4z M155.5,238.8c28.4,0,56.4,0,84.4,0c0-27.3,0-54.4,0-81.6
						c-0.6,0-1.1-0.1-1.6-0.1c-21.3,0-42.6,0-63.9,0c-1.5,0-2,0.6-2.4,1.8c-7.9,20.5-12.9,41.7-15.2,63.6
						C156.2,227.9,155.9,233.3,155.5,238.8z M261.2,238.8c28.1,0,56.2,0,84.2,0c0-0.4,0.1-0.7,0.1-0.9c-1.2-27.2-6.6-53.6-16.4-79.1
						c-0.6-1.5-1.5-1.6-2.8-1.6c-21,0-41.9,0-62.9,0c-0.7,0-1.5,0-2.2,0C261.2,184.5,261.2,211.6,261.2,238.8z M239.9,260.2
						c-28.2,0-56.2,0-84.2,0c0,0.4-0.1,0.7-0.1,0.9c1.2,27.2,6.6,53.6,16.3,79.1c0.5,1.4,1.3,1.6,2.6,1.6c21.1,0,42.2,0,63.3,0
						c0.7,0,1.3-0.1,2.1-0.1C239.9,314.4,239.9,287.3,239.9,260.2z M261.2,341.7c0.8,0,1.5,0.1,2.1,0.1c21,0,42.1,0,63.1,0
						c1.5,0,2.3-0.4,2.8-1.9c8.3-21.8,13.4-44.3,15.5-67.5c0.4-4.1,0.5-8.1,0.8-12.3c-28.3,0-56.3,0-84.4,0
						C261.2,287.4,261.2,314.5,261.2,341.7z M350.9,157.1c9.4,26.6,14.6,53.7,15.7,81.7c24.5,0,48.9,0,73.4,0c0-0.8,0-1.6,0-2.3
						c-1.9-27.6-9.5-53.6-22.7-77.9c-0.7-1.3-1.5-1.5-2.8-1.5c-20.4,0-40.9,0-61.3,0C352.6,157.1,351.9,157.1,350.9,157.1z
						 M150.2,157.3c-0.8-0.1-1.3-0.1-1.7-0.1c-20.7,0-41.4,0-62.1,0c-1.4,0-2,0.6-2.6,1.7c-12.1,22.4-19.5,46.2-22.1,71.6
						c-0.3,2.8-0.4,5.5-0.6,8.4c24.7,0,49,0,73.5,0C135.6,210.8,140.8,183.8,150.2,157.3z M351,341.7c0.8,0.1,1.2,0.1,1.7,0.1
						c20.7,0,41.4,0,62.1,0c1.4,0,2-0.6,2.6-1.7c12.1-22.4,19.5-46.2,22.1-71.6c0.3-2.8,0.4-5.5,0.6-8.4c-24.6,0-49,0-73.5,0
						C365.5,288.1,360.4,315.1,351,341.7z M134.5,260.1c-24.6,0-48.9,0-73.4,0c0,0.9,0,1.6,0,2.4c1.9,27.4,9.4,53.2,22.4,77.3
						c0.8,1.5,1.6,2,3.3,2c20.3-0.1,40.6,0,60.9,0c0.7,0,1.4,0,2.5,0c-4.7-13.3-8.3-26.6-10.9-40.2
						C136.6,288,135.1,274.2,134.5,260.1z M207.9,434.6c-0.2-0.5-0.2-0.7-0.3-0.8c-0.2-0.3-0.4-0.5-0.7-0.8
						c-19.8-20.1-35.3-43-47.2-68.5c-0.7-1.4-1.5-1.8-2.9-1.8c-18.7,0-37.3,0-56,0c-0.7,0-1.3,0.1-2.5,0.1
						C126.6,399.7,162.8,423.6,207.9,434.6z M402.9,362.9c-1.2-0.1-1.9-0.1-2.5-0.1c-18.7,0-37.3,0-56-0.1c-1.6,0-2.4,0.6-3,2
						c-11.8,25.4-27.3,48.2-47,68.2c-0.4,0.4-0.7,0.8-1,1.2C338.4,423.6,374.6,399.7,402.9,362.9z M208.1,64.4
						c-22.3,5.2-42.6,13.9-61.3,26.1c-18.7,12.2-34.8,27.3-48.5,45.6c1.3,0,2.1,0,2.8,0c18.4,0,36.8,0,55.1,0.1
						c1.9,0,2.9-0.6,3.7-2.3c11.8-25.2,27.2-47.9,46.8-67.8C207.1,65.7,207.4,65.2,208.1,64.4z M402.8,136.1
						c-13.8-18.3-29.9-33.4-48.5-45.6c-18.7-12.2-38.9-20.9-61.3-26.1c0.7,0.8,0.9,1.1,1.2,1.4c19.8,20.1,35.4,43.1,47.3,68.6
						c0.6,1.4,1.4,1.7,2.8,1.7c18.7,0,37.3,0,55.9,0C401,136.1,401.6,136.1,402.8,136.1z M239.9,434.6c0-24.2,0-47.9,0-71.7
						c-19.2,0-38.3,0-57.8,0C196.4,390.9,215.2,414.8,239.9,434.6z M261.3,362.9c0,23.9,0,47.6,0,71.5c18.4-12.7,55.9-59.6,57.2-71.5
						C299.5,362.9,280.5,362.9,261.3,362.9z M182.2,136c19.5,0,38.6,0,57.7,0c0-23.8,0-47.5,0-71.6C215.3,84.2,196.6,108.1,182.2,136
						z M261.3,64.4c0,24.1,0,47.8,0,71.5c19.2,0,38.3,0,57.7,0C304.6,108.1,285.9,84.2,261.3,64.4z"/>
					<path class="st3" d="M249.7,25.5c123.4,0.4,222.9,101.1,222.9,224.6c0,120-97,224-223.4,223.4
						C124.6,472.9,26.5,372.7,26.6,248.8C26.7,129.3,123,26.4,249.7,25.5z M204.3,80.6C135.1,96.7,61.6,172,76.3,275.4
						c12.7,89.5,94.9,159.4,192.3,149.1c93.3-9.9,165.7-94.5,155.3-193.3c-4.7-44.8-24.3-82.3-57.6-112.5
						c-20.2-18.2-43.4-31.1-70-38.2c-0.6,2-1,3.2-1.2,4.4c-9.1,42.8-18.4,85.6-27.3,128.4c-2.9,13.8-6.1,27.7-7.3,41.7
						c-1.6,17.8,6.8,25.9,24.5,26.2c16.9,0.3,29.7-8,40.4-20.2c8.3-9.4,14.1-20.3,18.3-32.1c0.6-1.6,2.1-3.9,3.3-4
						c7.7-0.4,15.4-0.2,23.6-0.2c-0.5,1.8-0.7,2.6-1,3.4c-7.9,22.3-18.2,43.4-32.7,62.2c-26.3,34.2-60.1,53.4-104.2,52.2
						c-29.1-0.8-50.9-17-59.4-44.9c-6.3-20.5-5.4-41.3-1.3-61.9c7.7-39,16.2-77.7,24.4-116.6C198.9,106.5,201.5,93.9,204.3,80.6z"/>
				</g>
			</g>
		</g>
	</g>


</svg>
