<svg id="er0zs9ajx7h81" xmlns="http://www.w3.org/2000/svg" xmlns:xlink="http://www.w3.org/1999/xlink" viewBox="0 0 499.170000 498.380000" shape-rendering="geometricPrecision" text-rendering="geometricPrecision">
    <style>
        <![CDATA[#er0zs9ajx7h85_tr {animation: er0zs9ajx7h85_tr__tr 5000ms linear infinite normal forwards}@keyframes er0zs9ajx7h85_tr__tr { 0% {transform: translate(250.589844px,249.511719px) rotate(0deg)} 30% {transform: translate(250.589844px,249.511719px) rotate(0deg);animation-timing-function: cubic-bezier(0.600000,-0.020000,0.245000,0.985000)} 54% {transform: translate(250.589844px,249.511719px) rotate(180.008923deg)} 100% {transform: translate(250.589844px,249.511719px) rotate(180.008923deg)} }#er0zs9ajx7h85_ts {animation: er0zs9ajx7h85_ts__ts 5000ms linear infinite normal forwards}@keyframes er0zs9ajx7h85_ts__ts { 0% {transform: scale(1,1)} 68% {transform: scale(1,1);animation-timing-function: cubic-bezier(0.420000,0,0.580000,1)} 76% {transform: scale(1.214359,0.936995);animation-timing-function: cubic-bezier(0.420000,0,0.580000,1)} 80% {transform: scale(1.214359,0.936995);animation-timing-function: cubic-bezier(0.420000,0,0.260000,1.005000)} 86% {transform: scale(0.400000,0.400000);animation-timing-function: cubic-bezier(0.420000,0,0.260000,1.005000)} 92% {transform: scale(0.400000,0.400000);animation-timing-function: cubic-bezier(0.870000,0.015000,0.580000,1)} 100% {transform: scale(1,1)} }]]>
    </style>
    <defs>
        <radialGradient id="eo3z0svo1z33-fill" cx="250.357201" cy="249.769770" r="383.733600" spreadMethod="pad" gradientUnits="userSpaceOnUse">
	<stop  offset="0" style="stop-color:#FFC43D"/>
	<stop  offset="0.0388" style="stop-color:#FCBA3C"/>
	<stop  offset="0.3236" style="stop-color:#E77538"/>
	<stop  offset="0.5292" style="stop-color:#D94A35"/>
	<stop  offset="0.6335" style="stop-color:#D43934"/>
	<stop  offset="0.6579" style="stop-color:#CE3732"/>
	<stop  offset="0.7731" style="stop-color:#B62F2A"/>
	<stop  offset="0.8803" style="stop-color:#A82A26"/>
	<stop  offset="0.971" style="stop-color:#A32824"/>
        </radialGradient>
    </defs>
    <g id="eo3z0svo1z32">
        <path
            id="eo3z0svo1z33"
            d="M499.860000,249.830000C499.860000,312.440000,499.860000,375.050000,499.860000,437.670000C499.860000,466.370000,478.220000,492.600000,449.950000,497.980000C445.770000,498.770000,441.450000,499.230000,437.200000,499.230000C312.400000,499.300000,187.590000,499.280000,62.790000,499.280000C32.190000,499.280000,5.490000,475.810000,1.480000,445.370000C1.130000,442.680000,0.890000,439.960000,0.890000,437.250000C0.850000,312.120000,0.850000,187,0.850000,61.890000C0.850000,33.180000,22.510000,6.940000,50.760000,1.580000C54.940000,0.790000,59.260000,0.330000,63.510000,0.330000C188.420000,0.260000,313.320000,0.280000,438.240000,0.280000C466.950000,0.280000,493.220000,21.960000,498.550000,50.190000C499.340000,54.370000,499.790000,58.690000,499.800000,62.940000C499.880000,125.230000,499.860000,187.530000,499.860000,249.830000Z"
            fill="url(#eo3z0svo1z33-fill)"
            stroke="none"
            stroke-width="1"
        />
    </g>
    <g id="er0zs9ajx7h84">
        <g id="er0zs9ajx7h85_tr" transform="translate(250.589844,249.511719) rotate(0)">
            <g id="er0zs9ajx7h85_ts" transform="scale(1,1)">
                <g id="er0zs9ajx7h85" transform="translate(-250.589844,-249.511719)">
                    
                    <path
                        id="er0zs9ajx7h87"
                        d="M472.020000,249.420000C472.110000,371.430000,372.680000,470.900000,250.610000,470.920000C128.540000,470.940000,29.170000,371.570000,29.160000,249.470000C29.150000,127.390000,128.570000,28.040000,250.670000,28.100000C372.740000,28.170000,471.930000,127.350000,472.020000,249.420000ZM155.480000,238.820000C183.870000,238.820000,211.850000,238.820000,239.890000,238.820000C239.890000,211.560000,239.890000,184.430000,239.890000,157.240000C239.250000,157.200000,238.780000,157.150000,238.310000,157.150000C217,157.150000,195.680000,157.160000,174.370000,157.110000C172.890000,157.110000,172.390000,157.740000,171.930000,158.950000C164.070000,179.480000,159.040000,200.680000,156.760000,222.530000C156.190000,227.890000,155.910000,233.260000,155.480000,238.820000ZM261.230000,238.780000C289.380000,238.780000,317.400000,238.780000,345.470000,238.780000C345.500000,238.370000,345.560000,238.110000,345.540000,237.850000C344.330000,210.610000,338.920000,184.240000,329.190000,158.750000C328.610000,157.220000,327.700000,157.130000,326.390000,157.140000C305.420000,157.160000,284.450000,157.160000,263.480000,157.160000C262.760000,157.160000,262.030000,157.160000,261.230000,157.160000C261.230000,184.530000,261.230000,211.610000,261.230000,238.780000ZM239.950000,260.160000C211.710000,260.160000,183.730000,260.160000,155.700000,260.160000C155.670000,260.580000,155.620000,260.850000,155.630000,261.110000C156.830000,288.360000,162.250000,314.730000,171.940000,340.230000C172.470000,341.620000,173.260000,341.830000,174.550000,341.830000C195.660000,341.800000,216.770000,341.810000,237.880000,341.800000C238.540000,341.800000,239.200000,341.740000,239.940000,341.700000C239.950000,314.430000,239.950000,287.340000,239.950000,260.160000ZM261.250000,341.690000C262.040000,341.730000,262.700000,341.790000,263.370000,341.790000C284.410000,341.800000,305.450000,341.780000,326.490000,341.830000C328.030000,341.830000,328.750000,341.380000,329.300000,339.920000C337.600000,318.150000,342.740000,295.660000,344.810000,272.460000C345.170000,268.400000,345.350000,264.330000,345.630000,260.140000C317.350000,260.140000,289.330000,260.140000,261.250000,260.140000C261.250000,287.390000,261.250000,314.480000,261.250000,341.690000ZM350.920000,157.150000C360.360000,183.700000,365.560000,210.820000,366.660000,238.810000C391.210000,238.810000,415.560000,238.810000,440.030000,238.810000C440.030000,237.960000,440.070000,237.220000,440.020000,236.490000C438.150000,208.870000,430.520000,182.930000,417.340000,158.600000C416.660000,157.340000,415.820000,157.130000,414.560000,157.130000C394.130000,157.160000,373.690000,157.150000,353.260000,157.150000C352.590000,157.150000,351.920000,157.150000,350.920000,157.150000ZM150.220000,157.270000C149.430000,157.210000,148.960000,157.150000,148.480000,157.150000C127.770000,157.150000,107.070000,157.160000,86.360000,157.110000C84.940000,157.110000,84.330000,157.700000,83.720000,158.820000C71.580000,181.210000,64.210000,205.070000,61.640000,230.400000C61.360000,233.160000,61.210000,235.930000,61,238.780000C85.650000,238.780000,110,238.780000,134.510000,238.780000C135.630000,210.840000,140.790000,183.770000,150.220000,157.270000ZM351,341.680000C351.760000,341.730000,352.230000,341.790000,352.700000,341.790000C373.400000,341.790000,394.110000,341.780000,414.810000,341.830000C416.230000,341.830000,416.830000,341.230000,417.440000,340.110000C429.580000,317.720000,436.970000,293.870000,439.530000,268.540000C439.810000,265.780000,439.960000,263.010000,440.170000,260.130000C415.530000,260.130000,391.180000,260.130000,366.660000,260.130000C365.540000,288.090000,360.390000,315.150000,351,341.680000ZM134.510000,260.140000C109.930000,260.140000,85.590000,260.140000,61.150000,260.140000C61.150000,261.030000,61.110000,261.770000,61.160000,262.500000C63.030000,289.900000,70.540000,315.660000,83.570000,339.830000C84.350000,341.280000,85.180000,341.840000,86.860000,341.830000C107.150000,341.770000,127.450000,341.790000,147.740000,341.790000C148.470000,341.790000,149.190000,341.790000,150.200000,341.790000C145.510000,328.470000,141.870000,315.190000,139.260000,301.630000C136.640000,288,135.090000,274.240000,134.510000,260.140000ZM207.850000,434.610000C207.670000,434.100000,207.650000,433.950000,207.580000,433.850000C207.360000,433.590000,207.130000,433.340000,206.890000,433.100000C187.130000,413.030000,171.550000,390.080000,159.700000,364.560000C159.040000,363.140000,158.230000,362.760000,156.750000,362.760000C138.090000,362.810000,119.440000,362.790000,100.780000,362.800000C100.120000,362.800000,99.470000,362.860000,98.270000,362.920000C126.600000,399.740000,162.820000,423.570000,207.850000,434.610000ZM402.920000,362.910000C401.720000,362.850000,401.070000,362.790000,400.410000,362.790000C381.750000,362.780000,363.100000,362.810000,344.440000,362.740000C342.790000,362.730000,342.070000,363.310000,341.400000,364.740000C329.590000,390.120000,314.080000,412.960000,294.440000,432.950000C294.060000,433.340000,293.740000,433.780000,293.390000,434.190000C338.370000,423.570000,374.580000,399.740000,402.920000,362.910000ZM208.120000,64.420000C185.800000,69.590000,165.550000,78.280000,146.830000,90.540000C128.130000,102.780000,112.070000,117.820000,98.350000,136.120000C99.680000,136.120000,100.420000,136.120000,101.160000,136.120000C119.540000,136.120000,137.910000,136.090000,156.290000,136.170000C158.200000,136.180000,159.140000,135.590000,159.960000,133.850000C171.730000,108.620000,187.200000,85.930000,206.740000,66.050000C207.110000,65.670000,207.430000,65.240000,208.120000,64.420000ZM402.840000,136.120000C389.040000,117.780000,372.990000,102.730000,354.300000,90.510000C335.590000,78.280000,315.380000,69.580000,293.020000,64.420000C293.680000,65.190000,293.920000,65.510000,294.200000,65.800000C314.010000,85.900000,329.640000,108.890000,341.520000,134.450000C342.160000,135.820000,342.960000,136.150000,344.330000,136.150000C362.980000,136.120000,381.630000,136.130000,400.270000,136.130000C400.950000,136.120000,401.620000,136.120000,402.840000,136.120000ZM239.910000,434.630000C239.910000,410.440000,239.910000,386.720000,239.910000,362.910000C220.660000,362.910000,201.580000,362.910000,182.110000,362.910000C196.440000,390.880000,215.230000,414.820000,239.910000,434.630000ZM261.340000,362.900000C261.340000,386.830000,261.340000,410.520000,261.340000,434.370000C279.780000,421.670000,317.280000,374.760000,318.530000,362.900000C299.490000,362.900000,280.460000,362.900000,261.340000,362.900000ZM182.170000,135.990000C201.660000,135.990000,220.750000,135.990000,239.880000,135.990000C239.880000,112.170000,239.880000,88.490000,239.880000,64.440000C215.310000,84.160000,196.550000,108.060000,182.170000,135.990000ZM261.300000,64.440000C261.300000,88.580000,261.300000,112.290000,261.300000,135.950000C280.550000,135.950000,299.620000,135.950000,318.990000,135.950000C304.640000,108.070000,285.880000,84.180000,261.300000,64.440000Z"
                        fill="#fff"
                        stroke="none"
                        stroke-width="1"
                    />
                </g>
            </g>
        </g>
    </g>
</svg>
