<svg id="ef20ojojlv51" xmlns="http://www.w3.org/2000/svg" xmlns:xlink="http://www.w3.org/1999/xlink" viewBox="0 0 769 769" shape-rendering="geometricPrecision" text-rendering="geometricPrecision">
    <style>
        <![CDATA[#ef20ojojlv51{pointer-events: all} #ef20ojojlv51:hover * {animation-play-state: running !important}#ef20ojojlv54_tr {animation: ef20ojojlv54_tr__tr 11500ms linear infinite normal forwards}@keyframes ef20ojojlv54_tr__tr { 0% {transform: translate(381.556015px,384.486542px) rotate(0deg)} 100% {transform: translate(381.556015px,384.486542px) rotate(-360deg)} }]]>
    </style>
<style type="text/css">
	.st0{fill:url(#SVGID_1_);}
	.st1{fill:#FFFFFF;stroke:#01507B;stroke-width:20;stroke-miterlimit:16;}
	.st2{fill:#DDDDDD;}
	.st3{fill:#01507B;}
</style>
<radialGradient id="SVGID_1_" cx="385.802" cy="384.6929" r="383.1984" gradientUnits="userSpaceOnUse">
	<stop  offset="0" style="stop-color:#FFC43D"/>
	<stop  offset="0.0388" style="stop-color:#FCBA3C"/>
	<stop  offset="0.3236" style="stop-color:#E77538"/>
	<stop  offset="0.5292" style="stop-color:#D94A35"/>
	<stop  offset="0.6335" style="stop-color:#D43934"/>
	<stop  offset="0.6579" style="stop-color:#CE3732"/>
	<stop  offset="0.7731" style="stop-color:#B62F2A"/>
	<stop  offset="0.8803" style="stop-color:#A82A26"/>
	<stop  offset="0.971" style="stop-color:#A32824"/>
</radialGradient>
<path class="st0" d="M769,384.78c0,96.16,0,192.32,0,288.49c0,44.08-33.24,84.37-76.66,92.62c-6.42,1.22-13.05,1.92-19.58,1.92
	c-191.68,0.1-383.36,0.08-575.04,0.08c-46.99,0-88-36.04-94.16-82.8c-0.54-4.13-0.91-8.31-0.91-12.47
	C2.6,480.45,2.6,288.29,2.6,96.13c0-44.09,33.26-84.39,76.66-92.63c6.42-1.22,13.05-1.92,19.58-1.92
	C290.68,1.48,482.52,1.5,674.37,1.5c44.09,0,84.44,33.3,92.63,76.66c1.21,6.42,1.91,13.05,1.92,19.58
	C769.03,193.42,769,289.1,769,384.78z"/>
    <g id="ef20ojojlv54_tr" transform="translate(381.556015,384.486542) rotate(0)">
        <g id="ef20ojojlv54" transform="scale(4,4) translate(-284.233643,-673.817322)">
            <path
                id="ef20ojojlv55"
                d="M291,589.280000C297.830000,593.030000,302.820000,598.410000,305.760000,605.680000C306.060000,606.430000,307.070000,607.140000,307.890000,607.390000C312.460000,608.780000,317.060000,610.080000,321.690000,611.260000C322.620000,611.500000,323.880000,611.380000,324.710000,610.920000C328.850000,608.660000,333.290000,607.700000,337.940000,607.430000C339.710000,607.330000,340.680000,607.980000,341.370000,609.610000C343.230000,614.020000,344.240000,618.490000,343.650000,623.330000C343.500000,624.550000,344.240000,626.210000,345.120000,627.160000C355.540000,638.560000,361.380000,651.850000,362.050000,667.330000C362.080000,668.080000,362.210000,668.880000,362,669.570000C361.820000,670.180000,361.240000,670.670000,360.830000,671.220000C360.300000,670.800000,359.500000,670.480000,359.300000,669.940000C358.330000,667.400000,357.700000,664.730000,356.650000,662.230000C347.830000,641.280000,332.540000,627.740000,309.760000,625.180000C280.900000,621.940000,256.920000,635.090000,250.920000,668.900000C246.050000,696.340000,263.430000,717.440000,284.130000,723.280000C299.840000,727.720000,313.990000,725.250000,324.710000,712.160000C332.840000,702.240000,335.760000,690.750000,330.510000,678.430000C325.350000,666.310000,311.140000,659.610000,299.320000,663.190000C289.080000,666.290000,282.320000,676.970000,284.100000,687.240000C286.020000,698.300000,297.800000,704.790000,308.160000,700.600000C309.040000,700.250000,310.270000,700.770000,311.330000,700.880000C310.880000,701.860000,310.700000,703.220000,309.940000,703.780000C303.320000,708.660000,293.030000,708.210000,285.330000,702.860000C274.850000,695.580000,271.360000,681.970000,276.670000,669.080000C283.230000,653.160000,300.160000,645.110000,317.910000,649.470000C338.810000,654.600000,352.800000,674.020000,351.190000,695.500000C351.110000,696.580000,351.710000,698.010000,352.480000,698.800000C356.330000,702.760000,358.880000,707.380000,359.860000,712.790000C360.030000,713.710000,359.510000,715.190000,358.800000,715.750000C354.960000,718.780000,350.570000,720.720000,345.620000,720.800000C343.650000,720.830000,342.760000,721.760000,341.580000,723.110000C337.750000,727.470000,333.590000,731.550000,329.690000,735.840000C328.790000,736.830000,327.950000,738.220000,327.790000,739.510000C326.970000,746.510000,323.960000,752.430000,319.310000,757.570000C318.780000,758.160000,317.470000,758.490000,316.650000,758.320000C310.130000,756.950000,304.550000,753.900000,300.020000,748.900000C299.160000,747.960000,297.580000,747.410000,296.250000,747.200000C289.590000,746.150000,282.910000,745.210000,276.220000,744.390000C274.900000,744.230000,273.250000,744.380000,272.160000,745.050000C265.180000,749.320000,257.690000,751.640000,249.500000,751.890000C247.260000,751.960000,246.410000,751.120000,245.810000,749.100000C243.720000,742.060000,243.520000,735.020000,245.510000,727.970000C245.950000,726.400000,245.690000,725.460000,244.700000,724.210000C241.950000,720.760000,239.450000,717.120000,236.800000,713.590000C236.270000,712.890000,235.590000,711.940000,234.870000,711.810000C223.310000,709.870000,214.160000,703.820000,206.350000,695.390000C206.350000,695.010000,206.350000,694.640000,206.350000,694.260000C206.490000,694.140000,206.690000,694.050000,206.750000,693.900000C210.610000,684.110000,216.940000,676.460000,226.110000,671.180000C226.850000,670.750000,227.410000,669.640000,227.640000,668.750000C228.910000,663.660000,230.090000,658.540000,231.180000,653.410000C231.350000,652.620000,231.200000,651.550000,230.770000,650.890000C225.080000,642.190000,222.750000,632.590000,222.740000,622.280000C222.740000,620.050000,223.430000,618.890000,225.550000,618.150000C235.260000,614.760000,244.970000,614.160000,254.860000,617.370000C255.900000,617.710000,257.360000,617.420000,258.410000,616.950000C263.620000,614.610000,268.770000,612.130000,273.910000,609.650000C274.600000,609.320000,275.540000,608.840000,275.720000,608.240000C278.220000,600.040000,283.690000,594.170000,290.430000,589.270000C290.620000,589.280000,290.810000,589.280000,291,589.280000Z"
                fill="#fff"
                stroke="none"
                stroke-width="1"
            />
        </g>
    </g>
</svg>
