<svg id="vpn" xmlns="http://www.w3.org/2000/svg" viewBox="0 0 769 769" width="500" height="500" shape-rendering="geometricPrecision" text-rendering="geometricPrecision">
  <style>
    @keyframes shine_gradient5_f_o{0%,53.333333%{fill-opacity:1}60%,to{fill-opacity:0}}@keyframes shine_gradient4_f_o{0%,50%{fill-opacity:1}56.666667%,to{fill-opacity:0}}@keyframes shine_gradient3_f_o{0%,46.666667%{fill-opacity:1}53.333333%,to{fill-opacity:0}}@keyframes shine_gradient2_f_o{0%,43.333333%{fill-opacity:1}50%,to{fill-opacity:0}}@keyframes shine_gradient1_f_o{0%,40%{fill-opacity:1}46.666667%,to{fill-opacity:0}}#vpn{pointer-events:all} #vpn:hover *{animation-play-state:running!important}#shine_gradient5{animation:shine_gradient5_f_o 4000ms linear infinite normal forwards}#shine_gradient4{animation:shine_gradient4_f_o 4000ms linear infinite normal forwards}#shine_gradient3{animation:shine_gradient3_f_o 4000ms linear infinite normal forwards}#shine_gradient2{animation:shine_gradient2_f_o 4000ms linear infinite normal forwards}#shine_gradient1{animation:shine_gradient1_f_o 4000ms linear infinite normal forwards}
  </style>
  <defs>
    <linearGradient id="shine_gradient5-fill" x1=".421" y1=".408" x2=".881" y2=".796" spreadMethod="pad" gradientUnits="objectBoundingBox">
      <stop id="shine_gradient5-fill-0" offset="0%" stop-color="#ffbf00"/>
      <stop id="shine_gradient5-fill-1" offset="80%" stop-color="#fff"/>
    </linearGradient>
    <linearGradient id="shine_gradient4-fill" x1=".04" y1=".133" x2=".527" y2=".53" spreadMethod="reflect" gradientUnits="objectBoundingBox">
      <stop id="shine_gradient4-fill-0" offset="0%" stop-color="#ffbf00"/>
      <stop id="shine_gradient4-fill-1" offset="80%" stop-color="#fff"/>
    </linearGradient>
    <linearGradient id="shine_gradient3-fill" x1=".741" y1=".68" x2="1.231" y2="1.067" spreadMethod="reflect" gradientUnits="objectBoundingBox">
      <stop id="shine_gradient3-fill-0" offset="0%" stop-color="#ffbf00"/>
      <stop id="shine_gradient3-fill-1" offset="80%" stop-color="#fff"/>
    </linearGradient>
    <linearGradient id="shine_gradient2-fill" x1="-.265" y1="-.096" x2=".332" y2=".369" spreadMethod="pad" gradientUnits="objectBoundingBox">
      <stop id="shine_gradient2-fill-0" offset="0%" stop-color="#ffbf00"/>
      <stop id="shine_gradient2-fill-1" offset="80%" stop-color="#fff"/>
    </linearGradient>
  </defs>

<style type="text/css">
	.st0{fill:url(#SVGID_1_);}
	.st1{fill:#FFFFFF;stroke:#01507B;stroke-width:20;stroke-miterlimit:16;}
	.st2{fill:#DDDDDD;}
	.st3{fill:#01507B;}
</style>
<radialGradient id="SVGID_1_" cx="385.802" cy="384.6929" r="383.1984" gradientUnits="userSpaceOnUse">
	<stop  offset="0" style="stop-color:#FFC43D"/>
	<stop  offset="0.0388" style="stop-color:#FCBA3C"/>
	<stop  offset="0.3236" style="stop-color:#E77538"/>
	<stop  offset="0.5292" style="stop-color:#D94A35"/>
	<stop  offset="0.6335" style="stop-color:#D43934"/>
	<stop  offset="0.6579" style="stop-color:#CE3732"/>
	<stop  offset="0.7731" style="stop-color:#B62F2A"/>
	<stop  offset="0.8803" style="stop-color:#A82A26"/>
	<stop  offset="0.971" style="stop-color:#A32824"/>
</radialGradient>
<path class="st0" d="M769,384.78c0,96.16,0,192.32,0,288.49c0,44.08-33.24,84.37-76.66,92.62c-6.42,1.22-13.05,1.92-19.58,1.92
	c-191.68,0.1-383.36,0.08-575.04,0.08c-46.99,0-88-36.04-94.16-82.8c-0.54-4.13-0.91-8.31-0.91-12.47
	C2.6,480.45,2.6,288.29,2.6,96.13c0-44.09,33.26-84.39,76.66-92.63c6.42-1.22,13.05-1.92,19.58-1.92
	C290.68,1.48,482.52,1.5,674.37,1.5c44.09,0,84.44,33.3,92.63,76.66c1.21,6.42,1.91,13.05,1.92,19.58
	C769.03,193.42,769,289.1,769,384.78z"/>

  <g id="shield_top" transform="matrix(4 0 0 4 -796.69 -2313.45)">
    <g id="shield_group" stroke="none" stroke-width="1">
      <path id="shield_border" d="M296.51 582.34c6.33 2.29 12.65 4.59 18.99 6.85 16.13 5.75 32.27 11.47 48.4 17.2 3.67 1.3 4.77 2.88 4.77 6.82 0 23.04.01 46.09 0 69.13-.03 35.52-20.85 66.1-53.89 79.11-5.97 2.35-12.15 4.08-18.53 4.65-2.84.26-5.84-.38-8.67-1.05-28.08-6.68-47.98-23.29-59.61-49.68-4.61-10.47-6.51-21.57-6.52-32.99-.01-23.1.01-46.21.01-69.31 0-3.8 1.12-5.36 4.74-6.64 21.94-7.79 43.88-15.58 65.81-23.37.55-.2 1.07-.48 1.61-.72h2.89z" fill="#444444"/>
      <path id="shine_gradient6" d="M244.46 723.18c.32.52.51.87.74 1.2 10.05 14.43 23.5 24.14 40.41 28.98 3.65 1.04 7.35 2.41 11.23 1.75 15.57-2.65 28.95-9.62 40-20.9 3.23-3.3 6.01-7.04 9-10.58-.13-.15-.25-.3-.38-.45h-101zm-12.03-97.72h125.3c0-2.6-.1-5.11.04-7.59.09-1.57-.41-2.29-1.93-2.82-19.71-6.93-39.39-13.95-59.1-20.88-.96-.34-2.24-.36-3.19-.03-8.57 2.95-17.11 6.02-25.66 9.05-11.3 4.01-22.61 8.02-33.9 12.06-.59.21-1.47.76-1.49 1.19-.13 2.97-.07 5.95-.07 9.02zm125.3 11.2H232.55c-.04.57-.1 1.04-.1 1.5-.01 15.02-.01 30.04-.03 45.06-.02 9.38 1.79 18.39 5.18 27.12.5 1.3 1.1 1.8 2.57 1.78 7-.1 14-.05 21.01-.05 29.68 0 59.37 0 89.05.03 1.09 0 1.69-.25 2.13-1.35 3.16-7.89 5.15-16.05 5.25-24.56.15-12.63.09-25.25.11-37.88.01-3.83.01-7.66.01-11.65z" fill="#fff"/>
      <path id="shine_gradient5" d="M244.46 723.18c.32.52.51.87.74 1.2 10.05 14.43 23.5 24.14 40.41 28.98 3.65 1.04 7.35 2.41 11.23 1.75 15.57-2.65 28.95-9.62 40-20.9 3.23-3.3 6.01-7.04 9-10.58-.13-.15-.25-.3-.38-.45h-101zm-12.03-97.72h125.3c0-2.6-.1-5.11.04-7.59.09-1.57-.41-2.29-1.93-2.82-19.71-6.93-39.39-13.95-59.1-20.88-.96-.34-2.24-.36-3.19-.03-8.57 2.95-17.11 6.02-25.66 9.05-11.3 4.01-22.61 8.02-33.9 12.06-.59.21-1.47.76-1.49 1.19-.13 2.97-.07 5.95-.07 9.02zm125.3 11.2H232.55c-.04.57-.1 1.04-.1 1.5-.01 15.02-.01 30.04-.03 45.06-.02 9.38 1.79 18.39 5.18 27.12.5 1.3 1.1 1.8 2.57 1.78 7-.1 14-.05 21.01-.05 29.68 0 59.37 0 89.05.03 1.09 0 1.69-.25 2.13-1.35 3.16-7.89 5.15-16.05 5.25-24.56.15-12.63.09-25.25.11-37.88.01-3.83.01-7.66.01-11.65z" fill="url(#shine_gradient5-fill)"/>
      <path id="shine_gradient4" d="M244.46 723.18c.32.52.51.87.74 1.2 10.05 14.43 23.5 24.14 40.41 28.98 3.65 1.04 7.35 2.41 11.23 1.75 15.57-2.65 28.95-9.62 40-20.9 3.23-3.3 6.01-7.04 9-10.58-.13-.15-.25-.3-.38-.45h-101zm-12.03-97.72h125.3c0-2.6-.1-5.11.04-7.59.09-1.57-.41-2.29-1.93-2.82-19.71-6.93-39.39-13.95-59.1-20.88-.96-.34-2.24-.36-3.19-.03-8.57 2.95-17.11 6.02-25.66 9.05-11.3 4.01-22.61 8.02-33.9 12.06-.59.21-1.47.76-1.49 1.19-.13 2.97-.07 5.95-.07 9.02zm125.3 11.2H232.55c-.04.57-.1 1.04-.1 1.5-.01 15.02-.01 30.04-.03 45.06-.02 9.38 1.79 18.39 5.18 27.12.5 1.3 1.1 1.8 2.57 1.78 7-.1 14-.05 21.01-.05 29.68 0 59.37 0 89.05.03 1.09 0 1.69-.25 2.13-1.35 3.16-7.89 5.15-16.05 5.25-24.56.15-12.63.09-25.25.11-37.88.01-3.83.01-7.66.01-11.65z" fill="url(#shine_gradient4-fill)"/>
      <path id="shine_gradient3" d="M244.46 723.18c.32.52.51.87.74 1.2 10.05 14.43 23.5 24.14 40.41 28.98 3.65 1.04 7.35 2.41 11.23 1.75 15.57-2.65 28.95-9.62 40-20.9 3.23-3.3 6.01-7.04 9-10.58-.13-.15-.25-.3-.38-.45h-101zm-12.03-97.72h125.3c0-2.6-.1-5.11.04-7.59.09-1.57-.41-2.29-1.93-2.82-19.71-6.93-39.39-13.95-59.1-20.88-.96-.34-2.24-.36-3.19-.03-8.57 2.95-17.11 6.02-25.66 9.05-11.3 4.01-22.61 8.02-33.9 12.06-.59.21-1.47.76-1.49 1.19-.13 2.97-.07 5.95-.07 9.02zm125.3 11.2H232.55c-.04.57-.1 1.04-.1 1.5-.01 15.02-.01 30.04-.03 45.06-.02 9.38 1.79 18.39 5.18 27.12.5 1.3 1.1 1.8 2.57 1.78 7-.1 14-.05 21.01-.05 29.68 0 59.37 0 89.05.03 1.09 0 1.69-.25 2.13-1.35 3.16-7.89 5.15-16.05 5.25-24.56.15-12.63.09-25.25.11-37.88.01-3.83.01-7.66.01-11.65z" fill="url(#shine_gradient3-fill)"/>
      <path id="shine_gradient2" d="M244.46 723.18c.32.52.51.87.74 1.2 10.05 14.43 23.5 24.14 40.41 28.98 3.65 1.04 7.35 2.41 11.23 1.75 15.57-2.65 28.95-9.62 40-20.9 3.23-3.3 6.01-7.04 9-10.58-.13-.15-.25-.3-.38-.45h-101zm-12.03-97.72h125.3c0-2.6-.1-5.11.04-7.59.09-1.57-.41-2.29-1.93-2.82-19.71-6.93-39.39-13.95-59.1-20.88-.96-.34-2.24-.36-3.19-.03-8.57 2.95-17.11 6.02-25.66 9.05-11.3 4.01-22.61 8.02-33.9 12.06-.59.21-1.47.76-1.49 1.19-.13 2.97-.07 5.95-.07 9.02zm125.3 11.2H232.55c-.04.57-.1 1.04-.1 1.5-.01 15.02-.01 30.04-.03 45.06-.02 9.38 1.79 18.39 5.18 27.12.5 1.3 1.1 1.8 2.57 1.78 7-.1 14-.05 21.01-.05 29.68 0 59.37 0 89.05.03 1.09 0 1.69-.25 2.13-1.35 3.16-7.89 5.15-16.05 5.25-24.56.15-12.63.09-25.25.11-37.88.01-3.83.01-7.66.01-11.65z" fill="url(#shine_gradient2-fill)"/>
      <path id="shine_gradient1" d="M244.46 723.18c.32.52.51.87.74 1.2 10.05 14.43 23.5 24.14 40.41 28.98 3.65 1.04 7.35 2.41 11.23 1.75 15.57-2.65 28.95-9.62 40-20.9 3.23-3.3 6.01-7.04 9-10.58-.13-.15-.25-.3-.38-.45h-101zm-12.03-97.72h125.3c0-2.6-.1-5.11.04-7.59.09-1.57-.41-2.29-1.93-2.82-19.71-6.93-39.39-13.95-59.1-20.88-.96-.34-2.24-.36-3.19-.03-8.57 2.95-17.11 6.02-25.66 9.05-11.3 4.01-22.61 8.02-33.9 12.06-.59.21-1.47.76-1.49 1.19-.13 2.97-.07 5.95-.07 9.02zm125.3 11.2H232.55c-.04.57-.1 1.04-.1 1.5-.01 15.02-.01 30.04-.03 45.06-.02 9.38 1.79 18.39 5.18 27.12.5 1.3 1.1 1.8 2.57 1.78 7-.1 14-.05 21.01-.05 29.68 0 59.37 0 89.05.03 1.09 0 1.69-.25 2.13-1.35 3.16-7.89 5.15-16.05 5.25-24.56.15-12.63.09-25.25.11-37.88.01-3.83.01-7.66.01-11.65z" fill="#fff"/>
      <path id="letter_n" d="M329.81 681.47c0 3.7.03 7.39-.01 11.09-.04 3.19-1.97 5.54-4.71 5.84-3.53.39-6.2-2.02-6.23-5.74-.04-6.34-.01-12.69-.01-19.03 0-5.86-.03-11.73.01-17.59.03-3.8 2.58-6.16 6.16-5.8 2.19.22 3.55 1.56 4.44 3.46 1.84 3.95 3.66 7.91 5.49 11.87.25.53.51 1.06.96 2 .1-.84.18-1.27.18-1.69.02-3.29-.01-6.58.04-9.87.06-3.46 2.33-5.83 5.5-5.81 3.15.01 5.46 2.42 5.47 5.85.02 12.15.01 24.29-.02 36.44-.01 3.07-1.74 5.36-4.28 5.87-2.84.56-5.07-.7-6.43-3.65-2.04-4.43-4.09-8.87-6.13-13.3-.14.01-.28.03-.43.06z" fill="#444444"/>
      <path id="letter_v" d="M258.59 671.99c1.68-6.16 3.21-11.85 4.79-17.53.74-2.65 2.5-4.11 4.91-4.25 3.76-.21 6.58 2.98 5.62 6.64-2.89 11.02-5.9 22.01-8.86 33.01-.37 1.38-.74 2.77-1.14 4.14-.88 2.99-2.76 4.49-5.5 4.43-2.61-.05-4.5-1.64-5.27-4.53-2.55-9.57-5.07-19.14-7.61-28.71-.67-2.54-1.38-5.06-2.02-7.61-.86-3.45.73-6.39 3.84-7.19 3.04-.79 5.83 1.13 6.74 4.59 1.45 5.52 2.92 11.04 4.5 17.01z" fill="#444"/>
      <path id="letter_p" d="M299.3 650.73c-4.65-.84-9.52-.51-14.3-.55-3.63-.03-5.74 2.22-5.74 5.87-.01 12.14-.01 24.29-.01 36.43 0 3.59 2.21 5.98 5.48 5.96 3.18-.02 5.31-2.36 5.34-5.9.02-3.22 0-6.45 0-9.97 2.09 0 3.93.03 5.77 0 7.89-.13 14.83-6.24 15.71-13.81 1.01-8.62-4.05-16.55-12.25-18.03zm-3.47 21c-1.83.15-3.68.03-5.68.03v-10.69c2.14 0 4.22-.19 6.26.05 2.66.32 4.5 2.78 4.41 5.46-.08 2.68-2.14 4.91-4.99 5.15z" fill="#444"/>
    </g>
  </g>
</svg>