<svg id="ezwy7o85aekh1" xmlns="http://www.w3.org/2000/svg" xmlns:xlink="http://www.w3.org/1999/xlink" viewBox="0 0 499.170000 498.380000" shape-rendering="geometricPrecision" text-rendering="geometricPrecision">
    <style>
        <![CDATA[#ezwy7o85aekh16_tr {animation: ezwy7o85aekh16_tr__tr 5000ms linear infinite normal forwards}@keyframes ezwy7o85aekh16_tr__tr { 0% {transform: translate(236.539359px,325.606671px) rotate(0deg)} 16% {transform: translate(236.539359px,325.606671px) rotate(-2.659923deg)} 36% {transform: translate(236.539359px,325.606671px) rotate(25.059844deg)} 60% {transform: translate(236.539359px,325.606671px) rotate(5.139156deg)} 80% {transform: translate(236.539359px,325.606671px) rotate(21.080555deg)} 100% {transform: translate(236.539359px,325.606671px) rotate(0deg)} }]]>
    </style>
    <defs>
        <filter id="ezwy7o85aekh16-filter" x="-400%" width="600%" y="-400%" height="600%">
            <feGaussianBlur id="ezwy7o85aekh16-filter-drop-shadow-0-blur" in="SourceAlpha" stdDeviation="6,6" />
            <feOffset id="ezwy7o85aekh16-filter-drop-shadow-0-offset" dx="4" dy="4" result="tmp" />
            <feFlood id="ezwy7o85aekh16-filter-drop-shadow-0-flood" flood-color="rgb(255,170,42)" />
            <feComposite id="ezwy7o85aekh16-filter-drop-shadow-0-composite" operator="in" in2="tmp" />
            <feMerge id="ezwy7o85aekh16-filter-drop-shadow-0-merge">
                <feMergeNode id="ezwy7o85aekh16-filter-drop-shadow-0-merge-node-1" />
                <feMergeNode id="ezwy7o85aekh16-filter-drop-shadow-0-merge-node-2" in="SourceGraphic" />
            </feMerge>
        </filter>
    </defs>
    <g id="ezwy7o85aekh2">
    <defs>
        <radialGradient id="eo3z0svo1z33-fill" cx="250.357201" cy="249.769770" r="383.733600" spreadMethod="pad" gradientUnits="userSpaceOnUse">
			<stop  offset="0" style="stop-color:#FFC43D"/>
			<stop  offset="0.0388" style="stop-color:#FCBA3C"/>
			<stop  offset="0.3236" style="stop-color:#E77538"/>
			<stop  offset="0.5292" style="stop-color:#D94A35"/>
			<stop  offset="0.6335" style="stop-color:#D43934"/>
			<stop  offset="0.6579" style="stop-color:#CE3732"/>
			<stop  offset="0.7731" style="stop-color:#B62F2A"/>
			<stop  offset="0.8803" style="stop-color:#A82A26"/>
			<stop  offset="0.971" style="stop-color:#A32824"/>
        </radialGradient>
    </defs>
    <g id="eo3z0svo1z32">
        <path
            id="eo3z0svo1z33"
            d="M499.860000,249.830000C499.860000,312.440000,499.860000,375.050000,499.860000,437.670000C499.860000,466.370000,478.220000,492.600000,449.950000,497.980000C445.770000,498.770000,441.450000,499.230000,437.200000,499.230000C312.400000,499.300000,187.590000,499.280000,62.790000,499.280000C32.190000,499.280000,5.490000,475.810000,1.480000,445.370000C1.130000,442.680000,0.890000,439.960000,0.890000,437.250000C0.850000,312.120000,0.850000,187,0.850000,61.890000C0.850000,33.180000,22.510000,6.940000,50.760000,1.580000C54.940000,0.790000,59.260000,0.330000,63.510000,0.330000C188.420000,0.260000,313.320000,0.280000,438.240000,0.280000C466.950000,0.280000,493.220000,21.960000,498.550000,50.190000C499.340000,54.370000,499.790000,58.690000,499.800000,62.940000C499.880000,125.230000,499.860000,187.530000,499.860000,249.830000Z"
            fill="url(#eo3z0svo1z33-fill)"
            stroke="none"
            stroke-width="1"
        />
    </g>
        <path
            id="ezwy7o85aekh4"
            d="M132.400000,1.160000C234.140000,1.130000,335.890000,1.140000,437.630000,1.140000C466.200000,1.140000,492.360000,22.720000,497.670000,50.830000C498.460000,54.990000,498.910000,59.290000,498.910000,63.520000C498.950000,98.130000,498.970000,112.350000,498.970000,146.960000C438.630000,146.960000,86.830000,146.960000,2.210000,146.960000C2.210000,112,2.210000,97.440000,2.210000,62.480000C2.210000,33.900000,23.770000,7.780000,51.900000,2.440000C56.060000,1.650000,60.360000,1.200000,64.590000,1.200000C87.190000,1.170000,109.800000,1.160000,132.400000,1.160000Z"
            fill="rgb(0,0,0)"
                stroke="#000"
                stroke-width="2"
                stroke-miterlimit="10"
        />
    </g>
    <g id="ezwy7o85aekh5">
        <g id="ezwy7o85aekh6">
            <path
                id="ezwy7o85aekh7"
                d="M298.090000,137.450000C298.090000,137.450000,298.090000,137.440000,298.090000,137.440000C307.240000,137.440000,316.390000,137.480000,325.530000,137.380000C326.630000,137.370000,328.070000,136.860000,328.770000,136.100000C333,131.520000,337.060000,126.800000,341.170000,122.130000C352.050000,109.780000,362.950000,97.440000,373.790000,85.050000C374.480000,84.260000,374.700000,83.110000,375.140000,82.120000C374.140000,81.880000,373.140000,81.430000,372.130000,81.430000C354.160000,81.380000,336.190000,81.350000,318.220000,81.460000C316.820000,81.470000,314.980000,82.210000,314.100000,83.210000C299.010000,100.160000,284.030000,117.200000,269.060000,134.250000C268.500000,134.890000,268.380000,135.860000,268.050000,136.680000C268.910000,136.930000,269.770000,137.400000,270.640000,137.410000C279.790000,137.470000,288.940000,137.450000,298.090000,137.450000Z"
                fill="#fff"
                stroke="none"
                stroke-width="1"
            />
            <path
                id="ezwy7o85aekh8"
                d="M267.320000,14.140000C268.440000,15.850000,269.020000,17.020000,269.850000,17.970000C284.250000,34.370000,298.710000,50.730000,313.060000,67.160000C314.620000,68.950000,316.280000,69.510000,318.650000,69.500000C336.280000,69.420000,353.910000,69.460000,371.540000,69.440000C372.670000,69.440000,373.800000,69.300000,375.680000,69.180000C374.730000,67.820000,374.250000,66.970000,373.610000,66.240000C358.930000,49.520000,344.210000,32.840000,329.570000,16.090000C328.240000,14.570000,326.860000,14.080000,324.840000,14.090000C306.990000,14.160000,289.150000,14.130000,271.300000,14.130000C270.250000,14.140000,269.210000,14.140000,267.320000,14.140000Z"
                fill="#fff"
                stroke="none"
                stroke-width="1"
            />
            <path
                id="ezwy7o85aekh9"
                d="M146.850000,137.370000C148.870000,137.370000,149.830000,137.370000,150.800000,137.370000C167.890000,137.370000,184.980000,137.300000,202.060000,137.430000C205.120000,137.450000,207.100000,136.690000,209.130000,134.350000C223.350000,117.940000,237.790000,101.700000,252.140000,85.380000C252.960000,84.440000,253.520000,83.290000,254.420000,81.880000C252.980000,81.720000,252.250000,81.560000,251.520000,81.560000C233.340000,81.550000,215.170000,81.510000,196.990000,81.640000C195.650000,81.650000,193.960000,82.660000,193.050000,83.690000C178.210000,100.420000,163.470000,117.220000,148.730000,134.040000C148.040000,134.810000,147.690000,135.840000,146.850000,137.370000Z"
                fill="#fff"
                stroke="none"
                stroke-width="1"
            />
            <path
                id="ezwy7o85aekh10"
                d="M496.370000,81.930000C495.020000,81.760000,494.490000,81.630000,493.960000,81.630000C475.560000,81.610000,457.150000,81.560000,438.750000,81.650000C437.590000,81.660000,436.110000,82.510000,435.320000,83.400000C420.330000,100.290000,405.410000,117.250000,390.520000,134.220000C389.880000,134.950000,389.650000,136,389.200000,136.940000C389.970000,137.200000,390.170000,137.330000,390.370000,137.330000C409.210000,137.340000,428.050000,137.360000,446.880000,137.300000C447.690000,137.300000,448.740000,136.800000,449.270000,136.200000C464.230000,119.280000,479.130000,102.320000,494.030000,85.350000C494.810000,84.460000,495.370000,83.390000,496.370000,81.930000Z"
                fill="#fff"
                stroke="none"
                stroke-width="1"
            />
            <path
                id="ezwy7o85aekh11"
                d="M133.550000,82.480000C133.350000,82.180000,133.150000,81.880000,132.950000,81.570000C131.670000,81.570000,130.390000,81.570000,129.100000,81.570000C112.450000,81.570000,95.800000,81.680000,79.150000,81.500000C75.550000,81.460000,73.290000,82.490000,70.980000,85.160000C56.630000,101.730000,42.040000,118.110000,27.570000,134.590000C27,135.240000,26.820000,136.180000,26.300000,137.350000C46.090000,137.350000,65.230000,137.360000,84.370000,137.300000C85.170000,137.300000,86.180000,136.730000,86.720000,136.130000C101.470000,119.470000,116.180000,102.780000,130.870000,86.070000C131.870000,84.950000,132.670000,83.680000,133.550000,82.480000Z"
                fill="#fff"
                stroke="none"
                stroke-width="1"
            />
            <path
                id="ezwy7o85aekh12"
                d="M146.790000,14.160000C147.800000,15.760000,148.260000,16.760000,148.960000,17.570000C163.560000,34.220000,178.160000,50.870000,192.870000,67.430000C193.760000,68.440000,195.550000,69.260000,196.930000,69.270000C215.100000,69.390000,233.280000,69.360000,251.450000,69.340000C252.220000,69.340000,253,69.120000,254.170000,68.940000C253.490000,67.940000,253.160000,67.310000,252.700000,66.790000C237.800000,49.840000,222.910000,32.890000,207.890000,16.030000C206.960000,14.990000,205.010000,14.250000,203.530000,14.240000C186.230000,14.120000,168.920000,14.160000,151.620000,14.170000C150.340000,14.160000,149.050000,14.160000,146.790000,14.160000Z"
                fill="#fff"
                stroke="none"
                stroke-width="1"
            />
            <path
                id="ezwy7o85aekh13"
                d="M27,14.160000C26.730000,14.410000,26.460000,14.670000,26.190000,14.920000C27.100000,16.030000,27.980000,17.170000,28.930000,18.250000C43.200000,34.500000,57.490000,50.730000,71.720000,67.010000C73.150000,68.650000,74.630000,69.390000,76.960000,69.380000C94.590000,69.290000,112.230000,69.340000,129.860000,69.340000C130.890000,69.340000,131.920000,69.240000,133.410000,69.160000C132.870000,68.160000,132.660000,67.490000,132.230000,66.990000C117.200000,49.870000,102.150000,32.760000,87.050000,15.700000C86.380000,14.950000,85.120000,14.230000,84.130000,14.230000C65.090000,14.140000,46.040000,14.160000,27,14.160000Z"
                fill="#fff"
                stroke="none"
                stroke-width="1"
            />
            <path
                id="ezwy7o85aekh14"
                d="M496.230000,69.100000C495.360000,67.900000,494.910000,67.160000,494.340000,66.510000C479.670000,49.790000,464.980000,33.100000,450.350000,16.350000C449,14.800000,447.630000,14.100000,445.430000,14.110000C427.810000,14.200000,410.190000,14.150000,392.560000,14.160000C391.530000,14.160000,390.510000,14.270000,388.820000,14.370000C389.740000,15.770000,390.230000,16.750000,390.950000,17.560000C405.480000,34.120000,420.050000,50.640000,434.550000,67.230000C435.950000,68.830000,437.430000,69.370000,439.570000,69.360000C457.190000,69.280000,474.820000,69.300000,492.440000,69.280000C493.460000,69.280000,494.500000,69.180000,496.230000,69.100000Z"
                fill="#fff"
                stroke="none"
                stroke-width="1"
            />
        </g>
    </g>
    <g id="ezwy7o85aekh15">
        <g id="ezwy7o85aekh16_tr" transform="translate(236.539359,325.606671) rotate(0)">
            <path
                id="ezwy7o85aekh16"
                d="M182.310000,393.940000C170.920000,388.980000,159.520000,388.900000,148.090000,390.980000C126.960000,394.820000,109.490000,404.740000,97.450000,422.990000C91.540000,431.950000,88.660000,441.910000,90.250000,452.640000C92.610000,468.630000,102.740000,478.490000,117.460000,483.100000C142.460000,490.920000,165.730000,486.300000,186.310000,470.270000C200.400000,459.290000,207.610000,444.780000,207.440000,426.370000C207.070000,386.520000,207.420000,346.660000,207.310000,306.800000C207.290000,299.290000,210.390000,293.900000,216.660000,290.190000C218.780000,288.930000,221.080000,287.860000,223.430000,287.120000C263.360000,274.530000,303.310000,262.010000,343.270000,249.510000C345.220000,248.900000,347.270000,248.450000,349.290000,248.310000C354.560000,247.930000,357.430000,250.480000,357.940000,255.730000C358.030000,256.700000,358.040000,257.680000,358.040000,258.650000C358.060000,290.380000,358.070000,322.120000,358.080000,353.850000C358.080000,354.870000,357.980000,355.890000,357.920000,357.170000C346.080000,352.150000,334.170000,351.360000,322.110000,353.170000C300.560000,356.410000,282.660000,366.060000,270.560000,384.680000C263.030000,396.260000,260.540000,408.930000,265.780000,422.160000C270.920000,435.150000,281.320000,442.700000,294.350000,446.080000C321.830000,453.220000,346.320000,446.880000,367.060000,427.540000C377.970000,417.370000,383.360000,404.750000,383.260000,389.340000C382.920000,333.350000,383.130000,277.360000,383.130000,221.360000C383.130000,209.340000,383.190000,197.320000,383.110000,185.300000C383.040000,174.960000,376.150000,166.230000,365.920000,164.700000C361.170000,163.990000,355.970000,164.590000,351.240000,165.730000C342.840000,167.760000,334.660000,170.650000,326.380000,173.180000C288.600000,184.730000,250.840000,196.330000,213.040000,207.800000C194.960000,213.280000,181.890000,232.190000,182.090000,249.820000C182.600000,296.600000,182.280000,343.390000,182.300000,390.180000C182.310000,391.220000,182.310000,392.300000,182.310000,393.940000Z"
                transform="translate(-236.539359,-325.606671)"
                filter="url(#ezwy7o85aekh16-filter)"
                fill="#fff"
                stroke="rgb(0,0,0)"
                stroke-width="10"
                stroke-miterlimit="10"
            />
        </g>
    </g>
</svg>
