<svg id="eei3x78wx46b1" xmlns="http://www.w3.org/2000/svg" xmlns:xlink="http://www.w3.org/1999/xlink" viewBox="0 0 499.170000 498.380000" shape-rendering="geometricPrecision" text-rendering="geometricPrecision">
    <style>
        <![CDATA[#eei3x78wx46b6_tr {animation: ez7fwf4b0cs6_tr__tr 7000ms linear infinite normal forwards}@keyframes ez7fwf4b0cs6_tr__tr { 0% {transform: translate(261.009766px,255.031250px) rotate(-15.250715deg);animation-timing-function: cubic-bezier(0.445000,0.050000,0.550000,0.950000)} 50% {transform: translate(261.009766px,255.031250px) rotate(15.384547deg);animation-timing-function: cubic-bezier(0.445000,0.050000,0.550000,0.950000)} 100% {transform: translate(261.009766px,255.031250px) rotate(-15.250715deg)} }#eei3x78wx46b11 {animation: eei3x78wx46b11_f_o 5000ms linear infinite normal forwards}@keyframes eei3x78wx46b11_f_o { 0% {fill-opacity: 1;animation-timing-function: cubic-bezier(0.770000,0,0.175000,1)} 24% {fill-opacity: 0;animation-timing-function: cubic-bezier(0.770000,0,0.175000,1)} 50% {fill-opacity: 1;animation-timing-function: cubic-bezier(0.770000,0,0.175000,1)} 76% {fill-opacity: 0;animation-timing-function: cubic-bezier(0.770000,0,0.175000,1)} 100% {fill-opacity: 1} }]]>
    </style>
    <defs>
        <radialGradient id="eo3z0svo1z33-fill" cx="250.357201" cy="249.769770" r="383.733600" spreadMethod="pad" gradientUnits="userSpaceOnUse">
            <stop id="eo3z0svo1z33-fill-0" offset="0%" stop-color="rgb(255,197,63)" />
            <stop id="eo3z0svo1z33-fill-1" offset="3.880000%" stop-color="rgb(252,186,60)" />
            <stop id="eo3z0svo1z33-fill-2" offset="32.360000%" stop-color="rgb(231,118,55)" />
            <stop id="eo3z0svo1z33-fill-3" offset="52.920000%" stop-color="rgb(217,75,53)" />
            <stop id="eo3z0svo1z33-fill-4" offset="63.350000%" stop-color="rgb(212,59,52)" />
            <stop id="eo3z0svo1z33-fill-5" offset="65.790000%" stop-color="rgb(206,56,50)" />
            <stop id="eo3z0svo1z33-fill-6" offset="77.310000%" stop-color="rgb(182,49,42)" />
            <stop id="eo3z0svo1z33-fill-7" offset="88.030000%" stop-color="rgb(169,43,38)" />
            <stop id="eo3z0svo1z33-fill-8" offset="97.100000%" stop-color="rgb(164,42,36)" />
        </radialGradient>
    </defs>
    <g id="eo3z0svo1z32">
        <path
            id="eo3z0svo1z33"
            d="M499.860000,249.830000C499.860000,312.440000,499.860000,375.050000,499.860000,437.670000C499.860000,466.370000,478.220000,492.600000,449.950000,497.980000C445.770000,498.770000,441.450000,499.230000,437.200000,499.230000C312.400000,499.300000,187.590000,499.280000,62.790000,499.280000C32.190000,499.280000,5.490000,475.810000,1.480000,445.370000C1.130000,442.680000,0.890000,439.960000,0.890000,437.250000C0.850000,312.120000,0.850000,187,0.850000,61.890000C0.850000,33.180000,22.510000,6.940000,50.760000,1.580000C54.940000,0.790000,59.260000,0.330000,63.510000,0.330000C188.420000,0.260000,313.320000,0.280000,438.240000,0.280000C466.950000,0.280000,493.220000,21.960000,498.550000,50.190000C499.340000,54.370000,499.790000,58.690000,499.800000,62.940000C499.880000,125.230000,499.860000,187.530000,499.860000,249.830000Z"
            fill="url(#eo3z0svo1z33-fill)"
            stroke="none"
            stroke-width="1"
        />
    </g>
    <g id="eei3x78wx46b4">
        <circle id="eei3x78wx46b5" r="190.680000" transform="matrix(1 0 0 1 266.69000000000000 256.08999999999997)" fill="#fff" stroke="none" stroke-width="1" />
        <g id="eei3x78wx46b6_tr" transform="translate(261.009766,255.031250) rotate(-15.250715)">
            <g id="eei3x78wx46b6" transform="translate(-261.009766,-255.031250)">
                <path
                    id="eei3x78wx46b7"
                    d="M258.870000,474.420000C256.600000,474.240000,254.340000,474.010000,252.060000,473.880000C241.170000,473.250000,230.420000,471.640000,219.760000,469.320000C208.600000,466.890000,197.700000,463.580000,187.060000,459.420000C172.860000,453.870000,159.380000,446.910000,146.650000,438.520000C135.150000,430.950000,124.460000,422.380000,114.560000,412.800000C100.110000,398.820000,87.810000,383.180000,77.650000,365.840000C66.870000,347.430000,58.970000,327.870000,53.930000,307.140000C51.710000,298.020000,50.130000,288.800000,49.080000,279.460000C47.900000,268.960000,47.490000,258.430000,47.810000,247.880000C48.470000,226.170000,51.940000,204.960000,59.250000,184.440000C59.400000,184.020000,59.560000,183.610000,59.760000,183.070000C71.240000,187.280000,82.600000,191.450000,93.810000,195.550000C92.230000,201.100000,90.550000,206.490000,89.170000,211.950000C87.190000,219.770000,86.020000,227.730000,85.220000,235.770000C84.290000,245.200000,84.130000,254.660000,84.520000,264.100000C84.940000,274.170000,86.260000,284.150000,88.380000,294.010000C91.730000,309.590000,96.970000,324.520000,104.210000,338.720000C110.650000,351.350000,118.470000,363.080000,127.680000,373.880000C142.930000,391.760000,160.940000,406.170000,181.760000,417.060000C197.530000,425.310000,214.160000,431.050000,231.630000,434.460000C246.300000,437.320000,261.110000,438.280000,276.010000,437.650000C287.770000,437.150000,299.390000,435.460000,310.850000,432.680000C324.730000,429.320000,338.050000,424.440000,350.770000,417.940000C363.400000,411.490000,375.120000,403.670000,385.920000,394.470000C401.130000,381.520000,413.860000,366.470000,424.110000,349.340000C433.010000,334.460000,439.610000,318.600000,443.940000,301.820000C446.130000,293.350000,447.660000,284.770000,448.680000,276.070000C449.850000,266.060000,450.100000,256.020000,449.660000,245.990000C449.160000,234.600000,447.550000,223.330000,444.910000,212.220000C441.640000,198.460000,436.890000,185.250000,430.560000,172.600000C424.010000,159.500000,415.990000,147.370000,406.480000,136.220000C391.260000,118.380000,373.290000,103.990000,352.520000,93.110000C336.720000,84.830000,320.040000,79.080000,302.530000,75.650000C287.760000,72.760000,272.860000,71.800000,257.880000,72.480000C240.480000,73.260000,223.460000,76.390000,206.900000,81.860000C203.580000,82.960000,200.290000,84.140000,196.800000,85.350000C192.440000,74.170000,188.080000,62.980000,183.650000,51.640000C187.340000,50.330000,190.910000,49,194.510000,47.790000C206.110000,43.880000,217.940000,40.830000,230.020000,38.850000C236.170000,37.840000,242.390000,37.200000,248.590000,36.540000C258.920000,35.440000,269.290000,35.450000,279.650000,36.030000C291.350000,36.680000,302.940000,38.270000,314.400000,40.790000C325.560000,43.250000,336.460000,46.540000,347.090000,50.700000C361.290000,56.250000,374.760000,63.210000,387.500000,71.590000C399,79.160000,409.690000,87.730000,419.590000,97.300000C434.050000,111.270000,446.340000,126.920000,456.510000,144.260000C464.880000,158.520000,471.520000,173.540000,476.460000,189.300000C480.020000,200.690000,482.800000,212.270000,484.210000,224.130000C485.050000,231.140000,485.520000,238.200000,486.170000,245.230000C486.220000,245.770000,486.350000,246.300000,486.440000,246.830000C486.440000,252.310000,486.440000,257.800000,486.440000,263.280000C486.350000,263.860000,486.190000,264.430000,486.170000,265.010000C485.870000,275.190000,484.630000,285.280000,482.790000,295.280000C479.350000,313.920000,473.580000,331.830000,465.450000,348.960000C454.860000,371.270000,440.910000,391.240000,423.610000,408.860000C412.540000,420.130000,400.390000,430.080000,387.180000,438.740000C374.690000,446.920000,361.500000,453.740000,347.630000,459.230000C335.520000,464.020000,323.060000,467.680000,310.290000,470.200000C300.990000,472.040000,291.610000,473.360000,282.130000,473.880000C279.860000,474,277.590000,474.240000,275.330000,474.420000C269.840000,474.420000,264.350000,474.420000,258.870000,474.420000Z"
                    fill="#333"
                    stroke="none"
                    stroke-width="1"
                />
                <path
                    id="eei3x78wx46b8"
                    d="M194.800000,390.230000C195.500000,387.350000,196.090000,384.440000,196.920000,381.600000C203.290000,359.750000,213.270000,339.760000,227.440000,321.890000C241.900000,303.650000,259.630000,289.540000,280.670000,279.620000C293.230000,273.700000,306.400000,269.640000,320.040000,267.060000C332.270000,264.740000,344.620000,263.930000,357.050000,263.560000C375.420000,263,391.440000,276.690000,394.760000,293.730000C396.920000,304.850000,393.980000,314.820000,386.790000,323.490000C380.880000,330.600000,373.360000,335.100000,364.200000,336.680000C362.220000,337.020000,360.190000,337.100000,358.180000,337.200000C348.040000,337.730000,337.850000,337.760000,327.770000,338.820000C299.810000,341.750000,272.850000,348.720000,247.020000,359.900000C229.930000,367.290000,213.690000,376.160000,198.830000,387.460000C197.620000,388.380000,196.440000,389.350000,195.250000,390.300000C195.090000,390.270000,194.950000,390.250000,194.800000,390.230000Z"
                    fill="#333"
                    stroke="none"
                    stroke-width="1"
                />
                <path
                    id="eei3x78wx46b9"
                    d="M297.640000,209.250000C297.590000,232.140000,279.010000,250.710000,256.190000,250.680000C233.360000,250.650000,214.740000,231.940000,214.840000,209.150000C214.950000,185.950000,233.440000,167.760000,256.830000,167.840000C279.240000,167.920000,297.690000,186.640000,297.640000,209.250000Z"
                    fill="#333"
                    stroke="none"
                    stroke-width="1"
                />
                <path
                    id="eei3x78wx46b10"
                    d="M330.540000,186.710000C330.570000,163.480000,349.660000,145.050000,372.680000,145.350000C394.980000,145.640000,413.380000,164.230000,413.340000,186.790000C413.300000,209.730000,394.620000,228.350000,371.750000,228.230000C348.960000,228.100000,330.450000,209.450000,330.540000,186.710000Z"
                    fill="#333333"
                    stroke="none"
                    stroke-width="1"
                />
                <path
                    id="eei3x78wx46b11"
                    d="M88.620000,120.030000L36.450000,129.750000C31.190000,84.400000,49.700000,55.350000,92,42.600000C113.280000,36.190000,131.770000,36.750000,147.450000,44.280000C163.130000,51.810000,173.480000,63.890000,178.480000,80.490000C180.690000,87.830000,181.490000,94.890000,180.890000,101.680000C180.280000,108.470000,178.660000,114.390000,176.030000,119.430000C173.400000,124.480000,168.760000,131.410000,162.100000,140.220000C157.020000,146.950000,153.920000,151.670000,152.780000,154.360000C151.640000,157.060000,151.370000,160.560000,151.970000,164.890000L106.280000,178.660000C102.930000,167.560000,101.510000,159.260000,102,153.750000C102.490000,148.250000,104.980000,141.820000,109.470000,134.460000C116.220000,123.320000,120.130000,115.360000,121.190000,110.590000C122.250000,105.820000,121.970000,100.720000,120.340000,95.310000C118.630000,89.620000,115.790000,85.700000,111.840000,83.540000C107.890000,81.380000,103.660000,80.980000,99.170000,82.330000C85.870000,86.330000,82.350000,98.900000,88.620000,120.030000ZM160.780000,175.150000L175.920000,225.380000L123.210000,241.270000L108.070000,191.040000L160.780000,175.150000Z"
                    fill="#00b300"
                    stroke="none"
                    stroke-width="1"
                />
            </g>
        </g>
    </g>
</svg>
