<svg id="epw0jhjv2c31" xmlns="http://www.w3.org/2000/svg" xmlns:xlink="http://www.w3.org/1999/xlink" viewBox="0 0 769 769" shape-rendering="geometricPrecision" text-rendering="geometricPrecision">
    <style>
        <![CDATA[#epw0jhjv2c31{pointer-events: all} #epw0jhjv2c31:hover * {animation-play-state: running !important}#epw0jhjv2c35 {animation: epw0jhjv2c35_c_o 6000ms linear infinite normal forwards}@keyframes epw0jhjv2c35_c_o { 0% {opacity: 1} 16.666667% {opacity: 1;animation-timing-function: step-end} 20% {opacity: 0;animation-timing-function: step-end} 23.333333% {opacity: 1} 100% {opacity: 1} }#epw0jhjv2c39 {animation: epw0jhjv2c39_f_o 6000ms linear infinite normal forwards}@keyframes epw0jhjv2c39_f_o { 0% {fill-opacity: 0} 16.666667% {fill-opacity: 0;animation-timing-function: step-end} 20% {fill-opacity: 1;animation-timing-function: step-end} 23.333333% {fill-opacity: 0} 100% {fill-opacity: 0} }]]>
    </style>
<style type="text/css">
	.st0{fill:url(#SVGID_1_);}
	.st1{fill:#FFFFFF;stroke:#01507B;stroke-width:20;stroke-miterlimit:16;}
	.st2{fill:#DDDDDD;}
	.st3{fill:#01507B;}
</style>
<radialGradient id="SVGID_1_" cx="385.802" cy="384.6929" r="383.1984" gradientUnits="userSpaceOnUse">
	<stop  offset="0" style="stop-color:#FFC43D"/>
	<stop  offset="0.0388" style="stop-color:#FCBA3C"/>
	<stop  offset="0.3236" style="stop-color:#E77538"/>
	<stop  offset="0.5292" style="stop-color:#D94A35"/>
	<stop  offset="0.6335" style="stop-color:#D43934"/>
	<stop  offset="0.6579" style="stop-color:#CE3732"/>
	<stop  offset="0.7731" style="stop-color:#B62F2A"/>
	<stop  offset="0.8803" style="stop-color:#A82A26"/>
	<stop  offset="0.971" style="stop-color:#A32824"/>
</radialGradient>
<path class="st0" d="M769,384.78c0,96.16,0,192.32,0,288.49c0,44.08-33.24,84.37-76.66,92.62c-6.42,1.22-13.05,1.92-19.58,1.92
	c-191.68,0.1-383.36,0.08-575.04,0.08c-46.99,0-88-36.04-94.16-82.8c-0.54-4.13-0.91-8.31-0.91-12.47
	C2.6,480.45,2.6,288.29,2.6,96.13c0-44.09,33.26-84.39,76.66-92.63c6.42-1.22,13.05-1.92,19.58-1.92
	C290.68,1.48,482.52,1.5,674.37,1.5c44.09,0,84.44,33.3,92.63,76.66c1.21,6.42,1.91,13.05,1.92,19.58
	C769.03,193.42,769,289.1,769,384.78z"/>
    <g id="epw0jhjv2c34" transform="matrix(4 0 0 4 -845.91000366000026 -2287.89179998999998)">
        <g id="epw0jhjv2c35">
            <path
                id="epw0jhjv2c36"
                d="M216.960000,667.480000C218.380000,665.050000,219.770000,662.590000,221.240000,660.180000C230.720000,644.680000,243.380000,632.460000,259.250000,623.620000C269.170000,618.090000,279.750000,614.350000,290.970000,612.520000C316.270000,608.400000,339.840000,613.130000,361.520000,626.750000C377.380000,636.710000,389.450000,650.260000,398.050000,666.890000C398.310000,667.400000,398.310000,668.280000,398.050000,668.780000C385.830000,692.040000,367.610000,708.720000,343.040000,718.150000C328.140000,723.870000,312.650000,725.900000,296.760000,723.890000C261.900000,719.490000,236.170000,701.470000,218.760000,671.190000C218.180000,670.180000,217.560000,669.180000,216.960000,668.180000C216.960000,667.960000,216.960000,667.720000,216.960000,667.480000Z"
                fill="#333333"
                stroke="none"
                stroke-width="1"
            />
            <path
                id="epw0jhjv2c37"
                d="M264.660000,640.300000C264.510000,640.360000,264.290000,640.420000,264.110000,640.540000C253.160000,647.360000,244.130000,656.150000,237.160000,667.010000C236.870000,667.460000,237.010000,668.480000,237.340000,668.980000C256.190000,698.220000,290.940000,712.940000,325.040000,705.660000C347.750000,700.820000,365.390000,688.190000,378.300000,668.920000C378.860000,668.090000,378.790000,667.520000,378.270000,666.720000C371.370000,656.250000,362.640000,647.670000,352.070000,640.940000C351.670000,640.690000,351.230000,640.510000,350.670000,640.220000C357.970000,662.550000,348.240000,682.700000,333.580000,692.790000C319.120000,702.750000,299.090000,704.300000,283.240000,693.510000C264.180000,680.520000,258.850000,662.260000,264.660000,640.300000Z"
                fill="#eeeeee"
                stroke="none"
                stroke-width="1"
            />
            <path
                id="epw0jhjv2c38"
                d="M290.490000,666.750000C299.260000,666.620000,307.340000,660.490000,307.660000,650.080000C307.930000,641.250000,301.430000,633.080000,290.980000,632.820000C282.210000,632.600000,274.130000,639.010000,273.810000,649.420000C273.540000,658.240000,280.040000,666.180000,290.490000,666.750000Z"
                fill="rgb(255,255,255)"
                stroke="none"
                stroke-width="1"
            />
        </g>
        <path
            id="epw0jhjv2c39"
            d="M220.840000,712.440000C220.700000,712.180000,220.550000,711.910000,220.410000,711.650000C219.960000,710.820000,219.480000,710.010000,219.020000,709.190000C219.050000,709,219.080000,708.810000,219.110000,708.630000C220.260000,707.380000,221.380000,706.120000,222.530000,704.880000C228.330000,705.620000,235.210000,706.490000,241.050000,707.240000C240.420000,707.820000,239.810000,708.420000,239.200000,709.030000C238.860000,709.380000,238.860000,710.190000,239.120000,710.610000C254.020000,734.590000,286.560000,747.610000,321.310000,743.130000C344.450000,740.140000,363.570000,730.770000,378.870000,715.930000C379.530000,715.290000,379.540000,714.830000,379.120000,714.180000C378.930000,713.890000,378.750000,713.600000,378.550000,713.310000C383.530000,712.450000,390.410000,711.260000,396.220000,710.250000C397.100000,711.820000,397.930000,713.430000,398.700000,715.070000C398.890000,715.480000,398.780000,716.180000,398.450000,716.580000C383.320000,734.620000,363.110000,747.190000,337.520000,753.750000C322.010000,757.730000,306.390000,758.750000,290.900000,756.550000C257.280000,751.760000,234.250000,736.720000,220.840000,712.440000Z"
            transform="matrix(1 0 0 1 -2.05999999999999 -40.90790075000000)"
            fill="#333"
            fill-opacity="0"
            stroke="none"
            stroke-width="1"
        />
    </g>
</svg>
