<svg id="books" xmlns="http://www.w3.org/2000/svg" viewBox="0 0 769 769" width="500" height="500" shape-rendering="geometricPrecision" text-rendering="geometricPrecision">
  <style>
    @keyframes book_group_animation__to{0%,23.333333%{transform:translate(-900px,-1400px)}33.333333%{transform:translate(-900px,-400px)}36.666667%{transform:translate(900px,-400px)}40%{transform:translate(900px,-2400px)}43.333333%,to{transform:translate(-900px,-2400px)}}@keyframes book1_animation__to{0%,73.333333%{transform:translate(0,-78.053975px)}80%,to{transform:translate(0,171.946025px)}}@keyframes book2_animation__to{0%,83.333333%{transform:translate(0,-108.053975px)}90%,to{transform:translate(0,141.946025px)}}@keyframes book3_animation__to{0%,93.333333%{transform:translate(0,-138.053975px)}to{transform:translate(0,111.946025px)}} #books:hover *{animation-play-state:running!important}#book_group_animation{animation:book_group_animation__to 6000ms linear infinite normal forwards}#book1_animation{animation:book1_animation__to 6000ms linear infinite normal forwards}#book2_animation{animation:book2_animation__to 6000ms linear infinite normal forwards}#book3_animation{animation:book3_animation__to 6000ms linear infinite normal forwards}
  </style>
<style type="text/css">
	.st0{fill:url(#SVGID_1_);}
	.st1{fill:#FFFFFF;stroke:#01507B;stroke-width:20;stroke-miterlimit:16;}
	.st2{fill:#DDDDDD;}
	.st3{fill:#01507B;}
</style>
<radialGradient id="SVGID_1_" cx="385.802" cy="384.6929" r="383.1984" gradientUnits="userSpaceOnUse">
	<stop  offset="0" style="stop-color:#FFC43D"/>
	<stop  offset="0.0388" style="stop-color:#FCBA3C"/>
	<stop  offset="0.3236" style="stop-color:#E77538"/>
	<stop  offset="0.5292" style="stop-color:#D94A35"/>
	<stop  offset="0.6335" style="stop-color:#D43934"/>
	<stop  offset="0.6579" style="stop-color:#CE3732"/>
	<stop  offset="0.7731" style="stop-color:#B62F2A"/>
	<stop  offset="0.8803" style="stop-color:#A82A26"/>
	<stop  offset="0.971" style="stop-color:#A32824"/>
</radialGradient>
<path class="st0" d="M769,384.78c0,96.16,0,192.32,0,288.49c0,44.08-33.24,84.37-76.66,92.62c-6.42,1.22-13.05,1.92-19.58,1.92
	c-191.68,0.1-383.36,0.08-575.04,0.08c-46.99,0-88-36.04-94.16-82.8c-0.54-4.13-0.91-8.31-0.91-12.47
	C2.6,480.45,2.6,288.29,2.6,96.13c0-44.09,33.26-84.39,76.66-92.63c6.42-1.22,13.05-1.92,19.58-1.92
	C290.68,1.48,482.52,1.5,674.37,1.5c44.09,0,84.44,33.3,92.63,76.66c1.21,6.42,1.91,13.05,1.92,19.58
	C769.03,193.42,769,289.1,769,384.78z"/>
  <g id="book_group_animation" transform="translate(-900 -1400)">
    <g id="book_group" transform="scale(4)">
      <g id="book1_animation" transform="translate(0 -78.054)">
        <g id="book1" stroke="none" stroke-width="1">
          <path id="book1_cover1" d="M325.66 572.14c-.4-.09-.66-.17-.93-.22-6.1-1.08-12.19-2.16-18.29-3.25-7.15-1.27-14.3-2.55-21.45-3.83l-19.2-3.45c-4.05-.73-8.1-1.45-12.15-2.19-2.66-.48-4.75.48-6.43 2.49-2.96 3.55-3.22 9.21-.58 13 1.21 1.74 2.79 2.95 4.94 3.33 2.96.52 5.91 1.11 8.88 1.64 11.31 2.02 22.61 4.03 33.92 6.03 9.84 1.75 19.69 3.49 29.53 5.23.23.04.46.05.82.09-.25-1.25-.43-2.4-.71-3.53-.92-3.69-.83-7.33.36-10.96.45-1.38.84-2.82 1.29-4.38z" fill="#222"/>
          <path id="book1_cover2" d="M332.33 591.35c23.05-13.93 46.05-27.84 69.09-41.76-1.45-3.01-2.33-6.05-2.57-9.26-.25-3.19.32-6.29 1.13-9.56-.64.39-1.08.66-1.52.93-17.45 10.82-34.9 21.63-52.35 32.45-3.38 2.1-6.78 4.17-10.14 6.31-5.38 3.42-7.87 9.75-6.22 15.78.5 1.84 1.29 3.56 2.58 5.11z" fill="#222"/>
          <path id="book1_cover3" d="M327.41 601.7c-1.83-.29-3.96-.58-6.07-.95-7.12-1.27-14.23-2.59-21.35-3.87-7.22-1.3-14.44-2.58-21.67-3.87-7.09-1.27-14.17-2.53-21.26-3.81-2.89-.52-5.8-1-8.67-1.63-4.31-.94-7.63-3.37-9.95-7.11-2.86-4.62-4.17-9.64-3.5-15.08.41-3.33 1.57-6.41 3.53-9.11a21.82 21.82 0 016.81-6.15 60048.9 60048.9 0 0069.71-40.28c3.03-1.75 6.22-2.32 9.69-1.82 5.48.79 10.98 1.46 16.47 2.18 5.59.73 11.19 1.47 16.78 2.2 5.08.66 10.16 1.29 15.24 1.96 5.49.72 10.98 1.46 16.47 2.2l16.16 2.16c1.1.15 2.21.2 3.29.44 1.96.43 2.94 1.81 2.06 3.87-.2.47-.54.88-.86 1.29-1.43 1.83-2.73 3.75-3.74 5.86-2.17 4.55-2.61 9.21-.88 14.01.26.72.56 1.42.76 2.16.36 1.33 1.24 2.06 2.54 2.27.99.17 1.59.77 2.09 1.55.36.56.41 1.16.2 1.79-.26.78-.66 1.46-1.32 1.94-.73.53-1.46 1.05-2.23 1.53-23.05 14.28-46.11 28.55-69.16 42.83-2.38 1.47-4.86 2.65-7.65 3.08-1.03.16-2.1.22-3.49.36z" fill="#222222"/>
          <path id="book1_pages1" d="M325.66 572.14c-.46 1.56-.84 2.99-1.3 4.41-1.18 3.62-1.27 7.27-.36 10.96.28 1.13.46 2.28.71 3.53-.36-.04-.59-.05-.82-.09-9.84-1.74-19.69-3.48-29.53-5.23-11.31-2.01-22.62-4.02-33.92-6.03-2.96-.53-5.91-1.12-8.88-1.64-2.16-.38-3.73-1.59-4.94-3.33-2.64-3.79-2.38-9.45.58-13 1.68-2.01 3.77-2.98 6.43-2.49 4.05.74 8.1 1.46 12.15 2.19l19.2 3.45c7.15 1.28 14.3 2.55 21.45 3.83 6.1 1.08 12.19 2.16 18.29 3.25.28.02.54.1.94.19z" fill="#f7e79d"/>
          <path id="book1_pages2" d="M332.33 591.35c-1.28-1.55-2.08-3.27-2.59-5.12-1.65-6.03.84-12.36 6.22-15.78 3.36-2.13 6.76-4.21 10.14-6.31 17.45-10.82 34.9-21.63 52.35-32.45.44-.27.88-.54 1.52-.93-.81 3.28-1.38 6.37-1.13 9.56.25 3.22 1.12 6.26 2.57 9.26-23.03 13.94-46.04 27.84-69.08 41.77z" fill="#fdf9ea"/>
        </g>
      </g>
      <g id="book2_animation" transform="translate(0 -108.054)">
        <g id="book2" stroke="none" stroke-width="1">
          <path id="book2_cover1" d="M325.66 572.14c-.4-.09-.66-.17-.93-.22-6.1-1.08-12.19-2.16-18.29-3.25-7.15-1.27-14.3-2.55-21.45-3.83l-19.2-3.45c-4.05-.73-8.1-1.45-12.15-2.19-2.66-.48-4.75.48-6.43 2.49-2.96 3.55-3.22 9.21-.58 13 1.21 1.74 2.79 2.95 4.94 3.33 2.96.52 5.91 1.11 8.88 1.64 11.31 2.02 22.61 4.03 33.92 6.03 9.84 1.75 19.69 3.49 29.53 5.23.23.04.46.05.82.09-.25-1.25-.43-2.4-.71-3.53-.92-3.69-.83-7.33.36-10.96.45-1.38.84-2.82 1.29-4.38z" fill="#222"/>
          <path id="book2_cover2" d="M332.33 591.35c23.05-13.93 46.05-27.84 69.09-41.76-1.45-3.01-2.33-6.05-2.57-9.26-.25-3.19.32-6.29 1.13-9.56-.64.39-1.08.66-1.52.93-17.45 10.82-34.9 21.63-52.35 32.45-3.38 2.1-6.78 4.17-10.14 6.31-5.38 3.42-7.87 9.75-6.22 15.78.5 1.84 1.29 3.56 2.58 5.11z" fill="#222"/>
          <path id="book2_cover3" d="M327.41 601.7c-1.83-.29-3.96-.58-6.07-.95-7.12-1.27-14.23-2.59-21.35-3.87-7.22-1.3-14.44-2.58-21.67-3.87-7.09-1.27-14.17-2.53-21.26-3.81-2.89-.52-5.8-1-8.67-1.63-4.31-.94-7.63-3.37-9.95-7.11-2.86-4.62-4.17-9.64-3.5-15.08.41-3.33 1.57-6.41 3.53-9.11a21.82 21.82 0 016.81-6.15 60048.9 60048.9 0 0069.71-40.28c3.03-1.75 6.22-2.32 9.69-1.82 5.48.79 10.98 1.46 16.47 2.18 5.59.73 11.19 1.47 16.78 2.2 5.08.66 10.16 1.29 15.24 1.96 5.49.72 10.98 1.46 16.47 2.2l16.16 2.16c1.1.15 2.21.2 3.29.44 1.96.43 2.94 1.81 2.06 3.87-.2.47-.54.88-.86 1.29-1.43 1.83-2.73 3.75-3.74 5.86-2.17 4.55-2.61 9.21-.88 14.01.26.72.56 1.42.76 2.16.36 1.33 1.24 2.06 2.54 2.27.99.17 1.59.77 2.09 1.55.36.56.41 1.16.2 1.79-.26.78-.66 1.46-1.32 1.94-.73.53-1.46 1.05-2.23 1.53-23.05 14.28-46.11 28.55-69.16 42.83-2.38 1.47-4.86 2.65-7.65 3.08-1.03.16-2.1.22-3.49.36z" fill="#222"/>
          <path id="book2_pages1" d="M325.66 572.14c-.46 1.56-.84 2.99-1.3 4.41-1.18 3.62-1.27 7.27-.36 10.96.28 1.13.46 2.28.71 3.53-.36-.04-.59-.05-.82-.09-9.84-1.74-19.69-3.48-29.53-5.23-11.31-2.01-22.62-4.02-33.92-6.03-2.96-.53-5.91-1.12-8.88-1.64-2.16-.38-3.73-1.59-4.94-3.33-2.64-3.79-2.38-9.45.58-13 1.68-2.01 3.77-2.98 6.43-2.49 4.05.74 8.1 1.46 12.15 2.19l19.2 3.45c7.15 1.28 14.3 2.55 21.45 3.83 6.1 1.08 12.19 2.16 18.29 3.25.28.02.54.1.94.19z" fill="#f7e79d"/>
          <path id="book2_pages2" d="M332.33 591.35c-1.28-1.55-2.08-3.27-2.59-5.12-1.65-6.03.84-12.36 6.22-15.78 3.36-2.13 6.76-4.21 10.14-6.31 17.45-10.82 34.9-21.63 52.35-32.45.44-.27.88-.54 1.52-.93-.81 3.28-1.38 6.37-1.13 9.56.25 3.22 1.12 6.26 2.57 9.26-23.03 13.94-46.04 27.84-69.08 41.77z" fill="#fdf9ea"/>
        </g>
      </g>
      <g id="book3_animation" transform="translate(0 -138.054)">
        <g id="book3" stroke="none" stroke-width="1">
          <path id="book3_cover1" d="M325.66 572.14c-.4-.09-.66-.17-.93-.22-6.1-1.08-12.19-2.16-18.29-3.25-7.15-1.27-14.3-2.55-21.45-3.83l-19.2-3.45c-4.05-.73-8.1-1.45-12.15-2.19-2.66-.48-4.75.48-6.43 2.49-2.96 3.55-3.22 9.21-.58 13 1.21 1.74 2.79 2.95 4.94 3.33 2.96.52 5.91 1.11 8.88 1.64 11.31 2.02 22.61 4.03 33.92 6.03 9.84 1.75 19.69 3.49 29.53 5.23.23.04.46.05.82.09-.25-1.25-.43-2.4-.71-3.53-.92-3.69-.83-7.33.36-10.96.45-1.38.84-2.82 1.29-4.38z" fill="#222"/>
          <path id="book3_cover2" d="M332.33 591.35c23.05-13.93 46.05-27.84 69.09-41.76-1.45-3.01-2.33-6.05-2.57-9.26-.25-3.19.32-6.29 1.13-9.56-.64.39-1.08.66-1.52.93-17.45 10.82-34.9 21.63-52.35 32.45-3.38 2.1-6.78 4.17-10.14 6.31-5.38 3.42-7.87 9.75-6.22 15.78.5 1.84 1.29 3.56 2.58 5.11z" fill="#222"/>
          <path id="book3_cover3" d="M327.41 601.7c-1.83-.29-3.96-.58-6.07-.95-7.12-1.27-14.23-2.59-21.35-3.87-7.22-1.3-14.44-2.58-21.67-3.87-7.09-1.27-14.17-2.53-21.26-3.81-2.89-.52-5.8-1-8.67-1.63-4.31-.94-7.63-3.37-9.95-7.11-2.86-4.62-4.17-9.64-3.5-15.08.41-3.33 1.57-6.41 3.53-9.11a21.82 21.82 0 016.81-6.15 60048.9 60048.9 0 0069.71-40.28c3.03-1.75 6.22-2.32 9.69-1.82 5.48.79 10.98 1.46 16.47 2.18 5.59.73 11.19 1.47 16.78 2.2 5.08.66 10.16 1.29 15.24 1.96 5.49.72 10.98 1.46 16.47 2.2l16.16 2.16c1.1.15 2.21.2 3.29.44 1.96.43 2.94 1.81 2.06 3.87-.2.47-.54.88-.86 1.29-1.43 1.83-2.73 3.75-3.74 5.86-2.17 4.55-2.61 9.21-.88 14.01.26.72.56 1.42.76 2.16.36 1.33 1.24 2.06 2.54 2.27.99.17 1.59.77 2.09 1.55.36.56.41 1.16.2 1.79-.26.78-.66 1.46-1.32 1.94-.73.53-1.46 1.05-2.23 1.53-23.05 14.28-46.11 28.55-69.16 42.83-2.38 1.47-4.86 2.65-7.65 3.08-1.03.16-2.1.22-3.49.36z" fill="#222"/>
          <path id="book3_pages1" d="M325.66 572.14c-.46 1.56-.84 2.99-1.3 4.41-1.18 3.62-1.27 7.27-.36 10.96.28 1.13.46 2.28.71 3.53-.36-.04-.59-.05-.82-.09-9.84-1.74-19.69-3.48-29.53-5.23-11.31-2.01-22.62-4.02-33.92-6.03-2.96-.53-5.91-1.12-8.88-1.64-2.16-.38-3.73-1.59-4.94-3.33-2.64-3.79-2.38-9.45.58-13 1.68-2.01 3.77-2.98 6.43-2.49 4.05.74 8.1 1.46 12.15 2.19l19.2 3.45c7.15 1.28 14.3 2.55 21.45 3.83 6.1 1.08 12.19 2.16 18.29 3.25.28.02.54.1.94.19z" fill="#f7e79d"/>
          <path id="book3_pages2" d="M332.33 591.35c-1.28-1.55-2.08-3.27-2.59-5.12-1.65-6.03.84-12.36 6.22-15.78 3.36-2.13 6.76-4.21 10.14-6.31 17.45-10.82 34.9-21.63 52.35-32.45.44-.27.88-.54 1.52-.93-.81 3.28-1.38 6.37-1.13 9.56.25 3.22 1.12 6.26 2.57 9.26-23.03 13.94-46.04 27.84-69.08 41.77z" fill="#fdf9ea"/>
        </g>
      </g>
    </g>
  </g>
</svg>