<svg id="ez9630ufx9if1" xmlns="http://www.w3.org/2000/svg" xmlns:xlink="http://www.w3.org/1999/xlink" viewBox="0 0 499.170000 498.380000" shape-rendering="geometricPrecision" text-rendering="geometricPrecision">
    <style>
        <![CDATA[#ez9630ufx9if11_to {animation: ez9630ufx9if11_to__to 4500ms linear infinite normal forwards}@keyframes ez9630ufx9if11_to__to { 0% {transform: translate(0px,-300px)} 22.222222% {transform: translate(-0.690391px,-0.189889px)} 28.888889% {transform: translate(0.007500px,-53.946705px)} 35.555556% {transform: translate(-0.690391px,-0.189889px)} 100% {transform: translate(-0.690391px,-0.189889px)} }#ez9630ufx9if11 {animation: ez9630ufx9if11_c_o 4500ms linear infinite normal forwards}@keyframes ez9630ufx9if11_c_o { 0% {opacity: 1} 77.777778% {opacity: 1;animation-timing-function: cubic-bezier(0.420000,0,0.580000,1)} 100% {opacity: 0} }]]>
    </style>
    <defs>
        <radialGradient id="eo3z0svo1z33-fill" cx="250.357201" cy="249.769770" r="383.733600" spreadMethod="pad" gradientUnits="userSpaceOnUse">
            <stop id="eo3z0svo1z33-fill-0" offset="0%" stop-color="rgb(255,197,63)" />
            <stop id="eo3z0svo1z33-fill-1" offset="3.880000%" stop-color="rgb(252,186,60)" />
            <stop id="eo3z0svo1z33-fill-2" offset="32.360000%" stop-color="rgb(231,118,55)" />
            <stop id="eo3z0svo1z33-fill-3" offset="52.920000%" stop-color="rgb(217,75,53)" />
            <stop id="eo3z0svo1z33-fill-4" offset="63.350000%" stop-color="rgb(212,59,52)" />
            <stop id="eo3z0svo1z33-fill-5" offset="65.790000%" stop-color="rgb(206,56,50)" />
            <stop id="eo3z0svo1z33-fill-6" offset="77.310000%" stop-color="rgb(182,49,42)" />
            <stop id="eo3z0svo1z33-fill-7" offset="88.030000%" stop-color="rgb(169,43,38)" />
            <stop id="eo3z0svo1z33-fill-8" offset="97.100000%" stop-color="rgb(164,42,36)" />
        </radialGradient>
    </defs>
    <g id="eo3z0svo1z32">
        <path
            id="eo3z0svo1z33"
            d="M499.860000,249.830000C499.860000,312.440000,499.860000,375.050000,499.860000,437.670000C499.860000,466.370000,478.220000,492.600000,449.950000,497.980000C445.770000,498.770000,441.450000,499.230000,437.200000,499.230000C312.400000,499.300000,187.590000,499.280000,62.790000,499.280000C32.190000,499.280000,5.490000,475.810000,1.480000,445.370000C1.130000,442.680000,0.890000,439.960000,0.890000,437.250000C0.850000,312.120000,0.850000,187,0.850000,61.890000C0.850000,33.180000,22.510000,6.940000,50.760000,1.580000C54.940000,0.790000,59.260000,0.330000,63.510000,0.330000C188.420000,0.260000,313.320000,0.280000,438.240000,0.280000C466.950000,0.280000,493.220000,21.960000,498.550000,50.190000C499.340000,54.370000,499.790000,58.690000,499.800000,62.940000C499.880000,125.230000,499.860000,187.530000,499.860000,249.830000Z"
            fill="url(#eo3z0svo1z33-fill)"
            stroke="none"
            stroke-width="1"
        />
    </g>
    <g id="ez9630ufx9if4">
        <g id="ez9630ufx9if5">
            <path
                id="ez9630ufx9if6"
                d="M30.740000,319.400000C26.410000,314.150000,22.780000,308.490000,20.390000,302.180000C13.600000,284.240000,13.910000,266.670000,24,249.980000C28.780000,242.070000,35.380000,235.860000,43.450000,231.240000C67.020000,217.650000,90.550000,204.040000,114.090000,190.430000C151.800000,168.640000,189.510000,146.860000,227.190000,125.020000C232.500000,121.940000,237.990000,119.370000,244.170000,119C247.620000,118.790000,251.150000,118.890000,254.600000,119.350000C272.010000,121.580000,289.390000,123.990000,306.770000,126.280000C324.520000,128.620000,342.300000,130.820000,360.060000,133.130000C377.550000,135.410000,395.040000,137.750000,412.500000,140.080000C426.990000,141.990000,441.450000,143.900000,455.940000,145.810000C463.320000,146.790000,470.690000,147.830000,478.050000,148.860000C478.850000,148.970000,479.670000,149.150000,480.410000,149.470000C484.820000,151.300000,485.800000,155.040000,483.890000,159.240000C483.250000,160.650000,482.090000,161.790000,481.260000,163.110000C475.400000,172.500000,469.160000,181.690000,467.200000,192.960000C466.090000,199.360000,466.480000,205.590000,468.310000,211.780000C469.270000,215.040000,470.590000,218.180000,471.550000,221.440000C472.480000,224.650000,474.630000,226.350000,477.760000,226.960000C479.830000,227.360000,481.530000,228.260000,482.860000,229.960000C485.090000,232.800000,485.410000,236.090000,483.600000,239.190000C482.860000,240.460000,481.930000,241.600000,481.030000,242.750000C475.460000,249.810000,470.870000,257.370000,468.420000,266.130000C466.240000,273.990000,465.790000,281.870000,467.890000,289.830000C468.770000,293.120000,469.670000,296.380000,470.620000,299.650000C471.760000,303.520000,474.180000,306.050000,478.260000,306.660000C480.910000,307.030000,482.480000,308.730000,483.750000,310.830000C484.630000,312.240000,484.760000,313.750000,484.250000,315.340000C483.590000,317.410000,482.580000,319.240000,480.800000,320.540000C478.730000,322.050000,476.610000,323.540000,474.430000,324.890000C413.740000,362.490000,353.020000,400.070000,292.330000,437.670000C286.520000,441.280000,280.550000,444.410000,273.830000,445.980000C265.900000,447.810000,257.960000,447.280000,250.030000,445.790000C233.340000,442.690000,216.620000,439.630000,199.900000,436.630000C180.740000,433.180000,161.580000,429.780000,142.420000,426.360000C125.440000,423.330000,108.430000,420.340000,91.440000,417.280000C78.520000,414.940000,65.590000,412.690000,52.700000,410.140000C41.740000,407.960000,32.930000,402.180000,26.800000,392.840000C17.910000,379.280000,14.120000,364.390000,16.820000,348.200000C18.330000,339.120000,22.310000,331.110000,27.780000,323.790000C28.660000,322.620000,29.560000,321.450000,30.430000,320.260000C30.560000,320.060000,30.580000,319.850000,30.740000,319.400000ZM259.490000,369.160000C258.610000,368.920000,258.270000,368.790000,257.900000,368.740000C239.720000,365.500000,221.540000,362.320000,203.390000,359.080000C184.310000,355.680000,165.260000,352.260000,146.180000,348.840000C129.090000,345.760000,112.030000,342.680000,94.940000,339.630000C85.280000,337.900000,75.590000,336.180000,65.930000,334.430000C58.900000,333.160000,53.190000,335.540000,48.870000,341.010000C41.490000,350.380000,40.350000,360.780000,44.970000,371.630000C48.020000,378.800000,53.330000,383.550000,61.370000,384.870000C69.330000,386.200000,77.270000,387.820000,85.200000,389.220000C111.230000,393.860000,137.270000,398.480000,163.300000,403.130000C192.760000,408.380000,222.240000,413.610000,251.700000,418.840000C252.970000,419.080000,254.270000,419.190000,256,419.420000C248.670000,401.850000,249.300000,385.270000,259.490000,369.160000ZM254.560000,339.520000C253.840000,336.100000,253.290000,333.040000,252.600000,329.990000C250.690000,321.630000,250.190000,313.270000,252.570000,304.910000C253.530000,301.570000,254.560000,298.220000,255.520000,294.850000C256.020000,293.100000,256.450000,291.350000,256.950000,289.440000C255.860000,289.170000,254.990000,288.940000,254.080000,288.780000C240.330000,286.340000,226.590000,283.920000,212.870000,281.480000C190.710000,277.550000,168.580000,273.620000,146.450000,269.670000C119.970000,264.920000,93.510000,260.140000,67.020000,255.390000C63.230000,254.700000,59.700000,254.430000,56.140000,256.900000C53.410000,258.810000,50.570000,260.480000,48.550000,263.160000C41.760000,272.180000,40.770000,281.980000,45.100000,292.300000C47.120000,297.100000,50.380000,301,55.130000,303.260000C57.730000,304.510000,60.680000,305.170000,63.540000,305.700000C76.360000,308.090000,89.200000,310.340000,102.020000,312.650000C119.110000,315.700000,136.170000,318.730000,153.260000,321.780000C170.240000,324.810000,187.230000,327.880000,204.240000,330.910000C220.140000,333.750000,236.060000,336.540000,251.980000,339.320000C252.650000,339.460000,253.360000,339.440000,254.560000,339.520000ZM458.180000,309.020000C454.280000,300.980000,451.940000,292.940000,451.310000,284.390000C450.700000,275.920000,452.160000,267.700000,454.280000,258.990000C451.710000,260.530000,449.640000,261.720000,447.620000,262.970000C398.150000,293.570000,348.690000,324.170000,299.250000,354.740000C294.470000,357.690000,289.670000,360.580000,284.950000,363.600000C270.300000,373.020000,263.350000,390.380000,267.830000,406.380000C269.180000,411.260000,271.360000,415.770000,274.380000,420.100000C335.710000,383.060000,396.850000,346.100000,458.180000,309.020000ZM457.700000,229.840000C450,213.520000,449.370000,197.010000,454.330000,179.710000C453.060000,180.450000,452.260000,180.880000,451.490000,181.360000C444.940000,185.420000,438.380000,189.510000,431.830000,193.570000C383.110000,223.770000,334.380000,253.970000,285.660000,284.170000C280.270000,287.510000,275.760000,291.650000,272.360000,297.090000C264.400000,309.880000,264.640000,326.040000,273.180000,338.460000C273.630000,339.120000,274.160000,339.710000,274.750000,340.450000C335.740000,303.560000,396.560000,266.800000,457.700000,229.840000Z"
                fill="#333333"
                stroke="none"
                stroke-width="1"
            />
            <path
                id="ez9630ufx9if7"
                d="M259.490000,369.160000C249.300000,385.270000,248.660000,401.850000,256.010000,419.400000C254.290000,419.160000,252.980000,419.050000,251.710000,418.820000C222.230000,413.590000,192.770000,408.340000,163.310000,403.110000C137.280000,398.490000,111.240000,393.850000,85.210000,389.200000C77.250000,387.770000,69.340000,386.150000,61.380000,384.850000C53.370000,383.520000,48.030000,378.800000,44.980000,371.610000C40.360000,360.760000,41.500000,350.380000,48.880000,340.990000C53.210000,335.500000,58.910000,333.130000,65.940000,334.410000C75.600000,336.160000,85.290000,337.890000,94.950000,339.610000C112.040000,342.690000,129.100000,345.770000,146.190000,348.820000C165.270000,352.240000,184.320000,355.670000,203.400000,359.060000C221.580000,362.300000,239.730000,365.510000,257.910000,368.720000C258.270000,368.760000,258.620000,368.890000,259.490000,369.160000Z"
                fill="#ffe79b"
                stroke="none"
                stroke-width="1"
            />
            <path
                id="ez9630ufx9if8"
                d="M254.560000,339.520000C253.370000,339.440000,252.650000,339.470000,251.930000,339.360000C236.010000,336.570000,220.110000,333.760000,204.190000,330.950000C187.210000,327.920000,170.220000,324.870000,153.210000,321.820000C136.120000,318.770000,119.060000,315.740000,101.970000,312.690000C89.130000,310.410000,76.310000,308.150000,63.490000,305.740000C60.620000,305.210000,57.680000,304.520000,55.080000,303.300000C50.360000,301.040000,47.070000,297.120000,45.050000,292.340000C40.720000,282.020000,41.710000,272.220000,48.500000,263.200000C50.520000,260.520000,53.360000,258.850000,56.090000,256.940000C59.650000,254.450000,63.200000,254.740000,66.970000,255.430000C93.450000,260.180000,119.910000,264.980000,146.400000,269.710000C168.530000,273.660000,190.690000,277.590000,212.820000,281.520000C226.570000,283.960000,240.310000,286.380000,254.030000,288.820000C254.910000,288.980000,255.780000,289.220000,256.900000,289.480000C256.400000,291.360000,255.970000,293.140000,255.470000,294.890000C254.510000,298.230000,253.480000,301.580000,252.520000,304.950000C250.130000,313.310000,250.640000,321.670000,252.550000,330.030000C253.260000,333.010000,253.840000,336.090000,254.560000,339.520000Z"
                fill="#ffe79b"
                stroke="none"
                stroke-width="1"
            />
            <path
                id="ez9630ufx9if9"
                d="M458.180000,309.020000C396.850000,346.090000,335.710000,383.060000,274.410000,420.110000C271.380000,415.780000,269.240000,411.270000,267.860000,406.390000C263.380000,390.390000,270.330000,373.030000,284.980000,363.610000C289.700000,360.580000,294.510000,357.690000,299.280000,354.750000C348.750000,324.150000,398.180000,293.550000,447.650000,262.980000C449.670000,261.730000,451.740000,260.540000,454.310000,259C452.160000,267.700000,450.700000,275.930000,451.340000,284.400000C451.940000,292.970000,454.280000,301.010000,458.180000,309.020000Z"
                fill="#fff8df"
                stroke="none"
                stroke-width="1"
            />
            <path
                id="ez9630ufx9if10"
                d="M457.700000,229.840000C396.580000,266.780000,335.730000,303.560000,274.750000,340.420000C274.170000,339.680000,273.640000,339.090000,273.180000,338.430000C264.610000,326.010000,264.400000,309.850000,272.360000,297.060000C275.760000,291.620000,280.270000,287.480000,285.660000,284.140000C334.380000,253.970000,383.110000,223.740000,431.830000,193.540000C438.380000,189.480000,444.940000,185.390000,451.490000,181.330000C452.260000,180.850000,453.060000,180.430000,454.330000,179.680000C449.340000,197.010000,449.980000,213.540000,457.700000,229.840000Z"
                fill="#fff8df"
                stroke="none"
                stroke-width="1"
            />
        </g>
        <g id="ez9630ufx9if11_to" transform="translate(0,-300)">
            <g id="ez9630ufx9if11" transform="translate(0,0)">
                <path
                    id="ez9630ufx9if12"
                    d="M257.030000,211.090000C255.970000,210.850000,255.280000,210.640000,254.560000,210.510000C238.370000,207.640000,222.210000,204.780000,206.020000,201.890000C187.050000,198.520000,168.070000,195.120000,149.100000,191.730000C132.120000,188.680000,115.130000,185.630000,98.150000,182.570000C87.400000,180.630000,76.650000,178.720000,65.910000,176.760000C58.850000,175.490000,53.300000,178.030000,48.850000,183.370000C40.990000,192.790000,40.300000,207.810000,47.310000,217.870000C50.520000,222.490000,54.710000,225.700000,60.420000,226.710000C68.280000,228.090000,76.100000,229.660000,83.990000,231.060000C114,236.420000,143.990000,241.750000,174,247.060000C200.110000,251.700000,226.250000,256.320000,252.360000,260.940000C252.970000,261.050000,253.580000,261.070000,254.540000,261.180000C253.880000,257.860000,253.400000,254.810000,252.660000,251.810000C250.220000,242.020000,250.460000,232.360000,253.620000,222.720000C254.800000,219.030000,255.830000,215.230000,257.030000,211.090000Z"
                    fill="#333"
                    stroke="none"
                    stroke-width="1"
                />
                <path
                    id="ez9630ufx9if13"
                    d="M274.730000,262.070000C335.900000,225.100000,396.930000,188.190000,458.080000,151.250000C454.230000,143.260000,451.900000,135.190000,451.260000,126.680000C450.600000,118.210000,452.110000,109.990000,454.260000,101.310000C452.560000,102.340000,451.390000,103.060000,450.230000,103.780000C403.920000,132.490000,357.610000,161.180000,311.310000,189.890000C302.340000,195.460000,293.320000,200.960000,284.400000,206.640000C270.120000,215.720000,263.520000,232.510000,267.890000,248.520000C269.210000,253.390000,271.300000,257.960000,274.730000,262.070000Z"
                    fill="#333"
                    stroke="none"
                    stroke-width="1"
                />
                <path
                    id="ez9630ufx9if14"
                    d="M261.670000,289.510000C256.810000,288.740000,251.160000,287.970000,245.560000,286.990000C226.670000,283.620000,207.800000,280.120000,188.900000,276.720000C169.740000,273.270000,150.580000,269.870000,131.390000,266.450000C112.580000,263.080000,93.790000,259.740000,74.970000,256.340000C67.300000,254.960000,59.580000,253.690000,51.960000,252.010000C40.520000,249.520000,31.710000,243.070000,25.560000,233.140000C17.970000,220.880000,14.490000,207.560000,16.270000,193.120000C17.360000,184.280000,20.440000,176.110000,25.640000,168.940000C30.470000,162.280000,36.490000,156.790000,43.710000,152.620000C105.410000,117.030000,167.060000,81.390000,228.700000,45.730000C236.740000,41.090000,245.210000,39.570000,254.410000,40.900000C268.950000,43,283.550000,44.770000,298.120000,46.690000C312.950000,48.630000,327.820000,50.590000,342.650000,52.530000C356.130000,54.280000,369.610000,55.950000,383.090000,57.730000C397.660000,59.640000,412.230000,61.600000,426.800000,63.570000C441.100000,65.480000,455.380000,67.390000,469.680000,69.300000C472.600000,69.700000,475.540000,69.830000,478.410000,70.470000C483.610000,71.610000,486.210000,75.270000,483.880000,80.740000C483.350000,81.990000,482.450000,83.080000,481.600000,84.160000C477.810000,89.020000,474.360000,94.110000,471.680000,99.710000C465.920000,111.780000,464.750000,124.150000,469.340000,136.890000C470.030000,138.800000,470.830000,140.660000,471.360000,142.620000C472.320000,146.150000,474.650000,148.090000,478.100000,148.640000C480.730000,149.090000,482.320000,150.680000,483.650000,152.750000C484.610000,154.240000,484.740000,155.830000,484.180000,157.500000C483.490000,159.570000,482.430000,161.370000,480.680000,162.650000C478.740000,164.060000,476.810000,165.440000,474.760000,166.710000C413.590000,204.610000,352.400000,242.470000,291.230000,280.370000C284.910000,284.270000,278.330000,287.400000,270.930000,288.540000C268.200000,288.980000,265.360000,289.140000,261.670000,289.510000Z"
                    fill="#333"
                    stroke="none"
                    stroke-width="1"
                />
                <path
                    id="ez9630ufx9if15"
                    d="M257.030000,211.090000C255.810000,215.230000,254.800000,219.020000,253.580000,222.790000C250.450000,232.400000,250.210000,242.080000,252.620000,251.880000C253.360000,254.880000,253.840000,257.930000,254.500000,261.250000C253.540000,261.140000,252.930000,261.120000,252.320000,261.010000C226.210000,256.390000,200.070000,251.780000,173.960000,247.130000C143.950000,241.800000,113.930000,236.460000,83.950000,231.130000C76.090000,229.720000,68.270000,228.160000,60.380000,226.780000C54.650000,225.770000,50.480000,222.560000,47.270000,217.940000C40.260000,207.880000,40.950000,192.860000,48.810000,183.440000C53.270000,178.110000,58.810000,175.530000,65.870000,176.830000C76.620000,178.790000,87.370000,180.700000,98.110000,182.640000C115.090000,185.690000,132.080000,188.740000,149.060000,191.800000C168.030000,195.200000,187.010000,198.570000,205.980000,201.960000C222.170000,204.830000,238.330000,207.690000,254.520000,210.580000C255.280000,210.640000,255.970000,210.850000,257.030000,211.090000Z"
                    fill="#ffe79b"
                    stroke="none"
                    stroke-width="1"
                />
                <path
                    id="ez9630ufx9if16"
                    d="M274.730000,262.070000C271.330000,257.960000,269.210000,253.390000,267.860000,248.480000C263.480000,232.480000,270.090000,215.680000,284.370000,206.600000C293.290000,200.950000,302.310000,195.430000,311.280000,189.850000C357.590000,161.140000,403.900000,132.450000,450.200000,103.740000C451.370000,103.020000,452.540000,102.310000,454.230000,101.270000C452.080000,109.970000,450.570000,118.170000,451.230000,126.640000C451.890000,135.180000,454.200000,143.250000,458.050000,151.210000C396.930000,188.190000,335.870000,225.100000,274.730000,262.070000Z"
                    fill="#fff8df"
                    stroke="none"
                    stroke-width="1"
                />
            </g>
        </g>
    </g>
</svg>
