<svg xmlns="http://www.w3.org/2000/svg" id="multimedia-alternate" viewBox="0 0 499.17 498.38" width="500" height="500" shape-rendering="geometricPrecision" text-rendering="geometricPrecision" version="1.1">
  <style>
    @keyframes music_note_animation__tr{0%{transform:translate(236.539359px,325.606671px) rotate(0deg)}16%{transform:translate(236.539359px,325.606671px) rotate(-2.659923deg)}36%{transform:translate(236.539359px,325.606671px) rotate(25.059844deg)}60%{transform:translate(236.539359px,325.606671px) rotate(5.139156deg)}80%{transform:translate(236.539359px,325.606671px) rotate(21.080555deg)}}#music_note_animation{animation:music_note_animation__tr 5000ms linear infinite normal forwards}
  </style>
  <g id="background">
    <path id="square" d="M498.1 249.4v186.99c0 28.57-21.55 54.69-49.69 60.04-4.16.79-8.46 1.24-12.69 1.24-124.24.07-248.48.05-372.72.05-30.45 0-57.04-23.36-61.03-53.67-.35-2.67-.59-5.39-.59-8.08-.04-124.55-.03-249.11-.03-373.66 0-28.58 21.56-54.7 49.69-60.04 4.16-.79 8.46-1.24 12.69-1.24C188.08.97 312.42.98 436.77.98c28.57 0 54.73 21.58 60.04 49.69.79 4.16 1.24 8.46 1.24 12.69.07 62.01.05 124.03.05 186.04z" fill="#D52727" stroke="none" stroke-width="1"/>
  </g>
  <path stroke-miterlimit="10" d="M132.4 1.16c101.74-.03 203.49-.02 305.23-.02 28.57 0 54.73 21.58 60.04 49.69.79 4.16 1.24 8.46 1.24 12.69.04 34.61.06 48.83.06 83.44H2.21V62.48c0-28.58 21.56-54.7 49.69-60.04 4.16-.79 8.46-1.24 12.69-1.24 22.6-.03 45.21-.04 67.81-.04z" id="header_path" fill="#000" stroke="#000" stroke-width="2" fill-opacity="1"/>
  <g id="header_top">
    <g id="header_group" fill="#fff" stroke="none" stroke-width="1">
      <path id="header1" d="M298.09 137.45v-.01c9.15 0 18.3.04 27.44-.06 1.1-.01 2.54-.52 3.24-1.28 4.23-4.58 8.29-9.3 12.4-13.97 10.88-12.35 21.78-24.69 32.62-37.08.69-.79.91-1.94 1.35-2.93-1-.24-2-.69-3.01-.69-17.97-.05-35.94-.08-53.91.03-1.4.01-3.24.75-4.12 1.75-15.09 16.95-30.07 33.99-45.04 51.04-.56.64-.68 1.61-1.01 2.43.86.25 1.72.72 2.59.73 9.15.06 18.3.04 27.45.04z"/>
      <path id="header2" d="M267.32 14.14c1.12 1.71 1.7 2.88 2.53 3.83 14.4 16.4 28.86 32.76 43.21 49.19 1.56 1.79 3.22 2.35 5.59 2.34 17.63-.08 35.26-.04 52.89-.06 1.13 0 2.26-.14 4.14-.26-.95-1.36-1.43-2.21-2.07-2.94-14.68-16.72-29.4-33.4-44.04-50.15-1.33-1.52-2.71-2.01-4.73-2-17.85.07-35.69.04-53.54.04-1.05.01-2.09.01-3.98.01z"/>
      <path id="header3" d="M146.85 137.37h3.95c17.09 0 34.18-.07 51.26.06 3.06.02 5.04-.74 7.07-3.08 14.22-16.41 28.66-32.65 43.01-48.97.82-.94 1.38-2.09 2.28-3.5-1.44-.16-2.17-.32-2.9-.32-18.18-.01-36.35-.05-54.53.08-1.34.01-3.03 1.02-3.94 2.05-14.84 16.73-29.58 33.53-44.32 50.35-.69.77-1.04 1.8-1.88 3.33z"/>
      <path id="header4" d="M496.37 81.93c-1.35-.17-1.88-.3-2.41-.3-18.4-.02-36.81-.07-55.21.02-1.16.01-2.64.86-3.43 1.75-14.99 16.89-29.91 33.85-44.8 50.82-.64.73-.87 1.78-1.32 2.72.77.26.97.39 1.17.39 18.84.01 37.68.03 56.51-.03.81 0 1.86-.5 2.39-1.1 14.96-16.92 29.86-33.88 44.76-50.85.78-.89 1.34-1.96 2.34-3.42z"/>
      <path id="header5" d="M133.55 82.48c-.2-.3-.4-.6-.6-.91h-3.85c-16.65 0-33.3.11-49.95-.07-3.6-.04-5.86.99-8.17 3.66-14.35 16.57-28.94 32.95-43.41 49.43-.57.65-.75 1.59-1.27 2.76 19.79 0 38.93.01 58.07-.05.8 0 1.81-.57 2.35-1.17 14.75-16.66 29.46-33.35 44.15-50.06 1-1.12 1.8-2.39 2.68-3.59z"/>
      <path id="header6" d="M146.79 14.16c1.01 1.6 1.47 2.6 2.17 3.41 14.6 16.65 29.2 33.3 43.91 49.86.89 1.01 2.68 1.83 4.06 1.84 18.17.12 36.35.09 54.52.07.77 0 1.55-.22 2.72-.4-.68-1-1.01-1.63-1.47-2.15-14.9-16.95-29.79-33.9-44.81-50.76-.93-1.04-2.88-1.78-4.36-1.79-17.3-.12-34.61-.08-51.91-.07-1.28-.01-2.57-.01-4.83-.01z"/>
      <path id="header7" d="M27 14.16c-.27.25-.54.51-.81.76.91 1.11 1.79 2.25 2.74 3.33C43.2 34.5 57.49 50.73 71.72 67.01c1.43 1.64 2.91 2.38 5.24 2.37 17.63-.09 35.27-.04 52.9-.04 1.03 0 2.06-.1 3.55-.18-.54-1-.75-1.67-1.18-2.17-15.03-17.12-30.08-34.23-45.18-51.29-.67-.75-1.93-1.47-2.92-1.47-19.04-.09-38.09-.07-57.13-.07z"/>
      <path id="header8" d="M496.23 69.1c-.87-1.2-1.32-1.94-1.89-2.59-14.67-16.72-29.36-33.41-43.99-50.16-1.35-1.55-2.72-2.25-4.92-2.24-17.62.09-35.24.04-52.87.05-1.03 0-2.05.11-3.74.21.92 1.4 1.41 2.38 2.13 3.19 14.53 16.56 29.1 33.08 43.6 49.67 1.4 1.6 2.88 2.14 5.02 2.13 17.62-.08 35.25-.06 52.87-.08 1.02 0 2.06-.1 3.79-.18z"/>
    </g>
  </g>
  <g id="music_note_group">
    <g id="music_note_animation" transform="translate(236.54 325.607)">
      <path id="music_note" d="M-54.23 68.333c-11.39-4.96-22.79-5.04-34.22-2.96-21.13 3.84-38.6 13.76-50.64 32.01-5.91 8.96-8.79 18.92-7.2 29.65 2.36 15.99 12.49 25.85 27.21 30.46 25 7.82 48.27 3.2 68.85-12.83 14.09-10.98 21.3-25.49 21.13-43.9-.37-39.85-.02-79.71-.13-119.57-.02-7.51 3.08-12.9 9.35-16.61 2.12-1.26 4.42-2.33 6.77-3.07 39.93-12.59 79.88-25.11 119.84-37.61 1.95-.61 4-1.06 6.02-1.2 5.27-.38 8.14 2.17 8.65 7.42.09.97.1 1.95.1 2.92.02 31.73.03 63.47.04 95.2 0 1.02-.1 2.04-.16 3.32-11.84-5.02-23.75-5.81-35.81-4-21.55 3.24-39.45 12.89-51.55 31.51-7.53 11.58-10.02 24.25-4.78 37.48 5.14 12.99 15.54 20.54 28.57 23.92 27.48 7.14 51.97.8 72.71-18.54 10.91-10.17 16.3-22.79 16.2-38.2-.34-55.99-.13-111.98-.13-167.98 0-12.02.06-24.04-.02-36.06-.07-10.34-6.96-19.07-17.19-20.6-4.75-.71-9.95-.11-14.68 1.03-8.4 2.03-16.58 4.92-24.86 7.45-37.78 11.55-75.54 23.15-113.34 34.62-18.08 5.48-31.15 24.39-30.95 42.02.51 46.78.19 93.57.21 140.36.01 1.04.01 2.12.01 3.76z" stroke-miterlimit="10" stroke-width="10" stroke="#000" fill="#fff"/>
    </g>
  </g>
</svg>