<svg id="epij899lf62m1" xmlns="http://www.w3.org/2000/svg" xmlns:xlink="http://www.w3.org/1999/xlink" viewBox="0 0 769 769" shape-rendering="geometricPrecision" text-rendering="geometricPrecision">
    <style>
        <![CDATA[#epij899lf62m1{pointer-events: all} #epij899lf62m1:hover * {animation-play-state: running !important}#epij899lf62m4_to {animation: epij899lf62m4_to__to 9900ms linear infinite normal forwards}@keyframes epij899lf62m4_to__to { 0% {transform: translate(383.554642px,385.421783px)} 30.303030% {transform: translate(393.550000px,385.420000px)} 70.707071% {transform: translate(373.550000px,385.421783px)} 100% {transform: translate(383.554642px,385.421783px)} }#epij899lf62m4_tr {animation: epij899lf62m4_tr__tr 9900ms linear infinite normal forwards}@keyframes epij899lf62m4_tr__tr { 0% {transform: rotate(0deg)} 20.202020% {transform: rotate(-3deg)} 50.505051% {transform: rotate(0deg)} 80.808081% {transform: rotate(-3deg)} 100% {transform: rotate(0deg)} }#epij899lf62m16 {animation: epij899lf62m16_f_o 9900ms linear infinite normal forwards}@keyframes epij899lf62m16_f_o { 0% {fill-opacity: 1} 1.010101% {fill-opacity: 0} 2.020202% {fill-opacity: 1} 3.030303% {fill-opacity: 0} 4.040404% {fill-opacity: 1} 5.050505% {fill-opacity: 0} 6.060606% {fill-opacity: 1} 7.070707% {fill-opacity: 0} 8.080808% {fill-opacity: 1} 9.090909% {fill-opacity: 0} 10.101010% {fill-opacity: 1} 11.111111% {fill-opacity: 0} 12.121212% {fill-opacity: 1} 13.131313% {fill-opacity: 0} 14.141414% {fill-opacity: 1} 15.151515% {fill-opacity: 0} 16.161616% {fill-opacity: 1} 17.171717% {fill-opacity: 0} 18.181818% {fill-opacity: 1} 19.191919% {fill-opacity: 0} 20.202020% {fill-opacity: 1} 21.212121% {fill-opacity: 0} 22.222222% {fill-opacity: 1} 23.232323% {fill-opacity: 0} 24.242424% {fill-opacity: 1} 25.252525% {fill-opacity: 0} 26.262626% {fill-opacity: 1} 27.272727% {fill-opacity: 0} 28.282828% {fill-opacity: 1} 29.292929% {fill-opacity: 0} 30.303030% {fill-opacity: 1} 31.313131% {fill-opacity: 0} 32.323232% {fill-opacity: 1} 33.333333% {fill-opacity: 0} 34.343434% {fill-opacity: 1} 35.353535% {fill-opacity: 0} 36.363636% {fill-opacity: 1} 37.373737% {fill-opacity: 0} 38.383838% {fill-opacity: 1} 39.393939% {fill-opacity: 0} 40.404040% {fill-opacity: 1} 41.414141% {fill-opacity: 0} 42.424242% {fill-opacity: 1} 43.434343% {fill-opacity: 0} 44.444444% {fill-opacity: 1} 45.454545% {fill-opacity: 0} 46.464646% {fill-opacity: 1} 47.474747% {fill-opacity: 0} 48.484848% {fill-opacity: 1} 49.494949% {fill-opacity: 0} 50.505051% {fill-opacity: 1} 51.515152% {fill-opacity: 0} 52.525253% {fill-opacity: 1} 53.535354% {fill-opacity: 0} 54.545455% {fill-opacity: 1} 55.555556% {fill-opacity: 0} 56.565657% {fill-opacity: 1} 57.575758% {fill-opacity: 0} 58.585859% {fill-opacity: 1} 59.595960% {fill-opacity: 0} 60.606061% {fill-opacity: 1} 61.616162% {fill-opacity: 0} 62.626263% {fill-opacity: 1} 63.636364% {fill-opacity: 0} 64.646465% {fill-opacity: 1} 65.656566% {fill-opacity: 0} 66.666667% {fill-opacity: 1} 67.676768% {fill-opacity: 0} 68.686869% {fill-opacity: 1} 69.696970% {fill-opacity: 0} 70.707071% {fill-opacity: 1} 71.717172% {fill-opacity: 0} 72.727273% {fill-opacity: 1} 73.737374% {fill-opacity: 0} 74.747475% {fill-opacity: 1} 75.757576% {fill-opacity: 0} 76.767677% {fill-opacity: 1} 77.777778% {fill-opacity: 0} 78.787879% {fill-opacity: 1} 79.797980% {fill-opacity: 0} 80.808081% {fill-opacity: 1} 81.818182% {fill-opacity: 0} 82.828283% {fill-opacity: 1} 83.838384% {fill-opacity: 0} 84.848485% {fill-opacity: 1} 85.858586% {fill-opacity: 0} 86.868687% {fill-opacity: 1} 87.878788% {fill-opacity: 0} 88.888889% {fill-opacity: 1} 89.898990% {fill-opacity: 0} 90.909091% {fill-opacity: 1} 91.919192% {fill-opacity: 0} 92.929293% {fill-opacity: 1} 93.939394% {fill-opacity: 0} 94.949495% {fill-opacity: 1} 95.959596% {fill-opacity: 0} 96.969697% {fill-opacity: 1} 97.979798% {fill-opacity: 0} 98.989899% {fill-opacity: 1} 100% {fill-opacity: 0} }#epij899lf62m17 {animation: epij899lf62m17_f_o 9900ms linear infinite normal forwards}@keyframes epij899lf62m17_f_o { 0% {fill-opacity: 0} 1.010101% {fill-opacity: 1} 2.020202% {fill-opacity: 0} 3.030303% {fill-opacity: 1} 4.040404% {fill-opacity: 0} 5.050505% {fill-opacity: 1} 6.060606% {fill-opacity: 0} 7.070707% {fill-opacity: 1} 8.080808% {fill-opacity: 0} 9.090909% {fill-opacity: 1} 10.101010% {fill-opacity: 0} 11.111111% {fill-opacity: 1} 12.121212% {fill-opacity: 0} 13.131313% {fill-opacity: 1} 14.141414% {fill-opacity: 0} 15.151515% {fill-opacity: 1} 16.161616% {fill-opacity: 0} 17.171717% {fill-opacity: 1} 18.181818% {fill-opacity: 0} 19.191919% {fill-opacity: 1} 20.202020% {fill-opacity: 0} 21.212121% {fill-opacity: 1} 22.222222% {fill-opacity: 0} 23.232323% {fill-opacity: 1} 24.242424% {fill-opacity: 0} 25.252525% {fill-opacity: 1} 26.262626% {fill-opacity: 0} 27.272727% {fill-opacity: 1} 28.282828% {fill-opacity: 0} 29.292929% {fill-opacity: 1} 30.303030% {fill-opacity: 0} 31.313131% {fill-opacity: 1} 32.323232% {fill-opacity: 0} 33.333333% {fill-opacity: 1} 34.343434% {fill-opacity: 0} 35.353535% {fill-opacity: 1} 36.363636% {fill-opacity: 0} 37.373737% {fill-opacity: 1} 38.383838% {fill-opacity: 0} 39.393939% {fill-opacity: 1} 40.404040% {fill-opacity: 0} 41.414141% {fill-opacity: 1} 42.424242% {fill-opacity: 0} 43.434343% {fill-opacity: 1} 44.444444% {fill-opacity: 0} 45.454545% {fill-opacity: 1} 46.464646% {fill-opacity: 0} 47.474747% {fill-opacity: 1} 48.484848% {fill-opacity: 0} 49.494949% {fill-opacity: 1} 50.505051% {fill-opacity: 0} 51.515152% {fill-opacity: 1} 52.525253% {fill-opacity: 0} 53.535354% {fill-opacity: 1} 54.545455% {fill-opacity: 0} 55.555556% {fill-opacity: 1} 56.565657% {fill-opacity: 0} 57.575758% {fill-opacity: 1} 58.585859% {fill-opacity: 0} 59.595960% {fill-opacity: 1} 60.606061% {fill-opacity: 0} 61.616162% {fill-opacity: 1} 62.626263% {fill-opacity: 0} 63.636364% {fill-opacity: 1} 64.646465% {fill-opacity: 0} 65.656566% {fill-opacity: 1} 66.666667% {fill-opacity: 0} 67.676768% {fill-opacity: 1} 68.686869% {fill-opacity: 0} 69.696970% {fill-opacity: 1} 70.707071% {fill-opacity: 0} 71.717172% {fill-opacity: 1} 72.727273% {fill-opacity: 0} 73.737374% {fill-opacity: 1} 74.747475% {fill-opacity: 0} 75.757576% {fill-opacity: 1} 76.767677% {fill-opacity: 0} 77.777778% {fill-opacity: 1} 78.787879% {fill-opacity: 0} 79.797980% {fill-opacity: 1} 80.808081% {fill-opacity: 0} 81.818182% {fill-opacity: 1} 82.828283% {fill-opacity: 0} 83.838384% {fill-opacity: 1} 84.848485% {fill-opacity: 0} 85.858586% {fill-opacity: 1} 86.868687% {fill-opacity: 0} 87.878788% {fill-opacity: 1} 88.888889% {fill-opacity: 0} 89.898990% {fill-opacity: 1} 90.909091% {fill-opacity: 0} 91.919192% {fill-opacity: 1} 92.929293% {fill-opacity: 0} 93.939394% {fill-opacity: 1} 94.949495% {fill-opacity: 0} 95.959596% {fill-opacity: 1} 96.969697% {fill-opacity: 0} 97.979798% {fill-opacity: 1} 98.989899% {fill-opacity: 0} 100% {fill-opacity: 1} }]]>
    </style>
<style type="text/css">
	.st0{fill:url(#SVGID_1_);}
	.st1{fill:#FFFFFF;stroke:#01507B;stroke-width:20;stroke-miterlimit:16;}
	.st2{fill:#DDDDDD;}
	.st3{fill:#01507B;}
</style>
<radialGradient id="SVGID_1_" cx="385.802" cy="384.6929" r="383.1984" gradientUnits="userSpaceOnUse">
	<stop  offset="0" style="stop-color:#FFC43D"/>
	<stop  offset="0.0388" style="stop-color:#FCBA3C"/>
	<stop  offset="0.3236" style="stop-color:#E77538"/>
	<stop  offset="0.5292" style="stop-color:#D94A35"/>
	<stop  offset="0.6335" style="stop-color:#D43934"/>
	<stop  offset="0.6579" style="stop-color:#CE3732"/>
	<stop  offset="0.7731" style="stop-color:#B62F2A"/>
	<stop  offset="0.8803" style="stop-color:#A82A26"/>
	<stop  offset="0.971" style="stop-color:#A32824"/>
</radialGradient>
<path class="st0" d="M769,384.78c0,96.16,0,192.32,0,288.49c0,44.08-33.24,84.37-76.66,92.62c-6.42,1.22-13.05,1.92-19.58,1.92
	c-191.68,0.1-383.36,0.08-575.04,0.08c-46.99,0-88-36.04-94.16-82.8c-0.54-4.13-0.91-8.31-0.91-12.47
	C2.6,480.45,2.6,288.29,2.6,96.13c0-44.09,33.26-84.39,76.66-92.63c6.42-1.22,13.05-1.92,19.58-1.92
	C290.68,1.48,482.52,1.5,674.37,1.5c44.09,0,84.44,33.3,92.63,76.66c1.21,6.42,1.91,13.05,1.92,19.58
	C769.03,193.42,769,289.1,769,384.78z"/>
    <g id="epij899lf62m4_to" transform="translate(383.554642,385.421783)">
        <g id="epij899lf62m4_tr" transform="rotate(0)">
            <g id="epij899lf62m4" transform="scale(4,4) translate(-317.872246,-682.345795)">
                <g id="epij899lf62m5">
                    <path
                        id="epij899lf62m6"
                        d="M316.800000,597.790000C316.720000,596.550000,316.840000,595.350000,317.670000,594.310000C318.860000,592.850000,320.650000,592.300000,322.450000,592.900000C324.100000,593.450000,325.270000,595.100000,325.270000,596.930000C325.280000,602.300000,325.270000,607.670000,325.270000,613.040000C325.270000,613.310000,325.270000,613.590000,325.270000,613.970000C325.630000,613.970000,325.940000,613.970000,326.260000,613.970000C338.280000,613.970000,350.300000,613.970000,362.320000,613.960000C362.920000,613.960000,363.310000,614.120000,363.720000,614.590000C367.880000,619.420000,371.450000,624.630000,374.270000,630.350000C377.180000,636.250000,379.360000,642.420000,380.660000,648.870000C381.330000,652.200000,381.980000,655.550000,382.270000,658.930000C382.650000,663.270000,382.730000,667.640000,382.800000,671.990000C382.840000,674.670000,382.730000,677.360000,382.450000,680.020000C382.030000,684.070000,381.480000,688.110000,380.840000,692.140000C379.850000,698.360000,378.330000,704.460000,376.330000,710.440000C375.490000,712.950000,374.530000,715.410000,373.590000,717.980000C372.310000,717.400000,371.110000,716.860000,369.920000,716.310000C363.590000,713.360000,356.940000,711.490000,350.070000,710.300000C345.650000,709.540000,341.210000,709,336.730000,708.810000C332.950000,708.650000,329.170000,708.540000,325.330000,708.410000C325.330000,716.850000,325.330000,725.140000,325.330000,733.510000C326.720000,733.450000,328.090000,733.440000,329.450000,733.310000C332.210000,733.060000,334.990000,732.840000,337.730000,732.440000C345.520000,731.320000,353.090000,729.470000,359.820000,725.160000C361.120000,724.330000,362.220000,723.210000,363.430000,722.240000C363.690000,722.030000,363.990000,721.830000,364.310000,721.740000C379.530000,717.360000,385.280000,715.840000,400.500000,711.470000C406.060000,709.870000,397.590000,712.190000,403.170000,710.630000C405.550000,709.970000,407.720000,711.260000,408.410000,713.620000C409.040000,715.780000,407.790000,718.050000,405.520000,718.740000C402.230000,719.740000,404.590000,719.100000,401.290000,720.050000C399.960000,720.510000,399.940000,720.230000,398.670000,720.670000C398.180000,720.810000,398.060000,721.050000,398.030000,721.500000C397.830000,724.250000,397.730000,727.010000,397.390000,729.730000C396.160000,739.480000,393.080000,748.520000,386.750000,756.220000C383.010000,760.780000,378.430000,764.310000,373.130000,766.900000C367.960000,769.420000,362.500000,770.960000,356.790000,771.610000C354.100000,771.920000,351.410000,772.190000,348.690000,771.920000C348.420000,771.890000,348.140000,771.910000,347.860000,771.910000C323.320000,771.910000,298.780000,771.950000,274.230000,771.890000C267.710000,771.870000,261.540000,770.260000,255.990000,766.730000C250.860000,763.460000,247.470000,758.780000,245.480000,753.060000C243.870000,748.440000,243.220000,743.650000,243.600000,738.800000C243.750000,736.930000,243.320000,735.830000,241.740000,734.940000C240.700000,734.350000,239.780000,733.550000,238.830000,732.820000C238.620000,732.660000,238.450000,732.370000,238.380000,732.120000C237.870000,730.060000,237.410000,727.990000,236.880000,725.940000C236.800000,725.620000,236.490000,725.250000,236.190000,725.100000C233.390000,723.720000,230.570000,722.370000,227.740000,721.050000C227.210000,720.800000,227.080000,720.580000,227.230000,719.980000C228.570000,714.740000,229.870000,709.480000,231.190000,704.240000C231.230000,704.070000,231.300000,703.910000,231.380000,703.690000C243.120000,707.620000,254.780000,711.520000,266.590000,715.470000C271.060000,680.690000,266.700000,646.990000,255.340000,613.980000C275.760000,613.980000,296.230000,613.980000,316.740000,613.980000C316.740000,611.790000,316.740000,600.130000,316.740000,597.990000L316.800000,597.790000Z"
                        fill="#fff"
                        stroke="none"
                        stroke-width="1"
                    />
                    <path
                        id="epij899lf62m7"
                        d="M237.010000,716.030000C239.240000,717.100000,241.400000,718.150000,243.570000,719.170000C244.010000,719.370000,244.200000,719.640000,244.300000,720.100000C244.820000,722.420000,245.360000,724.740000,245.930000,727.040000C246.010000,727.370000,246.250000,727.730000,246.520000,727.930000C248.030000,729.080000,249.580000,730.190000,251.120000,731.330000C251.740000,731.790000,252.650000,732.160000,252.880000,732.770000C253.130000,733.420000,252.760000,734.320000,252.610000,735.110000C251.640000,740.150000,251.860000,745.140000,253.440000,750.030000C254.660000,753.780000,256.760000,756.940000,260.040000,759.200000C264.330000,762.170000,269.220000,763.410000,274.320000,763.430000C298.980000,763.520000,323.650000,763.470000,348.310000,763.470000C348.610000,763.470000,348.910000,763.470000,349.210000,763.480000C354.470000,763.660000,359.610000,762.910000,364.600000,761.230000C374.770000,757.820000,381.850000,751.140000,385.830000,741.160000C387.760000,736.330000,388.750000,731.280000,389.260000,726.130000C389.350000,725.250000,389.390000,724.360000,389.450000,723.410000C389.210000,723.460000,389.090000,723.480000,388.980000,723.510000C382.320000,725.420000,375.650000,727.330000,369,729.270000C368.560000,729.400000,368.140000,729.650000,367.760000,729.920000C366.570000,730.760000,365.450000,731.690000,364.230000,732.480000C359.610000,735.450000,354.550000,737.390000,349.280000,738.810000C342.800000,740.560000,336.180000,741.440000,329.490000,741.840000C322.590000,742.240000,315.710000,742.180000,308.840000,741.380000C302.300000,740.620000,295.900000,739.260000,289.670000,737.130000C281.450000,734.320000,273.820000,730.400000,267.120000,724.790000C266.860000,724.570000,266.530000,724.430000,266.200000,724.320000C259.820000,722.170000,253.430000,720.030000,247.040000,717.900000C243.840000,716.830000,240.640000,715.770000,237.390000,714.680000C237.260000,715.130000,237.150000,715.530000,237.010000,716.030000Z"
						fill="#a32824"
                        stroke="none"
                        stroke-width="1"
                    />
                    <path
                        id="epij899lf62m8"
                        d="M316.720000,733.480000C316.720000,725.260000,316.720000,717.110000,316.720000,708.960000C306.890000,709.060000,275.020000,714.520000,270.930000,716.810000C271.920000,717.660000,272.870000,718.540000,273.890000,719.330000C282.060000,725.640000,291.380000,729.420000,301.400000,731.540000C304.910000,732.280000,308.490000,732.690000,312.060000,733.170000C313.580000,733.380000,315.130000,733.380000,316.720000,733.480000Z"
                        fill="#e05f36"
                        stroke="none"
                        stroke-width="1"
                    />
                    <path
                        id="epij899lf62m9"
                        d="M368.670000,706.440000C365.850000,705.560000,363.170000,704.660000,360.440000,703.900000C355.900000,702.640000,351.260000,701.800000,346.580000,701.180000C340.130000,700.320000,333.640000,700.020000,327.140000,700.040000C318.880000,700.060000,310.650000,700.680000,302.460000,701.710000C293.750000,702.810000,285.130000,704.370000,276.580000,706.390000C276.470000,706.420000,276.340000,706.410000,276.140000,706.420000C278.430000,677.900000,274.970000,650.030000,267.110000,622.530000C267.430000,622.530000,267.700000,622.530000,267.960000,622.530000C298.120000,622.530000,328.280000,622.530000,358.450000,622.520000C359.010000,622.520000,359.350000,622.690000,359.690000,623.130000C366.770000,632.210000,371.010000,642.520000,373,653.800000C374.360000,661.500000,374.620000,669.250000,374.110000,677.040000C373.480000,686.740000,371.730000,696.230000,368.950000,705.540000C368.870000,705.840000,368.760000,706.140000,368.670000,706.440000ZM303.920000,688.410000C315.340000,688.410000,326.690000,688.410000,338.100000,688.410000C338.100000,688.090000,338.100000,687.810000,338.100000,687.540000C338.100000,684.510000,338.110000,681.470000,338.080000,678.440000C338.070000,677.860000,338.280000,677.470000,338.670000,677.070000C339.510000,676.210000,340.360000,675.350000,341.100000,674.410000C345.560000,668.740000,347.330000,662.280000,346.390000,655.160000C345.430000,647.910000,341.890000,642.100000,335.980000,637.800000C330.390000,633.730000,324.090000,632.230000,317.260000,633.220000C311.060000,634.110000,305.860000,636.970000,301.760000,641.690000C296.560000,647.680000,294.550000,654.670000,295.700000,662.510000C296.540000,668.210000,299.140000,673.050000,303.300000,677.020000C303.760000,677.460000,303.920000,677.910000,303.920000,678.530000C303.890000,681.540000,303.910000,684.550000,303.910000,687.560000C303.920000,687.820000,303.920000,688.090000,303.920000,688.410000Z"
                         fill="#ffdb6c"
                        stroke="none"
                        stroke-width="1"
                    />
                    <path
                        id="epij899lf62m10"
                        d="M299.700000,695.860000C299.700000,695.450000,299.700000,695.110000,299.700000,694.760000C299.700000,690.910000,299.680000,687.060000,299.720000,683.220000C299.730000,682.430000,299.520000,681.860000,298.930000,681.290000C293.610000,676.200000,290.280000,670.020000,289.210000,662.740000C287.740000,652.720000,290.310000,643.780000,296.960000,636.130000C302.200000,630.090000,308.850000,626.440000,316.770000,625.300000C325.500000,624.040000,333.550000,625.950000,340.700000,631.160000C348.250000,636.660000,352.780000,644.090000,354,653.360000C355.210000,662.470000,352.940000,670.720000,347.240000,677.970000C346.290000,679.170000,345.210000,680.280000,344.130000,681.370000C343.630000,681.880000,343.360000,682.380000,343.370000,683.120000C343.410000,687,343.390000,690.880000,343.390000,694.760000C343.390000,695.110000,343.390000,695.460000,343.390000,695.870000C328.810000,695.860000,314.300000,695.860000,299.700000,695.860000ZM332.310000,683.520000C332.390000,683.490000,332.460000,683.450000,332.540000,683.420000C332.540000,682.820000,332.530000,682.220000,332.540000,681.630000C332.560000,680.160000,332.170000,678.500000,332.720000,677.260000C333.250000,676.050000,334.740000,675.270000,335.810000,674.300000C335.860000,674.260000,335.910000,674.220000,335.960000,674.180000C342.360000,668.170000,344.800000,660.850000,342.730000,652.310000C339.810000,640.240000,327.040000,633.020000,315.220000,636.810000C306.760000,639.520000,301.610000,645.430000,300.030000,654.230000C299.050000,659.670000,300.250000,664.710000,303.120000,669.400000C304.910000,672.320000,307.500000,674.480000,310.030000,676.700000C310.490000,677.100000,310.670000,677.490000,310.660000,678.080000C310.620000,679.910000,310.650000,681.750000,310.650000,683.580000C311.780000,681.160000,313.420000,679.570000,316.190000,679.620000C319.070000,679.670000,320.690000,681.380000,321.570000,684.180000C322.440000,681.480000,323.990000,679.760000,326.790000,679.630000C329.570000,679.490000,331.290000,681.020000,332.310000,683.520000Z"
                        fill="#555555"
                        stroke="none"
                        stroke-width="1"
                    />
                    <path
                        id="epij899lf62m11"
                        d="M388.980000,723.520000C382.320000,725.430000,375.650000,727.340000,369,729.280000C368.560000,729.410000,368.140000,729.660000,367.760000,729.930000C366.570000,730.770000,365.450000,731.700000,364.230000,732.490000C359.610000,735.460000,354.550000,737.400000,349.280000,738.820000C342.800000,740.570000,336.180000,741.450000,329.490000,741.850000C322.590000,742.250000,315.710000,742.190000,308.840000,741.390000C302.300000,740.630000,295.900000,739.270000,289.670000,737.140000C281.450000,734.330000,273.820000,730.410000,267.120000,724.800000C266.860000,724.580000,266.530000,724.440000,266.200000,724.330000C259.820000,722.180000,253.430000,720.040000,247.040000,717.910000C243.840000,716.840000,240.640000,715.780000,237.390000,714.690000C237.270000,715.140000,237.150000,715.540000,237.020000,716.040000C239.250000,717.110000,241.410000,718.160000,243.580000,719.180000C244.020000,719.380000,244.210000,719.650000,244.310000,720.110000C244.830000,722.430000,245.370000,724.750000,245.940000,727.050000C246.020000,727.380000,246.260000,727.740000,246.530000,727.940000C248.040000,729.090000,249.590000,730.200000,251.130000,731.340000C251.750000,731.800000,252.660000,732.170000,252.890000,732.780000C253.140000,733.430000,252.770000,734.330000,252.620000,735.120000C251.650000,740.160000,251.870000,745.150000,253.450000,750.040000C254.670000,753.790000,256.770000,756.950000,260.050000,759.210000C264.340000,762.180000,269.230000,763.420000,274.330000,763.440000C298.990000,763.530000,323.660000,763.480000,348.320000,763.480000C348.620000,763.480000,348.920000,763.480000,349.220000,763.490000C354.480000,763.670000,359.620000,762.920000,364.610000,761.240000C374.780000,757.830000,381.860000,751.150000,385.840000,741.170000C387.770000,736.340000,388.760000,731.290000,389.270000,726.140000C389.360000,725.260000,389.400000,724.370000,389.460000,723.420000C389.210000,723.460000,389.090000,723.480000,388.980000,723.520000ZM290.970000,754.900000C288.650000,754.830000,286.820000,752.870000,286.880000,750.490000C286.930000,748.220000,288.960000,746.270000,291.190000,746.360000C293.560000,746.450000,295.410000,748.390000,295.360000,750.710000C295.310000,753.100000,293.350000,754.970000,290.970000,754.900000ZM308.190000,754.900000C305.880000,754.890000,303.910000,752.910000,303.930000,750.610000C303.950000,748.310000,305.960000,746.320000,308.240000,746.350000C310.570000,746.380000,312.490000,748.330000,312.480000,750.650000C312.460000,752.990000,310.520000,754.910000,308.190000,754.900000ZM325.330000,754.900000C322.990000,754.910000,321.070000,753,321.060000,750.660000C321.050000,748.320000,322.930000,746.390000,325.280000,746.350000C327.570000,746.310000,329.540000,748.260000,329.560000,750.600000C329.570000,752.950000,327.650000,754.890000,325.330000,754.900000ZM342.380000,754.900000C340.060000,754.900000,338.120000,752.950000,338.130000,750.630000C338.140000,748.320000,340.110000,746.350000,342.400000,746.360000C344.700000,746.370000,346.660000,748.340000,346.650000,750.650000C346.650000,752.970000,344.710000,754.900000,342.380000,754.900000Z"
                        fill="#dddddd"
                        stroke="none"
                        stroke-width="0"
                    />
                    <path
                        id="epij899lf62m12"
                        d="M332.310000,683.520000C331.290000,681.020000,329.570000,679.490000,326.770000,679.620000C323.970000,679.750000,322.420000,681.460000,321.550000,684.170000C320.670000,681.370000,319.050000,679.660000,316.170000,679.610000C313.400000,679.560000,311.760000,681.160000,310.630000,683.570000C310.630000,681.740000,310.610000,679.900000,310.640000,678.070000C310.650000,677.470000,310.470000,677.090000,310.010000,676.690000C307.480000,674.470000,304.890000,672.310000,303.100000,669.390000C300.230000,664.700000,299.030000,659.660000,300.010000,654.220000C301.600000,645.410000,306.750000,639.510000,315.200000,636.800000C327.020000,633.010000,339.780000,640.230000,342.710000,652.300000C344.780000,660.840000,342.340000,668.160000,335.940000,674.170000C335.890000,674.210000,335.840000,674.250000,335.790000,674.290000C334.720000,675.260000,333.230000,676.050000,332.700000,677.250000C332.150000,678.490000,332.540000,680.140000,332.520000,681.620000C332.510000,682.220000,332.520000,682.820000,332.520000,683.410000C332.460000,683.450000,332.390000,683.480000,332.310000,683.520000ZM318.780000,657.640000C318.750000,654.620000,316.350000,652.260000,313.320000,652.280000C310.350000,652.300000,307.910000,654.780000,307.950000,657.770000C307.990000,660.750000,310.450000,663.110000,313.490000,663.080000C316.430000,663.050000,318.800000,660.620000,318.780000,657.640000ZM329.720000,663.080000C332.730000,663.090000,335.170000,660.690000,335.190000,657.700000C335.210000,654.740000,332.740000,652.280000,329.750000,652.280000C326.760000,652.280000,324.290000,654.750000,324.310000,657.710000C324.330000,660.650000,326.780000,663.070000,329.720000,663.080000Z"
                        fill="rgb(255,255,255)"
                        stroke="none"
                        stroke-width="1"
                    />
                    <g id="epij899lf62m13">
                        <path
                            id="epij899lf62m14"
                            d="M318.780000,657.640000C318.810000,660.610000,316.430000,663.050000,313.490000,663.080000C310.450000,663.110000,307.990000,660.750000,307.950000,657.770000C307.910000,654.780000,310.340000,652.300000,313.320000,652.280000C316.350000,652.270000,318.750000,654.620000,318.780000,657.640000Z"
                            fill="#555"
                            stroke="none"
                            stroke-width="1"
                        />
                        <path
                            id="epij899lf62m15"
                            d="M329.720000,663.080000C326.780000,663.070000,324.340000,660.640000,324.320000,657.710000C324.300000,654.750000,326.770000,652.280000,329.760000,652.280000C332.750000,652.280000,335.220000,654.740000,335.200000,657.700000C335.170000,660.690000,332.730000,663.090000,329.720000,663.080000Z"
                            fill="#555"
                            stroke="none"
                            stroke-width="1"
                        />
                    </g>
                    <path
                        id="epij899lf62m16"
                        d="M316.740000,607.530000C315.540000,607.640000,314.370000,607.780000,313.210000,607.840000C309.960000,608.020000,306.840000,607.400000,303.820000,606.230000C301.840000,605.470000,299.930000,604.510000,297.930000,603.840000C295.020000,602.870000,291.990000,602.830000,288.940000,603.080000C285.760000,603.340000,282.690000,604.080000,279.680000,605.130000C277.630000,605.850000,275.500000,604.970000,274.540000,603.060000C273.560000,601.120000,274.090000,598.730000,276,597.680000C277.420000,596.900000,279.020000,596.390000,280.600000,595.950000C284.200000,594.940000,287.890000,594.410000,291.640000,594.430000C296.300000,594.450000,300.760000,595.370000,304.960000,597.490000C307.450000,598.750000,310.090000,599.480000,312.900000,599.350000C313.940000,599.300000,314.970000,599.040000,316,598.870000C316.610000,598.770000,316.850000,598.440000,316.810000,597.780000L316.740000,607.530000Z"
                        fill="#ffdb6c"
                        stroke="none"
                        stroke-width="1"
                    />
                    <path
                        id="epij899lf62m17"
                        d="M316.740000,597.130000C315.540000,597.020000,314.370000,596.880000,313.210000,596.820000C309.960000,596.640000,306.840000,597.260000,303.820000,598.430000C301.840000,599.190000,299.930000,600.150000,297.930000,600.820000C295.020000,601.790000,291.990000,601.830000,288.940000,601.580000C285.760000,601.320000,282.690000,600.580000,279.680000,599.530000C277.630000,598.810000,275.500000,599.690000,274.540000,601.600000C273.560000,603.540000,274.090000,605.930000,276,606.980000C277.420000,607.760000,279.020000,608.270000,280.600000,608.710000C284.200000,609.720000,287.890000,610.250000,291.640000,610.230000C296.300000,610.210000,300.760000,609.290000,304.960000,607.170000C307.450000,605.910000,310.090000,605.180000,312.900000,605.310000C313.940000,605.360000,314.970000,605.620000,316,605.790000C316.610000,605.890000,316.850000,606.220000,316.810000,606.880000L316.740000,597.130000Z"
                        fill="#ffdb6c"
                        fill-opacity="0"
                        stroke="none"
                        stroke-width="1"
                    />
                </g>
            </g>
        </g>
    </g>
</svg>
