<svg xmlns="http://www.w3.org/2000/svg" viewBox="0 0 500 500" overflow="hidden" preserveAspectRatio="xMidYMid meet" id="eaf-daba-0"><defs><clipPath id="eaf-daba-1"><rect x="0" y="0" width="500" height="500"></rect></clipPath><style>#eaf-daba-0 * {animation: 10000ms linear infinite normal both running;offset-rotate:0deg}@keyframes eaf-daba-2{0%{fill:#e20000}36.83%{fill:#e20000;animation-timing-function:ease-in-out}42.33%,100%{fill:#01507b}}@keyframes eaf-daba-3{0%,100%{transform:none;offset-path:path("m317 -55.3489l0 249.0989")}}@keyframes eaf-daba-4{0%{offset-distance:0%;animation-timing-function:ease-in-out}5.83%,100%{offset-distance:100%}}@keyframes eaf-daba-5{0%,100%{transform:translate(-23px,-20.85px)}}@keyframes eaf-daba-6{0%,100%{transform:none;offset-path:path("m262.2 -55.3489l0 0l0 249.0989")}}@keyframes eaf-daba-7{0%{offset-distance:0%}2.17%{offset-distance:0%;animation-timing-function:ease-in-out}10.66%,100%{offset-distance:100%}}@keyframes eaf-daba-8{0%,100%{transform:none;offset-path:path("m208.4 -55.3489l0 0l0 249.0989")}}@keyframes eaf-daba-9{0%{offset-distance:0%}3.83%{offset-distance:0%;animation-timing-function:ease-in-out}15.49%,100%{offset-distance:100%}}@keyframes eaf-daba-10{0%,100%{transform:none;offset-path:path("m154.15 -55.3489l0 0l0 249.0989")}}@keyframes eaf-daba-11{0%{offset-distance:0%}5.5%{offset-distance:0%;animation-timing-function:ease-in-out}19.66%,100%{offset-distance:100%}}@keyframes eaf-daba-12{0%,100%{transform:translate(-22.45px,-20.85px)}}@keyframes eaf-daba-13{0%,100%{transform:none;offset-path:path("m99.9 -55.3489l0 0l0 249.0989")}}@keyframes eaf-daba-14{0%{offset-distance:0%}7.17%{offset-distance:0%;animation-timing-function:ease-in-out}24.16%,100%{offset-distance:100%}}@keyframes eaf-daba-15{0%,100%{transform:none;offset-path:path("m154.15 -105.7489l0 0l0 249.0989")}}@keyframes eaf-daba-16{0%{offset-distance:0%}9.67%{offset-distance:0%;animation-timing-function:ease-in-out}28.17%,100%{offset-distance:100%}}@keyframes eaf-daba-17{0%,100%{transform:none;offset-path:path("m208.4 -105.7489l0 0l0 249.0989")}}@keyframes eaf-daba-18{0%{offset-distance:0%}11.67%{offset-distance:0%;animation-timing-function:ease-in-out}30.83%,100%{offset-distance:100%}}@keyframes eaf-daba-19{0%,100%{transform:matrix(-1,0,0,-1,23,20.85)}}@keyframes eaf-daba-20{0%,100%{transform:none;offset-path:path("m262.2 -105.7489l0 0l0 249.0989")}}@keyframes eaf-daba-21{0%{offset-distance:0%}13.5%{offset-distance:0%;animation-timing-function:ease-in-out}33.33%,100%{offset-distance:100%}}@keyframes eaf-daba-22{0%{fill:#e30000;animation-timing-function:ease-in-out}36.83%{fill:#e20000;animation-timing-function:ease-in-out}42.33%,100%{fill:#01507b}}@keyframes eaf-daba-23{0%,100%{transform:none;offset-path:path("m262.2 -156.1489l0 0l0 249.0989")}}@keyframes eaf-daba-24{0%{offset-distance:0%}16.33%{offset-distance:0%;animation-timing-function:ease-in-out}35.33%,100%{offset-distance:100%}}@keyframes eaf-daba-25{0%{transform:rotate(0)}25%{transform:rotate(0);animation-timing-function:ease-in-out}35.33%,100%{transform:rotate(-180deg)}}@keyframes eaf-daba-26{0%,100%{transform:none;offset-path:path("m206.7862 233.566l0 0l0 153.9999")}}@keyframes eaf-daba-27{0%{offset-distance:0%}61.33%{offset-distance:0%;animation-timing-function:ease-in}70%,100%{offset-distance:100%}}@keyframes eaf-daba-28{0%,100%{transform:translate(-206.7862px,-233.566px)}}@keyframes eaf-daba-29{0%{opacity:1}63.83%{opacity:1;animation-timing-function:ease-in-out}70%,100%{opacity:0}}@keyframes eaf-daba-30{0%,100%{transform:none;offset-path:path("m264.6398 257.4l0 0l-472.8601 0l972.809 0l-499.9489 0")}}@keyframes eaf-daba-31{0%{offset-distance:0%}70%{offset-distance:0%;animation-timing-function:ease-in}82.67%{offset-distance:24.3039%;animation-timing-function:step-start}87.33%{offset-distance:74.3039%;animation-timing-function:cubic-bezier(0,0,0.58,1)}97.33%,100%{offset-distance:100%}}@keyframes eaf-daba-32{0%,100%{transform:translate(-264.6398px,-257.4px)}}</style></defs><g clip-path="url('#eaf-daba-1')" style="isolation: isolate;"><g><g transform="matrix(4 0 0 4 -827.2 -2253.5999)"><path fill="#ffcb28" d="m331.8 626.1c0 15.6 0 31.3 0 46.9c0 7.2 -5.4 13.7 -12.5 15.1c-1 0.2 -2.1 0.3 -3.2 0.3c-31.2 0 -62.4 0 -93.6 0c-7.6 0 -14.3 -5.9 -15.3 -13.5c-0.1 -0.7 -0.1 -1.4 -0.1 -2c0 -31.3 0 -62.5 0 -93.8c0 -7.2 5.4 -13.7 12.5 -15.1c1 -0.2 2.1 -0.3 3.2 -0.3c31.2 0 62.4 0 93.6 0c7.2 0 13.7 5.4 15.1 12.5c0.2 1 0.3 2.1 0.3 3.2c0 15.6 0 31.1 0 46.7z"></path></g><g transform="translate(-6.0399 23.9001)"><g transform="translate(0 0)" style="animation-name: eaf-daba-26, eaf-daba-27, eaf-daba-28, eaf-daba-29; animation-composition: replace, add, add, replace;"><rect fill="#e20000" width="46" height="41.7" transform="translate(294 -76.1989)" style="animation-name: eaf-daba-2, eaf-daba-3, eaf-daba-4, eaf-daba-5; animation-composition: replace, replace, add, add;"></rect><rect fill="#e20000" width="46" height="41.7" transform="translate(239.2 -76.1989)" style="animation-name: eaf-daba-2, eaf-daba-6, eaf-daba-7, eaf-daba-5; animation-composition: replace, replace, add, add;"></rect><rect fill="#e20000" width="46" height="41.7" transform="translate(185.4 -76.1989)" style="animation-name: eaf-daba-2, eaf-daba-8, eaf-daba-9, eaf-daba-5; animation-composition: replace, replace, add, add;"></rect><rect fill="#e20000" width="44.9" height="41.7" transform="translate(131.7 -76.1989)" style="animation-name: eaf-daba-2, eaf-daba-10, eaf-daba-11, eaf-daba-12; animation-composition: replace, replace, add, add;"></rect><rect fill="#e20000" width="46" height="41.7" transform="translate(76.9 -76.1989)" style="animation-name: eaf-daba-2, eaf-daba-13, eaf-daba-14, eaf-daba-5; animation-composition: replace, replace, add, add;"></rect><rect fill="#e20000" width="44.9" height="41.7" transform="translate(131.7 -126.5989)" style="animation-name: eaf-daba-2, eaf-daba-15, eaf-daba-16, eaf-daba-12; animation-composition: replace, replace, add, add;"></rect><rect fill="#e20000" width="46" height="41.7" transform="matrix(-1 0 0 -1 231.4 -84.8989)" style="animation-name: eaf-daba-2, eaf-daba-17, eaf-daba-18, eaf-daba-19; animation-composition: replace, replace, add, add;"></rect><rect fill="#e20000" width="46" height="41.7" transform="translate(239.2 -126.5989)" style="animation-name: eaf-daba-2, eaf-daba-20, eaf-daba-21, eaf-daba-5; animation-composition: replace, replace, add, add;"></rect><rect fill="#e30000" width="46" height="41.7" transform="translate(239.2 -176.9989)" style="animation-name: eaf-daba-22, eaf-daba-23, eaf-daba-24, eaf-daba-25, eaf-daba-5; animation-composition: replace, replace, add, add, add;"></rect></g><rect fill="#ffcb28" width="01507b.4229" height="176.8099" transform="matrix(0.8645 0 0 1.1696 24.8633 222.31)"></rect><path fill="#01507b" d="m486.9 196c0 0 -19.7 -18.6 -60.3 -12.1c-4.4 -31.8 -38.4 -50.4 -38.4 -50.4c0 0 -31.8 38.4 -8.8 81.1c-6.6 3.3 -17.5 7.7 -34 7.7l-301.4 0c-5.5 20.8 -5.5 159 145.8 159c108.5 0 189.7 -50.4 228 -142.5c57.1 4.3 69.1 -42.8 69.1 -42.8" transform="translate(0 0)" style="animation-name: eaf-daba-30, eaf-daba-31, eaf-daba-32; animation-composition: replace, add, add;"></path></g></g></g></svg>

