<svg xmlns="http://www.w3.org/2000/svg" viewBox="0 0 500 500" overflow="hidden" preserveAspectRatio="xMidYMid meet" id="eaf-8ee9-0"><defs><clipPath id="eaf-8ee9-1"><rect x="0" y="0" width="500" height="500"></rect></clipPath><style>#eaf-8ee9-0 * {animation: 6000ms linear infinite normal both running;offset-rotate:0deg}@keyframes eaf-8ee9-2{0%,100%{transform:translate(248.9488px,177.45px)}}@keyframes eaf-8ee9-3{0%{transform:scale(1.8338,1.8338);animation-timing-function:ease-in-out}25%{transform:scale(1.3,1.3);animation-timing-function:ease-in-out}50%{transform:scale(1.8338,1.8338);animation-timing-function:ease-in-out}75%{transform:scale(1.3,1.3);animation-timing-function:ease-in-out}100%{transform:scale(1.8338,1.8338)}}@keyframes eaf-8ee9-4{0%,100%{transform:translate(-250.05px,-177.45px)}}@keyframes eaf-8ee9-5{0%,100%{transform:translate(251.8px,445.0735px)}}@keyframes eaf-8ee9-6{0%{transform:rotate(0)}25%{transform:rotate(-21deg)}75%{transform:rotate(21deg)}100%{transform:rotate(0)}}@keyframes eaf-8ee9-7{0%,100%{transform:translate(-251.8px,-445.0735px)}}</style></defs><g clip-path="url('#eaf-8ee9-1')" style="isolation: isolate;"><g><g transform="matrix(4 0 0 4 -827.28 -2254.5264)"><path fill="#f3582c" d="m331.7 626.1c0 15.6 0 31.3 0 46.9c0 7.2 -5.4 13.7 -12.5 15.1c-1 0.2 -2.1 0.3 -3.2 0.3c-31.2 0 -62.4 0 -93.6 0c-7.6 0 -14.3 -5.9 -15.3 -13.5c-0.1 -0.7 -0.1 -1.4 -0.1 -2c0 -31.3 0 -62.5 0 -93.8c0 -7.2 5.4 -13.7 12.5 -15.1c1 -0.2 2.1 -0.3 3.2 -0.3c31.2 0 62.4 0 93.6 0c7.2 0 13.7 5.4 15.1 12.5c0.2 1 0.3 2.1 0.3 3.2c0 15.6 0 31.1 0 46.7z"></path></g><path fill="#ffffff" d="m262.2 187.5l25.8 1.7c-1.5 6.9 -5.4 12.8 -11.7 17.7c-6.3 4.9 -14.7 7.3 -25.4 7.3c-11.9 0 -21.4 -3.4 -28.4 -10.3c-7.1 -6.9 -10.6 -15.4 -10.6 -25.6c0 -10.5 3.5 -19.4 10.5 -26.7c7 -7.3 16.3 -10.9 28 -10.9c11.3 0 20.4 3.4 27.4 10.3c7 6.8 10.4 16.2 10.4 28c0 1 0 2.3 -0.1 4l-47.2 0c0.1 4.4 0.9 7.7 2.4 9.9c1.5 2.1 4.3 3.2 8.5 3.2c5.8 0 9.3 -2.9 10.4 -8.6zm-1.9 -18.4c0 -4.8 -1 -8 -2.9 -9.6c-1.9 -1.6 -4.2 -2.5 -6.9 -2.5c-6.5 0 -9.8 4 -9.8 12.1l19.6 0z" transform="matrix(1.8338 0 0 1.8338 -209.5958 -147.9599)" style="animation-name: eaf-8ee9-2, eaf-8ee9-3, eaf-8ee9-4; animation-composition: replace, add, add;"></path><g style="animation-name: eaf-8ee9-5, eaf-8ee9-6, eaf-8ee9-7; animation-composition: replace, add, add;"><path fill="#fefadf" stroke="#000000" stroke-width="5" stroke-miterlimit="10" d="m326.2 99.5c-20.9 -20.9 -48.5 -32.3 -77.8 -32.3c-29.1 0 -56.4 11.4 -76.8 32c-42.3 42.7 -42.2 111.9 0.2 154.2c20.5 20.4 47.9 31.7 76.9 31.7c29.2 0 56.6 -11.3 77.2 -31.9c42.4 -42.4 42.6 -111.3 0.3 -153.7zm-11 143c-36.6 36.6 -96.2 36.7 -132.9 0.2c-36.5 -36.4 -36.6 -96.1 -0.1 -133c36.5 -36.9 96.3 -36.7 133.4 0.4c36.4 36.5 36.3 95.8 -0.4 132.4z" opacity="0.72"></path><path fill="#000000" d="m336 57.3c-48.5 -35.6 -113.6 -38 -164.8 -6.1c-5.9 3.7 -11.5 7.9 -17.3 11.9c-6 6 -12 12 -17.9 17.9c-0.5 0.9 -0.9 1.8 -1.5 2.6c-21.2 26.4 -32.4 56.5 -32.8 90.3c-0.8 70.9 47.1 130.8 116.4 146.1c1 0.2 2 0.6 3.4 1c-1.1 1 -1.8 1.6 -2.5 2.2c-13.3 10.5 -20.6 24.2 -20.7 41c-0.3 27.3 -0.3 54.6 0.1 81.9c0.2 12.9 5.5 24.1 14.5 33.5c11.6 12.1 25.9 17 42.6 16.7c29.9 -0.4 53.6 -23.5 53.7 -53.3c0.1 -26 0.1 -52.1 0 -78.1c0 -9.7 -2.6 -18.7 -7.7 -27c-4.6 -7.6 -10.8 -13.5 -18.3 -18.4c0.5 -0.3 0.7 -0.5 0.9 -0.6c1.1 -0.3 2.2 -0.6 3.3 -0.9c41.3 -11.8 72.4 -36.7 92.2 -74.6c33.6 -64.1 14.8 -143.2 -43.6 -186.1zm-10.2 195.8c-20.6 20.6 -48 31.9 -77.2 31.9c-29.1 0 -56.4 -11.2 -76.9 -31.7c-42.4 -42.3 -42.5 -111.4 -0.2 -154.2c20.4 -20.6 47.7 -32 76.8 -32c29.3 0 57 11.5 77.8 32.3c42.4 42.5 42.2 111.4 -0.3 153.7z"></path><path fill="#fff" d="m177.6 126.2c17.3 -21.6 36.9 -32 61.3 -32.9c9.5 -0.3 16.7 6 17 15c0.3 8.8 -6.5 15.6 -16 16.1c-19.8 1 -33.6 10.6 -41.6 28.9c-4.5 10.4 -15.8 13.8 -24.2 7.1c-5.1 -4 -7.5 -11.1 -4.9 -17.2c2.9 -6.9 6.5 -13.4 8.4 -17z" opacity="0.75"></path></g></g></g></svg>