<svg xmlns="http://www.w3.org/2000/svg" viewBox="0 0 500 500" overflow="hidden" preserveAspectRatio="xMidYMid meet" id="eaf-13d8f-0"><defs><clipPath id="eaf-13d8f-1"><rect x="0" y="0" width="500" height="500"></rect></clipPath><style>#eaf-13d8f-0 * {animation: 2000ms linear infinite normal both running;offset-rotate:0deg}@keyframes eaf-13d8f-2{0%,100%{transform:translate(250.1px,252.1px)}}@keyframes eaf-13d8f-3{0%{transform:rotate(0);animation-timing-function:ease-in-out}36.65%{transform:rotate(22deg);animation-timing-function:ease-in-out}45%{transform:rotate(21deg);animation-timing-function:ease-in-out}50%{transform:rotate(19deg);animation-timing-function:ease-in-out}81.65%{transform:rotate(-22deg);animation-timing-function:ease-in-out}100%{transform:rotate(0)}}@keyframes eaf-13d8f-4{0%,100%{transform:translate(-250.1px,-252.1px)}}</style></defs><g clip-path="url('#eaf-13d8f-1')" style="isolation: isolate;"><g><g transform="matrix(4 0 0 4 -827.28 -2254.5264)"><path fill="#f3582c" d="m331.7 626.3c0 15.6 0 31.3 0 46.9c0 7.2 -5.4 13.7 -12.5 15.1c-1 0.2 -2.1 0.3 -3.2 0.3c-31.2 0 -62.4 0 -93.6 0c-7.6 0 -14.3 -5.9 -15.3 -13.5c-0.1 -0.7 -0.1 -1.4 -0.1 -2c0 -31.3 0 -62.5 0 -93.8c0 -7.2 5.4 -13.7 12.5 -15.1c1 -0.2 2.1 -0.3 3.2 -0.3c31.2 0 62.4 0 93.6 0c7.2 0 13.7 5.4 15.1 12.5c0.2 1 0.3 2.1 0.3 3.2c0 15.6 0 31.1 0 46.7z"></path></g><g style="animation-name: eaf-13d8f-2, eaf-13d8f-3, eaf-13d8f-4; animation-composition: replace, add, add;"><path fill="#000000" d="m250.1 34.6c-120.2 0 -217.5 97.3 -217.5 217.5c0 120.2 97.3 217.5 217.5 217.5c120.2 0 217.5 -97.3 217.5 -217.5c0 -120.2 -97.2 -217.5 -217.5 -217.5zm0 41.6c77.7 0 143.7 50.6 167 120.5c-79.3 -19.7 -123.4 -29.7 -167 -29.7c-43.6 0 -87.7 10 -167 29.7c23.3 -70 89.3 -120.5 167 -120.5zm-175.8 178.8c133.3 29.3 115.5 61.6 138.9 169.1c-78.4 -16.8 -137.6 -86 -138.9 -169.1zm212.7 169c23.5 -107.4 5.6 -139.8 139 -169c-1.4 83.1 -60.5 152.3 -139 169z"></path></g><ellipse fill="#fff" rx="73.3" ry="73.3" transform="translate(250.1 251.4)"></ellipse><ellipse fill="#ffffff" rx="55.2" ry="55.2" transform="translate(250.1 251.4)"></ellipse><path fill="#fff" d="m207.4 228.3c0 0 2.9 -6.2 3.6 -6.2c0.7 0 5 -5.5 5 -5.5c0 0 5 -4 5.9 -4.3c1 -0.2 6.4 -3.6 7.4 -4c1 -0.5 5.7 -1.7 5.7 -1.7c0 0 2.4 -1 3.6 0c1.2 1 1.7 3.6 1.7 3.6l-5.7 3.1l-7.8 3.9l-6.9 4.1l-4 4.8l-2.5 5.2l-3.3 8.1l-2.6 1.2l-3.6 -1.2l1.4 -8.8l2.1 -2.3z" opacity="0.79"></path></g></g></svg>