<svg xmlns="http://www.w3.org/2000/svg" viewBox="0 0 500 500" overflow="hidden" preserveAspectRatio="xMidYMid meet" id="eaf-bf5f-0"><defs><clipPath id="eaf-bf5f-1"><rect x="0" y="0" width="500" height="500"></rect></clipPath><style>#eaf-bf5f-0 * {animation: 4000ms linear infinite normal both running;offset-rotate:0deg}@keyframes eaf-bf5f-2{0%{fill:#6ecf1f}25.83%{fill:#6dce1e}32.5%{fill:#ff3030}89.18%{fill:#ff3030}92.5%,100%{fill:#6dce1e}}@keyframes eaf-bf5f-3{0%,100%{filter:none}}@keyframes eaf-bf5f-4{0%{filter:drop-shadow(0 0 0 #000)}31.68%{filter:drop-shadow(0 0 0 #000)}33.33%{filter:drop-shadow(6px 6px 10px #ff7578)}89.18%{filter:drop-shadow(-1px -10px 6px #ff1f22)}92.5%,100%{filter:drop-shadow(0 0 0 #000)}}@keyframes eaf-bf5f-5{0%,100%{transform:translate(353.2556px,303.6852px)}}@keyframes eaf-bf5f-6{0%{transform:rotate(-24deg);animation-timing-function:ease-in-out}5.83%{transform:rotate(-27deg);animation-timing-function:ease-in-out}11.68%{transform:rotate(-24deg);animation-timing-function:ease-in-out}17.5%{transform:rotate(-30deg);animation-timing-function:ease-in-out}23.33%{transform:rotate(-34deg)}25.83%{transform:rotate(-34deg);animation-timing-function:ease-in-out}32.5%{transform:rotate(79deg)}38.33%{transform:rotate(79deg);animation-timing-function:ease-in-out}40%{transform:rotate(76deg);animation-timing-function:ease-in-out}41.68%{transform:rotate(82.116deg);animation-timing-function:ease-in-out}43.33%{transform:rotate(75.9925deg);animation-timing-function:ease-in-out}44.18%{transform:rotate(81.0564deg);animation-timing-function:ease-in-out}45.83%{transform:rotate(75.9698deg);animation-timing-function:ease-in-out}89.18%{transform:rotate(79deg);animation-timing-function:ease-in-out}100%{transform:rotate(-24deg)}}@keyframes eaf-bf5f-7{0%,100%{transform:matrix(1,0,0,1,-120.568,-161.9106)}}</style></defs><g clip-path="url('#eaf-bf5f-1')" style="isolation: isolate;"><g><g transform="matrix(4 0 0 4 -828.3998 -2255.0379)"><path fill="#f3582c" d="m331.8 626.1c0 15.6 0 31.3 0 46.9c0 7.2 -5.4 13.7 -12.5 15.1c-1 0.2 -2.1 0.3 -3.2 0.3c-31.2 0 -62.4 0 -93.6 0c-7.6 0 -14.3 -5.9 -15.3 -13.5c-0.1 -0.7 -0.1 -1.4 -0.1 -2c0 -31.3 0 -62.5 0 -93.8c0 -7.2 5.4 -13.7 12.5 -15.1c1 -0.2 2.1 -0.3 3.2 -0.3c31.2 0 62.4 0 93.6 0c7.2 0 13.7 5.4 15.1 12.5c0.2 1 0.3 2.1 0.3 3.2c0 15.6 0 31.1 0 46.7z"></path></g><rect fill="#e1f3fd" width="81" height="73.2" transform="translate(-190 557.6)"></rect><g transform="translate(-104.3555 -20.4367)"><path fill="#fefadf" d="m444.2 282.1c0 -119.8 -86.7 -216.8 -193.7 -216.8c-107 0 -193.7 97 -193.7 216.8l0 0l0 136.8l387.4 0l0 -136.8l0 0z" transform="translate(103.2556 18.4156)"></path><path fill="#000000" d="m250.5 26.7c-125.8 0 -228.1 114.6 -228.1 255.4l0 122.5c0 28.4 23 51.4 51.4 51.4l361.4 0c24 0 43.4 -19.5 43.4 -43.4l0 -130.5c0 -140.8 -102.3 -255.4 -228.1 -255.4zm0 38.5c107 0 193.7 97.1 193.7 216.8l-387.4 0c0 -119.7 86.8 -216.8 193.7 -216.8zm176 353.6l-345.8 0c-13.2 0 -23.8 -10.7 -23.8 -23.8l0 -74.4l0 -38.6l387.4 0l0 38.6l0 80.5c-0.1 9.8 -8 17.7 -17.8 17.7z" transform="translate(103.2556 18.4156)"></path><g style="filter: drop-shadow(rgb(0, 0, 0) 0px 0px 0px); animation-name: eaf-bf5f-3, eaf-bf5f-4; animation-composition: replace, add;"><path fill="#6ecf1f" stroke="#000000" stroke-width="10" d="m399.5 398.2l-284.9 0c-12.7 0 -22.9 -10.3 -22.9 -22.9l0 -4.3c0 -12.7 10.3 -22.9 22.9 -22.9l284.9 0c12.7 0 22.9 10.3 22.9 22.9l0 4.3c0 12.6 -10.3 22.9 -22.9 22.9z" transform="matrix(1 0 0 0.953 103.2556 37.9503)" style="animation-name: eaf-bf5f-2;"></path></g><g style="filter: drop-shadow(rgb(186, 186, 182) 4px 4px 2px);"><g transform="matrix(1.0958 0 0 1.0958 80.4751 -98.9317)"><path fill="#cc6152" stroke="#000000" stroke-width="12" paint-order="stroke" d="m322.3 247.2c19.9 15.3 35.4 37.4 44.4 64.6c3.3 10 13.2 15.1 22.1 11.4c8.9 -3.7 13.5 -14.8 10.2 -24.8c-11 -33.2 -30.1 -60.8 -54.6 -80.5l-22.1 29.3z"></path><path fill="#74b340" stroke="#000000" stroke-width="12" paint-order="stroke" d="m171.2 253.6l-23.6 -27.7c-20.1 18.9 -36 43.5 -45.6 72.5c-3.3 10 1.3 21.1 10.2 24.8c2 0.8 4 1.2 6 1.2c7 0 13.6 -4.8 16.1 -12.6c7.9 -23.7 20.6 -43.4 36.9 -58.2z"></path><path fill="#e78244" stroke="#000000" stroke-width="12" paint-order="stroke" d="m250.5 184.6l0 38.6c27 0 51.6 8.6 71.8 24.1l22.1 -29.2c-26.4 -21.3 -58.9 -33.5 -93.9 -33.5z"></path><path fill="#ffd464" stroke="#000000" stroke-width="12" paint-order="stroke" d="m250.5 223.2l0 -38.6c-39.1 0 -75 15.1 -102.9 41.2l23.6 27.7c21.4 -19.4 48.9 -30.3 79.3 -30.3z"></path></g></g><g transform="matrix(0.9135 -0.4067 0.4067 0.9135 177.2563 204.8119)" style="animation-name: eaf-bf5f-5, eaf-bf5f-6, eaf-bf5f-7; animation-composition: replace, add, add;"><path fill="#fefadf" d="m23.41 0c-4.98 0 -9.74 1.57 -13.73 4.52c-9.78 7.18 -12.59 21.05 -6.4 31.58l74.51 126.95c0 -24.11 18.01 -43.72 40.13 -43.72c2.21 0 4.37 0.2 6.49 0.58l-82.29 -110.42c-4.4 -5.94 -11.39 -9.49 -18.71 -9.49z"></path><g style="filter: drop-shadow(rgb(94, 94, 94) 3px 3px 4px);"><path fill="#c90606" d="m145.59 172.67c-0.21 -5.25 -1.91 -10.16 -4.92 -14.19l-106.58 -143.04c-2.52 -3.41 -6.51 -5.44 -10.68 -5.44c-2.83 0 -5.54 0.9 -7.81 2.58c-5.7 4.18 -7.32 12.29 -3.69 18.46l83.36 142.02l50.34 0l-0.02 -0.39z"></path></g></g><ellipse fill="#c90606" rx="47.5" ry="47.5" transform="translate(353.2556 303.1156)"></ellipse><polygon points="238.5,248.4 226.4,256.7 215,267 210.7,279.8 214.2,289.8 219.2,286.1 224.6,282.1 227.8,273.4 234.2,264.1 250.5,260.6 253.5,249.7" fill="#fff" transform="translate(103.2556 18.4156)"></polygon><g opacity="0.18" style="filter: blur(2px);"><path fill="#000000" d="m250.5 65.2c-106.1 0 -192.3 95.6 -193.7 214l0 0l0 1.4c0 0.5 0 0.9 0 1.4l0 0l0 119.6c0 9.5 7.7 17.2 17.2 17.2l0 0l0 -136.7c0 -116.5 82.1 -211.6 185.1 -216.6c-2.8 -0.2 -5.7 -0.3 -8.6 -0.3z" transform="translate(103.2556 18.4156)"></path></g></g></g></g></svg>

