<svg xmlns="http://www.w3.org/2000/svg" viewBox="0 0 500 500" overflow="hidden" preserveAspectRatio="xMidYMid meet" id="eaf-4665-0"><!-- Created with Expressive Animator v1.1.3 | https://expressive.app/expressive-animator/ --><defs><clipPath id="eaf-4665-1"><rect x="0" y="0" width="500" height="500"></rect></clipPath><style>#eaf-4665-0 * {animation: 16000ms linear infinite normal both running;offset-rotate:0deg}@keyframes eaf-4665-2{0%{fill:#f3582c}47.08%{fill:#f3582c;animation-timing-function:ease-in-out}49.58%{fill:#000000}63.75%{fill:#000000;animation-timing-function:ease-in-out}65%,100%{fill:#f3582c}}@keyframes eaf-4665-3{0%,100%{transform:translate(269.35px,626.15px)}}@keyframes eaf-4665-4{0%{transform:scale(1,1)}44.17%{transform:scale(1,1);animation-timing-function:ease-in-out}53.54%{transform:scale(1,0.38)}62.71%{transform:scale(1,0.38);animation-timing-function:ease-in-out}66.46%,100%{transform:scale(1,1)}}@keyframes eaf-4665-5{0%,100%{transform:translate(-269.35px,-626.15px)}}@keyframes eaf-4665-6{0%,100%{transform:translate(258.1712px,250.05px)}}@keyframes eaf-4665-7{0%{transform:rotate(0);animation-timing-function:ease-in-out}25%,100%{transform:rotate(360deg)}}@keyframes eaf-4665-8{0%,100%{transform:translate(-258.1712px,-250.05px)}}@keyframes eaf-4665-9{0%{transform:scale(1,1)}37.5%{transform:scale(1,1);animation-timing-function:linear(0 0%,-0.04 12%,-0.19 35%,-0.23 44%,-0.23 54%,-0.18 63%,-0.03 73%,0.2 82%,0.54 91%,1 100%)}45.63%{transform:scale(0,0)}67.92%{transform:scale(0,0);animation-timing-function:linear(0 0%,0.45 9%,0.78 18%,1 27.03%,1.15 37%,1.2 46%,1.21 56%,1.17 66%,1.03 89%,1 100%)}75.21%,100%{transform:scale(1,1)}}@keyframes eaf-4665-10{0%{fill:#fefadf}63.75%{fill:#fefadf}65%,100%{fill:#f3582c}}@keyframes eaf-4665-11{0%,100%{filter:none}}@keyframes eaf-4665-12{0%{filter:drop-shadow(0 0 0 #0000)}51.67%{filter:drop-shadow(0 0 0 #0000)}53.54%{filter:drop-shadow(8px 8px 9px #0000008e)}63.75%{filter:drop-shadow(8px 8px 9px #0000008e)}65%,100%{filter:drop-shadow(0 0 0 #0000)}}@keyframes eaf-4665-13{0%,100%{transform:translate(250.9875px,249.5px)}}@keyframes eaf-4665-14{0%{transform:scale(0,0)}49.58%{transform:scale(0,0);animation-timing-function:ease-in-out}52.71%{transform:scale(0.95,0.95)}67.71%{transform:scale(0.95,0.95)}70.62%,100%{transform:scale(0,0)}}@keyframes eaf-4665-15{0%,100%{transform:translate(-249.9875px,-249.5px)}}@keyframes eaf-4665-16{0%,67.71%{opacity:1}67.92%,100%{opacity:0}}</style></defs><g clip-path="url('#eaf-4665-1')" style="isolation: isolate;"><g><g transform="matrix(4 0 0 4 -827.28 -2254.5264)"><path fill="#f3582c" d="m331.7 626.2c0 15.6 0 31.3 0 46.9c0 7.2 -5.4 13.7 -12.5 15.1c-1 0.2 -2.1 0.3 -3.2 0.3c-31.2 0 -62.4 0 -93.6 0c-7.6 0 -14.3 -5.9 -15.3 -13.5c-0.1 -0.7 -0.1 -1.4 -0.1 -2c0 -31.3 0 -62.5 0 -93.8c0 -7.2 5.4 -13.7 12.5 -15.1c1 -0.2 2.1 -0.3 3.2 -0.3c31.2 0 62.4 0 93.6 0c7.2 0 13.7 5.4 15.1 12.5c0.2 1 0.3 2.1 0.3 3.2c0 15.5999 0 31.0999 0 46.7z" style="animation-name: eaf-4665-2, eaf-4665-3, eaf-4665-4, eaf-4665-5; animation-composition: replace, replace, add, add;"></path></g><g transform="translate(-6 0)"><g style="animation-name: eaf-4665-6, eaf-4665-9, eaf-4665-8; animation-composition: replace, add, add;"><g style="filter: drop-shadow(rgba(0, 0, 0, 0.51) 1px 10px 11px);"><g style="animation-name: eaf-4665-6, eaf-4665-7, eaf-4665-8; animation-composition: replace, add, add;"><path fill="#01669c" d="m455.2 129.8c-60.2 -34.7 -120.4 -69.4 -180.7 -104c-5.2 -3.2 -10.6 -6.1 -16.2 -8.8l-0.2 466c2 0 4.1 -0.7 5.8 -2c64.1 -36.8 128.1 -73.7 192.2 -110.6c3 -1.9 5.1 -5 5.9 -8.4c0.1 -73 0 -146.1 0.1 -219.1c0.6 -5.4 -2.1 -10.6 -6.9 -13.1z"></path><path fill="#000000" d="m257.3 17c-5.6 2.6 -10.9 5.8 -16.2 8.9c-60.2 34.6 -120.4 69.3 -180.5 103.9c-4.2 2.1 -6.8 6.5 -6.4 11.2c0 73 0 146.1 0 219.1c-0.2 4.7 2.4 9.1 6.7 11.1c64 36.9 128.1 73.7 192.2 110.5c1.6 1 3.4 1.4 5.2 1.4l0.2 -466l-1.2 0l0 -0.1z"></path></g></g><path fill="#eae6d3" d="m205.2 151.6c-10.4 -13.4 -27.3 -20.1 -44.1 -17.5c-12.9 1.4 -22.8 12.1 -23.4 25.1c0 60.2 0 120.5 0 180.7c-0.2 6.7 2.4 13.3 7.1 18.1c9.2 9.1 23.5 10.5 34.3 3.4c7.1 -4.8 11.4 -12.9 11.4 -21.5c0 -43.6 -0.1 -87.2 0 -130.8c22.5 27 45.1 53.9 67.7 80.9l0 -75c-17.6 -21.2 -35.3 -42.4 -53 -63.4z"></path><path fill="#fefadf" d="m374.2 157.4c-1.3 -14.5 -14 -25.2 -28.5 -23.9c-12.7 1.1 -22.8 11.2 -23.9 23.9c0 44.3 -0.3 88.6 0 132.9c-21.2 -25 -42.3 -50.2 -63.4 -75.4l0 75c17.3 20.6 34.5 41.2 51.8 61.7c11.3 11.4 27.6 16.3 43.3 13c11.2 -2.2 19.6 -11.5 20.8 -22.8c-0.1 -61.4 -0.1 -122.9 -0.1 -184.4z"></path></g></g><g transform="matrix(0 0 0 0 250.9875 249.5)" style="animation-name: eaf-4665-13, eaf-4665-14, eaf-4665-15, eaf-4665-16; animation-composition: replace, add, add, replace;"><g style="animation-name: eaf-4665-11, eaf-4665-12; animation-composition: replace, add;"><path fill="#fefadf" d="m98.8 300c-2.7 0 -5.4 -1.1 -7.4 -3.1l-62.2 -62.2l0 54.8c0 5.8 -4.7 10.5 -10.5 10.5c-5.8 0 -10.5 -4.7 -10.5 -10.5l0 -80.1c0 -4.3 2.6 -8.1 6.5 -9.7c3.9 -1.6 8.4 -0.7 11.4 2.3l62.2 62.2l0 -54.8c0 -5.8 4.7 -10.5 10.5 -10.5c5.8 0 10.5 4.7 10.5 10.5l0 80.1c0 5.8 -4.7 10.5 -10.5 10.5m48.7 -101l-2.9 5.4l-22.3 40.6l-2.9 5.1l2.9 5.1l22.3 39.3l3 5.4l58.4 0l2.9 -5.9l16.7 -33.6l7.5 -15.2l-16.9 0l-42.7 0.1c-5.6 -0.1 -10.7 5 -10.7 10.5c0 5.6 5.1 10.6 10.7 10.5l25.7 -0.1l-6.3 12.7l-33.1 0l-16.4 -28.9l16.6 -29.9l35.2 0l8.2 16.8l21.1 0l-13.3 -31.9l-2.9 -5.9l-60.8 0m106.4 -0.3c-5.5 0.1 -10.4 5.1 -10.4 10.6l0 27.4l21 0l0 -27.4c0.1 -5.5 -5 -10.6 -10.6 -10.6m33.7 101.4c-5.8 0 -10.5 -4.7 -10.5 -10.5l0 -80.1c0 -5.8 4.7 -10.5 10.5 -10.5c5.8 0 10.5 4.7 10.5 10.5l0 54.8l62.2 -62.2c3 -3 7.5 -3.9 11.4 -2.3c3.9 1.6 6.5 5.5 6.5 9.7l0 80.1c0 5.8 -4.7 10.5 -10.5 10.5c-5.8 0 -10.5 -4.7 -10.5 -10.5l0 -54.7l-62.2 62.1c-2 2 -4.6 3.1 -7.4 3.1m168.4 -50.7l32.7 -32.6c4.1 -4.1 4.1 -10.7 0 -14.9c-4.1 -4.1 -10.7 -4.1 -14.9 0l-32.7 32.6l-32.7 -32.6c-4.1 -4.1 -10.8 -4.1 -14.9 0c-4.1 4.1 -4.1 10.8 0 14.9l32.7 32.6l-32.5 32.5c-4.1 4.1 -4.1 10.7 0 14.9c2 2 4.6 3.1 7.4 3.1c2.7 0 5.4 -1 7.4 -3.1l32.6 -32.5l32.6 32.5c2 2 4.6 3.1 7.4 3.1c2.7 0 5.4 -1 7.4 -3.1c4.1 -4.1 4.1 -10.8 0 -14.9l-32.5 -32.5m-202.1 50.4c-5.5 -0.1 -10.4 -5.1 -10.4 -10.6l0 -44l21 0l0 44c0.1 5.5 -5 10.7 -10.6 10.6" style="animation-name: eaf-4665-10;"></path></g></g></g></g></svg>