<svg xmlns="http://www.w3.org/2000/svg" viewBox="0 0 769 769" overflow="hidden" preserveAspectRatio="xMidYMid meet" id="eaf-ae4a-0"><defs><clipPath id="eaf-ae4a-1"><rect x="0" y="0" width="769" height="769"></rect></clipPath><radialGradient gradientUnits="userSpaceOnUse" cx="384.2738" cy="383.6409" r="324.9368" id="eaf-ae4a-2"><stop stop-color="#777" offset="0"></stop><stop stop-color="#000000" offset="0.78"></stop></radialGradient><style>#eaf-ae4a-0 * {animation: 6000ms linear infinite normal both running;offset-rotate:0deg}@keyframes eaf-ae4a-3{0%{fill:#000000}8.33%{fill:#000000}9.45%{fill:#e01600}86.12%{fill:#e01600}92.78%,100%{fill:#000000}}@keyframes eaf-ae4a-4{0%{fill:#000000}6.12%{fill:#000000}6.67%{fill:#e01600}91.67%{fill:#e01600}98.33%,100%{fill:#000000}}@keyframes eaf-ae4a-5{0%{fill:#000000}5%{fill:#000000}5.57%{fill:#3ccc37}33.33%{fill:#3ccc37}34.45%,100%{fill:#000000}}@keyframes eaf-ae4a-6{0%{fill:#000000}2.22%{fill:#000000}2.78%{fill:#3ccc37}47.22%{fill:#3ccc37}47.78%,100%{fill:#000000}}@keyframes eaf-ae4a-7{0%{fill:#000000}1.12%{fill:#000000}1.67%{fill:#3ccc37}61.12%{fill:#3ccc37}61.67%,100%{fill:#000000}}@keyframes eaf-ae4a-8{0%{fill:#000000}0.55%{fill:#000000}1.12%{fill:#3ccc37}75%{fill:#3ccc37}75.55%,100%{fill:#000000}}@keyframes eaf-ae4a-9{0%,100%{transform:translate(385.0735px,390.1px)}}@keyframes eaf-ae4a-10{0%{transform:rotate(0);animation-timing-function:cubic-bezier(0,0,0.58,1)}10%{transform:rotate(152.3447deg)}11.67%{transform:rotate(152.3447deg)}83.88%,100%{transform:rotate(0)}}@keyframes eaf-ae4a-11{0%,100%{transform:translate(-123.8135px,280.7255px)}}</style></defs><g clip-path="url('#eaf-ae4a-1')" style="isolation: isolate;"><g><g transform="matrix(4 0 0 4 -821.1265 -2304.6863)"><path fill="#f3582c" d="m397.3 672c0 24 0 48.1 0 72.1c0 11 -8.3 21.1 -19.2 23.2c-1.6 0.3 -3.3 0.5 -4.9 0.5c-47.9 0 -95.8 0 -143.7 0c-11.7 0 -22 -9 -23.5 -20.7c-0.1 -1 -0.2 -2.1 -0.2 -3.1c0 -48 0 -96.1 0 -144.1c0 -11 8.3 -21.1 19.2 -23.2c1.6 -0.3 3.3 -0.5 4.9 -0.5c47.9 0 95.9 0 143.8 0c11 0 21.1 8.3 23.1 19.2c0.3 1.6 0.5 3.3 0.5 4.9c0 23.9 0 47.7999 0 71.7z"></path></g><path fill="url('#eaf-ae4a-2')" d="m59.8 359.2c2 -12.5 3.3 -25.1 6.2 -37.4c31 -134.7 113.1 -221.1 247.2 -253.8c95.9 -23.4 190.4 -4.4 270.3 53.6c32.6 22.9 53.9 51.6 56.8 53.9c-20.8 15.9 -5.8 87.2 -55.9 53.6c-23.7 -35.2 -54.5 -59 -125.2 -82.6c-140.3 -45.7 -291.5 43.8 -319.7 188.5c-26.4 135.5 59 265.4 194.7 293.5c134.6 27.9 263.4 -57.8 293.3 -189.6c8.8 -38.7 8 -77.3 -1.5 -115.8c-6.9 -35.4 -30.3 -81.8 -47.9 -104.3c-5.4 -34.6 -6 -66.6 62.3 -43.3c38 57.1 48.6 96.8 52.6 109.1c57.3 178.1 -46.9999 367.5 -227.9999 414.2c-173 44.6 -351.2 -60.7 -395.1 -234c-4.2 -16.5 -5.8 -33.7 -8.6 -50.6c-0.3 -1.7 -1 -3.4 -1.5 -5.1c0 -16.6 0 -33.2 0 -49.9z"></path><ellipse fill="#f3b81e" stroke="#000000" stroke-width="16" stroke-miterlimit="10" rx="132.6" ry="132.6" transform="translate(384.2 390.1)"></ellipse><g><path fill="#000000" d="m558.9 383.6c0.1 -14.1 11.2 -24.6 25.6 -24.4c13.6 0.2 24.3 11.3 24.3 25c0 13.9 -11.3 25 -25.3 24.9c-13.9 -0.1 -24.8 -11.3 -24.6 -25.5z" transform="translate(1.3195 0)" style="animation-name: eaf-ae4a-3;"></path><path fill="#000000" d="m533.9 280.5c0.1 -14.1 11.1 -24.7 25.4 -24.5c13.6 0.2 24.4 11.1 24.5 24.9c0 14 -11.2 25.1 -25.2 25.1c-13.9 -0.2 -24.8 -11.3 -24.7 -25.5z" style="animation-name: eaf-ae4a-4;"></path><path fill="#000000" d="m459.1 208.9c0.1 -14.1 11.1 -24.7 25.4 -24.5c13.6 0.2 24.4 11.1 24.5 24.9c0 14 -11.2 25.1 -25.2 25.1c-14 -0.2 -24.8 -11.3 -24.7 -25.5z" style="animation-name: eaf-ae4a-5;"></path><path fill="#000000" d="m384.4 159.4c14 0.1 24.9 11.3 24.7 25.4c-0.2 13.6 -11.3 24.5 -24.9 24.5c-14 0 -25 -11 -25 -25.1c0.1 -14.2 11 -24.9 25.2 -24.8z" style="animation-name: eaf-ae4a-6;"></path><path fill="#000000" d="m284.9 184.4c13.9 0.2 24.8 11.6 24.4 25.7c-0.3 13.5 -11.5 24.3 -25.2 24.2c-14 -0.1 -24.8 -11.2 -24.7 -25.4c0.2 -14.1 11.1 -24.7 25.5 -24.5z" style="animation-name: eaf-ae4a-7;"></path><path fill="#000000" d="m209.9 259.3c13.9 0.1 24.8 11.4 24.6 25.5c-0.3 13.5 -11.4 24.4 -25.1 24.4c-14 0 -24.9 -11.1 -24.8 -25.2c0 -14.2 11 -24.8 25.3 -24.7z" style="animation-name: eaf-ae4a-8;"></path><path fill="#3ccc37" d="m159.6 383.6c0.2 -14.1 11.2 -24.6 25.5 -24.4c13.6 0.2 24.3 11.3 24.3 25c0 13.9 -11.3 25 -25.3 24.9c-13.9 -0.1 -24.7 -11.3 -24.5 -25.5z"></path></g><ellipse fill="none" stroke="#0296e6" stroke-width="16" stroke-miterlimit="10" rx="359.2" ry="359.2" transform="translate(384.2 385.8)"></ellipse><g transform="translate(261.26 670.8255)" style="animation-name: eaf-ae4a-9, eaf-ae4a-10, eaf-ae4a-11; animation-composition: replace, add, add;"><g transform="matrix(-0.5 -0.866 0.866 -0.5 0 0)"><g transform="translate(-336.0673 -651.0403)"><path fill="#f3582c" d="m703.5 737.9c0.9 -0.9 20.9394 43.7809 27.5394 52.0809c25.6 -30.5 76.9424 -96.3779 101.5423 -125.8779c3.9247 -0.9943 -13.6797 -5.471 -6.8024 -4.668c2.7 -4.6 -20.7793 -10.835 -19.6793 -15.635c2.3 -9.8 -0.7 -19.6 -8 -26.4c-7.3 -6.8 -19.8226 0.9459 -27 -6.1c-9.3258 -9.1548 -25.57 -23.1391 -31.3479 -21.8693c-30.7 25.8 -84.8004 67.9015 -117.0004 95.0015l57.4483 33.1678c0.1 -0.0001 21.9 21.7 23.3 20.3z"></path><path fill="#f3582c" d="m678.2 746.9c-14.4 -8.4 -16.1 -47.1 -11.7 -45c1.3 1.2 -5.1 5.9 -7.9 5.7c16.1 1 11.1 -12.7 -0.5 -9.8c55.3 -48.1 40.4 -34.1 98.9 -88.5c4.1 -3.4 4.4 1.6 8.3 1.6c1.4 0 2.7 0.3 3.9 1.1c8.1 5.1 17.6 9.7 26.8 15c1.6 0.9 2.9 2.3 3.6 4.1c2.5 6.7 19.1 18.7 15.6 22.9c-50.9 52 -79.6 82.6 -94.9 104.9c4.3 -6.2 -7 -10.5 -5.9 -10.8c-0.0999 -1.0001 -30.4999 0.3 -36.1999 -1.2z"></path><path fill="#d90000" stroke="#000000" stroke-width="14" stroke-miterlimit="10" d="m520.2 975.4c-0.3 0 -0.7 0.1 -1 0.1c-40.1 -0.6 -73.8 -32.2 -76.7 -72.5c-2.9 -39.9 26 -75.8 66.1 -81.5c7.4 -1.1 15.1 -0.5 22.6 0.1c4.5 0.4 7.6 -0.5 11.1 -3.4c72.7 -61.5 145.5 -123 218.5 -184.2c4.3 -3.6 9.5 -6.7 14.9 -8.3c9.4 -2.9 18.2 5.2 16 14.8c-1.3 5.6 -4.2 11.4 -7.9 15.8c-61 72.9 -122.2 145.6 -183.5 218.2c-3.6 4.2 -5 8.1 -4 13.6c6.6 39 -23.3 79.8 -62.8 85.8c-4.6 0.5001 -8.9 0.9001 -13.3 1.5001z"></path></g></g><path fill="#fff" d="m0 0l-17.1444 -18.5496l-24.0292 -5.683l-25.8735 3.414q-21.7924 11.5841 -21.7924 11.5841q0 0 -3.2076 13.2261q25 9.1177 25 4.5588q0 -4.5588 24.9514 -17.7849l17.5473 2.7544l24.5484 24.3785l0 -17.8985z" transform="translate(164.9871 -311.593)"></path></g></g></g></svg>