<svg id="evzMIRxAKXU1" xmlns="http://www.w3.org/2000/svg" xmlns:xlink="http://www.w3.org/1999/xlink" viewBox="0 0 650 650" shape-rendering="geometricPrecision" text-rendering="geometricPrecision" project-id="1c9320e45cd840868de92710ca1c8111" export-id="4126114b71ed4454aa9af64a3185628c" cached="false">
<style><![CDATA[
#evzMIRxAKXU5_to {animation: evzMIRxAKXU5_to__to 3000ms linear infinite normal forwards}@keyframes evzMIRxAKXU5_to__to { 0% {transform: translate(379.199997px,367.800003px);animation-timing-function: cubic-bezier(0.42,0,0.58,1)} 43.333333% {transform: translate(405.910734px,401.953958px);animation-timing-function: cubic-bezier(0.42,0,0.58,1)} 100% {transform: translate(379.199997px,367.800003px)}} #evzMIRxAKXU5_tr {animation: evzMIRxAKXU5_tr__tr 3000ms linear infinite normal forwards}@keyframes evzMIRxAKXU5_tr__tr { 0% {transform: rotate(0deg)} 100% {transform: rotate(90deg)}} #evzMIRxAKXU6_to {animation: evzMIRxAKXU6_to__to 3000ms linear infinite normal forwards}@keyframes evzMIRxAKXU6_to__to { 0% {transform: translate(242.278748px,325.00499px)} 33.333333% {transform: translate(251.275457px,279.712871px)} 66.666667% {transform: translate(282.901554px,331.624645px)} 100% {transform: translate(242.278748px,325.00499px)}} #evzMIRxAKXU14_tr {animation: evzMIRxAKXU14_tr__tr 3000ms linear infinite normal forwards}@keyframes evzMIRxAKXU14_tr__tr { 0% {transform: translate(135.33781px,207.03926px) rotate(720deg);animation-timing-function: cubic-bezier(0.415,0.08,0.115,0.955)} 100% {transform: translate(135.33781px,207.03926px) rotate(439.480519deg)}} #evzMIRxAKXU15_tr {animation: evzMIRxAKXU15_tr__tr 3000ms linear infinite normal forwards}@keyframes evzMIRxAKXU15_tr__tr { 0% {transform: translate(11.12px,29.9px) rotate(-720deg);animation-timing-function: cubic-bezier(0.415,0.08,0.115,0.955)} 100% {transform: translate(11.12px,29.9px) rotate(-439.480519deg)}}
]]></style>
<defs></defs><path d="M650,325.07c0,81.56,0,163.12,0,244.67c0,37.38-28.2,71.56-65.02,78.56-5.45,1.04-11.07,1.63-16.61,1.63-162.57.08-325.13.07-487.7.07-39.85,0-74.64-30.57-79.86-70.23-.46-3.5-.77-7.05-.77-10.57C0,406.22,0,243.24,0,80.26C0,42.87,28.21,8.68,65.02,1.7c5.45-1.03,11.07-1.63,16.61-1.63C244.33,-0.02,407.04,0,569.74,0c37.39,0,71.62,28.24,78.56,65.01c1.03,5.45,1.62,11.07,1.63,16.61.1,81.15.07,162.3.07,243.45v0Z" fill="#f3582c"/><path d="M126.64,246.04l1.38,14.34.54,5.4.06.9.06.42v.12l.06.06v.06l1.56,1.44l1.68,1.5l1.86,1.44l2.04,1.38l2.16,1.44l2.34,1.38c7.66,4.27,15.87,7.45,24.18,10.2l3.66,1.2l3.78,1.14l3.9,1.08c30.68,8.35,63.31,12.48,94.98,14.76l5.88.42l6,.36l6,.3l6.12.24c26.69,1.09,53.7.82,80.34-.84l5.88-.36l5.76-.42l5.7-.48c14.33-1.26,28.38-2.9,42.6-5.1l4.92-.84l4.8-.84c25.06-4.46,49.86-10.99,74.7-16.56l4.32-1.02.54-.12.3-.06.06-.12v-.24l.06-.42.42-3.66.84-7.26l3.36-28.98.42-3.66v-.12l-.06-.06h-.18l-.24-.06-.54-.18-2.16-.54-4.26-1.14c-23.54-5.81-46.7-12.52-70.5-17.16l-4.92-.9-4.98-.9-5.1-.84c-36.32-5.84-73.58-8.02-110.34-8.1h-3.06c-36.81.23-73.93,2.57-110.28,8.58l-5.04.9-4.98.9-4.8.96c-11.62,2.41-22.86,5.09-34.14,8.82l-3.66,1.26-3.48,1.26c-7.74,2.98-15.46,6.27-22.26,11.1l-1.98,1.44-1.86,1.5-1.68,1.56-1.44,1.56-1.32,1.56Z" fill="#e3c275"/><path d="M524.74,278.98l-11.82,102.3-5.94,51.18-1.44,12.84-.78,6.36-.36,3.24-.18,1.56-.06.84-.06.36-.24.3-4.08,4.08-4.26,3.96-4.38,3.84-4.56,3.66-4.8,3.54c-13.64,9.82-28.48,17.44-44.22,23.28l-6.36,2.28-6.48,2.1-6.66,1.98c-49.05,13.68-105.43,15.64-155.58,7.26l-7.2-1.32-7.08-1.44-6.96-1.62-6.78-1.8c-23.24-6.46-46.29-15.84-64.98-31.44l-2.1-1.86-2.04-1.86-1.98-1.92c-4.96-4.95-9.44-10.67-12.96-16.74l-1.26-2.28-1.2-2.34-1.08-2.34-.96-2.4-.06-.36-.06-.36-.06-.78-.18-1.62-.3-3.12-.6-6.36-1.2-12.66L140.98,394l-9.84-101.34-2.4-25.32-.06-.12.06.06v.06l.12.06.12.18.36.3c9.6,9.29,26.09,15.43,38.64,19.32l3.3,1.02l3.42,1.02c23.34,6.45,47.59,10.29,71.64,12.9l4.92.54l4.98.48l4.98.42c71.88,5.64,147.61,3.08,217.92-13.98l15.24-3.54l30.36-7.08Z" fill="#fae09c" stroke="#000" stroke-width="0.12" stroke-linecap="round" stroke-linejoin="round" stroke-miterlimit="10"/><g id="evzMIRxAKXU5_to" transform="translate(379.199997,367.800003)"><g id="evzMIRxAKXU5_tr" transform="rotate(0)"><path d="M422.4,447h-86.4c-19.8,0-36-16.2-36-36v-86.4c0-19.8,16.2-36,36-36h86.4c19.8,0,36,16.2,36,36v86.4c0,19.8-16.2,36-36,36Z" transform="translate(-379.199997,-367.800003)" fill="#f8f8f8" fill-opacity="0.2" stroke="#393939" stroke-width="16" stroke-linecap="round" stroke-linejoin="round" stroke-miterlimit="10"/></g></g><g id="evzMIRxAKXU6_to" transform="translate(242.278748,325.00499)"><path d="M314.89,350.46l-47.16,47.16c-14,14-36.91,14-50.91,0l-47.16-47.16c-14-14-14-36.91,0-50.91l47.16-47.16c14-14,36.91-14,50.91,0l47.16,47.16c14.01,13.99,14.01,36.91,0,50.91Z" transform="translate(-254.742793,-340.852236)" fill="#fafafa" fill-opacity="0.3" stroke="#393939" stroke-width="16" stroke-linecap="round" stroke-linejoin="round" stroke-miterlimit="10"/></g><path d="M570.4,105.82l-.12-1.92-.3-1.86-.36-1.8-.48-1.8c-11.37-38.6-85.91-55.33-120.66-61.62l-6.72-1.14-6.9-1.14-7.02-1.02-7.08-.9c-30.19-3.92-60.65-5.52-91.08-5.58h-.06l-8.22.06-8.16.12-8.1.24c-34.35,1.03-69.03,4.38-102.78,10.92l-6.42,1.32-6.3,1.38c-16.14,3.71-32.31,8.17-47.7,14.34l-4.74,1.92-4.5,2.04-4.32,2.04c-19.07,9.42-41.91,25.84-39.42,50.04l.12.78v.18h-.24v.06c14.99,154.37,29.89,308.93,44.88,463.32v.06h.06v.12c2.11,40.19,94.62,53.4,123.6,56.58l5.7.66l5.82.54l5.88.48l5.94.48c27.06,1.82,54.23,2.01,81.3.36l6.06-.36l5.94-.48c24.75-1.98,49.72-5.53,73.8-11.64l4.44-1.2l1.08-.3.24-.06h.12c15.12-4.34,30.28-9.55,43.44-18.36l2.58-1.86l2.46-1.98c6.73-5.6,11.92-12.61,12.96-21.48l.06-.78.06-.36v-.12h.06v-.18c16.9-145.95,33.72-291.97,50.64-437.94l.12-1.26.12-1.14.18-1.14.12-1.02c.34-3.26.72-6.59,1.14-9.84l.12-1.38.06-.54.06-.48.06-.24v-.12l.06-.18.78-2.1.6-2.16.54-2.22.3-2.28.24-2.28c-.01-1.26.03-2.52-.06-3.78ZM538.72,158.5l-.06.24-.12,1.08c-11.43,99.26-22.92,198.53-34.44,297.78v.06l-.06.06c-11.56,12.19-25.18,22.42-39.9,30.48l-3.54,1.92-3.66,1.86-3.72,1.74c-42.99,20.08-95.87,26.48-142.92,24.96l-4.98-.18-4.92-.24-9.84-.72c-38.88-3.61-82.68-13.17-114.9-36.36l-3-2.28-1.44-1.14c-6.01-4.98-11.42-10.28-16.08-16.56l-.96-1.38-1.02-1.38-.9-1.44c-1.58-2.45-2.94-4.72-4.14-7.38l-.72-1.5-.72-1.56c-.64-1.96-.87-1.58-.96-3.42l-.18-2.1-.42-4.14-.78-8.22-1.62-16.5-25.56-264.06v-.06l2.16,1.32l2.16,1.26l2.28,1.26c12.85,7.01,26.89,12.03,40.86,16.26l.24.06l3.6,1.08c27.96,7.87,56.7,12.65,85.56,15.66l4.8.48l9.84.84l4.92.36c31.03,2.33,62.58,2.62,93.66,1.14l7.2-.36l7.08-.48l7.02-.48c17.73-1.43,35.43-3.45,52.98-6.36l3.12-.54l3.06-.54c13.65-2.32,27.15-5.44,40.62-8.64l44.64-10.68l5.58-1.38h.18v.18Zm6.84-48.78c-2.99,11.99-24.61,22.28-34.74,26.46l-2.46,1.02-2.58,1.02c-37.42,14.25-80.57,20.3-120,23.58l-8.82.6-8.94.54-9.06.42-9.18.3-9.3.18-9.42.12c-53.37-.22-111.63-4.88-162.9-20.64l-2.88-.9-2.88-.96c-14.51-5.12-38.27-14.2-47.04-27.78l-.48-.84-.36-.72-.3-.78-.24-.72c-3.87-11.03,17.66-23.3,25.08-26.76l2.16-1.08l2.22-1.02c37.78-16.65,79.32-22.73,120.06-27l8.64-.72l8.76-.66l8.94-.54l9.06-.42l9.18-.3c7.14-.29,14.28-.3,21.42-.3h.12l9.42.06l9.3.18l9.24.24l9.06.42c44.71,2.5,93.58,8.31,136.14,23.64l2.64,1.02l2.52.96c10.73,4.3,33.53,14.67,37.38,26.94l.18.66.18,1.32.06,1.2-.18,1.26Z" fill="#01507b"/></svg>
