<svg xmlns="http://www.w3.org/2000/svg" viewBox="0 0 769 769" overflow="hidden" preserveAspectRatio="xMidYMid meet" id="eaf-69d9-0"><defs><clipPath id="eaf-69d9-1"><rect x="0" y="0" width="769" height="769"></rect></clipPath><style>#eaf-69d9-0 * {animation: 5000ms linear infinite normal both running;offset-rotate:0deg}@keyframes eaf-69d9-2{0%,100%{transform:none;offset-path:path("m1562.4066 -718.3314l0 0l-774.5367 716.6591")}}@keyframes eaf-69d9-3{0%{offset-distance:0%}14.66%{offset-distance:0%;animation-timing-function:cubic-bezier(0,0,0.58,1)}22%,100%{offset-distance:100%}}@keyframes eaf-69d9-4{0%{transform:rotate(0)}70%{transform:rotate(0);animation-timing-function:cubic-bezier(0,0,0.58,1)}81.34%,100%{transform:rotate(-76deg)}}@keyframes eaf-69d9-5{0%,100%{transform:translate(14.2347px,15.4115px)}}@keyframes eaf-69d9-6{0%,100%{transform:none;offset-path:path("m-784.4628 -720.6573l0 0l765.7121 705.8315")}}@keyframes eaf-69d9-7{0%{offset-distance:0%}4%{offset-distance:0%;animation-timing-function:cubic-bezier(0,0,0.58,1)}12.66%,100%{offset-distance:100%}}@keyframes eaf-69d9-8{0%{transform:rotate(0)}70%{transform:rotate(0);animation-timing-function:cubic-bezier(0,0,0.58,1)}81.34%,100%{transform:rotate(71deg)}}@keyframes eaf-69d9-9{0%,100%{transform:translate(1.156px,17.4066px)}}@keyframes eaf-69d9-10{0%,100%{transform:translate(0px,0px)}}@keyframes eaf-69d9-11{0%{transform:scale(1,1)}44.66%{transform:scale(1,1.0047)}52%{transform:scale(1,0.1412)}57.34%{transform:scale(1,0.1412)}63.34%,100%{transform:scale(1,1.0047)}}@keyframes eaf-69d9-12{0%,100%{transform:translate(-322.8626px,-686.352px)}}@keyframes eaf-69d9-13{0%,100%{transform:none;offset-path:path("m612.6202 337.3807l-1.2993 0.8035")}}@keyframes eaf-69d9-14{0%{offset-distance:0%}22%,100%{offset-distance:100%}}@keyframes eaf-69d9-15{0%{animation-timing-function:step-start}6%{transform:rotate(0);animation-timing-function:ease-in-out}10%{transform:rotate(-33deg);animation-timing-function:ease-in-out}13.34%{transform:rotate(-48deg);animation-timing-function:ease-in-out}18%{transform:rotate(-26deg);animation-timing-function:ease-in-out}20.68%{transform:rotate(1deg);animation-timing-function:ease-in-out}25.34%{transform:rotate(34deg);animation-timing-function:ease-in-out}29.34%{transform:rotate(-9deg);animation-timing-function:ease-in-out}30.68%,100%{transform:rotate(-1deg)}}@keyframes eaf-69d9-16{0%,100%{transform:matrix(1.0281,0,0,1.0724,0,-0.1623)}}</style></defs><g clip-path="url('#eaf-69d9-1')" style="isolation: isolate;"><g><path fill="#f3582c" d="m397.85 672.48c0 24.06 0 48.13 0 72.19c0 11.03 -8.32 21.11 -19.18 23.18c-1.61 0.31 -3.27 0.48 -4.9 0.48c-47.97 0.03 -95.93 0.02 -143.9 0.02c-11.76 0 -22.02 -9.02 -23.56 -20.72c-0.14 -1.03 -0.23 -2.08 -0.23 -3.12c-0.01 -48.09 -0.01 -96.18 -0.01 -144.26c0 -11.03 8.32 -21.12 19.18 -23.18c1.61 -0.31 3.27 -0.48 4.9 -0.48c48.01 -0.02 96.02 -0.02 144.02 -0.02c11.03 0 21.13 8.33 23.18 19.18c0.3 1.61 0.48 3.27 0.48 4.9c0.03 23.94 0.02 47.89 0.02 71.83z" transform="matrix(4 0 0 4 -824.28 -2306.28)"></path><g transform="translate(1576.6413 -702.9199)" style="animation-name: eaf-69d9-2, eaf-69d9-3, eaf-69d9-4, eaf-69d9-5; animation-composition: replace, add, add, add;"><g><path fill="#01507b" d="m343.01 618.13c1.16 -1.3 2.32 -2.6 3.84 -4.3c-2.07 -1.95 -4.15 -3.84 -6.15 -5.81c-3.28 -3.25 -3.39 -7.34 -0.33 -10.36c2.87 -2.84 7.14 -2.68 10.26 0.42c3.76 3.73 7.49 7.48 11.5 11.5c4.73 -4.82 9.35 -9.53 13.98 -14.23c1.43 -1.45 2.84 -2.91 4.3 -4.33c3.13 -3.03 7.43 -3.12 10.26 -0.24c2.83 2.8799 2.7 7.15 -0.39 10.2599c-5.48 5.51 -10.98 11 -16.49 16.48c-0.56 0.56 -1.26 0.98 -2.1 1.62c4.17 4.16 8.03 7.96 11.82 11.83c2.93 2.9901 2.95 7.3101 0.13 10.1c-2.81 2.78 -6.89 2.89 -9.74 0.14c-2.03 -1.96 -3.91 -4.07 -6.04 -6.29c-3.11 3.32 -6.01 6.33 -60.075 59.51c-54.065 53.18 -71.055 58.97 -89.755 61.8c11.1 -12.26 21.82 -24.12 72.245 -79.825c50.425 -55.705 51.585 -56.985 52.735 -58.275z" transform="matrix(4 0 0 4 -1640 -2320)"></path></g></g><g transform="translate(-783.3068 -703.2508)" style="animation-name: eaf-69d9-6, eaf-69d9-7, eaf-69d9-8, eaf-69d9-9; animation-composition: replace, add, add, add;"><g><path fill="#01507b" d="m257.07 613.89c2.61 2.91 4.88 5.44 50.69 55.8c45.81 50.36 46.29 51.43 46.77 51.96c4.59 5.15 9.25 10.23 13.87 15.34c5.65 6.23 11.28 12.47 16.96 18.75c-2.76 0.6 -16.1 -2.61 -26.26 -6.12c-8.63 -2.98 -16.71 -7.07 -67.19 -57.925c-50.48 -50.855 -52.99 -53.685 -55.9 -56.815c-1.91 2.01 -3.7 3.99 -5.58 5.87c-3.15 3.17 -7.23 3.26 -10.21 0.3c-2.87 -2.85 -2.76 -7.17 0.3 -10.26c3.73 -3.7599 7.51 -7.48 11.71 -11.66c-3.5 -3.34 -6.93 -6.57 -10.3 -9.84c-2.71 -2.63 -5.36 -5.32 -8.05 -7.97c-3.33 -3.29 -3.6 -7.6 -0.65 -10.57c2.95 -2.97 7.29 -2.72 10.58 0.58c5.54 5.56 11.09 11.1 16.64 16.64c0.45 0.45 0.95 0.8701 1.53 1.4c3.87 -3.88 7.62 -7.72 11.46 -11.48c4.23 -4.14 10.63 -2.38 12.08 3.32c0.63 2.45 -0.15 4.6 -1.9 6.36c-2.08 2.1 -4.26 4.12 -6.55 6.32z" transform="matrix(4 0 0 4 -800 -2320)"></path></g></g><g transform="translate(391.2689 389.8067)"><g transform="matrix(4 0 0 4 -1238.6659 -2714.8174)"><path fill="#01507b" d="m337.2493 624.0678c22.165 19.6801 22.275 20.77 22.545 21.3701c2.6 5.91 4.53 11.99 5.21 18.44c0.07 0.61 0.55 1.31 1.04 1.72c7.22 5.95 11.88 13.41 13.17 22.73c0.5 3.65 0.69 7.56 -1.43 10.79c-4.17 6.34 -6.55 13.03 -5.16 20.79l-0.66 0.36c-4.55 -3.46 -9.11 -6.91 -13.42 -10.18c-1.32 2.7 -2.8 5.52 -14.46 18.41c-11.66 12.89 -15.21 16.65 -20.41 18.34c-2.16 0.7 -4.49 1.2 -6.76 1.23c-9.23 0.14 -18.46 -0.01 -27.68 0.08c-8.13 0.08 -14.11 -3.55 -27.99 -18.675c-13.88 -15.125 -14.97 -20.655 -14.38 -26.535c0.37 -3.68 -1.61 -6.53 -2.82 -9.64c-3.32 -8.58 -4.71 -17.45 -4.12 -26.58c0.47 -7.33 2.2 -14.41 5.4 -21.07c0.64 -1.32 0.53 -2.11 22.615 -21.725c22.085 -19.615 47.145 -19.535 69.31 0.145z"></path><path fill="#f6e9c4" d="m253.74 665.56c32.2 0 64.27 0 96.41 0c1.44 8.81 0.51 17.35 -3.2 25.24c-2.42 5.16 -3.5 10.23 -3.18 15.82c0.18 3.08 -1.02 5.72 -4.13 6.95c-1.11 0.44 -2.38 0.66 -3.58 0.68c-4.28 0.08 -8.56 0.03 -13.17 0.03c0 3.24 0.04 6.4 -0.01 9.56c-0.03 1.95 0.05 3.94 -0.34 5.8199c-0.74 3.59 -3.09 5.4901 -6.76 5.51c-9.22 0.07 -18.45 0.09 -27.67 0c-4.28 -0.04 -7.04 -3.05 -7.09 -7.43c-0.04 -4.41 -0.01 -8.82 -0.01 -13.47c-4.38 0 -8.56 0 -12.75 0c-5.4 -0.01 -8.36 -2.76 -8.12 -8.12c0.24 -5.3 -0.7 -10.11 -3.02 -15c-3.8 -7.94 -4.66 -16.58 -3.38 -25.59z"></path><path fill="#f6e9c4" d="m342.47 645.52c-27.01 -10.89 -53.92 -10.94 -80.74 0.1c6.53 -11.18 20.87 -21.47 38.47 -21.92c17.87 -0.45 32.08 7 42.27 21.82z"></path><path fill="#01507b" d="m308.82 707.47c-4.69 0 -9.21 0 -13.67 0c0 4.67 0 9.19 0 13.66c4.64 0 9.11 0 13.67 0c0 -4.57 0 -9.03 0 -13.66z"></path><g transform="translate(322.8626 686.3519)"><path fill="#01507b" d="m322.87 700.33c7.8 0 13.77 -6.06 14 -13.77c0.22 -7.56 -6.46 -14.14 -13.87 -14.2c-7.59 -0.06 -14.11 6.6 -14.15 13.96c-0.03 7.52 6.59 14.38 14.02 14.01z" transform="translate(-322.8626 -686.3519)" style="animation-name: eaf-69d9-10, eaf-69d9-11, eaf-69d9-12; animation-composition: replace, add, add;"></path></g><path fill="#01507b" d="m294.97 686.42c0 -7.82 -6.04 -13.79 -13.75 -14.02c-7.73 -0.23 -14.16 6.63 -14.22 13.85c-0.06 7.63 6.63 14.12 13.94 14.16c7.52 0.04 14.38 -6.5699 14.03 -13.99z"></path></g></g><path fill="#f3582c" d="m0 0l0 20.2608l0 31.7601q-6.0235 39.4264 -6.0235 39.974q0 0.5476 0 13.1421l-6.0235 33.4029l-9.8566 36.6884l0 12.5945l0 20.2608q79.4004 43.2595 84.3287 41.6167c4.9283 -1.6428 29.5698 -255.7239 29.0222 -256.2715q-0.5476 -0.5476 -91.4473 6.5711z" transform="translate(612.2413 327.7745)"></path><path fill="#c40017" d="m0 0q15.7377 -40.1908 15.7377 -41.3395c0 -1.1487 16.4972 -39.149 16.4972 -39.149q0 0 95.0852 -27.4773l68.3376 0q81.76 0 81.76 0q0 0 68.4 27.4773l11.3199 0l30.72 80.4885l-387.8577 0z" transform="translate(165.3453 337.2293)"></path><path fill="#c40017" d="m0 0l-20.84 27.3601l-5 25.2173l-11.5275 48.3826l0 33.2715l0 28.1287q0 15.7512 0 15.7512c0 0 65.2075 39.28 65.2075 39.28c0 0 0 -39.28 0 -39.28c0 0 23.28 -39.0312 23.28 -39.0312q0 0 7.0255 -36.72l-7.0255 -38.0166q-20.64 -36.9834 -20.64 -36.9834q0 0 -30.48 -27.3601z" transform="matrix(1.0281 0 0 1.0724 612.6202 337.2184)" style="animation-name: eaf-69d9-13, eaf-69d9-14, eaf-69d9-15, eaf-69d9-16; animation-composition: replace, add, add, add;"></path><path fill="#f3582c" d="m0 0" transform="translate(616.7802 330.5008)"></path></g></g></svg>