<svg xmlns="http://www.w3.org/2000/svg" viewBox="0 0 500 500" overflow="hidden" preserveAspectRatio="xMidYMid meet" id="eaf-81b3-0"><defs><clipPath id="eaf-81b3-1"><rect x="0" y="0" width="500" height="500"></rect></clipPath><style>#eaf-81b3-0 * {animation: 11000ms linear infinite normal both running;offset-rotate:0deg}@keyframes eaf-81b3-2{0%{fill:#fff}30.61%{fill:#fff;animation-timing-function:ease-in-out}31.22%{fill:#27f45e;animation-timing-function:ease-in-out}44.25%{fill:#27f55e;animation-timing-function:ease-in-out}44.85%,100%{fill:#fff}}@keyframes eaf-81b3-3{0%,100%{filter:none}}@keyframes eaf-81b3-4{0%{filter:drop-shadow(0 0 0 #50ff47)}30.61%{filter:drop-shadow(0 0 0 #50ff47)}31.21%{filter:drop-shadow(0 0 35px #50ff47)}44.24%{filter:drop-shadow(0 0 35px #50ff47)}44.85%,100%{filter:drop-shadow(0 0 0 #50ff47)}}@keyframes eaf-81b3-5{0%{fill:#f4b526}6.66%{fill:#f4b526;animation-timing-function:ease-in-out}7.27%{fill:#27f55e;animation-timing-function:ease-in-out}20.3%{fill:#27f55e;animation-timing-function:ease-in-out}20.91%,100%{fill:#f4b526}}@keyframes eaf-81b3-6{0%{filter:drop-shadow(0 0 0 #51ff47)}6.66%{filter:drop-shadow(0 0 0 #51ff47)}7.27%{filter:drop-shadow(0 0 35px #51ff47)}20.3%{filter:drop-shadow(0 0 35px #51ff47)}20.91%,100%{filter:drop-shadow(0 0 0 #51ff47)}}@keyframes eaf-81b3-7{0%{fill:#fefadf}78.18%{fill:#fefadf;animation-timing-function:ease-in-out}79.7%{fill:#27f55e}83.94%{fill:#27f55e;animation-timing-function:ease-in-out}87.27%,100%{fill:#fefadf}}@keyframes eaf-81b3-8{0%{filter:drop-shadow(0 0 0 #50ff47)}78.48%{filter:drop-shadow(0 0 0 #50ff47)}79.09%{filter:drop-shadow(0 0 35px #50ff47)}83.64%{filter:drop-shadow(0 0 35px #50ff47)}84.25%,100%{filter:drop-shadow(0 0 0 #50ff47)}}@keyframes eaf-81b3-9{0%{fill:#fff}56.06%{fill:#fff;animation-timing-function:ease-in-out}56.67%{fill:#27f45e;animation-timing-function:ease-in-out}69.7%{fill:#27f55e;animation-timing-function:ease-in-out}70.31%,100%{fill:#fff}}@keyframes eaf-81b3-10{0%{filter:drop-shadow(0 0 0 #50ff47)}56.05%{filter:drop-shadow(0 0 0 #50ff47)}56.66%{filter:drop-shadow(0 0 35px #50ff47)}69.69%{filter:drop-shadow(0 0 35px #50ff47)}70.3%,100%{filter:drop-shadow(0 0 0 #50ff47)}}@keyframes eaf-81b3-11{0%,100%{transform:none;offset-path:path("m248.4 111.6l0 288.6872l0 0l0 -144.7873l-167.9375 0l0 144.5329l0 0l0 -144.5329l338.5376 0l0 144.7873l0 0l0 -144.5185l-168.4802 0l-2.1199 -144.1688")}}@keyframes eaf-81b3-12{0%{offset-distance:0%;animation-timing-function:ease-in-out}6.66%{offset-distance:15.7668%}20.3%{offset-distance:15.7668%;animation-timing-function:ease-in}23.94%{offset-distance:23.6744%}27.57%{offset-distance:32.8464%;animation-timing-function:cubic-bezier(0,0,0.58,1)}30.91%{offset-distance:40.7401%}44.55%{offset-distance:40.7401%;animation-timing-function:ease-in}47.57%{offset-distance:48.6338%}53.64%{offset-distance:67.1232%;animation-timing-function:cubic-bezier(0,0,0.58,1)}56.36%{offset-distance:75.0308%}70%{offset-distance:75.0308%;animation-timing-function:ease-in}73.34%{offset-distance:82.9237%}76.36%{offset-distance:92.1253%;animation-timing-function:cubic-bezier(0,0,0.58,1)}78.79%,100%{offset-distance:100%}}@keyframes eaf-81b3-13{0%,100%{transform:matrix(0.9108,0,0,0.9108,0,0)}}@keyframes eaf-81b3-14{0%,100%{transform:translate(248.4px,111.625px)}}@keyframes eaf-81b3-15{0%{transform:scale(1,1)}85.75%{transform:scale(1,1);animation-timing-function:ease-in-out}98.49%,100%{transform:scale(2.8059,2.8059)}}@keyframes eaf-81b3-16{0%{opacity:0}85.15%{opacity:0;animation-timing-function:ease-in-out}85.75%{opacity:1}88.48%{opacity:1;animation-timing-function:ease-in-out}98.49%,100%{opacity:0}}</style></defs><g clip-path="url('#eaf-81b3-1')" style="isolation: isolate;"><g><g transform="matrix(4 0 0 4 -827.28 -2254.5264)"><path fill="#f3582c" d="m331.8 626.1c0 15.6 0 31.3 0 46.9c0 7.2 -5.4 13.7 -12.5 15.1c-1 0.2 -2.1 0.3 -3.2 0.3c-31.2 0 -62.4 0 -93.6 0c-7.6 0 -14.3 -5.9 -15.3 -13.5c-0.1 -0.7 -0.1 -1.4 -0.1 -2c0 -31.3 0 -62.5 0 -93.8c0 -7.2 5.4 -13.7 12.5 -15.1c1 -0.2 2.1 -0.3 3.2 -0.3c31.2 0 62.4 0 93.6 0c7.2 0 13.7 5.4 15.1 12.5c0.2 1 0.3 2.1 0.3 3.2c0 15.6 0 31.1 0 46.7z"></path></g><path fill="#01507b" d="m488.7 371.8c-0.5 -24.1 -14.7 -42 -33.6 -42.5c-8.7 -0.2 -17.5 -0.4 -26.5 -0.4c0.4 -15 1 -35.7 1 -39.4c0 -31.3 -16.1 -47.4 -47.2 -47.4l-120.9 0l0 0c0 -4.1 0 -17.5 -0.1 -29.4c5.4 0 10.7 0 16.1 0c8.9 0 18 0 27.1 0c11.4 0 22.8 0 34.2 -0.1c30.6 -0.2 50.6 -19.8 51.1 -49.9c0.5 -35.1 0.5 -69.3 0 -101.6c-0.5 -30 -21 -50.2 -51.1 -50.3c-54.1 -0.2 -111.9 -0.2 -176.9 0c-30.9 0 -51.7 21 -51.9 52.2c-0.2 30 -0.2 62 0 97.9c0.1 15.5 5 28.5 14.2 37.6c9.2 9.1 22.2 14 37.7 14.1c20.7 0.1 41.7 0.1 62 0c4.1 0 8.3 0 12.4 0c0.1 12.6 0.2 25.7 0.2 29.4l-12.2 0c-37.8 0 -75.6 -0.1 -113.4 0.1c-22 0.1 -40.1 15.1 -42 35.3c-0.7 7.6 -0.4 34.4 -0.1 51.6c-7.3 -0.1 -14.8 -0.1 -22.2 0.2c-20.6 0.7 -34.7 18.6 -35.2 44.6c-0.3 16.8 -0.3 34.1 0 52.9c0.4 26.4 14.6 44.4 35.2 44.7c11.5 0.2 23.2 0.3 35 0.3c11 0 22.2 -0.1 33.3 -0.3c20.7 -0.3 34.8 -18.3 35.1 -44.6c0.2 -17.5 0.2 -35.2 0 -52.7c-0.3 -26.5 -14 -44.1 -34.8 -44.8c-7.5 -0.3 -15.1 -0.2 -22.4 -0.1c0.2 -13.6 0.2 -36.3 0.3 -41.5c0.3 -14.4 6.1 -20.2 20.6 -20.2c38.1 -0.1 76.3 -0.1 114.4 0c2.8 0 5.6 0.5 8.6 0.7c0 9.7 -0.3 28.5 -0.3 43c-9 0.1 -17.9 0.2 -26.7 0.4c-22.3 0.5 -37.6 22.2 -38.1 54c-0.3 23.4 -0.3 47.1 0 70.4c0.2 14.6 3.6 27.3 9.7 36.7c6.8 10.4 16.9 16.4 28.3 16.9c5.5 0.2 11 0.3 16.5 0.3c4.1 0 8.1 0 12.1 -0.1c4 0 8 -0.1 11.9 -0.1c3.4 0 6.8 0 10.2 0.1c9.5 0.1 19.3 0.2 29.1 -0.1c23.3 -0.7 38.7 -21.9 39.1 -54c0.3 -24.4 0.3 -48.1 0 -70.4c-0.5 -31.6 -15.9 -53.2 -38.3 -53.7c-9.9 -0.2 -19.5 -0.3 -29 -0.4c0 -15.5 0.2 -34.3 0.2 -43.7c43.6 0 85.6 -0.2 127.7 0.1c9.3 0.1 15 6.6 15.3 15.9c0.2 5.3 -0.6 29.1 -1 45.6c-6.2 0.1 -12.5 0.2 -18.9 0.3c-19.5 0.4 -33.6 18.1 -34.3 43.1c-0.5 18.4 -0.5 37.1 0 55.8c0.7 25.6 14.4 42.6 35.1 43.2c4.5 0.1 9 0.2 13.4 0.2c3.4 0 6.9 0 10.2 0c3.4 0 6.8 0 10.1 0l33.5 0c0.9 0 1.7 0 2.5 -0.1l0.2 0c19 -1.4 32.7 -18.9 33.3 -42.4c0.7 -19.1 0.7 -38.3 0.2 -57.4z"></path><g style="filter: drop-shadow(rgb(80, 255, 71) 0px 0px 0px); animation-name: eaf-81b3-3, eaf-81b3-4; animation-composition: replace, add;"><path fill="#fff" d="m114.3 349.1c13.7 0.5 15.4 17.7 15.5 25.1c0.2 17.3 0.2 34.9 0 52.3c-0.1 11.9 -4.3 24.7 -15.5 24.9c-22.8 0.4 -45.5 0.3 -67.6 0c-11.2 -0.2 -15.4 -13 -15.5 -25c-0.3 -18.5 -0.3 -35.6 0 -52.2c0.2 -11.8 4.5 -24.6 15.9 -25c4.2 -0.1 8.5 -0.2 12.7 -0.2c3.5 0 7.1 0 10.5 0.1c7.1 0.1 14.2 0.1 21.3 0c7.5 -0.2 15.2 -0.3 22.7 0z" style="animation-name: eaf-81b3-2;"></path></g><g style="filter: drop-shadow(rgb(81, 255, 71) 0px 0px 0px); animation-name: eaf-81b3-3, eaf-81b3-6; animation-composition: replace, add;"><path fill="#f4b526" d="m289.8 330.2c13.3 0.3 19.5 17.8 19.7 35c0.3 22.1 0.3 45.7 0 69.9c-0.2 16.8 -5.8 34.9 -20.8 35.4c-9.4 0.3 -19.1 0.2 -28.4 0.1c-3.4 0 -6.9 -0.1 -10.3 -0.1l0 0c-4 0 -8.1 0 -12.1 0.1c-9.1 0.1 -18.5 0.2 -27.7 -0.2c-11.8 -0.5 -19.6 -14.2 -19.9 -34.9c-0.3 -23.2 -0.3 -46.7 0 -69.9c0.3 -20.6 8.3 -35.1 19.6 -35.3c13.1 -0.3 26.3 -0.5 39.9 -0.5c12.9 -0.1 26.2 0.1 40 0.4z" style="animation-name: eaf-81b3-5;"></path></g><g style="filter: drop-shadow(rgb(80, 255, 71) 0px 0px 0px); animation-name: eaf-81b3-3, eaf-81b3-8; animation-composition: replace, add;"><path fill="#fefadf" d="m250.3 182.6c-8.8 0 -17.7 0 -26.5 0c-20.3 0 -41.2 0 -61.8 0c-15.1 -0.1 -21.9 -6.8 -22 -21.8c-0.2 -35.8 -0.2 -67.7 0 -97.6c0.1 -10.2 3.9 -22.3 21.9 -22.4c64.9 -0.2 122.7 -0.2 176.7 0c13.7 0 21 7.2 21.2 20.7c0.5 32 0.5 65.9 0 100.7c-0.2 13.8 -6.9 20.2 -21.2 20.3c-20.4 0.1 -41.1 0.1 -61.1 0.1c-9.1 0 -18.1 0 -27.2 0z" style="animation-name: eaf-81b3-7;"></path></g><g style="filter: drop-shadow(rgb(80, 255, 71) 0px 0px 0px); animation-name: eaf-81b3-3, eaf-81b3-10; animation-composition: replace, add;"><path fill="#fff" d="m468.7 428.4c-0.3 12.8 -6.4 22.2 -14.7 22.9c-0.4 0 -0.9 0 -1.3 0l-33.5 0c-3.4 0 -6.9 0 -10.3 0c-7.6 0.1 -15.4 0.1 -23 -0.1c-14 -0.4 -15.5 -18.3 -15.7 -23.7c-0.5 -18.3 -0.5 -36.8 0 -54.8c0.3 -11.6 5 -23.4 14.7 -23.6l34.3 -0.4c12 0 23.7 0.2 35.3 0.5c7.9 0.2 13.9 9.9 14.2 23c0.5 18.9 0.5 37.8 0 56.2z" style="animation-name: eaf-81b3-9;"></path></g><ellipse fill="#d93600" rx="61.4" ry="61.3" transform="matrix(0.9108 0 0 0.9108 248.4 111.6)" style="animation-name: eaf-81b3-11, eaf-81b3-12, eaf-81b3-13; animation-composition: replace, add, add;"></ellipse><ellipse fill="none" stroke="#d93600" stroke-width="14" rx="41.8" ry="41.8" transform="translate(248.4 111.625)" opacity="0" style="animation-name: eaf-81b3-14, eaf-81b3-15, eaf-81b3-16; animation-composition: replace, add, replace;"></ellipse></g></g></svg>