<svg xmlns="http://www.w3.org/2000/svg" viewBox="0 0 500 500" overflow="hidden" preserveAspectRatio="xMidYMid meet" id="eaf-e8e2-0"><defs><clipPath id="eaf-e8e2-1"><rect x="0" y="0" width="500" height="500"></rect></clipPath><style>#eaf-e8e2-0 * {animation: 7000ms linear infinite normal both running;offset-rotate:0deg}@keyframes eaf-e8e2-2{0%,100%{transform:translate(405.5851px,350.9px)}}@keyframes eaf-e8e2-3{0%{animation-timing-function:step-start}0.96%{transform:scale(0,0);animation-timing-function:ease-in-out}8.1%{transform:scale(1,1);animation-timing-function:ease-in-out}15.24%{transform:scale(0,0);animation-timing-function:ease-in-out}22.39%{transform:scale(1,1);animation-timing-function:ease-in-out}29.51%{transform:scale(0,0)}29.53%{transform:scale(0,0);animation-timing-function:ease-in-out}36.67%{transform:scale(1,1);animation-timing-function:ease-in-out}43.81%{transform:scale(0,0);animation-timing-function:ease-in-out}60.96%,100%{transform:scale(1.5,1.5)}}@keyframes eaf-e8e2-4{0%,100%{transform:translate(-413.5851px,-350.9px)}}@keyframes eaf-e8e2-5{0%,0.96%{opacity:1}8.1%{opacity:1;animation-timing-function:ease-in-out}15.24%{opacity:0;animation-timing-function:ease-in-out}22.39%{opacity:1;animation-timing-function:ease-in-out}29.53%{opacity:0;animation-timing-function:ease-in-out}36.67%{opacity:1;animation-timing-function:ease-in-out}43.81%{opacity:0;animation-timing-function:ease-in-out}50%{opacity:1;animation-timing-function:ease-in-out}60.94%,100%{opacity:0}}@keyframes eaf-e8e2-6{0%,100%{transform:translate(90.8168px,133.8px)}}@keyframes eaf-e8e2-7{0%,100%{transform:translate(-87.2516px,-133.8px)}}@keyframes eaf-e8e2-8{0%,100%{transform:translate(91.3149px,350.9px)}}@keyframes eaf-e8e2-9{0%{transform:scale(0,0);animation-timing-function:ease-in-out}7.14%{transform:scale(1,1);animation-timing-function:ease-in-out}14.29%{transform:scale(0,0);animation-timing-function:ease-in-out}21.43%{transform:scale(1,1);animation-timing-function:ease-in-out}28.56%{transform:scale(0,0)}28.57%{transform:scale(0,0);animation-timing-function:ease-in-out}35.71%{transform:scale(1,1);animation-timing-function:ease-in-out}42.86%{transform:scale(0,0);animation-timing-function:ease-in-out}60%,100%{transform:scale(1.5,1.5)}}@keyframes eaf-e8e2-10{0%,100%{transform:translate(-87.3149px,-350.9px)}}@keyframes eaf-e8e2-11{0%{opacity:1}7.14%{opacity:1;animation-timing-function:ease-in-out}14.29%{opacity:0;animation-timing-function:ease-in-out}21.43%{opacity:1;animation-timing-function:ease-in-out}28.57%{opacity:0;animation-timing-function:ease-in-out}35.71%{opacity:1;animation-timing-function:ease-in-out}42.86%{opacity:0;animation-timing-function:ease-in-out}49.04%{opacity:1;animation-timing-function:ease-in-out}59.99%,100%{opacity:0}}@keyframes eaf-e8e2-12{0%,100%{transform:translate(405.5851px,133.8px)}}@keyframes eaf-e8e2-13{0%,100%{transform:translate(-413.5851px,-133.8px)}}</style></defs><g clip-path="url('#eaf-e8e2-1')" style="isolation: isolate;"><g><g transform="matrix(4 0 0 4 -827.28 -2254.5264)"><path fill="#f3582c" d="m331.8 626.1c0 15.6 0 31.3 0 46.9c0 7.2 -5.4 13.7 -12.5 15.1c-1 0.2 -2.1 0.3 -3.2 0.3c-31.2 0 -62.4 0 -93.6 0c-7.6 0 -14.3 -5.9 -15.3 -13.5c-0.1 -0.7 -0.1 -1.4 -0.1 -2c0 -31.3 0 -62.5 0 -93.8c0 -7.2 5.4 -13.7 12.5 -15.1c1 -0.2 2.1 -0.3 3.2 -0.3c31.2 0 62.4 0 93.6 0c7.2 0 13.7 5.4 15.1 12.5c0.2 1 0.3 2.1 0.3 3.2c0 15.6 0 31.1 0 46.7z"></path></g><g><path fill="#000000" d="m359.1 46.2c1.8 1.4 4.1 1.2 6.1 1.9c12.9 4.7 21.6 16.5 22.2 30.7c0.3 7.1 0.2 14.2 0.1 21.3c-0.1 4.3 -1.7 6 -6.1 6.6c-4 -0.1 -5.7 -2.3 -5.7 -6.1c-0.1 -6.1 0 -12.2 0 -18.2c0 -15.6 -8.7 -24.4 -24.2 -24.4c-65.8 0 -131.6 0 -197.4 0c-1.7 0 -3.4 0.2 -5.1 0.2c-0.7 0 -1.3 -0.2 -2 0c-11.8 2.2 -18.6 10.8 -18.6 23.4c0 111.7 0 223.5 0 335.2c0 0.8 0 1.6 0 2.4c0.6 11.8 9.4 20.7 20.6 21c11.4 0.1 22.7 0.2 34.1 0.2c56.6 0 113.1 0 169.7 0c10.7 0 18.8 -5.6 21.8 -15.1c1 -3.2 1.1 -6.5 1.1 -9.8c0 -96.1 0 -192.2 0 -288.3c0 -6.2 0.8 -7.3 5.9 -8.6c4.8 1.2 6 2.8 6 8.2c0 28.4 0 56.9 0 85.3c0 68.2 0 136.5 0 204.7c0 18.7 -11.1 32.2 -28.9 35.1c-2.2 0.4 -4.5 0.4 -6.7 0.4c-66.7 0 -133.3 0 -200 0c-21.3 0 -35.5 -14.2 -35.5 -35.6c0 -111.5 0 -223 0 -334.5c0 -18.2 8.2 -29.5 25.3 -35.3c0.6 -0.2 1.3 -0.1 1.5 -1c71.9 0.3 143.9 0.3 215.8 0.3z"></path><path fill="#fce8bc" d="m148.9 58.3c1.7 -0.1 3.4 -0.2 5.1 -0.2c65.8 0 131.6 0 197.4 0c15.5 0 24.2 8.7 24.2 24.4c0 6.1 0 12.2 0 18.2c0 3.7 1.8 6 5.7 6.1c0 4 0.1 8.1 0.1 12.1c-5.1 1.3 -5.9 2.5 -5.9 8.6c0 96.1 0 192.2 0 288.3c0 3.3 -0.1 6.6 -1.1 9.8c-3 9.4 -11.1 15.1 -21.8 15.1c-56.6 0 -113.1 0 -169.7 0c-11.4 0 -22.7 -0.2 -34.1 -0.2c-0.2 -1.6 -1.8 -2.2 -2.4 -3.4c-1.3 -2.4 -4.3 -4.1 -3.1 -7.5c0.9 0.5 1.8 1.1 2.7 1.6c7.9 4.1 17.4 2.1 22.7 -4.9c5.4 -7.2 5 -16.7 -1.2 -23.2c-5.9 -6.3 -17.5 -8.9 -26.7 0.4c-1.4 -1.1 -0.8 -2.7 -0.8 -4.1c0 -99.9 0 -199.9 0 -299.8c0 -1.4 -0.6 -2.9 0.8 -4.1c0.6 0.5 1.2 1.1 1.8 1.6c6.1 5.3 14.5 6.1 21.3 1.8c6.8 -4.2 9.9 -12.1 7.9 -19.9c-2.7 -10.8 -16.4 -18.3 -28.5 -9.6c-1.7 -1.5 0 -2.7 0.6 -3.7c1.4999 -2.6 3.2999 -5 4.9999 -7.4zm13.6 310.8c-1.5 2.5 -1.1 4.9 0.2 7.5c18.9 38.9 64.3 61.6 106.9 53.5c54.7 -10.4 89.9 -60.6 80.9 -115.5c-9 -55.7 -65.2 -93.4 -120.1 -80.6c-52.8 12.3 -85.5 61.1 -77 114.8c0.4 2.8 1.3 5.1 3.4 6.9c1.2 4.7 4.6 8.6 5.7 13.4zm18.1 -229c0 39.5 32.2 71.8 71.5 71.7c39.1 -0.1 71.3 -32.2 71.3 -71.2c0.1 -39.8 -31.7 -71.7 -71.4 -71.7c-39.4 0 -71.4 31.8 -71.4 71.2zm182.5 77.6c0 -15.3 -12.4 -27.8 -27.6 -27.8c-15.1 0 -27.8 12.7 -27.8 27.8c0.1 15 12.6 27.5 27.5 27.6c15.3 0.1 27.9 -12.4 27.9 -27.6zm4.2 197.8c0.1 -9.9 -7.6 -18.1 -17.5 -18.4c-9.8 -0.3 -18.4 8.1 -18.4 17.9c0 9.8 8 17.9 17.8 18.2c9.7 0.3 18 -7.9 18.1 -17.7zm0 -332c0 -9.9 -8 -18 -17.8 -18c-9.7 0 -18 8.1 -18.1 17.9c-0.1 9.9 8.2 18.3 18.1 18.2c9.8 -0.1 17.8 -8.3 17.8 -18.1z"></path><path fill="#d9c19d" d="m143.4 429.4c-1.2 3.4 1.8 5.1 3.1 7.5c0.6 1.2 2.2 1.8 2.4 3.4c-11.2 -0.3 -20 -9.2 -20.6 -21c0 -0.8 0 -1.6 0 -2.4c0 -111.7 0 -223.5 0 -335.2c0 -12.6 6.9 -21.3 18.6 -23.4c0.6 -0.1 1.3 0 2 0c-1.7 2.4 -3.5 4.8 -4.9 7.3c-0.6 1 -2.3 2.2 -0.6 3.7c-8.8 7.8 -8.3 18.7 -2.5 26.1c-1.4 1.1 -0.8 2.7 -0.8 4.1c0 99.9 0 199.9 0 299.8c0 1.4 -0.6 2.9 0.8 4.1c-5.9 7.4 -6.2 18.3 2.5 26z"></path><path fill="#bcbcbc" d="m162.5 369.1c-1.1 -4.8 -4.5 -8.7 -5.6 -13.5c7.3 0.7 9.6 -1.9 8.3 -9.2c-2.2 -12.1 -1.7 -24.1 1.4 -36c12 -3.3 23.3 -0.9 34.6 3.5c6.2 2.4 11.5 6.4 17.7 8.6c-0.3 2.6 -0.9 5.2 -0.9 7.8c-0.5 20.8 17.4 39.6 42.8 34.2c2.8 5.5 5.8 10.9 8.2 16.6c4.9 11.5 8 23.3 3.7 35.8c-13.8 3.8 -27.6 3.6 -41.3 0.2c-26.2 -6.5 -45.4 -22.1 -58 -45.9c-2.9 -5.2 -6.4 -5.8 -10.9 -2.1z"></path><path fill="#000000" d="m162.5 369.1c4.5 -3.7 8 -3.1 10.8 2.1c12.6 23.8 31.9 39.4 58 45.9c13.7 3.4 27.6 3.7 41.3 -0.2c0.5 0 1.1 0 1.6 -0.1c32.9 -9.8 54.2 -30.9 63.2 -64.3c1.8 -5.4 2.4 -11.1 2.6 -16.7c0.8 -29.1 -9.6 -53.6 -32.1 -72.1c-22.7 -18.6 -48.7 -24.1 -77.3 -17.4c-33.4 9.3 -54.7 30.7 -63.9 64.2c-3.2 11.9 -3.6 23.9 -1.4 36c1.3 7.2 -1 9.9 -8.3 9.2c-2.1 -1.8 -3 -4.1 -3.4 -6.9c-8.6 -53.6 24.2 -102.5 77 -114.8c54.8 -12.8 111 25 120.1 80.6c8.9 54.9 -26.2 105.1 -80.9 115.5c-42.5 8.1 -87.9 -14.6 -106.9 -53.5c-1.5 -2.6 -2 -5 -0.4 -7.5z"></path><path fill="#000000" d="m180.6 140.1c0 -39.4 32 -71.2 71.5 -71.2c39.7 0 71.4 32 71.4 71.7c-0.1 39 -32.2 71.1 -71.3 71.2c-39.4 0.1 -71.7 -32.2 -71.6 -71.7zm12.7 -9c-6.6 37.7 26.3 74.2 67.4 67.9c25.3 -3.2 47.3 -25 49.9 -49.6c0.3 -2.2 0.8 -4.4 0.8 -6.6c0.4 -20.6 -7.4 -37.6 -23.8 -50.1c-13.3 -10.1 -28.5 -13.7 -45.1 -10.9c-23.2 1.7 -46.6 25.2 -49.2 49.3z"></path><path fill="#000000" d="m363.1 217.7c0 15.2 -12.6 27.7 -27.9 27.6c-15 -0.1 -27.5 -12.7 -27.5 -27.6c-0.1 -15.1 12.6 -27.8 27.8 -27.8c15.2 0 27.6 12.5 27.6 27.8zm-11.9 -0.2c0 -8.6 -6.9 -15.6 -15.6 -15.7c-8.5 -0.1 -16.1 7.4 -16 15.9c0.1 8.5 7.6 15.9 16.1 15.8c8.6 -0.2 15.5 -7.3 15.5 -16z"></path><path fill="#000000" d="m367.3 415.5c-0.1 9.8 -8.4 18 -18.1 17.8c-9.8 -0.2 -17.8 -8.4 -17.8 -18.2c0 -9.9 8.6 -18.2 18.4 -17.9c9.8 0.2 17.6 8.4 17.5 18.3zm-17.9 -6.3c-3.2 0 -6.1 3 -6 6.2c0.1 3.2 3 6 6.3 5.8c3.2 -0.1 5.6 -2.7 5.7 -5.9c-0.1 -3.4 -2.7 -6.2 -6 -6.1z"></path><path fill="#000000" d="m140.9 95.3c-5.9 -7.3 -6.3 -18.3 2.5 -26.1c12.2 -8.6 25.8 -1.2 28.5 9.6c1.9 7.8 -1.1 15.6 -7.9 19.9c-6.8 4.2 -15.2 3.5 -21.3 -1.8c-0.6 -0.5 -1.2 -1 -1.8 -1.6zm13.6 -5.8c3.2 0 6.1 -2.8 6.1 -6c0 -3.2 -2.9 -6 -6.1 -6c-3.2 0.1 -5.7 2.6 -5.8 5.8c-0.1 3.4 2.5 6.1 5.8 6.2z"></path><path fill="#000000" d="m143.4 429.4c-8.7 -7.7 -8.4 -18.6 -2.5 -26.1c9.3 -9.4 20.8 -6.8 26.7 -0.4c6.1 6.5 6.6 16 1.2 23.2c-5.3 7 -14.8 9.1 -22.7 4.9c-0.9 -0.5 -1.8 -1.1 -2.7 -1.6zm11.1 -8.2c3.2 0 6.1 -2.8 6.1 -6c0 -3.2 -2.9 -6.1 -6.1 -6c-3.2 0.1 -5.7 2.6 -5.8 5.8c-0.1 3.4 2.4 6.1 5.8 6.2z"></path><path fill="#000000" d="m367.3 83.5c0 9.9 -8 18.1 -17.7 18.1c-9.9 0 -18.2 -8.3 -18.1 -18.2c0.1 -9.8 8.3 -17.9 18.1 -17.9c9.7 0 17.7 8.1 17.7 18zm-18 -6c-3.2 0.1 -6 3 -5.9 6.2c0.1 3.2 3.1 6 6.3 5.8c3.2 -0.2 5.6 -2.7 5.6 -6c0 -3.4 -2.6 -6.1 -6 -6z"></path><path fill="#a5a5a5" d="m337.4 352.5c-8.9 33.4 -30.3 54.5 -63.2 64.3c-0.5 0.1 -1 0.1 -1.6 0.1c4.3 -12.5 1.2 -24.3 -3.7 -35.8c-2.4 -5.7 -5.5 -11.1 -8.2 -16.6c12.1 -3.8 20.2 -11.6 24 -23.9c5.3 1.4 9.6 4.7 14.5 6.9c12.3 5.6 24.7 8.9 38.2 5z"></path><path fill="#a5a5a5" d="m166.6 310.4c9.2 -33.5 30.5 -54.8 63.9 -64.2c0 0.5 0.1 1.1 0 1.6c-3.1 10.6 -0.5 20.6 3 30.6c2.5 7.1 6.5 13.4 9.8 20.1c-2.5 1.1 -5.2 2 -7.6 3.3c-8.5 4.5 -13.5 11.9 -16.8 20.7c-6.2 -2.2 -11.5 -6.2 -17.7 -8.6c-11.3 -4.4 -22.6 -6.8 -34.6 -3.5z"></path><path fill="#000000" d="m218.9 322.5c3.3 -8.7 8.3 -16.2 16.8 -20.7c2.4 -1.3 5.1 -2.2 7.6 -3.3c4.9 -0.9 10 -1.4 14.9 -0.4c20.1 4.2 31.4 22.3 26.6 42.5c-3.8 12.2 -11.9 20 -24 23.9c-25.4 5.4 -43.3 -13.4 -42.8 -34.2c0 -2.6 0.6 -5.2 0.9 -7.8zm32.9 30.9c12.1 0.2 22 -9.4 22.3 -21.5c0.2 -11.7 -9.5 -22 -20.8 -22.2c-13 -0.2 -23.2 9.3 -23.3 21.7c-0.1 12 9.6 21.8 21.8 22z"></path><path fill="#bcbcbc" d="m284.7 340.7c4.8 -20.2 -6.5 -38.3 -26.6 -42.5c-4.9 -1 -10 -0.5 -14.9 0.4c-3.3 -6.7 -7.3 -13 -9.8 -20.1c-3.5 -10 -6 -20 -3 -30.6c0.1 -0.5 0 -1 0 -1.6c28.6 -6.6 54.6 -1.2 77.3 17.4c22.6 18.5 32.9 43 32.1 72.1c-0.2 5.6 -0.8 11.3 -2.6 16.7c-13.4 3.9 -25.9 0.6 -38.2 -4.9c-4.7 -2.2 -9 -5.5 -14.3 -6.9z"></path><path fill="#bcbcbc" d="m242.5 81.7c16.6 -2.8 31.8 0.8 45.1 10.9c16.4 12.5 24.2 29.4 23.8 50.1c0 2.2 -0.5 4.4 -0.8 6.6c-11.1 1 -20.4 -3.8 -29.5 -9.3c-2.6 -1.6 -4.7 -4.3 -7.9 -5c-2.5 -8 -7.7 -13.4 -15.8 -15.9c-2.1 -3.3 -4.2 -6.5 -6.3 -9.8c-5.2 -8.4 -8.9 -17.4 -8.6 -27.6z"></path><path fill="#bcbcbc" d="m260.8 198.9c-41.2 6.3 -74.1 -30.2 -67.4 -67.9c9.3 -0.6 17.4 2.6 25.3 7.1c4.1 2.3 7.5 5.7 12 7.3c2.5 8.1 7.7 13.4 15.8 16c0 1.6 1.2 2.7 2 3.7c3.6 4.4 6.4 9.3 8.7 14.5c2.7 6.1 4.9 12.4 3.6 19.3z"></path><path fill="#a5a5a5" d="m260.8 198.9c1.3 -6.9 -0.9 -13.2 -3.6 -19.3c-2.3 -5.2 -5 -10.1 -8.7 -14.5c-0.9 -1.1 -2 -2.1 -2 -3.7c5 1.2 9.9 0.8 14.6 -1.4c9.4 -4.5 13.1 -12 12.2 -24.9c3.2 0.7 5.2 3.4 7.9 5c9 5.6 18.3 10.3 29.5 9.3c-2.6 24.5 -24.6 46.3 -49.9 49.5z"></path><path fill="#a5a5a5" d="m230.7 145.4c-4.5 -1.6 -7.9 -5 -12 -7.3c-7.9 -4.4 -16 -7.7 -25.3 -7.1c2.6 -24.1 25.9 -47.5 49.2 -49.3c-0.4 10.2 3.4 19.1 8.7 27.6c2.1 3.3 4.2 6.5 6.3 9.8c-4.9 -1.1 -9.6 -0.8 -14.2 1.2c-9.7 4.4 -13.6 12.1 -12.7 25.1z"></path><path fill="#fff" d="m351.2 217.5c0 8.7 -6.9 15.8 -15.4 15.9c-8.6 0.1 -16.1 -7.2 -16.1 -15.8c-0.1 -8.4 7.5 -16 16 -15.9c8.5 0.2 15.5 7.2 15.5 15.8z"></path><path fill="#fdfdfd" d="m349.4 409.2c3.3 0 6 2.7 6 6.1c0 3.2 -2.5 5.8 -5.7 5.9c-3.2 0.1 -6.2 -2.6 -6.3 -5.8c-0.1 -3.3 2.7 -6.2 6 -6.2z"></path><path fill="#fdfdfd" d="m154.5 89.5c-3.3 0 -5.9 -2.8 -5.8 -6.2c0.1 -3.2 2.6 -5.8 5.8 -5.8c3.3 -0.1 6.1 2.7 6.1 6c0 3.2 -2.9 6 -6.1 6z"></path><path fill="#fdfdfd" d="m154.5 421.2c-3.4 -0.1 -5.9 -2.8 -5.8 -6.2c0.1 -3.2 2.6 -5.8 5.8 -5.8c3.2 -0.1 6.1 2.8 6.1 6c0 3.2 -2.9 6 -6.1 6z"></path><path fill="#fdfdfd" d="m349.3 77.5c3.3 -0.1 6 2.6 6 6c0 3.2 -2.4 5.8 -5.6 6c-3.2 0.2 -6.2 -2.6 -6.3 -5.8c-0.1 -3.2 2.7 -6.2 5.9 -6.2z"></path><path fill="#fdfdfd" d="m251.8 353.4c-12.2 -0.2 -21.9 -10 -21.8 -22c0.1 -12.5 10.3 -22 23.3 -21.7c11.3 0.2 21 10.6 20.8 22.2c-0.3 12.1 -10.2 21.7 -22.3 21.5z"></path><path fill="#000000" d="m230.7 145.4c-0.9 -13 3 -20.7 12.6 -25.1c4.6 -2.1 9.4 -2.4 14.2 -1.2c8 2.5 13.3 7.9 15.8 15.9c0.9 12.9 -2.8 20.4 -12.2 24.9c-4.7 2.2 -9.6 2.6 -14.6 1.4c-8.1 -2.5 -13.4 -7.8 -15.8 -15.9zm11.7 -5.2c0 5.4 4.4 9.9 9.8 9.8c5.1 -0.1 9.4 -4.5 9.4 -9.7c0 -5.3 -4.2 -9.7 -9.4 -9.8c-5.3 -0.1 -9.8 4.3 -9.8 9.7z"></path><path fill="#fdfdfd" d="m242.4 140.2c0 -5.4 4.5 -9.9 9.9 -9.8c5.2 0.1 9.4 4.5 9.4 9.8c0 5.3 -4.3 9.7 -9.4 9.7c-5.5 0.2 -9.9 -4.3 -9.9 -9.7z"></path></g><g transform="matrix(0 0 0 0 405.5851 350.9)" style="animation-name: eaf-e8e2-2, eaf-e8e2-3, eaf-e8e2-4, eaf-e8e2-5; animation-composition: replace, add, add, replace;"><path fill="#ffffff" d="m439.8 362.9c-2.7 0 -5.3 0 -8 -0.1c-7.7 -0.1 -12.8 -5 -12.9 -12.1c0 -7.2 5.2 -12.3 12.8 -12.4c6.8 -0.1 13.6 -0.1 20.3 -0.1c6.9 0 13.7 0 20.4 0.1c3.7 0 7.1 1.4 9.4 3.8c2.2 2.3 3.4 5.4 3.3 8.8c-0.2 7 -5.4 11.8 -13.1 11.9c-2.7 0 -5.5 0.1 -8.2 0.1c-2 0 -4.1 0 -6.1 0c-2 0 -4.1 0 -6.1 0c-2 0 -3.9 0 -5.9 0c-1.8999 0 -3.8999 0 -5.8999 0z"></path><path fill="#ffffff" d="m425.7 322.3c-3.2 0 -6.3 -1.3 -8.6 -3.7c-4.8 -5 -4.7 -12.1 0.4 -17.3c5.8 -6 11.8 -12 17.5 -17.8c3.1 -3.2 6.2 -6.3 9.4 -9.5c2.6 -2.6 5.7 -4 9 -4c1.6 0 3.2 0.3 4.8 0.9c4.2 1.6 7 5.3 7.6 9.9l0 0.3l0 0.3c0 3.8 -1.3 7.1 -4.2 10c-2.2 2.3 -4.5 4.5 -6.7 6.8c-6.5 6.6 -13.2 13.4 -19.9 20.1c-2.7 2.6 -6 4 -9.3 4z"></path><path fill="#ffffff" d="m453.2 431.5c-2.2 0 -5.5 -0.7 -8.7 -3.9c-5 -5 -10.1 -10.1 -15.1 -15.2l-5.4 -5.4c-0.7 -0.7 -1.3 -1.3 -2 -2c-1.6 -1.6 -3.3 -3.3 -5 -5.1c-4.7 -5.3 -4.6 -12.6 0.3 -17.3c2.4 -2.3 5.3 -3.5 8.4 -3.5c3.2 0 6.3 1.4 9 4c6.3 6.2 12.5 12.5 18.6 18.7c2.8 2.8 5.6 5.7 8.4 8.5c2.3 2.3 3.7 5.3 4 8.5l0 0.5l-0.1 0.5c-0.7 6.3 -4.3 9.3 -7.2 10.6c-1.6 0.7 -3.4 1.1 -5.2 1.1z"></path></g><g transform="matrix(0 0 0 0 90.8168 133.8)" style="animation-name: eaf-e8e2-6, eaf-e8e2-3, eaf-e8e2-7, eaf-e8e2-5; animation-composition: replace, add, add, replace;"><path fill="#ffffff" d="m61.1 145.8c2.7 0 5.3 0 8 -0.1c7.7 -0.1 12.8 -5 12.9 -12.1c0 -7.2 -5.2 -12.3 -12.8 -12.4c-6.8 -0.1 -13.6 -0.1 -20.3 -0.1c-6.9 0 -13.7 0 -20.4 0.1c-3.7 0 -7.1 1.4 -9.4 3.8c-2.2 2.3 -3.4 5.4 -3.3 8.8c0.2 7 5.4 11.8 13.1 11.9c2.7 0 5.5 0.1 8.2 0.1c2 0 4.1 0 6.1 0c2 0 4.1 0 6.1 0c2 0 3.9 0 5.9 0c1.9 0 3.9 0 5.9 0z"></path><path fill="#ffffff" d="m75.2 105.2c3.2 0 6.3 -1.3 8.6 -3.7c4.8 -5 4.7 -12.1 -0.4 -17.3c-5.8 -6 -11.8 -12 -17.5 -17.8c-3.1 -3.2 -6.2 -6.3 -9.4 -9.5c-2.6 -2.6 -5.7 -4 -9 -4c-1.6 0 -3.2 0.3 -4.8 0.9c-4.2 1.6 -7 5.3 -7.6 9.9l0 0.3l0 0.3c0 3.8 1.3 7.1 4.2 10c2.2 2.3 4.5 4.5 6.7 6.8c6.5 6.6 13.2 13.4 19.9 20.1c2.6 2.5 5.9 4 9.3 4z"></path><path fill="#ffffff" d="m47.6 214.4c2.2 0 5.5 -0.7 8.7 -3.9c5 -5 10.1 -10.1 15.1 -15.2l5.4 -5.5c0.7 -0.7 1.3 -1.3 2 -2c1.6 -1.6 3.3 -3.3 5 -5.1c4.7 -5.3 4.6 -12.6 -0.3 -17.3c-2.4 -2.3 -5.3 -3.5 -8.4 -3.5c-3.2 0 -6.3 1.4 -9 4c-6.3 6.2 -12.5 12.5 -18.6 18.7c-2.8 2.8 -5.6 5.7 -8.4 8.5c-2.3 2.3 -3.7 5.3 -4 8.5l0 0.5l0.1 0.5c0.7 6.3 4.3 9.3 7.2 10.6c1.7 0.8 3.4 1.2 5.2 1.2z"></path></g><g transform="matrix(0 0 0 0 91.3149 350.9)" style="animation-name: eaf-e8e2-8, eaf-e8e2-9, eaf-e8e2-10, eaf-e8e2-11; animation-composition: replace, add, add, replace;"><path fill="#ffffff" d="m61.1 362.9c2.7 0 5.3 0 8 -0.1c7.7 -0.1 12.8 -5 12.9 -12.1c0 -7.2 -5.2 -12.3 -12.8 -12.4c-6.8 -0.1 -13.6 -0.1 -20.3 -0.1c-6.9 0 -13.7 0 -20.4 0.1c-3.7 0 -7.1 1.4 -9.4 3.8c-2.2 2.3 -3.4 5.4 -3.3 8.8c0.2 7 5.4 11.8 13.1 11.9c2.7 0 5.5 0.1 8.2 0.1c2 0 4.1 0 6.1 0c2 0 4.1 0 6.1 0c2 0 3.9 0 5.9 0c1.9 0 3.9 0 5.9 0z"></path><path fill="#ffffff" d="m75.2 322.3c3.2 0 6.3 -1.3 8.6 -3.7c4.8 -5 4.7 -12.1 -0.4 -17.3c-5.8 -6 -11.8 -12 -17.5 -17.8c-3.1 -3.2 -6.2 -6.3 -9.4 -9.5c-2.6 -2.6 -5.7 -4 -9 -4c-1.6 0 -3.2 0.3 -4.8 0.9c-4.2 1.6 -7 5.3 -7.6 9.9l0 0.3l0 0.3c0 3.8 1.3 7.1 4.2 10c2.2 2.3 4.5 4.5 6.7 6.8c6.5 6.6 13.2 13.4 19.9 20.1c2.6 2.6 5.9 4 9.3 4z"></path><path fill="#ffffff" d="m47.6 431.5c2.2 0 5.5 -0.7 8.7 -3.9c5 -5 10.1 -10.1 15.1 -15.2l5.4 -5.5c0.7 -0.7 1.3 -1.3 2 -2c1.6 -1.6 3.3 -3.3 5 -5.1c4.7 -5.3 4.6 -12.6 -0.3 -17.3c-2.4 -2.3 -5.3 -3.5 -8.4 -3.5c-3.2 0 -6.3 1.4 -9 4c-6.3 6.2 -12.5 12.5 -18.6 18.7c-2.8 2.8 -5.6 5.7 -8.4 8.5c-2.3 2.3 -3.7 5.3 -4 8.5l0 0.5l0.1 0.5c0.7 6.3 4.3 9.3 7.2 10.6c1.7 0.8 3.4 1.2 5.2 1.2z"></path></g><g transform="matrix(0 0 0 0 405.5851 133.8)" style="animation-name: eaf-e8e2-12, eaf-e8e2-9, eaf-e8e2-13, eaf-e8e2-11; animation-composition: replace, add, add, replace;"><path fill="#ffffff" d="m439.8 145.8c-2.7 0 -5.3 0 -8 -0.1c-7.7 -0.1 -12.8 -5 -12.9 -12.1c0 -7.2 5.2 -12.3 12.8 -12.4c6.8 -0.1 13.6 -0.1 20.3 -0.1c6.9 0 13.7 0 20.4 0.1c3.7 0 7.1 1.4 9.4 3.8c2.2 2.3 3.4 5.4 3.3 8.8c-0.2 7 -5.4 11.8 -13.1 11.9c-2.7 0 -5.5 0.1 -8.2 0.1c-2 0 -4.1 0 -6.1 0c-2 0 -4.1 0 -6.1 0c-2 0 -3.9 0 -5.9 0c-1.8999 0 -3.8999 0 -5.8999 0z"></path><path fill="#ffffff" d="m425.7 105.2c-3.2 0 -6.3 -1.3 -8.6 -3.7c-4.8 -5 -4.7 -12.1 0.4 -17.3c5.8 -6 11.8 -12 17.5 -17.8c3.1 -3.2 6.2 -6.3 9.4 -9.5c2.6 -2.6 5.7 -4 9 -4c1.6 0 3.2 0.3 4.8 0.9c4.2 1.6 7 5.3 7.6 9.9l0 0.3l0 0.3c0 3.8 -1.3 7.1 -4.2 10c-2.2 2.3 -4.5 4.5 -6.7 6.8c-6.5 6.6 -13.2 13.4 -19.9 20.1c-2.7 2.5 -6 4 -9.3 4z"></path><path fill="#ffffff" d="m453.2 214.4c-2.2 0 -5.5 -0.7 -8.7 -3.9c-5 -5 -10.1 -10.1 -15.1 -15.2l-5.4 -5.5c-0.7 -0.7 -1.3 -1.3 -2 -2c-1.6 -1.6 -3.3 -3.3 -5 -5.1c-4.7 -5.3 -4.6 -12.6 0.3 -17.3c2.4 -2.3 5.3 -3.5 8.4 -3.5c3.2 0 6.3 1.4 9 4c6.3 6.2 12.5 12.5 18.6 18.7c2.8 2.8 5.6 5.7 8.4 8.5c2.3 2.3 3.7 5.3 4 8.5l0 0.5l-0.1 0.5c-0.7 6.3 -4.3 9.3 -7.2 10.6c-1.6 0.8 -3.4 1.2 -5.2 1.2z"></path></g></g></g></svg>

