<svg xmlns="http://www.w3.org/2000/svg" viewBox="0 0 500 500" overflow="hidden" preserveAspectRatio="xMidYMid meet" id="eaf-1284e-0"><defs><clipPath id="eaf-1284e-1"><rect x="0" y="0" width="500" height="500"></rect></clipPath><style>#eaf-1284e-0 * {animation: 3000ms linear infinite normal both running;offset-rotate:0deg}@keyframes eaf-1284e-2{0%,100%{transform:translate(255.8654px,412.25px)}}@keyframes eaf-1284e-3{0%{transform:scale(1,1)}43.33%{transform:scale(1,1)}54.43%,100%{transform:scale(2.27,1)}}@keyframes eaf-1284e-4{0%,100%{transform:translate(-116.7846px,-15.85px)}}@keyframes eaf-1284e-5{0%{opacity:0}26.67%{opacity:0}31.1%{opacity:1}88.9%{opacity:1}96.67%,100%{opacity:0}}@keyframes eaf-1284e-6{0%,100%{transform:none;offset-path:path("m274.4 412.35l0 0l0 0l231.2 0")}}@keyframes eaf-1284e-7{0%{offset-distance:0%}32.23%{offset-distance:0%;animation-timing-function:ease-in}75.57%,100%{offset-distance:100%}}@keyframes eaf-1284e-8{0%{transform:scale(0,0)}6.67%{transform:scale(0,0);animation-timing-function:linear(0 0%,0.43 8%,0.79 17%,1.06 27%,1.21 37%,1.26 46%,1.25 56%,1.2 65%,1.04 88%,1 100%)}23.33%,100%{transform:scale(1,1)}}@keyframes eaf-1284e-9{0%,100%{transform:translate(-274.4px,-412.35px)}}@keyframes eaf-1284e-10{0%,100%{transform:none;offset-path:path("m224.3 412.35l0 0l-231.3 0")}}@keyframes eaf-1284e-11{0%{transform:scale(0,0);animation-timing-function:linear(0 0%,0.43 8%,0.79 17%,1.06 27%,1.21 37%,1.26 46%,1.25 56%,1.2 65%,1.04 88%,1 100%)}16.67%,100%{transform:scale(1,1)}}@keyframes eaf-1284e-12{0%,100%{transform:translate(-224.3px,-412.35px)}}@keyframes eaf-1284e-13{0%{fill:#c90606;animation-timing-function:step-start}50%{fill:#4bff2a;animation-timing-function:step-start}100%{fill:#c90606}}@keyframes eaf-1284e-14{0%{fill:#4bff2a;animation-timing-function:step-start}50%{fill:#c90606;animation-timing-function:step-start}100%{fill:#4bff2a}}</style></defs><g clip-path="url('#eaf-1284e-1')" style="isolation: isolate;"><g><g transform="matrix(4 0 0 4 -827.28 -2254.5264)"><path fill="#f3582c" d="m331.7 626.3c0 15.6 0 31.3 0 46.9c0 7.2 -5.4 13.7 -12.5 15.1c-1 0.2 -2.1 0.3 -3.2 0.3c-31.2 0 -62.4 0 -93.6 0c-7.6 0 -14.3 -5.9 -15.3 -13.5c-0.1 -0.7 -0.1 -1.4 -0.1 -2c0 -31.3 0 -62.5 0 -93.8c0 -7.2 5.4 -13.7 12.5 -15.1c1 -0.2 2.1 -0.3 3.2 -0.3c31.2 0 62.4 0 93.6 0c7.2 0 13.7 5.4 15.1 12.5c0.2 1 0.3 2.1 0.3 3.2c0 15.6 0 31.1 0 46.7z"></path></g><rect fill="#fefadf" width="81" height="73.2" transform="translate(-207 40.4)"></rect><rect fill="#000000" width="81" height="73.2" transform="translate(-177 83.8)"></rect><rect fill="#c90606" width="81" height="73.2" transform="translate(-177 177.3)"></rect><rect fill="#bcbcbc" width="81" height="73.2" transform="translate(-177 270.9)"></rect><rect fill="#f7e79c" width="81" height="73.2" transform="translate(-177 364.4)"></rect><rect fill="#f7e79c" width="81" height="73.2" transform="translate(-177 364.4)"></rect><rect fill="#f4b526" width="81" height="73.2" transform="translate(-177 457.2)"></rect><rect fill="#c90606" width="233.5692" height="31.7" transform="translate(139.0808 396.4)" opacity="0" style="animation-name: eaf-1284e-2, eaf-1284e-3, eaf-1284e-4, eaf-1284e-5; animation-composition: replace, add, add, replace;"></rect><path fill="#ffffff" stroke="#000000" stroke-width="9.1308" stroke-miterlimit="10" d="m340.2 473.7l129.3 -61.4l-129.3 -61.4l0 32.1l-51 0c-7.4 0 -13.4 6 -13.4 13.4l0 31.7c0 7.4 6 13.4 13.4 13.4l51 0l0 32.2z" transform="matrix(0 0 0 0 274.4 412.35)" style="animation-name: eaf-1284e-6, eaf-1284e-7, eaf-1284e-8, eaf-1284e-9; animation-composition: replace, add, add, add;"></path><path fill="#99d6f7" stroke="#000000" stroke-width="9.1308" stroke-miterlimit="10" d="m160.1 473.7l0 -32.1l50.8 0c7.4 0 13.4 -6 13.4 -13.4l0 -31.7c0 -7.4 -6 -13.4 -13.4 -13.4l-50.8 0l0 -32.1l-129.3 61.3l129.3 61.4z" transform="matrix(0 0 0 0 224.3 412.35)" style="animation-name: eaf-1284e-10, eaf-1284e-7, eaf-1284e-11, eaf-1284e-12; animation-composition: replace, add, add, add;"></path><g><path fill="#000000" d="m415.4 45.5l-330.5 0c-10.9 0 -19.8 8.9 -19.8 19.8l0 92c0 1.1 0.1 2.3 0.3 3.3l369.5 0c0.2 -1.1 0.3 -2.2 0.3 -3.3l0 -92c0 -11 -8.9 -19.8 -19.8 -19.8z"></path><g><g><ellipse fill="#f3582c" rx="9.1" ry="9.1" transform="translate(237.9 124.1)"></ellipse><ellipse fill="#f3582c" rx="9.1" ry="9.1" transform="translate(256.2 87.6)"></ellipse><ellipse fill="#f3582c" rx="9.1" ry="9.1" transform="translate(274.4 124.1)"></ellipse><ellipse fill="#f3582c" rx="9.1" ry="9.1" transform="translate(292.7 87.6)"></ellipse><ellipse fill="#f3582c" rx="9.1" ry="9.1" transform="translate(310.9 124.1)"></ellipse><ellipse fill="#f3582c" rx="9.1" ry="9.1" transform="translate(329.2 87.6)"></ellipse><ellipse fill="#f3582c" rx="9.1" ry="9.1" transform="translate(347.4 124.1)"></ellipse><ellipse fill="#f3582c" rx="9.1" ry="9.1" transform="translate(365.7 87.6)"></ellipse><ellipse fill="#f3582c" rx="9.1" ry="9.1" transform="translate(383.9 124.1)"></ellipse><ellipse fill="#f3582c" rx="9.1" ry="9.1" transform="translate(402.1 87.6)"></ellipse></g><g><ellipse fill="#f3582c" rx="32.9" ry="32.9" transform="matrix(0.7072 -0.707 0.707 0.7072 139.0971 104.6269)"></ellipse><ellipse fill="#c90606" rx="16.4" ry="16.4" transform="translate(139.1 104.6)" style="animation-name: eaf-1284e-13;"></ellipse></g><path fill="#000000" d="m435.2 284.7l0 -92c0 -1.1 -0.1 -2.3 -0.3 -3.3l-369.5 0c-0.2 1.1 -0.3 2.2 -0.3 3.3l0 92c0 10.9 8.9 19.8 19.8 19.8l330.5 0c10.9 0 19.8 -8.9 19.8 -19.8z"></path><ellipse fill="#f3582c" rx="32.9" ry="32.9" transform="matrix(0.707 -0.7072 0.7072 0.707 139.0874 245.32)"></ellipse><g><ellipse fill="#f3582c" rx="9.1" ry="9.1" transform="translate(237.9 225.9)"></ellipse><ellipse fill="#f3582c" rx="9.1" ry="9.1" transform="translate(256.2 262.4)"></ellipse><ellipse fill="#f3582c" rx="9.1" ry="9.1" transform="translate(274.4 225.9)"></ellipse><ellipse fill="#f3582c" rx="9.1" ry="9.1" transform="translate(292.7 262.4)"></ellipse><ellipse fill="#f3582c" rx="9.1" ry="9.1" transform="translate(310.9 225.9)"></ellipse><ellipse fill="#f3582c" rx="9.1" ry="9.1" transform="translate(329.2 262.4)"></ellipse><ellipse fill="#f3582c" rx="9.1" ry="9.1" transform="translate(347.4 225.9)"></ellipse><ellipse fill="#f3582c" rx="9.1" ry="9.1" transform="translate(365.7 262.4)"></ellipse><ellipse fill="#f3582c" rx="9.1" ry="9.1" transform="translate(383.9 225.9)"></ellipse><ellipse fill="#f3582c" rx="9.1" ry="9.1" transform="translate(402.1 262.4)"></ellipse></g><ellipse fill="#4bff2a" rx="16.4" ry="16.4" transform="translate(139.1 245.3)" style="animation-name: eaf-1284e-14;"></ellipse></g></g></g></g></svg>
