<svg id="e11e2mr038c71" xmlns="http://www.w3.org/2000/svg" xmlns:xlink="http://www.w3.org/1999/xlink" viewBox="0 0 700 700" shape-rendering="geometricPrecision" text-rendering="geometricPrecision">
    <style>
        <![CDATA[#e11e2mr038c75_tr {animation: e11e2mr038c75_tr__tr 5000ms linear infinite normal forwards}@keyframes e11e2mr038c75_tr__tr { 0% {transform: translate(199.796341px,487.079681px) rotate(0deg)} 100% {transform: translate(199.796341px,487.079681px) rotate(-360deg)} }]]>
    </style>
    <path
        id="e11e2mr038c72"
        d="M699.990000,350.710000C699.990000,438.380000,699.990000,526.050000,699.990000,613.730000C699.990000,653.910000,669.680000,690.650000,630.100000,698.180000C624.240000,699.290000,618.200000,699.930000,612.250000,699.930000C437.480000,700.020000,262.730000,700,87.970000,700C45.130000,700,7.740000,667.140000,2.120000,624.510000C1.620000,620.750000,1.290000,616.930000,1.290000,613.140000C1.250000,437.940000,1.260000,262.740000,1.260000,87.540000C1.260000,47.350000,31.580000,10.600000,71.150000,3.090000C77,1.980000,83.050000,1.350000,89,1.340000C263.900000,1.250000,438.810000,1.270000,613.710000,1.270000C653.900000,1.270000,690.700000,31.630000,698.160000,71.160000C699.270000,77.020000,699.900000,83.060000,699.910000,89.010000C700.020000,176.250000,699.990000,263.480000,699.990000,350.710000Z"
        fill="#f3582c"
        stroke="none"
        stroke-width="1"
    />
    <path
        id="e11e2mr038c73"
        d="M361.420000,60.260000C364.260000,62.670000,401.770000,99.730000,444.740000,142.810000C487.710000,185.890000,523.240000,220.770000,523.680000,220.330000C524.120000,219.780000,524.660000,212.790000,524.880000,204.690000C525.320000,188.840000,526.300000,185.560000,530.780000,183.920000C532.310000,183.260000,547.510000,182.830000,564.670000,182.830000L595.830000,182.830000L598.450000,185.560000L601.180000,188.180000L601.180000,241.760000C601.180000,276.310000,601.620000,296.430000,602.270000,298.400000C602.930000,300.040000,620.860000,318.960000,642.180000,340.280000C683.840000,382.050000,685.590000,384.230000,682.740000,391.010000C679.680000,398.230000,679.900000,398.230000,642.070000,398.230000C611.240000,398.230000,607.740000,398.450000,605.660000,400.090000L603.360000,402.060000L603.030000,517.080000L602.810000,632.100000L600.510000,634.400000C599.200000,635.710000,596.250000,637.240000,593.950000,637.680000C591.440000,638.340000,489.750000,638.660000,349.690000,638.660000C149.490000,638.550000,109.150000,638.330000,106.300000,637.130000C98.970000,633.960000,99.300000,639.210000,99.300000,513.580000C99.300000,424.360000,98.970000,400.310000,97.880000,399.650000C97.220000,399.210000,80.500000,398.560000,60.810000,398.230000C26.260000,397.680000,24.950000,397.570000,22.760000,395.390000C21.450000,394.080000,20.140000,391.020000,19.810000,388.500000C19.260000,384.780000,19.700000,383.250000,22.110000,379.860000C25.500000,374.940000,343.670000,57.970000,346.300000,56.880000C351.140000,54.900000,356.060000,55.990000,361.420000,60.260000Z"
        transform="matrix(1 0 0 1 -1 -8)"
        fill="#000000"
        stroke="none"
        stroke-width="1"
    />
    <g id="e11e2mr038c74" transform="matrix(3 0 0 3 -249.74699401855469 -1060.96997070312500)">
        <g id="e11e2mr038c75_tr" transform="translate(199.796341,487.079681) rotate(0)">
            <g id="e11e2mr038c75" transform="translate(-0.267578,-5.351563)">
                <g id="e11e2mr038c76" transform="matrix(1 0 0 1 -199.52876281738281 -481.72811889648438)">
                    <path
                        id="e11e2mr038c77"
                        d="M194.410000,430.680000C192.990000,430.900000,191.900000,431.990000,191.900000,432.980000C191.900000,433.960000,191.350000,436.700000,190.700000,438.880000C189.280000,444.350000,185.890000,444.460000,181.730000,439.210000C180.090000,437.130000,177.790000,435.380000,176.810000,435.380000C174.300000,435.380000,164.560000,441.500000,164.560000,443.030000C164.560000,443.690000,165.330000,445.980000,166.200000,448.170000C167.070000,450.250000,167.840000,452.760000,167.840000,453.530000C167.840000,455.940000,163.030000,456.480000,158.550000,454.620000C156.250000,453.640000,154.290000,452.870000,154.070000,452.870000C152.870000,452.870000,147.070000,463.480000,147.070000,465.550000C147.070000,467.080000,148.490000,469.160000,150.900000,471.020000C152.980000,472.550000,154.730000,474.520000,154.730000,475.390000C154.730000,477.470000,150.360000,480.200000,146.860000,480.200000C141.610000,480.200000,139.430000,485.670000,141.170000,494.300000C141.830000,497.360000,142.260000,497.690000,145.870000,497.690000C150.020000,497.690000,154.730000,500.200000,154.730000,502.280000C154.730000,503.050000,152.980000,505.120000,150.900000,507.090000C148.820000,508.950000,147.070000,511.570000,147.070000,512.880000C147.070000,515.940000,149.480000,520.640000,152.320000,523.160000C154.510000,525.130000,154.730000,525.130000,159.320000,522.940000C164.020000,520.750000,164.020000,520.750000,166.210000,522.940000C168.290000,524.910000,168.290000,525.130000,166.430000,530.160000C164.680000,534.970000,164.680000,535.300000,166.430000,537.380000C167.520000,538.470000,170.370000,540.440000,172.770000,541.640000L177.030000,543.940000L181.290000,539.130000C185.340000,534.540000,185.550000,534.430000,188.400000,536.070000C190.700000,537.270000,191.460000,538.580000,191.680000,541.970000C192.120000,547.330000,194.190000,549.080000,200.320000,549.080000C206.110000,549.080000,208.850000,546.570000,209.940000,540.440000C210.920000,534.540000,214.090000,533.330000,217.700000,537.710000C219.120000,539.460000,220.210000,541.210000,220.320000,541.650000C220.320000,543.510000,226.440000,542.420000,230.930000,539.790000C236.180000,536.620000,236.620000,534.870000,233.770000,528.860000C232.020000,525.250000,232.020000,524.920000,233.770000,523.170000C235.520000,521.420000,235.960000,521.420000,240.990000,523.280000C244.050000,524.370000,247,524.920000,247.550000,524.590000C248.100000,524.150000,250.170000,521.090000,252.140000,517.700000C255.420000,511.910000,255.530000,511.470000,253.780000,510.370000C248.750000,507.310000,246.560000,505.010000,246.560000,502.500000C246.560000,499.660000,249.840000,497.690000,254.760000,497.690000C258.040000,497.690000,259.680000,494.850000,259.680000,489.050000C259.680000,482.820000,258.810000,481.400000,254.430000,480.630000C245.460000,478.990000,244.370000,476.150000,250.380000,470.350000C252.460000,468.270000,254.210000,465.980000,254.210000,465.320000C254.210000,463.790000,248.200000,454.390000,246.560000,453.400000C246.010000,453.070000,244.050000,453.510000,242.300000,454.490000C238.150000,456.570000,235.190000,456.570000,233.440000,454.490000C232.240000,453.070000,232.350000,452.080000,233.770000,448.910000C236.390000,443.440000,236.180000,442.350000,231.040000,438.630000C225.250000,434.370000,223.390000,434.480000,219.120000,439.180000C217.150000,441.260000,214.750000,443.010000,213.650000,443.010000C211.140000,443.010000,209.390000,439.840000,209.390000,435.470000C209.390000,433.720000,208.950000,431.860000,208.300000,431.530000C206.770000,430.680000,197.250000,430.030000,194.410000,430.680000Z"
                        transform="matrix(1 0 0 1 -0.33333333333333 -2.66666666666667)"
                        fill="#99d6f7"
                        stroke="none"
                        stroke-width="1"
                    />
                    <path
                        id="e11e2mr038c78"
                        d="M206.550000,461.190000C207.860000,461.740000,208.300000,463.490000,208.300000,468.190000C208.300000,471.690000,208.740000,475.840000,209.390000,477.370000C210.370000,479.990000,210.920000,480.210000,218.030000,480.210000C227.980000,480.210000,229.290000,481.410000,228.850000,490.490000L228.520000,497.160000L219.770000,497.490000C208.950000,497.820000,208.290000,498.580000,208.290000,509.410000L208.290000,517.500000L200.420000,517.170000L192.440000,516.840000L192.110000,508.640000C191.890000,504.160000,191.340000,500,190.690000,499.350000C190.140000,498.800000,185.770000,498.040000,181.180000,497.710000L172.760000,497.160000L172.760000,488.960000L172.760000,480.760000L182.050000,480.210000L191.340000,479.660000L191.670000,471.460000C191.780000,466.980000,192.110000,462.600000,192.440000,461.840000C192.990000,460.420000,203.380000,459.980000,206.550000,461.190000Z"
                        transform="matrix(1 0 0 1 -0.33333333333333 -2.66666666666667)"
                        fill="rgb(255,255,255)"
                        stroke="none"
                        stroke-width="1"
                    />
                </g>
            </g>
        </g>
    </g>
</svg>
