<svg xmlns="http://www.w3.org/2000/svg" viewBox="0 0 769 769" overflow="hidden" preserveAspectRatio="xMidYMid meet" id="eaf-11775-0"><defs><clipPath id="eaf-11775-1"><rect x="0" y="0" width="769" height="769"></rect></clipPath><style>#eaf-11775-0 * {animation: 10000ms linear infinite normal both running;offset-rotate:0deg}@keyframes eaf-11775-2{0%,100%{transform:none;offset-path:path("m149.2 859.9159l0 -132.6913l0 35.0913l0 -38.1004l0 51.0918l0 -89.8903l0 76.8989l2.7 97.6l-2.7 -126.8972l0 -49.4385l0 78.7357l0 97.6l0 -106.0948l0 126.8949l0 -118.4001l0 -178.0999l0 88.4841l0 309l0 -219.3841l0 -94.1006l0 -21.4249l0 -62.5745l0 178.0999l0 -33.8482l0 -98.7382l0 70.2039l0 62.3824l0 97.6l0 -241.0977l0 241.0977l0 -132.6913l0 35.0913l0 -38.1004l0 51.0918l0 -89.8903l0 76.8989l2.7 97.6l-2.7 -126.8972l0 -49.4385l0 78.7357l0 97.6l0 -106.0948l0 126.8949l0 -118.4001l0 -178.0999l0 88.4841l0 309l0 -219.3841l0 -94.1006l0 -21.4249l0 -62.5745l0 178.0999l0 -33.8482l0 -98.7382l0 70.2039l0 62.3824l0 97.6l0 -241.0977l0 143.4977")}}@keyframes eaf-11775-3{0%{offset-distance:0%}2.33%{offset-distance:2.0911%}4.66%{offset-distance:2.6441%}4.67%{offset-distance:3.2445%}7%{offset-distance:4.0496%}9.33%{offset-distance:5.4662%}11.66%{offset-distance:6.678%}11.67%{offset-distance:8.2167%}14%{offset-distance:10.2169%}16.33%{offset-distance:10.996%}18.66%{offset-distance:12.2367%}18.67%{offset-distance:13.7748%}21%{offset-distance:15.4467%}23.33%{offset-distance:17.4464%}25.66%{offset-distance:19.3123%}25.67%{offset-distance:22.1189%}28%{offset-distance:23.5133%}30.33%{offset-distance:28.3828%}32.66%{offset-distance:31.84%}32.67%{offset-distance:33.323%}35%{offset-distance:33.6606%}37.33%{offset-distance:34.6467%}39.66%{offset-distance:37.4533%}39.67%{offset-distance:37.9867%}42%{offset-distance:39.5427%}44.33%{offset-distance:40.6491%}46.66%{offset-distance:41.6321%}46.67%{offset-distance:43.1702%}49%{offset-distance:46.9696%}51.33%{offset-distance:50.769%}53.66%{offset-distance:52.8601%}55.99%{offset-distance:53.4131%}56%{offset-distance:54.0135%}58.33%{offset-distance:54.8186%}60.66%{offset-distance:56.2352%}62.99%{offset-distance:57.447%}63%{offset-distance:58.9857%}65.33%{offset-distance:60.9859%}67.66%{offset-distance:61.765%}69.99%{offset-distance:63.0058%}70%{offset-distance:64.5438%}72.33%{offset-distance:66.2158%}74.66%{offset-distance:68.2155%}76.99%{offset-distance:70.0813%}77%{offset-distance:72.888%}79.33%{offset-distance:74.2824%}81.66%{offset-distance:79.1518%}83.99%{offset-distance:82.6091%}84%{offset-distance:84.092%}86.33%{offset-distance:84.4296%}88.66%{offset-distance:85.4157%}90.99%{offset-distance:88.2224%}91%{offset-distance:88.7558%}93.33%{offset-distance:90.3118%}95.66%{offset-distance:91.4181%}97.99%{offset-distance:92.4012%}98%{offset-distance:93.9392%}100%{offset-distance:97.7386%}}@keyframes eaf-11775-4{0%,100%{transform:translate(-150.1px,-983.5px)}}@keyframes eaf-11775-5{0%,100%{transform:none;offset-path:path("m386.4 859.9159l0 -132.6913l-1.0464 -80.4342l1.0464 77.4251l0 51.0918l0 -89.8903l0 -12l0 186.4989l0 -126.8972l0 -49.4385l-1.0464 91.7272l1.0464 84.6086l0 -106.0948l0 126.8949l-1.0464 -118.4001l1.0464 -178.0999l0 88.4841l0 309l0 -219.3841l0 -94.1006l0 -21.4249l0 -62.5745l-1.9 143.0086l1.9 1.2431l0 -98.7382l0 70.2039l-1.9 53.8876l1.9 106.0948l0 0l0 -132.6913l-1.0464 -80.4342l1.0464 77.4251l0 51.0918l0 -89.8903l0 -12l0 186.4989l0 -126.8972l0 -49.4385l-1.0464 91.7272l1.0464 84.6086l0 -106.0948l0 126.8949l-1.0464 -118.4001l1.0464 -178.0999l0 88.4841l0 309l0 -219.3841l0 -94.1006l0 -21.4249l0 -62.5745l-1.9 143.0086l1.9 1.2431l0 -98.7382l0 70.2039l-1.9 53.8876l1.9 106.0948l-3.7 0.6023")}}@keyframes eaf-11775-6{0%,2.67%{offset-distance:0%}5%{offset-distance:2.3837%}7.33%{offset-distance:3.8287%}7.34%{offset-distance:5.2197%}9.67%{offset-distance:6.1375%}12%{offset-distance:7.7523%}14.33%{offset-distance:7.9679%}14.34%{offset-distance:11.3182%}16.67%{offset-distance:13.5978%}19%{offset-distance:14.4859%}21.33%{offset-distance:16.1338%}21.34%{offset-distance:17.6538%}23.67%{offset-distance:19.5597%}26%{offset-distance:21.8392%}28.33%{offset-distance:23.9663%}28.34%{offset-distance:27.1657%}30.67%{offset-distance:28.7553%}33%{offset-distance:34.3061%}35.33%{offset-distance:38.2472%}35.34%{offset-distance:39.9376%}37.67%{offset-distance:40.3225%}40%{offset-distance:41.4466%}42.33%{offset-distance:44.0158%}42.34%{offset-distance:44.0566%}44.67%{offset-distance:45.8303%}47%{offset-distance:47.0915%}49.33%{offset-distance:48.0601%}49.34%{offset-distance:49.9663%}51.67%{offset-distance:49.9663%}54%{offset-distance:52.35%}56.33%{offset-distance:53.795%}56.34%{offset-distance:55.186%}58.67%{offset-distance:56.1039%}61%{offset-distance:57.7187%}63.33%{offset-distance:57.9342%}63.34%{offset-distance:61.2845%}65.67%{offset-distance:63.5641%}68%{offset-distance:64.4522%}70.33%{offset-distance:66.1001%}70.34%{offset-distance:67.6201%}72.67%{offset-distance:69.526%}75%{offset-distance:71.8056%}77.33%{offset-distance:73.9326%}77.34%{offset-distance:77.1321%}79.67%{offset-distance:78.7216%}82%{offset-distance:84.2725%}84.33%{offset-distance:88.2135%}84.34%{offset-distance:89.9039%}86.67%{offset-distance:90.2888%}89%{offset-distance:91.4129%}91.33%{offset-distance:93.9821%}91.34%{offset-distance:94.0229%}93.67%{offset-distance:95.7967%}96%{offset-distance:97.0578%}98.33%{offset-distance:98.0265%}98.34%{offset-distance:99.9327%}100%{offset-distance:99.9806%}}@keyframes eaf-11775-7{0%,100%{transform:translate(-386.4px,-983.5px)}}@keyframes eaf-11775-8{0%,100%{transform:none;offset-path:path("m623.38 859.9159q0 -40.2423 0 -132.6913l-1.68 35.0913l2.5439 -38.1004l-0.8639 51.0918l0 -89.8903l-1.8861 76.8989l1.8892 97.6l-0.0031 -126.8972l0 -49.4385l-1.68 78.7357l1.68 50.4505l0.8639 -20.841l0 88.7906l0 -118.4001l0 -178.0999l0 88.4841l-0.8639 309l0.8639 -73.0653l0 -240.4195l0 -122.3857l0 38.3864l0 161.8018l-0.8639 -17.5501l0.8639 -98.7382l-2.5439 70.2039l1.68 46.0843l0 113.8981q0 -40.2423 0 -132.6913l-1.68 35.0913l2.5439 -38.1004l-0.8639 51.0918l0 -89.8903l-1.8861 76.8989l1.8892 97.6l-0.0031 -126.8972l0 -49.4385l-1.68 78.7357l1.68 50.4505l0.8639 -20.841l0 88.7906l0 -118.4001l0 -178.0999l0 88.4841l-0.8639 309l0.8639 -73.0653l0 -240.4195l0 -122.3857l0 38.3864l0 161.8018l-0.8639 -17.5501l0.8639 -98.7382l-2.5439 70.2039l1.68 159.9824q0 -40.2423 0.8639 -16.9302l-0.8639 -115.7611l-1.68 35.0913l2.5439 -38.1004l-0.8639 51.0918l0 -89.8903l-1.8861 76.8989l1.8892 97.6l-0.0031 -126.8972l0 -49.4385l-1.68 78.7357l1.68 50.4505l0.8639 -20.841l0 88.7906l0 -118.4001l0 -178.0999l0 88.4841l-0.8639 309l0.8639 -73.0653l0 -240.4195l0 -122.3857l0 38.3864l0 161.8018l-0.8639 -17.5501l0.8639 -98.7382l-2.5439 70.2039l1.68 46.0843l0.8639 96.968")}}@keyframes eaf-11775-9{0%{offset-distance:0%}2.33%{offset-distance:1.6924%}4.66%{offset-distance:2.1405%}4.67%{offset-distance:2.6275%}7%{offset-distance:3.2793%}9.33%{offset-distance:4.4258%}11.66%{offset-distance:5.4069%}11.67%{offset-distance:6.652%}14%{offset-distance:8.2705%}16.33%{offset-distance:8.9011%}18.66%{offset-distance:9.9055%}18.67%{offset-distance:10.5494%}21%{offset-distance:10.8154%}23.33%{offset-distance:11.9479%}25.66%{offset-distance:13.458%}25.67%{offset-distance:15.7296%}28%{offset-distance:16.8582%}30.33%{offset-distance:20.7993%}32.66%{offset-distance:21.7313%}32.67%{offset-distance:24.7978%}35%{offset-distance:26.3587%}37.33%{offset-distance:26.8483%}39.66%{offset-distance:28.912%}39.67%{offset-distance:29.1362%}42%{offset-distance:30.3956%}44.33%{offset-distance:31.2916%}46.66%{offset-distance:31.8797%}46.67%{offset-distance:33.3325%}49%{offset-distance:35.0249%}51.33%{offset-distance:35.473%}51.34%{offset-distance:35.96%}53.67%{offset-distance:36.6117%}56%{offset-distance:37.7583%}58.33%{offset-distance:38.7394%}58.34%{offset-distance:39.9844%}60.67%{offset-distance:41.6029%}63%{offset-distance:42.2335%}65.33%{offset-distance:43.238%}65.34%{offset-distance:43.8818%}67.67%{offset-distance:44.1479%}70%{offset-distance:45.2803%}72.33%{offset-distance:46.7905%}72.34%{offset-distance:49.0621%}74.67%{offset-distance:50.1906%}77%{offset-distance:54.1318%}79.33%{offset-distance:55.0638%}79.34%{offset-distance:58.1302%}81.67%{offset-distance:59.6912%}84%{offset-distance:60.1808%}86.33%{offset-distance:62.2445%}86.34%{offset-distance:62.4686%}88.67%{offset-distance:63.728%}91%{offset-distance:64.624%}93.33%{offset-distance:66.6646%}93.34%{offset-distance:67.0993%}95.66%{offset-distance:68.5758%}97.99%{offset-distance:69.0239%}98%{offset-distance:69.511%}100%{offset-distance:70.1627%}}@keyframes eaf-11775-10{0%,100%{transform:translate(-622.7px,-983.5px)}}@keyframes eaf-11775-11{0%,100%{transform:none;offset-path:path("m149.2 235.9l0 358.8l0 -449.4l0 90.6")}}@keyframes eaf-11775-12{0%{offset-distance:0%;animation-timing-function:ease-in-out}43%{offset-distance:39.9199%;animation-timing-function:ease-in-out}85%{offset-distance:89.9199%;animation-timing-function:cubic-bezier(0,0,0.58,1)}100%{offset-distance:100%}}@keyframes eaf-11775-13{0%,100%{transform:translate(-149.2px,-248.9px)}}@keyframes eaf-11775-14{0%,100%{transform:none;offset-path:path("m385.4 474.2l0 -328.9l0 328.9")}}@keyframes eaf-11775-15{0%{offset-distance:0%;animation-timing-function:ease-in-out}59.33%{offset-distance:50%;animation-timing-function:ease-in-out}100%{offset-distance:100%}}@keyframes eaf-11775-16{0%,100%{transform:translate(-385.4px,-474.2px)}}@keyframes eaf-11775-17{0%,100%{transform:none;offset-path:path("m621.7 310.1l0.8705 215.843l0 -23.1l-0.8705 26.1212l0 -218.8642")}}@keyframes eaf-11775-18{0%{offset-distance:0%;animation-timing-function:ease-in-out}57%{offset-distance:44.6011%}58%{offset-distance:49.3744%}70%{offset-distance:54.775%;animation-timing-function:ease-in-out}100%{offset-distance:100%}}@keyframes eaf-11775-19{0%,100%{transform:translate(-621.7px,-326.3px)}}</style></defs><g clip-path="url('#eaf-11775-1')" style="isolation: isolate;"><g><g transform="matrix(4 0 0 4 -825.4464 -2258.583)"><path fill="#f3582c" d="m398.6 660.8c0 24.1 0 48.1 0 72.2c0 11 -8.3 21.1 -19.2 23.2c-1.6 0.3 -3.3 0.5 -4.9 0.5c-48 0 -95.9 0 -143.9 0c-11.8 0 -22 -9 -23.6 -20.7c-0.1 -1 -0.2 -2.1 -0.2 -3.1c0 -48.1 0 -96.2 0 -144.3c0 -11 8.3 -21.1 19.2 -23.2c1.6 -0.3 3.3 -0.5 4.9 -0.5c48 0 96 0 144 0c11 0 21.1 8.3 23.2 19.2c0.3 1.6 0.5 3.3 0.5 4.9c0 23.9 0 47.7999 0 71.7999z"></path></g><g><path fill="#000000" stroke="#000000" stroke-width="28" stroke-miterlimit="40" d="m162.4 681l-26.6 0c-11.4 0 -20.8 -9.3 -20.8 -20.8l0 -551.4c0 -11.4 9.3 -20.8 20.8 -20.8l26.6 0c11.4 0 20.8 9.3 20.8 20.8l0 551.4c0 11.5 -9.3 20.8 -20.8 20.8z"></path><path fill="#000000" stroke="#000000" stroke-width="28" stroke-miterlimit="40" d="m398.7 681l-26.6 0c-11.4 0 -20.8 -9.3 -20.8 -20.8l0 -551.4c0 -11.4 9.3 -20.8 20.8 -20.8l26.6 0c11.4 0 20.8 9.3 20.8 20.8l0 551.4c0 11.5 -9.4 20.8 -20.8 20.8z"></path><path fill="#000000" stroke="#000000" stroke-width="28" stroke-miterlimit="40" d="m635 681l-26.6 0c-11.4 0 -20.8 -9.3 -20.8 -20.8l0 -551.4c0 -11.4 9.3 -20.8 20.8 -20.8l26.6 0c11.4 0 20.8 9.3 20.8 20.8l0 551.4c0 11.5 -9.4 20.8 -20.8 20.8z"></path></g><path fill="#36ff3c" stroke="#000000" stroke-width="28" stroke-miterlimit="10" d="m163.4 1280l-26.6 0c-11.4 0 -20.8 -9.3 -20.8 -20.8l0 -551.4c0 -11.4 9.3 -20.8 20.8 -20.8l26.6 0c11.4 0 20.8 9.3 20.8 20.8l0 551.4c0 11.5 -9.3 20.8 -20.8 20.8z" transform="translate(-0.9 -123.5841)" style="animation-name: eaf-11775-2, eaf-11775-3, eaf-11775-4; animation-composition: replace, add, add;"></path><path fill="#36ff3c" stroke="#000000" stroke-width="28" stroke-miterlimit="10" d="m399.7 1280l-26.6 0c-11.4 0 -20.8 -9.3 -20.8 -20.8l0 -551.4c0 -11.4 9.3 -20.8 20.8 -20.8l26.6 0c11.4 0 20.8 9.3 20.8 20.8l0 551.4c0 11.5 -9.4 20.8 -20.8 20.8z" transform="translate(0 -123.5841)" style="animation-name: eaf-11775-5, eaf-11775-6, eaf-11775-7; animation-composition: replace, add, add;"></path><path fill="#36ff3c" stroke="#000000" stroke-width="28" stroke-miterlimit="10" d="m636 1280l-26.6 0c-11.4 0 -20.8 -9.3 -20.8 -20.8l0 -551.4c0 -11.4 9.3 -20.8 20.8 -20.8l26.6 0c11.4 0 20.8 9.3 20.8 20.8l0 551.4c0 11.5 -9.4 20.8 -20.8 20.8z" transform="translate(0.68 -123.5841)" style="animation-name: eaf-11775-8, eaf-11775-9, eaf-11775-10; animation-composition: replace, add, add;"></path><path fill="#f3582c" d="m768.9 97.3c0 -6.5 -0.7 -13.2 -1.9 -19.6c-8.2 -43.4 -48.6 -76.7 -92.7 -76.7c-192 0 -384 0 -576.1 0.1c-6.5 -0.1 -13.2 0.6 -19.6 1.8c-43.4 8.3 -76.7 48.6 -76.7 92.8c0 192.3 0 384.7 0 577c0 4.2 0.4 8.4 0.9 12.5c6.2 46.8 47.2 82.9 94.3 82.9c191.9 0 383.7 0 575.6 -0.1c6.5 0 13.2 -0.7 19.6 -1.9c43.4 -8.3 76.7 -48.6 76.7 -92.7c0 -96.2 0 -192.5 0 -288.8c0.0001 -95.8 0.0001 -191.6 -0.0999 -287.3zm-585.7 562.9c0 11.5 -9.3 20.8 -20.8 20.8l-26.6 0c-11.4 0 -20.8 -9.3 -20.8 -20.8l0 -551.4c0 -11.4 9.3 -20.8 20.8 -20.8l26.6 0c11.4 0 20.8 9.3 20.8 20.8l0 551.4zm236.3 0c0 11.5 -9.4 20.8 -20.8 20.8l-26.6 0c-11.4 0 -20.8 -9.3 -20.8 -20.8l0 -551.4c0 -11.4 9.3 -20.8 20.8 -20.8l26.6 0c11.4 0 20.8 9.3 20.8 20.8l0 551.4zm236.3 0c0 11.5 -9.4 20.8 -20.8 20.8l-26.6 0c-11.4 0 -20.8 -9.3 -20.8 -20.8l0 -551.4c0 -11.4 9.3 -20.8 20.8 -20.8l26.6 0c11.4 0 20.8 9.3 20.8 20.8l0 551.4z"></path><path fill="none" stroke="#000000" stroke-width="28" stroke-miterlimit="10" d="m163.4 1280l-26.6 0c-11.4 0 -20.8 -9.3 -20.8 -20.8l0 -551.4c0 -11.4 9.3 -20.8 20.8 -20.8l26.6 0c11.4 0 20.8 9.3 20.8 20.8l0 551.4c0 11.5 -9.3 20.8 -20.8 20.8z" transform="translate(-0.9 -594.583)"></path><path fill="none" stroke="#000000" stroke-width="28" stroke-miterlimit="10" d="m163.4 1280l-26.6 0c-11.4 0 -20.8 -9.3 -20.8 -20.8l0 -551.4c0 -11.4 9.3 -20.8 20.8 -20.8l26.6 0c11.4 0 20.8 9.3 20.8 20.8l0 551.4c0 11.5 -9.3 20.8 -20.8 20.8z" transform="translate(238.1 -594.583)"></path><path fill="none" stroke="#000000" stroke-width="28" stroke-miterlimit="10" d="m163.4 1280l-26.6 0c-11.4 0 -20.8 -9.3 -20.8 -20.8l0 -551.4c0 -11.4 9.3 -20.8 20.8 -20.8l26.6 0c11.4 0 20.8 9.3 20.8 20.8l0 551.4c0 11.5 -9.3 20.8 -20.8 20.8z" transform="translate(471.6746 -594.583)"></path><g transform="translate(0 -13)" style="animation-name: eaf-11775-11, eaf-11775-12, eaf-11775-13; animation-composition: replace, add, add;"><path fill="#f7b427" stroke="#000000" stroke-width="20" stroke-miterlimit="10" d="m193.1 339.4l-87.8 0c-26.4 0 -48 -21.6 -48 -48l0 -85c0 -26.4 21.6 -48 48 -48l87.8 0c26.4 0 48 21.6 48 48l0 85c-0.1 26.4 -21.7 48 -48 48z"></path><path fill="#fff" stroke="#000000" stroke-width="20" stroke-miterlimit="10" d="m112.3 261.2l0 -24.6c0 -12.8 10.4 -23.1 23.1 -23.1l27.5 0c12.8 0 23.1 10.4 23.1 23.1l0 24.6c0 12.8 -10.4 23.1 -23.1 23.1l-27.5 0c-12.7 0.1 -23.1 -10.3 -23.1 -23.1z"></path></g><g style="animation-name: eaf-11775-14, eaf-11775-15, eaf-11775-16; animation-composition: replace, add, add;"><path fill="#f7b427" stroke="#000000" stroke-width="20" stroke-miterlimit="10" d="m429.3 564.7l-87.8 0c-26.4 0 -48 -21.6 -48 -48l0 -85c0 -26.4 21.6 -48 48 -48l87.8 0c26.4 0 48 21.6 48 48l0 85c0 26.4 -21.6 48 -48 48z"></path><path fill="#fff" stroke="#000000" stroke-width="20" stroke-miterlimit="10" d="m348.6 487.9l0 -27.3c0 -12.1 9.8 -21.8 21.8 -21.8l30.1 0c12.1 0 21.8 9.8 21.8 21.8l0 27.3c0 12.1 -9.8 21.8 -21.8 21.8l-30.1 0c-12.1 0 -21.8 -9.8 -21.8 -21.8z"></path></g><g transform="translate(0 -16.2)" style="animation-name: eaf-11775-17, eaf-11775-18, eaf-11775-19; animation-composition: replace, add, add;"><path fill="#f7b427" stroke="#000000" stroke-width="20" stroke-miterlimit="10" d="m665.6 416.8l-87.8 0c-26.4 0 -48 -21.6 -48 -48l0 -85c0 -26.4 21.6 -48 48 -48l87.8 0c26.4 0 48 21.6 48 48l0 85c0 26.5 -21.6 48 -48 48z"></path><path fill="#fff" stroke="#000000" stroke-width="20" stroke-miterlimit="10" d="m584.8 339.2l0 -25.6c0 -12.5 10.1 -22.6 22.6 -22.6l28.5 0c12.5 0 22.6 10.1 22.6 22.6l0 25.6c0 12.5 -10.1 22.6 -22.6 22.6l-28.5 0c-12.4 0 -22.6 -10.1 -22.6 -22.6z"></path></g></g></g></svg>