<svg xmlns="http://www.w3.org/2000/svg" viewBox="0 0 499.20001220703125 498.3999938964844" overflow="hidden" preserveAspectRatio="xMidYMid meet" id="eaf-94e7-0"><defs><clipPath id="eaf-94e7-1"><rect x="0" y="0" width="499.2" height="498.4"></rect></clipPath><style>#eaf-94e7-0 * {animation: 5000ms linear infinite normal both running;offset-rotate:0deg}@keyframes eaf-94e7-2{0%,100%{transform:translate(245.5px,187.7px)}}@keyframes eaf-94e7-3{0%{transform:scale(1.1595,0)}40%{transform:scale(1.1595,0)}42%{transform:scale(1.1595,1.16)}98%{transform:scale(1.1595,1.16)}100%{transform:scale(1.1595,0)}}@keyframes eaf-94e7-4{0%,100%{transform:translate(-245.5px,-182.7px)}}@keyframes eaf-94e7-5{0%{opacity:0}40%{opacity:0}46.34%{opacity:1}93.66%{opacity:1}100%{opacity:0}}</style></defs><g clip-path="url('#eaf-94e7-1')" style="isolation: isolate;"><g><g><path fill="#f3582c" d="m498.1 249.4c0 62.3 0 124.7 0 187c0 28.6 -21.6 54.7 -49.7 60c-4.2 0.8 -8.5 1.2 -12.7 1.2c-124.2 0.1 -248.5 0 -372.7 0c-30.5 0 -57 -23.4 -61 -53.7c-0.4 -2.7 -0.6 -5.4 -0.6 -8.1c0 -124.5 0 -249.1 0 -373.7c0 -28.6 21.6 -54.7 49.7 -60c4.1 -0.6 8.4 -1.1 12.6 -1.1c124.4 -0.1 248.7 0 373 0c28.6 0 54.7 21.6 60 49.7c0.8 4.2 1.2 8.5 1.2 12.7c0.2 62 0.2 124 0.2 186z"></path></g><path fill="#01507b" d="m424.5 363.8c-1.4 -54.7 -21.3 -97.6 -59.3 -128.5c-10.9 -8.9 -23 -15.1 -35.8 -19.6c0.4 -0.9 0.6 -1.5 0.9 -2c10 -17.1 16.2 -35.9 18 -56.6c1 -11 2 -22 -5 -31.5c-24.1 -32.5 -47.9 -65.3 -72 -97.7c-14 -18.8 -37.6 -18.9 -51.6 -0.1c-24.4 32.8 -48.5 66 -72.7 99c-3.3 4.4 -4.7 9.7 -4.8 15.4c0 10.1 1 20 2.9 29.9c3.2 15.7 8.9 30 16.9 43.5c-1.6 0.6 -3 1.1 -4.3 1.7c-40 16.2 -67.8 47.6 -83.2 94.3c-7.6 23 -8.9 47 -8.2 71.3c0.6 21.8 8.6 38.3 24 49.1c23.7 25.2 84.3 43.1 155.2 43.1c70.6 0 130.9 -17.7 154.9 -42.7c11.6 -7.8 19.1 -19.6 22.7 -35.3c2.4 -11.1 1.7 -22.3 1.4 -33.3z" transform="matrix(1.1826 0 0 1.1826 -44.7185 -9.1612)"></path><path fill="#1a7bb0" stroke="#fffefd" stroke-width="16" stroke-miterlimit="10" d="m93 443.3c3.9 -1.8 7.1 -4.6 11.3 -5.8c3.1 -0.9 2.1 -3.5 2.1 -5.6c0 -44.8 0 -89.6 0 -134.4c0 -12.3 7.2 -21.4 19 -24.6c2.2 -0.6 4.4 -0.6 6.6 -0.6c75.6 0 151.3 0 226.9 0c15.2 0 25.6 10.5 25.6 25.7c0 44.1 0.1 88.2 -0.1 132.4c0 4.4 0.6 7.5 5.5 8.5c3.2 0.6 5.2 3.9 8.6 4.3c0.3 0.8 0.5 1.7 1 2.2c8.8 8.9 10.4 20 9.5 31.7c-0.3 4.7 -3.2 7.3 -7.9 7.8c-1.4 0.1 -2.7 0 -4.1 0c-101 0 -202.1 0 -303.1 0c-9.7 0 -11.6 -2.3 -12.1 -12c-0.6 -11.6 3.5 -21.2 11.2 -29.6zm152.4 -113.8c-18.1 0 -32.8 14.7 -32.7 32.8c0 17.9 14.6 32.5 32.5 32.6c18.2 0.1 32.9 -14.5 33 -32.6c0 -18.1 -14.6 -32.8 -32.8 -32.8z" transform="matrix(1.0317 0 0 0.893 -8.4609 54.363)"></path><path fill="#f7e79c" d="m251.2 222.4c-3.8 0 -7.6 0 -11.4 0c0 6.4 0 12.8 0 19.3c-1.4 -0.8 -2.6 -1.4 -3.9 -2.1c-8 -4.5 -15.6 -9.6 -22.6 -15.5c-6 -5 -11.4 -10.4 -15.9 -16.8c-3.8 -5.3 -6.8 -11.1 -8.3 -17.5c-0.6 -2.5 -0.9 -5 -0.9 -7.5c0 -19.7 0 -39.4 0 -59.1c0 -0.4 0.2 -0.6 0.5 -0.9c4.8 -3.2 9.9 -5.6 15.3 -7.6c5.7 -2.1 11.6 -3.7 17.7 -4.8c3.8 -0.7 7.7 -1.1 11.6 -1.5c6.1 -0.6 12.2 -0.7 18.3 -0.4c4.9 0.2 9.8 0.7 14.6 1.4c9.2 1.4 18.1 3.9 26.6 7.7c3.3 1.5 6.5 3.2 9.5 5.2c0.4 0.2 0.5 0.5 0.5 1c0 19.6 0 39.2 0 58.8c0 8.4 -2.4 16.2 -6.6 23.5c-3.5 6 -8.1 11.3 -13.2 16c-9.3 8.5 -19.8 15.1 -31.1 20.4c-0.2 0.1 -0.3 0.1 -0.6 0.2c-0.1 -6.6 -0.1 -13.2 -0.1 -19.8zm39.9 -39.9c0 0 0 -0.1 0 0c-0.2 0 -0.4 0.1 -0.5 0.2c-7.3 5.5 -14.6 10.9 -21.9 16.4c-0.2 0.2 -0.6 0.3 -0.9 0.3c-1.5 0 -3.1 0 -4.6 0c-0.4 0 -0.7 -0.1 -1 -0.4c-3.5 -3.5 -7 -7 -10.6 -10.6c-0.3 -0.3 -0.6 -0.5 -1.1 -0.5c-3.4 0 -6.8 0 -10.2 0c-0.5 0 -0.8 0.1 -1.1 0.5c-3.5 3.5 -7 7.1 -10.6 10.6c-0.3 0.3 -0.6 0.4 -1 0.4c-1.5 0 -3.1 0 -4.6 0c-0.3 0 -0.6 -0.1 -0.9 -0.3c-7.3 -5.5 -14.6 -10.9 -21.9 -16.4c-0.2 -0.1 -0.3 -0.2 -0.6 -0.4c0.1 0.2 0.1 0.3 0.2 0.4c5.6 9.3 11.1 18.6 16.7 27.9c0.2 0.3 0.4 0.4 0.7 0.4c7.3 0 14.7 0 22 0c0.2 0 0.6 -0.1 0.7 -0.3c1.7 -1.7 3.4 -3.3 5 -5c0.1 -0.1 0.2 -0.2 0.4 -0.4c1.8 1.8 3.5 3.5 5.3 5.3c0.3 0.3 0.6 0.4 0.9 0.4c7.3 0 14.5 0 21.8 0c0.4 0 0.7 -0.1 0.9 -0.5c3.8 -6.4 7.6 -12.8 11.5 -19.1c1.9001 -3.1 3.7 -6 5.4001 -8.9zm-97.2 -40.6c0.1 0 0.1 0.1 0.2 0.1c1.3 -0.9 2.6 -1.8 3.9 -2.7c3.1 -2.1 6.2 -4.1 9.6 -5.5c2.8 -1.2 5.6 -1.6 8.6 -0.8c2.9 0.8 5.3 2.5 7.4 4.6c2.1 2.1 3.7 4.6 5.3 7.1c0.3 0.5 0.6 1 1 1.4c2.1 2.2 5.6 2.3 7.8 0.3c2.3 -2.1 2.6 -5.5 0.7 -7.9c-0.8 -1.1 -1.7 -2.1 -2.5 -3.2c-2.8 -3.6 -6.1 -6.6 -10.3 -8.5c-5.5 -2.5 -11.1 -2.7 -16.6 -0.1c-4.9 2.2 -8.7 5.7 -11.8 10c-1.2 1.7 -2.2 3.5 -3.3 5.2zm103 0.1c0 -0.2 0 -0.3 0 -0.3c-1.2 -3.3 -2.6 -6.5 -4.7 -9.4c-2.8 -3.7 -6.4 -6.1 -11 -6.9c-2.6 -0.4 -5.1 -0.5 -7.7 -0.4c-2.6 0 -5.1 0.6 -7.5 1.6c-3.9 1.6 -7.1 4.2 -9.8 7.4c-1.2 1.4 -2.3 2.9 -3.5 4.4c-1.3 1.5 -1.8 3.2 -1.3 5.1c0.6 2.3 2.1 3.9 4.4 4.4c2.3 0.5 4.3 -0.2 5.7 -2.2c0.8 -1.1 1.6 -2.3 2.4 -3.4c2.2 -3.1 4.6 -6.1 7.8 -8.4c2.1 -1.6 4.5 -2.7 7.2 -2.9c2.3 -0.2 4.4 0.5 6.4 1.6c2.9 1.6 5.4 3.8 7.8 6c1.2 0.9 2.5001 2.2 3.8 3.4zm-97.3 11.6c7.8 8.1 22.2 7.1 28.6 0c-7.2 -7.7 -21.5 -7.6 -28.6 0zm63.1 0c7.2 7.7 21.6 7.6 28.5 0c-7.1 -7.7 -21.6 -7.6 -28.5 0z" transform="matrix(1.1595 0 0 0 -39.1473 187.7)" opacity="0" style="animation-name: eaf-94e7-2, eaf-94e7-3, eaf-94e7-4, eaf-94e7-5; animation-composition: replace, add, add, replace;"></path></g></g></svg>

