<svg xmlns="http://www.w3.org/2000/svg" viewBox="0 0 650 650" overflow="hidden" preserveAspectRatio="xMidYMid meet" id="eaf-bd78-0"><defs><clipPath id="eaf-bd78-1"><rect x="0" y="0" width="650" height="650"></rect></clipPath><style>#eaf-bd78-0 * {animation: 6000ms linear infinite normal both running;offset-rotate:0deg}@keyframes eaf-bd78-2{0%{animation-timing-function:step-start}25%{opacity:0;animation-timing-function:ease-in-out}26.67%{opacity:1}81.12%{opacity:1;animation-timing-function:ease-in-out}82.78%,100%{opacity:0}}</style></defs><g clip-path="url('#eaf-bd78-1')" style="isolation: isolate;"><g><path fill="#f3582c" d="m650 325.1c0 81.6 0 163.1 0 244.7c0 37.4 -28.2 71.6 -65 78.6c-5.5 1 -11.1 1.6 -16.6 1.6c-162.6 0 -325.2 0 -487.7 0c-39.9 0.0001 -74.7 -30.5999 -79.9 -70.2c-0.5 -3.5 -0.8 -7 -0.8 -10.6c0 -163 0 -326 0 -488.9c0 -37.4 28.2 -71.6 65 -78.6c5.4 -1 11.1 -1.6 16.6 -1.6c162.7 -0.1 325.4 -0.1 488.1 -0.1c37.4 0 71.6 28.2 78.6 65c1 5.4 1.6 11.1 1.6 16.6c0.1 81.2 0.1 162.3 0.1 243.5l0 0l0 0z"></path><path fill="#000000" d="m630.7 308.1l-294 -277.9c-6.5 -6.1 -16.3 -6.1 -22.7 0l-294.7 277.9c-5.2 4.9 -7 12.7 -4.5 19.6c2.5 6.9 8.8 11.4 15.9 11.4l71.2 0l0 255.7c0 9.8 7.6 17.8 17 17.8l412.9 0c9.4 0 17 -8 17 -17.8l0 -255.7l70.6 0c7 0 13.3 -4.5 15.9 -11.4c2.4 -6.9 0.6 -14.7 -4.6 -19.6z"></path><g><rect fill="#c9c9c9" width="133.7" height="29.2" transform="translate(258.1 477.6)"></rect><path fill="#c9c9c9" d="m325 584.8c33.1 0 60.7 -24.3 65.9 -56l-131.8 0c5.2 31.8 32.8 56 65.9 56z"></path></g><g opacity="0" style="animation-name: eaf-bd78-2;"><rect fill="#b0acac" width="133.7" height="29.2" transform="translate(258.1 477.6)"></rect><path fill="#b0acac" d="m325 584.8c33.1 0 60.7 -24.3 65.9 -56l-131.8 0c5.2 31.8 32.8 56 65.9 56z"></path></g><g><path fill="#01659a" stroke="#c9c9c9" stroke-width="7" stroke-miterlimit="10" d="m468.5 287.2c0 -79.3 -64.4 -143.9 -143.5 -143.9c-79.1 0 -143.5 64.5 -143.5 143.9c0 47 22.6 90.5 60.7 117.5l12.7 50.8l38 0l-16.9 -118.8c-6.5 0.8 -13.1 -2.4 -16.2 -8.6c-3.9 -7.8 -0.7 -17.3 7.2 -21.1l25.6 -12.6c4.4 -2.2 9.6 -2.2 14 0l18.6 9.2l18.6 -9.2c4.4 -2.2 9.6 -2.2 14 0l25.5 12.6c7.8 3.9 11 13.3 7.2 21.1c-2.7 5.6 -8.3 8.8 -14.2 8.8c-0.7 0 -1.4 -0.1 -2 -0.1l-16.9 118.8l38 0l12.7 -50.8c37.8 -27.1 60.4 -70.5 60.4 -117.6l0 0z"></path><path fill="#a3a3a3" d="m353.1 327.3l-2.5 -1.3l-18.6 9.2c-4.4 2.2 -9.6 2.2 -14 0l-18.6 -9.2l-2.5 1.3l18.3 128.2l19.6 0c0 0 18.3 -128.2 18.3 -128.2z"></path></g><g opacity="0" style="animation-name: eaf-bd78-2;"><path fill="#ffebbf" stroke="#ffebbf" stroke-width="10" stroke-miterlimit="10" d="m468.5 287.2c0 -79.3 -64.4 -143.9 -143.5 -143.9c-79.1 0 -143.5 64.5 -143.5 143.9c0 47 22.6 90.5 60.7 117.5l12.7 50.8l38 0l-16.9 -118.8c-6.5 0.8 -13.1 -2.4 -16.2 -8.6c-3.9 -7.8 -0.7 -17.3 7.2 -21.1l25.6 -12.6c4.4 -2.2 9.6 -2.2 14 0l18.6 9.2l18.6 -9.2c4.4 -2.2 9.6 -2.2 14 0l25.5 12.6c7.8 3.9 11 13.3 7.2 21.1c-2.7 5.6 -8.3 8.8 -14.2 8.8c-0.7 0 -1.4 -0.1 -2 -0.1l-16.9 118.8l38 0l12.7 -50.8c37.8 -27.1 60.4 -70.5 60.4 -117.6l0 0z" transform="matrix(1.05 0 0 1.05 -16.2475 -20.775)"></path><path fill="#ffc74f" d="m353.1 327.3l-2.5 -1.3l-18.6 9.2c-4.4 2.2 -9.6 2.2 -14 0l-18.6 -9.2l-2.5 1.3l18.3 128.2l19.6 0c0 0 18.3 -128.2 18.3 -128.2z"></path></g><path fill="#fff" d="m223.5 241l6.3 -3.6l7.1 -7.5l9.1 -12.7l8.7 -7.5l11.9 -8.3l16.3 -5.9l15.1 -4.8l13.9 -1.6l6.7 -5.2l4 -10.3l2.4 -10.7l0 -3.6c-47.6 1.4 -89.2 27.2 -112.8 65.3l0 8.1l5 5.9l6.3 2.4z"></path></g></g></svg>
