<svg xmlns="http://www.w3.org/2000/svg" viewBox="0 0 650 650" overflow="hidden" preserveAspectRatio="xMidYMid meet" id="eaf-11d0b-0"><defs><clipPath id="eaf-11d0b-1"><rect x="0" y="0" width="650" height="650"></rect></clipPath><style>#eaf-11d0b-0 * {animation: 9000ms linear infinite normal both running;offset-rotate:0deg}@keyframes eaf-11d0b-2{0%,100%{transform:translate(338.05px,328px)}}@keyframes eaf-11d0b-3{0%{transform:rotate(-45deg);animation-timing-function:linear(0 0%,0.37 9%,0.65 18%,0.87 28%,1.01 38%,1.08 48%,1.1 59%,1 100%)}17.41%,100%{transform:rotate(0)}}@keyframes eaf-11d0b-4{0%,100%{transform:matrix(1.08,0,0,1.08,-365.094,-354.24)}}@keyframes eaf-11d0b-5{0%{opacity:0;animation-timing-function:ease-in-out}4.08%{opacity:1}90.38%{opacity:1;animation-timing-function:ease-in-out}95.93%,100%{opacity:0}}@keyframes eaf-11d0b-6{0%{fill-opacity:0}31.49%{fill-opacity:0;animation-timing-function:ease-in-out}35.56%{fill-opacity:1}84.82%{fill-opacity:1;animation-timing-function:ease-in-out}92.6%,100%{fill-opacity:0}}@keyframes eaf-11d0b-7{0%{fill-opacity:0}37.78%{fill-opacity:0;animation-timing-function:ease-in-out}45.93%{fill-opacity:1}85.56%{fill-opacity:1;animation-timing-function:ease-in-out}91.86%,100%{fill-opacity:0}}@keyframes eaf-11d0b-8{0%{fill-opacity:0}48.52%{fill-opacity:0;animation-timing-function:ease-in-out}61.11%{fill-opacity:1}86.67%{fill-opacity:1;animation-timing-function:ease-in-out}94.08%,100%{fill-opacity:0}}@keyframes eaf-11d0b-9{0%{fill-opacity:0}19.27%{fill-opacity:0;animation-timing-function:ease-in-out}29.27%{fill-opacity:1}85.56%{fill-opacity:1;animation-timing-function:ease-in-out}91.11%,100%{fill-opacity:0}}</style></defs><g clip-path="url('#eaf-11d0b-1')" style="isolation: isolate;"><g><path fill="#f3582c" d="m651.4 325.1c0 81.6 0 163.1 0 244.7c0 37.4 -28.2 71.6 -65 78.6c-5.5 1 -11.1 1.6 -16.6 1.6c-162.6 0 -325.2 0 -487.7 0c-39.9 0 -74.7 -30.6 -79.9 -70.2c-0.5 -3.5 -0.8 -7 -0.8 -10.6c0 -163 0 -326 0 -488.9c0 -37.4 28.2 -71.6 65 -78.6c5.4 -1 11.1 -1.6 16.6 -1.6c162.7 -0.1 325.4 -0.1 488.0999 -0.1c37.4 0 71.6 28.2 78.6 65c1 5.4 1.6 11.1 1.6 16.6c0.1001 81.2 0.1001 162.3 0.1001 243.5l0 0l0 0z"></path><g transform="matrix(0.7637 -0.7637 0.7637 0.7637 -170.5959 335.6749)" opacity="0" style="animation-name: eaf-11d0b-2, eaf-11d0b-3, eaf-11d0b-4, eaf-11d0b-5; animation-composition: replace, add, add, replace;"><path fill="#8f8f8f" fill-rule="evenodd" d="m614.2 316c-1.6 -2.3 -3.4 -4.6 -5.4 -6.6l-240 -240c-17 -17 -44.5 -17 -61.4 0l-240 239.9c-0.4 0.4 -0.8 0.8 -1.2 1.2l-11.2 -0.1l-0.3 29.6l0 0c0 11.1 4.2 22.2 12.7 30.7l239.9 239.9c17 17 44.5 17 61.4 0l239.9 -239.9c7.6 -7.6 11.8 -17.4 12.6 -27.3l0.1 0l0 -27.4l-7.0999 0z" transform="translate(0 3.7037)"></path><path fill="#fff" fill-rule="evenodd" stroke="#998e8e" stroke-width="10" d="m608.7 346.7l-239.9 240c-17 17 -44.5 17 -61.4 0l-240 -240c-17 -17 -17 -44.5 0 -61.4l240 -239.9c17 -17 44.5 -17 61.4 0l239.9 239.9c17.0001 17 17.0001 44.5 0.0001 61.4z"></path></g><g><path fill="#31afe1" fill-opacity="0" fill-rule="evenodd" d="m600.6 320.4c-1.7 5.5 -5.4 9.5 -9.4 13.5c-26.6 26.5 -53.2 53.2 -79.8 79.8c-9.6 9.6 -19.8 9.6 -29.4 -0.1c-27.4 -27.5 -54.9 -54.9 -82.3 -82.4c-9.3 -9.4 -9.3 -19.6 0 -28.9c27.6 -27.6 55.2 -55.2 82.7 -82.8c9 -9 19.5 -9 28.5 0c26.7 26.7 53.4 53.5 80.2 80.2c4 4 7.7 8 9.3 13.5l0.2 7.2z" style="animation-name: eaf-11d0b-6;"></path><path fill="#31afe1" fill-opacity="0" fill-rule="evenodd" d="m336.2 577.5c-5.5 -1.7 -9.4 -5.5 -13.4 -9.5c-26.5 -26.7 -53.1 -53.2 -79.7 -79.8c-9.5 -9.5 -9.5 -19.7 0 -29.2c27.5 -27.5 55 -55 82.5 -82.6c9.1 -9.1 19.6 -9.2 28.7 -0.1c27.5 27.5 55 55 82.5 82.6c9.4 9.5 9.5 19.8 0.1 29.2c-26.8 26.8 -53.6 53.6 -80.4 80.5c-3.8 3.8 -7.8 7.3 -13.1 8.8l-7.2 0.1l0 0z" style="animation-name: eaf-11d0b-7;"></path><path fill="#31afe1" fill-opacity="0" fill-rule="evenodd" d="m239.7 250.8c0 -30.6 0.3 -61.2 -0.2 -91.8c-0.1 -8.9 2 -15.8 8.7 -21.6c5.4 -4.7 10.3 -10.1 15.4 -15.2c20.2 -20.2 40.3 -40.4 60.5 -60.5c9.5 -9.5 19.7 -9.5 29.2 0c27.4 27.4 54.9 54.9 82.3 82.3c9.4 9.4 9.4 19.8 0 29.2c-32.4 32.5 -64.9 64.9 -97.3 97.4c-28.7 28.7 -57.3 57.4 -86 86c-5.3 5.3 -10 4.1 -11.9 -3.3c-0.6 -2.3 -0.6 -4.7 -0.6 -7.1c-0.1001 -31.8 -0.1001 -63.6 -0.1001 -95.4" style="animation-name: eaf-11d0b-8;"></path><path fill="#31afe1" fill-opacity="0" fill-rule="evenodd" d="m174.1 317.1c0 28.1 0 56.2 -0.1 84.3c0 2.7 -0.4 5.5 -1.4 8c-1.9 4.9 -5.4 5.5 -9.1 1.8c-12.9 -12.9 -25.8 -25.8 -38.7 -38.7c-14.9 -14.9 -29.8 -29.9 -44.7 -44.8c-6.2 -6.2 -6.2 -14.8 -0.1 -21c27.4 -27.7 54.9 -55.5 82.3 -83.2c1.8 -1.8 3.5 -4.3 6.6 -3.2c2.9 1.1 4.1 3.8 4.5 6.7c0.3 1.8 0.5 3.7 0.5 5.5c0.2 28.2 0.2 56.4 0.2 84.6l0 0z" style="animation-name: eaf-11d0b-9;"></path></g></g></g></svg>

