<svg xmlns="http://www.w3.org/2000/svg" viewBox="0 0 500 500" overflow="hidden" preserveAspectRatio="xMidYMid meet" id="eaf-13984-0"><defs><clipPath id="eaf-13984-1"><rect x="0" y="0" width="500" height="500"></rect></clipPath><radialGradient gradientUnits="userSpaceOnUse" cx="137.532" cy="76.36" r="36.1612" id="eaf-13984-2"><stop stop-color="#ffe099" offset="0"></stop><stop stop-color="#ffc02e" offset="0.85"></stop><stop stop-color="#f4b526" offset="1"></stop></radialGradient><style>#eaf-13984-0 * {animation: 16000ms linear infinite normal both running;offset-rotate:0deg}@keyframes eaf-13984-3{0%,100%{transform:none;offset-path:path("m254.05 539.2224l-0.0756 -604.8868")}}@keyframes eaf-13984-4{0%{offset-distance:0%}100%{offset-distance:100%}}@keyframes eaf-13984-5{0%,100%{transform:translate(-150.5729px,-452.3324px)}}@keyframes eaf-13984-6{0%,100%{transform:none;offset-path:path("m136.05 74.95l0 0l0 132.0205l0 0l0 -132.0205l0 -21.959")}}@keyframes eaf-13984-7{0%{offset-distance:0%}77.29%{offset-distance:0%;animation-timing-function:linear(0 0%,0.02 5%,0.06 9%,0.25 19%,0.58 29%,1 38.14%,0.65 47%,0.55 52%,0.52 56%,0.56 61%,0.63 65%,1 74.47%,0.82 79%,0.77 83%,0.82 87%,1 91.76%,0.91 94%,0.89 96%,1 100%)}86.88%{offset-distance:46.161%}90.21%{offset-distance:46.161%;animation-timing-function:linear(0 0%,0.42 9%,0.73 18%,0.94 27%,1.09 37%,1.15 46%,1.16 57%,1.13 67%,1.02 89%,1 100%)}97.91%,100%{offset-distance:92.322%}}@keyframes eaf-13984-8{0%{transform:rotate(0)}19.17%{transform:rotate(0);animation-timing-function:ease-in-out}50.21%{transform:rotate(360deg)}62.71%{transform:rotate(360deg);animation-timing-function:ease-in-out}68.96%{transform:rotate(432deg)}71.46%{transform:rotate(432deg);animation-timing-function:ease-in-out}73.96%,100%{transform:rotate(360deg)}}@keyframes eaf-13984-9{0%,100%{transform:translate(-136.05px,-74.95px)}}</style></defs><g clip-path="url('#eaf-13984-1')" style="isolation: isolate;"><g><g transform="matrix(4 0 0 4 -827.28 -2254.5264)"><path fill="#f3582c" d="m331.7 626.4c0 15.6 0 31.3 0 46.9c0 7.2 -5.4 13.7 -12.5 15.1c-1 0.2 -2.1 0.3 -3.2 0.3c-31.2 0 -62.4 0 -93.6 0c-7.6 0 -14.3 -5.9 -15.3 -13.5c-0.1 -0.7 -0.1 -1.4 -0.1 -2c0 -31.3 0 -62.5 0 -93.8c0 -7.2 5.4 -13.7 12.5 -15.1c1 -0.2 2.1 -0.3 3.2 -0.3c31.2 0 62.4 0 93.6 0c7.2 0 13.7 5.4 15.1 12.5c0.2 1 0.3 2.1 0.3 3.2c0 15.5999 0 31.0999 0 46.7z"></path></g><path fill="#ffffff" d="m262.9 432.6c-0.1 -2.9 -0.3 -4.5 -0.3 -6c0 -63.4 0.1 -253.5 -0.1 -317c0 -4.5 1.5 -7.7 4.8 -10.8c30 -28.6 67.3 -44.5 109.1 -52.3c14.1 -2.6 50.4 -3.9 65.3 -5.9c0 70.9 0 267.3 0 337.7c-28.3 1.2 -77.9 5.6 -104.8 14.3c-27 8.8 -51.5 21.6 -74 40z"></path><path fill="#ebebeb" d="m243.5 432.6c-45.9 -37 -118.9 -51.6 -177.1 -54.5c0 -70.1 0 -266.4 0 -337.4c13.1 1.5 45.4 2.5 57.8 4.6c41.7 7 79.2 22 110.2 49.3c6.4 5.6 9.3 11.4 9.2 19.8c-0.4 61.1 -0.2 248.9 -0.2 310.1c0.1 2.2 0.1 4.4 0.1 8.1z"></path><g style="filter: blur(15px);"><polygon points="224.9,86.9 224.9,432.6 252.2,441.7 277,429.6 277,86.9 252.2,101.6" fill="#000" fill-opacity="0.31"></polygon></g><g transform="translate(103.4772 86.89)" style="animation-name: eaf-13984-3, eaf-13984-4, eaf-13984-5; animation-composition: replace, add, add;"><path fill="#749bb0" d="m301.15 5.61c-0.3 4.7 -3.6 6 -7.9 6.5c-21.3 2.3 -42.1 6.7 -61.4 15.3c-11.8 5.2 -22.8 11.9 -34 18.3c-3.9 2.2 -7.3 3.6 -10.8 0.1c-2.9 -3 -1.8 -6.6 2.9 -9.9c28 -19.4 59.9 -30 94.4 -34.8c3.3 -0.5 6.6 -1 9.9 -1.1c4.2 -0.2 6.5 2 6.9 5.6z"></path><path fill="#749bb0" d="m9.55 0.11c36.3 4.2 71.5 14.8 102.2 36.2c3.5 2.5 5.2 5.4 2.5 9.2c-2.2 3.2 -6.4 3.3 -10.7 0.3c-28.1 -19.5 -60.2 -29.5 -94.8 -33.7c-0.6 -0.1 -1.1 -0.1 -1.7 -0.1c-4.5 -0.4 -7.5 -2.4 -7 -6.9c0.5 -4.2 3.8 -5.4 9.5 -5z"></path><path fill="#749bb0" d="m301.15 56.01c-0.3 4.7 -3.6 6 -7.9 6.5c-21.3 2.3 -42.1 6.7 -61.4 15.3c-11.8 5.2 -22.8 11.9 -34 18.3c-3.9 2.2 -7.3 3.6 -10.8 0.1c-2.9 -3 -1.8 -6.6 2.9 -9.9c28 -19.4 59.9 -30 94.4 -34.8c3.3 -0.5 6.6 -1 9.9 -1.1c4.2 -0.2 6.5 2 6.9 5.6z"></path><path fill="#749bb0" d="m9.55 50.51c36.3 4.2 71.5 14.8 102.2 36.2c3.5 2.5 5.2 5.4 2.5 9.2c-2.2 3.2 -6.4 3.3 -10.7 0.3c-28.1 -19.5 -60.2 -29.5 -94.8 -33.7c-0.6 -0.1 -1.1 -0.1 -1.7 -0.1c-4.5 -0.4 -7.5 -2.4 -7 -6.9c0.5 -4.2 3.8 -5.4 9.5 -5z"></path><path fill="#749bb0" d="m301.15 106.4c-0.3 4.7 -3.6 6 -7.9 6.5c-21.3 2.3 -42.1 6.7 -61.4 15.3c-11.8 5.2 -22.8 11.9 -34 18.3c-3.9 2.2 -7.3 3.6 -10.8 0.1c-2.9 -3 -1.8 -6.6 2.9 -9.9c28 -19.4 59.9 -30 94.4 -34.8c3.3 -0.5 6.6 -1 9.9 -1.1c4.2 -0.2 6.5 2 6.9 5.6z"></path><path fill="#749bb0" d="m9.55 100.9c36.3 4.2 71.5 14.8 102.2 36.2c3.5 2.5 5.2 5.4 2.5 9.2c-2.2 3.2 -6.4 3.3 -10.7 0.3c-28.1 -19.5 -60.2 -29.5 -94.8 -33.7c-0.6 -0.1 -1.1 -0.1 -1.7 -0.1c-4.5 -0.4 -7.5 -2.4 -7 -6.9c0.5 -4.2 3.8 -5.4 9.5 -5z"></path><path fill="#749bb0" d="m301.15 156.79c-0.3 4.7 -3.6 6 -7.9 6.5c-21.3 2.3 -42.1 6.7 -61.4 15.3c-11.8 5.2 -22.8 11.9 -34 18.3c-3.9 2.2 -7.3 3.6 -10.8 0.1c-2.9 -3 -1.8 -6.6 2.9 -9.9c28 -19.4 59.9 -30 94.4 -34.8c3.3 -0.5 6.6 -1 9.9 -1.1c4.2 -0.2 6.5 2 6.9 5.6l0 0z"></path><path fill="#749bb0" d="m9.55 151.29c36.3 4.2 71.5 14.8 102.2 36.2c3.5 2.5 5.2 5.4 2.5 9.2c-2.2 3.2 -6.4 3.3 -10.7 0.3c-28.1 -19.5 -60.2 -29.5 -94.8 -33.7c-0.6 -0.1 -1.1 -0.1 -1.7 -0.1c-4.5 -0.4 -7.5 -2.4 -7 -6.9c0.5 -4.2 3.8 -5.4 9.5 -5z"></path><path fill="#749bb0" d="m301.15 207.18c-0.3 4.7 -3.6 6 -7.9 6.5c-21.3 2.3 -42.1 6.7 -61.4 15.3c-11.8 5.2 -22.8 11.9 -34 18.3c-3.9 2.2 -7.3 3.6 -10.8 0.1c-2.9 -3 -1.8 -6.6 2.9 -9.9c28 -19.4 59.9 -30 94.4 -34.8c3.3 -0.5 6.6 -1 9.9 -1.1c4.2 -0.2 6.5 2 6.9 5.6l0 0z"></path><path fill="#749bb0" d="m9.55 201.68c36.3 4.2 71.5 14.8 102.2 36.2c3.5 2.5 5.2 5.4 2.5 9.2c-2.2 3.2 -6.4 3.3 -10.7 0.3c-28.1 -19.5 -60.2 -29.5 -94.8 -33.7c-0.6 -0.1 -1.1 -0.1 -1.7 -0.1c-4.5 -0.4 -7.5 -2.4 -7 -6.9c0.5 -4.2 3.8 -5.4 9.5 -5z"></path><path fill="#749bb0" d="m301.15 257.58c-0.3 4.7 -3.6 6 -7.9 6.5c-21.3 2.3 -42.1 6.7 -61.4 15.3c-11.8 5.2 -22.8 11.9 -34 18.3c-3.9 2.2 -7.3 3.6 -10.8 0.1c-2.9 -3 -1.8 -6.6 2.9 -9.9c28 -19.4 59.9 -30 94.4 -34.8c3.3 -0.5 6.6 -1 9.9 -1.1c4.2 -0.2 6.5 2 6.9 5.6l0 0z"></path><path fill="#749bb0" d="m9.55 252.08c36.3 4.2 71.5 14.8 102.2 36.2c3.5 2.5 5.2 5.4 2.5 9.2c-2.2 3.2 -6.4 3.3 -10.7 0.3c-28.1 -19.5 -60.2 -29.5 -94.8 -33.7c-0.6 -0.1 -1.1 -0.1 -1.7 -0.1c-4.5 -0.4 -7.5 -2.4 -7 -6.9c0.5 -4.2 3.8 -5.4 9.5 -5l0 0z"></path><path fill="#749bb0" d="m9.55 302.47c36.3 4.2 71.5 14.8 102.2 36.2c3.5 2.5 5.2 5.4 2.5 9.2c-2.2 3.2 -6.4 3.3 -10.7 0.3c-28.1 -19.5 -60.2 -29.5 -94.8 -33.7c-0.6 -0.1 -1.1 -0.1 -1.7 -0.1c-4.5 -0.4 -7.5 -2.4 -7 -6.9c0.5 -4.2 3.8 -5.4 9.5 -5z"></path><path fill="#749bb0" d="m9.55 352.86c36.3 4.2 71.5 14.8 102.2 36.2c3.5 2.5 5.2 5.4 2.5 9.2c-2.2 3.2 -6.4 3.3 -10.7 0.3c-28.1 -19.5 -60.2 -29.5 -94.8 -33.7c-0.6 -0.1 -1.1 -0.1 -1.7 -0.1c-4.5 -0.4 -7.5 -2.4 -7 -6.9c0.5 -4.2 3.8 -5.4 9.5 -5z"></path><path fill="#749bb0" d="m9.55 403.26c36.3 4.2 71.5 14.8 102.2 36.2c3.5 2.5 5.2 5.4 2.5 9.2c-2.2 3.2 -6.4 3.3 -10.7 0.3c-28.1 -19.5 -60.2 -29.5 -94.8 -33.7c-0.6 -0.1 -1.1 -0.1 -1.7 -0.1c-4.5 -0.4 -7.5 -2.4 -7 -6.9c0.5 -4.2 3.8 -5.4 9.5 -5z"></path><path fill="#749bb0" d="m301.15 459.15c-0.3 4.7 -3.6 6 -7.9 6.5c-21.3 2.3 -42.1 6.7 -61.4 15.3c-11.8 5.2 -22.8 11.9 -34 18.3c-3.9 2.2 -7.3 3.6 -10.8 0.1c-2.9 -3 -1.8 -6.6 2.9 -9.9c28 -19.4 59.9 -30 94.4 -34.8c3.3 -0.5 6.6 -1 9.9 -1.1c4.2 -0.2 6.5 2 6.9 5.6z"></path><path fill="#749bb0" d="m9.55 453.65c36.3 4.2 71.5 14.8 102.2 36.2c3.5 2.5 5.2 5.4 2.5 9.2c-2.2 3.2 -6.4 3.3 -10.7 0.3c-28.1 -19.5 -60.2 -29.5 -94.8 -33.7c-0.6 -0.1 -1.1 -0.1 -1.7 -0.1c-4.5 -0.4 -7.5 -2.4 -7 -6.9c0.5 -4.2 3.8 -5.4 9.5 -5z"></path><path fill="#749bb0" d="m301.15 509.54c-0.3 4.7 -3.6 6 -7.9 6.5c-21.3 2.3 -42.1 6.7 -61.4 15.3c-11.8 5.2 -22.8 11.9 -34 18.3c-3.9 2.2 -7.3 3.6 -10.8 0.1c-2.9 -3 -1.8 -6.6 2.9 -9.9c28 -19.4 59.9 -30 94.4 -34.8c3.3 -0.5 6.6 -1 9.9 -1.1c4.2 -0.2 6.5 2 6.9 5.6l0 0z"></path><path fill="#749bb0" d="m9.55 504.04c36.3 4.2 71.5 14.8 102.2 36.2c3.5 2.5 5.2 5.4 2.5 9.2c-2.2 3.2 -6.4 3.3 -10.7 0.3c-28.1 -19.5 -60.2 -29.5 -94.8 -33.7c-0.6 -0.1 -1.1 -0.1 -1.7 -0.1c-4.5 -0.4 -7.5 -2.4 -7 -6.9c0.5 -4.2 3.8 -5.4 9.5 -5z"></path><path fill="#749bb0" d="m301.15 559.93c-0.3 4.7 -3.6 6 -7.9 6.5c-21.3 2.3 -42.1 6.7 -61.4 15.3c-11.8 5.2 -22.8 11.9 -34 18.3c-3.9 2.2 -7.3 3.6 -10.8 0.1c-2.9 -3 -1.8 -6.6 2.9 -9.9c28 -19.4 59.9 -30 94.4 -34.8c3.3 -0.5 6.6 -1 9.9 -1.1c4.2 -0.2 6.5 2 6.9 5.6l0 0.0001z"></path><path fill="#749bb0" d="m9.55 554.43c36.3 4.2 71.5 14.8 102.2 36.2c3.5 2.5 5.2 5.4 2.5 9.2c-2.2 3.2 -6.4 3.3 -10.7 0.3c-28.1 -19.5 -60.2 -29.5 -94.8 -33.7c-0.6 -0.1 -1.1 -0.1 -1.7 -0.1c-4.5 -0.4 -7.5 -2.4 -7 -6.9c0.5 -4.2 3.8 -5.4 9.5 -5z"></path><path fill="#749bb0" d="m301.15 610.33c-0.3 4.7 -3.6 6 -7.9 6.5c-21.3 2.3 -42.1 6.7 -61.4 15.3c-11.8 5.2 -22.8 11.9 -34 18.3c-3.9 2.2 -7.3 3.6 -10.8 0.1c-2.9 -3 -1.8 -6.6 2.9 -9.9c28 -19.4 59.9 -30 94.4 -34.8c3.3 -0.5 6.6 -1 9.9 -1.1c4.2 -0.2 6.5 2 6.9 5.6l0 0.0001z"></path><path fill="#749bb0" d="m9.55 604.83c36.3 4.2 71.5 14.8 102.2 36.2c3.5 2.5 5.2 5.4 2.5 9.2c-2.2 3.2 -6.4 3.3 -10.7 0.3c-28.1 -19.5 -60.2 -29.5 -94.8 -33.7c-0.6 -0.1 -1.1 -0.1 -1.7 -0.1c-4.5 -0.4 -7.5 -2.4 -7 -6.9c0.5 -4.2 3.8 -5.4 9.5 -5z"></path><path fill="#749bb0" d="m301.15 660.72c-0.3 4.7 -3.6 6 -7.9 6.5c-21.3 2.3 -42.1 6.7 -61.4 15.3c-11.8 5.2 -22.8 11.9 -34 18.3c-3.9 2.2 -7.3 3.6 -10.8 0.1c-2.9 -3 -1.8 -6.6 2.9 -9.9c28 -19.4 59.9 -30 94.4 -34.8c3.3 -0.5 6.6 -1 9.9 -1.1c4.2 -0.2 6.5 2 6.9 5.6l0 0.0001z"></path><path fill="#749bb0" d="m9.55 655.22c36.3 4.2 71.5 14.8 102.2 36.2c3.5 2.5 5.2 5.4 2.5 9.2c-2.2 3.2 -6.4 3.3 -10.7 0.3c-28.1 -19.5 -60.2 -29.5 -94.8 -33.7c-0.6 -0.1 -1.1 -0.1 -1.7 -0.1c-4.5 -0.4 -7.5 -2.4 -7 -6.9c0.5 -4.2 3.8 -5.4 9.5 -5z"></path><path fill="#749bb0" d="m301.15 711.11c-0.3 4.7 -3.6 6 -7.9 6.5c-21.3 2.3 -42.1 6.7 -61.4 15.3c-11.8 5.2 -22.8 11.9 -34 18.3c-3.9 2.2 -7.3 3.6 -10.8 0.1c-2.9 -3 -1.8 -6.6 2.9 -9.9c28 -19.4 59.9 -30 94.4 -34.8c3.3 -0.5 6.6 -1 9.9 -1.1c4.2 -0.2 6.5 2 6.9 5.6l0 0.0001z"></path><path fill="#749bb0" d="m9.55 705.61c36.3 4.2 71.5 14.8 102.2 36.2c3.5 2.5 5.2 5.4 2.5 9.2c-2.2 3.2 -6.4 3.3 -10.7 0.3c-28.1 -19.5 -60.2 -29.5 -94.8 -33.7c-0.6 -0.1 -1.1 -0.1 -1.7 -0.1c-4.5 -0.4 -7.5 -2.4 -7 -6.9c0.5 -4.2 3.8 -5.4 9.5 -5z"></path><path fill="#749bb0" d="m301.15 761.51c-0.3 4.7 -3.6 6 -7.9 6.5c-21.3 2.3 -42.1 6.7 -61.4 15.3c-11.8 5.2 -22.8 11.9 -34 18.3c-3.9 2.2 -7.3 3.6 -10.8 0.1c-2.9 -3 -1.8 -6.6 2.9 -9.9c28 -19.4 59.9 -30 94.4 -34.8c3.3 -0.5 6.6 -1 9.9 -1.1c4.2 -0.2 6.5 2 6.9 5.6l0 0.0001z"></path><path fill="#749bb0" d="m9.55 756.01c36.3 4.2 71.5 14.8 102.2 36.2c3.5 2.5 5.2 5.4 2.5 9.2c-2.2 3.2 -6.4 3.3 -10.7 0.3c-28.1 -19.5 -60.2 -29.5 -94.8 -33.7c-0.6 -0.1 -1.1 -0.1 -1.7 -0.1c-4.5 -0.4 -7.5 -2.4 -7 -6.9c0.5 -4.2 3.8 -5.4 9.5 -5z"></path><path fill="#749bb0" d="m301.15 811.9c-0.3 4.7 -3.6 6 -7.9 6.5c-21.3 2.3 -42.1 6.7 -61.4 15.3c-11.8 5.2 -22.8 11.9 -34 18.3c-3.9 2.2 -7.3 3.6 -10.8 0.1c-2.9 -3 -1.8 -6.6 2.9 -9.9c28 -19.4 59.9 -30 94.4 -34.8c3.3 -0.5 6.6 -1 9.9 -1.1c4.2 -0.2 6.5 2 6.9 5.6l0 0.0001z"></path><path fill="#749bb0" d="m9.55 806.4c36.3 4.2 71.5 14.8 102.2 36.2c3.5 2.5 5.2 5.4 2.5 9.2c-2.2 3.2 -6.4 3.3 -10.7 0.3c-28.1 -19.5 -60.2 -29.5 -94.8 -33.7c-0.6 -0.1 -1.1 -0.1 -1.7 -0.1c-4.5 -0.4 -7.5 -2.4 -7 -6.9c0.5 -4.2 3.8 -5.4 9.5 -5z"></path><path fill="#749bb0" d="m301.15 862.29c-0.3 4.7 -3.6 6 -7.9 6.5c-21.3 2.3 -42.1 6.7 -61.4 15.3c-11.8 5.2 -22.8 11.9 -34 18.3c-3.9 2.2 -7.3 3.6 -10.8 0.1c-2.9 -3 -1.8 -6.6 2.9 -9.9c28 -19.4 59.9 -30 94.4 -34.8c3.3 -0.5 6.6 -1 9.9 -1.1c4.2 -0.2 6.5 2 6.9 5.6l0 0.0001z"></path><path fill="#749bb0" d="m9.55 856.79c36.3 4.2 71.5 14.8 102.2 36.2c3.5 2.5 5.2 5.4 2.5 9.2c-2.2 3.2 -6.4 3.3 -10.7 0.3c-28.1 -19.5 -60.2 -29.5 -94.8 -33.7c-0.6 -0.1 -1.1 -0.1 -1.7 -0.1c-4.5 -0.4 -7.5 -2.4 -7 -6.9c0.5 -4.2 3.8 -5.4 9.5 -5z"></path><path fill="#749bb0" d="m294.25 403.16c-3.3 0.1 -6.6 0.6 -9.9 1.1c-13.6 1.89 -26.78 4.7 -39.49 8.58l0 -88.16c15.51 -5.33 31.8 -8.41 48.39 -10.2c4.3 -0.5 7.6 -1.8 7.9 -6.5c-0.4 -3.6 -2.7 -5.8 -6.9 -5.6c-3.3 0.1 -6.6 0.6 -9.9 1.1c-34.5 4.8 -66.4 15.4 -94.4 34.8c-2.85 2 -4.37 4.12 -4.48 6.14l0 0c0 0.15 0 0.29 0 0.43l0 100.35l0 0c-0.07 1.31 0.44 2.58 1.58 3.76c3.5 3.5 6.9 2.1 10.8 -0.1c11.2 -6.4 22.2 -13.1 34 -18.3c19.3 -8.6 40.1 -13 61.4 -15.3c4.3 -0.5 7.6 -1.8 7.9 -6.5c-0.4 -3.6 -2.7 -5.8 -6.9 -5.6l0 0z"></path><path fill="#749bb0" d="m294.25 352.76c-3.3 0.1 -6.6 0.6 -9.9 1.1c-6.61 0.92 -13.12 2.06 -19.53 3.42l0 12.17c9.31 -2.09 18.82 -3.56 28.43 -4.59c4.3 -0.5 7.6 -1.8 7.9 -6.5c-0.4 -3.6 -2.7 -5.8 -6.9 -5.6l0 0z"></path></g><path fill="#5ea5cc" d="m472.2 102.4l-6.6 -43.7l-7.6 0l-7 -20.5l-79.9 5l-37 15.4c11.3 -3.8 23.3 -7 36.1 -9.4c9.4 -1.7 18.6 -2.8 28.5 -4c4.4 -0.5 30.8 -1.1 35.3 -1.6l3.4 -0.4l0 332.3l-2.9 0.1c-28.8 1.2 -76.4 5.7 -100.8 13.6c-26.6 8.7 -49.6 21.1 -70.1 37.9l-4.6 3.7l-0.3 -6c-0.1 -1 -0.1 -1.8 -0.1 -2.6c-0.1 -1.4 -0.1 -2.3 -0.1 -3.4l0 -47.2c0 -69.5 0 -210.3 -0.1 -258.7c0 -5 1.7 -8.9 5.6 -12.6c12.8 -12.2 27.3 -22.4 43.5 -30.6l-24.5 10.2l-25.7 24.6l-31.3 -26.4l-36.4 -18.2l-24.6 -7.8l-23.5 -8.7l-53.7 -3.7l-30.7 1.4l-6.9 18.4l-8 2l-8.2 40.9l-7.9 5.9l0 287.7l14.6 31.7l47.2 6.4l83.3 17.1l31.4 16.8l28.5 -22.8l62.4 16.4l17.1 2.9l70.6 -25.3l84.1 -11.4l13.5 -16l3.2 -296.6l-9.8 -12.8zm-226.2 269.9c0 17.5 0 32.9 0 44.7l0 14.2l-4.9 -3.9c-39.9 -32.1 -107.2 -48.6 -169.2 -51.7l-2.9 -0.1l0 -332l3.3 0.4c4 0.5 15.4 0.9 19.2 1.3c8.6 0.9 29 1.7 37.3 3.1c44 7.4 79.1 23.1 107.4 48c7 6.2 10 12.6 9.9 21.4c-0.2 46.8 -0.2 186.1 -0.1 254.6z"></path><path fill="#f3582c" d="m499.4 64.1c0 -4.4 -0.4 -8.8 -1.2 -12.8c-5.6 -28.4 -31.6 -50 -60.4 -50c-124.8 0 -249.6 0 -374.4 0c-4.4 0 -8.8 0.4 -12.8 1.2c-28.4 5.6 -50 31.6 -50 60.4c0 125.2 0 250 0 375.2c0 2.4 0 5.2 0.4 8c4 30.4 30.8 54 61.2 54c124.8 0 249.6 0 374.4 0c4.4 0 8.8 -0.4 12.8 -1.2c28.4 -5.6 50 -31.6 50 -60.4c0 -62.4 0 -125.2 0 -187.6c0 -62.4 0 -124.4 0 -186.8zm-13.8 44.3c-0.1 0.6 -0.1 1.2 -0.1 1.8c0 58.3 0 210.5 0 292.6l-3.4 12.9l-0.8 3.4l-2.4 2.6l-5.5 6l-1.7 1.9l-2.3 1.1l-8.5 4.1l-1.4 0.7l-1.5 0.3l-13.7 2.9l-0.8 0.2l-0.9 0.1l-18.2 1.4l-17.1 1.3l-17.5 2.1l-17.3 2.9l-11.2 2.6l-16.2 5.2l-14.3 6.3l-8.9 4.9l-1.6 5c-0.4 1.3 -1.2 2.5 -2.3 3.4l-1.6 1.3c-1 0.8 -2.2 1.3 -3.5 1.4l-2.8 0.3c-1.4 0.2 -2.7 -0.1 -4 -0.7l-4 -2c-1 -0.5 -1.9 -1.2 -2.7 -1.9l-3.6 -3.6c-6.5 -7.3 -23.2 -12.5 -42.8 -12.5c-19.7 0 -36.5 5.3 -42.9 12.7l-5.8 3.6c-1.1 0.7 -2.3 1.1 -3.5 1.4l-3.8 0.7c-1.2 0.2 -2.4 0 -3.4 -0.6l-3.2 -1.9c-1 -0.6 -1.9 -1.3 -2.6 -2.2l-3.5 -4.3l-8.8 -4.9c0 0 -0.1 0 -0.1 -0.1l-14.2 -6.2c-0.1 0 -0.1 0 -0.2 -0.1l-16 -5.2c0 0 -0.1 0 -0.1 0l-11.1 -2.6c0 0 -0.1 0 -0.1 0l-17.2 -2.9l-17.5 -2.1l-17 -1.4l-18.2 -1.4l-0.9 -0.1l-0.8 -0.2l-13.7 -2.9l-0.4 -0.1c-0.7 -0.2 -1.4 -0.5 -2.2 -0.7l-0.4 -0.2l-8.5 -4.1l-0.7 -0.3c-1.1 -0.5 -2 -1.2 -2.8 -2.1l-0.5 -0.6l-5.5 -6l-0.6 -0.6c-1.2 -1.3 -2 -2.8 -2.4 -4.5l-0.2 -0.8l-3.4 -12.8c0 -0.2 -0.1 -0.4 -0.2 -0.5c0 -44.4 0 -105.2 0 -159.4l0 -131.7c0 -2.8 0 -6.9 0.9 -7.8c1.1 -1 5.7 -1 8.8 -1l3.6 0l8.2 -40.8c0 -0.4 0 -0.9 -0.1 -1.3c0 -0.3 0 -0.6 -0.1 -0.9l0.1 -0.1c0.9 -1 3.2 -3.2 4.1 -3.3c0 0 1.2 0.2 4 3.6l6.9 -18.4c0 -6.3 1.6 -7.8 7.9 -7.8c0.2 0 0.4 0 0.6 0c68.7 1.3 141.8 20.3 183.1 57.8c0.4 0.4 0.9 0.8 1.7 1.4c0.5 0.4 1.1 0.9 1.9 1.6l2.4 2l1.9 -2.5c0.6 -0.8 1.1 -1.5 1.6 -2.2c0.9 -1.4 1.8 -2.7 2.9 -3.6c30.2 -26.8 67.7 -43.3 114.4 -50.7c13.9 -2.2 50.3 -2.9 64.4 -3.7l2 -0.1c0.6 0 1.2 -0.1 1.8 -0.1c4.9 0 6.8 1 7.3 4.8l0 0l7 20.5c0.1 -1.4 0.6 -3 3.6 -3.1c0.1 0 0.3 0 0.4 0c2.2 0 3.3 0.9 3.7 3.2l6.6 43.7c0.4 0 0.9 0 1.3 -0.1c1.3 -0.1 2.5 -0.1 3.7 -0.1c1.8 0 3.2 0.1 4.3 0.4c1.4 0.3 3.4 3.1 4.1 4.2c0.1 0.3 0.1 1 0 1.5z"></path><g style="filter: drop-shadow(rgba(0, 0, 0, 0.42) 0px 4px 2px);"><path fill="#000000" d="m485.7 106.9c-0.8 -1.1 -2.7 -3.9 -4.1 -4.2c-1.2 -0.3 -2.6 -0.4 -4.3 -0.4c-1.2 0 -2.4 0.1 -3.7 0.1c-0.4 0 -0.9 0 -1.3 0.1c0 0 0 72.7 0 95.2c0 62.6 0 148.4 0 186.4c0 25.3 5.9 40.9 -46 43.2c-16.6 0.7 -33.3 2.5 -49.8 5.4c-27.8 4.8 -51.1 14.1 -71.1 28.4l-2 -0.4l-2.6 -1.4c-3.1 -8.8 -3 -10.8 5.1 -15.8l0.3 -0.2c8.2 -5 16.7 -10.2 25.8 -14.1c26.1 -11.2 65 -16.7 102.4 -17.2c19.7 -0.3 31.4 -11.2 31.5 -29.3c0 -61.4 0 -233.2 0 -306.3l0 -13.5c0 -0.3 0 -0.7 0 -1c0 -1.1 0 -2.2 -0.1 -3.1c-0.4 -2.2 -1.5 -3.2 -3.7 -3.2c-0.1 0 -0.3 0 -0.4 0c-2.9 0.2 -3.4 1.7 -3.6 3.1c-0.1 1.1 -0.1 2.2 -0.1 3.4c0 0.5 0 0.9 0 1.4l0 90.7c0 68.6 0 184.8 0 227.6c0 15.4 -8.4 23.4 -25 23.6c-30.6 0.4 -66.7 4.5 -91.3 12.8c-17.5 5.8 -33 13.9 -46.2 23.9l-1.2 0.9l-16.1 -5l-3.6 -1.1l1.8 -3.3l0.1 -0.1c0.2 -0.5 0.6 -1.4 1.5 -2.1c0.8 -0.6 1.6 -1.2 2.4 -1.8c2.5 -1.9 5.1 -3.8 7.8 -5.6c36.7 -23.9 101.5 -36.1 153.2 -37.3c9.2 -0.2 10 -1.6 10 -8.7c0 -71 0 -265.1 0 -336.2c0 -7 -1.3 -8.5 -7.6 -8.5c-0.6 0 -1.2 0 -1.8 0.1l-2 0.1c-14 0.7 -50.4 1.5 -64.4 3.7c-46.7 7.3 -84.1 23.9 -114.4 50.7c-1 0.9 -1.9 2.2 -2.9 3.6c-0.5 0.7 -1 1.5 -1.6 2.2l-1.9 2.5l-2.4 -2c-0.8 -0.7 -1.5 -1.2 -1.9 -1.6c-0.8 -0.7 -1.3 -1 -1.7 -1.4c-41.3999 -37.6 -114.4999 -56.5 -183.1999 -57.9c-0.2 0 -0.4 0 -0.6 0c-6.3 0 -7.9 1.5 -7.9 7.8c0 8.4 0 16.9 0 25.3l0 60c0 70.1 0 205.6 0 252.3c0 5.8 1.1 7.5 8.7 7.9c1.7 0.1 3.5 0.2 5.2 0.3c11.5 0.6 43.1 1.3 54.6 3c39.4 5.9 72 18.6 99.4 39c1.1 0.8 2.1 1.7 3.1 2.5c0.4 0.4 0.9 0.8 1.4 1.2l4.4 3.7l-5.5 1.6c-1.4 0.4 -2.7 0.7 -3.9 1.1c-2.6 0.7 -4.8 1.2 -6.7 2.2c-1.6 0.8 -2.9 1.2 -4.3 1.2c-2.1 0 -3.9 -0.9 -5.3 -1.8c-2.1 -1.3 -4.2 -2.5 -6.4 -3.8c-7.7 -4.7 -15.8 -9.5 -24.1 -13.2c-26.6 -11.7 -56.8 -17.4 -95 -18.1c-17 -0.3 -32.7 -8.1 -32.7 -23.8c0 -38.3 0 -106.6 0 -169.7l0 -149.1c0 -0.7 0.1 -1.3 0.1 -1.9c0 -0.4 0.1 -1.1 0.1 -1.4c-2.8 -3.5 -4 -3.6 -4 -3.6c-0.9 0.1 -3.1 2.3 -4.1 3.3l-0.1 0.1c0 0.3 0 0.6 0.1 0.9c0 0.5 0.1 0.9 0.1 1.3l0 18.9c0 72.2 0 242.4 0 302.9c0 16.9 12.3 28.2 31.2 28.7c11.8 0.3 31.9 0.9 44.3 2.4c32.8 4 59.8 13.4 82.6 28.7c4.3 2.9 9.5 7.7 5 16.3l-1.9 1l-2.2 0.2c-1.9 -1.1 -3.8 -2.3 -5.8 -3.5c-4 -2.4 -8.1 -4.9 -12.3 -7c-28.9 -14.5 -61.9 -22.1 -100.8 -23.1c-49.7 -1.4001 -48.3 -17.5001 -48.3 -45.1001c0 -43.7 0 -187.5 0 -249.5l0 -30.1l-3.6 0c-3.1 0 -7.7 0 -8.8 1c-0.9 0.9 -0.9 5 -0.9 7.8l0 131.7c0 54.2 0 115 0 159.4c0.1 0.2 0.2 0.3 0.2 0.5l3.4 12.8l0.2 0.8c0.4 1.7 1.2 3.3 2.4 4.5l0.6 0.6l5.5 6l0.5 0.6c0.8 0.9 1.7 1.6 2.8 2.1l0.7 0.3l8.5 4.1l0.4 0.2c0.7 0.2 1.4 0.5 2.2 0.7l0.4 0.1l13.7 2.9l0.8 0.2l0.9 0.1l18.2 1.4l17.1 1.3l17.5 2.1l17.2 2.9c0 0 0.1 0 0.1 0l11.1 2.6c0 0 0.1 0 0.1 0l16 5.2c0.1 0 0.1 0 0.2 0.1l14.2 6.2c0 0 0.1 0 0.1 0.1l8.8 4.9l3.5 4.3c0.7 0.9 1.6 1.7 2.6 2.2l3.2 1.9c1 0.6 2.2 0.8 3.4 0.6l3.8 -0.7c1.2 -0.2 2.4 -0.7 3.5 -1.4l5.8 -3.6c6.4 -7.4 23.2 -12.7 42.9 -12.7c19.6 0 36.3 5.2 42.8 12.5l3.6 3.6c0.8 0.8 1.7 1.5 2.7 1.9l4 2c1.2 0.6 2.6 0.8 4 0.7l2.8 -0.3c1.3 -0.1 2.5 -0.7 3.5 -1.4l1.6 -1.3c1.1 -0.9 1.9 -2 2.3 -3.4l1.6 -5l8.9 -4.9l14.3 -6.3l16.2 -5.2l11.2 -2.6l17.3 -2.9l17.5 -2.1l17.1 -1.3l18.2 -1.4l0.9 -0.1l0.8 -0.2l13.7 -2.9l1.5 -0.3l1.4 -0.7l8.5 -4.1l2.3 -1.1l1.7 -1.9l5.5 -6l2.4 -2.6l0.8 -3.4l3.4 -12.9c0 -82.1 0 -234.3 0 -292.6c0 -0.6 0.1 -1.2 0.1 -1.8c-0.1 -0.3001 -0.1 -1.0001 -0.1 -1.3001zm-238.9 265.4c0 17.5 0 32.9 0 44.7l0 14.2l-4.9 -3.9c-39.9 -32.1 -107.2 -48.6 -169.2 -51.7l-2.9 -0.1l0 -332l3.3 0.4c4 0.5 15.4 0.9 19.2 1.3c8.6 0.9 29 1.7 37.3 3.1c44 7.4 79.1 23.1 107.4 48c7 6.2 10 12.6 9.9 21.4c-0.2 46.8 -0.1 186.1 -0.1 254.6zm13 58.5l-0.3 -6c-0.1 -1 -0.1 -1.8 -0.1 -2.6c-0.1 -1.4 -0.1 -2.3 -0.1 -3.4l0 -47.2c0 -69.5 0 -210.3 -0.1 -258.7c0 -5 1.7 -8.9 5.6 -12.6c27.2 -26.1 62 -42.8 106.2 -51.1c9.4 -1.7 18.6 -2.8 28.5 -4c4.4 -0.5 30.8 -1.1 35.3 -1.6l3.4 -0.4l0 332.3l-2.9 0.1c-28.8 1.2 -76.4 5.7 -100.8 13.6c-26.6 8.7 -49.6 21.1 -70.1 37.9l-4.6 3.7z"></path></g><g style="filter: drop-shadow(rgba(0, 0, 0, 0.7) 5px 5px 4px);"><path fill="#c90606" d="m87.8 40.1l4.9 238.6l43.2 -37.2l43.6 59.3l4.5 -247.9c0 -12.2 -10.8 -22.1 -24.1 -22.1l-48 -12.8c-13.3 0 -24.1 9.9 -24.1 22.1z"></path></g><g style="filter: drop-shadow(rgba(0, 0, 0, 0.53) 4px 5px 4px);"><polygon points="136,39.7 147.5,62.9 173.1,66.6 154.5,84.7 158.9,110.2 136,98.1 113.1,110.2 117.5,84.7 99,66.6 124.6,62.9" fill="url('#eaf-13984-2')" transform="translate(0 0)" style="animation-name: eaf-13984-6, eaf-13984-7, eaf-13984-8, eaf-13984-9; animation-composition: replace, add, add, add;"></polygon></g></g></g></svg>
