<svg xmlns="http://www.w3.org/2000/svg" viewBox="0 0 500 500" overflow="hidden" preserveAspectRatio="xMidYMid meet" id="eaf-632a-0"><defs><clipPath id="eaf-632a-1"><rect x="0" y="0" width="500" height="500"></rect></clipPath><style>#eaf-632a-0 * {animation: 12000ms linear infinite normal both running;offset-rotate:0deg}@keyframes eaf-632a-2{0%,100%{transform:none;offset-path:path("m252.35 339.95l0 0l391.8 0l0 0l-158.1635 0l-17.8803 0l-215.7562 0")}}@keyframes eaf-632a-3{0%{offset-distance:0%}4.17%{offset-distance:0%;animation-timing-function:ease-in-out}25.56%{offset-distance:50%}56.94%{offset-distance:50%;animation-timing-function:ease-in-out}63.33%{offset-distance:70.1842%;animation-timing-function:ease-in-out}67.5%{offset-distance:72.466%;animation-timing-function:ease-in-out}75.56%,100%{offset-distance:100%}}@keyframes eaf-632a-4{0%,100%{transform:translate(-185.35px,-28.75px)}}@keyframes eaf-632a-5{0%,100%{transform:none;offset-path:path("m252.35 407.95l0 0l358.8434 0l0 0l-144.8594 0l-9.2075 0l-204.7765 0")}}@keyframes eaf-632a-6{0%{offset-distance:0%}27.78%{offset-distance:0%;animation-timing-function:ease-in-out}43.33%{offset-distance:50%}56.94%{offset-distance:50%;animation-timing-function:ease-in-out}63.33%{offset-distance:70.1842%;animation-timing-function:ease-in-out}67.5%{offset-distance:71.4672%;animation-timing-function:ease-in-out}75.56%,100%{offset-distance:100%}}@keyframes eaf-632a-7{0%{opacity:0}3.06%{opacity:0;animation-timing-function:ease-in-out}9.73%{opacity:1}85.28%{opacity:1;animation-timing-function:ease-in-out}89.17%,100%{opacity:0}}@keyframes eaf-632a-8{0%,100%{transform:none;offset-path:path("m307.2805 229.4697l0 0l345.268 0l-20 0l-87.4318 0.4846l36.779 0l-230.6215 0l34.0753 0l-43.8075 0")}}@keyframes eaf-632a-9{0%{offset-distance:0%}4.17%{offset-distance:0%;animation-timing-function:ease-in-out}25.56%{offset-distance:43.2675%;animation-timing-function:ease-in-out}56.94%{offset-distance:45.7738%;animation-timing-function:ease-in-out}63.33%{offset-distance:56.7306%;animation-timing-function:ease-in-out}67.5%{offset-distance:61.3396%;animation-timing-function:ease-in-out}75.56%{offset-distance:90.2401%;animation-timing-function:ease-in-out}78.89%{offset-distance:94.5102%;animation-timing-function:ease-in-out}81.39%,100%{offset-distance:100%}}@keyframes eaf-632a-10{0%,100%{transform:translate(218.2747px,126.5986px)}}@keyframes eaf-632a-11{0%,100%{transform:none;offset-path:path("m236.0044 307.5298l0 0l-21.2688 -55.8117")}}@keyframes eaf-632a-12{0%{offset-distance:0%}83.33%{offset-distance:0%}85.83%,100%{offset-distance:100%}}@keyframes eaf-632a-13{0%{transform:rotate(0)}83.33%{transform:rotate(0)}85.83%,100%{transform:rotate(40deg)}}@keyframes eaf-632a-14{0%,100%{transform:translate(-198.9534px,9.2638px)}}@keyframes eaf-632a-15{0%{opacity:0}82.23%{opacity:0}82.78%,100%{opacity:1}}@keyframes eaf-632a-16{0%,100%{transform:none;offset-path:path("m255.2 299.6l-168.5219 59.6l328.4118 0l-328.4118 73.55l333.9118 0l0 0l186.2211 -290.2616l0 0l-129.901 0l52.4067 0l-244.2943 0l46.4 0l-46.4 0l0 0l-154.8384 291.8117l0 0l125.016 -134.7")}}@keyframes eaf-632a-17{0%{offset-distance:0%;animation-timing-function:ease-in-out}4.17%{offset-distance:6.9934%;animation-timing-function:ease-in-out}25.56%{offset-distance:19.842%;animation-timing-function:ease-in-out}27.78%{offset-distance:33.0089%;animation-timing-function:ease-in-out}43.33%{offset-distance:46.0727%}44.73%{offset-distance:46.0727%;animation-timing-function:ease-in-out}54.17%{offset-distance:59.5649%}56.94%{offset-distance:59.5649%;animation-timing-function:ease-in-out}63.33%{offset-distance:64.6471%;animation-timing-function:ease-in-out}67.5%{offset-distance:66.6974%;animation-timing-function:ease-in-out}75.56%{offset-distance:76.2551%;animation-timing-function:ease-in-out}78.89%{offset-distance:78.0704%;animation-timing-function:ease-in-out}81.67%{offset-distance:79.8858%}84.17%{offset-distance:79.8858%;animation-timing-function:ease-in-out}93.06%{offset-distance:92.8101%}96.39%{offset-distance:92.8101%;animation-timing-function:ease-in-out}100%{offset-distance:100%}}@keyframes eaf-632a-18{0%{transform:rotate(0)}4.17%{transform:rotate(0);animation-timing-function:ease-in-out}6.11%{transform:rotate(-3deg);animation-timing-function:ease-in-out}8.06%{transform:rotate(0);animation-timing-function:ease-in-out}10%{transform:rotate(-3deg);animation-timing-function:ease-in-out}11.94%{transform:rotate(0);animation-timing-function:ease-in-out}11.95%{transform:rotate(3deg);animation-timing-function:ease-in-out}13.89%{transform:rotate(-3deg);animation-timing-function:ease-in-out}15.83%{transform:rotate(0);animation-timing-function:ease-in-out}17.77%{transform:rotate(-3deg);animation-timing-function:ease-in-out}17.78%{transform:rotate(3deg);animation-timing-function:ease-in-out}19.73%{transform:rotate(0);animation-timing-function:ease-in-out}21.67%{transform:rotate(-3deg);animation-timing-function:ease-in-out}23.61%{transform:rotate(0)}29.73%{transform:rotate(0);animation-timing-function:ease-in-out}31.67%{transform:rotate(-3deg);animation-timing-function:ease-in-out}33.33%{transform:rotate(0);animation-timing-function:ease-in-out}35%{transform:rotate(-3deg);animation-timing-function:ease-in-out}36.67%{transform:rotate(0);animation-timing-function:ease-in-out}38.61%{transform:rotate(-3deg);animation-timing-function:ease-in-out}40%{transform:rotate(0);animation-timing-function:ease-in-out}41.67%{transform:rotate(-3deg)}44.73%{transform:rotate(-3deg);animation-timing-function:ease-in-out}54.17%{transform:rotate(-177deg)}81.67%{transform:rotate(-177deg);animation-timing-function:ease-in-out}93.06%,100%{transform:rotate(0)}}@keyframes eaf-632a-19{0%,100%{transform:translate(-255.2px,-299.6px)}}</style></defs><g clip-path="url('#eaf-632a-1')" style="isolation: isolate;"><g><g transform="matrix(4 0 0 4 -827.28 -2254.5264)"><path fill="#f3582c" d="m331.7 626.3c0 15.6 0 31.3 0 46.9c0 7.2 -5.4 13.7 -12.5 15.1c-1 0.2 -2.1 0.3 -3.2 0.3c-31.2 0 -62.4 0 -93.6 0c-7.6 0 -14.3 -5.9 -15.3 -13.5c-0.1 -0.7 -0.1 -1.4 -0.1 -2c0 -31.3 0 -62.5 0 -93.8c0 -7.2 5.4 -13.7 12.5 -15.1c1 -0.2 2.1 -0.3 3.2 -0.3c31.2 0 62.4 0 93.6 0c7.2 0 13.7 5.4 15.1 12.5c0.2 1 0.3 2.1 0.3 3.2c0 15.6 0 31.1 0 46.7z"></path></g><path fill="#fefadf" d="m400.9 463l-297 0c-32 0 -57.9 -25.9 -57.9 -57.9l0 -297c0 -32 25.9 -57.9 57.9 -57.9l297 0c32 0 57.9 25.9 57.9 57.9l0 297c-0.1 32 -26 57.9 -57.9 57.9z"></path><g><rect fill="#000000" width="165.9" height="46.8" transform="translate(79.6 318.8)"></rect><rect fill="#000000" width="120.4" height="46.8" transform="translate(286 318.8)"></rect><rect fill="#000000" width="87.8" height="48.2" transform="translate(79.6 387.1)"></rect><rect fill="#000000" width="96.8" height="48.2" transform="translate(203 387.1)"></rect><rect fill="#000000" width="74.9" height="48.2" transform="translate(331.5 387.1)"></rect></g><rect fill="#fefadf" width="370.7" height="57.5" transform="translate(67 311.2)" style="animation-name: eaf-632a-2, eaf-632a-3, eaf-632a-4; animation-composition: replace, add, add;"></rect><rect fill="#fefadf" width="370.7" height="57.5" transform="translate(67 379.2)" style="animation-name: eaf-632a-5, eaf-632a-6, eaf-632a-4; animation-composition: replace, add, add;"></rect><path fill="#c20000" d="m146.4629 49.6934l-28.9883 109.3066l-28.1875 0l-15.2949 -60.2988l-14.4141 60.2988l-29.3887 0l-29.0684 -109.3066l31.5508 0l15.2949 63.0215l14.8945 -63.0215l26.4258 0l16.1758 63.0215l15.2949 -63.0215l25.7051 0zm44.2031 0l0 109.3066l-33.5527 0l0 -109.3066l33.5527 0zm117.6348 109.3066l-36.7559 0l-18.8984 -41.3203l-11.291 16.0957l0 25.2246l-31.6309 0l0 -109.3066l31.6309 0l0 45.1641l30.1895 -45.1641l30.1094 0l-27.627 39.959l34.2734 69.3477zm42.5215 -109.3066l0 109.3066l-33.5527 0l0 -109.3066l33.5527 0z" transform="matrix(1.0571 0 0 1.156 64.097 87.1031)" opacity="0" style="animation-name: eaf-632a-7;"></path><path fill="#fefadf" d="m0 -57.7684q-426.2937 0 -426.9201 0q-0.6265 0 0 -27.3858l131.5493 -170.4187q50.4708 9.9993 50.4708 14.1019q0 4.1026 19.1448 22.038l225.7552 0l0 161.6646z" transform="translate(525.01507b2 356.0684)" style="animation-name: eaf-632a-8, eaf-632a-9, eaf-632a-10; animation-composition: replace, add, add;"></path><path fill="#fefadf" d="m0 0l169.1511 -150.6379l67.6736 -14.0961l161.082 138.7585l-259.3739 172.1819l-138.5328 -146.2064z" transform="translate(37.051 316.7936)" opacity="0" style="animation-name: eaf-632a-11, eaf-632a-12, eaf-632a-13, eaf-632a-14, eaf-632a-15; animation-composition: replace, add, add, add, replace;"></path><path fill="#f3582c" d="m499.5 63.9c0 -4.4 -0.4 -8.8 -1.2 -12.8c-5.6 -28.4 -31.6 -50 -60.4 -50c-124.8 0 -249.6 0 -374.4 0c-4.4 0 -8.8 0.4 -12.8 1.2c-28.4 5.6 -50 31.6 -50 60.4c0 125.2 0 250 0 375.2c0 2.4 0 5.2 0.4 8c4 30.4 30.8 54 61.2 54c124.8 0 249.6 0 374.4 0c4.4 0 8.8 -0.4 12.8 -1.2c28.4 -5.6 50 -31.6 50 -60.4c0 -62.4 0 -125.2 0 -187.6c0 -62.4 0 -124.4 0 -186.8zm-40.8 341.2c0 32 -25.9 57.9 -57.9 57.9l-297 0c-32 0 -57.9 -25.9 -57.9 -57.9l0 -297c0 -32 25.9 -57.9 57.9 -57.9l297 0c32 0 57.9 25.9 57.9 57.9l0 297z"></path><g><path fill="none" stroke="#000000" stroke-width="12" stroke-miterlimit="10" d="m400.9 463l-297 0c-32 0 -57.9 -25.9 -57.9 -57.9l0 -297c0 -32 25.9 -57.9 57.9 -57.9l297 0c32 0 57.9 25.9 57.9 57.9l0 297c-0.1 32 -26 57.9 -57.9 57.9z"></path><path fill="#000000" stroke="#000000" stroke-width="5.4173" stroke-miterlimit="10" d="m458.7 118.7l-412.7 0l0 -10.5c0 -32 25.9 -57.9 57.9 -57.9l297 0c32 0 57.9 25.9 57.9 57.9l0 10.5l-0.1 0z"></path></g><g style="animation-name: eaf-632a-16, eaf-632a-17, eaf-632a-18, eaf-632a-19; animation-composition: replace, add, add, add;"><path fill="#fefadf" d="m259.7 311.2c-3.8 0 -7.5 -1.1 -10.7 -3.3c-5.8 -4 -8.8 -10.8 -7.8 -17.8c0.1 -0.6 8.9 -62 10.4 -75.4c0.4 -3.3 1.6 -6.4 3.6 -9c5.6 -7.5 137.7 -184.9 141.7 -190.3c3.4 -4.6 16.2 -19.8 37 -23.2c2.7 -0.5 5.5 -0.7 8.3 -0.7c10.7 0 21.2 3.4 31.4 10.1l12.2 8l-1.1 0.8c7.9 7.7 12.8 16.4 14.6 26c2.5 13.7 -1.5 28 -11.9 42.4c-8.8 12.2 -141.4 188.1 -142.7 189.9c-1.8 2.4 -4.2 4.3 -6.9 5.7c-9.7 4.6 -68.9 34.4 -69.5 34.6c-1.8 0.9 -3.6 1.5 -5.5 1.8c-1.1 0.3 -2.1 0.4 -3.1 0.4c0 0 0 0 0 0z"></path><path fill="#000000" d="m468.1 10c-10.7 -7 -21.6 -9.7 -32.6 -7.9c-17.1 2.8 -27.8 15.5 -30.7 19.3c-4 5.4 -141.7 190.2 -141.7 190.2c-0.9 1.2 -1.5 2.6 -1.6 4.1c-1.5 13.8 -10.4 75.1 -10.5 75.8c-0.5 3.1 0.9 6.3 3.6 8.1c1.9 1.3 4.2 1.8 6.5 1.4c0.9 -0.1 1.7 -0.4 2.6 -0.8c0.6 -0.3 59.9 -30.1 69.7 -34.7c1.3 -0.6 2.4 -1.5 3.3 -2.7c5.5 -7.3 134.1 -178 142.6 -189.7c8.8 -12.1 12.2 -23.8 10.2 -34.8c-2.1 -10.7 -9.2 -20.3 -21.4 -28.3l0 0z"></path><path fill="#ffcc54" d="m406.5 48.2c4.5 0.3 15.3 1.9 27.4 10.3c12.3 8.5 17 19.8 18 22.4c-28.2 37.6 -93.1 123.8 -118.7 157.8c-3.8 -5.8 -9.6 -12.7 -18.1 -18.5c-10.3 -7.2 -20.2 -10.6 -27.7 -12.2c25.3 -33.9 91.4 -122.6 119.1 -159.8l0 0z"></path><path fill="#fcd4a2" d="m278.2 223.8c4.9 0.4 15.2 2.3 26.7 10.3c8.9 6.2 13.8 13.7 16.3 18.5c-11.2 5.6 -35.7 18.5 -51.4 26.4c2.3 -16.4 6.5 -41.9 8.4 -55.2z"></path><path fill="#e27171" d="m465 63.4c-0.3 0.4 -0.8 1.1 -1.4 1.8c-3.8 -6.2 -9.9 -14 -19.4 -20.6c-9.7 -6.7 -19 -10.1 -26.2 -11.8c0.5 -0.6 0.9 -1.2 1 -1.3c0.8 -1.1 8.3 -10.7 19.3 -12.5c6.3 -1 13 0.7 19.9 5.2c8.1 5.4 12.8 11.2 14 17.3c1.2 6.3 -1.3 13.7 -7.2 21.9l0 0z"></path></g></g></g></svg>