<svg id="social-chat" xmlns="http://www.w3.org/2000/svg" xmlns:xlink="http://www.w3.org/1999/xlink" viewBox="0 0 650 650" shape-rendering="geometricPrecision" text-rendering="geometricPrecision" project-id="a6d7d3ed91964b00aa34e15034b7b404" export-id="c66395661c174c63ade1015f840b61bf" cached="false">
<style><![CDATA[
#social-chat-u-text4a {animation: social-chat-u-text4a_c_o 9000ms linear infinite normal forwards}@keyframes social-chat-u-text4a_c_o { 0% {opacity: 0} 23.333333% {opacity: 0} 26.666667% {opacity: 1} 30% {opacity: 1} 33.333333% {opacity: 0} 100% {opacity: 0}} #social-chat-u-text3 {animation: social-chat-u-text3_c_o 9000ms linear infinite normal forwards}@keyframes social-chat-u-text3_c_o { 0% {opacity: 0} 16.666667% {opacity: 0} 20% {opacity: 1} 30% {opacity: 1} 33.333333% {opacity: 0} 100% {opacity: 0}} #social-chat-u-text2a {animation: social-chat-u-text2a_c_o 9000ms linear infinite normal forwards}@keyframes social-chat-u-text2a_c_o { 0% {opacity: 0} 10% {opacity: 0} 13.333333% {opacity: 1} 30% {opacity: 1} 33.333333% {opacity: 0} 100% {opacity: 0}} #social-chat-u-text1 {animation: social-chat-u-text1_c_o 9000ms linear infinite normal forwards}@keyframes social-chat-u-text1_c_o { 0% {opacity: 0} 3.333333% {opacity: 0} 6.666667% {opacity: 1} 30% {opacity: 1} 33.333333% {opacity: 0} 100% {opacity: 0}} #social-chat-u-video_ts {animation: social-chat-u-video_ts__ts 9000ms linear infinite normal forwards}@keyframes social-chat-u-video_ts__ts { 0% {transform: translate(325.002404px,292.849991px) scale(1,0)} 43.333333% {transform: translate(325.002404px,292.849991px) scale(1,0);animation-timing-function: cubic-bezier(0.42,0,0.58,1)} 46.666667% {transform: translate(325.002404px,292.849991px) scale(1.094482,1.141002);animation-timing-function: cubic-bezier(0.42,0,0.58,1)} 50% {transform: translate(325.002404px,292.849991px) scale(1,1);animation-timing-function: cubic-bezier(0.42,0,1,1)} 63.333333% {transform: translate(325.002404px,292.849991px) scale(1,1);animation-timing-function: cubic-bezier(0,0,0.58,1)} 66.666667% {transform: translate(325.002404px,292.849991px) scale(0,1)} 100% {transform: translate(325.002404px,292.849991px) scale(0,1)}} #social-chat-u-phone_tr {animation: social-chat-u-phone_tr__tr 9000ms linear infinite normal forwards}@keyframes social-chat-u-phone_tr__tr { 0% {transform: translate(333.068573px,288.366806px) rotate(0deg)} 73.333333% {transform: translate(333.068573px,288.366806px) rotate(0deg)} 76.666667% {transform: translate(333.068573px,288.366806px) rotate(6deg)} 80% {transform: translate(333.068573px,288.366806px) rotate(0deg)} 83.333333% {transform: translate(333.068573px,288.366806px) rotate(-6deg)} 86.666667% {transform: translate(333.068573px,288.366806px) rotate(0deg)} 90% {transform: translate(333.068573px,288.366806px) rotate(6deg)} 93.333333% {transform: translate(333.068573px,288.366806px) rotate(0deg)} 96.666667% {transform: translate(333.068573px,288.366806px) rotate(-6deg)} 100% {transform: translate(333.068573px,288.366806px) rotate(0deg)}} #social-chat-u-phone {animation: social-chat-u-phone_c_o 9000ms linear infinite normal forwards}@keyframes social-chat-u-phone_c_o { 0% {opacity: 0} 73.333333% {opacity: 0;animation-timing-function: cubic-bezier(0.42,0,0.58,1)} 80% {opacity: 1;animation-timing-function: cubic-bezier(0.42,0,0.58,1)} 93.333333% {opacity: 1;animation-timing-function: cubic-bezier(0.42,0,0.58,1)} 100% {opacity: 0}} #social-chat-s-path6_tr {animation: social-chat-s-path6_tr__tr 9000ms linear infinite normal forwards}@keyframes social-chat-s-path6_tr__tr { 0% {transform: translate(135.33781px,207.03926px) rotate(720deg);animation-timing-function: cubic-bezier(0.415,0.08,0.115,0.955)} 100% {transform: translate(135.33781px,207.03926px) rotate(439.480519deg)}} #social-chat-s-path7_tr {animation: social-chat-s-path7_tr__tr 9000ms linear infinite normal forwards}@keyframes social-chat-s-path7_tr__tr { 0% {transform: translate(11.12px,29.9px) rotate(-720deg);animation-timing-function: cubic-bezier(0.415,0.08,0.115,0.955)} 100% {transform: translate(11.12px,29.9px) rotate(-439.480519deg)}}
]]></style>
<g id="social-chat-u-background" transform="translate(.002404 0)"><path id="social-chat-u-background2" d="M650,325.1c0,81.6,0,163.1,0,244.7c0,37.4-28.2,71.6-65,78.6-5.5,1-11.1,1.6-16.6,1.6-162.6,0-325.2,0-487.7,0C40.8,650,6,619.4,0.8,579.8c-.5-3.5-.8-7-.8-10.6c0-163,0-326,0-488.9C0,42.9,28.2,8.7,65,1.7c5.4-1,11.1-1.6,16.6-1.6C244.3,0,407,0,569.7,0c37.4,0,71.6,28.2,78.6,65c1,5.4,1.6,11.1,1.6,16.6.1,81.2.1,162.3.1,243.5v0Z" fill="#f3582c"/></g>

<g id="social-chat-u-speechbubble" transform="translate(0 0.000001)"><path id="social-chat-s-path1" d="M593.884892,417.821328L417.909883,641.13972l.615297-153.106364l175.359712-70.212028" transform="translate(0 2.353664)" fill="#000000" stroke-width="1.3"/><ellipse id="social-chat-s-ellipse1" rx="326.107535" ry="270.666868" transform="matrix(.969442 0 0 1.007172 323.113224 281.774641)" fill="#000000" stroke-width="0"/></g>

<rect id="social-chat-u-text4a" width="90.8" height="90.8" rx="0" ry="0" transform="translate(466.9 327.3)" opacity="0" fill="#fff"/>
<rect id="social-chat-u-text3" width="90.8" height="90.8" rx="0" ry="0" transform="translate(340.1 327.3)" opacity="0" fill="#fff"/>
<rect id="social-chat-u-text2a" width="90.8" height="90.8" rx="0" ry="0" transform="translate(213.2 327.3)" opacity="0" fill="#fff"/>
<rect id="social-chat-u-text1" width="90.8" height="90.8" rx="0" ry="0" transform="translate(86.3 327.3)" opacity="0" fill="#fff"/>

<g id="social-chat-u-video_ts" transform="translate(325.002404,292.849991) scale(1,0)">
	<g id="social-chat-u-video" transform="translate(-325.002403,-292.849991)">
		<path id="social-chat-s-path2" d="M534.9,189.8L419.5,253.7v-44.5c0-33.5-27.4-60.9-60.9-60.9h-226.8c-33.5,0-60.9,27.4-60.9,60.9v167.3c0,33.5,27.4,60.9,60.9,60.9h226.8c33.5,0,60.9-27.4,60.9-60.9v-48.4l111.7,67.2c19.6,11.8,44.7-2.1,45.1-25l2.8-154c.4-22.8-24.1-37.6-44.2-26.5Z" fill="#ffffff"/>
	</g>
</g>

<g id="social-chat-u-phone_tr" transform="translate(333.068573,288.366806) rotate(0)">
	<g id="social-chat-u-phone" transform="translate(-333.068573,-288.366806)" opacity="0">
		<path id="social-chat-s-path3" d="M163.5,88.7l72.7,2.6c15.3.6,28.9,10.2,34.8,24.7l21.5,53.2c5,12.4,3.7,26.5-3.6,37.6l-27.5,42.4C277.7,272.6,322,327.4,369,359.5L404,338c8.9-5.5,19.5-7.1,29.6-4.5l69.6,17.8c18.5,4.7,31,22.5,29.5,42l-4.5,59.6c-1.6,20.9-18.7,37.3-39,34.9C221,456.7,63.8,88.7,163.5,88.7Z" transform="translate(.000001 0)" fill="#fff"/>
	</g>
</g>
	
</svg>
