<svg id="erkpfdmI4sg1" xmlns="http://www.w3.org/2000/svg" xmlns:xlink="http://www.w3.org/1999/xlink" viewBox="0 0 499.2 498.4" shape-rendering="geometricPrecision" text-rendering="geometricPrecision">
    <style>
        <![CDATA[
        #erkpfdmI4sg7_ts {animation: erkpfdmI4sg7_ts__ts 5000ms linear infinite normal forwards}@keyframes erkpfdmI4sg7_ts__ts { 0% {transform: translate(185.771523px,185.709501px) rotate(-8.319705deg) scale(1.000024,1.000024)} 83.333333% {transform: translate(185.771523px,185.709501px) rotate(-8.319705deg) scale(1.000024,1.000024)} 93.333333% {transform: translate(185.771523px,185.709501px) rotate(-8.319705deg) scale(1.000024,0);animation-timing-function: cubic-bezier(0.445,0.05,0.55,0.95)} 100% {transform: translate(185.771523px,185.709501px) rotate(-8.319705deg) scale(1.000024,1.000024)}} #erkpfdmI4sg8_ts {animation: erkpfdmI4sg8_ts__ts 5000ms linear infinite normal forwards}@keyframes erkpfdmI4sg8_ts__ts { 0% {transform: translate(269.105784px,356.618507px) scale(1,1)} 3.333333% {transform: translate(269.105784px,356.618507px) scale(1,1)} 10% {transform: translate(269.105784px,356.618507px) scale(0,1);animation-timing-function: cubic-bezier(0.5,0,1,1)} 30% {transform: translate(269.105784px,356.618507px) scale(0,1);animation-timing-function: cubic-bezier(0,0,0.58,1)} 43.333333% {transform: translate(269.105784px,356.618507px) scale(1,1)} 100% {transform: translate(269.105784px,356.618507px) scale(1,1)}} #erkpfdmI4sg12_ts {animation: erkpfdmI4sg12_ts__ts 5000ms linear infinite normal forwards}@keyframes erkpfdmI4sg12_ts__ts { 0% {transform: translate(277.200012px,354.925003px) scale(0,0)} 10% {transform: translate(277.200012px,354.925003px) scale(0,0);animation-timing-function: cubic-bezier(0.42,0,1,1)} 16.666667% {transform: translate(277.200012px,354.925003px) scale(1,1);animation-timing-function: cubic-bezier(0.42,0,1,1)} 30% {transform: translate(277.200012px,354.925003px) scale(1,1);animation-timing-function: cubic-bezier(0,0,0.58,1)} 33.333333% {transform: translate(277.200012px,354.925003px) scale(0,0)} 100% {transform: translate(277.200012px,354.925003px) scale(0,0)}}
        ]]>
    </style>
    <g>
        <path
            d="M496.2,249.4c0,62.3,0,124.7,0,187c0,28.6-21.6,54.7-49.7,60-4.2.8-8.5,1.2-12.7,1.2-124.2.1-248.5,0-372.7,0-30.5,0-57-23.4-61-53.7-.4-2.7-.6-5.4-.6-8.1c0-124.5,0-249.1,0-373.7c0-28.6,21.6-54.7,49.7-60C53.3,1.5,57.6,1,61.8,1c124.3-.1,248.7,0,373,0c28.6,0,54.7,21.6,60,49.7.8,4.2,1.2,8.5,1.2,12.7.2,62,.2,124,.2,186Z"
            fill="#f3582c"
        />
    </g>
    <path
        d="M496.5,191.2v0c-15.2,2.1-24.2,15.2-34.2,13.5-7.6-1.3-12.8-8.9-11.5-16.8C464,107.7,458,55.5,441.5,20c-3.2-6.7-7-13-11.1-19C382.6,1,334.8,1,287,1C230.4,15.6,178,13.7,131.3,54.1c-30.1,26-45.7,64.4-34.4,118.6.9,3,.9,6.2,0,9.1-5.5,15.8-20.7,7.6-30.9,3.8l-.8-.4c-60-21.7-40.3,110.6,4.8,96.7c1.3-.5,2.7-.7,4.1-.7c7.7-.5,14.4,5.6,14.8,13.6c0,.2,0,.4,0,.6c1.5,66,29.7,82.1,64,112.9c5.3,4.7,10.8,9.1,14.3,12.9c34.6,31.8,70.4,48.2,106.4,48.2c36.1,0,69.2-15.7,101.4-48c43.5-43.5,77.8-58.5,72.1-129.3-.2-3.2.6-6.4,2.3-9.1c4.3-6.7,13-8.6,19.5-4.1c0,0,0,0,0,0c11.3,7.8,20.6,2.5,27.4-8.5c0-7,0-14,0-21c.2-19.4.2-38.8.2-58.2Z"
        fill="#fbf5e3"
    />
    <path
        d="M394.5,442.4c4.5-5,9.5-9.4,14.3-14.1c37.3-36.3,65.8-55.2,66.9-115.5l4.5,1.1c5.4.8,10.9.3,16-1.5c0-14,0-28,0-42-6.8,11-16.1,16.2-27.4,8.5c0,0,0,0,0,0-6.5-4.4-15.2-2.6-19.5,4.1-1.7,2.7-2.5,5.9-2.3,9.1c5.7,70.9-28.6,85.8-72.1,129.3-32.2,32.3-65.4,48-101.4,48-36.1,0-71.9-16.4-106.4-48.2-3.5-3.8-9.1-8.2-14.3-12.9-34.3-30.8-62.6-46.9-64-112.9c0-.2,0-.4,0-.6-.5-8-7.1-14.1-14.8-13.6-1.4,0-2.8.3-4.1.7-45,14-64.7-118.4-4.8-96.7l.8.4c10.2,3.7,25.3,11.9,30.9-3.8.9-3,.9-6.2,0-9.1-11.3-54.2,4.3-92.6,34.4-118.6C173,18,219.4,15.7,269.3,5.1h-230c-.4.1-.7.3-1.1.4v12.4h-15.2c8.2,53.2-5.5,115.7,17.4,131.3-15.8-.5-27.5,6.7-35.2,28.8-10.5,26.3.5,110.6,31.1,128.9c7.5,4.5,16.1,6.6,24.7,6c5.8,66.4,36.4,85.2,73.3,117.4c4,3.6,8,7.1,14,12.7c35.4,32.7,74.1,51.2,111.7,54.8c9,0,18.1,0,27.1,0c36.9-3.7,73.3-21.8,107.4-55.4Z"
        fill="#000000"
    />
    <path
        d="M441.2,20c16.5,35.6,22.5,87.7,9.3,167.9-1.3,7.9,3.9,15.4,11.5,16.8c10,1.8,19-11.4,34.2-13.5c0-9.6,0-19.3,0-28.9-.3,0-.6,0-.9.1-4.6.4-9.2,1.3-13.6,2.7.7-2,.7-4,.7-6c4.9-4.3,9.5-8.8,13.9-13.5c0-27.4,0-54.8,0-82.2c0-4.2-.5-8.5-1.2-12.7-3.9-20.8-19.3-38-38.6-45.6h-23.5c2.9,4.8,5.7,9.7,8.2,14.9Z"
        fill="#000000"
    />
    <g id="erkpfdmI4sg7_ts" transform="translate(185.771523,185.709501) rotate(-8.319705) scale(1.000024,1.000024)">
        <ellipse rx="61.3" ry="55.2" transform="translate(0,0)" fill="#000000" stroke="#000000" stroke-width="7" stroke-miterlimit="10" />
    </g>
    <g id="erkpfdmI4sg8_ts" transform="translate(269.105784,356.618507) scale(1,1)">
        <g transform="translate(-270.2,-358.901137)">
            <path d="M161.4,323.3c52.3,87.3,122,110.4,177.9,54.3c12-12,27.9-32.3,44.3-67.6L161.4,323.3Z" fill="#000000" stroke="#000000" stroke-width="10" stroke-miterlimit="10" />
            <path d="M159.1,322.9l222.2-13.4-222.2,13.4Z" fill="none" stroke="#2e4f7b" stroke-width="5" stroke-miterlimit="10" />
        </g>
    </g>
    <ellipse rx="61.3" ry="55.2" transform="matrix(.9895-.1447 0.1447 0.9895 351.215118 177.393938)" fill="#000000" stroke="#000000" stroke-width="7" stroke-miterlimit="10" />
    <g id="erkpfdmI4sg12_ts" transform="translate(277.200012,354.925003) scale(0,0)">
        <g transform="translate(-277.200012,-354.925003)">
            <path d="M358.7,286.4c-19.4-19.4-50.8-19.4-70.1,0l-11.4,11.4-11.4-11.4c-19.4-19.4-50.8-19.4-70.1,0-19.4,19.4-19.4,50.8,0,70.1l11.4,11.4L277.2,438l70.1-70.1l11.4-11.4c19.4-19.4,19.4-50.8,0-70.1Z" fill="#d31111" />
            <ellipse rx="12.3" ry="25.3" transform="matrix(.4378-.8991 0.8991 0.4378 336.217667 295.398578)" fill="#fff" />
        </g>
    </g>
</svg>


