<svg xmlns="http://www.w3.org/2000/svg" viewBox="0 0 769 769" overflow="hidden" preserveAspectRatio="xMidYMid meet" id="eaf-4162-0"><defs><clipPath id="eaf-4162-1"><rect x="0" y="0" width="769" height="769"></rect></clipPath><style>#eaf-4162-0 * {animation: 6000ms linear infinite normal both running;offset-rotate:0deg}@keyframes eaf-4162-2{0%{fill-opacity:0}55%{fill-opacity:0}56.12%{fill-opacity:1}66.67%{fill-opacity:1}70%{fill-opacity:0}82.23%{fill-opacity:0}83.35%{fill-opacity:1}91.12%{fill-opacity:1}92.23%,100%{fill-opacity:0}}@keyframes eaf-4162-3{0%{fill-opacity:0}76.68%{fill-opacity:0}77.8%{fill-opacity:1}95.57%{fill-opacity:1}96.68%,100%{fill-opacity:0}}@keyframes eaf-4162-4{0%{fill-opacity:0}10%{fill-opacity:0}11.12%{fill-opacity:1}98.9%{fill-opacity:1}100%{fill-opacity:0}}@keyframes eaf-4162-5{0%{opacity:0}19.43%{opacity:0}20.55%{opacity:1}33.88%{opacity:1}35%,100%{opacity:0}}@keyframes eaf-4162-6{0%{opacity:0}43.33%{opacity:0}44.43%{opacity:1}70%{opacity:1}71.1%,100%{opacity:0}}</style></defs><g clip-path="url('#eaf-4162-1')" style="isolation: isolate;"><g><g transform="matrix(4 0 0 4 -808.48 -2293.2463)"><path fill="#f3582c" d="m393.9 669.7c0 24.1 0 48.1 0 72.2c0 11 -8.3 21.1 -19.2 23.2c-1.6 0.3 -3.3 0.5 -4.9 0.5c-48 0 -95.9 0 -143.9 0c-11.8 0 -22 -9 -23.6 -20.7c-0.1 -1 -0.2 -2.1 -0.2 -3.1c0 -48.1 0 -96.2 0 -144.3c0 -11 8.3 -21.1 19.2 -23.2c1.6 -0.3 3.3 -0.5 4.9 -0.5c48 0 96 0 144 0c11 0 21.1 8.3 23.2 19.2c0.3 1.6 0.5 3.3 0.5 4.9c0 23.8999 0 47.8999 0 71.7999z"></path></g><path fill="#01507b" fill-opacity="0" d="m754 388.1c-3.9 20 -15.2 33.4 -28.1 46c-43 42 -85.6 84.5 -128.4 126.8c-22 21.7 -48.7 21.3 -69.3 -1.1c-19.1 -20.7 -20.7 -59.7 -1.9 -81.1c15.3 -17.5 32.3 -33.2 48.6 -49.5c17 -17 34.1 -33.9 51.8 -51.4c-11.1 -11.3 -22.1 -22.3 -33 -33.4c-20.7 -20.9 -41.6 -41.6 -62 -62.9c-27.4 -28.6 -24 -75.5 6.8 -97.1c18.1 -12.7 41.2 -9.8 59 8.1c46.1 46.4 92 93 138 139.5c9.9 10 15.5 23 18.6 37.6c-0.0999 6.2999 -0.0999 12.3999 -0.0999 18.4999z" style="animation-name: eaf-4162-2;"></path><path fill="#01507b" fill-opacity="0" d="m487.3 132.7c-2.3 14.2 -5.4 34 -8.6 53.7c-13.7 83.4 -27.4 166.8 -41.1 250.2c-10.9 66.7 -21.7 133.4 -32.9 200c-4.3 25.9 -17.6 43.2 -39.8 48.4c-20.1 4.7 -37.2 -3.2 -49.8 -22.7c-9.8 -15.2 -11.6 -32.3 -8.5 -50.8c16.4 -98.8 32.7 -197.8 49 -296.6c10.9 -66.4 21.3 -133 32.9 -199.3c8.1 -46.5 52.7 -63.7 82.7 -32.9c10.1 10.6 16.5 28 16.1 50z" style="animation-name: eaf-4162-3;"></path><path fill="#01507b" fill-opacity="0" d="m150.7 377.5c25.9 25.6 51.2 50.3 76.1 75.5c10.6 10.8 21.8 21.4 30 34.5c13.3 21.3 9.2 53.2 -6.8 71.4c-17.9 20.3 -44 24.4 -62.8 7.7c-18.9 -16.7 -36.6 -35.1 -54.7 -52.9c-29.4 -29 -58.6 -58.1 -88 -87.1c-19.5 -19.3 -26.1 -43.9 -16.9 -70.1c3.3 -9.3 9 -18.2 15.5 -24.9c45.4 -46.7 91.1 -92.8 136.8 -138.8c28.4 -28.5 67.8 -18 81.2 22.1c7.2 21.6 4.4 43.1 -9.7 59.5c-17.7 20.5 -37.2 38.9 -56 58.2c-13.2 13.6 -26.6 26.9 -39.9 40.3c-1.5 1.5 -3 2.9 -4.8 4.6z" style="animation-name: eaf-4162-4;"></path><g transform="translate(-1.43 4.6001)" opacity="0" style="animation-name: eaf-4162-5;"><path fill="#01507b" d="m352.5 285.6l-76.5 -11.8c11.7 -92.2 49.6 -138.3 113.7 -138.3c32.3 0 57.7 12 76.3 36.1c18.6 24.1 27.9 53.9 27.9 89.5c0 15.7 -1.8 30.1 -5.5 43c-3.7 13 -8.4 23.6 -14.2 32c-5.8 8.4 -15.1 19.2 -28 32.6c-9.9 10.2 -16.2 17.6 -18.9 22.3c-2.7 4.6 -4.6 11.3 -5.5 20.2l-69.2 0c0 -23.8 1.5 -40.9 4.5 -51.4c3 -10.5 9.1 -21.7 18.5 -33.5c14 -17.9 22.8 -31.2 26.3 -39.9c3.5 -8.7 5.2 -18.9 5.2 -30.5c0 -12.2 -2.3 -21.6 -6.9 -28.2c-4.6 -6.6 -10.3 -9.9 -17.1 -9.9c-20.3 0 -30.5 22.6 -30.6 67.8zm77.2 150.9l0 107.6l-79.9 0l0 -107.6l79.9 0z"></path></g><g opacity="0" style="animation-name: eaf-4162-6;"><path fill="#01507b" d="m426 215.4l-10.8 114.7l93.3 -48.9l23.4 89.2l-97.4 13.1l66.1 82.3l-64.4 55.8l-50.3 -107.5l-50 107.5l-64.4 -55.8l66.1 -82.3l-97.4 -13.1l23.4 -89.2l93.3 48.9l-10.8 -114.7l79.8999 0l0 0z"></path></g></g></g></svg>