<svg xmlns="http://www.w3.org/2000/svg" viewBox="0 0 650 650" overflow="hidden" preserveAspectRatio="xMidYMid meet" id="eaf-9438-0"><defs><clipPath id="eaf-9438-1"><rect x="0" y="0" width="650" height="650"></rect></clipPath><style>#eaf-9438-0 * {animation: 6000ms linear infinite normal both running;offset-rotate:0deg}@keyframes eaf-9438-2{0%,100%{filter:none}}@keyframes eaf-9438-3{0%{filter:drop-shadow(0 0 0 #000)}6.12%,100%{filter:drop-shadow(7px 7px 7px #949494)}}@keyframes eaf-9438-4{0%{fill-opacity:0}25%{fill-opacity:0;animation-timing-function:linear(0 0%,0.09 2%,0.12 5%,0 9%,0.2 14%,0.25 18%,0.23 21%,0.18 23%,0 27.27%,0.36 36%,0.46 40%,0.5 45%,0.48 49%,0.39 54%,0 63.63%,0.45 73%,0.75 82%,0.94 91%,0.98 95%,1 100%)}41.67%{fill-opacity:1}75%{fill-opacity:1;animation-timing-function:linear(0 0%,0.09 2%,0.12 5%,0 9%,0.2 14%,0.25 18%,0.23 21%,0.18 23%,0 27.27%,0.36 36%,0.46 40%,0.5 45%,0.48 49%,0.39 54%,0 63.63%,0.45 73%,0.75 82%,0.94 91%,0.98 95%,1 100%)}91.67%,100%{fill-opacity:0}}</style></defs><g clip-path="url('#eaf-9438-1')" style="isolation: isolate;"><g><path fill="#f3582c" d="m651.4 325.1c0 81.6 0 163.1 0 244.7c0 37.4 -28.2 71.6 -65 78.6c-5.5 1 -11.1 1.6 -16.6 1.6c-162.6 0 -325.2 0 -487.7 0c-39.9 0 -74.7 -30.6 -79.9 -70.2c-0.5 -3.5 -0.8 -7 -0.8 -10.6c0 -163 0 -326 0 -488.9c0 -37.4 28.2 -71.6 65 -78.6c5.4 -1 11.1 -1.6 16.6 -1.6c162.7 -0.1 325.4 -0.1 488.0999 -0.1c37.4 0 71.6 28.2 78.6 65c1 5.4 1.6 11.1 1.6 16.6c0.1001 81.2 0.1001 162.3 0.1001 243.5l0 0l0 0z"></path><g style="filter: drop-shadow(rgb(0, 0, 0) 0px 0px 0px); animation-name: eaf-9438-2, eaf-9438-3; animation-composition: replace, add;"><path fill="#fff" stroke="#01507b" stroke-width="22.7646" stroke-miterlimit="10" d="m321.2 626.6c-73.7 -28.8 -136.9 -78 -182.6 -142.5c-46.1 -64.9 -71.4 -140.8 -73.2 -219.6l0 -0.4l0 -100.9c0 -13.4 8 -25.5 20.3 -30.8l234.4 -100.5c8.4 -3.6 18 -3.6 26.4 0l234.5 100.5c12.3 5.3 20.3 17.4 20.3 30.8l0 100.9l0 0.4c-1.8 78.8 -27.1 154.7 -73.2 219.6c-45.8 64.4 -108.9 113.7 -182.6 142.5l0 0c-7.8 3 -16.5 3 -24.3 0l0 0z"></path></g><path fill="#eeb924" stroke="#01507b" stroke-width="14" stroke-miterlimit="10" d="m314 79.9l-177.5 76.1c-18.1 7.7 -29.8 25.5 -29.8 45.2l0 64.7c3.1 134.8 84.4 255.2 205.7 311.6c13.3 6.2 28.6 6.2 41.9 0c121.2 -56.5 202.6 -176.8 205.7 -311.6l0 -64.7c0 -19.7 -11.7 -37.4 -29.8 -45.2l-177.5 -76.1c-12.4 -5.3 -26.4 -5.3 -38.7 0z"></path><path fill="#01507b" fill-opacity="0" d="m401.6 376.3c-2 -2.9 -2.7 -4.7 -2.6 -6.2c0 -0.3 28.4 -40 35.9 -52.2c8.1 -13.3 25.4 -34.1 21.3 -50.8c-1.3 -5.4 -7.3 -9.6 -12.7 -10.9l1.2 -53c-0.4 -18.4 -7.5 -36.1 -19.8 -49.7c-19.4 -21 -69.1 -48.7 -99.4 -47.9c-12.9 0.3 -7.2 20.1 -19 24.4c-29.4 10.7 -52.6 33.5 -55.4 65.9c-0.3 7.1 -0.4 14.4 -0.4 21.6c0 12.2 0.5 24.5 1.2 36.6c-9.1 2.3 -15.5 12.9 -15.5 21c0 14.3 14.4 30.9 22.1 43.2l0 0c2.9 4.7 35.6 50.9 35.6 51.6c0 1.4 -1 3.1 -3.1 6.3c-31.1 42.8 -93.8 36.3 -128.1 71.1c17.1 26.5 37.8 50.7 61.4 71.9c24.3 21.8 51.8 40.5 81.8 55.1c17.2 8.4 37.4 8.4 54.6 0c30 -14.7 57.5 -33.3 81.8 -55.1c27.6 -24.7 51.1 -53.6 69.7 -85.3c-35.3 -20.5 -84.2 -21.5 -110.6 -57.6z" style="animation-name: eaf-9438-4;"></path><g><path fill="#01507b" d="m384 356.5l-75.8 0l0 -12.9c0 -17 1.9 -29.6 5.7 -37.7c3.8 -8.1 10.8 -14.4 20.8 -18.9l13.9 -6.1c10.5 -4.6 15.7 -11.2 15.7 -19.6c0 -4.9 -1.7 -9.1 -5.1 -12.5c-3.4 -3.4 -7.6 -5.1 -12.5 -5.1c-13.4 0 -20 9.3 -20 27.8l-70.5 0c0 -24.8 5.7 -45 17.2 -60.7c8.4 -11.6 19.4 -20.8 32.9 -27.6c13.5 -6.8 27.5 -10.2 41.9 -10.2c25.6 0 47.2 8.5 64.7 25.4c17.5 17 26.3 38 26.3 63.1c0 30.9 -12.5 52.7 -37.6 65.2c-8.2 4.1 -13.2 7.6 -14.9 10.6c-1.8 3 -2.7 9.4001 -2.7 19.2zm-36.6 10.8c13.4 0 24.8 4.8 34.4 14.5c9.6 9.7 14.4 21.2 14.4 34.5c0 13.4 -4.8 24.7 -14.3 34c-9.5 9.3 -21.1 14 -34.5 14c-14 0 -25.6 -4.5 -34.6 -13.6c-9.1 -9.1 -13.6 -20.6 -13.6 -34.6c0 -13.6 4.7 -25.2 14.1 -34.6c9.4 -9.4 20.8 -14.2 34.1 -14.2z"></path></g><path fill="#fff" d="m210 140l-67.3 30.4c-3.7 1.7 -6.8 4.4 -9 7.8l-3.7 5.9c-3.3 5.2 -5 11.1 -5 17.2l0 19.7l0 31l0 23.1c0 1.2 0.4 2.3 1.2 3.2l5.4 5.9c1.8 2 5 2.1 6.9 0.2l5.5 -5.5l7.9 -8c4.8 -8.3 11.5 -16.5 12.5 -26.5l3 -29.6c0.1 -0.6 0.2 -1.2 0.5 -1.8l16.6 -31.4c0.3 -0.5 0.6 -1 1.1 -1.4l30.8 -26.9c0.4 -0.3 0.7 -0.7 0.9 -1.1l5.3 -8.7c2.5 -4.1 -1.9 -8.9 -6.1 -6.8l-6.5 3.3z" transform="translate(3 6)" opacity="0.56"></path></g></g></svg>