<svg xmlns="http://www.w3.org/2000/svg" viewBox="0 0 650 650" overflow="hidden" preserveAspectRatio="xMidYMid meet" id="eaf-2d8b-0"><defs><clipPath id="eaf-2d8b-1"><rect x="0" y="0" width="650" height="650"></rect></clipPath><style>#eaf-2d8b-0 * {animation: 7000ms linear infinite normal both running;offset-rotate:0deg}@keyframes eaf-2d8b-2{0%,100%{transform:none;offset-path:path("m258.0507 413.1953l1.3884 2.1125l-1.3884 -2.1125")}}@keyframes eaf-2d8b-3{0%{offset-distance:0%;animation-timing-function:ease-in-out}42.86%{offset-distance:50%;animation-timing-function:ease-in-out}85.71%,100%{offset-distance:100%}}@keyframes eaf-2d8b-4{0%{transform:rotate(0);animation-timing-function:ease-in-out}42.86%{transform:rotate(20deg);animation-timing-function:ease-in-out}85.71%,100%{transform:rotate(0)}}@keyframes eaf-2d8b-5{0%{transform:scale(1.06,1.06);animation-timing-function:ease-in-out}42.86%{transform:scale(1.0179,1);animation-timing-function:ease-in-out}85.71%,100%{transform:scale(1.06,1.06)}}@keyframes eaf-2d8b-6{0%,100%{transform:translate(-286.1707px,-425px)}}</style></defs><g clip-path="url('#eaf-2d8b-1')" style="isolation: isolate;"><g><path fill="#f3582c" d="m651 325.1c0 81.6 0 163.1 0 244.7c0 37.4 -28.2 71.6 -65 78.6c-5.5 1 -11.1 1.6 -16.6 1.6c-162.6 0 -325.2 0 -487.7 0c-39.9 0.0001 -74.7 -30.5999 -79.9 -70.2c-0.5 -3.5 -0.8 -7 -0.8 -10.6c0 -163 0 -326 0 -488.9c0 -37.4 28.2 -71.6 65 -78.6c5.4 -1 11.1 -1.6 16.6 -1.6c162.7 -0.1 325.4 -0.1 488.1 -0.1c37.4 0 71.6 28.2 78.6 65c1 5.4 1.6 11.1 1.6 16.6c0.1 81.2 0.1 162.3 0.1 243.5l0 0l0 0z"></path><path fill="#01507b" d="m155.5 444.8c-15 -2.1 -29.3 -4.2 -43.5 -5.9c-6.8 -0.8 -13.6 -1.2 -20.4 -1.4c-1.5 0 -3.7 1.2 -4.5 2.5c-9.2 15.6 -7.9 31.9 -1.9 48.3c0.5 1.3 3.3 2.1 5.1 2.4c20.1 2.7 40.2 5.2 60.3 7.8c1.1 0.1 2.2 0.7 2.5 0.9c0 14.1 0.4 27.7 -0.2 41.4c-0.3 6.7 -5.1 9.6 -10.9 10.7c-28 5.4 -55.9 11 -83.9 16.5c-6.3 1.3 -12.7 2.6 -19 3.7c-7.7 1.4 -10.2 -1 -10.1 -9.4c0.6 -49.6 1.3 -99.3 2 -148.9c0.1 -8.7 0.3 -17.4 0.5 -26.2c0.2 -8.7 3.2 -12.5 10.9 -13.7c34.7 -5.7 69.3 -11.4 103.9 -17.1c8.8 -1.4 11.6 1 11.3 10.9c-0.6 25.6 -1.4 51.3 -2.1 77.5z" transform="matrix(1.1392 0 0 1.1392 -15.5068 -75.1813)"></path><path fill="#7ebfe2" stroke="#01507b" stroke-width="10" d="m276 411.4c8.7 7 16.9 13.7 26.3 21.2c-5 7.7 -9.2 15.2 -14.2 21.6c-13.4 17.3 -30.1 25.2 -47.6 30.6c-35 10.9 -70.6 9.2 -106.5 3.8c-12.8 -1.9 -25.7 -1.7 -38.6 -2c-3.5 -0.1 -6.1 -0.9 -6.6 -6.4c-0.8 -9 -1.7 -18 -2.1 -27c-0.3 -6.4 2.5 -8.4 6.9 -8c21.2 1.9 42.4 2.7 63.5 5.3c29.5 3.7 58.2 0.9 86.3 -9.6c13 -4.9 24.1 -13.8 32.6 -29.5z" transform="translate(-2.5189 -10.5887)"></path><g transform="matrix(1.06 0 0 1.06 -45.2902 -37.3047)" style="animation-name: eaf-2d8b-2, eaf-2d8b-3, eaf-2d8b-4, eaf-2d8b-5, eaf-2d8b-6; animation-composition: replace, add, add, add, add;"><polygon points="164.9,164.4 154.4,218.9 288.9,325.9 404.4,351.8 392.4,446.2 413.6,479.3 474.4,518.9 444.1,402.4 467.3,361.2 510.2,326.8 573.9,313.1 604,351.8 625.6,351.5 625.6,314.5 590.9,273.9" fill="#fefadf"></polygon><path fill="#e1f3fd" stroke="#01507b" stroke-width="10" d="m596.4 276.9c-23 -4.3 -45.3 -0.9 -65.5 11.2c-16.5 9.9 -31.3 23.2 -46.7 35.2c-8.6 6.7 -16.8 13.9 -25.4 20.5c-5.5 4.2 -11.7 5.9 -18.5 3.1c-92.6 -37.6 -141 -49 -224.3 -108.1c-16.4 -11.7 -31.9 -24.8 -44.8 -41.3c-12.2 -15.7 -12.5 -24.3 -1.8 -41.3c22.1 -35.2 61.3 -52.2 95.2 -40.2c11.5 4.1 22.3 10.6 33.4 16.3c111.6 57.6 181.2 84 292.8 141.6c2 1 3.8 2 5.6 3z"></path><path fill="#01507b" d="m421.5 352.5c-17.9 43.3 -21.4 86.1 -1.9 130.6c-2.7 -1.7 -4.4 -2.6 -6.1 -3.8c-20.2 -14.1 -40.3 -28.4 -60.7 -42.2c-2.7 -1.8 -6.7 -2.3 -9.8 -1.8c-6.4 1 -12.7 3.1 -19 4.8c-7.9 2.2 -15 0.5 -21.6 -4.4c-9.3 -6.8 -18.8 -13.3 -27.4 -20.9c-5.4 -4.8 -9.5 -11.5 -14.2 -17.3c-0.7 -0.8 -1.1 -2 -1.5 -3c-8 -25.8 -24.5 -42.5 -45.9 -55.5c-21.6 -13.2 0.5 1.4 -21 -12.1c-39.7 -25.1 -48.7 -73.8 -36.5 -114c1 -3.4 2.4 -6.7 3.9 -11c3.8 4.4 7 8.3 10.4 12c21.8 23.4 47.3 41.4 73.5 58c68.2 43.3 98 46.8 171.4 77.9c2 0.8 4 1.6 6.4 2.7z"></path><path fill="#01507b" d="m432.2 356.6c2.9 1 5.4 2 8 2.7c8.2 2.2 16.1 0.7 22.9 -4.5c11.1 -8.4 21.7 -17.4 32.5 -26.2c9.5 -7.7 18.9 -15.5 28.5 -22.9c11.4 -8.8 24.2 -14 37.8 -16.3c3.6 -0.6 8.1 0.4 11.2 2.4c24.7 15.9 37 40.8 41 71c8.1 61 -26.3 128.2 -77.7 151.3c-32.2 14.5 -63.1 12.5 -90.2 -13.7c-17.9 -17.4 -26.2 -40.4 -28.3 -65.9c-2.2 -27.2 2.6 -53 14.3 -77.9zm76.7 107.4c3.1 -0.5 6.3 -0.7 9.3 -1.4c34.4 -8.3 57.8 -53.3 46.8 -89.9c-7.4 -24.6 -28.8 -37 -51.6 -29.9c-32 10 -53.3 52.4 -43.9 87.4c5.5 20.4 20.8 33.4 39.4 33.8z"></path><path fill="#01507b" d="m595 278.8c11.6 5.6 21.7 18.7 31.1 27.2c9.1 8.2 13.5 22.1 12.3 36.3c-0.5 5.9 -7.7 10.8 -12.8 9.3c-1.1 -0.3 -2.5 -1.8 -2.8 -3c-5.1 -23 -15.6 -45.2 -32 -60.9c0.3 -0.7 3.9 -8.3 4.2 -8.9z" transform="translate(1 -7)"></path><path fill="#f4b526" d="m508.8 485.8c-24.3 -0.4 -44.4 -17.5 -51.6 -44.3c-12.3 -45.8 15.6 -101.4 57.5 -114.5c29.9 -9.3 57.9 6.9 67.6 39.2c14.4 47.9 -16.3 107 -61.3 117.8c-3.9999 0.9 -8.2 1.2 -12.2 1.8z"></path><polyline points="512,339.8 494.9,347.1 477.8,370.3 471.5,400.1 483.5,412.6 499.3,387 510.1,364.8 531.6,355.1 534.7,339.8" fill="#fff"></polyline><polyline points="525.7,470.3 543.4,465.1 562.7,444.1 572,415.2 561.3,401.4 543,425 530.1,445.7 507.8,452.8 503.1,467.6" fill="#fff" opacity="0.62"></polyline></g></g></g></svg>

