<svg xmlns="http://www.w3.org/2000/svg" viewBox="0 0 769 769" overflow="hidden" preserveAspectRatio="xMidYMid meet" id="eaf-165d8-0"><defs><clipPath id="eaf-165d8-1"><rect x="0" y="0" width="769" height="769"></rect></clipPath><style>#eaf-165d8-0 * {animation: 12000ms linear infinite normal both running;offset-rotate:0deg}@keyframes eaf-165d8-2{0%{opacity:1}87.5%{opacity:1}100%{opacity:0}}@keyframes eaf-165d8-3{0%,100%{transform:none;offset-path:path("m395.5 259l0 0l251.0523 0")}}@keyframes eaf-165d8-4{0%{offset-distance:0%}8.33%{offset-distance:0%}14.44%,100%{offset-distance:100%}}@keyframes eaf-165d8-5{0%,100%{transform:translate(-272.5px,-52px)}}@keyframes eaf-165d8-6{0%,100%{transform:none;offset-path:path("m388.5 353.85l7 0l582.8122 0")}}@keyframes eaf-165d8-7{0%{offset-distance:0%}18.89%{offset-distance:1.1868%}29.17%,100%{offset-distance:100%}}@keyframes eaf-165d8-8{0%,100%{transform:matrix(1.0261,0,0,1,-279.6,-30.25)}}@keyframes eaf-165d8-9{0%,100%{transform:none;offset-path:path("m388.5 426.75l0 0l501.849 0")}}@keyframes eaf-165d8-10{0%{offset-distance:0%}33.33%{offset-distance:0%}39.73%,100%{offset-distance:100%}}@keyframes eaf-165d8-11{0%,100%{transform:translate(-272.5px,-30.25px)}}@keyframes eaf-165d8-12{0%,100%{transform:none;offset-path:path("m386.5 516.45l0 0l559.4 0")}}@keyframes eaf-165d8-13{0%{offset-distance:0%}43.61%{offset-distance:0%}53.61%,100%{offset-distance:100%}}@keyframes eaf-165d8-14{0%,100%{transform:none;offset-path:path("m391.2 597.6l0 0l240.1122 0")}}@keyframes eaf-165d8-15{0%{offset-distance:0%}57.23%{offset-distance:0%}63.62%,100%{offset-distance:100%}}@keyframes eaf-165d8-16{0%,100%{transform:translate(-272.5px,-53.4px)}}</style></defs><g clip-path="url('#eaf-165d8-1')" style="isolation: isolate;"><g><path fill="#f3582c" d="m768.1 385.5c0 96.2 0 192.5 0 288.8c0 44.1 -33.3 84.4 -76.7 92.7c-6.4 1.2 -13.1 1.9 -19.6 1.9c-191.9 0.1 -383.8 0.1 -575.7 0.1c-47 0 -88.1 -36.1 -94.2 -82.9c-0.6 -4.1 -0.9 -8.3 -0.9 -12.5c0 -192.4 0 -384.7 0 -577c0 -44.1 33.3 -84.5 76.7 -92.7c6.4 -1.3 13 -1.9 19.6 -1.9c192 -0.1 384.1 -0.1 576.1 -0.1c44.1 0 84.5 33.3 92.7 76.7c1.2 6.4 1.9 13.1 1.9 19.6c0.1 95.8 0.1 191.6 0.1 287.3z"></path><path fill="#000000" d="m390.6 660.8c-90.6 0 -181.3 -0.2 -271.9 0.2c-9.5 0 -11.8 -2.4 -11.8 -11.8c0.3 -136.4 0.3 -301.7 0 -438.1c0 -9.8 2 -12.7 12.3 -12.6c181.3 0.3 362.6 0.3 543.8 0c10.2 0 12.4 2.7 12.4 12.6c-0.3 136.4 -0.3 301.7 0 438.1c0 9.2 -2.1 11.9 -11.7 11.9c-91 -0.4 -182 -0.3 -273.1 -0.3z" transform="matrix(1 0 0 0.9 0.9 44.2799)"></path><g transform="matrix(1 0 0 0.9 0.9 44.2764)" style="animation-name: eaf-165d8-2;"><path fill="#fefadf" stroke="#fefadf" stroke-width="22" d="m400.2 364.1c-45.1 0 -90.2 0 -135.3 0c-7.4 0 -13.8 0.9 -13.9 -11c0 -12.3 6.8 -10.7 14 -10.7c89.7 0 179.4 0 269.1 0c7.3 0 13.8 -1.3 13.7 10.8c0 12.1 -6.6 10.8 -13.9 10.8c-44.5 0.1 -89.1 0.1 -133.7 0.1z" transform="translate(6 -5)"></path><path fill="#f2b422" stroke="#f2b422" stroke-width="22" d="m313.6 438.4c-24.6 0 -49.3 -0.2 -73.9 0.1c-7.5 0.1 -11.4 -1.7 -11.2 -10.7c0.2 -8.3 1.8 -12.9 11.1 -12.9c49.7 0.3 99.5 0.4 149.2 0c9.3 -0.1 10.9 4.1 11 12.6c0.1 8.7 -3 11.2 -10.9 11c-25.1 -0.3 -50.2 -0.1 -75.3 -0.1z" transform="translate(13 3)"></path><path fill="#fefadf" stroke="#fefadf" stroke-width="22" d="m210.1 510.8c-25.6 0 -51.2 -0.2 -76.7 0.1c-6.9 0.1 -10.4 -1.6 -10.3 -9.9c0.1 -7.7 1.3 -11.9 10.1 -11.8c51.2 0.4 102.3 0.4 153.5 0c8.6 -0.1 10.1 3.6 10.1 11.5c0 7.9 -2.5 10.3 -9.9 10.2c-25.6 -0.3 -51.2 -0.1 -76.8 -0.1z" transform="translate(-0.0979 13.7489)"></path><path fill="#d60003" stroke="#d60004" stroke-width="22" d="m400.8 510.8c-24.7 0 -49.3 -0.1 -74 0.1c-7 0 -12.7 0.8 -12.9 -10.3c-0.1 -11.6 5.8 -11.3 13.5 -11.2c48.8 0.2 97.7 0.1 146.5 0.1c6.8 0 14 -2.2 14.2 10.3c0.3 13.5 -7.6 11 -14.9 11c-24 0 -48.2 0 -72.4 0z" transform="translate(13.2488 13.3559)"></path><path fill="#d60003" stroke="#d60004" stroke-width="22" d="m488.6 438.3c-18.5 0 -37 -0.4 -55.5 0.2c-9 0.3 -11.3 -3.4 -11.2 -12.2c0 -8.6 2.9 -11.2 10.8 -11.2c37 0.3 74 0.4 111 0c8.9 -0.1 11.3 3.7 11.4 12.5c0.1 8.8 -3.2 11.1 -11 10.9c-18.4 -0.5 -37 -0.2 -55.5 -0.2z" transform="translate(32 3)"></path><path fill="#f2b422" stroke="#f2b422" stroke-width="22" d="m178.2 342.5c15.2 0 30.4 0.3 45.5 -0.1c7.7 -0.2 9.8 3.1 9.7 10.6c-0.1 7.4 -0.9 12.6 -9.8 12.5c-30.3 -0.3 -60.7 -0.2 -91 0c-9 0.1 -9.5 -5.4 -9.7 -12.7c-0.2 -7.7 2.2 -10.7 9.8 -10.5c15.1 0.5 30.3 0.2 45.5 0.2z" transform="translate(0 -5)"></path><path fill="#dedfe1" d="m174.1 560.5c2.3 2.9 6.4 7.1 9.4 12.1c3 5 -2.8 6.5 -4.8 9.3c-5.8 7.8 -18.5 13.3 -17.6 21.9c0.9 7.9 11.1 15.3 18.2 21.8c7 6.3 4.1 9.8 -0.9 15.1c-5.3 5.8 -8.9 7.3 -14.7 0.5c-8.9 -10.4 -18.4 -20.3 -28.2 -29.8c-5.7 -5.5 -6.8 -9.3 -0.4 -15.3c10.2 -9.7 19.6 -20.4 29.4 -30.6c1.9 -2 3.2 -5.1 9.6 -5z"></path><path fill="#d9dbdd" d="m331.7 254.9c-6.8 -6.5 -12.7 -13 -19.6 -18.3c-9.6 -7.4 -6.4 -12.8 0.7 -19.5c4.7 -4.4 7.3 -4.3 11.5 0.2c10.1 11.2 20.4 22.2 31.1 32.8c5.5 5.4 3.7 8.8 -0.8 13.2c-10.2 10.4 -20.6 20.7 -30 31.8c-5.9 7 -9 3.1 -13.4 -1.4c-4.7 -4.9 -9.1 -8.8 -1.5 -15.2c5.8 -5 10.8 -11.1 16.1 -16.8c1.5999 -1.7 2.9999 -3.5 5.9 -6.8z"></path><path fill="#dedfe1" d="m172.1 301.9c-3.7 -3.5 -5.4 -5.1 -7.1 -6.8c-10.4 -10.9 -20.6 -22.1 -31.3 -32.7c-4.4 -4.4 -4.7 -7.2 -0.2 -11.8c11 -11 21.8 -22.3 32.2 -33.9c7 -7.8 9.5 0.2 13.3 3.5c4.2 3.6 7.4 6.8 1.5 12.8c-7.4 7.4 -20.2 14.2 -19.5 23.8c0.6 8.1 12.5 15.1 19.3 22.8c2 2.3 6.1 4.3 2.8 8.5c-3.5 4.6 -7.2 9 -11 13.8z"></path><path fill="#e1e2e3" d="m296.1 560c4.4 0 43.6 42.2 42.7 44.4c-0.9 2.2 -2.7 4 -4.3 5.8c-10 10.6 -20.4 20.8 -29.9 31.9c-5.4 6.2 -8.8 4.7 -13.3 -0.7c-4.1 -4.9 -9.4 -8.2 -2 -15.3c7.2 -6.9 19.6 -13.9 18.9 -22.6c-0.6 -8.1 -12.2 -15.1 -18.8 -22.8c-2 -2.3 -6.4 -4.2 -3.5 -8.4c3.3 -4.8 7.3 -8.9 10.2 -12.3z"></path><path fill="#d60003" stroke="#d60004" stroke-width="22" d="m165.7 438.3c-11.3 0 -22.7 -0.3 -34 0.1c-8.5 0.3 -8.7 -5 -8.7 -11.5c0.1 -6.4 -0.1 -11.9 8.5 -11.7c22.6 0.3 45.3 0.3 68 0c7.7 -0.1 8.1 4.8 7.9 10.8c-0.2 5.8 1.3 12.6 -7.8 12.4c-11.3 -0.3 -22.6 -0.1 -33.9 -0.1z" transform="translate(0 3)"></path><path fill="#f2b422" stroke="#f2b422" stroke-width="22" d="m550.4 510.8c-11.8 0 -23.7 -0.4 -35.5 0.1c-7.9 0.4 -10.7 -2.2 -10.7 -10.9c0 -8.7 3 -11 10.8 -10.9c24.1 0.4 48.3 0.4 72.4 0c7.9 -0.1 10.8 2.4 10.9 11c0.1 8.9 -3.3 11.1 -11 10.8c-12.3 -0.4 -24.6 -0.1 -36.9 -0.1z" transform="translate(30.549 13.6098)"></path><path fill="#f2b422" stroke="#f2b422" stroke-width="22" d="m605.3 342.5c10.9 0 21.7 0.3 32.6 -0.1c7.2 -0.3 9 3.4 8.6 10c-0.3 5.9 1 12.8 -7.7 12.9c-22.2 0.1 -44.4 0.1 -66.6 0c-8.7 0 -7.6 -6.7 -7.8 -12.7c-0.2 -6.3 0.8 -10.6 8.3 -10.3c10.9 0.5 21.8 0.2 32.6 0.2z" transform="translate(19 -5)"></path><path fill="#dedfe1" d="m260.1 577.3c-1.1 1.9 -2.1 3.6 -3.1 5.2c-12.5 18.7 -25.3 37.3 -37.5 56.3c-5.6 8.7 -9.2 1.7 -13.6 -0.9c-5 -2.9 -8.3 -5.8 -3.6 -12.6c12.9 -18.5 25.2 -37.4 37.7 -56.2c2.3 -3.5 4.8 -6.4 9.1 -2.6c3.8 3.4 9.2 4.9 11 10.8z"></path><path fill="#e6e6e7" d="m244.1 267.3c-9 0 -17.9 -0.3 -26.9 0.1c-7.8 0.3 -12.8 0.3 -12.9 -11.2c-0.1 -12.5 6.5 -10.6 13.5 -10.6c17.9 0 35.9 0 53.8 0c6.9 0 13.5 -2 13.7 10.6c0.1 13.3 -6.9 11.2 -14.3 11.2c-9 -0.2 -17.9 -0.1 -26.9 -0.1z"></path></g><g transform="matrix(1 0 0 0.9 0.9 44.2)"><rect fill="#000000" width="545" height="104" transform="translate(123 207)" style="animation-name: eaf-165d8-3, eaf-165d8-4, eaf-165d8-5; animation-composition: replace, add, add;"></rect><rect fill="#000000" width="545" height="60.5" transform="matrix(1.0261 0 0 1 108.9 323.6)" style="animation-name: eaf-165d8-6, eaf-165d8-7, eaf-165d8-8; animation-composition: replace, add, add;"></rect><rect fill="#000000" width="545" height="60.5" transform="translate(116 396.5)" style="animation-name: eaf-165d8-9, eaf-165d8-10, eaf-165d8-11; animation-composition: replace, add, add;"></rect><rect fill="#000000" width="545" height="60.5" transform="translate(114 486.2)" style="animation-name: eaf-165d8-12, eaf-165d8-13, eaf-165d8-11; animation-composition: replace, add, add;"></rect><rect fill="#000000" width="545" height="106.8" transform="translate(118.7 544.2)" style="animation-name: eaf-165d8-14, eaf-165d8-15, eaf-165d8-16; animation-composition: replace, add, add;"></rect></g><path fill="#f3582c" d="m768 96.9c0 -6.5 -0.7 -13.2 -1.9 -19.6c-8.2 -43.4 -48.6 -76.7 -92.7 -76.7c-192 0 -384.1 0 -576.1 0.1c-6.6 0 -13.2 0.6 -19.6 1.9c-43.4 8.2 -76.7 48.6 -76.7 92.7c0 192.3 0 384.6 0 577c0 4.2 0.3 8.4 0.9 12.5c6.1 46.8 47.2 82.9 94.2 82.9c191.9 0 383.8 0 575.7 -0.1c6.5 0 13.2 -0.7 19.6 -1.9c43.4 -8.3 76.7 -48.6 76.7 -92.7c0 -96.3 0 -192.6 0 -288.8c0 -95.7 0 -191.5 -0.1 -287.3zm-92.6 551c0 9.2 -2.1 11.9 -11.7 11.9c-91 -0.4 -182 -0.3 -273.1 -0.3c-90.6 0 -181.3 -0.2 -271.9 0.2c-9.5 0 -11.8 -2.4 -11.8 -11.8c0.3 -136.4 0.3 -301.7 0 -438.1c0 -9.8 2 -12.7 12.3 -12.6c181.3 0.3 362.6 0.3 543.8 0c10.2 0 12.4 2.7 12.4 12.6c-0.3 136.3999 -0.3 301.6999 0 438.0999z" transform="matrix(1 0 0 0.9 0.9 39.715)"></path><path fill="#ffffff" stroke="#000000" stroke-width="20.8444" stroke-miterlimit="10" d="m708 97.2c2.3 7.7 3 15.6 3 23.7c-0.1 154.3 -0.1 320.7 -0.1 532.9001c0 31.4 -13.2 44.6 -44.6 44.6c-182.8 0 -365.7 0 -548.5 0.1c-8.5 0 -16.8 -0.4 -24.9 -2.8c-15.9 -9.2 -21.6 -23.2 -21.5 -41.2c0.3 -213 0.1 -380.2 0.1 -535.2c0 -29.6 13.9 -43.6 43.4 -43.6c184.4 0 368.8 0 553.2 -0.1c17.4999 0.1 31.1 6.1 39.9 21.6zm-317.4 565.6c91 0 182.1 -0.2 273.1 0.2c9.6 0 11.7 -2.6 11.7 -11.9c-0.3 -136.4 -0.3 -301.7 0 -438.1c0 -9.9 -2.2 -12.6 -12.4 -12.6c-181.3 0.3 -362.6 0.3 -543.8 0c-10.3 0 -12.3 2.9 -12.3 12.6c0.3 136.4 0.3 301.7 0 438.1c0 9.4 2.3 11.8 11.8 11.8c90.6 -0.2 181.3 -0.1 271.9 -0.1zm-259.1 -541.8c-13.4 -0.1 -23.9 9.7 -24.3 22.8c-0.4 13.1 10.7 25 23.7 25.2c12.9 0.2 24.5 -11.4 24.4 -24.5c-0.1 -13.2 -10.5 -23.4 -23.8 -23.5zm155.8 0c-13.2 0.2 -23.6 10.4 -23.7 23.5c-0.1 13.1 11.6 24.7 24.4 24.5c13 -0.2 24.1 -12.2 23.6 -25.2c-0.3 -13.1 -10.9 -23 -24.3 -22.8zm-54.1 23.3c-0.2 -13.2 -10.6 -23.4 -23.9 -23.3c-13.7 0.1 -24.2 11 -23.7 24.8c0.5 12.8 11.8 23.5 24.5 23c13 -0.5 23.3 -11.5 23.1 -24.5z" transform="matrix(1 0 0 0.9 0.9 40.005)"></path><g transform="matrix(1 0 0 0.9 0.9 39.695)"><path fill="#f6e69a" d="m131.5 120c13.3 0.1 23.6 10.4 23.7 23.4c0.1 13.1 -11.5 24.7 -24.4 24.5c-12.9 -0.2 -24.1 -12.1 -23.7 -25.2c0.5 -13.1 11 -22.9 24.4 -22.7z"></path><path fill="#06e500" d="m287.3 120c13.3 -0.2 23.9 9.7 24.4 22.7c0.5 13.1 -10.7 25 -23.6 25.2c-12.8 0.2 -24.5 -8.8 -24.4 -24.5c0 -13 10.4 -23.3 23.6 -23.4z"></path><path fill="#ce1100" d="m233.2 143.3c0.2 13 -10.1 24 -23 24.5c-12.7 0.5 -24 -10.2 -24.5 -23c-0.5 -13.7 10 -24.7 23.7 -24.8c13.2 -0.1 23.6 10.1 23.8 23.3z"></path></g></g></g></svg>

