<svg xmlns="http://www.w3.org/2000/svg" viewBox="0 0 769 769" overflow="hidden" preserveAspectRatio="xMidYMid meet" id="eaf-3876-0"><defs><clipPath id="eaf-3876-1"><rect x="0" y="0" width="769" height="769"></rect></clipPath><style>#eaf-3876-0 * {animation: 10000ms linear infinite normal both running;offset-rotate:0deg}@keyframes eaf-3876-2{0%,100%{transform:translate(384.5px,385.45px)}}@keyframes eaf-3876-3{0%{transform:rotate(0);animation-timing-function:ease-in-out}50%{transform:rotate(180deg);animation-timing-function:ease-in-out}100%{transform:rotate(0)}}@keyframes eaf-3876-4{0%,100%{transform:translate(-384.5px,-385.45px)}}</style></defs><g clip-path="url('#eaf-3876-1')" style="isolation: isolate;"><g><path fill="#f3582c" d="m768.1 385.5c0 96.2 0 192.5 0 288.8c0 44.1 -33.3 84.4 -76.7 92.7c-6.4 1.2 -13.1 1.9 -19.6 1.9c-191.9 0.1 -383.8 0.1 -575.7 0.1c-47 0 -88.1 -36.1 -94.2 -82.9c-0.6 -4.1 -0.9 -8.3 -0.9 -12.5c0 -192.4 0 -384.7 0 -577c0 -44.1 33.3 -84.5 76.7 -92.7c6.4 -1.3 13 -1.9 19.6 -1.9c192 -0.1 384.1 -0.1 576.1 -0.1c44.1 0 84.5 33.3 92.7 76.7c1.2 6.4 1.9 13.1 1.9 19.6c0.1 95.8 0.1 191.6 0.1 287.3z"></path><g style="animation-name: eaf-3876-2, eaf-3876-3, eaf-3876-4; animation-composition: replace, add, add;"><ellipse fill="#fefadf" stroke="#000000" stroke-width="20" rx="337.9" ry="337.9" transform="translate(384.5 385.45)"></ellipse><g transform="translate(-0.9681 0.1)"><path fill="#8bd0f5" d="m168.7 401c9.1 5.6 15.9 13.6 20.1 22.7l196.6 -18.1c3.1 -12.2 10.7 -23.3 22.2 -30.4c16.7 -11 37.6 -10.7 54 -1.2l98.6 -81.9c-4.1 -10.8 -4.6 -23.1 -0.6 -35c2.2 -6.4 5.5 -12.1 9.6 -16.9c-43 -54.9 -109.8 -90.2 -184.7 -90.2c-129.2 0 -234.3 105.1 -234.3 234.3c0 3.4 0.1 6.8 0.2 10.2c6.3 1 12.5 3.1 18.3 6.5z"></path><path fill="#8bd0f5" d="m493.3 571.4c0.8 -9.6 4.1 -18.3 9.3 -25.6l-53.6 -77.3c-21 5.7 -44.4 -2.5 -57 -22c-1.4 -2.1 -2.5 -4.3 -3.6 -6.5l-196.2 18c-1.2 4.7 -3 9.4 -5.6 13.8c-3.4 5.8 -7.8 10.6 -12.9 14.4c38 78.3 118.2 132.4 210.9 132.4c40.1 0 77.8 -10.1 110.8 -27.9c-1.8 -6.1 -2.6 -12.6 -2.1 -19.2999z"></path><path fill="#8bd0f5" d="m591.8 322.7c-3.3 -1.1 -6.4 -2.6 -9.4 -4.3l-98.5 81.8c6.2 16.2 3.6 34.5 -6.5 48.5l53.5 77.2c5.9 -1.7 12.3 -2.3 18.8 -1.8c6.7 0.7 12.9 2.5 18.5 5.4c31.7 -40 50.6 -90.4 50.6 -145.3c0 -20.3 -2.6 -40.1 -7.5 -58.9c-6.3999 0.4999 -12.9999 -0.4001 -19.4999 -2.6001z"></path><path fill="#000000" d="m657.4 290.5c9.2 -27.1 -5.2 -56.4 -32.2 -65.6c-8.6 -2.9 -17.3 -3.5 -25.6 -2c-7.6 -10 -15.9 -19.6 -24.9 -28.6c-50.8 -50.8 -118.3 -78.7 -190.1 -78.7c-71.8 0 -139.3 28 -190.1 78.7c-50.8 50.8 -78.7 118.3 -78.7 190.1c0 5.5 0.2 11 0.5 16.5c-7.4 4.2 -13.7 10.3 -18.4 18.1c-14.4 24.8 -6.3 56.4 17.8 70.8c7.7 4.5 16.2 6.8 24.5 7.1c13.1 28.5 31.4 54.8 54.2 77.6c50.8 50.8 118.3 78.7 190.1 78.7c46.8 0 91.8 -11.9 131.5 -34.2c7 4.8 15.4 8 24.5 8.9c28.8 2.3 53.5 -18.4 56.4 -47.2c0.7 -9.1 -0.9 -18 -4.5 -25.8c39.5 -47.9 60.9 -107.6 60.9 -170.5c0 -24.9 -3.4 -49.2 -9.8 -72.5c6.2 -5.7 10.9999 -13 13.9 -21.4zm-272.9 -140.5c74.9 0 141.7 35.3 184.6 90.2c-4.1 4.8 -7.4 10.5 -9.6 16.9c-4 11.9 -3.5 24.1 0.6 35l-98.6 81.9c-16.4 -9.6 -37.3 -9.8 -54 1.2c-11.5 7.1 -19.1 18.2 -22.2 30.4l-196.6 18.1c-4.2 -9.1 -11 -17.1 -20.1 -22.7c-5.8 -3.4 -12 -5.5 -18.2 -6.5c-0.1 -3.4 -0.2 -6.8 -0.2 -10.2c0.1001 -129.2 105.2 -234.3 234.3 -234.3zm-210.9 336.2c5.1 -3.8 9.5 -8.7 12.9 -14.4c2.6 -4.4 4.5 -9 5.6 -13.8l196.3 -18.1c1 2.2 2.2 4.4 3.6 6.5c12.6 19.5 36 27.8 57 22l53.6 77.3c-5.2 7.3 -8.5 16 -9.3 25.6c-0.5 6.7 0.2 13.2 2 19.3c-33 17.8 -70.8 27.9 -110.8 27.9c-92.6001 0.1 -172.9001 -54 -210.9001 -132.3zm445.2 -101.9c0 54.8 -18.9 105.3 -50.6 145.3c-5.6 -2.8 -11.8 -4.7 -18.5 -5.4c-6.5 -0.5 -12.9 0.2 -18.8 1.8l-53.5 -77.2c10.1 -14 12.7 -32.3 6.5 -48.5l98.5 -81.8c2.9 1.7 6 3.1 9.4 4.3c6.5 2.2 13.1 3 19.6 2.7c4.8 18.7001 7.4 38.5001 7.4 58.8z"></path></g></g></g></g></svg>