<svg xmlns="http://www.w3.org/2000/svg" viewBox="0 0 500 500" overflow="hidden" preserveAspectRatio="xMidYMid meet" id="eaf-147e7-0"><defs><clipPath id="eaf-147e7-1"><rect x="0" y="0" width="500" height="500"></rect></clipPath><radialGradient gradientUnits="userSpaceOnUse" cx="249.9" cy="250.7" r="221.4" id="eaf-147e7-2"><stop stop-color="#fff" offset="0"></stop><stop stop-color="#fff" offset="0.16"></stop><stop stop-color="#e6e6e6" offset="1"></stop></radialGradient><style>#eaf-147e7-0 * {animation: 60000ms linear infinite normal both running;offset-rotate:0deg}@keyframes eaf-147e7-3{0%,100%{transform:translate(249.7px,250px)}}@keyframes eaf-147e7-4{0%{transform:rotate(0);animation-timing-function:step-start}1.67%{transform:rotate(6deg);animation-timing-function:step-start}3.33%{transform:rotate(12deg);animation-timing-function:step-start}5%{transform:rotate(18deg);animation-timing-function:step-start}6.67%{transform:rotate(24deg);animation-timing-function:step-start}8.33%{transform:rotate(30deg);animation-timing-function:step-start}10%{transform:rotate(36deg);animation-timing-function:step-start}11.67%{transform:rotate(42deg);animation-timing-function:step-start}13.33%{transform:rotate(48deg);animation-timing-function:step-start}15%{transform:rotate(54deg);animation-timing-function:step-start}16.67%{transform:rotate(60deg);animation-timing-function:step-start}18.33%{transform:rotate(66deg);animation-timing-function:step-start}20%{transform:rotate(72deg);animation-timing-function:step-start}21.67%{transform:rotate(78deg);animation-timing-function:step-start}23.33%{transform:rotate(84deg);animation-timing-function:step-start}25%{transform:rotate(90deg);animation-timing-function:step-start}26.67%{transform:rotate(96deg);animation-timing-function:step-start}28.33%{transform:rotate(102deg);animation-timing-function:step-start}30%{transform:rotate(108deg);animation-timing-function:step-start}31.67%{transform:rotate(114deg);animation-timing-function:step-start}33.33%{transform:rotate(120deg);animation-timing-function:step-start}35%{transform:rotate(126deg);animation-timing-function:step-start}36.67%{transform:rotate(132deg);animation-timing-function:step-start}38.33%{transform:rotate(138deg);animation-timing-function:step-start}40%{transform:rotate(144deg);animation-timing-function:step-start}41.72%{transform:rotate(150deg);animation-timing-function:step-start}43.39%{transform:rotate(156deg);animation-timing-function:step-start}45.06%{transform:rotate(162deg);animation-timing-function:step-start}46.72%{transform:rotate(168deg);animation-timing-function:step-start}48.39%{transform:rotate(174deg);animation-timing-function:step-start}50.06%{transform:rotate(0);animation-timing-function:step-start}51.72%{transform:rotate(6deg);animation-timing-function:step-start}53.39%{transform:rotate(12deg);animation-timing-function:step-start}55.06%{transform:rotate(18deg);animation-timing-function:step-start}56.72%{transform:rotate(24deg);animation-timing-function:step-start}58.39%{transform:rotate(30deg);animation-timing-function:step-start}60.06%{transform:rotate(36deg);animation-timing-function:step-start}61.72%{transform:rotate(42deg);animation-timing-function:step-start}63.39%{transform:rotate(48deg);animation-timing-function:step-start}65.06%{transform:rotate(54deg);animation-timing-function:step-start}66.72%{transform:rotate(60deg);animation-timing-function:step-start}68.39%{transform:rotate(66deg);animation-timing-function:step-start}70.06%{transform:rotate(72deg);animation-timing-function:step-start}71.72%{transform:rotate(78deg);animation-timing-function:step-start}73.39%{transform:rotate(84deg);animation-timing-function:step-start}75.06%{transform:rotate(90deg);animation-timing-function:step-start}76.72%{transform:rotate(96deg);animation-timing-function:step-start}78.39%{transform:rotate(102deg);animation-timing-function:step-start}80.06%{transform:rotate(108deg);animation-timing-function:step-start}81.72%{transform:rotate(114deg);animation-timing-function:step-start}83.39%{transform:rotate(120deg);animation-timing-function:step-start}85.06%{transform:rotate(126deg);animation-timing-function:step-start}86.72%{transform:rotate(132deg);animation-timing-function:step-start}88.39%{transform:rotate(138deg);animation-timing-function:step-start}90.06%{transform:rotate(144deg);animation-timing-function:step-start}91.78%{transform:rotate(150deg);animation-timing-function:step-start}93.44%{transform:rotate(156deg);animation-timing-function:step-start}95.11%{transform:rotate(162deg);animation-timing-function:step-start}96.78%{transform:rotate(168deg);animation-timing-function:step-start}98.44%{transform:rotate(174deg);animation-timing-function:step-start}100%{transform:rotate(180deg)}}@keyframes eaf-147e7-5{0%,100%{transform:translate(-249.7px,-250px)}}@keyframes eaf-147e7-6{0%,100%{transform:translate(250.35px,251.65px)}}@keyframes eaf-147e7-7{0%{transform:rotate(0)}100%{transform:rotate(360deg)}}@keyframes eaf-147e7-8{0%,100%{transform:translate(-250.35px,-251.65px)}}</style></defs><g clip-path="url('#eaf-147e7-1')" style="isolation: isolate;"><g><g transform="matrix(4 0 0 4 -827.28 -2254.5264)"><path fill="#f3582c" d="m331.7 626.4c0 15.6 0 31.3 0 46.9c0 7.2 -5.4 13.7 -12.5 15.1c-1 0.2 -2.1 0.3 -3.2 0.3c-31.2 0 -62.4 0 -93.6 0c-7.6 0 -14.3 -5.9 -15.3 -13.5c-0.1 -0.7 -0.1 -1.4 -0.1 -2c0 -31.3 0 -62.5 0 -93.8c0 -7.2 5.4 -13.7 12.5 -15.1c1 -0.2 2.1 -0.3 3.2 -0.3c31.2 0 62.4 0 93.6 0c7.2 0 13.7 5.4 15.1 12.5c0.2 1 0.3 2.1 0.3 3.2c0 15.5999 0 31.0999 0 46.7z"></path></g><g style="filter: drop-shadow(rgba(0, 0, 0, 0.37) 5px 5px 7px);"><path fill="#f3582c" paint-order="stroke" d="m420.8 79.9c-45.7 -45.6 -106.3 -70.7 -170.9 -70.7c-64.5 0 -125.2 25.1 -170.8 70.7c-45.6 45.6 -70.7 106.3 -70.7 170.8c0 64.5 25.1 125.2 70.7 170.8c45.6 45.6 106.3 70.7 170.8 70.7c64.5 0 125.2 -25.1 170.8 -70.7c45.6 -45.6 70.7 -106.3 70.7 -170.8c0.1 -64.5 -25 -125.2 -70.6 -170.8z"></path></g><path fill="url('#eaf-147e7-2')" d="m249.9 472.1c-122.1 0 -221.4 -99.3 -221.4 -221.4c0 -122.1 99.4 -221.4 221.4 -221.4c122.1 0 221.4 99.3 221.4 221.4c0 122.1 -99.3 221.4 -221.4 221.4z"></path><path fill="#f3582c" d="m68.2344 57.1445l0 -28.916q0 -3.6914 1.6611 -5.5371q1.6611 -1.8457 4.3682 -1.8457q2.8301 0 4.4912 1.8457q1.6611 1.8457 1.6611 5.5371l0 29.5723q0 5.0449 1.1279 8.4287q1.1279 3.3838 3.999 5.25q2.8711 1.8662 8.0391 1.8662q7.1367 0 10.0898 -3.7939q2.9531 -3.7939 2.9531 -11.5049l0 -29.8184q0 -3.7324 1.6406 -5.5576q1.6406 -1.8252 4.3887 -1.8252q2.748 0 4.4502 1.8252q1.7021 1.8252 1.7021 5.5576l0 28.916q0 7.0547 -1.374 11.7715q-1.374 4.7168 -5.1885 8.2852q-3.2812 3.0352 -7.6289 4.4297q-4.3477 1.3945 -10.1719 1.3945q-6.9316 0 -11.9355 -1.4971q-5.0039 -1.4971 -8.1621 -4.6348q-3.1582 -3.1377 -4.6348 -8.0391q-1.4766 -4.9014 -1.4766 -11.71z" transform="translate(156.0674 55.2736)"></path><g style="animation-name: eaf-147e7-3, eaf-147e7-4, eaf-147e7-5; animation-composition: replace, add, add;"><path fill="#ffffff" stroke="#1dc400" stroke-width="7" stroke-miterlimit="10" paint-order="stroke" d="m250 449.9c0 -342.2 0 -399 0 -399"></path><line x1="50" y1="250.7" x2="449.6" y2="250.7" fill="none" stroke="#1dc400" stroke-width="7" stroke-miterlimit="10"></line></g><g style="filter: drop-shadow(rgba(0, 0, 0, 0.44) 5px 5px 6px);"><g><path fill="#f3582c" d="m64.7 138l-5.1 8.8l34.2 19.6c1.6 -3 3.3 -6 5.1 -8.8l-34.2 -19.6z"></path><g><path fill="#f3582c" d="m426.7 245.3c0 1.6 0.1 3.1 0.1 4.7c0 1.9 0 3.7 -0.1 5.5l40.7 0l0 -10.2l-40.7 0z"></path><path fill="#f3582c" d="m435.6 363l5.1 -8.8l-35.1 -20.2c-1.6 3 -3.3 5.9 -5.1 8.8l35.1 20.2z"></path><path fill="#f3582c" d="m354.2 440.1l8.8 -5.1l-20.2 -34.5c-2.9 1.8 -5.8 3.5 -8.8 5.1l20.2 34.5z"></path><path fill="#f3582c" d="m245.1 426.9l0.3 40.2l10.2 -0.1l-0.3 -40.1c-1.8 0.1 -3.6 0.1 -5.4 0.1c-1.6 -0.1 -3.2 -0.1 -4.8 -0.1z"></path><path fill="#f3582c" d="m138 436.1l8.9 5l19.7 -35c-3 -1.6 -6 -3.3 -8.9 -5.1l-19.7 35.1z"></path><path fill="#f3582c" d="m59.8 355.4l5.2 8.8l34.6 -20.6c-1.8 -2.9 -3.5 -5.8 -5.2 -8.8l-34.6 20.6z"></path><path fill="#f3582c" d="m73 246.2l-40.8 0.7l0.2 10.2l40.7 -0.7c-0.1 -2.1 -0.1 -4.3 -0.1 -6.4c-0.1 -1.3 -0.1 -2.5 0 -3.8z"></path><path fill="#f3582c" d="m145.9 60.8l-8.8 5.1l19.6 33.6c2.9 -1.8 5.8 -3.5 8.8 -5.1l-19.6 -33.6z"></path><path fill="#f3582c" d="m255 73.2l-0.4 -39.2l-10.2 0.1l0.3 39.1c1.7 0 3.4 -0.1 5.1 -0.1c1.8 0 3.5 0 5.2 0.1z"></path><path fill="#f3582c" d="m362.2 64.9l-8.9 -5l-19.3 34.4c3 1.6 5.9 3.3 8.8 5.1l19.4 -34.5z"></path><path fill="#f3582c" d="m440.3 145.5l-5.2 -8.8l-34.5 20.6c1.8 2.9 3.5 5.8 5.1 8.8l34.6 -20.6z"></path></g></g></g><path fill="#f3582c" d="m27.4736 27.8037q0 0.8467 -0.5063 1.8096q-0.5063 0.9629 -1.5439 1.8345q-1.0376 0.8716 -2.6147 1.4028q-1.5771 0.5313 -3.5527 0.5313q-4.2002 0 -6.5576 -2.4487q-2.3574 -2.4487 -2.3574 -6.5659q0 -2.7891 1.0791 -4.9307q1.0791 -2.1416 3.1211 -3.312q2.042 -1.1704 4.8809 -1.1704q1.7598 0 3.229 0.5146q1.4692 0.5146 2.4902 1.3281q1.021 0.8135 1.5605 1.7349q0.5396 0.9214 0.5396 1.7183q0 0.8135 -0.606 1.3779q-0.606 0.5645 -1.4692 0.5645q-0.5645 0 -0.938 -0.2905q-0.3735 -0.2905 -0.8384 -0.938q-0.8301 -1.2617 -1.7349 -1.8926q-0.9048 -0.6309 -2.2993 -0.6309q-2.0088 0 -3.2373 1.5688q-1.2285 1.5688 -1.2285 4.2915q0 1.2783 0.3154 2.3491q0.3154 1.0708 0.9131 1.8262q0.5977 0.7554 1.4443 1.1455q0.8467 0.3901 1.8594 0.3901q1.3613 0 2.3325 -0.6309q0.9712 -0.6309 1.7183 -1.9258q0.415 -0.7637 0.8965 -1.1953q0.4814 -0.4316 1.1787 -0.4316q0.8301 0 1.3779 0.6309q0.5479 0.6309 0.5479 1.3447zm8.3838 -16.8008l0 6.7236q0.8633 -0.9961 1.6851 -1.5771q0.8218 -0.5811 1.8179 -0.8716q0.9961 -0.2905 2.1416 -0.2905q1.7266 0 3.063 0.7305q1.3364 0.7305 2.1001 2.125q0.4814 0.8135 0.6475 1.8179q0.166 1.0044 0.166 2.3159l0 8.6826q0 1.3613 -0.6226 2.0586q-0.6226 0.6973 -1.6519 0.6973q-2.2412 0 -2.2412 -2.7559l0 -7.6533q0 -2.1748 -0.6475 -3.3452q-0.6475 -1.1704 -2.457 -1.1704q-1.2119 0 -2.1831 0.689q-0.9712 0.689 -1.4526 1.8843q-0.3652 1.0127 -0.3652 3.6025l0 5.9932q0 1.3447 -0.606 2.0503q-0.606 0.7056 -1.6851 0.7056q-2.2412 0 -2.2412 -2.7559l0 -19.6562q0 -1.3779 0.5894 -2.0669q0.5894 -0.689 1.6519 -0.689q1.0791 0 1.6851 0.6973q0.606 0.6973 0.606 2.0586zm20.6025 15.8711l0 3.7852q0 1.3779 -0.6475 2.0669q-0.6475 0.689 -1.6436 0.689q-0.9795 0 -1.6104 -0.6973q-0.6309 -0.6973 -0.6309 -2.0586l0 -12.6172q0 -3.0547 2.208 -3.0547q1.1289 0 1.627 0.7139q0.498 0.7139 0.5479 2.1084q0.8135 -1.3945 1.6685 -2.1084q0.855 -0.7139 2.2827 -0.7139q1.4277 0 2.7725 0.7139q1.3447 0.7139 1.3447 1.8926q0 0.8301 -0.5728 1.3696q-0.5728 0.5396 -1.2368 0.5396q-0.249 0 -1.2036 -0.3071q-0.9546 -0.3071 -1.6851 -0.3071q-0.9961 0 -1.627 0.5229q-0.6309 0.5229 -0.9795 1.5522q-0.3486 1.0293 -0.4814 2.4487q-0.1328 1.4194 -0.1328 3.4614zm27.3594 -2.6729q0 2.0254 -0.6309 3.7354q-0.6309 1.71 -1.8262 2.9385q-1.1953 1.2285 -2.800507c 1.8843q-1.6602 0.6558 -3.7354 0.6558q-2.0586 0 -3.7021 -0.6641q-1.6436 -0.6641 -2.8472 -1.9009q-1.2036 -1.2368 -1.8262 -2.9219q-0.6226 -1.6851 -0.6226 -3.7271q0 -2.0586 0.6309 -3.7686q0.6309 -1.71 1.8096 -2.9219q1.1787 -1.2119 2.800507c -1.8677q1.6768 -0.6558 3.7021 -0.6558q2.0586 0 3.7354 0.6641q1.6768 0.6641 2.8721 1.8926q1.1953 1.2285 1.8179 2.9219q0.6226 1.6934 0.6226 3.7354zm-4.5488 0q0 -2.7725 -1.2202 -4.3164q-1.2202 -1.5439 -3.2788 -1.5439q-1.3281 0 -2.3408 0.689q-1.0127 0.689 -1.5605 2.0337q-0.5479 1.3447 -0.5479 3.1377q0 1.7764 0.5396 3.1045q0.5396 1.3281 1.5439 2.0337q1.0044 0.7056 2.3657 0.7056q2.0586 0 3.2788 -1.5522q1.2202 -1.5522 1.2202 -4.2915zm12.2354 -6.707l0 0.5479q1.1953 -1.5771 2.6147 -2.3159q1.4194 -0.7388 3.2622 -0.7388q1.793 0 3.2041 0.7803q1.4111 0.7803 2.1084 2.208q0.4482 0.8301 0.5811 1.793q0.1328 0.9629 0.1328 2.457l0 8.4336q0 1.3613 -0.6226 2.0586q-0.6226 0.6973 -1.6187 0.6973q-1.0127 0 -1.6436 -0.7139q-0.6309 -0.7139 -0.6309 -2.042l0 -7.5537q0 -2.2412 -0.6226 -3.4282q-0.6226 -1.187 -2.4819 -1.187q-1.2119 0 -2.208 0.7222q-0.9961 0.7222 -1.4609 1.9839q-0.332 1.0127 -0.332 3.7852l0 5.6777q0 1.3779 -0.6392 2.0669q-0.6392 0.689 -1.6519 0.689q-0.9795 0 -1.6104 -0.7139q-0.6309 -0.7139 -0.6309 -2.042l0 -13.0986q0 -1.2949 0.5645 -1.9341q0.5645 -0.6392 1.5439 -0.6392q0.5977 0 1.0791 0.2822q0.4814 0.2822 0.772 0.8467q0.2905 0.5645 0.2905 1.3779zm33.3857 6.707q0 2.0254 -0.6309 3.7354q-0.6309 1.71 -1.8262 2.9385q-1.1953 1.2285 -2.800507c 1.8843q-1.6602 0.6558 -3.7354 0.6558q-2.0586 0 -3.7021 -0.6641q-1.6436 -0.6641 -2.8472 -1.9009q-1.2036 -1.2368 -1.8262 -2.9219q-0.6226 -1.6851 -0.6226 -3.7271q0 -2.0586 0.6309 -3.7686q0.6309 -1.71 1.8096 -2.9219q1.1787 -1.2119 2.800507c -1.8677q1.6768 -0.6558 3.7021 -0.6558q2.0586 0 3.7354 0.6641q1.6768 0.6641 2.8721 1.8926q1.1953 1.2285 1.8179 2.9219q0.6226 1.6934 0.6226 3.7354zm-4.5488 0q0 -2.7725 -1.2202 -4.3164q-1.2202 -1.5439 -3.2788 -1.5439q-1.3281 0 -2.3408 0.689q-1.0127 0.689 -1.5605 2.0337q-0.5479 1.3447 -0.5479 3.1377q0 1.7764 0.5396 3.1045q0.5396 1.3281 1.5439 2.0337q1.0044 0.7056 2.3657 0.7056q2.0586 0 3.2788 -1.5522q1.2202 -1.5522 1.2202 -4.2915z" transform="translate(186.8 315.7162)"></path><g style="filter: drop-shadow(rgba(0, 0, 0, 0.67) 4px 4px 5px);"><path fill="#ffffff" stroke="#f3582c" stroke-width="5" d="m250 299.5c-28.5 0 -51.8 -23.2 -51.8 -51.8c0 -18 9.4 -34.6 24.5 -44c1.3 -0.8 2.1 -2.2 2.1 -3.7l-0.3 -106.8c0 -13.9 11.3 -25.2 25.2 -25.2l0 0c13.9 0 25.2 11.3 25.2 25.2l0.3 106.9c0 1.5 0.8 2.9 2.1 3.7c15 9.4 24.5 26 24.5 44c0 28.5 -23.3 51.7 -51.8 51.7z" style="animation-name: eaf-147e7-6, eaf-147e7-7, eaf-147e7-8; animation-composition: replace, add, add;"></path></g><g><path fill="#898989" d="m465.2 275.8l0.7 -6.7l-16.2 -1.7c-0.2 2.2 -0.4 4.4 -0.7 6.7l16.2 1.7z"></path><path fill="#898989" d="m461.5 297.8l1.4 -6.6l-16 -3.3c-0.4 2.2 -0.9 4.4 -1.4 6.6l16 3.3z"></path><path fill="#898989" d="m455.3 319.1l2 -6.4l-15.3 -4.9c-0.6 2.1 -1.3 4.3 -2 6.4l15.3 4.9z"></path><path fill="#898989" d="m447.1 339.8l2.7 -6.1l-14.7 -6.4c-0.9 2.1 -1.8 4.1 -2.7 6.1l14.7 6.4z"></path><path fill="#898989" d="m423.6 380.5l3.9 -5.4l-13.4 -9.8c-1.3 1.8 -2.6 3.6 -3.9 5.4l13.4 9.8z"></path><path fill="#898989" d="m409.2 397.2l4.5 -5l-12.1 -10.9c-1.5 1.7 -3 3.3 -4.5 5l12.1 10.9z"></path><path fill="#898989" d="m393.3 413.1l5 -4.5l-11.1 -12.3c-1.6 1.5 -3.3 3 -5 4.5l11.1 12.3z"></path><path fill="#898989" d="m376.1 426.8l5.4 -4l-9.8 -13.4c-1.8 1.4 -3.6 2.7 -5.4 4l9.8 13.4z"></path><path fill="#898989" d="m335 449.7l6.1 -2.7l-6.7 -15c-2 0.9 -4.1 1.9 -6.1 2.7l6.7 15z"></path><path fill="#898989" d="m313.9 457.3l6.4 -2.1l-5 -15.5c-2.1 0.7 -4.2 1.4 -6.4 2.1l5 15.5z"></path><path fill="#898989" d="m292.7 462.9l6.5 -1.4l-3.5 -16.1c-2.2 0.5 -4.4 1 -6.5 1.4l3.5 16.1z"></path><path fill="#898989" d="m270.5 466l6.7 -0.7l-1.8 -16.3c-2.2 0.3 -4.4 0.5 -6.7 0.7l1.8 16.3z"></path><path fill="#898989" d="m223.4 465.5l6.7 0.7l1.8 -16.4c-2.2 -0.2 -4.5 -0.4 -6.7 -0.7l-1.8 16.4z"></path><path fill="#898989" d="m201.8 461.4l6.5 1.4l3.4 -15.8c-2.2 -0.4 -4.4 -0.9 -6.5 -1.4l-3.4 15.8z"></path><path fill="#898989" d="m180.4 455.3l6.4 2.1l5 -15.3c-2.1 -0.6 -4.3 -1.3 -6.4 -2l-5 15.2z"></path><path fill="#898989" d="m159.6 447.2l6.1 2.7l6.6 -14.8c-2.1 -0.9 -4.1 -1.8 -6.1 -2.7l-6.6 14.8z"></path><path fill="#898989" d="m119.6 422.9l5.4 4l9.4 -12.8c-1.8 -1.3 -3.6 -2.6 -5.4 -3.9l-9.4 12.7z"></path><path fill="#898989" d="m102.7 408.5l5 4.5l10.6 -11.6c-1.7 -1.5 -3.3 -3 -5 -4.5l-10.6 11.6z"></path><path fill="#898989" d="m87.2 393.1l4.5 5l12 -10.7c-1.5 -1.6 -3 -3.3 -4.5 -5l-12 10.7z"></path><path fill="#898989" d="m73.6 374.9l3.9 5.4l12.5 -9.1c-1.4 -1.8 -2.7 -3.6 -4 -5.4l-12.4 9.1z"></path><path fill="#898989" d="m50.6 334.5l2.7 6.1l14.5 -6.3c-0.9 -2 -1.9 -4.1 -2.7 -6.1l-14.5 6.3z"></path><path fill="#898989" d="m43.3 313l2 6.4l14.6 -4.6c-0.7 -2.1 -1.4 -4.2 -2 -6.4l-14.6 4.6z"></path><path fill="#898989" d="m38 291.4l1.4 6.6l14.9 -3.1c-0.5 -2.2 -0.9 -4.4 -1.4 -6.6l-14.9 3.1z"></path><path fill="#898989" d="m34.6 269.5l0.7 6.7l15.4 -1.6c-0.3 -2.2 -0.5 -4.4 -0.7 -6.7l-15.4 1.6z"></path><path fill="#898989" d="m35.1 224.9l-0.7 6.7l15.5 1.6c0.2 -2.2 0.4 -4.5 0.7 -6.7l-15.5 -1.6z"></path><path fill="#898989" d="m38.7 203.4l-1.4 6.6l15.3 3.2c0.4 -2.2 0.9 -4.4 1.3 -6.6l-15.2 -3.2z"></path><path fill="#898989" d="m44.8 181.8l-2 6.4l14.7 4.7c0.6 -2.1 1.3 -4.3 2 -6.4l-14.7 -4.7z"></path><path fill="#898989" d="m52.6 160.9l-2.6 6.1l14.4 6.3c0.9 -2.1 1.7 -4.1 2.7 -6.1l-14.5 -6.3z"></path><path fill="#898989" d="m76.8 120.8l-3.9 5.4l12.4 9c1.3 -1.8 2.6 -3.6 3.9 -5.4l-12.4 -9z"></path><path fill="#898989" d="m91.1 103.3l-4.5 5l11.6 10.4c1.5 -1.7 3 -3.3 4.5 -5l-11.6 -10.4z"></path><path fill="#898989" d="m106.7 88l-5 4.5l10.5 11.5c1.6 -1.5 3.3 -3 5 -4.5l-10.5 -11.5z"></path><path fill="#898989" d="m124.2 74.3l-5.4 4l9.1 12.4c1.8 -1.4 3.6 -2.7 5.4 -4l-9.1 -12.4z"></path><path fill="#898989" d="m165.1 51.1l-6.1 2.7l6.3 14.2c2 -0.9 4.1 -1.9 6.1 -2.7l-6.3 -14.2z"></path><path fill="#898989" d="m186 43.5l-6.4 2.1l4.8 14.7c2.1 -0.7 4.2 -1.4 6.4 -2.1l-4.8 -14.7z"></path><path fill="#898989" d="m207.5 37.9l-6.5 1.4l3.3 15.2c2.2 -0.5 4.4 -1 6.5 -1.4l-3.3 -15.2z"></path><path fill="#898989" d="m229.7 34.9l-6.7 0.7l1.7 15.3c2.2 -0.3 4.4 -0.5 6.7 -0.7l-1.7 -15.3z"></path><path fill="#898989" d="m276.7 35.5l-6.7 -0.7l-1.7 15.4c2.2 0.2 4.4 0.4 6.7 0.7l1.7 -15.4z"></path><path fill="#898989" d="m298.2 39.5l-6.5 -1.4l-3.2 15c2.2 0.4 4.4 0.9 6.6 1.4l3.1 -15z"></path><path fill="#898989" d="m319.7 45.6l-6.4 -2.1l-4.7 14.6c2.1 0.7 4.3 1.3 6.4 2.1l4.7 -14.6z"></path><path fill="#898989" d="m340.3 53.9l-6.1 -2.7l-6.2 14c2.1 0.9 4.1 1.8 6.1 2.7l6.2 -14z"></path><path fill="#898989" d="m380.5 77.9l-5.4 -4l-9.1 12.5c1.8 1.3 3.6 2.6 5.4 4l9.1 -12.5z"></path><path fill="#898989" d="m397.7 92.1l-5 -4.5l-10.6 11.6c1.7 1.5 3.3 3 5 4.5l10.6 -11.6z"></path><path fill="#898989" d="m413.2 108.2l-4.5 -5l-11.7 10.5c1.5 1.6 3 3.3 4.5 5l11.7 -10.5z"></path><path fill="#898989" d="m426.6 125.6l-3.9 -5.4l-12.6 9.1c1.3 1.8 2.7 3.6 3.9 5.4l12.6 -9.1z"></path><path fill="#898989" d="m449.6 166.7l-2.7 -6.1l-14.4 6.3c0.9 2 1.8 4.1 2.7 6.1l14.4 -6.3z"></path><path fill="#898989" d="m456.9 187.5l-2 -6.4l-14.9 4.7c0.7 2.1 1.4 4.2 2 6.4l14.9 -4.7z"></path><path fill="#898989" d="m462.3 209.3l-1.4 -6.6l-15.3 3.2c0.5 2.2 0.9 4.4 1.4 6.6l15.3 -3.2z"></path><path fill="#898989" d="m465.5 231.3l-0.7 -6.7l-15.7 1.6c0.3 2.2 0.5 4.4 0.7 6.7l15.7 -1.6z"></path></g><path fill="#fff" d="m227.1 211.5l-4.6 3.6c-0.1 0 -0.1 0.1 -0.2 0.2l-7.4 7.4c-0.1 0.1 -0.1 0.1 -0.1 0.2l-5.1 6.4c-0.1 0.1 -0.2 0.2 -0.2 0.4l-3.6 7.7c-0.1 0.2 -0.2 0.5 -0.2 0.8l0 4.2c0 1 0.8 1.8 1.8 1.8l0 0c0.6 0 1.1 -0.3 1.5 -0.7l3.7 -4.9c0.1 -0.1 0.1 -0.2 0.2 -0.2l4.3 -7.8c0 -0.1 0.1 -0.1 0.1 -0.2l4.4 -6.2c0.1 -0.1 0.2 -0.2 0.2 -0.3l6.7 -6.3c0 0 0.1 -0.1 0.2 -0.1l4.7 -3.5c0.5 -0.3 0.7 -0.9 0.7 -1.5l0 -1.1c0 -1.2 -1.1 -2.1 -2.3 -1.8l-1.4 0.3c-1.2 0.2 -2.4 0.8 -3.4 1.6z"></path></g></g></svg>