<svg xmlns="http://www.w3.org/2000/svg" viewBox="0 0 650 650" overflow="hidden" preserveAspectRatio="xMidYMid meet" id="eaf-d443-0"><defs><clipPath id="eaf-d443-1"><rect x="0" y="0" width="650" height="650"></rect></clipPath><style>#eaf-d443-0 * {animation: 17533ms linear infinite normal both running;offset-rotate:0deg}@keyframes eaf-d443-2{0%,100%{transform:translate(354.0907px,316.1146px)}}@keyframes eaf-d443-3{0%{transform:scale(1,1)}11.41%{transform:scale(1,1)}15.78%{transform:scale(0,0)}95.82%{transform:scale(0,0);animation-timing-function:linear(0 0%,0.37 9%,0.65 18%,0.87 28%,1.01 38%,1.08 48%,1.1 59%,1 100%)}100%{transform:scale(1,1)}}@keyframes eaf-d443-4{0%,100%{transform:translate(-354.0907px,-316.1146px)}}@keyframes eaf-d443-5{0%,100%{transform:translate(325.95px,325.05px)}}@keyframes eaf-d443-6{0%{transform:scale(0,0)}15.78%{transform:scale(0,0);animation-timing-function:linear(0 0%,0.37 9%,0.65 18%,0.87 28%,1.01 38%,1.08 48%,1.1 59%,1 100%)}20.16%{transform:scale(1,1)}31.56%{transform:scale(1,1)}35.74%,100%{transform:scale(0,0)}}@keyframes eaf-d443-7{0%,100%{transform:translate(-325.95px,-325.05px)}}@keyframes eaf-d443-8{0%,100%{transform:translate(330.7px,325px)}}@keyframes eaf-d443-9{0%{transform:scale(-0.01,0)}35.74%{transform:scale(0,0);animation-timing-function:linear(0 0%,0.37 9%,0.65 18%,0.87 28%,1.01 38%,1.08 48%,1.1 59%,1 100%)}40.12%{transform:scale(1,1)}51.53%{transform:scale(1,1)}55.71%,100%{transform:scale(0,0)}}@keyframes eaf-d443-10{0%,100%{transform:translate(-330.7px,-325px)}}@keyframes eaf-d443-11{0%,100%{transform:translate(329.7997px,324.4992px)}}@keyframes eaf-d443-12{0%{transform:scale(0,0)}55.71%{transform:scale(0,0);animation-timing-function:linear(0 0%,0.37 9%,0.65 18%,0.87 28%,1.01 38%,1.08 48%,1.1 59%,1 100%)}60.08%{transform:scale(1,1)}71.49%{transform:scale(1,1)}75.67%,100%{transform:scale(0,0)}}@keyframes eaf-d443-13{0%,100%{transform:translate(-329.7997px,-324.4992px)}}@keyframes eaf-d443-14{0%,100%{transform:translate(326.5px,316.9px)}}@keyframes eaf-d443-15{0%{transform:scale(0,0)}75.67%{transform:scale(0,0);animation-timing-function:linear(0 0%,0.37 9%,0.65 18%,0.87 28%,1.01 38%,1.08 48%,1.1 59%,1 100%)}80.04%{transform:scale(1,1)}91.45%{transform:scale(1,1)}95.63%,100%{transform:scale(0,0)}}@keyframes eaf-d443-16{0%,100%{transform:translate(-326.5px,-316.9px)}}</style></defs><g clip-path="url('#eaf-d443-1')" style="isolation: isolate;"><g><path fill="#f3582c" d="m651 325.1c0 81.6 0 163.1 0 244.7c0 37.4 -28.2 71.6 -65 78.6c-5.5 1 -11.1 1.6 -16.6 1.6c-162.6 0 -325.2 0 -487.7 0c-39.9 0.0001 -74.7 -30.5999 -79.9 -70.2c-0.5 -3.5 -0.8 -7 -0.8 -10.6c0 -163 0 -326 0 -488.9c0 -37.4 28.2 -71.6 65 -78.6c5.4 -1 11.1 -1.6 16.6 -1.6c162.7 -0.1 325.4 -0.1 488.1 -0.1c37.4 0 71.6 28.2 78.6 65c1 5.4 1.6 11.1 1.6 16.6c0.1 81.2 0.1 162.3 0.1 243.5l0 0l0 0z"></path><g style="animation-name: eaf-d443-2, eaf-d443-3, eaf-d443-4; animation-composition: replace, add, add;"><path fill="#fff" d="m117.3 458.5l9.9 36.8l51.3 53l110.3 -14.5l194.2 -90l51.7 -29.7l34.5 -41.9l-17.1 -119.7c0 0 -253.1 -143.7 -257.4 -144.5c-4.3 -0.9 -117.1 -17.1 -117.1 -17.1l-62 325.8"></path><path fill="#ffc132" d="m226 448.2c0 9.5 5.4 12.8 13.5 8.1c18.3 -10.4 36.6 -20.9 54.8 -31.4c22 -12.7 43.9 -25.6 65.9 -38.3c17.9 -10.3 35.7 -20.8 53.7 -30.8c10 -5.6 19.6 -12 30 -17.1c9.2 -4.5 17.9 -10.3 26.5 -16c5.7 -3.7 5.5 -8.9 0 -13c-1.4 -1.1 -2.8 -2.2 -4.4 -3.1c-23.5 -13.6 -47 -27.1 -70.6 -40.6c-25.7 -14.7 -51.6 -29 -77 -44.1c-25.8 -15.3 -51.8 -30.2 -77.8 -45.2c-3.7 -2.2 -7.3 -3.3 -11.2 -1.3c-4 2 -3.3 6 -3.3 9.5c0 43.7 0 87.3 0 131c-0.1 44.2 -0.2 88.3 -0.1 132.3z"></path><g><path fill="#262b30" d="m553.5 231.6c-13.6 -11.7 -30 -19.2 -45.3 -28.3c-17.7 -10.5 -35.8 -20.3 -53.7 -30.5c-29.9 -17.2 -59.6 -34.6 -89.5 -51.9c-23 -13.3 -45.9 -26.7 -69 -39.8c-11.5 -6.5 -22.5 -13.9 -35.5 -17.7c-44.3 -12.8 -83 -3.4 -115.2 29.5c-19.2 19.6 -29.4 43.9 -29.5 71.5c-0.3 81.9 -0.2 163.9 -0.1 245.8c0 27 20.9 49.6 48.1 53.5c6.3 0.9 7.1 -0.9 7.1 -6.6c-0.2 -94.9 0 -189.8 -0.3 -284.7c-0.1 -16.4 4.7 -30.1 15.6 -42.2c14.3 -15.9 40.7 -21.9 60.2 -13c13.2 6 25.3 14 37.9 21.1c21.6 12.2 42.7 25.1 64.4 37.1c16.8 9.3 33.1 19.5 50 28.7c25.2 13.8 49.7 28.8 74.5 43.3c14 8.2 28.6 15.6 42.1 24.5c13.6 9 24.1 21.2 31.3 36c9.2 18.9 12.4 38.5 8.2 59.1c-3.7 18.3 -12.1 34.2 -25.2 47.8c2.5 1.2 3.9 0 5.1 -0.9c5.9 -4.7 13 -7.5 18.7 -12.7c12.5 -11.3 23.3 -24.1 29.8 -39.7c7.8 -18.6 11 -38 8.6 -58.3c-3.2999 -28.8 -16.3999 -52.8 -38.2999 -71.6z"></path><path fill="#262b30" d="m505.9 366.3c-16.1 9.8 -32.5 19.1 -48.8 28.5c-22.1 12.7 -44.4 25.3 -66.5 38.1c-22.1 12.8 -44.2 25.7 -66.3 38.5c-18.9 10.9 -37.8 21.7 -56.6 32.6c-14.6 8.4 -28.7 17.5 -46 19.8c-33.7 4.4 -61.8 -5.9 -84.7 -30.8c-10.1 -11 -15.7 -24.5 -21.2 -38.6c0 3.7 0 7.5 0 11.2c-0.2 24.5 7.5 46.7 22.4 65.8c13.9 17.8 31.4 31 53.5 37.8c19.2 5.9 38.2 6.4 57.7 3.1c22.6 -3.8 40.4 -17.6 59.7 -28.1c18.9 -10.4 37.3 -21.7 56 -32.5c22.5 -13 45 -25.8 67.5 -38.8c16.8 -9.7 33.5 -19.6 50.4 -29.2c12.1 -6.9 23.1 -14.9 28.8 -28.2c6.7 -15.5 6.3 -31.3 0.4 -47c-1.2 -2.9 -2.4999 -4.5 -6.3 -2.2z"></path></g></g><g transform="matrix(0 0 0 0 325.95 325.05)" style="animation-name: eaf-d443-5, eaf-d443-6, eaf-d443-7; animation-composition: replace, add, add;"><path fill="#eee" fill-rule="evenodd" stroke="#01507b" stroke-width="16" stroke-miterlimit="10" d="m579.5 325c0 69.8 -24.6 129.6 -73.9 179.5c-1.6 1.9 -3.5 3.7 -5.5 5.4c-8.1 8 -16.7 15.2 -25.7 21.6c-42.7 31.5 -92.1 47.3 -148.1 47.3c-56.1 0 -105.4 -15.8 -147.9 -47.3c-11.2 -8 -21.8 -17 -31.6 -27c-38.3 -38.1 -61.8 -82.3 -70.6 -132.7c-1.7 -9.8 -2.8 -19.8 -3.4 -30c-0.2 -5.6 -0.4 -11.2 -0.4 -16.8c0 -5.9 0.1 -11.6 0.4 -17c0 -0.5 0.2 -1.1 0.5 -1.6c3.7 -62.2 28.2 -116 73.5 -161.3c49.8 -49.2 109.7 -73.8 179.5 -73.8c70 0 129.8 24.6 179.4 73.8c49.2 50.1 73.8 110.1 73.8 179.9l0 0z"></path><path fill="#3a3f51" fill-rule="evenodd" d="m527.9 170.7l-52.4 52.4c-30.7 30.7 -33.3 57.3 -33.3 104.4c0 42 6.7 80.4 37.9 111.6c22.8 22.8 44.5 44.3 44.5 44.3c-5.9 7.2 -12.2 14.2 -19 21.1c-1.6 1.9 -3.5 3.7 -5.5 5.4c-5.9 5.9 -12.1 11.3 -18.5 16.3l-41.1 -41.1c-36.5 -36.5 -65.5 -40 -113.7 -40c-46.3 0 -77.7 4.3 -111.6 38.1c-20.2 20.2 -43.4 43.5 -43.4 43.5c-8.8 -6.7 -17.2 -14.1 -25 -22.2c-6.6 -6.6 -12.7 -13.3 -18.4 -20.1c0 0 22.9 -23 44.8 -44.9c32.4 -32.4 37.7 -70 37.7 -112c0 -41 -6.7 -79.1 -36.5 -108.9c-20.7 -20.7 -49.3 -49.1 -49.3 -49.1c6.6 -8.4 13.8 -16.5 21.6 -24.3c6.9 -6.7 13.9 -13 21.1 -18.8l47.6 47.6c30.4 30.4 69.4 38.3 111.4 38.3c43.2 0 82.1 -8.4 113.7 -40c19.5 -19.5 45.2 -45 45.2 -45c6.8 5.5 13.4 11.5 19.9 18c8.0999 8 15.5999 16.6 22.3 25.4z"></path><g><path fill="#0cf" fill-rule="evenodd" d="m256.6 338c-0.5 -2.7 -0.8 -5.5 -0.9 -8.3c-0.1 -1.6 -0.1 -3.1 -0.1 -4.7c0 -1.6 0 -3.2 0.1 -4.7c0 -0.2 0 -0.3 0.1 -0.5c1 -17.2 7.8 -32.1 20.4 -44.7c13.8 -13.6 30.4 -20.5 49.7 -20.5c19.4 0 36 6.8 49.7 20.5c13.7 13.9 20.5 30.5 20.5 49.8c0 19.3 -6.8 35.9 -20.5 49.7c-0.5 0.5 -1 1.1 -1.5 1.5c-2.3 2.2 -4.6 4.2 -7.1 6c-11.9 8.7 -25.5 13.1 -41.1 13.1c-15.6 0 -29.2 -4.4 -41 -13.1c-3.1 -2.2 -6 -4.7 -8.8 -7.5c-10.5 -10.4 -17.1 -22.7 -19.5 -36.6z"></path><g><path fill="none" stroke="#0cf" stroke-width="4.6802" stroke-miterlimit="1" d="m441.7 211l-35.1 34.3m-262.1 -98l95.6 95.3m198 197.2l65.1 67.3m4.3 -360.1l-65.8 64m-293.5 294.9l64 -64.1"></path><path fill="none" stroke="#0cf" stroke-width="16.3806" stroke-miterlimit="1" d="m441.7 211l-39.7 40.2m-191.6 -38.2l40.2 40.1m-38.6 188.9l39.2 -40.7m144.9 -3.3l42.2 42"></path></g></g></g><g transform="matrix(-0.01 0 0 0 334.007 325)" style="animation-name: eaf-d443-8, eaf-d443-9, eaf-d443-10; animation-composition: replace, add, add;"><ellipse fill="#e4e4e4" stroke="#01507b" stroke-width="7.8031" stroke-miterlimit="10" rx="258.3" ry="258.3" transform="translate(330.7 325)"></ellipse><path fill="#030604" d="m338.1 535.7c-2.3 3.4 -4.6 6.8 -7.7 11.5c-0.3 -4.6 -0.6 -7.9 -0.8 -11.2c1.3 -5.3 -1.5 -6.3 -6 -6.2c-11.8 0.4 -23.5 -1.4 -35 -4c-75 -17.4 -127.3 -62 -152 -134.7c-24.7 -72.7 -10.8 -140.3 38.8 -199.1c35.4 -42 81.8 -64.5 136.3 -70.3c4.7 -0.5 8.7 -0.9 9.9 -6.3c2.3 -3.4 4.6 -6.8 7.7 -11.5c0.3 4.6 0.6 7.9 0.8 11.2c-1.3 5.3 1.5 6.3 6 6.2c12.2 -0.4 24.2 1.4 36 4.2c74.4 17.7 126.5 62.2 151 134.5c24.8 73.1 10.7 140.9 -39.5 199.9c-35.4 41.6 -81.6 63.7 -135.7 69.6c-4.5 0.4001 -8.5 0.8 -9.8 6.2001zm-8.1 -286.4c-2 0.4 -3.9 0.9 -5.9 1.1c-47.1 3.6 -78.8 48 -67.4 94c4.5 18.2 15.8 31.5 29.2 43.6c-32.4 0 -64.8 0 -97.9 0c19.9 49.3 72.2 90.7 135.5 93.4c5.8 0.2 6.5 -2 6.5 -6.9c-0.2 -24.2 -0.1 -48.5 -0.2 -72.7c2 -0.4 3.9 -1 5.9 -1.1c47.2 -3.8 78.8 -48 67.4 -93.9c-4.5 -18.2 -15.8 -31.5 -29.1 -43.6c32.4 0 64.8 0 97.9 0c-20.4 -50 -72.8 -90.8 -135.6 -93.4c-5.8 -0.2 -6.5 2.1 -6.4 6.9c0.1 24.1 0.1 48.3 0.1 72.6zm-151.1 111.4c36.1 -61.8 71.4 -122.3 107.4 -184c-81.1 22.2 -127.2 109.1 -107.4 184zm194.4 113.9c94 -27.4 126.6 -126.4 106.9 -183.1c-35.5 60.7 -70.7 121.1 -106.9 183.1z"></path><path fill="#199156" d="m321.7 115.3c-1.3 5.4 -5.3 5.8 -9.9 6.3c-54.5 5.8 -100.9 28.3 -136.3 70.3c-49.6 58.9 -63.5 126.4 -38.8 199.1c24.7 72.7 77 117.3 152 134.7c11.5 2.6 23.1 4.5 35 4c4.6 -0.2 7.3 0.9 6 6.2c-104.1 -1.2 -189 -73.2 -207.5 -175.8c-20.8 -116 63.6 -229.3 181.5 -243.2c5.9 -0.8 11.9 -1.1 18 -1.6z"></path><path fill="#199156" d="m338.1 535.7c1.3 -5.4 5.3 -5.8 10 -6.3c54.1 -5.9 100.3 -28 135.7 -69.6c50.1 -59 64.2 -126.7 39.5 -199.9c-24.5 -72.4 -76.6 -116.8 -151 -134.5c-11.7 -2.8 -23.8 -4.6 -36 -4.2c-4.6 0.2 -7.3 -0.9 -6 -6.2c122.9 1.2 217.4 102.6 209.8 225.1c-6.2 99.1 -84.8 182.1 -183.8 193.9c-6.1 0.8 -12.2 1.2 -18.2 1.7z"></path><path fill="#059152" d="m285.9 387.9c-13.4 -12.1 -24.7 -25.4 -29.2 -43.6c-11.4 -46 20.2 -90.3 67.4 -94c2 -0.2 3.9 -0.7 5.9 -1.1c15.9 0.7 30.5 5.4 44 13.8c13.3 12.1 24.6 25.4 29.1 43.6c11.4 46 -20.2 90.1 -67.4 93.9c-2 0.2 -3.9 0.7 -5.9 1.1c-15.9 -0.6 -30.5 -5.3 -43.9 -13.7z"></path><path fill="#e4e4e4" d="m374 263.1c-13.5 -8.4 -28.1 -13.1 -44 -13.8c0 -24.2 0 -48.5 -0.2 -72.7c0 -4.8 0.6 -7.1 6.4 -6.9c62.8 2.6 115.1 43.4 135.6 93.4c-33 0 -65.4 0 -97.8 0z"></path><path fill="#e4e4e4" d="m285.9 387.9c13.5 8.4 28 13.1 43.9 13.8c0 24.2 0 48.5 0.2 72.7c0 4.9 -0.7 7.1 -6.5 6.9c-63.3 -2.7 -115.6 -44.1 -135.5 -93.4c33.1 0 65.5 0 97.9 0z"></path><path fill="#e1e1e1" d="m178.9 360.7c-19.8 -74.9 26.3 -161.8 107.4 -184c-35.9 61.6 -71.3 122.1 -107.4 184z"></path><path fill="#e1e1e1" d="m373.3 474.6c36.2 -62 71.4 -122.3 106.9 -183.1c19.7 56.6 -12.9 155.6 -106.9 183.1z"></path></g><g transform="matrix(0 0 0 0 329.7997 324.4992)" style="animation-name: eaf-d443-11, eaf-d443-12, eaf-d443-13; animation-composition: replace, add, add;"><path fill="#be8dbf" d="m586.6 324.7c0 141.9 -115.2 256.7 -257.5 256.6c-141.7 -0.1 -256.4 -115.4001 -256.1 -257.9001c0.4 -141.1 115 -256.2 257.7 -255.7c141.4 0.4 255.9 114.9 255.9 257zm-189.8 221.8c0.3 0.2 0.6 0.3 0.9 0.5c0.5 -0.6 1 -1.3 1.5 -1.9c21.2 -26.7 42.4 -53.3 63.4 -80c2.5 -3.1 5 -4.8 9.2 -4.5c5.6 0.4 11.2 0.1 16.8 0.1c11 -0.1 20.4 -4 28.2 -11.6c10.7 -10.5 15.2 -23.6 15.2 -38.3c0.1 -60.8 0.1 -121.6 0.1 -182.3c0 -4.7 -0.1 -9.4 -1 -14.1c-4.3 -23.1 -22.5 -39 -44.8 -38.9c-105.5 0.3 -211 0.1 -316.5 0.1c-4.4 0 -8.7 0.5 -12.8 1.9c-18.9 6.2 -31.6 24.7 -31.7 46.4c0 62.2 0 124.4 0 186.5c0 3.6 0.3 7.2 0.8 10.9c3 21.8 21.8 40 45.9 39.8c77.9 -0.7 155.8 -0.3 233.7 -0.4c4 0 5.6 0.7 4.7 5.1c-2.1 11.1 -3.9 22.3 -5.8 33.4c-2.6 15.8 -5.2 31.5001 -7.8 47.3z"></path><path fill="#01507b" d="m396.8 546.5c2.6 -15.8 5.3 -31.5 7.9 -47.3c1.9 -11.2 3.7 -22.3 5.8 -33.4c0.8 -4.4 -0.7 -5.1 -4.7 -5.1c-77.9 0.1 -155.8 -0.3 -233.7 0.4c-24.1 0.2 -42.8 -18 -45.9 -39.8c-0.5 -3.6 -0.8 -7.2 -0.8 -10.9c0 -62.2 0 -124.4 0 -186.5c0 -21.7 12.8 -40.3 31.7 -46.4c4.2 -1.4 8.4 -1.9 12.8 -1.9c105.5 0 211 0.2 316.5 -0.1c22.3 -0.1 40.5 15.8 44.8 38.9c0.9 4.7 1 9.3 1 14.1c0 60.8 0 121.6 -0.1 182.3c0 14.7 -4.5 27.8 -15.2 38.3c-7.8 7.7 -17.3 11.6 -28.2 11.6c-5.6 0 -11.2 0.3 -16.8 -0.1c-4.2 -0.3 -6.7 1.4 -9.2 4.5c-21.1 26.7 -42.3 53.4 -63.4 80c-0.5 0.6 -1 1.3 -1.5 1.9c-0.4 -0.2001 -0.7 -0.3 -1 -0.5001zm-60.7 -161.3c0 0 0 0 0 0c41.7 0 83.5 0 125.2 0c6.7 0 10.7 -2.6 12.5 -8.1c3.3 -10 -2.4 -18.1 -12.9 -18.1c-72.8 0 -145.6 0 -218.5 0c-10.5 0 -21 0 -31.4 0c-3.6 0 -6.7 1.1 -9 4c-3.8 4.8 -3.1 10.7 -1.5 15.7c1.7 5.2 6.7 6.6 12.4 6.6c41.1 -0.2 82.2 -0.1 123.2 -0.1zm-11.5 49.3c0 0 0 0 0 0c21.7 0 43.3 0 65 0c8.9 0 12.6 -3.8 12.6 -12.8c0 -9.5 -3.5 -13.4 -12.5 -13.4c-43.3 0 -86.6 0 -130 0c-8.9 0 -12.6 3.8 -12.6 12.8c0 9.5 3.6 13.4 12.6 13.4c21.5 0 43.2 0 64.9 0z"></path><path fill="#fff" d="m336.1 385.2c-41 0 -82.1 -0.1 -123.1 0.1c-5.7 0 -10.7 -1.4 -12.4 -6.6c-1.6 -5 -2.3 -10.9 1.5 -15.7c2.2 -2.8 5.4 -4 9 -4c10.5 0 21 0 31.4 0c72.8 0 145.6 0 218.5 0c10.5 0 16.2 8.1 12.9 18.1c-1.8 5.5 -5.8 8.1 -12.5 8.1c-41.8 0.1 -83.5 0.1 -125.3 0c0 0 0 0 0 0z"></path><path fill="#fff" d="m324.6 434.5c-21.7 0 -43.3 0 -65 0c-9 0 -12.6 -3.8 -12.6 -13.4c0 -9 3.7 -12.8 12.6 -12.8c43.3 0 86.6 0 130 0c9 0 12.6 3.8 12.5 13.4c0 9 -3.7 12.8 -12.6 12.8c-21.6 0 -43.3 0 -64.9 0c0 0 0 0 0 0z"></path></g><g transform="matrix(0 0 0 0 326.5 316.9)" style="animation-name: eaf-d443-14, eaf-d443-15, eaf-d443-16; animation-composition: replace, add, add;"><ellipse fill="#c4c3c3" stroke="#01507b" stroke-width="8" stroke-miterlimit="10" rx="261.9" ry="261.9" transform="translate(326.5 316.9)"></ellipse><path fill="#463d3d" d="m330 550.9c-129.1 -0.1 -233 -103.8 -232.8 -233.1c0.1 -129.9 103.2 -233.1 232.9 -233.2c128.9 -0.1 232.4 104.1 232.4 233.5c-0.1 128.5 -104.2 232.9 -232.5 232.8zm1 -437.1c-11.9 -0.2 -23.2 0.7 -34.4 2.3c-25.7 3.8 -49.3 13.4 -71.6 26.4c-19.4 11.3 -36.1 26.1 -50.8 43c-3.5 4 -6.8 4.8 -11.5 4.8c-8.1 0 -11.1 2.7 -13.6 10.3c-2.3 6.9 -2 13.9 -1.9 21c0.1 3.4 -0.6 6.5 -2.1 9.6c-11.1 23.8 -17.7 48.8 -18.8 75.1c-1.3 31.3 2.8 61.7 15.8 90.6c4.4 9.8 8.8 19.5 8 31.2c-1.3 19.1 -1.7 17.5 18.4 21.3c3.3 0.6 6.4 1.1 8.9 3.8c8.5 9.1 17.2 18 27.1 25.7c19.8 15.4 41.7 26.7 65.6 34.3c27.6 8.7 55.8 10 84.5 7.3c27.2 -2.6 52.2 -11.7 75.8 -24.7c16.2 -8.9 31.6 -19.7 43.8 -34c7 -8.2 15.3 -12.7 25.7 -14.4c7.6 -1.3 9.3 -3.8 9.5 -11.5c0.1 -5.9 0.2 -11.8 0 -17.7c-0.1 -3.1 0.7 -5.8 2.2 -8.4c7.1 -12.3 11.8 -25.6 15.4 -39.3c6.2 -23.2 7.7 -47 5.8 -71c-1.3 -16.4 -4.7 -32.4 -10.1 -48.1c-4.4 -12.8 -12.9 -24.4 -11.7 -38.9c0.2 -2.8 -0.7 -5.8 -1.2 -8.7c-2.3 -11.5 -4.6 -13.4 -16.5 -13.7c-2.1 -0.1 -4 0 -5.7 -2c-5.6 -6.5 -11.7 -12.5 -17.8 -18.5c-15.7 -15.6 -33.7 -27.8 -53.7 -37.1c-27 -12.5 -55.5 -19.4 -85.1 -18.7z"></path><path fill="#8e2423" d="m331 113.8c29.5 -0.6 58 6.3 85.1 18.8c19.9 9.2 37.9 21.5 53.7 37.1c6.1 6 12.2 12.1 17.8 18.5c1.8 2 3.6 2 5.7 2c11.9 0.3 14.3 2.2 16.5 13.7c0.6 2.9 1.5 5.8 1.2 8.7c-1.2 14.5 7.3 26.1 11.7 38.9c5.4 15.7 8.8 31.6 10.1 48.1c1.9 23.9 0.4 47.7 -5.8 71c-3.7 13.6 -8.4 26.9 -15.4 39.3c-1.5 2.6 -2.3 5.3 -2.2 8.4c0.1 5.9 0.1 11.8 0 17.7c-0.2 7.7 -2 10.2 -9.5 11.5c-10.4 1.7 -18.7 6.2 -25.7 14.4c-12.2 14.3 -27.6 25.1 -43.8 34c-23.5 13 -48.5 22.1 -75.8 24.7c-28.7 2.7 -56.9 1.4 -84.5 -7.3c-23.9 -7.5 -45.7 -18.9 -65.6 -34.3c-9.9 -7.7 -18.6 -16.6 -27.1 -25.7c-2.5 -2.7 -5.6 -3.2 -8.9 -3.8c-20.1 -3.8 -19.7 -2.2 -18.4 -21.3c0.8 -11.8 -3.6 -21.4 -8 -31.2c-13 -28.9 -17 -59.3 -15.8 -90.6c1.1 -26.4 7.7 -51.4 18.9 -75.2c1.5 -3.1 2.1 -6.2 2.1 -9.6c-0.1 -7 -0.4 -14.1 1.9 -21c2.5 -7.6 5.5 -10.2 13.6 -10.3c4.6 0 8 -0.8 11.5 -4.8c14.6 -16.9 31.4 -31.7 50.8 -43c22.3 -13 45.9 -22.6 71.6 -26.4c11.2 -1.7 22.5 -2.6 34.3 -2.3zm-185.9 129.4c-24.3 58.5 -15.2 122.2 4.5 156.8c-0.8 -45.8 -1.6 -91.3 -2.4 -136.8c0 -7.8 0 -15.6 0 -23.9c-1.5 1.4 -2.2 2.4 -2.1 3.9zm181.3 215.8c-0.6 13.6 0.3 27.2 -0.5 40.9c-0.3 4.3 1.3 8.5 -3.2 11.3c-4.8 2.9 -8.2 -0.2 -11.4 -3c-8.6 -7.2 -18.5 -12.4 -28.1 -17.9c-25.3 -14.5 -52.7 -24.3 -80.4 -33c-5.9 -1.8 -11.9 -3 -19.5 -4.9c90.4 97 229.3 75.1 292 0.7c-0.9 0 -1.7 -0.2 -2.4 0c-27.1 6.7 -53.4 16.1 -78.7 27.9c-17.5 8.2 -34.2 17.9 -49.6 29.6c-2.7 2 -5.2 3.2 -8.6 1.2c-3.4 -2 -3.9 -5.1 -3.9 -8.6c0 -14.8 -0.1 -29.6 -0.1 -44.4c0.6 -23.3 0.3 -46.6 0.9 -69.9c1.2 -46.2 -0.6 -92.5 1.4 -138.7c0.1 -3 0.9 -5.7 1.9 -8.5c4.6 -12.3 16.2 -16.4 26.2 -22.1c14.3 -8.1 29.9 -13.1 45.8 -17.3c24.4 -6 49 -10.5 75.8 -11.9c-47 -52.5 -103.8 -76.8 -172.3 -71.8c-26.3 1.9 -51.2 10.1 -74.6 22.4c-23.2 12.2 -43.1 28.6 -60.7 49.4c10.1 1 19.1 1.7 27.9 2.8c15.7 2.1 31.1 5.7 46.5 9c2.2 0.8 4.3 1.8 6.6 2.4c17.6 4.3 33.5 12.4 49.4 20.8c13.8 7.3 17.8 18.4 18 32.2c0.5 32.7 0.3 65.5 1.1 98.2c0.7 34.4999 0.3 68.9 0.5 103.2zm-7.6 -193.5c0.4 -3.3 0.7 -5.8 1 -8.4c0.9 -10.1 -2.7 -18.3 -11.1 -24c-16.6 -11.3 -34.9 -18.9 -54.1 -24.2c-20.7 -5.7 -41.8 -9.5 -63.3 -11.6c-8.9 -0.9 -17.9 -1.6 -26.9 -2.2c-5 -0.3 -8.8 1.7 -10.5 6.7c-2.6 7.6 -2.7 15.4 -3 24.2c5.4 -4.4 10.8 -4.6 16.3 -4.2c34.9 2.4 69.7 6.3 102.9 18.1c17.1 6.2 34.2 12.9 48.7 25.6zm20.8 -0.6c21.2 -16.3 45.7 -24.8 70.9 -31.7c22.3 -6.1 45.3 -8.3 68.2 -10.6c9.3 -1 19 -3.9 28.1 2.7c0.8 -5.3 0 -10.1 -0.6 -14.9c-1.8 -13.8 -4.6 -16.2 -18.2 -15c-32.7 2.8 -65.3 6.8 -96.6 17.5c-15.5 5.3 -30.3 12.3 -43.9 21.5c-5 3.5 -8.1 9.6 -9 14.9c-0.6 4.5 -0.3 10.2 1.1 15.6zm169.7 135.7c11.7 -18 19.4 -53.5 20.1 -81.4c0.8 -30.4 -11.6 -75.2 -18.1 -81c-0.7 53.9 -1.4 108.2 -2 162.4z"></path><path fill="#ecebeb" d="m250.7 202.4c-15.5 -3.3 -30.9 -6.9 -46.5 -9c-8.9 -1.2 -17.8 -1.8 -27.9 -2.8c17.6 -20.8 37.5 -37.2 60.7 -49.4c23.4 -12.3 48.3 -20.4 74.6 -22.4c68.5 -5 125.4 19.3 172.3 71.8c-26.8 1.4 -51.4 5.9 -75.8 11.9c-14.8 -9.7 -30.2 -17.4 -47.9 -20.9c-19.7 -3.9 -39.2 -4.1 -58.9 -0.7c-18.5001 3.1 -35.3 10.5 -50.6001 21.5z"></path><path fill="#463d3d" d="m250.7 202.4c15.3 -11 32 -18.4 50.6 -21.5c19.7 -3.4 39.2 -3.2 58.9 0.7c17.6 3.5 33.1 11.2 47.9 20.9c-15.9 4.2 -31.5 9.2 -45.8 17.3c-10 5.7 -21.6 9.7 -26.2 22.1c-1 2.8 -1.8 5.5 -1.9 8.5c-2 46.2 -0.2 92.5 -1.4 138.7c-0.6 23.3 -0.3 46.6 -0.9 69.9c-1.8 0 -3.7 0.1 -5.5 0.1c-0.1 -34.3 0.3 -68.7 -0.6 -103c-0.8 -32.7 -0.6 -65.5 -1.1 -98.2c-0.2 -13.8 -4.2 -25 -18 -32.2c-16 -8.4 -31.8 -16.6 -49.4 -20.8c-2.2 -0.7 -4.4 -1.7 -6.6 -2.5z"></path><path fill="#ebe8e7" d="m326.4 459c1.8 0 3.7 -0.1 5.5 -0.1c0 14.8 0.1 29.6 0.1 44.4c0 3.5 0.5 6.5 3.9 8.6c3.3 2 5.9 0.8 8.6 -1.2c15.5 -11.7 32.1 -21.5 49.6 -29.6c25.3 -11.8 51.5 -21.2 78.7 -27.9c0.7 -0.2 1.5 0 2.4 0c-62.7 74.4 -201.5 96.4 -292 -0.7c7.6 1.9 13.6 3.1 19.5 4.9c27.8 8.7 55.1 18.5 80.4 33c9.6 5.5 19.5 10.6 28.1 17.9c3.3 2.8 6.6 5.9 11.4 3c4.5 -2.8 3 -7 3.2 -11.3c0.9 -13.7 0 -27.4 0.6 -41z"></path><path fill="#ebe8e7" d="m318.8 265.5c-14.5 -12.7 -31.5 -19.4 -48.7 -25.5c-33.2 -11.8 -68 -15.7 -102.9 -18.1c-5.5 -0.4 -10.9 -0.2 -16.3 4.2c0.3 -8.8 0.5 -16.7 3 -24.2c1.7 -5 5.5 -7 10.5 -6.7c9 0.6 17.9 1.4 26.9 2.2c21.4 2 42.5 5.8 63.3 11.6c19.2 5.3 37.6 12.9 54.1 24.2c8.3 5.7 11.9 13.9 11.1 24c-0.3 2.5 -0.6 5 -1 8.3z"></path><path fill="#ebe8e7" d="m339.6 264.9c-1.4 -5.4 -1.7 -11.1 -1 -15.7c0.8 -5.4 3.9 -11.5 9 -14.9c13.6 -9.3 28.4 -16.2 43.9 -21.5c31.3 -10.7 63.8 -14.7 96.6 -17.5c13.6 -1.1 16.3 1.3 18.2 15c0.6 4.8 1.4 9.6 0.6 14.9c-9.1 -6.5 -18.9 -3.6 -28.1 -2.7c-22.9 2.4 -45.9 4.5 -68.2 10.6c-25.3 7 -49.8 15.5 -71 31.8z"></path><path fill="#ebe8e7" d="m509.3 400.6c0.7 -54.2 1.4 -108.5 2 -162.4c6.5 5.8 18.9 50.6 18.1 81c-0.8 28 -8.4 63.4 -20.1 81.4z"></path><path fill="#ebe8e7" d="m147.2 263.2c0.8 45.5 1.6 91 2.4 136.8c-19.7 -34.6 -28.8 -98.3 -4.5 -156.8c2 1.4 1 3.5 1.1 5.3c0.4 4.9 -0.4 9.9 1 14.7z"></path><path fill="#989393" d="m147.2 263.2c-1.4 -4.9 -0.6 -9.9 -1 -14.8c-0.1 -1.8 0.9 -3.9 -1.1 -5.3c-0.1 -1.4 0.6 -2.5 2.1 -3.8c0 8.3 0 16.1 0 23.9z"></path></g></g></g></svg>