<svg id="pale-ai4-bare" xmlns="http://www.w3.org/2000/svg" xmlns:xlink="http://www.w3.org/1999/xlink" viewBox="0 0 191.8 191.8" shape-rendering="geometricPrecision" text-rendering="geometricPrecision">
    <style>
        <![CDATA[
        #pale-ai4-bare-s-path2_tr {animation: pale-ai4-bare-s-path2_tr__tr 8000ms linear infinite normal forwards}@keyframes pale-ai4-bare-s-path2_tr__tr { 0% {transform: translate(95.80001px,95.249995px) rotate(0deg);animation-timing-function: cubic-bezier(0.525,0.495,0.36,0.99)} 33.333333% {transform: translate(95.80001px,95.249995px) rotate(90deg)} 100% {transform: translate(95.80001px,95.249995px) rotate(90deg)}} #pale-ai4-bare-s-path2_ts {animation: pale-ai4-bare-s-path2_ts__ts 8000ms linear infinite normal forwards}@keyframes pale-ai4-bare-s-path2_ts__ts { 0% {transform: scale(1,1);animation-timing-function: cubic-bezier(0.39,0.575,0.565,1)} 16.666667% {transform: scale(1.5,1.5);animation-timing-function: cubic-bezier(0.47,0,0.745,0.715)} 36.666667% {transform: scale(1.5,1.5);animation-timing-function: cubic-bezier(0.39,0.575,0.565,1)} 46.666667% {transform: scale(1,1)} 100% {transform: scale(1,1)}} #pale-ai4-bare-u-thea_ts {animation: pale-ai4-bare-u-thea_ts__ts 8000ms linear infinite normal forwards}@keyframes pale-ai4-bare-u-thea_ts__ts { 0% {transform: translate(78.225002px,134.50174px) scale(1,1)} 26.666667% {transform: translate(78.225002px,134.50174px) scale(1,1);animation-timing-function: cubic-bezier(0.25,0.46,0.45,0.94)} 33.333333% {transform: translate(78.225002px,134.50174px) scale(1,0);animation-timing-function: cubic-bezier(0.455,0.03,0.515,0.955)} 40% {transform: translate(78.225002px,134.50174px) scale(1,1)} 100% {transform: translate(78.225002px,134.50174px) scale(1,1)}} #pale-ai4-bare-u-thei2_ts {animation: pale-ai4-bare-u-thei2_ts__ts 8000ms linear infinite normal forwards}@keyframes pale-ai4-bare-u-thei2_ts__ts { 0% {transform: translate(134.325001px,96.200001px) scale(1,1)} 70% {transform: translate(134.325001px,96.200001px) scale(1,1);animation-timing-function: cubic-bezier(0.39,0.575,0.565,1)} 76.666667% {transform: translate(134.325001px,96.200001px) scale(0,0)} 83.333333% {transform: translate(134.325001px,96.200001px) scale(1,1)} 100% {transform: translate(134.325001px,96.200001px) scale(1,1)}}
        ]]>
    </style>
    <path
        id="pale-ai4-bare-s-path1"
        d="M191.6,96.1c0,24.1,0,48.1,0,72.2c0,11-8.3,21.1-19.2,23.2-1.6.3-3.3.5-4.9.5-48,0-95.9,0-143.9,0-11.8,0-22-9-23.6-20.7-.1-1-.2-2.1-.2-3.1c0-48.1,0-96.2,0-144.3c0-11,8.3-21.1,19.2-23.2c1.6-.3,3.3-.5,4.9-.5c48,0,96,0,144,0c11,0,21.1,8.3,23.2,19.2.3,1.6.5,3.3.5,4.9.1,23.9,0,47.9,0,71.8v0Z"
        fill="#666666"
    />
    <g id="pale-ai4-bare-s-path2_tr" transform="translate(95.80001,95.249995) rotate(0)">
        <g id="pale-ai4-bare-s-path2_ts" transform="scale(1,1)">
            <path
                id="pale-ai4-bare-s-path2"
                d="M89.4,153.5c-4.3,0-8.4,0-12.7,0c0,5,0,9.8,0,14.7c0,3.5-2.6,6.2-6,6.4-3.7.2-6.6-2.6-6.7-6.3c0-4.3,0-8.6,0-12.9c0-.6,0-1.2,0-1.9-7.2.3-13.5-1.7-18.5-6.8-5.1-5-7.3-11.3-6.9-18.7-.7,0-1.3,0-2,0-4.2,0-8.5,0-12.7,0-3.7,0-6.5-2.7-6.6-6.3c0-3.7,2.7-6.4,6.6-6.4c4.8,0,9.5,0,14.5,0c0-4.2,0-8.3,0-12.7-.6,0-1.3,0-2,0-8.3,0-16.6,0-24.9,0-4.1,0-6.9-2.6-6.9-6.3c0-3.8,2.8-6.4,6.8-6.4c8.9,0,17.9,0,27,0c0-4.2,0-8.4,0-12.7-5,0-9.9,0-14.9,0-3.5,0-6.3-2.9-6.2-6.4c0-3.5,2.7-6.3,6.3-6.3c4.3,0,8.6,0,12.9,0c.6,0,1.2,0,2,0-.3-7.3,1.8-13.6,6.9-18.7c5.1-5,11.3-7.1,18.6-6.8c0-5.1,0-9.9,0-14.8c0-3.2,2.2-5.8,5.2-6.3c3.3-.5,6.1,1.2,7.1,4.3.3.8.3,1.7.3,2.5c0,4.7,0,9.4,0,14.2c4.3,0,8.4,0,12.7,0c0-.7,0-1.4,0-2.1c0-8.2.2-16.3-.1-24.5C89.1,8,92.1,5,95.6,5c3.8,0,6.6,3.3,6.5,7.2-.2,8.8-.1,17.6-.1,26.6c4.2,0,8.4,0,12.7,0c0-2.1,0-4.3,0-6.5c0-2.8,0-5.6,0-8.3.1-3.6,2.8-6.3,6.4-6.2c3.5,0,6.3,2.7,6.3,6.3c0,4.9,0,9.8,0,14.9c7.3-.3,13.6,1.7,18.7,6.9c5,5.1,7.1,11.3,6.8,18.6c5.1,0,10.1,0,15,0c3.6,0,6.3,3,6.2,6.6-.1,3.4-2.8,6-6.3,6.1-4.2,0-8.5,0-12.7,0-.6,0-1.3,0-2,0c0,4.3,0,8.3,0,12.7.7,0,1.4,0,2.1,0c8.2,0,16.3.2,24.5-.1c4.5-.1,7.3,3.1,7.3,6.4c0,3.6-3.2,6.6-7.2,6.5-8.8-.2-17.6-.1-26.6-.1c0,4.2,0,8.4,0,12.7c2.4,0,4.7,0,7.1,0c2.6,0,5.2,0,7.8,0c3.5.1,6.3,2.9,6.2,6.4c0,3.5-2.7,6.3-6.3,6.3-4.9,0-9.8,0-14.9,0c.3,7.3-1.8,13.6-6.9,18.7-5.1,5-11.3,7.2-18.6,6.8c0,5.1,0,10,0,14.9c0,3.3-2.3,5.9-5.5,6.3s-6.2-1.5-7-4.5c-.2-.7-.2-1.6-.2-2.4c0-4.7,0-9.4,0-14.2-4.3,0-8.4,0-12.7,0c0,.7,0,1.4,0,2.1c0,8.3,0,16.6,0,24.9c0,4.1-2.6,6.9-6.3,6.9s-6.4-2.8-6.4-6.8c0-8.2,0-16.4,0-24.7-.1-.9-.1-1.6-.1-2.5Z"
                transform="translate(-95.80001,-96.249995)"
                fill="#000000"
            />
        </g>
    </g>
    <g id="pale-ai4-bare-u-thea_ts" transform="translate(78.225002,134.50174) scale(1,1)">
        <path
            id="pale-ai4-bare-u-thea"
            d="M88.9,113.7c-7.3,0-14,0-21.3,0c0,3.4,0,6.6,0,9.8-.1,6.4-4.2,10.8-10.2,11-5.7.1-10.5-4.2-10.5-10.2-.1-14.9-.3-29.8.2-44.6.4-11.5,10.2-21.1,21.6-21.7c7.6-.4,15.4-.6,22.8.8c10.8,2,18,11.9,18.1,22.8.1,14.1.1,28.2,0,42.3c0,6.1-4.4,10.5-10.2,10.6-5.6.1-10.1-4.1-10.5-9.9-.2-3.5,0-7,0-10.9Zm-.2-21.1c0-3.7.1-7.1,0-10.4-.1-2.5-1.7-3.6-4.1-3.7-4.2,0-8.5,0-12.7,0-2.3,0-4,1.1-4.1,3.4-.2,3.5-.1,7.1-.1,10.7c7.1,0,13.8,0,21,0Z"
            transform="translate(-78.225002,-134.501734)"
            fill="#ffffff"
        />
    </g>
    <path id="pale-ai4-bare-u-thei" d="M123.9,96c0-9.1,0-18.2,0-27.2c0-6.4,4.1-10.8,10.1-11c5.9-.2,10.6,4.2,10.6,10.5.2,18.6.2,37.2,0,55.8c0,6.3-4.7,10.7-10.6,10.5-5.9-.1-10.1-4.6-10.1-11c0-9.2,0-18.4,0-27.6Z" fill="#fff" />
    <g id="pale-ai4-bare-u-thei2_ts" transform="translate(134.325001,96.200001) scale(1,1)">
        <path
            id="pale-ai4-bare-u-thei2"
            d="M123.9,96c0-9.1,0-18.2,0-27.2c0-6.4,4.1-10.8,10.1-11c5.9-.2,10.6,4.2,10.6,10.5.2,18.6.2,37.2,0,55.8c0,6.3-4.7,10.7-10.6,10.5-5.9-.1-10.1-4.6-10.1-11c0-9.2,0-18.4,0-27.6Z"
            transform="translate(-134.325001,-96.200001)"
            fill="#ffffff"
        />
    </g>
</svg>
