<svg id="dependencies" xmlns="http://www.w3.org/2000/svg" viewBox="0 0 769 769" width="500" height="500" shape-rendering="geometricPrecision" text-rendering="geometricPrecision">
    <style>
        @keyframes pair1_f_o {
            0%,
            14.285714%,
            28.571429%,
            to {
                fill-opacity: 1;
            }
            42.857143%,
            57.142857%,
            71.428571%,
            85.714286% {
                fill-opacity: 0;
            }
        }
        @keyframes pair2_f_o {
            0%,
            71.428571%,
            85.714286%,
            to {
                fill-opacity: 1;
            }
            14.285714%,
            28.571429%,
            42.857143%,
            57.142857% {
                fill-opacity: 0;
            }
        }
        @keyframes pair3_f_o {
            0%,
            42.857143%,
            57.142857% {
                fill-opacity: 1;
            }
            14.285714%,
            28.571429%,
            71.428571%,
            85.714286%,
            to {
                fill-opacity: 0;
            }
        }
        @keyframes box1_f_o {
            0%,
            14.285714%,
            28.571429%,
            42.857143%,
            57.142857%,
            to {
                fill-opacity: 1;
            }
            71.428571%,
            85.714286% {
                fill-opacity: 0;
            }
        }
        @keyframes box2_f_o {
            0%,
            14.285714%,
            28.571429%,
            71.428571%,
            85.714286%,
            to {
                fill-opacity: 1;
            }
            42.857143%,
            57.142857% {
                fill-opacity: 0;
            }
        }
        @keyframes box3_f_o {
            0%,
            42.857143%,
            57.142857%,
            71.428571%,
            85.714286%,
            to {
                fill-opacity: 1;
            }
            14.285714%,
            28.571429% {
                fill-opacity: 0;
            }
        }
        #pair1 {
            animation: pair1_f_o 5500ms linear infinite normal forwards;
        }
        #pair2 {
            animation: pair2_f_o 5500ms linear infinite normal forwards;
        }
        #pair3 {
            animation: pair3_f_o 5500ms linear infinite normal forwards;
        }
        #box1 {
            animation: box1_f_o 5500ms linear infinite normal forwards;
        }
        #box2 {
            animation: box2_f_o 5500ms linear infinite normal forwards;
        }
        #box3 {
            animation: box3_f_o 5500ms linear infinite normal forwards;
        }
    </style>
<style type="text/css">
	.st0{fill:url(#SVGID_1_);}
	.st1{fill:#FFFFFF;stroke:#01507B;stroke-width:20;stroke-miterlimit:16;}
	.st2{fill:#DDDDDD;}
	.st3{fill:#01507B;}
</style>
<radialGradient id="SVGID_1_" cx="385.802" cy="384.6929" r="383.1984" gradientUnits="userSpaceOnUse">
	<stop  offset="0" style="stop-color:#FFC43D"/>
	<stop  offset="0.0388" style="stop-color:#FCBA3C"/>
	<stop  offset="0.3236" style="stop-color:#E77538"/>
	<stop  offset="0.5292" style="stop-color:#D94A35"/>
	<stop  offset="0.6335" style="stop-color:#D43934"/>
	<stop  offset="0.6579" style="stop-color:#CE3732"/>
	<stop  offset="0.7731" style="stop-color:#B62F2A"/>
	<stop  offset="0.8803" style="stop-color:#A82A26"/>
	<stop  offset="0.971" style="stop-color:#A32824"/>
</radialGradient>
<path class="st0" d="M769,384.78c0,96.16,0,192.32,0,288.49c0,44.08-33.24,84.37-76.66,92.62c-6.42,1.22-13.05,1.92-19.58,1.92
	c-191.68,0.1-383.36,0.08-575.04,0.08c-46.99,0-88-36.04-94.16-82.8c-0.54-4.13-0.91-8.31-0.91-12.47
	C2.6,480.45,2.6,288.29,2.6,96.13c0-44.09,33.26-84.39,76.66-92.63c6.42-1.22,13.05-1.92,19.58-1.92
	C290.68,1.48,482.52,1.5,674.37,1.5c44.09,0,84.44,33.3,92.63,76.66c1.21,6.42,1.91,13.05,1.92,19.58
	C769.03,193.42,769,289.1,769,384.78z"/>
    <g id="dependencies_top" transform="matrix(4 0 0 4 -799.509 -2292.686)">
        <g id="dependencies_group" stroke="none" stroke-width="1">
            <path
                id="pair1"
                d="M354.62 689.08c-.15-3.17-.11-5.99-.44-8.76-1.19-10.03-9.23-17.27-19.35-17.37-10.13-.09-20.26-.03-30.4-.04h-2.16v-13.08c4.03 0 7.98.01 11.92 0 8.58-.02 14.06-5.38 14.1-13.95.05-12.47.05-24.94.02-37.41-.02-8.35-5.58-13.92-13.95-13.95-12.47-.05-24.94-.04-37.41 0-8.65.03-14.04 5.56-14.04 14.27 0 12.47-.01 24.94-.01 37.42-.01 8 5.63 13.63 13.69 13.65 4.04.01 8.09 0 12.48 0v6.33l.166 10.906c.799 8.746 1.644 8.914 18.634 8.914 8.65 0 17.3-.02 25.95.01 4.96.02 7.49 2.54 7.55 7.46.02 1.77 0 3.55 0 5.62-4.32 0-8.35-.02-12.37 0-8.33.06-13.74 5.43-13.77 13.75-.04 12.63-.05 25.25-.02 37.88.02 8.11 5.48 13.67 13.62 13.73 12.7.09 25.41.11 38.11.02 7.94-.06 13.54-5.66 13.59-13.59.09-12.78.1-25.57-.01-38.35-.06-7.97-5.7-13.39-13.69-13.45-4-.03-8.04-.01-12.21-.01z"
                fill="#fff"
            />
            <path
                id="pair2"
                d="M236.72 689.11c.15-3.17.11-5.99.44-8.76 1.19-10.03 9.23-17.27 19.35-17.37 10.13-.09 20.26-.03 30.4-.04h2.16v-13.08c-4.03 0-7.98.01-11.92 0-8.58-.02-14.06-5.38-14.1-13.95-.05-12.47-.05-24.94-.02-37.41.02-8.35 5.58-13.92 13.95-13.95 12.47-.05 24.94-.04 37.41 0 8.65.03 14.04 5.56 14.04 14.27 0 12.47.01 24.94.01 37.42.01 8-5.63 13.63-13.69 13.65-4.04.01-8.09 0-12.48 0v6.33l-.166 10.906c-.799 8.746-1.644 8.914-18.634 8.914-8.65 0-17.3-.02-25.95.01-4.96.02-7.49 2.54-7.55 7.46-.02 1.77 0 3.55 0 5.62 4.32 0 8.35-.02 12.37 0 8.33.06 13.74 5.43 13.77 13.75.04 12.63.05 25.25.02 37.88-.02 8.11-5.48 13.67-13.62 13.73-12.7.09-25.41.11-38.11.02-7.94-.06-13.54-5.66-13.59-13.59-.09-12.78-.1-25.57.01-38.35.06-7.97 5.7-13.39 13.69-13.45 4-.03 8.04-.01 12.21-.01z"
                fill="#fff"
            />
            <path
                id="pair3"
                d="M236.72 689.11c.15-3.17.11-5.99.44-8.76 1.19-10.03 9.23-17.27 19.35-17.37 10.13-.09 20.26-.03 30.4-.04l8.76.015 9.37.015c9.66 0 19.33.02 28.99-.02 11.91-.05 20.57 8.51 20.58 20.37v5.81h12.58c7.82.01 13.58 5.72 13.6 13.56.02 12.71.01 25.41-.01 38.12-.01 7.88-5.64 13.65-13.5 13.69-12.78.07-25.56.07-38.35.02-7.87-.03-13.56-5.8-13.57-13.62-.01-12.71-.01-25.41-.02-38.12 0-7.95 5.76-13.68 13.73-13.67 4.04.01 8.08 0 12.3 0 0-2.78.29-5.43-.07-7.99-.45-3.18-3.3-5.08-6.86-5.08-16.99-.01-33.98 0-50.97 0-8.65 0-17.3-.02-25.95.01-4.96.02-7.49 2.54-7.55 7.46-.02 1.77 0 3.55 0 5.62 4.32 0 8.35-.02 12.37 0 8.33.06 13.74 5.43 13.77 13.75.04 12.63.05 25.25.02 37.88-.02 8.11-5.48 13.67-13.62 13.73-12.7.09-25.41.11-38.11.02-7.94-.06-13.54-5.66-13.59-13.59-.09-12.78-.1-25.57.01-38.35.06-7.97 5.7-13.39 13.69-13.45 4-.03 8.04-.01 12.21-.01z"
                fill="#fff"
            />
            <path id="box1" d="M367.5 741.32h-38.93v-38.96h38.93v38.96z" fill="#777777" />
            <path id="box2" d="M315.23 597.74v38.93h-38.97v-38.93h38.97z" fill="#ffe28c" />
            <path id="box3" d="M223.97 741.31v-38.99h38.85v38.99h-38.85z" fill="#a52925" />
        </g>
    </g>
</svg>
