<?xml version="1.0" encoding="UTF-8" standalone="no"?>
<svg
   xmlns:dc="http://purl.org/dc/elements/1.1/"
   xmlns:cc="http://creativecommons.org/ns#"
   xmlns:rdf="http://www.w3.org/1999/02/22-rdf-syntax-ns#"
   xmlns:svg="http://www.w3.org/2000/svg"
   xmlns="http://www.w3.org/2000/svg"
   xmlns:sodipodi="http://sodipodi.sourceforge.net/DTD/sodipodi-0.dtd"
   xmlns:inkscape="http://www.inkscape.org/namespaces/inkscape"
   id="e0lirv1yvuvyd1"
   viewBox="0 0 499.170000 498.380000"
   width="500"
   height="500"
   shape-rendering="geometricPrecision"
   text-rendering="geometricPrecision"
   version="1.1"
   sodipodi:docname="search.svg"
   inkscape:version="0.92.4 (5da689c313, 2019-01-14)">
  <metadata
     id="metadata16">
    <rdf:RDF>
      <cc:Work
         rdf:about="">
        <dc:format>image/svg+xml</dc:format>
        <dc:type
           rdf:resource="http://purl.org/dc/dcmitype/StillImage" />
        <dc:title></dc:title>
      </cc:Work>
    </rdf:RDF>
  </metadata>
  <defs
     id="defs14" />
  <sodipodi:namedview
     pagecolor="#ffffff"
     bordercolor="#666666"
     borderopacity="1"
     objecttolerance="10"
     gridtolerance="10"
     guidetolerance="10"
     inkscape:pageopacity="0"
     inkscape:pageshadow="2"
     inkscape:window-width="732"
     inkscape:window-height="480"
     id="namedview12"
     showgrid="false"
     inkscape:zoom="0.47353425"
     inkscape:cx="249.58501"
     inkscape:cy="249.19"
     inkscape:window-x="0"
     inkscape:window-y="0"
     inkscape:window-maximized="0"
     inkscape:current-layer="e0lirv1yvuvyd1" />
  <style
     id="style2"><![CDATA[#e0lirv1yvuvyd1{pointer-events: all} #e0lirv1yvuvyd1:hover * {animation-play-state: running !important}#e0lirv1yvuvyd5_tr {animation: e0lirv1yvuvyd5_tr__tr 4000ms linear infinite normal forwards}@keyframes e0lirv1yvuvyd5_tr__tr { 0% {transform: translate(250px,450px) rotate(0deg)} 25% {transform: translate(250px,450px) rotate(-17deg)} 75% {transform: translate(250px,450px) rotate(17deg)} 100% {transform: translate(250px,450px) rotate(0deg)} }]]></style>
 

    <defs>
        <radialGradient id="e6hh4muv6fxl4-fill" cx="250.357266" cy="249.770979" r="383.733600" spreadMethod="pad" gradientUnits="userSpaceOnUse">
            <stop id="e6hh4muv6fxl4-fill-0" offset="0%" stop-color="rgb(255,196,61)" />
            <stop id="e6hh4muv6fxl4-fill-1" offset="3.880000%" stop-color="rgb(252,186,60)" />
            <stop id="e6hh4muv6fxl4-fill-2" offset="32.360000%" stop-color="rgb(231,117,56)" />
            <stop id="e6hh4muv6fxl4-fill-3" offset="52.920000%" stop-color="rgb(217,74,53)" />
            <stop id="e6hh4muv6fxl4-fill-4" offset="63.350000%" stop-color="rgb(212,57,52)" />
            <stop id="e6hh4muv6fxl4-fill-5" offset="65.790000%" stop-color="rgb(206,55,50)" />
            <stop id="e6hh4muv6fxl4-fill-6" offset="77.310000%" stop-color="rgb(182,47,42)" />
            <stop id="e6hh4muv6fxl4-fill-7" offset="88.030000%" stop-color="rgb(168,42,38)" />
            <stop id="e6hh4muv6fxl4-fill-8" offset="97.100000%" stop-color="rgb(163,40,36)" />
        </radialGradient>
    </defs>
    <g id="e6hh4muv6fxl2" display="none">
        <path
            id="e6hh4muv6fxl3"
            d="M498.100000,249.400000C498.100000,311.730000,498.100000,374.060000,498.100000,436.390000C498.100000,464.960000,476.550000,491.080000,448.410000,496.430000C444.250000,497.220000,439.950000,497.670000,435.720000,497.670000C311.480000,497.740000,187.240000,497.720000,63,497.720000C32.550000,497.720000,5.960000,474.360000,1.970000,444.050000C1.620000,441.380000,1.380000,438.660000,1.380000,435.970000C1.340000,311.420000,1.350000,186.860000,1.350000,62.310000C1.350000,33.730000,22.910000,7.610000,51.040000,2.270000C55.200000,1.480000,59.500000,1.030000,63.730000,1.030000C188.080000,0.970000,312.420000,0.980000,436.770000,0.980000C465.340000,0.980000,491.500000,22.560000,496.810000,50.670000C497.600000,54.830000,498.050000,59.130000,498.050000,63.360000C498.120000,125.370000,498.100000,187.390000,498.100000,249.400000Z"
            fill="rgb(167,169,172)"
            stroke="none"
            stroke-width="1"
        />
    </g>
    <path
        id="e6hh4muv6fxl4"
        d="M499.860000,249.830000C499.860000,312.440000,499.860000,375.050000,499.860000,437.670000C499.860000,466.370000,478.220000,492.600000,449.950000,497.980000C445.770000,498.770000,441.450000,499.230000,437.200000,499.230000C312.400000,499.300000,187.590000,499.280000,62.790000,499.280000C32.190000,499.280000,5.490000,475.810000,1.480000,445.370000C1.130000,442.680000,0.890000,439.960000,0.890000,437.250000C0.850000,312.120000,0.850000,187,0.850000,61.890000C0.850000,33.180000,22.510000,6.940000,50.760000,1.580000C54.940000,0.790000,59.260000,0.330000,63.510000,0.330000C188.420000,0.260000,313.320000,0.280000,438.240000,0.280000C466.950000,0.280000,493.220000,21.960000,498.550000,50.190000C499.340000,54.370000,499.790000,58.690000,499.800000,62.940000C499.880000,125.230000,499.860000,187.530000,499.860000,249.830000Z"
        fill="url(#e6hh4muv6fxl4-fill)"
        stroke="none"
        stroke-width="1"
    />
  <g
     id="e0lirv1yvuvyd4"
     transform="matrix(1.00000031970445 0 0 1.00000031970445 -15.70027299999998 -4.29992729999998)">
    <g
       id="e0lirv1yvuvyd5_tr"
       transform="translate(250,450) rotate(0)">
      <g
         id="e0lirv1yvuvyd5"
         transform="translate(-250,-450)">
        <path
           id="e0lirv1yvuvyd6"
           d="M345.090000,48.680000C296.640000,13.140000,231.640000,10.680000,180.550000,42.560000C174.630000,46.260000,169.030000,50.470000,163.270000,54.440000C157.300000,60.410000,151.320000,66.390000,145.350000,72.360000C144.850000,73.230000,144.470000,74.190000,143.850000,74.970000C122.650000,101.300000,111.530000,131.420000,111.150000,165.160000C110.360000,235.980000,158.160000,295.750000,227.320000,311.040000C228.330000,311.260000,229.310000,311.610000,230.720000,312.030000C229.590000,313.020000,228.950000,313.640000,228.260000,314.190000C214.980000,324.630000,207.730000,338.300000,207.560000,355.160000C207.280000,382.420000,207.270000,409.680000,207.650000,436.940000C207.830000,449.840000,213.190000,461.030000,222.080000,470.340000C233.630000,482.440000,247.960000,487.270000,264.610000,487.060000C294.420000,486.690000,318.120000,463.550000,318.240000,433.800000C318.350000,407.820000,318.300000,381.830000,318.240000,355.850000C318.220000,346.180000,315.600000,337.190000,310.590000,328.890000C306.020000,321.320000,299.810000,315.390000,292.330000,310.560000C292.830000,310.230000,293.030000,310.040000,293.260000,309.970000C294.360000,309.640000,295.470000,309.350000,296.580000,309.030000C337.820000,297.220000,368.830000,272.430000,388.670000,234.530000C422.210000,170.450000,403.420000,91.460000,345.090000,48.680000ZM324.360000,233.580000C287.790000,270.150000,228.340000,270.220000,191.730000,233.750000C155.290000,197.450000,155.230000,137.770000,191.590000,101.010000C227.990000,64.200000,287.780000,64.360000,324.730000,101.360000C361.100000,137.760000,360.930000,197.010000,324.360000,233.580000Z"
           fill="#fff"
           stroke="none"
           stroke-width="1" />
        <path
           id="e0lirv1yvuvyd7"
           d="M201.870000,115.510000C222.060000,96.520000,242.850000,89.020000,267.090000,91.590000C276.600000,92.600000,282.730000,99.850000,281.810000,108.720000C280.900000,117.500000,273.210000,123.180000,263.780000,122.350000C244.080000,120.600000,229,128.180000,218.640000,145.070000C212.720000,154.730000,201.070000,156.420000,193.650000,148.690000C189.110000,143.960000,187.790000,136.730000,191.260000,130.990000C195.060000,124.690000,199.570000,118.820000,201.870000,115.510000Z"
           fill="rgb(255,255,255)"
           stroke="none"
           stroke-width="1" />
      </g>
    </g>
  </g>
</svg>
