<?xml version="1.0" encoding="utf-8"?>
<svg id="e0fi2jgm3hnzn1" xmlns="http://www.w3.org/2000/svg" xmlns:xlink="http://www.w3.org/1999/xlink" viewBox="0 0 769 769" shape-rendering="geometricPrecision" text-rendering="geometricPrecision">
    <style>
        <![CDATA[#eq6cs4bz8ytl1{pointer-events: all}#eq6cs4bz8ytl1:hover * {animation-play-state: running !important}#eq6cs4bz8ytl3_ts {animation: eq6cs4bz8ytl3_ts__ts 3000ms linear infinite normal forwards}@keyframes eq6cs4bz8ytl3_ts__ts { 0% {transform: translate(213.750000px,349.749032px) scale(1,1)} 36.666667% {transform: translate(213.750000px,349.749032px) scale(1,1)} 43.333333% {transform: translate(213.750000px,349.749032px) scale(1.050000,1.050000)} 50% {transform: translate(213.750000px,349.749032px) scale(1,1)} 56.666667% {transform: translate(213.750000px,349.749032px) scale(1.050000,1.050000)} 63.333333% {transform: translate(213.750000px,349.749032px) scale(1,1)} 100% {transform: translate(213.750000px,349.749032px) scale(1,1)} }#eq6cs4bz8ytl4 {animation: eq6cs4bz8ytl4_f_o 3000ms linear infinite normal forwards}@keyframes eq6cs4bz8ytl4_f_o { 0% {fill-opacity: 0} 16.666667% {fill-opacity: 0} 33.333333% {fill-opacity: 1} 66.666667% {fill-opacity: 1} 83.333333% {fill-opacity: 0} 100% {fill-opacity: 0} }#eq6cs4bz8ytl5 {animation: eq6cs4bz8ytl5_f_o 3000ms linear infinite normal forwards}@keyframes eq6cs4bz8ytl5_f_o { 0% {fill-opacity: 0} 16.666667% {fill-opacity: 1} 83.333333% {fill-opacity: 1} 100% {fill-opacity: 0} }]]>
    </style>
<style type="text/css">
	.st0{fill:url(#SVGID_1_);}
	.st1{fill:#FFFFFF;stroke:#01507B;stroke-width:20;stroke-miterlimit:16;}
	.st2{fill:#DDDDDD;}
	.st3{fill:#01507B;}
</style>
<radialGradient id="SVGID_1_" cx="385.802" cy="384.6929" r="383.1984" gradientUnits="userSpaceOnUse">
	<stop  offset="0" style="stop-color:#FFC43D"/>
	<stop  offset="0.0388" style="stop-color:#FCBA3C"/>
	<stop  offset="0.3236" style="stop-color:#E77538"/>
	<stop  offset="0.5292" style="stop-color:#D94A35"/>
	<stop  offset="0.6335" style="stop-color:#D43934"/>
	<stop  offset="0.6579" style="stop-color:#CE3732"/>
	<stop  offset="0.7731" style="stop-color:#B62F2A"/>
	<stop  offset="0.8803" style="stop-color:#A82A26"/>
	<stop  offset="0.971" style="stop-color:#A32824"/>
</radialGradient>
<path class="st0" d="M769,384.78c0,96.16,0,192.32,0,288.49c0,44.08-33.24,84.37-76.66,92.62c-6.42,1.22-13.05,1.92-19.58,1.92
	c-191.68,0.1-383.36,0.08-575.04,0.08c-46.99,0-88-36.04-94.16-82.8c-0.54-4.13-0.91-8.31-0.91-12.47
	C2.6,480.45,2.6,288.29,2.6,96.13c0-44.09,33.26-84.39,76.66-92.63c6.42-1.22,13.05-1.92,19.58-1.92
	C290.68,1.48,482.52,1.5,674.37,1.5c44.09,0,84.44,33.3,92.63,76.66c1.21,6.42,1.91,13.05,1.92,19.58
	C769.03,193.42,769,289.1,769,384.78z"/>
    <g id="eq6cs4bz8ytl3_ts" transform="translate(213.750000,349.749032) scale(1,1)">
        <path
            id="eq6cs4bz8ytl3"
            d="M366.900000,50.900000C369.100000,52.100000,371.500000,53,372.200000,53C374.100000,53,383,58.800000,387.800000,63.200000C391.800000,66.800000,400,77.200000,400,78.700000C400,79.200000,401.200000,81.800000,402.800000,84.500000L405.500000,89.500000L405.500000,349.100000L405.500000,608.700000L402.700000,614.600000C399.500000,621.300000,399.500000,621.300000,395.900000,626.700000C391.100000,633.800000,376.300000,645.200000,370.100000,646.500000C368.300000,646.900000,364.900000,648.100000,362.600000,649.100000C356.300000,652,343.200000,651.700000,333.400000,648.500000C329.200000,647.100000,325.400000,646,324.900000,646C321.800000,646,311.800000,637.500000,302.300000,626.800000C289,611.900000,242.200000,564.700000,225.500000,549.400000C212.100000,537.100000,187.600000,516,181.500000,511.500000C177.100000,508.300000,171.300000,503.700000,169,501.600000C168.200000,500.900000,165.900000,499.500000,164,498.500000C162.100000,497.500000,159.800000,496.200000,159,495.500000C158.200000,494.800000,155.500000,493.700000,153.100000,493C150.700000,492.400000,147.500000,491.100000,146.100000,490.200000C143.900000,488.700000,138.700000,488.400000,105.500000,487.900000L67.500000,487.300000L58.600000,483.600000C42.100000,476.800000,31,465.400000,24.900000,448.700000L22,440.600000L22,349.100000C22,262.800000,22.100000,257.300000,23.900000,253.500000C24.900000,251.300000,26,248.100000,26.400000,246.500000C26.800000,244.800000,28.300000,241.700000,29.800000,239.500000C37.700000,227.700000,44.100000,222,56.500000,216L63.500000,212.600000L100.500000,212C133,211.500000,138,211.200000,141.500000,209.700000C143.700000,208.700000,147.500000,207.400000,150,206.900000C152.500000,206.300000,155.600000,205.100000,157,204.200000C158.400000,203.300000,161.100000,201.700000,163,200.800000C164.900000,199.800000,168.400000,197.600000,170.700000,195.800000C184.300000,185.300000,186.800000,183.300000,190,180.700000C197.400000,174.700000,203.500000,169.400000,206,167C207.400000,165.600000,210.500000,162.800000,213,160.600000C233.200000,143.200000,292.400000,84.100000,307.100000,66.700000C313.700000,58.900000,317.300000,56.300000,328,52C335.800000,48.800000,341,48.100000,352.700000,48.500000C360.400000,48.800000,363.800000,49.400000,366.900000,50.900000Z"
            transform="translate(-213.750000,-349.749032)"
            fill="#fff"
            stroke="none"
            stroke-width="0.100000"
        />
    </g>
    <path
        id="eq6cs4bz8ytl4"
        d="M572.200000,120.100000C587.700000,133.100000,610.800000,158,620.200000,172C621.200000,173.400000,623.300000,176.300000,624.900000,178.500000C626.600000,180.700000,628.900000,184.100000,630,186C631.200000,187.900000,633.600000,192,635.500000,195C637.300000,198,639.700000,202.400000,640.800000,204.600000C641.900000,206.900000,643.200000,209,643.800000,209.400000C644.400000,209.700000,645.400000,211.700000,646.100000,213.800000C646.700000,215.800000,648.100000,218.500000,649.100000,219.800000C650.100000,221.100000,651.200000,223.500000,651.500000,225.200000C651.900000,226.900000,653.300000,230.300000,654.600000,232.800000C655.900000,235.300000,657,238,657,238.900000C657,239.800000,658.100000,242.600000,659.500000,245.200000C660.800000,247.700000,662.200000,251.800000,662.600000,254.200000C663,256.500000,664.100000,260.100000,665.100000,262.100000C666,264,667.400000,268.500000,668,272.100000C668.600000,275.600000,670,281,671,284C672,287,673.100000,292.900000,673.500000,297C673.800000,301.100000,675,309.100000,676.100000,314.800000C678.600000,328.300000,678.900000,369.400000,676.500000,381.700000C675.700000,386,674.300000,394.800000,673.500000,401.200000C672.700000,407.600000,671.400000,414.600000,670.500000,416.600000C669.700000,418.600000,668.500000,423.200000,668,426.700000C667.400000,430.300000,666.100000,434.900000,665.100000,436.900000C664.100000,438.900000,663,442.500000,662.600000,444.800000C662.200000,447.200000,660.800000,451.300000,659.500000,453.800000C658.100000,456.400000,657,459.200000,657,460C657,460.800000,655.600000,464.200000,654,467.500000C652.400000,470.800000,651,474.200000,651,475.100000C651,475.900000,649.900000,478.100000,648.500000,480C647.100000,481.900000,646,484,646,484.800000C646,485.600000,645.100000,487.400000,644,489C642.900000,490.500000,640.200000,495.300000,637.900000,499.600000C635.600000,504,633,508.400000,632.100000,509.500000C631.100000,510.600000,629.900000,512.600000,629.200000,514C628.600000,515.400000,627,517.800000,625.800000,519.400000C624.500000,521,620.600000,526.200000,617.100000,530.900000C613.700000,535.600000,608.900000,541.700000,606.600000,544.400000C599.500000,552.900000,573,578.800000,568.200000,582C563,585.500000,559.100000,585.600000,557.500000,582.500000C557,581.300000,554.700000,577.800000,552.500000,574.600000C550.300000,571.400000,547.600000,567.400000,546.500000,565.600000C545.400000,563.800000,543.500000,561.100000,542.300000,559.600000C541,558,540,556.300000,540,555.700000C540,555.100000,538.900000,553.500000,537.600000,552.100000C534.200000,548.400000,530,539.900000,530.800000,538.400000C531.200000,537.700000,534.100000,534.800000,537.400000,532C545.300000,525.100000,554.500000,515.500000,564.400000,504C572.400000,494.500000,573.400000,493.200000,576.800000,487.700000C577.700000,486.100000,579.700000,483.200000,581.300000,481.300000C582.800000,479.300000,584,477.200000,584,476.600000C584,476,585.400000,473.700000,587,471.600000C588.700000,469.400000,590,467.100000,590,466.500000C590,465.800000,590.800000,464.200000,591.800000,462.900000C592.900000,461.600000,594.200000,459,594.800000,457.200000C595.400000,455.400000,596.800000,452.700000,597.900000,451.200000C599,449.700000,600.100000,446.800000,600.500000,444.700000C600.900000,442.700000,602,440,603,438.700000C604,437.400000,605.200000,434.600000,605.600000,432.500000C606,430.300000,607.300000,426.300000,608.600000,423.500000C609.800000,420.800000,611.100000,416,611.500000,413C611.900000,410.100000,613.100000,405.600000,614.100000,403.200000C615.300000,400.600000,616.400000,394.300000,617,387.400000C617.600000,381.100000,618.400000,373,619,369.200000C620.200000,360.600000,620.300000,337.300000,619,329.500000C618.500000,326.200000,617.600000,318.300000,617,311.900000C616.400000,304.700000,615.300000,298.600000,614.100000,295.900000C613,293.500000,611.800000,288.800000,611.500000,285.500000C611.100000,282.200000,609.700000,277.500000,608.400000,275C607.100000,272.500000,606,269.400000,606,268C606,266.600000,604.600000,262.800000,603,259.500000C601.300000,256.200000,600,253,600,252.200000C600,251.500000,598.900000,249.200000,597.500000,247.200000C596.100000,245.200000,595,242.800000,595,242C595,241.100000,593.900000,238.900000,592.500000,237C591.100000,235.100000,590,233.200000,590,232.700000C590,231.500000,583.200000,220.300000,580.300000,216.700000C579,215.100000,578,213.400000,578,212.800000C578,212.200000,576.800000,210.300000,575.300000,208.500000C573.700000,206.700000,571.700000,204.200000,570.700000,202.900000C562.100000,191.200000,548.900000,177.100000,537.300000,167.100000C529,160,529,157.700000,537.600000,146.500000C540.600000,142.500000,544,137.400000,546,133.700000C547.100000,131.700000,548.400000,130,548.900000,130C549.300000,130,550.200000,128.800000,550.900000,127.200000C551.600000,125.700000,553.700000,122.100000,555.600000,119.200000C560.400000,112,562.600000,112.100000,572.200000,120.100000Z"
        fill="#fff"
        fill-opacity="0"
        stroke="none"
        stroke-width="0.100000"
    />
    <path
        id="eq6cs4bz8ytl5"
        d="M504.300000,205.600000C509.100000,208.100000,532,232.300000,532,234.900000C532,235.400000,532.900000,236.900000,534,238.200000C541.100000,246.200000,559,280.600000,559,286.100000C559,287.300000,560.100000,290.600000,561.400000,293.400000C562.700000,296.200000,564.100000,301.200000,564.500000,304.500000C564.800000,307.800000,566.100000,313.600000,567.300000,317.500000C569.300000,323.900000,569.500000,326.600000,569.500000,349.500000C569.500000,372.300000,569.300000,375.100000,567.300000,381.500000C566.100000,385.300000,564.800000,391.200000,564.400000,394.500000C564.100000,397.800000,562.900000,402.200000,561.800000,404.300000C560.800000,406.300000,559.500000,410.300000,559,413.100000C558.500000,415.900000,557.200000,419.400000,556.100000,420.800000C555.100000,422.300000,553.900000,424.900000,553.600000,426.700000C553.200000,428.500000,552.100000,430.900000,551.100000,432.200000C550.100000,433.500000,548.700000,436.200000,548.100000,438.200000C547.400000,440.300000,546.400000,442.300000,545.800000,442.600000C545.200000,443,543.900000,445.100000,542.800000,447.400000C541.800000,449.600000,539.400000,453.500000,537.500000,456C535.600000,458.500000,533.200000,461.600000,532.300000,463C524.500000,474.100000,509.700000,490.500000,505.300000,492.900000C501.500000,494.900000,498.200000,494.300000,496.600000,491.200000C495.800000,489.600000,494.400000,487.700000,493.400000,486.900000C492.500000,486.100000,491.100000,484.100000,490.300000,482.500000C489.600000,480.800000,487.400000,477.500000,485.500000,475C483.600000,472.500000,481.200000,468.900000,480.100000,466.900000C479,465,477.400000,462.800000,476.600000,462.100000C475.700000,461.300000,475,460.100000,475,459.400000C475,458.600000,473.700000,456.600000,472,454.800000C467.500000,450.200000,468,448,475.300000,439.800000C477.900000,436.900000,481.100000,433.400000,482.300000,432C483.500000,430.600000,485.800000,427.500000,487.400000,425C489,422.500000,491.600000,418.600000,493.100000,416.200000C494.700000,413.900000,496,411.300000,496,410.600000C496,409.900000,497.100000,407.700000,498.400000,405.700000C499.700000,403.800000,501.100000,400.700000,501.500000,398.900000C501.900000,397,503.100000,393.900000,504.100000,391.900000C505.100000,389.900000,506.900000,382.700000,508.100000,375.900000C509.200000,369.100000,510.700000,361,511.200000,358C512.200000,352.100000,511.600000,339.600000,510,334C509.400000,332.100000,508.300000,326.100000,507.500000,320.800000C506.700000,315.400000,505.200000,309.300000,504.200000,307.300000C503.100000,305.200000,502,301.900000,501.600000,299.900000C501.200000,297.800000,500.300000,295.700000,499.500000,295C498.700000,294.400000,497.600000,292.200000,496.900000,290.200000C496.200000,288.200000,494.600000,285.100000,493.300000,283.400000C492.100000,281.700000,491,279.900000,491,279.300000C491,278.100000,479.100000,262.900000,474,257.500000C468.800000,252.200000,468.100000,248.900000,471.100000,245.100000C472.400000,243.600000,474.300000,241,475.200000,239.400000C477.100000,236.300000,481,230.400000,489.700000,217.500000C496.600000,207.400000,499.200000,204,500.100000,204C500.700000,204,502.500000,204.700000,504.300000,205.600000Z"
        fill="#fff"
        fill-opacity="0"
        stroke="none"
        stroke-width="0.100000"
    />
</svg>
