<svg id="ez4ns36htmzd1" xmlns="http://www.w3.org/2000/svg" xmlns:xlink="http://www.w3.org/1999/xlink" viewBox="0 0 769 769" shape-rendering="geometricPrecision" text-rendering="geometricPrecision">
    <style>
        <![CDATA[#ez4ns36htmzd1{pointer-events: all} #ez4ns36htmzd1:hover * {animation-play-state: running !important}#ez4ns36htmzd16 {animation: ez4ns36htmzd16_f_o 3000ms linear infinite normal forwards}@keyframes ez4ns36htmzd16_f_o { 0% {fill-opacity: 1;animation-timing-function: step-end} 13.333333% {fill-opacity: 0;animation-timing-function: step-end} 90% {fill-opacity: 1} 100% {fill-opacity: 1} }#ez4ns36htmzd17 {animation: ez4ns36htmzd17_f_o 3000ms linear infinite normal forwards}@keyframes ez4ns36htmzd17_f_o { 0% {fill-opacity: 1;animation-timing-function: step-end} 16.666667% {fill-opacity: 0;animation-timing-function: step-end} 70% {fill-opacity: 1} 100% {fill-opacity: 1} }#ez4ns36htmzd18 {animation: ez4ns36htmzd18_f_o 3000ms linear infinite normal forwards}@keyframes ez4ns36htmzd18_f_o { 0% {fill-opacity: 1;animation-timing-function: step-end} 20% {fill-opacity: 0;animation-timing-function: step-end} 53.333333% {fill-opacity: 1} 100% {fill-opacity: 1} }#ez4ns36htmzd19 {animation: ez4ns36htmzd19_f_o 3000ms linear infinite normal forwards}@keyframes ez4ns36htmzd19_f_o { 0% {fill-opacity: 1;animation-timing-function: step-end} 23.333333% {fill-opacity: 0;animation-timing-function: step-end} 33.333333% {fill-opacity: 1} 100% {fill-opacity: 1} }#ez4ns36htmzd20_to {animation: ez4ns36htmzd20_to__to 3000ms linear infinite normal forwards}@keyframes ez4ns36htmzd20_to__to { 0% {transform: translate(261.260000px,670.825497px)} 10% {transform: translate(261px,670.825497px)} 13.333333% {transform: translate(266.530689px,651.093989px)} 16.666667% {transform: translate(283.713202px,637px)} 20% {transform: translate(305.592946px,633.551473px)} 23.333333% {transform: translate(325.591465px,639.031651px)} 33.333333% {transform: translate(314.468010px,633.384489px)} 50% {transform: translate(296.971628px,634.413605px)} 66.666667% {transform: translate(279.831880px,639.686618px)} 83.333333% {transform: translate(267.182725px,654.503658px)} 100% {transform: translate(261.170000px,670px)} }#SVGID_1_ {animation: ez4ns36htmzd20_tr__tr 3000ms linear infinite normal forwards}@keyframes ez4ns36htmzd20_tr__tr { 0% {transform: rotate(-120deg)} 10% {transform: rotate(-120deg)} 23.333333% {transform: rotate(0deg)} 100% {transform: rotate(-120deg)} }]]>
    </style>
<style type="text/css">
	.st0{fill:url(#SVGID_1_);}
	.st1{fill:#FFFFFF;stroke:#01507B;stroke-width:20;stroke-miterlimit:16;}
	.st2{fill:#DDDDDD;}
	.st3{fill:#01507B;}
</style>
<radialGradient id="SVGID_1_" cx="385.802" cy="384.6929" r="383.1984" gradientUnits="userSpaceOnUse">
	<stop  offset="0" style="stop-color:#FFC43D"/>
	<stop  offset="0.0388" style="stop-color:#FCBA3C"/>
	<stop  offset="0.3236" style="stop-color:#E77538"/>
	<stop  offset="0.5292" style="stop-color:#D94A35"/>
	<stop  offset="0.6335" style="stop-color:#D43934"/>
	<stop  offset="0.6579" style="stop-color:#CE3732"/>
	<stop  offset="0.7731" style="stop-color:#B62F2A"/>
	<stop  offset="0.8803" style="stop-color:#A82A26"/>
	<stop  offset="0.971" style="stop-color:#A32824"/>
</radialGradient>
<path class="st0" d="M769,384.78c0,96.16,0,192.32,0,288.49c0,44.08-33.24,84.37-76.66,92.62c-6.42,1.22-13.05,1.92-19.58,1.92
	c-191.68,0.1-383.36,0.08-575.04,0.08c-46.99,0-88-36.04-94.16-82.8c-0.54-4.13-0.91-8.31-0.91-12.47
	C2.6,480.45,2.6,288.29,2.6,96.13c0-44.09,33.26-84.39,76.66-92.63c6.42-1.22,13.05-1.92,19.58-1.92
	C290.68,1.48,482.52,1.5,674.37,1.5c44.09,0,84.44,33.3,92.63,76.66c1.21,6.42,1.91,13.05,1.92,19.58
	C769.03,193.42,769,289.1,769,384.78z"/>
    <g id="ez4ns36htmzd4" transform="matrix(3.50000000000000 0 0 3.50000000000000 -654.48834834249999 -1954.86521160750067)">
        <g id="ez4ns36htmzd5">
            <path
                id="ez4ns36htmzd6"
                d="M214.610000,665.910000C215.150000,662.560000,215.500000,659.170000,216.260000,655.870000C224.590000,619.760000,246.610000,596.570000,282.570000,587.800000C308.280000,581.530000,333.650000,586.629107,355.080000,602.179107C363.819224,608.314564,369.534358,616.007576,370.324358,616.637576C364.754358,620.907576,368.769265,640.039207,355.340000,631.010871C348.976101,621.578144,340.714518,615.196333,321.770000,608.860000C284.110000,596.610000,243.560000,620.610000,235.990000,659.430000C228.910000,695.770000,251.820000,730.620000,288.210000,738.160000C324.310000,745.640000,358.860000,722.650000,366.890000,687.300000C369.250000,676.920000,369.040000,666.570000,366.480000,656.240000C364.636739,646.738900,358.349099,634.309166,353.619669,628.262219C352.170296,618.988656,352.000879,610.399779,370.324358,616.637576C380.507024,631.952970,383.350000,642.600000,384.420000,645.910000C399.810000,693.680000,371.850000,744.480000,323.290000,757.010000C276.880000,768.980000,229.090000,740.720000,217.310000,694.240000C216.190000,689.810000,215.760000,685.200000,215,680.680000C214.920000,680.220000,214.740000,679.770000,214.610000,679.310000C214.610000,674.840000,214.610000,670.380000,214.610000,665.910000Z"
                fill="#ffffff"

            />
            <g id="ez4ns36htmzd7">
                <path
                    id="ez4ns36htmzd8"
                    d="M344.520000,643.310000C344.550000,639.520000,347.500000,636.680000,351.340000,636.730000C355,636.780000,357.890000,639.720000,357.900000,643.400000C357.900000,647.150000,354.900000,650.130000,351.150000,650.120000C347.400000,650.090000,344.490000,647.110000,344.520000,643.310000Z"
                    transform="matrix(1 0 0 1 -2.73019143500014 1.49072462249998)"
                    fill="#ffffff"
                    stroke="none"
                    stroke-width="1"
                />
                <path
                    id="ez4ns36htmzd9"
                    d="M348.480000,672.450000C348.520000,668.680000,351.490000,665.840000,355.340000,665.900000C358.990000,665.960000,361.870000,668.920000,361.860000,672.600000C361.850000,676.340000,358.830000,679.310000,355.080000,679.280000C351.340000,679.260000,348.440000,676.260000,348.480000,672.450000Z"
                    fill="#ffffff"
                    stroke="none"
                    stroke-width="1"
                />
                <path
                    id="ez4ns36htmzd10"
                    d="M241.380000,672.450000C241.430000,668.680000,244.390000,665.850000,248.230000,665.910000C251.880000,665.970000,254.760000,668.930000,254.750000,672.610000C254.740000,676.350000,251.720000,679.320000,247.970000,679.290000C244.230000,679.260000,241.340000,676.260000,241.380000,672.450000Z"
                    fill="#6cd900"
                    stroke="none"
                    stroke-width="1"
                />
                <path
                    id="ez4ns36htmzd11"
                    d="M254.870000,639.120000C258.610000,639.160000,261.530000,642.190000,261.460000,645.960000C261.390000,649.590000,258.400000,652.500000,254.740000,652.500000C250.980000,652.500000,248.060000,649.520000,248.080000,645.730000C248.100000,641.930000,251.030000,639.080000,254.870000,639.120000Z"
                    fill="#6cd900"
                    stroke="none"
                    stroke-width="1"
                />
                <path
                    id="ez4ns36htmzd12"
                    d="M321.710000,625.600000C321.740000,621.810000,324.690000,618.970000,328.530000,619.020000C332.190000,619.070000,335.080000,622.010000,335.090000,625.690000C335.090000,629.440000,332.090000,632.420000,328.340000,632.410000C324.580000,632.390000,321.680000,629.400000,321.710000,625.600000Z"
                    fill="#6cd900"
                    stroke="none"
                    stroke-width="1"
                />
                <path
                    id="ez4ns36htmzd13"
                    d="M274.990000,619.020000C278.720000,619.070000,281.630000,622.120000,281.540000,625.900000C281.460000,629.520000,278.450000,632.420000,274.790000,632.400000C271.040000,632.380000,268.140000,629.390000,268.170000,625.590000C268.200000,621.810000,271.140000,618.970000,274.990000,619.020000Z"
                    fill="#6cd900"
                    stroke="none"
                    stroke-width="1"
                />
                <path
                    id="ez4ns36htmzd14"
                    d="M301.680000,612.330000C305.430000,612.350000,308.360000,615.360000,308.300000,619.130000C308.250000,622.770000,305.280000,625.690000,301.620000,625.710000C297.860000,625.720000,294.910000,622.760000,294.920000,618.980000C294.950000,615.170000,297.860000,612.300000,301.680000,612.330000Z"
                    fill="#6cd900"
                    stroke="none"
                    stroke-width="1"
                />
            </g>
            <g id="ez4ns36htmzd15">
                <path
                    id="ez4ns36htmzd16"
                    d="M254.870000,639.120000C258.610000,639.160000,261.530000,642.190000,261.460000,645.960000C261.390000,649.590000,258.400000,652.500000,254.740000,652.500000C250.980000,652.500000,248.060000,649.520000,248.080000,645.730000C248.100000,641.930000,251.030000,639.080000,254.870000,639.120000Z"
                    fill="#ffffff"
                    stroke="none"
                    stroke-width="1"
                />
                <path
                    id="ez4ns36htmzd17"
                    d="M274.990000,619.020000C278.720000,619.070000,281.630000,622.120000,281.540000,625.900000C281.460000,629.520000,278.450000,632.420000,274.790000,632.400000C271.040000,632.380000,268.140000,629.390000,268.170000,625.590000C268.200000,621.810000,271.140000,618.970000,274.990000,619.020000Z"
                    fill="#ffffff"
                    stroke="none"
                    stroke-width="1"
                />
                <path
                    id="ez4ns36htmzd18"
                    d="M301.680000,612.330000C305.430000,612.350000,308.360000,615.360000,308.300000,619.130000C308.250000,622.770000,305.280000,625.690000,301.620000,625.710000C297.860000,625.720000,294.910000,622.760000,294.920000,618.980000C294.950000,615.170000,297.860000,612.300000,301.680000,612.330000Z"
                    fill="#ffffff"
                    stroke="none"
                    stroke-width="1"
                />
                <path
                    id="ez4ns36htmzd19"
                    d="M321.710000,625.600000C321.740000,621.810000,324.690000,618.970000,328.530000,619.020000C332.190000,619.070000,335.080000,622.010000,335.090000,625.690000C335.090000,629.440000,332.090000,632.420000,328.340000,632.410000C324.580000,632.390000,321.680000,629.400000,321.710000,625.600000Z"
                    fill="#ffffff"
                    stroke="none"
                    stroke-width="1"
                />
            </g>
            <g id="ez4ns36htmzd20_to" transform="translate(261.260000,670.825497)">
                <g id="SVGID_1_" transform="rotate(-120)">
                    <g id="ez4ns36htmzd20" transform="translate(-336.067261,-651.040314)">

                        <path
                            id="ez4ns36htmzd22"
                            d="M301.620000,709.500000C289.420000,709.400000,279.180000,699.820000,278.290000,687.600000C277.410000,675.560000,286.150000,664.690000,298.250000,662.980000C300.490000,662.660000,302.820000,662.820000,305.080000,663C306.430000,663.110000,307.390000,662.850000,308.440000,661.960000C330.410000,643.370000,352.410000,624.810000,374.450000,606.300000C375.750000,605.210000,377.330000,604.290000,378.940000,603.790000C381.770000,602.920000,384.430000,605.360000,383.760000,608.250000C383.370000,609.940000,382.490000,611.680000,381.380000,613.010000C362.950000,635.030000,344.470000,657,325.940000,678.940000C324.860000,680.220000,324.440000,681.380000,324.720000,683.060000C326.720000,694.840000,317.670000,707.160000,305.750000,708.980000C304.380000,709.210000,303,709.330000,301.620000,709.500000Z"
                            transform="matrix(1 0 0 1 10.92834357447040 -1.33693915061092)"
                            fill="#ffffff"
							stroke="#555555"
							stroke-width="4"
							stroke-miterlimit="10"
                        />
                    </g>
                </g>
            </g>
        </g>
    </g>
</svg>
