<?xml version="1.0" encoding="UTF-8" standalone="no"?>
<svg
   xmlns:dc="http://purl.org/dc/elements/1.1/"
   xmlns:cc="http://creativecommons.org/ns#"
   xmlns:rdf="http://www.w3.org/1999/02/22-rdf-syntax-ns#"
   xmlns:svg="http://www.w3.org/2000/svg"
   xmlns="http://www.w3.org/2000/svg"
   xmlns:sodipodi="http://sodipodi.sourceforge.net/DTD/sodipodi-0.dtd"
   xmlns:inkscape="http://www.inkscape.org/namespaces/inkscape"
   id="eg8ecku0pdl71"
   viewBox="0 0 769 769"
   width="500"
   height="500"
   shape-rendering="geometricPrecision"
   text-rendering="geometricPrecision"
   version="1.1"
   sodipodi:docname="nzb.svg"
   inkscape:version="0.92.4 (5da689c313, 2019-01-14)">
  <metadata
     id="metadata19">
    <rdf:RDF>
      <cc:Work
         rdf:about="">
        <dc:format>image/svg+xml</dc:format>
        <dc:type
           rdf:resource="http://purl.org/dc/dcmitype/StillImage" />
        <dc:title></dc:title>
      </cc:Work>
    </rdf:RDF>
  </metadata>
  <defs
     id="defs17" />
  <sodipodi:namedview
     pagecolor="#ffffff"
     bordercolor="#666666"
     borderopacity="1"
     objecttolerance="10"
     gridtolerance="10"
     guidetolerance="10"
     inkscape:pageopacity="0"
     inkscape:pageshadow="2"
     inkscape:window-width="732"
     inkscape:window-height="480"
     id="namedview15"
     showgrid="false"
     inkscape:zoom="0.30689207"
     inkscape:cx="384.5"
     inkscape:cy="384.5"
     inkscape:window-x="0"
     inkscape:window-y="0"
     inkscape:window-maximized="0"
     inkscape:current-layer="eg8ecku0pdl71" />
  <style
     id="style2"><![CDATA[#eg8ecku0pdl71{pointer-events: all} #eg8ecku0pdl71:hover * {animation-play-state: running !important}#eg8ecku0pdl75_to {animation: eg8ecku0pdl75_to__to 4600ms linear infinite normal forwards}@keyframes eg8ecku0pdl75_to__to { 0% {transform: translate(320.055000px,725.661539px);animation-timing-function: cubic-bezier(0.420000,0,0.580000,1)} 50% {transform: translate(320.055000px,658px)} 100% {transform: translate(320.055000px,725.661539px)} }]]></style>
<style type="text/css">
	.st0{fill:url(#SVGID_1_);}
	.st1{fill:#FFFFFF;stroke:#01507B;stroke-width:20;stroke-miterlimit:16;}
	.st2{fill:#DDDDDD;}
	.st3{fill:#01507B;}
</style>
<radialGradient id="SVGID_1_" cx="385.802" cy="384.6929" r="383.1984" gradientUnits="userSpaceOnUse">
	<stop  offset="0" style="stop-color:#FFC43D"/>
	<stop  offset="0.0388" style="stop-color:#FCBA3C"/>
	<stop  offset="0.3236" style="stop-color:#E77538"/>
	<stop  offset="0.5292" style="stop-color:#D94A35"/>
	<stop  offset="0.6335" style="stop-color:#D43934"/>
	<stop  offset="0.6579" style="stop-color:#CE3732"/>
	<stop  offset="0.7731" style="stop-color:#B62F2A"/>
	<stop  offset="0.8803" style="stop-color:#A82A26"/>
	<stop  offset="0.971" style="stop-color:#A32824"/>
</radialGradient>
<path class="st0" d="M769,384.78c0,96.16,0,192.32,0,288.49c0,44.08-33.24,84.37-76.66,92.62c-6.42,1.22-13.05,1.92-19.58,1.92
	c-191.68,0.1-383.36,0.08-575.04,0.08c-46.99,0-88-36.04-94.16-82.8c-0.54-4.13-0.91-8.31-0.91-12.47
	C2.6,480.45,2.6,288.29,2.6,96.13c0-44.09,33.26-84.39,76.66-92.63c6.42-1.22,13.05-1.92,19.58-1.92
	C290.68,1.48,482.52,1.5,674.37,1.5c44.09,0,84.44,33.3,92.63,76.66c1.21,6.42,1.91,13.05,1.92,19.58
	C769.03,193.42,769,289.1,769,384.78z"/>
  <g
     id="eg8ecku0pdl74"
     transform="matrix(4 0 0 4 -894.20452881000006 -2341.00863647999995)">
    <g
       id="eg8ecku0pdl75_to"
       transform="translate(320.055000,725.661539)">
      <path
         id="eg8ecku0pdl75"
         d="M386.370000,685.190000C385,686.880000,383.630000,688.580000,382.260000,690.270000C369.760000,705.750000,357.260000,721.230000,344.750000,736.700000C337.380000,745.810000,329.990000,754.900000,322.610000,764C322.070000,764.670000,321.440000,765.270000,320.910000,765.950000C320.260000,766.780000,319.740000,766.710000,319.090000,765.920000C316.420000,762.670000,313.690000,759.470000,311.030000,756.200000C302.470000,745.650000,293.930000,735.090000,285.400000,724.520000C275.490000,712.240000,265.600000,699.940000,255.700000,687.650000C255.110000,686.920000,254.540000,686.170000,253.740000,685.140000C254.900000,685.060000,255.730000,684.960000,256.560000,684.960000C270.860000,684.900000,285.170000,684.870000,299.470000,684.790000C300.540000,684.780000,301.230000,685.130000,301.890000,685.960000C307.530000,692.970000,313.200000,699.940000,318.870000,706.920000C319.190000,707.320000,319.560000,707.680000,320.010000,708.170000C320.700000,707.380000,321.320000,706.730000,321.880000,706.030000C327.240000,699.420000,332.610000,692.810000,337.940000,686.170000C338.730000,685.190000,339.560000,684.780000,340.850000,684.780000C355.440000,684.830000,370.030000,684.810000,384.620000,684.810000C385.140000,684.810000,385.650000,684.810000,386.170000,684.810000C386.250000,684.940000,386.310000,685.070000,386.370000,685.190000Z"
         transform="translate(-320.055000,-725.661539)"
         fill="rgb(255,255,255)"
         stroke="none"
         stroke-width="1" />
    </g>
    <path
       id="eg8ecku0pdl76"
       d="M388.990000,651.700000C388.980000,650.590000,388.980000,649.490000,388.980000,648.380000C388.980000,646.330000,388.980000,644.280000,388.980000,642.220000C388.990000,636.790000,388.990000,631.170000,388.900000,625.610000C388.750000,616.850000,383.970000,612.630000,379.980000,610.640000C377.090000,609.200000,373.850000,608.440000,370.610000,608.440000C368.520000,608.440000,366.480000,608.740000,364.530000,609.320000L364.530000,596.180000L334.480000,596.180000L334.480000,609.610000L299.900000,609.610000L299.900000,612.650000C299.770000,612.550000,299.660000,612.430000,299.530000,612.330000C296.340000,609.830000,292.250000,608.460000,287.990000,608.460000C285.710000,608.460000,283.460000,608.850000,281.360000,609.590000L251.550000,609.590000L251.550000,682.270000L276,682.270000L276,682.280000L306.080000,682.280000L306.080000,682.260000L334.480000,682.260000L334.480000,682.280000L361.940000,682.280000L362.060000,681.840000C364.430000,683.030000,366.900000,683.530000,370.260000,683.530000C370.740000,683.530000,371.250000,683.520000,371.780000,683.500000C379.730000,683.250000,386.760000,677.250000,388.130000,669.550000C388.590000,666.970000,388.860000,664.290000,388.930000,661.580000C389.020000,658.270000,389,654.930000,388.990000,651.700000Z"
       fill="#111111"
       stroke="none"
       stroke-width="1" />
    <g
       id="eg8ecku0pdl77">
      <path
         id="eg8ecku0pdl78"
         d="M340.150000,601.860000C346.400000,601.860000,352.550000,601.860000,358.860000,601.860000C358.860000,607.640000,358.860000,613.350000,358.860000,619.370000C359.360000,618.920000,359.630000,618.690000,359.890000,618.440000C364.520000,613.930000,371.640000,612.830000,377.450000,615.730000C381.570000,617.790000,383.160000,621.410000,383.230000,625.720000C383.360000,633.280000,383.300000,640.830000,383.310000,648.390000C383.320000,652.740000,383.390000,657.100000,383.270000,661.450000C383.210000,663.830000,382.970000,666.230000,382.560000,668.570000C381.640000,673.700000,376.850000,677.680000,371.610000,677.850000C365.950000,678.030000,364.160000,677.260000,358.820000,672.300000C358.410000,673.780000,358.030000,675.170000,357.630000,676.620000C351.830000,676.620000,346.060000,676.620000,340.160000,676.620000C340.150000,651.730000,340.150000,626.840000,340.150000,601.860000ZM364.380000,646.260000C364.380000,641.040000,364.410000,635.830000,364.350000,630.610000C364.340000,629.340000,364.120000,628.040000,363.800000,626.810000C363.470000,625.550000,362.390000,625.210000,361.190000,625.300000C360.020000,625.380000,359.330000,626.060000,359.190000,627.190000C359.030000,628.470000,358.890000,629.760000,358.890000,631.050000C358.870000,641.050000,358.860000,651.050000,358.890000,661.050000C358.890000,662.340000,359.020000,663.640000,359.250000,664.900000C359.510000,666.320000,360.460000,667.020000,361.790000,666.920000C363.120000,666.820000,363.900000,666.080000,364.070000,664.760000C364.220000,663.580000,364.360000,662.380000,364.370000,661.190000C364.410000,656.210000,364.390000,651.240000,364.380000,646.260000Z"
         fill="#ffdb4a"
         stroke="none"
         stroke-width="1" />
      <path
         id="eg8ecku0pdl79"
         d="M257.220000,615.260000C263.600000,615.260000,269.850000,615.260000,276.190000,615.260000C276.190000,616.870000,276.190000,618.430000,276.190000,620.350000C276.640000,619.790000,276.910000,619.450000,277.180000,619.110000C281.710000,613.530000,290.510000,612.460000,296.030000,616.790000C298.670000,618.860000,299.770000,621.690000,300.030000,624.890000C300.240000,627.460000,300.390000,630.050000,300.390000,632.620000C300.420000,646.780000,300.410000,660.950000,300.410000,675.110000C300.410000,675.580000,300.410000,676.040000,300.410000,676.590000C294.160000,676.590000,288.050000,676.590000,281.670000,676.590000C281.670000,676.020000,281.670000,675.420000,281.670000,674.830000C281.660000,660.760000,281.670000,646.700000,281.640000,632.630000C281.640000,630.910000,281.520000,629.190000,281.400000,627.470000C281.310000,626.150000,280.650000,625.350000,279.240000,625.270000C277.670000,625.180000,276.630000,625.770000,276.470000,627.310000C276.180000,630.060000,276.010000,632.840000,276,635.600000C275.950000,648.660000,275.980000,661.730000,275.980000,674.790000C275.980000,675.360000,275.980000,675.920000,275.980000,676.580000C269.680000,676.580000,263.490000,676.580000,257.210000,676.580000C257.220000,656.160000,257.220000,635.800000,257.220000,615.260000Z"
         fill="#ffdb4a"
         stroke="none"
         stroke-width="1" />
      <path
         id="eg8ecku0pdl710"
         d="M322.270000,664.410000C326.920000,664.410000,331.360000,664.410000,335.900000,664.410000C335.900000,668.510000,335.900000,672.500000,335.900000,676.590000C325.350000,676.590000,314.800000,676.590000,304.060000,676.590000C304.060000,674.730000,304.170000,672.870000,304.040000,671.030000C303.680000,666.210000,304.660000,661.750000,306.520000,657.270000C310.380000,647.970000,313.840000,638.500000,317.460000,629.100000C317.630000,628.660000,317.770000,628.210000,318,627.540000C313.800000,627.540000,309.730000,627.540000,305.560000,627.540000C305.560000,623.350000,305.560000,619.370000,305.560000,615.280000C315.650000,615.280000,325.720000,615.280000,336,615.280000C336,616.180000,335.920000,617.080000,336.010000,617.960000C336.760000,625.330000,335.070000,632.170000,332.150000,638.930000C328.780000,646.730000,325.950000,654.760000,322.880000,662.680000C322.710000,663.170000,322.540000,663.660000,322.270000,664.410000Z"
         fill="#ffdb4a"
         stroke="none"
         stroke-width="1" />
    </g>
  </g>
</svg>
