<?xml version="1.0" encoding="UTF-8" standalone="no"?>
<svg
   xmlns:dc="http://purl.org/dc/elements/1.1/"
   xmlns:cc="http://creativecommons.org/ns#"
   xmlns:rdf="http://www.w3.org/1999/02/22-rdf-syntax-ns#"
   xmlns:svg="http://www.w3.org/2000/svg"
   xmlns="http://www.w3.org/2000/svg"
   xmlns:sodipodi="http://sodipodi.sourceforge.net/DTD/sodipodi-0.dtd"
   xmlns:inkscape="http://www.inkscape.org/namespaces/inkscape"
   id="e0lirv1yvuvyd1"
   viewBox="0 0 499.170000 498.380000"
   width="500"
   height="500"
   shape-rendering="geometricPrecision"
   text-rendering="geometricPrecision"
   version="1.1"
   sodipodi:docname="search.svg"
   inkscape:version="0.92.4 (5da689c313, 2019-01-14)">
  <metadata
     id="metadata16">
    <rdf:RDF>
      <cc:Work
         rdf:about="">
        <dc:format>image/svg+xml</dc:format>
        <dc:type
           rdf:resource="http://purl.org/dc/dcmitype/StillImage" />
        <dc:title></dc:title>
      </cc:Work>
    </rdf:RDF>
  </metadata>
  <defs
     id="defs14" />
  <sodipodi:namedview
     pagecolor="#ffffff"
     bordercolor="#666666"
     borderopacity="1"
     objecttolerance="10"
     gridtolerance="10"
     guidetolerance="10"
     inkscape:pageopacity="0"
     inkscape:pageshadow="2"
     inkscape:window-width="732"
     inkscape:window-height="480"
     id="namedview12"
     showgrid="false"
     inkscape:zoom="0.47353425"
     inkscape:cx="249.58501"
     inkscape:cy="249.19"
     inkscape:window-x="0"
     inkscape:window-y="0"
     inkscape:window-maximized="0"
     inkscape:current-layer="e0lirv1yvuvyd1" />

    <style>
        <![CDATA[
        #erkpfdmI4sg7_ts {animation: erkpfdmI4sg7_ts__ts 5000ms linear infinite normal forwards}@keyframes erkpfdmI4sg7_ts__ts { 0% {transform: translate(185.771523px,185.709501px) rotate(-8.319705deg) scale(1.000024,1.000024)} 83.333333% {transform: translate(185.771523px,185.709501px) rotate(-8.319705deg) scale(1.000024,1.000024)} 93.333333% {transform: translate(185.771523px,185.709501px) rotate(-8.319705deg) scale(1.000024,0);animation-timing-function: cubic-bezier(0.445,0.05,0.55,0.95)} 100% {transform: translate(185.771523px,185.709501px) rotate(-8.319705deg) scale(1.000024,1.000024)}} #erkpfdmI4sg8_ts {animation: erkpfdmI4sg8_ts__ts 5000ms linear infinite normal forwards}@keyframes erkpfdmI4sg8_ts__ts { 0% {transform: translate(269.105784px,356.618507px) scale(1,1)} 3.333333% {transform: translate(269.105784px,356.618507px) scale(1,1)} 10% {transform: translate(269.105784px,356.618507px) scale(0,1);animation-timing-function: cubic-bezier(0.5,0,1,1)} 30% {transform: translate(269.105784px,356.618507px) scale(0,1);animation-timing-function: cubic-bezier(0,0,0.58,1)} 43.333333% {transform: translate(269.105784px,356.618507px) scale(1,1)} 100% {transform: translate(269.105784px,356.618507px) scale(1,1)}} #erkpfdmI4sg12_ts {animation: erkpfdmI4sg12_ts__ts 5000ms linear infinite normal forwards}@keyframes erkpfdmI4sg12_ts__ts { 0% {transform: translate(277.200012px,354.925003px) scale(0,0)} 10% {transform: translate(277.200012px,354.925003px) scale(0,0);animation-timing-function: cubic-bezier(0.42,0,1,1)} 16.666667% {transform: translate(277.200012px,354.925003px) scale(1,1);animation-timing-function: cubic-bezier(0.42,0,1,1)} 30% {transform: translate(277.200012px,354.925003px) scale(1,1);animation-timing-function: cubic-bezier(0,0,0.58,1)} 33.333333% {transform: translate(277.200012px,354.925003px) scale(0,0)} 100% {transform: translate(277.200012px,354.925003px) scale(0,0)}}
        ]]>
    </style>
 

    <defs>
        <radialGradient id="e6hh4muv6fxl4-fill" cx="250.357266" cy="249.770979" r="383.733600" spreadMethod="pad" gradientUnits="userSpaceOnUse">
            <stop id="e6hh4muv6fxl4-fill-0" offset="0%" stop-color="rgb(255,196,61)" />
            <stop id="e6hh4muv6fxl4-fill-1" offset="3.880000%" stop-color="rgb(252,186,60)" />
            <stop id="e6hh4muv6fxl4-fill-2" offset="32.360000%" stop-color="rgb(231,117,56)" />
            <stop id="e6hh4muv6fxl4-fill-3" offset="52.920000%" stop-color="rgb(217,74,53)" />
            <stop id="e6hh4muv6fxl4-fill-4" offset="63.350000%" stop-color="rgb(212,57,52)" />
            <stop id="e6hh4muv6fxl4-fill-5" offset="65.790000%" stop-color="rgb(206,55,50)" />
            <stop id="e6hh4muv6fxl4-fill-6" offset="77.310000%" stop-color="rgb(182,47,42)" />
            <stop id="e6hh4muv6fxl4-fill-7" offset="88.030000%" stop-color="rgb(168,42,38)" />
            <stop id="e6hh4muv6fxl4-fill-8" offset="97.100000%" stop-color="rgb(163,40,36)" />
        </radialGradient>
    </defs>
    <g id="e6hh4muv6fxl2" display="none">
        <path
            id="e6hh4muv6fxl3"
            d="M498.100000,249.400000C498.100000,311.730000,498.100000,374.060000,498.100000,436.390000C498.100000,464.960000,476.550000,491.080000,448.410000,496.430000C444.250000,497.220000,439.950000,497.670000,435.720000,497.670000C311.480000,497.740000,187.240000,497.720000,63,497.720000C32.550000,497.720000,5.960000,474.360000,1.970000,444.050000C1.620000,441.380000,1.380000,438.660000,1.380000,435.970000C1.340000,311.420000,1.350000,186.860000,1.350000,62.310000C1.350000,33.730000,22.910000,7.610000,51.040000,2.270000C55.200000,1.480000,59.500000,1.030000,63.730000,1.030000C188.080000,0.970000,312.420000,0.980000,436.770000,0.980000C465.340000,0.980000,491.500000,22.560000,496.810000,50.670000C497.600000,54.830000,498.050000,59.130000,498.050000,63.360000C498.120000,125.370000,498.100000,187.390000,498.100000,249.400000Z"
            fill="rgb(167,169,172)"
            stroke="none"
            stroke-width="1"
        />
    </g>
    <path
        id="e6hh4muv6fxl4"
        d="M499.860000,249.830000C499.860000,312.440000,499.860000,375.050000,499.860000,437.670000C499.860000,466.370000,478.220000,492.600000,449.950000,497.980000C445.770000,498.770000,441.450000,499.230000,437.200000,499.230000C312.400000,499.300000,187.590000,499.280000,62.790000,499.280000C32.190000,499.280000,5.490000,475.810000,1.480000,445.370000C1.130000,442.680000,0.890000,439.960000,0.890000,437.250000C0.850000,312.120000,0.850000,187,0.850000,61.890000C0.850000,33.180000,22.510000,6.940000,50.760000,1.580000C54.940000,0.790000,59.260000,0.330000,63.510000,0.330000C188.420000,0.260000,313.320000,0.280000,438.240000,0.280000C466.950000,0.280000,493.220000,21.960000,498.550000,50.190000C499.340000,54.370000,499.790000,58.690000,499.800000,62.940000C499.880000,125.230000,499.860000,187.530000,499.860000,249.830000Z"
        fill="url(#e6hh4muv6fxl4-fill)"
        stroke="none"
        stroke-width="1"
    />


    <path
        d="M496.5,191.2v0c-15.2,2.1-24.2,15.2-34.2,13.5-7.6-1.3-12.8-8.9-11.5-16.8C464,107.7,458,55.5,441.5,20c-3.2-6.7-7-13-11.1-19C382.6,1,334.8,1,287,1C230.4,15.6,178,13.7,131.3,54.1c-30.1,26-45.7,64.4-34.4,118.6.9,3,.9,6.2,0,9.1-5.5,15.8-20.7,7.6-30.9,3.8l-.8-.4c-60-21.7-40.3,110.6,4.8,96.7c1.3-.5,2.7-.7,4.1-.7c7.7-.5,14.4,5.6,14.8,13.6c0,.2,0,.4,0,.6c1.5,66,29.7,82.1,64,112.9c5.3,4.7,10.8,9.1,14.3,12.9c34.6,31.8,70.4,48.2,106.4,48.2c36.1,0,69.2-15.7,101.4-48c43.5-43.5,77.8-58.5,72.1-129.3-.2-3.2.6-6.4,2.3-9.1c4.3-6.7,13-8.6,19.5-4.1c0,0,0,0,0,0c11.3,7.8,20.6,2.5,27.4-8.5c0-7,0-14,0-21c.2-19.4.2-38.8.2-58.2Z"
        fill="#fbf5e3"
    />
    <path
        d="M394.5,442.4c4.5-5,9.5-9.4,14.3-14.1c37.3-36.3,65.8-55.2,66.9-115.5l4.5,1.1c5.4.8,10.9.3,16-1.5c0-14,0-28,0-42-6.8,11-16.1,16.2-27.4,8.5c0,0,0,0,0,0-6.5-4.4-15.2-2.6-19.5,4.1-1.7,2.7-2.5,5.9-2.3,9.1c5.7,70.9-28.6,85.8-72.1,129.3-32.2,32.3-65.4,48-101.4,48-36.1,0-71.9-16.4-106.4-48.2-3.5-3.8-9.1-8.2-14.3-12.9-34.3-30.8-62.6-46.9-64-112.9c0-.2,0-.4,0-.6-.5-8-7.1-14.1-14.8-13.6-1.4,0-2.8.3-4.1.7-45,14-64.7-118.4-4.8-96.7l.8.4c10.2,3.7,25.3,11.9,30.9-3.8.9-3,.9-6.2,0-9.1-11.3-54.2,4.3-92.6,34.4-118.6C173,18,219.4,15.7,269.3,5.1h-230c-.4.1-.7.3-1.1.4v12.4h-15.2c8.2,53.2-5.5,115.7,17.4,131.3-15.8-.5-27.5,6.7-35.2,28.8-10.5,26.3.5,110.6,31.1,128.9c7.5,4.5,16.1,6.6,24.7,6c5.8,66.4,36.4,85.2,73.3,117.4c4,3.6,8,7.1,14,12.7c35.4,32.7,74.1,51.2,111.7,54.8c9,0,18.1,0,27.1,0c36.9-3.7,73.3-21.8,107.4-55.4Z"
        fill="#000000"
    />
    <path
        d="M441.2,20c16.5,35.6,22.5,87.7,9.3,167.9-1.3,7.9,3.9,15.4,11.5,16.8c10,1.8,19-11.4,34.2-13.5c0-9.6,0-19.3,0-28.9-.3,0-.6,0-.9.1-4.6.4-9.2,1.3-13.6,2.7.7-2,.7-4,.7-6c4.9-4.3,9.5-8.8,13.9-13.5c0-27.4,0-54.8,0-82.2c0-4.2-.5-8.5-1.2-12.7-3.9-20.8-19.3-38-38.6-45.6h-23.5c2.9,4.8,5.7,9.7,8.2,14.9Z"
        fill="#000000"
    />
    <g id="erkpfdmI4sg7_ts" transform="translate(185.771523,185.709501) rotate(-8.319705) scale(1.000024,1.000024)">
        <ellipse rx="61.3" ry="55.2" transform="translate(0,0)" fill="#000000" stroke="#000000" stroke-width="7" stroke-miterlimit="10" />
    </g>
    <g id="erkpfdmI4sg8_ts" transform="translate(269.105784,356.618507) scale(1,1)">
        <g transform="translate(-270.2,-358.901137)">
            <path d="M161.4,323.3c52.3,87.3,122,110.4,177.9,54.3c12-12,27.9-32.3,44.3-67.6L161.4,323.3Z" fill="#000000" stroke="#000000" stroke-width="10" stroke-miterlimit="10" />
            <path d="M159.1,322.9l222.2-13.4-222.2,13.4Z" fill="none" stroke="#000000" stroke-width="5" stroke-miterlimit="10" />
        </g>
    </g>
    <ellipse rx="61.3" ry="55.2" transform="matrix(.9895-.1447 0.1447 0.9895 351.215118 177.393938)" fill="#000000" stroke="#000000" stroke-width="7" stroke-miterlimit="10" />
    <g id="erkpfdmI4sg12_ts" transform="translate(277.200012,354.925003) scale(0,0)">
        <g transform="translate(-277.200012,-354.925003)">
            <path d="M358.7,286.4c-19.4-19.4-50.8-19.4-70.1,0l-11.4,11.4-11.4-11.4c-19.4-19.4-50.8-19.4-70.1,0-19.4,19.4-19.4,50.8,0,70.1l11.4,11.4L277.2,438l70.1-70.1l11.4-11.4c19.4-19.4,19.4-50.8,0-70.1Z" fill="#d31111" />
            <ellipse rx="12.3" ry="25.3" transform="matrix(.4378-.8991 0.8991 0.4378 336.217667 295.398578)" fill="#fff" />
        </g>
    </g>


</svg>
