<svg id="eb4651fcvq2u1" xmlns="http://www.w3.org/2000/svg" xmlns:xlink="http://www.w3.org/1999/xlink" viewBox="0 0 499.170000 498.380000" shape-rendering="geometricPrecision" text-rendering="geometricPrecision">
    <style>
        <![CDATA[#eb4651fcvq2u3_to {animation: eb4651fcvq2u3_to__to 14000ms linear infinite normal forwards}@keyframes eb4651fcvq2u3_to__to { 0% {transform: translate(255px,195.085445px);animation-timing-function: cubic-bezier(0.420000,0,0.580000,1)} 50% {transform: translate(254.997187px,292.160336px);animation-timing-function: cubic-bezier(0.420000,0,0.580000,1)} 100% {transform: translate(255px,195.085445px)} }]]>
    </style>
    <defs>
        <radialGradient id="eo3z0svo1z33-fill" cx="250.357201" cy="249.769770" r="383.733600" spreadMethod="pad" gradientUnits="userSpaceOnUse">
			<stop  offset="0" style="stop-color:#FFC43D"/>
			<stop  offset="0.0388" style="stop-color:#FCBA3C"/>
			<stop  offset="0.3236" style="stop-color:#E77538"/>
			<stop  offset="0.5292" style="stop-color:#D94A35"/>
			<stop  offset="0.6335" style="stop-color:#D43934"/>
			<stop  offset="0.6579" style="stop-color:#CE3732"/>
			<stop  offset="0.7731" style="stop-color:#B62F2A"/>
			<stop  offset="0.8803" style="stop-color:#A82A26"/>
			<stop  offset="0.971" style="stop-color:#A32824"/>
        </radialGradient>
    </defs>
    <g id="eo3z0svo1z32">
        <path
            id="eo3z0svo1z33"
            d="M499.860000,249.830000C499.860000,312.440000,499.860000,375.050000,499.860000,437.670000C499.860000,466.370000,478.220000,492.600000,449.950000,497.980000C445.770000,498.770000,441.450000,499.230000,437.200000,499.230000C312.400000,499.300000,187.590000,499.280000,62.790000,499.280000C32.190000,499.280000,5.490000,475.810000,1.480000,445.370000C1.130000,442.680000,0.890000,439.960000,0.890000,437.250000C0.850000,312.120000,0.850000,187,0.850000,61.890000C0.850000,33.180000,22.510000,6.940000,50.760000,1.580000C54.940000,0.790000,59.260000,0.330000,63.510000,0.330000C188.420000,0.260000,313.320000,0.280000,438.240000,0.280000C466.950000,0.280000,493.220000,21.960000,498.550000,50.190000C499.340000,54.370000,499.790000,58.690000,499.800000,62.940000C499.880000,125.230000,499.860000,187.530000,499.860000,249.830000Z"
            fill="url(#eo3z0svo1z33-fill)"

        />
    </g>
    <g id="eb4651fcvq2u3_to" transform="translate(255,195.085445)">
        <g id="eb4651fcvq2u3" transform="scale(0.942855,0.942855) translate(-255,-175.794922)">
            <g id="eb4651fcvq2u4" transform="matrix(1 0 0 1 0.00000000000003 -64.71659300000007)">
                <g id="eb4651fcvq2u5">
                    <g id="eb4651fcvq2u6">
                        <g id="eb4651fcvq2u7">
                            <path
                                id="eb4651fcvq2u8"
                                d="M253.700000,386.180000C233.630000,385.840000,211.570000,385.600000,189.520000,385.030000C174.530000,384.640000,159.530000,384.170000,144.580000,383.050000C129.740000,381.940000,114.810000,380.850000,100.210000,378.200000C77.810000,374.130000,64.210000,359.970000,58.980000,337.890000C55.820000,324.550000,54.240000,310.950000,53.550000,297.280000C52.560000,277.540000,51.500000,257.780000,51.360000,238.020000C51.250000,222.480000,52.180000,206.910000,53.220000,191.390000C54.280000,175.580000,55.510000,159.700000,59.910000,144.380000C65.700000,124.210000,79.150000,111.630000,99.690000,107.580000C110.760000,105.400000,122.120000,104.390000,133.400000,103.540000C177.090000,100.250000,220.870000,99.680000,264.660000,99.770000C288.660000,99.820000,312.660000,100.480000,336.650000,101.220000C351.470000,101.670000,366.300000,102.440000,381.070000,103.690000C392.340000,104.640000,403.770000,105.560000,414.680000,108.270000C435.220000,113.360000,447.670000,127.170000,452.480000,147.740000C455.620000,161.170000,457.260000,174.840000,457.920000,188.590000C458.900000,208.900000,459.790000,229.230000,460.090000,249.560000C460.270000,261.860000,459.540000,274.200000,458.760000,286.490000C457.590000,304.980000,456.580000,323.560000,451.500000,341.490000C445.810000,361.580000,432.320000,374.100000,411.890000,378.160000C400.740000,380.380000,389.300000,381.340000,377.940000,382.230000C337.260000,385.420000,296.460000,385.570000,253.700000,386.180000Z"
                                transform="matrix(1 0 0 1 1 0)"
                                fill="rgb(5,5,5)"
                                fill-opacity="0.51"
                                stroke="none"
                                stroke-width="1"
                            />
                            <path
                                id="eb4651fcvq2u9"
                                d="M251.230000,381.260000C231.160000,380.920000,209.100000,380.680000,187.050000,380.110000C172.060000,379.720000,157.060000,379.250000,142.110000,378.130000C127.270000,377.020000,112.340000,375.930000,97.740000,373.280000C75.340000,369.210000,61.740000,355.050000,56.510000,332.970000C53.350000,319.630000,51.770000,306.030000,51.080000,292.360000C50.090000,272.620000,49.030000,252.860000,48.890000,233.100000C48.780000,217.560000,49.710000,201.990000,50.750000,186.470000C51.810000,170.660000,53.040000,154.780000,57.440000,139.460000C63.230000,119.290000,76.680000,106.710000,97.220000,102.660000C108.290000,100.480000,119.650000,99.470000,130.930000,98.620000C174.620000,95.330000,218.400000,94.760000,262.190000,94.850000C286.190000,94.900000,310.190000,95.560000,334.180000,96.300000C349,96.750000,363.830000,97.520000,378.600000,98.770000C389.870000,99.720000,401.300000,100.640000,412.210000,103.350000C432.750000,108.440000,445.200000,122.250000,450.010000,142.820000C453.150000,156.250000,454.790000,169.920000,455.450000,183.670000C456.430000,203.980000,457.320000,224.310000,457.620000,244.640000C457.800000,256.940000,457.070000,269.280000,456.290000,281.570000C455.120000,300.060000,454.110000,318.640000,449.030000,336.570000C443.340000,356.660000,429.850000,369.180000,409.420000,373.240000C398.270000,375.460000,386.830000,376.420000,375.470000,377.310000C334.790000,380.500000,294,380.650000,251.230000,381.260000Z"
                                fill="#fff"
                                stroke="none"
                                stroke-width="1"
                            />
                        </g>
                        <g id="eb4651fcvq2u10" opacity="0.29" />
                    </g>
                    <g id="eb4651fcvq2u11">
                        <g id="eb4651fcvq2u12">
                            <g id="eb4651fcvq2u13" />
                            <g id="eb4651fcvq2u14" opacity="0.29" />
                        </g>
                    </g>
                </g>
            </g>
            <g id="eb4651fcvq2u15" transform="matrix(1 0 0 1 0 -64.71659300000047)">
                <path
                    id="eb4651fcvq2u16"
                    d="M216.360000,183.160000C216.360000,224.180000,216.360000,264.730000,216.360000,305.640000C251.810000,285.160000,286.950000,264.870000,322.390000,244.400000C286.890000,223.890000,251.780000,203.610000,216.360000,183.160000Z"
                    fill="rgb(0,0,0)"
                    fill-opacity="0.21"
                    stroke="none"
                    stroke-width="1"
                />
                <path
                    id="eb4651fcvq2u17"
                    d="M212.400000,176.720000C212.400000,217.740000,212.400000,258.290000,212.400000,299.200000C247.850000,278.720000,282.990000,258.430000,318.430000,237.960000C282.930000,217.450000,247.820000,197.180000,212.400000,176.720000Z"
                    fill="#c8030a"
                    stroke="none"
                    stroke-width="1"
                />
            </g>
        </g>
    </g>
</svg>
