<svg id="enfi6nas20tk1" xmlns="http://www.w3.org/2000/svg" xmlns:xlink="http://www.w3.org/1999/xlink" viewBox="0 0 499.170000 498.380000" shape-rendering="geometricPrecision" text-rendering="geometricPrecision">
    <style>
        <![CDATA[#enfi6nas20tk9_tr {animation: enfi6nas20tk9_tr__tr 5000ms linear infinite normal forwards}@keyframes enfi6nas20tk9_tr__tr { 0% {transform: translate(166.414157px,448.947388px) rotate(0deg)} 100% {transform: translate(166.414157px,448.947388px) rotate(360deg)} }]]>
    </style>
    <defs>
        <radialGradient id="eo3z0svo1z33-fill" cx="250.357201" cy="249.769770" r="383.733600" spreadMethod="pad" gradientUnits="userSpaceOnUse">
	<stop  offset="0" style="stop-color:#FFC43D"/>
	<stop  offset="0.0388" style="stop-color:#FCBA3C"/>
	<stop  offset="0.3236" style="stop-color:#E77538"/>
	<stop  offset="0.5292" style="stop-color:#D94A35"/>
	<stop  offset="0.6335" style="stop-color:#D43934"/>
	<stop  offset="0.6579" style="stop-color:#CE3732"/>
	<stop  offset="0.7731" style="stop-color:#B62F2A"/>
	<stop  offset="0.8803" style="stop-color:#A82A26"/>
	<stop  offset="0.971" style="stop-color:#A32824"/>
        </radialGradient>
    </defs>
    <g id="eo3z0svo1z32">
        <path
            id="eo3z0svo1z33"
            d="M499.860000,249.830000C499.860000,312.440000,499.860000,375.050000,499.860000,437.670000C499.860000,466.370000,478.220000,492.600000,449.950000,497.980000C445.770000,498.770000,441.450000,499.230000,437.200000,499.230000C312.400000,499.300000,187.590000,499.280000,62.790000,499.280000C32.190000,499.280000,5.490000,475.810000,1.480000,445.370000C1.130000,442.680000,0.890000,439.960000,0.890000,437.250000C0.850000,312.120000,0.850000,187,0.850000,61.890000C0.850000,33.180000,22.510000,6.940000,50.760000,1.580000C54.940000,0.790000,59.260000,0.330000,63.510000,0.330000C188.420000,0.260000,313.320000,0.280000,438.240000,0.280000C466.950000,0.280000,493.220000,21.960000,498.550000,50.190000C499.340000,54.370000,499.790000,58.690000,499.800000,62.940000C499.880000,125.230000,499.860000,187.530000,499.860000,249.830000Z"
            fill="url(#eo3z0svo1z33-fill)"
            stroke="none"
            stroke-width="1"
        />
    </g>
    <g id="enfi6nas20tk4">
        <path
            id="enfi6nas20tk5"
            d="M257.230000,34.160000C259.290000,35.900000,286.410000,62.710000,317.490000,93.870000C348.570000,125.030000,374.270000,150.260000,374.590000,149.940000C374.910000,149.540000,375.300000,144.480000,375.460000,138.630000C375.780000,127.160000,376.490000,124.790000,379.730000,123.600000C380.840000,123.130000,391.830000,122.810000,404.250000,122.810000L426.790000,122.810000L428.690000,124.790000L430.670000,126.690000L430.670000,165.440000C430.670000,190.430000,430.990000,204.980000,431.460000,206.400000C431.930000,207.590000,444.900000,221.270000,460.320000,236.690000C490.450000,266.900000,491.720000,268.480000,489.660000,273.380000C487.450000,278.600000,487.600000,278.600000,460.240000,278.600000C437.940000,278.600000,435.410000,278.760000,433.910000,279.940000L432.250000,281.360000L432,364.570000L431.840000,447.760000L430.180000,449.420000C429.230000,450.370000,427.100000,451.480000,425.440000,451.790000C423.620000,452.260000,350.070000,452.500000,248.770000,452.500000C103.970000,452.420000,74.790000,452.260000,72.730000,451.390000C67.430000,449.100000,67.670000,452.890000,67.670000,362.030000C67.670000,297.500000,67.430000,280.100000,66.640000,279.630000C66.170000,279.310000,54.070000,278.840000,39.830000,278.600000C14.840000,278.200000,13.890000,278.130000,12.310000,276.540000C11.360000,275.590000,10.410000,273.380000,10.170000,271.560000C9.770000,268.870000,10.090000,267.760000,11.830000,265.310000C14.280000,261.750000,244.410000,32.490000,246.310000,31.700000C249.800000,30.290000,253.360000,31.080000,257.230000,34.160000Z"
            fill="rgb(255,255,255)"
            stroke="none"
            stroke-width="1"
        />
        <g id="enfi6nas20tk6" transform="matrix(3 0 0 3 -249.74699401855469 -1060.96997070312500)">
            <g id="enfi6nas20tk7" transform="matrix(1 0 0 1 199.52876281738281 481.72811889648438)">
                <g id="enfi6nas20tk8" transform="matrix(1 0 0 1 -199.52876281738281 -481.72811889648438)">
                    <g id="enfi6nas20tk9_tr" transform="translate(166.414157,448.947388) rotate(0)">
                        <path
                            id="enfi6nas20tk9"
                            d="M162.260000,406.230000C161.230000,406.390000,160.440000,407.180000,160.440000,407.890000C160.440000,408.600000,160.040000,410.580000,159.570000,412.160000C158.540000,416.110000,156.090000,416.190000,153.090000,412.400000C151.900000,410.900000,150.240000,409.630000,149.530000,409.630000C147.710000,409.630000,140.670000,414.060000,140.670000,415.170000C140.670000,415.640000,141.220000,417.310000,141.860000,418.890000C142.490000,420.390000,143.050000,422.210000,143.050000,422.770000C143.050000,424.510000,139.570000,424.910000,136.330000,423.560000C134.670000,422.850000,133.250000,422.290000,133.090000,422.290000C132.220000,422.290000,128.030000,429.960000,128.030000,431.460000C128.030000,432.570000,129.060000,434.070000,130.800000,435.410000C132.300000,436.520000,133.570000,437.940000,133.570000,438.570000C133.570000,440.070000,130.410000,442.050000,127.880000,442.050000C124.080000,442.050000,122.500000,446,123.770000,452.250000C124.240000,454.460000,124.560000,454.700000,127.170000,454.700000C130.180000,454.700000,133.580000,456.520000,133.580000,458.020000C133.580000,458.570000,132.310000,460.080000,130.810000,461.500000C129.310000,462.840000,128.040000,464.740000,128.040000,465.690000C128.040000,467.900000,129.780000,471.300000,131.840000,473.120000C133.420000,474.540000,133.580000,474.540000,136.900000,472.960000C140.300000,471.380000,140.300000,471.380000,141.880000,472.960000C143.380000,474.380000,143.380000,474.540000,142.040000,478.180000C140.770000,481.660000,140.770000,481.900000,142.040000,483.400000C142.830000,484.190000,144.890000,485.610000,146.630000,486.480000L149.710000,488.140000L152.790000,484.660000C155.720000,481.340000,155.870000,481.260000,157.930000,482.450000C159.590000,483.320000,160.140000,484.270000,160.300000,486.720000C160.620000,490.600000,162.120000,491.860000,166.550000,491.860000C170.740000,491.860000,172.720000,490.040000,173.510000,485.610000C174.220000,481.340000,176.520000,480.470000,179.120000,483.630000C180.150000,484.900000,180.940000,486.160000,181.020000,486.480000C181.020000,487.820000,185.450000,487.030000,188.690000,485.140000C192.490000,482.850000,192.800000,481.580000,190.750000,477.230000C189.480000,474.620000,189.480000,474.380000,190.750000,473.120000C192.020000,471.850000,192.330000,471.850000,195.970000,473.200000C198.180000,473.990000,200.320000,474.390000,200.710000,474.150000C201.110000,473.830000,202.610000,471.620000,204.030000,469.170000C206.400000,464.980000,206.480000,464.660000,205.220000,463.870000C201.580000,461.660000,200,459.990000,200,458.180000C200,456.120000,202.370000,454.700000,205.930000,454.700000C208.300000,454.700000,209.490000,452.640000,209.490000,448.450000C209.490000,443.940000,208.860000,442.910000,205.690000,442.360000C199.210000,441.170000,198.410000,439.120000,202.760000,434.930000C204.260000,433.430000,205.530000,431.770000,205.530000,431.290000C205.530000,430.180000,201.180000,423.380000,199.990000,422.670000C199.590000,422.430000,198.170000,422.750000,196.910000,423.460000C193.900000,424.960000,191.770000,424.960000,190.500000,423.460000C189.630000,422.430000,189.710000,421.720000,190.740000,419.430000C192.640000,415.480000,192.480000,414.690000,188.760000,412C184.570000,408.920000,183.220000,408.990000,180.140000,412.400000C178.720000,413.900000,176.980000,415.170000,176.190000,415.170000C174.370000,415.170000,173.110000,412.880000,173.110000,409.710000C173.110000,408.440000,172.790000,407.100000,172.320000,406.860000C171.200000,406.230000,164.320000,405.750000,162.260000,406.230000Z"
                            transform="translate(-166.414157,-448.947388)"
                            fill="#da4e35"
                            stroke="none"
                            stroke-width="1"
                        />
                    </g>
                    <path
                        id="enfi6nas20tk10"
                        d="M171.040000,428.290000C171.990000,428.690000,172.310000,429.950000,172.310000,433.350000C172.310000,435.880000,172.630000,438.890000,173.100000,439.990000C173.810000,441.890000,174.210000,442.050000,179.350000,442.050000C186.550000,442.050000,187.500000,442.920000,187.180000,449.480000L186.940000,454.300000L180.610000,454.540000C172.780000,454.780000,172.310000,455.330000,172.310000,463.160000L172.310000,469.010000L166.620000,468.770000L160.850000,468.530000L160.610000,462.600000C160.450000,459.360000,160.060000,456.350000,159.580000,455.880000C159.180000,455.480000,156.020000,454.930000,152.700000,454.690000L146.610000,454.290000L146.610000,448.360000L146.610000,442.430000L153.330000,442.030000L160.050000,441.630000L160.290000,435.700000C160.370000,432.460000,160.610000,429.290000,160.840000,428.740000C161.230000,427.740000,168.740000,427.420000,171.040000,428.290000Z"
                        fill="#fff"
                        stroke="none"
                        stroke-width="1"
                    />
                </g>
            </g>
        </g>
    </g>
</svg>
