<?xml version="1.0" encoding="UTF-8" standalone="no"?>
<svg
   xmlns:dc="http://purl.org/dc/elements/1.1/"
   xmlns:cc="http://creativecommons.org/ns#"
   xmlns:rdf="http://www.w3.org/1999/02/22-rdf-syntax-ns#"
   xmlns:svg="http://www.w3.org/2000/svg"
   xmlns="http://www.w3.org/2000/svg"
   xmlns:sodipodi="http://sodipodi.sourceforge.net/DTD/sodipodi-0.dtd"
   xmlns:inkscape="http://www.inkscape.org/namespaces/inkscape"
   id="eyv3u7fozktn1"
   viewBox="0 0 769 769"
   width="500"
   height="500"
   shape-rendering="geometricPrecision"
   text-rendering="geometricPrecision"
   version="1.1"
   sodipodi:docname="backup.svg"
   inkscape:version="0.92.4 (5da689c313, 2019-01-14)">
  <metadata
     id="metadata16">
    <rdf:RDF>
      <cc:Work
         rdf:about="">
        <dc:format>image/svg+xml</dc:format>
        <dc:type
           rdf:resource="http://purl.org/dc/dcmitype/StillImage" />
        <dc:title></dc:title>
      </cc:Work>
    </rdf:RDF>
  </metadata>
  <defs
     id="defs14" />
  <sodipodi:namedview
     pagecolor="#ffffff"
     bordercolor="#666666"
     borderopacity="1"
     objecttolerance="10"
     gridtolerance="10"
     guidetolerance="10"
     inkscape:pageopacity="0"
     inkscape:pageshadow="2"
     inkscape:window-width="732"
     inkscape:window-height="480"
     id="namedview12"
     showgrid="false"
     inkscape:zoom="0.30689207"
     inkscape:cx="384.5"
     inkscape:cy="384.5"
     inkscape:window-x="0"
     inkscape:window-y="0"
     inkscape:window-maximized="0"
     inkscape:current-layer="eyv3u7fozktn1" />
  <style
     id="style2"><![CDATA[#eyv3u7fozktn1{pointer-events: all} #eyv3u7fozktn1:hover * {animation-play-state: running !important}#eyv3u7fozktn4_tr {animation: eyv3u7fozktn4_tr__tr 5000ms linear infinite normal forwards}@keyframes eyv3u7fozktn4_tr__tr { 0% {transform: translate(383.551353px,385.435974px) rotate(0deg)} 90% {transform: translate(383.551353px,385.435974px) rotate(-720deg)} 100% {transform: translate(383.551353px,385.435974px) rotate(0deg)} }]]></style>
<style type="text/css">
	.st0{fill:url(#SVGID_1_);}
	.st1{fill:#FFFFFF;stroke:#01507B;stroke-width:20;stroke-miterlimit:16;}
	.st2{fill:#DDDDDD;}
	.st3{fill:#01507B;}
</style>
<radialGradient id="SVGID_1_" cx="385.802" cy="384.6929" r="383.1984" gradientUnits="userSpaceOnUse">
	<stop  offset="0" style="stop-color:#FFC43D"/>
	<stop  offset="0.0388" style="stop-color:#FCBA3C"/>
	<stop  offset="0.3236" style="stop-color:#E77538"/>
	<stop  offset="0.5292" style="stop-color:#D94A35"/>
	<stop  offset="0.6335" style="stop-color:#D43934"/>
	<stop  offset="0.6579" style="stop-color:#CE3732"/>
	<stop  offset="0.7731" style="stop-color:#B62F2A"/>
	<stop  offset="0.8803" style="stop-color:#A82A26"/>
	<stop  offset="0.971" style="stop-color:#A32824"/>
</radialGradient>
<path class="st0" d="M769,384.78c0,96.16,0,192.32,0,288.49c0,44.08-33.24,84.37-76.66,92.62c-6.42,1.22-13.05,1.92-19.58,1.92
	c-191.68,0.1-383.36,0.08-575.04,0.08c-46.99,0-88-36.04-94.16-82.8c-0.54-4.13-0.91-8.31-0.91-12.47
	C2.6,480.45,2.6,288.29,2.6,96.13c0-44.09,33.26-84.39,76.66-92.63c6.42-1.22,13.05-1.92,19.58-1.92
	C290.68,1.48,482.52,1.5,674.37,1.5c44.09,0,84.44,33.3,92.63,76.66c1.21,6.42,1.91,13.05,1.92,19.58
	C769.03,193.42,769,289.1,769,384.78z"/>
  <g
     id="eyv3u7fozktn4_tr"
     transform="translate(383.551353,385.435974) rotate(0)">
    <g
       id="eyv3u7fozktn4"
       transform="scale(4,4) translate(-320.188927,-686.700012)">
      <g
         id="eyv3u7fozktn5">
        <path
           id="eyv3u7fozktn6"
           d="M286.510000,678.460000C286.270000,678.460000,286.030000,678.450000,285.780000,678.440000C281.860000,678.270000,277.610000,678.190000,272.390000,678.190000C269.260000,678.190000,266.140000,678.220000,263.010000,678.240000C259.870000,678.270000,256.720000,678.290000,253.580000,678.290000L251.460000,678.290000C241.820000,678.250000,235.820000,672.140000,235.810000,662.360000C235.790000,651.010000,235.790000,639.650000,235.810000,628.300000C235.820000,619.360000,241.860000,612.580000,250.170000,612.170000C250.420000,612.160000,250.670000,612.150000,250.920000,612.150000C257.640000,612.150000,263.060000,616.690000,264.930000,623.540000C273.800000,615.790000,283.520000,610.150000,294.490000,606.370000C303.150000,603.390000,312.230000,601.880000,321.490000,601.880000C355.750000,601.880000,387.270000,622.450000,399.920000,653.070000C401.720000,657.420000,401.820000,661.900000,400.200000,665.680000C398.710000,669.170000,395.790000,671.910000,391.990000,673.390000C390.120000,674.120000,388.230000,674.480000,386.350000,674.480000C380.480000,674.480000,375.350000,670.850000,372.610000,664.770000C366.670000,651.570000,357.370000,642.240000,344.180000,636.240000C337.550000,633.230000,329.950000,631.630000,322.220000,631.630000C306.220000,631.630000,291.130000,638.110000,281.470000,648.840000C281.470000,648.840000,284.730000,648.840000,286.060000,648.830000C295.640000,648.830000,301.960000,654.540000,302.230000,663.370000C302.340000,667.140000,300.890000,670.780000,298.150000,673.600000C295.160000,676.700000,290.920000,678.460000,286.510000,678.460000Z"
           fill="rgb(255,255,255)"
           stroke="none"
           stroke-width="1" />
        <path
           id="eyv3u7fozktn7"
           d="M321.930000,771.520000C288.010000,771.520000,256.510000,750.850000,243.540000,720.080000C240.420000,712.670000,242.680000,705.040000,249.180000,701.070000C251.530000,699.630000,254.220000,698.880000,256.940000,698.880000C261.440000,698.880000,265.640000,700.910000,268.470000,704.450000C269.470000,705.700000,270.140000,707.110000,270.730000,708.350000C270.890000,708.700000,271.060000,709.040000,271.230000,709.380000C281.680000,730.240000,298.490000,741.120000,321.180000,741.730000C321.710000,741.740000,322.250000,741.750000,322.770000,741.750000C337.170000,741.750000,349.820000,736.480000,360.440000,726.060000C359.680000,726.060000,358.920000,726.060000,358.160000,726.060000C356.460000,726.060000,354.780000,726.050000,353.090000,726.030000C344.390000,725.910000,338.110000,719.590000,338.170000,711C338.230000,702.860000,344.540000,696.670000,352.850000,696.610000C359.250000,696.560000,365.820000,696.530000,372.390000,696.530000C378.160000,696.530000,383.920000,696.550000,389.690000,696.590000C398.250000,696.640000,404.490000,703.030000,404.540000,711.770000C404.610000,724.030000,404.580000,736.400000,404.550000,747.030000C404.520000,755.570000,398.960000,761.870000,390.720000,762.710000C390.270000,762.760000,389.820000,762.780000,389.370000,762.780000C383.320000,762.780000,378.060000,758.760000,375.820000,752.710000C374.460000,753.540000,373.110000,754.370000,371.780000,755.200000C366.500000,758.470000,361.040000,761.860000,355.240000,764.450000C344.760000,769.140000,333.550000,771.520000,321.930000,771.520000Z"
           fill="#fff"
                stroke="none"
 />
      </g>
    </g>
  </g>
</svg>
