<svg id="brain2" xmlns="http://www.w3.org/2000/svg" xmlns:xlink="http://www.w3.org/1999/xlink" viewBox="595 335 503 503" shape-rendering="geometricPrecision" text-rendering="geometricPrecision">
 <defs> 
	<style>
        <![CDATA[
        #brain2-u-rightlobe {animation: brain2-u-rightlobe_c_o 7000ms linear infinite normal forwards}@keyframes brain2-u-rightlobe_c_o { 0% {opacity: 1} 23.333333% {opacity: 1;animation-timing-function: cubic-bezier(0.39,0.575,0.565,1)} 40% {opacity: 0.5;animation-timing-function: cubic-bezier(0.47,0,0.745,0.715)} 50% {opacity: 0.5;animation-timing-function: cubic-bezier(0.39,0.575,0.565,1)} 73.333333% {opacity: 1;animation-timing-function: cubic-bezier(0.47,0,0.745,0.715)} 83.333333% {opacity: 1;animation-timing-function: cubic-bezier(0.39,0.575,0.565,1)} 93.333333% {opacity: 0.70;animation-timing-function: cubic-bezier(0.445,0.05,0.55,0.95)} 100% {opacity: 1}} #brain2-u-leftlobe_ts {animation: brain2-u-leftlobe_ts__ts 7000ms linear infinite normal forwards}@keyframes brain2-u-leftlobe_ts__ts { 0% {transform: translate(741.553906px,582.872186px) scale(1,1)} 16.666667% {transform: translate(741.553906px,582.872186px) scale(1,1);animation-timing-function: cubic-bezier(0,0,0.58,1)} 46.666667% {transform: translate(741.553906px,582.872186px) scale(1.3,1.1);animation-timing-function: cubic-bezier(0.42,0,1,1)} 66.666667% {transform: translate(741.553906px,582.872186px) scale(1.3,1.1);animation-timing-function: cubic-bezier(0,0,0.58,1)} 90% {transform: translate(741.553906px,582.872186px) scale(1,1)} 100% {transform: translate(741.553906px,582.872186px) scale(1,1)}}
        ]]>
    </style>
	
    <defs>
        <radialGradient id="Background-fill" cx="96.25" cy="96.25" r="147.84" spreadMethod="pad" gradientUnits="userSpaceOnUse">
            <stop id="e6hh4muv6fxl4-fill-0" offset="0%" stop-color="rgb(255,196,61)" />
            <stop id="e6hh4muv6fxl4-fill-1" offset="3.880000%" stop-color="rgb(252,186,60)" />
            <stop id="e6hh4muv6fxl4-fill-2" offset="32.360000%" stop-color="rgb(231,117,56)" />
            <stop id="e6hh4muv6fxl4-fill-3" offset="52.920000%" stop-color="rgb(217,74,53)" />
            <stop id="e6hh4muv6fxl4-fill-4" offset="63.350000%" stop-color="rgb(212,57,52)" />
            <stop id="e6hh4muv6fxl4-fill-5" offset="65.790000%" stop-color="rgb(206,55,50)" />
            <stop id="e6hh4muv6fxl4-fill-6" offset="77.310000%" stop-color="rgb(182,47,42)" />
            <stop id="e6hh4muv6fxl4-fill-7" offset="88.030000%" stop-color="rgb(168,42,38)" />
            <stop id="e6hh4muv6fxl4-fill-8" offset="97.100000%" stop-color="rgb(163,40,36)" />
        </radialGradient>
    </defs>	
	
  </defs>	
	
	
	
	
    <g id="brain2-u-background" transform="matrix(4 0 0 4-894.559998-2347.566406)">
        <path
            id="brain2-u-ey3w0brz1363"
            d="M497.8,733.6c0,15.6,0,31.3,0,46.9c0,7.2-5.4,13.7-12.5,15.1-1,.2-2.1.3-3.2.3-31.2,0-62.4,0-93.6,0-7.6,0-14.3-5.9-15.3-13.5-.1-.7-.1-1.4-.1-2c0-31.3,0-62.5,0-93.8c0-7.2,5.4-13.7,12.5-15.1c1-.2,2.1-.3,3.2-.3c31.2,0,62.4,0,93.6,0c7.2,0,13.7,5.4,15.1,12.5.2,1,.3,2.1.3,3.2c0,15.5,0,31.1,0,46.7Z"
            fill="url(#Background-fill)"
        />
    </g>
    <path
        id="brain2-u-brainback"
        d="M1073,622c0,7,0,14,0,21-.3.4-.7.8-.7,1.3-3.4,23.9-15.4,42.5-35,56.3-1.2.9-2,3.3-2,5c0,5,.9,10,.6,14.9-1.1,18-7.7,33.5-21.6,45.5-12.3,10.6-26.8,15.9-42.5,18.1-4.5.6-7.3,2.2-9.6,6.3-8.4,14.8-20.9,25-36.9,30.5-8.9,3-18.2,4.8-27.3,7.1-6.3,0-12.7,0-19,0-10.3-2.3-20.2-5.5-28.5-12.3-.6-.5-2.4-.5-3,0-8.4,6.8-18.2,10-28.5,12.3-6.3,0-12.7,0-19,0-3.4-.7-6.8-1.3-10.1-2-24.1-5-43.8-16.2-55.9-38.5-.7-1.3-2.7-2.3-4.2-2.7-5.3-1.3-10.8-2-16.1-3.4-36-9.4-55.8-39-50.7-75.8.4-3.1-1.1-4.4-3.3-5.9-12.3-8.8-22.1-19.7-27.7-33.9-2.9-7.3-4.6-15.1-6.9-22.7c0-7,0-14,0-21c.3-.4.8-.8.8-1.2c1.7-13,6.2-25,13-36.3.9-1.5.5-4,0-5.9-2.9-9.5-6.3-18.9-8.9-28.5-2.1-7.9-3.3-16.1-4.9-24.1c0-9.3,0-18.7,0-28c.3-.9.8-1.8.9-2.7c6.4-45.5,29-78.2,73.6-93.7c2.7-.9,5.7-3,7.1-5.4c14.9-25.1,37.1-40.5,64.7-48.5c8.7-2.5,17.8-3.8,26.6-5.7c8,0,16,0,24,0c9.1,2.4,18.4,4.4,25.9,10.7.4.4,1.8.4,2.2,0c7.5-6.4,16.8-8.3,25.9-10.7c8,0,16,0,24,0c1.1.3,2.2.8,3.3.9c37.7,4.7,68.4,20.7,88.6,54.1c1.1,1.8,3.3,3.1,5.2,4c8,3.7,16.5,6.4,24,10.9c26.6,16.2,42.1,40.5,48.9,70.6c1.2,5.1,2,10.3,3,15.5c0,9.3,0,18.7,0,28-.3.4-.8.8-.8,1.2-1.6,18.4-6.8,35.8-13.5,52.9-.5,1.4,0,3.5.7,4.9c2.5,5.4,5.6,10.6,7.7,16.2c2.4,6.6,3.9,13.7,5.9,20.7Z"
        transform="translate(-1.809986 1.583642)"
		 fill="#000"
    />
    <path
        id="brain2-u-rightlobe"
        d="M1033.2,614c-22,18.1-46.5,28.1-75.6,24.1-13.7-1.9-21.3-14.7-15.6-26.7c3.8-8.1,11.3-11.5,22.8-10.1c8.3,1,16.4.1,23.9-3.4c22.8-10.7,39.9-26.5,46.7-52c5.3-19.7,8.2-39.5,3.5-59.6-6.7-28.2-22.9-47.8-52.3-54-10-2.1-16.2-7-20.1-16.3-2.4-5.7-6-11.3-10.3-15.7-19.3-19.8-43.6-25.6-70.3-24.1-4.5.3-8.1,2.5-8.8,7.3-1.2,7.9-3,15.8-3,23.6-.2,119.4-.1,238.9-.1,358.4c0,1.2,0,2.3,0,3.5.4,9.7,7.1,16.8,16.7,17c5.6.1,11.4-.1,16.9-1.3c9.3-1.9,18.3-4.9,24.8-13-.8-.7-1.4-1.3-2-1.7-20.8-15.7-28.2-37.3-26.2-62.4c1.1-14.1,18.2-20.9,29.7-12.5c6.2,4.5,7.5,10.9,8.3,17.9.8,6.3,1.7,13,4.4,18.7c4.2,9,14,13.2,24.5,11.4c13.6-2.3,26.6-5.8,31.9-21c.1-.2,0-.3.1-.5c2.3-9,.8-17.8-1.4-26.6-2.6-10.6.9-18.5,10.4-24c3.7-2.2,7.6-4.1,11.2-6.6c19.2-13.6,21.6-37.8,14.2-54-1.5,1.2-2.9,2.4-4.3,3.6ZM919,492.8c-3-7.4-5.5-15-7.2-22.8-2.3-10,3.6-19.5,12.6-21.9c10.5-2.8,19.5,2.1,23.1,12.6c1.8,5.2,3.1,10.5,5.1,15.6c8.6,22,24.3,31.5,47.7,29.1c15.5-1.6,26.1,10.4,21.6,24.5-2.7,8.3-9.3,11.8-17.4,12.7-3.8.4-7.6.5-10.6.7-34.2,0-62.1-18.9-74.9-50.5Z"
        transform="translate(-2.809986 1.583642)"
         fill="#ffffff"
    />
    <g id="brain2-u-leftlobe_ts" transform="translate(741.553906,582.872186) scale(1,1)">
        <path
            id="brain2-u-leftlobe"
            d="M831.9,406.3c0-7.1-1.7-14.1-2.9-21.2-.9-5.7-4.9-7.8-10.3-8.2-12.6-.7-25,.4-36.9,4.5-20,6.8-36.2,18.1-44,38.9-2.9,7.7-9.4,11.3-17.3,12.6-17.7,3-31.7,12-41.6,26.8-19.5,29.1-16.4,60-6.9,92.1c15.8-8.3,31.8-11.9,48.5-12.1c13.9-.1,27.6,1.4,41,5.3c13.7,4,19,18.6,10.5,29.6-5.7,7.4-13.5,7.7-22.1,6.2-10.4-1.8-21.1-3.6-31.6-3.5-16.4.1-30.8,5.9-41.7,19.1-15.2,18.3-16,46.4-.5,62.7c4.9,5.2,11.5,9,17.7,12.7c7.7,4.6,12.2,10.7,11.1,19.9-.5,4.4-1.6,8.8-2.4,13.2-3.6,19.1,4.2,32,23,37c6.5,1.7,13.4,2.8,20.2,2.9c11.9.1,19,6.8,21.8,16.8c2.6,9.4,8.9,15.9,17.7,19.9c9,4.1,18.6,6.1,28.6,5.8c11.6-.4,18.4-7.3,18.4-19.1-.2-120.7-.1-241.3-.3-361.9ZM778.5,731c-11.2.9-18.6-5.3-20.8-16.8-1.6-8.4-3.1-17.1-6.2-25-6.3-15.8-18.3-26.2-34.2-32.2-6.6-2.5-12.1-5.9-14.6-13.1-4.4-12.8,6.6-26.5,19.9-23.9c15.7,3.1,29,11.4,40.7,22.1c20.1,18.6,29.3,42.3,31.7,67.6c0,12.1-7,20.5-16.5,21.3Zm34.1-276.8c-6.6,26.6-29.7,47.3-56.9,50.8-4.3.6-8.6.9-12.9,1.4-13.1.9-20.3-6.9-21.9-14.8-2.4-11.7,5.5-21.6,17.9-22.6c4.3-.4,8.7-.4,12.9-1.2c12.5-2.5,20.8-9.9,24.5-22.2c2.4-7.8,6.6-13.9,15.2-15.4c14.4-2.7,24.8,9.3,21.2,24Z"
            transform="translate(-748.363892,-582.016632)"
            fill="#f9d117"
        />
    </g>
</svg>
