<?xml version="1.0" encoding="UTF-8" standalone="no"?>
<svg
   xmlns:dc="http://purl.org/dc/elements/1.1/"
   xmlns:cc="http://creativecommons.org/ns#"
   xmlns:rdf="http://www.w3.org/1999/02/22-rdf-syntax-ns#"
   xmlns:svg="http://www.w3.org/2000/svg"
   xmlns="http://www.w3.org/2000/svg"
   xmlns:sodipodi="http://sodipodi.sourceforge.net/DTD/sodipodi-0.dtd"
   xmlns:inkscape="http://www.inkscape.org/namespaces/inkscape"
   id="eckuiflyin61"
   viewBox="0 0 769 769"
   width="500"
   height="500"
   shape-rendering="geometricPrecision"
   text-rendering="geometricPrecision"
   version="1.1"
   sodipodi:docname="pirate.svg"
   inkscape:version="0.92.4 (5da689c313, 2019-01-14)">
  <metadata
     id="metadata25">
    <rdf:RDF>
      <cc:Work
         rdf:about="">
        <dc:format>image/svg+xml</dc:format>
        <dc:type
           rdf:resource="http://purl.org/dc/dcmitype/StillImage" />
        <dc:title></dc:title>
      </cc:Work>
    </rdf:RDF>
  </metadata>
  <defs
     id="defs23" />
  <sodipodi:namedview
     pagecolor="#ffffff"
     bordercolor="#666666"
     borderopacity="1"
     objecttolerance="10"
     gridtolerance="10"
     guidetolerance="10"
     inkscape:pageopacity="0"
     inkscape:pageshadow="2"
     inkscape:window-width="732"
     inkscape:window-height="480"
     id="namedview21"
     showgrid="false"
     inkscape:zoom="0.30689207"
     inkscape:cx="384.5"
     inkscape:cy="384.5"
     inkscape:window-x="0"
     inkscape:window-y="0"
     inkscape:window-maximized="0"
     inkscape:current-layer="eckuiflyin61" />
  <style
     id="style2"><![CDATA[#eckuiflyin61{pointer-events: all} #eckuiflyin61:hover * {animation-play-state: running !important}#eckuiflyin63_to {animation: eckuiflyin63_to__to 3000ms linear infinite normal forwards}@keyframes eckuiflyin63_to__to { 0% {transform: translate(1600px,-800px)} 16.666667% {transform: translate(1600px,-800px)} 23.333333% {transform: translate(800px,0px)} 100% {transform: translate(800px,0px)} }#eckuiflyin63_tr {animation: eckuiflyin63_tr__tr 3000ms linear infinite normal forwards}@keyframes eckuiflyin63_tr__tr { 0% {transform: rotate(0deg)} 86.666667% {transform: rotate(0deg)} 100% {transform: rotate(-180deg)} }#eckuiflyin64_to {animation: eckuiflyin64_to__to 3000ms linear infinite normal forwards}@keyframes eckuiflyin64_to__to { 0% {transform: translate(-800px,-800px)} 30% {transform: translate(-800px,-800px)} 36.666667% {transform: translate(0px,0px)} 100% {transform: translate(0px,0px)} }#eckuiflyin64_tr {animation: eckuiflyin64_tr__tr 3000ms linear infinite normal forwards}@keyframes eckuiflyin64_tr__tr { 0% {transform: rotate(0deg)} 86.666667% {transform: rotate(0deg)} 100% {transform: rotate(180deg)} }#eckuiflyin65_to {animation: eckuiflyin65_to__to 3000ms linear infinite normal forwards}@keyframes eckuiflyin65_to__to { 0% {transform: translate(391.268881px,389.806746px)} 20% {transform: translate(391.268881px,389.806746px)} 23.333333% {transform: translate(391.268881px,400px)} 26.666667% {transform: translate(391.268881px,389.806746px)} 33.333333% {transform: translate(391.268881px,389.806746px)} 36.666667% {transform: translate(391.268881px,400px)} 40% {transform: translate(391.268881px,389.806746px)} 100% {transform: translate(391.268881px,389.806746px)} }#eckuiflyin610_ts {animation: eckuiflyin610_ts__ts 3000ms linear infinite normal forwards}@keyframes eckuiflyin610_ts__ts { 0% {transform: translate(322.862592px,686.351955px) scale(1,1)} 60% {transform: translate(322.862592px,686.351955px) scale(1,1)} 63.333333% {transform: translate(322.862592px,686.351955px) scale(1,0.100000)} 66.666667% {transform: translate(322.862592px,686.351955px) scale(1,0.100000)} 70% {transform: translate(322.862592px,686.351955px) scale(1,1)} 100% {transform: translate(322.862592px,686.351955px) scale(1,1)} }]]></style>
<style type="text/css">
	.st0{fill:url(#SVGID_1_);}
	.st1{display:none;}
	.st2{display:inline;}
	.st3{fill:#FFFFFF;stroke:#01507B;stroke-width:20;stroke-miterlimit:16;}
	.st4{fill:#DDDDDD;}
	.st5{fill:#01507B;}
</style>
<radialGradient id="SVGID_1_" cx="381.802" cy="385.6929" r="383.1984" gradientUnits="userSpaceOnUse">
	<stop  offset="0" style="stop-color:#FFC43D"/>
	<stop  offset="0.0388" style="stop-color:#FCBA3C"/>
	<stop  offset="0.3236" style="stop-color:#E77538"/>
	<stop  offset="0.5292" style="stop-color:#D94A35"/>
	<stop  offset="0.6335" style="stop-color:#D43934"/>
	<stop  offset="0.6579" style="stop-color:#CE3732"/>
	<stop  offset="0.7731" style="stop-color:#B62F2A"/>
	<stop  offset="0.8803" style="stop-color:#A82A26"/>
	<stop  offset="0.971" style="stop-color:#A32824"/>
</radialGradient>
<path class="st0" d="M766,385.78c0,96.16,0,192.32,0,288.49c0,44.08-33.24,84.37-76.66,92.62c-6.42,1.22-13.05,1.92-19.58,1.92
	c-191.68,0.1-383.36,0.08-575.04,0.08c-46.99,0-88-36.04-94.16-82.8c-0.54-4.13-0.91-8.31-0.91-12.47
	C-0.4,481.45-0.4,289.29-0.4,97.13c0-44.09,33.26-84.39,76.66-92.63c6.42-1.22,13.05-1.92,19.58-1.92
	C287.68,2.48,479.52,2.5,671.37,2.5c44.09,0,84.44,33.3,92.63,76.66c1.21,6.42,1.91,13.05,1.92,19.58
	C766.03,194.42,766,290.1,766,385.78z"/>
  <g
     id="eckuiflyin63_to"
     transform="translate(1600,-800)">
    <g
       id="eckuiflyin63_tr"
       transform="rotate(0)">
      <path
         id="eckuiflyin63"
         d="M343.010000,618.130000C344.170000,616.830000,345.330000,615.530000,346.850000,613.830000C344.780000,611.880000,342.700000,609.990000,340.700000,608.020000C337.420000,604.770000,337.310000,600.680000,340.370000,597.660000C343.240000,594.820000,347.510000,594.980000,350.630000,598.080000C354.390000,601.810000,358.120000,605.560000,362.130000,609.580000C366.860000,604.760000,371.480000,600.050000,376.110000,595.350000C377.540000,593.900000,378.950000,592.440000,380.410000,591.020000C383.540000,587.990000,387.840000,587.900000,390.670000,590.780000C393.500000,593.660000,393.370000,597.930000,390.280000,601.040000C384.800000,606.550000,379.300000,612.040000,373.790000,617.520000C373.230000,618.080000,372.530000,618.500000,371.690000,619.140000C375.860000,623.300000,379.720000,627.100000,383.510000,630.970000C386.440000,633.960000,386.460000,638.280000,383.640000,641.070000C380.830000,643.850000,376.750000,643.960000,373.900000,641.210000C371.870000,639.250000,369.990000,637.140000,367.860000,634.920000C364.750000,638.240000,361.850000,641.250000,307.785000,694.430000C253.720000,747.610000,236.730000,753.400000,218.030000,756.230000C229.130000,743.970000,239.850000,732.110000,290.275000,676.405000C340.700000,620.700000,341.860000,619.420000,343.010000,618.130000Z"
         transform="scale(4,4) translate(-410,-580)"
         fill="#ffffff"
         stroke="none"
         stroke-width="1" />
    </g>
  </g>
  <g
     id="eckuiflyin64_to"
     transform="translate(-800,-800)">
    <g
       id="eckuiflyin64_tr"
       transform="rotate(0)">
      <path
         id="eckuiflyin64"
         d="M257.070000,613.890000C259.680000,616.800000,261.950000,619.330000,307.760000,669.690000C353.570000,720.049990,354.050000,721.119990,354.530000,721.649990C359.120000,726.799990,363.780000,731.879990,368.400000,736.989990C374.050000,743.219990,379.680000,749.459990,385.360000,755.739990C382.600000,756.339990,369.260000,753.129990,359.100000,749.619990C350.470000,746.639990,342.390000,742.549990,291.910000,691.695000C241.430000,640.840000,238.920000,638.010000,236.010000,634.880000C234.100000,636.890000,232.310000,638.870000,230.430000,640.750000C227.280000,643.920000,223.200000,644.010000,220.220000,641.050000C217.350000,638.200000,217.460000,633.880000,220.520000,630.790000C224.250000,627.030000,228.030000,623.310000,232.230000,619.130000C228.730000,615.790000,225.300000,612.560000,221.930000,609.290000C219.220000,606.660000,216.570000,603.970000,213.880000,601.320000C210.550000,598.030000,210.280000,593.720000,213.230000,590.750000C216.180000,587.780000,220.520000,588.030000,223.810000,591.330000C229.350000,596.890000,234.900000,602.430000,240.450000,607.970000C240.900000,608.420000,241.400000,608.840000,241.980000,609.370000C245.850000,605.490000,249.600000,601.650000,253.440000,597.890000C257.670000,593.750000,264.070000,595.510000,265.520000,601.210000C266.150000,603.660000,265.370000,605.810000,263.620000,607.570000C261.540000,609.670000,259.360000,611.690000,257.070000,613.890000Z"
         transform="scale(4,4) translate(-200,-580)"
         fill="#fff"
         stroke="none"
         stroke-width="1" />
    </g>
  </g>
  <g
     id="eckuiflyin65_to"
     transform="translate(391.268881,389.806746)">
    <g
       id="eckuiflyin65"
       transform="scale(4,4) translate(-309.666481,-678.704346)">
      <path
         id="eckuiflyin66"
         d="M337.249300,624.067840C359.414300,643.747840,359.524300,644.837840,359.794300,645.437840C362.394300,651.347840,364.324300,657.427840,365.004300,663.877840C365.074300,664.487840,365.554300,665.187840,366.044300,665.597840C373.264300,671.547840,377.924300,679.007840,379.214300,688.327830C379.714300,691.977830,379.904300,695.887830,377.784300,699.117830C373.614300,705.457830,371.234300,712.147830,372.624300,719.907830L371.964300,720.267830C367.414300,716.807830,362.854300,713.357830,358.544300,710.087830C357.224300,712.787830,355.744300,715.607830,344.084300,728.497830C332.424300,741.387830,328.874300,745.147830,323.674300,746.837830C321.514300,747.537830,319.184300,748.037830,316.914300,748.067830C307.684300,748.207830,298.454300,748.057830,289.234300,748.147830C281.104300,748.227830,275.124300,744.597830,261.244300,729.472830C247.364300,714.347830,246.274300,708.817830,246.864300,702.937830C247.234300,699.257830,245.254300,696.407830,244.044300,693.297830C240.724300,684.717840,239.334300,675.847840,239.924300,666.717840C240.394300,659.387840,242.124300,652.307840,245.324300,645.647840C245.964300,644.327840,245.854300,643.537840,267.939300,623.922840C290.024300,604.307840,315.084300,604.387840,337.249300,624.067840Z"
         fill="#fff"
         stroke="none"
         stroke-width="1" />
      <path
         id="eckuiflyin67"
         d="M253.740000,665.560000C285.940000,665.560000,318.010000,665.560000,350.150000,665.560000C351.590000,674.370000,350.660000,682.910000,346.950000,690.800000C344.530000,695.960000,343.450000,701.030000,343.770000,706.620000C343.950000,709.700000,342.750000,712.340000,339.640000,713.570000C338.530000,714.010000,337.260000,714.230000,336.060000,714.250000C331.780000,714.330000,327.500000,714.280000,322.890000,714.280000C322.890000,717.520000,322.930000,720.680000,322.880000,723.840000C322.850000,725.790000,322.930000,727.780000,322.540000,729.660000C321.800000,733.250000,319.450000,735.150000,315.780000,735.170000C306.560000,735.240000,297.330000,735.260000,288.110000,735.170000C283.830000,735.130000,281.070000,732.120000,281.020000,727.740000C280.980000,723.330000,281.010000,718.920000,281.010000,714.270000C276.630000,714.270000,272.450000,714.270000,268.260000,714.270000C262.860000,714.260000,259.900000,711.510000,260.140000,706.150000C260.380000,700.850000,259.440000,696.040000,257.120000,691.150000C253.320000,683.210000,252.460000,674.570000,253.740000,665.560000Z"
         fill="#c93530"
         stroke="none"
         stroke-width="1" />
      <path
         id="eckuiflyin68"
         d="M342.470000,645.520000C315.460000,634.630000,288.550000,634.580000,261.730000,645.620000C268.260000,634.440000,282.600000,624.150000,300.200000,623.700000C318.070000,623.250000,332.280000,630.700000,342.470000,645.520000Z"
         fill="#c93530"
         stroke="none"
         stroke-width="1" />
      <path
         id="eckuiflyin69"
         d="M308.820000,707.470000C304.130000,707.470000,299.610000,707.470000,295.150000,707.470000C295.150000,712.140000,295.150000,716.660000,295.150000,721.130000C299.790000,721.130000,304.260000,721.130000,308.820000,721.130000C308.820000,716.560000,308.820000,712.100000,308.820000,707.470000Z"
         fill="#fff"
         stroke="none"
         stroke-width="1" />
      <g
         id="eckuiflyin610_ts"
         transform="translate(322.862592,686.351955) scale(1,1)">
        <path
           id="eckuiflyin610"
           d="M322.870000,700.330000C330.670000,700.330000,336.640000,694.270000,336.870000,686.560000C337.090000,679,330.410000,672.420000,323,672.360000C315.410000,672.300000,308.890000,678.960000,308.850000,686.320000C308.820000,693.840000,315.440000,700.700000,322.870000,700.330000Z"
           transform="translate(-322.862592,-686.351955)"
           fill="#fff"
           stroke="none"
           stroke-width="1" />
      </g>
      <path
         id="eckuiflyin611"
         d="M294.970000,686.420000C294.970000,678.600000,288.930000,672.630000,281.220000,672.400000C273.490000,672.170000,267.060000,679.030000,267,686.250000C266.940000,693.880000,273.630000,700.370000,280.940000,700.410000C288.460000,700.450000,295.320000,693.840000,294.970000,686.420000Z"
         fill="#fff"
         stroke="none"
         stroke-width="1" />
    </g>
  </g>
</svg>
