<?xml version="1.0" encoding="utf-8"?>
<!-- Generator: Adobe Illustrator 27.0.1, SVG Export Plug-In . SVG Version: 6.00 Build 0)  -->
<svg version="1.1"
	 id="elfg01kjal71" text-rendering="geometricPrecision" shape-rendering="geometricPrecision" xmlns:sodipodi="http://sodipodi.sourceforge.net/DTD/sodipodi-0.dtd" xmlns:inkscape="http://www.inkscape.org/namespaces/inkscape" xmlns:svg="http://www.w3.org/2000/svg" xmlns:dc="http://purl.org/dc/elements/1.1/" xmlns:cc="http://creativecommons.org/ns#" xmlns:rdf="http://www.w3.org/1999/02/22-rdf-syntax-ns#"
	 xmlns="http://www.w3.org/2000/svg" xmlns:xlink="http://www.w3.org/1999/xlink" x="0px" y="0px" viewBox="0 0 500 500"
	 style="enable-background:new 0 0 500 500;" xml:space="preserve">
<style type="text/css">
	.st0{fill:#E1F3FD;}
	.st1{fill:#555;}
	.st2{fill:#d90000;}
</style>

    <style>
        <![CDATA[#er0zs9ajx7h85_tr {animation: er0zs9ajx7h85_tr__tr 8000ms linear infinite normal forwards}@keyframes er0zs9ajx7h85_tr__tr { 0% {transform: translate(250.589844px,249.511719px) rotate(0deg)} 30% {transform: translate(250.589844px,249.511719px) rotate(0deg);animation-timing-function: cubic-bezier(0.600000,-0.020000,0.245000,0.985000)} 54% {transform: translate(250.589844px,249.511719px) rotate(360deg)} 100% {transform: translate(250.589844px,249.511719px) rotate(360deg)} } }]]>
    </style>

<g id="elfg01kjal72" transform="matrix(4 0 0 4 -806.00646972499999 -2320.39990236499943)">
	<path id="elfg01kjal73" class="st0" d="M326.5,642.5c0,15.6,0,31.3,0,46.9c0,7.2-5.4,13.7-12.5,15.1c-1,0.2-2.1,0.3-3.2,0.3
		c-31.2,0-62.4,0-93.6,0c-7.6,0-14.3-5.9-15.3-13.5c-0.1-0.7-0.1-1.4-0.1-2c0-31.3,0-62.5,0-93.8c0-7.2,5.4-13.7,12.5-15.1
		c1-0.2,2.1-0.3,3.2-0.3c31.2,0,62.4,0,93.6,0c7.2,0,13.7,5.4,15.1,12.5c0.2,1,0.3,2.1,0.3,3.2C326.5,611.3,326.5,626.9,326.5,642.5
		z"/>
</g>


	<g id="er0zs9ajx7h84">
		<g id="er0zs9ajx7h85_tr" transform="translate(250.589844,249.511719) rotate(0)">
			<g id="er0zs9ajx7h85_ts" transform="scale(1,1)">
				<g id="er0zs9ajx7h85" transform="translate(-250.589844,-249.511719)">
<path class="st1" d="M416.5,86.9c-11.5-4-23.1-8-34.6-12c19.9,17.9,38.1,36.9,53.1,60.9c-21.1-11.4-40.9-22.1-60.7-32.8
	c-0.4,0.6-0.9,1.3-1.3,1.9c12.8,13,26.8,24.9,36.4,42.4c-26.6-17.1-53.4-30.7-82.7-38.7c-14.5-4-29.5-6.4-44.3-9.1
	c-14.6-2.6-29.2-2.7-44.2-1.7c-27.8,1.8-53.4,9.4-77.5,23c-27.9,15.7-45.8,39.5-55.4,69.5c-3.8,11.8-6.8,24.1-7.9,36.4
	c-1,12.1,1.1,24.4,1.6,36.6c0.7,17.8,6.5,34.3,12,51c11,33.3,34.9,55.3,63.3,73.4c21.1,13.5,44.3,21.9,69.5,22
	c44.1,0.2,81.2-16.5,111.7-48.1c32.6-33.8,50.1-75,59.2-120.4c4.7-23.5,5.8-47.3,5.3-71.2c0-1.8,0-3.7,0-5.5
	c0.7-0.2,1.5-0.4,2.2-0.6c5.7,16.7,11.4,33.3,17.6,51.6c0.9-23.1,1.7-44.9,2.5-68.2c13.8,25.6,21.4,52,25.4,79.9
	c1.9-7.3,3.7-14.7,5.6-22c0.6,0,1.1,0,1.7,0c1.2,7.5,2.8,14.9,3.4,22.4c0.9,10.8,1.8,21.6,1.3,32.4c-1.8,37.1-10.8,72.2-29.3,104.8
	c-10.2,17.9-22.3,34.3-36.8,48.8c-15.6,15.6-33.2,28.8-52.7,39.2c-19.6,10.5-40.4,17.9-62.1,21.8c-23.7,4.3-47.5,4.5-71.5,0.8
	c-23.5-3.7-45.9-10.7-67.4-20.4c-19.1-8.6-36.2-20.5-52.2-34.1c-20.3-17.1-36.6-37.6-50.5-60c-14.7-23.6-25-49.2-28.9-76.8
	c-2.4-16.8-4.2-33.9-3.8-50.8c0.6-25.6,6.5-50.3,16.5-74c10.7-25.6,26.6-47.8,44.4-68.8c27.8-32.9,62.9-54.1,104-66.7
	c27-8.3,54.4-10.3,82.1-8.1c35.4,2.8,68.8,13.2,98.6,32.9c15,9.9,28.8,21.5,43.1,32.4c1.6,1.3,2.9,3.1,4.3,4.6
	C417,86.1,416.7,86.5,416.5,86.9z"/>
	
					</g>
			</g>
		</g>
	</g>
	
	
<path class="st2" d="M268.1,113.5c0.8,1.6,1.4,3.3,2.3,4.8c27.3,43.1,54.5,86.1,81.9,129.1c2.1,3.3,2.3,5.6,0.1,9.1
	c-27.5,43.1-54.9,86.3-82.1,129.6c-2.1,3.3-4.1,4.6-8.1,4.5c-24.5-0.2-49-0.1-74.3-0.1c1.1-2,1.9-3.5,2.8-5
	c27.1-42.7,54.1-85.5,81.4-128.2c2.5-3.8,2.7-6.5,0.1-10.5c-27.4-42.9-54.7-86-81.9-129.1c-0.9-1.3-1.5-2.8-2.2-4.3
	C214.7,113.5,241.4,113.5,268.1,113.5z"/>
</svg>
