<svg xmlns="http://www.w3.org/2000/svg" viewBox="0 0 650 650" overflow="hidden" preserveAspectRatio="xMidYMid meet" id="eaf-17385-0"><defs><clipPath id="eaf-17385-1"><rect x="0" y="0" width="650" height="650"></rect></clipPath><style>#eaf-17385-0 * {animation: 10000ms linear infinite normal both running;offset-rotate:0deg}@keyframes eaf-17385-2{0%,100%{transform:matrix(0,1,-1,0,319.9,320)}}@keyframes eaf-17385-3{0%{transform:scale(1,1);animation-timing-function:ease-in-out}50%{transform:scale(0.7,0.7);animation-timing-function:ease-in-out}100%{transform:scale(1,1)}}@keyframes eaf-17385-4{0%,100%{transform:translate(3.7px,-6.5px)}}@keyframes eaf-17385-5{0%,100%{transform:translate(326.4px,324.4px)}}@keyframes eaf-17385-6{0%{transform:rotate(0);animation-timing-function:ease-in-out}35%{transform:rotate(-270deg);animation-timing-function:ease-in-out}70%{transform:rotate(270deg);animation-timing-function:ease-in-out}89%{transform:rotate(-90deg);animation-timing-function:ease-in-out}100%{transform:rotate(0)}}@keyframes eaf-17385-7{0%{transform:scale(1,1)}31%{transform:scale(1,1);animation-timing-function:ease-in-out}41%{transform:scale(1.3,1.3)}65.67%{transform:scale(1.3,1.3);animation-timing-function:ease-in-out}73%{transform:scale(1,1);animation-timing-function:ease-in-out}89%{transform:scale(0.55,0.55);animation-timing-function:ease-in-out}100%{transform:scale(1,1)}}@keyframes eaf-17385-8{0%,100%{transform:translate(-326.4px,-324.4px)}}</style></defs><g clip-path="url('#eaf-17385-1')" style="isolation: isolate;"><g><path fill="#e1f3fd" d="m651.4 325.1c0 81.6 0 163.1 0 244.7c0 37.4 -28.2 71.6 -65 78.6c-5.5 1 -11.1 1.6 -16.6 1.6c-162.6 0 -325.2 0 -487.7 0c-39.9 0 -74.7 -30.6 -79.9 -70.2c-0.5 -3.5 -0.8 -7 -0.8 -10.6c0 -163 0 -326 0 -488.9c0 -37.4 28.2 -71.6 65 -78.6c5.4 -1 11.1 -1.6 16.6 -1.6c162.7 -0.1 325.4 -0.1 488.0999 -0.1c37.4 0 71.6 28.2 78.6 65c1 5.4 1.6 11.1 1.6 16.6c0.1001 81.2 0.1001 162.3 0.1001 243.5l0 0l0 0z"></path><ellipse fill="#555" rx="270" ry="270" transform="matrix(0 1 -1 0 326.4 323.7)" style="animation-name: eaf-17385-2, eaf-17385-3, eaf-17385-4; animation-composition: replace, add, add;"></ellipse><ellipse fill="#f9d84b" rx="71.6934" ry="71.6934" transform="matrix(1 0 0 1 326.4 324.4)"></ellipse><g style="animation-name: eaf-17385-5, eaf-17385-6, eaf-17385-7, eaf-17385-8; animation-composition: replace, add, add, add;"><ellipse fill="#f9d84b" stroke="#555" stroke-width="18" rx="71.6934" ry="71.6934" transform="translate(498.1066 324.4)"></ellipse><ellipse fill="#f9d84b" stroke="#555" stroke-width="18" rx="71.6934" ry="71.6934" transform="translate(154.6935 324.4)"></ellipse></g></g></g></svg>