<svg xmlns="http://www.w3.org/2000/svg" viewBox="0 0 769 769" overflow="hidden" preserveAspectRatio="xMidYMid meet" id="eaf-5b55-0"><defs><clipPath id="eaf-5b55-1"><rect x="0" y="0" width="769" height="769"></rect></clipPath><linearGradient gradientUnits="userSpaceOnUse" x1="165.17" y1="500.725" x2="605.21" y2="500.725" id="eaf-5b55-2"><stop stop-color="#555" offset="0.2756"></stop><stop stop-color="#646566" offset="0.3397"></stop><stop stop-color="#858789" offset="0.4431"></stop><stop stop-color="#797a7c" offset="0.5125"></stop><stop stop-color="#585959" offset="0.6413"></stop><stop stop-color="#555" offset="0.6537"></stop></linearGradient><style>#eaf-5b55-0 * {animation: 8000ms linear infinite normal both running;offset-rotate:0deg}@keyframes eaf-5b55-3{0%,100%{transform:none;offset-path:path("m78.44 -48.1841q458.0672 209.3651 417.8432 767.4648")}}@keyframes eaf-5b55-4{0%,48.34%{offset-distance:0%}63.76%,100%{offset-distance:100%}}@keyframes eaf-5b55-5{0%,48.34%{transform:rotate(97deg)}62.51%,100%{transform:rotate(121deg)}}@keyframes eaf-5b55-6{0%{transform:scale(0.9916,1.1638)}63.76%{transform:scale(1,1);animation-timing-function:cubic-bezier(0,0,0.58,1)}65.84%{transform:scale(0.8779,1.1172)}67.51%,100%{transform:scale(0.8935,1.0453)}}@keyframes eaf-5b55-7{0%,100%{transform:translate(165.1378px,-149.477px)}}@keyframes eaf-5b55-8{0%{opacity:1}87.5%{opacity:1}99.59%,100%{opacity:0}}@keyframes eaf-5b55-9{0%,100%{transform:none;offset-path:path("m623.5414 255.3386l0 0l66.8228 30.3486l0 0l-66.8228 -30.3486")}}@keyframes eaf-5b55-10{0%{offset-distance:0%}28.75%{offset-distance:0%;animation-timing-function:ease-in-out}39.59%{offset-distance:50%}61.66%{offset-distance:50%;animation-timing-function:ease-in-out}72.5%,100%{offset-distance:100%}}@keyframes eaf-5b55-11{0%{transform:rotate(0)}13.34%{transform:rotate(0);animation-timing-function:ease-in-out}34.59%{transform:rotate(69deg)}67.91%{transform:rotate(69deg)}82.5%,100%{transform:rotate(0)}}@keyframes eaf-5b55-12{0%,100%{transform:translate(21.2586px,10.7614px)}}</style></defs><g clip-path="url('#eaf-5b55-1')" style="isolation: isolate;"><g><g><g transform="matrix(4 0 0 4 -887.96 -2344.0063)"><path fill="#e1f3fd" d="m414.2 682.4c0 24.1 0 48.1 0 72.2c0 11 -8.3 21.1 -19.2 23.2c-1.6 0.3 -3.3 0.5 -4.9 0.5c-48 0 -95.9 0 -143.9 0c-11.8 0 -22 -9 -23.6 -20.7c-0.1 -1 -0.2 -2.1 -0.2 -3.1c0 -48.1 0 -96.2 0 -144.3c0 -11 8.3 -21.1 19.2 -23.2c1.6 -0.3 3.3 -0.5 4.9 -0.5c48 0 96 0 144 0c11 0 21.1 8.3 23.2 19.2c0.3 1.6 0.5 3.3 0.5 4.9c0 23.8999 0 47.7999 0 71.7999z"></path></g></g><g transform="matrix(-0.1208 0.9842 -1.1551 -0.1418 231.1431 135.549)" style="animation-name: eaf-5b55-3, eaf-5b55-4, eaf-5b55-5, eaf-5b55-6, eaf-5b55-7, eaf-5b55-8; animation-composition: replace, add, add, add, add, replace;"><path fill="#f6c34d" stroke="#555" stroke-width="22" stroke-miterlimit="10" d="m-345.2 184.8c-14.2 0.6 -26.9 8.7 -33.6 21.2l-48.4 91.8c-6.6 12.6 -6 27.7 1.5 39.7l16.2 25.7c0 0 0 0 0 0l30.2 48c0 0 0 0 0 0l8.6 13.7c7.6 12 21 19.1 35.3 18.5l103.3 -4.2c14.2 -0.6 26.9 -8.7 33.6 -21.2l92.2 -89.5c6.6 -12.6 41.2 -50 33.7 -62l-111.4 -137.5c-7.6 -12 -21 -19.1 -35.3 -18.5l-125.9 74.3z"></path><path fill="#f6c34d" stroke="#555" stroke-width="22" stroke-miterlimit="10" d="m-432.5 354l-90.3 23.7c-14.6 3.8 -20.5 21.4 -11.2 33.3l80.1 102.1c9.4 12 28.1 10.3 35.2 -3.3l40.5 -77.8c3.4 -6.6 3.1 -14.6 -0.9 -20.9l-30.2 -48c-5 -7.7 -14.3 -11.4 -23.2 -9.1z"></path></g><g transform="translate(644.8 266.1)" style="animation-name: eaf-5b55-9, eaf-5b55-10, eaf-5b55-11, eaf-5b55-12; animation-composition: replace, add, add, add;"><g><path fill="#555" d="m-479.6 -16c0 -12.3 0 -24.5 0 -36.7c0 -29.6 24 -53.6 53.6 -53.7c18.7 0 37.4 0 56.4 -0.1c0 -16 0 -31.9 0 -47.8c0 -26 21.1 -47.1 47.1 -47.1c47.3 0 94.5 -0.1 142.1 -0.1c20.4 0 37 16.5 37 36.9c0 19.2 0.1 38.5 0.1 58c14.3 0 28.5 0 42.7 0c33.5 0 60.8 27.2 60.8 60.7c0 9.8 0 19.6 0 29.6c-146.7 0.2 -292.9 0.2 -439.8 0.3zm156.2 -90.4c45.1 0 89.2 -0.1 134 -0.1c0 -16.5 0 -32.3 0 -48.9c-44.8 0 -89.2 0.1 -134 0.1c-0.1 16.5 0 32.1 0 48.9z"></path></g></g><path fill="url('#eaf-5b55-2')" d="m579.2 735.8c0 -156.8 26 -313.6 26 -470.5c0 -3.4 0 -6.9 0 -10.2l-440 0c0 3.5 0 6.5 0 9.5c0 157.6 26.3 315.3 26.3 472.9l0 0c0 4.9 4 8.8 8.8 8.8l368.7 0c5.7 0 10.2 -4.7 10.2 -10.4c0 0.0001 0 0.0001 0 -0.1zm-307.9 -57.4l0 0c-6.4 0 -11.6 -4.9 -12 -11.3l-22.3 -344.5l66 0l-21.1 345.8c-0.3 5.6 -5 10 -10.6 10zm117.7 0l0 0c-8.3 0 -15 -6.5 -15.3 -14.8l-12.7 -341.4l55 0l-19.8 349.5c-0.3 3.8 -3.4 6.7 -7.2 6.7zm121 0l0 0c-11.6 0 -21.1 -9.2 -21.5 -20.8l-11.5 -335.3l54 0l-21 356.1z"></path></g></g></svg>