<svg xmlns="http://www.w3.org/2000/svg" viewBox="0 0 500 500" overflow="hidden" preserveAspectRatio="xMidYMid meet" id="eaf-1cf3-0"><defs><clipPath id="eaf-1cf3-1"><rect x="0" y="0" width="500" height="500"></rect></clipPath><style>#eaf-1cf3-0 * {animation: 3000ms linear infinite normal both running;offset-rotate:0deg}@keyframes eaf-1cf3-2{0%,100%{transform:translate(250.12px,250px)}}@keyframes eaf-1cf3-3{0%{transform:scale(1,1)}8.9%{transform:scale(1,1);animation-timing-function:ease-in-out}22.23%{transform:scale(0.4851,0.7823)}34.43%{transform:scale(0.4851,0.7823);animation-timing-function:ease-in-out}42.2%,100%{transform:scale(1,1)}}@keyframes eaf-1cf3-4{0%,100%{transform:translate(-252.05px,-255.725px)}}@keyframes eaf-1cf3-5{0%,100%{transform:translate(250.12px,249.8474px)}}@keyframes eaf-1cf3-6{0%{transform:scale(0,0.2826)}18.9%{transform:scale(0,0.2826);animation-timing-function:step-start}24.43%{transform:scale(0.95,0.2826)}33.33%{transform:scale(0.95,0.2826);animation-timing-function:step-start}37.77%,100%{transform:scale(0,0.2826)}}@keyframes eaf-1cf3-7{0%,100%{transform:translateX(0px)}}</style></defs><g clip-path="url('#eaf-1cf3-1')" style="isolation: isolate;"><g><g transform="matrix(4 0 0 4 -827.28 -2255.6001)"><path fill="#e1f3fd" d="m331.7 626.3c0 15.6 0 31.3 0 46.9c0 7.2 -5.4 13.7 -12.5 15.1c-1 0.2 -2.1 0.3 -3.2 0.3c-31.2 0 -62.4 0 -93.6 0c-7.6 0 -14.3 -5.9 -15.3 -13.5c-0.1 -0.7 -0.1 -1.4 -0.1 -2c0 -31.3 0 -62.5 0 -93.8c0 -7.2 5.4 -13.7 12.5 -15.1c1 -0.2 2.1 -0.3 3.2 -0.3c31.2 0 62.4 0 93.6 0c7.2 0 13.7 5.4 15.1 12.5c0.2 1 0.3 2.1 0.3 3.2c0 15.6 0 31.1 0 46.7z"></path></g><g transform="translate(-1.93 -5.725)" style="animation-name: eaf-1cf3-2, eaf-1cf3-3, eaf-1cf3-4; animation-composition: replace, add, add;"><path fill="#c90606" d="m480.9 238.8l-114.5 -122.3c-27.1 -28.9 -71 -28.9 -98.1 0l-16.3 17.5l-16.3 -17.5c-27.1 -28.9 -71 -28.9 -98.1 0l-114.4 122.3c115.6 0 113.3 -20 228.8 -20c115.5 0 113.3 20 228.9 20z"></path><path fill="#c90606" d="m252 292.8c-115.6 0 -113.3 -54.1 -228.8 -54.1l122.6 130.9c58.7 62.7 153.8 62.7 212.5 0c0 0 0 0 0 0l122.6 -130.9c-115.6 0.1 -113.3 54.1 -228.9 54.1z"></path></g><ellipse fill="none" stroke="#c90606" stroke-width="60" rx="78.4945" ry="78.4945" transform="matrix(0 0 0 0.2826 250.12 249.8474)" style="animation-name: eaf-1cf3-5, eaf-1cf3-6, eaf-1cf3-7; animation-composition: replace, add, add;"></ellipse></g></g></svg>