<svg xmlns="http://www.w3.org/2000/svg" viewBox="0 0 650 650" overflow="hidden" preserveAspectRatio="xMidYMid meet" id="eaf-150da-0"><defs><clipPath id="eaf-150da-1"><rect x="0" y="0" width="650" height="650"></rect></clipPath><style>#eaf-150da-0 * {animation: 9000ms linear infinite normal both running;offset-rotate:0deg}@keyframes eaf-150da-2{0%,100%{transform:none;offset-path:path("m329.85 172.6884l0 166.388l0 130.7334l0 0l0 -297.1214l0 0")}}@keyframes eaf-150da-3{0%{offset-distance:0%;animation-timing-function:ease-in-out}27.78%{offset-distance:28%;animation-timing-function:ease-in-out}55.56%{offset-distance:50%}67.41%{offset-distance:50%;animation-timing-function:ease-in-out}72.97%,100%{offset-distance:100%}}@keyframes eaf-150da-4{0%{transform:scale(0.9681,1);animation-timing-function:ease-in-out}20.37%{transform:scale(0.9846,1);animation-timing-function:ease-in-out}27.78%{transform:scale(0.9496,1);animation-timing-function:ease-in-out}45.92%{transform:scale(0.8337,1);animation-timing-function:ease-in-out}55.56%{transform:scale(0.8642,1)}69.63%{transform:scale(0.8642,1);animation-timing-function:ease-in-out}72.97%{transform:scale(0.9703,1);animation-timing-function:ease-in-out}100%{transform:scale(0.9681,1)}}@keyframes eaf-150da-5{0%,100%{transform:translate(-329.85px,-172.6884px)}}@keyframes eaf-150da-6{0%,100%{transform:translate(329.4px,532.8px)}}@keyframes eaf-150da-7{0%{transform:scale(1,1);animation-timing-function:ease-in-out}27.78%{transform:scale(0.9217,0.494);animation-timing-function:ease-in-out}55.56%{transform:scale(0.8701,0.1601)}67.41%{transform:scale(0.8701,0.1601);animation-timing-function:ease-in-out}72.97%,100%{transform:scale(1,1)}}@keyframes eaf-150da-8{0%,100%{transform:translate(-329.4px,-532.8px)}}@keyframes eaf-150da-9{0%,100%{transform:none;offset-path:path("m379.25 320.7l-98.25 -25.6846l-41.9616 16.4521l80.47 96.8952l16.9898 9.9187l0 0l42.7519 -97.5814l-71.1999 -17.8001l71.1999 17.8001")}}@keyframes eaf-150da-10{0%{offset-distance:0%;animation-timing-function:ease-in-out}13.33%{offset-distance:18.614%;animation-timing-function:ease-in-out}24.44%{offset-distance:26.8754%;animation-timing-function:ease-in-out}62.96%{offset-distance:49.962%;animation-timing-function:ease-in-out}64.81%{offset-distance:53.568%}67.78%{offset-distance:53.568%;animation-timing-function:ease-in-out}74.81%{offset-distance:73.0955%;animation-timing-function:ease-in-out}88.52%{offset-distance:86.5477%;animation-timing-function:ease-in-out}100%{offset-distance:100%}}@keyframes eaf-150da-11{0%{transform:rotate(12deg);animation-timing-function:ease-in-out}17.03%{transform:rotate(-12deg)}58.51%{transform:rotate(-12deg);animation-timing-function:ease-in-out}62.96%{transform:rotate(-28deg);animation-timing-function:ease-in-out}64.81%{transform:rotate(-1deg)}67.78%{transform:rotate(-1deg);animation-timing-function:ease-in-out}74.81%{transform:rotate(12deg);animation-timing-function:ease-in-out}88.14%{transform:rotate(-29deg);animation-timing-function:ease-in-out}100%{transform:rotate(12deg)}}@keyframes eaf-150da-12{0%,100%{transform:translate(-0.05px,47.1px)}}@keyframes eaf-150da-13{0%,100%{transform:none;offset-path:path("m233.5787 294.105l15.7052 101.945l62.7636 31.4203l-35.3862 -4.7406l-1.8614 6.0702l-31.3579 -26.0324l-9.8633 -108.6626")}}@keyframes eaf-150da-14{0%{offset-distance:0%;animation-timing-function:ease-in-out}10%{offset-distance:28.2401%;animation-timing-function:ease-in-out}15.19%{offset-distance:47.4566%;animation-timing-function:ease-in-out}22.22%{offset-distance:57.2313%;animation-timing-function:ease-in-out}38.52%{offset-distance:58.9696%;animation-timing-function:ease-in-out}64.44%{offset-distance:70.1277%;animation-timing-function:ease-in-out}77.78%,100%{offset-distance:100%}}@keyframes eaf-150da-15{0%{transform:rotate(0);animation-timing-function:ease-in-out}10%{transform:rotate(-43deg)}32.97%{transform:rotate(-43deg);animation-timing-function:ease-in-out}38.52%{transform:rotate(-32deg);animation-timing-function:ease-in-out}77.78%{transform:rotate(0);animation-timing-function:ease-in-out}100%{transform:rotate(180deg)}}@keyframes eaf-150da-16{0%,100%{transform:translate(8.7px,30.9px)}}@keyframes eaf-150da-17{0%,100%{transform:none;offset-path:path("m425.1288 406.905l-19.1378 -50.364l-11.3303 54.5029l27.1272 -63.6257l3.3409 59.4868")}}@keyframes eaf-150da-18{0%{offset-distance:0%;animation-timing-function:ease-in-out}5.19%{offset-distance:22.6097%;animation-timing-function:ease-in-out}19.63%{offset-distance:45.9709%;animation-timing-function:ease-in-out}24.44%{offset-distance:74.997%;animation-timing-function:ease-in-out}77.78%,100%{offset-distance:100%}}@keyframes eaf-150da-19{0%{transform:rotate(0);animation-timing-function:ease-in-out}5.19%{transform:rotate(31deg);animation-timing-function:ease-in-out}19.63%{transform:rotate(9deg);animation-timing-function:ease-in-out}77.78%{transform:rotate(0);animation-timing-function:ease-in-out}87.41%{transform:rotate(47deg);animation-timing-function:ease-in-out}100%{transform:rotate(0)}}@keyframes eaf-150da-20{0%,100%{transform:translate(-182.85px,-81.9px)}}</style></defs><g clip-path="url('#eaf-150da-1')" style="isolation: isolate;"><g><path fill="#e0f2fb" d="m650 325.1c0 81.6 0 163.1 0 244.7c0 37.4 -28.2 71.6 -65 78.6c-5.5 1 -11.1 1.6 -16.6 1.6c-162.6 0.0001 -325.2 0.0001 -487.7 0.0001c-39.9 0 -74.7 -30.6 -79.9 -70.2c-0.5 -3.5 -0.8 -7 -0.8 -10.6c0 -163 0 -326 0 -488.9c0 -37.4 28.2 -71.6 65 -78.6c5.4 -1 11.1 -1.6 16.6 -1.6c162.7 -0.1 325.4 -0.1 488.1 -0.1c37.4 0 71.6 28.2 78.6 65c1 5.4 1.6 11.1 1.6 16.6c0.1 81.2 0.1 162.3 0.1 243.5l0 0z"></path><path fill="#d3a02a" d="m107.3 162.9l1.5 15l0.6 5.7l0.1 0.9l0.1 0.4l0 0.1l0.1 0.1l0 0.1l1.7 1.5l1.9 1.6l2.1 1.5l2.2 1.4l2.4 1.5l2.6 1.4c8.4 4.5 17.5 7.8 26.7 10.7l4 1.3l4.2 1.2l4.3 1.1c33.8 8.8 69.8 13.1 104.8 15.5l6.5 0.4l6.6 0.4l6.6 0.3l6.7 0.3c29.4 1.1 59.2 0.9 88.6 -0.9l6.5 -0.4l6.4 -0.4l6.3 -0.5c15.8 -1.3 31.3 -3 47 -5.3l5.4 -0.9l5.3 -0.9c27.6 -4.7 55 -11.5 82.4 -17.4l4.8 -1.1l0.6 -0.1l0.3 -0.1l0.1 -0.1l0 -0.3l0.1 -0.4l0.5 -3.8l0.9 -7.6l3.7 -30.4l0.5 -3.8l0 -0.1l-0.1 -0.1l-0.2 0l-0.3 -0.1l-0.6 -0.2l-2.4 -0.6l-4.7 -1.2c-26 -6.1 -51.5 -13.1 -77.8 -18l-5.4 -0.9l-5.5 -0.9l-5.6 -0.9c-40.1 -6.1 -81.1 -8.4 -121.7 -8.5l-3.4 0c-40.6 0.2 -81.5 2.7 -121.6 9l-5.6 0.9l-5.5 0.9l-5.3 1c-12.8 2.5 -25.2 5.3 -37.7 9.2l-4 1.3l-3.8 1.3c-8.5 3.1 -17.1 6.6 -24.5 11.6l-2.2 1.5l-2.1 1.6l-1.9 1.6l-1.6 1.6l-1.5999 2l0 0z" transform="matrix(0.9681 0 0 1 10.5231 0)" style="animation-name: eaf-150da-2, eaf-150da-3, eaf-150da-4, eaf-150da-5; animation-composition: replace, add, add, add;"></path><path fill="#f3b81e" stroke="#000" stroke-width="0.1576" stroke-linecap="round" stroke-linejoin="round" d="m545.7 182.6l-12.9 161.8l-6.5 80.9l-1.6 20.3l-0.9 10.1l-0.4 5.1l-0.2 2.5l-0.1 1.3l-0.1 0.6l-0.3 0.5l-4.5 6.5l-4.6 6.3l-4.8 6.1l-5 5.8l-5.2 5.6c-14.9 15.5 -31.1 27.6 -48.3 36.8l-6.9 3.6l-7.1 3.3l-7.3 3.1c-53.5 21.6 -115.1 24.7 -169.8 11.5l-7.9 -2.1l-7.7 -2.3l-7.6 -2.6l-7.4 -2.8c-25.4 -10.2 -50.5 -25 -70.9 -49.7l-2.3 -2.9l-2.2 -2.9l-2.2 -3c-5.4 -7.8 -10.3 -16.9 -14.1 -26.5l-1.4 -3.6l-1.3 -3.7l-1.2 -3.7l-1 -3.8l-0.1 -0.6l-0.1 -0.6l-0.1 -1.2l-0.2 -2.6l-0.3 -4.9l-0.7 -10.1l-1.3 -20l-2.7 -40l-10.7 -160.2l-2.6 -40l-0.1 -0.2l0.1 0.1l0 0.1l0.1 0.1l0.1 0.3l0.4 0.5c10.5 14.7 28.5 24.4 42.2 30.5l3.6 1.6l3.7 1.6c25.5 10.2 51.9 16.3 78.2 20.4l5.4 0.9l5.4 0.8l5.4 0.7c78.4 8.9 161.1 4.9 237.8 -22.1l16.6 -5.6l33.6 -11.6l0 0z" style="animation-name: eaf-150da-6, eaf-150da-7, eaf-150da-8; animation-composition: replace, add, add;"></path><g transform="matrix(0.9781 0.2079 -0.2079 0.9781 369.4084 366.7603)" style="animation-name: eaf-150da-9, eaf-150da-10, eaf-150da-11, eaf-150da-12; animation-composition: replace, add, add, add;"><g><path fill="#f8f8f8" fill-opacity="0.2" stroke="#555" stroke-width="18.1248" stroke-linecap="round" stroke-linejoin="round" d="m49 42.6l-97.9 0c-22.4 0 -40.8 -18.4 -40.8 -40.8l0 -97.8c0 -22.4 18.4 -40.8 40.8 -40.8l97.9 0c22.4 0 40.8 18.4 40.8 40.8l0 97.9c-0.1 22.4 -18.4 40.7 -40.8 40.7z"></path></g></g><g transform="translate(242.2788 325.005)" style="animation-name: eaf-150da-13, eaf-150da-14, eaf-150da-15, eaf-150da-16; animation-composition: replace, add, add, add;"><path fill="#fafafa" fill-opacity="0.3" stroke="#555" stroke-width="18.488" stroke-linecap="round" stroke-linejoin="round" d="m75.2 -1.5l-54.5 54.5c-16.2 16.2 -42.6 16.2 -58.8 0l-54.5 -54.5c-16.2 -16.2 -16.2 -42.6 0 -58.8l54.5 -54.5c16.2 -16.2 42.6 -16.2 58.8 0l54.5 54.5c16.2 16.1 16.2 42.6 0 58.8z"></path></g><g transform="translate(242.2787 325.005)" opacity="0.71" style="animation-name: eaf-150da-17, eaf-150da-18, eaf-150da-19, eaf-150da-20; animation-composition: replace, add, add, add;"><path fill="#fafafa" fill-opacity="0.3" stroke="#555" stroke-width="17.8225" stroke-linecap="round" stroke-linejoin="round" d="m266.5 63.2l-16.8 72.4c-5 21.5 -26.6 35 -48.1 30l-72.4 -16.8c-21.5 -5 -35 -26.7 -30 -48.1l16.8 -72.5c5 -21.5 26.6 -35 48.1 -30l72.4 16.8c21.5 5 35 26.7 30 48.2z"></path></g><path fill="#555" d="m570.4 105.8l-0.1 -1.9l-0.3 -1.9l-0.4 -1.8l-0.5 -1.8c-11.4 -38.6 -85.9 -55.3 -120.7 -61.6l-6.7 -1.1l-6.9 -1.1l-7 -1l-7.1 -0.9c-30.2 -3.9 -60.6 -5.5 -91.1 -5.6l-0.1 0l-8.2 0.1l-8.2 0.1l-8.1 0.2c-34.4 1 -69 4.4 -102.8 10.9l-6.4 1.3l-6.3 1.4c-16.1 3.7 -32.3 8.2 -47.7 14.3l-4.7 1.9l-4.5 2l-4.3 2c-19.1 9.4 -41.9 25.8 -39.4 50l0.1 0.8l0 0.2l-0.2 0l0 0.1c15 154.4 29.9 308.9 44.9 463.3l0 0.1l0.1 0l0 0.1c2.1 40.2 94.6 53.4 123.6 56.6l5.7 0.7l5.8 0.5l5.9 0.5l5.9 0.5c27.1 1.8 54.2 2 81.3 0.4l6.1 -0.4l5.9 -0.5c24.8 -2 49.7 -5.5 73.8 -11.6l4.4 -1.2l1.1 -0.3l0.2 -0.1l0.1 0c15.1 -4.3 30.3 -9.5 43.4 -18.4l2.6 -1.9l2.5 -2c6.7 -5.6 11.9 -12.6 13 -21.5l0.1 -0.8l0.1 -0.4l0 -0.1l0.1 0l0 -0.2c16.8001 -145.7 33.6001 -291.8 50.6001 -437.7l0.1 -1.3l0.1 -1.1l0.2 -1.1l0.1 -1c0.3 -3.3 0.7 -6.6 1.1 -9.8l0.1 -1.4l0.1 -0.5l0.1 -0.5l0.1 -0.2l0 -0.1l0.1 -0.2l0.8 -2.1l0.6 -2.2l0.5 -2.2l0.3 -2.3l0.2 -2.3c0.0002 -1.4 0.0002 -2.6 -0.0997 -3.9l0 0zm-31.7 52.7l-0.1 0.2l-0.1 1.1c-11.4 99.3 -22.9 198.5 -34.4 297.8l0 0.1l-0.1 0.1c-11.6 12.2 -25.2 22.4 -39.9 30.5l-3.5 1.9l-3.7 1.9l-3.7 1.7c-43 20.1 -95.9 26.5 -142.9 25l-5 -0.2l-4.9 -0.2l-9.8 -0.7c-38.9 -3.6 -82.7 -13.2 -114.9 -36.4l-3 -2.3l-1.4 -1.1c-6 -5 -11.4 -10.3 -16.1 -16.6l-1 -1.4l-1 -1.4l-0.9 -1.4c-1.6 -2.5 -2.9 -4.7 -4.1 -7.4l-0.7 -1.5l-0.7 -1.6c-0.6 -2 -0.9 -1.6 -1 -3.4l-0.2 -2.1l-0.4 -4.1l-0.8 -8.2l-1.6 -16.5l-25.6 -264.1l0 -0.1l2.2 1.3l2.2 1.3l2.3 1.3c12.9 7 26.9 12 40.9 16.3l0.2 0.1l3.6 1.1c28 7.9 56.7 12.6 85.6 15.7l4.8 0.5l9.8 0.8l4.9 0.4c31 2.3 62.6 2.6 93.7 1.1l7.2 -0.4l7.1 -0.5l7 -0.5c17.7 -1.4 35.4 -3.4 53 -6.4l3.1 -0.5l3.1 -0.5c13.6 -2.3 27.1 -5.4 40.6 -8.6l44.6 -10.7l5.6 -1.4l0.2 0l0 0l-0.2 0zm6.9 -48.8c-3 12 -24.6 22.3 -34.7 26.5l-2.5 1l-2.6 1c-37.4 14.2 -80.6 20.3 -120 23.6l-8.8 0.6l-8.9 0.5l-9.1 0.4l-9.2 0.3l-9.3 0.2l-9.4 0.1c-53.4 -0.2 -111.6 -4.9 -162.9 -20.6l-2.9 -0.9l-2.9 -1c-14.5 -5.1 -38.3 -14.2 -47 -27.8l-0.5 -0.8l-0.4 -0.7l-0.3 -0.8l-0.2 -0.7c-3.9 -11 17.7 -23.3 25.1 -26.8l2.2 -1.1l2.2 -1c37.8 -16.7 79.3 -22.7 120.1 -27l8.6 -0.7l8.8 -0.7l8.9 -0.5l9.1 -0.4l9.2 -0.3c7.1 -0.3 14.3 -0.3 21.4 -0.3l0.1 0l9.4 0.1l9.3 0.2l9.2 0.2l9.1 0.4c44.7 2.5 93.6 8.3 136.1 23.6l2.6 1l2.5 1c10.7 4.3 33.5 14.7 37.4 26.9l0.2 0.7l0.2 1.3l0.1 1.2l-0.2 1.3z"></path></g></g></svg>