<svg id="cooking-icon-animated" xmlns="http://www.w3.org/2000/svg" xmlns:xlink="http://www.w3.org/1999/xlink" viewBox="0 0 528.04 528.03" shape-rendering="geometricPrecision" text-rendering="geometricPrecision">
    <style>
        <![CDATA[
        #cooking-icon-animated-s-g1_to {animation: cooking-icon-animated-s-g1_to__to 3000ms linear infinite normal forwards}@keyframes cooking-icon-animated-s-g1_to__to { 0% {transform: translate(316px,320px);animation-timing-function: cubic-bezier(0,0,0.58,1)} 20% {transform: translate(268.191427px,271.585619px);animation-timing-function: cubic-bezier(0.42,0,1,1)} 26.666667% {transform: translate(268.191427px,271.585619px)} 73.333333% {transform: translate(316px,320px)} 100% {transform: translate(316px,320px)}} #cooking-icon-animated-u-dough-out2_to {animation: cooking-icon-animated-u-dough-out2_to__to 3000ms linear infinite normal forwards}@keyframes cooking-icon-animated-u-dough-out2_to__to { 0% {transform: translate(393.139921px,390.09328px);animation-timing-function: cubic-bezier(0,0,0.58,1)} 23.333333% {transform: translate(378.559612px,375.147286px);animation-timing-function: cubic-bezier(0.42,0,1,1)} 33.333333% {transform: translate(378.559612px,375.147286px);animation-timing-function: cubic-bezier(0,0,0.58,1)} 80% {transform: translate(393.14px,390.09px)} 100% {transform: translate(393.14px,390.09px)}}
        ]]>
    </style>
    <defs>
        <linearGradient id="cooking-icon-animated-u-bolillo-fill-fill" x1="0.04624" y1="0.536046" x2="0.478084" y2="0.94353" spreadMethod="pad" gradientUnits="objectBoundingBox" gradientTransform="translate(0 0)">
            <stop id="cooking-icon-animated-u-bolillo-fill-fill-0" offset="0%" stop-color="#535353" />
            <stop id="cooking-icon-animated-u-bolillo-fill-fill-1" offset="35%" stop-color="#fff" />
            <stop id="cooking-icon-animated-u-bolillo-fill-fill-2" offset="54%" stop-color="#aeaeae" />
            <stop id="cooking-icon-animated-u-bolillo-fill-fill-3" offset="100%" stop-color="#fff" />
        </linearGradient>
    </defs>
    <path
        id="cooking-icon-animated-u-back"
        d="M263.68,528.03c-66.25,0-132.51,0-198.76,0C35,528.03,7.01,505,1.41,475.61c-.88-4.64-1.35-9.43-1.36-14.16C-0.01,329.39,0,197.32,0,65.26C0,34.86,22.91,7.04,52.76,1.38c4.42-.84,8.99-1.32,13.49-1.32C198.43,-0.01,330.6,0,462.78,0c30.4,0,58.25,22.93,63.87,52.76.85,4.53,1.33,9.21,1.33,13.83.07,132.06.06,264.13.06,396.19c0,30.39-22.9,58.2-52.76,63.87-4.43.84-8.99,1.32-13.49,1.33-66.03.08-132.06.06-198.1.06l-.01-.01Z"
        transform="translate(.000621-.012114)"
        fill="#e7f2fd"
    />
    <polygon
        id="cooking-icon-animated-u-dough"
        points="69.05,315.56 77.27,379.48 97.82,402.69 178.41,450.71 323.72,471.14 373.16,479.48 400.56,439.07 418.37,397.52 451.93,375.37 462.2,325.37 422.48,219.89 364.26,133.59 335.49,115.78 310.83,83.59 280.7,63.04 252.95,63.04 216.31,82.22 167.68,79.48 132.75,76.74 110.15,104.82 98.51,145.23 71.79,173.33 45.08,198.66 49.19,254.82 69.05,315.56"
        transform="translate(-5.233201-19.175637)"
        fill="#f7e79d"
    />
    <ellipse id="cooking-icon-animated-u-copy-of-ellipse-2" rx="5.535767" ry="4.938728" transform="matrix(.597869-.801594 0.801594 0.597869 328.241974 344.599641)" fill="#555555" stroke-width="0" />
    <g id="cooking-icon-animated-s-g1_to" transform="translate(316,320)">
        <g id="cooking-icon-animated-s-g1" transform="translate(-302.252823,-314.491775)">
            <path
                id="cooking-icon-animated-u-bollillo"
                d="M209.12,456.54l-30.18,50.54c-10.13,16.1-23.86,20.84-36.59,18.71-7.68-1.29-14.86-5.2-20.51-10.67-5.58-5.41-9.73-12.44-11.42-20.06-2.87-12.86,1.01-26.99,16.2-37.51l.44-.29l50.78-31.98-14.21-14.2.02-.02c-3.05-3.06-4.57-7.04-4.57-11s1.52-7.98,4.56-11.01L383.19,169.51c3.03-3.04,7.03-4.56,11.01-4.56s7.98,1.52,11.01,4.56l14.21,14.21l32.01-50.82.3-.44c10.51-15.2,24.65-19.07,37.51-16.2c7.61,1.7,14.65,5.85,20.06,11.42c5.47,5.64,9.38,12.82,10.67,20.5c2.13,12.73-2.6,26.46-18.71,36.59l-50.58,30.2l15.11,15.11c3.02,3.01,4.52,7.01,4.52,11.01h.03c0,3.99-1.52,7.98-4.56,11.02L246.24,471.65l-.02-.02-.02.02c-3.04,3.03-7.02,4.56-10.98,4.56-3.69,0-7.39-1.32-10.33-3.94-.24-.19-.47-.4-.68-.61l-15.1-15.1v0l.01-.02Z"
                transform="translate(-11.261105-7.675867)"
                fill="#555555"
            />
            <path
                id="cooking-icon-animated-u-bolillo-fill"
                d="M197.72,420.97l16.03,16.04-.02.02c.15.14.28.29.41.44l21.37,21.37L453.02,241.33l-21.8-21.8-16.03-16.04-20.72-20.72L176.96,400.28l20.08,20.08c.23.19.46.39.67.6v0l.01.01Z"
                transform="translate(-11.432917-7.65357)"
                fill="url(#cooking-icon-animated-u-bolillo-fill-fill)"
            />
        </g>
    </g>
    <g id="cooking-icon-animated-u-dough-out2_to" transform="translate(393.139921,390.09328)">
        <path
            id="cooking-icon-animated-u-dough-out2"
            d="M475.81,323.63c-.79-5.63-2.34-11.18-4.74-16.96l-1.22-2.95-20.41,22.96.09.88c.77,7.26.37,14.1-1.2,20.32-1.71,6.8-4.87,13.2-9.4,19.01-3.12,4.01-8.4,6.75-13.52,9.42-7.58,3.95-14.75,7.69-19.95,15.87-7.08,11.08-10.52,23.26-13.88,35.12-2.7,9.56-5.25,18.59-9.13,23.45l-.21.28c-1.54,1.88-3.23,3.65-5.03,5.26-1.97,1.76-3.93,3.26-5.85,4.45l-.09.06c-1.93,1.23-4.14,2.36-6.57,3.36-2.3.95-4.75,1.71-7.32,2.29l-.25.06c-.28.04-.61.07-.98.07-4.75,0-14.41-3.62-23.09-7l-1.3-.51-19.17,21.58l2.68,1.04c1.87.73,3.75,1.47,5.62,2.2c13.95,5.49,27.13,10.68,38.12,10.68c1.93,0,3.78-.17,5.43-.48.27-.04.55-.09.83-.15c3.88-.87,7.66-2.06,11.23-3.54c3.37-1.39,6.78-3.17,10.12-5.29c3.31-2.06,6.37-4.34,9.09-6.79c2.63-2.36,5.21-5.08,7.63-8.05l.43-.5c6.97-8.74,10.21-20.22,13.65-32.38c2.83-10.04,5.76-20.42,10.79-28.29c1.68-2.65,6.15-4.98,10.94-7.48c7.3-3.8,14.84-7.73,21.19-15.88c6.73-8.63,11.45-18.24,14.03-28.57c2.6-10.38,3.09-21.67,1.45-33.55l-.01.01Z"
            transform="translate(-394.679047,-399.14502)"
            fill="#555555"
        />
    </g>
    <path
        id="cooking-icon-animated-u-dough-out"
        d="M356.35,110.51c-2.51-1.67-4.78-3.39-6.92-5.25-5.54-4.81-9.62-10.13-13.2-15.15l-.71-.99c-9.65-13.63-19.63-27.72-43.07-39.67-9.03-4.62-17.74-6.86-26.62-6.86-16.26,0-29.88,7.78-41.93,14.67-7.46,4.26-15.17,8.66-20.57,8.66h-.12c-8.62-.1-18.16-2.08-26.58-3.84l-.11-.02c-7.59-1.58-14.76-3.07-21.36-3.46l-5.91-.31.02.15c-.13,0-.26,0-.39,0-4.51,0-8.54.35-12.31,1.08-6.82,1.31-12.9,3.83-18.58,7.69-5.93,3.44-10.84,7.82-15,13.39-3.33,4.47-6.17,9.67-8.93,16.36l-1.62,4.01.11.07c-1.82,5.26-3.24,10.93-4.72,16.87-2.18,8.72-4.42,17.74-8.06,25.51-2.29,4.9-9.67,9.98-16.81,14.88-17.59,12.1-37.54,25.81-36.79,58.33.58,26.18,8.88,41.24,16.89,55.8l.71,1.29c2.97,5.41,5.99,11.39,7.92,18.48c2.01,7.4,2.84,16.03,2.52,26.38l-.11,4.5h.04c-.34,22.55,2.03,39.74,7.39,53.83c5.72,15.05,14.84,26.79,27.87,35.89l3.65,2.55l22.21-25-5.31-3.07c-.23-.13-.46-.27-.68-.4-8.48-5.17-13.97-11.64-17.29-20.36-3.69-9.71-5.3-22.69-5.01-40.61l.11-3.73c.42-13.9-.82-26-3.8-36.97-2.94-10.82-7.15-19.23-11.26-26.7l-.71-1.29c-6.13-11.13-11.92-21.63-12.3-38.87-.34-14.9,11.21-22.85,23.44-31.26c10.51-7.22,21.37-14.69,27.13-27.01c4.89-10.43,7.67-21.59,10.13-31.45c1.42-5.7,2.77-11.12,4.24-15.09l.53-1.3c1.72-4.18,3.33-7.22,5.09-9.58c1.8-2.41,3.87-4.26,6.36-5.66.39-.22.75-.46,1.14-.72c2.31-1.61,4.87-2.66,7.82-3.23c2.03-.39,4.27-.58,6.84-.58.44,0,.89,0,1.35.02l2.64.16c4.52.27,10.43,1.49,16.76,2.81c9.97,2.07,21.27,4.43,32.79,4.55h.51c13.37,0,24.67-6.45,35.61-12.7c8.86-5.06,18.02-10.29,27.21-10.29c3.85,0,7.49.9,11.13,2.76c15.45,7.88,22.41,17.71,29.79,28.12l.74,1.04c4.94,6.95,10.68,14.39,19.15,21.74c1.96,1.7,4.03,3.36,6.16,4.94l3.68,2.73l21.89-24.63-4.78-3.19-.01-.02Z"
        transform="translate(-5.233201-16.222924)"
        fill="#555555"
    />
    <g id="cooking-icon-animated-u-bubbles">
        <ellipse id="cooking-icon-animated-u-copy-of-ellipse" rx="5.535767" ry="4.938728" transform="matrix(.597869-.801594 0.801594 0.597869 352.702846 404.226319)" fill="#555555" stroke-width="0" />
        <ellipse id="cooking-icon-animated-u-copy-of-ellipse-22" rx="5.535767" ry="4.938728" transform="matrix(.597869-.801594 0.801594 0.597869 436.391684 341.646927)" fill="#555555" stroke-width="0" />
        <ellipse id="cooking-icon-animated-u-copy-of-ellipse-23" rx="5.535767" ry="4.938728" transform="matrix(.597869-.801594 0.801594 0.597869 269.391684 102.646927)" fill="#555555" stroke-width="0" />
        <ellipse id="cooking-icon-animated-u-copy-of-ellipse-24" rx="5.535767" ry="4.938728" transform="matrix(.597869-.801594 0.801594 0.597869 243.391684 200.646927)" fill="#555555" stroke-width="0" />
        <ellipse id="cooking-icon-animated-u-copy-of-ellipse2" rx="5.535767" ry="4.938728" transform="matrix(1.195738-1.603187 1.603187 1.195738 163.702846 175.226319)" fill="#555555" stroke-width="0" />
        <ellipse id="cooking-icon-animated-u-copy-of-ellipse-3" rx="5.535767" ry="4.938728" transform="matrix(1.195738-1.603187 1.603187 1.195738 415.887572 326.226319)" fill="#555555" stroke-width="0" />
        <ellipse id="cooking-icon-animated-u-copy-of-ellipse3" rx="5.535767" ry="4.938728" transform="matrix(1.195738-1.603187 1.603187 1.195738 135.281028 279.887962)" fill="#555555" stroke-width="0" />
    </g>
</svg>
