<svg xmlns="http://www.w3.org/2000/svg" viewBox="0 0 650 650" overflow="hidden" preserveAspectRatio="xMidYMid meet" id="eaf-1627c-0"><defs><clipPath id="eaf-1627c-1"><rect x="0" y="0" width="650" height="650"></rect></clipPath><linearGradient gradientUnits="userSpaceOnUse" x1="302.8775" y1="477.7066" x2="303.0143" y2="445.1774" id="eaf-1627c-2"><stop stop-color="#828282" offset="0"></stop><stop stop-color="#ccc0" offset="1"></stop></linearGradient><style>#eaf-1627c-0 * {animation: 7000ms linear infinite normal both running;offset-rotate:0deg}@keyframes eaf-1627c-3{0%,100%{transform:none;offset-path:path("m324.9798 -228.977l0 551.227l0 -44.45l0 44.45l0 0l657.0724 0")}}@keyframes eaf-1627c-4{0%{offset-distance:0%}11.9%{offset-distance:42.4936%}13.33%{offset-distance:45.9202%;animation-timing-function:ease-in-out}14.76%{offset-distance:49.3468%}71.9%{offset-distance:49.3468%;animation-timing-function:ease-in}85.71%,100%{offset-distance:100%}}@keyframes eaf-1627c-5{0%,100%{transform:translate(-324.9798px,-330.45px)}}@keyframes eaf-1627c-6{0%,100%{transform:none;offset-path:path("m190.6 535.3821l0 0l-80.4287 -349.2783")}}@keyframes eaf-1627c-7{0%{offset-distance:0%}10.96%{offset-distance:0%}40%,100%{offset-distance:100%}}@keyframes eaf-1627c-8{0%{transform:scale(1.1796,0)}10.96%{transform:scale(1.1796,0)}40%,100%{transform:scale(1.1796,1.3)}}@keyframes eaf-1627c-9{0%,100%{transform:translate(-178.001px,-626.6047px)}}@keyframes eaf-1627c-10{0%{animation-timing-function:step-start}28.57%{opacity:1;animation-timing-function:ease-in-out}39.53%,100%{opacity:0}}@keyframes eaf-1627c-11{0%,100%{transform:none;offset-path:path("m471.1999 535.3821l0 0l85.6001 -434.4305")}}@keyframes eaf-1627c-12{0%{offset-distance:0%}10.96%{offset-distance:0%}40.96%,100%{offset-distance:100%}}@keyframes eaf-1627c-13{0%{transform:scale(1,0)}10.96%{transform:scale(1,0)}40.97%,100%{transform:scale(1,1.12)}}@keyframes eaf-1627c-14{0%,100%{transform:translate(-436.0842px,-637.4597px)}}@keyframes eaf-1627c-15{0%{animation-timing-function:step-start}31.43%{opacity:1;animation-timing-function:ease-in-out}40.96%,100%{opacity:0}}</style></defs><g clip-path="url('#eaf-1627c-1')" style="isolation: isolate;"><g><path fill="#e0f2fb" d="m650 325.1c0 81.6 0 163.1 0 244.7c0 37.4 -28.2 71.6 -65 78.6c-5.5 1 -11.1 1.6 -16.6 1.6c-162.6 0.0001 -325.2 0.0001 -487.7 0.0001c-39.9 0 -74.7 -30.6 -79.9 -70.2c-0.5 -3.5 -0.8 -7 -0.8 -10.6c0 -163 0 -326 0 -488.9c0 -37.4 28.2 -71.6 65 -78.6c5.4 -1 11.1 -1.6 16.6 -1.6c162.7 -0.1 325.4 -0.1 488.1 -0.1c37.4 0 71.6 28.2 78.6 65c1 5.4 1.6 11.1 1.6 16.6c0.1 81.2 0.1 162.3 0.1 243.5l0 0z"></path><g style="filter: drop-shadow(rgb(94, 94, 94) 12px 24px 14px);"><g transform="translate(0 -559.4271)" style="animation-name: eaf-1627c-3, eaf-1627c-4, eaf-1627c-5; animation-composition: replace, add, add;"><g><path fill="#fcefd9" fill-rule="evenodd" stroke="#555" stroke-width="13.6735" stroke-linejoin="round" d="m118.3 149.9l438.8 -25.3l75.5 293.4c1.4 24.4 -6.5 42.6 -20.1 58l-507.9 45.4c-19.3 -8.1 -30.3 -24 -35.9 -45.1l49.6 -326.4z"></path></g><g><path fill="#fcefd9" fill-rule="evenodd" stroke="#555" stroke-width="13.6735" stroke-linejoin="round" d="m152.6 117.9l433.9 70l10.4 302.8c-3.9 24.1 -15.6 40.2 -32.1 52.3l-505.8 -65.3c-17.1 -12 -24.4 -30 -25.4 -51.8l119 -308z"></path></g><g><path fill="#fcefd9" fill-rule="evenodd" stroke="#555" stroke-width="20.5102" stroke-linejoin="round" d="m102.9 118.9l439 20l44.9 299.7c-1.1 24.4 -10.9 41.7 -25.9 55.7l-509.9 -7.2c-18.4 -10 -27.7 -27 -31.1 -48.5l83 -319.7z"></path><path fill="url('#eaf-1627c-2')" d="m30.2 443.3l545.6 0.9c-3 15.5 2.3 17 -19 42.3l-502.8 -7.3c-11.7 -5.5 -17.8 -17.9 -23.8 -35.9l0 0z"></path><path fill="none" stroke="#5c5c5c" stroke-width="6.8367" d="m133.4 149.3l376.4 17.3"></path><path fill="none" stroke="#5c5c5c" stroke-width="6.8367" d="m133.4 139l74.2 3.5"></path><path fill="none" stroke="#5c5c5c" stroke-width="6.8367" d="m434.7 175.3l74.2 3.5"></path><path fill="#555" d="m417.5 230.7c3.7 -5 8.9 -9.4 14.1 -13.6c3.7 -2.7 5.3 -4 9.4 -6.5c3.1 -1.8 7.1 -3.9 10.4 -5.3c16.9 -7.4 12.7 -5.8 23 -9.6c4.1 -1.2 10.5 -4.3 15.1 -4c0.5 0 0.9 0.2 1.4 0.3c0.3 0.3 0.8 0.6 1 1c1.5 2.7 -2.7 7.9 -4.3 10.2c-4.7 6.1 -10.3 11.7 -15.2 17.7c-3.3 4.1 -6.5 8.3 -8.3 12.9c-0.5 2.2 -1.7 4.7 -0.5 6.9c-1.4 -4.9 0.3 0.2 -15.5 5.7c-0.4 0.1 0.3 -0.6 0.4 -1c0.1 -0.6 0.2 -1.2 0.3 -1.8c0.2 -2.3 0.1 -3.1 -0.1 -5.5c-0.8 -8.5 -3.4 -16.8 -7.2 -24.8c-1.6 -2.9 -3.4 -5.8 -6 -8.3c-0.9 -0.9 -2.1 -2 -3.6 -2.2c5.2 -2 10.4 -4 15.6 -6c-0.1 -0.2 -0.6 -0.6 -0.3 -0.6c0.3 0 0.5 0.4 0.8 0.5c0.4 0.3 0.9 0.5 1.4 0.7c1.5 0.7 3.8 1.4 5.3 1.9c10.3 3.1 21.1 5.2 31.6 7.9c7.2 1.8 14.7 3.6 20.1 7.9c2.9 3 2 4.7 -1.5 6.9c-7.3 3.5 -2.7 1.3 -18.9 8.1c-0.7 0.3 -1.4 0.5 -2.1 0.8c-0.6 0.2 -2.3 1 -1.7 0.8c13.1 -5.6 18.3 -8 13.3 -5.7c0 -0.1 -0.1 -0.2 0 -0.2c0.3 0 5.3 0.8 5.5 0.9c2.9 0.3 4.4 0.4 7.4 0.6c3.8 0.3 7.5 0.2 11.3 0.3c1 0 1.9 0.1 2.9 0.1c0.6 0 1.2 0 1.8 0.1c0.3 0.1 0.5 0.4 0.8 0.5c-5.3 2.5 -10.4 5.3 -15.9 7.5c-0.6 0.3 -1.5 0 -2.2 -0.1c-1.1 0 -2.2 0 -3.2 0c-4.7 0 -9.5 -0.1 -14.2 -0.1c-6.2 0 -12.3 0.1 -18.5 0.2l13.2 -7.2c6 0.1 12 0.1 18 0.1c4.9 0 9.9 -0.1 14.8 -0.3c9.7 -0.4 11.7 -2.9 -7.5 6.8c1.1 0.4 0.2 0 -0.7 -0.1c-0.9 -0.1 -1.7 -0.1 -2.6 -0.2c-3.7 -0.2 -7.4 -0.2 -11.1 -0.4c-2.6 -0.1 -5.2 -0.2 -7.8 -0.5c-1.9 -0.2 -5.4 -0.2 -7 -1.3c-0.4 -0.3 -0.6 -0.8 -0.9 -1.1c0.1 -0.3 0 -0.7 0.3 -0.9c5.2 -2.5 10.6 -4.7 15.9 -7c1.2 -0.5 4.9 -1.9 3.7 -1.4c-4.1 1.9 -8.2 3.6 -12.3 5.5c-0.6 0.3 1.3 -0.6 1.9 -0.8c2.9 -1.3 5.2 -2.4 2.9 -5c-4.6 -4.3 -11.7 -6.1 -18.3 -8c-10.6 -2.9 -21.7 -4.9 -32.4 -7.5c-2.7 -0.7 -5.4 -1.3 -7.9 -2.5c-0.3 -0.1 -3.1 -1.6 -2.3 -2c5 -2.5 10.6 -4.1 16 -6.2c4.2 3.3 6.1 8 8.4 12.1c0.6 1.3 1.3 2.7 1.9 4c2.8 6.8 4.2 13.8 6 20.8c0.5 2.4 0.9 4.7 1 7.1c0 0.4 0.5 0.9 0.1 1.1c-15.3 8 -12.5 11 -16.2 6.4c-0.6 -2.6 -0.1 -5.2 0.7 -7.8c2 -4.9 5.5 -9.2 9.1 -13.5c1.7 -2 3.3 -4 5 -5.9c3.4 -3.8 7.2 -7.4 10 -11.5c1 -1.5 5.2 -7.1 3.8 -8.8c-4.9 -0.4 -10 2.4 -14.5 3.6c-6.1 2.3 -8 3.1 3.5 -1.9c1.8 -0.8 -3.6 1.6 -5.4 2.5c-4.4 2.1 -6.3 3.2 -10.1 5.9c-1.5 1 -2.8 2.1 -4.3 3.1c-4.7 3.8 -9.3 7.8 -12.3 12.5l-16.3 5.2l0 0z"></path><path fill="none" stroke="#5c5c5c" stroke-width="6.8367" d="m117.9 220.1l290.1 13.8"></path><path fill="#939393" stroke="#555" stroke-width="6.8367" stroke-linejoin="round" d="m126.5 241.7l195.1 8.2l-19 143.7l-210.6 -8.6l34.5 -143.3z"></path></g><g><line x1="348.5" y1="278.7" x2="520.9" y2="286" fill="none" stroke="#555" stroke-width="13.6735" stroke-miterlimit="10"></line><line x1="347.5" y1="309.8" x2="532.8" y2="317.6" fill="none" stroke="#555" stroke-width="13.6735" stroke-miterlimit="10"></line><line x1="344.4" y1="334.5" x2="537.1" y2="342.6" fill="none" stroke="#555" stroke-width="13.6735" stroke-miterlimit="10"></line><line x1="331.3" y1="432.4" x2="551.2" y2="425.7" fill="none" stroke="#555" stroke-width="13.6735" stroke-miterlimit="10"></line><line x1="332" y1="398.9" x2="546.1" y2="395.6" fill="none" stroke="#555" stroke-width="13.6735" stroke-miterlimit="10"></line><line x1="339.5" y1="364.8" x2="541.6" y2="369.2" fill="none" stroke="#555" stroke-width="13.6735" stroke-miterlimit="10"></line><line x1="79.4" y1="405.7" x2="301.8" y2="417.6" fill="none" stroke="#555" stroke-width="13.6735" stroke-miterlimit="10"></line><line x1="75.4" y1="431.9" x2="294.1" y2="443.3" fill="none" stroke="#555" stroke-width="13.6735" stroke-miterlimit="10"></line></g><g transform="translate(-38.5574 -206.3961)"><path fill="#565656" d="m250.3 375.4c-0.8 0 -1.9 0 -3.3 0.1c-1.4 0.1 -2.9 0.3 -4.2 0.8c-1.2 0.4 -2.3 1.2 -3.4 2.3c-1 1.1 -2.1 2.8 -3.3 5.1l-14.1 27l-7 -0.4l-19.5 -31.1l-9.2 17.7c-1.1 2.2 -1.8 3.9 -2 5c-0.2 1.2 0.1 2 0.8 2.6c0.5 0.4 1.5 0.8 2.8 1.2c1.4 0.4 2.5 0.7 3.4 0.8l-1.1 2.1l-24 -1.4l1.1 -2.1c1.1 0 2.3 -0.1 3.7 -0.2c1.4 -0.1 2.7 -0.4 3.8 -0.8c1.3 -0.5 2.4 -1.2 3.3 -2.2c0.9 -1 2 -2.7 3.3 -5.2l9.3 -17.8c0.5 -0.9 0.7 -1.7 0.7 -2.5c0 -0.8 -0.3 -1.5 -0.8 -2.1c-0.6 -0.7 -1.4 -1.2 -2.4 -1.6c-1 -0.4 -2.2 -0.8 -3.6 -1l1.1 -2.1l21 1.2l17.2 27.2l7.5 -14.3c1.2 -2.3 1.8 -4 2 -5.1c0.1 -1.1 -0.1 -2 -0.8 -2.6c-0.5 -0.4 -1.5 -0.9 -2.8 -1.2c-1.3 -0.4 -2.4 -0.6 -3.3 -0.8l1.1 -2.1l24 1.4l-1.3 2.1z"></path><path fill="#565656" d="m299.3 386l-3 -0.2c0 -1.5 -0.6 -3 -1.7 -4.6c-1.1 -1.6 -2.5 -2.5 -4.2 -2.9c-0.7 -0.2 -1.8 -0.3 -3.2 -0.4c-1.4 -0.1 -2.5 -0.2 -3.5 -0.2l-8.1 -0.5l-7.6 14.5l5.7 0.3c1.4 0.1 2.8 0 4.1 -0.1c1.3 -0.2 2.6 -0.5 3.9 -1.1c0.8 -0.4 1.8 -1.1 3 -2c1.2 -1 2 -1.9 2.6 -2.6l3 0.2l-8.2 15.7l-3 -0.2c0.2 -0.8 0.3 -1.7 0.3 -2.9c-0.1 -1.2 -0.3 -2 -0.6 -2.4c-0.5 -0.7 -1.3 -1.2 -2.4 -1.5c-1.1 -0.3 -2.4 -0.5 -3.9 -0.6l-5.7 -0.3l-5.7 10.9c-0.6 1.1 -0.9 2 -1 2.7c-0.1 0.7 0.1 1.2 0.6 1.6c0.5 0.4 1.3 0.6 2.3 0.8c1 0.2 2.6 0.3 4.6 0.4c0.9 0.1 2 0.1 3.3 0.2c1.3 0.1 2.4 0.1 3.5 0c1.1 0 2.2 -0.1 3.3 -0.2c1 -0.1 1.9 -0.3 2.5 -0.6c1.7 -0.8 3.8 -2 6.3 -3.7c2.5 -1.7 4.2 -3 5.2 -3.8l2.9 0.2l-7.2 11.7l-52.4 -3l1.1 -2.1c0.8 0 1.8 0 3.1 0c1.3 0 2.3 -0.1 2.9 -0.2c1.1 -0.2 2 -0.5 2.6 -1c0.6 -0.4 1 -1 1.4 -1.6l13.9 -26.6c0.3 -0.6 0.5 -1.2 0.4 -1.6c-0.1 -0.4 -0.6 -0.8 -1.5 -1.2c-0.6 -0.3 -1.4 -0.5 -2.6 -0.7c-1.2 -0.2 -2 -0.4 -2.6 -0.5l1.1 -2.1l49.5 2.8l-4.9999 9.4001z"></path><path fill="#565656" d="m401.3 384c-0.8 0 -1.7 0.1 -2.6 0.2c-0.9 0.1 -1.8 0.3 -2.8 0.6c-1.4 0.4 -2.6 0.8 -3.4 1.4c-0.8 0.5 -1.6 1.2 -2.4 1.9c-2.8 2.6 -7.3 6.8 -13.4 12.6c-6.1 5.8 -12.5 11.7 -19 18l-7.9 -0.5l-0.1 -28.8l-27.9 27.2l-7.9 -0.5c0.1 -8.9 0.2 -15.7 0.3 -20.5c0.1 -4.8 0.2 -8.8 0.2 -12c0 -1 -0.2 -1.7 -0.6 -2.2c-0.4 -0.5 -1 -1 -1.8 -1.5c-0.5 -0.4 -1.2 -0.6 -1.9 -0.8c-0.7 -0.2 -1.6 -0.4 -2.6 -0.5l1.1 -2.1l29.8 1.7l-1.1 2c-1.8 0 -3.2 0.1 -4.1 0.2c-0.9 0.1 -1.7 0.2 -2.3 0.3c-0.5 0.1 -0.9 0.2 -1.1 0.4c-0.2 0.2 -0.3 0.3 -0.4 0.4c-0.1 0.2 -0.2 0.5 -0.2 0.7c0 0.2 -0.1 0.5 -0.1 0.8c-0.1 1.4 -0.2 4.1 -0.3 8.1c-0.1 4 -0.2 8.9 -0.4 14.8l27.1 -26.7l8.3 0.5l-0.1 29.1c4.6 -4.4 8.2 -8 11 -10.9c2.8 -2.8 5.2 -5.2 7.2 -7.2c1.2 -1.2 2.2 -2.3 2.9 -3.1c0.8 -0.8 1.3 -1.6 1.6 -2.2c0.2 -0.4 0.1 -0.7 -0.3 -1c-0.4 -0.3 -0.9 -0.6 -1.7 -0.8c-0.7 -0.2 -1.5 -0.4 -2.6 -0.5c-1.1 -0.2 -2.1 -0.3 -2.9 -0.4l1.1 -2.1l22.5 1.3l-1.2 2.1z"></path><path fill="#565656" d="m406.8 422c-3.4 -0.2 -6.4 -0.7 -9.1 -1.4c-2.6 -0.7 -4.8 -1.6 -6.4 -2.5l-3.7 1.7l-3.3 -0.2l6.6 -13.7l3.4 0.2c0.1 1.3 0.3 2.8 0.8 4.3c0.4 1.5 1.1 2.9 2.1 4.1c1 1.3 2.3 2.3 3.9 3.2c1.6 0.9 3.7 1.4 6.4 1.5c3.6 0.2 6.6 -0.2 9.1 -1.3c2.5 -1.1 4.2 -2.5 5.2 -4.3c0.8 -1.5 0.6 -2.8 -0.5 -3.8c-1.1 -1.1 -3.1 -2.1 -6.1 -3c-2 -0.6 -3.7 -1.2 -5.4 -1.7c-1.6 -0.5 -3.2 -1 -4.6 -1.6c-3.2 -1.2 -5.3 -2.8 -6.1 -4.8c-0.8 -2 -0.7 -4.1 0.6 -6.5c0.8 -1.5 2 -2.9 3.6 -4.2c1.7 -1.3 3.7 -2.4 6 -3.4c2.3 -0.9 4.9 -1.6 7.9 -2.1c3 -0.5 6.1 -0.6 9.3 -0.5c3.1 0.2 5.8 0.6 8.2 1.4c2.4 0.7 4.2 1.4 5.5 2.1l3.2 -1.5l3.4 0.2l-6.4 12.9l-3.4 -0.2c-0.1 -1.4 -0.2 -2.9 -0.6 -4.4c-0.3 -1.5 -0.8 -2.8 -1.5 -3.8c-0.7 -1.1 -1.8 -2 -3.2 -2.7c-1.4 -0.7 -3.2 -1.1 -5.4 -1.3c-2.8 -0.2 -5.4 0.2 -7.8 1.2c-2.4 1 -4 2.3 -4.8 3.9c-0.8 1.5 -0.7 2.8 0.4 3.8c1.1 1 3.1 2 6 2.9c1.7 0.6 3.5 1.1 5.2 1.7c1.8 0.6 3.4 1.1 4.7 1.6c3.3 1.2 5.5 2.7 6.5 4.6c1.1 1.9 0.9 4.1 -0.4 6.7c-0.9 1.6 -2.2 3.2 -4.2 4.6c-1.9 1.5 -4.1 2.6 -6.5 3.5c-2.7 1 -5.6 1.7 -8.6 2.2c-2.9 0.6999 -6.3 0.7999 -10 0.5999z"></path></g><path fill="#fff" d="m0 0q-11.2 -22.6761 -11.2 -22.6761q0 0 0 -30.5246q33.1033 -9.1152 34.5017 -9.1152q1.3983 0 43.6983 9.1152l10 32.6046l-14.0501 20.5962l-2.8499 15.55l27.8 13.6438l27.2 17.9562l-9.8 20.2l-155.5426 -15.8q18.3426 -22.3562 18.3426 -22.3562q0 0 31.9 -12.3438l0 -16.85z" transform="translate(173.6864 320.483)"></path></g></g><path fill="#fff" stroke="#a1a1a1" stroke-width="14" stroke-miterlimit="10" d="m118.3 582l-2.4 1.1l-2.4 0.9c-26.2 8.7 -54.2 -5.8 -62 -32.3l-0.7 -2.5l-0.5 -2.6c-4.9 -27.1 14.1 -52.7 41.4 -56.3l2.6 -0.2l2.6 -0.1l0.1 0l0 -0.1l0.1 0l-0.5 -2.7l-0.3 -2.7c-1.8 -23 10.4 -44.2 31.2 -54.3l2.5 -1.1l2.6 -1c21.5 -7.8 45.7 -1.3 60.5 16l1.7 2.2l1.6 2.3l0 -0.1l0 0.1c0 0 1.1 -2 1.1 -2l1.3 -2c11.4 -16 32.5 -20.8 49.6 -11.2l2 1.2l1.9 1.3c15.5 11.5 19.9 33.4 9.7 49.9l-1.3 2l-1.4 1.9l0.1 0l0 0.1c0 0 2.7 0.2 2.7 0.2l2.6 0.4c28.2 5.2 46.5 32.4 40.7 60.4l-0.6 2.6l-0.8 2.6c-8.8 27.2 -38.3 41.9 -65.3 32.4l-2.5 -1l-2.5 -1.1l0 -0.1l0 0.1l-1 2.8c-22.4 52 -95.2 49.3 -113.6 -4.2l-0.8 -2.8" transform="matrix(1.1796 0 0 0 -19.366 535.3821)" style="animation-name: eaf-1627c-6, eaf-1627c-7, eaf-1627c-8, eaf-1627c-9, eaf-1627c-10; animation-composition: replace, add, add, add, replace;"></path><path fill="#fff" stroke="#a1a1a1" stroke-width="14" stroke-miterlimit="10" d="m490.5 487.7l2.5 -0.6l2.5 -0.4c27.3 -3.9 52.3 15.4 55.2 42.9l0.2 2.6l0 2.6c-0.1 27.6 -23.3 49.4 -50.8 48l-2.6 -0.2l-2.6 -0.3l-0.1 0l0 0.1l-0.1 -0.1l0 2.8l-0.2 2.7c-2.4 22.9 -18.2 41.6 -40.4 47.8l-2.7 0.6l-2.7 0.5c-22.5 3.8 -45.2 -6.9 -56.6 -26.6l-1.3 -2.4l-1.2 -2.5l-0.1 0.1l0 -0.1c0 0 -1.5 1.8 -1.5 1.8l-1.6 1.7c-14.1 13.7 -35.7 14.6 -50.8 2.1l-1.7 -1.5l-1.6 -1.6c-13.2 -14.1 -13.6 -36.4 -0.6 -50.8l1.6 -1.7l1.7 -1.6l-0.1 0l0 -0.1c0 0 -2.6 -0.7 -2.6 -0.7l-2.5 -0.9c-26.8 -10.1 -39.9 -40.2 -29.2 -66.8l1.1 -2.5l1.2 -2.4c13.5 -25.2 45.1 -34.3 70.1 -20.2l2.3 1.4l2.2 1.5l0 0.1l0.1 -0.1l1.5 -2.5c31.3 -47.2 102.5 -31.5 111 24.5l0.3 2.9" transform="matrix(1 0 0 0 35.1158 535.3821)" style="animation-name: eaf-1627c-11, eaf-1627c-12, eaf-1627c-13, eaf-1627c-14, eaf-1627c-15; animation-composition: replace, add, add, add, replace;"></path></g></g></svg>