<svg xmlns="http://www.w3.org/2000/svg" viewBox="0 0 500 500" overflow="hidden" preserveAspectRatio="xMidYMid meet" id="eaf-333c-0"><defs><clipPath id="eaf-333c-1"><rect x="0" y="0" width="500" height="500"></rect></clipPath><style>#eaf-333c-0 * {animation: 6000ms linear infinite normal both running;offset-rotate:0deg}@keyframes eaf-333c-2{0%,100%{transform:none;offset-path:path("m1401.6023 121.2922l-1393.9569 0")}}@keyframes eaf-333c-3{0%{offset-distance:0%}100%{offset-distance:100%}}@keyframes eaf-333c-4{0%,100%{transform:translate(-1401.87px,-93.1409px)}}@keyframes eaf-333c-5{0%,100%{transform:translate(252.8545px,466.018px)}}@keyframes eaf-333c-6{0%{transform:rotate(-22deg)}33.33%{transform:rotate(-22deg)}58.33%,100%{transform:rotate(83deg)}}@keyframes eaf-333c-7{0%,100%{transform:translate(-336.3484px,-535.0734px)}}@keyframes eaf-333c-8{0%,100%{transform:none;offset-path:path("m7.6 163.1185l1394.4197 0")}}@keyframes eaf-333c-9{0%,100%{transform:translate(437.5443px,334.5185px)}}@keyframes eaf-333c-10{0%{transform:rotate(-80.5981deg);animation-timing-function:ease-in-out}12.22%{transform:rotate(-75.5981deg);animation-timing-function:ease-in-out}25%{transform:rotate(-80.5981deg);animation-timing-function:ease-in-out}37.22%{transform:rotate(-75.5981deg);animation-timing-function:ease-in-out}50%{transform:rotate(-80.5981deg);animation-timing-function:ease-in-out}62.22%{transform:rotate(-75.5981deg);animation-timing-function:ease-in-out}75%{transform:rotate(-80.5981deg);animation-timing-function:ease-in-out}87.22%{transform:rotate(-75.5981deg);animation-timing-function:ease-in-out}100%{transform:rotate(-80.5981deg)}}@keyframes eaf-333c-11{0%,100%{transform:translate(-343.1001px,-499.0001px)}}</style></defs><g clip-path="url('#eaf-333c-1')" style="isolation: isolate;"><g><g transform="matrix(4 0 0 4 -827.28 -2254.5264)"><path fill="#e1f3fd" d="m331.8 626.1c0 15.6 0 31.3 0 46.9c0 7.2 -5.4 13.7 -12.5 15.1c-1 0.2 -2.1 0.3 -3.2 0.3c-31.2 0 -62.4 0 -93.6 0c-7.6 0 -14.3 -5.9 -15.3 -13.5c-0.1 -0.7 -0.1 -1.4 -0.1 -2c0 -31.3 0 -62.5 0 -93.8c0 -7.2 5.4 -13.7 12.5 -15.1c1 -0.2 2.1 -0.3 3.2 -0.3c31.2 0 62.4 0 93.6 0c7.2 0 13.7 5.4 15.1 12.5c0.2 1 0.3 2.1 0.3 3.2c0 15.6 0 31.1 0 46.7z"></path></g><g transform="translate(-0.2677 28.1513)" opacity="0.32" style="animation-name: eaf-333c-2, eaf-333c-3, eaf-333c-4; animation-composition: replace, add, add;"><path fill="#70b9e0" d="m0 104.97l99.55 -42.25c16.79 -7.13 35.93 -6.03 51.79 2.97l53.54 30.37c24.73 14.03 54.32 16.65 81.13 7.2l70.47 -24.84c11.83 -4.17 23.32 -9.27 34.35 -15.24l69.48 -37.63c16.24 -8.79 35.07 -11.53 53.13 -7.73l71.14 14.97c9.39 1.98 18.31 5.75 26.27 11.11l43.77 29.47c6.93 4.67 14.61 8.12 22.71 10.2l119.78 30.83c19.11 4.92 39.42 0.11 54.3 -12.84l41.29 -35.96c5.08 -4.43 10.69 -8.2 16.7 -11.24l43.54 -18.13c14.53 -6.05 30.5 -7.73 45.97 -4.82l78.49 14.73c18.27 3.43 34.79 13.09 46.74 27.34l4.23 5.04c13.83 16.49 35.14 24.76 56.47 21.9l35.21 -4.71c14.64 -1.96 28.33 -8.37 39.21 -18.36l16.08 -14.77c7.86 -7.22 17.87 -11.66 28.5 -12.64l32.22 -2.97c8.89 -0.82 17.85 -0.26 26.5699 1.67l31.75 40.24l0.0103 123.625l-1394.39 21.8936l0 -129.4286z"></path><path fill="#70b9e0" d="m1394.38 88.84l99.55 -42.26c16.79 -7.13 35.9301 -6.03 51.79 2.97l53.54 30.37c24.73 14.03 54.3199 16.65 81.13 7.2l70.47 -24.84c11.83 -4.17 23.3199 -9.27 34.35 -15.24l69.48 -37.63c16.24 -8.79 35.0699 -11.53 53.13 -7.73l71.14 14.97c9.39 1.98 18.3101 5.75 26.27 11.11l43.7699 29.47c6.9299 4.67 14.6101 8.12 22.71 10.2l119.78 30.83c19.1101 4.92 39.4199 0.11 54.3 -12.84l41.29 -35.96c5.0801 -4.43 10.6899 -8.2 16.7 -11.24l43.54 -18.13c14.53 -6.05 30.5 -7.73 45.97 -4.82l78.49 14.73c18.27 3.43 34.79 13.09 46.74 27.34l4.23 5.04c13.8301 16.49 35.1399 24.76 56.47 21.9l35.21 -4.71c14.6399 -1.96 28.3301 -8.37 39.21 -18.36l16.0801 -14.77c7.8601 -7.22 17.8701 -11.66 28.5 -12.64l32.22 -2.97c8.8899 -0.82 17.8501 -0.26 26.5701 1.67l46.73 10.32l0 226.0838l-1413.258 -55.0248l3.908 -125.0391l-0.01 0z"></path></g><g transform="matrix(0.9272 -0.3746 0.3746 0.9272 -259.4443 95.9049)" style="animation-name: eaf-333c-5, eaf-333c-6, eaf-333c-7; animation-composition: replace, add, add;"><path fill="#555" d="m45.2 245.6c0.5 -0.1 1.1 -0.5 1.3 -0.8l20.1 -29.9l4.2 1.4c2.9 1 6 1.5 9.3 1.5c5.9 0 10.7 -0.2 15.9 -0.7l2.3 -0.2l1.4 1.8c3.7 4.7 8.5 8.3 13.4 9.9c7 2.3 14.5 1.8 21 -1.4c6.5 -3.3 11.4 -8.9 13.8 -16c1.3 -3.8 1.7 -7.2 1.3 -10l-0.4 -2.7l2.3 -1.5c11.7 -7.6 22 -17.2 29.8 -27.6c7.8 -10.5 13.2 -22 15.5 -33.2l0.1 -0.2l0.1 -0.2c0 -0.2 -0.2 -0.6 -0.3 -0.7l-0.2 -0.1l-0.2 -0.1c-2.7 -1.3 -5.5 -2.4 -8.3 -3.3c-20.4 -6.8 -44.6 -5.7 -68.1 2.9l-2.5 0.9l-1.9 -1.9c-2 -2 -4.9 -3.7 -8.8 -4.9c-7 -2.3 -14.5 -1.8 -21 1.4c-6.5 3.3 -11.4 8.9 -13.8 16c-1.7 5 -1.7 10.9 -0.1 16.7l0.6 2.4l-1.7 1.7c-3.4 3.4 -6.5 7.6 -9.8 11.9c-1.5 2.8 -3.2 6.2 -4.2 9.3l-1 3.1l-36 -1.8c-0.5 0 -1.3 0.4 -1.7 0.8c-0.3 0.6 -0.4 1.1 -0.2 2l26.2 52.4c0.3 0.6 0.4 0.7 0.9 0.9l0.7 0.2z"></path><path fill="#fefadf" d="m104.4 135.9l-0.7 0.4c-9.7 4.8 -18.4 10.6 -26.2 17.3c0.6 -1.7 0.6 -3.5 1.1 -5.2c3.5 -10.6 14.7 -16.2 25.3 -12.6c0.5 0.1 0.5 0.1 0.5 0.1z"></path><path fill="#fefadf" d="m188 139.6c-4.1 14.1 -13 27.9 -25.5 39.2c-11 -11.7 -18.4 -26.6 -21.2 -42.4c16.6 -3.1 32.9 -2 46.7 3.2z"></path><path fill="#fefadf" d="m111.4 218.8c10 -2.2 19.9 -5.8 29.5 -10.6l0.7 -0.4c-0.2 0.6 -0.2 0.6 -0.4 1.1c-3.5 10.6 -14.7 16.2 -25.3 12.6c-2 -0.6 -3.7 -1.2 -4.5 -2.7z"></path><path fill="#fff" d="m64 201.2c-2.6 -5.2 -1.7 -11.7 3 -18.2c3.5 -5 7.6 -9.9 11.3 -13.6l0 0c9.1 -8.7 19 -16 30.8 -21.9c6.7 -3.3 13.8 -6 20.6 -8c3.4 17.8 11.5 34.2 23.8 47.6c-5.6 3.7 -11.9 7.8 -18.6 11.2c-11.9 6 -23.8 10 -36.1 11.5l0 0c-6.3 0.4 -12.1 0.9 -18.2 0.7c-7.6 -0.8 -14 -4.1 -16.6 -9.3z"></path><path fill="#fefadf" d="m28.7 197.5l22.5 1.3c0.4 2.6 0.7 5.2 2.2 8.2c1.1 2.2 3.3 4.8 5.2 6.7l-12.4 18.8l-17.5 -35z"></path><path fill="#555" d="m163.8 147.1c0.6 -1.7 0.4 -3 -0.4 -4.5c-1.5 -3 -4.8 -4.1 -7.8 -2.6c-1.5 0.7 -2.4 1.7 -3 3.3c-0.6 1.7 -0.4 3 0.4 4.5c0.8 1.5 1.7 2.4 3.3 3c1.7 0.6 3 0.4 4.5 -0.4c1.5 -0.7 2.5 -1.7 3 -3.3z"></path></g><g transform="translate(-1394.27 69.9776)" style="animation-name: eaf-333c-8, eaf-333c-3, eaf-333c-4; animation-composition: replace, add, add;"><path fill="#70b9e0" d="m0 104.97l99.55 -42.25c16.79 -7.13 35.93 -6.03 51.79 2.97l53.54 30.37c24.73 14.03 54.32 16.65 81.13 7.2l70.47 -24.84c11.83 -4.17 23.32 -9.27 34.35 -15.24l69.48 -37.63c16.24 -8.79 35.07 -11.53 53.13 -7.73l71.14 14.97c9.39 1.98 18.31 5.75 26.27 11.11l43.77 29.47c6.93 4.67 14.61 8.12 22.71 10.2l119.78 30.83c19.11 4.92 39.42 0.11 54.3 -12.84l41.29 -35.96c5.08 -4.43 10.69 -8.2 16.7 -11.24l43.54 -18.13c14.53 -6.05 30.5 -7.73 45.97 -4.82l78.49 14.73c18.27 3.43 34.79 13.09 46.74 27.34l4.23 5.04c13.83 16.49 35.14 24.76 56.47 21.9l35.21 -4.71c14.64 -1.96 28.33 -8.37 39.21 -18.36l16.08 -14.77c7.86 -7.22 17.87 -11.66 28.5 -12.64l32.22 -2.97c8.89 -0.82 17.85 -0.26 26.5699 1.67l31.75 40.24l0.0103 123.625l-1394.39 21.8936l0 -129.4286z"></path><path fill="#70b9e0" d="m1394.38 88.84l99.55 -42.26c16.79 -7.13 35.9301 -6.03 51.79 2.97l53.54 30.37c24.73 14.03 54.3199 16.65 81.13 7.2l70.47 -24.84c11.83 -4.17 23.3199 -9.27 34.35 -15.24l69.48 -37.63c16.24 -8.79 35.0699 -11.53 53.13 -7.73l71.14 14.97c9.39 1.98 18.3101 5.75 26.27 11.11l43.7699 29.47c6.9299 4.67 14.6101 8.12 22.71 10.2l119.78 30.83c19.1101 4.92 39.4199 0.11 54.3 -12.84l41.29 -35.96c5.0801 -4.43 10.6899 -8.2 16.7 -11.24l43.54 -18.13c14.53 -6.05 30.5 -7.73 45.97 -4.82l78.49 14.73c18.27 3.43 34.79 13.09 46.74 27.34l4.23 5.04c13.8301 16.49 35.1399 24.76 56.47 21.9l35.21 -4.71c14.6399 -1.96 28.3301 -8.37 39.21 -18.36l16.0801 -14.77c7.8601 -7.22 17.8701 -11.66 28.5 -12.64l32.22 -2.97c8.8899 -0.82 17.8501 -0.26 26.5701 1.67l46.73 10.32l0 226.0838l-1413.258 -55.0248l3.908 -125.0391l-0.01 0z"></path></g><path fill="#70b9e0" d="m-4.2677 247.0146q50.1924 0 551.2948 0l0 175.8179l-47.4368 0l0.3098 13.6675l-5.8 25.5l-13.5 18.7l-12.9 9.6l-10.4 8.7l-405.2 0l-13.8 -6.2l-14.3 -8.8l-16.4 -20.3l-5.4 -15.5l-1.0297 -25.3675l-5.4381 0l0 -175.8179z"></path><g transform="matrix(0.1634 -0.9866 0.9866 0.1634 -110.8008 591.494)" style="animation-name: eaf-333c-9, eaf-333c-10, eaf-333c-11; animation-composition: replace, add, add;"><path fill="#d1d1d1" d="m332.5 130.4l-17.5 -21.6l-14.2 -11.7l-13 3.8l-5.7 22.9l2 42.5l-7.6 53.7l3.6 12.3l-26.8 28.6c0 0 -26.9 43.5 -26.2 45.8c0.7 2.3 4 32.5 4 32.5l10.8 1.3l34.6 -32.4l-6.8 41.1l6.4 41.8l18.9 53.3l31.1 60.7l41.5 52.3l46.1 -13.4l-27.1 -67.3l56.9 18.5l-21.5 -58.6l-27 -29.7l11.5 -108.3l-10.1 -70.3l-27.4 -58.3l-28.3 -23.9l-8.2 -15.5999z"></path><g><path fill="#fff" d="m0 0l9.093 -16.4948q14.2569 -8.4051 18.9238 -8.6481q4.6669 -0.243 16.0066 0l9.9241 25.1429l5.2222 44.8402l-4.1266 34.0652l-11.0198 48.5998l-8.817 22.1198l-7.1896 20.4802l-6.3665 11.8793l-7.2877 5.1208q-13.5354 -33.7911 -13.5354 -35.6266q0 -1.8354 -4.8566 -23.9735l-5.1421 -21.0462l-1.7925 -29.4538l1.7925 -40.1138l9.1714 -36.8914z" transform="matrix(0.9966 -0.0827 0.0827 0.9966 282.1372 297.9472)"></path><path fill="#555" d="m437 490.1c-16.7 -10.6 -30.8 -16.7 -44.5 -18.7c-3.9 -0.6 -9 -3.7 -11.8 0.1c0.7 2.7 -0.8 5.6 -0.7 8.8c0 5.7 1 14.1 3.3 19.5c2.4 6 4.8 12.1 7.7 17.8c5.2 10 12.7 18.5 17.7 28.4c2.9 5.7 5.2 12.3 8 18.3c1.3 3.1 1.1 6.7 3.5 9.5l0.4 -0.6c-0.3 -2.8 0.9 -5.8 0.7 -8.8c-0.8 -3.4 -1.8 -6.5 -2.7 -9.9c-1.2 -11.9 -4.5 -23.7 -9.2 -34.5c-4 -8.7 -15 -23.9 -13 -33.4c0 0 -0.1 -0.3 -0.2 -0.7c4.9 2.4 11.4 4 16.6 5.4c8.3 2.4 14.6 6.8 23.2 9.3c3.9 1.2 7.9 2.2 11.9 3.1l1.1 -1.9c-1.5 -6.1 -1.2 -12.8 -3.1 -18.8c-5.2 -15.8 -11.6 -31.9 -19.3 -46.9c-4 -8.2 -10.8 -16 -15.6 -23.7c-1.8 -2.8 -5.6 -6 -5.8 -9c-1 -6.9 0.5 -14.3 1.1 -21.5c0.8 -15.3 2.6 -31.7 4.7 -47.2c1.1 -10.5 3.8 -20.2 3.7 -30.6c-0.2 -49 -10.9 -84.9 -34.4 -128.1c-5.2 -9.1 -13.3 -16.6 -21.9 -24.9c-5.2 -3.4 -10.2 -7 -15.3 -10.3c-2.5 -3.5 -3.5 -9.5 -5.3 -13.2c-7.5 -14.8 -28.7 -49.9 -50.6 -33.5c-13.9 10.3 -7.9 32.3 -7.2 42.2c0.7 7 2 15.3 1.3 22.3c-0.7 4.5 -2.5 8.5 -3.3 13.2c-2.2 11.3 -5.2 23.6 -6 34.9c-0.3 5.8 -0.6 12 0 17.8c0.3 3.3 2.6 6.2 1 10.4c-5.5 2.5 -9.5 8.7 -14.4 12.9c-21.9 19.3 -36.7 50.7 -36.4 74.7c0.2 7.3 1.3 23.7 14.7 25.8c11.8 1.9 16.9 -11.4 26 -20.3c2.2 -2.2 2.7 -4.1 5 -5c-0.1 0.2 -0.3 0.4 -0.3 0.4c-0.6 7.7 -1 15.2 -1.8 22.7c0.3 14.3 5.3 31.9 10.5 44.8c2.8 6.8 7.8 21 7.8 21c-0.1 -2.7 -1.5 -4.6 -2.3 -7.1c-1.5 -6.1 -3 -13.3 -3.4 -19.3c-1.8 -17.2 -1.7 -34.9 -0.6 -52.7c0.5 -8.6 1.9 -17.5 3.1 -25.7c0.3 -3.3 2.5 -7.1 1.2 -9.6c-6 2.7 -13 4 -18.8 8.3c-9.5 6.7 -16.6 17.6 -25 28.4c-1 -0.3 -0.4 -0.3 -1.1 -0.1c-5.7 -5.7 -3.9 -14.1 -2.9 -21.6c2.7 -18.8 16 -43.5 31.9 -57.6c4.1 -3.6 18.8 -13.7 18.8 -19.4c1.1 -4.8 -1.7 -9.6 -2.1 -14.2c-0.3 -5.7 -0.3 -12.5 0.5 -18.1c2 -14.9 7.3 -29.5 8.9 -44.6c0.8 -7 -0.3 -15.4 -0.8 -22.6c-0.6 -8.1 -2.6 -14.8 -1.7 -23.5c0.3 -3 1.1 -7.6 4.3 -9.2c1.4 -1.4 2.7 -1.6 4.6 -1c4.1 -0.7 10.2 7 12.2 9.9c5.9 7.9 10.7 14.7 14.6 23.1c1.7 3.9 2.5 9.8 5.6 13.1l4.4 2.7c5.9 5.5 14.1 9 19.3 14.7c9 10.3 16 21.7 21.7 32.8c17.2 34.1 25 72.8 22.6 111.8c-0.4 6.4 -2 11.5 -2.7 17.9c-1.8 13 -2.6 26.9 -4.3 39.7c-1.5 12.6 -3.4 25.3 -2 37.3c0.5 6.3 11.8 16.3 16.1 22c3.1 4.4 8.6 10.1 11 14.7c4.5 8.7 8.7 18.1 12.5 27c1.7999 4.9001 9.1999 16.5001 7.2999 21.1001l0 0l0 0z"></path><path fill="#555" d="m331.5 177.3c-3.6 -2.2 -6.4 -3.2 -9.3 -4.1c0 0 -0.1 0.2 -0.3 0.4l0.4 0.3c-0.3 4.4 1.2 8.5 1.6 12.7c-0.3 4.4 -0.9 8.7 -1.2 13.1c0.3 -0.1 0.7 -0.2 0.7 -0.2c4.2 -0.3 7.7 -2.8 10.8 -7.9c-0.4 -2.2 0.3 -3.8 0.1 -6c0 -2.9 -2.1 -5.6 -2.8 -8.3l0 0l0 0z"></path></g><path fill="#555" d="m0 0q-5.6557 3.8357 -5.6557 4.5875c0 0.7518 -3.5381 12.2395 -3.5381 12.2395q0 0 5.0774 6.8392l7.568 3.4386l2.8656 -9.1486l-1.2852 -10.3965l-5.032 -7.5597z" transform="matrix(0.9966 -0.0827 0.0827 0.9966 384.9431 231.9594)"></path></g></g></g></svg>