<svg xmlns="http://www.w3.org/2000/svg" viewBox="0 0 499.1700134277344 498.3800048828125" overflow="hidden" preserveAspectRatio="xMidYMid meet" id="eaf-cfa3-0"><defs><clipPath id="eaf-cfa3-1"><rect x="0" y="0" width="499.17" height="498.38"></rect></clipPath><radialGradient gradientUnits="userSpaceOnUse" cx="-0.6631" cy="-9.1137" r="95.0486" fx="-0.6631" fy="-9.1137" fr="0" id="eaf-cfa3-3"><stop stop-color="#fff33b" offset="0"></stop><stop stop-color="#ffe029" offset="0.0595"></stop><stop stop-color="#ffd217" offset="0.1303"></stop><stop stop-color="#fec90e" offset="0.2032"></stop><stop stop-color="#fdc70c" offset="0.2809"></stop><stop stop-color="#f3903f" offset="0.6685"></stop><stop stop-color="#ed683c" offset="0.8876"></stop><stop stop-color="#e93e3a" offset="1"></stop></radialGradient><style>#eaf-cfa3-0 * {animation: 11000ms linear infinite normal both running;offset-rotate:0deg}@keyframes eaf-cfa3-4{0%{fill:#fff}55.75%{fill:#fff}61.82%{fill:#ffe7ad}66.66%{fill:#ffe7ad}69.09%,100%{fill:#fff}}@keyframes eaf-cfa3-5{0%,100%{transform:none;offset-path:path("m325.0044 283.8l0 0l-140.6416 -86.6697l0 0l140.6416 86.6697")}}@keyframes eaf-cfa3-6{0%{offset-distance:0%}50%{offset-distance:0%;animation-timing-function:ease-in-out}63.64%{offset-distance:50%}74.25%{offset-distance:50%;animation-timing-function:ease-in-out}80.91%,100%{offset-distance:100%}}@keyframes eaf-cfa3-7{0%,100%{transform:translate(0.0018px,-0.0006px)}}@keyframes eaf-cfa3-8{0%{fill:#fff}9.09%{fill:#fff;animation-timing-function:ease-in-out}18.18%{fill:#f4c14a}74.85%{fill:#f4c14a;animation-timing-function:ease-in-out}81.81%,100%{fill:#fff}}@keyframes eaf-cfa3-9{0%{fill:#fff}20.61%{fill:#fff;animation-timing-function:ease-in-out}29.7%{fill:#ffe9b5}71.82%{fill:#ffe9b5;animation-timing-function:ease-in-out}78.78%,100%{fill:#fff}}@keyframes eaf-cfa3-10{0%{fill:#fff}31.82%{fill:#fff;animation-timing-function:ease-in-out}40.91%{fill:#fffaf0}69.09%{fill:#fffaf0;animation-timing-function:ease-in-out}76.05%,100%{fill:#fff}}@keyframes eaf-cfa3-11{0%,100%{transform:translate(325.0044px,111.1387px)}}@keyframes eaf-cfa3-12{0%{transform:scale(0,0)}41.52%{transform:scale(0,0);animation-timing-function:ease-in-out}46.06%{transform:scale(1,1)}48.48%{transform:scale(1,1);animation-timing-function:ease-in-out}53.03%,100%{transform:scale(0,0)}}@keyframes eaf-cfa3-13{0%,100%{transform:translate(-331.676px,-119.0505px)}}</style></defs><g clip-path="url('#eaf-cfa3-1')" style="isolation: isolate;"><g><g transform="translate(1.0674 -0.9794)"><path fill="#e1f3fd" d="m498.1 249.4c0 62.33 0 124.66 0 186.99c0 28.57 -21.55 54.69 -49.69 60.04c-4.16 0.79 -8.46 1.24 -12.69 1.24c-124.24 0.07 -248.48 0.05 -372.72 0.05c-30.45 0 -57.04 -23.36 -61.03 -53.67c-0.35 -2.67 -0.59 -5.39 -0.59 -8.08c-0.04 -124.55 -0.03 -249.11 -0.03 -373.66c0 -28.58 21.56 -54.7 49.69 -60.04c4.16 -0.79 8.46 -1.24 12.69 -1.24c124.35 -0.06 248.69 -0.05 373.04 -0.05c28.57 0 54.73 21.58 60.04 49.69c0.79 4.16 1.24 8.46 1.24 12.69c0.07 62.01 0.05 124.03 0.05 186.04z"></path></g><g transform="translate(325.0062 283.7994)" style="animation-name: eaf-cfa3-5, eaf-cfa3-6, eaf-cfa3-7; animation-composition: replace, add, add;"><g transform="translate(-178.2832 -199.9336)"><g><path fill="#fff" stroke="#555" stroke-width="14" stroke-miterlimit="10" d="m301.15 93.75c-0.15 -3.04 -1.69 -6.33 -3.44 -8.93c-6.38 -9.47 -16.2 -14.41 -26.33 -18.67c-21.82 -9.18 -44.89 -12.91 -68.26 -14.69c-30.5 -2.33 -60.84 -0.74 -90.73 6.16c-16.39 3.79 -32.38 8.77 -45.99 19.26c-7.29 5.62 -11.61 12.6 -11.2 22.33c0.43 10.26 0.25 20.56 0.05 30.84c-0.13 6.84 2.34 12.39 7.05 17.13c8.57 8.63 19.35 13.41 30.56 17.38c18.74 6.65 38.18 10.03 57.91 11.48c13.6 1 27.27 0.96 40.74 1.39c0.48 -1.09 0.81 -1.53 0.88 -2.02c1.57 -11.5 8.31 -19.66 17.16 -26.38c12.42 -9.43 26.63 -15.28 41.61 -18.8c16.4 -3.85 33.07 -6.53 50.15 -9.82c0 -8.48 0.29 -17.59 -0.16 -26.66z"></path><path fill="#fff" stroke="#555" stroke-width="14" stroke-miterlimit="10" d="m180.68 198.45c-28.62 0.19 -56.91 -2.42 -84.24 -11.34c-16.17 -5.28 -32.21 -11.28 -41.15 -28.43c0 18.85 0.3 37.04 -0.12 55.23c-0.23 9.86 3.9 16.92 11.31 22.68c10.34 8.05 22.31 12.66 34.7 16.26c27.72 8.05 56.13 10.39 84.86 9.93c1.91 -0.03 3.82 -0.2 5.83 -0.31c0 -21.47 0 -42.53 0 -64.02c-3.96 0 -7.57 -0.02 -11.19 0z"></path><path fill="#fff" stroke="#555" stroke-width="14" stroke-miterlimit="10" d="m187.02 284.97c-18.51 0.45 -36.94 -0.35 -55.26 -3.15c-17.51 -2.67 -34.73 -6.51 -50.85 -14.11c-10.44 -4.92 -20.32 -10.66 -25.61 -22.09c0 18.74 0.14 37.48 -0.07 56.22c-0.08 7.28 2.44 13.17 7.56 18.11c8.83 8.52 19.73 13.38 31.12 17.2c29.71 9.96 60.42 12.65 91.53 12.22c2.05 -0.03 4.11 -0.18 6.34 -0.29c0 -21.45 0 -42.6 0 -64.12c-1.71 0.01 -3.24 -0.03 -4.76 0.01z" style="animation-name: eaf-cfa3-4;"></path></g></g></g><g><g><path fill="#555" stroke="#555" stroke-width="18" paint-order="stroke" d="m441.43 137.62c-6.45 -3.29 -13.17 -6.21 -20.01 -8.56c-26.35 -9.03 -53.65 -12.61 -81.37 -13.71c-32.69 -1.29 -65.04 1.1 -96.79 9.27c-16.45 4.23 -32.4 9.8 -46.07 20.4c-8.33 6.46 -13.24 14.4 -12.8 25.51c0.41 10.25 -0.08 20.53 0.13 30.79c-0.03 41.65 -0.16 183.95 0.18 204.16c0.07 3.9 1.76 8.23 3.94 11.55c7.16 10.91 18.38 16.64 29.98 21.44c30.5 12.62 62.7 17.09 95.33 17.53c20.58 0.28 41.26 -1.37 61.78 -3.33c19.99 -1.92 39.47 -6.89 57.89 -15.09c13.57 -6.04 26.35 -13.29 31.99 -28.41c0 -20.26 0 -141.78 0 -196.33c0 -7.86 0 -15.73 0 -23.59c0 -9.09 0 -18.19 0 -27.28c-4.44 -11.74 -13.55 -18.93 -24.18 -24.35zm-243.03 44.39c-0.4 -10 4.03 -17.15 11.53 -22.96c12.31 -9.54 26.67 -14.55 41.48 -18.36c28.58 -7.36 57.7 -9.51 87.13 -8.35c24.95 0.99 49.53 4.22 73.25 12.34c6.17 2.11 12.21 4.74 18.02 7.7c9.58 4.88 17.78 11.35 21.74 21.91c0 15.26 0 30.53 0 45.79c-5.4 13.56 -17.01 20.14 -29.39 25.52c-19.41 8.43 -39.97 12.36 -60.9 14.65c-21.62 2.37 -43.28 2.63 -64.93 0.72c-25.8 -2.27 -51.15 -6.62 -74.64 -18.33c-7.35 -3.66 -14.54 -7.9 -18.91 -15.05c-2.26 -3.7 -3.86 -8.34 -4.08 -12.65c-0.57 -10.96 0.14 -21.97 -0.3 -32.93zm253.15 214.81c-5.08 13.61 -16.58 20.14 -28.79 25.58c-16.59 7.39 -34.12 11.86 -52.12 13.59c-18.47 1.77 -37.08 3.25 -55.61 3c-29.37 -0.4 -58.36 -4.42 -85.82 -15.78c-10.44 -4.32 -20.54 -9.48 -26.98 -19.3c-1.96 -2.99 -3.48 -6.89 -3.54 -10.4c-0.34 -19.94 -0.17 -39.89 -0.16 -59.83c0 -0.33 0.17 -0.65 0.35 -1.33c6.62 14.37 19.45 20.5 32.65 25.77c20.89 8.34 42.87 12.05 65.2 13.87c21.8 1.77 43.58 1.58 65.32 -0.82c19.45 -2.15 38.58 -5.84 56.78 -13.21c13.65 -5.53 26.49 -12.35 32.72 -27.01c0 21.95 0 43.91 0 65.87zm2.21 -89.18c-5.19 14.12 -17.18 20.68 -29.82 26.12c-20.45 8.8 -42.11 12.68 -64.15 14.85c-18.83 1.85 -37.68 2.17 -56.53 0.73c-27.32 -2.08 -54.16 -6.35 -79.09 -18.57c-7.74 -3.79 -15.1 -8.4 -19.72 -15.94c-1.94 -3.17 -3.5 -7.16 -3.56 -10.81c-0.34 -20.07 -0.16 -40.16 -0.16 -60.58c11.74 20.49 32.21 26.37 52.47 31.85c28.74 7.79 58.2 9.72 87.91 8.49c24.01 -0.99 47.66 -4.07 70.59 -11.51c11.49 -3.72 22.84 -8.1 31.76 -16.51c4.15 -3.91 6.92 -9.3 10.31 -14.01c-0.01 21.98 -0.01 43.94 -0.01 65.89z"></path><path fill="#fff" d="m418.82 357.95c-18.2 7.37 -37.33 11.06 -56.78 13.21c-21.74 2.4 -43.52 2.6 -65.32 0.82c-22.33 -1.81 -44.3 -5.53 -65.2 -13.87c-13.2 -5.27 -26.03 -11.4 -32.65 -25.77c-0.19 0.68 -0.35 1 -0.35 1.33c-0.01 19.94 -0.18 39.89 0.16 59.83c0.06 3.51 1.58 7.41 3.54 10.4c6.44 9.82 16.55 14.98 26.98 19.3c27.46 11.36 56.44 15.38 85.82 15.78c18.53 0.25 37.14 -1.23 55.61 -3c17.99 -1.73 35.53 -6.2 52.12 -13.59c12.22 -5.44 23.72 -11.97 28.79 -25.58c0 -21.96 0 -43.92 0 -65.88c-6.22 14.67 -19.06 21.49 -32.72 27.02z" style="animation-name: eaf-cfa3-8;"></path><path fill="#fff" d="m411.7 272.29c-22.93 7.43 -46.58 10.52 -70.59 11.51c-29.71 1.22 -59.17 -0.7 -87.91 -8.49c-20.25 -5.49 -40.72 -11.36 -52.47 -31.85c0 20.42 -0.18 40.51 0.16 60.58c0.06 3.65 1.62 7.64 3.56 10.81c4.62 7.53 11.98 12.14 19.72 15.94c24.93 12.22 51.78 16.49 79.09 18.57c18.85 1.44 37.7 1.12 56.53 -0.73c22.04 -2.17 43.7 -6.05 64.15 -14.85c12.64 -5.44 24.63 -11.99 29.82 -26.12c0 -21.96 0 -43.92 0 -65.88c-3.39 4.72 -6.16 10.1 -10.31 14.01c-8.92 8.4 -20.27 12.77 -31.75 16.5z" style="animation-name: eaf-cfa3-9;"></path><path fill="#fff" d="m198.69 214.93c0.22 4.3 1.82 8.95 4.08 12.65c4.38 7.15 11.57 11.39 18.91 15.05c23.49 11.71 48.84 16.06 74.64 18.33c21.65 1.91 43.31 1.65 64.93 -0.72c20.93 -2.29 41.49 -6.22 60.9 -14.65c12.38 -5.38 23.99 -11.96 29.39 -25.52c0 -15.26 0 -30.53 0 -45.79c-3.97 -10.56 -12.17 -17.03 -21.74 -21.91c-5.81 -2.96 -11.85 -5.59 -18.02 -7.7c-23.72 -8.13 -48.3 -11.36 -73.25 -12.34c-29.43 -1.16 -58.55 0.99 -87.13 8.35c-14.8 3.81 -29.17 8.82 -41.48 18.36c-7.5 5.81 -11.92 12.97 -11.53 22.96c0.45 10.97 -0.26 21.98 0.3 32.93z" style="animation-name: eaf-cfa3-10;"></path></g></g><g transform="matrix(0 0 0 0 325.0044 111.1387)" style="animation-name: eaf-cfa3-11, eaf-cfa3-12, eaf-cfa3-13; animation-composition: replace, add, add;"><path fill="#fff" stroke="#fff" stroke-width="10" stroke-miterlimit="10" d="m88.7071 116.386l-87.3649 -57.8664l-84.6199 61.8111l28.037 -100.9706l-84.9349 -61.3776l104.6927 -4.5369l32.1273 -99.7446l36.6667 98.1667l104.7906 -0.2679l-82.0315 65.2072l32.6369 99.579z" transform="matrix(0.8991 0 0 0.8991 332.6082 136.724)"></path><path fill="url('#eaf-cfa3-3')" paint-order="stroke" d="m61.7473 81.32l-60.8849 -40.4866l-59.1213 43.0211l19.6906 -70.4161l-59.185 -42.9335l73.0544 -3.0329l22.543 -69.5554l25.4595 68.5416l73.1173 -0.0541l-57.3196 45.394l22.646 69.522z" transform="translate(333.3791 136.2156)"></path></g></g></g></svg>