<svg xmlns="http://www.w3.org/2000/svg" viewBox="0 0 500 500" overflow="hidden" preserveAspectRatio="xMidYMid meet" id="eaf-15984-0"><defs><clipPath id="eaf-15984-1"><rect x="0" y="0" width="500" height="500"></rect></clipPath><style>#eaf-15984-0 * {animation: 18733ms linear infinite normal both running;offset-rotate:0deg}@keyframes eaf-15984-2{0%,100%{transform:translate(132.1919px,362.3591px)}}@keyframes eaf-15984-3{0%{transform:rotate(0);animation-timing-function:ease-in-out}8.18%{transform:rotate(49deg);animation-timing-function:ease-in-out}16.01%{transform:rotate(0);animation-timing-function:ease-in-out}24.2%{transform:rotate(49deg);animation-timing-function:ease-in-out}32.03%{transform:rotate(0);animation-timing-function:ease-in-out}40.21%{transform:rotate(49deg);animation-timing-function:ease-in-out}48.04%{transform:rotate(0);animation-timing-function:ease-in-out}56.23%{transform:rotate(49deg);animation-timing-function:ease-in-out}64.06%{transform:rotate(0);animation-timing-function:ease-in-out}72.24%{transform:rotate(49deg);animation-timing-function:ease-in-out}80.07%{transform:rotate(0);animation-timing-function:ease-in-out}88.26%{transform:rotate(49deg);animation-timing-function:ease-in-out}96.09%,100%{transform:rotate(0)}}@keyframes eaf-15984-4{0%,100%{transform:translate(-132.1919px,-362.3591px)}}@keyframes eaf-15984-5{0%,100%{transform:none;offset-path:path("m137.1506 360.8006l0 0l20.7324 -86.9372l0 0l-302.607 0")}}@keyframes eaf-15984-6{0%{offset-distance:0%}66.02%{offset-distance:0%;animation-timing-function:ease-in-out}69.22%{offset-distance:22.8008%}80.07%{offset-distance:22.8008%;animation-timing-function:ease-in-out}83.63%,100%{offset-distance:100%}}@keyframes eaf-15984-7{0%{transform:scale(1,1)}66.02%{transform:scale(1,1);animation-timing-function:ease-in-out}69.22%{transform:scale(1.48,1.48);animation-timing-function:ease-in-out}70.64%,100%{transform:scale(1.317,1.317)}}@keyframes eaf-15984-8{0%,100%{transform:translate(-137.1506px,-360.8006px)}}@keyframes eaf-15984-9{0%{opacity:1}51.25%{opacity:1;animation-timing-function:ease-in-out}51.78%{opacity:0}89.68%{opacity:0;animation-timing-function:ease-in-out}94.66%,100%{opacity:1}}@keyframes eaf-15984-10{0%,100%{transform:none;offset-path:path("m71.4 417.1l0 0l-155.7661 30.4288l0 0l155.7661 -30.4288")}}@keyframes eaf-15984-11{0%{offset-distance:0%}59.96%{offset-distance:0%;animation-timing-function:ease-in-out}64.95%{offset-distance:50%}89.68%{offset-distance:50%;animation-timing-function:ease-in-out}94.66%,100%{offset-distance:100%}}@keyframes eaf-15984-12{0%{transform:rotate(0)}59.96%{transform:rotate(0);animation-timing-function:ease-in-out}64.95%{transform:rotate(-85deg)}89.68%{transform:rotate(-85deg);animation-timing-function:ease-in-out}94.66%,100%{transform:rotate(0)}}@keyframes eaf-15984-13{0%,100%{transform:translate(-71.4px,-417.1px)}}@keyframes eaf-15984-14{0%{opacity:1}59.96%{opacity:1;animation-timing-function:ease-in-out}60.68%{opacity:0}89.68%{opacity:0;animation-timing-function:ease-in-out}94.66%,100%{opacity:1}}@keyframes eaf-15984-15{0%,100%{transform:none;offset-path:path("m236.8 431.6l0 0l93.8671 119.7964l0 0l-93.8671 -119.7964")}}@keyframes eaf-15984-16{0%{transform:rotate(0)}59.96%{transform:rotate(0);animation-timing-function:ease-in-out}64.95%{transform:rotate(96deg)}89.68%{transform:rotate(96deg);animation-timing-function:ease-in-out}94.66%,100%{transform:rotate(0)}}@keyframes eaf-15984-17{0%,100%{transform:translate(-236.8px,-431.6px)}}@keyframes eaf-15984-18{0%{opacity:1}32.56%{opacity:1;animation-timing-function:ease-in-out}33.1%{opacity:0}89.68%{opacity:0;animation-timing-function:ease-in-out}94.66%,100%{opacity:1}}@keyframes eaf-15984-19{0%{opacity:1}12.99%{opacity:1;animation-timing-function:ease-in-out}13.88%{opacity:0}89.68%{opacity:0;animation-timing-function:ease-in-out}94.66%,100%{opacity:1}}@keyframes eaf-15984-20{0%{opacity:1}4.63%{opacity:1;animation-timing-function:ease-in-out}5.51%{opacity:0}89.68%{opacity:0;animation-timing-function:ease-in-out}94.66%,100%{opacity:1}}@keyframes eaf-15984-21{0%{opacity:1}41.28%{opacity:1;animation-timing-function:ease-in-out}41.81%{opacity:0}89.68%{opacity:0;animation-timing-function:ease-in-out}94.66%,100%{opacity:1}}@keyframes eaf-15984-22{0%{opacity:1}20.82%{opacity:1;animation-timing-function:ease-in-out}21.53%{opacity:0}89.68%{opacity:0;animation-timing-function:ease-in-out}94.66%,100%{opacity:1}}@keyframes eaf-15984-23{0%,100%{transform:none;offset-path:path("m549.2707 344.96l-49.2707 -68.86l49.2707 68.86l-49.2707 -68.86l49.2707 68.86l0 0l5.4495 -89.5382l-5.4495 89.5382l0 0l-49.2707 -68.86l-5.8176 48.8923l5.8176 -48.8923l-79.0139 -22.9362l-44.7344 -26.872l44.7344 26.872l0 0l-78.2655 86.0362l0 0l206.55 5.76")}}@keyframes eaf-15984-24{0%{offset-distance:0%;animation-timing-function:ease-in}4.27%{offset-distance:6.9929%;animation-timing-function:cubic-bezier(0,0,0.58,1)}8.72%{offset-distance:13.9858%;animation-timing-function:ease-in}12.99%{offset-distance:20.9787%;animation-timing-function:cubic-bezier(0,0,0.58,1)}17.43%{offset-distance:27.9716%}17.44%{offset-distance:27.9716%;animation-timing-function:ease-in}20.82%{offset-distance:35.3801%;animation-timing-function:cubic-bezier(0,0,0.58,1)}27.58%{offset-distance:42.7886%}28.29%{offset-distance:42.7886%;animation-timing-function:ease-in}32.56%{offset-distance:49.7814%;animation-timing-function:cubic-bezier(0,0,0.58,1)}37.01%{offset-distance:53.8479%;animation-timing-function:ease-in}41.28%{offset-distance:57.9143%;animation-timing-function:cubic-bezier(0,0,0.58,1)}45.37%{offset-distance:64.7093%;animation-timing-function:ease-in}51.25%{offset-distance:69.0191%;animation-timing-function:cubic-bezier(0,0,0.58,1)}56.58%{offset-distance:73.329%}59.96%{offset-distance:73.329%;animation-timing-function:cubic-bezier(0,0,0.58,1)}63.35%{offset-distance:82.9348%}85.05%{offset-distance:82.9348%;animation-timing-function:ease-in}90.93%,100%{offset-distance:100%}}@keyframes eaf-15984-25{0%{transform:rotate(44deg);animation-timing-function:ease-in}4.27%{transform:rotate(0);animation-timing-function:cubic-bezier(0,0,0.58,1)}8.72%{transform:rotate(44deg);animation-timing-function:ease-in}12.99%{transform:rotate(0);animation-timing-function:cubic-bezier(0,0,0.58,1)}17.43%{transform:rotate(44deg)}17.44%{transform:rotate(44deg);animation-timing-function:ease-in}20.82%{transform:rotate(-22deg);animation-timing-function:cubic-bezier(0,0,0.58,1)}27.58%{transform:rotate(44deg)}28.29%{transform:rotate(44deg);animation-timing-function:ease-in}32.56%{transform:rotate(-2deg)}32.56%{transform:rotate(-2deg);animation-timing-function:cubic-bezier(0,0,0.58,1)}37.01%{transform:rotate(28deg);animation-timing-function:ease-in}41.28%{transform:rotate(-16deg);animation-timing-function:cubic-bezier(0,0,0.58,1)}45.37%{transform:rotate(18deg);animation-timing-function:ease-in}51.25%{transform:rotate(-11deg);animation-timing-function:cubic-bezier(0,0,0.58,1)}56.58%{transform:rotate(18deg);animation-timing-function:ease-in}59.96%{transform:rotate(-20deg);animation-timing-function:cubic-bezier(0,0,0.58,1)}63.35%{transform:rotate(45deg)}85.05%{transform:rotate(45deg);animation-timing-function:ease-in}89.86%,100%{transform:rotate(44deg)}}@keyframes eaf-15984-26{0%,100%{transform:translate(-500px,-276.1px)}}@keyframes eaf-15984-27{0%,100%{transform:none;offset-path:path("m192.3 238.2l0 0l-107.2 31l0 0l37.9271 62.991")}}@keyframes eaf-15984-28{0%{offset-distance:0%}45.02%{offset-distance:0%}45.55%{offset-distance:60.281%}56.76%{offset-distance:60.281%}58.01%,100%{offset-distance:100%}}@keyframes eaf-15984-29{0%{transform:scale(0.3589,0.3589)}5.34%{transform:scale(0.3589,0.3589)}9.43%{transform:scale(1.0958,1.0958)}12.81%{transform:scale(0.3589,0.3589)}16.91%{transform:scale(1.0958,1.0958)}20.82%{transform:scale(0.3589,0.3589)}26.16%{transform:scale(1.0958,1.0958)}32.56%{transform:scale(0.3589,0.3589)}37.54%{transform:scale(1.0958,1.0958)}41.28%{transform:scale(0.3589,0.3589)}45.02%{transform:scale(1.0958,1.0958)}51.42%{transform:scale(0.3589,0.3589)}56.76%{transform:scale(1.0958,1.0958)}58.72%{transform:scale(1.0958,1.0958)}59.96%{transform:scale(0.3589,0.3589)}64.95%,100%{transform:scale(1.0958,1.0958)}}@keyframes eaf-15984-30{0%,100%{transform:translate(-192.3px,-238.2px)}}@keyframes eaf-15984-31{0%{opacity:0}4.27%{opacity:0}4.63%{opacity:1}7.12%{opacity:1}9.43%{opacity:0}12.81%{opacity:0}13.17%{opacity:1}15.66%{opacity:1}16.91%{opacity:0}20.82%{opacity:0}21%{opacity:1}24.02%{opacity:1}26.16%{opacity:0}32.39%{opacity:0}32.56%{opacity:1}35.23%{opacity:1}37.54%{opacity:0}40.93%{opacity:0}41.28%{opacity:1}43.6%{opacity:1}45.02%{opacity:0}51.07%{opacity:0}51.78%{opacity:1}54.98%{opacity:1}56.76%{opacity:0}59.79%{opacity:0}60.32%{opacity:1}62.63%{opacity:1}64.95%,100%{opacity:0}}</style></defs><g clip-path="url('#eaf-15984-1')" style="isolation: isolate;"><g><g transform="matrix(4 0 0 4 -827.28 -2254.5264)"><path fill="#e1f3fd" d="m331.8 626.1c0 15.6 0 31.3 0 46.9c0 7.2 -5.4 13.7 -12.5 15.1c-1 0.2 -2.1 0.3 -3.2 0.3c-31.2 0 -62.4 0 -93.6 0c-7.6 0 -14.3 -5.9 -15.3 -13.5c-0.1 -0.7 -0.1 -1.4 -0.1 -2c0 -31.3 0 -62.5 0 -93.8c0 -7.2 5.4 -13.7 12.5 -15.1c1 -0.2 2.1 -0.3 3.2 -0.3c31.2 0 62.4 0 93.6 0c7.2 0 13.7 5.4 15.1 12.5c0.2 1 0.3 2.1 0.3 3.2c0 15.6 0 31.1 0 46.7z"></path></g><g transform="translate(0 0)" style="animation-name: eaf-15984-5, eaf-15984-6, eaf-15984-7, eaf-15984-8; animation-composition: replace, add, add, add;"><path fill="#f4b526" d="m35.2 360.9c-0.3 -56 45.3 -101.6 101.9 -101.9c55.9 -0.3 101.6 45 102 101c0.4 56.3 -45.1 102.3 -101.2 102.6c-56.7 0.4 -102.4 -45 -102.7 -101.7z"></path><path fill="#555" d="m170.2 331.5c5 0.8 9.3 -1.3 13.9 -0.4c19.2 3.7 30.9 31.3 20.6 48.4c-4.9 8.1 -11.6 14.1 -19.2 19.3c-3.3 2.3 -4.1 4.2 -1.5 7.7c3.1 4.2 5.5 8.9 8.3 13.4c1.9 2.9 1.9 5 -1.4 6.6c-1.8 0.9 -3.6 2 -5.2 3.3c-3.5 2.7 -5.5 1.8 -7.4 -1.9c-2.4 -4.6 -5.6 -8.9 -7.9 -13.5c-3.1 -6 -5.9 -1.3 -8.8 -0.3c-4 1.4 -4 3.6 -1.8 6.8c2 2.9 3.7 6.3 5.6 9.3c5.1 8.2 3.2 12.7 -6.1 15.5c-2.9 0.9 -3.7 -0.9 -4.7 -2.7c-2.8 -4.7 -5.8 -9.3 -8.4 -14.1c-2 -3.6 -4.1 -4.1 -7.7 -1.7c-5.9 4 -12.1 7.4 -18.2 11.1c-2.9 1.9 -5 1.8 -6 -2c-0.4 -1.5 -1.2 -3.1 -1.9 -4.5c-3.2 -6 -4 -10.7 4.2 -13.5c5.2 -1.8 6.3 -6 3.2 -11.1c-11.2 -18.5 -22.2 -37.3 -33.5 -55.9c-3.8 -6.3 -7 -6.6 -14.6 -2.9c-2.7 1.4 -5.4 5.5 -8.3 3.5c-3.7 -2.6 -5.5 -7.2 -7.3 -11.4c-1 -2.4 1.3 -3.1 2.7 -4c5.9 -3.6 11.5 -7.5 17.6 -10.5c5.4 -2.6 5 -5.4 2.2 -9.5c-2.6 -3.7 -4.7 -7.8 -7.3 -11.6c-2 -3.1 -2.2 -5.4 1.7 -7c1.7 -0.8 3.1 -1.9 4.6 -3.1c3.2 -2.6 5.5 -2.3 7.5 1.7c2.4 4.7 5.4 9.1 7.9 13.7c2.2 4.1 4.6 2.4 7.2 0.5c2.3 -1.7 6.6 -2.2 3.7 -6.8c-2.7 -4.2 -4.7 -8.9 -7.8 -12.9c-5.4 -7.2 2.2 -7.5 5.1 -10.1c3.6 -3.1 6.6 -3.1 8.9 2c1.9 4.3 5.1 8.2 7.2 12.5c1.9 3.8 4.1 4.1 7.7 2.3c7.5 -3.6 15.5 -6.3 23.8 -5.1c17.9 2.6 27.1 19.2 21.4 38.9zm8.3 39.3c0.1 -9.7 -7.5 -16.1 -17.1 -14.8c-11 1.5 -19.9 7.7 -29.1 13.2c-1.9 1 -1.8 2.4 -0.8 4c4.9 8.1 9.7 16.1 14.4 24.2c1.3 2.2 2.8 2.8 5 1.3c7.4 -5 15.5 -9.1 21.5 -15.7c3.3 -3.9 5.6 -8.2 6.1 -12.2zm-31.6 -39.5c0 -8.1 -8.4 -14.7 -17.1 -12.9c-4.3 0.9 -8.7 2.7 -12.8 4.6c-11.9 5.9 -11.9 6 -5.4 17.4c0.5 1 1 2 1.5 3.1c8.4 14.6 10.6 15 23.8 3.6c5 -4.5 9.8 -8.7 10 -15.8z" style="animation-name: eaf-15984-2, eaf-15984-3, eaf-15984-4; animation-composition: replace, add, add;"></path></g><g><polygon points="19.9,298.9 46.9,262.3 78.9,253.2 111.9,276.1 100.9,298.9 126.9,334.2 73.4,355.9 32.9,348.2 19.9,304.6" fill="#8e9191" style="animation-name: eaf-15984-9;"></polygon><polygon points="32.9,348.2 19.9,383.2 10.9,392.5 19.9,445.2 64.9,486 117.9,466.2 131.9,475.2 115.9,399.2 73.4,355.9" fill="#555" transform="translate(0 0)" style="animation-name: eaf-15984-10, eaf-15984-11, eaf-15984-12, eaf-15984-13; animation-composition: replace, add, add, add;"></polygon><polygon points="73.4,355.9 115.9,399.2 131.9,475.2 170.9,486 200.9,454.2 200.9,392.5 177.9,348.2 146.9,319.3 126.9,334.2" fill="#757575" style="animation-name: eaf-15984-14;"></polygon><polygon points="188.7,467.1 213.9,486 259.9,476.6 271.9,449.4 284.9,417.1 275.9,383.2 221.9,377.2 200.9,392.5" fill="#8e9191" transform="translate(0 0)" style="animation-name: eaf-15984-15, eaf-15984-11, eaf-15984-16, eaf-15984-17; animation-composition: replace, add, add, add;"></polygon><polygon points="111.9,276.1 137.2,253.2 164.9,243.2 209.9,269.2 241.9,329.2 195.9,348.2 177.9,348.2 146.9,319.3 126.9,334.2 100.9,298.9" fill="#555" style="animation-name: eaf-15984-18;"></polygon><polygon points="46.9,262.3 105.9,210.2 177.9,217.2 209.9,269.2 164.9,243.2 111.9,276.1 78.9,253.2" fill="#8e9191" style="animation-name: eaf-15984-19;"></polygon><polygon points="177.9,238.2 218.9,225.7 279.9,253.2 284.9,292.2 267.9,334.2 241.9,329.2 204.9,276.1 177.9,243.2" fill="#757575" style="animation-name: eaf-15984-20;"></polygon><polygon points="177.9,348.2 200.9,392.5 217,380.8 275.9,383.2 284.9,339.2 267.9,334.2 241.9,329.2" fill="#c9c9c9" style="animation-name: eaf-15984-21;"></polygon><path fill="#bcbcbc" d="m272.2 280.8l59 71.7l0 43.4l-39 71.9l-30.9 6.6l-20.1 -31.7c0 0 0 -83.3 -2.5 -83.5c-2.5 -0.4 33.5 -78.4 33.5 -78.4z" style="animation-name: eaf-15984-22;"></path></g><g transform="matrix(0.7193 0.6947 -0.6947 0.7193 381.396 -200.9789)" style="animation-name: eaf-15984-23, eaf-15984-24, eaf-15984-25, eaf-15984-26; animation-composition: replace, add, add, add;"><path fill="#e1f3fd" d="m557.6 384.6l-1.1 -0.2c-14.9 -2.8 -24.3 -12.3 -32.6 -20.7l-1.2 -1.2c-33.5 -33.6 -67.1 -67.3 -100.6 -100.9c-33.6 -33.6 -67.1 -67.2 -100.7 -100.9c-3.3 1.5 -6.9 2.4 -10.5 2.4c-3.3 0 -6.6 -0.7 -9.7 -2c-26.3 29 -51.4 59.5 -74.8 90.6c-5.9 7.9 -12.6 9.6 -17.2 9.6c-2.6 0 -5.3 -0.6 -7.9 -1.6c-8.8 -3.7 -13.5 -12.1 -12.4 -22.5c2.2 -22.6 6.8 -44.3 13.5 -64.3c1.2 -3.5 3.7 -11 12 -13.5c-2.8 -5.1 -2.8 -11.2 0 -17.3c7 -15.1 15 -29.4 23.9 -42.6c-6.8 -10.8 -5.2 -23.5 4.5 -33.4c16.6 -16.7 33.1 -33.2 49 -49.1c5.5 -5.5 12.4 -8.5 19.4 -8.5c4.9 0 9.6 1.4 13.9 4.1c35.6 -23.9 74.6 -39.6 115.9 -46.6c2.3 -0.4 4.5 -0.6 6.6 -0.9c3.3 -0.4 6.5 -0.7 9 -1.6l1.8 -0.6l14.5 0l3.2 2.5c6.9 5.3 10.4 11.4 10.4 18c0 6.7 -3.7 12.8 -10.8 18.2c-30.4 23 -60.4 47.9 -89.4 74.1c2.8 6.6 2.8 13.9 -0.1 20.3c46.6 46.7 93.9 94 139.7 139.9l18.8 18.9c4.2 4.2 7.7 9 6.8 16.1c0.6 -0.1 1.1 -0.1 1.7 -0.1c3.5 0 8.6 1.1 13.7 6.2c7 7.1 14.2 14.3 21.2 21.3c2.7 2.7 5.3 5.3 8 8c4.7 4.7 8.3 10.2 10.5 16.3l2.9 1l0 31.7l-3.5001 0.7c-4.8 11.8 -13.4 20.4 -25.3 25.2l-0.7 3.4l-22.4 0zm-164.3 -202.1c53.9 54 107.9 108.1 161.8 162.1c3.9 3.9 6.6 4.4 8.3 4.4c1.2 0 2.6 -0.3 4.1 -0.8c4.6 -1.7 7 -6.9 6 -10.3l-0.3 -1.2l-0.1 -1.2c0 -0.5 -0.1 -1.7 -2.9 -4.5c-4.6 -4.6 -9.1 -9.2 -13.7 -13.7c-4.9 -4.9 -9.8 -9.9 -14.8 -14.8c-4.9 -4.9 -7 -10 -6.3 -15.4c-0.6 0.1 -1.1 0.1 -1.7 0.1c-7.3 0 -12.1 -4.9 -14.2 -7l-25.7 -25.8c-43.1 -43.1 -87.5 -87.7 -131.3 -131.7c-3.3 3.4 -6.6 6.8 -9.9 10c-1.5 1.5 -3 3 -4.5 4.5l45.2 45.3zm-157.7 -14.6c2 3.8 2.5 8.1 1.5 12.8c10.8 -12.8 21.9 -26 33.4 -38.7c1 -1.1 3.8 -4.2 4.1 -4.6c-2.2 -2.1 -4.3 -4.3 -6.4 -6.3c-1.5 -1.5 -3 -3 -4.6 -4.5l-0.3 -0.3c-5.4 8.7 -10.6 18.1 -15.3 28c-0.2 0.4 -0.4 0.8 -0.5 1.1c-0.3 0.7 -0.7 1.4 -1 2.1c-2.7 5.5 -6.4 8.9 -10.9 10.4zm38.1 -82c9.9 10 20.1 20.1 29.9 30l7.5 7.5l5.6 -5.5c5 -4.9 9.9 -9.8 14.9 -14.7c3.3 -3.3 6.7 -6.7 10 -10c2.4 -2.4 4.9 -4.9 7.3 -7.3c-13.5 -13.6 -25.9 -26 -37.7 -37.9c-9.2 9.3 -18.4 18.6 -27.7 27.9l-9.8 10zm79.6 -46.4c3.1 3.1 6.3 6.3 9.4 9.6c15.1 -13.7 29.3 -26.1 43.1 -37.5c-5.1 1.8 -10.4 3.9 -16.2 6.3c-12.8 5.4 -25.6 12 -38 19.9c0.5 0.6 1.1 1.2 1.7 1.7z"></path><path fill="#555" d="m597.4 345.4c-1 0.2 -0.9 1.2 -1.1 1.8c-3.6 12.6 -11.7 20.6 -24.2 24.3c-0.7 0.2 -1.6 0 -1.8 1.1c-3.9 0 -7.7 0 -11.6 0c-11.8 -2.2 -19.5 -10.5 -27.5 -18.5c-68.4 -68.7 -136.9 -137.3 -205.4 -205.9c-2.3 -2.3 -3.5 -2.7 -6.1 -0.4c-5.2 4.5 -12.2 4.6 -17.3 0c-2.9 -2.6 -3.9 -1.4 -5.8 0.7c-28.1 30.7 -54.6 62.7 -79.7 96c-3.4 4.5 -6.9 5.8 -10.9 4.1c-4 -1.6 -5.6 -5 -5.1 -10.2c2.1 -21 6.2 -41.6 12.9 -61.7c1.9 -5.6 2.9 -6.4 8.6 -6c3.4 2.3 3.9 5.3 2.6 9.1c-5 14.8 -8.5 29.9 -10.8 45.4c-0.2 1 -0.2 2 -0.4 4c8.2 -10.5 15.8 -20.2 23.5 -30c13.9 -16.5 27.6 -33.1 42.1 -49.1c3.5 -3.8 6.9 -7.7 10.4 -11.5c1 -1.1 1.4 -1.8 0.1 -3.1c-6 -5.8 -12 -11.8 -17.9 -17.6c-3.6 -3.3 -7.1 -6.6 -10.8 -10c-9.1 12.8 -17 26.7 -24 41.3c-0.5 1 -1 2.1 -1.5 3.1c-2.1 4.3 -4 5.1 -8.7 3.8c-3.1 -2.5 -3.4 -5.3 -1.8 -8.9c7.4 -16 16 -31.2 26.1 -45.6c1.4 -2 1.6 -3.1 -0.3 -5.1c-6.8 -7 -6.6 -15 0.2 -21.9c16.3 -16.4 32.6 -32.8 49 -49.1c6.3 -6.3 14.4 -6.8 21 -0.7c2.5 2.3 4 2.2 6.6 0.4c34.9998 -24.2 73.2999 -40.2 115.1999 -47.3c5.7 -1 11.6 -1.1 17.2 -2.8c2.8 0 5.7 0 8.5 0c7.7 5.9 7.6 11.1 -0.3 17.1c-33.1 25 -64.9 51.6 -95.5 79.7c-1.7 1.5 -2.3 2.4 -0.4 4.4c4.9 5.5 5.3 13 0.6 18.4c-2.5 2.9 -1.4 4 0.6 6c54.2 54.2 108.3 108.5 162.5 162.8c4 4 4.3 5.3 2.2 9.8c-4.2 2.9 -6.2 2.6 -10.3 -1.5c-54.1001 -54.4 -108.2001 -108.5 -162.2001 -162.8c-2.9 -3 -4.4 -2.7 -7.1 0.1c-6.7 7.2 -13.7 14.1 -20.6 21.1c-7.7 6.3 -7.7 6.3 -0.9 13.1c69.8 69.9 139.5 139.8 209.3 209.7c7.1 7.2 15.3 9.9 25 6.3c10.2 -3.7 16.2 -15.1 13.4 -24.9c-0.4 -4.9 -3 -8.7 -6.3 -12c-9.5 -9.5 -19 -19 -28.5 -28.5c-3.7 -3.7 -3.8 -5.6 -1 -9.8c3.4 -2.2 6.2 -1.5 8.9 1.3c9.7 9.8 19.5 19.6 29.2 29.3c4.2 4.2 7.1 9.1 8.7 14.8c0.2 0.9 0 2.2 1.2 2.6c0.2 4.5 0.2 8.9 0.2 13.3zm-174.1 -351.3c-1.4 0.2 -2.8 0.3 -4.1 1.1c-11.8 2.6 -23.1 7 -34.2 11.6c-17.6 7.4 -34.2 16.6 -49.9 27.4c-0.7 0.5 -1.4 1.1 -2.2 1.7c1.8 2.2 3.6 4.1 5.8 5.8c7.4 7.5 14.9 15 22.2 22.6c2.1 2.2 2.9 0 3.9 -0.9c17.2 -15.8 34.8 -31.2 52.8 -46c11.9 -9.7 23.9 -19.2 36.6 -29.4c-10.5 1.3 -20.1 3 -29.5 5.7c-0.4999 0.2 -0.9999 0.3 -1.4 0.4zm-83.3 117.5c7.5 -7.5 14.9 -15 22.5 -22.4c2 -2 2.9 -3.8 0.6 -6.2c-16.3 -16.3 -32.7 -32.7 -49 -49.1c-2 -2 -3.8 -1.8 -5.7 0c-14.5 14.5 -29 29.1 -43.4 43.6c-0.2 0.1 -0.5 0.2 -0.7 0.4c-9.2 9.1 -8.1 7.4 -0.3 15.3c14.2 14.3 28.4 28.5 42.7 42.8c4.2 4.2 4.7 4.3 9 -0.1c1 -1 1.9 -2.1 2.8 -3.1c7.2 -7.1 14.3 -14.1 21.5 -21.2z"></path><path fill="#bcbcbc" d="m271.9 117.9c-3.6 -3.3 -7.1 -6.6 -10.8 -10c-9.1 12.8 -17 26.7 -24 41.3c-0.5 1 -1 2.1 -1.5 3.1c-2.1 4.3 -4 5.1 -8.7 3.8c-0.5 3.8 -2.7 6.9 -3.7 10.5c-0.4 1.4 -0.6 2.7 -1 4.1c3.4 2.3 3.9 5.3 2.6 9.1c-5 14.8 -8.5 29.9 -10.8 45.4c-0.2 1 -0.2 2 -0.4 4c8.2 -10.5 15.8 -20.2 23.5 -30c-0.1 -1.3 -0.1 -2.5 0.3 -3.8c2.2 -7.8 4.5 -15.5 7.2 -23.2c5.9 -16.7 13.5 -32.5 22.3 -47.8c1.3 -2.3 2 -5.4 5 -6.5z"></path><path fill="#f7e79c" d="m538.4 273.2c-4.2 2.9 -6.2 2.6 -10.3 -1.5c-54.1 -54.3 -108.2 -108.4 -162.2 -162.7c-2.9 -3 -4.4 -2.7 -7.1 0.1c-6.7 7.2 -13.7 14.1 -20.6 21.1c2.2 0.1 3.3 1.9 4.6 3.2c67.2 67.3 134.5 134.6 201.5 202.1c8.6 8.7 25.5 10.1 34.9 3.3c1.9 -1.4 3.1 -3.9 5.8 -4.2c-0.4 -4.9 -3 -8.7 -6.3 -12c-9.5 -9.5 -19 -19 -28.5 -28.5c-3.7 -3.7 -3.8 -5.6 -1 -9.8c-3.9 -3.4 -7.6 -7.1 -10.8 -11.1z"></path><path fill="#f4b526" d="m318.5 132.8c7.2 -7.1 14.3 -14.1 21.5 -21.2c7.5 -7.5 14.9 -15 22.5 -22.4c2 -2 2.9 -3.8 0.6 -6.2c-16.3 -16.3 -32.7 -32.7 -49 -49.1c-2 -2 -3.8 -1.8 -5.7 0c-14.5 14.5 -29 29.1 -43.4 43.6c0.2 1.6 1 2.9 2.1 4c17.1 17.1 34.3 34.2 51.4 51.3z"></path><path fill="#b5a76b" d="m585.1 334.5c-2.7 0.3 -3.9 2.8 -5.8 4.2c-9.4 6.8 -26.3 5.4 -34.9 -3.3c-67 -67.5 -134.3 -134.7 -201.5 -202.1c-1.3 -1.3 -2.4 -3.2 -4.6 -3.2c-7.7 6.3 -7.7 6.3 -0.9 13.1c69.8 69.9 139.5 139.8 209.3 209.7c7.1 7.2 15.3 9.9 25 6.3c10.1 -3.6 16.2001 -14.9 13.4 -24.7z"></path><path fill="#fff" d="m338.6 41.8c7.4 7.5 14.9 15 22.2 22.6c2.1 2.2 2.9 0 3.9 -0.9c17.2 -15.8 34.8 -31.2 52.8 -46c11.9 -9.7 23.9 -19.2 36.6 -29.4c-10.5 1.3 -20.1 3 -29.5 5.7c-0.5 0.1 -0.9 0.2 -1.4 0.4c-1.4 0.2 -2.8 0.3 -4.1 1.1c-0.1 1.6 -1.5 1.6 -2.5 1.9c-28.2 10.8 -54.3 25.5 -78 44.6z"></path><path fill="#fff" d="m271.9 117.9c-3.1 1.1 -3.7 4.2 -5 6.5c-8.7 15.3 -16.4 31.1 -22.3 47.8c-2.7 7.6 -5 15.4 -7.2 23.2c-0.4 1.3 -0.4 2.5 -0.3 3.8c13.9 -16.5 27.6 -33.1 42.1 -49.1c3.5 -3.8 6.9 -7.7 10.4 -11.5c1 -1.1 1.4 -1.8 0.1 -3.1c-5.9 -5.8 -11.8 -11.7 -17.8 -17.6z"></path><path fill="#b7892c" d="m318.5 132.8c-17.1 -17.1 -34.3 -34.2 -51.4 -51.2c-1.1 -1.1 -1.9 -2.4 -2.1 -4c-0.2 0.1 -0.5 0.2 -0.7 0.4c-9.2 9.1 -8.1 7.4 -0.3 15.3c14.2 14.3 28.4 28.5 42.7 42.8c4.2 4.2 4.7 4.3 9 -0.1c1 -1.1 1.9 -2.2 2.8 -3.2z"></path><path fill="#bcbcbc" d="m338.6 41.8c23.6 -19 49.8 -33.7 78.1 -44.6c1 -0.4 2.5 -0.3 2.5 -1.9c-11.8 2.6 -23.1 7 -34.2 11.6c-17.6 7.4 -34.2 16.6 -49.9 27.4c-0.7 0.5 -1.4 1.1 -2.2 1.7c1.7 2.2 3.6 4.1 5.7 5.8z"></path></g><g transform="matrix(0.3589 0 0 0.3589 123.2824 152.7087)" opacity="0" style="animation-name: eaf-15984-27, eaf-15984-28, eaf-15984-29, eaf-15984-30, eaf-15984-31; animation-composition: replace, add, add, add, replace;"><polygon points="204.8,114 217,137 247.4,131 255.2,105 230,83" fill="#555" stroke="#8e9191" stroke-width="18" paint-order="stroke" transform="translate(-46 64.8828)"></polygon><polygon points="258,150 293.7,133 316,158 310,173 274,173" fill="#555" stroke="#8e9191" stroke-width="18" paint-order="stroke" transform="translate(11.921 57.2)"></polygon><polygon points="340,183.5 348,211 372,183.5 364,163.2" fill="#555" stroke="#8e9191" stroke-width="18" paint-order="stroke" transform="translate(13.1873 38.6)"></polygon><path fill="#555" stroke="#8e9191" stroke-width="18" paint-order="stroke" d="m287 77c2 0 8 25 14 25c6 0 25 -19 25 -19l-4 -13.3l-6 -14.7l-22.3 0l-6.7 22z" transform="translate(-117.8 9.1724)"></path></g></g></g></svg>