<svg xmlns="http://www.w3.org/2000/svg" viewBox="0 0 500 500" overflow="hidden" preserveAspectRatio="xMidYMid meet" id="eaf-13540-0"><defs><clipPath id="eaf-13540-1"><rect x="0" y="0" width="500" height="500"></rect></clipPath><style>#eaf-13540-0 * {animation: 16000ms linear infinite normal both running;offset-rotate:0deg}@keyframes eaf-13540-2{0%,100%{transform:none;offset-path:path("m-1591.5435 327.9972l2789.0451 0")}}@keyframes eaf-13540-3{0%{offset-distance:0%}100%{offset-distance:100%}}@keyframes eaf-13540-4{0%,100%{transform:translate(197.2499px,-166.45px)}}@keyframes eaf-13540-5{0%,100%{transform:translate(206.7862px,233.566px)}}@keyframes eaf-13540-6{0%{transform:rotate(0);animation-timing-function:ease-in-out}6.46%{transform:rotate(5deg);animation-timing-function:ease-in-out}20.83%{transform:rotate(-4deg);animation-timing-function:ease-in-out}42.29%{transform:rotate(4deg);animation-timing-function:ease-in-out}52.5%{transform:rotate(-4deg);animation-timing-function:ease-in-out}74.48%{transform:rotate(4deg);animation-timing-function:ease-in-out}84.58%{transform:rotate(-5deg);animation-timing-function:ease-in-out}100%{transform:rotate(0)}}@keyframes eaf-13540-7{0%,100%{transform:translate(-206.7862px,-233.566px)}}@keyframes eaf-13540-8{0%,100%{transform:none;offset-path:path("m262.2 374.7001l7.2929 -21.4451l-30.6263 17.9403l36.3525 15.56l-33.1585 -36.1471l1.4162 -1.6248l30.4486 12.9904l-38.0821 26.042l26.3567 -13.3158")}}@keyframes eaf-13540-9{0%{offset-distance:0%;animation-timing-function:ease-in-out}13.86%{offset-distance:8.791%;animation-timing-function:ease-in-out}26.88%{offset-distance:22.5663%;animation-timing-function:ease-in-out}36.25%{offset-distance:37.913%;animation-timing-function:ease-in-out}47.71%{offset-distance:56.9502%;animation-timing-function:ease-in-out}65.31%{offset-distance:57.7867%;animation-timing-function:ease-in-out}76.77%{offset-distance:70.6345%;animation-timing-function:ease-in-out}85.42%{offset-distance:88.5396%;animation-timing-function:ease-in-out}100%{offset-distance:100%}}@keyframes eaf-13540-10{0%{transform:rotate(0);animation-timing-function:ease-in-out}6.25%{transform:rotate(-5deg);animation-timing-function:ease-in-out}18.75%{transform:rotate(5deg);animation-timing-function:ease-in-out}31.25%{transform:rotate(-5deg);animation-timing-function:ease-in-out}43.75%{transform:rotate(5deg);animation-timing-function:ease-in-out}56.25%{transform:rotate(-5deg);animation-timing-function:ease-in-out}68.75%{transform:rotate(5deg);animation-timing-function:ease-in-out}81.25%{transform:rotate(-5deg);animation-timing-function:ease-in-out}93.75%{transform:rotate(5deg);animation-timing-function:ease-in-out}100%{transform:rotate(0)}}@keyframes eaf-13540-11{0%,100%{transform:translate(-262.2px,-374.7001px)}}</style></defs><g clip-path="url('#eaf-13540-1')" style="isolation: isolate;"><g><g transform="matrix(4 0 0 4 -827.28 -2254.5264)"><path fill="#e1f3fd" d="m331.8 626.1c0 15.6 0 31.3 0 46.9c0 7.2 -5.4 13.7 -12.5 15.1c-1 0.2 -2.1 0.3 -3.2 0.3c-31.2 0 -62.4 0 -93.6 0c-7.6 0 -14.3 -5.9 -15.3 -13.5c-0.1 -0.7 -0.1 -1.4 -0.1 -2c0 -31.3 0 -62.5 0 -93.8c0 -7.2 5.4 -13.7 12.5 -15.1c1 -0.2 2.1 -0.3 3.2 -0.3c31.2 0 62.4 0 93.6 0c7.2 0 13.7 5.4 15.1 12.5c0.2 1 0.3 2.1 0.3 3.2c0 15.6 0 31.1 0 46.7z"></path></g><rect fill="#e1f3fd" width="81" height="73.2" transform="translate(-177 551.4)"></rect><g><path fill="#74c1d6" d="m1.5 445.1c4 30.4 30.8 54 61.2 54c124.8 0 249.6 0 374.4 0c4.4 0 8.8 -0.4 12.8 -1.2c28.4 -5.6 50 -31.6 50 -60.4c0 -21.1 0 -42.3 0 -63.5l-498.8 0c0 21 0 42.1 0 63.1c0 2.4 0 5.2 0.4 8z"></path></g><g transform="translate(-1394.2936 161.5472)" style="animation-name: eaf-13540-2, eaf-13540-3, eaf-13540-4; animation-composition: replace, add, add;"><path fill="#74c1d6" d="m-894.4 172.5l141.2 -26.3c12.7 -2.4 26.1 -2.4 38.8 -0.1l78.2 14.1c18 3.2 37.2 2.5 54.5 -2l94.9 -25.1c14.3 -3.8 30.3 -3.6 44.4 0.5l33.9 9.9c9 2.6 18.3 4.7 28 6.1l65 9.7c17.1 2.5 35 2.6 52.1 0.1l66.2 -9.5l88.8 -12.5c13.4 -1.9 27.4 -1.9 40.8 0.1l57.6 8.4c18 2.6 36.8 1.7 53.9 -2.6l54.4 -13.7c22.5 -5.6 47.3 -6.2 70.4 -1.7l88.4 17.5c17.8 3.5 36.6 4.2 54.9 2l81.2 -9.7c18.5 -2.2 36.5 -5.9 53.5 -11l53.4 -15.9l0 111.2l-1394.5 0l0 -49.5z"></path><path fill="#74c1d6" d="m-894.4 172.5l-141.2 -26.3c-12.7 -2.4 -26.1 -2.4 -38.8 -0.1l-78.2 14.1c-18 3.2 -37.2 2.5 -54.5 -2l-94.9 -25.1c-14.3 -3.8 -30.3 -3.6 -44.4 0.5l-33.9 9.9c-9 2.6 -18.3 4.7 -28 6.1l-65 9.7c-17.1 2.5 -35 2.6 -52.1 0.1l-66.2 -9.5l-88.8 -12.5c-13.4 -1.9 -27.4 -1.9 -40.8 0.1l-57.6 8.4c-18 2.6 -36.8 1.7 -53.9 -2.6l-54.4 -13.7c-22.5 -5.6 -47.3 -6.2 -70.4 -1.7l-88.4 17.5c-17.8 3.5 -36.6001 4.2 -54.8999 2l-81.2 -9.7c-18.5 -2.2 -36.5 -5.9 -53.5 -11l-53.3999 -15.9l0 111.2l1394.4 0l0 -49.5l0.0999 0z"></path><path fill="#74c1d6" d="m1894.4 172.5l-141.2 -26.3c-12.7 -2.4 -26.1 -2.4 -38.8 -0.1l-78.2 14.1c-18 3.2 -37.2 2.5 -54.5 -2l-94.9 -25.1c-14.3 -3.8 -30.3 -3.6 -44.4 0.5l-33.9 9.9c-9 2.6 -18.3 4.7 -28 6.1l-65 9.7c-17.1 2.5 -35 2.6 -52.1 0.1l-66.2 -9.5l-88.8 -12.5c-13.4 -1.9 -27.4 -1.9 -40.8 0.1l-57.6 8.4c-18 2.6 -36.8 1.7 -53.9 -2.6l-54.4 -13.7c-22.5 -5.6 -47.3 -6.2 -70.4 -1.7l-88.4 17.5c-17.8 3.5 -36.6 4.2 -54.9 2l-81.2 -9.7c-18.5 -2.2 -36.5 -5.9 -53.5 -11l-53.2999 -15.8l0 111.2l1394.4 0l0 -49.6z"></path></g><g transform="translate(0 0)" style="animation-name: eaf-13540-8, eaf-13540-9, eaf-13540-10, eaf-13540-11; animation-composition: replace, add, add, add;"><g style="animation-name: eaf-13540-5, eaf-13540-6, eaf-13540-7; animation-composition: replace, add, add;"><rect fill="#555" width="46" height="41.7" transform="translate(294 172.9)"></rect><rect fill="#555" width="46" height="41.7" transform="translate(239.2 172.9)"></rect><rect fill="#555" width="46" height="41.7" transform="translate(185.4 172.9)"></rect><rect fill="#555" width="44.9" height="41.7" transform="translate(131.7 172.9)"></rect><rect fill="#555" width="46" height="41.7" transform="translate(76.9 172.9)"></rect><rect fill="#555" width="44.9" height="41.7" transform="translate(131.7 122.5)"></rect><rect fill="#555" width="46" height="41.7" transform="translate(185.4 122.5)"></rect><rect fill="#555" width="46" height="41.7" transform="translate(239.2 122.5)"></rect><rect fill="#555" width="46" height="41.7" transform="translate(239.2 72.1)"></rect></g><path fill="#555" d="m486.9 196c0 0 -19.7 -18.6 -60.3 -12.1c-4.4 -31.8 -38.4 -50.4 -38.4 -50.4c0 0 -31.8 38.4 -8.8 81.1c-6.6 3.3 -17.5 7.7 -34 7.7l-301.4 0c-5.5 20.8 -5.5 159 145.8 159c108.5 0 189.7 -50.4 228 -142.5c57.1 4.3 69.1 -42.8 69.1 -42.8"></path></g></g></g></svg>