<svg id="ejiq5tzqwl1" xmlns="http://www.w3.org/2000/svg" xmlns:xlink="http://www.w3.org/1999/xlink" viewBox="0 0 769 769" shape-rendering="geometricPrecision" text-rendering="geometricPrecision">
    <style>
        <![CDATA[#ejiq5tzqwl6_tr {animation: ejiq5tzqwl6_tr__tr 6500ms linear infinite normal forwards}@keyframes ejiq5tzqwl6_tr__tr { 0% {transform: translate(127.942038px,434.175013px) rotate(-0.697715deg)} 24.615385% {transform: translate(127.942038px,434.175013px) rotate(-0.697715deg)} 46.153846% {transform: translate(127.942038px,434.175013px) rotate(167.139922deg)} 100% {transform: translate(127.942038px,434.175013px) rotate(167.139922deg)} }#ejiq5tzqwl6 {animation: ejiq5tzqwl6_f_o 6500ms linear infinite normal forwards}@keyframes ejiq5tzqwl6_f_o { 0% {fill-opacity: 1} 76.923077% {fill-opacity: 1;animation-timing-function: cubic-bezier(0,0,0.580000,1)} 87.692308% {fill-opacity: 0} 100% {fill-opacity: 0} }#ejiq5tzqwl7_to {animation: ejiq5tzqwl7_to__to 6500ms linear infinite normal forwards}@keyframes ejiq5tzqwl7_to__to { 0% {transform: translate(644.838738px,265.861391px);animation-timing-function: cubic-bezier(0.420000,0,0.580000,1)} 30.769231% {transform: translate(740.215448px,130.063245px);animation-timing-function: cubic-bezier(0.420000,0,0.580000,1)} 49.230769% {transform: translate(740.215448px,130.063245px);animation-timing-function: cubic-bezier(0.420000,0,0.580000,1)} 66.153846% {transform: translate(644.838738px,265.861391px)} 100% {transform: translate(644.838738px,265.861391px)} }#ejiq5tzqwl7_tr {animation: ejiq5tzqwl7_tr__tr 6500ms linear infinite normal forwards}@keyframes ejiq5tzqwl7_tr__tr { 0% {transform: rotate(0deg)} 7.692308% {transform: rotate(0deg);animation-timing-function: cubic-bezier(0.445000,0.050000,0.550000,0.950000)} 24.615385% {transform: rotate(15.749318deg);animation-timing-function: cubic-bezier(0.445000,0.050000,0.550000,0.950000)} 43.076923% {transform: rotate(15.749318deg);animation-timing-function: cubic-bezier(0.445000,0.050000,0.550000,0.950000)} 72.307692% {transform: rotate(0deg)} 100% {transform: rotate(0deg)} }]]>
    </style>
    <g id="ejiq5tzqwl2">
        <g id="ejiq5tzqwl3" transform="matrix(4 0 0 4 -887.96002197265625 -2344.00634765625000)">
            <path
                id="ejiq5tzqwl4"
                d="M414.170000,682.380000C414.170000,706.440000,414.170000,730.510000,414.170000,754.570000C414.170000,765.600000,405.850000,775.680000,394.990000,777.750000C393.380000,778.060000,391.720000,778.230000,390.090000,778.230000C342.120000,778.260000,294.160000,778.250000,246.190000,778.250000C234.430000,778.250000,224.170000,769.230000,222.630000,757.530000C222.490000,756.500000,222.400000,755.450000,222.400000,754.410000C222.390000,706.320000,222.390000,658.230000,222.390000,610.150000C222.390000,599.120000,230.710000,589.030000,241.570000,586.970000C243.180000,586.660000,244.840000,586.490000,246.470000,586.490000C294.480000,586.470000,342.490000,586.470000,390.490000,586.470000C401.520000,586.470000,411.620000,594.800000,413.670000,605.650000C413.970000,607.260000,414.150000,608.920000,414.150000,610.550000C414.180000,634.490000,414.170000,658.440000,414.170000,682.380000Z"
                fill="#e1f3fd"
                stroke="none"
                stroke-width="1"
            />
        </g>
    </g>
    <g id="ejiq5tzqwl5">
        <g id="ejiq5tzqwl6_tr" transform="translate(127.942038,434.175013) rotate(-0.697715)">
            <polygon
                id="ejiq5tzqwl6"
                points="562.490000,694.270000 488.420000,726 423.330000,678.500000 432.320000,599.270000 506.390000,567.540000 571.480000,615.040000"
                transform="scale(1.019174,1.033080) translate(-746.081627,-926.382760)"
                fill="#f7e79d"
                stroke="#555"
                stroke-width="22"
                stroke-miterlimit="10"
            />
        </g>
        <g id="ejiq5tzqwl7_to" transform="translate(644.838738,265.861391)">
            <g id="ejiq5tzqwl7_tr" transform="rotate(0)">
                <path
                    id="ejiq5tzqwl7"
                    d="M165.320000,250.400000C165.290000,220.020000,165.270000,190.420000,165.240000,160.120000C202.120000,160.080000,238.230000,160.040000,275.300000,160C275.320000,128.470000,275.340000,97.250000,275.360000,65.110000C350.660000,65.070000,425.550000,65.020000,501.430000,64.980000C501.490000,96.740000,501.540000,127.920000,501.600000,159.870000C536.140000,159.880000,570.080000,159.900000,605.010000,159.910000C605.050000,189.900000,605.090000,219.460000,605.130000,250.180000C458.410000,250.250000,312.240000,250.320000,165.320000,250.400000ZM321.480000,159.990000C366.570000,159.960000,410.730000,159.940000,455.460000,159.910000C455.450000,143.450000,455.440000,127.590000,455.440000,111.050000C410.650000,111.080000,366.240000,111.110000,321.450000,111.140000C321.450000,127.590000,321.460000,143.210000,321.480000,159.990000Z"
                    transform="translate(-644.908738,-250.400000)"
                    fill="#555"
                    stroke="none"
                    stroke-width="1"
                />
            </g>
        </g>
        <path
            id="ejiq5tzqwl8"
            d="M579.170000,751.830000C579.140000,595.010000,605.210000,438.190000,605.210000,281.370000C605.210000,277.950000,605.210000,274.520000,605.210000,271.140000C457.960000,271.140000,311.830000,271.140000,165.170000,271.140000C165.170000,274.680000,165.170000,277.640000,165.170000,280.600000C165.170000,438.230000,191.460000,595.860000,191.500000,753.490000C191.500000,756.430000,191.950000,759.370000,192.180000,762.310000C338.800000,762.310000,433.060000,762.310000,579.680000,762.310000C579.500000,758.820000,579.170000,755.330000,579.170000,751.830000ZM281.290000,694.430000C273.730000,694.430000,267.090000,694.430000,259.970000,694.430000C259.970000,575.670000,259.970000,457.410000,259.970000,338.580000C267.130000,338.580000,273.950000,338.580000,281.290000,338.580000C281.290000,457.260000,281.290000,575.510000,281.290000,694.430000ZM395.770000,694.430000C388.720000,694.430000,381.800000,694.430000,374.240000,694.430000C374.240000,575.960000,374.240000,457.480000,374.240000,338.250000C381.670000,338.250000,388.400000,338.250000,395.770000,338.250000C395.770000,456.960000,395.770000,575.440000,395.770000,694.430000ZM509.970000,694.370000C503.180000,694.370000,496.540000,694.370000,489.180000,694.370000C489.180000,576,489.180000,457.550000,489.180000,338.270000C496.290000,338.270000,502.750000,338.270000,509.970000,338.270000C509.970000,456.940000,509.970000,575.370000,509.970000,694.370000Z"
            fill="#555"
            stroke="none"
            stroke-width="1"
        />
    </g>
</svg>
