<svg xmlns="http://www.w3.org/2000/svg" viewBox="0 0 500 500" overflow="hidden" preserveAspectRatio="xMidYMid meet" id="eaf-5205-0"><defs><clipPath id="eaf-5205-1"><rect x="0" y="0" width="500" height="500"></rect></clipPath><style>#eaf-5205-0 * {animation: 9000ms linear infinite normal both running;offset-rotate:0deg}@keyframes eaf-5205-2{0%,100%{transform:translate(57.7198px,138.371px)}}@keyframes eaf-5205-3{0%{transform:rotate(45deg)}17.03%{transform:rotate(45deg);animation-timing-function:ease-in-out}33.7%{transform:rotate(0)}68.89%{transform:rotate(0);animation-timing-function:ease-in-out}85.56%,100%{transform:rotate(45deg)}}@keyframes eaf-5205-4{0%,100%{transform:matrix(1.0259,0,0,1,-0.4719,-114.45)}}@keyframes eaf-5205-5{0%,100%{transform:translate(190.9568px,298.9241px)}}@keyframes eaf-5205-6{0%{transform:rotate(0);animation-timing-function:ease-in-out}16.67%{transform:rotate(58deg);animation-timing-function:ease-in-out}33.33%{transform:rotate(0);animation-timing-function:ease-in-out}50%{transform:rotate(58deg);animation-timing-function:ease-in-out}66.67%{transform:rotate(0);animation-timing-function:ease-in-out}83.33%{transform:rotate(58deg);animation-timing-function:ease-in-out}100%{transform:rotate(0)}}@keyframes eaf-5205-7{0%,100%{transform:translate(-195.9568px,-275.9241px)}}</style></defs><g clip-path="url('#eaf-5205-1')" style="isolation: isolate;"><g><g transform="matrix(4 0 0 4 -827.28 -2254.5264)"><path fill="#e1f3fd" d="m331.8 626.1c0 15.6 0 31.3 0 46.9c0 7.2 -5.4 13.7 -12.5 15.1c-1 0.2 -2.1 0.3 -3.2 0.3c-31.2 0 -62.4 0 -93.6 0c-7.6 0 -14.3 -5.9 -15.3 -13.5c-0.1 -0.7 -0.1 -1.4 -0.1 -2c0 -31.3 0 -62.5 0 -93.8c0 -7.2 5.4 -13.7 12.5 -15.1c1 -0.2 2.1 -0.3 3.2 -0.3c31.2 0 62.4 0 93.6 0c7.2 0 13.7 5.4 15.1 12.5c0.2 1 0.3 2.1 0.3 3.2c0 15.6 0 31.1 0 46.7z"></path></g><g><rect fill="#fefadf" width="81" height="73.2" transform="translate(-190 -3.5)"></rect><rect fill="#555" width="81" height="73.2" transform="translate(-190 90)"></rect><rect fill="#c90606" width="81" height="73.2" transform="translate(-190 183.5)"></rect><rect fill="#bcbcbc" width="81" height="73.2" transform="translate(-190 277.1)"></rect><rect fill="#f7e79c" width="81" height="73.2" transform="translate(-190 370.6)"></rect><rect fill="#f7e79c" width="81" height="73.2" transform="translate(-190 370.6)"></rect><rect fill="#f4b526" width="81" height="73.2" transform="translate(-190 463.4)"></rect><rect fill="#e1f3fd" width="81" height="73.2" transform="translate(-190 557.6)"></rect></g><g style="filter: drop-shadow(rgb(158, 158, 158) 12px 9px 3px);"><g transform="matrix(0.7255 0.7255 -0.7071 0.7071 138.3145 57.1089)" style="animation-name: eaf-5205-2, eaf-5205-3, eaf-5205-4; animation-composition: replace, add, add;"><path fill="#669b59" d="m366.32 116.85c-6.3 -1.78 -12.61 -3.56 -18.91 -5.33c-1.59 -4.25 -0.24 -9.92 -8.02 -10.34c-30.21 -1.66 -53.87 -15.32 -70.42 -40.73c-2.67 -4.11 -5.56 -5.07 -9.95 -3.86c-7.23 1.99 -14.5 3.82 -21.78 5.63c-13.81 3.43 -27.63 6.81 -41.44 10.2c-45.8 11.26 -91.66 22.3 -137.36 33.93c-13.72 3.49 -27.88 5.45 -41.03 11.09c-29.76 0.66 19.04 -1.28 -10.7 -0.63c-2.9 -0.11 -6.64 -1.44 -4.95 -2.36c0.27 -0.76 -8.94 -18.87 12.31 -30.2c49.15 -26.21 97.9 -53.17 146.96 -79.56c19.46 -10.47 43.71 -2.75 54.29 16.62c3.23 5.92 6.7 11.72 9.64 17.78c2.1 4.32 4.67 5.57 9.48 4.32c21.99 -5.69 44.08 -11.01 66.11 -16.53c25.21 -6.32 46.95 7.28 52.52 32.42c3.62 16.33 7.99 32.49 12.06 48.71c0.73 2.92 1.55 5.79 1.17 8.84l0.02 0zm-208.29 -54.69c-9.04 -5.53 -16.7 -9.83 -22.65 -16.23c-3.26 -3.5 -5.92 -3 -9.73 -0.9c-23.63 13.02 -47.42 25.76 -71.09 38.7c-1.31 0.71 -4.16 0.73 -3.53 2.88c0.72 2.46 2.88 1.53 4.98 0.98c23.58 -6.12 48.04 -9.64 68.81 -23.86c1.88 -1.29 4 -2.49 6.12 -0.5c9.02 8.51 16.89 0.41 27.09 -1.08l0 0.01z"></path><path fill="#fefadf" d="m14.62 107.17c13.14 -5.64 27.31 -7.6 41.03 -11.09c45.71 -11.63 91.56 -22.67 137.36 -33.93c13.81 -3.4 27.64 -6.77 41.44 -10.2c7.28 -1.81 14.55 -3.64 21.78 -5.63c4.39 -1.21 7.28 -0.25 9.95 3.86c16.55 25.41 40.21 39.08 70.42 40.73c7.78 0.43 6.43 6.09 8.02 10.34c-13.7 -0.28 -27.39 -0.57 -41.08 -0.85c-18.1 -7.92 -34.1 -18.67 -45.93 -34.83c-2.23 -3.04 -4.48 -2.04 -7.2 -1.36c-23.03 5.74 -46.09 11.32 -69.12 17.06c-31.94 7.97 -63.86 16.04 -95.79 24.07c-23.63 0.61 -47.26 1.22 -70.89 1.83l0.01 0z"></path><path fill="#fefadf" d="m287.54 100.69c-0.24 0.07 -0.47 0.21 -0.71 0.21c-56.3 1.26 -112.6 2.51 -168.89 3.77c8.62 -3.54 17.84 -4.79 26.78 -7.06c33.43 -8.47 66.89 -16.79 100.37 -25.07c3.47 -0.86 7.09 -2.42 10.24 1.55c8.83 11.13 20.17 19.31 32.21 26.6l0 0z"></path><path fill="#669b59" d="m287.54 100.69c-12.05 -7.28 -23.39 -15.47 -32.21 -26.6c-3.15 -3.97 -6.77 -2.41 -10.24 -1.55c-33.48 8.27 -66.94 16.59 -100.37 25.07c-8.94 2.27 -18.16 3.52 -26.78 7.06c-10.82 0.23 -21.64 0.46 -32.44 0.68c31.94 -8.03 63.86 -16.1 95.8 -24.07c23.03 -5.75 46.09 -11.33 69.12 -17.06c2.72 -0.68 4.97 -1.68 7.2 1.36c11.83 16.16 27.83 26.91 45.93 34.83c-5.34 0.09 -10.67 0.19 -16.01 0.28z"></path><path fill="#fefadf" d="m158.03 62.16c-10.2 1.49 -18.07 9.59 -27.09 1.08c-2.11 -1.99 -4.23 -0.79 -6.12 0.5c-20.77 14.22 -45.23 17.74 -68.81 23.86c-2.1 0.55 -4.26 1.48 -4.98 -0.98c-0.63 -2.15 2.22 -2.16 3.53 -2.88c23.67 -12.94 47.46 -25.69 71.09 -38.7c3.8 -2.09 6.46 -2.6 9.73 0.9c5.96 6.4 13.61 10.7 22.65 16.23l0 -0.01z"></path></g></g><path fill="#555" d="m424.9 106.5c11.4 5.9 21.8 12.9 29.8 23.3c10.3 13.4 15.5 28.5 15.6 45.4c0.1 16.5 0.1 33 0 49.5c0 2.8 0.4 4.3 3.6 5.3c6.6 2.1 10.4 8.1 10.4 15.3c0 19.7 0 39.4 0.1 59.2c0 7.7 -4.4 12.6 -10.6 15.7c-2.9 1.4 -3.3 2.9 -3.3 5.6c0.1 16.5 0.1 33 0.1 49.5c0 42.5 -31.9 75.4 -74.5 75.5c-107 0.3 -214.1 0.2 -321.1 0c-22.7 0 -38.2 -16.2 -38.2 -39c0 -90.7 0.1 -181.5 0.1 -272.2c0 -22.4 15.8 -38.1 38.3 -38.2c12 0 24 -0.1 36 -0.2c21.3 0 42.7 0 64 0c16.9 -0.1 33.9 -0.1 50.8 -0.2c7.7 0 15.5 0 23.2 0c40.4 0 80.7 0 121.1 0c0.2 0 0.3 -0.1 0.5 -0.1c3.8 0 7.6 0 11.5 0.1c9.8 0.4 19.6 0.9 29.4 1.3c4.2 1.3999 8.7 2.7999 13.2 4.2z" transform="translate(-5 23)"></path><path fill="#f4b526" d="m90.8 274.7c-0.3 -59.9 48.5 -108.7 109 -109c59.8 -0.3 108.7 48.1 109.1 108.1c0.4 60.2 -48.2 109.4 -108.3 109.8c-60.6 0.3 -109.5 -48.2 -109.8 -108.9z" transform="translate(-5 23)"></path><path fill="#f7e79c" d="m402.4 273c1.3 9 -7.1 18.4 -18.1 18.3c-10.1 0 -18.4 -8.5 -18.4 -18.6c0 -10.2 8.3 -18.3 18.6 -18.3c9.8 0 19.1 8.6 17.9 18.6z" transform="translate(-5 23)"></path><g transform="translate(-5 23)"><path fill="#fefefe" d="m433.7 392.3c2.6 0.7 4.2 2.6 2.7 5.1c-3.5 6 -7.5 11.7 -12.9 16.3c-1.7 1.4 -4.1 2.5 -5.8 0.8c-1.8 -1.8 -1.2 -4.5 0.6 -6.2c4.5 -4.3 8.4 -9.1 12.2 -14c0.7 -1.2 1.7 -1.9 3.2 -2z"></path><path fill="#fefefe" d="m61.4 402.7c-0.7 -2.5 1.2 -3.3 2.7 -3.9c2 -0.8 3.8 0.5 4.3 2.2c1.8 6.3 4.9 11.7 9.6 16.3c1.3 1.3 1.5 3.3 0.1 4.8c-1.2 1.4 -3 1.6 -4.4 0.5c-6.3 -5.2 -10.6 -11.8 -12.3 -19.9z"></path><path fill="#fefefe" d="m399.5 124.1c6.9 2.3 14 5.6 19.9 11c1.4 1.3 1.1 3 -0.2 4.3c-1.2 1.1 -2.6 1.9 -4.3 0.7c-5.6 -3.9 -11.5 -7.2 -17.9 -9.6c-1.6 -0.6 -2.4 -2.2 -1.9 -4c0.6 -1.6 1.9 -2.5 4.4 -2.4z"></path><path fill="#fefefe" d="m443.1 169.8c0 2.3 -0.8 3.6 -2.7 4c-1.7 0.4 -3.4 -0.1 -4 -1.8c-2.1 -6.7 -5.2 -12.8 -8.8 -18.7c-0.9 -1.4 -0.2 -2.8 1 -3.8c1.7 -1.3 3.5 -1.2 4.8 0.4c4.9 6 7.5 13.1 9.7 19.9z"></path><path fill="#fefefe" d="m68.4 206.5c0 3 0 6 0 9.1c0 2.4 -0.7 4.3 -3.5 4.4c-2.8 0.1 -3.6 -1.7 -3.6 -4.2c0 -6.4 0 -12.8 0 -19.2c0 -2.5 1 -4.3 3.7 -4.2c2.3 0.1 3.4 1.8 3.4 4c0 3.4 0 6.8 0 10.1z"></path><path fill="#fefefe" d="m68.3 330.1c0 3.4 0.1 6.8 0 10.1c0 2 -1 3.5 -3.2 3.6c-2.3 0 -3.7 -1.2 -3.7 -3.6c0 -6.8 0 -13.5 0 -20.3c0 -2.1 1 -3.4 3.2 -3.5c2.4 -0.1 3.7 1.2 3.7 3.5c0.1 3.4 0 6.8 0 10.2c0 0 0 0 0 0z"></path><path fill="#fefefe" d="m68.4 164.4c0 3.6 0.1 7.1 0 10.7c-0.1 2.3 -1.2 3.8 -3.6 3.7c-2.3 -0.1 -3.4 -1.6 -3.4 -3.9c0 -6.6 0 -13.2 0 -19.8c0 -2.5 1.3 -4.2 3.9 -4c2.4 0.2 3.6 1.4 3.2 4.2c-0.4 3 -0.1 6.1 -0.1 9.1c0 0 0 0 0 0z"></path><path fill="#fefefe" d="m445.5 201.2c0 3.4 0.1 6.8 0 10.2c-0.1 2.2 -1.2 3.8 -3.6 3.7c-2.2 -0.1 -3.1 -1.7 -3.2 -3.7c-0.1 -6.6 -0.1 -13.3 0 -19.9c0 -2.2 0.8 -4 3.4 -4c2.5 0 3.4 1.7 3.5 3.9c-0.1 3.3 -0.1 6.5 -0.1 9.8c0 0 0 0 0 0z"></path><path fill="#fefefe" d="m68.3 288.9c0 3.4 0.1 6.8 0 10.2c-0.1 2.2 -1.2 3.8 -3.7 3.6c-2.1 -0.2 -3.1 -1.6 -3.1 -3.6c0 -6.8 0 -13.6 0 -20.3c0 -2.1 1.1 -3.4 3.2 -3.5c2.4 -0.1 3.7 1.3 3.7 3.6c0 3.2 -0.1 6.6 -0.1 10c0 0 0 0 0 0z"></path><path fill="#fefefe" d="m61.4 247.5c0 -3.4 -0.1 -6.8 0 -10.1c0 -1.6 0.1 -3.3 2.4 -3.5c2 -0.2 3.7 0.3 4 2.4c1.1 7.6 0.8 15.2 0.2 22.8c-0.1 1.8 -1.8 2.6 -3.6 2.4c-1.8 -0.3 -2.9 -1.5 -2.9 -3.3c-0.2 -3.6 -0.1 -7.2 -0.1 -10.7c0 0 0 0 0 0z"></path><path fill="#fefefe" d="m445.8 363.4c-0.5 4.4 -0.9 8.8 -1.5 13.2c-0.3 2.2 -1.6 3.7 -4 3.3c-2.4 -0.4 -3.2 -2.2 -2.8 -4.3c1.2 -6 1.2 -12 1.1 -18.1c0 -2.6 0.6 -4.9 3.7 -4.7c2.7 0.2 3.3 2.3 3.2 4.7c0 2 0 3.9 0 5.9c0.1 -0.1 0.2 -0.1 0.3 0z"></path><path fill="#fefefe" d="m68.3 371.9c0 3.2 0.1 6.4 0 9.6c-0.1 2.2 -1.2 3.8 -3.7 3.6c-2.1 -0.1 -3.1 -1.6 -3.2 -3.6c0 -6.8 -0.1 -13.5 0 -20.3c0 -2 1 -3.5 3.1 -3.6c2.4 -0.2 3.6 1.3 3.7 3.6c0.2 3.6 0.1 7.1 0.1 10.7z"></path><path fill="#fefefe" d="m161.5 120.6c3.4 0 6.8 0 10.2 0c2.1 0 3.4 1.2 3.5 3.3c0.1 2.1 -1.1 3.6 -3.2 3.6c-7 0.2 -13.9 0.2 -20.9 0.1c-2.2 0 -3.8 -1.4 -3.5 -3.8c0.2 -2.1 1.7 -3.1 3.7 -3.1c3.4 -0.1 6.8 -0.1 10.2 -0.1z"></path><path fill="#fefefe" d="m367.8 120.7c3.4 0 6.8 0 10.2 0c2 0 3.6 1 3.8 3c0.2 2.4 -1.4 3.7 -3.6 3.8c-6.8 0.1 -13.6 0.2 -20.4 0.1c-2.2 0 -3.9 -1.2 -3.7 -3.6c0.1 -2.4 1.9 -3.2 4.1 -3.3c3.2 0 6.4 0 9.6 0c0 0 0 0 0 0z"></path><path fill="#fefefe" d="m104.9 424.2c3 0 6.1 0 9.1 0c2.4 0 4.3 0.8 4.3 3.6c0 2.7 -2 3.6 -4.4 3.6c-6.1 0 -12.1 0.1 -18.2 0c-2.4 0 -5 -0.7 -4.9 -3.7c0 -3 2.4 -3.5 5 -3.5c3 0.1 6 0 9.1 0z"></path><path fill="#fefefe" d="m186.8 431.4c-3.2 0 -6.4 0.1 -9.6 0c-2.3 -0.1 -3.8 -1.4 -3.8 -3.7c0.1 -2.3 1.5 -3.5 3.9 -3.5c6.6 0 13.2 0 19.8 0c2.3 0 3.8 1.3 3.8 3.6c0 2.3 -1.8 3.4 -3.9 3.5c-3.4 0.2 -6.8 0.1 -10.2 0.1z"></path><path fill="#fefefe" d="m228.2 431.4c-3.2 0 -6.5 0.1 -9.7 0c-2.3 -0.1 -3.8 -1.4 -3.8 -3.7c0 -2.3 1.6 -3.5 3.9 -3.5c6.4 0 12.9 0 19.3 0c2.2 0 4 0.9 4 3.3c0.1 2.7 -1.8 3.7 -4.2 3.8c-3.1 0.2 -6.3 0.1 -9.5 0.1z"></path><path fill="#fefefe" d="m352.2 424.3c3.2 0 6.4 0 9.6 0c2.3 0 3.9 1.1 3.9 3.4c0.1 2.3 -1.5 3.6 -3.8 3.6c-6.6 0.1 -13.2 0.1 -19.8 0c-2.2 0 -3.9 -1.3 -3.7 -3.7c0.1 -2.3 1.8 -3.3 4.1 -3.3c3.3 0 6.5 0 9.7 0z"></path><path fill="#fefefe" d="m311.4 431.4c-3.2 0 -6.4 0 -9.7 0c-2.4 0 -4.5 -0.9 -4.5 -3.5c-0.1 -2.7 1.9 -3.6 4.4 -3.6c6.3 0 12.5 0 18.8 0c2.3 0 4 0.9 4.2 3.2c0.2 2.6 -1.6 3.8 -4.1 3.9c-3 0.1 -6.1 0 -9.1 0z"></path><path fill="#fefefe" d="m285.5 120.7c3.2 0 6.4 0 9.6 0c2.2 0 3.9 0.9 4 3.4c0.1 2.5 -1.6 3.5 -3.8 3.5c-6.8 0.1 -13.5 0.1 -20.3 0c-2 0 -3.5 -1.2 -3.5 -3.3c0 -2.3 1.4 -3.5 3.8 -3.6c3.4 -0.1 6.8 0 10.2 0z"></path><path fill="#fefefe" d="m269.5 431.4c-3.2 0 -6.4 0.1 -9.6 0c-2.2 -0.1 -3.9 -1.1 -3.9 -3.6c0 -2.4 1.5 -3.5 3.8 -3.5c6.6 0 13.2 0 19.8 0c2 0 3.5 1.1 3.6 3.2c0.2 2.4 -1.4 3.7 -3.6 3.8c-3.3 0.2 -6.7 0.1 -10.1 0.1c0 0 0 0 0 0z"></path><path fill="#fefefe" d="m145.8 424.3c3.4 0 6.8 -0.1 10.1 0c2 0.1 3.5 1.1 3.6 3.2c0.1 2.3 -1.3 3.8 -3.5 3.8c-6.8 0.1 -13.5 0.2 -20.3 0c-2.2 0 -3.7 -1.4 -3.5 -3.8c0.1 -2.4 1.7 -3.3 4 -3.3c3.2 0.1 6.4 0.1 9.6 0.1c0 0 0 0 0 0z"></path><path fill="#fefefe" d="m88 121.6c2.6 -0.1 4.2 0.4 4.6 2.6c0.4 2 -0.4 3.5 -2.4 4.2c-5.6 2 -10.7 5 -15 9.3c-1.7 1.7 -3.7 2.5 -5.6 0.6c-2 -1.9 -1.2 -3.9 0.4 -5.7c5.1 -5.6 11.2 -9.4 18 -11z"></path><path fill="#fefefe" d="m244.2 120.6c3.2 0 6.4 0 9.6 0c2.2 0 3.9 1 4 3.4c0.1 2.5 -1.8 3.5 -3.9 3.5c-6.6 0.1 -13.2 0.1 -19.8 0c-2.1 0 -3.9 -1 -3.9 -3.5c0 -2.9 2 -3.5 4.3 -3.5c3.3 0.1 6.5 0.1 9.7 0.1z"></path><path fill="#fefefe" d="m202.6 120.6c3.4 0 6.8 0 10.2 0c2 0 3.5 0.8 3.7 3.1c0.2 2.5 -1.2 3.8 -3.4 3.9c-6.8 0.1 -13.5 0.1 -20.3 0c-2.2 0 -3.9 -1.2 -3.8 -3.6c0.1 -2.4 1.8 -3.3 4 -3.3c3.2 -0.1 6.4 -0.1 9.6 -0.1z"></path><path fill="#fefefe" d="m120.4 120.6c3 0 6.1 0 9.1 0c2.5 0 4.4 0.8 4.4 3.5c0.1 2.4 -1.7 3.5 -3.9 3.6c-6.6 0.1 -13.2 0.1 -19.8 0c-2.1 0 -3.9 -1 -3.9 -3.5c0.1 -2.8 1.9 -3.5 4.4 -3.5c3.3 -0.1 6.5 -0.1 9.7 -0.1z"></path><path fill="#fefefe" d="m384.8 430.9c-2.8 0.2 -4.6 -0.5 -4.9 -2.9c-0.3 -2.1 0.8 -3.5 3 -3.6c6.2 -0.3 11.9 -2.7 17.8 -4.5c2.7 -0.8 4.8 -0.6 5.7 2.1c0.8 2.6 -1.3 3.7 -3.5 4.5c-6.1 2.5 -12.3 3.8 -18.1 4.4z"></path><path fill="#fefefe" d="m326.4 120.7c3.2 0 6.4 0 9.7 0c2.2 0 4 0.7 4.2 3.2c0.2 2.8 -1.8 3.7 -4.1 3.8c-6.3 0.1 -12.5 0.1 -18.8 0c-2.3 0 -4.5 -0.7 -4.4 -3.5c0 -2.8 2 -3.5 4.4 -3.5c2.9 0 6 -0.1 9 0z"></path><path fill="#fefefe" d="m445.4 329.6c0 2.1 0.2 4.3 -0.1 6.4c-0.2 1.8 -1.5 2.9 -3.3 2.9c-1.8 -0.1 -3.1 -1.1 -3.2 -3c-0.2 -4.1 -0.2 -8.2 -0.2 -12.3c0 -2.6 2 -2 3.5 -2c1.5 0 3.4 -0.5 3.4 2.1c-0.1 2 0 3.9 0 5.9c-0.1 0 -0.1 0 -0.1 0z"></path></g><path fill="#555" d="m225.7 251.7c3.9 0.6 7.3 -1 10.9 -0.3c15 2.9 24.2 24.5 16.1 37.9c-3.8 6.3 -9.1 11 -15 15.1c-2.6 1.8 -3.2 3.3 -1.2 6c2.4 3.3 4.3 7 6.5 10.5c1.5 2.3 1.5 3.9 -1.1 5.2c-1.4 0.7 -2.8 1.6 -4.1 2.6c-2.7 2.1 -4.3 1.4 -5.8 -1.5c-1.9 -3.6 -4.4 -7 -6.2 -10.6c-2.4 -4.7 -4.6 -1 -6.9 -0.2c-3.1 1.1 -3.1 2.8 -1.4 5.3c1.6 2.3 2.9 4.9 4.4 7.3c4 6.4 2.5 9.9 -4.8 12.1c-2.3 0.7 -2.9 -0.7 -3.7 -2.1c-2.2 -3.7 -4.5 -7.3 -6.6 -11c-1.6 -2.8 -3.2 -3.2 -6 -1.3c-4.6 3.1 -9.5 5.8 -14.2 8.7c-2.3 1.5 -3.9 1.4 -4.7 -1.6c-0.3 -1.2 -0.9 -2.4 -1.5 -3.5c-2.5 -4.7 -3.1 -8.4 3.3 -10.6c4.1 -1.4 4.9 -4.7 2.5 -8.7c-8.8 -14.5 -17.4 -29.2 -26.2 -43.7c-3 -4.9 -5.5 -5.2 -11.4 -2.3c-2.1 1.1 -4.2 4.3 -6.5 2.7c-2.9 -2 -4.3 -5.6 -5.7 -8.9c-0.8 -1.9 1 -2.4 2.1 -3.1c4.6 -2.8 9 -5.9 13.8 -8.2c4.2 -2 3.9 -4.2 1.7 -7.4c-2 -2.9 -3.7 -6.1 -5.7 -9.1c-1.6 -2.4 -1.7 -4.2 1.3 -5.5c1.3 -0.6 2.4 -1.5 3.6 -2.4c2.5 -2 4.3 -1.8 5.9 1.3c1.9 3.7 4.2 7.1 6.2 10.7c1.7 3.2 3.6 1.9 5.6 0.4c1.8 -1.3 5.2 -1.7 2.9 -5.3c-2.1 -3.3 -3.7 -7 -6.1 -10.1c-4.2 -5.6 1.7 -5.9 4 -7.9c2.8 -2.4 5.2 -2.4 7 1.6c1.5 3.4 4 6.4 5.6 9.8c1.5 3 3.2 3.2 6 1.8c5.9 -2.8 12.1 -4.9 18.6 -4c14.1 1.9 21.3 14.9 16.8 30.3zm6.5 30.7c0.1 -7.6 -5.9 -12.6 -13.4 -11.6c-8.6 1.2 -15.6 6 -22.8 10.3c-1.5 0.8 -1.4 1.9 -0.6 3.1c3.8 6.3 7.6 12.6 11.3 18.9c1 1.7 2.2 2.2 3.9 1c5.8 -3.9 12.1 -7.1 16.8 -12.3c2.6 -2.9 4.4 -6.2 4.8 -9.4zm-24.7 -30.9c0 -6.3 -6.6 -11.5 -13.4 -10.1c-3.4 0.7 -6.8 2.1 -10 3.6c-9.3 4.6 -9.3 4.7 -4.2 13.6c0.4 0.8 0.8 1.6 1.2 2.4c6.6 11.4 8.3 11.7 18.6 2.8c3.9 -3.4 7.6 -6.7 7.8 -12.3z" transform="translate(-5 23)" style="animation-name: eaf-5205-5, eaf-5205-6, eaf-5205-7; animation-composition: replace, add, add;"></path></g></g></svg>