<svg xmlns="http://www.w3.org/2000/svg" viewBox="0 0 500 500" overflow="hidden" preserveAspectRatio="xMidYMid meet" id="eaf-6a5b-0"><defs><clipPath id="eaf-6a5b-1"><rect x="0" y="0" width="500" height="500"></rect></clipPath><linearGradient gradientUnits="userSpaceOnUse" gradientTransform="matrix(-0.6677 -0.7444 0.7444 -0.6677 643.175 385.8333)" x1="407.6996" y1="217.0398" x2="407.6996" y2="-118.3002" id="eaf-6a5b-2"><stop stop-color="#000" offset="0"></stop><stop stop-color="#0000" offset="1"></stop></linearGradient><style>#eaf-6a5b-0 * {animation: 5000ms linear infinite normal both running;offset-rotate:0deg}@keyframes eaf-6a5b-3{0%,100%{transform:translate(133.9px,287.4px)}}@keyframes eaf-6a5b-4{0%{transform:rotate(0);animation-timing-function:ease-in-out}44%{transform:rotate(28deg)}49.34%{transform:rotate(28deg);animation-timing-function:ease-in-out}94.66%,100%{transform:rotate(0)}}@keyframes eaf-6a5b-5{0%,100%{transform:translate(-133.9px,-287.4px)}}</style></defs><g clip-path="url('#eaf-6a5b-1')" style="isolation: isolate;"><g><g transform="matrix(4 0 0 4 -827.28 -2254.5264)"><path fill="#e1f3fd" d="m331.5 626.3c0 15.6 0 31.3 0 46.9c0 7.2 -5.4 13.7 -12.5 15.1c-1 0.2 -2.1 0.3 -3.2 0.3c-31.2 0 -62.4 0 -93.6 0c-7.6 0 -14.3 -5.9 -15.3 -13.5c-0.1 -0.7 -0.1 -1.4 -0.1 -2c0 -31.3 0 -62.5 0 -93.8c0 -7.2 5.4 -13.7 12.5 -15.1c1 -0.2 2.1 -0.3 3.2 -0.3c31.2 0 62.4 0 93.6 0c7.2 0 13.7 5.4 15.1 12.5c0.2 1 0.3 2.1 0.3 3.2c0 15.6 0 31.1 0 46.7z"></path></g><g style="animation-name: eaf-6a5b-3, eaf-6a5b-4, eaf-6a5b-5; animation-composition: replace, add, add;"><g><g><path fill="#d3d3d3" fill-rule="evenodd" stroke="#555" stroke-width="9" d="m264.4 272.3l-2.7 16.9l-10.1 9l-3.8 -1.2l-101.5 90.5c22.9 19.6 48.3 27.5 77.2 21.8l138.6 -27.2l55.3 -5.2l19.3 -6.3l-52.9 -59.4"></path><path fill="#d3d3d3" fill-rule="evenodd" stroke="#555" stroke-width="9" d="m35.6 263.4l107.4 -95.7c12 -8.7 31 2.6 45.1 19.2l155.2 174.1c54.1 -65.2 108.5 -149.8 218.5 -181.1l153.4 -43.6l-36.6 -130.5l-191.8 65.8c-108.8 37.4 -209.8 -12.6 -314.8 -23.5c-69.5 -7.3 -170.3 142.5 -136.4 215.3z"></path><path fill="#d3d3d3" fill-opacity="0.2763" fill-rule="evenodd" stroke="#555" stroke-width="9" stroke-miterlimit="10" d="m362.3 382.1l-18.9 -21.2l27.8 -34.4l45 50.6l-53.9 5z"></path><g><path fill="#616161" fill-rule="evenodd" stroke="#555" stroke-width="11.6104" d="m389.8 318l9.3 -14.1l-3.5 -4l-4.7 2.4l-10.7 5.4l9.6 10.3z"></path><path fill="#616161" fill-rule="evenodd" stroke="#555" stroke-width="11.6104" d="m410.6 341.1l9.3 -14.1l-3.5 -4l-15.6 7.9"></path><path fill="#616161" fill-rule="evenodd" stroke="#555" stroke-width="11.6104" d="m431.2 364.3l9.3 -14.1l-3.5 -4l-15.6 7.9"></path><path fill="none" stroke="#555" stroke-width="11.6104" d="m343.2 360.6l18.8 21.1"></path><path fill="none" stroke="#555" stroke-width="11.6104" d="m416.3 377l-44.6 -50"></path><path fill="none" stroke="#555" stroke-width="11.6104" d="m250.6 299l50.6 16.7"></path><path fill="url('#eaf-6a5b-2')" fill-rule="evenodd" stroke="#555" stroke-width="9" stroke-miterlimit="10" d="m387.1 305c23.5 -33 53.7 -58.5 85 -82.6l-20.3 -22.7c-29.5 26.2 -50.1 47.1 -83.7 75.7l-0.6 7.7l19.6 21.9zm81.5 -81.3l-122.5 -142.7c-54.2 -9.8 -129.8 -28.2 -179.5 -32c-13.2 -1 -24.4 6 -32.7 8.8c14.2 -3.4 33.2 1 43.1 11.5l108.4 121.6l98.5 107.8l84.7 -75z"></path><path fill="#000" fill-opacity="0.2763" fill-rule="evenodd" stroke="#555" stroke-width="11.6104" stroke-miterlimit="10" d="m251 298.6l52.3 17.3l-38.8 -43.5l-2.7 16.7l-10.8 9.5z"></path><path fill="none" stroke="#555" stroke-width="11.6104" d="m420 374.4l-45.5 -51"></path></g></g><path fill="#7f7f7f" d="m334.4 228.6l-35.9 -40.1c-9.4 -10.5 -12.5 -23.2 -6.9 -28.2l47.7 -42.5c5.6 -5 17.8 -0.5 27.3 10l35.9 40.1c9.4 10.5 12.5 23.2 6.9 28.2l-47.7 42.5c-5.7 5 -17.9 0.5 -27.3 -10z"></path></g><path fill="#555" d="m193.4 234l-75.9 -24.8l-59.5 53.3l16.5 78.2l75.9 24.8l59.5 -53.4l-16.5 -78.1zm-59.5 89c-19.7 0 -35.6 -15.9 -35.6 -35.6c0 -19.7 15.9 -35.6 35.6 -35.6c19.7 0 35.6 15.9 35.6 35.6c0 19.6 -15.9 35.6 -35.6 35.6z"></path></g></g></g></svg>