<svg id="ec8cpe2uwx6k1" xmlns="http://www.w3.org/2000/svg" xmlns:xlink="http://www.w3.org/1999/xlink" viewBox="0 0 499.170000 498.380000" shape-rendering="geometricPrecision" text-rendering="geometricPrecision">
    <style>
        <![CDATA[#ec8cpe2uwx6k6_tr {animation: ec8cpe2uwx6k6_tr__tr 9000ms linear infinite normal forwards}@keyframes ec8cpe2uwx6k6_tr__tr { 0% {transform: translate(250.360000px,249.900000px) rotate(0deg)} 11.111111% {transform: translate(250.360000px,249.900000px) rotate(45deg)} 22.222222% {transform: translate(250.360000px,249.900000px) rotate(90deg)} 33.333333% {transform: translate(250.360000px,249.900000px) rotate(90deg)} 44.444444% {transform: translate(250.360000px,249.900000px) rotate(135deg)} 55.555556% {transform: translate(250.360000px,249.900000px) rotate(180deg)} 66.666667% {transform: translate(250.360000px,249.900000px) rotate(180deg)} 77.777778% {transform: translate(250.360000px,249.900000px) rotate(225deg)} 88.888889% {transform: translate(250.360000px,249.900000px) rotate(270deg)} 100% {transform: translate(250.360000px,249.900000px) rotate(270deg)} }#ec8cpe2uwx6k9_tr {animation: ec8cpe2uwx6k9_tr__tr 4500ms linear infinite normal forwards}@keyframes ec8cpe2uwx6k9_tr__tr { 0% {transform: translate(251.995000px,237.915000px) rotate(0deg)} 100% {transform: translate(251.995000px,237.915000px) rotate(360deg)} }#ec8cpe2uwx6k11_tr {animation: ec8cpe2uwx6k11_tr__tr 4500ms linear infinite normal forwards}@keyframes ec8cpe2uwx6k11_tr__tr { 0% {transform: translate(251.995000px,237.920160px) rotate(0deg)} 100% {transform: translate(251.995000px,237.920160px) rotate(-1080deg)} }]]>
    </style>
    <g id="ec8cpe2uwx6k2">
        <path
            id="ec8cpe2uwx6k3"
            d="M498.970000,249.560000C498.970000,311.890000,498.970000,374.220000,498.970000,436.550000C498.970000,465.120000,477.420000,491.240000,449.280000,496.590000C445.120000,497.380000,440.820000,497.830000,436.590000,497.830000C312.350000,497.900000,188.110000,497.880000,63.870000,497.880000C33.420000,497.880000,6.830000,474.520000,2.840000,444.210000C2.490000,441.540000,2.250000,438.820000,2.250000,436.130000C2.210000,311.580000,2.210000,187.020000,2.210000,62.470000C2.210000,33.890000,23.770000,7.770000,51.900000,2.430000C56.060000,1.640000,60.360000,1.190000,64.590000,1.190000C188.940000,1.130000,313.280000,1.140000,437.630000,1.140000C466.200000,1.140000,492.360000,22.720000,497.670000,50.830000C498.460000,54.990000,498.910000,59.290000,498.910000,63.520000C498.990000,125.530000,498.970000,187.550000,498.970000,249.560000Z"
            fill="#e1f3fd"
            stroke="none"
            stroke-width="1"
        />
    </g>
    <g id="ec8cpe2uwx6k4">
        <path
            id="ec8cpe2uwx6k5"
            display="none"
            d="M425.220000,239.990000C438.670000,230.130000,452.070000,220.210000,465.460000,210.270000C466.560000,209.460000,467.460000,208.380000,468.450000,207.420000C468.450000,206.530000,468.450000,205.640000,468.450000,204.750000C462.990000,195.440000,457.510000,186.150000,452.090000,176.820000C437.440000,151.600000,422.820000,126.360000,408.180000,101.130000C405.800000,97.030000,404.560000,96.630000,400.310000,98.500000C385.160000,105.180000,369.990000,111.840000,354.860000,118.580000C353.450000,119.210000,352.480000,119.100000,351.260000,118.250000C342.080000,111.830000,332.370000,106.320000,322.210000,101.620000C321.170000,101.140000,320.690000,100.580000,320.560000,99.360000C319.310000,87.500000,317.960000,75.660000,316.640000,63.810000C316.050000,58.510000,315.470000,53.210000,314.860000,47.910000C314.570000,45.360000,313.050000,44.030000,310.350000,44.020000C300.710000,44,291.060000,44.010000,281.420000,44.010000C251.380000,44.010000,221.340000,44.010000,191.300000,44.010000C187.210000,44.010000,186.200000,44.910000,185.750000,48.910000C183.860000,65.690000,181.940000,82.460000,180.110000,99.250000C179.980000,100.450000,179.600000,101.070000,178.520000,101.550000C168.080000,106.220000,158.270000,111.990000,148.910000,118.550000C148.220000,119.030000,146.790000,119.020000,145.960000,118.660000C130.640000,112,115.350000,105.240000,100.060000,98.510000C96.250000,96.830000,94.880000,97.270000,92.800000,100.850000C73.050000,134.840000,53.290000,168.820000,33.540000,202.810000C31.470000,206.370000,31.790000,207.740000,35.170000,210.240000C48.630000,220.200000,62.070000,230.180000,75.560000,240.110000C76.640000,240.910000,77.030000,241.650000,76.910000,243.030000C75.860000,254.500000,75.840000,265.980000,76.910000,277.450000C77.060000,279.110000,76.570000,279.950000,75.290000,280.890000C61.740000,290.850000,48.240000,300.880000,34.720000,310.900000C31.940000,312.960000,31.600000,314.520000,33.340000,317.530000C53.250000,351.850000,73.170000,386.170000,93.100000,420.480000C94.810000,423.420000,96.380000,423.920000,99.570000,422.520000C115,415.740000,130.440000,408.970000,145.840000,402.110000C147.270000,401.480000,148.220000,401.560000,149.450000,402.450000C158.540000,409.010000,168.140000,414.710000,178.440000,419.160000C179.470000,419.610000,180,420.130000,180.140000,421.380000C181.390000,433.240000,182.740000,445.080000,184.060000,456.930000C184.660000,462.300000,185.230000,467.680000,185.870000,473.050000C186.160000,475.450000,187.730000,476.730000,190.330000,476.740000C197.380000,476.770000,204.420000,476.750000,211.470000,476.750000C244.030000,476.750000,276.590000,476.750000,309.160000,476.750000C313.550000,476.750000,314.470000,475.980000,314.960000,471.640000C316.750000,455.820000,318.580000,440,320.220000,424.170000C320.540000,421.070000,321.620000,419.230000,324.570000,417.950000C334.040000,413.850000,342.800000,408.430000,351.300000,402.630000C352.550000,401.780000,353.520000,401.720000,354.900000,402.330000C370.170000,409.120000,385.470000,415.840000,400.760000,422.570000C404.350000,424.150000,405.940000,423.630000,407.900000,420.270000C427.660000,386.200000,447.420000,352.140000,467.190000,318.070000C467.590000,317.380000,468.030000,316.710000,468.460000,316.030000C468.460000,315.290000,468.460000,314.550000,468.460000,313.800000C467.350000,312.640000,466.390000,311.300000,465.120000,310.350000C451.930000,300.520000,438.710000,290.720000,425.440000,281C424.130000,280.040000,423.700000,279.130000,423.850000,277.530000C424.920000,266.060000,424.890000,254.580000,423.840000,243.110000C423.700000,241.700000,424.030000,240.870000,425.220000,239.990000Z"
            fill="#555"
            stroke="none"
            stroke-width="1"
        />
        <g id="ec8cpe2uwx6k6_tr" transform="translate(250.360000,249.450000) rotate(0)">
            <path
                id="ec8cpe2uwx6k6"
                d="M250.360000,96.220000C165.730000,96.220000,97.130000,164.830000,97.130000,249.450000C97.130000,334.070000,165.740000,402.680000,250.360000,402.680000C334.980000,402.680000,403.590000,334.070000,403.590000,249.450000C403.590000,164.830000,334.990000,96.220000,250.360000,96.220000ZM259.700000,390.070000C259.700000,389.280000,259.700000,388.500000,259.700000,387.720000C259.700000,380.380000,259.700000,373.030000,259.700000,365.690000C259.700000,358.160000,255.700000,353.540000,249.190000,353.560000C242.790000,353.580000,238.800000,358.200000,238.800000,365.580000C238.800000,372.850000,238.800000,380.120000,238.800000,387.390000C238.800000,388.190000,238.800000,389,238.800000,389.810000C175.970000,385.990000,115.500000,334.050000,109.820000,260.550000C110.610000,260.510000,111.390000,260.440000,112.170000,260.440000C119.660000,260.430000,127.160000,260.490000,134.650000,260.420000C140.930000,260.360000,145.590000,256.060000,145.760000,250.340000C145.940000,244.570000,141.670000,239.740000,135.900000,239.610000C128.110000,239.440000,120.320000,239.540000,112.530000,239.530000C111.660000,239.530000,110.780000,239.530000,109.900000,239.530000C112.890000,176.120000,165.220000,114.730000,238.830000,108.900000C238.830000,109.710000,238.830000,110.510000,238.830000,111.300000C238.830000,119.460000,238.780000,127.620000,238.850000,135.780000C238.890000,140.540000,241.650000,144.310000,245.940000,145.790000C250.160000,147.240000,254.900000,146.060000,257.440000,142.330000C258.690000,140.480000,259.570000,138.010000,259.640000,135.790000C259.900000,127.710000,259.740000,119.620000,259.740000,111.530000C259.740000,110.720000,259.740000,109.910000,259.740000,108.660000C290.110000,110.910000,317.050000,121.340000,340.290000,140.720000C371.010000,166.340000,387.560000,199.420000,391.230000,239.520000C390.020000,239.520000,389.160000,239.520000,388.300000,239.520000C379.840000,239.530000,371.380000,239.390000,362.930000,239.590000C354.710000,239.790000,350.110000,248.600000,354.460000,255.540000C356.620000,258.980000,359.870000,260.460000,363.850000,260.470000C372.010000,260.490000,380.170000,260.480000,388.330000,260.480000C389.130000,260.480000,389.930000,260.480000,390.740000,260.480000C387.120000,325.990000,331.850000,385.970000,259.700000,390.070000Z"
                transform="translate(-250.360000,-249.450000)"
                fill="#555"
                stroke="#555"
                stroke-width="7"
                stroke-miterlimit="10"
            />
        </g>
        <path
            id="ec8cpe2uwx6k7"
            d="M425.230000,229.040000C438.680000,219.180000,452.080000,209.260000,465.470000,199.320000C466.570000,198.510000,467.470000,197.430000,468.460000,196.470000C468.460000,195.580000,468.460000,194.690000,468.460000,193.800000C463,184.490000,457.520000,175.200000,452.100000,165.870000C437.450000,140.650000,422.830000,115.410000,408.190000,90.180000C405.810000,86.080000,404.570000,85.680000,400.320000,87.550000C385.170000,94.230000,370,100.890000,354.870000,107.630000C353.460000,108.260000,352.490000,108.150000,351.270000,107.300000C342.090000,100.880000,332.380000,95.370000,322.220000,90.670000C321.180000,90.190000,320.700000,89.630000,320.570000,88.410000C319.320000,76.550000,317.970000,64.710000,316.650000,52.860000C316.060000,47.560000,315.480000,42.260000,314.870000,36.960000C314.580000,34.410000,313.060000,33.080000,310.360000,33.070000C300.720000,33.050000,291.070000,33.060000,281.430000,33.060000C251.390000,33.060000,221.350000,33.060000,191.310000,33.060000C187.220000,33.060000,186.210000,33.960000,185.760000,37.960000C183.870000,54.740000,181.950000,71.510000,180.120000,88.300000C179.990000,89.500000,179.610000,90.120000,178.530000,90.600000C168.090000,95.270000,158.280000,101.040000,148.920000,107.600000C148.230000,108.080000,146.800000,108.070000,145.970000,107.710000C130.650000,101.050000,115.360000,94.290000,100.070000,87.560000C96.260000,85.880000,94.890000,86.320000,92.810000,89.900000C73.050000,123.900000,53.300000,157.890000,33.550000,191.880000C31.480000,195.440000,31.800000,196.810000,35.180000,199.310000C48.640000,209.270000,62.080000,219.250000,75.570000,229.180000C76.650000,229.980000,77.040000,230.720000,76.920000,232.100000C75.870000,243.570000,75.850000,255.050000,76.920000,266.520000C77.070000,268.180000,76.580000,269.020000,75.300000,269.960000C61.750000,279.920000,48.250000,289.950000,34.730000,299.970000C31.950000,302.030000,31.610000,303.590000,33.350000,306.600000C53.260000,340.920000,73.180000,375.240000,93.110000,409.550000C94.820000,412.490000,96.390000,412.990000,99.580000,411.590000C115.010000,404.810000,130.450000,398.040000,145.850000,391.180000C147.280000,390.550000,148.230000,390.630000,149.460000,391.520000C158.550000,398.080000,168.150000,403.780000,178.450000,408.230000C179.480000,408.680000,180.010000,409.200000,180.150000,410.450000C181.400000,422.310000,182.750000,434.150000,184.070000,446C184.670000,451.370000,185.240000,456.750000,185.880000,462.120000C186.170000,464.520000,187.740000,465.800000,190.340000,465.810000C197.390000,465.840000,204.430000,465.820000,211.480000,465.820000C244.040000,465.820000,276.600000,465.820000,309.170000,465.820000C313.560000,465.820000,314.480000,465.050000,314.970000,460.710000C316.760000,444.890000,318.590000,429.070000,320.230000,413.240000C320.550000,410.140000,321.630000,408.300000,324.580000,407.020000C334.050000,402.920000,342.810000,397.500000,351.310000,391.700000C352.560000,390.850000,353.530000,390.790000,354.910000,391.400000C370.180000,398.190000,385.480000,404.910000,400.770000,411.640000C404.360000,413.220000,405.950000,412.700000,407.910000,409.340000C427.670000,375.270000,447.430000,341.210000,467.200000,307.140000C467.600000,306.450000,468.040000,305.780000,468.470000,305.100000C468.470000,304.360000,468.470000,303.620000,468.470000,302.870000C467.360000,301.710000,466.400000,300.370000,465.130000,299.420000C451.940000,289.590000,438.720000,279.790000,425.450000,270.070000C424.140000,269.110000,423.710000,268.200000,423.860000,266.600000C424.930000,255.130000,424.900000,243.650000,423.850000,232.180000C423.710000,230.750000,424.030000,229.920000,425.230000,229.040000ZM250.360000,402.680000C165.730000,402.680000,97.130000,334.070000,97.130000,249.450000C97.130000,164.830000,165.730000,96.220000,250.360000,96.220000C334.990000,96.220000,403.590000,164.830000,403.590000,249.450000C403.590000,334.070000,334.990000,402.680000,250.360000,402.680000Z"
            fill="#555"
            stroke="none"
            stroke-width="1"
        />
    </g>
    <g id="ec8cpe2uwx6k8">
        <g id="ec8cpe2uwx6k9_tr" transform="translate(251.995000,237.915000) rotate(0)">
            <path
                id="ec8cpe2uwx6k9"
                d="M277.230000,185.230000C269.770000,193.820000,262.310000,202.400000,254.830000,210.960000C254.210000,211.670000,252.970000,212.210000,252.010000,212.210000C237.630000,212.320000,226.140000,223.750000,226.100000,238.080000C226.070000,253.610000,239.410000,265.720000,254.750000,263.970000C254.930000,263.950000,255.090000,263.940000,255.250000,263.930000C261.940000,256.820000,271.740000,246.420000,277.920000,239.850000C278.140000,236.280000,277.740000,232.760000,276.380000,229.340000C275.820000,227.940000,276.100000,227.030000,276.850000,225.900000C290.640000,205.210000,304.400000,184.500000,318.140000,163.780000C318.750000,162.860000,319.300000,161.810000,319.530000,160.750000C320.310000,157.140000,318.070000,153.330000,314.280000,151.530000C310.490000,149.720000,307.340000,150.480000,304.470000,153.790000C295.410000,164.270000,286.320000,174.760000,277.230000,185.230000Z"
                transform="translate(-251.995000,-237.915000)"
                fill="#fff"
                stroke="#555"
                stroke-width="7"
                stroke-miterlimit="10"
            />
        </g>
    </g>
    <g id="ec8cpe2uwx6k10">
        <g id="ec8cpe2uwx6k11_tr" transform="translate(251.995000,237.920160) rotate(0)">
            <path
                id="ec8cpe2uwx6k11"
                d="M279.180000,238.030000C279.150000,253.050000,267.100000,265.040000,252.020000,265.160000C251.020000,265.170000,249.720000,265.730000,249.070000,266.480000C231.670000,286.420000,214.340000,306.420000,197,326.420000C194,329.890000,190.690000,330.680000,186.720000,328.780000C182.750000,326.890000,180.410000,322.900000,181.220000,319.110000C181.460000,317.990000,182.040000,316.900000,182.680000,315.930000C197.090000,294.200000,211.510000,272.490000,225.970000,250.800000C226.760000,249.610000,227.050000,248.660000,226.470000,247.190000C224.500000,242.240000,224.460000,237.100000,225.370000,231.890000C225.540000,230.890000,225.320000,229.520000,224.740000,228.720000C213.750000,213.720000,202.680000,198.780000,191.630000,183.820000C189.130000,180.440000,189.070000,177.160000,191.430000,173.790000C193.770000,170.450000,198.030000,168.700000,201.490000,169.850000C202.700000,170.250000,203.870000,171.060000,204.820000,171.930000C218.460000,184.480000,232.080000,197.060000,245.670000,209.660000C246.700000,210.610000,247.590000,211.050000,249.150000,210.870000C265.220000,209.050000,279.210000,221.750000,279.180000,238.030000Z"
                transform="translate(-251.995000,-237.920160)"
                fill="#b30000"
                stroke="#b30000"
                stroke-width="7"
                stroke-miterlimit="10"
            />
        </g>
    </g>
    <g id="ec8cpe2uwx6k12">
        <g id="ec8cpe2uwx6k13">
            <path
                id="ec8cpe2uwx6k14"
                d="M233.300000,237.710000C233.380000,227.530000,241.930000,219.150000,252.150000,219.230000C262.340000,219.320000,270.730000,227.830000,270.680000,238.050000C270.630000,248.360000,262.090000,256.710000,251.700000,256.610000C241.500000,256.520000,233.220000,248.010000,233.300000,237.710000Z"
                fill="rgb(255,255,255)"
                stroke="none"
                stroke-width="1"
            />
            <path
                id="ec8cpe2uwx6k15"
                d="M251.980000,226.840000C257.950000,226.830000,263.060000,231.930000,263.070000,237.900000C263.080000,243.860000,257.970000,248.980000,252.010000,248.990000C246.040000,249,240.930000,243.910000,240.920000,237.930000C240.910000,231.960000,246,226.850000,251.980000,226.840000Z"
                fill="rgb(65,64,66)"
                stroke="none"
                stroke-width="1"
            />
        </g>
    </g>
</svg>
