<svg xmlns="http://www.w3.org/2000/svg" viewBox="0 0 650 650" overflow="hidden" preserveAspectRatio="xMidYMid meet" id="eaf-1517f-0"><defs><clipPath id="eaf-1517f-1"><rect x="0" y="0" width="650" height="650"></rect></clipPath><style>#eaf-1517f-0 * {animation: 6000ms linear infinite normal both running;offset-rotate:0deg}@keyframes eaf-1517f-2{0%,100%{transform:translate(325px,309.5px)}}@keyframes eaf-1517f-3{0%{transform:rotate(0)}50%{transform:rotate(0)}99.72%,100%{transform:rotate(360deg)}}@keyframes eaf-1517f-4{0%,100%{transform:translate(-325px,-309.5px)}}@keyframes eaf-1517f-5{0%,100%{transform:none;offset-path:path("m325 329.55l0 0l616.0971 0l0 0l-1254.991 0l638.8939 0")}}@keyframes eaf-1517f-6{0%{offset-distance:0%}50%{offset-distance:0%}75%{offset-distance:24.5459%}75.83%{offset-distance:24.5459%}77.78%{offset-distance:74.5459%}99.72%,100%{offset-distance:100%}}@keyframes eaf-1517f-7{0%{transform:scale(1,1)}4.72%{transform:scale(1,1);animation-timing-function:ease-in-out}15.55%{transform:scale(0.6646,0.6646);animation-timing-function:ease-in-out}18.33%{transform:scale(0.6588,0.6588);animation-timing-function:ease-in-out}20.28%{transform:scale(0.69,0.69)}33.33%{transform:scale(0.69,0.69);animation-timing-function:ease-in-out}38.05%{transform:scale(1.1,1.1);animation-timing-function:ease-in-out}39.72%,100%{transform:scale(1,1)}}@keyframes eaf-1517f-8{0%,100%{transform:translate(-325px,-329.55px)}}@keyframes eaf-1517f-9{0%{opacity:1}75%{opacity:1}75.83%{opacity:0}77.78%{opacity:0}78.05%,100%{opacity:1}}</style></defs><g clip-path="url('#eaf-1517f-1')" style="isolation: isolate;"><g><path fill="#e1f3fd" d="m651.4 325.1c0 81.6 0 163.1 0 244.7c0 37.4 -28.2 71.6 -65 78.6c-5.5 1 -11.1 1.6 -16.6 1.6c-162.6 0 -325.2 0 -487.7 0c-39.9 0 -74.7 -30.6 -79.9 -70.2c-0.5 -3.5 -0.8 -7 -0.8 -10.6c0 -163 0 -326 0 -488.9c0 -37.4 28.2 -71.6 65 -78.6c5.4 -1 11.1 -1.6 16.6 -1.6c162.7 -0.1 325.4 -0.1 488.0999 -0.1c37.4 0 71.6 28.2 78.6 65c1 5.4 1.6 11.1 1.6 16.6c0.1001 81.2 0.1001 162.3 0.1001 243.5l0 0l0 0z"></path><g transform="translate(0 0)" style="animation-name: eaf-1517f-5, eaf-1517f-6, eaf-1517f-7, eaf-1517f-8, eaf-1517f-9; animation-composition: replace, add, add, add, replace;"><g style="filter: drop-shadow(rgb(85, 85, 85) 8px 8px 12px);"><g><ellipse fill="#555" rx="276.1" ry="276.1" transform="translate(325 340.5)"></ellipse></g></g><g style="animation-name: eaf-1517f-2, eaf-1517f-3, eaf-1517f-4; animation-composition: replace, add, add;"><ellipse fill="#fefadf" stroke="#555" stroke-width="16" stroke-miterlimit="10" rx="267" ry="267" transform="translate(325 309.5)"></ellipse><g style="filter: drop-shadow(rgb(191, 191, 191) 9px 9px 2px);"><path fill="#555" d="m480 343.4c-8.2 -6.6 -18.2 -10 -29.6 -10c-13.5 0 -23.7 3.6 -30.3 10.8c-5.3 5.7 -9.7 13.1 -13.2 21.9c-6.7 15.2 -16.7 26.8 -29.6 34.5c-12.9 7.7 -29 11.6 -48 11.6c-17.5 0 -33 -3.5 -45.9 -10.3c-12.8 -6.8 -22.9 -17.3 -30 -31.3c-7.4 -14.5 -11.1 -33.3 -11.1 -55.6c0 -33.2 8.4 -59 24.9 -76.6c16.1 -17.2 37.3 -25.6 64.6 -25.6c16.9 0 31.2 3.3 42.5 9.7c11.6 6.6 22 17 30.8 30.8c6.4 10 12.2 17 17.7 21.4c6.6 5.2 16.1 7.9 28.1 7.9c11.3 0 21.1 -3.6 29 -10.7c7.7 -6.9 11.6 -15.1 11.6 -24.2c0 -14.5 -6.8 -29.9 -20.2 -45.6c-10.7 -12.6 -25.4 -23.7 -43.7 -32.9l0 -65.7c0 -12.6 -11.3 -22.9 -25.2 -22.9l-30 0c-13.8 0 -25.2 10.3 -25.2 22.9l0 44.6c-5.2 -0.3 -10.4 -0.5 -15.8 -0.5c-8.8 0 -17.4 0.5 -25.9 1.4l0 -45.5c0 -12.6 -11.3 -22.9 -25.2 -22.9l-30 0c-13.8 0 -25.2 10.3 -25.2 22.9l0 70.8c-9 5.2 -17.5 11.2 -25.2 17.9c-16.8 14.5 -29.9 32.1 -38.9 52.4c-8.9 20.1 -13.4 43.2 -13.4 68.4c0 15.5 1.8 30.5 5.3 44.3c3.5 14 8.9 27.3 16.1 39.6c7.1 12.4 15.9 23.7 26 33.7l0.1 0.1c9.2 9 19.3 16.6 30.1 22.9l0 62.2c0 12.6 11.3 22.9 25.2 22.9l30 0c13.8 0 25.2 -10.3 25.2 -22.9l0 -39.2c8.9 0.8 18.2 1.1 27.9 1.1c4.7 0 9.3 -0.1 13.8 -0.3l0 38.5c0 12.6 11.3 22.9 25.2 22.9l30 0c13.8 0 25.2 -10.3 25.2 -22.9l0 -59.1c10.1 -5.3 19 -11.3 26.7 -18.1c13 -11.5 22.8 -23.5 28.9 -35.5c6.2 -12.2 9.4 -23.8 9.4 -34.6c-0.2 -10.1 -4.4 -18.5 -12.7 -25.2z"></path></g></g></g></g></g></svg>