<svg xmlns="http://www.w3.org/2000/svg" viewBox="0 0 500 500" overflow="hidden" preserveAspectRatio="xMidYMid meet" id="eaf-5a9b-0"><defs><clipPath id="eaf-5a9b-1"><rect x="0" y="0" width="500" height="500"></rect></clipPath><style>#eaf-5a9b-0 * {animation: 4000ms linear infinite normal both running;offset-rotate:0deg}@keyframes eaf-5a9b-2{0%,100%{transform:translate(173.1px,345.6px)}}@keyframes eaf-5a9b-3{0%{transform:rotate(0)}43.33%{transform:rotate(0);animation-timing-function:ease-in-out}62.5%{transform:rotate(-67deg);animation-timing-function:ease-in-out}80.83%{transform:rotate(20.1912deg);animation-timing-function:ease-in-out}100%{transform:rotate(0)}}@keyframes eaf-5a9b-4{0%,100%{transform:translate(-173.1px,-345.6px)}}@keyframes eaf-5a9b-5{0%,100%{transform:translate(336px,182px)}}@keyframes eaf-5a9b-6{0%{transform:rotate(0)}43.33%{transform:rotate(0);animation-timing-function:ease-in-out}62.5%{transform:rotate(24deg);animation-timing-function:ease-in-out}80.83%{transform:rotate(-15deg);animation-timing-function:ease-in-out}100%{transform:rotate(0)}}@keyframes eaf-5a9b-7{0%,100%{transform:translate(-336px,-182px)}}</style></defs><g clip-path="url('#eaf-5a9b-1')" style="isolation: isolate;"><g><g transform="matrix(4 0 0 4 -827.28 -2254.5264)"><path fill="#e1f3fd" d="m331.7 626.3c0 15.6 0 31.3 0 46.9c0 7.2 -5.4 13.7 -12.5 15.1c-1 0.2 -2.1 0.3 -3.2 0.3c-31.2 0 -62.4 0 -93.6 0c-7.6 0 -14.3 -5.9 -15.3 -13.5c-0.1 -0.7 -0.1 -1.4 -0.1 -2c0 -31.3 0 -62.5 0 -93.8c0 -7.2 5.4 -13.7 12.5 -15.1c1 -0.2 2.1 -0.3 3.2 -0.3c31.2 0 62.4 0 93.6 0c7.2 0 13.7 5.4 15.1 12.5c0.2 1 0.3 2.1 0.3 3.2c0 15.6 0 31.1 0 46.7z"></path></g><ellipse fill="#555" rx="244.8" ry="244.8" transform="translate(250 250)"></ellipse><g style="animation-name: eaf-5a9b-5, eaf-5a9b-6, eaf-5a9b-7; animation-composition: replace, add, add;"><path fill="#fefadf" d="m287.3 182c0 26.9 21.8 48.8 48.7 48.8c26.9 0 48.7 -21.9 48.7 -48.8c0 -27 -21.9 -48.8 -48.7 -48.8c-27 0 -48.8 21.9 -48.7 48.8l0 0z"></path><path fill="#fefadf" d="m335.8 84.5c-53.7 0 -97.4 43.7 -97.4 97.5l0.1 0l0 1.3l-62.6 91c-1 0 -1.9 -0.1 -2.9 -0.1c-39.4 0 -71.4 32 -71.4 71.4c0 39.4 32 71.4 71.4 71.4c39.4 0 71.4 -32 71.4 -71.4c0 -0.7 0 -1.5 -0.1 -2.2l89.2 -63.8l2.2 0c53.7 0 97.4 -43.8 97.4 -97.6c0.1 -53.7 -43.5 -97.4 -97.3 -97.5zm-162.7 316c-30.3 0 -54.9 -24.6 -54.9 -54.9c0 -30.3 24.6 -54.9 54.9 -54.9c30.3 0 54.9 24.6 54.9 54.9c0 30.3 -24.6 54.9 -54.9 54.9zm162.9 -153.5l0 0c-35.8 -0.1 -64.8 -29.2 -64.9 -65c0 -35.8 29 -64.9 64.9 -65c35.8 0.1 64.8 29.1 64.9 65c-0.1 35.8 -29.1 64.9 -64.9 65z"></path><path fill="#fefadf" d="m190.3 309.6l0 0l0 0c-1.3 -0.6 -2.6 -1.2 -4 -1.6l-249.6 -102.8l-41 71l261.9 106.2c0 0 0 0 0 0l1.1 0.4l0 0c4.5 1.7 9.3 2.7 14.4 2.7c22 0 39.9 -17.9 39.9 -39.9c0 -15.9 -9.3 -29.6 -22.7 -36z" style="animation-name: eaf-5a9b-2, eaf-5a9b-3, eaf-5a9b-4; animation-composition: replace, add, add;"></path></g><path fill="#e1f3fd" d="m499.5 63.9c0 -4.4 -0.4 -8.8 -1.2 -12.8c-5.6 -28.4 -31.6 -50 -60.4 -50c-124.8 0 -249.6 0 -374.4 0c-4.4 0 -8.8 0.4 -12.8 1.2c-28.4 5.6 -50 31.6 -50 60.4c0 125.2 0 250 0 375.2c0 2.4 0 5.2 0.4 8c4 30.4 30.8 54 61.2 54c124.8 0 249.6 0 374.4 0c4.4 0 8.8 -0.4 12.8 -1.2c28.4 -5.6 50 -31.6 50 -60.4c0 -62.4 0 -125.2 0 -187.6c0 -62.4 0 -124.4 0 -186.8zm-249.5 430.9c-135.2 0 -244.8 -109.6 -244.8 -244.8c0 -135.2 109.6 -244.8 244.8 -244.8c135.2 0 244.8 109.6 244.8 244.8c0 135.2 -109.6 244.8 -244.8 244.8z"></path></g></g></svg>