<svg xmlns="http://www.w3.org/2000/svg" viewBox="0 0 769 769" overflow="hidden" preserveAspectRatio="xMidYMid meet" id="eaf-1d4d-0"><defs><clipPath id="eaf-1d4d-1"><rect x="0" y="0" width="769" height="769"></rect></clipPath><linearGradient gradientUnits="userSpaceOnUse" x1="165.17" y1="500.725" x2="605.21" y2="500.725" id="eaf-1d4d-2"><stop stop-color="#555" offset="0.2756"></stop><stop stop-color="#646566" offset="0.3397"></stop><stop stop-color="#858789" offset="0.4431"></stop><stop stop-color="#797a7c" offset="0.5125"></stop><stop stop-color="#585959" offset="0.6413"></stop><stop stop-color="#555" offset="0.6537"></stop></linearGradient><clipPath id="eaf-1d4d-3"><path d="m0 0l769 0l0 769l-769 0l0 -769z" clip-rule="evenodd"></path></clipPath></defs><g clip-path="url('#eaf-1d4d-1')" style="isolation: isolate;"><g><g clip-path="url('#eaf-1d4d-3')" style="isolation: isolate;"><g><g><g><g transform="matrix(4 0 0 4 -887.96 -2344.0063)"><path fill="#e1f3fd" d="m414.2 682.4c0 24.1 0 48.1 0 72.2c0 11 -8.3 21.1 -19.2 23.2c-1.6 0.3 -3.3 0.5 -4.9 0.5c-48 0 -95.9 0 -143.9 0c-11.8 0 -22 -9 -23.6 -20.7c-0.1 -1 -0.2 -2.1 -0.2 -3.1c0 -48.1 0 -96.2 0 -144.3c0 -11 8.3 -21.1 19.2 -23.2c1.6 -0.3 3.3 -0.5 4.9 -0.5c48 0 96 0 144 0c11 0 21.1 8.3 23.2 19.2c0.3 1.6 0.5 3.3 0.5 4.9c0 23.8999 0 47.7999 0 71.7999z"></path></g></g><g transform="matrix(-0.1208 0.9842 -1.1551 -0.1418 152.7085 183.7306)"><path fill="#f6c34d" stroke="#555" stroke-width="22" stroke-miterlimit="10" d="m-345.2 184.8c-14.2 0.6 -26.9 8.7 -33.6 21.2l-48.4 91.8c-6.6 12.6 -6 27.7 1.5 39.7l16.2 25.7c0 0 0 0 0 0l30.2 48c0 0 0 0 0 0l8.6 13.7c7.6 12 21 19.1 35.3 18.5l103.3 -4.2c14.2 -0.6 26.9 -8.7 33.6 -21.2l92.2 -89.5c6.6 -12.6 41.2 -50 33.7 -62l-111.4 -137.5c-7.6 -12 -21 -19.1 -35.3 -18.5l-125.9 74.3z"></path><path fill="#f6c34d" stroke="#555" stroke-width="22" stroke-miterlimit="10" d="m-432.5 354l-90.3 23.7c-14.6 3.8 -20.5 21.4 -11.2 33.3l80.1 102.1c9.4 12 28.1 10.3 35.2 -3.3l40.5 -77.8c3.4 -6.6 3.1 -14.6 -0.9 -20.9l-30.2 -48c-5 -7.7 -14.3 -11.4 -23.2 -9.1z"></path></g><g transform="translate(21.2586 10.7614)"><g><path fill="#555" d="m-479.6 -16c0 -12.3 0 -24.5 0 -36.7c0 -29.6 24 -53.6 53.6 -53.7c18.7 0 37.4 0 56.4 -0.1c0 -16 0 -31.9 0 -47.8c0 -26 21.1 -47.1 47.1 -47.1c47.3 0 94.5 -0.1 142.1 -0.1c20.4 0 37 16.5 37 36.9c0 19.2 0.1 38.5 0.1 58c14.3 0 28.5 0 42.7 0c33.5 0 60.8 27.2 60.8 60.7c0 9.8 0 19.6 0 29.6c-146.7 0.2 -292.9 0.2 -439.8 0.3l0 0zm156.2 -90.4c45.1 0 89.2 -0.1 134 -0.1c0 -16.5 0 -32.3 0 -48.9c-44.8 0 -89.2 0.1 -134 0.1c-0.1 16.5 0 32.1 0 48.9l0 0z"></path></g></g><path fill="url('#eaf-1d4d-2')" d="m579.2 735.8c0 -156.8 26 -313.6 26 -470.5c0 -3.4 0 -6.9 0 -10.2l-440 0c0 3.5 0 6.5 0 9.5c0 157.6 26.3 315.3 26.3 472.9l0 0c0 4.9 4 8.8 8.8 8.8l368.7 0c5.7 0 10.2 -4.7 10.2 -10.4c0 0.0001 0 0.0001 0 -0.1zm-307.9 -57.4l0 0c-6.4 0 -11.6 -4.9 -12 -11.3l-22.3 -344.5l66 0l-21.1 345.8c-0.3 5.6 -5 10 -10.6 10l0 0zm117.7 0l0 0c-8.3 0 -15 -6.5 -15.3 -14.8l-12.7 -341.4l55 0l-19.8 349.5c-0.3 3.8 -3.4 6.7 -7.2 6.7zm121 0l0 0c-11.6 0 -21.1 -9.2 -21.5 -20.8l-11.5 -335.3l54 0l-21 356.1l0 -0.0001z"></path></g></g></g></g></g></svg>