<svg xmlns="http://www.w3.org/2000/svg" viewBox="0 0 650 650" overflow="hidden" preserveAspectRatio="xMidYMid meet" id="eaf-d73d-0"><defs><clipPath id="eaf-d73d-1"><rect x="0" y="0" width="650" height="650"></rect></clipPath><style>#eaf-d73d-0 * {animation: 7000ms linear infinite normal both running;offset-rotate:0deg}@keyframes eaf-d73d-2{0%,100%{transform:translate(321.2px,428.25px)}}@keyframes eaf-d73d-3{0%{animation-timing-function:step-start}85.71%{transform:rotate(0);animation-timing-function:ease-in-out}86.66%{transform:rotate(0.5deg);animation-timing-function:ease-in-out}86.67%{transform:rotate(0.7deg);animation-timing-function:ease-in-out}87.61%{transform:rotate(-0.7deg);animation-timing-function:ease-in-out}88.57%{transform:rotate(0.7deg);animation-timing-function:ease-in-out}89.51%{transform:rotate(-0.5deg);animation-timing-function:ease-in-out}89.53%{transform:rotate(-0.7deg);animation-timing-function:ease-in-out}90.47%{transform:rotate(0.7deg);animation-timing-function:ease-in-out}91.43%{transform:rotate(-0.7deg);animation-timing-function:ease-in-out}92.39%{transform:rotate(0.7deg);animation-timing-function:ease-in-out}93.33%{transform:rotate(-0.7deg);animation-timing-function:ease-in-out}94.29%{transform:rotate(0.7deg);animation-timing-function:ease-in-out}95.23%{transform:rotate(-0.5deg);animation-timing-function:ease-in-out}95.24%{transform:rotate(-0.7deg);animation-timing-function:ease-in-out}96.19%{transform:rotate(0.7deg);animation-timing-function:ease-in-out}97.14%{transform:rotate(-0.7deg);animation-timing-function:ease-in-out}98.1%{transform:rotate(0.7deg);animation-timing-function:ease-in-out}99.04%,100%{transform:rotate(0)}}@keyframes eaf-d73d-4{0%,100%{transform:translate(-321.2px,-428.25px)}}@keyframes eaf-d73d-5{0%,100%{transform:translate(412.25px,211.25px)}}@keyframes eaf-d73d-6{0%{transform:scale(0,0)}14.29%{transform:scale(0,0)}21.43%,100%{transform:scale(1,1)}}@keyframes eaf-d73d-7{0%,100%{transform:translate(-412.25px,-211.25px)}}@keyframes eaf-d73d-8{0%{animation-timing-function:step-start}92.86%{opacity:1;animation-timing-function:ease-in-out}96.66%,100%{opacity:0}}@keyframes eaf-d73d-9{0%,100%{transform:translate(532.95px,211.25px)}}@keyframes eaf-d73d-10{0%{animation-timing-function:step-start}40%{transform:rotate(0);animation-timing-function:ease-in-out}41.43%{transform:rotate(-16deg);animation-timing-function:ease-in-out}42.86%{transform:rotate(16deg);animation-timing-function:ease-in-out}43.81%{transform:rotate(-16deg);animation-timing-function:ease-in-out}44.77%{transform:rotate(0);animation-timing-function:ease-in-out}46.2%{transform:rotate(-16deg);animation-timing-function:ease-in-out}47.63%{transform:rotate(16deg);animation-timing-function:ease-in-out}48.59%{transform:rotate(-16deg);animation-timing-function:ease-in-out}49.53%,100%{transform:rotate(0)}}@keyframes eaf-d73d-11{0%{transform:scale(0,0)}28.57%{transform:scale(0,0);animation-timing-function:ease-in-out}35.71%,100%{transform:scale(1,1)}}@keyframes eaf-d73d-12{0%,100%{transform:translate(-532.95px,-211.25px)}}@keyframes eaf-d73d-13{0%{animation-timing-function:step-start}85.71%{opacity:1;animation-timing-function:ease-in-out}89.51%,100%{opacity:0}}@keyframes eaf-d73d-14{0%,100%{transform:translate(291.65px,428.25px)}}@keyframes eaf-d73d-15{0%,58.1%{transform:rotate(0)}59.53%{transform:rotate(-16deg)}60.96%{transform:rotate(16deg)}61.91%{transform:rotate(-16deg)}62.87%{transform:rotate(0)}64.3%{transform:rotate(-16deg)}65.73%{transform:rotate(16deg)}66.69%{transform:rotate(-16deg)}67.63%,100%{transform:rotate(0)}}@keyframes eaf-d73d-16{0%{transform:scale(0,0)}50.96%{transform:scale(0,0);animation-timing-function:ease-in-out}57.14%,100%{transform:scale(1,1)}}@keyframes eaf-d73d-17{0%,100%{transform:translate(-291.65px,-428.25px)}}@keyframes eaf-d73d-18{0%,80%{opacity:1}83.8%,100%{opacity:0}}@keyframes eaf-d73d-19{0%,100%{transform:translate(412.25px,428.25px)}}@keyframes eaf-d73d-20{0%,63.81%{transform:rotate(0)}65.24%{transform:rotate(-16deg)}66.67%{transform:rotate(16deg)}67.63%{transform:rotate(-16deg)}68.59%{transform:rotate(0)}70.01%{transform:rotate(-16deg)}71.44%{transform:rotate(16deg)}72.4%{transform:rotate(-16deg)}73.34%,100%{transform:rotate(0)}}@keyframes eaf-d73d-21{0%{transform:scale(0,0)}56.67%{transform:scale(0,0);animation-timing-function:ease-in-out}62.86%,100%{transform:scale(1,1)}}@keyframes eaf-d73d-22{0%,100%{transform:translate(-412.25px,-428.25px)}}@keyframes eaf-d73d-23{0%,79.04%{opacity:1}82.84%,100%{opacity:0}}@keyframes eaf-d73d-24{0%,100%{transform:translate(532.95px,428.25px)}}@keyframes eaf-d73d-25{0%,66.67%{transform:rotate(0)}68.1%{transform:rotate(-16deg)}69.53%{transform:rotate(16deg)}70.49%{transform:rotate(-16deg)}71.44%{transform:rotate(0)}72.87%{transform:rotate(-16deg)}74.3%{transform:rotate(16deg)}75.26%{transform:rotate(-16deg)}76.2%,100%{transform:rotate(0)}}@keyframes eaf-d73d-26{0%{transform:scale(0,0)}59.53%{transform:scale(0,0);animation-timing-function:ease-in-out}65.71%,100%{transform:scale(1,1)}}@keyframes eaf-d73d-27{0%,100%{transform:translate(-532.95px,-428.25px)}}@keyframes eaf-d73d-28{0%,78.1%{opacity:1}81.9%,100%{opacity:0}}</style></defs><g clip-path="url('#eaf-d73d-1')" style="isolation: isolate;"><g><path fill="#e1f3fd" d="m651.4 325.1c0 81.6 0 163.1 0 244.7c0 37.4 -28.2 71.6 -65 78.6c-5.5 1 -11.1 1.6 -16.6 1.6c-162.6 0 -325.2 0 -487.7 0c-39.9 0 -74.7 -30.6 -79.9 -70.2c-0.5 -3.5 -0.8 -7 -0.8 -10.6c0 -163 0 -326 0 -488.9c0 -37.4 28.2 -71.6 65 -78.6c5.4 -1 11.1 -1.6 16.6 -1.6c162.7 -0.1 325.4 -0.1 488.0999 -0.1c37.4 0 71.6 28.2 78.6 65c1 5.4 1.6 11.1 1.6 16.6c0.1001 81.2 0.1001 162.3 0.1001 243.5l0 0l0 0z"></path><g><g style="filter: drop-shadow(rgb(85, 85, 85) 8px 8px 8px);"><path fill="#fefadf" fill-rule="evenodd" stroke="#555" stroke-width="15.3356" stroke-miterlimit="10" d="m585.5 292l-528.6 0c-19.1 0 -34.5 -15.4 -34.5 -34.5l0 -92.5c0 -19.1 15.4 -34.5 34.5 -34.5l528.6 0c19.1 0 34.5 15.4 34.5 34.5l0 92.5c0 19.1 -15.4 34.5 -34.5 34.5z"></path></g><path fill="#f4c14a" fill-rule="evenodd" stroke="#555" stroke-width="12.0475" stroke-miterlimit="10" d="m143.4 260.6l-63.8 0c-9.7 0 -17.5 -7.8 -17.5 -17.5l0 -63.7c0 -9.7 7.8 -17.5 17.5 -17.5l63.7 0c9.7 0 17.5 7.8 17.5 17.5l0 63.7c0.1 9.7 -7.8 17.5 -17.4 17.5z"></path><g style="filter: drop-shadow(rgb(85, 85, 85) 8px 8px 8px);"><path fill="#fefadf" fill-rule="evenodd" stroke="#555" stroke-width="15.3356" stroke-miterlimit="10" d="m585.5 509l-528.6 0c-19.1 0 -34.5 -15.4 -34.5 -34.5l0 -92.5c0 -19.1 15.4 -34.5 34.5 -34.5l528.6 0c19.1 0 34.5 15.4 34.5 34.5l0 92.5c0 19.1 -15.4 34.5 -34.5 34.5z" style="animation-name: eaf-d73d-2, eaf-d73d-3, eaf-d73d-4; animation-composition: replace, add, add;"></path></g><path fill="#f4c14a" fill-rule="evenodd" stroke="#555" stroke-width="12.0475" stroke-miterlimit="10" d="m143.4 477.6l-63.8 0c-9.7 0 -17.5 -7.8 -17.5 -17.5l0 -63.7c0 -9.7 7.8 -17.5 17.5 -17.5l63.7 0c9.7 0 17.5 7.8 17.5 17.5l0 63.7c0.1 9.7 -7.8 17.5 -17.4 17.5z"></path><ellipse fill="#fff" rx="24.5" ry="30.5" transform="translate(110.5 211.2)"></ellipse><ellipse fill="#fff" rx="24.5" ry="30.5" transform="translate(111.5 428.2)"></ellipse></g><path fill="#bfbfbf" fill-rule="evenodd" stroke="#555" stroke-width="12.9602" stroke-miterlimit="10" d="m315.9 254l-48.5 0c-10.2 0 -18.5 -8.3 -18.5 -18.5l0 -48.5c0 -10.2 8.3 -18.5 18.5 -18.5l48.5 0c10.2 0 18.5 8.3 18.5 18.5l0 48.5c0 10.2 -8.3 18.5 -18.5 18.5z"></path><path fill="#bfbfbf" fill-rule="evenodd" stroke="#555" stroke-width="12.9602" stroke-miterlimit="10" d="m436.5 254l-48.5 0c-10.2 0 -18.5 -8.3 -18.5 -18.5l0 -48.5c0 -10.2 8.3 -18.5 18.5 -18.5l48.5 0c10.2 0 18.5 8.3 18.5 18.5l0 48.5c0 10.2 -8.2 18.5 -18.5 18.5z" transform="matrix(0 0 0 0 412.25 211.25)" style="animation-name: eaf-d73d-5, eaf-d73d-6, eaf-d73d-7, eaf-d73d-8; animation-composition: replace, add, add, replace;"></path><path fill="#bfbfbf" fill-rule="evenodd" stroke="#555" stroke-width="12.9602" stroke-miterlimit="10" d="m557.2 254l-48.5 0c-10.2 0 -18.5 -8.3 -18.5 -18.5l0 -48.5c0 -10.2 8.3 -18.5 18.5 -18.5l48.5 0c10.2 0 18.5 8.3 18.5 18.5l0 48.5c0 10.2 -8.3 18.5 -18.5 18.5z" transform="matrix(0 0 0 0 532.95 211.25)" style="animation-name: eaf-d73d-9, eaf-d73d-10, eaf-d73d-11, eaf-d73d-12, eaf-d73d-13; animation-composition: replace, add, add, add, replace;"></path><path fill="#bfbfbf" fill-rule="evenodd" stroke="#555" stroke-width="12.9602" stroke-miterlimit="10" d="m315.9 471l-48.5 0c-10.2 0 -18.5 -8.3 -18.5 -18.5l0 -48.5c0 -10.2 8.3 -18.5 18.5 -18.5l48.5 0c10.2 0 18.5 8.3 18.5 18.5l0 48.5c0 10.2 -8.3 18.5 -18.5 18.5z" transform="matrix(0 0 0 0 291.65 428.25)" style="animation-name: eaf-d73d-14, eaf-d73d-15, eaf-d73d-16, eaf-d73d-17, eaf-d73d-18; animation-composition: replace, add, add, add, replace;"></path><path fill="#bfbfbf" fill-rule="evenodd" stroke="#555" stroke-width="12.9602" stroke-miterlimit="10" d="m436.5 471l-48.5 0c-10.2 0 -18.5 -8.3 -18.5 -18.5l0 -48.5c0 -10.2 8.3 -18.5 18.5 -18.5l48.5 0c10.2 0 18.5 8.3 18.5 18.5l0 48.5c0 10.2 -8.2 18.5 -18.5 18.5z" transform="matrix(0 0 0 0 412.25 428.25)" style="animation-name: eaf-d73d-19, eaf-d73d-20, eaf-d73d-21, eaf-d73d-22, eaf-d73d-23; animation-composition: replace, add, add, add, replace;"></path><path fill="#bfbfbf" fill-rule="evenodd" stroke="#555" stroke-width="12.9602" stroke-miterlimit="10" d="m557.2 471l-48.5 0c-10.2 0 -18.5 -8.3 -18.5 -18.5l0 -48.5c0 -10.2 8.3 -18.5 18.5 -18.5l48.5 0c10.2 0 18.5 8.3 18.5 18.5l0 48.5c0 10.2 -8.3 18.5 -18.5 18.5z" transform="matrix(0 0 0 0 532.95 428.25)" style="animation-name: eaf-d73d-24, eaf-d73d-25, eaf-d73d-26, eaf-d73d-27, eaf-d73d-28; animation-composition: replace, add, add, add, replace;"></path></g></g></svg>