<svg xmlns="http://www.w3.org/2000/svg" viewBox="0 0 499.20001220703125 498.3999938964844" overflow="hidden" preserveAspectRatio="xMidYMid meet" id="eaf-56f-0"><defs><clipPath id="eaf-56f-1"><rect x="0" y="0" width="499.2" height="498.4"></rect></clipPath><style>#eaf-56f-0 * {animation: 14500ms linear infinite normal both running;offset-rotate:0deg}@keyframes eaf-56f-2{0%,100%{transform:none;offset-path:path("m249.6966 237.8194l0 -50l0 0l0 50")}}@keyframes eaf-56f-3{0%{offset-distance:0%;animation-timing-function:ease-in-out}20.69%{offset-distance:50%}86.67%{offset-distance:50%;animation-timing-function:ease-in-out}96.1%,100%{offset-distance:100%}}@keyframes eaf-56f-4{0%,100%{transform:translate(-250.7513px,-183.8194px)}}@keyframes eaf-56f-5{0%,100%{transform:none;offset-path:path("m249.766 256.4057l0 -50l0 0l0 50")}}@keyframes eaf-56f-6{0%{transform:scale(1,1)}23.68%{transform:scale(1,1);animation-timing-function:ease-in-out}25.98%{transform:scale(1,0);animation-timing-function:ease-in-out}28.05%{transform:scale(1,1)}30.12%{transform:scale(1,1);animation-timing-function:ease-in-out}32.19%{transform:scale(1,0);animation-timing-function:ease-in-out}34.02%{transform:scale(1,1)}75.17%{transform:scale(1,1);animation-timing-function:ease-in-out}77.24%{transform:scale(1,0);animation-timing-function:ease-in-out}79.31%,100%{transform:scale(1,1)}}@keyframes eaf-56f-7{0%,100%{transform:translate(-0.0375px,49.4126px)}}@keyframes eaf-56f-8{0%,100%{transform:none;offset-path:path("m377.8 207.2l0 0l-29.8053 -10.4l0 0l59.448 38.5l0 0l-29.6427 -28.1")}}@keyframes eaf-56f-9{0%{offset-distance:0%}49.54%{offset-distance:0%;animation-timing-function:ease-in-out}54.02%{offset-distance:22.0385%}59.08%{offset-distance:22.0385%;animation-timing-function:ease-in-out}62.88%{offset-distance:71.4847%}65.63%{offset-distance:71.4847%;animation-timing-function:ease-in-out}68.62%,100%{offset-distance:100%}}@keyframes eaf-56f-10{0%{transform:scale(1,0)}39.54%{transform:scale(1,0);animation-timing-function:linear(0 0%,0.47 8%,0.85 17%,1.11 26%,1.27 36%,1.32 45%,1.31 55%,1.25 64%,1.05 87%,1.01 94%,1 100%)}42.99%{transform:scale(1,1)}87.25%{transform:scale(1,1);animation-timing-function:ease-in-out}89.2%,100%{transform:scale(0,0)}}@keyframes eaf-56f-11{0%,100%{transform:translate(246.4051px,336.4001px)}}@keyframes eaf-56f-12{0%{transform:rotate(0)}47.36%{transform:rotate(0);animation-timing-function:ease-in-out}54.26%{transform:rotate(10deg);animation-timing-function:ease-in-out}58.62%{transform:rotate(16deg)}62.3%{transform:rotate(16deg);animation-timing-function:ease-in-out}65.98%{transform:rotate(10deg)}76.09%{transform:rotate(10deg);animation-timing-function:ease-in-out}85.75%,100%{transform:rotate(0)}}@keyframes eaf-56f-13{0%{transform:scale(1,0)}34.02%{transform:scale(1,0);animation-timing-function:ease-in-out}39.54%,100%{transform:scale(1,1)}}@keyframes eaf-56f-14{0%,100%{transform:translate(-246.4051px,-336.4001px)}}@keyframes eaf-56f-15{0%{opacity:1}86.9%{opacity:1;animation-timing-function:ease-in-out}87.81%,100%{opacity:0}}@keyframes eaf-56f-16{0%,100%{transform:none;offset-path:path("m121.7 207.2l0 0l-32.1 -10.4l0 0l59.448 38.5l0 0l-27.348 -28.1")}}@keyframes eaf-56f-17{0%{offset-distance:0%}49.54%{offset-distance:0%;animation-timing-function:ease-in-out}54.02%{offset-distance:23.4683%}59.08%{offset-distance:23.4683%;animation-timing-function:ease-in-out}62.88%{offset-distance:72.7283%}65.63%{offset-distance:72.7283%;animation-timing-function:ease-in-out}68.62%,100%{offset-distance:100%}}</style></defs><g clip-path="url('#eaf-56f-1')" style="isolation: isolate;"><g><g><path fill="#e1f3fd" d="m498.1 249.4c0 62.3 0 124.7 0 187c0 28.6 -21.6 54.7 -49.7 60c-4.2 0.8 -8.5 1.2 -12.7 1.2c-124.2 0.1 -248.5 0 -372.7 0c-30.5 0 -57 -23.4 -61 -53.7c-0.4 -2.7 -0.6 -5.4 -0.6 -8.1c0 -124.5 0 -249.1 0 -373.7c0 -28.6 21.6 -54.7 49.7 -60c4.1 -0.6 8.4 -1.1 12.6 -1.1c124.4 -0.1 248.7 0 373 0c28.6 0 54.7 21.6 60 49.7c0.8 4.2 1.2 8.5 1.2 12.7c0.2 62 0.2 124 0.2 186z"></path></g><g transform="translate(-1.0547 54)" style="animation-name: eaf-56f-2, eaf-56f-3, eaf-56f-4; animation-composition: replace, add, add;"><path fill="#555" d="m485.7 176c-4.7 -20.5 -14.9 -38.2 -30.9 -52.1c-10.5 -9.1 -21.2 -17.9 -32.1 -26.6c-12.4 -9.9 -24.6 -20.2 -37.7 -29.1c-19.6 -13.2 -41.4 -17.2 -64.5 -11.4c-14.8 3.7 -27.6 11 -38.3 21.8c-2.2 2.2 -3.8 2.7 -6.8 1.2c-16.4 -8.4 -33 -8.4 -49.4 0.1c-3.4 1.7 -5.1 1 -7.5 -1.4c-14.3 -14.7 -32 -22.6 -52.4 -24c-19.7 -1.3 -37.8 3.9 -53.4 16.2c-21.3 16.8 -42.9 33.2 -63.5 50.7c-21.8 18.6 -34.4 42.6 -36.5 71.4c-0.7 9.6 -0.5 19.3 0.7 28.8c1.9 15.5 8.2 29.6 16.9 42.4c21.1 31.1 50.8 47.6 88.2 49.3c21.2 1 41.2 -3.8 59.5 -14.9c18.9 -11.5 33.7 -27.1 43.8 -46.8c1.4 -2.7 2.4 -2.8 4.9 -1.6c7.3 3.6 15.1 5.8 23.1 6c8.7 0.2 17.1 -2.4 24.9 -6.2c2.5 -1.2 3.4 -0.5 4.6 1.6c3.5 5.8 6.8 11.7 10.8 17c22.3 29.5 52.2 44.2 89.1 44.9c2.5 0 5 0.2 7.4 0c23.2 -1.9 44.2 -9.7 61.9 -24.9c35.1 -29.6 47.5 -67.5 37.2 -112.4zm-235.1 46.5c-12.1 0.7 -19.7 -10.5 -19.7 -19.1c0.1 -10.5 9.1 -19.6 19.5 -19.6c11.1 0 19.5 8.4 19.7 19.2c0.1 8.9 -7.7 20.4 -19.5 19.5z"></path></g><g transform="translate(249.7285 305.8184)" style="animation-name: eaf-56f-5, eaf-56f-3, eaf-56f-6, eaf-56f-7; animation-composition: replace, add, add, add;"><g transform="translate(-254.1992 -251.8184)"><g><path fill="#f6e9c4" d="m454.7 202c0.8 42.6 -35.3 72.1 -70.5 72.8c-43.2 1 -74.5 -35.5 -74.5 -72.3c0 -40.9 35.5 -72.7 72.2 -72.6c41.3 0.1 74 35.2 72.8 72.1z"></path><path fill="#f6e9c4" d="m53.8 203c-1.7 -40.6 33.9 -73.4 72.8 -73.1c39.1 0.3 73.5 33.3 72 75.2c-1.3 35.8 -30.8 70.6 -75.2 69.8c-35.8 -0.6 -71.2 -33.4 -69.6 -71.9z"></path><path fill="#fff" d="m329.4 200.3c1.4 -15.2 8 -27.2 18.9 -37.1c9.7 -8.7 21 -12.8 34 -12.7c4.9 0 8.1 4.1 8.6 7.5c0.5 4 -2.4 8.1 -6.8 9.2c-4.3 1.1 -8.8 1.5 -13 3c-14.9 5.2 -21.9 16.6 -23.6 31.6c-0.5 4.1 -2.4 7.2 -6.1 8.8c-3.6 1.5 -6.9 0.2 -9 -2.7c-1.6 -2.1 -2.1 -5 -3 -7.6z"></path><path fill="#fff" d="m74.2 198.7c1 -22.7 20.3 -44.3 43.8 -47.7c2.4 -0.4 5 -0.3 7.4 -0.3c5.3 0 9.7 3.8 9.7 8.4c0 4.6 -4.2 8.5 -9.4 9c-9.9 0.8 -18.7 4.3 -25.5 11.9c-5.5 6.2 -7.8 13.6 -8.8 21.6c-0.3 2.3 -1.1 4.7 -2.4 6.5c-2.1 2.8 -5.2 4.1 -8.7 2.8c-3.5 -1.4 -6.1 -3.8 -6.1 -7.9c-0.1 -1.6 0 -2.9 0 -4.3z"></path></g></g></g><ellipse fill="#555" rx="38.5" ry="38.5" transform="matrix(1 0 0 0 377.8 207.2)" style="animation-name: eaf-56f-8, eaf-56f-9, eaf-56f-10; animation-composition: replace, add, add;"></ellipse><g transform="matrix(1 0 0 0 0 336.4001)" style="animation-name: eaf-56f-11, eaf-56f-12, eaf-56f-13, eaf-56f-14, eaf-56f-15; animation-composition: replace, add, add, add, replace;"><path fill="#555" d="m222.8 380.1c-28.9 3.6 -56.6 4.7 -81.3 3.6c-15.9 -0.7 -30.2 17.3 -30 38.2c0.1 7.1 1.4 13.8 4.2 20.1c18.7 42.7 94.8 47.7 170 11.1c47.4 -23.1 83.1 -57.2 98.3 -89.9c7.9 -16.9 -4.3 -35.2 -17.9 -26.8c-31.7 19.5999 -83.6 36.3 -143.3 43.7z"></path><path fill="#fff" d="m156.8 397.4c-7.1 7.4 -10.5 14.4 -9.2 20.5c4 18.7 51.5 20.6 106.1 4.2c54.6 -16.4 95.6 -44.8 91.5 -63.4c-0.2 -0.8 -0.4 -1.5 -0.7 -2.3c-31.1 16.3 -72.5 29.5 -118.5 36.3c-24.3 3.6 -47.6 5.1 -69.2 4.7z"></path></g><ellipse fill="#555" rx="38.5" ry="38.5" transform="matrix(1 0 0 0 121.7 207.2)" style="animation-name: eaf-56f-16, eaf-56f-17, eaf-56f-10; animation-composition: replace, add, add;"></ellipse></g></g></svg>