<svg xmlns="http://www.w3.org/2000/svg" viewBox="0 0 500 500" overflow="hidden" preserveAspectRatio="xMidYMid meet" id="eaf-16e91-0"><defs><clipPath id="eaf-16e91-1"><rect x="0" y="0" width="500" height="500"></rect></clipPath><style>#eaf-16e91-0 * {animation: 9000ms linear infinite normal both running;offset-rotate:0deg}@keyframes eaf-16e91-2{0%,100%{transform:none;offset-path:path("m221.9999 335.5466l-352.1137 -333.2729")}}@keyframes eaf-16e91-3{0%{animation-timing-function:step-start}78.52%{offset-distance:0%;animation-timing-function:ease-in-out}88.9%,100%{offset-distance:100%}}@keyframes eaf-16e91-4{0%{transform:scale(0.7,0)}21.86%{transform:scale(0.7,0);animation-timing-function:ease-in-out}25.93%,100%{transform:scale(1,1)}}@keyframes eaf-16e91-5{0%,100%{transform:translate(-224.05px,-325px)}}@keyframes eaf-16e91-6{0%,100%{transform:none;offset-path:path("m668.7435 395.074l0 0q-135.4721 -205.454 -313.485 -11.9643l0 0l-453.4889 -196.4026")}}@keyframes eaf-16e91-7{0%{offset-distance:0%}35.57%{offset-distance:0%;animation-timing-function:ease-in}42.6%{offset-distance:43.8014%}78.52%{offset-distance:43.8014%;animation-timing-function:ease-in-out}88.9%,100%{offset-distance:100%}}@keyframes eaf-16e91-8{0%,100%{transform:matrix(0.256,0.0636,-0.0636,0.256,-127.0414,-153.8383)}}@keyframes eaf-16e91-9{0%,100%{transform:none;offset-path:path("m-59.1508 372.2761l0 0q137.488 -176.8893 270.7432 18.202l0 0l-304.4307 -154.0812")}}@keyframes eaf-16e91-10{0%{offset-distance:0%}41.49%{offset-distance:0%;animation-timing-function:ease-in}48.16%{offset-distance:49.9904%}78.52%{offset-distance:49.9904%;animation-timing-function:ease-in}83.71%,100%{offset-distance:100%}}@keyframes eaf-16e91-11{0%,100%{transform:matrix(-0.247,0.0925,0.0925,0.247,5.546,-164.9897)}}@keyframes eaf-16e91-12{0%,100%{transform:translate(439.1px,110.2291px)}}@keyframes eaf-16e91-13{0%{transform:rotate(0)}69.27%{transform:rotate(0);animation-timing-function:ease-in-out}77.41%{transform:rotate(-12deg);animation-timing-function:ease-in-out}81.12%{transform:rotate(9deg);animation-timing-function:ease-in-out}87.79%,100%{transform:rotate(0)}}@keyframes eaf-16e91-14{0%,100%{transform:translate(-439.1px,-110.2291px)}}@keyframes eaf-16e91-15{0%,100%{transform:none;offset-path:path("m190.8 157.4l0 0l16.1553 145.24")}}@keyframes eaf-16e91-16{0%{offset-distance:0%}14.08%{offset-distance:0%;animation-timing-function:ease-in}22.23%,100%{offset-distance:100%}}@keyframes eaf-16e91-17{0%{transform:scale(1,1)}22.23%{transform:scale(1,1);animation-timing-function:ease-in-out}25.19%,100%{transform:scale(0.7,0)}}@keyframes eaf-16e91-18{0%,100%{transform:translate(-190.8px,-157.4px)}}@keyframes eaf-16e91-19{0%,100%{transform:none;offset-path:path("m188.105 9.0713l0 -242.162")}}@keyframes eaf-16e91-20{0%{animation-timing-function:step-start}28.16%{offset-distance:0%;animation-timing-function:ease-in-out}34.82%,100%{offset-distance:100%}}@keyframes eaf-16e91-21{0%{transform:rotate(0)}7.41%{transform:rotate(0)}15.93%,100%{transform:rotate(15deg)}}@keyframes eaf-16e91-22{0%,100%{transform:translate(-188.105px,-9.0713px)}}@keyframes eaf-16e91-23{0%,100%{transform:none;offset-path:path("m174.3 9.0713l0 -237.4725")}}@keyframes eaf-16e91-24{0%{animation-timing-function:step-start}30.01%{offset-distance:0%;animation-timing-function:ease-in-out}34.82%,100%{offset-distance:100%}}@keyframes eaf-16e91-25{0%{transform:rotate(0)}7.41%{transform:rotate(0)}15.93%,100%{transform:rotate(-7deg)}}@keyframes eaf-16e91-26{0%,100%{transform:translate(-174.3px,-9.0713px)}}@keyframes eaf-16e91-27{0%,100%{transform:none;offset-path:path("m191.5882 -117.315l0 241.7014")}}@keyframes eaf-16e91-28{0%{offset-distance:0%}7.79%,100%{offset-distance:100%}}@keyframes eaf-16e91-29{0%,7.79%{transform:scale(1,1)}9.27%{transform:scale(1,0.87)}10.38%,100%{transform:scale(1,1)}}@keyframes eaf-16e91-30{0%,100%{transform:translate(-191.5882px,-124.3863px)}}</style></defs><g clip-path="url('#eaf-16e91-1')" style="isolation: isolate;"><g><g transform="matrix(4 0 0 4 -827.28 -2254.5264)"><path fill="#e1f3fd" d="m331.7 626.3c0 15.6 0 31.3 0 46.9c0 7.2 -5.4 13.7 -12.5 15.1c-1 0.2 -2.1 0.3 -3.2 0.3c-31.2 0 -62.4 0 -93.6 0c-7.6 0 -14.3 -5.9 -15.3 -13.5c-0.1 -0.7 -0.1 -1.4 -0.1 -2c0 -31.3 0 -62.5 0 -93.8c0 -7.2 5.4 -13.7 12.5 -15.1c1 -0.2 2.1 -0.3 3.2 -0.3c31.2 0 62.4 0 93.6 0c7.2 0 13.7 5.4 15.1 12.5c0.2 1 0.3 2.1 0.3 3.2c0 15.6 0 31.1 0 46.7z"></path></g><g style="animation-name: eaf-16e91-12, eaf-16e91-13, eaf-16e91-14; animation-composition: replace, add, add;"><path fill="#555" d="m4743.2002 7627.3999c-69.7002 -22.1001 -225.8999 -134.5 -352.2002 -253.7002c-184.5 -173.6001 -335.1001 -360 -622.1001 -770.2998c-132.3 -189 -182.6001 -242.8999 -259.8 -277.7998c-56.3 -26.2002 -82 -24.6001 -187.8 8.2002c-257.8999 81.1001 -484.2 125.2998 -780.8 151.5c-93.2 8.2002 -411.1001 8.2002 -506.9 0c-326.1 -28.2002 -594.5 -83.7002 -885.2001 -183.2998c-343.3 -117.6001 -562.1 -248 -730.9 -435c-207.2 -229.6001 -322.8 -559.2002 -298.2 -851.3999c25.7 -301.3999 186.7 -649.1001 422.3 -911c405.5 -450.3999 1060 -713.3 1728.7 -694.8c404.3999 11.3 790.2 116.6001 1146.0999 311.7c449.5 246.5 736.1001 587 879.6001 1043.5c20.1001 64.7002 47.7002 168.3999 45.5 171.5c-0.7002 1 -13.7998 -19.5 -28.7002 -45.7002c-34.7002 -59.1001 -121.5 -179.7002 -166.6001 -230.6001c-214.7 -244.3999 -496.8 -426.2002 -878.8999 -565.8999c-758.1001 -277.8 -1590 -246.5 -2336.2 87.7998c-250.1 112 -416.3 216.2002 -530.4 332.7998c-42.1 43.7002 -107.7 136.1001 -134.9 191c-12.7 25.7002 -23.1 48.2998 -23.1 50.2998c0 1.5 16.4 -17.5 36.5 -43.1001c243 -310.2002 610.1 -524.2998 1115.5 -650.1001c270.2001 -66.8 509.1 -95.5 795.4 -95.5c224.7 0 392.5 14.3999 596.3 52.3999c536.7 99.1001 970.2 307.1001 1284 615.7002c169.2002 166.3999 258.7002 325.6001 287.7002 511c7.1001 46.7002 6 171 -1.8999 222.3999c-20.8999 132.5 -70.7998 264.5 -141.2998 375.8999c-111.7998 176.1001 -281.3999 309.1001 -563.8999 441.6001c-98.3999 46.7002 -99.5 47.2002 -67.1001 43.1001c87.2 -9.7998 184.1001 -51.3999 276.6001 -117.6001l45.5 -32.3999l8.2 33.8999c4.1001 19 17.5 62.1001 29.3999 96c37.3 105.7998 86.1001 197.7002 158.4001 297.8999c76 104.7998 142 178.2002 318.7002 351.7998c195.7002 192.6001 276.6001 286 351.7998 406.2002c83.1001 133.5 120.7998 229.6001 112.6001 289.6001c-3.3999 22.6001 -21.2002 51.3999 -41 65.2002c-19.2002 13.9004 -69.2002 17.0005 -100.8999 7.2002zm41 -152c3 -13.3999 -3 -27.7002 -18.6001 -43.7002c-23.8999 -25.7002 -80.5 -37.5 -134.2002 -28.2002c-42.8999 7.2002 -48.1001 11.2998 -27.2002 22.1001c44.7002 22.6001 145.7002 58.5 169.6001 59.6001c4.8003 0.5005 8.9004 -3.5996 10.4004 -9.7998zm-752.1001 -833.3999c-26.1001 -61.1001 -80.5 -101.2002 -136.8 -101.2002c-26.8 0 -60 11.2998 -66.7 22.6001c-8.2 13.3999 6 20.5 49.2 24.1001c26.1001 2.6001 49.8999 7.7002 63.3999 14.3999c25.7 12.2998 86.8 56 93.2 66.2002c8.5 14.3999 7 -4 -2.2998 -26.1001z" transform="matrix(0.1 0 0 -0.1 0 823)"></path><g transform="matrix(0.7 0 0 0 65.1649 335.5466)" style="animation-name: eaf-16e91-2, eaf-16e91-3, eaf-16e91-4, eaf-16e91-5; animation-composition: replace, add, add, add;"><path fill="#bcbcbc" d="m229.7 273.9c0 0 -42.5 5.1 -46.6 4.1c-4.1 -1 -52.8 17 -52.8 17l-19.7 15.5l-17.6 15.5l0 13l4.1 8.1l26.9 4.9l28 5l4.1 10.4l-19.6 15.6l7.2 9l29 6l34.2 0l37.3 -6l40.4 -15l11.4 -25l16.6 -10l28 -6l14.5 -19l-9.3 -25l-57 -18.1l-36.2 0l-22.9 0z"></path><path fill="#fff" d="m229.7 264.9c0 0 -42.5 5.1 -46.6 4.1c-4.1 -1 -52.8 17 -52.8 17l-19.7 15.5l-17.6 15.5l0 13l4.1 8.1l26.9 4.9l28 5l4.1 10.4l-19.6 15.6l7.2 9l29 6l34.2 0l37.3 -6l40.4 -15l11.4 -25l16.6 -10l28 -6l14.5 -19l-9.3 -25l-57 -18.1l-36.2 0l-22.9 0z"></path><ellipse fill="#bcbcbc" rx="61.6" ry="35.5" transform="translate(224 291.5)"></ellipse><ellipse fill="#f4b526" rx="61.6" ry="35.5" transform="translate(217.8 287.5)"></ellipse><polygon points="241.2,264.9 241.1,273.9 224,281 224,287.5 241.1,292 256.6,287.5 268,278.5 253.5,270.9" fill="#fff" opacity="0.72"></polygon></g><g style="filter: drop-shadow(rgb(48, 48, 48) 5px 5px 3px);"><g transform="matrix(0.256 0.0636 -0.0636 0.256 541.702 241.2357)" style="animation-name: eaf-16e91-6, eaf-16e91-7, eaf-16e91-8; animation-composition: replace, add, add;"><path fill="#fc873d" d="m274.8 490.8l-133.9 183.8l29.4 24.6c0 0 51.4 10.2 100.3 -29.6c48.9 -39.9 64.1 -80.3 68.9 -91.2c4.8 -10.9 26.5 -49.8 54.4 -65.2c42 -23.3 83.8 -18.2 97.6 -21.3c13.9 -3 39.2 -11.5 57.4 -39.9c18.2 -28.4 14.1 -56.6 43.1 -78.4c29 -21.8 60.5 -15.6 96.7 -37.9c36.2 -22.4 66.6 -71.6 74.2 -87.7c11 -23.2 19.2 -45.3 18.8 -60.7c-0.3 -11.5 -6 -19.6 -18.5 -26.3c-10.2 -5.4 -16.1 -7.7 -16.1 -7.7l-472.3 337.5z"></path><path fill="#d9411c" d="m312.2 388.1l-83.4 62.8c0 0 -105 137.2 -106.5 141.3c-1.4 4.1 -5.6 8.2 -15.5 13.5c-8.9 4.8 -24.7 11.4 -24.7 11.4c0 0 34.3 35.5 44.6 45.1c10.2 9.7 29.6 25.1 29.6 25.1c0 0 47.1 0.2 89.9 -35.4c42.9 -35.6 60.4 -81.6 71.2 -106.9c10.9 -25.4 32 -59.2 58.6 -71.2c26.6 -12.1 89.4 -9.1 131.1 -40.5c41.7 -31.4 30.8 -73.1 65.3 -97.2c34.4 -24.2 61.4 -16.9 91.2 -36.6c31.4 -20.7 52.9 -52.7 65.3 -75.6c13.6 -25 26.4 -67 26.4 -67c0 0 -25.4 -14.8 -55.6 -26.9c-23.2 -9.3 -51.9 -18.7 -51.9 -18.7c0 0 -46.5 65.9 -59.2 79.1c-12.7 13.2 -95.4 38.1 -95.4 38.1l-81.5 114.3l-99.5 45.3001z"></path><path fill="#b42f17" d="m82.4 578.6l-39.3 -8.6c0 0 -19.2 -21.3 -22.6 -27.8c-3.4 -6.4 -0.9 -14.1 8.9 -14.9c9.8 -0.8 39.7 -0.9 58.5 -3c18.7 -2.1 53.8 -9.4 75.6 -36.2c21.8 -26.9 31.6 -66.2 37.1 -90.1c7.9 -33.6 28.1 -52.4 58 -59.7c29.9 -7.3 83.6 -5.8 103.2 -21.2c19.6 -15.4 25.8 -65.9 32.5 -86.9c8.9 -27.7 27.8 -43.1 47.8 -44.4c24.6 -1.6 53.3 11.6 53.3 11.6l-34.5 40.9l-40.9 108.8c0 0 -149.5 46.7 -151.5 46.7c-2 0 -56.1 86.1 -59.4 91.4c-3.3 5.3 -50.7 72.1 -62.1 74.1c-11.3 2.2 -64.6 19.3 -64.6 19.3l0 0z"></path><path fill="#feb896" d="m594.2 100.3c-15.1 -0.1 -19.2 19.2 -20.9 29.9c-1.7 10.7 -2.6 28.2 -11.9 44.4c-9.3 16.2 -23.1 23.1 -23.1 23.1c0 0 -87 -11.6 -110.6 36.8c-25.3 51.8 -11.9 81.9 -42.2 105.8c-49.4 39 -92.6 4.2 -138.2 45.2c-34.6 31.1 -46.9 128.4 -103.7 160.1c-56.8 31.7 -101.6 22.9999 -101.6 22.9999l22.2 28.1c0 0 25.2 -5.9 41.6 -8.2c7.4 -1.1 11.4 -0.2 13.1 0.3c3.9 1.2 3 4.8 3 4.8c0 0 28.1 -9.6 56.2 -34.8c28.2 -25.2 57.2 -81.5 62.8 -93.9c5.6 -12.4 17.5 -33.3 23.9 -27.3c6.4 6 -15 85.4 -50.4 135.3c-29.9 42.1 -61.8 54.3 -81.1 62.1c-18.8 7.6 -26.1 8.4 -26.1 8.4c0 0 7.8 8 14.2 14.2c4.6 4.5 13.3 12.2 13.3 12.2c0 0 42.1 -7.7 94.2 -58.1c52.1 -50.4 71.8 -143.8 107.4 -189.9c30.8 -39.9 72.2 -42.6 92.8 -51.5c20.6 -8.9 35.4 -23.6 43.1 -51.8c7.7 -28.2 13.2 -76 54.6 -87.1c41.4 -11.1 88.7 2.6 106.7 -36.7c17.9 -39.2 18.1 -81.9 18.1 -81.9c0 0 -36.4 -12.4 -57.4 -12.5z"></path><path fill="#fc6b4a" d="m500.5 256.2c7.6 -3.1 30.2 10.4 33.6 22.4c3.2 12.1 3.2 18.9 9.4 25.4c6.2 6.5 21.5 11.2 21.8 18.2c0.4 8.6 -26.1 30.9 -56.6 20.8c-30.6 -10.1 -28 -31.3 -28.3 -35.2c-0.3 -3.9 10.7 -47.6 20.1 -51.6l0 0z"></path><path fill="#fc6b4a" d="m425.9 222.7c-0.9 -3.7 -19.8 -10.9 -25.8 4.4c-6.1 15.8 -7.2 26.6 -0.8 33.7c3.9 4.2 8.4 4.5 11 2.3c2.6 -2.2 1.5 -6.6 8.8 -23.1c3 -6.9 7.8 -13.3 6.8 -17.3z"></path><path fill="#faffff" d="m413.7 273.5c0 0 2.3 1.9 9.5 2.1c10.4 0.3 15.4 -9.4 23.6 -6.1c8.9 3.5 10.9 13.4 12 19.9c1.2 6.9 4.8 10.8 9.1 11.6c3.9 0.8 8.9 -1.6 8.9 -1.6c0 0 3 -12.4 8.4 -27c2.9 -7.8 9.9 -18.6 9.9 -18.6c0 0 -3.1 -6.2 -14.1 -8.1c-9.7 -1.6 -14.8 4.7 -25 -0.9c-8.4 -4.6 -5.6 -10.4 -13.4 -16.8c-6 -5 -8 -4.3 -8 -4.3c0 0 -5.9 6.5 -11.7 20.5c-5.2 12.8 -9.2 29.3 -9.2 29.3l0 0z"></path><path fill="#faffff" d="m615.2 134.8c-8.7 3.1 -19.1 25.2 -11.4 38.8c7.7 13.6 32.9 13.6 32.9 13.6c0 0 4.4 -11.9 6.5 -19.9c2.1 -8 4.4 -18.3 4.4 -18.3c0 0 -11.8 -5.5 -15.9 -8.7c-4.1 -3.1 -8.1 -8.5 -16.5 -5.5l0 0z"></path><path fill="#fc6b48" d="m647.8 149.2c0 0 12.1 5.9 35.2 3.8c18.3 -1.7 27.6 -1.8 32.6 4.4c5.1 6.2 4.6 16.4 2.1 28.8c-3.2 16.4 -11.4 20.3 -24 16.2c-12.8 -4.1 -26 -8.9 -31.7 -10.6c-10.6 -2.9 -25.1 -4.6 -25.1 -4.6c0 0 4.1 -11.6 6.2 -19.1c2 -7.3 4.7 -18.9 4.7 -18.9l0 0z"></path><path fill="#fa6c43" d="m234.2 357.2c-6.4 0.4 -21.6 15.9 -20 26.1c1.2 7.8 10 12.8 12.1 13.6c5.5 2.3 11.6 -9.4 15 -12.9c3.4 -3.5 11.1 -8.4 10.7 -12.9c-0.6 -6.1 -9.8 -14.4 -17.8 -13.9l0 0z"></path><path fill="#fefeff" d="m232.2 404.6c-1.8 3.7 7.9 12.4 14.2 15.7c6.2 3.2 18.1 -4.8 28.8 3.2c10.7 8 7.1 21.1 10.9 25.8c3.9 4.8 10.8 11.7 19.6 14.4c6.4 1.9 8.2 -4.2 14.4 -16.2c6.3 -12 8.5 -12.6 8.2 -16.2c-0.4 -4.6 -13.8 -18.7 -24.8 -26.1c-10.9 -7.4 -26.4 -14.5 -30.8 -19c-4.4 -4.4 -8.1 -13.2 -11.7 -11.2c-2.6 1.4 -9.9 5.7 -16.4 12.8c-5 5.3 -10.5 13 -12.4 16.8l0 0z"></path><path fill="#fa6c43" d="m329.3 446.9c-7 2.8 -15.2 20.4 -15.6 25.1c-0.5 5.8 12.6 18.1 20.3 18.1c7.7 0 18.4 -18.4 16.6 -24.6c-1.8 -6.2 -15 -21.1 -21.3 -18.6z"></path></g></g><g style="filter: drop-shadow(rgb(46, 46, 46) -11px 3px 3px);"><g transform="matrix(-0.247 0.0925 0.0925 0.247 -53.6048 207.2864)" style="animation-name: eaf-16e91-9, eaf-16e91-10, eaf-16e91-11; animation-composition: replace, add, add;"><path fill="#fc873d" d="m274.8 490.8l-133.9 183.8l29.4 24.6c0 0 51.4 10.2 100.3 -29.6c48.9 -39.9 64.1 -80.3 68.9 -91.2c4.8 -10.9 26.5 -49.8 54.4 -65.2c42 -23.3 83.8 -18.2 97.6 -21.3c13.9 -3 39.2 -11.5 57.4 -39.9c18.2 -28.4 14.1 -56.6 43.1 -78.4c29 -21.8 60.5 -15.6 96.7 -37.9c36.2 -22.4 66.6 -71.6 74.2 -87.7c11 -23.2 19.2 -45.3 18.8 -60.7c-0.3 -11.5 -6 -19.6 -18.5 -26.3c-10.2 -5.4 -16.1 -7.7 -16.1 -7.7l-472.3 337.5z"></path><path fill="#d9411c" d="m312.2 388.1l-83.4 62.8c0 0 -105 137.2 -106.5 141.3c-1.4 4.1 -5.6 8.2 -15.5 13.5c-8.9 4.8 -24.7 11.4 -24.7 11.4c0 0 34.3 35.5 44.6 45.1c10.2 9.7 29.6 25.1 29.6 25.1c0 0 47.1 0.2 89.9 -35.4c42.9 -35.6 60.4 -81.6 71.2 -106.9c10.9 -25.4 32 -59.2 58.6 -71.2c26.6 -12.1 89.4 -9.1 131.1 -40.5c41.7 -31.4 30.8 -73.1 65.3 -97.2c34.4 -24.2 61.4 -16.9 91.2 -36.6c31.4 -20.7 52.9 -52.7 65.3 -75.6c13.6 -25 26.4 -67 26.4 -67c0 0 -25.4 -14.8 -55.6 -26.9c-23.2 -9.3 -51.9 -18.7 -51.9 -18.7c0 0 -46.5 65.9 -59.2 79.1c-12.7 13.2 -95.4 38.1 -95.4 38.1l-81.5 114.3l-99.5 45.3001z"></path><path fill="#b42f17" d="m82.4 578.6l-39.3 -8.6c0 0 -19.2 -21.3 -22.6 -27.8c-3.4 -6.4 -0.9 -14.1 8.9 -14.9c9.8 -0.8 39.7 -0.9 58.5 -3c18.7 -2.1 53.8 -9.4 75.6 -36.2c21.8 -26.9 31.6 -66.2 37.1 -90.1c7.9 -33.6 28.1 -52.4 58 -59.7c29.9 -7.3 83.6 -5.8 103.2 -21.2c19.6 -15.4 25.8 -65.9 32.5 -86.9c8.9 -27.7 27.8 -43.1 47.8 -44.4c24.6 -1.6 53.3 11.6 53.3 11.6l-34.5 40.9l-40.9 108.8c0 0 -149.5 46.7 -151.5 46.7c-2 0 -56.1 86.1 -59.4 91.4c-3.3 5.3 -50.7 72.1 -62.1 74.1c-11.3 2.2 -64.6 19.3 -64.6 19.3l0 0z"></path><path fill="#feb896" d="m594.2 100.3c-15.1 -0.1 -19.2 19.2 -20.9 29.9c-1.7 10.7 -2.6 28.2 -11.9 44.4c-9.3 16.2 -23.1 23.1 -23.1 23.1c0 0 -87 -11.6 -110.6 36.8c-25.3 51.8 -11.9 81.9 -42.2 105.8c-49.4 39 -92.6 4.2 -138.2 45.2c-34.6 31.1 -46.9 128.4 -103.7 160.1c-56.8 31.7 -101.6 22.9999 -101.6 22.9999l22.2 28.1c0 0 25.2 -5.9 41.6 -8.2c7.4 -1.1 11.4 -0.2 13.1 0.3c3.9 1.2 3 4.8 3 4.8c0 0 28.1 -9.6 56.2 -34.8c28.2 -25.2 57.2 -81.5 62.8 -93.9c5.6 -12.4 17.5 -33.3 23.9 -27.3c6.4 6 -15 85.4 -50.4 135.3c-29.9 42.1 -61.8 54.3 -81.1 62.1c-18.8 7.6 -26.1 8.4 -26.1 8.4c0 0 7.8 8 14.2 14.2c4.6 4.5 13.3 12.2 13.3 12.2c0 0 42.1 -7.7 94.2 -58.1c52.1 -50.4 71.8 -143.8 107.4 -189.9c30.8 -39.9 72.2 -42.6 92.8 -51.5c20.6 -8.9 35.4 -23.6 43.1 -51.8c7.7 -28.2 13.2 -76 54.6 -87.1c41.4 -11.1 88.7 2.6 106.7 -36.7c17.9 -39.2 18.1 -81.9 18.1 -81.9c0 0 -36.4 -12.4 -57.4 -12.5z"></path><path fill="#fc6b4a" d="m500.5 256.2c7.6 -3.1 30.2 10.4 33.6 22.4c3.2 12.1 3.2 18.9 9.4 25.4c6.2 6.5 21.5 11.2 21.8 18.2c0.4 8.6 -26.1 30.9 -56.6 20.8c-30.6 -10.1 -28 -31.3 -28.3 -35.2c-0.3 -3.9 10.7 -47.6 20.1 -51.6l0 0z"></path><path fill="#fc6b4a" d="m425.9 222.7c-0.9 -3.7 -19.8 -10.9 -25.8 4.4c-6.1 15.8 -7.2 26.6 -0.8 33.7c3.9 4.2 8.4 4.5 11 2.3c2.6 -2.2 1.5 -6.6 8.8 -23.1c3 -6.9 7.8 -13.3 6.8 -17.3z"></path><path fill="#faffff" d="m413.7 273.5c0 0 2.3 1.9 9.5 2.1c10.4 0.3 15.4 -9.4 23.6 -6.1c8.9 3.5 10.9 13.4 12 19.9c1.2 6.9 4.8 10.8 9.1 11.6c3.9 0.8 8.9 -1.6 8.9 -1.6c0 0 3 -12.4 8.4 -27c2.9 -7.8 9.9 -18.6 9.9 -18.6c0 0 -3.1 -6.2 -14.1 -8.1c-9.7 -1.6 -14.8 4.7 -25 -0.9c-8.4 -4.6 -5.6 -10.4 -13.4 -16.8c-6 -5 -8 -4.3 -8 -4.3c0 0 -5.9 6.5 -11.7 20.5c-5.2 12.8 -9.2 29.3 -9.2 29.3l0 0z"></path><path fill="#faffff" d="m615.2 134.8c-8.7 3.1 -19.1 25.2 -11.4 38.8c7.7 13.6 32.9 13.6 32.9 13.6c0 0 4.4 -11.9 6.5 -19.9c2.1 -8 4.4 -18.3 4.4 -18.3c0 0 -11.8 -5.5 -15.9 -8.7c-4.1 -3.1 -8.1 -8.5 -16.5 -5.5l0 0z"></path><path fill="#fc6b48" d="m647.8 149.2c0 0 12.1 5.9 35.2 3.8c18.3 -1.7 27.6 -1.8 32.6 4.4c5.1 6.2 4.6 16.4 2.1 28.8c-3.2 16.4 -11.4 20.3 -24 16.2c-12.8 -4.1 -26 -8.9 -31.7 -10.6c-10.6 -2.9 -25.1 -4.6 -25.1 -4.6c0 0 4.1 -11.6 6.2 -19.1c2 -7.3 4.7 -18.9 4.7 -18.9l0 0z"></path><path fill="#fa6c43" d="m234.2 357.2c-6.4 0.4 -21.6 15.9 -20 26.1c1.2 7.8 10 12.8 12.1 13.6c5.5 2.3 11.6 -9.4 15 -12.9c3.4 -3.5 11.1 -8.4 10.7 -12.9c-0.6 -6.1 -9.8 -14.4 -17.8 -13.9l0 0z"></path><path fill="#fefeff" d="m232.2 404.6c-1.8 3.7 7.9 12.4 14.2 15.7c6.2 3.2 18.1 -4.8 28.8 3.2c10.7 8 7.1 21.1 10.9 25.8c3.9 4.8 10.8 11.7 19.6 14.4c6.4 1.9 8.2 -4.2 14.4 -16.2c6.3 -12 8.5 -12.6 8.2 -16.2c-0.4 -4.6 -13.8 -18.7 -24.8 -26.1c-10.9 -7.4 -26.4 -14.5 -30.8 -19c-4.4 -4.4 -8.1 -13.2 -11.7 -11.2c-2.6 1.4 -9.9 5.7 -16.4 12.8c-5 5.3 -10.5 13 -12.4 16.8l0 0z"></path><path fill="#fa6c43" d="m329.3 446.9c-7 2.8 -15.2 20.4 -15.6 25.1c-0.5 5.8 12.6 18.1 20.3 18.1c7.7 0 18.4 -18.4 16.6 -24.6c-1.8 -6.2 -15 -21.1 -21.3 -18.6z"></path></g></g></g><g style="filter: drop-shadow(rgb(120, 120, 120) 5px 6px 4px);"><g transform="translate(0 -241.7014)" style="animation-name: eaf-16e91-27, eaf-16e91-28, eaf-16e91-29, eaf-16e91-30; animation-composition: replace, add, add, add;"><g transform="translate(0 0)" style="animation-name: eaf-16e91-15, eaf-16e91-16, eaf-16e91-17, eaf-16e91-18; animation-composition: replace, add, add, add;"><polygon points="174.3,89.1 143.3,119.7 122.3,151.7 128.3,188.7 164.3,219.2 206.3,225.7 240.3,210.7 259.3,174.7 251.3,131 226.3,99.7 190.8,89.1" fill="#fff"></polygon><ellipse fill="#f4b526" rx="38.5" ry="30.6" transform="translate(204.8 188)"></ellipse></g><g><path fill="#edab70" d="m181.3 219.2l20 -15.5l5 -21.1c0 0 -6 -24.9 -11.5 -27.3c-5.5 -2.4 -20.5 -17.7 -20.5 -17.7l0 -19.9l23.5 -20l17.5 -21l-13 -14l-22 -24l16.1 -29.3c-2.7 -0.5 -7.7 -0.4 -10.2 0.1c-7.2 1.4 -15.4 6.1 -23.3 13.2c-16.2 14.6 -32.3 38 -43.2 62.6c-12.9 29.2 -17.5 57.5 -13.4 82c2.4 14.1 7.7 26.9 15.7 37.8c3.5 4.7 9.5 11.1 14 14.8c9.7 8 21.6 14 33.6 17.1c10.2 2.6 20.9 3.3 31.3 2.2l-6.1 -6.5l-13.5 -13.5z" transform="translate(0 0)" style="animation-name: eaf-16e91-19, eaf-16e91-20, eaf-16e91-21, eaf-16e91-22; animation-composition: replace, add, add, add;"></path><g style="animation-name: eaf-16e91-23, eaf-16e91-24, eaf-16e91-25, eaf-16e91-26; animation-composition: replace, add, add, add;"><path fill="#edab70" d="m277.5 163.5c1.2 -9.7 1.1 -21.9 -0.3 -31.9c-2.2 -14.9 -6.2 -29.1 -12.8 -44.4c-2.2 -5.1 -7.3 -15.5 -10.1 -20.4c-13 -23.1 -28.3 -41.3 -42.7 -50.9c-4.9 -3.3 -10.7 -5.8 -15.1 -6.5l-16.1 29.3l22 24l13 14l-17.5 21l-23.5 20l0 19.9c0 0 15 15.4 20.5 17.7c5.5 2.3 11.5 27.3 11.5 27.3l-5 21.1l-20 15.5l13.5 13.5l6.1 6.5c8.8 -0.9 17.5 -3.1 25.6 -6.5c28 -12.1 46.8 -37.6 50.9 -69.2z"></path><polygon points="258.9,171 249.1,195.4 231.3,213.9 215.3,213.9 215.3,197.6 221.8,173.8 242.1,151.6 258.9,145 268,152 263.8,170.2" fill="#fff" opacity="0.38"></polygon></g></g></g></g></g></g></svg>