<svg xmlns="http://www.w3.org/2000/svg" viewBox="0 0 650 650" overflow="hidden" preserveAspectRatio="xMidYMid meet" id="eaf-16fd8-0"><defs><clipPath id="eaf-16fd8-1"><rect x="0" y="0" width="650" height="650"></rect></clipPath><style>#eaf-16fd8-0 * {animation: 6000ms linear infinite normal both running;offset-rotate:0deg}@keyframes eaf-16fd8-2{0%,100%{transform:translate(325px,309.5px)}}@keyframes eaf-16fd8-3{0%{transform:rotate(0)}50%{transform:rotate(0)}99.72%,100%{transform:rotate(360deg)}}@keyframes eaf-16fd8-4{0%,100%{transform:translate(-325px,-309.5px)}}@keyframes eaf-16fd8-5{0%,100%{transform:none;offset-path:path("m325 329.55l0 0l616.0971 0l0 0l-1254.991 0l638.8939 0")}}@keyframes eaf-16fd8-6{0%{offset-distance:0%}50%{offset-distance:0%}75%{offset-distance:24.5459%}75.83%{offset-distance:24.5459%}77.78%{offset-distance:74.5459%}99.72%,100%{offset-distance:100%}}@keyframes eaf-16fd8-7{0%{transform:scale(1,1)}4.72%{transform:scale(1,1);animation-timing-function:ease-in-out}15.55%{transform:scale(0.6646,0.6646);animation-timing-function:ease-in-out}18.33%{transform:scale(0.6588,0.6588);animation-timing-function:ease-in-out}20.28%{transform:scale(0.69,0.69)}33.33%{transform:scale(0.69,0.69);animation-timing-function:ease-in-out}38.05%{transform:scale(1.1,1.1);animation-timing-function:ease-in-out}39.72%,100%{transform:scale(1,1)}}@keyframes eaf-16fd8-8{0%,100%{transform:translate(-325px,-329.55px)}}@keyframes eaf-16fd8-9{0%{opacity:1}75%{opacity:1}75.83%{opacity:0}77.78%{opacity:0}78.05%,100%{opacity:1}}</style></defs><g clip-path="url('#eaf-16fd8-1')" style="isolation: isolate;"><g><path fill="#e1f3fd" d="m651.4 325.1c0 81.6 0 163.1 0 244.7c0 37.4 -28.2 71.6 -65 78.6c-5.5 1 -11.1 1.6 -16.6 1.6c-162.6 0 -325.2 0 -487.7 0c-39.9 0 -74.7 -30.6 -79.9 -70.2c-0.5 -3.5 -0.8 -7 -0.8 -10.6c0 -163 0 -326 0 -488.9c0 -37.4 28.2 -71.6 65 -78.6c5.4 -1 11.1 -1.6 16.6 -1.6c162.7 -0.1 325.4 -0.1 488.0999 -0.1c37.4 0 71.6 28.2 78.6 65c1 5.4 1.6 11.1 1.6 16.6c0.1001 81.2 0.1001 162.3 0.1001 243.5l0 0l0 0z"></path><g transform="translate(0 0)" style="animation-name: eaf-16fd8-5, eaf-16fd8-6, eaf-16fd8-7, eaf-16fd8-8, eaf-16fd8-9; animation-composition: replace, add, add, add, replace;"><g style="filter: drop-shadow(rgb(85, 85, 85) 8px 8px 12px);"><g><ellipse fill="#555" rx="276.1" ry="276.1" transform="translate(325 340.5)"></ellipse></g></g><g style="animation-name: eaf-16fd8-2, eaf-16fd8-3, eaf-16fd8-4; animation-composition: replace, add, add;"><ellipse fill="#fefadf" stroke="#555" stroke-width="16" stroke-miterlimit="10" rx="267" ry="267" transform="translate(325 309.5)"></ellipse><g style="filter: drop-shadow(rgb(191, 191, 191) 9px 9px 2px);"><path fill="#555" d="m137.2 76.8c-1.3 -10.2 -9.6 -13 -20.3 -13.9l-0.2 -9l-8.3 0l0.3 8.8l-6.8 0.1l-0.1 -8.8l-8.5 0.1l0.5 9.1l-5.3 0.2l-11.5 0.2l0.4 8.7l5.8 -0.1c3.4 0 4.7 2.2 4.7 3.9l0.4 15.3l0.7 0l-0.7 0l0.4 21.6c0 1.5 -1.2 2.8 -2.8 2.8c-0.1 0 -0.3 0 -0.4 0l-5.8 0.1l-1.5 9.9l16.5 -0.3l0.5 9.4l8 -0.2l-0.2 -9l6.3 -0.2l0.4 8.9l8.3 0l-0.2 -9.1c13.9 -1 23.6 -4.9 24.6 -17.8c0.6 -10.4 -4.3 -15 -12.3 -16.7c4.8 -2.6 7.8 -7 7.1 -14l0 0zm-11 29.3c0 10 -17.5 9.6 -23.1 9.6l-0.2 -18.3c5.6 0.1 23.2 -2 23.3 8.7l0 0zm-4.6 -25.6c0.3 9.5 -14.1 8.7 -18.9 8.7l-0.3 -16.5c4.8 -0.1 19.3 -1.8 19.2 7.8l0 0z" transform="matrix(4.927 0 0 4.927 -209.2117 -155.607)"></path></g></g></g></g></g></svg>