<svg xmlns="http://www.w3.org/2000/svg" viewBox="0 0 500 500" overflow="hidden" preserveAspectRatio="xMidYMid meet" id="eaf-171b5-0"><defs><clipPath id="eaf-171b5-1"><rect x="0" y="0" width="500" height="500"></rect></clipPath><style>#eaf-171b5-0 * {animation: 14000ms linear infinite normal both running;offset-rotate:0deg}@keyframes eaf-171b5-2{0%,100%{transform:none;offset-path:path("m-33.75 -92.6033l0 42.7999l0 0l0 -42.7999l0 0")}}@keyframes eaf-171b5-3{0%{offset-distance:0%;animation-timing-function:ease-in-out}48.81%{offset-distance:50%}51.43%{offset-distance:50%;animation-timing-function:ease-in-out}97.14%,100%{offset-distance:100%}}@keyframes eaf-171b5-4{0%,100%{transform:translate(33.75px,48.9832px)}}</style></defs><g clip-path="url('#eaf-171b5-1')" style="isolation: isolate;"><g><g transform="matrix(4 0 0 4 -887.0233 -2344.0063)"><path fill="#e1f3fd" d="m346.6 648.7c0 15.6 0 31.3 0 46.9c0 7.2 -5.4 13.7 -12.5 15.1c-1 0.2 -2.1 0.3 -3.2 0.3c-31.2 0 -62.4 0 -93.6 0c-7.6 0 -14.3 -5.9 -15.3 -13.5c-0.1 -0.7 -0.1 -1.4 -0.1 -2c0 -31.3 0 -62.5 0 -93.8c0 -7.2 5.4 -13.7 12.5 -15.1c1 -0.2 2.1 -0.3 3.2 -0.3c31.2 0 62.4 0 93.6 0c7.2 0 13.7 5.4 15.1 12.5c0.2 1 0.3 2.1 0.3 3.2c0 15.4999 0 31.0999 0 46.7z"></path></g><g transform="matrix(4 0 0 4 -894.2045 -2341.0085)"><g transform="translate(320.055 725.6616)"><path fill="#c90404" d="m9.4 -75.4c-0.9 1.1 -1.8 2.2 -2.7 3.3c-8.1 10 -16.3 20.1 -24.4 30.2c-4.8 5.9 -9.6 11.8 -14.4 17.8c-0.4 0.4 -0.8 0.8 -1.1 1.3c-0.4 0.5 -0.8 0.5 -1.2 0c-1.7 -2.1 -3.5 -4.2 -5.2 -6.3c-5.6 -6.9 -11.1 -13.7 -16.7 -20.6c-6.4 -8 -12.9 -16 -19.3 -24c-0.4 -0.5 -0.8 -1 -1.3 -1.6c0.8 -0.1 1.3 -0.1 1.8 -0.1c9.3 0 18.6 -0.1 27.9 -0.1c0.7 0 1.1 0.2 1.6 0.8c3.7 4.6 7.4 9.1 11 13.6c0.2 0.3 0.4 0.5 0.7 0.8c0.4 -0.5 0.9 -0.9 1.2 -1.4c3.5 -4.3 7 -8.6 10.4 -12.9c0.5 -0.6 1.1 -0.9 1.9 -0.9c9.5 0 19 0 28.5 0c0.3 0 0.7 0 1 0c0.2 -0.1 0.2 0 0.3 0.1z" transform="translate(0 -43.6201)" style="animation-name: eaf-171b5-2, eaf-171b5-3, eaf-171b5-4; animation-composition: replace, add, add;"></path></g><path fill="#e1f3fd" d="m331.1 628.5c0 -0.7 0 -1.4 0 -2.2c0 -1.3 0 -2.7 0 -4c0 -3.5 0 -7.2 -0.1 -10.8c-0.1 -5.7 -3.2 -8.4 -5.8 -9.7c-1.9 -0.9 -4 -1.4 -6.1 -1.4c-1.4 0 -2.7 0.2 -4 0.6l0 -8.5l-19.5 0l0 8.7l-22.5 0l0 2c-0.1 -0.1 -0.2 -0.1 -0.2 -0.2c-2.1 -1.6 -4.7 -2.5 -7.5 -2.5c-1.5 0 -2.9 0.3 -4.3 0.7l-19.4 0l0 47.3l15.9 0l0 0l19.6 0l0 0l18.5 0l0 0l17.9 0l0.1 -0.3c1.5 0.8 3.1 1.1 5.3 1.1c0.3 0 0.6 0 1 0c5.2 -0.2 9.7 -4.1 10.6 -9.1c0.3 -1.7 0.5 -3.4 0.5 -5.2c0 -2.2999 0 -4.4 0 -6.4999z"></path><g><path fill="#555" d="m299.4 596.1c4.1 0 8.1 0 12.2 0c0 3.8 0 7.5 0 11.4c0.3 -0.3 0.5 -0.4 0.7 -0.6c3 -2.9 7.6 -3.6 11.4 -1.8c2.7 1.3 3.7 3.7 3.8 6.5c0.1 4.9 0 9.8 0.1 14.7c0 2.8 0.1 5.7 0 8.5c0 1.5 -0.2 3.1 -0.5 4.6c-0.6 3.3 -3.7 5.9 -7.1 6c-3.7 0.1 -4.8 -0.4 -8.3 -3.6c-0.3 1 -0.5 1.9 -0.8 2.8c-3.8 0 -7.5 0 -11.4 0c-0.1 -16.1 -0.1 -32.3 -0.1 -48.5001zm15.7 28.8c0 -3.4 0 -6.8 0 -10.2c0 -0.8 -0.1 -1.7 -0.4 -2.5c-0.2 -0.8 -0.9 -1 -1.7 -1c-0.8 0.1 -1.2 0.5 -1.3 1.2c-0.1 0.8 -0.2 1.7 -0.2 2.5c0 6.5 0 13 0 19.5c0 0.8 0.1 1.7 0.2 2.5c0.2 0.9 0.8 1.4 1.7 1.3c0.9 -0.1 1.4 -0.5 1.5 -1.4c0.1 -0.8 0.2 -1.5 0.2 -2.3c0 -3.1 0 -6.3 0 -9.6z"></path><path fill="#555" d="m245.4 604.8c4.1 0 8.2 0 12.3 0c0 1 0 2.1 0 3.3c0.3 -0.4 0.5 -0.6 0.6 -0.8c2.9 -3.6 8.7 -4.3 12.3 -1.5c1.7 1.3 2.4 3.2 2.6 5.3c0.1 1.7 0.2 3.4 0.2 5c0 9.2 0 18.4 0 27.6c0 0.3 0 0.6 0 1c-4.1 0 -8 0 -12.2 0c0 -0.4 0 -0.8 0 -1.1c0 -9.1 0 -18.3 0 -27.4c0 -1.1 -0.1 -2.2 -0.2 -3.4c-0.1 -0.9 -0.5 -1.4 -1.4 -1.4c-1 -0.1 -1.7 0.3 -1.8 1.3c-0.2 1.8 -0.3 3.6 -0.3 5.4c0 8.5 0 17 0 25.5c0 0.4 0 0.7 0 1.2c-4.1 0 -8.1 0 -12.2 0c0.1 -13.3999 0.1 -26.7 0.1 -39.9999z"></path><path fill="#555" d="m287.7 636.7c3 0 5.9 0 8.9 0c0 2.7 0 5.3 0 7.9c-6.9 0 -13.7 0 -20.7 0c0 -1.2 0.1 -2.4 0 -3.6c-0.2 -3.1 0.4 -6 1.6 -8.9c2.5 -6 4.8 -12.2 7.1 -18.3c0.1 -0.3 0.2 -0.6 0.4 -1c-2.7 0 -5.4 0 -8.1 0c0 -2.7 0 -5.3 0 -8c6.6 0 13.1 0 19.8 0c0 0.6 -0.1 1.2 0 1.7c0.5 4.8 -0.6 9.2 -2.5 13.6c-2.2 5.1 -4 10.3 -6 15.4c-0.2 0.4 -0.3 0.7 -0.5 1.2z"></path></g></g></g></g></svg>