<svg id="downloads2" xmlns="http://www.w3.org/2000/svg" xmlns:xlink="http://www.w3.org/1999/xlink" viewBox="0 0 650 650" shape-rendering="geometricPrecision" text-rendering="geometricPrecision" project-id="bc24ba662f81495ebaebd057fd99c63c" export-id="6db7ace42b6b4df9b859d6c29246ee36" cached="false">
<style><![CDATA[
#downloads2-u-graph {animation: downloads2-u-graph_c_o 9000ms linear infinite normal forwards}@keyframes downloads2-u-graph_c_o { 0% {opacity: 0.54} 80% {opacity: 0.54} 93.333333% {opacity: 0} 100% {opacity: 0}} #downloads2-u-graphmask_to {animation: downloads2-u-graphmask_to__to 9000ms linear infinite normal forwards}@keyframes downloads2-u-graphmask_to__to { 0% {transform: translate(325px,325px)} 10% {transform: translate(325px,325px)} 83.333333% {transform: translate(919px,325px)} 100% {transform: translate(919px,325px)}} #downloads2-u-light2 {animation: downloads2-u-light2_f_p 9000ms linear infinite normal forwards}@keyframes downloads2-u-light2_f_p { 0% {fill: #f70101} 33.333333% {fill: #f70101} 43.333333% {fill: #01f745} 63.333333% {fill: #01f745} 73.333333% {fill: #f70101} 80% {fill: #f70101} 86.666667% {fill: #01f745} 93.333333% {fill: #01f745} 100% {fill: #f70101}} #downloads2-u-light1 {animation: downloads2-u-light1_f_p 9000ms linear infinite normal forwards}@keyframes downloads2-u-light1_f_p { 0% {fill: #01f745} 6.666667% {fill: #f70101} 20% {fill: #01f745} 40% {fill: #01f745} 50% {fill: #f70101} 56.666667% {fill: #f70101} 63.333333% {fill: #01f745} 70% {fill: #01f745} 76.666667% {fill: #f70101} 86.666667% {fill: #f70101} 100% {fill: #01f745}} #downloads2-u-thearrow_to {animation: downloads2-u-thearrow_to__to 9000ms linear infinite normal forwards}@keyframes downloads2-u-thearrow_to__to { 0% {transform: translate(324.972122px,144.150009px);animation-timing-function: cubic-bezier(0.42,0,0.58,1)} 16.666667% {transform: translate(324.983881px,261.06997px);animation-timing-function: cubic-bezier(0.42,0,0.58,1)} 33.333333% {transform: translate(324.972122px,139.150009px);animation-timing-function: cubic-bezier(0.42,0,0.58,1)} 50% {transform: translate(325px,215.427424px);animation-timing-function: cubic-bezier(0.42,0,0.58,1)} 66.666667% {transform: translate(324.972122px,144.150009px);animation-timing-function: cubic-bezier(0.42,0,0.58,1)} 83.333333% {transform: translate(325px,256.427424px);animation-timing-function: cubic-bezier(0.445,0.05,0.55,0.95)} 100% {transform: translate(324.972122px,144.150009px)}} #downloads2-s-path3_tr {animation: downloads2-s-path3_tr__tr 9000ms linear infinite normal forwards}@keyframes downloads2-s-path3_tr__tr { 0% {transform: translate(135.33781px,207.03926px) rotate(720deg);animation-timing-function: cubic-bezier(0.415,0.08,0.115,0.955)} 100% {transform: translate(135.33781px,207.03926px) rotate(439.480519deg)}} #downloads2-s-path4_tr {animation: downloads2-s-path4_tr__tr 9000ms linear infinite normal forwards}@keyframes downloads2-s-path4_tr__tr { 0% {transform: translate(11.12px,29.9px) rotate(-720deg);animation-timing-function: cubic-bezier(0.415,0.08,0.115,0.955)} 100% {transform: translate(11.12px,29.9px) rotate(-439.480519deg)}}
]]></style>



<path id="downloads2-u-background" d="M650,325.1c0,81.6,0,163.1,0,244.7c0,37.4-28.2,71.6-65,78.6-5.5,1-11.1,1.6-16.6,1.6-162.6,0-325.2,0-487.7,0C40.8,650,6,619.4,0.8,579.8c-.5-3.5-.8-7-.8-10.6c0-163,0-326,0-488.9C0,42.9,28.2,8.7,65,1.7c5.4-1,11.1-1.6,16.6-1.6C244.3,0,407,0,569.7,0c37.4,0,71.6,28.2,78.6,65c1,5.4,1.6,11.1,1.6,16.6.1,81.2.1,162.3.1,243.5v0Z" fill="#e1f3fd"/>

<path id="downloads2-u-graph" d="M65,130.050019q0,432.041169,0,431.415929t524.164102-3.751443L585,48.143515l-24.59696-7.502887-21.883417,15.005771-13.265167,24.653598-16.121135,1.3L488.500385,70.02693L470.254456,59.397842l-21.769462-1.875721-20.632936-15.005772L407.6,28.135818L389.087149,51.894957l-22.508657,29.70504-8.128126,36.57045q-26.885342,20.632936-26.260101,19.382455c.625241-1.250481-23.133897-8.753366-23.133897-9.378607q0-.625241-20.007695-26.885341L268.415737,64.999997L239.029434,30.63678l-26.88534,3.126203-22.508657,31.237014L167.75202,108.1666l-18.757214,25.634859-21.883417-31.887264q-11.254329-36.914198-13.13005-36.914198t-15.631012,0L85.845518,101.914195L80.7,118.795688Q65,127.54906,65,130.050019Z" transform="matrix(1.087459 0 0 0.777253-31.984869 91.193911)" opacity="0.54" fill="#6dc6f5" stroke-width="1.3"/>

<g id="downloads2-u-graphmask_to" transform="translate(325,325)"><rect id="downloads2-u-graphmask" width="602.73182" height="577.722201" rx="0" ry="0" transform="scale(1.013487,0.822082) translate(-301.36591,-288.8611)" fill="#e1f3fd" stroke-width="0"/></g>

<path id="downloads2-u-bezel" d="M583.5,581.5h-514c-6.6,0-12-5.4-12-12v-155c0-6.6,5.4-12,12-12h514c6.6,0,12,5.4,12,12v155c0,6.6-5.4,12-12,12Z" fill="#dddddd"/>

<path id="downloads2-u-light2" d="M407.6,464c-15.2,0-27.5,12.3-27.5,27.5s12.3,27.5,27.5,27.5s27.5-12.3,27.5-27.5-12.4-27.5-27.5-27.5Z" fill="#f70101"/>

<path id="downloads2-u-light1" d="M499.8,464c-15.2,0-27.5,12.3-27.5,27.5s12.3,27.5,27.5,27.5s27.5-12.3,27.5-27.5-12.3-27.5-27.5-27.5Z" transform="translate(-2.045544 0)" fill="#01f745"/>

<path id="downloads2-u-computer" d="M590.7,383.2L490.4,300.9c-18.6-15.2-41.9-23.6-66-23.6h-32.2l-28,31.1c-10,11.1-24.3,17.4-39.2,17.4s-29.2-6.4-39.2-17.4l-28-31.1h-32.2c-24.1,0-47.4,8.4-66,23.6L59.3,383.2C37.8,398.7,23.8,424,23.8,452.5v73.4c0,47.3,38.3,85.6,85.6,85.6h215.6h215.6c47.3,0,85.6-38.3,85.6-85.6v-73.4c0-28.6-14.1-53.8-35.5-69.3ZM577.3,525.9c0,10.2-4.1,19.2-10.7,25.9-6.7,6.7-15.7,10.7-26,10.7h-431.2c-10.2,0-19.2-4.1-25.9-10.7-6.7-6.7-10.7-15.7-10.7-25.9v-73.4c0-10.2,4.1-19.2,10.7-25.9c6.7-6.7,15.7-10.7,25.9-10.8h431.1c10.2,0,19.2,4.1,26,10.8c6.7,6.7,10.7,15.7,10.7,25.9v73.4h.1Z" fill="#555555"/>

<g id="downloads2-u-thearrow_to" transform="translate(324.972122,144.150009)">
	<g id="downloads2-u-thearrow" transform="translate(-324.97207,-144.15)">
		<path id="downloads2-u-arrow_00000001663337770240292210000004402513085258638211_" d="M304.8,316c5.1,5.7,12.5,9,20.2,9s15-3.3,20.2-9L448.3,201.4c7.2-8,9-19.4,4.6-29.2-4.3-9.8-14.1-16.1-24.8-16.1h-48.5v-165.7c0-15-12.2-27.1-27.1-27.1h-55.1c-15,0-27.1,12.2-27.1,27.1v165.7h-48.5c-10.7,0-20.4,6.3-24.8,16.1-4.3,9.8-2.5,21.2,4.6,29.2L304.8,316Z" fill="#e9b01d"/>
		
		<path id="downloads2-u-arrow-outline" d="M325,340c-11.9,0-23.3-5.1-31.3-13.9v0L190.5,211.4c-11.1-12.3-13.9-30.1-7.2-45.3c6.8-15.2,21.9-25,38.5-25h33.5v-150.7c0-23.3,18.9-42.1,42.1-42.1h55.1c23.2,0,42.1,18.9,42.1,42.1v150.7h33.5c16.6,0,31.7,9.8,38.5,25s3.9,33-7.2,45.3L356.3,326.1c-8,8.8-19.4,13.9-31.3,13.9Zm-9-34c2.3,2.5,5.6,4,9,4s6.7-1.5,9-4L437.1,191.4c3.2-3.6,4-8.7,2.1-13.1s-6.3-7.2-11.1-7.2h-40.2c-12.8,0-23.2-10.4-23.2-23.2v-157.5c0-6.7-5.5-12.1-12.1-12.1h-55.1c-6.7,0-12.1,5.4-12.1,12.1v155c0,14.2-11.5,25.7-25.7,25.7h-37.7c-4.8,0-9.1,2.8-11.1,7.2-1.9,4.3-1.1,9.5,2.1,13L316,306Z" fill="#555555"/>
		
	</g>
</g>
</svg>
