<svg xmlns="http://www.w3.org/2000/svg" viewBox="0 0 650 650" overflow="hidden" preserveAspectRatio="xMidYMid meet" id="eaf-14986-0"><defs><clipPath id="eaf-14986-1"><rect x="0" y="0" width="650" height="650"></rect></clipPath><style>#eaf-14986-0 * {animation: 5000ms linear infinite normal both running;offset-rotate:0deg}@keyframes eaf-14986-2{0%,100%{transform:translate(430.2px,340.6px)}}@keyframes eaf-14986-3{0%{transform:rotate(0)}20%{transform:rotate(-4deg)}40%{transform:rotate(5deg)}53.34%{transform:rotate(5deg)}74%{transform:rotate(-6deg)}100%{transform:rotate(0)}}@keyframes eaf-14986-4{0%,100%{transform:translate(-430.2px,-340.6px)}}@keyframes eaf-14986-5{0%,100%{transform:translate(430.7864px,280.75px)}}@keyframes eaf-14986-6{0%{transform:scale(1,1)}6.66%{transform:scale(1,0.2895)}14.66%{transform:scale(1,0.7563)}21.34%{transform:scale(1,1.0414)}27.34%{transform:scale(0.7843,1.0382)}36.66%{transform:scale(0.9248,0.4222)}47.34%{transform:scale(1,1)}54%{transform:scale(1,0.2895)}62%{transform:scale(1,0.7563)}68.68%{transform:scale(1,1.0414)}74.68%{transform:scale(0.7843,1.0382)}84%{transform:scale(0.9248,0.4222)}94.68%{transform:scale(0.7759,1.0661)}100%{transform:scale(1,1)}}@keyframes eaf-14986-7{0%,100%{transform:translate(-430.7864px,-280.75px)}}@keyframes eaf-14986-8{0%{fill:#c4c4c4}7.34%{fill:#e0dede}20%{fill:#94dfff}40%{fill:#94dfff}70%{fill:#79d194}91.34%{fill:#79d194}97.34%,100%{fill:#c4c4c4}}@keyframes eaf-14986-9{0%{opacity:1}40%{opacity:1}53.34%{opacity:0}70%{opacity:0}83.34%,100%{opacity:1}}</style></defs><g clip-path="url('#eaf-14986-1')" style="isolation: isolate;"><g><path fill="#e1f3fd" d="m651 325.1c0 81.6 0 163.1 0 244.7c0 37.4 -28.2 71.6 -65 78.6c-5.5 1 -11.1 1.6 -16.6 1.6c-162.6 0 -325.2 0 -487.7 0c-39.9 0.0001 -74.7 -30.5999 -79.9 -70.2c-0.5 -3.5 -0.8 -7 -0.8 -10.6c0 -163 0 -326 0 -488.9c0 -37.4 28.2 -71.6 65 -78.6c5.4 -1 11.1 -1.6 16.6 -1.6c162.7 -0.1 325.4 -0.1 488.1 -0.1c37.4 0 71.6 28.2 78.6 65c1 5.4 1.6 11.1 1.6 16.6c0.1 81.2 0.1 162.3 0.1 243.5l0 0l0 0z"></path><path fill="#555" fill-rule="evenodd" d="m203.3 503.9l-14.1 46.3l-0.2 0l0 3.6l271.5 0l0 -3.4l0.2 0l-17.7 -46.4l-239.7 0l0 -0.1z"></path><path fill="#555" fill-rule="evenodd" d="m273.4 457.9l0 37.6l0 7.6l0 15.6l0.1 10.8l106 0.1l0 -71.7l-106.1 0z"></path><path fill="#fff" fill-rule="evenodd" d="m190.2 549.7l-1 3.5l0.3 0l0.8 -2.6l269.3 0l1 2.6l0.3 0l-1.3 -3.5l-269.4 0z"></path><path fill="#555" fill-rule="evenodd" d="m44 99.1l562 0c3.5 0 6.2 2.8 6.2 6.2l0 372c0 3.5 -2.8 6.2 -6.2 6.2l-562 0c-3.5 0 -6.2 -2.8 -6.2 -6.2l0 -372c-0.1 -3.5 2.7 -6.2 6.2 -6.2z"></path><path fill="#898989" fill-rule="evenodd" d="m44 104.1c-0.8 0 -1.2 0.4 -1.2 1.2l0 372c0 0.8 0.4 1.2 1.2 1.2l562 0c0.8 0 1.2 -0.4 1.2 -1.2l0 -372c0 -0.8 -0.4 -1.2 -1.2 -1.2c0 0 -562 0 -562 0z" opacity="0.4"></path><path fill="#fefadf" fill-rule="evenodd" d="m61.8 123.1l0 336.4l526.4 0l0 -336.4l-526.4 0z"></path><g><g><polygon points="467.8,340.6 392.8,340.6 397.8,278.4 462.8,278.4" fill="#f9bda0"></polygon><polygon points="467.8,340.6 430.2,340.6 392.8,278.4 462.8,278.4" fill="#e28f71"></polygon></g><g style="animation-name: eaf-14986-2, eaf-14986-3, eaf-14986-4; animation-composition: replace, add, add;"><path fill="#555" d="m503.7 185.4c0 35 -26.4 63.4 -58.9 63.4l-28.9 0c-32.5 0 -58.9 -28.4 -58.9 -63.4l0 0c0 -35 26.4 -63.4 58.9 -63.4l28.9 0c32.5 0.1 58.9 28.4 58.9 63.4l0 0z"></path><path fill="#fcccb9" d="m501.4 204.3c0 61.8 -31.1 117.8 -71.1 117.8c-39.9 0 -71.1 -55.9 -71.1 -117.8c0 -61.8 31.2 -72.1 71.1 -72.1c39.9 0 71.1 10.2 71.1 72.1z"></path><path fill="#f9bda0" d="m430.3 132.2c39.9 0 71.1 10.3 71.1 72.1c0 61.8 -31.1 117.8 -71.1 117.8"></path><path fill="#555" d="m500.7 174.3c-0.4 -1 -0.9 -1.9 -1.4 -2.7c-1.1 -7.8 -2.9 -16.6 -5.5 -19.1c-4.8 -4.8 -19.6 -19.2 -19.6 -19.2l-6.6 0.8l-21.8 -6.4c-67.4 -11.2 -81.1 30.6 -83.7 42.6c-0.8 1.3 -1.6 2.7 -2.3 4.2c-3.3 7.6 -4.1 18.8 -0.3 20.4l13.6 -14.1c37.7 7.5 63.1 -1.8 78.7 -12.2c9.8 8.2 24.5 17.5 40.4 17.2l8.6 8.9c3.9 -1.6 3.2 -12.8 -0.1 -20.4z"></path></g><g><polygon points="544.6,365 469,321.8 434.7,461 561.6,461" fill="#555"></polygon><polygon points="316,365 299,461 425.8,461 391.6,321.8" fill="#555"></polygon><polygon points="429.2,423.6 388.9,369 374.4,330 394.9,321.4 430.3,343.9 465.7,321.4 486.2,330 471.6,369 431.4,423.6 430.3,425.5" fill="#f7f9f9"></polygon><polygon points="438.3136,359.6 444.7136,354.9 434.7136,339.4 428.3136,339.4 418.2136,354.9 424.7136,359.6 415.6136,461 430.3,461 451.1,461" fill="#555"></polygon></g><path fill="#8c5b25" d="m405.8 275.2l17.4 -7.2c1.9 -0.8 4 -1.2 6.1 -1.2l6.9 0c1.9 0 3.7 0.2 5.5 0.6l12.3 2.9c4.7 1.1 6.7 6.8 3.6 10.6l-6.5 8c-3 3.7 -7.5 5.8 -12.3 5.8l-6.2 0l-10.8 0c-3.4 0 -6.6 -1.2 -9.2 -3.4l-8.2 -7c-3.1 -2.7 -2.3 -7.6 1.4 -9.1z" style="animation-name: eaf-14986-5, eaf-14986-6, eaf-14986-7; animation-composition: replace, add, add;"></path></g><g><rect fill="#fff" stroke="#555" stroke-width="10" width="261.7" height="41.5" transform="translate(112.7 394.2)"></rect><path fill="#d30000" fill-rule="evenodd" d="m160.9 450.2l-57.1 0c-15.5 0 -28.1 -12.6 -28.1 -28.1l0 -35.1c0 -15.5 12.6 -28.1 28.1 -28.1l57.1 0c15.5 0 28.1 12.6 28.1 28.1l0 35c0.1 15.6 -12.5 28.2 -28.1 28.2z"></path><rect fill="#fff" width="29.1" height="51.7" transform="translate(98.2 382.6)"></rect><rect fill="#fff" width="27.8" height="51.7" transform="translate(139.9 382.6)"></rect><path fill="#c4c4c4" fill-rule="evenodd" stroke="#555" stroke-width="7" stroke-miterlimit="10" d="m282.9 321.8l-162.1 0c-17.2 0 -31.2 -14 -31.2 -31.2l0 -104.8c0 -17.2 14 -31.2 31.2 -31.2l162.1 0c17.2 0 31.2 14 31.2 31.2l0 104.8c0 17.2 -14 31.2 -31.2 31.2z" style="animation-name: eaf-14986-8, eaf-14986-9;"></path></g></g></g></svg>