<svg xmlns="http://www.w3.org/2000/svg" viewBox="0 0 650 650" overflow="hidden" preserveAspectRatio="xMidYMid meet" id="eaf-130ad-0"><defs><clipPath id="eaf-130ad-1"><rect x="0" y="0" width="650" height="650"></rect></clipPath><style>#eaf-130ad-0 * {animation: 3000ms linear infinite normal both running;offset-rotate:0deg}@keyframes eaf-130ad-2{0%,100%{transform:none;offset-path:path("m395.3 155.9999l0 -341.9486")}}@keyframes eaf-130ad-3{0%{offset-distance:0%}100%{offset-distance:100%}}@keyframes eaf-130ad-4{0%,100%{transform:translate(-382.9px,14.2px)}}@keyframes eaf-130ad-5{0%,100%{transform:none;offset-path:path("m536.8999 -184.95l0 249.95l0 90.9999")}}@keyframes eaf-130ad-6{0%{offset-distance:0%}71.1%{offset-distance:73.3099%}100%{offset-distance:100%}}@keyframes eaf-130ad-7{0%,100%{transform:translate(-524.5px,184.05px)}}</style></defs><g clip-path="url('#eaf-130ad-1')" style="isolation: isolate;"><g><path fill="#e1f3fd" d="m651.4 325.1c0 81.6 0 163.1 0 244.7c0 37.4 -28.2 71.6 -65 78.6c-5.5 1 -11.1 1.6 -16.6 1.6c-162.6 0 -325.2 0 -487.7 0c-39.9 0 -74.7 -30.6 -79.9 -70.2c-0.5 -3.5 -0.8 -7 -0.8 -10.6c0 -163 0 -326 0 -488.9c0 -37.4 28.2 -71.6 65 -78.6c5.4 -1 11.1 -1.6 16.6 -1.6c162.7 -0.1 325.4 -0.1 488.0999 -0.1c37.4 0 71.6 28.2 78.6 65c1 5.4 1.6 11.1 1.6 16.6c0.1001 81.2 0.1001 162.3 0.1001 243.5l0 0l0 0z"></path><g transform="translate(12.4 170.1999)" style="animation-name: eaf-130ad-2, eaf-130ad-3, eaf-130ad-4; animation-composition: replace, add, add;"><polygon points="434.5,82.6 382.9,0.2 331.3,82.6 352.9,82.6 352.9,142.1 412.9,142.1 412.9,82.6" fill="#c60000"></polygon><polygon points="434.5,253.4 382.9,171 331.3,253.4 352.9,253.4 352.9,312.9 412.9,312.9 412.9,253.4" fill="#c60000"></polygon><polygon points="434.5,424.2 382.9,341.8 331.3,424.2 352.9,424.2 352.9,483.7 412.9,483.7 412.9,424.2" fill="#c60000"></polygon><polygon points="434.5,-429.7 382.9,-512.1 331.3,-429.7 352.9,-429.7 352.9,-370.3 412.9,-370.3 412.9,-429.7" fill="#c60000"></polygon><polygon points="434.5,-258.9 382.9,-341.3 331.3,-258.9 352.9,-258.9 352.9,-199.5 412.9,-199.5 412.9,-258.9" fill="#c60000"></polygon><polygon points="434.5,-88.2 382.9,-170.6 331.3,-88.2 352.9,-88.2 352.9,-28.7 412.9,-28.7 412.9,-88.2" fill="#c60000"></polygon></g><g transform="translate(12.4 -0.9)" style="animation-name: eaf-130ad-5, eaf-130ad-6, eaf-130ad-7; animation-composition: replace, add, add;"><polygon points="472.9,230.5 524.5,312.9 576.1,230.5 554.5,230.5 554.5,171 494.5,171 494.5,230.5" fill="#c60000"></polygon><polygon points="472.9,60.1 524.5,142.5 576.1,60.1 554.5,60.1 554.5,0.6 494.5,0.6 494.5,60.1" fill="#c60000"></polygon><polygon points="472.9,-110.3 524.5,-27.9 576.1,-110.3 554.5,-110.3 554.5,-169.8 494.5,-169.8 494.5,-110.3" fill="#c60000"></polygon><polygon points="472.9,-280.8 524.5,-198.3 576.1,-280.8 554.5,-280.8 554.5,-340.2 494.5,-340.2 494.5,-280.8" fill="#c60000"></polygon><polygon points="472.9,-451.2 524.5,-368.8 576.1,-451.2 554.5,-451.2 554.5,-510.6 494.5,-510.6 494.5,-451.2" fill="#c60000"></polygon><polygon points="472.9,-621.6 524.5,-539.2 576.1,-621.6 554.5,-621.6 554.5,-681 494.5,-681 494.5,-621.6" fill="#c60000"></polygon></g><path fill="#e1f3fd" d="m0 0l473.3999 0q8.1871 407.6621 2.5 418.7c-5.6871 11.0378 -348.42 13.7774 -340.3593 0q8.0607 -13.7774 -135.5406 -418.7z" transform="translate(115.1 229.7)"></path><g><path fill="#51af58" stroke="#555" stroke-width="12" stroke-miterlimit="10" d="m332.6 528.9c-8.1 0 -16.1 0 -24.2 0.1c-1.5 0 -2 -0.3 -1.9 -1.9c0.1 -12.1 -0.1 -24.2 0.1 -36.3c0.1 -7.8 -5.5 -14 -14.1 -14c-38.4 0 -76.7 0 -115.1 0c-8.5 0 -14.1 5.6 -14.1 14.3c0 12 0 23.9 0 35.9c0 1.6 -0.3 2.1 -2 2.1c-12.4 -0.1 -24.7 0 -37.1 0c0 -33.9 0 -67.9 0 -101.8c0 -1.9 0.5 -2.3 2.3 -2.3c29 0.1 58 0 87 0.1c1.5 0 1.9 -0.3 1.9 -1.9c-0.2 -5.6 -0.3 -11.2 -0.2 -16.8c0 -7.8 0.1 -15.6 0.2 -23.4c0.3 -15.5 0.1 -31 0.1 -46.6c0 -1.8 -0.3 -2.4 -2.3 -2.4c-28.9 0.1 -57.9 0 -86.8 0.1c-1.7 0 -2.1 -0.4 -2.1 -2.1c0.1 -30 0 -60.1 0 -90.1c0 -4 0 -7.9 0 -11.9c0.8 0 1.6 0 2.3 0c150.2 0 311.6 0 461.8 0c2.6 0 2.6 0 2.6 2.5c0 98.1 0 196.2 0 294.2c0 2 -0.5 2.5 -2.5 2.5c-7.9 -0.1 -27 -0.1 -34.9 -0.1c0 -0.1 0.1 -0.3 0.1 -0.4c0 -16.8 0 -33.6 0 -50.3c0 -1.4 -0.6 -1.4 -1.7 -1.4c-7.5 0 -15 0.1 -22.4 0c-1.6 0 -2.1 0.4 -2.1 2c0.1 14.4 0 28.7 0 43.1c0 2.3 0.1 4.7 0.1 7c-17.4 0 -34.8 0 -52.2 0c0 -0.1 0.1 -0.3 0.1 -0.4c0 -16.8 0 -33.6 0 -50.3c0 -1.4 -0.6 -1.4 -1.7 -1.4c-7.5 0 -15 0.1 -22.4 0c-1.6 0 -2.1 0.4 -2.1 2c0.1 14.4 0 28.7 0 43.1c0 2.3 0.1 4.7 0.1 7c-4.4 0 -8.8 0 -13.2 0c0 -0.1 0.1 -0.3 0.1 -0.4c0 -16.8 0 -33.6 0 -50.3c0 -1.4 -0.6 -1.4 -1.7 -1.4c-7.5 0 -15 0.1 -22.4 0c-1.6 0 -2.1 0.4 -2.1 2c0.1 14.4 0 28.7 0 43.1c0 2.3 0.1 4.7 0.1 7c-4.4 0 -8.8 0 -13.2 0c0 -0.1 0.1 -0.3 0.1 -0.4c0 -16.8 0 -33.6 0 -50.3c0 -1.4 -0.6 -1.4 -1.7 -1.4c-7.5 0 -15 0.1 -22.4 0c-1.6 0 -2.1 0.4 -2.1 2c0.1 14.2 0 28.5 0 42.7c0 2.5 0.1 4.9 0.1 7.4c-4.4 0 -8.8 0 -13.2 0c0 -0.1 0.1 -0.3 0.1 -0.4c0 -16.8 0 -33.6 0 -50.3c0 -1.4 -0.6 -1.4 -1.7 -1.4c-7.5 0 -15 0.1 -22.4 0c-1.6 0 -2.1 0.4 -2.1 2c0.1 14.2 0 28.5 0 42.7c0.8002 2.2999 0.9002 4.7 0.9002 7.2zm104 -104c0 3.8 0 7.5 0 11.3c0 1.2 0.2 1.6 1.5 1.6c7.7 -0.1 15.5 -0.1 23.2 0c1.3 0 1.4 -0.5 1.4 -1.6c-0.1 -3.8 0 -7.5 0 -11.3c4.3 0 8.7 0 13 0c0 3.8 0 7.5 0 11.3c0 1.2 0.2 1.6 1.5 1.6c7.7 -0.1 15.5 -0.1 23.2 0c1.3 0 1.4 -0.5 1.4 -1.6c-0.1 -3.8 0 -7.5 0 -11.3c3.8 0 7.5 -0.1 11.3 0c1.3 0 1.7 -0.4 1.7 -1.6c-0.1 -3.9 0 -7.8 0 -11.7c0.2 0.1 0.3 0.3 0.5 0.3c3.9 0 7.8 0 11.7 0.1c1 0 0.9 -0.6 0.9 -1.3c0 -7.8 0 -15.6 0 -23.3c0 -1.3 -0.4 -1.5 -1.6 -1.5c-3.8 0.1 -7.7 0 -11.5 0.1c0 -4.4 0 -8.9 -0.1 -13.3c0.2 0.1 0.3 0.3 0.5 0.3c3.9 0 7.8 0 11.7 0.1c1 0 0.9 -0.6 0.9 -1.3c0 -7.8 0 -15.6 0 -23.3c0 -1.3 -0.4 -1.5 -1.6 -1.5c-3.8 0.1 -7.7 0 -11.5 0.1c0 -4.4 0 -8.9 -0.1 -13.3c0.2 0.1 0.3 0.3 0.5 0.3c3.9 0 7.8 0 11.7 0.1c1 0 0.9 -0.6 0.9 -1.3c0 -7.8 0 -15.6 0 -23.3c0 -1.3 -0.4 -1.5 -1.6 -1.5c-3.8 0.1 -7.7 0 -11.5 0.1c0 -3.8 -0.1 -7.5 -0.1 -11.3c0 -1.3 -0.4 -1.7 -1.7 -1.7c-3.8 0 -7.5 -0.1 -11.3 -0.1c0 -3.8 0 -7.7 0.1 -11.5c0 -1.2 -0.2 -1.6 -1.5 -1.6c-7.7 0.1 -15.5 0.1 -23.2 0c-1.1 0 -1.4 0.3 -1.4 1.4c0.1 3.9 0 7.8 0 11.7c-4.3 0 -8.7 0 -13 -0.1c0 -3.8 0 -7.7 0.1 -11.5c0 -1.2 -0.2 -1.6 -1.5 -1.6c-7.7 0.1 -15.5 0.1 -23.2 0c-1.1 0 -1.4 0.3 -1.4 1.4c0.1 3.9 0 7.8 0 11.7c-4.3 0 -8.7 0 -13 -0.1c0 -3.8 0 -7.7 0.1 -11.5c0 -1.2 -0.3 -1.6 -1.5 -1.6c-7.7 0.1 -15.5 0.1 -23.2 0c-1.1 0 -1.4 0.3 -1.4 1.4c0.1 3.9 0 7.8 0 11.7c-3.6 0 -7.3 0.1 -10.9 0c-1.6 0 -2.2 0.3 -2.1 2c0.1 3.6 0 7.3 0 10.9c-3.8 0 -7.5 0.1 -11.3 0c-1.3 0 -1.6 0.4 -1.6 1.6c0.1 7.6 0.1 15.2 0 22.8c0 1.4 0.5 1.7 1.8 1.7c3.7 -0.1 7.4 0 11.1 0c0 4.3 0 8.7 0 13c-3.8 0 -7.5 0.1 -11.3 0c-1.3 0 -1.6 0.4 -1.6 1.6c0.1 7.6 0.1 15.2 0 22.8c0 1.4 0.5 1.7 1.8 1.7c3.7 -0.1 7.4 0 11.1 0c0 4.3 0 8.7 0 13c-3.8 0 -7.5 0.1 -11.3 0c-1.3 0 -1.6 0.4 -1.6 1.6c0.1 7.6 0.1 15.2 0 22.8c0 1.4 0.5 1.7 1.8 1.7c3.7 -0.1 7.4 0 11.1 0c0 3.8 0.1 7.5 0 11.3c0 1.4 0.4 1.8 1.7 1.7c3.8 -0.1 7.5 0 11.3 0c0 3.8 0 7.5 0 11.3c0 1.2 0.2 1.6 1.5 1.6c7.7 -0.1 15.5 -0.1 23.2 0c1.3 0 1.4 -0.5 1.4 -1.6c-0.1 -3.8 0 -7.5 0 -11.3c4.3997 -0.2001 8.6997 -0.2001 12.9997 -0.2001z"></path><path fill="#e2e2e2" stroke="#555" stroke-width="8" stroke-miterlimit="10" d="m124.3 229.7c0 4 0 7.9 0 11.9c0 30 0 60.1 0 90.1c0 1.7 0.4 2.1 2.1 2.1c28.9 -0.1 57.9 0 86.8 -0.1c2.1 0 2.4 0.7 2.3 2.4c0 15.5 0.2 31 -0.1 46.6c-0.1 7.8 -0.2 15.6 -0.2 23.4c0 5.6 0.1 11.2 0.2 16.8c0 1.6 -0.4 1.9 -1.9 1.9c-29 0 -58 0 -87 -0.1c-1.9 0 -2.3 0.4 -2.3 2.3c0.1 33.9 0 67.9 0 101.8c0 16.7 0 33.3 0 50c0 1.6 -0.4 2.1 -2.1 2.1c-7.3 -0.1 -14.6 -0.1 -21.9 0c-1.5 0 -2.2 -0.3 -2 -1.9c0.1 -0.5 0 -1 0 -1.6c0 -141.9 0 -259.6 0 -401.5c0 -4.4 -1 -8.4 -5.2 -10.8c-2.3 -1.3 -4.9 -2.1 -7.6 -2.1c-16.6 0 -33.3 0 -49.9 0c-2 0 -2.6 -0.5 -2.5 -2.5c0.1 -7.3 0.1 -14.6 0 -21.9c0 -1.5 0.4 -1.9 1.9 -1.8c16.9 0 33.8 -0.3 50.7 0.1c11.5 0.3 21.7 4.3 29.5 13.1c4.8 5.4 7.4 11.9 8.5 19.1c0.5 3 0.4 5.9 0.4 8.9c0.3 25.3001 0.3 26.4001 0.3 51.7001z"></path><path fill="#fbd736" d="m332.6 528.9c0 -2.5 -0.1 -4.9 -0.1 -7.4c0 -14.2 0 -28.5 0 -42.7c0 -1.6 0.4 -2 2.1 -2c7.5 0.1 15 0.1 22.4 0c1 0 1.7 0.1 1.7 1.4c0 16.8 0 33.6 0 50.3c0 0.1 -0.1 0.3 -0.1 0.4c-8.7 0.2 -17.3 0.2 -26 0z"></path><path fill="#fbd736" d="m371.7 528.9c0 -2.5 -0.1 -4.9 -0.1 -7.4c0 -14.2 0 -28.5 0 -42.7c0 -1.6 0.4 -2 2.1 -2c7.5 0.1 15 0.1 22.4 0c1 0 1.7 0.1 1.7 1.4c0 16.8 0 33.6 0 50.3c0 0.1 -0.1 0.3 -0.1 0.4c-8.8 0.2 -17.4 0.2 -26 0z"></path><path fill="#fbd736" d="m410.7 528.9c0 -2.3 -0.1 -4.7 -0.1 -7c0 -14.4 0 -28.7 0 -43.1c0 -1.6 0.4 -2 2.1 -2c7.5 0.1 15 0.1 22.4 0c1 0 1.7 0.1 1.7 1.4c0 16.8 0 33.6 0 50.3c0 0.1 -0.1 0.3 -0.1 0.4c-8.8 0.2 -17.4 0.2 -26 0z"></path><path fill="#fbd736" d="m449.7 528.9c0 -2.3 -0.1 -4.7 -0.1 -7c0 -14.4 0 -28.7 0 -43.1c0 -1.6 0.4 -2 2.1 -2c7.5 0.1 15 0.1 22.4 0c1 0 1.7 0.1 1.7 1.4c0 16.8 0 33.6 0 50.3c0 0.1 -0.1 0.3 -0.1 0.4c-8.7 0.2 -17.4 0.2 -26 0z"></path><path fill="#fbd736" d="m527.8 528.9c0 -2.3 -0.1 -4.7 -0.1 -7c0 -14.4 0 -28.7 0 -43.1c0 -1.6 0.4 -2 2.1 -2c7.5 0.1 15 0.1 22.4 0c1 0 1.7 0.1 1.7 1.4c0 16.8 0 33.6 0 50.3c0 0.1 -0.1 0.3 -0.1 0.4c-8.8 0.2 -17.4 0.2 -26.0001 0z"></path><path fill="#555" d="m514.6 372.5c0 4.4 0 8.9 0.1 13.3c0 8.6 0 17.2 -0.1 25.7c0 3.9 -0.1 7.8 0 11.7c0 1.3 -0.4 1.7 -1.7 1.6c-3.8 -0.1 -7.5 0 -11.3 0c-8.7 0 -17.4 0 -26 0c-4.3 0 -8.7 0 -13 0c-8.7 0 -17.4 0 -26 0c-4.3 0 -8.7 0 -13 0c-8.7 0 -17.4 0 -26 0c-3.8 0 -7.5 -0.1 -11.3 0c-1.4 0 -1.8 -0.4 -1.7 -1.7c0.1 -3.8 0 -7.5 0 -11.3c0 -8.7 0 -17.4 0 -26c0 -4.3 0 -8.7 0 -13c0 -8.7 0 -17.4 0 -26c0 -4.3 0 -8.7 0 -13c0 -8.7 0 -17.4 0 -26c0 -3.6 0.1 -7.3 0 -10.9c-0.1 -1.7 0.5 -2.1 2.1 -2c3.6 0.1 7.3 0 10.9 0c8.7 0 17.4 0 26 -0.1c4.3 0 8.7 0 13 0.1c8.7 0 17.4 0 26 -0.1c4.3 0 8.7 0 13 0.1c8.7 0 17.4 0 26 -0.1c3.8 0 7.5 0.1 11.3 0.1c1.3 0 1.7 0.4 1.7 1.7c0 3.8 0.1 7.5 0.1 11.3c0 8.6 0 17.2 -0.1 25.7c0 4.4 0 8.9 0.1 13.3c0.0001 8.4 0.0001 17 -0.1 25.6z"></path><path fill="#e6eaeb" d="m423.6 294.7c-8.7 0 -17.4 0 -26 0.1c0 -3.9 0 -7.8 0 -11.7c0 -1.1 0.3 -1.4 1.4 -1.4c7.7 0 15.5 0.1 23.2 0c1.2 0 1.5 0.4 1.5 1.6c-0.1 3.7 -0.1 7.6 -0.1 11.4z"></path><path fill="#e6eaeb" d="m462.6 294.7c-8.7 0 -17.4 0 -26 0.1c0 -3.9 0 -7.8 0 -11.7c0 -1.1 0.3 -1.4 1.4 -1.4c7.7 0 15.5 0.1 23.2 0c1.2 0 1.5 0.4 1.5 1.6c-0.1 3.7 -0.1 7.6 -0.1 11.4z"></path><path fill="#e6eaeb" d="m501.7 294.7c-8.7 0 -17.4 0 -26 0.1c0 -3.9 0 -7.8 0 -11.7c0 -1.1 0.3 -1.4 1.4 -1.4c7.7 0 15.5 0.1 23.2 0c1.2 0 1.5 0.4 1.5 1.6c-0.2 3.7 -0.1 7.6 -0.1 11.4z"></path><path fill="#e6eaeb" d="m514.6 333.5c0 -8.6 0 -17.2 0.1 -25.7c3.8 0 7.7 0 11.5 -0.1c1.1 0 1.6 0.2 1.6 1.5c-0.1 7.8 0 15.6 0 23.3c0 0.7 0.1 1.3 -0.9 1.3c-3.9 0 -7.8 0 -11.7 -0.1c-0.1999 0.0001 -0.3999 -0.0999 -0.5999 -0.2z"></path><path fill="#e6eaeb" d="m514.6 372.5c0 -8.6 0 -17.2 0.1 -25.7c3.8 0 7.7 0 11.5 -0.1c1.1 0 1.6 0.2 1.6 1.5c-0.1 7.8 0 15.6 0 23.3c0 0.7 0.1 1.3 -0.9 1.3c-3.9 0 -7.8 0 -11.7 -0.1c-0.1999 0.1 -0.3999 -0.0999 -0.5999 -0.2z"></path><path fill="#e6eaeb" d="m514.6 411.5c0 -8.6 0 -17.2 0.1 -25.7c3.8 0 7.7 0 11.5 -0.1c1.1 0 1.6 0.2 1.6 1.5c-0.1 7.8 0 15.6 0 23.3c0 0.7 0.1 1.3 -0.9 1.3c-3.9 0 -7.8 0 -11.7 -0.1c-0.1999 0.1 -0.3999 -0.0999 -0.5999 -0.2z"></path><path fill="#e6eaeb" d="m384.5 307.7c0 8.7 0 17.4 0 26c-3.7 0 -7.4 0 -11.1 0c-1.3 0 -1.8 -0.3 -1.8 -1.7c0.1 -7.6 0.1 -15.2 0 -22.8c0 -1.2 0.3 -1.7 1.6 -1.6c3.8 0.2 7.6 0.1 11.3 0.1z"></path><path fill="#e6eaeb" d="m384.5 346.8c0 8.7 0 17.4 0 26c-3.7 0 -7.4 0 -11.1 0c-1.3 0 -1.8 -0.2 -1.8 -1.7c0.1 -7.6 0.1 -15.2 0 -22.8c0 -1.2 0.3 -1.7 1.6 -1.6c3.8 0.1 7.6 0 11.3 0.1z"></path><path fill="#e6eaeb" d="m384.5 385.8c0 8.7 0 17.4 0 26c-3.7 0 -7.4 0 -11.1 0c-1.3 0 -1.8 -0.3 -1.8 -1.7c0.1 -7.6 0.1 -15.2 0 -22.8c0 -1.2 0.3 -1.7 1.6 -1.6c3.8 0.1 7.6 0.1 11.3 0.1z"></path><path fill="#e6eaeb" d="m397.6 424.9c8.7 0 17.4 0 26 0c0 3.8 0 7.5 0 11.3c0 1.1 -0.1 1.6 -1.4 1.6c-7.7 -0.1 -15.5 -0.1 -23.2 0c-1.3 0 -1.5 -0.4 -1.5 -1.6c0.1 -3.8 0.1 -7.6 0.1 -11.3z"></path><path fill="#e6eaeb" d="m436.6 424.9c8.7 0 17.4 0 26 0c0 3.8 0 7.5 0 11.3c0 1.1 -0.1 1.6 -1.4 1.6c-7.7 -0.1 -15.5 -0.1 -23.2 0c-1.2 0 -1.5 -0.4 -1.5 -1.6c0.1 -3.8 0.1 -7.6 0.1 -11.3z"></path><path fill="#e6eaeb" d="m475.6 424.9c8.7 0 17.4 0 26 0c0 3.8 0 7.5 0 11.3c0 1.1 -0.1 1.6 -1.4 1.6c-7.7 -0.1 -15.5 -0.1 -23.2 0c-1.2 0 -1.5 -0.4 -1.5 -1.6c0.2 -3.8 0.1 -7.6 0.1 -11.3z"></path></g></g></g></svg>