<svg id="epw0jhjv2c31" xmlns="http://www.w3.org/2000/svg" xmlns:xlink="http://www.w3.org/1999/xlink" viewBox="0 0 769 769" shape-rendering="geometricPrecision" text-rendering="geometricPrecision">
    <style>
        <![CDATA[#epw0jhjv2c31{pointer-events: all} #epw0jhjv2c31:hover * {animation-play-state: running !important}#epw0jhjv2c35 {animation: epw0jhjv2c35_c_o 6000ms linear infinite normal forwards}@keyframes epw0jhjv2c35_c_o { 0% {opacity: 1} 16.666667% {opacity: 1;animation-timing-function: step-end} 20% {opacity: 0;animation-timing-function: step-end} 23.333333% {opacity: 1} 100% {opacity: 1} }#epw0jhjv2c39 {animation: epw0jhjv2c39_f_o 6000ms linear infinite normal forwards}@keyframes epw0jhjv2c39_f_o { 0% {fill-opacity: 0} 16.666667% {fill-opacity: 0;animation-timing-function: step-end} 20% {fill-opacity: 1;animation-timing-function: step-end} 23.333333% {fill-opacity: 0} 100% {fill-opacity: 0} }]]>
    </style>
    <g id="epw0jhjv2c32" transform="matrix(4 0 0 4 -846.84002684000006 -2287.91992187500000)">
        <path
            id="epw0jhjv2c33"
            d="M403.490000,667.890000C403.490000,691.950000,403.490000,716.020000,403.490000,740.080000C403.490000,751.110000,395.170000,761.190000,384.310000,763.260000C382.700000,763.570000,381.040000,763.740000,379.410000,763.740000C331.440000,763.770000,283.480000,763.760000,235.510000,763.760000C223.750000,763.760000,213.490000,754.740000,211.950000,743.040000C211.810000,742.010000,211.720000,740.960000,211.720000,739.920000C211.710000,691.830000,211.710000,643.740000,211.710000,595.660000C211.710000,584.630000,220.030000,574.540000,230.890000,572.480000C232.500000,572.170000,234.160000,572,235.790000,572C283.800000,571.980000,331.810000,571.980000,379.810000,571.980000C390.840000,571.980000,400.940000,580.310000,402.990000,591.160000C403.290000,592.770000,403.470000,594.430000,403.470000,596.060000C403.500000,620.010000,403.490000,643.950000,403.490000,667.890000Z"
            fill="#ffcb29"
            stroke="none"
            stroke-width="1"
        />
    </g>
    <g id="epw0jhjv2c34" transform="matrix(4 0 0 4 -845.91000366000026 -2287.89179998999998)">
        <g id="epw0jhjv2c35">
            <path
                id="epw0jhjv2c36"
                d="M216.960000,667.480000C218.380000,665.050000,219.770000,662.590000,221.240000,660.180000C230.720000,644.680000,243.380000,632.460000,259.250000,623.620000C269.170000,618.090000,279.750000,614.350000,290.970000,612.520000C316.270000,608.400000,339.840000,613.130000,361.520000,626.750000C377.380000,636.710000,389.450000,650.260000,398.050000,666.890000C398.310000,667.400000,398.310000,668.280000,398.050000,668.780000C385.830000,692.040000,367.610000,708.720000,343.040000,718.150000C328.140000,723.870000,312.650000,725.900000,296.760000,723.890000C261.900000,719.490000,236.170000,701.470000,218.760000,671.190000C218.180000,670.180000,217.560000,669.180000,216.960000,668.180000C216.960000,667.960000,216.960000,667.720000,216.960000,667.480000Z"
                fill="#01507b"
                stroke="none"
                stroke-width="1"
            />
            <path
                id="epw0jhjv2c37"
                d="M264.660000,640.300000C264.510000,640.360000,264.290000,640.420000,264.110000,640.540000C253.160000,647.360000,244.130000,656.150000,237.160000,667.010000C236.870000,667.460000,237.010000,668.480000,237.340000,668.980000C256.190000,698.220000,290.940000,712.940000,325.040000,705.660000C347.750000,700.820000,365.390000,688.190000,378.300000,668.920000C378.860000,668.090000,378.790000,667.520000,378.270000,666.720000C371.370000,656.250000,362.640000,647.670000,352.070000,640.940000C351.670000,640.690000,351.230000,640.510000,350.670000,640.220000C357.970000,662.550000,348.240000,682.700000,333.580000,692.790000C319.120000,702.750000,299.090000,704.300000,283.240000,693.510000C264.180000,680.520000,258.850000,662.260000,264.660000,640.300000Z"
                fill="#ffe79d"
                stroke="none"
                stroke-width="1"
            />
            <path
                id="epw0jhjv2c38"
                d="M290.490000,666.750000C299.260000,666.620000,307.340000,660.490000,307.660000,650.080000C307.930000,641.250000,301.430000,633.080000,290.980000,632.820000C282.210000,632.600000,274.130000,639.010000,273.810000,649.420000C273.540000,658.240000,280.040000,666.180000,290.490000,666.750000Z"
                fill="rgb(255,255,255)"
                stroke="none"
                stroke-width="1"
            />
        </g>
        <path
            id="epw0jhjv2c39"
            d="M220.840000,712.440000C220.700000,712.180000,220.550000,711.910000,220.410000,711.650000C219.960000,710.820000,219.480000,710.010000,219.020000,709.190000C219.050000,709,219.080000,708.810000,219.110000,708.630000C220.260000,707.380000,221.380000,706.120000,222.530000,704.880000C228.330000,705.620000,235.210000,706.490000,241.050000,707.240000C240.420000,707.820000,239.810000,708.420000,239.200000,709.030000C238.860000,709.380000,238.860000,710.190000,239.120000,710.610000C254.020000,734.590000,286.560000,747.610000,321.310000,743.130000C344.450000,740.140000,363.570000,730.770000,378.870000,715.930000C379.530000,715.290000,379.540000,714.830000,379.120000,714.180000C378.930000,713.890000,378.750000,713.600000,378.550000,713.310000C383.530000,712.450000,390.410000,711.260000,396.220000,710.250000C397.100000,711.820000,397.930000,713.430000,398.700000,715.070000C398.890000,715.480000,398.780000,716.180000,398.450000,716.580000C383.320000,734.620000,363.110000,747.190000,337.520000,753.750000C322.010000,757.730000,306.390000,758.750000,290.900000,756.550000C257.280000,751.760000,234.250000,736.720000,220.840000,712.440000Z"
            transform="matrix(1 0 0 1 -2.05999999999999 -40.90790075000000)"
            fill="#01507b"
            fill-opacity="0"
            stroke="none"
            stroke-width="1"
        />
    </g>
</svg>
