<svg xmlns="http://www.w3.org/2000/svg" viewBox="0 0 500 500" overflow="hidden" preserveAspectRatio="xMidYMid meet" id="eaf-15099-0"><defs><clipPath id="eaf-15099-1"><rect x="0" y="0" width="500" height="500"></rect></clipPath><style>#eaf-15099-0 * {animation: 8000ms linear infinite normal both running;offset-rotate:0deg}@keyframes eaf-15099-2{0%,100%{transform:none;offset-path:path("m248.2042 369.5764l0 0l0 -227.0102l0 0l0 227.0102")}}@keyframes eaf-15099-3{0%{offset-distance:0%}38.75%{offset-distance:0%;animation-timing-function:ease-in-out}51.66%{offset-distance:50%}87.5%{offset-distance:50%;animation-timing-function:ease-in-out}100%{offset-distance:100%}}@keyframes eaf-15099-4{0%,100%{transform:translate(-248.2042px,-369.5764px)}}@keyframes eaf-15099-5{0%,100%{transform:none;offset-path:path("m247.8905 143.0169l0 0l0 227.4831l0 0l0 -227.4831")}}@keyframes eaf-15099-6{0%,100%{transform:translate(-247.8905px,-143.0169px)}}</style></defs><g clip-path="url('#eaf-15099-1')" style="isolation: isolate;"><g><g transform="matrix(4 0 0 4 -827.28 -2254.5264)"><path fill="#ffcb29" d="m331.7 626.2c0 15.6 0 31.3 0 46.9c0 7.2 -5.4 13.7 -12.5 15.1c-1 0.2 -2.1 0.3 -3.2 0.3c-31.2 0 -62.4 0 -93.6 0c-7.6 0 -14.3 -5.9 -15.3 -13.5c-0.1 -0.7 -0.1 -1.4 -0.1 -2c0 -31.3 0 -62.5 0 -93.8c0 -7.2 5.4 -13.7 12.5 -15.1c1 -0.2 2.1 -0.3 3.2 -0.3c31.2 0 62.4 0 93.6 0c7.2 0 13.7 5.4 15.1 12.5c0.2 1 0.3 2.1 0.3 3.2c0 15.5999 0 31.0999 0 46.7z"></path></g><g style="filter: drop-shadow(rgba(0, 0, 0, 0.486) 8px 8px 10px);"><g transform="translate(0 0)" style="animation-name: eaf-15099-2, eaf-15099-3, eaf-15099-4; animation-composition: replace, add, add;"><path fill="#01507b" d="m248.1 277.9c44.8 0 89.7 -0.6 134.5 0.2c35.4 0.6 62.4 17.4 79.1 48.4c16.6 30.9 15.4 62.4 -3.3 92.1c-17.8 28.1 -44.2 42.5 -77.4 42.6c-69.2 0.4 -138.4 0.1 -207.7 0.1c-19.5 0 -39.1 0.3 -58.6 0.1c-43.9 -0.4 -80.9 -30.9 -89.7 -73.6c-11.7 -56 31.2 -109.4 88.5 -109.8c44.9 -0.4 89.7 -0.1 134.6 -0.1zm189.4 92.6c0.1 -31.6 -24.5 -56.7 -55.7 -56.7c-30.9 -0.1 -56.1 24.9 -56.2 55.7c-0.1 30.7 25 56 55.8 56.1c30.5 0.1 56 -24.9 56.1 -55.1zm-288.2 -0.7c0.2 -29.1 -17.9 -47.5 -47 -47.9c-28 -0.4 -48.3 19.7 -48.5 47.8c-0.2 28.3 18.7 47.5 46.8 47.7c28.3 0.1 48.5 -19.6 48.7 -47.6zm15.5 -45.5c0 30.4 0 60.2 0 90.3c7.7 0 15 0 23 0c0 -11.4 0 -22.3 0 -33.8c11.5 0 22.2 0 32.9 0c0 -6.5 0 -12.3 0 -18.8c-11.2 0 -21.9 0 -32.7 0c0 -6.7 0 -12.6 0 -19.1c14.1 0 27.6 0 41.3 0c0 -6.5 0 -12.4 0 -18.6c-21.7 0 -42.6 0 -64.5 0zm79 0.1c0 30.5 0 60.3 0 90.4c7.7 0 14.8 0 22.7 0c0 -11.3 0 -22.3 0 -34c11.5 0 22.2 0 32.9 0c0 -6.7 0 -12.5 0 -19c-11.2 0 -21.9 0 -32.6 0c0 -6.5 0 -12.4 0 -18.9c14.1 0 27.8 0 41.5 0c0 -6.5 0 -12.4 0 -18.5c-21.7 0 -42.8 0 -64.5 0z"></path><path fill="#999" d="m437.5 370.5c-0.1 30.2 -25.5 55.2 -56.1 55.1c-30.8 -0.1 -56 -25.4 -55.8 -56.1c0.1 -30.8 25.3 -55.8 56.2 -55.7c31.1 0 55.8 25.1 55.7 56.7z"></path><path fill="#999" d="m149.3 369.8c-0.2 28 -20.4 47.8 -48.7 47.6c-28.1 -0.2 -46.9 -19.4 -46.8 -47.7c0.2 -28.1 20.5 -48.2 48.5 -47.8c29.1 0.4 47.1 18.8 47 47.9zm-23.2 -0.2c-0.1 -18.9 -10.7 -30.2 -26.9 -28.8c-13.1 1.1 -20.9 10.1 -21.8 25.3c-1.1 17.3 6.1 29.4 18.8 32c17.5 3.6 30 -8.3 29.9 -28.5z"></path><path fill="#999" d="m164.8 324.3c21.9 0 42.9 0 64.4 0c0 6.2 0 12.2 0 18.6c-13.7 0 -27.2 0 -41.3 0c0 6.4 0 12.4 0 19.1c10.8 0 21.6 0 32.7 0c0 6.5 0 12.3 0 18.8c-10.7 0 -21.4 0 -32.9 0c0 11.5 0 22.4 0 33.8c-8 0 -15.3 0 -23 0c0.1 -30.1 0.1 -59.9 0.1 -90.3z"></path><path fill="#999" d="m243.8 324.4c21.7 0 42.8 0 64.5 0c0 6.1 0 12 0 18.5c-13.6 0 -27.3 0 -41.5 0c0 6.5 0 12.4 0 18.9c10.6 0 21.4 0 32.6 0c0 6.5 0 12.3 0 19c-10.6 0 -21.3 0 -32.9 0c0 11.7 0 22.7 0 34c-7.9 0 -15.1 0 -22.7 0c0 -30.1 0 -59.9 0 -90.4z"></path><path fill="#01507b" d="m126.1 369.6c0.1 20.2 -12.4 32 -29.9 28.4c-12.7 -2.6 -19.9 -14.8 -18.8 -32c0.9 -15.2 8.7 -24.1 21.8 -25.3c16.2 -1.3 26.8 10.1 26.9 28.9z"></path><path fill="#fffdfd" d="m374.4 322.1l-8.9 2.9l-9.3 6.8l-8.6 7.5l-5.7 7.2l-5 5.7l0 4.6l3.6 3.6l4.3 0l6.8 -5.7l6.4 -6.8l6.4 -6.6l5 -5.9l5 -2.9l5.3 -2.1l4.3 -1.4l1.2 -0.9c1.1 -0.9 1.6 -2.3 1.2 -3.7l-0.1 -0.3c-0.3 -1.2 -1.4 -2 -2.6 -2l-2.5 0l-6.8 0l0 0z" opacity="0.54"></path></g></g><g style="filter: drop-shadow(rgb(87, 255, 120) 8px 8px 6px);"><g transform="translate(0 0)" style="animation-name: eaf-15099-5, eaf-15099-3, eaf-15099-6; animation-composition: replace, add, add;"><path fill="#01507b" d="m247.3 234.8c-44.6 0 -89.3 0.3 -133.9 -0.1c-50.6 -0.4 -91.6 -43 -90.4 -93.6c1.2 -49.6 41.3 -89.5 91.1 -89.8c52 -0.4 104.1 0 156.1 0.1c38 0 76 -0.6 114 0.3c49.8 1.1 89.2 42.8 88.6 92.6c-0.6 49.3 -41.1 90.1 -90.4 90.4c-45 0.4 -90 0.1 -135.1 0.1zm-132.7 -35.8c30.8 -0.1 55.9 -25.4 55.7 -56.3c-0.2 -30.7 -25.8 -55.9 -56.4 -55.6c-31 0.3 -55.7 25.3 -55.5 56.3c0.2 31.1 25.2 55.7 56.2 55.6zm258 -45.3c-0.4 0.1 -0.8 0.2 -1.1 0.3c-1.1 -1.7 -2.3 -3.3 -3.4 -5c-10.2 -15.9 -20.4 -31.8 -30.7 -47.6c-1.1 -1.6 -2.8 -3.9 -4.4 -4c-7.5 -0.4 -15.1 -0.2 -23 -0.2c0 30.6 0 60.5 0 90.6c7.3 0 14.2 0 21.8 0c0 -18.9 0 -37.4 0 -57.5c1.7 2.3 2.5 3.2 3.1 4.3c10.7 16.6 21.3 33.2 32.1 49.7c1.2 1.9 3.5 4.3 5.4 4.4c7.1 0.5 14.3 0.2 21.6 0.2c0 -31 0 -61.1 0 -91.3c-7.4 0 -14 0 -21.4 0c0 19 0 37.5 0 56.1zm-125.8 -58.3c-27.7 0.1 -47.7 20.2 -47.7 48c0 28.6 19 47.6 47.6 47.6c28.1 0 48 -20.1 47.9 -48.4c-0.1 -28.8 -18.9 -47.3 -47.8 -47.2z"></path><g style="filter: drop-shadow(rgb(74, 255, 110) 0px 0px 11px);"><path fill="#73ea4b" stroke="#00a31b" stroke-width="4" d="m114.6 199c-31.1 0.1 -56 -24.5 -56.2 -55.6c-0.2 -31 24.5 -55.9 55.5 -56.3c30.7 -0.3 56.2 24.9 56.4 55.6c0.2 30.9 -24.9 56.2 -55.7 56.3z"></path></g><path fill="#ffffff" d="m372.6 153.7c0 -18.5 0 -37 0 -56c7.4 0 14 0 21.4 0c0 30.2 0 60.3 0 91.3c-7.3 0 -14.5 0.3 -21.6 -0.2c-1.9 -0.1 -4.1 -2.5 -5.4 -4.4c-10.8 -16.5 -21.4 -33.1 -32.1 -49.7c-0.7 -1 -1.4 -2 -3.1 -4.3c0 20 0 38.5 0 57.5c-7.6 0 -14.5 0 -21.8 0c0 -30.2 0 -60 0 -90.6c7.9 0 15.5 -0.2 23 0.2c1.5 0.1 3.3 2.3 4.4 4c10.3 15.8 20.5 31.8 30.7 47.6c1.1 1.7 2.3 3.3 3.4 5c0.3 -0.2 0.7 -0.3 1.1 -0.4z"></path><path fill="#ffffff" d="m246.8 95.4c28.9 -0.1 47.7 18.5 47.8 47.1c0.1 28.3 -19.8 48.3 -47.9 48.4c-28.6 0 -47.6 -18.9 -47.6 -47.6c0 -27.8 20 -47.9 47.7 -47.9zm25 48.7c-0.7 -4 -1.1 -8 -2.1 -11.9c-2.9 -11.6 -11.4 -18.2 -23 -18.2c-11.5 0 -19.8 5.9 -22.4 17.7c-1.5 6.7 -1.7 14 -0.6 20.7c1.4 9 6.6 16 16.1 18.6c17.8 4.9 31.3 -6.6 32 -26.9z"></path><path fill="#01507b" d="m271.8 144.1c-0.7 20.3 -14.2 31.7 -32 26.9c-9.6 -2.6 -14.7 -9.6 -16.1 -18.6c-1.1 -6.7 -0.8 -14.1 0.6 -20.7c2.6 -11.8 11 -17.7 22.4 -17.7c11.6 0 20.1 6.6 23 18.2c1 3.9 1.4 8 2.1 11.9z"></path><path fill="#fffdfd" d="m107 94.9l-8.9 2.9l-9.3 6.8l-8.6 7.5l-5.7 7.2l-5 5.7l0 4.6l3.6 3.6l4.3 0l6.8 -5.7l6.4 -6.8l6.4 -6.7l5 -5.9l5 -2.9l5.3 -2.1l4.3 -1.4l1.2 -0.9c1.1 -0.9 1.6 -2.3 1.2 -3.7l-0.1 -0.3c-0.3 -1.2 -1.4 -2 -2.6 -2l-2.5 0l-6.8 0l0 0.1z" transform="translate(1 3)"></path></g></g></g></g></svg>