<svg xmlns="http://www.w3.org/2000/svg" viewBox="0 0 500 500" overflow="hidden" preserveAspectRatio="xMidYMid meet" id="eaf-17a08-0"><defs><clipPath id="eaf-17a08-1"><rect x="0" y="0" width="500" height="500"></rect></clipPath><style>#eaf-17a08-0 * {animation: 10000ms linear infinite normal both running;offset-rotate:0deg}@keyframes eaf-17a08-2{0%,100%{transform:translate(1596.4444px,216.2262px)}}@keyframes eaf-17a08-3{0%{transform:scale(1,1)}72.67%{transform:scale(1,1);animation-timing-function:ease-in-out}74.01%{transform:scale(1,-0.01)}75%{transform:scale(1,-0.01);animation-timing-function:ease-in-out}76%,100%{transform:scale(1,1)}}@keyframes eaf-17a08-4{0%,100%{transform:translate(-1596.4444px,-216.2262px)}}@keyframes eaf-17a08-5{0%,100%{transform:translate(1648.75px,320.6px)}}@keyframes eaf-17a08-6{0%{transform:rotate(0)}53.33%{transform:rotate(0);animation-timing-function:ease-in-out}66.01%{transform:rotate(-6deg);animation-timing-function:ease-in-out}77.33%{transform:rotate(8deg);animation-timing-function:ease-in-out}80.66%{transform:rotate(6deg)}87%,100%{transform:rotate(0)}}@keyframes eaf-17a08-7{0%,100%{transform:translate(-1648.75px,-320.6px)}}@keyframes eaf-17a08-8{0%,100%{transform:none;offset-path:path("m194.9724 112.9481l64.6171 131.984l0 0l-450.2503 0l0 0l-444.2269 0l0.6629 0l-0.6629 0l829.8601 -131.984")}}@keyframes eaf-17a08-9{0%{offset-distance:0%;animation-timing-function:ease-in-out}9.67%{offset-distance:7.804%}24.67%{offset-distance:7.804%;animation-timing-function:ease-in-out}36.33%{offset-distance:31.7147%}52.67%{offset-distance:31.7147%;animation-timing-function:ease-in-out}67.01%{offset-distance:55.3056%;animation-timing-function:ease-in-out}79%{offset-distance:55.3408%;animation-timing-function:ease-in-out}82%{offset-distance:55.376%;animation-timing-function:ease-in-out}96%,100%{offset-distance:100%}}@keyframes eaf-17a08-10{0%{transform:scale(1,1);animation-timing-function:ease-in-out}9.67%{transform:scale(3.82,3.82)}82%{transform:scale(3.82,3.82);animation-timing-function:ease-in-out}96%,100%{transform:scale(1,1)}}@keyframes eaf-17a08-11{0%,100%{transform:translate(-194.9724px,-112.9481px)}}</style></defs><g clip-path="url('#eaf-17a08-1')" style="isolation: isolate;"><g><g transform="matrix(4 0 0 4 -827.28 -2254.5264)"><path fill="#ffcb29" d="m331.8 626.1c0 15.6 0 31.3 0 46.9c0 7.2 -5.4 13.7 -12.5 15.1c-1 0.2 -2.1 0.3 -3.2 0.3c-31.2 0 -62.4 0 -93.6 0c-7.6 0 -14.3 -5.9 -15.3 -13.5c-0.1 -0.7 -0.1 -1.4 -0.1 -2c0 -31.3 0 -62.5 0 -93.8c0 -7.2 5.4 -13.7 12.5 -15.1c1 -0.2 2.1 -0.3 3.2 -0.3c31.2 0 62.4 0 93.6 0c7.2 0 13.7 5.4 15.1 12.5c0.2 1 0.3 2.1 0.3 3.2c0 15.6 0 31.1 0 46.7z"></path></g><g transform="translate(0 0)" style="animation-name: eaf-17a08-8, eaf-17a08-9, eaf-17a08-10, eaf-17a08-11; animation-composition: replace, add, add, add;"><g transform="matrix(0.2404 0 0 0.2404 30.9089 53.3476)"><g><path fill="#01507b" d="m841.5 13.5l-329.7 0c-13.4 0 -24.2 10.9 -24.2 24.2l0 428.6c0 13.4 10.9 24.2 24.2 24.2l329.7 0c13.4 0 24.2 -10.9 24.2 -24.2l0 -428.6c0 -13.3 -10.8 -24.2 -24.2 -24.2z"></path><path fill="#fefadf" d="m850.3 466.3c0 4.8 -3.9 8.8 -8.8 8.8l-329.7 0c-4.8 0 -8.8 -3.9 -8.8 -8.8l0 -428.6c0 -4.8 3.9 -8.8 8.8 -8.8l329.7 0c4.8 0 8.8 3.9 8.8 8.8l0 428.6z"></path><path fill="#01507b" d="m536.6 353.7c-6 0 -11 -4.9 -11 -11l0 -280.2c0 -6 4.9 -11 11 -11l280.2 0c6 0 11 4.9 11 11l0 280.2c0 6 -4.9 11 -11 11l-280.2 0z"></path><g><path fill="#f7e79c" d="m810.1 261.3c-16.5 0 -28.6 -17.4 -28.6 -26.4c0 -0.2 0 -0.4 -0.1 -0.6l-0.4 -2.6l2.3 -1.4c18.2 -11.3 29.1 -30.8 29.1 -52.2c0 -19.8 -10.6 -37.3 -26.9 -44.8c-0.5 -0.2 -1 -0.3 -1.5 -0.3c-0.7 0 -1.3 0.2 -1.9 0.5l-2.1 1.3c-18.9 11.3 -44.9 26.7 -87.1 31.2c-1.9 0.2 -3.3 1.8 -3.3 3.7l0 8.4c0 21.3 10.9 40.9 29.1 52.2l2.3 1.4l-0.5 2.6c0 0.3 -0.1 0.5 -0.1 0.6c0 7.9 -8.7 26.4 -25.5 26.4c-13.6 0 -23.9 -2.3 -30.2 -4.2l-4.8 -1.5l2.5 -4.4c0.2 -0.4 0.4 -0.7 0.6 -1.1c5.7 -10.4 9.3 -33.6 9.3 -59.2l0 -4.4l0 -0.3l0 -15.2c0.1 -39.6 35.4 -71.8 78.6 -71.8c29.6 0 56.4 15 69.9 39.1l0.5 0.9l0 121.6l-3.8 0.2c-2.4999 0.2 -4.9999 0.3 -7.4 0.3z"></path><path fill="#01507b" d="m549.9 151.5c-0.9 -5.4 -1.3 -10.5 -1.3 -15.1c0 -14.2 10.9 -28.8 29.2 -28.8l8.2 0c2 0 3.7 -1.6 3.7 -3.7l0 -2.9l2.7 -0.9c3.8 -1.2 8.1 -1.8 13.3 -1.8c10.9 0 23.2 2.6 35.1 5c8.6 1.8 16.6 3.5 23.5 4l2.3 0.2l1 2c1.3 2.6 5.5 12.2 5 26.9c0 0.1 0 0.2 0 0.3l0.1 1l-0.5 0.9c-2.8 5.7 -4.8 11.8 -6.1 18l-1.1 5.5l-4.8 -2.8c-11.6 -6.7 -31.5 -14.7 -60.1 -14.7c-12.6 0 -26 1.6 -39.7 4.7c-1.2 0.3 -2.2 1.1 -2.6 2.3l-0.1 0.2l-0.4 0.8l-5.6 10.4l-1.8001 -11.5z"></path></g><g><path fill="#ffd5ab" d="m750.9 232c-29.8 0 -54 -24.2 -54 -54l0 -5l3.4 -0.5c39.8 -5.6 66 -21.1 81.7 -30.4l2.1 -1.2l2.1 1.3c11.5 7.1 18.7 20.9 18.7 35.9c0 29.7 -24.3 53.9 -54 53.9z"></path><path fill="#ffd5ab" d="m750.9 314.4c-25.2 0 -46.8 -17.1 -52.5 -41.6l-0.9 -3.9l3.9 -0.9c14.1 -3.3 23.7 -16.7 25.9 -28.4l0.8 -4.4l4.3 1.4c6 1.9 12.2 2.9 18.5 2.9c6.3 0 12.6 -1 18.6 -2.9l4.1 -1.3l1 4.2c1.3 5.7 4.8 12 9.7 17.1c4.8 5.2 10.6 8.9 16.6 10.7l3.5 1.1l-0.8 3.6c-5.5 24.6 -27.6 42.4 -52.7 42.4z"></path><path fill="#ffd5ab" d="m610.8 240.3c-29.8 0 -54 -24.2 -54 -54l0 -4.1c0 -9.9 3.9 -19.3 6.2 -24l0.9 -1.8l1.9 -0.4c11.7 -2.4 23.2 -3.7 34.2 -3.7c14.4 0 27.8 2.1 39.9 6.2c11.9 4 19.8 9.1 23.4 11.8l1.6 1.2l0 15.2c-0.3001 29.5 -24.6001 53.6 -54.1001 53.6z"></path><path fill="#ffd5ab" d="m610.7 289.7c-8 0 -19 -11.4 -31.4 -25.2c-1.8 -2 -3.5 -3.9 -5.3 -5.8l-2.6 -2.8l2.8 -2.7c1.7 -1.7 4.1 -4.6 5.7 -8.7l1.5 -4l3.9 1.8c8 3.7 16.6 5.6 25.5 5.6c8.8 0 17.4 -1.9 25.4 -5.5l3.9 -1.8l1.5 4c1.6 4.1 4 7 5.7 8.7l2.8 2.7l-2.6 2.8c-1.7 1.8 -3.5 3.8 -5.3 5.8c-12.5001 13.6 -23.4001 25.1 -31.5001 25.1z"></path></g><g><path fill="#fff" d="m653.7 243c-0.9 -1.4 -1.8 -3.2 -2.1 -5.5c1.8 -1.5 3.6 -3 5.3 -4.7c-1 4.2 -2.1 7.7 -3.2 10.2z"></path><path fill="#fff" d="m536.6 61.9l280.2 0c0.3 0 0.5 0.2 0.5 0.5l0 52.4c-16.8 -17 -40.6 -27 -66.4 -27c-27.4 0 -52 11.4 -68.5 29.4c-1.9 -8.2 -4.9 -14.6 -8 -18.3c-1.5 -1.8 -3.6 -2.8 -5.9 -2.8c-6.4 0 -15.5 -1.9 -25.2 -3.9c-22.5 -4.7 -50.2 -10.4 -66.7 3.9c-9.8 0.3 -19.5 4.2 -26.8 10.9c-8.2 7.6 -12.7 18 -12.7 29.3c0 18.9 6.3 37.8 8.2 43.1l0 6.9c0 20.7 9.6 39.1 24.6 51.1c-0.5 4.1 -2.9 6.8 -4.1 7.8c-2.2 -1.6 -5 -2 -7.5 -0.9l-19.3 7.9c-1 0.3 -2 0.7 -3 1.2l0 -190.9c0.1 -0.3 0.3 -0.6 0.6 -0.6z"></path></g><g><path fill="#f4b526" d="m536.6 346.2c-1.9 0 -3.5 -1.6 -3.5 -3.5l0 -73.2l1.2 -0.9c2.9 -2.1 5.9 -3.6 8.9 -4.6c0.1 0 0.2 -0.1 0.3 -0.1l16.9 -7l1.4 1.3c3.3 3.2 7.1 7.4 11.1 11.8c12.5 13.8 25.3 28.1 37.7 28.1c12.4 0 25.3 -14.2 37.7 -28l0.2 -0.2c1.8 -2 3.5 -3.8 5.1 -5.6l1.4 -1.5l1.9 0.7c0.8 0.3 1.7 0.6 2.6 0.9l4.5 1.5l-3.3 3.4c-8.6 8.9 -13.5 20.5 -13.5 32l0 44.8l-110.6001 0l0 0.1001z"></path><path fill="#c90606" d="m656.7 346.2l0 -44.8c0 -15.1 10.5 -26.8 19.6 -32.3l0.9 -0.5l1 0.1c2.8 0.4 5.6 0.6 8.6 0.8l2.3 0.1l0.4 2.3c5.5 29.5 31.3 50.9 61.3 50.9c15.7 0 30.8 -5.9 42.3 -16.5c9.9 -9.2 16.5 -21 19 -34.2l0.4 -2.4l2.4 -0.1c0.7 0 1.4 -0.1 2.1 -0.1l3.2 -0.2l0 73.3c0 1.9 -1.6 3.5 -3.5 3.5l-160 0l0 0.1z"></path></g><g><path fill="#01507b" d="m817.3 374.5l-280.2 0c-8.8 0 -16 7.2 -16 16l0 49.5c0 8.8 7.2 16 16 16l280.2 0c8.8 0 16 -7.2 16 -16l0 -49.5c0 -8.9 -7.2 -16 -16 -16z"></path><path fill="#fff" d="m536.6 447.1c-3 0 -5.5 -2.5 -5.5 -5.5l0 -49.5c0 -3 2.5 -5.5 5.5 -5.5l280.2 0c3 0 5.5 2.5 5.5 5.5l0 49.5c0 3 -2.5 5.5 -5.5 5.5l-280.2 0z"></path><path fill="#01507b" d="m610.7 409.1l-49.5 0c-4.3 0 -7.7 3.5 -7.7 7.7c0 4.2 3.5 7.7 7.7 7.7l49.5 0c4.3 0 7.7 -3.5 7.7 -7.7c0 -4.2 -3.4 -7.7 -7.7 -7.7z"></path><path fill="#01507b" d="m792.1 409.1l-148.4 0c-4.3 0 -7.7 3.5 -7.7 7.7c0 4.2 3.5 7.7 7.7 7.7l148.4 0c4.3 0 7.7 -3.5 7.7 -7.7c0 -4.2 -3.5 -7.7 -7.7 -7.7z"></path></g></g><g><path fill="#01507b" d="m1328 13.5l-329.7 0c-13.4 0 -24.2 10.9 -24.2 24.2l0 428.6c0 13.4 10.9 24.2 24.2 24.2l329.7 0c13.4 0 24.2 -10.9 24.2 -24.2l0 -428.6c0 -13.3 -10.7999 -24.2 -24.2 -24.2z"></path><path fill="#fefadf" d="m1336.8 466.3c0 4.8 -3.9 8.8 -8.8 8.8l-329.7 0c-4.8 0 -8.8 -3.9 -8.8 -8.8l0 -428.6c0 -4.8 3.9 -8.8 8.8 -8.8l329.7 0c4.8 0 8.8 3.9 8.8 8.8l0 428.6z"></path><path fill="#01507b" d="m1023.1 353.7c-6 0 -11 -4.9 -11 -11l0 -280.2c0 -6 4.9 -11 11 -11l280.2001 0c6 0 11 4.9 11 11l0 280.2c0 6 -4.9 11 -11 11l-280.2001 0z"></path><g><path fill="#01507b" d="m1303.8 374.5l-280.2 0c-8.8 0 -16 7.2 -16 16l0 49.5c0 8.8 7.2 16 16 16l280.2 0c8.8 0 16 -7.2 16 -16l0 -49.5c0 -8.9 -7.2001 -16 -16 -16z"></path><path fill="#fff" d="m1023.1 447.1c-3 0 -5.5 -2.5 -5.5 -5.5l0 -49.5c0 -3 2.5 -5.5 5.5 -5.5l280.2001 0c3 0 5.5 2.5 5.5 5.5l0 49.5c0 3 -2.5 5.5 -5.5 5.5l-280.2001 0z"></path><path fill="#01507b" d="m1097.3 409.1l-49.5 0c-4.3 0 -7.7 3.5 -7.7 7.7c0 4.2 3.5 7.7 7.7 7.7l49.5 0c4.3 0 7.7 -3.5 7.7 -7.7c0 -4.2 -3.5 -7.7 -7.7 -7.7z"></path><path fill="#01507b" d="m1278.6 409.1l-148.4 0c-4.3 0 -7.7 3.5 -7.7 7.7c0 4.2 3.5 7.7 7.7 7.7l148.4 0c4.3 0 7.7 -3.5 7.7 -7.7c0 -4.2 -3.4999 -7.7 -7.7 -7.7z"></path></g><path fill="#b5e7ff" d="m1288.5 343.9l-252.5 0c-7.9 0 -14.4 -6.4 -14.4 -14.4l0 -252.5c0 -7.9 6.4 -14.4 14.4 -14.4l252.5 0c7.9 0 14.4 6.4 14.4 14.4l0 252.5c-0.1 8 -6.5 14.4 -14.4 14.4z"></path><path fill="#b1d8b4" stroke="#01507b" stroke-width="8.0567" stroke-miterlimit="10" d="m1020.6 202.6l0 127l3.9 9.8l10.5 4.6l252.5 0l8.8 -3l5.5 -6.6l0 -84.7c0 0 -10 -35 -40.7 -21.5c-30.7 13.5 -17.1 30.9 -64.9 21.2c-47.8 -9.8 -58.5 -46.8 -86.3 -41.1c-27.8 5.7 -30.7 -58.6 -51.3 -45c-20.6 13.4 -43.4 27.3 -38 39.3z"></path><path fill="#fff" stroke="#01507b" stroke-width="6" stroke-miterlimit="10" d="m1184 154.9l-1.6 0.2l-1.6 0.1c-16.7 0.3 -30.3 -13.1 -30 -29.9l0.1 -1.6l0.2 -1.6c2.1 -16.6 17.7 -27.9 34.1 -25.1l1.5 0.3l1.5 0.4l0 0l0 0l0 0l0.2 -1.7l0.3 -1.6c3.1 -13.6 14 -23.7 27.8 -25.7l1.7 -0.2l1.7 -0.1c13.8 -0.6 26.6 7.5 32 20.2l0.6 1.6l0.5 1.6l0 0l0 0c0 0 1 -0.9 1 -0.9l1.1 -0.9c9.5 -7.2 22.5 -6.1 30.7 2.5l0.9 1.1l0.9 1.1c6.9 9.5 5.5 22.9 -3.4 30.6l-1.1 0.9l-1.1 0.8l0 0l0 0c0 0 1.5 0.6 1.5 0.6l1.5 0.7c15.3 8.1 21 27.1 12.6 42.3l-0.8 1.4l-0.9 1.3c-10 14.1 -29.7 17.3 -43.6 6.9l-1.3 -1l-1.2 -1.1l0 0l0 0l-1.1 1.4c-22.3 26 -63.9 11.3 -64.9 -23l0.2002 -1.6" transform="matrix(1 0 0 0.6721 0.3186 56.6466)" opacity="0.84"></path><ellipse fill="#f4b526" rx="51.3" ry="51.3" transform="matrix(0.7362 0 0 0.7362 1070.3 109.5)"></ellipse><path fill="#86a889" d="m0 0q0 -5 70.9 -58.15q64.2998 6.65 67.8998 6.65q3.6 0 35.5 -20.6l11.7 0l1.7001 72.1q-187.6998 5 -187.6998 0z" transform="translate(1109.9 339.4)" opacity="0.84"></path><path fill="#86a889" d="m0 0" transform="translate(2666.1594 517.9183)" opacity="0.84"></path><path fill="#86a889" d="m0 0" transform="translate(1211.9629 -56.5953)" opacity="0.84"></path><path fill="#65a06a" d="m0 0q32.4035 -7.6999 48.05 18.6001q15.6466 26.3 37.35 34.8l53.8 10.9q27.3807 25.5442 24.7051 26.6q-2.6757 1.0558 -152.4051 -1.6l-11.5 -5l0 -84.3z" transform="translate(1024.5 250.1)"></path></g><g><path fill="#01507b" d="m354 13.5l-329.7 0c-13.3 0 -24.2 10.9 -24.2 24.2l0 428.6c0 13.4 10.9 24.2 24.2 24.2l329.7 0c13.4 0 24.2 -10.9 24.2 -24.2l0 -428.6c0 -13.3 -10.8 -24.2 -24.2 -24.2z"></path><path fill="#fefadf" d="m362.8 466.3c0 4.8 -3.9 8.8 -8.8 8.8l-329.7 0c-4.8 0 -8.8 -3.9 -8.8 -8.8l0 -428.6c0 -4.8 3.9 -8.8 8.8 -8.8l329.7 0c4.8 0 8.8 3.9 8.8 8.8l0 428.6z"></path><path fill="#01507b" d="m49.1 353.7c-6 0 -11 -4.9 -11 -11l0 -280.2c0 -6 4.9 -11 11 -11l280.2 0c6 0 11 4.9 11 11l0 280.2c0 6 -4.9 11 -11 11l-280.2 0z"></path><g><path fill="#01507b" d="m329.8 374.5l-280.2 0c-8.8 0 -16 7.2 -16 16l0 49.5c0 8.8 7.2 16 16 16l280.2 0c8.8 0 16 -7.2 16 -16l0 -49.5c0 -8.9 -7.2 -16 -16 -16z"></path><path fill="#fff" d="m49.1 447.1c-3 0 -5.5 -2.5 -5.5 -5.5l0 -49.5c0 -3 2.5 -5.5 5.5 -5.5l280.2 0c3 0 5.5 2.5 5.5 5.5l0 49.5c0 3 -2.5 5.5 -5.5 5.5l-280.2 0z"></path><path fill="#01507b" d="m123.2 409.1l-49.4 0c-4.3 0 -7.7 3.5 -7.7 7.7c0 4.2 3.5 7.7 7.7 7.7l49.5 0c4.3 0 7.7 -3.5 7.7 -7.7c0 -4.2 -3.5 -7.7 -7.8 -7.7z"></path><path fill="#01507b" d="m304.6 409.1l-148.4 0c-4.3 0 -7.7 3.5 -7.7 7.7c0 4.2 3.5 7.7 7.7 7.7l148.4 0c4.3 0 7.7 -3.5 7.7 -7.7c0 -4.2 -3.5 -7.7 -7.7 -7.7z"></path></g><path fill="#e1f3fd" d="m314.4 343.9l-252.5 0c-7.9 0 -14.4 -6.4 -14.4 -14.4l0 -252.5c0 -7.9 6.4 -14.4 14.4 -14.4l252.5 0c7.9 0 14.4 6.4 14.4 14.4l0 252.5c0 8 -6.4 14.4 -14.4 14.4z"></path><path fill="#e3e3e3" stroke="#01507b" stroke-width="10" stroke-miterlimit="62.5" d="m299.7 222.4c-1 -13.8 -4.2 -26.6 -9.4 -38c12.9 -49.1 7 -84.1 0 -95.6c-2.9 -4.7 -8.7 -5 -13.7 -3.4c-9.9 3.1 -33.4 20.4 -50.8 46.2c-10.9 -2.8 -22.8 -4.3 -35.8 -4.3c-14 0 -26.8 1.9 -38.3 5.3c-17.1 -24.9 -38.8 -41 -48.7 -44.1c-5.1 -1.6 -11.5 -1.8 -14.4 2.9c-6.9 11.2 -15.6 45.8 1 95.1c-5.1 11.6 -8.2 24.5 -9.2 38.3c-2.3 32.8 9.9 62 34.5 78.7c16.2 11 38.8 17.1 75.4 17.1c37.2 0 58.6 -8 74.8 -18.9c26.7 -18.1 37 -47 34.6 -79.3z"></path><g><path fill="none" stroke="#01507b" stroke-width="11.8896" stroke-linecap="round" stroke-miterlimit="62.5" d="m65.4 227.7c0.7 1.3 9.2 1.1 30.1 16.1"></path><path fill="none" stroke="#01507b" stroke-width="11.8896" stroke-linecap="round" stroke-miterlimit="62.5" d="m57.4 265.2c0 0 13.5 -7.1 36.6 -0.9"></path><path fill="none" stroke="#01507b" stroke-width="11.8896" stroke-linecap="round" stroke-miterlimit="62.5" d="m69.8 295c0 0 5.7 -4.4 26.6 -7.1"></path><g><path fill="none" stroke="#01507b" stroke-width="11.8896" stroke-linecap="round" stroke-miterlimit="62.5" d="m304.9 216.6c0 0 -7.2 1 -29.2 20.1"></path><path fill="none" stroke="#01507b" stroke-width="11.8896" stroke-linecap="round" stroke-miterlimit="62.5" d="m308.1 251.4c0 0 -10.7 -1.1 -33.7 6.2"></path><path fill="none" stroke="#01507b" stroke-width="11.8896" stroke-linecap="round" stroke-miterlimit="62.5" d="m304 284.8c0 0 -10.1 -5.4 -31 -7.1"></path></g></g><g><path fill="#01507b" d="m171.8 238.8c-0.1 -6.7 9.5 -9.9 18.5 -10c9.1 -0.2 18.8 2.8 18.9 9.5c0.1 6.7 -11.3 15.5 -18.5 15.5c-7.1 -0.1 -18.8 -8.4 -18.9 -15l0 0z"></path><g><path fill="#01507b" d="m259.4 214.1c-0.7 11.9 -8.1 18.5 -16.6 18.5c-8.5 0 -15.3 -8.4 -15.3 -18.8c0 -10.4 7.1 -18.9 16.6 -18.4c11 0.7 15.9 9 15.3 18.7l0 0z"></path><path fill="#01507b" d="m150.9 212.9c1.7 12.2 -3.4 19.6 -11.9 21.3c-8.5 1.7 -15.7 -4 -17.8 -14.4c-2.1 -10.4 2 -20.2 11.6 -21.6c11.1 -1.6 16.7 4.8 18.1 14.7l0 0z"></path></g><path fill="#01507b" d="m148.7 254.8c-5.6 3.6 1 12 4.9 14.8c3.9 2.8 10.8 6.3 21 5.3c12 -1.2 15.5 -10.2 15.5 -10.2c0 0 4.3 10 19.1 10.4c15.1 0.4 19.7 -7.7 21.8 -10.2c2 -2.4 4.1 -8.8 0.6 -11.2c-3.5 -2.4 -5.9 0.6 -9.6 5.7c-3.7 5.1 -11.2 7.9 -18.5 4.5c-7.3 -3.5 -7.7 -15.3 -7.7 -15.3l-10.4 0.6c0 0 -1.6 10.2 -6.3 13.4c-4.7 3.2 -15.9 4.1 -20.5 -3.1c-2.3 -2.9 -5.2 -7.7 -9.9 -4.7l0 0z"></path></g><path fill="#ffa0a0" d="m262.6 153.1c5.3 5.3 9.6 8.8 12.7 12.2c2.1 2.2 5.8 1.2 6.4 -1.8c5.3 -25.6 3.6 -47.4 0 -53.1c-1.7 -2.7 -5 -3.4 -7.9 -2.4c-5.3 1.8 -18.8 11.8 -28.3 26.5c-1.1 1.7 -0.7 4 1 5.2c3.4 2.2 9.4 6.7 16.1 13.4l0 0z"></path><path fill="#ffa1a1" d="m129.4 144.4c3.3 -2.8 5 -5.5 1.3 -11.2c-5.7 -8.8 -15.9 -19 -19.9 -22.2c-6.5 -5.2 -11.5 -6.9 -13.5 1.4c-3.6 15.3 -3.3 36.2 0.5 47.7c1.3 4.1 5.5 6.2 8.7 3.4l22.9 -19.1z"></path></g><g><path fill="#01507b" d="m1814.5 13.5l-329.7 0c-13.4 0 -24.2 10.9 -24.2 24.2l0 428.6c0 13.4 10.9 24.2 24.2 24.2l329.7 0c13.4 0 24.2 -10.9 24.2 -24.2l0 -428.6c0.1001 -13.3 -10.7999 -24.2 -24.2 -24.2z"></path><path fill="#fefadf" d="m1823.3 466.3c0 4.8 -3.9 8.8 -8.8 8.8l-329.7 0c-4.8 0 -8.8 -3.9 -8.8 -8.8l0 -428.6c0 -4.8 3.9 -8.8 8.8 -8.8l329.7 0c4.8 0 8.8 3.9 8.8 8.8l0 428.6z"></path><path fill="#01507b" d="m1509.6 353.7c-6 0 -11 -4.9 -11 -11l0 -280.2c0 -6 4.9 -11 11 -11l280.2001 0c6 0 11 4.9 11 11l0 280.2c0 6 -4.9 11 -11 11l-280.2001 0z"></path><g><path fill="#01507b" d="m1790.3 374.5l-280.2 0c-8.8 0 -16 7.2 -16 16l0 49.5c0 8.8 7.2 16 16 16l280.2 0c8.8 0 16 -7.2 16 -16l0 -49.5c0 -8.9 -7.2001 -16 -16 -16z"></path><path fill="#fff" d="m1509.6 447.1c-3 0 -5.5 -2.5 -5.5 -5.5l0 -49.5c0 -3 2.5 -5.5 5.5 -5.5l280.2001 0c3 0 5.5 2.5 5.5 5.5l0 49.5c0 3 -2.5 5.5 -5.5 5.5l-280.2001 0z"></path><path fill="#01507b" d="m1583.8 409.1l-49.5 0c-4.3 0 -7.7 3.5 -7.7 7.7c0 4.2 3.5 7.7 7.7 7.7l49.5 0c4.3 0 7.7 -3.5 7.7 -7.7c0 -4.2 -3.5 -7.7 -7.7 -7.7z"></path><path fill="#01507b" d="m1765.1 409.1l-148.4 0c-4.3 0 -7.7 3.5 -7.7 7.7c0 4.2 3.5 7.7 7.7 7.7l148.4 0c4.3 0 7.7 -3.5 7.7 -7.7c0 -4.2 -3.3999 -7.7 -7.7 -7.7z"></path></g><path fill="#e1f3fd" d="m1775 343.9l-252.5 0c-7.9 0 -14.4 -6.4 -14.4 -14.4l0 -252.5c0 -7.9 6.4 -14.4 14.4 -14.4l252.5 0c7.9 0 14.4 6.4 14.4 14.4l0 252.5c-0.1 8 -6.5 14.4 -14.4 14.4z"></path><g style="animation-name: eaf-17a08-5, eaf-17a08-6, eaf-17a08-7; animation-composition: replace, add, add;"><path fill="#f4b526" stroke="#01507b" stroke-width="10" stroke-miterlimit="62.5" d="m1760.2 222.4c-1 -13.8 -4.2 -26.6 -9.4 -38c12.9 -49.1 7 -84.1 0 -95.6c-2.9 -4.7 -8.7 -5 -13.7 -3.4c-9.9 3.1 -33.4 20.4 -50.8 46.2c-10.9 -2.8 -22.8 -4.3 -35.8 -4.3c-14 0 -26.8 1.9 -38.3 5.3c-17.1 -24.9 -38.8 -41 -48.7 -44.1c-5.1 -1.6 -11.5 -1.8 -14.4 2.9c-6.9 11.2 -15.6 45.8 1 95.1c-5.1 11.6 -8.2 24.5 -9.2 38.3c-2.3 32.8 9.9 62 34.5 78.7c16.2 11 38.8 17.1 75.4 17.1c37.2 0 58.6 -8 74.8 -18.9c26.8 -18.1 37.1 -47 34.6 -79.3z"></path><g><path fill="none" stroke="#01507b" stroke-width="11.8896" stroke-linecap="round" stroke-miterlimit="62.5" d="m1525.9 227.7c0.7 1.3 9.2 1.1 30.1 16.1"></path><path fill="none" stroke="#01507b" stroke-width="11.8896" stroke-linecap="round" stroke-miterlimit="62.5" d="m1518 265.2c0 0 13.5 -7.1 36.6 -0.9"></path><path fill="none" stroke="#01507b" stroke-width="11.8896" stroke-linecap="round" stroke-miterlimit="62.5" d="m1530.4 295c0 0 5.7 -4.4 26.6 -7.1"></path><g><path fill="none" stroke="#01507b" stroke-width="11.8896" stroke-linecap="round" stroke-miterlimit="62.5" d="m1765.4 216.6c0 0 -7.2 1 -29.2 20.1"></path><path fill="none" stroke="#01507b" stroke-width="11.8896" stroke-linecap="round" stroke-miterlimit="62.5" d="m1768.6 251.4c0 0 -10.7 -1.1 -33.7 6.2"></path><path fill="none" stroke="#01507b" stroke-width="11.8896" stroke-linecap="round" stroke-miterlimit="62.5" d="m1764.5 284.8c0 0 -10.1 -5.4 -31 -7.1"></path></g></g><g><path fill="#01507b" d="m1632.3 238.8c-0.1 -6.7 9.5 -9.9 18.5 -10c9.1 -0.2 18.8 2.8 18.9 9.5c0.1 6.7 -11.3 15.5 -18.5 15.5c-7.1001 -0.1 -18.7001 -8.4 -18.9 -15l0 0z"></path><path fill="#01507b" d="m1719.9 214.1c-0.7 11.9 -8.1 18.5 -16.6 18.5c-8.5 0 -15.3 -8.4 -15.3 -18.8c0 -10.4 7.1 -18.9 16.6 -18.4c11.1 0.7 15.9 9 15.3 18.7l0 0z"></path><path fill="#01507b" d="m1611.4 212.9c1.7 12.2 -3.4 19.6 -11.9 21.3c-8.5 1.7 -15.7 -4 -17.8 -14.4c-2.1 -10.4 2 -20.2 11.6 -21.6c11.1001 -1.6 16.7001 4.8 18.1001 14.7l0 0z" style="animation-name: eaf-17a08-2, eaf-17a08-3, eaf-17a08-4; animation-composition: replace, add, add;"></path><path fill="#01507b" d="m1609.2 254.8c-5.6 3.6 1 12 4.9 14.8c3.9 2.8 10.8 6.3 21 5.3c12 -1.2 15.5 -10.2 15.5 -10.2c0 0 4.3 10 19.1 10.4c15.1 0.4 19.7 -7.7 21.8 -10.2c2 -2.4 4.1 -8.8 0.6 -11.2c-3.5 -2.4 -5.9 0.6 -9.6 5.7c-3.7 5.1 -11.2 7.9 -18.5 4.5c-7.3 -3.5 -7.7 -15.3 -7.7 -15.3l-10.4 0.6c0 0 -1.6 10.2 -6.3 13.4c-4.7 3.3 -15.9 4.1 -20.5 -3.1c-2.2 -2.9 -5.2 -7.7 -9.9 -4.7l0 0z"></path></g><path fill="#fff" d="m1723.1 153.1c5.3 5.3 9.6 8.8 12.7 12.2c2.1 2.2 5.8 1.2 6.4 -1.8c5.3 -25.6 3.6 -47.4 0 -53.1c-1.7 -2.7 -5 -3.4 -7.9 -2.4c-5.3 1.8 -18.8 11.8 -28.3 26.5c-1.1 1.7 -0.7 4 1 5.2c3.4001 2.2 9.4001 6.7 16.1001 13.4l0 0z"></path><path fill="#fff" d="m1590 144.4c3.3 -2.8 5 -5.5 1.3 -11.2c-5.7 -8.8 -15.9 -19 -19.9 -22.2c-6.5 -5.2 -11.5 -6.9 -13.5 1.4c-3.6 15.3 -3.3 36.2 0.5 47.7c1.3 4.1 5.5 6.2 8.7 3.4l22.9 -19.1z"></path></g></g></g><g transform="matrix(0.2404 0 0 0.2404 30.9089 329.5983)"><g><path fill="#01507b" d="m841.5 13.5l-329.7 0c-13.4 0 -24.2 10.9 -24.2 24.2l0 428.6c0 13.4 10.9 24.2 24.2 24.2l329.7 0c13.4 0 24.2 -10.9 24.2 -24.2l0 -428.6c0 -13.3 -10.8 -24.2 -24.2 -24.2z"></path><path fill="#fefadf" d="m850.3 466.3c0 4.8 -3.9 8.8 -8.8 8.8l-329.7 0c-4.8 0 -8.8 -3.9 -8.8 -8.8l0 -428.6c0 -4.8 3.9 -8.8 8.8 -8.8l329.7 0c4.8 0 8.8 3.9 8.8 8.8l0 428.6z"></path><path fill="#01507b" d="m536.6 353.7c-6 0 -11 -4.9 -11 -11l0 -280.2c0 -6 4.9 -11 11 -11l280.2 0c6 0 11 4.9 11 11l0 280.2c0 6 -4.9 11 -11 11l-280.2 0z"></path><g><path fill="#474747" d="m810.1 261.3c-16.5 0 -28.6 -17.4 -28.6 -26.4c0 -0.2 0 -0.4 -0.1 -0.6l-0.4 -2.6l2.3 -1.4c18.2 -11.3 29.1 -30.8 29.1 -52.2c0 -19.8 -10.6 -37.3 -26.9 -44.8c-0.5 -0.2 -1 -0.3 -1.5 -0.3c-0.7 0 -1.3 0.2 -1.9 0.5l-2.1 1.3c-18.9 11.3 -44.9 26.7 -87.1 31.2c-1.9 0.2 -3.3 1.8 -3.3 3.7l0 8.4c0 21.3 10.9 40.9 29.1 52.2l2.3 1.4l-0.5 2.6c0 0.3 -0.1 0.5 -0.1 0.6c0 7.9 -8.7 26.4 -25.5 26.4c-13.6 0 -23.9 -2.3 -30.2 -4.2l-4.8 -1.5l2.5 -4.4c0.2 -0.4 0.4 -0.7 0.6 -1.1c5.7 -10.4 9.3 -33.6 9.3 -59.2l0 -4.4l0 -0.3l0 -15.2c0.1 -39.6 35.4 -71.8 78.6 -71.8c29.6 0 56.4 15 69.9 39.1l0.5 0.9l0 121.6l-3.8 0.2c-2.4999 0.2 -4.9999 0.3 -7.4 0.3z"></path><path fill="#01507b" d="m549.9 151.5c-0.9 -5.4 -1.3 -10.5 -1.3 -15.1c0 -14.2 10.9 -28.8 29.2 -28.8l8.2 0c2 0 3.7 -1.6 3.7 -3.7l0 -2.9l2.7 -0.9c3.8 -1.2 8.1 -1.8 13.3 -1.8c10.9 0 23.2 2.6 35.1 5c8.6 1.8 16.6 3.5 23.5 4l2.3 0.2l1 2c1.3 2.6 5.5 12.2 5 26.9c0 0.1 0 0.2 0 0.3l0.1 1l-0.5 0.9c-2.8 5.7 -4.8 11.8 -6.1 18l-1.1 5.5l-4.8 -2.8c-11.6 -6.7 -31.5 -14.7 -60.1 -14.7c-12.6 0 -26 1.6 -39.7 4.7c-1.2 0.3 -2.2 1.1 -2.6 2.3l-0.1 0.2l-0.4 0.8l-5.6 10.4l-1.8001 -11.5z"></path></g><g><path fill="#dbdbdb" d="m750.9 232c-29.8 0 -54 -24.2 -54 -54l0 -5l3.4 -0.5c39.8 -5.6 66 -21.1 81.7 -30.4l2.1 -1.2l2.1 1.3c11.5 7.1 18.7 20.9 18.7 35.9c0 29.7 -24.3 53.9 -54 53.9z"></path><path fill="#dbdbdb" d="m750.9 314.4c-25.2 0 -46.8 -17.1 -52.5 -41.6l-0.9 -3.9l3.9 -0.9c14.1 -3.3 23.7 -16.7 25.9 -28.4l0.8 -4.4l4.3 1.4c6 1.9 12.2 2.9 18.5 2.9c6.3 0 12.6 -1 18.6 -2.9l4.1 -1.3l1 4.2c1.3 5.7 4.8 12 9.7 17.1c4.8 5.2 10.6 8.9 16.6 10.7l3.5 1.1l-0.8 3.6c-5.5 24.6 -27.6 42.4 -52.7 42.4z"></path><path fill="#dbdbdb" d="m610.8 240.3c-29.8 0 -54 -24.2 -54 -54l0 -4.1c0 -9.9 3.9 -19.3 6.2 -24l0.9 -1.8l1.9 -0.4c11.7 -2.4 23.2 -3.7 34.2 -3.7c14.4 0 27.8 2.1 39.9 6.2c11.9 4 19.8 9.1 23.4 11.8l1.6 1.2l0 15.2c-0.3001 29.5 -24.6001 53.6 -54.1001 53.6z"></path><path fill="#dbdbdb" d="m610.7 289.7c-8 0 -19 -11.4 -31.4 -25.2c-1.8 -2 -3.5 -3.9 -5.3 -5.8l-2.6 -2.8l2.8 -2.7c1.7 -1.7 4.1 -4.6 5.7 -8.7l1.5 -4l3.9 1.8c8 3.7 16.6 5.6 25.5 5.6c8.8 0 17.4 -1.9 25.4 -5.5l3.9 -1.8l1.5 4c1.6 4.1 4 7 5.7 8.7l2.8 2.7l-2.6 2.8c-1.7 1.8 -3.5 3.8 -5.3 5.8c-12.5001 13.6 -23.4001 25.1 -31.5001 25.1z"></path></g><g><path fill="#fff" d="m653.7 243c-0.9 -1.4 -1.8 -3.2 -2.1 -5.5c1.8 -1.5 3.6 -3 5.3 -4.7c-1 4.2 -2.1 7.7 -3.2 10.2z"></path><path fill="#a39999" d="m536.6 61.9l280.2 0c0.3 0 0.5 0.2 0.5 0.5l0 52.4c-16.8 -17 -40.6 -27 -66.4 -27c-27.4 0 -52 11.4 -68.5 29.4c-1.9 -8.2 -4.9 -14.6 -8 -18.3c-1.5 -1.8 -3.6 -2.8 -5.9 -2.8c-6.4 0 -15.5 -1.9 -25.2 -3.9c-22.5 -4.7 -50.2 -10.4 -66.7 3.9c-9.8 0.3 -19.5 4.2 -26.8 10.9c-8.2 7.6 -12.7 18 -12.7 29.3c0 18.9 6.3 37.8 8.2 43.1l0 6.9c0 20.7 9.6 39.1 24.6 51.1c-0.5 4.1 -2.9 6.8 -4.1 7.8c-2.2 -1.6 -5 -2 -7.5 -0.9l-19.3 7.9c-1 0.3 -2 0.7 -3 1.2l0 -190.9c0.1 -0.3 0.3 -0.6 0.6 -0.6z"></path></g><g><path fill="#adadad" d="m536.6 346.2c-1.9 0 -3.5 -1.6 -3.5 -3.5l0 -73.2l1.2 -0.9c2.9 -2.1 5.9 -3.6 8.9 -4.6c0.1 0 0.2 -0.1 0.3 -0.1l16.9 -7l1.4 1.3c3.3 3.2 7.1 7.4 11.1 11.8c12.5 13.8 25.3 28.1 37.7 28.1c12.4 0 25.3 -14.2 37.7 -28l0.2 -0.2c1.8 -2 3.5 -3.8 5.1 -5.6l1.4 -1.5l1.9 0.7c0.8 0.3 1.7 0.6 2.6 0.9l4.5 1.5l-3.3 3.4c-8.6 8.9 -13.5 20.5 -13.5 32l0 44.8l-110.6001 0l0 0.1001z"></path><path fill="#fff" d="m656.7 346.2l0 -44.8c0 -15.1 10.5 -26.8 19.6 -32.3l0.9 -0.5l1 0.1c2.8 0.4 5.6 0.6 8.6 0.8l2.3 0.1l0.4 2.3c5.5 29.5 31.3 50.9 61.3 50.9c15.7 0 30.8 -5.9 42.3 -16.5c9.9 -9.2 16.5 -21 19 -34.2l0.4 -2.4l2.4 -0.1c0.7 0 1.4 -0.1 2.1 -0.1l3.2 -0.2l0 73.3c0 1.9 -1.6 3.5 -3.5 3.5l-160 0l0 0.1z"></path></g><g><path fill="#01507b" d="m817.3 374.5l-280.2 0c-8.8 0 -16 7.2 -16 16l0 49.5c0 8.8 7.2 16 16 16l280.2 0c8.8 0 16 -7.2 16 -16l0 -49.5c0 -8.9 -7.2 -16 -16 -16z"></path><path fill="#fff" d="m536.6 447.1c-3 0 -5.5 -2.5 -5.5 -5.5l0 -49.5c0 -3 2.5 -5.5 5.5 -5.5l280.2 0c3 0 5.5 2.5 5.5 5.5l0 49.5c0 3 -2.5 5.5 -5.5 5.5l-280.2 0z"></path><path fill="#01507b" d="m610.7 409.1l-49.5 0c-4.3 0 -7.7 3.5 -7.7 7.7c0 4.2 3.5 7.7 7.7 7.7l49.5 0c4.3 0 7.7 -3.5 7.7 -7.7c0 -4.2 -3.4 -7.7 -7.7 -7.7z"></path><path fill="#01507b" d="m792.1 409.1l-148.4 0c-4.3 0 -7.7 3.5 -7.7 7.7c0 4.2 3.5 7.7 7.7 7.7l148.4 0c4.3 0 7.7 -3.5 7.7 -7.7c0 -4.2 -3.5 -7.7 -7.7 -7.7z"></path></g></g><g><path fill="#01507b" d="m1328 13.5l-329.7 0c-13.4 0 -24.2 10.9 -24.2 24.2l0 428.6c0 13.4 10.9 24.2 24.2 24.2l329.7 0c13.4 0 24.2 -10.9 24.2 -24.2l0 -428.6c0 -13.3 -10.7999 -24.2 -24.2 -24.2z"></path><path fill="#fefadf" d="m1336.8 466.3c0 4.8 -3.9 8.8 -8.8 8.8l-329.7 0c-4.8 0 -8.8 -3.9 -8.8 -8.8l0 -428.6c0 -4.8 3.9 -8.8 8.8 -8.8l329.7 0c4.8 0 8.8 3.9 8.8 8.8l0 428.6z"></path><path fill="#01507b" d="m1023.1 353.7c-6 0 -11 -4.9 -11 -11l0 -280.2c0 -6 4.9 -11 11 -11l280.2001 0c6 0 11 4.9 11 11l0 280.2c0 6 -4.9 11 -11 11l-280.2001 0z"></path><g><path fill="#01507b" d="m1303.8 374.5l-280.2 0c-8.8 0 -16 7.2 -16 16l0 49.5c0 8.8 7.2 16 16 16l280.2 0c8.8 0 16 -7.2 16 -16l0 -49.5c0 -8.9 -7.2001 -16 -16 -16z"></path><path fill="#fff" d="m1023.1 447.1c-3 0 -5.5 -2.5 -5.5 -5.5l0 -49.5c0 -3 2.5 -5.5 5.5 -5.5l280.2001 0c3 0 5.5 2.5 5.5 5.5l0 49.5c0 3 -2.5 5.5 -5.5 5.5l-280.2001 0z"></path><path fill="#01507b" d="m1097.3 409.1l-49.5 0c-4.3 0 -7.7 3.5 -7.7 7.7c0 4.2 3.5 7.7 7.7 7.7l49.5 0c4.3 0 7.7 -3.5 7.7 -7.7c0 -4.2 -3.5 -7.7 -7.7 -7.7z"></path><path fill="#01507b" d="m1278.6 409.1l-148.4 0c-4.3 0 -7.7 3.5 -7.7 7.7c0 4.2 3.5 7.7 7.7 7.7l148.4 0c4.3 0 7.7 -3.5 7.7 -7.7c0 -4.2 -3.4999 -7.7 -7.7 -7.7z"></path></g><path fill="#585e61" d="m1288.5 343.9l-252.5 0c-7.9 0 -14.4 -6.4 -14.4 -14.4l0 -252.5c0 -7.9 6.4 -14.4 14.4 -14.4l252.5 0c7.9 0 14.4 6.4 14.4 14.4l0 252.5c-0.1 8 -6.5 14.4 -14.4 14.4z"></path><path fill="#bfbfbf" stroke="#01507b" stroke-width="8.0567" stroke-miterlimit="10" d="m1020.6 202.6l0 127l3.9 9.8l10.5 4.6l252.5 0l8.8 -3l5.5 -6.6l0 -84.7c0 0 -10 -35 -40.7 -21.5c-30.7 13.5 -17.1 30.9 -64.9 21.2c-47.8 -9.8 -58.5 -46.8 -86.3 -41.1c-27.8 5.7 -30.7 -58.6 -51.3 -45c-20.6 13.4 -43.4 27.3 -38 39.3z"></path><ellipse fill="#fff" rx="51.3" ry="51.3" transform="matrix(0.7362 0 0 0.7362 1070.3 109.5)"></ellipse><path fill="#86a889" d="m0 0q0 -5 70.9 -58.15q64.2998 6.65 67.8998 6.65q3.6 0 35.5 -20.6l11.7 0l1.7001 72.1q-187.6998 5 -187.6998 0z" transform="translate(1109.9 339.4)" opacity="0.84"></path><path fill="#86a889" d="m0 0" transform="translate(2666.1594 517.9183)" opacity="0.84"></path><path fill="#86a889" d="m0 0" transform="translate(1211.9629 -56.5953)" opacity="0.84"></path><path fill="#65a06a" d="m0 0q32.4035 -7.6999 48.05 18.6001q15.6466 26.3 37.35 34.8l53.8 10.9q27.3807 25.5442 24.7051 26.6q-2.6757 1.0558 -152.4051 -1.6l-11.5 -5l0 -84.3z" transform="translate(1024.5 250.1)"></path></g><g><path fill="#01507b" d="m354 13.5l-329.7 0c-13.3 0 -24.2 10.9 -24.2 24.2l0 428.6c0 13.4 10.9 24.2 24.2 24.2l329.7 0c13.4 0 24.2 -10.9 24.2 -24.2l0 -428.6c0 -13.3 -10.8 -24.2 -24.2 -24.2z"></path><path fill="#fefadf" d="m362.8 466.3c0 4.8 -3.9 8.8 -8.8 8.8l-329.7 0c-4.8 0 -8.8 -3.9 -8.8 -8.8l0 -428.6c0 -4.8 3.9 -8.8 8.8 -8.8l329.7 0c4.8 0 8.8 3.9 8.8 8.8l0 428.6z"></path><path fill="#01507b" d="m49.1 353.7c-6 0 -11 -4.9 -11 -11l0 -280.2c0 -6 4.9 -11 11 -11l280.2 0c6 0 11 4.9 11 11l0 280.2c0 6 -4.9 11 -11 11l-280.2 0z"></path><g><path fill="#01507b" d="m329.8 374.5l-280.2 0c-8.8 0 -16 7.2 -16 16l0 49.5c0 8.8 7.2 16 16 16l280.2 0c8.8 0 16 -7.2 16 -16l0 -49.5c0 -8.9 -7.2 -16 -16 -16z"></path><path fill="#fff" d="m49.1 447.1c-3 0 -5.5 -2.5 -5.5 -5.5l0 -49.5c0 -3 2.5 -5.5 5.5 -5.5l280.2 0c3 0 5.5 2.5 5.5 5.5l0 49.5c0 3 -2.5 5.5 -5.5 5.5l-280.2 0z"></path><path fill="#01507b" d="m123.2 409.1l-49.4 0c-4.3 0 -7.7 3.5 -7.7 7.7c0 4.2 3.5 7.7 7.7 7.7l49.5 0c4.3 0 7.7 -3.5 7.7 -7.7c0 -4.2 -3.5 -7.7 -7.8 -7.7z"></path><path fill="#01507b" d="m304.6 409.1l-148.4 0c-4.3 0 -7.7 3.5 -7.7 7.7c0 4.2 3.5 7.7 7.7 7.7l148.4 0c4.3 0 7.7 -3.5 7.7 -7.7c0 -4.2 -3.5 -7.7 -7.7 -7.7z"></path></g><path fill="#e1f3fd" d="m314.4 343.9l-252.5 0c-7.9 0 -14.4 -6.4 -14.4 -14.4l0 -252.5c0 -7.9 6.4 -14.4 14.4 -14.4l252.5 0c7.9 0 14.4 6.4 14.4 14.4l0 252.5c0 8 -6.4 14.4 -14.4 14.4z"></path><path fill="#fff" stroke="#01507b" stroke-width="10" stroke-miterlimit="62.5" d="m299.7 222.4c-1 -13.8 -4.2 -26.6 -9.4 -38c12.9 -49.1 7 -84.1 0 -95.6c-2.9 -4.7 -8.7 -5 -13.7 -3.4c-9.9 3.1 -33.4 20.4 -50.8 46.2c-10.9 -2.8 -22.8 -4.3 -35.8 -4.3c-14 0 -26.8 1.9 -38.3 5.3c-17.1 -24.9 -38.8 -41 -48.7 -44.1c-5.1 -1.6 -11.5 -1.8 -14.4 2.9c-6.9 11.2 -15.6 45.8 1 95.1c-5.1 11.6 -8.2 24.5 -9.2 38.3c-2.3 32.8 9.9 62 34.5 78.7c16.2 11 38.8 17.1 75.4 17.1c37.2 0 58.6 -8 74.8 -18.9c26.7 -18.1 37 -47 34.6 -79.3z"></path><g><path fill="none" stroke="#01507b" stroke-width="11.8896" stroke-linecap="round" stroke-miterlimit="62.5" d="m65.4 227.7c0.7 1.3 9.2 1.1 30.1 16.1"></path><path fill="none" stroke="#01507b" stroke-width="11.8896" stroke-linecap="round" stroke-miterlimit="62.5" d="m57.4 265.2c0 0 13.5 -7.1 36.6 -0.9"></path><path fill="none" stroke="#01507b" stroke-width="11.8896" stroke-linecap="round" stroke-miterlimit="62.5" d="m69.8 295c0 0 5.7 -4.4 26.6 -7.1"></path><g><path fill="none" stroke="#01507b" stroke-width="11.8896" stroke-linecap="round" stroke-miterlimit="62.5" d="m304.9 216.6c0 0 -7.2 1 -29.2 20.1"></path><path fill="none" stroke="#01507b" stroke-width="11.8896" stroke-linecap="round" stroke-miterlimit="62.5" d="m308.1 251.4c0 0 -10.7 -1.1 -33.7 6.2"></path><path fill="none" stroke="#01507b" stroke-width="11.8896" stroke-linecap="round" stroke-miterlimit="62.5" d="m304 284.8c0 0 -10.1 -5.4 -31 -7.1"></path></g></g><g><path fill="#01507b" d="m171.8 238.8c-0.1 -6.7 9.5 -9.9 18.5 -10c9.1 -0.2 18.8 2.8 18.9 9.5c0.1 6.7 -11.3 15.5 -18.5 15.5c-7.1 -0.1 -18.8 -8.4 -18.9 -15l0 0z"></path><g><path fill="#01507b" d="m259.4 214.1c-0.7 11.9 -8.1 18.5 -16.6 18.5c-8.5 0 -15.3 -8.4 -15.3 -18.8c0 -10.4 7.1 -18.9 16.6 -18.4c11 0.7 15.9 9 15.3 18.7l0 0z"></path><path fill="#01507b" d="m150.9 212.9c1.7 12.2 -3.4 19.6 -11.9 21.3c-8.5 1.7 -15.7 -4 -17.8 -14.4c-2.1 -10.4 2 -20.2 11.6 -21.6c11.1 -1.6 16.7 4.8 18.1 14.7l0 0z"></path></g><path fill="#01507b" d="m148.7 254.8c-5.6 3.6 1 12 4.9 14.8c3.9 2.8 10.8 6.3 21 5.3c12 -1.2 15.5 -10.2 15.5 -10.2c0 0 4.3 10 19.1 10.4c15.1 0.4 19.7 -7.7 21.8 -10.2c2 -2.4 4.1 -8.8 0.6 -11.2c-3.5 -2.4 -5.9 0.6 -9.6 5.7c-3.7 5.1 -11.2 7.9 -18.5 4.5c-7.3 -3.5 -7.7 -15.3 -7.7 -15.3l-10.4 0.6c0 0 -1.6 10.2 -6.3 13.4c-4.7 3.2 -15.9 4.1 -20.5 -3.1c-2.3 -2.9 -5.2 -7.7 -9.9 -4.7l0 0z"></path></g><path fill="#ffa0a0" d="m262.6 153.1c5.3 5.3 9.6 8.8 12.7 12.2c2.1 2.2 5.8 1.2 6.4 -1.8c5.3 -25.6 3.6 -47.4 0 -53.1c-1.7 -2.7 -5 -3.4 -7.9 -2.4c-5.3 1.8 -18.8 11.8 -28.3 26.5c-1.1 1.7 -0.7 4 1 5.2c3.4 2.2 9.4 6.7 16.1 13.4l0 0z"></path><path fill="#ffa0a0" d="m129.4 144.4c3.3 -2.8 5 -5.5 1.3 -11.2c-5.7 -8.8 -15.9 -19 -19.9 -22.2c-6.5 -5.2 -11.5 -6.9 -13.5 1.4c-3.6 15.3 -3.3 36.2 0.5 47.7c1.3 4.1 5.5 6.2 8.7 3.4l22.9 -19.1z"></path></g><g><path fill="#01507b" d="m1814.5 13.5l-329.7 0c-13.4 0 -24.2 10.9 -24.2 24.2l0 428.6c0 13.4 10.9 24.2 24.2 24.2l329.7 0c13.4 0 24.2 -10.9 24.2 -24.2l0 -428.6c0.1001 -13.3 -10.7999 -24.2 -24.2 -24.2z"></path><path fill="#fefadf" d="m1823.3 466.3c0 4.8 -3.9 8.8 -8.8 8.8l-329.7 0c-4.8 0 -8.8 -3.9 -8.8 -8.8l0 -428.6c0 -4.8 3.9 -8.8 8.8 -8.8l329.7 0c4.8 0 8.8 3.9 8.8 8.8l0 428.6z"></path><path fill="#01507b" d="m1509.6 353.7c-6 0 -11 -4.9 -11 -11l0 -280.2c0 -6 4.9 -11 11 -11l280.2001 0c6 0 11 4.9 11 11l0 280.2c0 6 -4.9 11 -11 11l-280.2001 0z"></path><g><path fill="#01507b" d="m1790.3 374.5l-280.2 0c-8.8 0 -16 7.2 -16 16l0 49.5c0 8.8 7.2 16 16 16l280.2 0c8.8 0 16 -7.2 16 -16l0 -49.5c0 -8.9 -7.2001 -16 -16 -16z"></path><path fill="#fff" d="m1509.6 447.1c-3 0 -5.5 -2.5 -5.5 -5.5l0 -49.5c0 -3 2.5 -5.5 5.5 -5.5l280.2001 0c3 0 5.5 2.5 5.5 5.5l0 49.5c0 3 -2.5 5.5 -5.5 5.5l-280.2001 0z"></path><path fill="#01507b" d="m1583.8 409.1l-49.5 0c-4.3 0 -7.7 3.5 -7.7 7.7c0 4.2 3.5 7.7 7.7 7.7l49.5 0c4.3 0 7.7 -3.5 7.7 -7.7c0 -4.2 -3.5 -7.7 -7.7 -7.7z"></path><path fill="#01507b" d="m1765.1 409.1l-148.4 0c-4.3 0 -7.7 3.5 -7.7 7.7c0 4.2 3.5 7.7 7.7 7.7l148.4 0c4.3 0 7.7 -3.5 7.7 -7.7c0 -4.2 -3.3999 -7.7 -7.7 -7.7z"></path></g><path fill="#e1f3fd" d="m1775 343.9l-252.5 0c-7.9 0 -14.4 -6.4 -14.4 -14.4l0 -252.5c0 -7.9 6.4 -14.4 14.4 -14.4l252.5 0c7.9 0 14.4 6.4 14.4 14.4l0 252.5c-0.1 8 -6.5 14.4 -14.4 14.4z"></path><g><path fill="#b57f00" stroke="#01507b" stroke-width="10" stroke-miterlimit="62.5" d="m1760.2 222.4c-1 -13.8 -4.2 -26.6 -9.4 -38c12.9 -49.1 7 -84.1 0 -95.6c-2.9 -4.7 -8.7 -5 -13.7 -3.4c-9.9 3.1 -33.4 20.4 -50.8 46.2c-10.9 -2.8 -22.8 -4.3 -35.8 -4.3c-14 0 -26.8 1.9 -38.3 5.3c-17.1 -24.9 -38.8 -41 -48.7 -44.1c-5.1 -1.6 -11.5 -1.8 -14.4 2.9c-6.9 11.2 -15.6 45.8 1 95.1c-5.1 11.6 -8.2 24.5 -9.2 38.3c-2.3 32.8 9.9 62 34.5 78.7c16.2 11 38.8 17.1 75.4 17.1c37.2 0 58.6 -8 74.8 -18.9c26.8 -18.1 37.1 -47 34.6 -79.3z"></path><g><path fill="none" stroke="#01507b" stroke-width="11.8896" stroke-linecap="round" stroke-miterlimit="62.5" d="m1525.9 227.7c0.7 1.3 9.2 1.1 30.1 16.1"></path><path fill="none" stroke="#01507b" stroke-width="11.8896" stroke-linecap="round" stroke-miterlimit="62.5" d="m1518 265.2c0 0 13.5 -7.1 36.6 -0.9"></path><path fill="none" stroke="#01507b" stroke-width="11.8896" stroke-linecap="round" stroke-miterlimit="62.5" d="m1530.4 295c0 0 5.7 -4.4 26.6 -7.1"></path><g><path fill="none" stroke="#01507b" stroke-width="11.8896" stroke-linecap="round" stroke-miterlimit="62.5" d="m1765.4 216.6c0 0 -7.2 1 -29.2 20.1"></path><path fill="none" stroke="#01507b" stroke-width="11.8896" stroke-linecap="round" stroke-miterlimit="62.5" d="m1768.6 251.4c0 0 -10.7 -1.1 -33.7 6.2"></path><path fill="none" stroke="#01507b" stroke-width="11.8896" stroke-linecap="round" stroke-miterlimit="62.5" d="m1764.5 284.8c0 0 -10.1 -5.4 -31 -7.1"></path></g></g><g><path fill="#fff" d="m1632.3 238.8c-0.1 -6.7 9.5 -9.9 18.5 -10c9.1 -0.2 18.8 2.8 18.9 9.5c0.1 6.7 -11.3 15.5 -18.5 15.5c-7.1001 -0.1 -18.7001 -8.4 -18.9 -15l0 0z"></path><path fill="#fff" d="m1719.9 214.1c-0.7 11.9 -8.1 18.5 -16.6 18.5c-8.5 0 -15.3 -8.4 -15.3 -18.8c0 -10.4 7.1 -18.9 16.6 -18.4c11.1 0.7 15.9 9 15.3 18.7l0 0z"></path><path fill="#fff" d="m1611.4 212.9c1.7 12.2 -3.4 19.6 -11.9 21.3c-8.5 1.7 -15.7 -4 -17.8 -14.4c-2.1 -10.4 2 -20.2 11.6 -21.6c11.1001 -1.6 16.7001 4.8 18.1001 14.7l0 0z"></path><path fill="#fff" d="m1609.2 254.8c-5.6 3.6 1 12 4.9 14.8c3.9 2.8 10.8 6.3 21 5.3c12 -1.2 15.5 -10.2 15.5 -10.2c0 0 4.3 10 19.1 10.4c15.1 0.4 19.7 -7.7 21.8 -10.2c2 -2.4 4.1 -8.8 0.6 -11.2c-3.5 -2.4 -5.9 0.6 -9.6 5.7c-3.7 5.1 -11.2 7.9 -18.5 4.5c-7.3 -3.5 -7.7 -15.3 -7.7 -15.3l-10.4 0.6c0 0 -1.6 10.2 -6.3 13.4c-4.7 3.3 -15.9 4.1 -20.5 -3.1c-2.2 -2.9 -5.2 -7.7 -9.9 -4.7l0 0z"></path></g><path fill="#fff" d="m1723.1 153.1c5.3 5.3 9.6 8.8 12.7 12.2c2.1 2.2 5.8 1.2 6.4 -1.8c5.3 -25.6 3.6 -47.4 0 -53.1c-1.7 -2.7 -5 -3.4 -7.9 -2.4c-5.3 1.8 -18.8 11.8 -28.3 26.5c-1.1 1.7 -0.7 4 1 5.2c3.4001 2.2 9.4001 6.7 16.1001 13.4l0 0z"></path><path fill="#fff" d="m1590 144.4c3.3 -2.8 5 -5.5 1.3 -11.2c-5.7 -8.8 -15.9 -19 -19.9 -22.2c-6.5 -5.2 -11.5 -6.9 -13.5 1.4c-3.6 15.3 -3.3 36.2 0.5 47.7c1.3 4.1 5.5 6.2 8.7 3.4l22.9 -19.1z"></path></g></g></g><g transform="matrix(0.2404 0 0 0.2404 30.9089 191.4729)"><g><path fill="#01507b" d="m841.5 13.5l-329.7 0c-13.4 0 -24.2 10.9 -24.2 24.2l0 428.6c0 13.4 10.9 24.2 24.2 24.2l329.7 0c13.4 0 24.2 -10.9 24.2 -24.2l0 -428.6c0 -13.3 -10.8 -24.2 -24.2 -24.2z"></path><path fill="#fefadf" d="m850.3 466.3c0 4.8 -3.9 8.8 -8.8 8.8l-329.7 0c-4.8 0 -8.8 -3.9 -8.8 -8.8l0 -428.6c0 -4.8 3.9 -8.8 8.8 -8.8l329.7 0c4.8 0 8.8 3.9 8.8 8.8l0 428.6z"></path><path fill="#01507b" d="m536.6 353.7c-6 0 -11 -4.9 -11 -11l0 -280.2c0 -6 4.9 -11 11 -11l280.2 0c6 0 11 4.9 11 11l0 280.2c0 6 -4.9 11 -11 11l-280.2 0z"></path><g><path fill="#ab6700" d="m810.1 261.3c-16.5 0 -28.6 -17.4 -28.6 -26.4c0 -0.2 0 -0.4 -0.1 -0.6l-0.4 -2.6l2.3 -1.4c18.2 -11.3 29.1 -30.8 29.1 -52.2c0 -19.8 -10.6 -37.3 -26.9 -44.8c-0.5 -0.2 -1 -0.3 -1.5 -0.3c-0.7 0 -1.3 0.2 -1.9 0.5l-2.1 1.3c-18.9 11.3 -44.9 26.7 -87.1 31.2c-1.9 0.2 -3.3 1.8 -3.3 3.7l0 8.4c0 21.3 10.9 40.9 29.1 52.2l2.3 1.4l-0.5 2.6c0 0.3 -0.1 0.5 -0.1 0.6c0 7.9 -8.7 26.4 -25.5 26.4c-13.6 0 -23.9 -2.3 -30.2 -4.2l-4.8 -1.5l2.5 -4.4c0.2 -0.4 0.4 -0.7 0.6 -1.1c5.7 -10.4 9.3 -33.6 9.3 -59.2l0 -4.4l0 -0.3l0 -15.2c0.1 -39.6 35.4 -71.8 78.6 -71.8c29.6 0 56.4 15 69.9 39.1l0.5 0.9l0 121.6l-3.8 0.2c-2.4999 0.2 -4.9999 0.3 -7.4 0.3z"></path><path fill="#01507b" d="m549.9 151.5c-0.9 -5.4 -1.3 -10.5 -1.3 -15.1c0 -14.2 10.9 -28.8 29.2 -28.8l8.2 0c2 0 3.7 -1.6 3.7 -3.7l0 -2.9l2.7 -0.9c3.8 -1.2 8.1 -1.8 13.3 -1.8c10.9 0 23.2 2.6 35.1 5c8.6 1.8 16.6 3.5 23.5 4l2.3 0.2l1 2c1.3 2.6 5.5 12.2 5 26.9c0 0.1 0 0.2 0 0.3l0.1 1l-0.5 0.9c-2.8 5.7 -4.8 11.8 -6.1 18l-1.1 5.5l-4.8 -2.8c-11.6 -6.7 -31.5 -14.7 -60.1 -14.7c-12.6 0 -26 1.6 -39.7 4.7c-1.2 0.3 -2.2 1.1 -2.6 2.3l-0.1 0.2l-0.4 0.8l-5.6 10.4l-1.8001 -11.5z"></path></g><g><path fill="#c4b6a8" d="m750.9 232c-29.8 0 -54 -24.2 -54 -54l0 -5l3.4 -0.5c39.8 -5.6 66 -21.1 81.7 -30.4l2.1 -1.2l2.1 1.3c11.5 7.1 18.7 20.9 18.7 35.9c0 29.7 -24.3 53.9 -54 53.9z"></path><path fill="#c4b6a8" d="m750.9 314.4c-25.2 0 -46.8 -17.1 -52.5 -41.6l-0.9 -3.9l3.9 -0.9c14.1 -3.3 23.7 -16.7 25.9 -28.4l0.8 -4.4l4.3 1.4c6 1.9 12.2 2.9 18.5 2.9c6.3 0 12.6 -1 18.6 -2.9l4.1 -1.3l1 4.2c1.3 5.7 4.8 12 9.7 17.1c4.8 5.2 10.6 8.9 16.6 10.7l3.5 1.1l-0.8 3.6c-5.5 24.6 -27.6 42.4 -52.7 42.4z"></path><path fill="#c4b7a9" d="m610.8 240.3c-29.8 0 -54 -24.2 -54 -54l0 -4.1c0 -9.9 3.9 -19.3 6.2 -24l0.9 -1.8l1.9 -0.4c11.7 -2.4 23.2 -3.7 34.2 -3.7c14.4 0 27.8 2.1 39.9 6.2c11.9 4 19.8 9.1 23.4 11.8l1.6 1.2l0 15.2c-0.3001 29.5 -24.6001 53.6 -54.1001 53.6z"></path><path fill="#c4b6a8" d="m610.7 289.7c-8 0 -19 -11.4 -31.4 -25.2c-1.8 -2 -3.5 -3.9 -5.3 -5.8l-2.6 -2.8l2.8 -2.7c1.7 -1.7 4.1 -4.6 5.7 -8.7l1.5 -4l3.9 1.8c8 3.7 16.6 5.6 25.5 5.6c8.8 0 17.4 -1.9 25.4 -5.5l3.9 -1.8l1.5 4c1.6 4.1 4 7 5.7 8.7l2.8 2.7l-2.6 2.8c-1.7 1.8 -3.5 3.8 -5.3 5.8c-12.5001 13.6 -23.4001 25.1 -31.5001 25.1z"></path></g><g><path fill="#fff" d="m653.7 243c-0.9 -1.4 -1.8 -3.2 -2.1 -5.5c1.8 -1.5 3.6 -3 5.3 -4.7c-1 4.2 -2.1 7.7 -3.2 10.2z"></path><path fill="#fff" d="m536.6 61.9l280.2 0c0.3 0 0.5 0.2 0.5 0.5l0 52.4c-16.8 -17 -40.6 -27 -66.4 -27c-27.4 0 -52 11.4 -68.5 29.4c-1.9 -8.2 -4.9 -14.6 -8 -18.3c-1.5 -1.8 -3.6 -2.8 -5.9 -2.8c-6.4 0 -15.5 -1.9 -25.2 -3.9c-22.5 -4.7 -50.2 -10.4 -66.7 3.9c-9.8 0.3 -19.5 4.2 -26.8 10.9c-8.2 7.6 -12.7 18 -12.7 29.3c0 18.9 6.3 37.8 8.2 43.1l0 6.9c0 20.7 9.6 39.1 24.6 51.1c-0.5 4.1 -2.9 6.8 -4.1 7.8c-2.2 -1.6 -5 -2 -7.5 -0.9l-19.3 7.9c-1 0.3 -2 0.7 -3 1.2l0 -190.9c0.1 -0.3 0.3 -0.6 0.6 -0.6z"></path></g><g><path fill="#27f5a6" d="m536.6 346.2c-1.9 0 -3.5 -1.6 -3.5 -3.5l0 -73.2l1.2 -0.9c2.9 -2.1 5.9 -3.6 8.9 -4.6c0.1 0 0.2 -0.1 0.3 -0.1l16.9 -7l1.4 1.3c3.3 3.2 7.1 7.4 11.1 11.8c12.5 13.8 25.3 28.1 37.7 28.1c12.4 0 25.3 -14.2 37.7 -28l0.2 -0.2c1.8 -2 3.5 -3.8 5.1 -5.6l1.4 -1.5l1.9 0.7c0.8 0.3 1.7 0.6 2.6 0.9l4.5 1.5l-3.3 3.4c-8.6 8.9 -13.5 20.5 -13.5 32l0 44.8l-110.6001 0l0 0.1001z"></path><path fill="#b5e7ff" d="m656.7 346.2l0 -44.8c0 -15.1 10.5 -26.8 19.6 -32.3l0.9 -0.5l1 0.1c2.8 0.4 5.6 0.6 8.6 0.8l2.3 0.1l0.4 2.3c5.5 29.5 31.3 50.9 61.3 50.9c15.7 0 30.8 -5.9 42.3 -16.5c9.9 -9.2 16.5 -21 19 -34.2l0.4 -2.4l2.4 -0.1c0.7 0 1.4 -0.1 2.1 -0.1l3.2 -0.2l0 73.3c0 1.9 -1.6 3.5 -3.5 3.5l-160 0l0 0.1z"></path></g><g><path fill="#01507b" d="m817.3 374.5l-280.2 0c-8.8 0 -16 7.2 -16 16l0 49.5c0 8.8 7.2 16 16 16l280.2 0c8.8 0 16 -7.2 16 -16l0 -49.5c0 -8.9 -7.2 -16 -16 -16z"></path><path fill="#fff" d="m536.6 447.1c-3 0 -5.5 -2.5 -5.5 -5.5l0 -49.5c0 -3 2.5 -5.5 5.5 -5.5l280.2 0c3 0 5.5 2.5 5.5 5.5l0 49.5c0 3 -2.5 5.5 -5.5 5.5l-280.2 0z"></path><path fill="#01507b" d="m610.7 409.1l-49.5 0c-4.3 0 -7.7 3.5 -7.7 7.7c0 4.2 3.5 7.7 7.7 7.7l49.5 0c4.3 0 7.7 -3.5 7.7 -7.7c0 -4.2 -3.4 -7.7 -7.7 -7.7z"></path><path fill="#01507b" d="m792.1 409.1l-148.4 0c-4.3 0 -7.7 3.5 -7.7 7.7c0 4.2 3.5 7.7 7.7 7.7l148.4 0c4.3 0 7.7 -3.5 7.7 -7.7c0 -4.2 -3.5 -7.7 -7.7 -7.7z"></path></g></g><g><path fill="#01507b" d="m1328 13.5l-329.7 0c-13.4 0 -24.2 10.9 -24.2 24.2l0 428.6c0 13.4 10.9 24.2 24.2 24.2l329.7 0c13.4 0 24.2 -10.9 24.2 -24.2l0 -428.6c0 -13.3 -10.7999 -24.2 -24.2 -24.2z"></path><path fill="#fefadf" d="m1336.8 466.3c0 4.8 -3.9 8.8 -8.8 8.8l-329.7 0c-4.8 0 -8.8 -3.9 -8.8 -8.8l0 -428.6c0 -4.8 3.9 -8.8 8.8 -8.8l329.7 0c4.8 0 8.8 3.9 8.8 8.8l0 428.6z"></path><path fill="#01507b" d="m1023.1 353.7c-6 0 -11 -4.9 -11 -11l0 -280.2c0 -6 4.9 -11 11 -11l280.2001 0c6 0 11 4.9 11 11l0 280.2c0 6 -4.9 11 -11 11l-280.2001 0z"></path><g><path fill="#01507b" d="m1303.8 374.5l-280.2 0c-8.8 0 -16 7.2 -16 16l0 49.5c0 8.8 7.2 16 16 16l280.2 0c8.8 0 16 -7.2 16 -16l0 -49.5c0 -8.9 -7.2001 -16 -16 -16z"></path><path fill="#fff" d="m1023.1 447.1c-3 0 -5.5 -2.5 -5.5 -5.5l0 -49.5c0 -3 2.5 -5.5 5.5 -5.5l280.2001 0c3 0 5.5 2.5 5.5 5.5l0 49.5c0 3 -2.5 5.5 -5.5 5.5l-280.2001 0z"></path><path fill="#01507b" d="m1097.3 409.1l-49.5 0c-4.3 0 -7.7 3.5 -7.7 7.7c0 4.2 3.5 7.7 7.7 7.7l49.5 0c4.3 0 7.7 -3.5 7.7 -7.7c0 -4.2 -3.5 -7.7 -7.7 -7.7z"></path><path fill="#01507b" d="m1278.6 409.1l-148.4 0c-4.3 0 -7.7 3.5 -7.7 7.7c0 4.2 3.5 7.7 7.7 7.7l148.4 0c4.3 0 7.7 -3.5 7.7 -7.7c0 -4.2 -3.4999 -7.7 -7.7 -7.7z"></path></g><path fill="#b2bbbf" d="m1288.5 343.9l-252.5 0c-7.9 0 -14.4 -6.4 -14.4 -14.4l0 -252.5c0 -7.9 6.4 -14.4 14.4 -14.4l252.5 0c7.9 0 14.4 6.4 14.4 14.4l0 252.5c-0.1 8 -6.5 14.4 -14.4 14.4z"></path><path fill="#a1c9a5" stroke="#01507b" stroke-width="8.0567" stroke-miterlimit="10" d="m1020.6 202.6l0 127l3.9 9.8l10.5 4.6l252.5 0l8.8 -3l5.5 -6.6l0 -84.7c0 0 -10 -35 -40.7 -21.5c-30.7 13.5 -17.1 30.9 -64.9 21.2c-47.8 -9.8 -58.5 -46.8 -86.3 -41.1c-27.8 5.7 -30.7 -58.6 -51.3 -45c-20.6 13.4 -43.4 27.3 -38 39.3z" transform="matrix(-0.99 0 0 0.58 2309.9874 106.1353)"></path><path fill="#fff" stroke="#01507b" stroke-width="6" stroke-miterlimit="10" d="m1184 154.9l-1.6 0.2l-1.6 0.1c-16.7 0.3 -30.3 -13.1 -30 -29.9l0.1 -1.6l0.2 -1.6c2.1 -16.6 17.7 -27.9 34.1 -25.1l1.5 0.3l1.5 0.4l0 0l0 0l0 0l0.2 -1.7l0.3 -1.6c3.1 -13.6 14 -23.7 27.8 -25.7l1.7 -0.2l1.7 -0.1c13.8 -0.6 26.6 7.5 32 20.2l0.6 1.6l0.5 1.6l0 0l0 0c0 0 1 -0.9 1 -0.9l1.1 -0.9c9.5 -7.2 22.5 -6.1 30.7 2.5l0.9 1.1l0.9 1.1c6.9 9.5 5.5 22.9 -3.4 30.6l-1.1 0.9l-1.1 0.8l0 0l0 0c0 0 1.5 0.6 1.5 0.6l1.5 0.7c15.3 8.1 21 27.1 12.6 42.3l-0.8 1.4l-0.9 1.3c-10 14.1 -29.7 17.3 -43.6 6.9l-1.3 -1l-1.2 -1.1l0 0l0 0l-1.1 1.4c-22.3 26 -63.9 11.3 -64.9 -23l0.2002 -1.6" transform="matrix(1 0 0 0.6721 0.3186 56.6466)" opacity="0.84"></path><ellipse fill="#fff" rx="51.3" ry="51.3" transform="matrix(0.7362 0 0 0.7362 1070.3 109.5)"></ellipse><path fill="#86a889" d="m0 0q0 -5 70.9 -58.15q64.2998 6.65 67.8998 6.65q3.6 0 35.5 -20.6l11.7 0l1.7001 72.1q-187.6998 5 -187.6998 0z" transform="matrix(1 0 0 0.93 1109.9 336.964)" opacity="0.84"></path><path fill="#86a889" d="m0 0" transform="translate(2666.1594 517.9183)" opacity="0.84"></path><path fill="#86a889" d="m0 0" transform="translate(1211.9629 -56.5953)" opacity="0.84"></path><path fill="#65a06a" d="m0 0q32.4035 -7.6999 48.05 18.6001q15.6466 26.3 37.35 34.8l53.8 10.9q27.3807 25.5442 24.7051 26.6q-2.6757 1.0558 -152.4051 -1.6l-11.5 -5l0 -84.3z" transform="matrix(1 0 0 0.98 1024.5 250.9849)"></path></g><g><path fill="#01507b" d="m354 13.5l-329.7 0c-13.3 0 -24.2 10.9 -24.2 24.2l0 428.6c0 13.4 10.9 24.2 24.2 24.2l329.7 0c13.4 0 24.2 -10.9 24.2 -24.2l0 -428.6c0 -13.3 -10.8 -24.2 -24.2 -24.2z"></path><path fill="#fefadf" d="m362.8 466.3c0 4.8 -3.9 8.8 -8.8 8.8l-329.7 0c-4.8 0 -8.8 -3.9 -8.8 -8.8l0 -428.6c0 -4.8 3.9 -8.8 8.8 -8.8l329.7 0c4.8 0 8.8 3.9 8.8 8.8l0 428.6z"></path><path fill="#01507b" d="m49.1 353.7c-6 0 -11 -4.9 -11 -11l0 -280.2c0 -6 4.9 -11 11 -11l280.2 0c6 0 11 4.9 11 11l0 280.2c0 6 -4.9 11 -11 11l-280.2 0z"></path><g><path fill="#01507b" d="m329.8 374.5l-280.2 0c-8.8 0 -16 7.2 -16 16l0 49.5c0 8.8 7.2 16 16 16l280.2 0c8.8 0 16 -7.2 16 -16l0 -49.5c0 -8.9 -7.2 -16 -16 -16z"></path><path fill="#fff" d="m49.1 447.1c-3 0 -5.5 -2.5 -5.5 -5.5l0 -49.5c0 -3 2.5 -5.5 5.5 -5.5l280.2 0c3 0 5.5 2.5 5.5 5.5l0 49.5c0 3 -2.5 5.5 -5.5 5.5l-280.2 0z"></path><path fill="#01507b" d="m123.2 409.1l-49.4 0c-4.3 0 -7.7 3.5 -7.7 7.7c0 4.2 3.5 7.7 7.7 7.7l49.5 0c4.3 0 7.7 -3.5 7.7 -7.7c0 -4.2 -3.5 -7.7 -7.8 -7.7z"></path><path fill="#01507b" d="m304.6 409.1l-148.4 0c-4.3 0 -7.7 3.5 -7.7 7.7c0 4.2 3.5 7.7 7.7 7.7l148.4 0c4.3 0 7.7 -3.5 7.7 -7.7c0 -4.2 -3.5 -7.7 -7.7 -7.7z"></path></g><path fill="#e1f3fd" d="m314.4 343.9l-252.5 0c-7.9 0 -14.4 -6.4 -14.4 -14.4l0 -252.5c0 -7.9 6.4 -14.4 14.4 -14.4l252.5 0c7.9 0 14.4 6.4 14.4 14.4l0 252.5c0 8 -6.4 14.4 -14.4 14.4z"></path><path fill="#b0a68f" stroke="#01507b" stroke-width="10" stroke-miterlimit="62.5" d="m299.7 222.4c-1 -13.8 -4.2 -26.6 -9.4 -38c12.9 -49.1 7 -84.1 0 -95.6c-2.9 -4.7 -8.7 -5 -13.7 -3.4c-9.9 3.1 -33.4 20.4 -50.8 46.2c-10.9 -2.8 -22.8 -4.3 -35.8 -4.3c-14 0 -26.8 1.9 -38.3 5.3c-17.1 -24.9 -38.8 -41 -48.7 -44.1c-5.1 -1.6 -11.5 -1.8 -14.4 2.9c-6.9 11.2 -15.6 45.8 1 95.1c-5.1 11.6 -8.2 24.5 -9.2 38.3c-2.3 32.8 9.9 62 34.5 78.7c16.2 11 38.8 17.1 75.4 17.1c37.2 0 58.6 -8 74.8 -18.9c26.7 -18.1 37 -47 34.6 -79.3z"></path><g><path fill="none" stroke="#01507b" stroke-width="11.8896" stroke-linecap="round" stroke-miterlimit="62.5" d="m65.4 227.7c0.7 1.3 9.2 1.1 30.1 16.1"></path><path fill="none" stroke="#01507b" stroke-width="11.8896" stroke-linecap="round" stroke-miterlimit="62.5" d="m57.4 265.2c0 0 13.5 -7.1 36.6 -0.9"></path><path fill="none" stroke="#01507b" stroke-width="11.8896" stroke-linecap="round" stroke-miterlimit="62.5" d="m69.8 295c0 0 5.7 -4.4 26.6 -7.1"></path><g><path fill="none" stroke="#01507b" stroke-width="11.8896" stroke-linecap="round" stroke-miterlimit="62.5" d="m304.9 216.6c0 0 -7.2 1 -29.2 20.1"></path><path fill="none" stroke="#01507b" stroke-width="11.8896" stroke-linecap="round" stroke-miterlimit="62.5" d="m308.1 251.4c0 0 -10.7 -1.1 -33.7 6.2"></path><path fill="none" stroke="#01507b" stroke-width="11.8896" stroke-linecap="round" stroke-miterlimit="62.5" d="m304 284.8c0 0 -10.1 -5.4 -31 -7.1"></path></g></g><g><path fill="#01507b" d="m171.8 238.8c-0.1 -6.7 9.5 -9.9 18.5 -10c9.1 -0.2 18.8 2.8 18.9 9.5c0.1 6.7 -11.3 15.5 -18.5 15.5c-7.1 -0.1 -18.8 -8.4 -18.9 -15l0 0z"></path><g><path fill="#01507b" d="m259.4 214.1c-0.7 11.9 -8.1 18.5 -16.6 18.5c-8.5 0 -15.3 -8.4 -15.3 -18.8c0 -10.4 7.1 -18.9 16.6 -18.4c11 0.7 15.9 9 15.3 18.7l0 0z"></path><path fill="#01507b" d="m150.9 212.9c1.7 12.2 -3.4 19.6 -11.9 21.3c-8.5 1.7 -15.7 -4 -17.8 -14.4c-2.1 -10.4 2 -20.2 11.6 -21.6c11.1 -1.6 16.7 4.8 18.1 14.7l0 0z"></path></g><path fill="#01507b" d="m148.7 254.8c-5.6 3.6 1 12 4.9 14.8c3.9 2.8 10.8 6.3 21 5.3c12 -1.2 15.5 -10.2 15.5 -10.2c0 0 4.3 10 19.1 10.4c15.1 0.4 19.7 -7.7 21.8 -10.2c2 -2.4 4.1 -8.8 0.6 -11.2c-3.5 -2.4 -5.9 0.6 -9.6 5.7c-3.7 5.1 -11.2 7.9 -18.5 4.5c-7.3 -3.5 -7.7 -15.3 -7.7 -15.3l-10.4 0.6c0 0 -1.6 10.2 -6.3 13.4c-4.7 3.2 -15.9 4.1 -20.5 -3.1c-2.3 -2.9 -5.2 -7.7 -9.9 -4.7l0 0z"></path></g><path fill="#3a3a3a" d="m262.6 153.1c5.3 5.3 9.6 8.8 12.7 12.2c2.1 2.2 5.8 1.2 6.4 -1.8c5.3 -25.6 3.6 -47.4 0 -53.1c-1.7 -2.7 -5 -3.4 -7.9 -2.4c-5.3 1.8 -18.8 11.8 -28.3 26.5c-1.1 1.7 -0.7 4 1 5.2c3.4 2.2 9.4 6.7 16.1 13.4l0 0z" transform="translate(-5.5761 0)"></path><path fill="#3b3b3b" d="m129.4 144.4c3.3 -2.8 5 -5.5 1.3 -11.2c-5.7 -8.8 -15.9 -19 -19.9 -22.2c-6.5 -5.2 -11.5 -6.9 -13.5 1.4c-3.6 15.3 -3.3 36.2 0.5 47.7c1.3 4.1 5.5 6.2 8.7 3.4l22.9 -19.1z"></path></g><g><path fill="#01507b" d="m1814.5 13.5l-329.7 0c-13.4 0 -24.2 10.9 -24.2 24.2l0 428.6c0 13.4 10.9 24.2 24.2 24.2l329.7 0c13.4 0 24.2 -10.9 24.2 -24.2l0 -428.6c0.1001 -13.3 -10.7999 -24.2 -24.2 -24.2z"></path><path fill="#fefadf" d="m1823.3 466.3c0 4.8 -3.9 8.8 -8.8 8.8l-329.7 0c-4.8 0 -8.8 -3.9 -8.8 -8.8l0 -428.6c0 -4.8 3.9 -8.8 8.8 -8.8l329.7 0c4.8 0 8.8 3.9 8.8 8.8l0 428.6z"></path><path fill="#01507b" d="m1509.6 353.7c-6 0 -11 -4.9 -11 -11l0 -280.2c0 -6 4.9 -11 11 -11l280.2001 0c6 0 11 4.9 11 11l0 280.2c0 6 -4.9 11 -11 11l-280.2001 0z"></path><g><path fill="#01507b" d="m1790.3 374.5l-280.2 0c-8.8 0 -16 7.2 -16 16l0 49.5c0 8.8 7.2 16 16 16l280.2 0c8.8 0 16 -7.2 16 -16l0 -49.5c0 -8.9 -7.2001 -16 -16 -16z"></path><path fill="#fff" d="m1509.6 447.1c-3 0 -5.5 -2.5 -5.5 -5.5l0 -49.5c0 -3 2.5 -5.5 5.5 -5.5l280.2001 0c3 0 5.5 2.5 5.5 5.5l0 49.5c0 3 -2.5 5.5 -5.5 5.5l-280.2001 0z"></path><path fill="#01507b" d="m1583.8 409.1l-49.5 0c-4.3 0 -7.7 3.5 -7.7 7.7c0 4.2 3.5 7.7 7.7 7.7l49.5 0c4.3 0 7.7 -3.5 7.7 -7.7c0 -4.2 -3.5 -7.7 -7.7 -7.7z"></path><path fill="#01507b" d="m1765.1 409.1l-148.4 0c-4.3 0 -7.7 3.5 -7.7 7.7c0 4.2 3.5 7.7 7.7 7.7l148.4 0c4.3 0 7.7 -3.5 7.7 -7.7c0 -4.2 -3.3999 -7.7 -7.7 -7.7z"></path></g><path fill="#e1f3fd" d="m1775 343.9l-252.5 0c-7.9 0 -14.4 -6.4 -14.4 -14.4l0 -252.5c0 -7.9 6.4 -14.4 14.4 -14.4l252.5 0c7.9 0 14.4 6.4 14.4 14.4l0 252.5c-0.1 8 -6.5 14.4 -14.4 14.4z"></path><g><path fill="#cfcfcf" stroke="#01507b" stroke-width="10" stroke-miterlimit="62.5" d="m1760.2 222.4c-1 -13.8 -4.2 -26.6 -9.4 -38c12.9 -49.1 7 -84.1 0 -95.6c-2.9 -4.7 -8.7 -5 -13.7 -3.4c-9.9 3.1 -33.4 20.4 -50.8 46.2c-10.9 -2.8 -22.8 -4.3 -35.8 -4.3c-14 0 -26.8 1.9 -38.3 5.3c-17.1 -24.9 -38.8 -41 -48.7 -44.1c-5.1 -1.6 -11.5 -1.8 -14.4 2.9c-6.9 11.2 -15.6 45.8 1 95.1c-5.1 11.6 -8.2 24.5 -9.2 38.3c-2.3 32.8 9.9 62 34.5 78.7c16.2 11 38.8 17.1 75.4 17.1c37.2 0 58.6 -8 74.8 -18.9c26.8 -18.1 37.1 -47 34.6 -79.3z"></path><g><path fill="none" stroke="#01507b" stroke-width="11.8896" stroke-linecap="round" stroke-miterlimit="62.5" d="m1525.9 227.7c0.7 1.3 9.2 1.1 30.1 16.1"></path><path fill="none" stroke="#01507b" stroke-width="11.8896" stroke-linecap="round" stroke-miterlimit="62.5" d="m1518 265.2c0 0 13.5 -7.1 36.6 -0.9"></path><path fill="none" stroke="#01507b" stroke-width="11.8896" stroke-linecap="round" stroke-miterlimit="62.5" d="m1530.4 295c0 0 5.7 -4.4 26.6 -7.1"></path><g><path fill="none" stroke="#01507b" stroke-width="11.8896" stroke-linecap="round" stroke-miterlimit="62.5" d="m1765.4 216.6c0 0 -7.2 1 -29.2 20.1"></path><path fill="none" stroke="#01507b" stroke-width="11.8896" stroke-linecap="round" stroke-miterlimit="62.5" d="m1768.6 251.4c0 0 -10.7 -1.1 -33.7 6.2"></path><path fill="none" stroke="#01507b" stroke-width="11.8896" stroke-linecap="round" stroke-miterlimit="62.5" d="m1764.5 284.8c0 0 -10.1 -5.4 -31 -7.1"></path></g></g><g><path fill="#01507b" d="m1632.3 238.8c-0.1 -6.7 9.5 -9.9 18.5 -10c9.1 -0.2 18.8 2.8 18.9 9.5c0.1 6.7 -11.3 15.5 -18.5 15.5c-7.1001 -0.1 -18.7001 -8.4 -18.9 -15l0 0z"></path><path fill="#01507b" d="m1719.9 214.1c-0.7 11.9 -8.1 18.5 -16.6 18.5c-8.5 0 -15.3 -8.4 -15.3 -18.8c0 -10.4 7.1 -18.9 16.6 -18.4c11.1 0.7 15.9 9 15.3 18.7l0 0z"></path><path fill="#01507b" d="m1611.4 212.9c1.7 12.2 -3.4 19.6 -11.9 21.3c-8.5 1.7 -15.7 -4 -17.8 -14.4c-2.1 -10.4 2 -20.2 11.6 -21.6c11.1001 -1.6 16.7001 4.8 18.1001 14.7l0 0z"></path><path fill="#01507b" d="m1609.2 254.8c-5.6 3.6 1 12 4.9 14.8c3.9 2.8 10.8 6.3 21 5.3c12 -1.2 15.5 -10.2 15.5 -10.2c0 0 4.3 10 19.1 10.4c15.1 0.4 19.7 -7.7 21.8 -10.2c2 -2.4 4.1 -8.8 0.6 -11.2c-3.5 -2.4 -5.9 0.6 -9.6 5.7c-3.7 5.1 -11.2 7.9 -18.5 4.5c-7.3 -3.5 -7.7 -15.3 -7.7 -15.3l-10.4 0.6c0 0 -1.6 10.2 -6.3 13.4c-4.7 3.3 -15.9 4.1 -20.5 -3.1c-2.2 -2.9 -5.2 -7.7 -9.9 -4.7l0 0z"></path></g><path fill="#fff" d="m1723.1 153.1c5.3 5.3 9.6 8.8 12.7 12.2c2.1 2.2 5.8 1.2 6.4 -1.8c5.3 -25.6 3.6 -47.4 0 -53.1c-1.7 -2.7 -5 -3.4 -7.9 -2.4c-5.3 1.8 -18.8 11.8 -28.3 26.5c-1.1 1.7 -0.7 4 1 5.2c3.4001 2.2 9.4001 6.7 16.1001 13.4l0 0z"></path><path fill="#fff" d="m1590 144.4c3.3 -2.8 5 -5.5 1.3 -11.2c-5.7 -8.8 -15.9 -19 -19.9 -22.2c-6.5 -5.2 -11.5 -6.9 -13.5 1.4c-3.6 15.3 -3.3 36.2 0.5 47.7c1.3 4.1 5.5 6.2 8.7 3.4l22.9 -19.1z"></path></g></g></g></g></g></g></svg>