<svg id="e1nlkakh7q6e1" xmlns="http://www.w3.org/2000/svg" xmlns:xlink="http://www.w3.org/1999/xlink" viewBox="0 0 769 769" shape-rendering="geometricPrecision" text-rendering="geometricPrecision">
    <style>
        <![CDATA[#e1nlkakh7q6e1{pointer-events: all} #e1nlkakh7q6e1:hover * {animation-play-state: running !important}#e1nlkakh7q6e6_to {animation: e1nlkakh7q6e6_to__to 800ms linear infinite normal forwards}@keyframes e1nlkakh7q6e6_to__to { 0% {transform: translate(0px,0px)} 25% {transform: translate(0px,6px)} 75% {transform: translate(0px,-6px)} 100% {transform: translate(0px,0px)} }]]>
    </style>
    <g id="e1nlkakh7q6e2" transform="matrix(4 0 0 4 -802.31994628000018 -2317.32641599500039)">
        <path
            id="e1nlkakh7q6e3"
            d="M392.830000,675.710000C392.830000,699.770000,392.830000,723.840000,392.830000,747.900000C392.830000,758.930000,384.510000,769.010000,373.650000,771.080000C372.040000,771.390000,370.380000,771.560000,368.750000,771.560000C320.780000,771.590000,272.820000,771.580000,224.850000,771.580000C213.090000,771.580000,202.830000,762.560000,201.290000,750.860000C201.150000,749.830000,201.060000,748.780000,201.060000,747.740000C201.050000,699.650000,201.050000,651.560000,201.050000,603.480000C201.050000,592.450000,209.370000,582.360000,220.230000,580.300000C221.840000,579.990000,223.500000,579.820000,225.130000,579.820000C273.140000,579.800000,321.150000,579.800000,369.150000,579.800000C380.180000,579.800000,390.280000,588.130000,392.330000,598.980000C392.630000,600.590000,392.810000,602.250000,392.810000,603.880000C392.830000,627.830000,392.830000,651.770000,392.830000,675.710000Z"
            fill="#ffcb29"
            stroke="none"
            stroke-width="1"
        />
    </g>
    <g id="e1nlkakh7q6e4">
        <g id="e1nlkakh7q6e5" transform="matrix(4 0 0 4 -802.30495453000003 -2317.30838011500055)">
            <g id="e1nlkakh7q6e6_to" transform="translate(0,0)">
                <path
                    id="e1nlkakh7q6e6"
                    d="M272.100000,646.380000C272.100000,645.580000,272.100000,644.990000,272.100000,644.400000C272.100000,631.770000,272.280000,619.140000,272.030000,606.520000C271.890000,599.810000,276.740000,593.960000,283.480000,592.410000C284.320000,592.220000,285.200000,592.070000,286.060000,592.070000C293.300000,592.040000,300.540000,592.020000,307.780000,592.070000C314.200000,592.110000,320.210000,596.990000,321.550000,603.240000C321.830000,604.550000,321.840000,605.940000,321.850000,607.290000C321.870000,619.650000,321.860000,632,321.860000,644.360000C321.860000,644.950000,321.860000,645.540000,321.860000,646.290000C322.570000,646.330000,323.150000,646.370000,323.730000,646.380000C327.540000,646.460000,331.340000,646.520000,335.150000,646.630000C335.850000,646.650000,336.550000,646.800000,337.230000,647C341.080000,648.100000,342.640000,651.290000,340.530000,654.670000C338.670000,657.640000,336.250000,660.280000,333.950000,662.950000C324.940000,673.420000,315.860000,683.840000,306.840000,694.310000C303.380000,698.320000,299.170000,700.100000,293.920000,698.880000C291.350000,698.280000,289.260000,696.830000,287.540000,694.850000C276.640000,682.270000,265.740000,669.680000,254.870000,657.080000C254.240000,656.350000,253.700000,655.500000,253.260000,654.630000C251.490000,651.130000,252.800000,648.050000,256.600000,647.050000C258.260000,646.610000,260.030000,646.470000,261.760000,646.420000C265.120000,646.320000,268.490000,646.380000,272.100000,646.380000Z"
                    transform="translate(0,0)"
                    fill="rgb(1,80,123)"
                    stroke="none"
                    stroke-width="1"
                />
            </g>
            <path
                id="e1nlkakh7q6e7"
                d="M380.590000,727.600000C380.590000,716.400000,371.230000,707.070000,359.990000,707.070000C317.970000,707.070000,275.950000,707.070000,233.920000,707.070000C227.080000,707.070000,221.700000,710.040000,217.480000,715.300000C215.250000,718.070000,214.220000,721.360000,213.280000,724.700000C213.280000,730.360000,213.280000,736.030000,213.280000,741.690000C214.180000,744.870000,215.160000,748,217.190000,750.710000C220.500000,755.110000,224.790000,757.930000,230.210000,759.020000C230.460000,759.070000,230.690000,759.230000,230.930000,759.330000C274.940000,759.330000,318.950000,759.330000,362.950000,759.330000C363.190000,759.220000,363.420000,759.070000,363.660000,759.020000C373.660000,757.010000,380.590000,748.560000,380.590000,738.360000C380.590000,734.780000,380.590000,731.190000,380.590000,727.600000ZM341.240000,743.660000C335.420000,743.640000,330.880000,739,330.890000,733.100000C330.910000,727.290000,335.550000,722.720000,341.430000,722.730000C347.180000,722.740000,351.920000,727.550000,351.840000,733.290000C351.770000,739.090000,347.060000,743.690000,341.240000,743.660000Z"
                fill="rgb(1,80,123)"
                stroke="none"
                stroke-width="1"
            />
        </g>
    </g>
</svg>
