<svg xmlns="http://www.w3.org/2000/svg" viewBox="0 0 500 500" overflow="hidden" preserveAspectRatio="xMidYMid meet" id="eaf-13c16-0"><defs><clipPath id="eaf-13c16-1"><rect x="0" y="0" width="500" height="500"></rect></clipPath><style>#eaf-13c16-0 * {animation: 10000ms linear infinite normal both running;offset-rotate:0deg}@keyframes eaf-13c16-2{0%,100%{transform:none;offset-path:path("m183.345 281.7717l0 0l-2.1127 121.0385l-180.6065 82.3812l-77.028 -263.9639l117.2933 244.4067l-38.6594 17.3631l180.5324 -90.647l-0.2172 -86.3677l0 0l-0.3365 -24.1141l1.1347 -0.0969")}}@keyframes eaf-13c16-3{0%{offset-distance:0%}32%{offset-distance:0%;animation-timing-function:ease-in}37.33%{offset-distance:9.9093%;animation-timing-function:ease-in-out}45%{offset-distance:26.1585%;animation-timing-function:ease-in-out}53%{offset-distance:48.6669%;animation-timing-function:ease-in-out}58.67%{offset-distance:70.8578%;animation-timing-function:ease-in-out}63.67%{offset-distance:74.3269%;animation-timing-function:ease-in-out}67.67%{offset-distance:90.8629%}71%{offset-distance:97.9327%}76%{offset-distance:97.9327%;animation-timing-function:ease-in-out}88.67%{offset-distance:99.9068%;animation-timing-function:ease-in-out}100%{offset-distance:100%}}@keyframes eaf-13c16-4{0%{transform:rotate(-47deg)}45%{transform:rotate(-47deg);animation-timing-function:ease-in-out}53%{transform:rotate(46deg);animation-timing-function:ease-in-out}58.67%{transform:rotate(-26deg);animation-timing-function:ease-in-out}71%{transform:rotate(-44deg)}88.67%{transform:rotate(-44deg);animation-timing-function:ease-in-out}100%{transform:rotate(-47deg)}}@keyframes eaf-13c16-5{0%,100%{transform:matrix(1.3397,0,0,1.3397,-84.6623,-294.944)}}@keyframes eaf-13c16-6{0%,100%{transform:translate(183.8px,115.4127px)}}@keyframes eaf-13c16-7{0%{transform:rotate(0)}15.67%{transform:rotate(0);animation-timing-function:ease-in-out}32%{transform:rotate(51deg)}43%{transform:rotate(51deg);animation-timing-function:ease-in-out}53%{transform:rotate(0);animation-timing-function:ease-in-out}60%{transform:rotate(110deg)}76%{transform:rotate(110deg);animation-timing-function:ease-in-out}88.67%{transform:rotate(144deg);animation-timing-function:ease-in-out}100%{transform:rotate(0)}}@keyframes eaf-13c16-8{0%,100%{transform:translate(-183.8px,-115.4127px)}}@keyframes eaf-13c16-9{0%,100%{transform:translate(299.6007px,94.633px)}}@keyframes eaf-13c16-10{0%{transform:rotate(-8deg);animation-timing-function:ease-in-out}15.67%{transform:rotate(9deg);animation-timing-function:ease-in-out}32%{transform:rotate(-18deg)}43%{transform:rotate(-18deg);animation-timing-function:ease-in-out}53%{transform:rotate(-8deg);animation-timing-function:ease-in-out}60%{transform:rotate(-38deg)}63.67%{transform:rotate(-38deg);animation-timing-function:ease-in-out}71%{transform:rotate(-15deg)}76%{transform:rotate(-15deg);animation-timing-function:ease-in-out}88.67%{transform:rotate(-54deg);animation-timing-function:ease-in-out}100%{transform:rotate(-8deg)}}@keyframes eaf-13c16-11{0%,100%{transform:translate(-299.6007px,-94.633px)}}@keyframes eaf-13c16-12{0%,100%{transform:translate(435.6152px,218.9401px)}}@keyframes eaf-13c16-13{0%{transform:rotate(24deg);animation-timing-function:ease-in-out}15.67%{transform:rotate(-9deg);animation-timing-function:ease-in-out}32%{transform:rotate(-3deg)}43%{transform:rotate(-3deg);animation-timing-function:ease-in-out}53%{transform:rotate(24deg);animation-timing-function:ease-in-out}60%{transform:rotate(19deg)}76%{transform:rotate(19deg);animation-timing-function:ease-in-out}88.67%{transform:rotate(-1deg);animation-timing-function:ease-in-out}100%{transform:rotate(24deg)}}@keyframes eaf-13c16-14{0%,100%{transform:translate(-435.6px,-219.2px)}}@keyframes eaf-13c16-15{0%,100%{transform:translate(377.1px,408.3px)}}@keyframes eaf-13c16-16{0%{transform:rotate(-16deg);animation-timing-function:ease-in-out}15.67%{transform:rotate(0);animation-timing-function:ease-in-out}32%{transform:rotate(-31deg)}43%{transform:rotate(-31deg);animation-timing-function:ease-in-out}53%{transform:rotate(-16deg);animation-timing-function:ease-in-out}60%{transform:rotate(-1deg)}63.67%{transform:rotate(-1deg);animation-timing-function:ease-in-out}71%{transform:rotate(-23deg)}76%{transform:rotate(-23deg);animation-timing-function:ease-in-out}88.67%{transform:rotate(0);animation-timing-function:ease-in-out}100%{transform:rotate(-16deg)}}@keyframes eaf-13c16-17{0%,100%{transform:translate(-377.1px,-408.3px)}}</style></defs><g clip-path="url('#eaf-13c16-1')" style="isolation: isolate;"><g><g transform="matrix(4 0 0 4 -827.28 -2254.5264)"><path fill="#ffcb29" d="m331.7 626.2c0 15.6 0 31.3 0 46.9c0 7.2 -5.4 13.7 -12.5 15.1c-1 0.2 -2.1 0.3 -3.2 0.3c-31.2 0 -62.4 0 -93.6 0c-7.6 0 -14.3 -5.9 -15.3 -13.5c-0.1 -0.7 -0.1 -1.4 -0.1 -2c0 -31.3 0 -62.5 0 -93.8c0 -7.2 5.4 -13.7 12.5 -15.1c1 -0.2 2.1 -0.3 3.2 -0.3c31.2 0 62.4 0 93.6 0c7.2 0 13.7 5.4 15.1 12.5c0.2 1 0.3 2.1 0.3 3.2c0 15.5999 0 31.0999 0 46.7z"></path></g><g><path fill="#01507b" d="m439.6 360.2l33.5 43.7l0 0l0.6 0.9c1.5 2.4 2.4 4.8 2.6 7.6l0 1l0 26.1l0 1.2c-0.7 7.7 -6.5 13.5 -14.2 14.2l-1.2 0l-288 0c0 0 -1.2 0 -1.2 0c-7.7 -0.7 -13.5 -6.5 -14.2 -14.2l0 -1.2l0 -15.8l0 -1.2c0.7 -7.7 6.5 -13.5 14.2 -14.2l1.2 0l79.5 0l2.4 0c14.6 -0.7 28 -7.3 37.5 -18.5c0 0 1.5 -1.9 1.5 -1.9l21.1 -27.5l0 0l1.9 -2.3c31.6 -37.8 89.3 -37.8 120.9 0l1.9 2.1l0 0z"></path><path fill="#f7e79c" d="m421.2 408l-88 0l0 0l0 -2.2l0.2 -2.2c2.1 -21.6 19.8 -38.3 41.5 -39.5l2.2 0l2.2 0c21.7 1.1 39.3 17.9 41.5 39.5l0.2 2.2l0.2 2.2l0 0z"></path></g><g transform="matrix(0.9613 -0.2756 0.2756 0.9613 -97.9345 119.7597)" style="animation-name: eaf-13c16-15, eaf-13c16-16, eaf-13c16-17; animation-composition: replace, add, add;"><g><path fill="#01507b" d="m394.9 202.6l0.9 -2l1 -2c9.5 -17.8 30 -26.8 49.6 -21.9l2.2 0.6l2.1 0.7c19 7.1 30.7 25.8 28.6 46l-0.3 2.2l-0.4 2.2l0 0l-17.5 114.2l0 0l-0.3 1c-2.5 7.6 -11.8 10.1 -17.8 4.9l-0.8 -0.8l-2.1 -2.2c-20.8 -20.8 -50.4 -30.1 -79.3 -24.5l-3 0.6l0 0l-1 0.2c-7.9 1 -14.3 -6.5 -11.9 -14.1l0.3 -1c-0.3 0 49.5999 -104.1 49.7 -104.1l0 0z"></path><path fill="#f7e79c" d="m458.9 219.2l0 -1.6l-0.2 -1.6c-4.8 -27.7 -43.5 -26.3 -46.4 1.6l0 1.6l0 1.6c2.9 27.9 41.6 29.3 46.4 1.6l0.2 -1.6l0 -1.6z"></path></g><g transform="matrix(0.9135 0.4067 -0.4067 0.9135 126.8314 -158.4835)" style="animation-name: eaf-13c16-12, eaf-13c16-13, eaf-13c16-14; animation-composition: replace, add, add;"><g transform="matrix(0.9903 -0.1392 0.1392 0.9903 -10.2547 42.6173)" style="animation-name: eaf-13c16-9, eaf-13c16-10, eaf-13c16-11; animation-composition: replace, add, add;"><g><g style="animation-name: eaf-13c16-6, eaf-13c16-7, eaf-13c16-8; animation-composition: replace, add, add;"><path fill="#01507b" d="m80.4 108.1l0.3 -1c0.6 -1.7 2.3 -3.8 3.8 -4.8l0.9 -0.6l0 0c0 0 29.2 -17 29.2 -17l0.8 -0.4c1.5 -0.8 3.6 -1.2 5.3 -1.1l0.9 0.1l0 0l38.2 4.9c0 0 5.8 -5 5.8 -5l0.9 -0.7c5.2 -3.8 12.5 -3.3 17.1 1.1c0 0 0.8 0.9 0.8 0.9l29.7 34l0 0l0.7 0.9c3.8 5.2 3.3 12.5 -1.1 17.1l-0.9 0.8l-5.7 5l-0.2 38.5l0 0l0 0.9c0 1.6 -0.9 3.8 -1.8 5.1l-0.5 0.7l0 0l-20.7 26.7l0 0l-0.7 0.8c-1.2 1.3 -3.5 2.7 -5.2 3.1l-1 0.2l0 0l-79.7 13.7l0 0l-1 0.3c-12.1 1.9 -17.1 -14 -6 -19.4c0 0 1 -0.3 1 -0.3l68.4 -21.3l0 0l1 -0.4c3.7 -1.5 6.5 -5.3 6.8 -9.3l0 -1l0 0l-0.2 -23.8l0 0l-1 0.4c-4.7 1.9 -10.5 0.7 -14.1 -2.9l-0.8 -0.8l0 0c0 0 -10 -11.5 -10 -11.5l-0.7 -0.8c-3.1 -4.2 -3.5 -9.7 -1 -14.4l0.6 -0.9l0 0l-23.6 -3.4l-1 -0.1c-4.3 -0.1 -7.9 1.8 -10.1 5.5l-0.4 0.9l0 0c0 0 -30.2 64.9 -30.2 64.9l-0.5 1c-6.6 10.3 -22 3.1 -18.4 -8.5l0.4 -1l23.9 -77.1" transform="matrix(0.6561 -0.7547 0.7547 0.6561 -24.0661 178.3558)"></path><path fill="#db0707" d="m93.4226 204.955c7.5414 0 13.655 -6.1135 13.655 -13.6549c0 -7.5414 -6.1135 -13.655 -13.655 -13.655c-7.5414 0 -13.6549 6.1135 -13.655 13.655c0 0.5248 0.0296 1.0428 0.0873 1.5522l-44.7733 33.0535l-15.7674 36.7694l38.6424 -14.6792l35.4659 -42.4843l-0.5892 -0.569c0.1954 0.0083 0.3918 0.0125 0.5892 0.0125z" transform="matrix(0.9137 -0.9798 0.9798 0.9137 -90.1029 142.5385)" style="animation-name: eaf-13c16-2, eaf-13c16-3, eaf-13c16-4, eaf-13c16-5; animation-composition: replace, add, add, add;"></path></g><path fill="#01507b" d="m185.1 132.8l-1.3 0c-19.5 -0.4 -24.1 -26.5 -5.9 -33.5l1.3 -0.4l0 0l81 -21.1l0 0l0.7 -0.1c2.9 -0.4 5.3 2.2 4.7 5.1l-0.1 0.7l-0.6 1.8c-3.3 10.6 -1.2 22.2 5.5 31.1l1.1 1.4l0 0l0.4 0.5c1.5 2.5 0.2 5.7 -2.7 6.4l-0.7 0.1l-83.4 8z"></path><path fill="#f7e79c" d="m192.8 115.6l0 -1l-0.2 -1c-2.4 -10.1 -16.7 -9.4 -18.1 1l0 1l0 1c1.4 10.3 15.7 11.1 18.1 1l0.2 -1l0 -1z"></path></g></g><g><path fill="#01507b" d="m316.6 73.2l-1.4 -1c-27.2 -17 -56.6 15.3 -37.2 40.8l1.1 1.3l89.3 96l0.6 0.6c3.8 3.1 9.4 1.6 11.1 -3l0.2 -0.8l0.1 0l0.6 -2.4c4.6 -17.6 17.9 -32.2 35 -38.3l2.3 -0.8l0 -0.1l0.8 -0.3c4.5 -2 5.5 -8 2 -11.4l-0.6 -0.6l-103.9 -80z"></path><path fill="#f7e79c" d="m314.6 95.4l0 -1.3l-0.2 -1.3c-3.5 -17 -27.4 -16 -29.4 1.3l0 1.3l0 1.3c2 17.3 25.9 18.3 29.4 1.3l0.2 -1.3l0 -1.3z"></path></g></g></g></g></g></svg>