<svg xmlns="http://www.w3.org/2000/svg" viewBox="0 0 500 500" overflow="hidden" preserveAspectRatio="xMidYMid meet" id="eaf-12cb9-0"><defs><clipPath id="eaf-12cb9-1"><rect x="0" y="0" width="500" height="500"></rect></clipPath><style>#eaf-12cb9-0 * {animation: 6000ms linear infinite normal both running;offset-rotate:0deg}@keyframes eaf-12cb9-2{0%,100%{transform:translate(343.0382px,156.6735px)}}@keyframes eaf-12cb9-3{0%{transform:rotate(0);animation-timing-function:cubic-bezier(0,0,0.58,1)}28.88%{transform:rotate(17deg);animation-timing-function:ease-in-out}75%{transform:rotate(-19deg);animation-timing-function:ease-in}100%{transform:rotate(0)}}@keyframes eaf-12cb9-4{0%,100%{transform:translate(-347.35px,-154.3px)}}</style></defs><g clip-path="url('#eaf-12cb9-1')" style="isolation: isolate;"><g><g transform="matrix(4 0 0 4 -827.28 -2254.5264)"><path fill="#feca26" d="m331.7 626.3c0 15.6 0 31.3 0 46.9c0 7.2 -5.4 13.7 -12.5 15.1c-1 0.2 -2.1 0.3 -3.2 0.3c-31.2 0 -62.4 0 -93.6 0c-7.6 0 -14.3 -5.9 -15.3 -13.5c-0.1 -0.7 -0.1 -1.4 -0.1 -2c0 -31.3 0 -62.5 0 -93.8c0 -7.2 5.4 -13.7 12.5 -15.1c1 -0.2 2.1 -0.3 3.2 -0.3c31.2 0 62.4 0 93.6 0c7.2 0 13.7 5.4 15.1 12.5c0.2 1 0.3 2.1 0.3 3.2c0 15.6 0 31.1 0 46.7z"></path></g><ellipse fill="#00000017" rx="248.6736" ry="248.6736" transform="translate(250 250)"></ellipse><g transform="matrix(0.9146 0 0 0.9146 21.7436 25.5759)"><g transform="translate(-4.3118 2.3735)" style="animation-name: eaf-12cb9-2, eaf-12cb9-3, eaf-12cb9-4; animation-composition: replace, add, add;"><g style="filter: drop-shadow(rgba(0, 0, 0, 0.26) 10px 10px 4px);"><path fill="#01507b" d="m347.1 34.3c-66.1 0 -119.8 53.8 -119.8 120l0.1 0l0 1.6l-77 111.9c-1.2 0 -2.4 -0.1 -3.5 -0.1c-48.5 0 -87.9 39.3 -87.9 87.9c0 48.5 39.3 87.9 87.9 87.9c48.6 0 87.9 -39.3 87.9 -87.9c0 -0.9 0 -1.8 -0.1 -2.7l109.8 -78.5l2.7 0c66.1 0 119.8 -53.9 119.8 -120.1c0 -66.1 -53.7 -119.8 -119.9 -120z"></path></g><ellipse fill="#ffffff" rx="67.6" ry="67.6" transform="translate(146.9 355.6)"></ellipse><g style="filter: drop-shadow(rgba(0, 0, 0, 0.26) 10px 10px 4px);"><path fill="#01507b" d="m168 311.3l0 0l0 0c-1.6 -0.8 -3.2 -1.4 -4.9 -2l-307.1 -126.5l-50.4 87.3l322.2 130.7c0 0 0 0 0 0l1.3 0.5l0 0c5.5 2.1 11.5 3.3 17.7 3.3c27.1 0 49.1 -22 49.1 -49.1c0 -19.4 -11.4 -36.3 -27.9 -44.2z" transform="matrix(0.9228 0.3853 -0.3853 0.9228 148.3576 -29.1452)"></path></g></g><path fill="#fff" d="m347.3 234.3c44.1 -0.1 79.8 -35.9 79.9 -80c0 -44.1 -35.8 -79.8 -79.9 -80c-44.1 0.1 -79.8 35.9 -79.8 80c0 44.1 35.7 79.8 79.8 80" transform="matrix(0.9816 -0.1908 0.1908 0.9816 -27.3718 71.486)"></path><path fill="#01507b" d="m287.4 154.3c0 33.1 26.8 60 59.9 60.1c33.1 0 60 -26.9 60 -60.1c0 -33.2 -26.9 -60.1 -60 -60.1c-33.1 0.1 -60 27 -59.9 60.1l0 0z" transform="matrix(0.9816 -0.1908 0.1908 0.9816 -27.3718 71.4859)"></path></g></g></g></svg>