<svg xmlns="http://www.w3.org/2000/svg" viewBox="0 0 769 769" overflow="hidden" preserveAspectRatio="xMidYMid meet" id="eaf-be2b-0"><defs><clipPath id="eaf-be2b-1"><rect x="0" y="0" width="769" height="769"></rect></clipPath><style>#eaf-be2b-0 * {animation: 9000ms linear infinite normal both running;offset-rotate:0deg}@keyframes eaf-be2b-2{0%{fill:#d1d1d1}29.26%{fill:#d1d1d1}33.33%{fill:#fff;animation-timing-function:ease-in-out}35.92%{fill:#d1d1d1}38.89%{fill:#fff;animation-timing-function:ease-in-out}41.48%{fill:#d1d1d1}44.44%{fill:#fff;animation-timing-function:ease-in-out}47.03%{fill:#d1d1d1}50%{fill:#fff;animation-timing-function:ease-in-out}52.59%{fill:#d1d1d1}55.56%{fill:#fff;animation-timing-function:ease-in-out}58.14%{fill:#d1d1d1}61.11%{fill:#fff;animation-timing-function:ease-in-out}62.22%,100%{fill:#d1d1d1}}@keyframes eaf-be2b-3{0%,100%{transform:translate(204.4389px,577.1531px)}}@keyframes eaf-be2b-4{0%{transform:scale(1,1)}29.26%{transform:scale(1,1);animation-timing-function:ease-in-out}33.33%{transform:scale(1.1,1.1);animation-timing-function:ease-in-out}35.92%{transform:scale(1,1);animation-timing-function:ease-in-out}38.89%{transform:scale(1.1,1.1);animation-timing-function:ease-in-out}41.48%{transform:scale(1,1);animation-timing-function:ease-in-out}44.44%{transform:scale(1.1,1.1);animation-timing-function:ease-in-out}47.03%{transform:scale(1,1);animation-timing-function:ease-in-out}50%{transform:scale(1.1,1.1);animation-timing-function:ease-in-out}52.59%{transform:scale(1,1);animation-timing-function:ease-in-out}55.56%{transform:scale(1.1,1.1);animation-timing-function:ease-in-out}58.14%{transform:scale(1,1);animation-timing-function:ease-in-out}61.11%{transform:scale(1.1,1.1);animation-timing-function:ease-in-out}62.22%,100%{transform:scale(1,1)}}@keyframes eaf-be2b-5{0%,100%{transform:translate(-204.4389px,-577.1531px)}}@keyframes eaf-be2b-6{0%{fill:#bababa}30.74%{fill:#bababa;animation-timing-function:ease-in-out}34.44%{fill:#6eff0d;animation-timing-function:ease-in-out}38.14%{fill:#44ab00;animation-timing-function:ease-in-out}41.84%{fill:#6dff0c;animation-timing-function:ease-in-out}45.54%{fill:#bababa;animation-timing-function:ease-in-out}45.56%{fill:#4a0;animation-timing-function:ease-in-out}49.26%{fill:#6dff0c;animation-timing-function:ease-in-out}52.96%{fill:#bababa;animation-timing-function:ease-in-out}52.97%{fill:#4a0;animation-timing-function:ease-in-out}56.67%{fill:#6dff0c;animation-timing-function:ease-in-out}60.37%,100%{fill:#bababa}}@keyframes eaf-be2b-7{0%,100%{filter:none}}@keyframes eaf-be2b-8{0%{filter:drop-shadow(0 0 12px #0000)}30.74%{filter:drop-shadow(0 0 12px #0000)}34.44%{filter:drop-shadow(0 0 12px #37ff00)}38.14%{filter:drop-shadow(0 0 12px #0000)}41.84%{filter:drop-shadow(0 0 12px #37ff00)}45.54%{filter:drop-shadow(0 0 12px #6b6b6b)}45.56%{filter:drop-shadow(0 0 12px #0000)}49.26%{filter:drop-shadow(0 0 12px #37ff00)}52.96%{filter:drop-shadow(0 0 12px #6b6b6b)}52.97%{filter:drop-shadow(0 0 12px #6b6b6b)}56.67%{filter:drop-shadow(0 0 12px #37ff00)}60.37%,100%{filter:drop-shadow(0 0 12px #0000)}}@keyframes eaf-be2b-9{0%,100%{transform:none;offset-path:path("m289.0688 614.8375l0 0l144.1624 -161.775l0 0l-144.1624 161.775")}}@keyframes eaf-be2b-10{0%{offset-distance:0%}11.11%{offset-distance:0%}27.78%{offset-distance:50%}61.11%{offset-distance:50%}77.78%,100%{offset-distance:100%}}@keyframes eaf-be2b-11{0%,100%{transform:translate(-289.0688px,-614.8375px)}}</style></defs><g clip-path="url('#eaf-be2b-1')" style="isolation: isolate;"><g><path fill="#ffcb29" d="m768.1 385.5c0 96.2 0 192.5 0 288.8c0 44.1 -33.3 84.4 -76.7 92.7c-6.4 1.2 -13.1 1.9 -19.6 1.9c-191.9 0.1 -383.8 0.1 -575.7 0.1c-47 0 -88.1 -36.1 -94.2 -82.9c-0.6 -4.1 -0.9 -8.3 -0.9 -12.5c0 -192.4 0 -384.7 0 -577c0 -44.1 33.3 -84.5 76.7 -92.7c6.4 -1.3 13 -1.9 19.6 -1.9c192 -0.1 384.1 -0.1 576.1 -0.1c44.1 0 84.5 33.3 92.7 76.7c1.2 6.4 1.9 13.1 1.9 19.6c0.1 95.8 0.1 191.6 0.1 287.3z"></path><path fill="#01507b" d="m390.7 26.8c-198.7 0.3 -358.7 160.5 -358.5 359.2c0.1 198.1 160.4 357.9 359.1 357.8c197.5 -0.1 357.7 -160.9 357.6 -358.9c0 -13.5 -0.8 -26.8 -2.2 -39.8c-2.9 -25.5 -14.2 -49.4 -32.2 -67.7l-212 -214.7c-17.8 -18 -41.1 -29.7 -66.2 -32.9c-15 -2 -30.2 -3 -45.6 -3z"></path><g transform="translate(0 0)" style="animation-name: eaf-be2b-9, eaf-be2b-10, eaf-be2b-11; animation-composition: replace, add, add;"><path fill="#d1d1d1" d="m27.4 845.9c16.1 -18 31.5 -24.7 43.9 -30.2c9.6 -4.2 17.2 -7.6 27 -16.9c19.4 -18.5 37.5 -51.7 34.2 -84.2c-1.2 -12.3 -5.1 -19.8 -9.6 -28.6c-6.1 -11.9 -14.5 -28.2 -10.7 -51.1c4.8 -28.9 26 -53.3 63.1 -72.9l45 45c-42.5 17.5 -48.3 33.1 -49 37.7c-0.5 2.8 -0.1 4.2 4.9 13.9c5.8 11.2 13.6 26.5 16 50.1c4.6 46.3 -16 98.6 -52.5 133.4c-17.3 16.5 -32.2 23.1 -44.2 28.4c-9.9 4.4 -15.9 7 -23.4 15.3c-13.2 14.7 -42.7 126.6 -43.7 153.7l-69.2 26.4c1.5 -41.4 45.5 -194.6 68.2 -220z" style="animation-name: eaf-be2b-2, eaf-be2b-3, eaf-be2b-4, eaf-be2b-5; animation-composition: replace, replace, add, add;"></path><g><path fill="#fff" d="m612.4 272.8l-10.2 -10.2c-8.7 -8.7 -22.8 -8.7 -31.4 0l-85.7 85.7l41.6 41.6l85.8 -85.8c8.6 -8.5 8.6 -22.6 -0.0999 -31.3zm-26.8 32.5c-8.9 0 -16 -7.2 -16 -16c0 -8.9 7.2 -16 16 -16c8.8 0 16 7.2 16 16c0 8.8 -7.2 16 -16 16z"></path><path fill="#fff" d="m520.1 211.9c8.7 -8.7 8.7 -22.8 0 -31.4l-10.2 -10.2c-8.7 -8.7 -22.8 -8.7 -31.4 0l-85.7 85.7l41.6 41.6l85.7 -85.7zm-27.7 -30.3c8.9 0 16 7.2 16 16c0 8.9 -7.2 16 -16 16c-8.9 0 -16 -7.2 -16 -16c-0.1 -8.8 7.1 -16 16 -16z"></path></g><path fill="#f7e79c" d="m256.8 595.7l14.2 -14.2c0.7 -0.7 1.9 -0.7 2.7 0l0.4 0.4c29 29 76.1 29 105.1 0l149.3 -125.5c10.2 -10.2 10.2 -26.8 0 -37l-166.8 -166.8c-10.5 -10.5 -27.6 -10.5 -38.2 0l-124 148.8c-29.2 29.2 -29.2 76.6 0 105.9l0 0c0.7 0.7 0.7 1.9 0 2.7l-14.2 14.2c-9.6 9.6 -9.6 25.2 0 34.9l36.6 36.6c9.7 9.6 25.3 9.6 34.9 0z"></path><line x1="177.7" y1="492.8" x2="283.7" y2="598.8" fill="none" stroke="#01507b" stroke-width="10.6552" stroke-miterlimit="10"></line><path fill="#9b9b9b" d="m323.1 315l0 0l-94.3 113.2c0 0 0 0 -0.1 0.1l-1.2 1.2c-13.8 13.8 -13.8 36.2 0 49.9l74.2 74.2c5.1 5.1 11.6 8.8 18.7 10c11.5 2 22.8 -1.6 30.8 -9.7l1.2 -1.2c0 0 0 0 0.1 -0.1l113.1 -95.1l0 0l-142.5 -142.5z"></path><path fill="#fefadf" d="m326.7 542.7c-0.8 0 -1.7 -0.1 -2.6 -0.2c-2.5 -0.4 -5.1 -1.9 -7.3 -4.1l-74.2 -74.2c-5.4 -5.4 -5.4 -14.3 0 -19.8l1.1 -1.1l0.7 -0.7l0.8 -1l79.3 -95.2l109.6 109.6l-95.2 80.1l-0.9 0.7l-0.8 0.8l-1.1 1.1c-2.5 2.6 -5.9 4 -9.4 4l0 0z"></path><g style="animation-name: eaf-be2b-7, eaf-be2b-8; animation-composition: replace, add;"><ellipse fill="#bababa" stroke="#949494" stroke-width="6" rx="22.2375" ry="22.2375" transform="matrix(1.8 0 0 1.8 328.7 450.7724)" style="animation-name: eaf-be2b-6;"></ellipse></g><path fill="#fff" d="m0 0l9.59 -10.0711l9.11 -1.2l8.3 1.2l-8.3 10.0711l-18.7 11.2013l0 -11.2013z" transform="translate(301.7 439.5711)"></path></g><path fill="#ffcb29" d="m768 98.2c0 -6.5 -0.7 -13.2 -1.9 -19.6c-8.2 -43.4 -48.6 -76.7 -92.7 -76.7c-192 0 -384.1 0 -576.1 0.1c-6.6 0 -13.2 0.6 -19.6 1.9c-43.4 8.2 -76.7 48.6 -76.7 92.7c0 192.3 0 384.6 0 577c0 4.2 0.3 8.4 0.9 12.5c6.1 46.8 47.2 82.9 94.2 82.9c191.9 0 383.8 0 575.7 -0.1c6.5 0 13.2 -0.7 19.6 -1.9c43.4 -8.3 76.7 -48.6 76.7 -92.7c0 -96.3 0 -192.6 0 -288.8c0 -95.7 0 -191.5 -0.1 -287.3zm-376.7 645.5c-198.7 0.1 -359 -159.6 -359.1 -357.7c-0.2 -198.7 159.8 -358.9 358.5 -359.2c15.4 0 30.7 1 45.6 2.9c25.1 3.2 48.4 14.9 66.2 32.9l211.9 214.6c18.1 18.3 29.4 42.2 32.2 67.7c1.5 13.1 2.2 26.4 2.2 39.8c0.2 198.1 -160.1 359 -357.5001 359z" transform="translate(0.9 -0.55)"></path></g></g></svg>