<svg xmlns="http://www.w3.org/2000/svg" viewBox="0 0 500 500" overflow="hidden" preserveAspectRatio="xMidYMid meet" id="eaf-fc8b-0"><defs><clipPath id="eaf-fc8b-1"><rect x="0" y="0" width="500" height="500"></rect></clipPath><style>#eaf-fc8b-0 * {animation: 16000ms linear infinite normal both running;offset-rotate:0deg}@keyframes eaf-fc8b-2{0%,100%{transform:none;offset-path:path("m249.95 62.7937l0 0l0 197.8563l0 0l0 -197.8563")}}@keyframes eaf-fc8b-3{0%{offset-distance:0%}5%{offset-distance:0%;animation-timing-function:cubic-bezier(0,0,0.58,1)}37.5%{offset-distance:50%}71.46%{offset-distance:50%;animation-timing-function:ease-in-out}100%{offset-distance:100%}}@keyframes eaf-fc8b-4{0%,100%{transform:matrix(0.8408,0,0,0.8408,-210.1532,-219.1915)}}</style></defs><g clip-path="url('#eaf-fc8b-1')" style="isolation: isolate;"><g><g transform="matrix(4 0 0 4 -887.0233 -2344.0063)"><path fill="#666666" d="m346.6 648.7c0 15.6 0 31.3 0 46.9c0 7.2 -5.4 13.7 -12.5 15.1c-1 0.2 -2.1 0.3 -3.2 0.3c-31.2 0 -62.4 0 -93.6 0c-7.6 0 -14.3 -5.9 -15.3 -13.5c-0.1 -0.7 -0.1 -1.4 -0.1 -2c0 -31.3 0 -62.5 0 -93.8c0 -7.2 5.4 -13.7 12.5 -15.1c1 -0.2 2.1 -0.3 3.2 -0.3c31.2 0 62.4 0 93.6 0c7.2 0 13.7 5.4 15.1 12.5c0.2 1 0.3 2.1 0.3 3.2c0 15.4999 0 31.0999 0 46.7z"></path></g><g transform="matrix(0.8408 0 0 0.8408 39.7968 -156.3978)" style="animation-name: eaf-fc8b-2, eaf-fc8b-3, eaf-fc8b-4; animation-composition: replace, add, add;"><path fill="none" stroke="#000000" stroke-width="40" stroke-linejoin="round" d="m111.7 47.8l276.5 0l0 202.4l74.4 0l-212.6 223.3l-212.7 -223.3l74.4 0l0 -202.4l0 0z"></path><path fill="#ffb300" fill-rule="evenodd" d="m111.7 47.8l276.5 0l0 202.4l74.4 0l-212.6 223.3l-212.7 -223.3l74.4 0l0 -202.4z"></path><path fill="#ffca28" fill-rule="evenodd" d="m250 473.6l-138 -425.7l275.9 0l-137.9 425.7z"></path></g><g transform="matrix(0.8408 0 0 0.8408 39.8464 55.4623)"><path fill="#000000" d="m312.5 296.3c0 -9.5 0.4 -18.4 -0.1 -27.3c-0.6 -9.2 7.8 -19.3 18.7 -18.7c15 0.8 30.2 0.2 45.3 0.2c10 0 17.4 7.3 17.5 17.5c0.1 9.3 0 18.6 0 28.4c2.1 0 3.8 0 5.4 0c15.6 0 31.2 0 46.8 0c9 0 15.7 6.6 16 15.7c0 0.7 0 1.4 0 2c0 38 0 76 0 114c0 11.1 -6.8 18.1 -17.9 18.1c-37.8 0.1 -75.6 0 -113.5 0c-1 0 -2.2 0.2 -3 -0.2c-5.8 -3.1 -11.8 -1.2 -17.9 -1.2c-39.3 0.3 -78.7 0.2 -118 0.1c-2.5 0 -4.9 -0.8 -7.4 -1.1c-1.4 -0.2 -2.8 -0.2 -4.2 0c-4.4 0.7 -8.9 2.2 -13.3 2.3c-36 0.2 -71.9 -0.2 -107.9 0.3c-12.6 0.2 -21.2 -8.8 -20.4 -20.4c0.4 -6.4 -0.8 -13 0.3 -19.3c1.5 -8.7 0.6 -17 0.2 -25.7c-1.1 -22 -0.4 -44.1 -0.4 -66.1c0 -11.7 6.8 -18.5 18.4 -18.5c37.1 0 74.3 0.2 111.4 -0.1c7.2 -0.1 13.8 3.4 21.7 0.7c7 -2.4 15.4 -0.5 23.2 -0.5c7.6 0 15.3 0 22.9 0c23.2 0 46.5 0 69.7 0c1.9 -0.2 3.8 -0.2 6.5 -0.2zm17.6 -28.4c0 53.8 0 107.1 0 160.4c38.4 0 76.5 0 114.7 0c0 -38.3 0 -76.3 0 -114.8c-22.8 0 -45.3 0 -68.3 0c0 -15.4 0 -30.4 0 -45.6c-15.8 0 -31 0 -46.4 0zm-136.7 90.5c0 23.7 0 46.8 0 69.8c38.5 0 76.5 0 114.6 0c0 -38.3 0 -76.2 0 -114.2c-38.4 0 -76.6 0 -114.8 0c0 7.8 0 15.2 0 23.3c22.9 0 45.5 0 67.9 0c0 7.4 0 14.1 0 21.1c-22.5 0 -44.9 0 -67.7 0zm-22.5 0.2c-22.5 0 -44.9 0 -67.5 0c0 -7.5 0 -14.3 0 -21.7c22.7 0 45 0 67.2 0c0 -8.1 0 -15.6 0 -23c-38.3 0 -76.2 0 -114.3 0c0 23.1 0 45.9 0 69.1c22.7 0 45 0 67.6 0c0 7.3 0 14.1 0 21.7c-22.7 0 -45.2 0 -67.6 0c0 8.3 0 15.8 0 23.6c38.3 0 76.3 0 114.5 0c0.1 -23.3 0.1 -46.2 0.1 -69.7z"></path><path fill="#fff" d="m330.1 267.9c15.5 0 30.6 0 46.4 0c0 15.2 0 30.2 0 45.6c23 0 45.5 0 68.3 0c0 38.5 0 76.5 0 114.8c-38.2 0 -76.3 0 -114.7 0c0 -53.3 0 -106.6 0 -160.4zm46.7 69.4c0 22.5 0 44.6 0 66.8c7.1 0 14 0 20.9 0c0 -22.4 0 -44.5 0 -66.8c-7 0 -13.7 0 -20.9 0z"></path><path fill="#fff" d="m193.4 358.4c22.8 0 45.1 0 67.8 0c0 -7 0 -13.8 0 -21.1c-22.5 0 -45.1 0 -67.9 0c0 -8.1 0 -15.5 0 -23.3c38.2 0 76.3 0 114.8 0c0 38 0 75.9 0 114.2c-38.1 0 -76.1 0 -114.6 0c-0.1 -23 -0.1 -46.1 -0.1 -69.8zm67.9 45.8c0 -7.3 0 -14 0 -20.9c-7.1 0 -13.9 0 -20.7 0c0 7.2 0 14 0 20.9c7 0 13.7 0 20.7 0z"></path><path fill="#fff" d="m170.9 358.6c0 23.6 0 46.4 0 69.7c-38.2 0 -76.2 0 -114.5 0c0 -7.8 0 -15.3 0 -23.6c22.5 0 44.9 0 67.6 0c0 -7.5 0 -14.4 0 -21.7c-22.6 0 -44.9 0 -67.6 0c0 -23.2 0 -46 0 -69.1c38 0 76 0 114.3 0c0 7.5 0 15 0 23c-22.2 0 -44.5 0 -67.2 0c0 7.3 0 14.2 0 21.7c22.5 0 44.9 0 67.4 0z"></path><path fill="#000000" d="m376.8 337.3c7.2 0 13.9 0 20.9 0c0 22.3 0 44.4 0 66.8c-7 0 -13.8 0 -20.9 0c0 -22.2 0 -44.3 0 -66.8z"></path><path fill="#000000" d="m261.3 404.2c-7 0 -13.7 0 -20.7 0c0 -6.9 0 -13.8 0 -20.9c6.8 0 13.6 0 20.7 0c0 6.9 0 13.5 0 20.9z"></path></g></g></g></svg>