<svg xmlns="http://www.w3.org/2000/svg" viewBox="0 0 500 500" overflow="hidden" preserveAspectRatio="xMidYMid meet" id="eaf-74ea-0"><defs><clipPath id="eaf-74ea-1"><rect x="0" y="0" width="500" height="500"></rect></clipPath><style>#eaf-74ea-0 * {animation: 10000ms linear infinite normal both running;offset-rotate:0deg}@keyframes eaf-74ea-2{0%,100%{transform:none;offset-path:path("m113.2841 324.5154l0 0l0 -53.9281l0 -31.2347")}}@keyframes eaf-74ea-3{0%{offset-distance:0%}51.33%{offset-distance:0%;animation-timing-function:ease-in-out}58.67%{offset-distance:63.3235%;animation-timing-function:ease-in-out}70%,100%{offset-distance:100%}}@keyframes eaf-74ea-4{0%,100%{transform:matrix(0,1,-1,0,0,0)}}@keyframes eaf-74ea-5{0%{transform:scale(0.26,1.1053)}51.33%{transform:scale(0.26,1.1053);animation-timing-function:ease-in-out}58.67%{transform:scale(1,1.1053);animation-timing-function:ease-in-out}70%,100%{transform:scale(0.95,1.1053)}}@keyframes eaf-74ea-6{0%,100%{transform:translate(-141.6291px,-28.2601px)}}@keyframes eaf-74ea-7{0%{opacity:0}28.67%{opacity:0;animation-timing-function:ease-in-out}31.67%,100%{opacity:1}}@keyframes eaf-74ea-8{0%,100%{transform:none;offset-path:path("m366.7042 342.6873l0 0l-119.8 0l-2 0")}}@keyframes eaf-74ea-9{0%{offset-distance:0%}40.67%{offset-distance:0%;animation-timing-function:ease-in-out}48.33%{offset-distance:98.358%;animation-timing-function:ease-in-out}70%,100%{offset-distance:100%}}@keyframes eaf-74ea-10{0%,100%{transform:matrix(0.7435,0,0,1.1053,-104.7281,-31.2347)}}@keyframes eaf-74ea-11{0%,100%{transform:none;offset-path:path("m366.7042 135.822l0 0l-116.7042 0l-2 0")}}@keyframes eaf-74ea-12{0%{offset-distance:0%}30%{offset-distance:0%;animation-timing-function:ease-in-out}38.33%{offset-distance:98.3151%;animation-timing-function:ease-in-out}70%,100%{offset-distance:100%}}@keyframes eaf-74ea-13{0%,100%{transform:matrix(0.7435,0,0,1.1053,-105.3,-31.2347)}}@keyframes eaf-74ea-14{0%,100%{transform:none;offset-path:path("m217.6747 239.2546l0 0l-367.1747 -8.2")}}@keyframes eaf-74ea-15{0%{offset-distance:0%}85.67%{offset-distance:0%;animation-timing-function:ease-in-out}96.33%,100%{offset-distance:100%}}@keyframes eaf-74ea-16{0%{transform:rotate(0)}81.67%{transform:rotate(0);animation-timing-function:ease-in-out}88.67%,100%{transform:rotate(-180deg)}}@keyframes eaf-74ea-17{0%,100%{transform:translate(-217.6747px,-239.2546px)}}@keyframes eaf-74ea-18{0%{fill:#f4b526}25%{fill:#f4b526;animation-timing-function:ease-in-out}25.67%,100%{fill:#ffffff}}@keyframes eaf-74ea-19{0%,100%{transform:none;offset-path:path("m374.6205 216.3572l0 0l-260.9955 225.1366l0 0l0 248.1851")}}@keyframes eaf-74ea-20{0%{offset-distance:0%}13.67%{offset-distance:0%;animation-timing-function:ease-in-out}25%{offset-distance:58.1381%}70%{offset-distance:58.1381%;animation-timing-function:ease-in}77.33%,100%{offset-distance:100%}}@keyframes eaf-74ea-21{0%,100%{transform:matrix(0.8,0,0,0.87,-301.2002,-215.9775)}}@keyframes eaf-74ea-22{0%{fill:#f4b526}20%{fill:#f4b526;animation-timing-function:ease-in-out}20.67%,100%{fill:#ffffff}}@keyframes eaf-74ea-23{0%,100%{transform:none;offset-path:path("m374.6205 443.1411l0 0l-258.9955 -225.149l0 0l0 -251.4772")}}@keyframes eaf-74ea-24{0%{offset-distance:0%}10%{offset-distance:0%;animation-timing-function:ease-in-out}20%{offset-distance:57.7104%}70%{offset-distance:57.7104%;animation-timing-function:ease-in}77.33%,100%{offset-distance:100%}}@keyframes eaf-74ea-25{0%,100%{transform:matrix(0.8,0,0,0.8778,-301.2002,-217.9028)}}@keyframes eaf-74ea-26{0%{opacity:1;animation-timing-function:ease-in-out}8.33%{opacity:0.8905;animation-timing-function:ease-in-out}13%{opacity:0}94.33%{opacity:0;animation-timing-function:ease-in-out}100%{opacity:1}}</style></defs><g clip-path="url('#eaf-74ea-1')" style="isolation: isolate;"><g><g transform="matrix(4 0 0 4 -827.28 -2254.5264)"><path fill="#888888" d="m331.8 626.1c0 15.6 0 31.3 0 46.9c0 7.2 -5.4 13.7 -12.5 15.1c-1 0.2 -2.1 0.3 -3.2 0.3c-31.2 0 -62.4 0 -93.6 0c-7.6 0 -14.3 -5.9 -15.3 -13.5c-0.1 -0.7 -0.1 -1.4 -0.1 -2c0 -31.3 0 -62.5 0 -93.8c0 -7.2 5.4 -13.7 12.5 -15.1c1 -0.2 2.1 -0.3 3.2 -0.3c31.2 0 62.4 0 93.6 0c7.2 0 13.7 5.4 15.1 12.5c0.2 1 0.3 2.1 0.3 3.2c0 15.6 0 31.1 0 46.7z"></path></g><g transform="translate(0 0)" style="animation-name: eaf-74ea-14, eaf-74ea-15, eaf-74ea-16, eaf-74ea-17; animation-composition: replace, add, add, add;"><rect fill="#ffffff" width="283.2582" height="56.5202" transform="matrix(0 0.26 -1.1053 0 144.5188 287.6918)" opacity="0" style="animation-name: eaf-74ea-2, eaf-74ea-3, eaf-74ea-4, eaf-74ea-5, eaf-74ea-6, eaf-74ea-7; animation-composition: replace, add, add, add, add, replace;"></rect><rect fill="#ffffff" width="283.2582" height="56.5202" transform="matrix(0.7435 0 0 1.1053 261.9761 311.4525)" style="animation-name: eaf-74ea-8, eaf-74ea-9, eaf-74ea-10; animation-composition: replace, add, add;"></rect><rect fill="#ffffff" width="283.2582" height="56.5202" transform="matrix(0.7435 0 0 1.1053 261.4042 104.5872)" style="animation-name: eaf-74ea-11, eaf-74ea-12, eaf-74ea-13; animation-composition: replace, add, add;"></rect></g><g><rect fill="#fefadf" width="81" height="73.2" transform="translate(-190 -3.5)"></rect><rect fill="#000000" stroke="#f04d28" stroke-miterlimit="10" width="81" height="73.2" transform="translate(-190 90)"></rect><rect fill="#ffffff" width="81" height="73.2" transform="translate(-190 183.5)"></rect><rect fill="#bcbcbc" width="81" height="73.2" transform="translate(-190 277.1)"></rect><rect fill="#f7e79c" width="81" height="73.2" transform="translate(-190 370.6)"></rect><rect fill="#f7e79c" width="81" height="73.2" transform="translate(-190 370.6)"></rect><rect fill="#f4b526" width="81" height="73.2" transform="translate(-190 463.4)"></rect><rect fill="#e1f3fd" width="81" height="73.2" transform="translate(-190 557.6)"></rect></g><g transform="matrix(0.8 0 0 0.87 73.4203 0.3797)" style="animation-name: eaf-74ea-19, eaf-74ea-20, eaf-74ea-21; animation-composition: replace, add, add;"><path fill="#000000" d="m451.2 463.4c18.1 0 32.9 -14.7 32.8 -32.9l0 -364.5c0 -18.2 -14.7 -32.9 -32.9 -32.9l-149.2 0c-18.2 0 -32.9 14.7 -32.9 32.9l0 364.5c0 18.2 14.7 32.9 32.9 32.9l149.3 0z" transform="matrix(1 0 0 0.546 1.0997 17.7695)"></path><path fill="#fefadf" d="m301.9 445.4c-8.2 0 -14.9 -6.7 -14.9 -14.9l0 -364.5c0 -8.2 6.7 -14.9 14.9 -14.9l149.2 0c8.2 0 14.9 6.7 14.9 14.9l0 364.5c0 8.2 -6.7 14.9 -14.9 14.9l-149.2 0z" transform="matrix(1 0 0 0.5176 1.9 23.823)"></path><g transform="translate(0 -16.092)"><rect fill="#c6c6c6" width="124.1" height="71.9" transform="translate(314.1 97.9)"></rect><path fill="#000000" d="m438.2 89.7l-124.1 0c-2.7 0.1 -5 3.7 -5 8.2l0 71.9c0 4.5 2.3 8.1 5 8.2l124.1 0c2.7 -0.1 5 -3.7 5 -8.2l0 -71.9c0 -10.5 -10 -10.5 -10 0l0 71.9l5 -8.2l-124.1 0l5 8.2l0 -71.9l-5 8.2l124.1 0c6.4 0 6.4 -16.4 0 -16.4z"></path></g><g transform="translate(0 -178.8092)"><path fill="#f4b526" d="m376.1 381c-9.7 -0.2 -17.6 7.5 -17.8 17.1c0 0.2 0 0.4 0 0.6c-0.5 9.5 6.8 17.6 16.3 18.1c0.5 0 1 0 1.5 0c10.8 0 17.8 -7.4 17.8 -18.1c0.1 -9.7 -7.6 -17.6 -17.2 -17.7c-0.2 0 -0.4 0 -0.6 0z" style="animation-name: eaf-74ea-18;"></path><path fill="#000000" d="m376.1 376c-10 0 -18.8 6.4 -21.8 15.9c-2.8 9.1 0.1 19 7.4 25.1c7.7 5.7 18 6.4 26.4 1.8c8.4 -4.8 11.9 -14.7 10.5 -24c-1.9 -10.9 -11.4 -18.9 -22.5 -18.8c-2.8 0 -5 2.2 -5 5c0 2.8 2.2 5 5 5c0.5 0 1 0 1.6 0.1c1.5 0.1 -0.8 -0.2 0.7 0.1c0.8 0.2 1.6 0.4 2.3 0.6c0.3 0.1 0.6 0.2 0.9 0.3c-1 -0.4 0.4 0.2 0.5 0.3c0.8 0.4 1.6 0.9 2.3 1.5c-0.8 -0.6 0.3 0.3 0.4 0.4c0.2 0.2 0.4 0.4 0.6 0.6c0.3 0.3 0.6 0.7 0.9 1c-0.6 -0.7 0 0 0.2 0.2c0.5 0.7 0.8 1.4 1.3 2.1c0.1 0.1 0.4 0.9 0.1 0c0.2 0.6 0.4 1.1 0.6 1.7c0.2 0.7 0.4 1.5 0.5 2.3c-0.1 -1 0 0.1 0 0.3c0 0.4 0 0.8 0 1.2c0 0.8 0 1.6 -0.1 2.4c0.1 -1.1 -0.1 0.4 -0.1 0.5c-0.1 0.5 -0.2 1 -0.4 1.5c-0.1 0.4 -0.2 0.7 -0.3 1.1c-0.1 0.2 -0.7 1.4 -0.2 0.4c-0.3 0.6 -0.6 1.3 -1 1.9c-0.2 0.3 -0.4 0.6 -0.6 0.9c-0.5 0.6 0.8 -0.8 -0.1 0.1c-0.6 0.6 -1.2 1.2 -1.8 1.7c0.8 -0.7 -0.7 0.5 -1.1 0.7c-0.4 0.2 -0.8 0.4 -1.1 0.6c-1.2 0.7 0.6 -0.2 -0.2 0.1c-0.8 0.3 -1.6 0.5 -2.4 0.7c-0.3 0.1 -0.6 0.1 -0.9 0.2c-0.6 0.1 -0.6 0.1 -0.1 0c-0.3 0 -0.6 0.1 -1 0.1c-0.8 0.1 -1.6 0.1 -2.5 0c-0.5 0 -1 -0.1 -1.4 -0.1c0.2 0 0.9 0.2 -0.1 0c-0.8 -0.2 -1.6 -0.4 -2.4 -0.6c-0.4 -0.1 -0.7 -0.2 -1 -0.4c1 0.4 -0.4 -0.2 -0.6 -0.3c-0.7 -0.4 -1.4 -0.8 -2 -1.3c0.8 0.6 -0.7 -0.7 -0.9 -0.9c-0.2 -0.2 -0.5 -0.5 -0.7 -0.8c-0.5 -0.6 0.6 1 -0.1 -0.2c-0.5 -0.7 -0.9 -1.5 -1.3 -2.2c-0.7 -1.2 0.2 0.9 -0.2 -0.4c-0.1 -0.3 -0.2 -0.6 -0.3 -0.9c-0.3 -0.9 -0.5 -1.8 -0.6 -2.7c0 0.2 0.1 0.9 0 -0.1c0 -0.5 -0.1 -1 -0.1 -1.5c0 -0.4 0 -0.8 0 -1.2c0 -0.2 0.2 -1.8 0 -0.8c0.1 -0.9 0.3 -1.8 0.6 -2.7c0.1 -0.4 0.3 -0.9 0.5 -1.3c-0.3 0.8 0.1 -0.2 0.3 -0.4c0.4 -0.8 0.9 -1.6 1.4 -2.3c-0.6 0.8 0.3 -0.3 0.4 -0.4c0.3 -0.3 0.6 -0.7 1 -1c0.1 -0.1 1.2 -1 0.4 -0.4c0.4 -0.3 0.7 -0.5 1.1 -0.8c0.4 -0.2 0.8 -0.5 1.2 -0.7c0.2 -0.1 1.3 -0.6 0.5 -0.3c0.9 -0.4 1.8 -0.6 2.8 -0.8c0.1 0 1.6 -0.2 0.6 -0.1c0.7 -0.1 1.4 -0.1 2.1 -0.1c2.8 0 5 -2.2 5 -5c-0.2 -2.7001 -2.4 -4.9001 -5.2 -4.9001l0 0z"></path></g></g><g transform="matrix(0.8 0 0 0.8778 73.4203 225.2382)" style="animation-name: eaf-74ea-23, eaf-74ea-24, eaf-74ea-25; animation-composition: replace, add, add;"><path fill="#000000" d="m451.2 463.4c18.1 0 32.9 -14.7 32.8 -32.9l0 -364.5c0 -18.2 -14.7 -32.9 -32.9 -32.9l-149.2 0c-18.2 0 -32.9 14.7 -32.9 32.9l0 364.5c0 18.2 14.7 32.9 32.9 32.9l149.3 0z" transform="matrix(1 0 0 0.546 1.0997 17.7695)"></path><path fill="#fff" d="m301.9 445.4c-8.2 0 -14.9 -6.7 -14.9 -14.9l0 -364.5c0 -8.2 6.7 -14.9 14.9 -14.9l149.2 0c8.2 0 14.9 6.7 14.9 14.9l0 364.5c0 8.2 -6.7 14.9 -14.9 14.9l-149.2 0z" transform="matrix(1 0 0 0.5176 1.9 23.823)"></path><g transform="translate(0 -15.9498)"><rect fill="#c6c6c6" width="124.1" height="71.9" transform="translate(314.1 97.9)"></rect><path fill="#000000" d="m438.2 89.7l-124.1 0c-2.7 0.1 -5 3.7 -5 8.2l0 71.9c0 4.5 2.3 8.1 5 8.2l124.1 0c2.7 -0.1 5 -3.7 5 -8.2l0 -71.9c0 -10.5 -10 -10.5 -10 0l0 71.9l5 -8.2l-124.1 0l5 8.2l0 -71.9l-5 8.2l124.1 0c6.4 0 6.4 -16.4 0 -16.4z"></path></g><g transform="translate(0 -178.8092)"><path fill="#f4b526" d="m376.1 381c-9.7 -0.2 -17.6 7.5 -17.8 17.1c0 0.2 0 0.4 0 0.6c-0.5 9.5 6.8 17.6 16.3 18.1c0.5 0 1 0 1.5 0c10.8 0 17.8 -7.4 17.8 -18.1c0.1 -9.7 -7.6 -17.6 -17.2 -17.7c-0.2 0 -0.4 0 -0.6 0z" style="animation-name: eaf-74ea-22;"></path><path fill="#000000" d="m376.1 376c-10 0 -18.8 6.4 -21.8 15.9c-2.8 9.1 0.1 19 7.4 25.1c7.7 5.7 18 6.4 26.4 1.8c8.4 -4.8 11.9 -14.7 10.5 -24c-1.9 -10.9 -11.4 -18.9 -22.5 -18.8c-2.8 0 -5 2.2 -5 5c0 2.8 2.2 5 5 5c0.5 0 1 0 1.6 0.1c1.5 0.1 -0.8 -0.2 0.7 0.1c0.8 0.2 1.6 0.4 2.3 0.6c0.3 0.1 0.6 0.2 0.9 0.3c-1 -0.4 0.4 0.2 0.5 0.3c0.8 0.4 1.6 0.9 2.3 1.5c-0.8 -0.6 0.3 0.3 0.4 0.4c0.2 0.2 0.4 0.4 0.6 0.6c0.3 0.3 0.6 0.7 0.9 1c-0.6 -0.7 0 0 0.2 0.2c0.5 0.7 0.8 1.4 1.3 2.1c0.1 0.1 0.4 0.9 0.1 0c0.2 0.6 0.4 1.1 0.6 1.7c0.2 0.7 0.4 1.5 0.5 2.3c-0.1 -1 0 0.1 0 0.3c0 0.4 0 0.8 0 1.2c0 0.8 0 1.6 -0.1 2.4c0.1 -1.1 -0.1 0.4 -0.1 0.5c-0.1 0.5 -0.2 1 -0.4 1.5c-0.1 0.4 -0.2 0.7 -0.3 1.1c-0.1 0.2 -0.7 1.4 -0.2 0.4c-0.3 0.6 -0.6 1.3 -1 1.9c-0.2 0.3 -0.4 0.6 -0.6 0.9c-0.5 0.6 0.8 -0.8 -0.1 0.1c-0.6 0.6 -1.2 1.2 -1.8 1.7c0.8 -0.7 -0.7 0.5 -1.1 0.7c-0.4 0.2 -0.8 0.4 -1.1 0.6c-1.2 0.7 0.6 -0.2 -0.2 0.1c-0.8 0.3 -1.6 0.5 -2.4 0.7c-0.3 0.1 -0.6 0.1 -0.9 0.2c-0.6 0.1 -0.6 0.1 -0.1 0c-0.3 0 -0.6 0.1 -1 0.1c-0.8 0.1 -1.6 0.1 -2.5 0c-0.5 0 -1 -0.1 -1.4 -0.1c0.2 0 0.9 0.2 -0.1 0c-0.8 -0.2 -1.6 -0.4 -2.4 -0.6c-0.4 -0.1 -0.7 -0.2 -1 -0.4c1 0.4 -0.4 -0.2 -0.6 -0.3c-0.7 -0.4 -1.4 -0.8 -2 -1.3c0.8 0.6 -0.7 -0.7 -0.9 -0.9c-0.2 -0.2 -0.5 -0.5 -0.7 -0.8c-0.5 -0.6 0.6 1 -0.1 -0.2c-0.5 -0.7 -0.9 -1.5 -1.3 -2.2c-0.7 -1.2 0.2 0.9 -0.2 -0.4c-0.1 -0.3 -0.2 -0.6 -0.3 -0.9c-0.3 -0.9 -0.5 -1.8 -0.6 -2.7c0 0.2 0.1 0.9 0 -0.1c0 -0.5 -0.1 -1 -0.1 -1.5c0 -0.4 0 -0.8 0 -1.2c0 -0.2 0.2 -1.8 0 -0.8c0.1 -0.9 0.3 -1.8 0.6 -2.7c0.1 -0.4 0.3 -0.9 0.5 -1.3c-0.3 0.8 0.1 -0.2 0.3 -0.4c0.4 -0.8 0.9 -1.6 1.4 -2.3c-0.6 0.8 0.3 -0.3 0.4 -0.4c0.3 -0.3 0.6 -0.7 1 -1c0.1 -0.1 1.2 -1 0.4 -0.4c0.4 -0.3 0.7 -0.5 1.1 -0.8c0.4 -0.2 0.8 -0.5 1.2 -0.7c0.2 -0.1 1.3 -0.6 0.5 -0.3c0.9 -0.4 1.8 -0.6 2.8 -0.8c0.1 0 1.6 -0.2 0.6 -0.1c0.7 -0.1 1.4 -0.1 2.1 -0.1c2.8 0 5 -2.2 5 -5c-0.2 -2.7001 -2.4 -4.9001 -5.2 -4.9001l0 0z"></path></g></g><g transform="translate(-8.924 -1.5127)"><path fill="#000000" d="m451.2 463.4l-149.3 0c-18.2 0 -32.9 -14.7 -32.9 -32.9l0 -364.5c0 -18.2 14.7 -32.9 32.9 -32.9l149.2 0c18.2 0 32.9 14.7 32.9 32.9l0 364.5c0.1 18.2 -14.7 32.9 -32.8 32.9z"></path><path fill="#fefadf" d="m301.9 445.4c-8.2 0 -14.9 -6.7 -14.9 -14.9l0 -364.5c0 -8.2 6.7 -14.9 14.9 -14.9l149.2 0c8.2 0 14.9 6.7 14.9 14.9l0 364.5c0 8.2 -6.7 14.9 -14.9 14.9l-149.2 0z"></path><path fill="#f4b526" d="m376.1 381c-9.7 -0.2 -17.6 7.5 -17.8 17.1c0 0.2 0 0.4 0 0.6c-0.5 9.5 6.8 17.6 16.3 18.1c0.5 0 1 0 1.5 0c10.8 0 17.8 -7.4 17.8 -18.1c0.1 -9.7 -7.6 -17.6 -17.2 -17.7c-0.2 0 -0.4 0 -0.6 0z"></path><path fill="#000000" d="m438.2 89.7l-124.1 0c-2.7 0.1 -5 3.7 -5 8.2l0 71.9c0 4.5 2.3 8.1 5 8.2l124.1 0c2.7 -0.1 5 -3.7 5 -8.2l0 -71.9c0 -10.5 -10 -10.5 -10 0l0 71.9l5 -8.2l-124.1 0l5 8.2l0 -71.9l-5 8.2l124.1 0c6.4 0 6.4 -16.4 0 -16.4z"></path><path fill="#000000" d="m446.6 267.1l-141 0c-6.4 0 -6.5 10 0 10l141 0c6.5 0 6.5 -10 0 -10z"></path><path fill="#000000" d="m446.6 303.2l-141 0c-6.4 0 -6.5 10 0 10l141 0c6.5 0 6.5 -10 0 -10z"></path><path fill="#000000" d="m446.6 339.2l-141 0c-6.4 0 -6.5 10 0 10l141 0c6.5 0 6.5 -10 0 -10z"></path><path fill="#000000" d="m376.1 376c-10 0 -18.8 6.4 -21.8 15.9c-2.8 9.1 0.1 19 7.4 25.1c7.7 5.7 18 6.4 26.4 1.8c8.4 -4.8 11.9 -14.7 10.5 -24c-1.9 -10.9 -11.4 -18.9 -22.5 -18.8c-2.8 0 -5 2.2 -5 5c0 2.8 2.2 5 5 5c0.5 0 1 0 1.6 0.1c1.5 0.1 -0.8 -0.2 0.7 0.1c0.8 0.2 1.6 0.4 2.3 0.6c0.3 0.1 0.6 0.2 0.9 0.3c-1 -0.4 0.4 0.2 0.5 0.3c0.8 0.4 1.6 0.9 2.3 1.5c-0.8 -0.6 0.3 0.3 0.4 0.4c0.2 0.2 0.4 0.4 0.6 0.6c0.3 0.3 0.6 0.7 0.9 1c-0.6 -0.7 0 0 0.2 0.2c0.5 0.7 0.8 1.4 1.3 2.1c0.1 0.1 0.4 0.9 0.1 0c0.2 0.6 0.4 1.1 0.6 1.7c0.2 0.7 0.4 1.5 0.5 2.3c-0.1 -1 0 0.1 0 0.3c0 0.4 0 0.8 0 1.2c0 0.8 0 1.6 -0.1 2.4c0.1 -1.1 -0.1 0.4 -0.1 0.5c-0.1 0.5 -0.2 1 -0.4 1.5c-0.1 0.4 -0.2 0.7 -0.3 1.1c-0.1 0.2 -0.7 1.4 -0.2 0.4c-0.3 0.6 -0.6 1.3 -1 1.9c-0.2 0.3 -0.4 0.6 -0.6 0.9c-0.5 0.6 0.8 -0.8 -0.1 0.1c-0.6 0.6 -1.2 1.2 -1.8 1.7c0.8 -0.7 -0.7 0.5 -1.1 0.7c-0.4 0.2 -0.8 0.4 -1.1 0.6c-1.2 0.7 0.6 -0.2 -0.2 0.1c-0.8 0.3 -1.6 0.5 -2.4 0.7c-0.3 0.1 -0.6 0.1 -0.9 0.2c-0.6 0.1 -0.6 0.1 -0.1 0c-0.3 0 -0.6 0.1 -1 0.1c-0.8 0.1 -1.6 0.1 -2.5 0c-0.5 0 -1 -0.1 -1.4 -0.1c0.2 0 0.9 0.2 -0.1 0c-0.8 -0.2 -1.6 -0.4 -2.4 -0.6c-0.4 -0.1 -0.7 -0.2 -1 -0.4c1 0.4 -0.4 -0.2 -0.6 -0.3c-0.7 -0.4 -1.4 -0.8 -2 -1.3c0.8 0.6 -0.7 -0.7 -0.9 -0.9c-0.2 -0.2 -0.5 -0.5 -0.7 -0.8c-0.5 -0.6 0.6 1 -0.1 -0.2c-0.5 -0.7 -0.9 -1.5 -1.3 -2.2c-0.7 -1.2 0.2 0.9 -0.2 -0.4c-0.1 -0.3 -0.2 -0.6 -0.3 -0.9c-0.3 -0.9 -0.5 -1.8 -0.6 -2.7c0 0.2 0.1 0.9 0 -0.1c0 -0.5 -0.1 -1 -0.1 -1.5c0 -0.4 0 -0.8 0 -1.2c0 -0.2 0.2 -1.8 0 -0.8c0.1 -0.9 0.3 -1.8 0.6 -2.7c0.1 -0.4 0.3 -0.9 0.5 -1.3c-0.3 0.8 0.1 -0.2 0.3 -0.4c0.4 -0.8 0.9 -1.6 1.4 -2.3c-0.6 0.8 0.3 -0.3 0.4 -0.4c0.3 -0.3 0.6 -0.7 1 -1c0.1 -0.1 1.2 -1 0.4 -0.4c0.4 -0.3 0.7 -0.5 1.1 -0.8c0.4 -0.2 0.8 -0.5 1.2 -0.7c0.2 -0.1 1.3 -0.6 0.5 -0.3c0.9 -0.4 1.8 -0.6 2.8 -0.8c0.1 0 1.6 -0.2 0.6 -0.1c0.7 -0.1 1.4 -0.1 2.1 -0.1c2.8 0 5 -2.2 5 -5c-0.2 -2.7001 -2.4 -4.9001 -5.2 -4.9001l0 0z"></path><rect fill="#c6c6c6" width="124.1" height="71.9" transform="matrix(0.9194 0 0 0.8 319.1 105.0896)"></rect></g><path fill="#ffffff" d="m47.04 59.64c4.2 -9.8 8.1 -18.9 12 -28c1.8 -4.1 3.5 -8.3 5.3 -12.5c9.1 -21 33.3 -25.6 49.6 -9.4c0.5 0.5 0.8 1.1 1.4 2c7.9 -7.1 16.6 -11.3 26.9 -11.4c10.3 -0.1 19 3.2 26.1 11.1c6.4 -5.9 13.8 -9.3 22.3 -10.7c19.9 -3.4 36.4 10.2 36.4 30.4l0 47.4c0 10 -7.4 15.7 -17 13.3c-5.9 -1.4 -9.4 -5.6 -9.4 -11.8c-0.1 -14.4 -0.2 -28.8 -0.3 -43.2c-0.1 -10.4 -7.7 -15.9 -17.7 -12.6c-5.7 1.8 -8 5 -8 11.4c-0.1 14.3 0 28.6 -0.1 42.8c-0.1 8.3 -3.2 12.2 -10.6 13.7c-9 1.8 -16.1 -3.7 -16.5 -12.9c-0.2 -5.2 -0.1 -10.4 -0.1 -15.6c0 -9.5 0.1 -18.9 0 -28.4c-0.1 -7.6 -4.6 -11.7 -12.7 -11.7c-8.1 0 -12.8 4.4 -12.9 11.7c-0.1 14.4 0 28.8 0 43.2c0 8.9 -4.9 14.1 -13 14.1c-8.1 0 -13.4 -5.7 -13.4 -14.4l0 -47.8c0 -1.4 0.1 -2.8 -0.3 -4.1c-0.8 -2.9 -3.3 -3.4 -5.2 -1.2c-1.1 1.3 -1.9 3 -2.7 4.6c-7.7 16.6 -15.4 33.2 -23.1 49.8c-3.1 6.7 -7.7 11.7 -15.5 12.4c-8.3 0.7 -14.8 -3.5 -19 -12.3c-7 -14.8 -13.8 -29.8 -20.7 -44.6c-2.4 -5.1 -4.7 -10.2 -7.1 -15.3c-3.7 -8 -1.4 -15.1 5.8 -18.2c7.2 -3.2 13.7 -0.3 17.2 7.7c6.8 15.4 13.5 30.8 20.3 46.2c0.5 1.2 1.1 2.4 2 4.3z" transform="translate(17.7872 203.7302)" style="animation-name: eaf-74ea-26;"></path></g></g></svg>
