<svg xmlns="http://www.w3.org/2000/svg" viewBox="0 0 500 500" overflow="hidden" preserveAspectRatio="xMidYMid meet" id="eaf-b226-0"><defs><clipPath id="eaf-b226-1"><rect x="0" y="0" width="500" height="500"></rect></clipPath><style>#eaf-b226-0 * {animation: 18000ms linear infinite normal both running;offset-rotate:0deg}@keyframes eaf-b226-2{0%,100%{transform:translate(247.3859px,245.2993px)}}@keyframes eaf-b226-3{0%{transform:rotate(0)}100%{transform:rotate(-360deg)}}@keyframes eaf-b226-4{0%,100%{transform:translate(-247.3859px,-245.2993px)}}@keyframes eaf-b226-5{0%,100%{transform:translate(250.6px,245.2993px)}}@keyframes eaf-b226-6{0%{transform:rotate(0)}22.59%{transform:rotate(0);animation-timing-function:ease-in-out}27.41%{transform:rotate(90deg)}28.14%{transform:rotate(90deg);animation-timing-function:ease-in-out}31.48%{transform:rotate(0)}31.85%{transform:rotate(0);animation-timing-function:ease-in-out}36.67%{transform:rotate(90deg)}37.04%{transform:rotate(90deg);animation-timing-function:ease-in-out}40.37%{transform:rotate(0)}55.56%{transform:rotate(0);animation-timing-function:ease-in-out}60.37%{transform:rotate(90deg)}61.11%{transform:rotate(90deg);animation-timing-function:ease-in-out}67.22%,100%{transform:rotate(0)}}@keyframes eaf-b226-7{0%,100%{transform:translate(-250.6px,-245.2993px)}}</style></defs><g clip-path="url('#eaf-b226-1')" style="isolation: isolate;"><g><path fill="#aaaaaa" d="m500 249.4c0 62.6 0 125.2 0 187.8c0 28.7 -21.6 54.9 -49.9 60.3c-4.2 0.8 -8.5 1.2 -12.7 1.2c-124.8 0.1 -249.5 0.1 -374.3 0.1c-30.6 0 -57.3 -23.5 -61.3 -53.9c-0.4 -2.7 -0.6 -5.4 -0.6 -8.1c0 -125.1 0 -250.1 0 -375.2c0 -28.7 21.6 -54.9 49.9 -60.3c4.2 -0.8 8.5 -1.2 12.7 -1.2c124.9 -0.1 249.8 -0.1 374.6 -0.1c28.7 0 55 21.7 60.3 49.9c0.8 4.2 1.2 8.5 1.2 12.7c0.1 62.3 0.1 124.6 0.1 186.8z"></path><path fill="#000000" d="m464.5 277.5c13 0 19.6 -11.3 19.6 -34.3c0 -24.8 -3.5 -30.4 -20.9 -33.5c-35.6 -6.5 -40 -17.8 -16.1 -40.9c8.3 -8.3 15.2 -17.4 15.2 -20c0 -6.1 -23.9 -43.5 -30.4 -47.4c-2.2 -1.3 -10 0.4 -16.9 4.4c-16.5 8.3 -28.2 8.3 -35.2 0c-4.8 -5.6 -4.4 -9.6 1.3 -22.2c10.4 -21.7 9.6 -26.1 -10.9 -40.9c-23 -16.9 -30.4 -16.5 -47.4 2.2c-7.8 8.3 -17.4 15.2 -21.7 15.2c-10 0 -16.9 -13.6 -16.9 -31c0 -7 -1.8 -14.3 -4.4 -15.7c-6 -3.4 -43.8 -6.1 -55.1 -3.4c-5.6 0.9 -10 5.2 -10 9.1c0 3.9 -2.2 15.8 -4.8 24.5c-5.6 21.7 -19.1 22.2 -35.6 1.3c-6.5 -8.3 -15.7 -16.2 -19.6 -16.2c-10 0 -48.7 25.4 -48.7 31.5c0 2.6 3 11.7 6.5 20.4c3.5 8.3 6.5 18.3 6.5 21.3c0 9.6 -19.1 11.7 -36.9 4.4c-9.1 -3.9 -16.9 -7 -17.8 -7c-4.8 0 -27.8 42.1 -27.8 50.4c0 6.1 5.6 14.3 15.2 21.7c8.3 6.1 15.2 13.9 15.2 17.4c0 8.3 -17.4 19.1 -31.3 19.1c-20.8 0.1 -29.5 21.8 -22.6 56.1c2.6 12.2 4.4 13.5 18.7 13.5c16.5 0 35.2 10 35.2 18.3c0 3 -7 11.3 -15.2 19.1c-8.3 7.4 -15.2 17.8 -15.2 23c0 12.2 9.6 30.8 20.9 40.9c8.7 7.8 9.6 7.8 27.8 -0.9c18.7 -8.7 18.7 -8.7 27.4 0c8.3 7.8 8.3 8.7 0.9 28.7c-7 19.1 -7 20.4 0 28.7c4.4 4.4 15.7 12.2 25.2 16.9l16.9 9.1l16.9 -19.1c16.1 -18.3 16.9 -18.7 28.2 -12.2c9.1 4.8 12.2 10 13 23.5c1.8 21.3 10 28.2 34.3 28.2c23 0 33.9 -10 38.2 -34.3c3.9 -23.5 16.5 -28.2 30.8 -10.9c5.6 7 10 13.9 10.4 15.7c0 7.4 24.3 3 42.1 -7.4c20.9 -12.6 22.6 -19.6 11.3 -43.5c-7 -14.3 -7 -15.7 0 -22.6c7 -7 8.7 -7 28.7 0.4c12.2 4.4 23.9 6.5 26.1 5.2c2.2 -1.8 10.4 -13.9 18.3 -27.4c13 -23 13.5 -24.8 6.5 -29.1c-20 -12.2 -28.7 -21.3 -28.7 -31.3c0.2 -11.2001 13.2 -19.0001 32.8 -19.0001zm-217.1 107.5c-78 0 -141.3 -63.3 -141.3 -141.3c0 -78 63.3 -141.3 141.3 -141.3c78 0 141.3 63.3 141.3 141.3c0 78 -63.3 141.3 -141.3 141.3z" style="animation-name: eaf-b226-2, eaf-b226-3, eaf-b226-4; animation-composition: replace, add, add;"></path><g style="animation-name: eaf-b226-5, eaf-b226-6, eaf-b226-7; animation-composition: replace, add, add;"><path fill="#aaaaaa" d="m224.7 114.3c-61.5 10.8 -108.2 64.4 -108.2 129c0 67 50.4 122.3 115.4 130.1c5.1 0.6 10.3 0.9 15.6 0.9c9.2 0 9.5 0.8 18.1 -1c8.4 8.2 16.5 16 24.9 24.2c38.1 37.1 47.1 53.8 85.2 90.9c4.2 -1.1 47.8 3.6 47.8 3.6l55.5 -31.8l13.2 -48.6c0 0 5.9 -39 5.9 -51.4c-50.7 -46.2 -70.8 -61 -121.5 -107.2c0.6 -4 1.6 1.5 1.8 -2.7c0.1 -2.3 0.2 -4.7 0.2 -7c0 -72.3 -58.6 -131 -131 -131c-7.9 0 -15.5 0.7 -22.9 2z"></path><path fill="#eeb923" stroke="#000000" stroke-width="18" stroke-miterlimit="10" d="m167.8 207.2c15.3 15.3 30.2 30.3 45.1 45.2c7.5 7.5 12.1 7.5 19.5 0c9.4 -9.4 18.7 -18.7 28 -28.1c7.4 -7.4 7.5 -12.2 0.2 -19.5c-13.8 -13.8 -27.7 -27.7 -41.5 -41.5c-1.2 -1.2 -2.3 -2.4 -4.7 -4.9c9.7 -1.9 18.2 -4.7 26.9 -5.1c45.8 -2.6 83 26.1 91.5 71.1c1.8 9.6 0.8 19.9 0.1 29.9c-0.2 3.9 0.2 6.4 3.1 9.2c44.6 43 88.9 86.2 133.5 129.2c8.7 8.4 11.6 18 7.9 29.5c-8 25.2 -24.6 41.2 -50.2 47.7c-9.8 2.5 -18.5 -0.5 -25.6 -7.8c-43.4 -44.8 -86.9 -89.6 -130.3 -134.5c-2.4 -2.5 -4.6 -3.5 -8.2 -2.9c-49 7.8 -91.4 -21.8 -100.8 -70.3c-2.8 -15.1 -0.7 -34.3 5.5 -47.2z"></path></g></g></g></svg>