<svg id="e7c3754fjifg1" xmlns="http://www.w3.org/2000/svg" xmlns:xlink="http://www.w3.org/1999/xlink" viewBox="0 0 769 769" shape-rendering="geometricPrecision" text-rendering="geometricPrecision">
    <style>
        <![CDATA[#e7c3754fjifg1{pointer-events: all} #e7c3754fjifg1:hover * {animation-play-state: running !important}#e7c3754fjifg6 {animation: e7c3754fjifg6_f_o 2000ms linear infinite normal forwards}@keyframes e7c3754fjifg6_f_o { 0% {fill-opacity: 1;animation-timing-function: step-end} 15% {fill-opacity: 0;animation-timing-function: step-end} 50% {fill-opacity: 0;animation-timing-function: step-end} 85% {fill-opacity: 1} 100% {fill-opacity: 1} }#e7c3754fjifg7 {animation: e7c3754fjifg7_f_o 2000ms linear infinite normal forwards}@keyframes e7c3754fjifg7_f_o { 0% {fill-opacity: 1;animation-timing-function: step-end} 25% {fill-opacity: 0;animation-timing-function: step-end} 50% {fill-opacity: 0;animation-timing-function: step-end} 75% {fill-opacity: 1} 100% {fill-opacity: 1} }#e7c3754fjifg8 {animation: e7c3754fjifg8_f_o 2000ms linear infinite normal forwards}@keyframes e7c3754fjifg8_f_o { 0% {fill-opacity: 1;animation-timing-function: step-end} 35% {fill-opacity: 0;animation-timing-function: step-end} 50% {fill-opacity: 0;animation-timing-function: step-end} 65% {fill-opacity: 1} 100% {fill-opacity: 1} }]]>
    </style>
    <g id="e7c3754fjifg2" transform="matrix(4 0 0 4 -808.47998047999999 -2293.24633787500034)">
        <path
            id="e7c3754fjifg3"
            d="M393.900000,669.690000C393.900000,693.750000,393.900000,717.820000,393.900000,741.880000C393.900000,752.910000,385.580000,762.990000,374.720000,765.060000C373.110000,765.370000,371.450000,765.540000,369.820000,765.540000C321.850000,765.570000,273.890000,765.560000,225.920000,765.560000C214.160000,765.560000,203.900000,756.540000,202.360000,744.840000C202.220000,743.810000,202.130000,742.760000,202.130000,741.720000C202.120000,693.630000,202.120000,645.540000,202.120000,597.460000C202.120000,586.430000,210.440000,576.340000,221.300000,574.280000C222.910000,573.970000,224.570000,573.800000,226.200000,573.800000C274.210000,573.780000,322.220000,573.780000,370.220000,573.780000C381.250000,573.780000,391.350000,582.110000,393.400000,592.960000C393.700000,594.570000,393.880000,596.230000,393.880000,597.860000C393.900000,621.810000,393.900000,645.750000,393.900000,669.690000Z"
            fill="#aaaaaa"
            stroke="none"
            stroke-width="1"
        />
    </g>
    <g id="e7c3754fjifg4" transform="matrix(4 0 0 4 -808.46427917000005 -2293.22628782500033)">
        <g id="e7c3754fjifg5">
            <path
                id="e7c3754fjifg6"
                d="M390.850000,668.230000C389.760000,672.960000,386.600000,676.130000,383.010000,679.120000C371.020000,689.070000,359.130000,699.140000,347.200000,709.150000C341.060000,714.300000,333.620000,714.200000,327.870000,708.900000C322.540000,704,322.100000,694.760000,327.330000,689.690000C331.610000,685.540000,336.330000,681.830000,340.880000,677.960000C345.620000,673.930000,350.390000,669.940000,355.330000,665.790000C352.220000,663.120000,349.170000,660.500000,346.120000,657.880000C340.350000,652.920000,334.520000,648.030000,328.820000,642.990000C321.170000,636.220000,322.130000,625.100000,330.710000,620C335.760000,617,342.210000,617.690000,347.180000,621.930000C360.030000,632.920000,372.830000,643.970000,385.660000,654.980000C388.430000,657.360000,389.970000,660.420000,390.860000,663.880000C390.850000,665.330000,390.850000,666.780000,390.850000,668.230000Z"
                fill="#000000"
                stroke="none"
                stroke-width="1"
            />
            <path
                id="e7c3754fjifg7"
                d="M321.650000,611.840000C321.010000,615.210000,320.150000,619.890000,319.240000,624.550000C315.420000,644.310000,311.590000,664.060000,307.770000,683.820000C304.720000,699.610000,301.720000,715.420000,298.600000,731.200000C297.390000,737.330000,293.700000,741.440000,287.500000,742.670000C281.880000,743.790000,277.120000,741.910000,273.610000,737.300000C270.880000,733.710000,270.370000,729.640000,271.230000,725.270000C275.810000,701.860000,280.350000,678.430000,284.890000,655.010000C287.940000,639.280000,290.820000,623.510000,294.060000,607.810000C296.330000,596.790000,308.760000,592.720000,317.130000,600.020000C319.980000,602.520000,321.760000,606.630000,321.650000,611.840000Z"
                fill="#000000"
                stroke="none"
                stroke-width="1"
            />
            <path
                id="e7c3754fjifg8"
                d="M240.630000,665.740000C247.850000,671.800000,254.920000,677.650000,261.860000,683.630000C264.810000,686.180000,267.940000,688.700000,270.220000,691.800000C273.930000,696.840000,272.800000,704.390000,268.330000,708.710000C263.340000,713.520000,256.050000,714.480000,250.800000,710.540000C245.540000,706.590000,240.600000,702.230000,235.550000,698C227.350000,691.140000,219.200000,684.230000,211.010000,677.360000C205.560000,672.790000,203.720000,666.950000,206.300000,660.750000C207.210000,658.550000,208.820000,656.430000,210.620000,654.860000C223.270000,643.810000,236.020000,632.890000,248.790000,621.990000C256.700000,615.230000,267.700000,617.720000,271.450000,627.230000C273.470000,632.350000,272.690000,637.450000,268.740000,641.330000C263.790000,646.180000,258.370000,650.550000,253.120000,655.110000C249.430000,658.320000,245.700000,661.480000,241.980000,664.660000C241.570000,665,241.140000,665.330000,240.630000,665.740000Z"
                fill="#000000"
                stroke="none"
                stroke-width="1"
            />
        </g>
    </g>
</svg>
