<svg xmlns="http://www.w3.org/2000/svg" viewBox="0 0 500 500" overflow="hidden" preserveAspectRatio="xMidYMid meet" id="eaf-2bba-0"><defs><clipPath id="eaf-2bba-1"><rect x="0" y="0" width="500" height="500"></rect></clipPath><style>#eaf-2bba-0 * {animation: 19000ms linear infinite normal both running;offset-rotate:0deg}@keyframes eaf-2bba-2{0%,100%{transform:translate(250.0499px,250.425px)}}@keyframes eaf-2bba-3{0%{transform:rotate(0)}100%{transform:rotate(360deg)}}@keyframes eaf-2bba-4{0%,100%{transform:matrix(1.0792,0,0,1.0792,-269.8632,-270.268)}}</style></defs><g clip-path="url('#eaf-2bba-1')" style="isolation: isolate;"><g><g transform="matrix(4 0 0 4 -827.28 -2254.5264)"><path fill="#666666" d="m331.7 626.3c0 15.6 0 31.3 0 46.9c0 7.2 -5.4 13.7 -12.5 15.1c-1 0.2 -2.1 0.3 -3.2 0.3c-31.2 0 -62.4 0 -93.6 0c-7.6 0 -14.3 -5.9 -15.3 -13.5c-0.1 -0.7 -0.1 -1.4 -0.1 -2c0 -31.3 0 -62.5 0 -93.8c0 -7.2 5.4 -13.7 12.5 -15.1c1 -0.2 2.1 -0.3 3.2 -0.3c31.2 0 62.4 0 93.6 0c7.2 0 13.7 5.4 15.1 12.5c0.2 1 0.3 2.1 0.3 3.2c0 15.6 0 31.1 0 46.7z"></path></g><path fill="#479341" d="m233.8 33.3c4.5 7 11 12.2 16.8 18c26.4 26.7 53.2 53.1 79.7 79.8c3.2 3.2 5.1 3.4 8 -0.1c3.1 -3.7 6.9 -6.7 10 -10.4c2.7 -3.2 4.4 -2.7 7.2 0.1c36.6 36.7 73.3 73.4 110.2 109.9c3.3 3.3 2.6 4.7 -0.2 7.6c-31.2 31 -62.2 62.1 -93.5 93c-3.5 3.5 -3.3 5.2 0.1 8.4c4.3 4 11.6 7.8 11.3 12.8c-0.3 4.4 -7.2 8.4 -11.2 12.5c-33.4 33.4 -66.8 66.7 -100.1 100.2c-3.4 3.4 -5.2 3.4 -8.5 0c-30.6 -30.8 -61.4 -61.3 -92 -92.1c-3.6 -3.6 -5.7 -4.1 -9 0c-2.9 3.6 -6.7 6.4 -9.7 9.9c-2.6 3 -4.3 3.1 -7.2 0.2c-34 -34.2 -68.1 -68.2 -102.2 -102.3c-3.6 -3.6 -6.8 -7.8 -11.3 -10.6c0 -0.4 0 -0.8 0 -1.2c2.8 -2.7 5.6 -5.3 8.3 -8c29.7 -29.6 59.4 -59.3 89.3 -88.9c3.1 -3 3.4 -4.7 0 -7.6c-3.8 -3.2 -6.9 -7.3 -10.8 -10.4c-3.7 -3 -3 -4.9 0.1 -8c36.2 -36 72.4 -72 108.5 -108.1c1.4 -1.4 3.5 -2.5 3.9 -4.8c0.7 0.1 1.5 0.1 2.3 0.1z" transform="matrix(1.0792 0 0 1.0792 -19.8133 -19.843)" style="animation-name: eaf-2bba-2, eaf-2bba-3, eaf-2bba-4; animation-composition: replace, add, add;"></path><g style="filter: drop-shadow(rgb(61, 61, 61) 8px 2px 6px);"><path fill="#fefefe" d="m200.2 333.7c0 -40.7 0 -80.8 0 -120.8c0 -12.5 0.1 -25 -0.1 -37.6c-0.1 -4.6 0.7 -5.3 4.9 -2.8c38.7 22.2 77.5 44.3 116.3 66.4c6 3.4 11.9 7.1 18.1 10.3c4.3 2.2 3.6 3.2 -0.1 5.3c-30.3 17.2 -60.5 34.5 -90.7 51.9c-15 8.6 -30 17.3 -45 25.9c-0.8 0.5 -1.7 0.7 -3.4 1.4z" transform="matrix(1.0792 0 0 1.0792 -21.4911 -19.9985)"></path></g></g></g></svg>