<svg xmlns="http://www.w3.org/2000/svg" viewBox="0 0 499.20001220703125 498.3999938964844" overflow="hidden" preserveAspectRatio="xMidYMid meet" id="eaf-7bd8-0"><defs><clipPath id="eaf-7bd8-1"><rect x="0" y="0" width="499.2" height="498.4"></rect></clipPath><style>#eaf-7bd8-0 * {animation: 7000ms linear infinite normal both running;offset-rotate:0deg}@keyframes eaf-7bd8-2{0%,100%{transform:translate(249.6px,250px)}}@keyframes eaf-7bd8-3{0%{transform:rotate(0)}14.29%{transform:rotate(0);animation-timing-function:ease-in-out}25.71%,100%{transform:rotate(360deg)}}@keyframes eaf-7bd8-4{0%{transform:scale(1,1)}35.24%{transform:scale(1,1);animation-timing-function:ease-in-out}40.01%{transform:scale(1.0781,0.6635)}42.87%{transform:scale(1.0781,0.6635);animation-timing-function:ease-in-out}44.77%{transform:scale(0.5,0.5)}95.24%{transform:scale(0.5,0.5);animation-timing-function:ease-in-out}97.63%,100%{transform:scale(1,1)}}@keyframes eaf-7bd8-5{0%,100%{transform:translate(-255.4px,-249.2px)}}@keyframes eaf-7bd8-6{0%{opacity:0}48.57%{opacity:0}49.06%{opacity:1}70%{opacity:1}70.47%{opacity:0}82.39%{opacity:0}82.86%{opacity:1}90.96%{opacity:1}91.43%,100%{opacity:0}}@keyframes eaf-7bd8-7{0%,100%{transform:translate(1573.5809px,1091.8932px)}}@keyframes eaf-7bd8-8{0%,46.67%{transform:rotate(5deg)}47.61%{transform:rotate(-2deg)}50.47%{transform:rotate(-2deg)}50.49%{transform:rotate(7deg)}51.43%{transform:rotate(-2deg)}55.24%{transform:rotate(-2deg)}55.26%{transform:rotate(7deg)}56.2%{transform:rotate(-2deg)}57.14%{transform:rotate(-2deg)}57.16%{transform:rotate(7deg)}58.1%{transform:rotate(-2deg)}60%{transform:rotate(-2deg)}60.01%{transform:rotate(7deg)}60.96%{transform:rotate(-2deg)}61.9%{transform:rotate(-2deg)}61.91%{transform:rotate(7deg)}62.86%{transform:rotate(-2deg)}64.76%{transform:rotate(-2deg)}64.77%{transform:rotate(7deg)}65.71%{transform:rotate(-2deg)}69.53%{transform:rotate(-2deg)}69.54%{transform:rotate(7deg)}70.49%{transform:rotate(-2deg)}71.43%{transform:rotate(-2deg)}71.44%{transform:rotate(7deg)}72.39%{transform:rotate(-2deg)}74.29%{transform:rotate(-2deg)}74.3%{transform:rotate(7deg)}75.24%{transform:rotate(-2deg)}76.19%{transform:rotate(-2deg)}76.2%{transform:rotate(7deg)}77.14%{transform:rotate(-2deg)}79.04%{transform:rotate(-2deg)}79.06%{transform:rotate(7deg)}80%{transform:rotate(-2deg)}83.81%{transform:rotate(-2deg)}83.83%{transform:rotate(7deg)}84.77%{transform:rotate(-2deg)}85.71%{transform:rotate(-2deg)}85.73%{transform:rotate(7deg)}86.67%{transform:rotate(-2deg)}88.57%{transform:rotate(-2deg)}88.59%{transform:rotate(7deg)}89.53%{transform:rotate(-2deg)}90.47%{transform:rotate(-2deg)}90.49%{transform:rotate(7deg)}91.43%,100%{transform:rotate(-2deg)}}@keyframes eaf-7bd8-9{0%,100%{transform:translate(-1573.5809px,-1091.8932px)}}@keyframes eaf-7bd8-10{0%,100%{transform:none;offset-path:path("m-248.6779 499.4138l964.5822 -406.9936")}}@keyframes eaf-7bd8-11{0%,46.67%{offset-distance:0%}88.57%,100%{offset-distance:100%}}@keyframes eaf-7bd8-12{0%,100%{transform:matrix(0.1821,-0.0773,0.0712,0.1678,-63.2008,-22.531)}}</style></defs><g clip-path="url('#eaf-7bd8-1')" style="isolation: isolate;"><g><g><path fill="#666666" d="m498.1 249.4c0 62.3 0 124.7 0 187c0 28.6 -21.6 54.7 -49.7 60c-4.2 0.8 -8.5 1.2 -12.7 1.2c-124.2 0.1 -248.5 0 -372.7 0c-30.5 0 -57 -23.4 -61 -53.7c-0.4 -2.7 -0.6 -5.4 -0.6 -8.1c0 -124.5 0 -249.1 0 -373.7c0 -28.6 21.6 -54.7 49.7 -60c4.1 -0.6 8.4 -1.1 12.6 -1.1c124.4 -0.1 248.7 0 373 0c28.6 0 54.7 21.6 60 49.7c0.8 4.2 1.2 8.5 1.2 12.7c0.2 62 0.2 124 0.2 186z"></path></g><g transform="translate(-5.8 0.8)" style="animation-name: eaf-7bd8-2, eaf-7bd8-3, eaf-7bd8-4, eaf-7bd8-5; animation-composition: replace, add, add, add;"><g><g><ellipse fill="#faf6dc" stroke="#000000" stroke-width="28" stroke-miterlimit="8" rx="222.8" ry="222.8" transform="translate(255.4 249.2)"></ellipse></g></g><g><g><path fill="#000000" stroke="#000000" stroke-width="5" stroke-miterlimit="10" d="m438.6 350c-2.2 -3.3 -5.6 -5.6 -9.5 -7.2l3.9 -2.2c-3.9 0.6 -7.2 1.7 -11.1 2.2c-2.8 0.6 -13.4 2.8 -17.8 3.3c-1.1 -3.3 -3.3 -4.5 -7.2 -3.9l-2.2 -3.3c-1.7 1.1 -2.2 2.2 -0.6 3.9c-4.5 3.9 -5.6 7.8 -6.7 12.8c-1.1 -1.7 -4.5 -13.9 -2.2 -11.7l2.8 -1.1c-1.1 -10 -2.8 2.2 -13.9 2.8c-1.1 3.9 -3.3 7.2 -6.7 10c-2.2 1.1 -4.5 2.8 -5.6 4.5c-3.9 -1.7 -7.2 -2.8 -11.7 -3.3l0 -0.6c-3.9 1.7 -10.6 3.3 -13.9 3.9c-0.6 0.6 -1.7 1.1 -2.8 0.6c-6.1 -5 -12.8 -21.2 -6.1 -30.1c-1.7 -1.1 -21.7 -7.8 -25.6 -2.2c-0.6 0 -1.7 -0.6 -2.2 -0.6l0.6 0.6l-1.7 -1.1c2.8 -3.3 3.9 -7.8 3.9 -12.8l-1.1 0l0 -0.6c1.1 -0.6 1.7 0 2.2 1.1c2.8 -3.3 3.3 -5.6 0.6 -7.2c0.6 -2.2 1.7 -3.9 2.2 -6.1c3.9 -1.1 7.2 -2.8 8.4 -3.3l-1.7 1.1c10 -0.6 18.4 2.2 25.6 8.4l-2.8 3.3l6.7 -1.1c3.3 -0.6 6.1 -1.1 9.5 -1.7c0 1.1 1.1 2.2 2.2 2.8c-2.8 1.7 -6.1 2.2 -9.5 1.1c0 2.8 1.7 3.3 4.5 1.7c6.1 -0.6 7.8 -1.1 10 2.2c0 -2.2 1.1 -3.9 2.8 -4.5c2.2 0.6 5.6 -1.1 9.5 0c2.8 -2.8 1.7 -3.9 -3.3 -3.9l0 -1.7999c-3.3 -1.1 -8.4 -1.1 -11.7 -0.6c-3.3 -1.7 -5.6 -1.7 -7.2 0c-1.1 0 -2.8 0 -4.5 0.6c-10.6 -6.1 -30.6 -14.5 -43.4 -4.5c-22.3 8.9 -51.2 24.5 -47.3 -16.7c2.2 -21.7 17.8 -31.7 39 -25.1c-1.7 -1.1 -2.2 -2.2 -2.2 -4.5c19.5 -6.7 15.6 6.1 25.1 -0.6c0.6 1.1 16.2 27.3 20.1 23.4c-3.3 -13.4 -7.2 -25.6 -3.3 -39.5c2.8 -8.9 12.8 -8.9 12.8 -20.1c-1.1 -2.2 -2.8 -4.5 -5.6 -6.1l2.8 0.6c-1.7 -1.7 -1.7 -3.3 -1.1 -5c0 2.8 1.1 4.5 3.9 5.6l-0.6 3.3l0.6 0c2.8 -3.9 2.8 -7.8 -1.1 -11.1c1.7 0 2.8 1.1 3.3 2.2c1.7 -2.2 2.2 -4.5 1.7 -7.2l-1.1 0l0.6 -1.7l0 0.6c2.8 -0.6 5 -1.1 7.2 -2.2c-2.2 -0.6 -4.5 -0.6 -6.7 0.6c3.9 -2.2 8.4 -3.9 12.8 -5c0 -1.1 -0.6 -1.7 -1.7 -2.2l1.1 1.7c-4.5 -5 -3.3 -11.1 6.1 -15l1.1 -0.6c2.8 -1.1 5.6 -1.7 8.9 -2.2c-2.2 4.5 -6.1 2.8 -2.8 8.4c7.8 0.6 12.8 -3.9 15.6 -13.4c-2.2 -0.6 -3.9 -1.7 -4.5 -4.5c-1.1 1.7 -2.2 2.8 -3.3 3.3c-2.8 1.1 -5.6 0.6 -7.2 -1.7c0 0.6 0 0.6 -0.6 1.1c-1.7 -1.7 -2.8 -4.5 -3.9 -8.4c-8.4 -1.1 -15 3.9 -18.9 11.7c8.4 -19.5 17.3 -15 27.3 -22.8c-2.2 5.6 -1.1 8.9 3.3 10.6c-2.2 6.7 4.5 1.1 12.3 1.7l-0.6 2.2c2.2 -0.6 2.8 -2.2 2.8 -4.5c1.7 1.7 2.8 6.1 6.1 3.9c-1.7 -2.8 -3.9 -5.6 -5.6 -8.4l-1.1 0.6c0 -2.8 -1.7 -4.5 -4.5 -3.9l-0.6 1.1l-3.3 -0.6l0 -1.7l-2.2 -0.6l-1.1 1.7c0 -2.2 -0.6 -4.5 -0.6 -6.7c1.1 -1.1 1.7 -2.2 2.8 -3.3c-7.2 -7.2 -34.5 -21.7 -42.3 -26.2c1.1 3.9 0.6 6.7 -2.8 8.9c-8.4 -8.4 -20.1 -15 -32.9 -12.3c3.3 7.2 7.2 7.2 3.9 12.8c9.5 5 10.6 10.6 1.1 16.2c7.8 6.7 9.5 11.1 3.3 14.5c-6.7 -3.3 -10.6 -8.4 -11.7 -15.6c-15.6 -3.3 -27.9 -5 -37.9 -13.9c-0.6 -6.7 5.6 -13.4 9.5 -17.3c2.8 -0.6 5 -2.2 6.7 -4.5c0 1.7 -0.6 3.3 -2.2 4.5c2.2 -1.1 3.9 -0.6 4.5 1.7c1.7 -1.1 3.3 -2.2 5 -3.9c1.1 1.1 2.2 1.7 3.3 2.2c1.7 1.1 3.9 0 4.5 -1.7l-1.7 0c-0.6 -0.6 -1.7 -0.6 -2.2 0c-1.7 -2.8 -5.6 -4.5 -8.9 -3.9l0 -0.6c0.6 -1.1 1.1 -2.2 1.1 -3.9c8.9 0.6 10.6 -1.7 6.1 -5.6c1.1 -1.7 1.1 -2.8 0.6 -3.3c1.1 -0.6 2.2 -1.7 2.8 -3.3c2.2 0.6 3.9 1.7 6.1 2.8l-0.6 1.1c3.9 0 7.8 1.7 10.6 4.5c-1.1 2.2 -1.1 4.5 0.6 6.1c-2.8 0.6 -5.6 1.1 -8.4 1.1l-0.6 2.8c2.8 1.1 5.6 1.1 8.4 0l-0.6 -1.1c2.8 1.1 5.6 1.7 8.4 2.8l0 1.1c5 2.2 10.6 3.3 16.7 3.3c-2.8 -2.2 -6.1 -3.9 -9.5 -5.6c3.3 1.1 6.7 1.7 10.6 2.2c-3.3 -5 -8.9 -8.9 -14.5 -11.1c3.9 -1.7 7.2 -1.1 11.1 2.8c0.6 -9.5 -5 -12.8 -17.8 -10l2.2 -1.7c-1.1 -0.6 -20.6 -7.8 -24.5 -8.4c-0.6 1.7 -1.7 2.2 -3.9 2.2c0 -1.1 -0.6 -2.2 -0.6 -2.8c0.6 0.6 1.1 0.6 1.7 1.1c1.7 -0.6 3.3 -0.6 5 -0.6c-2.2 -2.2 -5 -2.8 -7.8 -1.7c-0.6 -0.6 -1.1 -0.6 -1.7 -0.6c0.6 -0.6 1.1 -0.6 1.1 -1.1c-0.6 -0.6 -1.7 -0.6 -2.8 -1.1c1.1 -0.6 1.7 -1.1 1.1 -1.7c1.7 -1.1 2.2 -1.7 1.1 -2.2c15.6 -0.6 29 8.4 42.9 11.7c-1.7 -0.6 -3.3 0 -5 0.6c3.9 5.6 6.7 5.6 7.8 1.1c3.3 1.7 4.5 3.3 2.2 5c11.7 11.7 27.9 21.2 44.6 20.6c-6.1 -5 -11.7 -11.1 -15.6 -18.4c3.9 -3.9 2.8 -7.2 -2.8 -11.1c3.3 -3.3 2.2 -6.1 -2.8 -9.5c-1.1 0.6 -2.2 1.1 -2.8 1.7c-1.1 -1.7 -2.8 -2.8 -5 -2.8c1.7 0.6 3.9 0.6 5.6 1.1l0 -1.1c-3.3 -1.1 -7.2 -2.2 -10.6 -2.8l2.8 0c-1.7 -1.1 -3.9 -1.7 -6.1 -1.7c1.7 -1.7 0 -2.8 -3.3 -2.2l0.6 -1.1c-1.7 0 -3.9 -0.6 -5 -1.7c-2.8 -0.6 -6.1 -1.1 -8.9 -2.2l0 -0.6c-6.7 -6.1 -12.3 -7.2 -16.7 -3.9c-0.6 -3.3 -3.3 -3.9 -8.4 -2.8c0.6 1.1 1.7 1.7 2.2 2.2c-1.7 -0.6 -2.8 -1.1 -4.5 -1.1l1.1 0.6c-2.2 0.6 -2.2 0.6 -3.9 0.6l1.7 -1.7c-3.3 -1.1 -7.2 -1.1 -10 1.1l1.1 0.6l-1.7 0.6c1.1 1.1 2.2 2.2 3.9 2.2l2.2 0l-6.1 0l0.6 1.1c-2.2 -0.6 -3.9 0 -5.6 1.7l1.7 0.6c-0.6 1.1 -0.6 1.7 -1.1 1.7c-2.8 0 -5.6 0.6 -7.8 1.1l0 1.3c-2.2 -1.1 -3.9 -0.6 -5.6 1.1c0 0.6 0.6 1.1 1.1 1.1c2.2 1.7 5 2.2 7.8 1.7c-1.1 1.1 -2.2 1.7 -4.5 0.6l0.6 0.6c-2.2 -2.2 -4.5 -3.3 -7.8 -2.8l0.6 0.6c-2.2 1.1 -2.8 2.2 -1.1 3.3c-1.1 -0.6 -2.8 0 -3.9 0.6l-1.1 0l-0.6 2.8l2.2 0l-0.6 1.7c0.6 0 1.1 0.6 1.7 0.6c0.6 0.6 1.1 0.6 1.7 0.6c0.6 0.6 1.1 1.1 2.2 1.7c-1.7 0.6 -2.2 1.7 -2.2 3.9c-2.2 -0.6 -3.9 0 -5 1.1l1.1 1.7l-3.3 -0.6l0 1.1c1.7 0.6 3.3 2.2 4.5 3.3c0.6 0 0.6 0 1.1 0.6c-0.6 1.1 -1.7 1.7 -2.8 2.2c1.7 1.1 3.3 1.7 5 1.7c0.6 1.1 0.6 1.7 1.1 2.2c-1.7 -0.6 -2.8 0 -2.8 2.2c-1.1 -4.5 -2.8 -4.5 -4.5 -1.7c-3.3 0 -6.7 -0.6 -10.6 -1.1c1.7 -0.6 2.8 -1.7 3.9 -3.3l-1.1 -1.1c2.2 0.6 3.3 0.6 3.3 -1.7c-4.5 -0.6 -6.1 -2.2 -5.6 -5.6c0.5 -3.4 -1.1 -5 -4.5 -4.5c0.6 1.7 0 3.3 -1.1 3.9c0 -3.9 -1.1 -5 -3.3 -2.8c-1.1 -2.2 -2.8 -2.2 -5 -1.1l1.7 -1.1c-0.6 -0.6 -1.7 -0.6 -2.2 -1.1l0.6 0c-2.8 -2.8 -6.7 -4.5 -11.1 -3.9c0 3.3 -2.8 5.6 -7.8 6.1c1.7 0.6 2.2 1.7 1.7 3.3c3.3 -0.6 6.1 -1.7 9.5 -3.3c-0.6 0.6 -1.7 1.1 -2.2 2.2c1.1 1.1 2.8 1.7 4.5 1.1l-4.5 0.6l0 1.1c3.3 0 6.1 0.6 8.9 1.7c-3.3 0 -6.1 0 -8.9 0.6l0.6 2.8c2.8 -0.6 4.5 0.6 3.9 2.2c1.7 1.1 3.3 1.7 5 2.2c-3.3 0.6 -6.7 0.6 -9.5 -0.6l3.3 -1.1c-2.8 -3.9 -7.2 -6.1 -12.8 -6.1c-1.1 1.1 -2.2 1.1 -3.9 1.1l1.7 -2.2l-3.9 1.7c0.6 -1.7 0.6 -2.8 -1.1 -3.3c-1.1 1.1 -2.2 1.7 -3.3 1.7l0 -1.3c-12.8 0 -18.9 0 -26.7 -8.9l1.1 -0.6c-0.6 -1.1 -1.7 -1.1 -2.8 -0.6c1.1 -0.6 1.7 -1.7 1.1 -2.2c-13.4 -2.8 -19.5 1.7 -27.9 10l-1.7 -1.1l2.2 -1.1c-7.2 -2.2 -11.1 1.1 -8.9 5l-0.6 1.1c1.1 -0.6 2.8 -0.6 3.9 0c-1.7 1.1 -6.1 2.2 -6.7 2.2l-2.8 0.6l0 -1.1c-6.7 0.6 -11.7 3.9 -15 9.5l2.2 0.6c-1.1 1.7 -2.8 3.3 -5 4.5c1.1 1.1 2.2 0.6 3.3 0l-0.6 2.8l1.7 -1.1l-1.7 2.2l2.2 -0.6l-0.6 0.6l2.8 0c-8.9 4.5 -17.8 7.2 -27.3 8.4c16.7 1.7 30.6 -7.2 45.7 -11.7c-1.7 3.3 -5 5.6 -10 6.1c6.7 -0.6 8.9 -0.6 13.9 -2.8c0.6 10 26.2 18.4 13.9 32.3c1.7 2.2 1.7 4.5 0 6.7l2.2 2.2c-3.3 2.8 -3.3 5 -1.7 7.2c-1.1 -0.6 -2.2 -1.1 -3.3 -1.1c-2.8 2.2 1.7 6.7 3.3 7.8c0.6 2.8 3.3 4.5 6.1 3.9c0 -2.8 -0.6 -5 -1.7 -6.7c3.9 3.3 7.8 6.7 2.2 12.8c1.1 -3.3 -0.6 -5.6 -3.9 -6.7c-10 32.9 -13.4 41.2 -1.1 69.1c5.6 11.7 12.3 24 8.4 31.7c1.7 2.2 3.3 4.5 5.6 6.1l0.6 -0.6c4.5 2.2 6.1 6.1 4.5 10.6c1.7 6.7 5 10 10 10.6c2.8 -1.7 -17.8 -40.1 -11.7 -29.5c-1.1 -6.1 -2.2 -11.7 -4.5 -17.3c11.1 5.6 8.4 23.4 20.6 29l-1.1 3.3c9.5 6.7 15 17.3 17.3 27.9l-1.7 0.6c18.4 23.4 63.5 37.3 91.3 36.8c1.7 0 2.2 0.6 2.8 2.2l-0.6 0.6l-1.1 -0.6l0.6 1.1c3.3 2.8 7.2 5.6 10.6 8.9l-1.1 1.1l1.7 0.6c-1.1 2.8 0 5 3.3 6.1c1.1 -0.6 1.1 -1.7 0.6 -2.8c1.1 0.6 1.7 1.1 1.7 2.2c2.8 3.3 6.1 5.6 9.5 7.2l0 -1.1c6.1 0 5.6 2.2 9.5 1.7l1.1 2.8c1.7 0 3.3 -0.6 4.5 -2.2c-2.8 -6.7 1.7 -7.2 8.9 -4.5l-1.1 1.7c2.8 3.3 8.4 13.9 5.6 19.5l1.7 1.1c-1.1 1.1 -8.4 8.4 -7.2 11.1l-1.7 0.6l0.6 1.7c-5 3.9 -8.9 7.2 -10.6 12.8c1.1 2.2 1.1 3.9 0 5.6l3.3 1.7l2.2 -2.2c-3.3 5 -6.7 12.8 -6.7 18.9c1.1 1.1 2.8 2.2 3.9 3.3c38.3 -19.0001 71.1 -50.1001 92.8 -88.6001l0 0zm-152.6 -280.7l2.8 0c-0.6 0 -1.1 0.6 -1.1 0.6c-1.1 -0.1 -1.1 -0.6 -1.7 -0.6zm-20 13.4c0 0 0 -0.6 0 0c0 -0.6 0 0 0 0zm17.2 -4.5c-0.6 0.6 -1.1 1.1 -1.1 1.7c-1.1 -0.6 -1.1 -1.1 -1.7 -1.7l2.8 0zm-7.2 -8.9l-0.6 -0.6c0.6 0 0.6 0.6 1.1 0.6l0 1.1c-1.1 0 -1.7 0.6 -2.2 1.7c1.7 0 2.8 0.6 3.9 1.7c-1.1 -1.1 -2.8 -1.1 -3.9 -0.6l0.6 1.7c-1.1 0 -2.2 -0.6 -3.3 -0.6l0 -1.1c-0.6 -0.6 -1.1 -1.1 -1.7 -1.1c2.2 -0.6 3.9 -1.7 6.1 -2.8zm-9.5 0c0 0 0.6 0 0 0c0.6 0 0 0 0 0zm1.2 1.1l0.6 0l0 -0.6c-0.6 -0.6 -1.1 -0.6 -1.1 -0.6l1.7 0c0 0.6 0.6 1.1 0.6 1.7c-0.7 0.1 -1.3 -0.5 -1.8 -0.5zm-0.6 11.7c0 0 0.6 0 0.6 -0.6l0.6 0l3.9 -3.9c1.7 0.6 2.8 0.6 4.5 0.6l1.1 0c-4.5 4.5 -4.5 6.1 0 5.6l-1.7 1.7c3.3 2.2 5.6 3.3 8.4 4.5c0.6 2.2 0 5 -2.2 6.7c-1.7 -2.8 -2.8 -3.9 -5 -6.7l-2.2 2.8l-0.6 -3.3l-2.2 -0.6c3.1 -2.9 1.5 -5.1 -5.2 -6.8l0 0zm-28.4 12.8l-1.1 -1.7c1.1 0.6 1.7 0.6 2.8 0.6c0 0 -1.7 1.1 -1.7 1.1z"></path></g></g></g><g transform="matrix(0.5 0 0 0.5 121.9 125.4)" opacity="0" style="animation-name: eaf-7bd8-6;"><g><g><ellipse fill="#faf6dc" stroke="#000000" stroke-width="28" stroke-miterlimit="8" rx="222.8" ry="222.8" transform="translate(255.4 249.2)"></ellipse></g></g><g><g><path fill="#000000" stroke="#000000" stroke-width="5" stroke-miterlimit="10" d="m438.6 350c-2.2 -3.3 -5.6 -5.6 -9.5 -7.2l3.9 -2.2c-3.9 0.6 -7.2 1.7 -11.1 2.2c-2.8 0.6 -13.4 2.8 -17.8 3.3c-1.1 -3.3 -3.3 -4.5 -7.2 -3.9l-2.2 -3.3c-1.7 1.1 -2.2 2.2 -0.6 3.9c-4.5 3.9 -5.6 7.8 -6.7 12.8c-1.1 -1.7 -4.5 -13.9 -2.2 -11.7l2.8 -1.1c-1.1 -10 -2.8 2.2 -13.9 2.8c-1.1 3.9 -3.3 7.2 -6.7 10c-2.2 1.1 -4.5 2.8 -5.6 4.5c-3.9 -1.7 -7.2 -2.8 -11.7 -3.3l0 -0.6c-3.9 1.7 -10.6 3.3 -13.9 3.9c-0.6 0.6 -1.7 1.1 -2.8 0.6c-6.1 -5 -12.8 -21.2 -6.1 -30.1c-1.7 -1.1 -21.7 -7.8 -25.6 -2.2c-0.6 0 -1.7 -0.6 -2.2 -0.6l0.6 0.6l-1.7 -1.1c2.8 -3.3 3.9 -7.8 3.9 -12.8l-1.1 0l0 -0.6c1.1 -0.6 1.7 0 2.2 1.1c2.8 -3.3 3.3 -5.6 0.6 -7.2c0.6 -2.2 1.7 -3.9 2.2 -6.1c3.9 -1.1 7.2 -2.8 8.4 -3.3l-1.7 1.1c10 -0.6 18.4 2.2 25.6 8.4l-2.8 3.3l6.7 -1.1c3.3 -0.6 6.1 -1.1 9.5 -1.7c0 1.1 1.1 2.2 2.2 2.8c-2.8 1.7 -6.1 2.2 -9.5 1.1c0 2.8 1.7 3.3 4.5 1.7c6.1 -0.6 7.8 -1.1 10 2.2c0 -2.2 1.1 -3.9 2.8 -4.5c2.2 0.6 5.6 -1.1 9.5 0c2.8 -2.8 1.7 -3.9 -3.3 -3.9l0 -1.7999c-3.3 -1.1 -8.4 -1.1 -11.7 -0.6c-3.3 -1.7 -5.6 -1.7 -7.2 0c-1.1 0 -2.8 0 -4.5 0.6c-10.6 -6.1 -30.6 -14.5 -43.4 -4.5c-22.3 8.9 -51.2 24.5 -47.3 -16.7c2.2 -21.7 17.8 -31.7 39 -25.1c-1.7 -1.1 -2.2 -2.2 -2.2 -4.5c19.5 -6.7 15.6 6.1 25.1 -0.6c0.6 1.1 16.2 27.3 20.1 23.4c-3.3 -13.4 -7.2 -25.6 -3.3 -39.5c2.8 -8.9 12.8 -8.9 12.8 -20.1c-1.1 -2.2 -2.8 -4.5 -5.6 -6.1l2.8 0.6c-1.7 -1.7 -1.7 -3.3 -1.1 -5c0 2.8 1.1 4.5 3.9 5.6l-0.6 3.3l0.6 0c2.8 -3.9 2.8 -7.8 -1.1 -11.1c1.7 0 2.8 1.1 3.3 2.2c1.7 -2.2 2.2 -4.5 1.7 -7.2l-1.1 0l0.6 -1.7l0 0.6c2.8 -0.6 5 -1.1 7.2 -2.2c-2.2 -0.6 -4.5 -0.6 -6.7 0.6c3.9 -2.2 8.4 -3.9 12.8 -5c0 -1.1 -0.6 -1.7 -1.7 -2.2l1.1 1.7c-4.5 -5 -3.3 -11.1 6.1 -15l1.1 -0.6c2.8 -1.1 5.6 -1.7 8.9 -2.2c-2.2 4.5 -6.1 2.8 -2.8 8.4c7.8 0.6 12.8 -3.9 15.6 -13.4c-2.2 -0.6 -3.9 -1.7 -4.5 -4.5c-1.1 1.7 -2.2 2.8 -3.3 3.3c-2.8 1.1 -5.6 0.6 -7.2 -1.7c0 0.6 0 0.6 -0.6 1.1c-1.7 -1.7 -2.8 -4.5 -3.9 -8.4c-8.4 -1.1 -15 3.9 -18.9 11.7c8.4 -19.5 17.3 -15 27.3 -22.8c-2.2 5.6 -1.1 8.9 3.3 10.6c-2.2 6.7 4.5 1.1 12.3 1.7l-0.6 2.2c2.2 -0.6 2.8 -2.2 2.8 -4.5c1.7 1.7 2.8 6.1 6.1 3.9c-1.7 -2.8 -3.9 -5.6 -5.6 -8.4l-1.1 0.6c0 -2.8 -1.7 -4.5 -4.5 -3.9l-0.6 1.1l-3.3 -0.6l0 -1.7l-2.2 -0.6l-1.1 1.7c0 -2.2 -0.6 -4.5 -0.6 -6.7c1.1 -1.1 1.7 -2.2 2.8 -3.3c-7.2 -7.2 -34.5 -21.7 -42.3 -26.2c1.1 3.9 0.6 6.7 -2.8 8.9c-8.4 -8.4 -20.1 -15 -32.9 -12.3c3.3 7.2 7.2 7.2 3.9 12.8c9.5 5 10.6 10.6 1.1 16.2c7.8 6.7 9.5 11.1 3.3 14.5c-6.7 -3.3 -10.6 -8.4 -11.7 -15.6c-15.6 -3.3 -27.9 -5 -37.9 -13.9c-0.6 -6.7 5.6 -13.4 9.5 -17.3c2.8 -0.6 5 -2.2 6.7 -4.5c0 1.7 -0.6 3.3 -2.2 4.5c2.2 -1.1 3.9 -0.6 4.5 1.7c1.7 -1.1 3.3 -2.2 5 -3.9c1.1 1.1 2.2 1.7 3.3 2.2c1.7 1.1 3.9 0 4.5 -1.7l-1.7 0c-0.6 -0.6 -1.7 -0.6 -2.2 0c-1.7 -2.8 -5.6 -4.5 -8.9 -3.9l0 -0.6c0.6 -1.1 1.1 -2.2 1.1 -3.9c8.9 0.6 10.6 -1.7 6.1 -5.6c1.1 -1.7 1.1 -2.8 0.6 -3.3c1.1 -0.6 2.2 -1.7 2.8 -3.3c2.2 0.6 3.9 1.7 6.1 2.8l-0.6 1.1c3.9 0 7.8 1.7 10.6 4.5c-1.1 2.2 -1.1 4.5 0.6 6.1c-2.8 0.6 -5.6 1.1 -8.4 1.1l-0.6 2.8c2.8 1.1 5.6 1.1 8.4 0l-0.6 -1.1c2.8 1.1 5.6 1.7 8.4 2.8l0 1.1c5 2.2 10.6 3.3 16.7 3.3c-2.8 -2.2 -6.1 -3.9 -9.5 -5.6c3.3 1.1 6.7 1.7 10.6 2.2c-3.3 -5 -8.9 -8.9 -14.5 -11.1c3.9 -1.7 7.2 -1.1 11.1 2.8c0.6 -9.5 -5 -12.8 -17.8 -10l2.2 -1.7c-1.1 -0.6 -20.6 -7.8 -24.5 -8.4c-0.6 1.7 -1.7 2.2 -3.9 2.2c0 -1.1 -0.6 -2.2 -0.6 -2.8c0.6 0.6 1.1 0.6 1.7 1.1c1.7 -0.6 3.3 -0.6 5 -0.6c-2.2 -2.2 -5 -2.8 -7.8 -1.7c-0.6 -0.6 -1.1 -0.6 -1.7 -0.6c0.6 -0.6 1.1 -0.6 1.1 -1.1c-0.6 -0.6 -1.7 -0.6 -2.8 -1.1c1.1 -0.6 1.7 -1.1 1.1 -1.7c1.7 -1.1 2.2 -1.7 1.1 -2.2c15.6 -0.6 29 8.4 42.9 11.7c-1.7 -0.6 -3.3 0 -5 0.6c3.9 5.6 6.7 5.6 7.8 1.1c3.3 1.7 4.5 3.3 2.2 5c11.7 11.7 27.9 21.2 44.6 20.6c-6.1 -5 -11.7 -11.1 -15.6 -18.4c3.9 -3.9 2.8 -7.2 -2.8 -11.1c3.3 -3.3 2.2 -6.1 -2.8 -9.5c-1.1 0.6 -2.2 1.1 -2.8 1.7c-1.1 -1.7 -2.8 -2.8 -5 -2.8c1.7 0.6 3.9 0.6 5.6 1.1l0 -1.1c-3.3 -1.1 -7.2 -2.2 -10.6 -2.8l2.8 0c-1.7 -1.1 -3.9 -1.7 -6.1 -1.7c1.7 -1.7 0 -2.8 -3.3 -2.2l0.6 -1.1c-1.7 0 -3.9 -0.6 -5 -1.7c-2.8 -0.6 -6.1 -1.1 -8.9 -2.2l0 -0.6c-6.7 -6.1 -12.3 -7.2 -16.7 -3.9c-0.6 -3.3 -3.3 -3.9 -8.4 -2.8c0.6 1.1 1.7 1.7 2.2 2.2c-1.7 -0.6 -2.8 -1.1 -4.5 -1.1l1.1 0.6c-2.2 0.6 -2.2 0.6 -3.9 0.6l1.7 -1.7c-3.3 -1.1 -7.2 -1.1 -10 1.1l1.1 0.6l-1.7 0.6c1.1 1.1 2.2 2.2 3.9 2.2l2.2 0l-6.1 0l0.6 1.1c-2.2 -0.6 -3.9 0 -5.6 1.7l1.7 0.6c-0.6 1.1 -0.6 1.7 -1.1 1.7c-2.8 0 -5.6 0.6 -7.8 1.1l0 1.3c-2.2 -1.1 -3.9 -0.6 -5.6 1.1c0 0.6 0.6 1.1 1.1 1.1c2.2 1.7 5 2.2 7.8 1.7c-1.1 1.1 -2.2 1.7 -4.5 0.6l0.6 0.6c-2.2 -2.2 -4.5 -3.3 -7.8 -2.8l0.6 0.6c-2.2 1.1 -2.8 2.2 -1.1 3.3c-1.1 -0.6 -2.8 0 -3.9 0.6l-1.1 0l-0.6 2.8l2.2 0l-0.6 1.7c0.6 0 1.1 0.6 1.7 0.6c0.6 0.6 1.1 0.6 1.7 0.6c0.6 0.6 1.1 1.1 2.2 1.7c-1.7 0.6 -2.2 1.7 -2.2 3.9c-2.2 -0.6 -3.9 0 -5 1.1l1.1 1.7l-3.3 -0.6l0 1.1c1.7 0.6 3.3 2.2 4.5 3.3c0.6 0 0.6 0 1.1 0.6c-0.6 1.1 -1.7 1.7 -2.8 2.2c1.7 1.1 3.3 1.7 5 1.7c0.6 1.1 0.6 1.7 1.1 2.2c-1.7 -0.6 -2.8 0 -2.8 2.2c-1.1 -4.5 -2.8 -4.5 -4.5 -1.7c-3.3 0 -6.7 -0.6 -10.6 -1.1c1.7 -0.6 2.8 -1.7 3.9 -3.3l-1.1 -1.1c2.2 0.6 3.3 0.6 3.3 -1.7c-4.5 -0.6 -6.1 -2.2 -5.6 -5.6c0.5 -3.4 -1.1 -5 -4.5 -4.5c0.6 1.7 0 3.3 -1.1 3.9c0 -3.9 -1.1 -5 -3.3 -2.8c-1.1 -2.2 -2.8 -2.2 -5 -1.1l1.7 -1.1c-0.6 -0.6 -1.7 -0.6 -2.2 -1.1l0.6 0c-2.8 -2.8 -6.7 -4.5 -11.1 -3.9c0 3.3 -2.8 5.6 -7.8 6.1c1.7 0.6 2.2 1.7 1.7 3.3c3.3 -0.6 6.1 -1.7 9.5 -3.3c-0.6 0.6 -1.7 1.1 -2.2 2.2c1.1 1.1 2.8 1.7 4.5 1.1l-4.5 0.6l0 1.1c3.3 0 6.1 0.6 8.9 1.7c-3.3 0 -6.1 0 -8.9 0.6l0.6 2.8c2.8 -0.6 4.5 0.6 3.9 2.2c1.7 1.1 3.3 1.7 5 2.2c-3.3 0.6 -6.7 0.6 -9.5 -0.6l3.3 -1.1c-2.8 -3.9 -7.2 -6.1 -12.8 -6.1c-1.1 1.1 -2.2 1.1 -3.9 1.1l1.7 -2.2l-3.9 1.7c0.6 -1.7 0.6 -2.8 -1.1 -3.3c-1.1 1.1 -2.2 1.7 -3.3 1.7l0 -1.3c-12.8 0 -18.9 0 -26.7 -8.9l1.1 -0.6c-0.6 -1.1 -1.7 -1.1 -2.8 -0.6c1.1 -0.6 1.7 -1.7 1.1 -2.2c-13.4 -2.8 -19.5 1.7 -27.9 10l-1.7 -1.1l2.2 -1.1c-7.2 -2.2 -11.1 1.1 -8.9 5l-0.6 1.1c1.1 -0.6 2.8 -0.6 3.9 0c-1.7 1.1 -6.1 2.2 -6.7 2.2l-2.8 0.6l0 -1.1c-6.7 0.6 -11.7 3.9 -15 9.5l2.2 0.6c-1.1 1.7 -2.8 3.3 -5 4.5c1.1 1.1 2.2 0.6 3.3 0l-0.6 2.8l1.7 -1.1l-1.7 2.2l2.2 -0.6l-0.6 0.6l2.8 0c-8.9 4.5 -17.8 7.2 -27.3 8.4c16.7 1.7 30.6 -7.2 45.7 -11.7c-1.7 3.3 -5 5.6 -10 6.1c6.7 -0.6 8.9 -0.6 13.9 -2.8c0.6 10 26.2 18.4 13.9 32.3c1.7 2.2 1.7 4.5 0 6.7l2.2 2.2c-3.3 2.8 -3.3 5 -1.7 7.2c-1.1 -0.6 -2.2 -1.1 -3.3 -1.1c-2.8 2.2 1.7 6.7 3.3 7.8c0.6 2.8 3.3 4.5 6.1 3.9c0 -2.8 -0.6 -5 -1.7 -6.7c3.9 3.3 7.8 6.7 2.2 12.8c1.1 -3.3 -0.6 -5.6 -3.9 -6.7c-10 32.9 -13.4 41.2 -1.1 69.1c5.6 11.7 12.3 24 8.4 31.7c1.7 2.2 3.3 4.5 5.6 6.1l0.6 -0.6c4.5 2.2 6.1 6.1 4.5 10.6c1.7 6.7 5 10 10 10.6c2.8 -1.7 -17.8 -40.1 -11.7 -29.5c-1.1 -6.1 -2.2 -11.7 -4.5 -17.3c11.1 5.6 8.4 23.4 20.6 29l-1.1 3.3c9.5 6.7 15 17.3 17.3 27.9l-1.7 0.6c18.4 23.4 63.5 37.3 91.3 36.8c1.7 0 2.2 0.6 2.8 2.2l-0.6 0.6l-1.1 -0.6l0.6 1.1c3.3 2.8 7.2 5.6 10.6 8.9l-1.1 1.1l1.7 0.6c-1.1 2.8 0 5 3.3 6.1c1.1 -0.6 1.1 -1.7 0.6 -2.8c1.1 0.6 1.7 1.1 1.7 2.2c2.8 3.3 6.1 5.6 9.5 7.2l0 -1.1c6.1 0 5.6 2.2 9.5 1.7l1.1 2.8c1.7 0 3.3 -0.6 4.5 -2.2c-2.8 -6.7 1.7 -7.2 8.9 -4.5l-1.1 1.7c2.8 3.3 8.4 13.9 5.6 19.5l1.7 1.1c-1.1 1.1 -8.4 8.4 -7.2 11.1l-1.7 0.6l0.6 1.7c-5 3.9 -8.9 7.2 -10.6 12.8c1.1 2.2 1.1 3.9 0 5.6l3.3 1.7l2.2 -2.2c-3.3 5 -6.7 12.8 -6.7 18.9c1.1 1.1 2.8 2.2 3.9 3.3c38.3 -19.0001 71.1 -50.1001 92.8 -88.6001l0 0zm-152.6 -280.7l2.8 0c-0.6 0 -1.1 0.6 -1.1 0.6c-1.1 -0.1 -1.1 -0.6 -1.7 -0.6zm-20 13.4c0 0 0 -0.6 0 0c0 -0.6 0 0 0 0zm17.2 -4.5c-0.6 0.6 -1.1 1.1 -1.1 1.7c-1.1 -0.6 -1.1 -1.1 -1.7 -1.7l2.8 0zm-7.2 -8.9l-0.6 -0.6c0.6 0 0.6 0.6 1.1 0.6l0 1.1c-1.1 0 -1.7 0.6 -2.2 1.7c1.7 0 2.8 0.6 3.9 1.7c-1.1 -1.1 -2.8 -1.1 -3.9 -0.6l0.6 1.7c-1.1 0 -2.2 -0.6 -3.3 -0.6l0 -1.1c-0.6 -0.6 -1.1 -1.1 -1.7 -1.1c2.2 -0.6 3.9 -1.7 6.1 -2.8zm-9.5 0c0 0 0.6 0 0 0c0.6 0 0 0 0 0zm1.2 1.1l0.6 0l0 -0.6c-0.6 -0.6 -1.1 -0.6 -1.1 -0.6l1.7 0c0 0.6 0.6 1.1 0.6 1.7c-0.7 0.1 -1.3 -0.5 -1.8 -0.5zm-0.6 11.7c0 0 0.6 0 0.6 -0.6l0.6 0l3.9 -3.9c1.7 0.6 2.8 0.6 4.5 0.6l1.1 0c-4.5 4.5 -4.5 6.1 0 5.6l-1.7 1.7c3.3 2.2 5.6 3.3 8.4 4.5c0.6 2.2 0 5 -2.2 6.7c-1.7 -2.8 -2.8 -3.9 -5 -6.7l-2.2 2.8l-0.6 -3.3l-2.2 -0.6c3.1 -2.9 1.5 -5.1 -5.2 -6.8l0 0zm-28.4 12.8l-1.1 -1.7c1.1 0.6 1.7 0.6 2.8 0.6c0 0 -1.7 1.1 -1.7 1.1z"></path></g></g></g><g transform="matrix(0.1821 -0.0773 0.0712 0.1678 -311.8787 476.8828)" style="animation-name: eaf-7bd8-10, eaf-7bd8-11, eaf-7bd8-12; animation-composition: replace, add, add;"><g transform="translate(-1659.3083 -843.9493)"><polygon points="1860.3,1286.5 2125.2,1360 2288.3999,1374.7 2129.5,1471.3 2091,1488.4 1703.9,1499.1 1736,1430.6" fill="#c90000"></polygon><polygon points="2783.8999,932.3 2737.8,1041.8 2734,1155.5 2795,1251.7 2912.2,1200.5 3044.8,1101.9 3012.5,1056.4 2810.8,932.3" fill="#c90000"></polygon><polyline points="1693.2,670.7 1870.7,901.6 2180.8,836.1 2308.5,830.4 2212.2,767.7 2120.8999,704.9 1693.2,670.7" fill="#c90000"></polyline><polygon points="1871.2,901.2 2078.1001,851.7 2273.2,830.4 2544.8999,851.7 2758.8,921.5 2795,939.8 2758.8,986.7 2728.3,1066.9 2734,1155.5 2795,1251.7 2691.2,1303.7 2434.6001,1357.9 2188.8,1386.1 1941.3,1327.5 1859.9,1302.5" fill="#f7e79c"></polygon><g style="filter: blur(20px);"><path fill="#f9bd00" d="m1628.7 1015.2c0 0 84.3 -151 -110 -134.1c-194.2999 16.9 -632.2999 108.4 -625.6 104.6c6.7 -3.8 327.1 -15.2 297.2999 11c-29.9 26.2 -440.7 128.3 -440.7 128.3c0 0 487.5001 -8.4 432.4 11c-55.1 19.5 -343.8 94.6 -343.8 94.6c0 0 404.3 185.5 577.4999 134.7c173.2 -50.8 212.9001 -350.0999 212.9001 -350.0999z" transform="matrix(0.9962 0.0872 -0.0872 0.9962 101.1527 -132.9916)" style="animation-name: eaf-7bd8-7, eaf-7bd8-8, eaf-7bd8-9; animation-composition: replace, add, add;"></path></g><ellipse fill="#f9f7f7" rx="130.4" ry="130.4" transform="translate(2402.2 1080)"></ellipse></g><g transform="translate(-1659.3083 -843.9493)"><path fill="#000000" d="m1842.8 1314.2l4.6 -428.2l15.7 -5.4c156.7 -53.4 313.2999 -78.8 465.5001 -75.7c124.6001 2.6 247.1001 24.3 363.8999 64.5c203.8 70.1 330.8999 175.6 365 206.3c7.1001 6.3 10.8999 15.4 10.6001 24.9c-0.3 9.5 -4.8 18.3 -12.3 24.1c-129.8 101 -273.6001 174.1 -427.3 217.4c-122.8999 34.6 -252.3 50.2 -384.7 46.5c-225.4 -6.4 -379.5 -66.1 -385.9 -68.6l-15.1 -5.8zm51.2 -394.2999l-3.9 361.9c43.6 14.8 178.4 55.3 356.7999 60.1c127.3999 3.4 251.8999 -11.7 370 -45.1c141.7 -40 274.8 -106.6 395.6001 -197.9c-45.8999 -38.7 -161 -125 -335.2 -184.9c-112.2 -38.6 -229.8999 -59.5 -349.6001 -61.9c-141.7 -3 -287.5 19.8 -433.7 67.8z"></path><g><polygon points="1730.7,1327.5 1726.3,876.3 1871.2,879.5 1870.2,926.4 1773.7,924.3 1777.1,1278.6 1858.8,1275.3 1860.7,1322.2" fill="#000000"></polygon></g><g><polygon points="1611.5,1251.3 1607.9,943.9 1751,944 1751,990.9 1655.4,990.8 1657.8,1201.3 1749.3,1195.5 1752.3,1242.3" fill="#000000"></polygon></g><g><path fill="#000000" d="m1850.2 918.6l-184.5 -223.1c-5.9 -7.1 -7.2 -17.1 -3.2 -25.5c3.9 -8.4 12.5 -13.8 21.7 -13.7l1.3 0l444.2 24.5l198.3999 129.3l-25.6001 39.3l-187.9998 -122.4l-379.2 -20.9l151 182.6l-36.1001 29.9z"></path></g><g><path fill="#000000" d="m1664 1522.6c-2.1 -2.1 -3.9 -4.6 -5.1 -7.4c-4.1 -9 -2.4 -19.6 4.1 -27l178.9 -201.6l35.1 31.2l-144.3 162.6l371 -19.6l199.2 -117.5l23.8999 40.4l-209.1997 123.3l-435.8 23c-6.8 0 -13.2001 -2.7 -17.8 -7.4z"></path></g><g><path fill="#000000" d="m2302.8999 1181.6c-55.2 -55.3 -55.1001 -145.3 0.2 -200.5c55.3 -55.2 145.3 -55.1 200.5 0.2c55.2 55.3 55.1001 145.3 -0.2 200.5001c-55.2998 55.2 -145.2998 55.1 -200.5 -0.2001zm167.4001 -167.1c-36.8999 -37 -97.1001 -37.1 -134.1001 -0.1c-37 36.9 -37.1001 97.1 -0.1001 134.1c36.8999 37 97.1001 37.1 134.1001 0.1c37 -37 37.1001 -97.1 0.1001 -134.1z"></path></g><g><path fill="#000000" d="m2776.8999 1269.1c-80.8 -84.6 -77.3 -175.2 -60.2 -236.3c18.1001 -64.6 54.6001 -109.4 56.1001 -111.2l36.3 29.8c-0.3 0.4 -32.3999 40.1 -47.6001 95.5c-19.5 71.3 -2.8999 135.2 49.3 189.8l-33.9001 32.4z"></path></g></g></g></g></g></svg>