<svg xmlns="http://www.w3.org/2000/svg" viewBox="0 0 650 650" overflow="hidden" preserveAspectRatio="xMidYMid meet" id="eaf-bec4-0"><defs><clipPath id="eaf-bec4-1"><rect x="0" y="0" width="650" height="650"></rect></clipPath><style>#eaf-bec4-0 * {animation: 7000ms linear infinite normal both running;offset-rotate:0deg}@keyframes eaf-bec4-2{0%,100%{transform:translate(146.5px,603px)}}@keyframes eaf-bec4-3{0%{transform:scale(1,1);animation-timing-function:ease-in-out}21.43%{transform:scale(1,3.41)}81.9%{transform:scale(1,3.41);animation-timing-function:ease-in-out}92.86%,100%{transform:scale(1,1)}}@keyframes eaf-bec4-4{0%,100%{transform:translate(325px,603px)}}@keyframes eaf-bec4-5{0%{transform:scale(1,1);animation-timing-function:ease-in-out}35.71%{transform:scale(1,4.77)}81.9%{transform:scale(1,4.77);animation-timing-function:ease-in-out}95.71%,100%{transform:scale(1,1)}}@keyframes eaf-bec4-6{0%,100%{transform:translate(503.5px,603px)}}@keyframes eaf-bec4-7{0%{transform:scale(1,1);animation-timing-function:ease-in-out}50.96%{transform:scale(1,5.96)}81.9%{transform:scale(1,5.96);animation-timing-function:ease-in-out}89.04%,100%{transform:scale(1,1)}}@keyframes eaf-bec4-8{0%,100%{transform:none;offset-path:path("m-370.6851 499.5824l2.8315 1.1176l692.8535 -212.1127l0 0l-695.6851 210.9951")}}@keyframes eaf-bec4-9{0%{offset-distance:0%;animation-timing-function:ease-in-out}46.19%{offset-distance:0.2093%;animation-timing-function:ease-in-out}64.29%{offset-distance:50.0227%}80%{offset-distance:50.0227%;animation-timing-function:ease-in-out}90.96%,100%{offset-distance:100%}}@keyframes eaf-bec4-10{0%{transform:rotate(0)}46.19%{transform:rotate(0);animation-timing-function:ease-in-out}64.29%{transform:rotate(-51deg)}80%{transform:rotate(-51deg);animation-timing-function:ease-in-out}90.96%,100%{transform:rotate(0)}}@keyframes eaf-bec4-11{0%,100%{transform:translate(0px,0px)}}@keyframes eaf-bec4-12{0%{opacity:0}61.43%{opacity:0;animation-timing-function:ease-in-out}63.81%{opacity:1}78.1%{opacity:1;animation-timing-function:ease-in-out}80.96%,100%{opacity:0}}</style></defs><g clip-path="url('#eaf-bec4-1')" style="isolation: isolate;"><g><g><path fill="#666666" d="m650 325.1c0 81.6 0 163.1 0 244.7c0 37.4 -28.2 71.6 -65 78.6c-5.5 1 -11.1 1.6 -16.6 1.6c-162.6 0 -325.2 0 -487.7 0c-39.9 0.0001 -74.7 -30.5999 -79.9 -70.2c-0.5 -3.5 -0.8 -7 -0.8 -10.6c0 -163 0 -326 0 -488.9c0 -37.4 28.2 -71.6 65 -78.6c5.4 -1 11.1 -1.6 16.6 -1.6c162.7 -0.1 325.4 -0.1 488.1 -0.1c37.4 0 71.6 28.2 78.6 65c1 5.4 1.6 11.1 1.6 16.6c0.1 81.2 0.1 162.3 0.1 243.5l0 0l0.0001 0z"></path></g><g transform="translate(146.5 603)" style="animation-name: eaf-bec4-2, eaf-bec4-3; animation-composition: replace, add;"><rect fill="#000000" width="140" height="60" transform="translate(-70 -60)"></rect></g><g transform="translate(325 603)" style="animation-name: eaf-bec4-4, eaf-bec4-5; animation-composition: replace, add;"><rect fill="#000000" width="140" height="72" transform="translate(-70 -72)"></rect></g><g transform="translate(503.5 603)" style="animation-name: eaf-bec4-6, eaf-bec4-7; animation-composition: replace, add;"><rect fill="#000000" width="140" height="89.5" transform="translate(-70 -89.5)"></rect></g><g transform="translate(-370.6851 499.5824)" style="animation-name: eaf-bec4-8, eaf-bec4-9, eaf-bec4-10, eaf-bec4-11; animation-composition: replace, add, add, add;"><g transform="matrix(0.9675 0.2528 -0.2528 0.9675 0 0)"><g transform="translate(365.2791 -434.7108)"><path fill="#ffffff" stroke="#000000" stroke-width="12" d="m-710.4 456.9c-2.2 -1.5 -3.8 -3.7 -4.3 -6.3l-8.2 -39.2c-1.1 -5.4 2.3 -10.7 7.7 -11.8l255.6 -53.5c2.6 -0.5 5.2 0 7.3 1.3c1.1 0.7 2.1 1.6 2.9 2.8l73.4 105.6l194.4 -46.3l-13 -43.9c-1.1 -3.6 -0.2 -7.5 2.3 -10.2c2.5 -2.7 6.3 -4 9.9 -3.3l166.4 32.5c1.3 0.3 2.5 0.7 3.6 1.4c2.8 1.7 4.6 4.6 4.9 7.9c0.3 3.3 -0.8 6.5 -3.2 8.8l-121.8 117.8c-3.5 3.4 -8.9 4 -13.1 1.4c0 0 0 0 0 0c-2.2 -1.4 -3.8 -3.5 -4.6 -6l-14.5 -48.8l-230.5 54.9c-2.7 0.6 -5.4 0.1 -7.6 -1.3c-1.1 -0.7 -2.1 -1.6 -2.9 -2.8l-74 -106.4l-223.2 46.7c-2.5 0.5 -5.2 0.1 -7.3 -1.3c-0.1 0 -0.2 0 -0.2 0l0 -0.0001z"></path></g></g></g><polygon points="0,-144.3064 42.4106,-58.3732 137.2435,-44.5931 68.6218,22.2966 84.8212,116.7463 0,72.1532 -84.8212,116.7463 -68.6218,22.2966 -137.2435,-44.5931 -42.4106,-58.3732 0,-144.3064" fill="#d90000" transform="matrix(-0.3403 0.5592 -0.5592 -0.3403 155.3878 129.7432)" opacity="0" style="animation-name: eaf-bec4-12;"></polygon></g></g></svg>