<svg xmlns="http://www.w3.org/2000/svg" viewBox="0 0 650 650" overflow="hidden" preserveAspectRatio="xMidYMid meet" id="eaf-202c-0"><defs><clipPath id="eaf-202c-1"><rect x="0" y="0" width="650" height="650"></rect></clipPath><radialGradient gradientUnits="userSpaceOnUse" cx="179.5881" cy="194.115" r="108.5675" id="eaf-202c-2"><stop stop-color="#faf2e8" offset="0"></stop><stop stop-color="#f2d4b1" offset="1"></stop></radialGradient><radialGradient gradientUnits="userSpaceOnUse" cx="475.4" cy="212.6499" r="288.1964" id="eaf-202c-3"><stop stop-color="#f0c28b" offset="0"></stop><stop stop-color="#291704" offset="1"></stop></radialGradient><radialGradient gradientUnits="userSpaceOnUse" cx="322.7984" cy="266.3939" r="108.5675" fx="322.7984" fy="266.3939" fr="0" id="eaf-202c-4"><stop stop-color="#fff1e0" offset="0"></stop><stop stop-color="#d4b38d" offset="1"></stop></radialGradient><style>#eaf-202c-0 * {animation: 5000ms linear infinite normal both running;offset-rotate:0deg}@keyframes eaf-202c-5{0%,100%{transform:none;offset-path:path("m178.6 275.6l-13.9727 -32.867l20.2589 -5.7l-6.2862 38.567")}}@keyframes eaf-202c-6{0%{offset-distance:0%;animation-timing-function:ease-in-out}47.34%{offset-distance:37.2658%;animation-timing-function:ease-in-out}65.34%{offset-distance:59.2259%;animation-timing-function:ease-in-out}100%{offset-distance:100%}}@keyframes eaf-202c-7{0%,100%{transform:translate(-178.8px,-279.8px)}}@keyframes eaf-202c-8{0%,100%{transform:none;offset-path:path("m474.7001 309.9999l47.5162 -46.7578l-9.6471 61.7579l-37.8691 -15.0001")}}@keyframes eaf-202c-9{0%{offset-distance:0%;animation-timing-function:ease-in-out}30.66%{offset-distance:39.2366%;animation-timing-function:ease-in-out}77.34%{offset-distance:76.0264%;animation-timing-function:ease-in-out}100%{offset-distance:100%}}@keyframes eaf-202c-10{0%,100%{transform:translate(-474.7001px,-308.9999px)}}@keyframes eaf-202c-11{0%,100%{transform:none;offset-path:path("m321.95 378.2l24.35 39.2l-24.35 -39.2")}}@keyframes eaf-202c-12{0%{offset-distance:0%;animation-timing-function:ease-in-out}40%{offset-distance:50%;animation-timing-function:ease-in-out}100%{offset-distance:100%}}@keyframes eaf-202c-13{0%,100%{transform:translate(-321.95px,-375.2px)}}@keyframes eaf-202c-14{0%,100%{filter:none}}@keyframes eaf-202c-15{0%{filter:drop-shadow(12px 12px 12px #000000)}86.66%,100%{filter:drop-shadow(6px 6px 18px #000000)}}</style></defs><g clip-path="url('#eaf-202c-1')" style="isolation: isolate;"><g><path fill="#666666" d="m651.4 325.1c0 81.6 0 163.1 0 244.7c0 37.4 -28.2 71.6 -65 78.6c-5.5 1 -11.1 1.6 -16.6 1.6c-162.6 0 -325.2 0 -487.7 0c-39.9 0 -74.7 -30.6 -79.9 -70.2c-0.5 -3.5 -0.8 -7 -0.8 -10.6c0 -163 0 -326 0 -488.9c0 -37.4 28.2 -71.6 65 -78.6c5.4 -1 11.1 -1.6 16.6 -1.6c162.7 -0.1 325.4 -0.1 488.0999 -0.1c37.4 0 71.6 28.2 78.6 65c1 5.4 1.6 11.1 1.6 16.6c0.1001 81.2 0.1001 162.3 0.1001 243.5l0 0l0 0z"></path><g transform="translate(-0.2 -4.2)" style="animation-name: eaf-202c-5, eaf-202c-6, eaf-202c-7; animation-composition: replace, add, add;"><path fill="#fef9df" stroke="#000000" stroke-width="14" stroke-miterlimit="10" d="m337.3 368.5l-0.5 -2.8c-4.1 -24.2 -9.8 -57.4 -31.1 -73.9c-9 -7 -19.2 -10.4 -29.1 -13.7c-3.9 -1.3 -7.5 -2.6 -11 -4c-5.1 -2.1 -9.7 -4.1 -14 -6.3c-18.1 24.9 -43.1 38.1 -72.8 38.1c-29.8 0 -54.8 -13.1 -72.8 -38.1c-4.3 2.2 -8.9 4.3 -14 6.3c-3.5 1.4 -7.2 2.7 -11 4c-9.9 3.3 -20.1 6.8 -29.1 13.7c-21.4 16.5 -27 49.7 -31.1 73.9l-0.5 2.8c-3.4 20.1 -5.5 39.6 -6.1 57.9c-0.7 21.6 12.2 26.4 23.6 30.6l1.2 0.5c13.7 5.1 29 9.5 46.8 13.4c36.4 8 65.9 11.7 92.9 11.9l0.1 0l0.1 0c27 -0.2 56.5 -4 92.9 -11.9c17.8 -3.9 33.1 -8.3 46.8 -13.4l1.2 -0.5c11.4 -4.2 24.3 -9 23.6 -30.6c-0.6 -18.3 -2.7 -37.8 -6.1 -57.9z"></path><path fill="url('#eaf-202c-2')" stroke="#000000" stroke-width="14" stroke-miterlimit="10" d="m96.4 182c5.4 48.7 26 108.1 83.2 108.1c57.2 0 77.8 -59.3 83.2 -108.1c6.6 -60 -20.8 -105.2 -83.2 -105.2c-62.4 0 -89.9 45.2 -83.2 105.2z"></path></g><g transform="translate(0 1)" style="animation-name: eaf-202c-8, eaf-202c-9, eaf-202c-10; animation-composition: replace, add, add;"><path fill="#e1f3fd" stroke="#000000" stroke-width="14" stroke-miterlimit="10" d="m633.2 397.7l-0.5 -2.8c-4.1 -24.2 -9.8 -57.4 -31.1 -73.9c-9 -7 -19.2 -10.4 -29.1 -13.7c-3.9 -1.3 -7.5 -2.6 -11 -4c-5.1 -2.1 -9.7 -4.1 -14 -6.3c-18.1 24.9 -43.1 38.1 -72.8 38.1c-29.8 0 -54.8 -13.1 -72.8 -38.1c-4.3 2.2 -8.9 4.3 -14 6.3c-3.5 1.4 -7.2 2.7 -11 4c-9.9 3.3 -20.1 6.8 -29.1 13.7c-21.4 16.5 -27 49.7 -31.1 73.9l-0.5 2.8c-3.4 20.1 -5.5 39.6 -6.1 57.9c-0.7 21.5 12.2 26.3 23.6 30.6l1.2 0.5c13.7 5.1 29 9.5 46.8 13.4c36.4 8 65.9 11.7 92.9 11.9l0.1 0l0.1 0c27 -0.2 56.5 -4 92.9 -11.9c17.8 -3.9 33.1 -8.3 46.8 -13.4l1.2 -0.5c11.4 -4.2 24.3 -9 23.6 -30.6c-0.7001 -18.4 -2.7001 -37.9 -6.1 -57.9z"></path><path fill="url('#eaf-202c-3')" stroke="#000000" stroke-width="14" stroke-miterlimit="10" d="m392.2 211.2c5.4 48.7 26 108.1 83.2 108.1c57.2 0 77.8 -59.3 83.2 -108.1c6.6 -60 -20.8 -105.2 -83.2 -105.2c-62.4 -0.1 -89.8 45.1 -83.2 105.2z"></path></g><g style="filter: drop-shadow(rgb(85, 85, 85) 12px 12px 12px); animation-name: eaf-202c-14, eaf-202c-15; animation-composition: replace, add;"><g transform="translate(0 3)" style="animation-name: eaf-202c-11, eaf-202c-12, eaf-202c-13; animation-composition: replace, add, add;"><path fill="#666666" d="m523 540.5c-0.7 -21.5 -3.1 -44.3 -7.1 -67.7l-0.5 -3.2c-5.1 -29.9 -12 -70.9 -41 -93.3c-12.2 -9.4 -25.4 -13.9 -37.2 -17.9c-4.2 -1.4 -8.1 -2.7 -11.7 -4.2c-5.9 -2.4 -10.5 -4.5 -14.5 -6.6l-1.9 -1c14.3 -26.8 20.2 -57.9 22.7 -80.2c4.6 -42 -4.1 -77.2 -25.3 -101.8c-19.4 -22.5 -48.3 -34.4 -83.7 -34.4c0 0 0 0 0 0c-35.3 0 -64.3 11.9 -83.7 34.4c-21.2 24.6 -29.9 59.8 -25.3 101.8c2.4 22.1 8.3 52.8 22.3 79.5l-3.3 1.7c-4 2.1 -8.6 4.2 -14.5 6.6c-3.5 1.4 -7.5 2.8 -11.6 4.2c-11.7 4 -25 8.5 -37.2 17.9c-28.9 22.4 -35.9 63.3 -41 93.3l-0.5 3.2c-4 23.4 -6.4 46.2 -7.1 67.7c-1.2 35.7 23.4 44.8 36.6 49.7l1.4 0.5c16.1 6 34.1 11.2 54.9 15.7c42.1 9.2 76.4 13.6 108 13.8l0.3 0l0.1 0c31.6 -0.2 65.9 -4.6 108 -13.8c20.8 -4.6 38.8 -9.7 54.9 -15.7l1.4 -0.5c13.1 -4.9 37.7 -14 36.5 -49.7z"></path><path fill="#000000" d="m501.1 475.6l-0.5 -3.2c-4.6 -27.4 -11 -64.8 -35.2 -83.5c-10.2 -7.9 -21.7 -11.8 -32.8 -15.5c-4.4 -1.5 -8.5 -2.9 -12.5 -4.5c-5.8 -2.3 -10.9 -4.6 -15.8 -7.2c-20.4 28.2 -48.7 43 -82.3 43c-33.6 0 -61.9 -14.8 -82.3 -43c-4.9 2.5 -10 4.8 -15.8 7.2c-3.9 1.6 -8.1 3 -12.5 4.5c-11.1 3.8 -22.7 7.7 -32.8 15.5c-24.1 18.7 -30.5 56.1 -35.2 83.5l-0.5 3.2c-3.9 22.7 -6.2 44.7 -6.9 65.5c-0.8 24.3 13.8 29.8 26.6 34.5l1.4 0.5c15.5 5.8 32.8 10.7 52.9 15.1c41.1 9 74.5 13.3 105 13.5l0.1 0l0.1 0c30.5 -0.2 63.9 -4.5 105 -13.5c20.1 -4.4 37.4 -9.4 52.9 -15.1l1.4 -0.5c12.9 -4.8 27.5 -10.2 26.7 -34.5c-0.8 -20.8 -3.2 -42.9 -7 -65.5z"></path><path fill="url('#eaf-202c-4')" stroke="#000000" stroke-width="12" stroke-miterlimit="10" d="m228.8 264.8c6.1 55.1 29.4 122.1 94 122.1c64.7 0 87.9 -67.1 94 -122.1c7.5 -67.8 -23.5 -118.9 -94 -118.9c-70.5 0 -101.5 51 -94 118.9z"></path></g></g></g></g></svg>

