<svg xmlns="http://www.w3.org/2000/svg" viewBox="0 0 769 769" overflow="hidden" preserveAspectRatio="xMidYMid meet" id="eaf-95c6-0"><defs><clipPath id="eaf-95c6-1"><rect x="0" y="0" width="769" height="769"></rect></clipPath><style>#eaf-95c6-0 * {animation: 20000ms linear infinite normal both running;offset-rotate:0deg}@keyframes eaf-95c6-2{0%,100%{transform:none;offset-path:path("m393.5542 432.5557l-7.2629 7.1871l-3.6315 -11.1366l-13.8834 -4.7176l-13.8115 -15.1112l7.2992 -16.4804l9.6476 -17.4133l14.5259 9.905l7.1166 47.767")}}@keyframes eaf-95c6-3{0%{offset-distance:0%}36.5%{offset-distance:6.3515%}39.5%{offset-distance:13.6328%}43.84%{offset-distance:22.7474%}54%{offset-distance:35.4729%}59%{offset-distance:46.677%}75.17%{offset-distance:59.0514%}88%{offset-distance:69.9802%}100%{offset-distance:100%}}@keyframes eaf-95c6-4{0%{transform:rotate(0)}100%{transform:rotate(360deg)}}@keyframes eaf-95c6-5{0%,100%{transform:matrix(0.8756,0,0,0.8756,-401.2692,-360.9935)}}</style></defs><g clip-path="url('#eaf-95c6-1')" style="isolation: isolate;"><g><path fill="#888888" d="m768.1 385.5c0 96.2 0 192.5 0 288.8c0 44.1 -33.3 84.4 -76.7 92.7c-6.4 1.2 -13.1 1.9 -19.6 1.9c-191.9 0.1 -383.8 0.1 -575.7 0.1c-47 0 -88.1 -36.1 -94.2 -82.9c-0.6 -4.1 -0.9 -8.3 -0.9 -12.5c0 -192.4 0 -384.7 0 -577c0 -44.1 33.3 -84.5 76.7 -92.7c6.4 -1.3 13 -1.9 19.6 -1.9c192 -0.1 384.1 -0.1 576.1 -0.1c44.1 0 84.5 33.3 92.7 76.7c1.2 6.4 1.9 13.1 1.9 19.6c0.1 95.8 0.1 191.6 0.1 287.3z"></path><ellipse fill="#fefadf" stroke="#ffffff" stroke-width="18" stroke-miterlimit="10" rx="373.6234" ry="373.6234" transform="translate(384.5 388.1345)"></ellipse><path fill="#000000" d="m691.6 335c-1.1 -11.5 -3 -24.8 -6.8 -39.5c-3.8 -14.6 -9.4 -30.6 -17.8 -47.2c-8.3 -16.6 -19.1 -33.8 -33.1 -50.6c-5.5 -6.6 -11.5 -13 -18 -19.3c9.6 -38.4 -11.7 -71.6 -11.7 -71.6c-36.9 -2.3 -60.3 11.5 -69 17.8c-1.5 -0.6 -2.8 -1.3 -4.3 -1.9c-6.2 -2.5 -12.7 -4.9 -19.5 -7c-6.6 -2.1 -13.4 -4 -20.4 -5.7c-7 -1.7 -14 -3 -21.2 -4.2c-1.3 -0.2 -2.5 -0.4 -3.8 -0.6c-15.9 -51.4 -62 -72.9 -62 -72.9c-51.6 32.7 -61.2 78.4 -61.2 78.4c0 0 -0.2 0.9 -0.6 2.6c-2.8 0.8 -5.7 1.7 -8.5 2.5c-4 1.1 -7.9 2.6 -11.7 4.2c-4 1.5 -7.7 3 -11.7 4.7c-7.7 3.4 -15.5 7.2 -23.1 11.3c-7.4 4.2 -14.6 8.7 -21.5 13.4c-0.9 -0.4 -1.9 -0.8 -1.9 -0.8c-71.4 -27.2 -134.7 5.5 -134.7 5.5c-5.9 76 28.5 123.8 35.3 132.5c-1.7 4.7 -3.2 9.4 -4.7 14.2c-5.3 17.2 -9.3 34.8 -11.7 53.1c-0.4 2.6 -0.8 5.3 -0.9 7.9c-66.1 32.7 -85.6 99.4 -85.6 99.4c55 63.3 119.2 67.3 119.2 67.3l0.2 -0.2c8.1 14.6 17.6 28.3 28.2 41.4c4.5 5.5 9.1 10.6 14 15.7c-20 57.5 2.8 105.1 2.8 105.1c61.2 2.3 101.5 -26.8 110 -33.4c6 2.1 12.3 4 18.5 5.5c18.9 4.9 38.2 7.7 57.5 8.5c4.7 0.2 9.6 0.4 14.4 0.2l2.3 0l1.5 0l3 0l3 -0.2l0 0.2c28.9 41.2 79.6 47.1 79.6 47.1c36.1 -38 38.2 -75.8 38.2 -83.9l0 0c0 0 0 -0.2 0 -0.6c0 -0.8 0 -1.1 0 -1.1l0 0c0 -0.6 0 -1.1 0 -1.7c7.6 -5.3 14.7 -11 21.5 -17.2c14.4 -13 27 -28 37.6 -44c0.9 -1.5 1.9 -3 2.8 -4.5c40.8 2.3 69.7 -25.3 69.7 -25.3c-6.8 -42.5 -31 -63.3 -36.1 -67.3l0 0c0 0 -0.2 -0.2 -0.6 -0.4c-0.4 -0.2 -0.4 -0.4 -0.4 -0.4l0 0c-0.2 -0.2 -0.6 -0.4 -0.9 -0.6c0.2 -2.6 0.4 -5.1 0.6 -7.7c0.4 -4.5 0.4 -9.3 0.4 -13.8l0 -3.4l0 -1.7l0 -0.9c0 -1.1 0 -0.8 0 -1.1l-0.2 -2.8l-0.2 -3.8c0 -1.3 -0.2 -2.5 -0.4 -3.6c-0.2 -1.1 -0.2 -2.5 -0.4 -3.6l-0.4 -3.6l-0.6 -3.6c-0.8 -4.7 -1.5 -9.3 -2.6 -14c-4.3 -18.3 -11.5 -35.7 -20.8 -51.4c-9.4 -15.7 -21.2 -29.5 -34.6 -41.2c-13.2 -11.7 -28.2 -21.2 -43.7 -28.2c-15.7 -7 -31.9 -11.5 -48.2 -13.6c-8.1 -1.1 -16.3 -1.5 -24.4 -1.3l-3 0l-0.8 0c-0.2 0 -1.1 0 -0.9 0l-1.3 0l-3 0.2c-1.1 0 -2.3 0.2 -3.2 0.2c-4.2 0.4 -8.3 0.9 -12.3 1.7c-16.3 3 -31.6 8.9 -45 17c-13.4 8.1 -25.1 18.1 -34.6 29.5c-9.4 11.3 -16.8 24 -21.9 37c-5.1 13 -7.9 26.6 -8.7 39.7c-0.2 3.2 -0.2 6.6 -0.2 9.8c0 0.8 0 1.7 0 2.5l0.2 2.6c0.2 1.5 0.2 3.2 0.4 4.7c0.6 6.6 1.9 13 3.6 19.1c3.6 12.3 9.3 23.4 16.3 32.9c7 9.4 15.5 17.2 24.4 23.4c8.9 6 18.5 10.4 28 13.2c9.5 2.8 18.9 4 27.8 4c1.1 0 2.3 0 3.2 0c0.6 0 1.1 0 1.7 0c0.6 0 1.1 0 1.7 -0.2c0.9 0 1.9 -0.2 2.8 -0.2c0.2 0 0.6 0 0.8 -0.2l0.9 -0.2c0.6 0 1.1 -0.2 1.7 -0.2c1.1 -0.2 2.1 -0.4 3.2 -0.6c1.1 -0.2 2.1 -0.4 3 -0.8c2.1 -0.4 4 -1.1 5.9 -1.7c3.8 -1.3 7.6 -2.8 10.8 -4.5c3.4 -1.7 6.4 -3.8 9.4 -5.7c0.8 -0.6 1.7 -1.1 2.5 -1.9c3 -2.5 3.6 -7 1.1 -10c-2.1 -2.6 -5.9 -3.4 -8.9 -1.7c-0.8 0.4 -1.5 0.8 -2.3 1.1c-2.6 1.3 -5.3 2.5 -8.1 3.4c-2.8 0.9 -5.9 1.7 -8.9 2.3c-1.5 0.2 -3 0.4 -4.7 0.6c-0.8 0 -1.5 0.2 -2.5 0.2c-0.8 0 -1.7 0 -2.3 0c-0.8 0 -1.5 0 -2.3 0c-0.9 0 -1.9 0 -2.8 -0.2c0 0 -0.6 0 -0.2 0l-0.4 0l-0.6 0c-0.4 0 -0.9 0 -1.3 -0.2c-0.9 -0.2 -1.7 -0.2 -2.6 -0.4c-7 -0.9 -14 -3 -20.6 -6c-6.8 -3 -13.2 -7.2 -19.1 -12.5c-5.9 -5.3 -11 -11.5 -14.9 -18.7c-4 -7.2 -6.8 -15.1 -8.1 -23.4c-0.6 -4.2 -0.9 -8.5 -0.8 -12.7c0 -1.1 0.2 -2.3 0.2 -3.4c0 0.4 0 -0.2 0 -0.2l0 -0.4l0 -0.9c0 -0.6 0.2 -1.1 0.2 -1.7c0.2 -2.3 0.6 -4.5 0.9 -6.8c3.2 -18.1 12.3 -35.9 26.3 -49.3c3.6 -3.4 7.4 -6.4 11.3 -9.3c4 -2.8 8.3 -5.3 12.9 -7.4c4.5 -2.1 9.1 -3.8 14 -5.1c4.7 -1.3 9.6 -2.1 14.7 -2.6c2.5 -0.2 4.9 -0.4 7.6 -0.4c0.8 0 1.1 0 1.7 0l2.1 0l1.3 0c0.6 0 0 0 0.2 0l0.6 0l2.1 0.2c5.5 0.4 10.8 1.1 16.1 2.5c10.6 2.3 21 6.2 30.6 11.5c19.3 10.8 35.7 27.4 45.7 47.4c5.1 10 8.7 20.8 10.4 31.9c0.4 2.8 0.8 5.7 0.9 8.5l0.2 2.1l0.2 2.1c0 0.8 0 1.5 0 2.1c0 0.8 0 1.5 0 2.1l0 1.9l0 2.1c0 1.3 -0.2 3.6 -0.2 4.9c-0.2 3 -0.6 6.2 -0.9 9.3c-0.3 3.1 -0.9 6 -1.5 9.1c-0.6 3 -1.3 6 -2.1 8.9c-1.5 5.9 -3.4 11.7 -5.7 17.6c-4.7 11.1 -10.7 22.1 -17.9 32.1c-14.6 20 -34.4 36.3 -57.1 46.7c-11.3 5.1 -23.2 8.9 -35.5 10.8c-6 1.1 -12.3 1.7 -18.5 1.9l-1.1 0l-0.9 0l-2.1 0l-3 0l-1.5 0c0.8 0 -0.2 0 -0.2 0l-0.6 0c-3.4 0 -6.6 -0.2 -10 -0.6c-13.2 -0.9 -26.3 -3.4 -39.1 -7c-12.7 -3.6 -24.9 -8.7 -36.7 -14.7c-23.2 -12.5 -44.2 -29.5 -60.5 -50.1c-8.1 -10.2 -15.3 -21.4 -21.2 -32.9c-5.9 -11.5 -10.6 -23.8 -14 -36.1c-3.4 -12.5 -5.5 -25.1 -6.4 -38l-0.2 -2.5l0 -0.5l0 -0.6l0 -1.1l0 -2.1l0 -0.6l0 -0.8l0 -1.5l0 -3l0 -0.6c0 0 0 0.2 0 -0.2l0 -1.1c0 -1.5 0 -3.2 0 -4.7c0.2 -6.2 0.8 -12.9 1.5 -19.3c0.8 -6.4 1.9 -13 3.2 -19.5c1.3 -6.5 2.8 -12.9 4.7 -19.3c3.6 -12.7 8.1 -24.9 13.4 -36.5c10.8 -23.1 24.8 -43.7 41.6 -60.1c4.2 -4.2 8.5 -7.9 13 -11.7c4.5 -3.6 9.3 -7 14.2 -10.2c4.7 -3.2 9.8 -6 14.9 -8.7c2.5 -1.3 5.1 -2.6 7.7 -3.8c1.3 -0.6 2.6 -1.1 4 -1.7c1.3 -0.6 2.6 -1.1 4 -1.7c5.3 -2.3 10.8 -4.2 16.4 -5.9c1.3 -0.4 2.8 -0.8 4.2 -1.3c1.3 -0.4 2.8 -0.8 4.2 -1.1c2.8 -0.8 5.7 -1.5 8.5 -2.1c1.3 -0.4 2.8 -0.6 4.3 -0.9c1.5 -0.4 2.8 -0.6 4.3 -0.9c1.5 -0.2 2.8 -0.6 4.3 -0.8l2.1 -0.4l2.3 -0.4c1.5 -0.2 2.8 -0.4 4.3 -0.6c1.7 -0.2 3.2 -0.4 4.9 -0.6c1.3 -0.2 3.6 -0.4 4.9 -0.6c0.9 -0.2 2.1 -0.2 3 -0.4l2.1 -0.2l0.9 -0.2l1.1 0c1.7 -0.2 3.2 -0.2 4.9 -0.4l2.5 -0.2c0 0 0.9 0 0.2 0l0.6 0l1.1 0c1.3 0 2.8 -0.2 4.2 -0.2c5.5 -0.2 11.1 -0.2 16.6 0c11 0.4 21.7 1.7 32.1 3.6c21 4 40.6 10.6 58.6 19.5c18 8.7 33.8 19.5 47.8 31.2c0.9 0.8 1.7 1.5 2.6 2.3c0.8 0.8 1.7 1.5 2.5 2.3c1.7 1.5 3.2 3 4.9 4.5c1.7 1.5 3.2 3 4.7 4.5c1.5 1.5 3 3 4.5 4.7c5.9 6.2 11.3 12.5 16.3 18.9c9.8 12.7 17.8 25.5 24 37.6c0.4 0.8 0.8 1.5 1.1 2.3c0.3 0.8 0.8 1.5 1.1 2.3c0.8 1.5 1.5 3 2.1 4.5c0.8 1.5 1.3 2.8 2.1 4.3c0.6 1.5 1.3 2.8 1.9 4.3c2.3 5.7 4.5 11.1 6.2 16.3c2.8 8.3 4.9 15.7 6.6 22.1c0.6 2.6 3 4.3 5.7 4c2.8 -0.2 4.9 -2.5 4.9 -5.3c0.5001 -6.5 0.3001 -14.6 -0.5999 -23.9z" transform="matrix(0.8756 0 0 0.8756 -7.715 71.5622)" style="animation-name: eaf-95c6-2, eaf-95c6-3, eaf-95c6-4, eaf-95c6-5; animation-composition: replace, add, add, add;"></path></g></g></svg>