<svg xmlns="http://www.w3.org/2000/svg" viewBox="0 0 500 500" overflow="hidden" preserveAspectRatio="xMidYMid meet" id="eaf-11303-0"><defs><clipPath id="eaf-11303-1"><rect x="0" y="0" width="500" height="500"></rect></clipPath><style>#eaf-11303-0 * {animation: 6500ms linear infinite normal both running;offset-rotate:0deg}@keyframes eaf-11303-2{0%{opacity:1}59.49%{opacity:1;animation-timing-function:ease-in-out}71.28%,100%{opacity:0}}@keyframes eaf-11303-3{0%{opacity:0}59.49%{opacity:0;animation-timing-function:ease-in-out}71.28%,100%{opacity:1}}@keyframes eaf-11303-4{0%,100%{transform:none;offset-path:path("m-59.3758 545.4006l215.9358 48.4384l0.3341 -3.0613l204.532 -1.5083l0 0l-420.8019 -43.8688")}}@keyframes eaf-11303-5{0%{offset-distance:0%;animation-timing-function:ease-in-out}23.08%{offset-distance:25.9744%;animation-timing-function:ease-in-out}34.35%{offset-distance:26.3358%;animation-timing-function:ease-in-out}49.23%{offset-distance:50.3425%}76.92%{offset-distance:50.3425%;animation-timing-function:ease-in-out}89.23%,100%{offset-distance:100%}}@keyframes eaf-11303-6{0%{transform:rotate(-7deg);animation-timing-function:ease-in-out}23.08%{transform:rotate(29deg)}34.35%{transform:rotate(29deg);animation-timing-function:ease-in-out}49.23%{transform:rotate(0)}76.92%{transform:rotate(0)}89.23%,100%{transform:rotate(-7deg)}}@keyframes eaf-11303-7{0%,100%{transform:matrix(2.884,0,0,2.884,-996.0847,-943.677)}}</style></defs><g clip-path="url('#eaf-11303-1')" style="isolation: isolate;"><g><g transform="matrix(4 0 0 4 -827.28 -2254.5264)"><path fill="#666666" d="m331.8 626.1c0 15.6 0 31.3 0 46.9c0 7.2 -5.4 13.7 -12.5 15.1c-1 0.2 -2.1 0.3 -3.2 0.3c-31.2 0 -62.4 0 -93.6 0c-7.6 0 -14.3 -5.9 -15.3 -13.5c-0.1 -0.7 -0.1 -1.4 -0.1 -2c0 -31.3 0 -62.5 0 -93.8c0 -7.2 5.4 -13.7 12.5 -15.1c1 -0.2 2.1 -0.3 3.2 -0.3c31.2 0 62.4 0 93.6 0c7.2 0 13.7 5.4 15.1 12.5c0.2 1 0.3 2.1 0.3 3.2c0 15.6 0 31.1 0 46.7z"></path></g><g style="filter: drop-shadow(rgb(112, 112, 112) 20px 16px 13px);"><g transform="matrix(2.8625 -0.3515 0.3515 2.8625 -1163.0411 -269.8502)" style="animation-name: eaf-11303-4, eaf-11303-5, eaf-11303-6, eaf-11303-7; animation-composition: replace, add, add, add;"><path fill="#451400" d="m262.8 220.9l1.8 0.1c-0.7 -0.1 -1.3 -0.3 -1.8 -0.1z"></path><path fill="#000000" d="m363.9 208.5c0 17.8 -0.1 35.5 0.1 53.3c0 3.7 -0.8 4.8 -4.6 4.6c-6.4 -0.3 -6.5 -0.1 -6.5 6.4c0 34.2 0.1 68.4 -0.1 102.5c0 3.7 0.8 4.8 4.5 4.6c7.4 -0.3 14.9 0.1 22.3 -0.2c3.4 -0.1 4.1 1.1 4.1 4.2c-0.2 13.4 -0.1 26.9 0 40.3c0 3.1 -0.9 4.5 -4.2 4.4c-12.7 -0.1 -25.5 0 -38.2 -0.1c-1.1 0 -3.1 0.4 -3.1 -0.7c0.1 -5.1 -3.6 -3.2 -5.9 -3.2c-17.4 -0.1 -34.8 -0.1 -52.1 -0.1c-1.8 0 -4 -0.7 -4 2.6c0 1.9 -1.9 1.4 -3.2 1.4c-13.1 0 -26.2 0 -39.2 0.1c-3.1 0 -4 -1.4 -4 -4.2c0 -13.6 0.1 -27.2 0 -40.8c0 -3.1 1.2 -3.9 4.2 -3.9c7.8 0.2 15.6 -0.1 23.3 0.1c2.7 0.1 3.3 -0.8 3.3 -3.3c-0.1 -35.7 -0.1 -71.4 0 -107c0 -2.6 -0.7 -3.6 -3.3 -3.3c-1.3 0.2 -2.7 -0.1 -4 0.1c-2.7 0.3 -3.8 -0.5 -3.8 -3.5c0.1 -36.2 0.1 -72.3 0 -108.5c0 -2.9 0.9 -3.6 3.7 -3.6c35.8 0.1 71.5 0.1 107.3 0c2.9 0 3.5 0.9 3.5 3.6c-0.2 18 -0.0999 36.1 -0.0999 54.2zm-121.2 217.1c3.6 0 7.2 0 10.7 0c3.4 0 6.8 0 10.2 0c4.7 0.2 9.7 1.3 13.1 -3.4c20.3 0 40.7 0 61 0c0.3 0.1 0.8 0.2 0.9 0.4c2.5 4.7 7.1 4 10.6 2.9c3.5 -1 1.1 -5.2 1.7 -7.8c0.1 -0.6 0 -1.3 0 -2c3.3 0 6.7 0 10 0c0 2.4 0 4.9 0 7.3c0 1.4 0.3 2.4 2 2.8c6.5 1.7 8.9 -0.1 8.9 -6.7c0 -1.1 0 -2.3 0 -3.4c1.8 0 3.6 -0.3 5.4 -0.1c3.9 0.5 5.2 -1 5 -5c-0.4 -5.6 -0.2 -11.2 -0.3 -16.8c-0.2 -13.3 3 -12.1 -11.2 -11.4c-6.6 -0.2 -13.1 -0.4 -19.7 -0.6c0 -3.3 -0.1 -6.6 -0.1 -9.9c0 -15 0 -29.9 -0.1 -44.9c0 -3.6 0 -7.2 0 -10.7c0 -3.4 0.1 -6.7 0.1 -10.1c0 -3.7 0 -7.3 0 -11c0 -3.6 0 -7.3 0 -10.9c0 -3.7 0 -7.3 0 -11c0.1 -3 0.1 -6 0.2 -8.9c2.4 0 4.8 0 7.2 -0.1c1.5 -0.1 3.4 0.6 3.5 -2c0.1 -0.3 0.1 -0.6 0 -0.9c0 -7 0 -13.9 0 -20.9c0 -18.3 0 -36.6 0 -54.9c0 -3.6 0 -7.2 0 -10.9c0.1 -3.8 0.2 -7.6 0.2 -11.4c0 -11 0 -11 -10.9 -10.3c-3.6 0 -7.2 0 -10.9 0c-7.3 0 -14.7 0 -22 0c-3.6 0 -7.2 0 -10.7 0c-7.3 0 -14.7 0 -22 0c-3.7 0 -7.3 0 -11 0c-3.6 0 -7.2 -0.1 -10.8 -0.1c-13.7 -0.1 -12.1 -2.6 -11.5 10.9c-0.3 7.3 -0.6 14.6 0.2 21.8c-0.6 3.6 -0.5 7.2 0 10.9c-0.6 3.7 -0.6 7.4 0 11.2c-0.4 3.5 -0.4 7.1 0 10.6c-0.7 7.3 -0.5 14.6 -0.1 22c-0.6 3.7 -0.5 7.5 0 11.2c-0.3 3.3 -0.6 6.7 0.1 10c0 0.3 0 0.7 0.2 1c0.3 1.8 1.6 1.8 2.9 1.8c2.6 0 5.2 0 7.8 0c0.1 3 0.2 6 0.3 9c-0.3 3.3 -0.4 6.7 0.1 10c-0.6 3.7 -0.4 7.3 -0.1 11c0 7.3 0 14.5 0 21.8c-0.9 3.7 -0.9 7.3 0 11c0 7.6 0 15.3 -0.1 22.9c-0.9 3.7 -0.8 7.4 0 11.1c0.1 3.3 0.1 6.6 0.2 9.9c-0.1 3.6 -0.2 7.2 -0.3 10.8c-6.5 0.1 -13 0.3 -19.4 0.4c-11.1 -1 -11.1 -1 -11.1 10.1c0 0.5 0.1 1 0.1 1.5c0 3.6 0.1 7.3 0.1 10.9c0 3.5 0 7.1 0 10.6c-0.5 12.7 -1.6 10.1 9.6 10.3z"></path><path fill="#5eb94b" d="m350.9 284.2c0 3.6 0 7.3 0 10.9c-1.3 0 -2.6 0 -3.9 0c-7.3 0 -7.1 0 -7 7.2c0 3.2 1.3 4 4.1 3.8c2.3 -0.2 4.6 0 6.9 0c0 3.4 -0.1 6.7 -0.1 10.1c-3.6 0 -7.1 -0.1 -10.7 -0.1c-1.5 0 -3 0 -4.4 0c-6.7 0 -6.6 0 -6.6 6.7c0 3.1 0.8 4.6 4.2 4.3c2.3 -0.2 4.6 -0.1 6.9 -0.1c3.6 0 7.2 -0.1 10.8 -0.1c0 15 0 29.9 0.1 44.9c-10.8 0 -10.8 0 -10.9 10.5c0 0.2 0 0.3 0 0.5c-3 0.2 -1.9 2.6 -2 4.1c-0.2 11.7 -0.2 23.4 -0.3 35.1c-20.3 0 -40.7 0 -61 0c0 -13.1 -0.1 -26.2 -0.1 -39.3c1.3 0 2.7 -0.3 4 -0.1c4.2 0.6 4.8 -1.4 5 -5.1c0.3 -4.9 -1.5 -6.6 -6.2 -5.9c-1.6 0.2 -3.3 0.1 -5 0.1c-3.5 -1.6 -7.3 -0.5 -10.9 -0.9c-0.1 -3.3 -0.1 -6.6 -0.2 -9.9c1.8 0 3.7 -0.3 5.4 -0.1c4.6 0.6 5.9 -1.2 5.8 -5.8c-0.1 -4.1 -1.1 -5.8 -5.3 -5.3c-2 0.3 -4 0 -5.9 0c0 -7.6 0 -15.3 0.1 -22.9c2 0 4 -0.2 5.9 0c4.2 0.6 5.2 -1.3 5.3 -5.3c0.1 -4.5 -1.2 -6.4 -5.8 -5.8c-1.8 0.3 -3.6 0 -5.4 0c0 -7.3 0 -14.5 0 -21.8c3.7 -0.1 7.3 -0.1 11 -0.2c3.7 0 7.3 0 11 0c0 2.1 0.1 4.3 -0.1 6.4c-0.3 3.3 0.7 4.7 4.3 4.7c6.8 -0.1 6.6 0.1 6.7 -6.7c0.1 -3.6 -1.3 -4.7 -4.6 -4.4c-2.1 0.2 -4.3 0 -6.4 0c0 -3.3 0 -6.7 0 -10c2.5 0 5 0 7.4 0c1.4 0 2.6 -0.4 3.2 -1.8c2.5 -5.6 -0.3 -10 -6.4 -10.2c-3.6 -0.1 -4.7 1.3 -4.4 4.7c0.2 2.1 0 4.3 -0.1 6.5c-3.7 0 -7.4 0 -11.1 0c-3.6 0 -7.1 0 -10.7 0c-0.5 -3.3 -0.4 -6.7 -0.1 -10c11.1 -0.1 11.1 -0.1 11 -8.9c10.7 0 21.4 0.1 32.1 0.1c0.5 2.5 -1.7 6 1.4 7.6c5.4 2.8 10.2 -0.4 10.1 -6.2c0 -0.5 0 -1 0 -1.5c11 -0.1 22 -0.1 33.1 -0.2c-0.1 3 -0.1 6 -0.2 8.9c-1.3 0 -2.6 0 -3.9 0c-7.3 0 -7.2 0 -7 7.2c0.1 2.7 0.8 4 3.6 3.8c2.4 0.2999 4.9 0.4999 7.3 0.4999zm-21.8 65.7c1.8 0 3.6 -0.2 5.4 0.1c4.2 0.6 5.7 -0.9 5.7 -5.3c0 -4.5 -1.3 -5.8 -5.8 -5.8c-4.5 0 -5.9 1.5 -5.3 5.7c0.2 1.6 0 3.5 0 5.3c-2.1 0 -4.3 0.2 -6.4 0c-3.3 -0.3 -4.7 0.7 -4.6 4.3c0.1 6.8 -0.1 6.6 6.7 6.7c3.6 0.1 4.6 -1.3 4.3 -4.6c-0.2 -2.1 0 -4.3 0 -6.4zm-16.3 -34c4.6 1.1 5.4 -1.2 5.5 -5.3c0.1 -4.2 -1 -5.7 -5.5 -5.7c-4.6 0 -5.8 1.4 -5.8 5.9c0 4.5 1.5 6 5.8 5.1zm-16.7 5.7c0.9 -4.3 -0.7 -5.8 -5.2 -5.7c-3.9 0.1 -6 0.5 -5.8 5.3c0.1 4.3 0.9 6.1 5.7 6c4.3 -0.2 6.4 -1 5.3 -5.6zm11 34.2c0.8 -4.1 -0.3 -6.1 -5 -5.9c-3.7 0.2 -6.3 0.1 -5.9 5.2c0.3 4 0.4 6.5 5.5 6.1c4 -0.3 6.6 -0.6 5.4 -5.4zm16.3 16.1c-4.8 -1.2 -5.2 1.5 -5.3 5.5c-0.2 4.4 1.3 5.4 5.6 5.6c4.9 0.1 5.5 -1.8 5.7 -6c-0.1 -4.8 -2 -5.9 -6 -5.1z"></path><path fill="#5eb94c" d="m232.8 415.2c0 -3.5 0 -7.1 0 -10.6c10.6 0 10.6 0 10.7 -10.4c0 -0.2 0 -0.3 0 -0.5c0 -3.8 0.1 -7.7 0.1 -11.5c6.5 -0.1 13 -0.3 19.4 -0.4c3.7 0 7.5 0 11.2 0c0 7.9 0 15.9 0 23.8c0 8.8 0 8.8 -8.6 9.2c-0.8 0 -1.6 0.4 -2.4 0.5c-0.3 0.1 -0.7 0.1 -1 0.2c-2.6 0 -5.3 0 -7.9 0c-0.3 0 -0.7 -0.1 -1 -0.1c-3.6 -1 -7.3 -0.9 -11 0c-0.3 0 -0.7 0.1 -1 0.1c-2.6 -0.1 -5.5 -0.2 -8.5 -0.3zm32.6 -17.2c1 -4.3 -1 -5.2 -5 -5.4c-4.6 -0.2 -5 1.9 -5 5.6c0 3.7 0.4 5.6 5 5.6c4.7 0.1 5.8 -1.8 5 -5.8z"></path><path fill="#5eb84b" d="m381.8 393.7c0.1 5.6 -0.1 11.2 0.3 16.8c0.3 3.9 -1 5.5 -5 5c-1.8 -0.2 -3.6 0 -5.4 0.1c-3.6 0 -7.2 0 -10.8 0c-3.3 0 -6.7 0 -10 0c-1.8 0 -3.6 -0.2 -5.4 0c-4.1 0.5 -5.9 -0.7 -5.6 -5.3c0.4 -5.5 0.2 -11.1 0.2 -16.7c3.6 0 7.2 -0.1 10.8 -0.1c0 2.5 0 5 0 7.5c0 1.5 0.5 2.4 2.2 2.7c7.1 1.6 8.9 0.1 8.8 -7.1c0 -3.1 -1.2 -4.1 -4.1 -3.9c-2.3 0.2 -4.6 0 -6.9 0c0 -3.3 0 -6.5 0 -9.8c0 -0.4 0 -0.9 0.1 -1.3c6.6 0.2 13.1 0.4 19.7 0.6c0.6 11.5999 0.6 11.5999 11.1 11.5z"></path><path fill="#5eb94b" d="m252.2 261.4c-0.7 -3.3 -0.5 -6.7 -0.1 -10c1.8 0 3.6 -0.4 5.4 -0.1c5.2 0.8 6.4 -1.4 6.2 -6.3c-0.2 -3.5 -0.9 -5.2 -4.7 -4.8c-2.3 0.2 -4.6 0 -6.8 -0.1c-0.4 -7.3 -0.6 -14.6 0.1 -22c3.7 0 7.3 0.1 11 0.1c3.4 0 6.8 0.1 10.2 0.1c-0.1 11 -0.1 11 10.8 10.9c0.2 0 0.3 0 0.5 0c0.2 3.7 0.4 7.3 0.6 11c-1.1 0 -2.3 0 -3.4 0c-9.3 0 -10.5 1.8 -7.5 10.9c0 3.6 -0.1 7.2 -0.1 10.8c-6.9 0 -13.8 0.1 -20.7 0.1c-0.6 -0.1 -1 -0.3 -1.5 -0.6z"></path><path fill="#5eb84b" d="m350.9 152.9c10.9 -0.7 10.9 -0.7 10.9 10.3c0 3.8 -0.1 7.6 -0.2 11.4c-10.7 -0.1 -10.7 -0.1 -10.7 10.4c0 0.2 0 0.3 0 0.5c0 11.3 0 11.3 -11.1 10.8c0.1 -0.6 0.2 -1.3 0.3 -1.9c1.4 -6 1.4 -11.9 0 -17.9c-0.1 -2 -1.5 -2.1 -3 -2.1c-2.7 0 -5.4 -0.1 -8.1 -0.2c0.1 -10.5 0.1 -10.5 -10.4 -10.7c-0.2 0 -0.3 0 -0.5 0l0.1 0.1c0 -3.6 -0.1 -7.2 -0.1 -10.7c7.3 0 14.7 0 22 0c0 1.3 0 2.6 0 3.9c0 7.1 0 6.9 6.9 6.9c2.9 0 4.3 -0.8 4 -3.9c-0.2 -2.3 -0.0999 -4.6 -0.0999 -6.9z"></path><path fill="#5eb94c" d="m285.3 153c7.3 0 14.7 0 22 0c-0.3 10.9 -0.3 10.9 10.4 10.8c0.2 0 0.3 0 0.5 0c0 0 -0.1 -0.1 -0.1 -0.1c0 3.6 0 7.3 0 10.9l0.1 0.2c-10.8 -0.4 -10.8 -0.4 -11.1 10c0 0.3 -0.1 0.7 -0.1 1c-3.7 0 -7.4 0 -11.2 0c-0.1 -1.6 -0.5 -3.3 -0.3 -4.9c0.9 -5.4 -1.6 -6.7 -6.5 -6.3c-4.9 0.4 -9.8 0.1 -14.8 0.1c0 0 0 0 0 0c0 -3.6 0 -7.2 0 -10.7l-0.1 -0.3c2.4 0 4.9 0.1 7.3 0.1c1.7 0 2.6 -0.7 2.8 -2.5c0.4001 -2.9 0.8 -5.6 1.1 -8.3z"></path><path fill="#459142" d="m339.9 196.4c11.1 0.5 11.1 0.5 11.1 -10.8c3.6 0 7.2 -0.1 10.7 -0.1c0 18.3 0 36.6 0 54.9c-3.6 0 -7.2 -0.1 -10.8 -0.1c-0.1 -0.2 -0.2 -0.4 -0.2 -0.7c0.1 -0.7 0.2 -1.3 0.2 -2c0.2 -7.7 0.2 -7.7 -7.5 -8.3c-1.5 -0.1 -2.9 0.1 -3.4 -2c-1.6 -6.2 0.2 -8.8 6.4 -8.9c0.3 0 0.7 0 1 0c4.9 0.3 3.4 -3.3 3.5 -5.8c0.2 -2.6 0.6 -5.2 -3.7 -5.2c-7.2 0 -7.2 -0.3 -7.2 -7.5c0 -1.2 0 -2.4 -0.1 -3.5l0 0z"></path><path fill="#5eb94c" d="m252.2 185.6c-0.7 -7.3 -0.5 -14.5 -0.2 -21.8c3.7 0 7.5 -0.1 11.2 -0.1c0 0 0.1 0.1 0.1 0.1c0.1 10.8 0.1 10.8 10.9 10.8c0 0 0 0 0 0c0 7.3 0 14.6 0 21.9c-2 3.5 -0.5 7.3 -0.9 10.9c-3.4 0 -6.8 0.1 -10.2 0.1c-3.7 0 -7.4 0.1 -11 0.1c-0.6 -3.7 -0.6 -7.4 0 -11.2c1.6 0 3.3 0.1 4.9 0.1c6.5 0 6.3 0 6.4 -6.5c0.1 -3.4 -0.9 -4.9 -4.4 -4.5c-2.1 0.3 -4.5 0.1 -6.8 0.1z"></path><path fill="#5eb94c" d="m350.9 240.3c3.6 0 7.2 0.1 10.8 0.1c0 7 0 13.9 0 20.9c-0.3 0.3 -0.6 0.6 -0.9 0.9c-3.3 0 -6.5 0 -9.8 0c0 -3.9 -0.1 -7.9 -0.1 -11.8c0 -3.4 0 -6.7 0 -10.1z"></path><path fill="#346330" d="m351 262.1c3.3 0 6.5 0 9.8 0c0 0 0.4 0.1 0.4 0.1l0.4 0c0 2.6 -2 2 -3.5 2c-2.4 0.1 -4.8 0 -7.2 0.1c-11 0.1 -22 0.1 -33.1 0.2c-3.8 -0.4 -7.7 -0.5 -11.5 0.1c-10.7 0 -21.4 -0.1 -32.1 -0.1c-3.7 0 -7.5 -0.1 -11.2 -0.1c-2.6 0 -5.2 0 -7.8 0c-1.4 0 -2.7 -0.1 -2.9 -1.8c0.4 -0.1 0.8 -0.2 1.2 -0.2c6.9 0 13.8 -0.1 20.7 -0.1c3.4 0 6.8 0 10.2 0c11.3 0 22.5 0 33.8 -0.1c3.2 0 6.4 0.1 9.6 0.1c0.4 0 0.8 0 1.3 0.1c3.6 0 7.2 0 10.8 0c3.7001 -0.3 7.4001 -0.3 11.1001 -0.3z"></path><path fill="#346330" d="m263.5 415.3c0.8 -0.2 1.6 -0.5 2.4 -0.5c8.6 -0.4 8.6 -0.4 8.6 -9.2c0 -7.9 0 -15.9 0 -23.8c0 0 0.1 0.1 0.1 0.1c0.9 0 1.6 0.3 2.1 1c0 13.1 0.1 26.2 0.1 39.3c-3.4 4.8 -8.4 3.6 -13.1 3.4c0 -3 -0.1 -5.9 -0.1 -8.9c-0.1 -0.5 -0.1 -0.9 -0.1 -1.4z"></path><path fill="#325b30" d="m340.1 393.6c0 5.6 0.2 11.1 -0.2 16.7c-0.4 4.6 1.4 5.8 5.6 5.3c1.8 -0.2 3.6 0 5.4 0c0 0.7 0.1 1.3 0 2c-0.6 2.7 1.8 6.8 -1.7 7.8c-3.5 1.1 -8.1 1.8 -10.6 -2.9c-0.1 -0.2 -0.6 -0.3 -0.9 -0.4c0.1 -11.7 0.1 -23.4 0.3 -35.1c0 -1.5 -1.1 -3.9 2 -4.1c0 0 0 -0.1 0 -0.1c0 3.6 0.1 7.2 0.1 10.8z"></path><path fill="#448b3f" d="m263.3 163.7c-3.7 0 -7.5 0.1 -11.2 0.1c-0.6 -13.6 -2.2 -11.1 11.5 -10.9c-0.1 3.5 -0.2 7.1 -0.3 10.8z"></path><path fill="#469443" d="m252.1 240.2c2.3 0 4.6 0.3 6.8 0.1c3.8 -0.4 4.5 1.3 4.7 4.8c0.3 4.8 -1 7.1 -6.2 6.3c-1.7 -0.3 -3.6 0 -5.4 0.1c-0.4 -3.8 -0.5 -7.5 0.1 -11.3z"></path><path fill="#448b3f" d="m243.7 382.1c0 3.8 -0.1 7.7 -0.1 11.5c-3.6 0 -7.3 0 -10.9 0c0 -0.5 -0.1 -1 -0.1 -1.5c0 -10.9 0 -10.9 11.1 -10z"></path><path fill="#7ec569" d="m252.2 185.6c2.3 0 4.6 0.2 6.9 -0.1c3.6 -0.4 4.5 1.2 4.4 4.5c-0.1 6.4 0.1 6.5 -6.4 6.5c-1.6 0 -3.3 0 -4.9 -0.1c-0.5 -3.6 -0.5 -7.2 0 -10.8z"></path><path fill="#afd8a1" d="m252.2 207.6c3.7 0 7.4 -0.1 11 -0.1c0 3.6 0 7.2 0 10.8c-3.7 0 -7.3 -0.1 -11 -0.1c-0.4 -3.5 -0.4 -7 0 -10.6z"></path><path fill="#469443" d="m263.3 349.9c2 0 4 0.2 5.9 0c4.2 -0.5 5.2 1.2 5.3 5.3c0.1 4.6 -1.2 6.4 -5.8 5.8c-1.8 -0.2 -3.6 0 -5.4 0.1c-0.8 -3.8 -0.9 -7.5 0 -11.2z"></path><path fill="#469443" d="m263.3 316c1.8 0 3.7 0.2 5.4 0c4.6 -0.7 5.9 1.2 5.8 5.8c-0.1 4 -1.1 5.8 -5.3 5.3c-1.9 -0.3 -4 0 -5.9 0c-0.9 -3.7 -0.8 -7.4 0 -11.1z"></path><path fill="#448b3f" d="m381.8 393.7c-10.5 0.1 -10.5 0.1 -11.2 -11.4c14.2 -0.7 11.1 -1.9 11.2 11.4z"></path><path fill="#7ec569" d="m361.7 185.5c-3.6 0 -7.2 0.1 -10.7 0.1c0 -0.2 0 -0.3 0 -0.5c0 -10.5 0 -10.5 10.7 -10.4c-0.1 3.5 0 7.2 0 10.8z"></path><path fill="#469443" d="m350.9 284.2c-2.4 0 -4.9 -0.1 -7.3 0c-2.8 0.2 -3.6 -1.1 -3.6 -3.8c-0.2 -7.2 -0.3 -7.2 7 -7.2c1.3 0 2.6 0 3.9 0c0 3.7 0 7.3 0 11z"></path><path fill="#afd8a1" d="m274.3 294.1c-3.7 0.1 -7.3 0.1 -11 0.2c-0.3 -3.7 -0.5 -7.4 0.1 -11c3.6 0 7.1 0 10.7 0c0.1 3.6 0.2 7.2 0.2 10.8z"></path><path fill="#459142" d="m350.9 306.1c-2.3 0 -4.6 -0.1 -6.9 0c-2.8 0.2 -4.1 -0.6 -4.1 -3.8c-0.1 -7.2 -0.3 -7.2 7 -7.2c1.3 0 2.6 0 3.9 0c0.1 3.7 0.1 7.3 0.1 11z"></path><path fill="#afd8a1" d="m350.8 326.9c-3.6 0 -7.2 0.1 -10.8 0.1c0 -3.6 0 -7.3 0 -10.9c3.6 0 7.1 0.1 10.7 0.1c0.1 3.6 0.1 7.1 0.1 10.7z"></path><path fill="#469443" d="m351 381.7c0 0.4 0 0.9 -0.1 1.3c-3.6 -0.1 -7.3 -0.1 -10.9 -0.2c0 0 0 0.1 0 0.1c0 -0.2 0 -0.3 0 -0.5c0.1 -10.5 0.1 -10.5 10.9 -10.5c0 3.2 0 6.5 0.1 9.8z"></path><path fill="#afd8a1" d="m263.3 163.7c0.1 -3.6 0.2 -7.2 0.3 -10.8c3.6 0 7.2 0.1 10.8 0.1c0 3.5 0 7 0 10.6c0 0 0.1 0.3 0.1 0.3c-3.7 0 -7.3 0 -11 -0.1l-0.2 -0.1z"></path><path fill="#afd8a1" d="m318.2 163.7c-0.2 0 -0.3 0 -0.5 0c-10.7 0.2 -10.7 0.2 -10.4 -10.8c3.6 0 7.2 0 10.7 0c0.1 3.6 0.1 7.2 0.2 10.8z"></path><path fill="#7ec569" d="m350.9 152.9c0 2.3 -0.1 4.6 0.1 6.9c0.3 3.1 -1.2 3.9 -4 3.9c-6.9 0.1 -6.9 0.2 -6.9 -6.9c0 -1.3 0 -2.6 0 -3.9c3.5 0 7.2 0 10.8 0z"></path><path fill="#afd8a1" d="m232.7 393.7c3.6 0 7.3 0 10.9 0c0 0.2 0 0.3 0 0.5c-0.1 10.4 -0.1 10.4 -10.7 10.4c-0.1 -3.7 -0.1 -7.3 -0.2 -10.9z"></path><path fill="#325b30" d="m242.6 415.4c3.7 -0.9 7.3 -1 11 0c0 0.4 0 0.8 0 1.2c0 3 -0.1 6 -0.1 9c-3.6 0 -7.2 0 -10.7 0c0 -3 -0.1 -6 -0.1 -8.9c-0.1 -0.5 -0.1 -0.9 -0.1 -1.3z"></path><path fill="#afd8a1" d="m274.4 381.8c-3.7 0 -7.5 0 -11.2 0c0.1 -3.6 0.2 -7.2 0.3 -10.8c3.6 0.4 7.4 -0.8 10.9 0.9c0 3.3 0 6.6 0 9.9l0 0z"></path><path fill="#7ec569" d="m274.3 163.6c0 -3.5 0 -7 0 -10.6c3.7 0 7.3 0 11 0c-0.3 2.7 -0.7 5.4 -0.9 8.2c-0.1 1.9 -1 2.6 -2.8 2.5c-2.4 -0.1 -4.8 -0.1 -7.3 -0.1z"></path><path fill="#325b30" d="m360.9 415.6c3.6 0 7.2 0 10.8 0c0 1.1 0 2.3 0 3.4c0 6.6 -2.4 8.4 -8.9 6.7c-1.7 -0.4 -2 -1.4 -2 -2.8c0.1 -2.4 0.1 -4.9 0.1 -7.3z"></path><path fill="#7ec569" d="m263.1 264.3c3.7 0 7.5 0.1 11.2 0.1c0.1 8.8 0.1 8.8 -11 8.9c0 -3.1 -0.1 -6.1 -0.2 -9z"></path><path fill="#020606" d="m242.6 416.7c0 3 0.1 6 0.1 8.9c-11.3 -0.2 -10.2 2.4 -9.9 -10.4c2.9 0.1 5.8 0.2 8.8 0.3c0.3 0.4 0.7 0.8 1 1.2z"></path><path fill="#020606" d="m253.5 425.6c0 -3 0.1 -6 0.1 -9c0.3 -0.4 0.6 -0.8 1 -1.1c2.6 0 5.3 0 7.9 0c0.3 0.4 0.7 0.8 1 1.2c0 3 0.1 5.9 0.1 8.9c-3.3 0 -6.7 0 -10.1 0z"></path><path fill="#469443" d="m253.6 262.2c-0.4 0.1 -0.8 0.2 -1.2 0.2c-0.2 -0.3 -0.2 -0.6 -0.2 -1c0.5 0.3 0.9 0.5 1.4 0.8z"></path><path fill="#469443" d="m361.7 262.2l-0.4 0c0 0 -0.4 -0.1 -0.4 -0.1c0.3 -0.3 0.6 -0.6 0.9 -0.9c0 0.4 0 0.7 -0.1 1z"></path><path fill="#7ec569" d="m285.2 283.3c0 -2.2 0.3 -4.3 0.1 -6.5c-0.3 -3.3 0.7 -4.8 4.4 -4.7c6 0.2 8.9 4.5 6.4 10.2c-0.6 1.4 -1.8 1.8 -3.2 1.8c-2.5 0 -5 0 -7.4 0c-0.2 -0.2 -0.2 -0.5 -0.3 -0.8z"></path><path fill="#469443" d="m285.2 283.3c0.1 0.3 0.1 0.6 0.2 0.9c0 3.3 0 6.7 0 10c0 0 0 0 0 0c-3.7 0 -7.3 0 -11 0c-0.1 -3.6 -0.1 -7.2 -0.2 -10.9c3.6 0 7.3 0 11 0z"></path><path fill="#7ec569" d="m285.3 294.1c2.1 0 4.3 0.2 6.4 0c3.3 -0.3 4.7 0.8 4.6 4.4c-0.1 6.8 0.1 6.6 -6.7 6.7c-3.6 0.1 -4.6 -1.4 -4.3 -4.7c0.2 -2.1 0 -4.2 0 -6.4c0 0 0 0 0 0z"></path><path fill="#7ec569" d="m312.8 315.9c-4.3 0.9 -5.8 -0.6 -5.8 -5.1c0 -4.5 1.2 -5.9 5.8 -5.9c4.5 0 5.5 1.4 5.5 5.7c-0.1 4.2 -0.9 6.5 -5.5 5.3z"></path><path fill="#7ec569" d="m296.1 321.6c1.1 4.6 -1.1 5.4 -5.3 5.6c-4.8 0.2 -5.6 -1.7 -5.7 -6c-0.1 -4.8 1.9 -5.2 5.8 -5.3c4.5 -0.1 6.2 1.4 5.2 5.7z"></path><path fill="#459142" d="m340.1 316.1c0 3.6 0 7.3 0 10.9c-2.3 0 -4.6 -0.2 -6.9 0.1c-3.3 0.3 -4.2 -1.1 -4.2 -4.3c0 -6.7 -0.1 -6.7 6.6 -6.7c1.5 0 3 0 4.5 0z"></path><path fill="#459142" d="m329.1 349.9c0 -1.8 0.2 -3.6 -0.1 -5.4c-0.6 -4.2 0.8 -5.7 5.3 -5.7c4.5 0 5.8 1.3 5.8 5.8c0 4.5 -1.4 5.9 -5.7 5.3c-1.7 -0.2 -3.5 0 -5.3 0l0 0z"></path><path fill="#afd8a1" d="m307.1 355.8c1.2 4.8 -1.4 5.1 -5.4 5.4c-5.1 0.4 -5.3 -2.1 -5.5 -6.1c-0.3 -5 2.2 -4.9 5.9 -5.2c4.7 -0.3 5.9 1.7 5 5.9z"></path><path fill="#7ec569" d="m329.1 349.9c0 2.1 -0.2 4.3 0 6.4c0.3 3.3 -0.7 4.7 -4.3 4.6c-6.8 -0.1 -6.6 0.1 -6.7 -6.7c-0.1 -3.6 1.4 -4.6 4.6 -4.3c2.1 0.1 4.3 0 6.4 0c0 0 0 0 0 0z"></path><path fill="#7ec569" d="m323.4 371.9c4.1 -0.8 6 0.3 5.9 5c-0.1 4.2 -0.8 6.1 -5.7 6c-4.3 -0.1 -5.7 -1.1 -5.6 -5.6c0.2 -3.9 0.5 -6.6 5.4 -5.4z"></path><path fill="#469443" d="m274.5 381.8c0 -3.3 -0.1 -6.7 -0.1 -10c1.7 0 3.3 0.2 5 -0.1c4.7 -0.7 6.4 1 6.2 5.9c-0.2 3.7 -0.8 5.7 -5 5.1c-1.3 -0.2 -2.6 0 -4 0.1c-0.5 -0.7 -1.3 -1 -2.1 -1z"></path><path fill="#afd8a1" d="m306.5 264.5c3.8 -0.5 7.7 -0.4 11.5 -0.1c0 0.5 0 1 0 1.5c0.1 5.8 -4.7 9 -10.1 6.2c-3.1 -1.7 -0.9 -5.1 -1.4 -7.6z"></path><path fill="#469443" d="m265.4 398c0.8 4 -0.3 5.9 -5 5.9c-4.5 0 -5 -1.9 -5 -5.6c0 -3.7 0.4 -5.8 5 -5.6c4 0.1 6 1 5 5.3z"></path><path fill="#040703" d="m242.6 416.7c-0.3 -0.4 -0.7 -0.8 -1 -1.2c0.3 0 0.7 -0.1 1 -0.1c0 0.4 0 0.8 0 1.3z"></path><path fill="#040703" d="m254.6 415.5c-0.3 0.4 -0.6 0.8 -1 1.1c0 -0.4 0 -0.8 0 -1.2c0.3 0 0.6 0.1 1 0.1z"></path><path fill="#040703" d="m263.5 416.7c-0.3 -0.4 -0.7 -0.8 -1 -1.2c0.3 -0.1 0.7 -0.1 1 -0.2c0 0.5 0 0.9 0 1.4z"></path><path fill="#afd8a1" d="m340 382.8c3.6 0.1 7.3 0.1 10.9 0.2c0 3.3 0 6.5 0 9.8c0 0.3 0 0.5 0 0.8c-3.6 0 -7.2 0.1 -10.8 0.1c0 -3.7 -0.1 -7.3 -0.1 -10.9z"></path><path fill="#7ec569" d="m350.9 393.6c-0.1 -0.3 -0.1 -0.5 0 -0.8c2.3 0 4.6 0.1 6.9 0c2.9 -0.2 4.1 0.8 4.1 3.9c0.1 7.2 -1.7 8.7 -8.8 7.1c-1.7 -0.4 -2.2 -1.2 -2.2 -2.7c0 -2.6 0 -5.1 0 -7.5z"></path><path fill="#7ec569" d="m284.8 218.5c0.4 3.6 0.4 7.2 0 10.9c-0.2 0 -0.3 0 -0.5 0c-10.9 0.1 -10.9 0.1 -10.8 -10.9c0.3 -0.1 0.6 -0.1 0.9 -0.1c3.4 0 6.9 0 10.4 0.1z"></path><path fill="#7ec569" d="m274.4 251.2c-3 -9.1 -1.8 -10.9 7.5 -10.9c1.1 0 2.3 0 3.4 0c0 0 0 0 0 0c-0.4 3.6 0.8 7.4 -1 10.9c-3.2 0 -6.6 0 -9.9 0z"></path><path fill="#459142" d="m274.3 218.3c-0.3 0 -0.6 0.1 -0.9 0.1c-3.4 0 -6.8 -0.1 -10.2 -0.1c0 -3.6 0 -7.2 0 -10.8c3.4 0 6.8 -0.1 10.2 -0.1c0.3 0.1 0.6 0.1 0.8 0.1c0.1 3.7 0.1 7.3 0.1 10.8z"></path><path fill="#469443" d="m274.4 251.2c3.3 0 6.6 0 9.9 0c0 3.6 0.1 7.2 0.1 10.8c-3.4 0 -6.8 0 -10.2 0c0.1 -3.6 0.2 -7.2 0.2 -10.8z"></path><path fill="#191919" d="m340.1 194.5c-0.1 0.6 -0.2 1.3 -0.3 1.9c0 0 0.1 0 0.1 0c-7.3 0 -14.6 0.1 -21.8 0.1l0.1 0.1c-0.1 -3.6 -0.2 -7.3 -0.3 -10.9c0.1 -3.6 0.2 -7.3 0.4 -10.9c0 0 -0.1 -0.2 -0.1 -0.2c3.6 -0.1 7.2 -0.1 10.9 -0.2c2.7 0.1 5.4 0.2 8.1 0.2c1.5 0 2.9 0 3 2.1c-0.1 5.9 -0.1 11.8 -0.1 17.8z"></path><path fill="#afd8a1" d="m329 174.4c-3.6 0.1 -7.2 0.1 -10.9 0.2c0 -3.6 0 -7.3 0 -10.9c0.2 0 0.3 0 0.5 0c10.5 0.2 10.5 0.2 10.4 10.7z"></path><path fill="#5eb94c" d="m340.1 194.5c0 -6 0 -11.9 0 -17.9c1.4 6 1.4 11.9 0 17.9z"></path><path fill="#191919" d="m274.4 196.5c0 -7.3 0 -14.6 0 -21.9c4.9 0 9.9 0.3 14.8 -0.1c4.9 -0.4 7.4 0.9 6.5 6.3c-0.3 1.6 0.2 3.3 0.3 4.9c-0.4 3.6 -0.6 7.1 0.1 10.7c-3.9 0.1 -7.8 0.2 -11.7 0.2c-3.4 0 -6.7 -0.1 -10 -0.1z"></path><path fill="#afd8a1" d="m296 196.4c-0.7 -3.6 -0.5 -7.1 -0.1 -10.7c3.7 0 7.4 0 11.2 0c0 0 0 0 0 0c0 3.5 0 7 0 10.6c-3.7 0 -7.4 0 -11.1 0.1c0 -0.1 0 0 0 0z"></path><path fill="#448b3f" d="m263.5 163.8c3.7 0 7.3 0 11 0.1c0 3.6 0 7.2 0 10.7c-11 0 -11 0 -11 -10.8z"></path><path fill="#459142" d="m318.2 174.7c-0.1 3.6 -0.2 7.3 -0.4 10.9c-3.6 0 -7.2 0 -10.8 0c0 0 0 0 0 0c0 -0.3 0.1 -0.7 0.1 -1c0.3 -10.3 0.3 -10.3 11.1 -9.9z"></path><path fill="#5eb94b" d="m318.1 196.5c7.3 0 14.6 -0.1 21.8 -0.1c0 1.2 0 2.3 0.1 3.5c0 7.3 0 7.5 7.2 7.5c4.3 0 3.9 2.6 3.7 5.2c-0.2 2.5 1.4 6.2 -3.5 5.8c-0.3 0 -0.7 0 -1 0c-6.2 0.1 -7.9 2.7 -6.4 8.9c0.5 2.1 1.9 1.9 3.4 2c7.7 0.5 7.7 0.5 7.5 8.3c0 0.7 -0.1 1.3 -0.2 2c-10.8 -0.6 -10.8 -0.6 -10.8 9.9c0 0.3 0 0.6 0 1c0 3.9 0 7.7 -0.1 11.6c-3.6 0 -7.2 0 -10.8 0c0 -0.3 -0.1 -0.7 -0.1 -1c0 -3.3 0 -6.6 0 -9.8c-0.1 -3.8 -0.1 -7.5 -0.2 -11.3c0 -9.6 0 -19.1 0.1 -28.7c0 -2.2 -0.1 -3.7 -3 -3.8c-8.1 -0.5 -8.1 -0.6 -8 -9.1c0.2 -0.6 0.3 -1.3 0.3 -1.9z"></path><path fill="#afd8a1" d="m340 250.5c0 -0.3 0 -0.6 0 -1c-0.1 -10.5 -0.1 -10.5 10.8 -9.9c0 0.2 0.1 0.4 0.2 0.7c0 3.3 0 6.7 0 10c-3.7 0.1 -7.4 0.2 -11 0.2z"></path><path fill="#7ec569" d="m274.4 196.5c3.3 0 6.6 0.1 9.9 0.1c0 3.6 0 7.3 0 10.9c-3.3 0 -6.7 0.1 -10 0.1c-0.3 0 -0.6 -0.1 -0.8 -0.2c0.4 -3.6 -1.1 -7.4 0.9 -10.9z"></path><path fill="#469443" d="m340 250.5c3.6 -0.1 7.3 -0.1 10.9 -0.2c0 3.9 0.1 7.9 0.1 11.8c-3.7 0 -7.4 0 -11.1 0c0 -3.8 0.1 -7.7 0.1 -11.6z"></path><path fill="#5eb84b" d="m284.5 262.1c0 -3.6 -0.1 -7.2 -0.1 -10.8c1.8 -3.5 0.6 -7.3 1 -10.9c3.3 0 6.6 0 9.9 0c13.5 -0.2 11.9 1.8 11.9 -10.6c10.6 -0.9 10.6 -0.9 11.1 10.5c0 3.7 -0.1 7.3 -0.1 11c0.1 3.6 0.1 7.3 0.2 10.9c-11.4 -0.2 -22.7 -0.2 -33.9 -0.1z"></path><path fill="#afd8a1" d="m318.3 262c-0.1 -3.6 -0.1 -7.3 -0.2 -10.9c3.6 0.1 7.3 0.1 10.9 0.2c0 3.3 0 6.6 0 9.8c-0.4 0.3 -0.8 0.6 -1.2 1c-3.0999 0 -6.3 -0.1 -9.5 -0.1z"></path><path fill="#469443" d="m327.9 262.1c0.4 -0.3 0.8 -0.6 1.2 -1c0 0.3 0.1 0.7 0.1 1c-0.5 0 -0.9 0 -1.3 0z"></path><path fill="#58a149" d="m284.3 207.5c0 -3.6 0 -7.3 0 -10.9c3.9 -0.1 7.8 -0.2 11.7 -0.2c0 0 0 0 0 0c0 0.3 0.1 0.7 0.1 1c-0.2 12.2 2.3 10.3 -10.5 10.2c-0.4 -0.1 -0.9 -0.1 -1.3 -0.1z"></path><path fill="#7ec569" d="m307.2 229.7c-0.1 12.5 1.5 10.5 -11.9 10.6c0.1 -0.3 0.2 -0.6 0.2 -1c0.6 -10.5 0.6 -10.5 11.7 -9.6z"></path><path fill="#5eb84b" d="m307.1 185.7c3.6 0 7.2 0 10.8 0c0.1 3.6 0.2 7.3 0.3 10.9c-3.7 -0.1 -7.4 -0.2 -11.1 -0.3c0 -3.6 0 -7.1 0 -10.6z"></path><path fill="#5eb94c" d="m284.3 207.5c0.4 0 0.8 0 1.2 0.1c-0.2 3.7 -0.5 7.3 -0.7 11c-3.5 0 -7 -0.1 -10.5 -0.1c0 -3.6 0 -7.2 0 -10.8c3.4 -0.2 6.7 -0.2 10 -0.2z"></path><path fill="#459142" d="m329 251.3c-3.6 -0.1 -7.3 -0.1 -10.9 -0.2c0 -3.7 0.1 -7.3 0.1 -11c3.5 0 7.1 -0.1 10.6 -0.1c0.1 3.8 0.2 7.5 0.2 11.3z"></path><path fill="#459142" d="m0 0l-25.006 -2.8417l-4.5157 94.2767l89.5753 4.3771l8.112 -91.1959q-84.4602 -7.4579 -87.2596 -7.4579" transform="matrix(0.4658 -0.0396 0.0396 0.4658 296.0861 197.2362)"></path><path fill="#191919" d="m285.4 240.3c-0.2 -3.7 -0.4 -7.3 -0.6 -11c0.5 -3.6 0.4 -7.2 0 -10.9c0.2 -3.7 0.5 -7.3 0.7 -11c12.9 0.1 10.3 2 10.5 -10.2c0 -0.3 0 -0.7 -0.1 -1c3.7 0 7.4 -0.1 11 -0.1c3.7 0.1 7.4 0.2 11.1 0.3l-0.1 -0.1c0 0.7 -0.1 1.3 -0.1 2c-0.1 8.4 -0.1 8.6 8 9.1c2.9 0.2 3 1.7 3 3.8c-0.1 9.6 -0.1 19.1 -0.1 28.7c-3.5 0 -7.1 0.1 -10.6 0.1c-0.5 -11.3 -0.5 -11.3 -11.1 -10.5c-11.1 -0.9 -11.1 -0.9 -11.8 9.7c0 0.3 -0.1 0.6 -0.2 1c-3.1 0.1 -6.3 0.1 -9.6 0.1l0 0z" style="animation-name: eaf-11303-2;"></path><path fill="#191919" d="m285.4 240.3c-0.2 -3.7 -0.4 -7.3 -0.6 -11c0.5 -3.6 0.4 -7.2 0 -10.9c0.2 -3.7 0.5 -7.3 0.7 -11c12.9 0.1 10.3 2 10.5 -10.2c0 -0.3 0 -0.7 -0.1 -1c3.7 0 7.4 -0.1 11 -0.1c3.7 0.1 7.4 0.2 11.1 0.3l-0.1 -0.1c0 0.7 -0.1 1.3 -0.1 2c-0.1 8.4 -0.1 8.6 8 9.1c2.9 0.2 3 1.7 3 3.8c-0.1 9.6 -0.1 19.1 -0.1 28.7c-3.5 0 -7.1 0.1 -10.6 0.1c-0.5 -11.3 -0.5 -11.3 -11.1 -10.5c-11.1 -0.9 -11.1 -0.9 -11.8 9.7c0 0.3 -0.1 0.6 -0.2 1c-3.1 0.1 -6.3 0.1 -9.6 0.1l0 0z" transform="matrix(-0.9998 0.0175 -0.0175 -0.9998 617.1534 440.5689)" opacity="0" style="animation-name: eaf-11303-3;"></path></g></g></g></g></svg>