<svg xmlns="http://www.w3.org/2000/svg" viewBox="0 0 500 500" overflow="hidden" preserveAspectRatio="xMidYMid meet" id="eaf-9de6-0">
    <defs>
        <clipPath id="eaf-9de6-1"><rect x="0" y="0" width="500" height="500"></rect></clipPath>
        <style>
            #eaf-9de6-0 * {
                animation: 10000ms linear infinite normal both running;
                offset-rotate: 0deg;
            }
            @keyframes eaf-9de6-2 {
                0%,
                100% {
                    transform: translate(271.4991px, 262.1576px);
                }
            }
            @keyframes eaf-9de6-3 {
                0% {
                    transform: rotate(0);
                }
                47.67% {
                    transform: rotate(0);
                    animation-timing-function: ease-in-out;
                }
                61% {
                    transform: rotate(12deg);
                    animation-timing-function: ease-in-out;
                }
                71.67% {
                    transform: rotate(37deg);
                    animation-timing-function: ease-in-out;
                }
                86%,
                100% {
                    transform: rotate(0);
                }
            }
            @keyframes eaf-9de6-4 {
                0%,
                100% {
                    transform: matrix(1.0328, 0, 0, 1.0328, -291.0845, -260.2281);
                }
            }
            @keyframes eaf-9de6-5 {
                0%,
                100% {
                    transform: translate(210.8961px, 443.6791px);
                }
            }
            @keyframes eaf-9de6-6 {
                0% {
                    transform: rotate(0);
                }
                50% {
                    transform: rotate(360deg);
                }
                100% {
                    transform: rotate(720deg);
                }
            }
            @keyframes eaf-9de6-7 {
                0%,
                100% {
                    transform: translate(-210.8961px, -443.6791px);
                }
            }
            @keyframes eaf-9de6-8 {
                0%,
                100% {
                    transform: translate(198.338px, 281.1409px);
                }
            }
            @keyframes eaf-9de6-9 {
                0% {
                    transform: rotate(0);
                }
                40% {
                    transform: rotate(0);
                    animation-timing-function: ease-in-out;
                }
                50%,
                100% {
                    transform: rotate(140deg);
                }
            }
            @keyframes eaf-9de6-10 {
                0% {
                    transform: scale(0, 0);
                }
                30% {
                    transform: scale(0, 0);
                    animation-timing-function: linear(0 0%, 0.5 8%, 0.91 17%, 1.18 26%, 1.34 36%, 1.39 45%, 1.37 54%, 1.3 63%, 1.06 87%, 1.01 94%, 1 100%);
                }
                37.67% {
                    transform: scale(1, 1);
                }
                50% {
                    transform: scale(1, 1);
                    animation-timing-function: ease-in-out;
                }
                58%,
                100% {
                    transform: scale(0, 0);
                }
            }
            @keyframes eaf-9de6-11 {
                0%,
                100% {
                    transform: translate(-198.338px, -281.1409px);
                }
            }
        </style>
    </defs>
    <g clip-path="url('#eaf-9de6-1')" style="isolation: isolate;">
        <g>
            <g transform="matrix(4 0 0 4 -827.4 -2255)">
                <path
                    fill="#aaaaaa"
                    d="m331.7 626.3c0 15.6 0 31.3 0 46.9c0 7.2 -5.4 13.7 -12.5 15.1c-1 0.2 -2.1 0.3 -3.2 0.3c-31.2 0 -62.4 0 -93.6 0c-7.6 0 -14.3 -5.9 -15.3 -13.5c-0.1 -0.7 -0.1 -1.4 -0.1 -2c0 -31.3 0 -62.5 0 -93.8c0 -7.2 5.4 -13.7 12.5 -15.1c1 -0.2 2.1 -0.3 3.2 -0.3c31.2 0 62.4 0 93.6 0c7.2 0 13.7 5.4 15.1 12.5c0.2 1 0.3 2.1 0.3 3.2c0 15.6 0 31.1 0 46.7z"
                ></path>
            </g>
            <path
                fill="#000000"
                d="m259.1 450.8c-1.4 -3.8 -0.2 -9.4 2.5 -11.1c4.2 -2.8 34.8 -12.9 53.5 -17.6c7.5 -1.9 11.2 -2.6 14.5 -2.6l4.4 0l-0.3 3.9c-0.5 5.6 -1.1 6.7 -4.9 8.1c-7 2.8 -61.5 19.4 -66.8 20.4c-2.1 0.4 -2.3 0.4 -2.9 -1.1l0 0z"
            ></path>
            <g style="filter: drop-shadow(rgba(0, 0, 0, 0.31) 9px 8px 4px);">
                <path
                    fill="#000000"
                    d="m320.4421 245.3671c-0.0452 0.004 -0.0904 0.0081 -0.1355 0.0123l-0.0095 -0.0021l-5.4308 5.8228q-8.9362 9.2891 -9.115 9.2891q-0.1787 0 -16.264 7.149l-19.481 0q-15.3704 -14.4767 -15.7278 -16.4381q-0.3494 -1.9174 -6.6107 -21.8745l-0.2905 -0.0642c0.0965 -0.0981 0.1579 -0.1945 0.1798 -0.2886l-0.1049 -0.3344c-0.0765 -0.0824 -0.1927 -0.1621 -0.3522 -0.2383c-1.3 -0.6 -5.3 -2.2 -8.8 -3.5c-27.6 -10.1 -52.6 -21.8 -65.8 -30.5c-14.2 -9.5 -32.9 -27.5 -47.4 -45.5c-16.1 -20.1 -28.5 -44.2 -34.2 -66.5c-1.7 -6.5 -5.1 -26.8 -6.5 -38.5l-0.4 -3.4l4.6 2.5c54 29.6 73.7 42.4 98.2 64c21.1 18.6 32.2 31.7 77.2 91.8l22.8 30.4l0.7 -27.7c0.9 -39.2 1.3 -43 4.6 -56.5c8.9 -36.3 27 -67 56.1 -95.7c12.6 -12.4 26.2 -23.9 27.1 -22.9c1.4 1.4 0.4 62.5 -1.4 84.3c-4.5 54.2 -16.8 89.6 -41.7 119.5c-10.5 12.6 -11.8 14.2 -11.8 15c0 0.0368 0.0144 0.093 0.0421 0.167zm-73.3421 -16.167l0.2773 0.0613c-0.0526 0.0535 -0.1156 0.1074 -0.1885 0.1617l-0.0889 -0.223z"
                    transform="matrix(1.0328 0 0 1.0328 -19.5854 1.9295)"
                    style="animation-name: eaf-9de6-2, eaf-9de6-3, eaf-9de6-4; animation-composition: replace, add, add;"
                ></path>
            </g>
            <g style="filter: drop-shadow(rgba(0, 0, 0, 0.31) 9px 8px 4px);">
                <path
                    fill="#000000"
                    d="m208.1 424.5c-2.3 -3.8 -3.4 -8 -3.8 -14.6c-0.4 -7.7 0.5 -13.5 3.1 -19c1.1 -2.4 1.8 -4.5 1.6 -4.8c-0.3 -0.4 -2.6 -0.9 -5.1 -1.4c-6.5 -1.4 -18.7 -5.5 -26.3 -8.9c-24.3 -10.9 -38.4 -24.3 -42.7 -40.8c-3.3 -12.6 -0.6 -30.3 6.4 -43.3c9.8 -17.9 31 -37.9 49.2 -46.3c10.6 -4.9 31.6 -10.8 47.2 -13.3c3.6348 -0.5816 7.9782 -2.8387 9.6672 -2.8387c0.1521 0 -0.0505 0.0603 0 0.0102l0.0046 -0.0102l14.5196 0q20.7981 0.1617 21.8701 0.1617q1.0721 0 31.1048 12.4784l5.4175 3.49l0.0132 -0.0142l0.0095 0.0021c0.0451 -0.0042 0.0903 -0.0083 0.1355 -0.0123c0.0834 0.2226 0.2876 0.6062 0.5851 1.1064l3.7496 5.5136c12.4461 17.0543 19.6777 31.4396 23.2232 46.2129c4.1 17.1 0.8 62.8 -6.1 82.4c-3.6 10.3 -6.9 13.7 -20.5 20.8c-15.9 8.4 -59.9 25.9 -62 24.6c-0.5 -0.4 -0.6 -3.3 -0.3 -11.1c0.4 -9.7 0.3 -10.7 -0.6 -11.2c-1.4 -0.8 -4.2 0 -8.3 2.4c-4.2 2.4 -38.6 20.7 -39.9 21.1c-0.3 -0.4 -1.1 -0.9 -2.2 -2.7z"
                ></path>
            </g>
            <path fill="#aaaaaa" d="m204.6 299.6c7.6 -2.7 9.7 -6.3 9.3 -16.7c-0.3 -9.6 -2.2 -12.5 -9.6 -14.7c-4.3 -1.3 -10.1 -1.2 -13.2 0.4c-2.8 1.3 -5.8 4.4 -7.3 7.6c-1.4 3.1 -1.4 12.4 0 16c2.8 7.2 12.1 10.6 20.8 7.6l0 -0.2z"></path>
            <g style="filter: drop-shadow(rgba(0, 0, 0, 0.31) 9px 8px 4px);">
                <path
                    fill="#ffffff"
                    d="m237.4 468c-10 -9 -19.5 -15.7 -24.4 -17.4c-2.6 -0.9 -5.4 0 -18.7 6.8c-5.9 2.9 -11.3 5.3 -12.1 5.3c-1.2 0 -1.6 -0.4 -2 -2.2c-0.9 -3.5 -2.8 -15.6 -3.8 -24.1c-1.9 -16.8 -1.9 -16.1 1.7 -15.1c1.3 0.4 7.1 2.8 12.8 5.5c5.8 2.6 13 5.8 16 7.1l5.5 2.3l16 -8.1c8.8 -4.5 16.1 -8 16.2 -7.9c0.4 0.4 1.5 21.5 1.9 36.8c0.4 14.1 0.1 17 -1.8 17c-0.4 -0.0999 -3.7 -2.7999 -7.3 -5.9999l0 0z"
                    style="animation-name: eaf-9de6-5, eaf-9de6-6, eaf-9de6-7; animation-composition: replace, add, add;"
                ></path>
            </g>
            <g style="filter: drop-shadow(rgb(255, 255, 255) 0px 0px 18px);">
                <path
                    fill="#fff"
                    stroke="#000000"
                    stroke-width="4.3526"
                    stroke-miterlimit="10"
                    d="m194.8 233.9l-12.9 26.2c-0.6 1.2 -1.7 2 -3 2.2l-28.9 4.2c-3.3 0.5 -4.5 4.5 -2.2 6.7l20.9 20.4c0.9 0.9 1.3 2.2 1.1 3.5l-4.9 28.8c-0.5 3.2 2.8 5.7 5.7 4.2l25.9 -13.6c1.2 -0.6 2.5 -0.6 3.7 0l25.9 13.6c2.9 1.5 6.3 -0.9 5.7 -4.2l-4.9 -28.8c-0.2 -1.3 0.2 -2.6 1.1 -3.5l20.9 -20.4c2.3 -2.3 1 -6.3 -2.2 -6.7l-28.9 -4.2c-1.3 -0.2 -2.4 -1 -3 -2.2l-12.9 -26.2c-1.4 -2.9 -5.6 -2.9 -7.1 0z"
                    transform="matrix(0 0 0 0 198.338 281.1409)"
                    style="animation-name: eaf-9de6-8, eaf-9de6-9, eaf-9de6-10, eaf-9de6-11; animation-composition: replace, add, add, add;"
                ></path>
            </g>
        </g>
    </g>
</svg>



