<svg xmlns="http://www.w3.org/2000/svg" viewBox="0 0 769 769" overflow="hidden" preserveAspectRatio="xMidYMid meet" id="eaf-1f6c-0"><defs><clipPath id="eaf-1f6c-1"><rect x="0" y="0" width="769" height="769"></rect></clipPath><style>#eaf-1f6c-0 * {animation: 12000ms linear infinite normal both running;offset-rotate:0deg}@keyframes eaf-1f6c-2{0%{fill-opacity:1}90.01%{fill-opacity:1}95.56%,100%{fill-opacity:0}}@keyframes eaf-1f6c-3{0%{stroke-opacity:1}90.01%{stroke-opacity:1}95.56%,100%{stroke-opacity:0}}@keyframes eaf-1f6c-4{0%,100%{transform:none;offset-path:path("m395.7 416.9l662.6057 -1")}}@keyframes eaf-1f6c-5{0%{offset-distance:0%;animation-timing-function:ease-in-out}50%,100%{offset-distance:100%}}@keyframes eaf-1f6c-6{0%,100%{transform:translate(-74.6px,-89.8px)}}@keyframes eaf-1f6c-7{0%{fill-opacity:0}63.33%{fill-opacity:0;animation-timing-function:ease-in-out}67.22%{fill-opacity:1}92.78%{fill-opacity:1;animation-timing-function:ease-in-out}96.12%,100%{fill-opacity:0}}@keyframes eaf-1f6c-8{0%,100%{transform:translate(683.9px,67.2138px)}}@keyframes eaf-1f6c-9{0%{transform:scale(0,1)}55%{transform:scale(0,1);animation-timing-function:ease-in-out}62.23%{transform:scale(1.05,1);animation-timing-function:ease-in}63.33%,100%{transform:scale(1,1)}}@keyframes eaf-1f6c-10{0%,100%{transform:translate(-683.9px,-67.2138px)}}@keyframes eaf-1f6c-11{0%{opacity:1}94.17%{opacity:1}97.78%,100%{opacity:0}}</style></defs><g clip-path="url('#eaf-1f6c-1')" style="isolation: isolate;"><g><g transform="matrix(4 0 0 4 -846.84 -2287.9199)"><path fill="#aaaaaa" d="m403.7 667.9c0 24.1 0 48.1 0 72.2c0 11 -8.3 21.1 -19.2 23.2c-1.6 0.3 -3.3 0.5 -4.9 0.5c-48 0 -95.9 0 -143.9 0c-11.8 0 -22 -9 -23.6 -20.7c-0.1 -1 -0.2 -2.1 -0.2 -3.1c0 -48.1 0 -96.2 0 -144.3c0 -11 8.3 -21.1 19.2 -23.2c1.6 -0.3 3.3 -0.5 4.9 -0.5c48 0 96 0 144 0c11 0 21.1 8.3 23.2 19.2c0.3 1.6 0.5 3.3 0.5 4.9c0.1 23.8999 0 47.8999 0 71.7999z"></path></g><path fill="#000000" stroke="#000000" stroke-width="14" stroke-miterlimit="10" d="m712.6 236l-15.2 -50.3l-34.8 -21.1l-22.6 63.9l-0.3 66.3l-25.1 12.4l-27.8 -63.8l-22.1 52.4l-22.6001 25.2l-12.1 52.5l-22.4 27l-19.3 35.6l-36.3 -4.6c0 0 -15.0526 46.9559 -14.5526 46.0559c0.8 -1.4 -46.619 11.3566 -47.319 11.3566c-16.3 0 -22.5284 -45.0125 -38.6284 -66.0125l-21.8 108l-37.7 32.3l-21.3 -346.9l-28.7 15.2l-31.5 113.7l-25.5 -55.9999l-15.9 -40.2c-9.1 -27.9 -19.5 -68.2 -21 -68.2c-1.5 0 -13.3 30.3 -24.4 30.3l-8.5 41.5l-8.8 63.9c-12.7 6.6 -23 -33.4 -23 -31.5l0 314.9c0 39.1 31.7 70.7 70.7 70.7l491.4 0c39.1 0 70.6 -31.8 70.3 -70.9l-3.2 -363.7z" style="animation-name: eaf-1f6c-2, eaf-1f6c-3;"></path><g transform="translate(321.1 327.1)" style="animation-name: eaf-1f6c-4, eaf-1f6c-5, eaf-1f6c-6; animation-composition: replace, add, add;"><rect fill="#aaaaaa" width="659.8" height="526.2" transform="translate(-255.3 -173.3)"></rect></g><path d="M4.66553 112L4.66553 98.2256Q14.314 90.0371 22.1533 82.5151Q30.0244 74.9614 34.6265 68.3916Q39.2603 61.8218 39.2603 56.3628Q39.2603 50.7769 36.4673 48.1108Q33.6743 45.4448 29.1357 45.4448Q25.105 45.4448 21.8359 47.8569Q18.5986 50.2373 15.6152 53.2524L4.15771 41.7949Q10.4102 34.7808 16.8213 31.4165Q23.2642 28.0205 32.2461 28.0205Q40.5615 28.0205 46.9092 31.353Q53.2886 34.6538 56.9385 40.7158Q60.5884 46.7461 60.5884 54.8076Q60.5884 62.0757 56.748 68.8359Q52.9077 75.5962 46.9727 81.9756Q41.0693 88.355 34.8486 94.3218Q37.959 93.9409 41.9263 93.6235Q45.8936 93.2744 48.623 93.2744L64.4922 93.2744L64.4922 112L4.66553 112ZM107.905 112L107.905 67.2808Q107.905 63.123 108.223 57.5371Q108.54 51.9512 108.667 47.7935L108.159 47.7935Q106.604 51.4116 104.89 55.125Q103.208 58.8384 101.399 62.6152L93.8451 76.6436L137.549 76.6436L137.549 93.5283L72.8026 93.5283L72.8026 77.9448L100.891 29.5757L128.694 29.5757L128.694 112L107.905 112ZM165.092 79.7539Q158.872 79.7539 153.921 76.5166Q148.969 73.2476 146.113 67.2173Q143.257 61.1553 143.257 52.7129Q143.257 39.9858 149.477 32.9717Q155.73 25.9258 165.092 25.9258Q174.455 25.9258 180.676 32.9717Q186.928 39.9858 186.928 52.7129Q186.928 61.1553 184.072 67.2173Q181.216 73.2476 176.264 76.5166Q171.345 79.7539 165.092 79.7539ZM165.092 67.5347Q167.695 67.5347 169.631 64.4243Q171.599 61.314 171.599 52.7129Q171.599 44.1436 169.631 41.1602Q167.695 38.145 165.092 38.145Q162.617 38.145 160.586 41.1602Q158.586 44.1436 158.586 52.7129Q158.586 61.314 160.586 64.4243Q162.617 67.5347 165.092 67.5347ZM168.203 113.01507bL213.462 25.9258L225.935 25.9258L180.708 113.01507bL168.203 113.01507bZM228.791 113.01507bQ222.571 113.01507b 217.619 110.318Q212.668 107.049 209.812 101.019Q206.955 94.9565 206.955 86.5142Q206.955 73.7871 213.176 66.7729Q219.428 59.7271 228.791 59.7271Q238.154 59.7271 244.375 66.7729Q250.627 73.7871 250.627 86.5142Q250.627 94.9565 247.771 101.019Q244.914 107.049 239.963 110.318Q235.044 113.01507b 228.791 113.01507bZM228.791 101.336Q231.394 101.336 233.33 98.2256Q235.298 95.1152 235.298 86.5142Q235.298 77.9448 233.33 74.9614Q231.394 71.9463 228.791 71.9463Q226.316 71.9463 224.284 74.9614Q222.285 77.9448 222.285 86.5142Q222.285 95.1152 224.284 98.2256Q226.316 101.336 228.791 101.336Z" fill="#ffe789" fill-opacity="0" transform="matrix(1.2155 0 0 1.2155 384.5 482.866)" style="animation-name: eaf-1f6c-7;"></path><g transform="matrix(0 0 0 1 683.9 0)" style="animation-name: eaf-1f6c-8, eaf-1f6c-9, eaf-1f6c-10, eaf-1f6c-11; animation-composition: replace, add, add, replace;"><ellipse fill="#c40000" rx="33.7" ry="33.7" transform="translate(65.5 204.1)"></ellipse><ellipse fill="#c40000" rx="33.7" ry="33.7" transform="translate(157.7 91.5)"></ellipse><ellipse fill="#c40000" rx="33.7" ry="33.7" transform="translate(287.7 119.9)"></ellipse><ellipse fill="#c40000" rx="33.7" ry="33.7" transform="translate(362 305.1)"></ellipse><ellipse fill="#c40000" rx="33.7" ry="33.7" transform="translate(490.3 237.7)"></ellipse><ellipse fill="#c40000" rx="33.7" ry="33.7" transform="translate(586 140.7)"></ellipse><ellipse fill="#c40000" rx="33.7" ry="33.7" transform="translate(683.8 68.3)"></ellipse><path fill="none" stroke="#c40000" stroke-width="20" stroke-miterlimit="10" d="m81.3 193.4c23 -52.6 49.7 -81.4 81.3 -106.9c53.2 -42.9 91.4 -6.4 125.1 33.4c39.8 47.1 35.5 173.1 74.3 185.2c30.7 9.6 30.9 116.7 132.1 -73.2c23.9 -44.9 47.6 -49.9 92 -91.1c38.5 -35.9 74.7 -56.4 97.8 -72.5"></path></g></g></g></svg>