<svg xmlns="http://www.w3.org/2000/svg" viewBox="0 0 500 500" overflow="hidden" preserveAspectRatio="xMidYMid meet" id="eaf-16b53-0"><defs><clipPath id="eaf-16b53-1"><rect x="0" y="0" width="500" height="500"></rect></clipPath><style>#eaf-16b53-0 * {animation: 20000ms linear infinite normal both running;offset-rotate:0deg}@keyframes eaf-16b53-2{0%,100%{transform:translate(268.2px,100.6px)}}@keyframes eaf-16b53-3{0%{transform:scale(0,1.6)}34.09%{transform:scale(0,1.6);animation-timing-function:ease-in-out}40%,100%{transform:scale(1,1.6)}}@keyframes eaf-16b53-4{0%,100%{transform:translate(-268.2px,-100.6px)}}@keyframes eaf-16b53-5{0%,100%{transform:translate(268.2px,157.8px)}}@keyframes eaf-16b53-6{0%{transform:scale(0,1.6)}41.67%{transform:scale(0,1.6);animation-timing-function:ease-in-out}47.58%,100%{transform:scale(1,1.6)}}@keyframes eaf-16b53-7{0%,100%{transform:translate(-268.2px,-157.8px)}}@keyframes eaf-16b53-8{0%{opacity:0}26.67%{opacity:0;animation-timing-function:ease-in-out}31.67%{opacity:1}52.5%{opacity:1;animation-timing-function:ease-in-out}56.59%,100%{opacity:0}}@keyframes eaf-16b53-9{0%,100%{transform:translate(127.7px,130.2px)}}@keyframes eaf-16b53-10{0%{transform:scale(1,1);animation-timing-function:ease-in-out}7.5%,100%{transform:scale(4.0343,4.0343)}}@keyframes eaf-16b53-11{0%,100%{transform:translate(-127.7px,-130.2px)}}@keyframes eaf-16b53-12{0%{opacity:1}5%{opacity:1;animation-timing-function:ease-in-out}7.5%,100%{opacity:0}}@keyframes eaf-16b53-13{0%{transform:scale(1,1)}6.92%{transform:scale(1,1);animation-timing-function:ease-in-out}14.42%,100%{transform:scale(4.0343,4.0343)}}@keyframes eaf-16b53-14{0%{opacity:1}11.92%{opacity:1;animation-timing-function:ease-in-out}14.42%,100%{opacity:0}}@keyframes eaf-16b53-15{0%{transform:scale(1,1)}13.84%{transform:scale(1,1);animation-timing-function:ease-in-out}23.34%,100%{transform:scale(4.0343,4.0343)}}@keyframes eaf-16b53-16{0%{opacity:1}19.17%{opacity:1;animation-timing-function:ease-in-out}23.34%,100%{opacity:0}}@keyframes eaf-16b53-17{0%,100%{transform:none;offset-path:path("m127.7 130.2l0 0l0 63.2l0 0l0 -63.2")}}@keyframes eaf-16b53-18{0%{offset-distance:0%}25.25%{offset-distance:0%;animation-timing-function:ease-in-out}27.59%{offset-distance:50%}91.84%{offset-distance:50%;animation-timing-function:ease-in-out}97.34%,100%{offset-distance:100%}}@keyframes eaf-16b53-19{0%,100%{transform:translate(123.2px,265.1px)}}@keyframes eaf-16b53-20{0%{transform:rotate(0);animation-timing-function:ease-in-out}3.5%{transform:rotate(-2deg);animation-timing-function:ease-in-out}7.5%{transform:rotate(2deg);animation-timing-function:ease-in-out}10.75%{transform:rotate(-2deg);animation-timing-function:ease-in-out}14.5%{transform:rotate(2deg);animation-timing-function:ease-in-out}17.75%{transform:rotate(-2deg)}17.76%{transform:rotate(-2deg);animation-timing-function:ease-in-out}21.34%,100%{transform:rotate(0)}}@keyframes eaf-16b53-21{0%,100%{transform:translate(-123.2px,-265.1px)}}@keyframes eaf-16b53-22{0%,100%{transform:translate(288.3px,348.3957px)}}@keyframes eaf-16b53-23{0%{transform:scale(1,1)}71.17%{transform:scale(1,1);animation-timing-function:ease-in-out}74.17%{transform:scale(1,0);animation-timing-function:ease-in-out}77.67%,100%{transform:scale(1,1)}}@keyframes eaf-16b53-24{0%,100%{transform:translate(-288.3px,-348.3957px)}}@keyframes eaf-16b53-25{0%,100%{transform:translate(222.7958px,348.3957px)}}@keyframes eaf-16b53-26{0%{transform:scale(1,1)}18.5%{transform:scale(1,1);animation-timing-function:ease-in-out}20.09%{transform:scale(1,0)}20.75%{transform:scale(1,0);animation-timing-function:ease-in-out}22.5%{transform:scale(1,1)}28.84%{transform:scale(1,1);animation-timing-function:ease-in-out}30.42%{transform:scale(1,0);animation-timing-function:ease-in-out}31.92%{transform:scale(1,1);animation-timing-function:ease-in-out}33.5%{transform:scale(1,0);animation-timing-function:ease-in-out}35%,100%{transform:scale(1,1)}}@keyframes eaf-16b53-27{0%,100%{transform:translate(-222.7958px,-348.3957px)}}@keyframes eaf-16b53-28{0%,100%{transform:none;offset-path:path("m222.8 309.25l0 0l27.2 -72.4796l0 0l-27.2 72.4796")}}@keyframes eaf-16b53-29{0%{offset-distance:0%}58.5%{offset-distance:0%;animation-timing-function:ease-in-out}65.67%{offset-distance:50%}85.84%{offset-distance:50%;animation-timing-function:ease-in-out}92.17%,100%{offset-distance:100%}}@keyframes eaf-16b53-30{0%{transform:scale(1,1)}58.5%{transform:scale(1,1);animation-timing-function:ease-in-out}65.67%{transform:scale(1.2373,1.2373)}85.84%{transform:scale(1.2373,1.2373);animation-timing-function:ease-in-out}92.17%,100%{transform:scale(1,1)}}@keyframes eaf-16b53-31{0%,100%{transform:translate(-222.8px,-309.25px)}}@keyframes eaf-16b53-32{0%,100%{transform:translate(251.6416px,373.2072px)}}@keyframes eaf-16b53-33{0%{transform:scale(0,1)}72.33%{transform:scale(0,1);animation-timing-function:ease-in-out}76.17%{transform:scale(1,1)}80.83%{transform:scale(1,1);animation-timing-function:ease-in-out}85%,100%{transform:scale(0,1)}}@keyframes eaf-16b53-34{0%,100%{transform:translate(-251.6416px,-373.2072px)}}</style></defs><g clip-path="url('#eaf-16b53-1')" style="isolation: isolate;"><g><g transform="matrix(4 0 0 4 -827.28 -2254.5264)"><path fill="#aaaaaa" d="m331.7 626.2c0 15.6 0 31.3 0 46.9c0 7.2 -5.4 13.7 -12.5 15.1c-1 0.2 -2.1 0.3 -3.2 0.3c-31.2 0 -62.4 0 -93.6 0c-7.6 0 -14.3 -5.9 -15.3 -13.5c-0.1 -0.7 -0.1 -1.4 -0.1 -2c0 -31.3 0 -62.5 0 -93.8c0 -7.2 5.4 -13.7 12.5 -15.1c1 -0.2 2.1 -0.3 3.2 -0.3c31.2 0 62.4 0 93.6 0c7.2 0 13.7 5.4 15.1 12.5c0.2 1 0.3 2.1 0.3 3.2c0 15.5999 0 31.0999 0 46.7z"></path></g><g opacity="0" style="animation-name: eaf-16b53-8;"><path fill="#fff" d="m358.1 208.7c1.4 -1.8 3.6 -2.9 6 -2.9l80.1 0c7.9 0 14.2 -6.4 14.2 -14.2l0 -124.8c0 -7.9 -6.4 -14.2 -14.2 -14.2l-206 0c-7.9 0 -14.2 6.4 -14.2 14.2l0 124.7c0 7.9 6.4 14.2 14.2 14.2l32.5 0c2.1 0 4 0.9 5.4 2.2c1.4 1.4 2.2 3.3 2.2 5.4l0 20.7c8.6 1.3 16.9 3.5 24.7 6.6l55.1 -31.9z"></path><path fill="#000000" d="m444.3 37.3l-206.1 0c-16.3 0 -29.5 13.2 -29.5 29.5l0 124.7c0 16.3 13.2 29.5 29.5 29.5l24.9 0l0 11.6l0 8c0 4.2 3.4 7.6 7.6 7.6c4.2 0 7.6 -3.4 7.6 -7.6l0 -6.6l0 -20.5c0 -2.1 -0.9 -4 -2.2 -5.4c-1.4 -1.4 -3.3 -2.2 -5.4 -2.2l-32.5 0c-7.9 0 -14.2 -6.4 -14.2 -14.2l0 -124.9c0 -7.9 6.4 -14.2 14.2 -14.2l206.1 0c7.9 0 14.2 6.4 14.2 14.2l0 124.8c0 7.9 -6.4 14.2 -14.2 14.2l-80.1 0c-2.4 0 -4.6 1.2 -6 2.9l-55 31.8l-3.3 1.9c-2.4 1.4 -3.8 3.9 -3.8 6.6c0 2.8 1.6 5.3 3.9 6.6c0.5 0.3 1 0.5 1.6 0.7c0.7 0.2 1.4 0.3 2.2 0.3c1.4 0 2.7 -0.4 3.8 -1l12.3 -7.1l47.6 -27.5l76.9 0c16.3 0 29.5 -13.2 29.5 -29.5l0 -124.7c-0.1 -16.3 -13.3 -29.5 -29.6 -29.5z"></path><path fill="#000000" d="m275.8 108.2l130.8 0c4.2 0 7.6 -3.4 7.6 -7.6c0 -4.2 -3.4 -7.6 -7.6 -7.6l-130.8 0c-4.2 0 -7.6 3.4 -7.6 7.6c0 4.2 3.4 7.6 7.6 7.6z" transform="matrix(0 0 0 1.6 268.2 -60.36)" style="animation-name: eaf-16b53-2, eaf-16b53-3, eaf-16b53-4; animation-composition: replace, add, add;"></path><path fill="#000000" d="m414.3 157.8c0 -4.2 -3.4 -7.6 -7.6 -7.6l-130.9 0c-4.2 0 -7.6 3.4 -7.6 7.6c0 4.2 3.4 7.6 7.6 7.6l130.8 0c4.3 0 7.7 -3.4 7.7 -7.6z" transform="matrix(0 0 0 1.6 268.2 -94.68)" style="animation-name: eaf-16b53-5, eaf-16b53-6, eaf-16b53-7; animation-composition: replace, add, add;"></path></g><path fill="#ffffff" d="m127.7 159.8c0 0 0 0 0 0c-16.3 0 -29.6 -13.3 -29.6 -29.6l0 0c0 -16.3 13.3 -29.6 29.6 -29.6c16.3 0 29.5 13.3 29.6 29.6c0 16.3 -13.3 29.6 -29.6 29.6zm-21 -29.6c0 11.6 9.4 21 21 21c0 0 0 0 0 0c11.6 0 21 -9.4 21 -21c0 -11.6 -9.4 -21 -21 -21c-11.6 0 -21 9.4 -21 21z" style="animation-name: eaf-16b53-9, eaf-16b53-10, eaf-16b53-11, eaf-16b53-12; animation-composition: replace, add, add, replace;"></path><path fill="#ffffff" d="m127.7 159.8c0 0 0 0 0 0c-16.3 0 -29.6 -13.3 -29.6 -29.6l0 0c0 -16.3 13.3 -29.6 29.6 -29.6c16.3 0 29.5 13.3 29.6 29.6c0 16.3 -13.3 29.6 -29.6 29.6zm-21 -29.6c0 11.6 9.4 21 21 21c0 0 0 0 0 0c11.6 0 21 -9.4 21 -21c0 -11.6 -9.4 -21 -21 -21c-11.6 0 -21 9.4 -21 21z" style="animation-name: eaf-16b53-9, eaf-16b53-13, eaf-16b53-11, eaf-16b53-14; animation-composition: replace, add, add, replace;"></path><path fill="#ffffff" d="m127.7 159.8c0 0 0 0 0 0c-16.3 0 -29.6 -13.3 -29.6 -29.6l0 0c0 -16.3 13.3 -29.6 29.6 -29.6c16.3 0 29.5 13.3 29.6 29.6c0 16.3 -13.3 29.6 -29.6 29.6zm-21 -29.6c0 11.6 9.4 21 21 21c0 0 0 0 0 0c11.6 0 21 -9.4 21 -21c0 -11.6 -9.4 -21 -21 -21c-11.6 0 -21 9.4 -21 21z" style="animation-name: eaf-16b53-9, eaf-16b53-15, eaf-16b53-11, eaf-16b53-16; animation-composition: replace, add, add, replace;"></path><g style="animation-name: eaf-16b53-28, eaf-16b53-29, eaf-16b53-30, eaf-16b53-31; animation-composition: replace, add, add, add;"><path fill="#fefadf" d="m261.2 449.3l-76.8 0c-38.2 0 -71.4 -21.3 -88.5 -52.6c-0.2 -0.6 -0.5 -1.1 -0.9 -1.7c-7.2 -13.9 -11.3 -29.6 -11.3 -46.4c0 -16.7 4.1 -32.5 11.3 -46.4c0.4 -0.5 0.7 -1.1 0.9 -1.7c6.8 -12.5 16.2 -23.4 27.5 -32l1.3 -0.8l3 -2.3c16.1 -11 35.6 -17.5 56.7 -17.5l76.8 0c1.1 0 2.2 0 3.3 0.1l4.5 0.2c9.2 0.7 18 2.6 26.3 5.6l8.2 3.4c19.6 9.1 35.8 24.2 46.1 43.1c0.3 0.8 0.6 1.4 1.1 2.1c7.2 13.8 11.2 29.5 11.2 46.2c0 16.7 -4 32.4 -11.2 46.2c-0.5 0.6 -0.8 1.3 -1.1 2.1c-17.1 31.3 -50.3 52.3999 -88.4 52.3999z"></path><g><path fill="#ffe79d" d="m76.7 305.5l-15.1 0c-10 0 -17.8 18.9 -17.8 43.1c0 24.2 7.8 43.1 17.8 43.1l15.1 0c-5.3 -13.3 -8.3 -27.9 -8.3 -43.1c0 -15.2 3 -29.8 8.3 -43.1z"></path><path fill="#ffe79d" d="m368.8 391.8l15.2 0c5.8 0 9.8 -6.2 12.1 -11.3c3.6 -8.1 5.7 -19.7 5.7 -31.8c0 -24.2 -7.8 -43.1 -17.8 -43.1l-15.1 0c5.3 13.3 8.3 27.9 8.3 43.1c-0.1 15.2 -3 29.7 -8.4 43.1z"></path></g><g style="animation-name: eaf-16b53-19, eaf-16b53-20, eaf-16b53-21; animation-composition: replace, add, add;"><path fill="#000000" d="m121.3 268.8c0.7 0 1.4 -0.1 2.1 -0.3c1.8 -0.5 3.3 -1.6 4.3 -3.1c0.8 -1.2 1.3 -2.7 1.3 -4.3l0 -14.4l0 -77.1c-0.4 0 -0.8 0 -1.3 0c-4.9 0 -9.7 -0.9 -14 -2.6l0 89.6l0 4.5c0 4.3 3.4 7.7 7.6 7.7z"></path><g transform="translate(0 0)" style="animation-name: eaf-16b53-17, eaf-16b53-18, eaf-16b53-11; animation-composition: replace, add, add;"><path fill="#000000" d="m129 169.7c21.2 -0.7 38.2 -18.1 38.2 -39.5l0 0c0 -21.8 -17.7 -39.5 -39.5 -39.5c-21.8 0 -39.5 17.7 -39.5 39.5c0 16.9 10.6 31.3 25.5 36.9c4.4 1.7 9.1 2.6 14 2.6c0.4 0 0.9 0 1.3 0z"></path><path fill="#ffffff" d="m103.5 130.2c0 -13.4 10.9 -24.2 24.2 -24.2c13.4 0 24.2 10.9 24.2 24.2c0 0 0 0 0 0c0 13.4 -10.9 24.2 -24.2 24.2c-13.4 0 -24.2 -10.8 -24.2 -24.2z"></path></g></g><g style="animation-name: eaf-16b53-25, eaf-16b53-26, eaf-16b53-27; animation-composition: replace, add, add;"><path fill="#000000" d="m156.7 303.5c-17.3 0.3 -31.1 14.6 -30.7 31.8l0 26.7c0 17.3 14 31.3 31.3 31.3c17.3 0 31.3 -14 31.3 -31.3l0 -26.7c0 -0.4 0 -0.7 0 -1.1c-0.3 -17.3 -14.6 -31 -31.9 -30.7z"></path><g><path fill="#fff" d="m173.3 362c0 0.3 0 0.5 0 0.8c-0.2 8.8 -7.6 15.8 -16.4 15.6c-8.8 -0.2 -15.8 -7.6 -15.6 -16.4l0 -26.7c0 -8.8 7.2 -16 16 -16l0 0l0 0c8.8 0 16 7.2 16 16l0 26.7z"></path><g style="animation-name: eaf-16b53-22, eaf-16b53-23, eaf-16b53-24; animation-composition: replace, add, add;"><path fill="#000000" d="m257 362c0 17.3 14 31.3 31.3 31.3c17.3 0 31.3 -14 31.3 -31.3l0 -26.7c0 -0.4 0 -0.7 0 -1.1c-0.3 -17.3 -14.6 -31.1 -31.8 -30.7c-17.3 0.3 -31.1 14.6 -30.7 31.8l0 26.7l-0.1 0z"></path><path fill="#fff" d="m272.3 335.3c0 -8.8 7.2 -16 16 -16l0 0l0 0c8.8 0 16 7.2 16 16l0 26.7c0 0.3 0 0.5 0 0.8c-0.2 8.8 -7.6 15.8 -16.4 15.6c-8.8 -0.2 -15.8 -7.6 -15.6 -16.4l0 -26.7z"></path></g></g></g><path fill="#000000" d="m384 290.2l-22.6 0c-10.1 -17.2 -24.4 -31.6 -41.6 -41.7l-5.4 -3.1l-3.7 -2l-4.5 -1.9l-3.4 -1.1l0 0c-7.8 -3 -16 -5.2 -24.5 -6.5l-2.4 -0.5l-3.4 -0.5l-2.6 -0.3l-7 0c-0.6 0 -1.3 0 -1.9 0l-76.8 0c-20.1 0 -38.9 5.1 -55.4 14.1l-5.6 3.3l-6.5 4.6l-3.2 2.1c-11.9 9.1 -21.9 20.5 -29.5 33.5l-22.4 0c-11 0 -20.2 7.2 -26.1 20.4c-4.5 10.2 -7 23.7 -7 38c0 29.1 10.2 58.4 33.1 58.4l22.6 0c20.1 34.4 57.4 57.5 100.2 57.6l76.8 0c42.7 0 80.1 -23.1 100.2 -57.6l22.6 0c22.8 0 33.1 -29.3 33.1 -58.4c0 -29 -10.3 -58.4 -33.1 -58.4zm-113.2 -41.8c0 0 -0.1 0 -0.1 0c-0.3 0 -0.6 0 -0.9 -0.1l1 0.1zm-194.1 143.4l-15.1 0c-10 0 -17.8 -18.9 -17.8 -43.1c0 -24.2 7.8 -43.1 17.8 -43.1l15.1 0c-5.3 13.3 -8.3 27.9 -8.3 43.1c0 15.2 2.9 29.7 8.3 43.1zm274 3c-0.5 0.6 -0.8 1.3 -1.1 2.1c-17.1 31.2 -50.3 52.4 -88.4 52.4l-76.8 0c-38.2 0 -71.4 -21.3 -88.5 -52.6c-0.2 -0.6 -0.5 -1.1 -0.9 -1.7c-7.2 -13.9 -11.3 -29.6 -11.3 -46.4c0 -16.7 4.1 -32.5 11.3 -46.4c0.4 -0.5 0.7 -1.1 0.9 -1.7c6.4 -11.7 15 -22 25.3 -30.3l2.2 -1.7l4.8 -3.4c16 -10.8 35.4 -17.2 56.2 -17.2l76.8 0c1.1 0 2.2 0 3.3 0.1l4.5 0.2c9.2 0.7 18 2.6 26.3 5.6l8.2 3.4c19.6 9.1 35.8 24.2 46.1 43.1c0.3 0.8 0.6 1.4 1.1 2.1c7.2 13.8 11.2 29.5 11.2 46.2c0 16.7 -4.1 32.4 -11.2 46.2zm45.4 -14.4c-2.3 5.2 -6.3 11.3 -12.1 11.3l-15.1 0c5.3 -13.3 8.3 -27.9 8.3 -43.1c0 -15.2 -2.9 -29.8 -8.3 -43.1l15.1 0c10 0 17.8 18.9 17.8 43.1c0 12.1 -2.1 23.7 -5.7 31.8z"></path></g><g transform="matrix(0 0 0 1 251.6416 0)" style="animation-name: eaf-16b53-32, eaf-16b53-33, eaf-16b53-34; animation-composition: replace, add, add;"><rect fill="#000000" width="26.2557" height="30.977" transform="translate(158.9554 357.7187)"></rect><rect fill="#000000" width="26.2557" height="30.977" transform="translate(199.3277 357.7187)"></rect><rect fill="#000000" width="26.2557" height="30.977" transform="translate(239.6999 357.7187)"></rect><rect fill="#000000" width="26.2557" height="30.977" transform="translate(280.0722 357.7187)"></rect><rect fill="#000000" width="26.2557" height="30.977" transform="translate(318.0722 357.7187)"></rect></g></g></g></svg>

