<svg xmlns="http://www.w3.org/2000/svg" viewBox="0 0 500 500" overflow="hidden" preserveAspectRatio="xMidYMid meet" id="eaf-1222e-0"><defs><clipPath id="eaf-1222e-1"><rect x="0" y="0" width="500" height="500"></rect></clipPath><style>#eaf-1222e-0 * {animation: 10000ms linear infinite normal both running;offset-rotate:0deg}@keyframes eaf-1222e-2{0%,100%{transform:translate(320.0035px,268px)}}@keyframes eaf-1222e-3{0%,0.17%{transform:scale(1,1)}71.67%{transform:scale(1,1);animation-timing-function:ease-in-out}73.84%{transform:scale(1,0);animation-timing-function:ease-in-out}76.51%,100%{transform:scale(1,1)}}@keyframes eaf-1222e-4{0%,100%{transform:translate(-320.0035px,-268px)}}@keyframes eaf-1222e-5{0%,100%{transform:translate(250.4542px,244.9px)}}@keyframes eaf-1222e-6{0%{transform:rotate(0)}38.84%{transform:rotate(0);animation-timing-function:ease-in-out}42.17%{transform:rotate(7deg);animation-timing-function:ease-in-out}47.17%{transform:rotate(-7deg);animation-timing-function:ease-in-out}49.67%{transform:rotate(0)}53.34%{transform:rotate(0);animation-timing-function:ease-in-out}56.67%{transform:rotate(7deg);animation-timing-function:ease-in-out}61.67%{transform:rotate(-7deg);animation-timing-function:ease-in-out}64.17%,100%{transform:rotate(0)}}@keyframes eaf-1222e-7{0%,100%{transform:matrix(0.9597,0,0,0.9597,-240.3695,-241.7571)}}@keyframes eaf-1222e-8{0%,100%{transform:none;offset-path:path("m267 121.5l488.2 0l0 3l-488.2 -2l0 -3")}}@keyframes eaf-1222e-9{0%{offset-distance:0%}4.5%{offset-distance:49.6944%}92.33%{offset-distance:49.9998%}96%{offset-distance:99.6946%}96.01%,100%{offset-distance:100%}}@keyframes eaf-1222e-10{0%,100%{transform:translate(-255.2px,-33.8px)}}@keyframes eaf-1222e-11{0%,100%{transform:none;offset-path:path("m267 182.1l0 4l488.2 -1.1l0 0l-488.2 -2.9l0 4")}}@keyframes eaf-1222e-12{0%{offset-distance:0%}6.16%{offset-distance:0.4063%}11.5%{offset-distance:49.9996%}91.01%{offset-distance:49.9996%}95%{offset-distance:99.5937%}95.01%,100%{offset-distance:100%}}@keyframes eaf-1222e-13{0%,100%{transform:none;offset-path:path("m267 244.6l0 8l488.2 0l0 0l-488.2 -8")}}@keyframes eaf-1222e-14{0%{offset-distance:0%}13%{offset-distance:0.8126%}18.17%{offset-distance:50.403%}90.17%{offset-distance:50.403%}94.17%,100%{offset-distance:100%}}@keyframes eaf-1222e-15{0%,100%{transform:none;offset-path:path("m267 307.2l0 12l486.9198 0l0 0l-486.9198 -11.8386")}}@keyframes eaf-1222e-16{0%{offset-distance:0%}19.5%{offset-distance:1.2171%}24.5%{offset-distance:50.6012%}89.51%{offset-distance:50.6012%}93.5%,100%{offset-distance:100%}}@keyframes eaf-1222e-17{0%,100%{transform:none;offset-path:path("m267 370l0 0l486.9198 14l0 0l-486.9198 -14")}}@keyframes eaf-1222e-18{0%{offset-distance:0%}25.49%{offset-distance:0%}30.33%{offset-distance:50%}88.5%{offset-distance:50%}93%,100%{offset-distance:100%}}</style></defs><g clip-path="url('#eaf-1222e-1')" style="isolation: isolate;"><g><g transform="matrix(4 0 0 4 -827.28 -2254.5264)"><path fill="#666666" d="m331.8 626.1c0 15.6 0 31.3 0 46.9c0 7.2 -5.4 13.7 -12.5 15.1c-1 0.2 -2.1 0.3 -3.2 0.3c-31.2 0 -62.4 0 -93.6 0c-7.6 0 -14.3 -5.9 -15.3 -13.5c-0.1 -0.7 -0.1 -1.4 -0.1 -2c0 -31.3 0 -62.5 0 -93.8c0 -7.2 5.4 -13.7 12.5 -15.1c1 -0.2 2.1 -0.3 3.2 -0.3c31.2 0 62.4 0 93.6 0c7.2 0 13.7 5.4 15.1 12.5c0.2 1 0.3 2.1 0.3 3.2c0 15.6 0 31.1 0 46.7z"></path></g><g transform="matrix(0.9597 0 0 0.9597 10.0847 3.1429)" style="animation-name: eaf-1222e-5, eaf-1222e-6, eaf-1222e-7; animation-composition: replace, add, add;"><path fill="#000000" d="m395.7 117.1c-27.1 -12.7 -56 -21.9 -86.3 -27.1c-3.7 6.7 -8.1 15.8 -11.1 23c-32.2 -4.8 -64.1 -4.8 -95.7 0c-3 -7.2 -7.4 -16.2 -11.2 -23c-30.3 5.2 -59.3 14.5 -86.4 27.2c-54.6 82.5 -69.4 163 -62 242.4c36.2 27.1 71.3 43.5 105.9 54.2c8.5 -11.7 16.1 -24.2 22.7 -37.3c-12.5 -4.7 -24.4 -10.6 -35.7 -17.4c3 -2.2 5.9 -4.5 8.8 -6.9c68.8 32.2 143.6 32.2 211.6 0c2.9 2.4 5.8 4.7 8.8 6.9c-11.3 6.8 -23.3 12.7 -35.8 17.4c6.5 13.1 14.1 25.6 22.7 37.3c34.6 -10.8 69.7 -27.2 105.9 -54.3c8.7 -91.9 -14.8 -171.7 -62.2 -242.4z"></path><path fill="#f4b526" d="m181 310.8c-20.7 0 -37.6 -19.3 -37.6 -42.8c0 -23.5 16.6 -42.8 37.6 -42.8c21 0 38 19.3 37.6 42.8c0.1 23.5 -16.6 42.8 -37.6 42.8z"></path><path fill="#f4b526" d="m320 310.8c-20.7 0 -37.6 -19.3 -37.6 -42.8c0 -23.5 16.6 -42.8 37.6 -42.8c21 0 38 19.3 37.6 42.8c0 23.5 -16.6 42.8 -37.6 42.8z" style="animation-name: eaf-1222e-2, eaf-1222e-3, eaf-1222e-4; animation-composition: replace, add, add;"></path></g><rect fill="#666666" width="510.4" height="67.6" transform="translate(11.8 87.7)" style="animation-name: eaf-1222e-8, eaf-1222e-9, eaf-1222e-10; animation-composition: replace, add, add;"></rect><rect fill="#666666" width="510.4" height="67.6" transform="translate(11.8 148.3)" style="animation-name: eaf-1222e-11, eaf-1222e-12, eaf-1222e-10; animation-composition: replace, add, add;"></rect><rect fill="#666666" width="510.4" height="67.6" transform="translate(11.8 210.8)" style="animation-name: eaf-1222e-13, eaf-1222e-14, eaf-1222e-10; animation-composition: replace, add, add;"></rect><rect fill="#666666" width="510.4" height="67.6" transform="translate(11.8 273.4)" style="animation-name: eaf-1222e-15, eaf-1222e-16, eaf-1222e-10; animation-composition: replace, add, add;"></rect><rect fill="#666666" width="510.4" height="67.6" transform="translate(11.8 336.2)" style="animation-name: eaf-1222e-17, eaf-1222e-18, eaf-1222e-10; animation-composition: replace, add, add;"></rect></g></g></svg>