<svg id="e0fi2jgm3hnzn1" xmlns="http://www.w3.org/2000/svg" xmlns:xlink="http://www.w3.org/1999/xlink" viewBox="0 0 769 769" shape-rendering="geometricPrecision" text-rendering="geometricPrecision">
    <style>
        <![CDATA[#e0fi2jgm3hnzn1{pointer-events: all} #e0fi2jgm3hnzn1:hover * {animation-play-state: running !important}#e0fi2jgm3hnzn5_to {animation: e0fi2jgm3hnzn5_to__to 8000ms linear infinite normal forwards}@keyframes e0fi2jgm3hnzn5_to__to { 0% {transform: translate(-34.750000px,-34.500000px)} 60% {transform: translate(-4.750000px,-34.500000px)} 100% {transform: translate(-34.750000px,-34.500000px)} }#e0fi2jgm3hnzn6_to {animation: e0fi2jgm3hnzn6_to__to 8000ms linear infinite normal forwards}@keyframes e0fi2jgm3hnzn6_to__to { 0% {transform: translate(0px,0px)} 34% {transform: translate(-20px,0px)} 100% {transform: translate(0px,0px)} }]]>
    </style>
    <g id="e0fi2jgm3hnzn2" transform="matrix(4 0 0 4 -807.76647948499999 -2318.52636719500015)">
        <path
            id="e0fi2jgm3hnzn3"
            d="M394.190000,676.010000C394.190000,700.070000,394.190000,724.140000,394.190000,748.200000C394.190000,759.230000,385.870000,769.310000,375.010000,771.380000C373.400000,771.690000,371.740000,771.860000,370.110000,771.860000C322.140000,771.890000,274.180000,771.880000,226.210000,771.880000C214.450000,771.880000,204.190000,762.860000,202.650000,751.160000C202.510000,750.130000,202.420000,749.080000,202.420000,748.040000C202.410000,699.950000,202.410000,651.860000,202.410000,603.780000C202.410000,592.750000,210.730000,582.660000,221.590000,580.600000C223.200000,580.290000,224.860000,580.120000,226.490000,580.120000C274.500000,580.100000,322.510000,580.100000,370.510000,580.100000C381.540000,580.100000,391.640000,588.430000,393.690000,599.280000C393.990000,600.890000,394.170000,602.550000,394.170000,604.180000C394.200000,628.120000,394.190000,652.070000,394.190000,676.010000Z"
            fill="#888888"
            stroke="none"
            stroke-width="1"
        />
    </g>
    <g id="e0fi2jgm3hnzn4" transform="matrix(4 0 0 4 -807.79211426000006 -2303.22470092000003)">
        <g id="e0fi2jgm3hnzn5_to" transform="translate(-34.750000,-34.500000)">
            <path
                id="e0fi2jgm3hnzn5"
                d="M390.500000,707.960000C389.790000,710.650000,389.320000,713.440000,388.330000,716.030000C384.090000,727.100000,373.560000,734.220000,361.730000,734.220000C329.600000,734.220000,297.460000,734.210000,265.330000,734.230000C257.970000,734.240000,251.480000,732.120000,246.530000,726.480000C240.480000,719.590000,238.880000,711.610000,242.030000,703.050000C245.180000,694.490000,251.580000,689.520000,260.660000,688.140000C261.540000,688.010000,262.430000,687.920000,263.310000,687.810000C263.810000,685.180000,264.110000,682.500000,264.850000,679.950000C269.270000,664.800000,284.910000,656.160000,300.050000,660.490000C301.680000,660.960000,302.300000,660.480000,303.080000,659.150000C310.390000,646.740000,323.510000,640.640000,337.100000,642.310000C351.870000,644.130000,363.460000,655,366.620000,669.380000C367.080000,671.470000,367.200000,673.640000,367.340000,675.790000C367.410000,676.750000,367.600000,677.170000,368.660000,677.490000C380.980000,681.180000,388.280000,689.300000,390.180000,702.120000C390.220000,702.400000,390.390000,702.660000,390.500000,702.920000C390.500000,704.600000,390.500000,706.280000,390.500000,707.960000Z"
                transform="translate(0,0)"
                fill="#000000"
                stroke="none"
                stroke-width="1"
            />
        </g>
        <g id="e0fi2jgm3hnzn6_to" transform="translate(0,0)">
            <g id="e0fi2jgm3hnzn6" transform="translate(0,0)">
                <path
                    id="e0fi2jgm3hnzn7"
                    d="M386.585471,710.388840C385.911809,713.146392,386.423745,715.916601,385.484414,718.571642C381.461422,729.919637,370.271853,734.219748,359.047327,734.219748C328.561777,734.219748,298.066740,734.209497,267.581190,734.229999C260.597884,734.240250,254.440049,732.067012,249.743396,726.285378C244.003042,719.222353,237.955754,710.088601,240.944533,701.313638C241.797192,696.395684,246.373693,689.219698,255.214208,685.102162C256.049168,684.968897,260.721325,682.243171,261.556285,682.130409C262.030695,679.434363,263.760945,676.018241,264.463071,673.404205C268.561515,661.401158,286.119601,653.224740,298.721015,654.755750C300.267589,655.237553,300.428610,655.344149,301.168689,653.980750C308.104554,641.259104,322.783470,638.289724,335.677918,640.001662C350.335348,641.867367,364.551912,653.443741,369.024238,670.212227C369.460695,672.354712,369.492952,673.618904,373.752372,674.999586C383.039390,678.500512,382.382987,679.383429,383.388735,679.711465C389.130455,688.095203,384.782715,687.706649,386.585471,700.848591C386.623423,701.135622,386.568822,702.801167,386.585471,703.926346C386.585471,705.648535,386.585471,708.666651,386.585471,710.388840Z"
                    transform="matrix(1.10000000000000 0 0 1.10000000000000 -31.54760887100002 -68.81344981900008)"
                    fill="#888888"
                    stroke="none"
                    stroke-width="1"
                />
                <path
                    id="e0fi2jgm3hnzn8"
                    d="M390.500000,707.960000C389.790000,710.650000,389.320000,713.440000,388.330000,716.030000C384.090000,727.100000,373.560000,734.220000,361.730000,734.220000C329.600000,734.220000,297.460000,734.210000,265.330000,734.230000C257.970000,734.240000,251.480000,732.120000,246.530000,726.480000C240.480000,719.590000,238.880000,711.610000,242.030000,703.050000C245.180000,694.490000,251.580000,689.520000,260.660000,688.140000C261.540000,688.010000,262.430000,687.920000,263.310000,687.810000C263.810000,685.180000,264.110000,682.500000,264.850000,679.950000C269.270000,664.800000,284.910000,656.160000,300.050000,660.490000C301.680000,660.960000,302.300000,660.480000,303.080000,659.150000C310.390000,646.740000,323.510000,640.640000,337.100000,642.310000C351.870000,644.130000,363.460000,655,366.620000,669.380000C367.080000,671.470000,367.200000,673.640000,367.340000,675.790000C367.410000,676.750000,367.600000,677.170000,368.660000,677.490000C380.980000,681.180000,388.280000,689.300000,390.180000,702.120000C390.220000,702.400000,390.390000,702.660000,390.500000,702.920000C390.500000,704.600000,390.500000,706.280000,390.500000,707.960000Z"
                    fill="#000000"
                    stroke="none"
                    stroke-width="1"
                />
            </g>
        </g>
    </g>
</svg>
