<svg xmlns="http://www.w3.org/2000/svg" viewBox="0 0 500 500" overflow="hidden" preserveAspectRatio="xMidYMid meet" id="eaf-163f3-0"><defs><clipPath id="eaf-163f3-1"><rect x="0" y="0" width="500" height="500"></rect></clipPath><style>#eaf-163f3-0 * {animation: 12500ms linear infinite normal both running;offset-rotate:0deg}@keyframes eaf-163f3-2{0%,100%{transform:none;offset-path:path("m410.5609 317.175l0 110.825l0.0891 79.3986l0 -207.5236l0 217.825l-0.0891 -200.525")}}@keyframes eaf-163f3-3{0%{offset-distance:0%;animation-timing-function:ease-in-out}18.97%{offset-distance:13.5799%;animation-timing-function:ease-in-out}37.94%{offset-distance:23.3089%;animation-timing-function:ease-in-out}56.92%{offset-distance:48.7377%;animation-timing-function:ease-in-out}82.06%{offset-distance:75.4288%;animation-timing-function:ease-in-out}100%{offset-distance:100%}}@keyframes eaf-163f3-4{0%,100%{transform:translate(-410.5609px,-317.175px)}}@keyframes eaf-163f3-5{0%,100%{transform:none;offset-path:path("m254 388.575l0 -11.8775l0 -9.0705q1.9539 0.1656 0 -67.7521l0 70.725l0 127.2735l0 -70.0735l0 -39.225")}}@keyframes eaf-163f3-6{0%{offset-distance:0%;animation-timing-function:ease-in-out}8.72%{offset-distance:2.9981%;animation-timing-function:ease-in-out}16.92%{offset-distance:5.2877%;animation-timing-function:ease-in-out}29.23%{offset-distance:22.4321%;animation-timing-function:ease-in-out}43.58%{offset-distance:40.2845%;animation-timing-function:ease-in-out}54.35%{offset-distance:72.4109%;animation-timing-function:ease-in-out}84.11%{offset-distance:90.0988%;animation-timing-function:ease-in-out}100%{offset-distance:100%}}@keyframes eaf-163f3-7{0%,100%{transform:translate(-254px,-388.575px)}}@keyframes eaf-163f3-8{0%,100%{transform:none;offset-path:path("m91.261 468.575l0 -141.15l0 85.475l0 -93.3014l0 157.7248l0 -169.3246l0 160.5763")}}@keyframes eaf-163f3-9{0%{offset-distance:0%;animation-timing-function:ease-in-out}13.85%{offset-distance:17.4787%;animation-timing-function:ease-in-out}29.23%{offset-distance:28.0632%;animation-timing-function:ease-in-out}37.43%{offset-distance:39.6168%;animation-timing-function:ease-in-out}51.8%{offset-distance:59.148%;animation-timing-function:ease-in-out}81.54%{offset-distance:80.1157%;animation-timing-function:ease-in-out}100%{offset-distance:100%}}@keyframes eaf-163f3-10{0%,100%{transform:translate(-91.261px,-468.575px)}}@keyframes eaf-163f3-11{0%{d:path("m-28.1 256.7l119.5 -98.8l158.6 -67.9l160.7 -74.6l193.5 147.8");animation-timing-function:ease-in-out}13.85%{d:path("m-60.6945 137.15l152.0945 -121.75l156.9 47.6737l177 48.9231l154.909 102.9371");animation-timing-function:ease-in-out}18.97%{d:path("m-59.0068 143.34l150.4068 -120.5617l156.9 27.4953l162.35 76.3263l170.8012 123.0736");animation-timing-function:ease-in-out}29.23%{d:path("m-55.1389 157.5266l146.3999 -47.9267l166.507 -129.1092l152.8362 174.6843l160.0707 121.925");animation-timing-function:ease-in-out}37.43%{d:path("m-65.9912 143.2235l148.4912 -141.7499l177.2 10.7974l159.6889 193.8601l140.6925 107.5689");animation-timing-function:ease-in-out}43.58%{d:path("m-63.623 194.225l140.123 -132.3514l189.4 0l153.489 101.3265l143.4498 141.0938");animation-timing-function:ease-in-out}51.8%{d:path("m-59.2773 267.9599l150.6273 -104.7599l150.85 20.3l168.45 -182.0264l185.4492 203.5981");animation-timing-function:ease-in-out}54.88%{d:path("m-61.7538 277.1l153.0148 -113.9l150.939 30.3283l168.45 -219.3937l172.3602 209.3653");animation-timing-function:ease-in-out}56.92%{d:path("m-55.3343 276.8759l137.8343 -145.476l159.7 65.1971l159.6891 -219.2843l204.8036 185.8873");animation-timing-function:ease-in-out}81.55%{d:path("m-63.8725 131.744l155.1335 -158.6687l159.789 144.7687l159.6 81.931l175.9151 134.3617");animation-timing-function:ease-in-out}100%{d:path("m-28.1 256.7l119.5 -98.8l158.6 -67.9l160.7 -74.6l193.5 147.8")}}</style></defs><g clip-path="url('#eaf-163f3-1')" style="isolation: isolate;"><g><g transform="matrix(4 0 0 4 -827.28 -2254.5264)"><path fill="#aaaaaa" d="m331.8 626.1c0 15.6 0 31.3 0 46.9c0 7.2 -5.4 13.7 -12.5 15.1c-1 0.2 -2.1 0.3 -3.2 0.3c-31.2 0 -62.4 0 -93.6 0c-7.6 0 -14.3 -5.9 -15.3 -13.5c-0.1 -0.7 -0.1 -1.4 -0.1 -2c0 -31.3 0 -62.5 0 -93.8c0 -7.2 5.4 -13.7 12.5 -15.1c1 -0.2 2.1 -0.3 3.2 -0.3c31.2 0 62.4 0 93.6 0c7.2 0 13.7 5.4 15.1 12.5c0.2 1 0.3 2.1 0.3 3.2c0 15.6 0 31.1 0 46.7z"></path></g><g><rect fill="#fff" width="81" height="73.2" transform="translate(-190 -3.5)"></rect><rect fill="#000000" stroke="#f04d28" stroke-miterlimit="10" width="81" height="73.2" transform="translate(-190 90)"></rect><rect fill="#ffffff" width="81" height="73.2" transform="translate(-190 183.5)"></rect><rect fill="#bcbcbc" width="81" height="73.2" transform="translate(-190 277.1)"></rect><rect fill="#f7e79c" width="81" height="73.2" transform="translate(-190 370.6)"></rect><rect fill="#f7e79c" width="81" height="73.2" transform="translate(-190 370.6)"></rect><rect fill="#f4b526" width="81" height="73.2" transform="translate(-190 463.4)"></rect><rect fill="#aaaaaa" width="81" height="73.2" transform="translate(-190 557.6)"></rect></g><path fill="#000000" fill-rule="evenodd" d="m472.6 148.7c5 0 9.5 -3.1 11.4 -7.9c1.9 -4.8 0.9 -10.2 -2.7 -13.9l-62 -63.7c-4.8 -5 -12.7 -5 -17.5 0l-62 63.7c-3.5 3.6 -4.6 9.1 -2.7 13.9c1.9 4.8 6.4 7.9 11.4 7.9l32.2 0l0 411.3c0 8.2 6.7 14.9 14.9 14.9l29.7 0c8.2 0 14.9 -6.7 14.9 -14.9l0 -411.3l32.4 0z" transform="translate(0 0)" style="animation-name: eaf-163f3-2, eaf-163f3-3, eaf-163f3-4; animation-composition: replace, add, add;"></path><path fill="#f7e79c" fill-rule="evenodd" stroke="#000000" stroke-width="14" stroke-miterlimit="10" d="m313 220.1c5 0 9.5 -3.1 11.4 -7.9c1.9 -4.8 0.9 -10.2 -2.7 -13.9l-62 -63.7c-4.8 -5 -12.7 -5 -17.5 0l-62 63.7c-3.5 3.6 -4.6 9.1 -2.7 13.9c1.9 4.8 6.4 7.9 11.4 7.9l32.2 0l0 411.3c0 8.2 6.7 14.9 14.9 14.9l29.7 0c8.2 0 14.9 -6.7 14.9 -14.9l0 -411.3l32.4 0z" transform="translate(0 0)" style="animation-name: eaf-163f3-5, eaf-163f3-6, eaf-163f3-7; animation-composition: replace, add, add;"></path><path fill="#ffffff" fill-rule="evenodd" stroke="#000000" stroke-width="14" stroke-miterlimit="10" d="m153.3 300.1c5 0 9.5 -3.1 11.4 -7.9c1.9 -4.8 0.9 -10.2 -2.7 -13.9l-62 -63.7c-4.8 -5 -12.7 -5 -17.5 0l-62 63.7c-3.5 3.6 -4.6 9.1 -2.7 13.9c1.9 4.8 6.4 7.9 11.4 7.9l32.2 0l0 411.3c0 8.2 6.7 14.9 14.9 14.9l29.7 0c8.2 0 14.9 -6.7 14.9 -14.9l0 -411.3l32.4 0z" transform="translate(0 0)" style="animation-name: eaf-163f3-8, eaf-163f3-9, eaf-163f3-10; animation-composition: replace, add, add;"></path><path d="m-28.1 256.7l119.5 -98.8l158.6 -67.9l160.7 -74.6l193.5 147.8" fill="none" stroke="#ffffff" stroke-width="40" stroke-miterlimit="10" style="animation-name: eaf-163f3-11;"></path><g><rect fill="#aaaaaa" width="397.8" height="117.4" transform="translate(49.4 400.3)"></rect><path fill="#f7e79c" d="m228.3 406.1c0 4.3 3.5 7.9 7.9 7.9l29.7 0c4.3 0 7.9 -3.5 7.9 -7.9l0 -6.1l-45.5 0l0 6.1l0 0z"></path><path fill="#000000" d="m280.8 400l-7 0l0 6.1c0 4.3 -3.5 7.9 -7.9 7.9l-29.7 0c-4.3 0 -7.9 -3.5 -7.9 -7.9l0 -6.1l-7 0l-7 0l0 6.1c0 12.1 9.8 21.9 21.9 21.9l29.7 0c12.1 0 21.9 -9.8 21.9 -21.9l0 -6.1l-7 0z"></path><path fill="#000000" d="m380.9 400l0 12.9c0 8.2 6.7 14.9 14.9 14.9l29.7 0c8.2 0 14.9 -6.7 14.9 -14.9l0 -12.9l-59.5 0z"></path><path fill="#ffffff" d="m68.6 406c0 4.3 3.5 7.9 7.9 7.9l29.7 0c4.3 0 7.9 -3.5 7.9 -7.9l0 -6l-45.5 0l0 6z"></path><path fill="#000000" d="m121.1 400l-7 0l0 6l0 0.1c0 4.3 -3.5 7.9 -7.9 7.9l-29.7 0c-4.3 0 -7.9 -3.5 -7.9 -7.9l0 -0.1l0 -6l-7 0l-7 0l0 6c0 12.1 9.8 21.9 21.9 21.9l29.7 0c12.1 0 21.9 -9.8 21.9 -21.9l0 -6l-7 0z"></path></g></g></g></svg>


