<svg xmlns="http://www.w3.org/2000/svg" viewBox="0 0 500 500" overflow="hidden" preserveAspectRatio="xMidYMid meet" id="eaf-17afd-0"><defs><clipPath id="eaf-17afd-1"><rect x="0" y="0" width="500" height="500"></rect></clipPath><style>#eaf-17afd-0 * {animation: 9000ms linear infinite normal both running;offset-rotate:0deg}@keyframes eaf-17afd-2{0%,100%{transform:translate(250.12px,249.6736px)}}@keyframes eaf-17afd-3{0%{transform:rotate(0)}5.92%{transform:rotate(0);animation-timing-function:ease-in-out}65.92%,100%{transform:rotate(143deg)}}@keyframes eaf-17afd-4{0%{transform:scale(0.3685,0.3685)}8.89%{transform:scale(0.3685,0.3685);animation-timing-function:ease-in-out}49.63%{transform:scale(1,1)}58.89%{transform:scale(1,1);animation-timing-function:ease-in-out}65.92%{transform:scale(0.3685,0.3685)}74.08%{transform:scale(0.3685,0.3685);animation-timing-function:ease-in-out}85.92%{transform:scale(0.9248,0.9248)}95.56%{transform:scale(0.9248,0.9248);animation-timing-function:ease-in-out}99.26%,100%{transform:scale(0.3685,0.3685)}}@keyframes eaf-17afd-5{0%,100%{transform:translate(-250.12px,-249.6736px)}}@keyframes eaf-17afd-6{0%,100%{transform:translate(250.12px,250px)}}@keyframes eaf-17afd-7{0%{transform:rotate(0)}31.86%{transform:rotate(0);animation-timing-function:ease-in-out}77.78%,100%{transform:rotate(216deg)}}@keyframes eaf-17afd-8{0%,100%{transform:translate(-250.12px,-250px)}}@keyframes eaf-17afd-9{0%{opacity:0}32.22%{opacity:0;animation-timing-function:ease-in-out}49.63%{opacity:1}70.74%{opacity:1;animation-timing-function:ease-in-out}84.44%,100%{opacity:0}}@keyframes eaf-17afd-10{0%,100%{transform:none;offset-path:path("m-88 250l149.0495 -189.5l45.5505 38.7299l-45.5505 -38.7299l0 0l-149.0495 189.5")}}@keyframes eaf-17afd-11{0%{offset-distance:0%;animation-timing-function:ease-in-out}13.33%{offset-distance:40.0642%;animation-timing-function:ease-in-out}23.7%{offset-distance:50%;animation-timing-function:ease-in-out}42.59%{offset-distance:59.9358%}79.26%{offset-distance:59.9358%;animation-timing-function:ease-in-out}100%{offset-distance:100%}}@keyframes eaf-17afd-12{0%{transform:rotate(0)}8.14%{transform:rotate(0);animation-timing-function:ease-in-out}13.7%{transform:rotate(90deg);animation-timing-function:ease-in-out}23.7%{transform:rotate(-180deg);animation-timing-function:ease-in-out}79.26%{transform:rotate(90deg);animation-timing-function:ease-in-out}89.26%,100%{transform:rotate(-180deg)}}@keyframes eaf-17afd-13{0%,100%{transform:translate(-61.0495px,-60.5px)}}@keyframes eaf-17afd-14{0%,100%{transform:none;offset-path:path("m-87.7869 249.8735l148.8369 188.9265l45.5995 -38.7299l-45.5995 38.7299l0 0l-148.8369 -188.9265")}}@keyframes eaf-17afd-15{0%{offset-distance:0%;animation-timing-function:ease-in-out}13.33%{offset-distance:40.04%;animation-timing-function:ease-in-out}37.4%{offset-distance:50%;animation-timing-function:ease-in-out}42.59%{offset-distance:59.96%}79.26%{offset-distance:59.96%;animation-timing-function:ease-in-out}100%{offset-distance:100%}}@keyframes eaf-17afd-16{0%,100%{transform:translate(-61.05px,-438.8px)}}@keyframes eaf-17afd-17{0%,100%{transform:none;offset-path:path("m584.2762 250l-145.1762 -189.5l-46 34.1l46 -34.1l0 0l145.1762 189.5")}}@keyframes eaf-17afd-18{0%{offset-distance:0%;animation-timing-function:ease-in-out}13.33%{offset-distance:40.3269%;animation-timing-function:ease-in-out}23.7%{offset-distance:50%;animation-timing-function:ease-in-out}42.59%{offset-distance:59.6731%}79.26%{offset-distance:59.6731%;animation-timing-function:ease-in-out}100%{offset-distance:100%}}@keyframes eaf-17afd-19{0%,100%{transform:translate(-439.1px,-60.5px)}}@keyframes eaf-17afd-20{0%,100%{transform:none;offset-path:path("m584.2762 250l-145.1762 188.8l-46 -38.73l46 38.73l0 0l145.1762 -188.8")}}@keyframes eaf-17afd-21{0%{offset-distance:0%;animation-timing-function:ease-in-out}13.33%{offset-distance:39.9205%;animation-timing-function:ease-in-out}23.7%{offset-distance:50%;animation-timing-function:ease-in-out}42.59%{offset-distance:60.0795%}79.26%{offset-distance:60.0795%;animation-timing-function:ease-in-out}100%{offset-distance:100%}}@keyframes eaf-17afd-22{0%{transform:rotate(0)}8.14%{transform:rotate(0);animation-timing-function:ease-in-out}13.7%{transform:rotate(90deg);animation-timing-function:ease-in-out}23.7%{transform:rotate(0);animation-timing-function:ease-in-out}29.26%{transform:rotate(90deg);animation-timing-function:ease-in-out}39.26%{transform:rotate(-180deg);animation-timing-function:ease-in-out}79.26%{transform:rotate(90deg);animation-timing-function:ease-in-out}89.26%,100%{transform:rotate(-180deg)}}@keyframes eaf-17afd-23{0%,100%{transform:translate(-439.1px,-438.8px)}}@keyframes eaf-17afd-24{0%,100%{transform:translate(250.0995px,249.65px)}}@keyframes eaf-17afd-25{0%{transform:rotate(0)}27.03%{transform:rotate(0);animation-timing-function:ease-in-out}42.59%{transform:rotate(-90deg)}79.26%{transform:rotate(-90deg);animation-timing-function:ease-in-out}85.92%,100%{transform:rotate(-180deg)}}@keyframes eaf-17afd-26{0%,100%{transform:translate(-250.0995px,-249.65px)}}@keyframes eaf-17afd-27{0%,100%{transform:translate(250px,249.6736px)}}@keyframes eaf-17afd-28{0%{transform:rotate(0);animation-timing-function:ease-in-out}71.11%{transform:rotate(-72deg)}91.86%{transform:rotate(-72deg);animation-timing-function:ease-in-out}96.3%,100%{transform:rotate(-144deg)}}@keyframes eaf-17afd-29{0%{animation-timing-function:step-start}75.92%{transform:scale(1,1);animation-timing-function:ease-in-out}82.59%{transform:scale(1.5209,1.5209)}85.92%{transform:scale(1.5209,1.5209);animation-timing-function:ease-in-out}91.86%,100%{transform:scale(1,1)}}@keyframes eaf-17afd-30{0%,100%{transform:translate(-250px,-249.6736px)}}@keyframes eaf-17afd-31{0%{opacity:0}40.37%{opacity:0;animation-timing-function:ease-in-out}47.41%{opacity:1}90%{opacity:1;animation-timing-function:ease-in-out}91.86%,100%{opacity:0}}</style></defs><g clip-path="url('#eaf-17afd-1')" style="isolation: isolate;"><g><g transform="matrix(4 0 0 4 -827.28 -2254.5264)"><path fill="#aaaaaa" d="m331.7 626.1c0 15.6 0 31.3 0 46.9c0 7.2 -5.4 13.7 -12.5 15.1c-1 0.2 -2.1 0.3 -3.2 0.3c-31.2 0 -62.4 0 -93.6 0c-7.6 0 -14.3 -5.9 -15.3 -13.5c-0.1 -0.7 -0.1 -1.4 -0.1 -2c0 -31.3 0 -62.5 0 -93.8c0 -7.2 5.4 -13.7 12.5 -15.1c1 -0.2 2.1 -0.3 3.2 -0.3c31.2 0 62.4 0 93.6 0c7.2 0 13.7 5.4 15.1 12.5c0.2 1 0.3 2.1 0.3 3.2c0 15.6 0 31.1 0 46.7z"></path></g><g transform="matrix(0.3685 0 0 0.3685 157.9602 157.6783)" style="animation-name: eaf-17afd-2, eaf-17afd-3, eaf-17afd-4, eaf-17afd-5; animation-composition: replace, add, add, add;"><path fill="#f7e79c" stroke="#000000" stroke-width="8" stroke-linecap="round" stroke-linejoin="round" d="m163.8 395.7l-34.5 47.5l-0.1 0l-0.9 1.2c-13.4 14.1 -35 -1.6 -25.8 -18.7l0.8 -1.2l-0.1 0l34.6 -47.6l0.9 -1.2c13.4 -14.1 35 1.6 25.8 18.7l-0.7 1.3"></path><path fill="#f7e79c" stroke="#000000" stroke-width="8" stroke-linecap="round" stroke-linejoin="round" d="m266 426l0 -58l-0.1 0l-0.1 -1.5c-2.5 -19.3 -29.3 -19.3 -31.8 0l-0.1 1.5l0 58l0.1 1.5c2.5 19.3 29.3 19.3 31.8 0l0.2 -1.5"></path><path fill="#f7e79c" stroke="#000000" stroke-width="8" stroke-linecap="round" stroke-linejoin="round" d="m77.4 288.2l-1.4 0.5c-17.6 8.3 -9.4 33.8 9.7 30.3l1.4 -0.4l55.3 -17.7l-0.1 -0.1l1.4 -0.5c17.6 -8.3 9.4 -33.8 -9.7 -30.3l-1.4 0.4l-55.2 17.8"></path><path fill="#f7e79c" stroke="#000000" stroke-width="8" stroke-linecap="round" stroke-linejoin="round" d="m340.6 97.6l0.9 -1.2c13.4 -14.1 35 1.6 25.8 18.7l-0.8 1.2l0.1 0l-34.1 46.9l-0.9 1.2c-13.4 14.1 -35 -1.6 -25.8 -18.7l0.8 -1.2l-0.1 0l34.1 -46.9"></path><path fill="#f7e79c" stroke="#000000" stroke-width="8" stroke-linecap="round" stroke-linejoin="round" d="m422.8 288.2l-55.2 -17.7l-0.1 0l-1.4 -0.4c-19.1 -3.5 -27.3 22 -9.7 30.3l1.4 0.5l0 0.1l55.2 17.7l0.1 0l1.4 0.4c19.1 3.5 27.3 -22 9.7 -30.3l-1.4 -0.6"></path><path fill="#f7e79c" stroke="#000000" stroke-width="8" stroke-linecap="round" stroke-linejoin="round" d="m266 80.9l-0.1 1.5c-2.5 19.3 -29.3 19.3 -31.8 0l-0.1 -1.5c0 0 0 -58.8 0 -58.8l0.1 -1.5c2.5 -19.3 29.3 -19.3 31.8 0l0.1 1.5l0.1 0l-0.1 58.8"></path><path fill="#f7e79c" stroke="#000000" stroke-width="8" stroke-linecap="round" stroke-linejoin="round" d="m28.7 194.6l55.9 18.2l0 -0.1l1.4 0.3c19.1 3.5 27.4 -21.9 9.8 -30.3c0 0 -1.4 -0.5 -1.4 -0.5l-55.9 -18.2l-1.4 -0.4c-19.1 -3.4 -27.3 22 -9.8 30.4l1.4 0.6"></path><path fill="#f7e79c" stroke="#000000" stroke-width="8" stroke-linecap="round" stroke-linejoin="round" d="m415.6 212.7l55.9 -18.2l0 -0.1l1.4 -0.5c17.5 -8.4 9.3 -33.8 -9.8 -30.3l-1.4 0.4l-0.1 0l-55.9 18.2c0 0 -1.4 0.5 -1.4 0.5c-17.5 8.4 -9.3 33.8 9.8 30.3l1.5 -0.3"></path><path fill="#f7e79c" stroke="#000000" stroke-width="8" stroke-linecap="round" stroke-linejoin="round" d="m370.9 443.1l-34.5 -47.5l0 -0.1l-0.8 -1.2c-9.3 -17.1 12.3 -32.8 25.8 -18.7l0.9 1.2l0.1 0l34.5 47.6l0.8 1.2c9.3 17.1 -12.3 32.8 -25.8 18.7l-1 -1.2"></path><path fill="#f7e79c" stroke="#000000" stroke-width="8" stroke-linecap="round" stroke-linejoin="round" d="m159.5 97.6l-0.9 -1.2c-13.4 -14.1 -35 1.6 -25.8 18.7l0.8 1.2c0 0 34.1 46.9 34.1 46.9l0.1 0l0.9 1.2c13.4 14.1 35 -1.6 25.8 -18.7c0 0 -0.8 -1.2 -0.8 -1.2l-34.2 -46.9"></path></g><g opacity="0" style="animation-name: eaf-17afd-6, eaf-17afd-7, eaf-17afd-8, eaf-17afd-9; animation-composition: replace, add, add, replace;"><path fill="#005cff" d="m112.6 130.9l-0.1 -1.9l-0.3 -1.9c-5.4 -27.1 -43.1 -25.5 -46.3 1.9l-0.1 1.9l0.1 1.9c3.2 27.4 40.9 29 46.3 1.9l0.3 -1.9l0.1 -1.9z"></path><path fill="#005cff" d="m204.3 61.1l-0.1 -1.9l-0.3 -1.9c-5.4 -27.1 -43.1 -25.5 -46.3 1.9l-0.1 1.9l0.1 1.9c3.2 27.4 40.9 29 46.3 1.9l0.3 -1.9l0.1 -1.9z"></path><path fill="#005cff" d="m434.1 130.9l-0.1 -1.9l-0.3 -1.9c-5.4 -27.1 -43.1 -25.5 -46.3 1.9l-0.1 1.9l0.1 1.9c3.2 27.4 40.9 29 46.3 1.9l0.3 -1.9l0.1 -1.9z"></path><path fill="#005cff" d="m342.5 61.1l-0.1 -1.9l-0.3 -1.9c-5.4 -27.1 -43.1 -25.5 -46.3 1.9l-0.1 1.9l0.3 1.9c3.2 27.4 40.9 29 46.3 1.9l0.3 -1.9l-0.1 -1.9z"></path><path fill="#005cff" d="m73.7 257.9l-0.1 -1.9l-0.3 -1.9c-5.4 -27.1 -43.1 -25.5 -46.3 1.9l-0.1 1.9l0.1 1.9c3.2 27.4 40.9 29 46.3 1.9l0.3 -1.9l0.1 -1.9z"></path><path fill="#005cff" d="m107 360.4l-0.1 -1.9l-0.3 -1.9c-5.4 -27.1 -43.1 -25.5 -46.3 1.9l-0.1 1.9l0.1 1.9c3.2 27.4 40.9 29 46.3 1.9l0.3 -1.9l0.1 -1.9z"></path><path fill="#005cff" d="m219.5 442.2l-0.1 -1.9l-0.3 -1.9c-5.4 -27.1 -43.1 -25.5 -46.3 1.9l-0.1 1.9l0.1 1.9c3.2 27.4 40.9 29 46.3 1.9l0.3 -1.9l0.1 -1.9z"></path><path fill="#005cff" d="m473.1 257.9l-0.1 -1.9l-0.3 -1.9c-5.4 -27.1 -43.1 -25.5 -46.3 1.9l-0.1 1.9l0.1 1.9c3.2 27.4 40.9 29 46.3 1.9l0.3 -1.9l0.1 -1.9z"></path><path fill="#005cff" d="m439.8 360.4l-0.1 -1.9l-0.3 -1.9c-5.4 -27.1 -43.1 -25.5 -46.3 1.9l-0.1 1.9l0.1 1.9c3.2 27.4 40.9 29 46.3 1.9l0.3 -1.9l0.1 -1.9z"></path><path fill="#005cff" d="m327.3 442.2l-0.1 -1.9l-0.3 -1.9c-5.4 -27.1 -43.1 -25.5 -46.3 1.9l-0.1 1.9l0.1 1.9c3.2 27.4 40.9 29 46.3 1.9l0.3 -1.9l0.1 -1.9z"></path></g><g style="animation-name: eaf-17afd-24, eaf-17afd-25, eaf-17afd-26; animation-composition: replace, add, add;"><path fill="#ffffff" d="m27 72.3l-1 1.2c-11.6 15.1 7 33.7 22.1 22.1l1.2 -1l11.7 -11.7l11.7 11.7l0.1 0l1.2 1c15.1 11.6 33.7 -7 22.1 -22.1l-1 -1.2l0 -0.1l-11.9 -11.7l11.7 -11.7l0 -0.1l1 -1.2c11.6 -15.1 -7 -33.7 -22.1 -22.1l-1.2 1l-0.1 0l-11.6 11.8l-11.7 -11.7l-1.2 -1c-15 -11.5 -33.6 7 -22 22.1l1 1.2l-0.1 0.1l11.7 11.7l-11.6 11.7" transform="translate(-149.0495 189.5)" style="animation-name: eaf-17afd-10, eaf-17afd-11, eaf-17afd-12, eaf-17afd-13; animation-composition: replace, add, add, add;"></path><path fill="#ffffff" d="m27 450.6l-1 1.2c-11.6 15.1 7 33.7 22.1 22.1l1.2 -1c0 0 11.7 -11.7 11.7 -11.7l11.7 11.7l0.1 0l1.2 1c15.1 11.6 33.7 -7 22.1 -22.1l-1 -1.2l0 -0.1l-11.7 -11.7l11.7 -11.7l0 -0.1l1 -1.2c11.6 -15.1 -7 -33.7 -22.1 -22.1l-1.2 1l-0.1 0l-11.7 11.7l-11.7 -11.7c0 0 -1.2 -1 -1.2 -1c-15.1 -11.6 -33.7 7 -22.1 22.1l1 1.2l-0.1 0.1l11.7 11.7l-11.6 11.8" transform="translate(-148.8369 -188.9265)" style="animation-name: eaf-17afd-14, eaf-17afd-15, eaf-17afd-12, eaf-17afd-16; animation-composition: replace, add, add, add;"></path><path fill="#ffffff" d="m473.2 72.2l-11.7 -11.7l11.7 -11.7l0 -0.1l1 -1.2c11.6 -15.1 -7 -33.7 -22.1 -22.1l-1.2 1l-0.1 0l-11.7 11.7l-11.7 -11.7l-0.1 0l-1.2 -1c-15.1 -11.6 -33.7 7 -22.1 22.1l1 1.2l0 0.1l11.7 11.7l-11.7 11.7l0 0.1l-1 1.2c-11.6 15.1 7 33.7 22.1 22.1l1.2 -1l0.1 0l11.7 -11.7l11.7 11.7l0.1 0l1.2 1c15.1 11.6 33.7 -7 22.1 -22.1l-1 -1.3" transform="translate(145.1762 189.5)" style="animation-name: eaf-17afd-17, eaf-17afd-18, eaf-17afd-12, eaf-17afd-19; animation-composition: replace, add, add, add;"></path><path fill="#ffffff" d="m473.2 450.5l-11.7 -11.7l11.7 -11.7l0 -0.1l1 -1.2c11.6 -15.1 -7 -33.7 -22.1 -22.1l-1.2 1l-0.1 0l-11.7 11.7l-11.7 -11.7l-0.1 0l-1.2 -1c-15.1 -11.6 -33.7 7 -22.1 22.1l1 1.2l0 0.1l11.7 11.7l-11.7 11.7l0 0.1l-1 1.2c-11.6 15.1 7 33.7 22.1 22.1l1.2 -1l0.1 0l11.7 -11.7l11.7 11.7l0.1 0l1.2 1c15.1 11.6 33.7 -7 22.1 -22.1l-1 -1.3" transform="translate(145.1762 -188.8)" style="animation-name: eaf-17afd-20, eaf-17afd-21, eaf-17afd-22, eaf-17afd-23; animation-composition: replace, add, add, add;"></path></g><path fill="#ffffff" stroke="#000000" stroke-width="10" stroke-miterlimit="10" d="m241.6 125.1l-31 62.8c-1.4 2.8 -4 4.7 -7.1 5.2l-69.3 10c-7.8 1.1 -10.9 10.7 -5.2 16.1l50.1 48.9c2.2 2.2 3.2 5.3 2.7 8.4l-11.8 69c-1.3 7.7 6.8 13.6 13.7 10l62 -32.6c2.8 -1.5 6.1 -1.5 8.8 0l62 32.6c6.9 3.7 15.1 -2.2 13.7 -10l-11.8 -69c-0.5 -3.1 0.5 -6.2 2.7 -8.4l50.1 -48.9c5.6 -5.5 2.5 -15 -5.2 -16.1l-69.3 -10c-3.1 -0.4 -5.7 -2.4 -7.1 -5.2l-31 -62.8c-3.5 -7 -13.6 -7 -17 0z" style="animation-name: eaf-17afd-27, eaf-17afd-28, eaf-17afd-29, eaf-17afd-30; animation-composition: replace, add, add, add;"></path><path fill="#fff" stroke="#000000" stroke-width="6" d="m208.9 263.9l14.2 -14.2l-14.2 -14.2l-1.1 -1.2c-14.3 -18.5 8.4 -41.2 26.8 -26.8l1.2 1.1c0 0 14.2 14.2 14.2 14.2l14.2 -14.2c0 0 1.2 -1.1 1.2 -1.1c18.5 -14.3 41.2 8.4 26.8 26.8l-1.1 1.2l-14.1 14.2l14.2 14.2c0 0 1.1 1.2 1.1 1.2c14.3 18.5 -8.4 41.2 -26.8 26.8l-1.2 -1.1l-14.2 -14.2c0 0 -14.2 14.2 -14.2 14.2l-1.2 1.1c-18.5 14.3 -41.2 -8.4 -26.8 -26.8c-0.1 0 1 -1.2 1 -1.2z" opacity="0" style="animation-name: eaf-17afd-31;"></path></g></g></svg>

