<svg xmlns="http://www.w3.org/2000/svg" viewBox="0 0 500 500" overflow="hidden" preserveAspectRatio="xMidYMid meet" id="eaf-de65-0"><defs><clipPath id="eaf-de65-1"><rect x="0" y="0" width="500" height="500"></rect></clipPath></defs><g clip-path="url('#eaf-de65-1')" style="isolation: isolate;"><g><g transform="matrix(4 0 0 4 -806.0065 -2320.3999)"><path fill="#666666" d="m326.5 642.5c0 15.6 0 31.3 0 46.9c0 7.2 -5.4 13.7 -12.5 15.1c-1 0.2 -2.1 0.3 -3.2 0.3c-31.2 0 -62.4 0 -93.6 0c-7.6 0 -14.3 -5.9 -15.3 -13.5c-0.1 -0.7 -0.1 -1.4 -0.1 -2c0 -31.3 0 -62.5 0 -93.8c0 -7.2 5.4 -13.7 12.5 -15.1c1 -0.2 2.1 -0.3 3.2 -0.3c31.2 0 62.4 0 93.6 0c7.2 0 13.7 5.4 15.1 12.5c0.2 1 0.3 2.1 0.3 3.2c0 15.4999 0 31.1 0 46.7z"></path></g><g transform="translate(-2.1437 0.3591)"><g transform="translate(250.5898 249.5117)"><g><g transform="translate(-250.5898 -249.5117)"><path fill="#014f7a" d="m416.5 86.9c-11.5 -4 -23.1 -8 -34.6 -12c19.9 17.9 38.1 36.9 53.1 60.9c-21.1 -11.4 -40.9 -22.1 -60.7 -32.8c-0.4 0.6 -0.9 1.3 -1.3 1.9c12.8 13 26.8 24.9 36.4 42.4c-26.6 -17.1 -53.4 -30.7 -82.7 -38.7c-14.5 -4 -29.5 -6.4 -44.3 -9.1c-14.6 -2.6 -29.2 -2.7 -44.2 -1.7c-27.8 1.8 -53.4 9.4 -77.5 23c-27.9 15.7 -45.8 39.5 -55.4 69.5c-3.8 11.8 -6.8 24.1 -7.9 36.4c-1 12.1 1.1 24.4 1.6 36.6c0.7 17.8 6.5 34.3 12 51c11 33.3 34.9 55.3 63.3 73.4c21.1 13.5 44.3 21.9 69.5 22c44.1 0.2 81.2 -16.5 111.7 -48.1c32.6 -33.8 50.1 -75 59.2 -120.4c4.7 -23.5 5.8 -47.3 5.3 -71.2c0 -1.8 0 -3.7 0 -5.5c0.7 -0.2 1.5 -0.4 2.2 -0.6c5.7 16.7 11.4 33.3 17.6 51.6c0.9 -23.1 1.7 -44.9 2.5 -68.2c13.8 25.6 21.4 52 25.4 79.9c1.9 -7.3 3.7 -14.7 5.6 -22c0.6 0 1.1 0 1.7 0c1.2 7.5 2.8 14.9 3.4 22.4c0.9 10.8 1.8 21.6 1.3 32.4c-1.8 37.1 -10.8 72.2 -29.3 104.8c-10.2 17.9 -22.3 34.3 -36.8 48.8c-15.6 15.6 -33.2 28.8 -52.7 39.2c-19.6 10.5 -40.4 17.9 -62.1 21.8c-23.7 4.3 -47.5 4.5 -71.5 0.8c-23.5 -3.7 -45.9 -10.7 -67.4 -20.4c-19.1 -8.6 -36.2 -20.5 -52.2 -34.1c-20.3 -17.1 -36.6 -37.6 -50.5 -60c-14.7 -23.6 -25 -49.2 -28.9 -76.8c-2.4 -16.8 -4.2 -33.9 -3.8 -50.8c0.6 -25.6 6.5 -50.3 16.5 -74c10.7 -25.6 26.6 -47.8 44.4 -68.8c27.8 -32.9 62.9 -54.1 104 -66.7c27 -8.3 54.4 -10.3 82.1 -8.1c35.4 2.8 68.8 13.2 98.6 32.9c15 9.9 28.8 21.5 43.1 32.4c1.6 1.3 2.9 3.1 4.3 4.6c-0.5 0.5 -0.8 0.9 -1 1.3z"></path></g></g></g><animateTransform attributeName="transform" type="translate" from="250 246.8" to="250 246.8" calcMode="discrete" dur="3867ms" repeatCount="indefinite"></animateTransform><animateTransform keyTimes="0;0.3018;1" calcMode="linear" dur="3867ms" repeatCount="indefinite" attributeName="transform" values="0;360;360" type="rotate" additive="sum"></animateTransform><animateTransform attributeName="transform" type="translate" from="-252.1437 -246.4409" to="-252.1437 -246.4409" calcMode="discrete" dur="3867ms" repeatCount="indefinite" additive="sum"></animateTransform></g><path fill="#000000" d="m268.1 113.5c0.8 1.6 1.4 3.3 2.3 4.8c27.3 43.1 54.5 86.1 81.9 129.1c2.1 3.3 2.3 5.6 0.1 9.1c-27.5 43.1 -54.9 86.3 -82.1 129.6c-2.1 3.3 -4.1 4.6 -8.1 4.5c-24.5 -0.2 -49 -0.1 -74.3 -0.1c1.1 -2 1.9 -3.5 2.8 -5c27.1 -42.7 54.1 -85.5 81.4 -128.2c2.5 -3.8 2.7 -6.5 0.1 -10.5c-27.4 -42.9 -54.7 -86 -81.9 -129.1c-0.9 -1.3 -1.5 -2.8 -2.2 -4.3c26.6 0.1 53.3 0.1 80 0.1z" transform="matrix(0.92 0 0 0.92 18.4241 17.7413)"><animate keyTimes="0;0.4913;0.5604;0.8707;1" calcMode="spline" keySplines="0 0 1 1;0.42 0 0.58 1;0 0 1 1;0.42 0 0.58 1" dur="3867ms" repeatCount="indefinite" attributeName="fill-opacity" values="1;1;0;0;1"></animate><animate keyTimes="0;0.4913;0.5604;0.8707;1" calcMode="linear" dur="3867ms" repeatCount="indefinite" attributeName="stroke-opacity" values="1;1;0;0;1"></animate><animateTransform attributeName="transform" type="translate" from="0 0" to="0 0" calcMode="discrete" dur="3867ms" repeatCount="indefinite"></animateTransform><animateMotion keyTimes="0;0.2845;0.3791;0.586;0.5862;0.6982;0.7846;1" calcMode="spline" keySplines="0 0 1 1;0.42 0 0.58 1;0.42 0 0.58 1;0 0 1 1;0 0 1 1;0 0 1 1;0 0 1 1" dur="3867ms" repeatCount="indefinite" attributeName="transform" keyPoints="0;0.0026;0.0824;0.4967;0.5803;0.5803;1;1" path="m248.4241 244.7973l1.5759 2.0027l-78.4374 0l407.3679 0l82.1462 0l0 0l-412.6527 -2.0027" additive="sum"></animateMotion><animateTransform keyTimes="0;0.3794;0.6982;0.7846;1" calcMode="spline" keySplines="0 0 1 1;0.42 0 0.58 1;0.42 0 0.58 1;0 0 1 1" dur="3867ms" repeatCount="indefinite" attributeName="transform" values="0;0;180;0;0" type="rotate" additive="sum"></animateTransform><animateTransform keyTimes="0;0.3018;0.3879;0.4311;0.5087;1" calcMode="spline" keySplines="0 0 1 1;0.42 0 0.58 1;0.42 0 0.58 1;0.42 0 0.58 1;0 0 1 1" dur="3867ms" repeatCount="indefinite" attributeName="transform" values="0.92 0.92;0.92 0.92;0.5 0.92;1.4 0.92;0.92 0.92;0.92 0.92" type="scale" additive="sum"></animateTransform><animateTransform attributeName="transform" type="translate" from="-250 -246.8" to="-250 -246.8" calcMode="discrete" dur="3867ms" repeatCount="indefinite" additive="sum"></animateTransform></path></g></g></svg>

