<svg xmlns="http://www.w3.org/2000/svg" viewBox="0 0 500 500" overflow="hidden" preserveAspectRatio="xMidYMid meet" id="eaf-eb57-0"><defs><clipPath id="eaf-eb57-1"><rect x="0" y="0" width="500" height="500"></rect></clipPath><style>#eaf-eb57-0 * {animation: 20000ms linear infinite normal both running;offset-rotate:0deg}@keyframes eaf-eb57-2{0%,100%{transform:translate(268.0139px,257.4px)}}@keyframes eaf-eb57-3{0%{transform:rotate(0)}100%{transform:rotate(360deg)}}@keyframes eaf-eb57-4{0%,100%{transform:translate(-268.0139px,-257.35px)}}@keyframes eaf-eb57-5{0%,100%{transform:translate(257.0639px,250.35px)}}@keyframes eaf-eb57-6{0%,100%{transform:translate(-257.0639px,-250.3px)}}</style></defs><g clip-path="url('#eaf-eb57-1')" style="isolation: isolate;"><g><rect fill="#f4b526" width="81" height="73.2" transform="translate(-177 457.2)"></rect><rect fill="#fdca2a" width="81" height="73.2" transform="translate(-177 551.4)"></rect><g transform="matrix(4 0 0 4 -827.28 -2254.4764)"><path fill="#888888" d="m331.7 626.3c0 15.6 0 31.3 0 46.9c0 7.2 -5.4 13.7 -12.5 15.1c-1 0.2 -2.1 0.3 -3.2 0.3c-31.2 0 -62.4 0 -93.6 0c-7.6 0 -14.3 -5.9 -15.3 -13.5c-0.1 -0.7 -0.1 -1.4 -0.1 -2c0 -31.3 0 -62.5 0 -93.8c0 -7.2 5.4 -13.7 12.5 -15.1c1 -0.2 2.1 -0.3 3.2 -0.3c31.2 0 62.4 0 93.6 0c7.2 0 13.7 5.4 15.1 12.5c0.2 1 0.3 2.1 0.3 3.2c0 15.6 0 31.1 0 46.7z"></path></g><g style="filter: blur(5px);"><path fill="#d9a300" d="m473.9 254.4c-0.5 -0.8 -1.2 -1.5 -1.9 -1.9l0 0l-17.3 -10.7c-0.1 -1.7 -0.3 -3.4 -0.5 -5.1l14.9 -13.9c2.4 -2.2 2.6 -6 0.4 -8.4c-0.6 -0.7 -1.4 -1.2 -2.3 -1.6l-19.1 -7.1c-0.5 -1.6 -1 -3.3 -1.5 -4.9l11.9 -16.5c1.9 -2.7 1.3 -6.4 -1.3 -8.3c-0.8 -0.5 -1.6 -0.9 -2.5 -1.1l-20.1 -3.3c-0.8 -1.5 -1.6 -3 -2.4 -4.5l8.4 -18.5c1.4 -3 0.1 -6.5 -2.9 -7.9c-0.9 -0.4 -1.8 -0.6 -2.8 -0.6l-20.4 0.7c-1.1 -1.3 -2.1 -2.6 -3.2 -3.9l4.7 -19.9c0.8 -3.2 -1.2 -6.4 -4.4 -7.2c-0.9 -0.2 -1.9 -0.2 -2.8 0l-19.9 4.7c-1.3 -1.1 -2.6 -2.2 -3.9 -3.2l0.7 -20.4c0.1 -3.3 -2.4 -6.1 -5.7 -6.2c-1 0 -1.9 0.1 -2.8 0.6l-18.5 8.4c-1.5 -0.8 -3 -1.6 -4.5 -2.4l-3.3 -20.1c-0.5 -3.3 -3.6 -5.5 -6.8 -4.9c-0.9 0.1 -1.8 0.5 -2.5 1l-16.5 11.9c-1.6 -0.5 -3.3 -1 -4.9 -1.5l-7.1 -19.1c-1.1 -3.1 -4.6 -4.7 -7.6 -3.5c-0.9 0.3 -1.7 0.9 -2.3 1.5l-14.2001 14.9c-1.7 -0.2 -3.4 -0.4 -5.1 -0.5l-10.7 -17.4c-1.7 -2.8 -5.4 -3.7 -8.2 -1.9c-0.8 0.5 -1.5 1.2 -1.9 1.9l-10.8 17.4c-1.7 0.1 -3.4 0.3 -5.1 0.5l-13.9 -14.9c-2.3 -2.4 -6.1 -2.5 -8.5 -0.2c-0.7 0.6 -1.2 1.4 -1.5 2.2l-7.1 19.1c-1.7 0.5 -3.3 1 -4.9 1.5l-16.5 -11.9c-2.6 -1.9 -6.4 -1.4 -8.3 1.3c-0.6 0.8 -0.9 1.7 -1.1 2.6l-3.3 20.1c-1.5 0.8 -3 1.6 -4.5 2.4l-18.6 -8.5c-3 -1.4 -6.5 -0.1 -7.9 2.9c-0.4 0.9 -0.6 1.8 -0.6 2.8l0.7 20.4c-1.3 1.1 -2.6 2.1 -3.9 3.2l-19.9 -4.7c-3.2 -0.7 -6.4 1.3 -7.2 4.5c-0.2 0.9 -0.2 1.8 0 2.7l4.7 19.9c-1.1 1.3 -2.2 2.6 -3.2 3.9l-20.4 -0.7c-3.3 -0.1 -6.1 2.5 -6.2 5.7c0 0.9 0.2 1.9 0.5 2.7l8.4 18.6c-0.8 1.5 -1.6 3 -2.4 4.5l-20.1 3.3c-3.3 0.5 -5.5 3.6 -4.9 6.8c0.1 0.9 0.5 1.8 1.1 2.6l11.9 16.5c-0.5 1.6 -1 3.3 -1.5 4.9l-19.1 7.1c-3.1 1.2 -4.7 4.6 -3.5 7.7c0.3 0.9 0.8 1.6 1.5 2.3l14.9 13.9c-0.2 1.7 -0.4 3.4 -0.5 5.1l-17.3 10.7c-2.8 1.7 -3.7 5.4 -1.9 8.2c0.5 0.8 1.2 1.5 1.9 1.9l17.3 10.7c0.1 1.7 0.3 3.4 0.5 5.1l-14.9 13.9c-2.4 2.2 -2.5 6 -0.3 8.4c0.6 0.7 1.4 1.2 2.3 1.5l19.1 7.1c0.5 1.7 1 3.3 1.5 4.9l-11.9 16.5c-1.9 2.7 -1.3 6.4 1.4 8.3c0.8 0.5 1.6 0.9 2.5 1l20.1 3.3c0.8 1.5 1.6 3 2.4 4.5l-8.5 18.5c-1.4 3 -0.1 6.5 2.9 7.9c0.8 0.4 1.8 0.6 2.7 0.5l20.4 -0.7c1.1 1.3 2.1 2.6 3.2 3.9l-4.7 19.9c-0.8 3.2 1.2 6.4 4.4 7.2c0.9 0.2 1.9 0.2 2.8 0l19.9 -4.7c1.3 1.1 2.6 2.2 3.9 3.2l-0.7 20.4c-0.1 3.3 2.4 6.1 5.7 6.2c0.9 0 1.9 -0.2 2.7 -0.5l18.5 -8.4c1.5 0.8 3 1.6 4.5 2.4l3.3 20.1c0.5 3.3 3.5 5.5 6.8 5c0.9 -0.1 1.8 -0.5 2.6 -1.1l16.5 -11.9c1.6 0.5 3.3 1 4.9 1.5l7.1 19.1c1.1 3.1 4.5 4.7 7.6 3.5c0.9 -0.3 1.7 -0.9 2.3 -1.6l13.9 -14.9c1.7 0.2 3.4 0.4 5.1 0.5l10.7 17.3c1.7 2.8 5.4 3.7 8.2 1.9c0.8 -0.5 1.4 -1.1 1.9 -1.9l10.7 -17.4c1.7 -0.1 3.4 -0.3 5.1 -0.5l13.9 14.9c2.2 2.4 6 2.6 8.4 0.3c0.7 -0.6 1.2 -1.4 1.6 -2.3l7.1 -19.1c1.6 -0.5 3.3 -1 4.9 -1.5l16.5 11.9c2.7 1.9 6.4 1.3 8.3 -1.4c0.5 -0.7 0.9 -1.6 1 -2.5l3.3 -20.1c1.5 -0.8 3 -1.6 4.5 -2.4l18.5 8.4c3 1.4 6.5 0.1 7.9 -2.9c0.4 -0.9 0.6 -1.8 0.5 -2.7l-0.7 -20.4c1.3 -1 2.6 -2.1 3.9 -3.2l19.9 4.7c3.2 0.8 6.4 -1.2 7.2 -4.4c0.2 -0.9 0.2 -1.9 0 -2.8l-4.7 -19.9c1.1 -1.3 2.2 -2.6 3.2 -3.9l20.4 0.7c3.3 0.1 6 -2.4 6.2 -5.7c0 -1 -0.1 -1.9 -0.6 -2.8l-7.7 -18.1c0.8 -1.5 1.6 -3 2.4 -4.5l20.1 -3.3c3.2 -0.5 5.5 -3.5 5 -6.8c-0.1 -0.9 -0.5 -1.8 -1.1 -2.6l-11.9 -16.5c0.5 -1.6 1 -3.3 1.5 -4.9l19.1 -7.1c3.1 -1.1 4.7 -4.5 3.5 -7.6c-0.3 -0.9 -0.9 -1.7 -1.6 -2.3l-14.9 -13.9c0.2 -1.7 0.3 -3.4 0.5 -5.1l17.3 -10.7c2.8 -1.8 3.7 -5.5 2 -8.3z" transform="translate(0 0.05)" style="animation-name: eaf-eb57-2, eaf-eb57-3, eaf-eb57-4; animation-composition: replace, add, add;"></path></g><path fill="#000000" stroke="#000000" stroke-miterlimit="10" d="m462.9 247.4c-0.5 -0.8 -1.2 -1.5 -1.9 -1.9l0 0l-17.3 -10.7c-0.1 -1.7 -0.3 -3.4 -0.5 -5.1l14.9 -13.9c2.4 -2.2 2.6 -6 0.4 -8.4c-0.6 -0.7 -1.4 -1.2 -2.3 -1.6l-19.1 -7.1c-0.5 -1.6 -1 -3.3 -1.5 -4.9l11.9 -16.5c1.9 -2.7 1.3 -6.4 -1.3 -8.3c-0.8 -0.5 -1.6 -0.9 -2.5 -1.1l-20.1 -3.3c-0.8 -1.5 -1.6 -3 -2.4 -4.5l8.4 -18.5c1.4 -3 0.1 -6.5 -2.9 -7.9c-0.9 -0.4 -1.8 -0.6 -2.8 -0.6l-20.4 0.7c-1.1 -1.3 -2.1 -2.6 -3.2 -3.9l4.7 -19.9c0.8 -3.2 -1.2 -6.4 -4.4 -7.2c-0.9 -0.2 -1.9 -0.2 -2.8 0l-19.9 4.7c-1.3 -1.1 -2.6 -2.2 -3.9 -3.2l0.7 -20.4c0.1 -3.3 -2.4 -6.1 -5.7 -6.2c-1 0 -1.9 0.1 -2.8 0.6l-18.5 8.4c-1.5 -0.8 -3 -1.6 -4.5 -2.4l-3.3 -20.1c-0.5 -3.3 -3.6 -5.5 -6.8 -4.9c-0.9 0.1 -1.8 0.5 -2.5 1l-16.5 11.9c-1.6 -0.5 -3.3 -1 -4.9 -1.5l-7.1 -19.1c-1.1 -3.1 -4.6 -4.7 -7.6 -3.5c-0.9 0.3 -1.7 0.9 -2.3 1.5l-14.2001 14.9c-1.7 -0.2 -3.4 -0.4 -5.1 -0.5l-10.7 -17.4c-1.7 -2.8 -5.4 -3.7 -8.2 -1.9c-0.8 0.5 -1.5 1.2 -1.9 1.9l-10.8 17.4c-1.7 0.1 -3.4 0.3 -5.1 0.5l-13.9 -14.9c-2.3 -2.4 -6.1 -2.5 -8.5 -0.2c-0.7 0.6 -1.2 1.4 -1.5 2.2l-7.1 19.1c-1.7 0.5 -3.3 1 -4.9 1.5l-16.5 -11.9c-2.6 -1.9 -6.4 -1.4 -8.3 1.3c-0.6 0.8 -0.9 1.7 -1.1 2.6l-3.3 20.1c-1.5 0.8 -3 1.6 -4.5 2.4l-18.6 -8.5c-3 -1.4 -6.5 -0.1 -7.9 2.9c-0.4 0.9 -0.6 1.8 -0.6 2.8l0.7 20.4c-1.3 1.1 -2.6 2.1 -3.9 3.2l-19.9 -4.7c-3.2 -0.7 -6.4 1.3 -7.2 4.5c-0.2 0.9 -0.2 1.8 0 2.7l4.7 19.9c-1.1 1.3 -2.2 2.6 -3.2 3.9l-20.3 -0.8c-3.3 -0.1 -6.1 2.5 -6.2 5.7c0 0.9 0.2 1.9 0.5 2.7l8.4 18.6c-0.8 1.5 -1.6 3 -2.4 4.5l-20.1 3.3c-3.3 0.5 -5.5 3.6 -4.9 6.8c0.1 0.9 0.5 1.8 1.1 2.6l11.9 16.5c-0.5 1.6 -1 3.3 -1.5 4.9l-19.1 7.1c-3.1 1.2 -4.7 4.6 -3.5 7.7c0.3 0.9 0.8 1.6 1.5 2.3l14.9 13.9c-0.2 1.7 -0.4 3.4 -0.5 5.1l-17.3 10.7c-2.8 1.7 -3.7 5.4 -1.9 8.2c0.5 0.8 1.2 1.5 1.9 1.9l17.3 10.7c0.1 1.7 0.3 3.4 0.5 5.1l-14.9 13.9c-2.4 2.2 -2.5 6 -0.3 8.4c0.6 0.7 1.4 1.2 2.3 1.5l19.1 7.1c0.5 1.7 1 3.3 1.5 4.9l-11.9 16.5c-1.9 2.7 -1.3 6.4 1.4 8.3c0.8 0.5 1.6 0.9 2.5 1l20.1 3.3c0.8 1.5 1.6 3 2.4 4.5l-8.5 18.5c-1.4 3 -0.1 6.5 2.9 7.9c0.8 0.4 1.8 0.6 2.7 0.5l20.4 -0.7c1.1 1.3 2.1 2.6 3.2 3.9l-4.7 19.9c-0.8 3.2 1.2 6.4 4.4 7.2c0.9 0.2 1.9 0.2 2.8 0l19.9 -4.7c1.3 1.1 2.6 2.2 3.9 3.2l-0.7 20.4c-0.1 3.3 2.4 6.1 5.7 6.2c0.9 0 1.9 -0.2 2.7 -0.5l18.5 -8.4c1.5 0.8 3 1.6 4.5 2.4l3.3 20.1c0.5 3.3 3.5 5.5 6.8 5c0.9 -0.1 1.8 -0.5 2.6 -1.1l16.5 -11.9c1.6 0.5 3.3 1 4.9 1.5l7.1 19.1c1.1 3.1 4.5 4.7 7.6 3.5c0.9 -0.3 1.7 -0.9 2.3 -1.6l13.9 -14.9c1.7 0.2 3.4 0.4 5.1 0.5l10.7 17.3c1.7 2.8 5.4 3.7 8.2 1.9c0.8 -0.5 1.4 -1.1 1.9 -1.9l10.7 -17.4c1.7 -0.1 3.4 -0.3 5.1 -0.5l13.9 14.9c2.2 2.4 6 2.6 8.4 0.3c0.7 -0.6 1.2 -1.4 1.6 -2.3l7.1 -19.1c1.6 -0.5 3.3 -1 4.9 -1.5l16.5 11.9c2.7 1.9 6.4 1.3 8.3 -1.4c0.5 -0.7 0.9 -1.6 1 -2.5l3.3 -20.1c1.5 -0.8 3 -1.6 4.5 -2.4l18.5 8.4c3 1.4 6.5 0.1 7.9 -2.9c0.4 -0.9 0.6 -1.8 0.5 -2.7l-0.7 -20.4c1.3 -1 2.6 -2.1 3.9 -3.2l19.9 4.7c3.2 0.8 6.4 -1.2 7.2 -4.4c0.2 -0.9 0.2 -1.9 0 -2.8l-4.7 -19.9c1.1 -1.3 2.2 -2.6 3.2 -3.9l20.4 0.7c3.3 0.1 6 -2.4 6.2 -5.7c0 -1 -0.1 -1.9 -0.6 -2.8l-7.8 -18c0.8 -1.5 1.6 -3 2.4 -4.5l20.1 -3.3c3.2 -0.5 5.5 -3.5 5 -6.8c-0.1 -0.9 -0.5 -1.8 -1.1 -2.6l-11.9 -16.5c0.5 -1.6 1 -3.3 1.5 -4.9l19.1 -7.1c3.1 -1.1 4.7 -4.5 3.5 -7.6c-0.3 -0.9 -0.9 -1.7 -1.6 -2.3l-14.9 -13.9c0.2 -1.7 0.3 -3.4 0.5 -5.1l17.3 -10.7c2.8 -1.8 3.7 -5.5 2 -8.3z" transform="translate(0 0.05)" style="animation-name: eaf-eb57-5, eaf-eb57-3, eaf-eb57-6; animation-composition: replace, add, add;"></path><g transform="translate(0 0.05)"><ellipse fill="#000000" stroke="#000000" stroke-miterlimit="10" rx="177.4" ry="177.4" transform="translate(257.1 250.4)"></ellipse><g><path fill="#ffffff" d="m338.9 349.5c-6 -1.3 -12 2.6 -13.3 8.6c0 0 0 0 0 0l-6.2 28.8c-19.6 8.9 -40.9 13.5 -62.4 13.4c-22.7 0 -44.3 -5 -63.7 -14l-6.2 -28.7c-1.3 -6 -7.2 -9.9 -13.3 -8.6c0 0 0 0 0 0l-25.4 5.5c-4.7 -4.9 -9.1 -10 -13.1 -15.5l123.7 0c1.4 0 2.3 -0.3 2.3 -1.5l0 -43.7c0 -1.3 -0.9 -1.5 -2.3 -1.5l-36.1 0l0 -27.7l39.1 0c3.6 0 19.1 1 24 20.8c1.6 6.1 5 25.9 7.3 32.3c2.3 7.1 11.8 21.3 21.9 21.3l61.5 0c0.8 0 1.5 -0.1 2.2 -0.2c-4.3 5.8 -9 11.3 -14 16.4l-26 -5.6999l0 0z"></path><path fill="#ffffff" d="m106.8 232.9l26.4 -11.8c5.7 -2.5 8.2 -9.1 5.7 -14.8l-5.4 -12.3l21.4 0l0 96.6l-43.2 0c-5.3 -18.7 -7 -38.3 -4.9 -57.7l0 0z"></path><path fill="#ffffff" d="m222.8 223.6l0 -28.5l51 0c2.6 0 18.6 3 18.6 15c0 9.9 -12.2 13.5 -22.3 13.5l-47.3 0l0 0z"></path><path fill="#ffffff" d="m408.2 249.2c0 3.8 -0.1 7.5 -0.4 11.2l-15.5 0c-1.6 0 -2.2 1 -2.2 2.5l0 7.1c0 16.8 -9.5 20.4 -17.7 21.3c-7.9 0.9 -16.6 -3.3 -17.7 -8.1c-4.7 -26.2 -12.4 -31.8 -24.6 -41.4c15.2 -9.6 31 -23.9 31 -42.9c0 -20.6 -14.1 -33.5 -23.7 -39.9c-13.5 -8.9 -28.4 -10.7 -32.5 -10.7l-160.4 0c22.2 -24.8 51.9 -41.6 84.6 -47.7l18.9 19.8c4.3 4.5 11.4 4.7 15.8 0.4l21.2 -20.2c43.6 8.2 81.5 35.1 103.5 73.7l-14.6 32.7c-2.5 5.7 0 12.3 5.7 14.8l27.9 12.4c0.5 4.9 0.7 9.9 0.7 15l0 0z"></path></g><g><path fill="#ffffff" d="m344.8 389.4c-6.6 -1.6 -10.6 -8.3 -9 -14.9c1.5 -6.3 7.8 -10.4 14.2 -9.2c6.6 1.6 10.7 8.2 9.1 14.8c-1.6 6.5 -7.9 10.5 -14.3 9.3l0 0z"></path><path fill="#ffffff" d="m168.1 388.8c-6.7 1.2 -13.1 -3.2 -14.3 -9.8c-1.2 -6.4 2.8 -12.7 9.2 -14.2c6.6 -1.4 13.2 2.8 14.6 9.5c1.3 6.6 -2.9 13.1 -9.5 14.5l0 0z"></path><ellipse fill="#ffffff" rx="12.3" ry="12.3" transform="translate(110 203.8)"></ellipse><path fill="#ffffff" d="m247.9 83.8c4.9 -4.7 12.7 -4.5 17.4 0.4c0 0 0 0 0 0c4.7 4.9 4.5 12.7 -0.4 17.4c0 0 0 0 0 0c-4.9 4.7 -12.7 4.5 -17.3 -0.4c0 0 0 0 0 0c-4.7 -5 -4.6 -12.7 0.3 -17.4l0 0z"></path><path fill="#ffffff" d="m391.6 199.4c2.8 -6.2 10 -9 16.2 -6.2c6.2 2.8 9 10 6.2 16.2l0 0c-2.8 6.2 -10 9 -16.2 6.2c-6.1 -2.8 -8.9 -10 -6.2 -16.2z"></path></g></g></g></g></svg>

