<svg xmlns="http://www.w3.org/2000/svg" viewBox="0 0 500 500" overflow="hidden" preserveAspectRatio="xMidYMid meet" id="eaf-9811-0">
    <defs>
        <clipPath id="eaf-9811-1"><rect x="0" y="0" width="500" height="500"></rect></clipPath>
        <style>
            #eaf-9811-0 * {
                animation: 4500ms linear infinite normal both running;
                offset-rotate: 0deg;
            }
            @keyframes eaf-9811-2 {
                0%,
                100% {
                    transform: translate(256.3862px, 154.2px);
                }
            }
            @keyframes eaf-9811-3 {
                0% {
                    transform: scale(0, 0);
                    animation-timing-function: ease-in;
                }
                66.67%,
                100% {
                    transform: scale(4.2, 4.2);
                }
            }
            @keyframes eaf-9811-4 {
                0%,
                100% {
                    transform: translate(-256.3862px, -154.2px);
                }
            }
            @keyframes eaf-9811-5 {
                0% {
                    opacity: 1;
                }
                42.96% {
                    opacity: 1;
                    animation-timing-function: ease-in;
                }
                56.29%,
                100% {
                    opacity: 0;
                }
            }
            @keyframes eaf-9811-6 {
                0% {
                    transform: scale(0, 0);
                }
                16.29% {
                    transform: scale(0, 0);
                    animation-timing-function: ease-in;
                }
                82.96%,
                100% {
                    transform: scale(4.2, 4.2);
                }
            }
            @keyframes eaf-9811-7 {
                0% {
                    opacity: 1;
                }
                60.73% {
                    opacity: 1;
                    animation-timing-function: ease-in;
                }
                72.58%,
                100% {
                    opacity: 0;
                }
            }
            @keyframes eaf-9811-8 {
                0% {
                    transform: scale(0, 0);
                }
                33.33% {
                    transform: scale(0, 0);
                    animation-timing-function: ease-in;
                }
                100% {
                    transform: scale(4.2, 4.2);
                }
            }
            @keyframes eaf-9811-9 {
                0% {
                    opacity: 1;
                }
                77.78% {
                    opacity: 1;
                    animation-timing-function: ease-in;
                }
                89.62%,
                100% {
                    opacity: 0;
                }
            }
        </style>
    </defs>
    <g clip-path="url('#eaf-9811-1')" style="isolation: isolate;">
        <g>
            <g transform="matrix(4 0 0 4 -827.28 -2254.5264)">
                <path
                    fill="#aaaaaa"
                    d="m331.7 626.2c0 15.6 0 31.3 0 46.9c0 7.2 -5.4 13.7 -12.5 15.1c-1 0.2 -2.1 0.3 -3.2 0.3c-31.2 0 -62.4 0 -93.6 0c-7.6 0 -14.3 -5.9 -15.3 -13.5c-0.1 -0.7 -0.1 -1.4 -0.1 -2c0 -31.3 0 -62.5 0 -93.8c0 -7.2 5.4 -13.7 12.5 -15.1c1 -0.2 2.1 -0.3 3.2 -0.3c31.2 0 62.4 0 93.6 0c7.2 0 13.7 5.4 15.1 12.5c0.2 1 0.3 2.1 0.3 3.2c0 15.5999 0 31.0999 0 46.7z"
                ></path>
            </g>
            <path
                fill="#ffffff"
                d="m335.2 154.3c-7 0 -10.9 -4.7 -11.8 -13.8c-2.6 -28.5 -20.4 -48.1 -47.5 -52.6c-1.7 -0.3 -3.5 -0.4 -5.4 -0.5c-0.5 0 -1 0 -1.5 -0.1c-8.3 -0.5 -12.9 -4.9 -12.6 -12.2c0.2 -7.1 4.8 -11.2 12.6 -11.2c0.3 0 0.6 0 0.9 0c0.3 0 0.6 0 0.9 0l1.9 0c39.7 1.7 73.1 35.7 74.3 75.9c0.3 8.6 -3.9 14 -11.2 14.4c-0.1 0.1 -0.4 0.1 -0.6 0.1z"
                transform="matrix(0 0 0 0 256.3862 154.2)"
                style="animation-name: eaf-9811-2, eaf-9811-3, eaf-9811-4, eaf-9811-5; animation-composition: replace, add, add, replace;"
            ></path>
            <path
                fill="#ffffff"
                d="m335.2 154.3c-7 0 -10.9 -4.7 -11.8 -13.8c-2.6 -28.5 -20.4 -48.1 -47.5 -52.6c-1.7 -0.3 -3.5 -0.4 -5.4 -0.5c-0.5 0 -1 0 -1.5 -0.1c-8.3 -0.5 -12.9 -4.9 -12.6 -12.2c0.2 -7.1 4.8 -11.2 12.6 -11.2c0.3 0 0.6 0 0.9 0c0.3 0 0.6 0 0.9 0l1.9 0c39.7 1.7 73.1 35.7 74.3 75.9c0.3 8.6 -3.9 14 -11.2 14.4c-0.1 0.1 -0.4 0.1 -0.6 0.1z"
                transform="matrix(0 0 0 0 256.3862 154.2)"
                style="animation-name: eaf-9811-2, eaf-9811-6, eaf-9811-4, eaf-9811-7; animation-composition: replace, add, add, replace;"
            ></path>
            <path
                fill="#ffffff"
                d="m335.2 154.3c-7 0 -10.9 -4.7 -11.8 -13.8c-2.6 -28.5 -20.4 -48.1 -47.5 -52.6c-1.7 -0.3 -3.5 -0.4 -5.4 -0.5c-0.5 0 -1 0 -1.5 -0.1c-8.3 -0.5 -12.9 -4.9 -12.6 -12.2c0.2 -7.1 4.8 -11.2 12.6 -11.2c0.3 0 0.6 0 0.9 0c0.3 0 0.6 0 0.9 0l1.9 0c39.7 1.7 73.1 35.7 74.3 75.9c0.3 8.6 -3.9 14 -11.2 14.4c-0.1 0.1 -0.4 0.1 -0.6 0.1z"
                transform="matrix(0 0 0 0 256.3862 154.2)"
                style="animation-name: eaf-9811-2, eaf-9811-8, eaf-9811-4, eaf-9811-9; animation-composition: replace, add, add, replace;"
            ></path>
            <g>
                <path
                    fill="#000000"
                    d="m232.9 344.6c0.5 4.6 0.9 8.5 1.3 12.4c3 25.4 6 50.8 9.1 77.1c3.7 0 7.1 0 10.6 0c32.1 0.2 56.7 22.5 59.9 54.3c0.9 8.7 -1.7 11.6 -10.4 11.6c-81.5 0 -163 0 -244.5 0c-8.6 0 -10.8 -2.4 -10.4 -11c1.2 -28.4 26.1 -53.5 54.6 -54.7c10 -0.4 20 -0.1 30.7 -0.1c0.9 -7.5 1.8 -14.5 2.6 -21.5c3.4 -28.5 6.6 -57.1 10.2 -85.6c0.6 -5.1 -0.5 -8 -5 -11c-84.1 -55 -103.3 -168.8 -42.2 -248.6c10.7 -14 25.7 -14.8 41.2 -11.9c25.7 4.8 47.9 17.6 69.1 32.1c11.8 8.1 23 17.2 34.2 26.2c2.5 2 4.2 2.2 7.2 0.8c12.8 -6.2 27.4 -3.5 37 6.2c9.5 9.6 12.1 23.8 5.8 36.5c-1.9 3.8 -0.4 5.6 1.7 8.1c21.2 25.3 40.8 51.7 52 83.1c3.8 10.6 5.7 22.1 6.5 33.3c0.8 11.6 -4.8 21.1 -14.5 28.1c-30.4 22 -64.2 33.7 -101.8 34.3c-1.6 0.1 -2.9 0.2 -4.9 0.3zm-139.5 -239.5c-27.3 52.6 -20.8 132.5 36.2 184.1c56 50.7 132.2 48.1 175.1 24.2c-1.2 -0.4 -2.1 -0.7 -2.9 -1c-13.1 -5.3 -27.1 -9 -39.1 -16.2c-76.7 -45.7 -136.5 -106.7 -169.3 -191.1zm113.7 133.6c1.1 1.2 1.8 2 2.5 2.6c17.9 15.7 36.9 30 57.8 41.5c14.8 8.2 30.2 15.3 47.3 17.3c17.8 2.2 27.6 -7.5 24.9 -25.3c-1.1 -7.3 -2.9 -14.7 -5.5 -21.6c-11 -29.1 -29 -53.8 -48.5 -77.6c-2.8 -3.4 -5.1 -4.3 -9.3 -2.5c-3.5 1.5 -7.6 1.4 -11.5 2.3c-1.8 0.4 -4.1 0.7 -5.1 2c-17.6 20.2 -34.9 40.6 -52.6 61.3zm-38.7 -38.3c1.4 -1.1 2.5 -1.9 3.5 -2.8c15.7 -14 31.3 -28.1 47 -42.1c7.4 -6.6 15.3 -12.5 16.5 -23.7c0.4 -3.6 1.2 -6 -2.2 -8.3c-17.9 -12.5 -35 -26.2 -53.7 -37.2c-12.6 -7.5 -27.1 -12.7 -41.4 -16.3c-23.1 -5.8 -33.6 4.8 -29.6 28.2c3 17.5 11 33.1 19.8 48.3c11.4 19.3 24.9 37 40.1 53.9zm130.3 284.9c-4 -21.6 -21.7 -36.9 -43 -37c-49.8 -0.2 -99.6 -0.2 -149.4 0c-18.6 0.1 -35.3 12.5 -41.2 30c-0.7 2.1 -1.1 4.4 -1.7 7c78.8 0 156.8 0 235.3 0zm-70.7 -51.8c0.3 -1 0.5 -1.4 0.4 -1.7c-3.3 -28.3 -6.5 -56.7 -10 -85c-0.2 -1.4 -2.5 -3.2 -4.1 -3.6c-5.3 -1.3 -10.9 -1.6 -16.2 -3.1c-12.4 -3.5 -24.7 -7.6 -37.6 -11.6c-4 34.6 -8.1 69.6 -12.3 105c27.3 0 53.4 0 79.8 0zm8.2 -274.4c-19.4 17.4 -38.6 34.7 -57.4 51.5c6 6.3 11.7 12.2 17.7 18.5c16.9 -19.8 33.5 -39.3 50.1 -58.7c-3.5 -3.8 -6.6 -7.2 -10.4 -11.3zm46.6 -15.5c0.1 -9.8 -7.5 -17.7 -17.3 -17.9c-9.9 -0.2 -18.5 7.9 -18.5 17.5c0 10 8.1 18.1 18 18.1c9.6 -0.1 17.7 -8.1 17.8 -17.7z"
                ></path>
                <path fill="#89cdf5" d="m93.4 105.1c32.8 84.4 92.5 145.3 169.3 191.1c12 7.1 26 10.9 39.1 16.2c0.8 0.3 1.7 0.6 2.9 1c-42.8 23.8 -119 26.5 -175.1 -24.2c-57 -51.6 -63.4 -131.5 -36.2 -184.1z"></path>
                <path
                    fill="#fefadf"
                    d="m207.1 238.7c17.7 -20.8 35 -41.1 52.5 -61.3c1.1 -1.2 3.3 -1.6 5.1 -2c3.8 -0.8 8 -0.7 11.5 -2.3c4.2 -1.9 6.6 -1 9.3 2.5c19.5 23.8 37.6 48.5 48.5 77.6c2.6 6.9 4.4 14.3 5.5 21.6c2.7 17.8 -7.1 27.5 -24.9 25.3c-17.1 -2.1 -32.4 -9.1 -47.3 -17.3c-20.9 -11.6 -39.9 -25.8 -57.8 -41.5c-0.7 -0.6 -1.3 -1.4 -2.4 -2.6z"
                ></path>
                <path
                    fill="#fefadf"
                    d="m168.4 200.4c-15.1 -16.9 -28.7 -34.6 -40.1 -54c-8.9 -15.1 -16.9 -30.7 -19.8 -48.3c-3.9 -23.4 6.5 -34 29.6 -28.2c14.3 3.6 28.8 8.9 41.4 16.3c18.7 11 35.8 24.7 53.7 37.2c3.4 2.4 2.6 4.7 2.2 8.3c-1.2 11.2 -9.1 17.1 -16.5 23.7c-15.7 14 -31.3 28.1 -47 42.1c-1.1 1 -2.2 1.8 -3.5 2.9z"
                ></path>
                <path fill="#000000" stroke="#e3e3e3" stroke-width="6" d="m298.7 485.3c-78.5 0 -156.5 0 -235.3 0c0.6 -2.6 1 -4.9 1.7 -7c5.9 -17.5 22.6 -29.9 41.2 -30c49.8 -0.2 99.6 -0.2 149.4 0c21.3 0.1 39.1 15.5 43 37z"></path>
                <path
                    fill="#000000"
                    d="m228 433.5c-26.4 0 -52.5 0 -79.7 0c4.1 -35.4 8.2 -70.4 12.3 -105c12.9 4 25.2 8 37.6 11.6c5.3 1.5 10.9 1.8 16.2 3.1c1.6 0.4 4 2.2 4.1 3.6c3.5 28.3 6.7 56.6 10 85c0 0.3 -0.2 0.7 -0.5 1.7z"
                    transform="matrix(1.0926 0 0 1.0926 -17.441 -35.2708)"
                ></path>
                <path fill="#f7e79c" d="m236.2 159.1c3.7 4.1 6.9 7.5 10.4 11.3c-16.6 19.5 -33.2 39 -50.1 58.7c-6 -6.3 -11.7 -12.2 -17.7 -18.5c18.8 -16.8 38 -34.1 57.4 -51.5z"></path>
                <path fill="#f4b526" d="m282.8 143.6c-0.1 9.6 -8.2 17.6 -17.7 17.6c-9.9 0 -18 -8.1 -18 -18.1c0 -9.5 8.6 -17.7 18.5 -17.5c9.7 0.3 17.3 8.2 17.2 18z"></path>
            </g>
        </g>
    </g>
</svg>
