<svg id="etfuwvles12q1" xmlns="http://www.w3.org/2000/svg" xmlns:xlink="http://www.w3.org/1999/xlink" viewBox="0 0 499.170000 498.380000" shape-rendering="geometricPrecision" text-rendering="geometricPrecision">
    <style>
        <![CDATA[#etfuwvles12q7_ts {animation: etfuwvles12q7_ts__ts 10000ms linear infinite normal forwards}@keyframes etfuwvles12q7_ts__ts { 0% {transform: translate(250.356111px,249.190000px) scale(0.730177,0.730177);animation-timing-function: cubic-bezier(0.420000,0,0.580000,1)} 50% {transform: translate(250.356111px,249.190000px) scale(1.137549,1.137549);animation-timing-function: cubic-bezier(0.420000,0,0.580000,1)} 100% {transform: translate(250.356111px,249.190000px) scale(0.730000,0.730000)} }]]>
    </style>
    <defs>
        <filter id="etfuwvles12q7-filter" x="-400%" width="600%" y="-400%" height="600%">
            <feGaussianBlur id="etfuwvles12q7-filter-drop-shadow-0-blur" in="SourceAlpha" stdDeviation="12,12" />
            <feOffset id="etfuwvles12q7-filter-drop-shadow-0-offset" dx="16" dy="12" result="tmp" />
            <feFlood id="etfuwvles12q7-filter-drop-shadow-0-flood" flood-color="rgba(0,0,0,0.33)" />
            <feComposite id="etfuwvles12q7-filter-drop-shadow-0-composite" operator="in" in2="tmp" />
            <feMerge id="etfuwvles12q7-filter-drop-shadow-0-merge">
                <feMergeNode id="etfuwvles12q7-filter-drop-shadow-0-merge-node-1" />
                <feMergeNode id="etfuwvles12q7-filter-drop-shadow-0-merge-node-2" in="SourceGraphic" />
            </feMerge>
        </filter>
    </defs>
    <g id="etfuwvles12q2" display="none">
        <path
            id="etfuwvles12q3"
            d="M498.100000,249.400000C498.100000,311.730000,498.100000,374.060000,498.100000,436.390000C498.100000,464.960000,476.550000,491.080000,448.410000,496.430000C444.250000,497.220000,439.950000,497.670000,435.720000,497.670000C311.480000,497.740000,187.240000,497.720000,63,497.720000C32.550000,497.720000,5.960000,474.360000,1.970000,444.050000C1.620000,441.380000,1.380000,438.660000,1.380000,435.970000C1.340000,311.420000,1.350000,186.860000,1.350000,62.310000C1.350000,33.730000,22.910000,7.610000,51.040000,2.270000C55.200000,1.480000,59.500000,1.030000,63.730000,1.030000C188.080000,0.970000,312.420000,0.980000,436.770000,0.980000C465.340000,0.980000,491.500000,22.560000,496.810000,50.670000C497.600000,54.830000,498.050000,59.130000,498.050000,63.360000C498.120000,125.370000,498.100000,187.390000,498.100000,249.400000Z"
            fill="rgb(167,169,172)"
            stroke="none"
            stroke-width="1"
        />
    </g>
    <path
        id="etfuwvles12q4"
        d="M499.860000,249.830000C499.860000,312.440000,499.860000,375.050000,499.860000,437.670000C499.860000,466.370000,478.220000,492.600000,449.950000,497.980000C445.770000,498.770000,441.450000,499.230000,437.200000,499.230000C312.400000,499.300000,187.590000,499.280000,62.790000,499.280000C32.190000,499.280000,5.490000,475.810000,1.480000,445.370000C1.130000,442.680000,0.890000,439.960000,0.890000,437.250000C0.850000,312.120000,0.850000,187,0.850000,61.890000C0.850000,33.180000,22.510000,6.940000,50.760000,1.580000C54.940000,0.790000,59.260000,0.330000,63.510000,0.330000C188.420000,0.260000,313.320000,0.280000,438.240000,0.280000C466.950000,0.280000,493.220000,21.960000,498.550000,50.190000C499.340000,54.370000,499.790000,58.690000,499.800000,62.940000C499.880000,125.230000,499.860000,187.530000,499.860000,249.830000Z"
        fill="#aaaaaa"
        stroke="none"
        stroke-width="1"
    />
    <g id="etfuwvles12q5">
        <g id="etfuwvles12q6">
            <g id="etfuwvles12q7_ts" transform="translate(250.356111,249.190000) scale(0.730177,0.730177)">
                <path
                    id="etfuwvles12q7"
                    d="M140.360000,435.920000C141.270000,436.050000,141.690000,436.160000,142.110000,436.160000C177.980000,436.160000,213.830000,436.200000,249.700000,436.050000C251.120000,436.050000,253.030000,434.790000,253.850000,433.540000C262.730000,420.020000,271.410000,406.350000,280.210000,392.770000C294.010000,371.490000,307.900000,350.290000,321.670000,328.990000C340.120000,300.450000,358.460000,271.860000,376.940000,243.350000C378.010000,241.700000,377.880000,240.730000,376.900000,239.240000C371.890000,231.600000,367,223.890000,362.030000,216.220000C343.810000,188.080000,325.560000,159.970000,307.340000,131.830000C297.260000,116.250000,287.170000,100.660000,277.120000,85.060000C269.790000,73.690000,262.440000,62.330000,255.240000,50.870000C253.340000,47.850000,251.230000,46.540000,247.440000,46.570000C212.810000,46.750000,178.170000,46.680000,143.540000,46.690000C142.600000,46.690000,141.660000,46.800000,140.470000,46.880000C141.560000,48.760000,142.390000,50.290000,143.340000,51.760000C158.760000,75.730000,174.230000,99.660000,189.630000,123.640000C203.680000,145.530000,217.650000,167.480000,231.700000,189.370000C242.050000,205.490000,252.420000,221.600000,262.890000,237.630000C264.550000,240.170000,264.910000,242.150000,263.140000,244.870000C252.050000,261.960000,241.130000,279.180000,230.130000,296.330000C215.620000,318.980000,201.110000,341.620000,186.560000,364.240000C171.300000,388,155.960000,411.740000,140.360000,435.920000Z"
                    transform="translate(-259.025034,-241.367168)"
                    filter="url(#etfuwvles12q7-filter)"
                    fill="#000000"
                    stroke="none"
                    stroke-width="1"
                />
            </g>
        </g>
    </g>
</svg>
