<svg xmlns="http://www.w3.org/2000/svg" viewBox="0 0 500 500" overflow="hidden" preserveAspectRatio="xMidYMid meet" id="eaf-126d5-0"><defs><clipPath id="eaf-126d5-1"><rect x="0" y="0" width="500" height="500"></rect></clipPath><style>#eaf-126d5-0 * {animation: 4000ms linear infinite normal both running;offset-rotate:0deg}@keyframes eaf-126d5-2{0%{fill:#000000}27.5%{fill:#000000;animation-timing-function:ease-in-out}29.18%,100%{fill:#fff}}@keyframes eaf-126d5-3{0%{fill:#000000}27.5%{fill:#000000;animation-timing-function:ease-in-out}29.18%,100%{fill:#f4b526}}@keyframes eaf-126d5-4{0%,100%{transform:translate(261.848px,150.6026px)}}@keyframes eaf-126d5-5{0%{transform:scale(0,0)}50.83%{transform:scale(0,0);animation-timing-function:linear(0 0%,0.41 9%,0.71 18%,0.95 28%,1.08 38%,1.14 47%,1.15 57%,1.12 67%,1.02 90%,1 100%)}83.3%,100%{transform:scale(1.25,1.25)}}@keyframes eaf-126d5-6{0%,100%{transform:translate(-261.848px,-156.6026px)}}@keyframes eaf-126d5-7{0%,100%{transform:translate(261.6125px,300.9363px)}}@keyframes eaf-126d5-8{0%{transform:scale(1,-0.38)}25%{transform:scale(1,-0.38);animation-timing-function:ease-in-out}37.5%,100%{transform:scale(1,1)}}@keyframes eaf-126d5-9{0%,100%{transform:translate(-261.6125px,-300.9363px)}}</style></defs><g clip-path="url('#eaf-126d5-1')" style="isolation: isolate;"><g><g transform="matrix(4 0 0 4 -829.2999 -2254.9)"><path fill="#aaaaaa" d="m331.8 626.1c0 15.6 0 31.3 0 46.9c0 7.2 -5.4 13.7 -12.5 15.1c-1 0.2 -2.1 0.3 -3.2 0.3c-31.2 0 -62.4 0 -93.6 0c-7.6 0 -14.3 -5.9 -15.3 -13.5c-0.1 -0.7 -0.1 -1.4 -0.1 -2c0 -31.3 0 -62.5 0 -93.8c0 -7.2 5.4 -13.7 12.5 -15.1c1 -0.2 2.1 -0.3 3.2 -0.3c31.2 0 62.4 0 93.6 0c7.2 0 13.7 5.4 15.1 12.5c0.2 1 0.3 2.1 0.3 3.2c0 15.6 0 31.1 0 46.7z"></path></g><g transform="matrix(1.0292 0 0 1.0292 -7.6358 -13.0394)"><path fill="#000000" d="m262.3 439.8c-48.1 0 -96.2 0 -144.2 0c-9.6 0 -18.9 -1.1 -27.3 -6.1c-6.9 -4.1 -8.2 -8.3 -5.2 -15.7c0.3 -0.7 2.4 -1.5 3.2 -1.2c13.4 5.5 27.6 4 41.4 4c93.7 0.1 187.3 0 281 -0.1c8 0 15.9 -0.5 23.4 -3.8c2.5 -1.1 3.8 -0.4 4.3 2.6c1.5 9.2 -0.7 12.9 -9.6 16.2c-7.6 2.8 -15.3 4.1 -23.4 4.1c-47.9 -0.1 -95.7 0 -143.6 0z"></path><path fill="#000000" d="m262.7 477.4c-47.3 0 -94.7 0 -142 0c-7.9 0 -15.3 -1.7 -22 -6.2c-4.9 -3.3 -6.7 -9.4 -4.4 -14.8c0.4 -0.9 2.7 -2 3.4 -1.7c11 5.3 22.8 4.1 34.3 4.1c92.9 0.1 185.8 -0.1 278.7 -0.1c5.4 0 10.3 -1.4 15 -3.8c3 -1.5 4.1 -0.9 4.3 2.4c0.8 10.8 -2.7 15.6 -13.3 17.8c-5.1 1.1 -10.3 2 -15.5 2c-46.1 0.4 -92.3 0.3 -138.5 0.3z" transform="matrix(0.98 0 0 0.98 5.2342 9.3153)"></path></g><g transform="matrix(1 0 0 -0.38 0 415.292)"><path fill="#000000" d="m302.1 290.3c0 0 -0.1 0 -0.1 0c-17.2 -0.1 -34.8 -0.1 -51.7 -0.1l-19.8 0c-3 0 -6 0 -9 0c-3.8 0 -7.7 0 -11 -3.2c-3.4 -3.3 -3.4 -7.4 -3.5 -11c-0.1 -5.8 -0.9 -9.6 -2.7 -12.6c-1.3 -2.1 -4.9 -3.7 -6.3 -3.4c-3.1 0.6 -5.7 2.9 -6.2 5.5c-0.7 4.2 -1.1 8.6 -1.3 12.8c-0.5 7.2 -5.3 11.9 -12.5 11.8c-6.6 -0.1 -13.4 -0.1 -19.9 -0.1c-14.4 0 -29.3 -0.1 -44 -0.7c-10.4 -0.5 -25 -5.2 -35.2 -25c-3.3 -6.4 -3.7 -12.7 -3.7 -18.6c0 -16 -0.1 -32 -0.1 -47.9c-0.1 -23.4 -0.2 -47.5 -0.1 -71.3c0 -19.1 0.3 -35.9 0.9 -51.3c0.4 -9.9 4.7 -23.8 22.9 -33.9c6.5 -3.6 14 -5.3 23.1 -5.3c35.5 0.1 71.5 0.1 106.4 0l73 0c34.6 0 69.2 0 103.8 0c16.3 0 32.8 11.3 39.4 26.9c3.5 8.2 3.5 16.3 3.5 23.5l0 0.9c0.2 49.9 0.2 100.2 0.1 144.7c0 4.1 -0.3 8.1 -0.5 12c-0.1 2 -0.2 4 -0.3 6c-0.7 14.9 -8.3 26.5 -22.8 34.6c-6.4 3.6 -13.6 5.4 -21.5 5.4c0 0 -0.1 0 -0.1 0c-12.2 0 -24.7 0 -36.8 0.1c-6.5 0 -12.9 0.1 -19.4 0.1c-3.5 0 -7.5 0 -10.8 -3.3c-3.3 -3.3 -3.2 -7.3 -3.2 -10.9c0.1 -5.6 -0.3 -9.7 -2.6 -13c-1.5 -2.2 -4.3 -3.5 -6.5 -3c-3 0.7 -6.1 4 -6.4 6.1c-0.2 1.1 -0.3 2.2 -0.5 3.3c-0.4 2.7 -0.8 5.3 -0.9 7.7c-0.2001 8.3 -5.3001 13.2 -13.7001 13.2z"></path></g><g><path fill="#000000" d="m302.1 290.3c0 0 -0.1 0 -0.1 0c-17.2 -0.1 -34.8 -0.1 -51.7 -0.1l-19.8 0c-3 0 -6 0 -9 0c-3.8 0 -7.7 0 -11 -3.2c-3.4 -3.3 -3.4 -7.4 -3.5 -11c-0.1 -5.8 -0.9 -9.6 -2.7 -12.6c-1.3 -2.1 -4.9 -3.7 -6.3 -3.4c-3.1 0.6 -5.7 2.9 -6.2 5.5c-0.7 4.2 -1.1 8.6 -1.3 12.8c-0.5 7.2 -5.3 11.9 -12.5 11.8c-6.6 -0.1 -13.4 -0.1 -19.9 -0.1c-14.4 0 -29.3 -0.1 -44 -0.7c-10.4 -0.5 -25 -5.2 -35.2 -25c-3.3 -6.4 -3.7 -12.7 -3.7 -18.6c0 -16 -0.1 -32 -0.1 -47.9c-0.1 -23.4 -0.2 -47.5 -0.1 -71.3c0 -19.1 0.3 -35.9 0.9 -51.3c0.4 -9.9 4.7 -23.8 22.9 -33.9c6.5 -3.6 14 -5.3 23.1 -5.3c35.5 0.1 71.5 0.1 106.4 0l73 0c34.6 0 69.2 0 103.8 0c16.3 0 32.8 11.3 39.4 26.9c3.5 8.2 3.5 16.3 3.5 23.5l0 0.9c0.2 49.9 0.2 100.2 0.1 144.7c0 4.1 -0.3 8.1 -0.5 12c-0.1 2 -0.2 4 -0.3 6c-0.7 14.9 -8.3 26.5 -22.8 34.6c-6.4 3.6 -13.6 5.4 -21.5 5.4c0 0 -0.1 0 -0.1 0c-12.2 0 -24.7 0 -36.8 0.1c-6.5 0 -12.9 0.1 -19.4 0.1c-3.5 0 -7.5 0 -10.8 -3.3c-3.3 -3.3 -3.2 -7.3 -3.2 -10.9c0.1 -5.6 -0.3 -9.7 -2.6 -13c-1.5 -2.2 -4.3 -3.5 -6.5 -3c-3 0.7 -6.1 4 -6.4 6.1c-0.2 1.1 -0.3 2.2 -0.5 3.3c-0.4 2.7 -0.8 5.3 -0.9 7.7c-0.2001 8.3 -5.3001 13.2 -13.7001 13.2z"></path><path fill="#fff" d="m267 272.3c10.3 0 20.8 0 31.2 0c0.2 -1.9 0.5 -3.7 0.8 -5.5c0.2 -1 0.3 -2 0.4 -3c1.4 -9.7 10 -18.8 20.2 -21.2c9.4 -2.2 19.6 1.9 25.4 10.3c4.4 6.3 5.5 12.9 5.8 19.4c5.1 0 10.2 0 15.3 -0.1c12.1 -0.1 24.6 -0.1 36.9 -0.1c4.9 0 9.1 -1 12.8 -3.1c9 -5.1 13.2 -11.1 13.6 -19.7c0.1 -2.1 0.2 -4.2 0.4 -6.3c0.2 -3.8 0.5 -7.4 0.5 -10.9c0 -44.4 0.1 -94.8 -0.1 -144.6l0 -0.9c0 -6 0 -11.7 -2.1 -16.6c-3.9999 -9 -13.9999 -16 -23.0999 -16c-34.6 0 -69.2 0 -103.8 0l-73 0c-34.9 0 -71 0 -106.5 0c-6 0 -10.6 1 -14.4 3.1c-11.7 6.4 -13.3 13.8 -13.5 18.8c-0.6 15.2 -0.9 31.7 -0.9 50.6c0 23.7 0.1 47.8 0.1 71.2c0.1 16 0.1 32 0.1 48c0 4.3 0.3 7.5 1.8 10.4c6.7 13.2 14.6 15 19.9 15.3c14.3 0.6 29.1 0.7 43.3 0.7c4.8 0 9.8 0 14.8 0.1c0.3 -3.1 0.6 -6.3 1.2 -9.6c1.8 -10.1 10.1 -18.1 20.6 -20.1c9 -1.7 19.9 3.5 25 11.7c3.8 6.2 4.9 12.7 5.2 18.3c1.9 0 3.7 0 5.6 0l19.8 0c5.5 -0.2 11.1 -0.2 16.7 -0.2z"></path><g transform="matrix(1.25 0 0 1.25 -65.462 -45.1506)"><path fill="#000000" d="m279 226.6c-3.2 0 -6.4 0 -9.6 0c-3.2 0 -6.4 0 -9.6 0l0 0c-3.9 0 -7.8 0 -11.7 0c-9.4 0 -19.1 -0.1 -28.6 0.1c-8 0.1 -15.1 -3.2 -19.4 -9.1c-4.5 -6.2 -5.7 -14.7 -3 -22.7c2 -6 5.3 -16.1 15.4 -21.1c3 -1.5 6 -2.5 8.9 -3.4c1.9 -0.6 3.6 -1.2 5.2 -1.9c2.7 -1.1 5.4 -2.4 8.4 -4c-2.9 -6 -5.5 -11.7 -7.9 -17.3c-1.7 -3.9 -2.4 -7.6 -2.1 -11c0.2 -1.8 0.3 -3.6 0.5 -5.6c0.7 -9.5 1.5 -20.3 8.5 -30c7.6 -10.5 18.7 -15.4 31.1 -13.8c12.1 1.6 21.5 8.9 26.5 20.5c4.1 9.7 8.7 20.6 6.8 33.6l-0.1 0.5c-0.4 2.6 -1 6.9 -4.4 10c-1.8 1.6 -2.7 4.3 -4 7.7c-0.6 1.6 -1.2 3.4 -2 5.1l3.3 1.8c6.6 3.6 13.4 7.3 20.1 11c7.7 4.3 11.9 11.2 15 17.4c2.7 5.3 2.2 12.2 -1.3 18.8c-3.6 6.8 -9.3 11.3 -15.3 12.1c-5.4 0.7 -11 1.2 -16.7 1.2c-4.7 0.1 -9.4 0.1 -14 0.1z"></path><path fill="#f4b526" d="m260.4 217.6c-13.5 0 -27 -0.2 -40.5 0c-11.6 0.2 -17.1 -9.8 -13.8 -20c2.1 -6.3 4.4 -12.7 10.8 -15.9c4.3 -2.1 9.1 -3.2 13.6 -5.1c4.5 -1.9 9 -4.2 13.3 -6.5c2.5 -1.3 2.7 -3.5 1.4 -6.1c-3.3 -6.8 -6.5 -13.6 -9.5 -20.6c-0.9 -2 -1.6 -4.4 -1.4 -6.5c1.1 -10.7 0.6 -21.9 7.3 -31.1c5.6 -7.6 13.4 -11.3 22.7 -10.1c9.1 1.2 15.6 6.4 19.3 15.1c3.9 9.2 7.7 18.4 6.1 28.8c-0.3 1.8 -0.5 4.1 -1.7 5.2c-5.9 5.4 -6 13.7 -10.4 19.9c-2 2.8 1 4.6 3.4 5.9c8.7 4.8 17.4 9.5 26.1 14.3c5.5 3 8.7 8.2 11.3 13.5c2.9 5.8 -3.3 17.1 -9.7 17.9c-5.2 0.7 -10.4 1.1 -15.7 1.2c-10.6 0.2 -21.6 0.1 -32.6 0.1z"></path></g></g><g transform="matrix(1 0 0 -0.38 0 415.292)" style="animation-name: eaf-126d5-7, eaf-126d5-8, eaf-126d5-9; animation-composition: replace, add, add;"><path fill="#000000" d="m302.1 290.3c0 0 -0.1 0 -0.1 0c-17.2 -0.1 -34.8 -0.1 -51.7 -0.1l-19.8 0c-3 0 -6 0 -9 0c-3.8 0 -7.7 0 -11 -3.2c-3.4 -3.3 -3.4 -7.4 -3.5 -11c-0.1 -5.8 -0.9 -9.6 -2.7 -12.6c-1.3 -2.1 -4.9 -3.7 -6.3 -3.4c-3.1 0.6 -5.7 2.9 -6.2 5.5c-0.7 4.2 -1.1 8.6 -1.3 12.8c-0.5 7.2 -5.3 11.9 -12.5 11.8c-6.6 -0.1 -13.4 -0.1 -19.9 -0.1c-14.4 0 -29.3 -0.1 -44 -0.7c-10.4 -0.5 -25 -5.2 -35.2 -25c-3.3 -6.4 -3.7 -12.7 -3.7 -18.6c0 -16 -0.1 -32 -0.1 -47.9c-0.1 -23.4 -0.2 -47.5 -0.1 -71.3c0 -19.1 0.3 -35.9 0.9 -51.3c0.4 -9.9 4.7 -23.8 22.9 -33.9c6.5 -3.6 14 -5.3 23.1 -5.3c35.5 0.1 71.5 0.1 106.4 0l73 0c34.6 0 69.2 0 103.8 0c16.3 0 32.8 11.3 39.4 26.9c3.5 8.2 3.5 16.3 3.5 23.5l0 0.9c0.2 49.9 0.2 100.2 0.1 144.7c0 4.1 -0.3 8.1 -0.5 12c-0.1 2 -0.2 4 -0.3 6c-0.7 14.9 -8.3 26.5 -22.8 34.6c-6.4 3.6 -13.6 5.4 -21.5 5.4c0 0 -0.1 0 -0.1 0c-12.2 0 -24.7 0 -36.8 0.1c-6.5 0 -12.9 0.1 -19.4 0.1c-3.5 0 -7.5 0 -10.8 -3.3c-3.3 -3.3 -3.2 -7.3 -3.2 -10.9c0.1 -5.6 -0.3 -9.7 -2.6 -13c-1.5 -2.2 -4.3 -3.5 -6.5 -3c-3 0.7 -6.1 4 -6.4 6.1c-0.2 1.1 -0.3 2.2 -0.5 3.3c-0.4 2.7 -0.8 5.3 -0.9 7.7c-0.2001 8.3 -5.3001 13.2 -13.7001 13.2z"></path><path fill="#000000" d="m267 272.3c10.3 0 20.8 0 31.2 0c0.2 -1.9 0.5 -3.7 0.8 -5.5c0.2 -1 0.3 -2 0.4 -3c1.4 -9.7 10 -18.8 20.2 -21.2c9.4 -2.2 19.6 1.9 25.4 10.3c4.4 6.3 5.5 12.9 5.8 19.4c5.1 0 10.2 0 15.3 -0.1c12.1 -0.1 24.6 -0.1 36.9 -0.1c4.9 0 9.1 -1 12.8 -3.1c9 -5.1 13.2 -11.1 13.6 -19.7c0.1 -2.1 0.2 -4.2 0.4 -6.3c0.2 -3.8 0.5 -7.4 0.5 -10.9c0 -44.4 0.1 -94.8 -0.1 -144.6l0 -0.9c0 -6 0 -11.7 -2.1 -16.6c-3.9999 -9 -13.9999 -16 -23.0999 -16c-34.6 0 -69.2 0 -103.8 0l-73 0c-34.9 0 -71 0 -106.5 0c-6 0 -10.6 1 -14.4 3.1c-11.7 6.4 -13.3 13.8 -13.5 18.8c-0.6 15.2 -0.9 31.7 -0.9 50.6c0 23.7 0.1 47.8 0.1 71.2c0.1 16 0.1 32 0.1 48c0 4.3 0.3 7.5 1.8 10.4c6.7 13.2 14.6 15 19.9 15.3c14.3 0.6 29.1 0.7 43.3 0.7c4.8 0 9.8 0 14.8 0.1c0.3 -3.1 0.6 -6.3 1.2 -9.6c1.8 -10.1 10.1 -18.1 20.6 -20.1c9 -1.7 19.9 3.5 25 11.7c3.8 6.2 4.9 12.7 5.2 18.3c1.9 0 3.7 0 5.6 0l19.8 0c5.5 -0.2 11.1 -0.2 16.7 -0.2z" style="animation-name: eaf-126d5-2;"></path><g transform="matrix(0 0 0 0 261.848 150.6026)" style="animation-name: eaf-126d5-4, eaf-126d5-5, eaf-126d5-6; animation-composition: replace, add, add;"><path fill="#000000" d="m279 226.6c-3.2 0 -6.4 0 -9.6 0c-3.2 0 -6.4 0 -9.6 0l0 0c-3.9 0 -7.8 0 -11.7 0c-9.4 0 -19.1 -0.1 -28.6 0.1c-8 0.1 -15.1 -3.2 -19.4 -9.1c-4.5 -6.2 -5.7 -14.7 -3 -22.7c2 -6 5.3 -16.1 15.4 -21.1c3 -1.5 6 -2.5 8.9 -3.4c1.9 -0.6 3.6 -1.2 5.2 -1.9c2.7 -1.1 5.4 -2.4 8.4 -4c-2.9 -6 -5.5 -11.7 -7.9 -17.3c-1.7 -3.9 -2.4 -7.6 -2.1 -11c0.2 -1.8 0.3 -3.6 0.5 -5.6c0.7 -9.5 1.5 -20.3 8.5 -30c7.6 -10.5 18.7 -15.4 31.1 -13.8c12.1 1.6 21.5 8.9 26.5 20.5c4.1 9.7 8.7 20.6 6.8 33.6l-0.1 0.5c-0.4 2.6 -1 6.9 -4.4 10c-1.8 1.6 -2.7 4.3 -4 7.7c-0.6 1.6 -1.2 3.4 -2 5.1l3.3 1.8c6.6 3.6 13.4 7.3 20.1 11c7.7 4.3 11.9 11.2 15 17.4c2.7 5.3 2.2 12.2 -1.3 18.8c-3.6 6.8 -9.3 11.3 -15.3 12.1c-5.4 0.7 -11 1.2 -16.7 1.2c-4.7 0.1 -9.4 0.1 -14 0.1z"></path><path fill="#000000" d="m260.4 217.6c-13.5 0 -27 -0.2 -40.5 0c-11.6 0.2 -17.1 -9.8 -13.8 -20c2.1 -6.3 4.4 -12.7 10.8 -15.9c4.3 -2.1 9.1 -3.2 13.6 -5.1c4.5 -1.9 9 -4.2 13.3 -6.5c2.5 -1.3 2.7 -3.5 1.4 -6.1c-3.3 -6.8 -6.5 -13.6 -9.5 -20.6c-0.9 -2 -1.6 -4.4 -1.4 -6.5c1.1 -10.7 0.6 -21.9 7.3 -31.1c5.6 -7.6 13.4 -11.3 22.7 -10.1c9.1 1.2 15.6 6.4 19.3 15.1c3.9 9.2 7.7 18.4 6.1 28.8c-0.3 1.8 -0.5 4.1 -1.7 5.2c-5.9 5.4 -6 13.7 -10.4 19.9c-2 2.8 1 4.6 3.4 5.9c8.7 4.8 17.4 9.5 26.1 14.3c5.5 3 8.7 8.2 11.3 13.5c2.9 5.8 -3.3 17.1 -9.7 17.9c-5.2 0.7 -10.4 1.1 -15.7 1.2c-10.6 0.2 -21.6 0.1 -32.6 0.1z" style="animation-name: eaf-126d5-3;"></path></g></g></g></g></svg>