<svg xmlns="http://www.w3.org/2000/svg" viewBox="0 0 769 769" overflow="hidden" preserveAspectRatio="xMidYMid meet" id="eaf-c489-0"><defs><clipPath id="eaf-c489-1"><rect x="0" y="0" width="769" height="769"></rect></clipPath><style>#eaf-c489-0 * {animation: 10500ms linear infinite normal both running;offset-rotate:0deg}@keyframes eaf-c489-2{0%,100%{transform:none;offset-path:path("m394.0895 538.9059l0 0l-602.4966 -23.3504")}}@keyframes eaf-c489-3{0%{offset-distance:0%}79.36%{offset-distance:0%;animation-timing-function:ease-in-out}87.3%,100%{offset-distance:100%}}@keyframes eaf-c489-4{0%{transform:rotate(90deg)}79.36%{transform:rotate(90deg);animation-timing-function:ease-in-out}87.3%,100%{transform:rotate(121deg)}}@keyframes eaf-c489-5{0%,100%{transform:matrix(1.2912,0,0,2.0135,-811.5033,-580.9879)}}@keyframes eaf-c489-6{0%,100%{transform:none;offset-path:path("m394.0895 538.9059l0 0l-602.4966 51.757")}}@keyframes eaf-c489-7{0%{offset-distance:0%}82.22%{offset-distance:0%;animation-timing-function:ease-in-out}89.52%,100%{offset-distance:100%}}@keyframes eaf-c489-8{0%{transform:rotate(90deg)}82.22%{transform:rotate(90deg);animation-timing-function:ease-in-out}89.52%,100%{transform:rotate(73deg)}}@keyframes eaf-c489-9{0%,100%{transform:none;offset-path:path("m394.0895 538.9059l0 0l-602.4966 -60.8776")}}@keyframes eaf-c489-10{0%{offset-distance:0%}85.39%{offset-distance:0%;animation-timing-function:ease-in-out}92.7%,100%{offset-distance:100%}}@keyframes eaf-c489-11{0%{transform:rotate(90deg)}85.39%{transform:rotate(90deg);animation-timing-function:ease-in-out}92.7%,100%{transform:rotate(92deg)}}@keyframes eaf-c489-12{0%,100%{transform:none;offset-path:path("m394.0895 538.9059l0 0l-586.4057 -56.6233l-6.1859 -3.0927")}}@keyframes eaf-c489-13{0%{offset-distance:0%}86.04%{offset-distance:0%;animation-timing-function:ease-in-out}95.23%{offset-distance:98.8397%}95.24%,100%{offset-distance:100%}}@keyframes eaf-c489-14{0%{transform:rotate(90deg)}86.04%{transform:rotate(90deg);animation-timing-function:ease-in-out}95.24%,100%{transform:rotate(92deg)}}@keyframes eaf-c489-15{0%{opacity:0.34}88.57%{opacity:0.34;animation-timing-function:ease-in-out}95.23%,100%{opacity:0}}@keyframes eaf-c489-16{0%,100%{transform:none;offset-path:path("m394.0895 538.9059l0 0l575.7633 -121.2519")}}@keyframes eaf-c489-17{0%,100%{transform:none;offset-path:path("m394.0895 538.9059l0 0l578.5136 -21.8004")}}@keyframes eaf-c489-18{0%{transform:rotate(90deg)}82.22%{transform:rotate(90deg);animation-timing-function:ease-in-out}89.52%,100%{transform:rotate(89deg)}}@keyframes eaf-c489-19{0%,100%{transform:none;offset-path:path("m394.0895 538.9059l0 0l624.3559 -52.6445")}}@keyframes eaf-c489-20{0%{transform:rotate(90deg)}85.39%{transform:rotate(90deg);animation-timing-function:ease-in-out}92.7%,100%{transform:rotate(148deg)}}@keyframes eaf-c489-21{0%,100%{transform:matrix(-1.2912,0,0,2.0135,811.5033,-580.9879)}}@keyframes eaf-c489-22{0%,100%{transform:none;offset-path:path("m394.0895 538.9059l0 0l575.7633 -194.4112")}}@keyframes eaf-c489-23{0%{offset-distance:0%}86.03%{offset-distance:0%;animation-timing-function:ease-in-out}95.23%,100%{offset-distance:100%}}@keyframes eaf-c489-24{0%{transform:rotate(90deg)}86.03%{transform:rotate(90deg);animation-timing-function:ease-in-out}95.23%{transform:rotate(121deg)}95.24%,100%{transform:rotate(170deg)}}@keyframes eaf-c489-25{0%,100%{transform:matrix(1.232,0,0,1.9406,-774.2602,-559.9675)}}@keyframes eaf-c489-26{0%{fill:#fff}55.88%{fill:#fff;animation-timing-function:ease-in-out}56.19%{fill:#ff002b;animation-timing-function:ease-in-out}93.02%{fill:#ff002b;animation-timing-function:ease-in-out}93.65%,100%{fill:#fff}}@keyframes eaf-c489-27{0%,100%{filter:none}}@keyframes eaf-c489-28{0%{filter:drop-shadow(0 0 0 #000)}55.88%{filter:drop-shadow(0 0 0 #000)}56.19%{filter:drop-shadow(10px 10px 10px #ff324a)}93.02%{filter:drop-shadow(10px 10px 10px #ff324a)}93.66%,100%{filter:drop-shadow(0 0 0 #000)}}@keyframes eaf-c489-29{0%{fill:#fff}66.35%{fill:#fff;animation-timing-function:ease-in-out}66.67%{fill:#ff002a;animation-timing-function:ease-in-out}91.75%{fill:#ff002b;animation-timing-function:ease-in-out}92.38%,100%{fill:#fff}}@keyframes eaf-c489-30{0%{filter:drop-shadow(0 0 0 #000)}66.35%{filter:drop-shadow(0 0 0 #000)}66.67%{filter:drop-shadow(10px 10px 10px #ff324a)}91.74%{filter:drop-shadow(10px 10px 10px #ff324a)}92.38%,100%{filter:drop-shadow(0 0 0 #000)}}@keyframes eaf-c489-31{0%{fill:#fff}32.7%{fill:#fff;animation-timing-function:ease-in-out}33.02%{fill:#2aff00}93.65%{fill:#2aff00;animation-timing-function:ease-in-out}94.29%,100%{fill:#fff}}@keyframes eaf-c489-32{0%{filter:drop-shadow(0 0 0 #000)}32.7%{filter:drop-shadow(0 0 0 #000)}33.02%{filter:drop-shadow(10px 10px 10px #0cff00)}93.65%{filter:drop-shadow(10px 10px 10px #0cff00)}94.29%,100%{filter:drop-shadow(0 0 0 #000)}}@keyframes eaf-c489-33{0%{fill:#fff}28.57%{fill:#fff;animation-timing-function:ease-in-out}28.89%{fill:#2aff00}94.29%{fill:#2aff00;animation-timing-function:ease-in-out}94.92%,100%{fill:#fff}}@keyframes eaf-c489-34{0%{filter:drop-shadow(0 0 0 #000)}28.57%{filter:drop-shadow(0 0 0 #000)}28.89%{filter:drop-shadow(10px 10px 10px #0cff00)}94.29%{filter:drop-shadow(10px 10px 10px #0cff00)}94.92%,100%{filter:drop-shadow(0 0 0 #000)}}@keyframes eaf-c489-35{0%{fill:#fff}25.4%{fill:#fff;animation-timing-function:ease-in-out}25.71%{fill:#2aff00}95.24%{fill:#2aff00;animation-timing-function:ease-in-out}95.88%,100%{fill:#fff}}@keyframes eaf-c489-36{0%{filter:drop-shadow(0 0 0 #000)}25.4%{filter:drop-shadow(0 0 0 #000)}25.71%{filter:drop-shadow(10px 10px 10px #0cff00)}95.24%{filter:drop-shadow(10px 10px 10px #0cff00)}95.88%,100%{filter:drop-shadow(0 0 0 #000)}}@keyframes eaf-c489-37{0%{fill:#fff}21.9%{fill:#fff;animation-timing-function:ease-in-out}22.22%{fill:#2aff00}96.19%{fill:#2aff00;animation-timing-function:ease-in-out}96.83%,100%{fill:#fff}}@keyframes eaf-c489-38{0%{filter:drop-shadow(0 0 0 #000)}21.9%{filter:drop-shadow(0 0 0 #000)}22.22%{filter:drop-shadow(10px 10px 10px #0cff00)}96.19%{filter:drop-shadow(10px 10px 10px #0cff00)}96.83%,100%{filter:drop-shadow(0 0 0 #000)}}@keyframes eaf-c489-39{0%{fill:#fff}19.37%{fill:#fff;animation-timing-function:ease-in-out}19.69%{fill:#2aff00}96.82%{fill:#2aff00;animation-timing-function:ease-in-out}97.46%,100%{fill:#fff}}@keyframes eaf-c489-40{0%{filter:drop-shadow(0 0 0 #000)}19.37%{filter:drop-shadow(0 0 0 #000)}19.69%{filter:drop-shadow(10px 10px 10px #0cff00)}96.83%{filter:drop-shadow(10px 10px 10px #0cff00)}97.47%,100%{filter:drop-shadow(0 0 0 #000)}}@keyframes eaf-c489-41{0%{fill:#fff}14.29%{fill:#fff;animation-timing-function:ease-in-out}14.6%{fill:#2bff00;animation-timing-function:ease-in-out}98.41%{fill:#2aff00;animation-timing-function:ease-in-out}99.05%,100%{fill:#fff}}@keyframes eaf-c489-42{0%{filter:drop-shadow(0 0 0 #000)}14.29%{filter:drop-shadow(0 0 0 #000)}14.6%{filter:drop-shadow(10px 10px 10px #0dff00)}98.41%{filter:drop-shadow(10px 10px 10px #0cff00)}99.05%,100%{filter:drop-shadow(0 0 0 #000)}}@keyframes eaf-c489-43{0%,100%{transform:translate(391.2186px,377.7212px)}}@keyframes eaf-c489-44{0%{transform:rotate(-175deg);animation-timing-function:ease-in-out}2.54%{transform:rotate(-169.8083deg);animation-timing-function:ease-in-out}4.76%{transform:rotate(-172.2778deg);animation-timing-function:ease-in-out}7.62%{transform:rotate(-166.1974deg);animation-timing-function:ease-in-out}10.79%{transform:rotate(-168.4482deg);animation-timing-function:ease-in-out}39.05%{transform:rotate(0);animation-timing-function:ease-in-out}40.31%{transform:rotate(-3deg);animation-timing-function:ease-in-out}41.59%{transform:rotate(1deg);animation-timing-function:ease-in-out}43.81%{transform:rotate(-3deg);animation-timing-function:ease-in-out}83.17%{transform:rotate(68deg);animation-timing-function:ease-in-out}84.44%{transform:rotate(66deg);animation-timing-function:ease-in-out}86.34%{transform:rotate(71deg);animation-timing-function:ease-in-out}87.62%{transform:rotate(67deg);animation-timing-function:ease-in-out}89.52%{transform:rotate(71deg);animation-timing-function:ease-in-out}100%{transform:rotate(-175deg)}}@keyframes eaf-c489-45{0%,100%{transform:matrix(1.1479,0,0,1.1479,-330.783,-332.5055)}}</style></defs><g clip-path="url('#eaf-c489-1')" style="isolation: isolate;"><g><path fill="#aaaaaa" d="m768.1 385.5c0 96.2 0 192.5 0 288.8c0 44.1 -33.3 84.4 -76.7 92.7c-6.4 1.2 -13.1 1.9 -19.6 1.9c-191.9 0.1 -383.8 0.1 -575.7 0.1c-47 0 -88.1 -36.1 -94.2 -82.9c-0.6 -4.1 -0.9 -8.3 -0.9 -12.5c0 -192.4 0 -384.7 0 -577c0 -44.1 33.3 -84.5 76.7 -92.7c6.4 -1.3 13 -1.9 19.6 -1.9c192 -0.1 384.1 -0.1 576.1 -0.1c44.1 0 84.5 33.3 92.7 76.7c1.2 6.4 1.9 13.1 1.9 19.6c0.1 95.8 0.1 191.6 0.1 287.3z"></path><path fill="#eee" stroke="#aaaaaa" stroke-width="32" stroke-miterlimit="10" paint-order="stroke" d="m572 326.7l-2.1 0.5l-2.1 0.3c-22.9 2.6 -43.4 -14.1 -45.1 -37.1l-0.1 -2.2l0 -2.2c0.7 -23 20.6 -40.7 43.6 -38.9l2.1 0.2l2.2 0.3l0 0l0 0l0.1 0l0.1 -2.3l0.2 -2.3c2.5 -19.1 16.2 -34.4 34.9 -39l2.3 -0.5l2.3 -0.4c18.9 -2.6 37.6 6.8 46.7 23.6l1.1 2.1l1 2.1l0 -0.1l0 0c0 0 1.3 -1.4 1.3 -1.4l1.4 -1.4c12.1 -11.1 30.2 -11.4 42.5 -0.6l1.4 1.3l1.3 1.4c10.7 12.1 10.5 30.8 -0.7 42.5l-1.4 1.4l-1.4 1.3l0 0l0 0c0 0 2.2 0.6 2.2 0.6l2.1 0.8c22.2 9.1 32.4 34.5 22.9 56.5l-1 2.1l-1.1 2c-11.9 20.8 -38.5 27.7 -59 15.3l-1.9 -1.2l-1.8 -1.3l0 0l0 0.1l-1.3 2.1c-27.3 38.7 -86.4 23.9 -92.2 -23.1l-0.2 -2.5" transform="matrix(0 1.2912 -2.0135 0 975.0774 -272.5974)" opacity="0.34" style="animation-name: eaf-c489-2, eaf-c489-3, eaf-c489-4, eaf-c489-5; animation-composition: replace, add, add, add;"></path><path fill="#eee" stroke="#aaaaaa" stroke-width="32" stroke-miterlimit="10" paint-order="stroke" d="m572 326.7l-2.1 0.5l-2.1 0.3c-22.9 2.6 -43.4 -14.1 -45.1 -37.1l-0.1 -2.2l0 -2.2c0.7 -23 20.6 -40.7 43.6 -38.9l2.1 0.2l2.2 0.3l0 0l0 0l0.1 0l0.1 -2.3l0.2 -2.3c2.5 -19.1 16.2 -34.4 34.9 -39l2.3 -0.5l2.3 -0.4c18.9 -2.6 37.6 6.8 46.7 23.6l1.1 2.1l1 2.1l0 -0.1l0 0c0 0 1.3 -1.4 1.3 -1.4l1.4 -1.4c12.1 -11.1 30.2 -11.4 42.5 -0.6l1.4 1.3l1.3 1.4c10.7 12.1 10.5 30.8 -0.7 42.5l-1.4 1.4l-1.4 1.3l0 0l0 0c0 0 2.2 0.6 2.2 0.6l2.1 0.8c22.2 9.1 32.4 34.5 22.9 56.5l-1 2.1l-1.1 2c-11.9 20.8 -38.5 27.7 -59 15.3l-1.9 -1.2l-1.8 -1.3l0 0l0 0.1l-1.3 2.1c-27.3 38.7 -86.4 23.9 -92.2 -23.1l-0.2 -2.5" transform="matrix(0 1.2912 -2.0135 0 975.0774 -272.5974)" opacity="0.34" style="animation-name: eaf-c489-6, eaf-c489-7, eaf-c489-8, eaf-c489-5; animation-composition: replace, add, add, add;"></path><path fill="#eee" stroke="#aaaaaa" stroke-width="32" stroke-miterlimit="10" paint-order="stroke" d="m572 326.7l-2.1 0.5l-2.1 0.3c-22.9 2.6 -43.4 -14.1 -45.1 -37.1l-0.1 -2.2l0 -2.2c0.7 -23 20.6 -40.7 43.6 -38.9l2.1 0.2l2.2 0.3l0 0l0 0l0.1 0l0.1 -2.3l0.2 -2.3c2.5 -19.1 16.2 -34.4 34.9 -39l2.3 -0.5l2.3 -0.4c18.9 -2.6 37.6 6.8 46.7 23.6l1.1 2.1l1 2.1l0 -0.1l0 0c0 0 1.3 -1.4 1.3 -1.4l1.4 -1.4c12.1 -11.1 30.2 -11.4 42.5 -0.6l1.4 1.3l1.3 1.4c10.7 12.1 10.5 30.8 -0.7 42.5l-1.4 1.4l-1.4 1.3l0 0l0 0c0 0 2.2 0.6 2.2 0.6l2.1 0.8c22.2 9.1 32.4 34.5 22.9 56.5l-1 2.1l-1.1 2c-11.9 20.8 -38.5 27.7 -59 15.3l-1.9 -1.2l-1.8 -1.3l0 0l0 0.1l-1.3 2.1c-27.3 38.7 -86.4 23.9 -92.2 -23.1l-0.2 -2.5" transform="matrix(0 1.2912 -2.0135 0 975.0774 -272.5974)" opacity="0.34" style="animation-name: eaf-c489-9, eaf-c489-10, eaf-c489-11, eaf-c489-5; animation-composition: replace, add, add, add;"></path><path fill="#eee" stroke="#aaaaaa" stroke-width="32" stroke-miterlimit="10" paint-order="stroke" d="m572 326.7l-2.1 0.5l-2.1 0.3c-22.9 2.6 -43.4 -14.1 -45.1 -37.1l-0.1 -2.2l0 -2.2c0.7 -23 20.6 -40.7 43.6 -38.9l2.1 0.2l2.2 0.3l0 0l0 0l0.1 0l0.1 -2.3l0.2 -2.3c2.5 -19.1 16.2 -34.4 34.9 -39l2.3 -0.5l2.3 -0.4c18.9 -2.6 37.6 6.8 46.7 23.6l1.1 2.1l1 2.1l0 -0.1l0 0c0 0 1.3 -1.4 1.3 -1.4l1.4 -1.4c12.1 -11.1 30.2 -11.4 42.5 -0.6l1.4 1.3l1.3 1.4c10.7 12.1 10.5 30.8 -0.7 42.5l-1.4 1.4l-1.4 1.3l0 0l0 0c0 0 2.2 0.6 2.2 0.6l2.1 0.8c22.2 9.1 32.4 34.5 22.9 56.5l-1 2.1l-1.1 2c-11.9 20.8 -38.5 27.7 -59 15.3l-1.9 -1.2l-1.8 -1.3l0 0l0 0.1l-1.3 2.1c-27.3 38.7 -86.4 23.9 -92.2 -23.1l-0.2 -2.5" transform="matrix(0 1.2912 -2.0135 0 975.0774 -272.5974)" opacity="0.34" style="animation-name: eaf-c489-12, eaf-c489-13, eaf-c489-14, eaf-c489-5, eaf-c489-15; animation-composition: replace, add, add, add, replace;"></path><path fill="#eee" stroke="#aaaaaa" stroke-width="32" stroke-miterlimit="10" paint-order="stroke" d="m572 326.7l-2.1 0.5l-2.1 0.3c-22.9 2.6 -43.4 -14.1 -45.1 -37.1l-0.1 -2.2l0 -2.2c0.7 -23 20.6 -40.7 43.6 -38.9l2.1 0.2l2.2 0.3l0 0l0 0l0.1 0l0.1 -2.3l0.2 -2.3c2.5 -19.1 16.2 -34.4 34.9 -39l2.3 -0.5l2.3 -0.4c18.9 -2.6 37.6 6.8 46.7 23.6l1.1 2.1l1 2.1l0 -0.1l0 0c0 0 1.3 -1.4 1.3 -1.4l1.4 -1.4c12.1 -11.1 30.2 -11.4 42.5 -0.6l1.4 1.3l1.3 1.4c10.7 12.1 10.5 30.8 -0.7 42.5l-1.4 1.4l-1.4 1.3l0 0l0 0c0 0 2.2 0.6 2.2 0.6l2.1 0.8c22.2 9.1 32.4 34.5 22.9 56.5l-1 2.1l-1.1 2c-11.9 20.8 -38.5 27.7 -59 15.3l-1.9 -1.2l-1.8 -1.3l0 0l0 0.1l-1.3 2.1c-27.3 38.7 -86.4 23.9 -92.2 -23.1l-0.2 -2.5" transform="matrix(0 1.2912 -2.0135 0 975.0774 -272.5974)" opacity="0.34" style="animation-name: eaf-c489-16, eaf-c489-3, eaf-c489-4, eaf-c489-5; animation-composition: replace, add, add, add;"></path><path fill="#eee" stroke="#aaaaaa" stroke-width="32" stroke-miterlimit="10" paint-order="stroke" d="m572 326.7l-2.1 0.5l-2.1 0.3c-22.9 2.6 -43.4 -14.1 -45.1 -37.1l-0.1 -2.2l0 -2.2c0.7 -23 20.6 -40.7 43.6 -38.9l2.1 0.2l2.2 0.3l0 0l0 0l0.1 0l0.1 -2.3l0.2 -2.3c2.5 -19.1 16.2 -34.4 34.9 -39l2.3 -0.5l2.3 -0.4c18.9 -2.6 37.6 6.8 46.7 23.6l1.1 2.1l1 2.1l0 -0.1l0 0c0 0 1.3 -1.4 1.3 -1.4l1.4 -1.4c12.1 -11.1 30.2 -11.4 42.5 -0.6l1.4 1.3l1.3 1.4c10.7 12.1 10.5 30.8 -0.7 42.5l-1.4 1.4l-1.4 1.3l0 0l0 0c0 0 2.2 0.6 2.2 0.6l2.1 0.8c22.2 9.1 32.4 34.5 22.9 56.5l-1 2.1l-1.1 2c-11.9 20.8 -38.5 27.7 -59 15.3l-1.9 -1.2l-1.8 -1.3l0 0l0 0.1l-1.3 2.1c-27.3 38.7 -86.4 23.9 -92.2 -23.1l-0.2 -2.5" transform="matrix(0 1.2912 -2.0135 0 975.0774 -272.5974)" opacity="0.34" style="animation-name: eaf-c489-17, eaf-c489-7, eaf-c489-18, eaf-c489-5; animation-composition: replace, add, add, add;"></path><path fill="#eee" stroke="#aaaaaa" stroke-width="32" stroke-miterlimit="10" paint-order="stroke" d="m572 326.7l-2.1 0.5l-2.1 0.3c-22.9 2.6 -43.4 -14.1 -45.1 -37.1l-0.1 -2.2l0 -2.2c0.7 -23 20.6 -40.7 43.6 -38.9l2.1 0.2l2.2 0.3l0 0l0 0l0.1 0l0.1 -2.3l0.2 -2.3c2.5 -19.1 16.2 -34.4 34.9 -39l2.3 -0.5l2.3 -0.4c18.9 -2.6 37.6 6.8 46.7 23.6l1.1 2.1l1 2.1l0 -0.1l0 0c0 0 1.3 -1.4 1.3 -1.4l1.4 -1.4c12.1 -11.1 30.2 -11.4 42.5 -0.6l1.4 1.3l1.3 1.4c10.7 12.1 10.5 30.8 -0.7 42.5l-1.4 1.4l-1.4 1.3l0 0l0 0c0 0 2.2 0.6 2.2 0.6l2.1 0.8c22.2 9.1 32.4 34.5 22.9 56.5l-1 2.1l-1.1 2c-11.9 20.8 -38.5 27.7 -59 15.3l-1.9 -1.2l-1.8 -1.3l0 0l0 0.1l-1.3 2.1c-27.3 38.7 -86.4 23.9 -92.2 -23.1l-0.2 -2.5" transform="matrix(0 -1.2912 -2.0135 0 975.0774 1350.4092)" opacity="0.34" style="animation-name: eaf-c489-19, eaf-c489-10, eaf-c489-20, eaf-c489-21; animation-composition: replace, add, add, add;"></path><path fill="#eee" stroke="#aaaaaa" stroke-width="32" stroke-miterlimit="10" paint-order="stroke" d="m572 326.7l-2.1 0.5l-2.1 0.3c-22.9 2.6 -43.4 -14.1 -45.1 -37.1l-0.1 -2.2l0 -2.2c0.7 -23 20.6 -40.7 43.6 -38.9l2.1 0.2l2.2 0.3l0 0l0 0l0.1 0l0.1 -2.3l0.2 -2.3c2.5 -19.1 16.2 -34.4 34.9 -39l2.3 -0.5l2.3 -0.4c18.9 -2.6 37.6 6.8 46.7 23.6l1.1 2.1l1 2.1l0 -0.1l0 0c0 0 1.3 -1.4 1.3 -1.4l1.4 -1.4c12.1 -11.1 30.2 -11.4 42.5 -0.6l1.4 1.3l1.3 1.4c10.7 12.1 10.5 30.8 -0.7 42.5l-1.4 1.4l-1.4 1.3l0 0l0 0c0 0 2.2 0.6 2.2 0.6l2.1 0.8c22.2 9.1 32.4 34.5 22.9 56.5l-1 2.1l-1.1 2c-11.9 20.8 -38.5 27.7 -59 15.3l-1.9 -1.2l-1.8 -1.3l0 0l0 0.1l-1.3 2.1c-27.3 38.7 -86.4 23.9 -92.2 -23.1l-0.2 -2.5" transform="matrix(0 1.232 -1.9406 0 954.0571 -235.3543)" opacity="0.34" style="animation-name: eaf-c489-22, eaf-c489-23, eaf-c489-24, eaf-c489-25, eaf-c489-15; animation-composition: replace, add, add, add, replace;"></path><g style="filter: drop-shadow(rgba(0, 0, 0, 0.718) 10px 6px 21px);"><path fill="#aaaaaa" d="m287.69 576.13c-38.77 0 -76.43 -7.62 -111.93 -22.63c-34.25 -14.48 -64.98 -35.2 -91.35 -61.57c-26.37 -26.37 -47.08 -57.1 -61.57 -91.35c-15.02 -35.51 -22.64 -73.17 -22.64 -111.94c0 -38.77 7.61 -76.43 22.63 -111.93c14.48 -34.25 35.2 -64.98 61.57 -91.35c26.37 -26.37 57.1 -47.08 91.35 -61.57c35.51 -15.02 73.17 -22.63 111.94 -22.63c38.77 0 76.43 7.61 111.93 22.63c34.25 14.48 64.98 35.2 91.35 61.57c26.37 26.37 47.08 57.1 61.57 91.35c15.02 35.51 22.63 73.17 22.63 111.93c0 38.76 -7.62 76.43 -22.63 111.93c-14.49 34.25 -35.2 64.98 -61.57 91.35c-26.37 26.37 -57.1 47.08 -91.35 61.57c-35.51 15.02 -73.17 22.63 -111.93 22.63l0 0.01z" transform="matrix(1.1479 0 0 1.1479 53.7128 44.2258)"></path></g><g style="filter: drop-shadow(rgba(0, 0, 0, 0.718) 10px 6px 21px);"><ellipse fill="#d4edfa" rx="187.49" ry="187.49" transform="matrix(1.1479 0 0 1.1479 383.9535 375.557)"></ellipse></g><g style="filter: drop-shadow(rgba(0, 0, 0, 0.718) 10px 6px 8px);"><g transform="matrix(1.1479 0 0 1.1479 53.7128 44.2258)"><g style="filter: drop-shadow(rgb(0, 0, 0) 0px 0px 0px); animation-name: eaf-c489-27, eaf-c489-28; animation-composition: replace, add;"><path fill="#fff" d="m523.14 160.6c-1.41 -2.56 -3.38 -5.47 -4.69 -8.65c-2.25 -5.45 -5.08 -6.1 -10.14 -2.97c-10.77 6.65 -21.94 12.66 -32.86 19.07c-12.21 7.17 -12.17 7.24 -4.24 19.18c0.27 0.41 0.55 0.83 0.76 1.28c1.43 3.14 3.49 2.8 6.03 1.32c13.95 -8.13 27.95 -16.17 41.9 -24.3c1.63 -0.95 3.76 -1.74 3.25 -4.93l-0.01 0z" style="animation-name: eaf-c489-26;"></path></g><path fill="#c4c4c4" d="m523.46 416.11c-0.39 -3.5 -3.04 -4.33 -5.04 -5.51c-10.69 -6.3 -21.42 -12.56 -32.24 -18.65c-13.34 -7.5 -13.9 -7.17 -20.5 6.96c-1.25 2.67 -0.9 3.96 1.53 5.35c14.46 8.23 28.86 16.56 43.31 24.8c1.41 0.8 3.38 2.57 4.64 0.74c3.08 -4.46 5.65 -9.27 8.29 -13.7l0.01 0.01z"></path><path fill="#c4c4c4" d="m175.72 466.56c-3.22 -0.04 -3.85 2.38 -4.93 4.24c-6.56 11.41 -13.15 22.8 -19.6 34.27c-6.78 12.06 -6.63 11.92 6.1 18.36c3.81 1.93 5.82 1.23 7.77 -2.21c7.72 -13.6 15.56 -27.14 23.32 -40.72c0.96 -1.69 2.5 -3.75 0.89 -5.48c-3.79 -4.07 -9.31 -5.52 -13.55 -8.46l0 0z"></path><path fill="#c4c4c4" d="m428.86 514.41c-0.85 -1.61 -1.81 -3.62 -2.93 -5.55c-6.35 -10.95 -12.73 -21.89 -19.1 -32.83c-6.13 -10.53 -6.01 -10.29 -16.77 -4.55c-5.15 2.74 -6.09 5.49 -3.03 10.48c6.48 10.58 12.79 21.29 18.79 32.15c8.19 14.82 5.18 12.34 20.11 4.6c1.51 -0.78 3.12 -1.69 2.93 -4.3z"></path><path fill="#c4c4c4" d="m297.15 527.94c0 -5.21 0 -10.42 0 -15.63c0 -13.31 0 -13.06 -13.48 -13.26c-5.14 -0.08 -6.28 1.84 -6.19 6.49c0.24 12.65 0.08 25.31 0.08 37.97c0 13.97 0 13.78 14.23 13.28c4.33 -0.15 5.53 -1.74 5.42 -5.77c-0.21 -7.69 -0.06 -15.38 -0.06 -23.08z"></path><g style="filter: drop-shadow(rgb(0, 0, 0) 0px 0px 0px); animation-name: eaf-c489-27, eaf-c489-30; animation-composition: replace, add;"><path fill="#fff" d="m526.23 279.09c-5.48 0 -10.96 0 -16.44 0c-12.45 0 -12.2 0 -12.49 12.08c-0.13 5.17 1.28 7 6.62 6.86c12.94 -0.33 25.9 0.02 38.85 -0.14c13.36 -0.17 11.83 2.57 12.18 -12.42c0.11 -4.79 -1.31 -6.7 -6.31 -6.46c-7.46 0.35 -14.94 0.09 -22.41 0.09l0 -0.0099z" style="animation-name: eaf-c489-29;"></path></g></g></g><path fill="#80abc2" stroke="#aaaaaa" stroke-width="10" d="m80.64 480.8c-22.87 -23.53 -41.19 -52.12 -54.45 -84.98c-15.78 -39.12 -22.81 -79.92 -20.88 -121.28c1.85 -39.82 11.85 -78.06 29.72 -113.67c17.66 -35.19 41.94 -65.65 72.16 -90.54c31.46 -25.91 67.81 -44.41 108.02 -54.98c26.15 -6.88 52.01 -10.36 76.87 -10.36c67.9 0 131.01 25.78 187.59 76.62l4.31 3.88l-4.1 4.1c-4.67 4.67 -9.35 9.34 -14.03 14.01c-12.9 12.87 -26.24 26.18 -39.32 39.46l-3.72 3.78l-3.91 -3.59c-28.98 -26.57 -62.94 -42.95 -100.94 -48.68c-10.75 -1.62 -21.47 -2.44 -31.88 -2.44c-41.22 0 -79.55 12.72 -113.91 37.81c-42.83 31.27 -69.03 73.86 -77.88 126.58c-8.14 48.53 0.91 94.07 26.91 135.36c6.75 10.73 13.61 19.93 20.96 28.14l3.49 3.89l-3.71 3.68c-12.83 12.72 -26.05 25.91 -37.71 37.54l-19.7 19.64l-3.88 -3.99l-0.0099 0.02z" transform="matrix(1.1479 0 0 1.1479 53.7128 44.2258)"></path><g style="filter: drop-shadow(rgba(0, 0, 0, 0.718) 10px 6px 8px);"><g transform="matrix(1.1479 0 0 1.1479 53.7128 44.2258)"><g style="filter: drop-shadow(rgb(0, 0, 0) 0px 0px 0px); animation-name: eaf-c489-27, eaf-c489-32; animation-composition: replace, add;"><path fill="#fff" d="m428.19 62.45c0.15 -1.7 -0.99 -2.26 -2.06 -2.88c-2.58 -1.49 -5.3 -2.8 -7.7 -4.54c-3.75 -2.73 -6 -2.59 -8.45 1.98c-6.1 11.38 -12.77 22.45 -19.24 33.63c-6.17 10.65 -6.04 10.39 4.2 16.74c4.45 2.76 6.45 2.11 8.92 -2.37c7.3 -13.27 15.05 -26.3 22.61 -39.43c0.62 -1.07 1.19 -2.17 1.71 -3.12l0.01 -0.01z" style="animation-name: eaf-c489-31;"></path></g><g style="filter: drop-shadow(rgb(0, 0, 0) 0px 0px 0px); animation-name: eaf-c489-27, eaf-c489-34; animation-composition: replace, add;"><path fill="#fff" d="m278.02 49.16c0 5.22 0 10.45 0 15.67c0 12.63 0.01 12.31 12.35 12.7c5.54 0.18 6.57 -1.8 6.44 -6.79c-0.33 -12.43 -0.11 -24.87 -0.11 -37.31c0 -13.67 0 -13.48 -13.85 -12.77c-4.07 0.21 -4.99 1.67 -4.89 5.36c0.22 7.71 0.07 15.42 0.06 23.13l0 0.01z" style="animation-name: eaf-c489-33;"></path></g><g style="filter: drop-shadow(rgb(0, 0, 0) 0px 0px 0px); animation-name: eaf-c489-27, eaf-c489-36; animation-composition: replace, add;"><path fill="#fff" d="m160.44 52.75c-3.23 1.87 -6.55 4.09 -10.13 5.76c-3.87 1.82 -4.1 3.64 -1.88 7.29c6.72 11.03 12.98 22.34 19.42 33.53c6.93 12.04 6.86 11.93 18.62 4.05c2.68 -1.79 3.18 -3.12 1.55 -5.91c-8.16 -13.93 -16.16 -27.95 -24.26 -41.93c-0.7 -1.21 -1.1 -2.88 -3.33 -2.81l0.01 0.02z" style="animation-name: eaf-c489-35;"></path></g><g style="filter: drop-shadow(rgb(0, 0, 0) 0px 0px 0px); animation-name: eaf-c489-27, eaf-c489-38; animation-composition: replace, add;"><path fill="#fff" d="m61.75 147.36c-1.93 -0.21 -2.36 1.39 -3.08 2.61c-1.51 2.56 -2.77 5.31 -4.55 7.68c-2.79 3.73 -1.94 5.69 2.09 7.9c11.53 6.31 22.79 13.09 34.18 19.65c10.38 5.98 10.2 5.84 16.34 -4.66c2.48 -4.23 1.84 -6.28 -2.41 -8.64c-13.23 -7.33 -26.24 -15.07 -39.33 -22.64c-1.07 -0.62 -2.15 -1.24 -3.26 -1.89l0.02 -0.01z" style="animation-name: eaf-c489-37;"></path></g><g style="filter: drop-shadow(rgb(0, 0, 0) 0px 0px 0px); animation-name: eaf-c489-27, eaf-c489-40; animation-composition: replace, add;"><path fill="#fff" d="m20.28 297.71c0.44 1.53 1.23 2.68 3.02 2.68c16.78 0.01 33.56 0.01 50.35 0.05c2.09 0 3.18 -1 3.51 -2.99l0 -17.89c-0.42 -3.07 -2.69 -3.01 -4.99 -3c-15.55 0.02 -31.1 0 -46.65 0c-2.23 0 -4.59 -0.27 -5.24 2.74c0 6.14 0 12.27 0 18.41z" style="animation-name: eaf-c489-39;"></path></g><g style="filter: drop-shadow(rgb(0, 0, 0) 0px 0px 0px); animation-name: eaf-c489-27, eaf-c489-42; animation-composition: replace, add;"><path fill="#fff" d="m61.39 429.88c0.78 -0.43 1.44 -0.77 2.09 -1.15c14.19 -8.2 28.36 -16.44 42.58 -24.58c2.82 -1.62 3.16 -3.43 1.44 -6.04c-1.36 -2.07 -2.78 -4.17 -3.7 -6.45c-2.1 -5.18 -4.96 -4.83 -9.18 -2.28c-11.47 6.95 -23.15 13.54 -34.74 20.28c-8.48 4.93 -8.58 4.98 -3.53 13.28c1.47 2.43 2.01 5.68 5.05 6.94l-0.01 0z" style="animation-name: eaf-c489-41;"></path></g></g></g><path fill="#91c8e5" d="m165.42 409.73c-66.49 -66.78 -66.95 -175.59 0.28 -243.02c66.37 -66.57 173.84 -68.24 242.19 -0.9c-0.88 4.91 -5.31 7.03 -8.25 10.27c-2.47 2.71 -2.83 4.78 -0.23 7.66c20.81 23.04 33.93 49.63 39.14 80.49c5.1 30.18 0.91 58.86 -11.17 86.48c-10.01 22.88 -24.93 42.2 -44.59 57.95c-22.35 17.9 -47.77 29.01 -75.88 32.02c-26.58 2.84 -53.23 0.78 -78.3 -10.21c-18.1 -7.94 -34.86 -17.93 -48.21 -32.89c0.11 -3.46 2.98 -5.03 5.01 -7.08c38.28 -38.35 76.59 -76.66 114.93 -114.94c1.91 -1.91 4.13 -3.51 6.21 -5.25c2.53 2.38 5.48 4.46 7.5 7.21c4.36 5.92 7.54 4.44 12.06 -0.2c20 -20.49 39.76 -41.29 60.82 -60.66c12.19 -11.22 9.28 -23.59 7.41 -36.65c-15.87 -17.05 -35.32 -28.25 -57.1 -36.14c-25.72 -9.32 -52.06 -10.38 -78.45 -5.69c-34.03 6.05 -62.54 22.64 -85.44 48.81c-27.96 31.97 -40.66 68.82 -38.02 111.35c1.93 31.22 12.29 58.86 31.03 83.76c3.79 5.04 10.3 8.29 11.03 15.52c-3.28 4.75 -7.41 8.65 -11.98 12.12l0.01 -0.01z" transform="matrix(1.1479 0 0 1.1479 53.7128 44.2258)"></path><path fill="#3d83a8" d="m165.42 409.73c4.57 -3.47 8.7 -7.37 11.98 -12.12c1 -0.01 2 -0.03 3.01 -0.04c13.34 14.95 30.11 24.95 48.21 32.89c25.07 10.99 51.72 13.05 78.3 10.21c28.11 -3.01 53.53 -14.12 75.88 -32.02c19.66 -15.74 34.58 -35.06 44.59 -57.95c12.08 -27.62 16.27 -56.3 11.17 -86.48c-5.21 -30.86 -18.33 -57.45 -39.14 -80.49c-2.6 -2.88 -2.24 -4.95 0.23 -7.66c2.94 -3.24 7.37 -5.36 8.25 -10.27c16.95 14.6 28.47 33.18 37.42 53.24c9.58 21.48 14.64 44.3 14.65 67.88c0 32.97 -8.26 63.85 -25.7 92c-22.79 36.78 -54.97 62.14 -96.14 74.81c-31.35 9.64 -63.4 9.89 -95.49 1.43c-28.59 -7.54 -53.16 -21.66 -74.37 -41.99c-1.06 -1.02 -1.9 -2.28 -2.84 -3.43l-0.01 -0.01z" transform="matrix(1.1479 0 0 1.1479 53.7128 44.2258)"></path><path fill="#bfe9ff" d="m180.4 397.57c-1 0.01 -2 0.03 -3.01 0.04c-0.73 -7.23 -7.24 -10.48 -11.03 -15.52c-18.74 -24.89 -29.1 -52.53 -31.03 -83.76c-2.64 -42.53 10.06 -79.38 38.02 -111.35c22.9 -26.18 51.41 -42.76 85.44 -48.81c26.4 -4.7 52.74 -3.63 78.45 5.69c21.78 7.89 41.24 19.09 57.1 36.14c-6.95 0.08 -13.91 0.43 -20.85 0.13c-3.29 -0.14 -5.64 0.62 -7.93 2.93c-22.93 23.1 -45.9 46.16 -68.97 69.11c-2.73 2.71 -2.93 4.46 -0.07 7.22c3.54 3.42 7.62 6.42 10.02 10.91c-2.08 1.74 -4.3 3.34 -6.21 5.25c-38.34 38.28 -76.65 76.59 -114.93 114.94c-2.04 2.04 -4.91 3.62 -5.01 7.08l0.01 0z" transform="matrix(1.1479 0 0 1.1479 53.7128 44.2258)"></path><g style="filter: drop-shadow(rgba(0, 0, 0, 0.718) 10px 6px 21px);"><path fill="#e00000" stroke="#d6d6d6" stroke-width="18" paint-order="stroke" d="m263.38 314.47c-5.08 -9.49 -13.72 -15.83 -21.2 -23.07c-6.04 -5.84 -5.61 -9.53 0.16 -15.27c48.8 -48.56 97.38 -97.34 145.89 -146.2c4.85 -4.89 10.03 -4.42 16.77 -6.19c17.65 -4.65 38.23 -9.11 52.93 -9.28c3.95 27.63 1.28 62.8 -24.51 86.53c-44.54 40.98 -86.34 84.97 -128.65 128.32c-9.57 9.81 -16.29 12.94 -25.51 0.42c-4.29 -5.82 -10.52 -10.22 -15.87 -15.26l-0.01 0z" transform="matrix(-1.1435 -0.1 0.1 -1.1435 691.7631 737.7911)" style="animation-name: eaf-c489-43, eaf-c489-44, eaf-c489-45; animation-composition: replace, add, add;"></path></g><g style="filter: drop-shadow(rgba(0, 0, 0, 0.718) 10px 6px 21px);"><ellipse fill="#f4b526" stroke="#aaaaaa" stroke-width="13.74" rx="60.93" ry="60.93" transform="matrix(1.1479 0 0 1.1479 383.9535 375.557)"></ellipse></g><path fill="#fff" d="m248.53 263.45l4.51 -4.6c0.08 -0.08 0.16 -0.15 0.24 -0.22l7.37 -6.14c0.09 -0.07 0.18 -0.14 0.28 -0.21l3.31 -2.21c0.18 -0.12 0.38 -0.23 0.58 -0.31l7.93 -3.23c0.1 -0.04 0.21 -0.08 0.31 -0.11l8.03 -2.36c1.65 -0.49 3.41 -0.5 5.07 -0.05l2.04 0.56c1.43 0.39 2.42 1.69 2.42 3.17l0 5.88c0 1.61 -1.17 2.99 -2.77 3.24l-5.01 0.8l-7.98 1.18c-0.27 0.04 -0.54 0.11 -0.79 0.22l-5.99 2.52c-0.19 0.08 -0.37 0.18 -0.54 0.29l-6.2 4.12c-0.37 0.25 -0.69 0.56 -0.93 0.94l-3.12 4.76c-0.16 0.24 -0.35 0.47 -0.57 0.66l-4.49 3.97c-0.87 0.77 -2.07 1.02 -3.17 0.67l-2.77 -0.88c-1.36 -0.43 -2.29 -1.7 -2.29 -3.13l0 -2.94c0 -0.77 0.27 -1.51 0.76 -2.11l3.58 -4.29c0.06 -0.07 0.12 -0.13 0.18 -0.2l0.01 0.01z" transform="matrix(1.1479 0 0 1.1479 53.7128 44.2258)"></path></g></g></svg>