<svg xmlns="http://www.w3.org/2000/svg" viewBox="0 0 650 650" overflow="hidden" preserveAspectRatio="xMidYMid meet" id="eaf-388b-0"><defs><clipPath id="eaf-388b-1"><rect x="0" y="0" width="650" height="650"></rect></clipPath><style>#eaf-388b-0 * {animation: 5000ms linear infinite normal both running;offset-rotate:0deg}@keyframes eaf-388b-2{0%,100%{transform:none;offset-path:path("m458.0871 459.5359l-37.5431 -38.5738l-5.3296 -5.0285l-43.9144 -41.4336l0 0l86.7871 85.0359")}}@keyframes eaf-388b-3{0%{animation-timing-function:step-start}20%{offset-distance:0%;animation-timing-function:ease-in-out}36%{offset-distance:22.1482%}46.66%{offset-distance:25.1632%;animation-timing-function:ease-in-out}54.66%{offset-distance:50.0056%}80.66%{offset-distance:50.0056%;animation-timing-function:ease-in-out}100%{offset-distance:100%}}@keyframes eaf-388b-4{0%,100%{transform:translate(-436.5129px,-436.0289px)}}@keyframes eaf-388b-5{0%,100%{transform:none;offset-path:path("m191.1175 191.0122l16.4847 16.9352l0 0l50.8348 52.2238l0 0l-67.3196 -69.159")}}@keyframes eaf-388b-6{0%{animation-timing-function:step-start}20%{offset-distance:0%;animation-timing-function:ease-in-out}36%{offset-distance:12.2436%}46.66%{offset-distance:12.2436%}54.66%{offset-distance:50%}80.66%{offset-distance:50%;animation-timing-function:ease-in-out}100%{offset-distance:100%}}@keyframes eaf-388b-7{0%,100%{transform:translate(-191.1175px,-191.0122px)}}@keyframes eaf-388b-8{0%{fill-opacity:0}34.66%{fill-opacity:0}36%{fill-opacity:1}46%{fill-opacity:0.9}47.32%,100%{fill-opacity:0}}@keyframes eaf-388b-9{0%{stroke-opacity:0}34.66%{stroke-opacity:0}36%{stroke-opacity:1}46%{stroke-opacity:1}47.34%,100%{stroke-opacity:0}}@keyframes eaf-388b-10{0%,100%{transform:translate(341.4586px,231.912px)}}@keyframes eaf-388b-11{0%,34.66%{transform:rotate(-8deg)}36%{transform:rotate(-15deg)}38%{transform:rotate(-7deg)}39.32%{transform:rotate(-13deg)}41.32%{transform:rotate(-4deg)}43.32%{transform:rotate(-13deg)}44.66%{transform:rotate(-10deg)}46%{transform:rotate(-6deg)}47.32%,100%{transform:rotate(-12deg)}}@keyframes eaf-388b-12{0%,100%{transform:matrix(1.1793,0,0,1.1793,-383.0052,-249.3367)}}@keyframes eaf-388b-13{0%{fill-opacity:0}34.66%{fill-opacity:0}36%{fill-opacity:1}44.66%{fill-opacity:0.9}45.98%{fill-opacity:0}46%{fill-opacity:1}47.34%,100%{fill-opacity:0}}@keyframes eaf-388b-14{0%,100%{transform:translate(345.3679px,222.2339px)}}@keyframes eaf-388b-15{0%,33.32%{transform:rotate(-8deg)}34.66%{transform:rotate(-15deg)}36.66%{transform:rotate(-7deg)}37.98%{transform:rotate(-13deg)}39.98%{transform:rotate(-4deg)}41.98%{transform:rotate(-13deg)}43.32%{transform:rotate(-10deg)}44.66%{transform:rotate(-6deg)}45.98%,100%{transform:rotate(-12deg)}}@keyframes eaf-388b-16{0%,100%{transform:translate(-338.8721px,-196.3px)}}@keyframes eaf-388b-17{0%{fill-opacity:0}34%{fill-opacity:0}35.34%{fill-opacity:1}45.34%{fill-opacity:0.86}46.66%,100%{fill-opacity:0}}@keyframes eaf-388b-18{0%,100%{transform:translate(218.0341px,322.0714px)}}@keyframes eaf-388b-19{0%,34%{transform:rotate(-8deg)}35.34%{transform:rotate(-15deg)}37.34%{transform:rotate(-7deg)}38.66%{transform:rotate(-13deg)}40.66%{transform:rotate(-4deg)}42.66%{transform:rotate(-13deg)}44%{transform:rotate(-10deg)}45.34%{transform:rotate(-6deg)}46.66%,100%{transform:rotate(-12deg)}}@keyframes eaf-388b-20{0%,100%{transform:translate(-211.8561px,-311.7125px)}}@keyframes eaf-388b-21{0%{fill-opacity:0}34%{fill-opacity:0}34.66%{fill-opacity:1}45.34%{fill-opacity:1}46.66%,100%{fill-opacity:0}}@keyframes eaf-388b-22{0%,100%{transform:translate(229.0877px,321.0125px)}}@keyframes eaf-388b-23{0%,100%{transform:translate(-233.928px,-297.8px)}}</style></defs><g clip-path="url('#eaf-388b-1')" style="isolation: isolate;"><g><path fill="#aaaaaa" d="m651.4 325.1c0 81.6 0 163.1 0 244.7c0 37.4 -28.2 71.6 -65 78.6c-5.5 1 -11.1 1.6 -16.6 1.6c-162.6 0 -325.2 0 -487.7 0c-39.9 0 -74.7 -30.6 -79.9 -70.2c-0.5 -3.5 -0.8 -7 -0.8 -10.6c0 -163 0 -326 0 -488.9c0 -37.4 28.2 -71.6 65 -78.6c5.4 -1 11.1 -1.6 16.6 -1.6c162.7 -0.1 325.4 -0.1 488.0999 -0.1c37.4 0 71.6 28.2 78.6 65c1 5.4 1.6 11.1 1.6 16.6c0.1001 81.2 0.1001 162.3 0.1001 243.5l0 0l0 0z"></path><g transform="translate(21.5742 23.507)" style="animation-name: eaf-388b-2, eaf-388b-3, eaf-388b-4; animation-composition: replace, add, add;"><path fill="#7ebfe2" fill-rule="evenodd" stroke="#000000" stroke-width="12" d="m277.2 512.2l234.5 -234.5c4.7 -4.7 12.3 -4.7 17 0l25.3 25.3c4.7 4.7 4.7 12.3 0 17l-234.5 234.5c-4.7 4.7 -12.3 4.7 -17 0l-25.3 -25.3c-4.7 -4.7 -4.7 -12.3 0 -17z"></path><path fill="#000000" fill-rule="evenodd" d="m332.5 541.5l208.4 -208.4l49.1 49.1c40.7 40.7 40.7 106.6 0 147.3l-61.6 61.5c-40.4 40.4 -106 40.4 -146.4 0l-49.5 -49.5z"></path><path fill="#7ebfe2" fill-rule="evenodd" d="m532.7 374.5l30.3 30.3c28.2 28.2 28.2 73.9 0 102l-57.2 57.2c-27.9 27.9 -73.2 27.9 -101.1 0l-30.7 -30.7l158.7 -158.8z"></path><rect fill="#000000" width="59.4" height="91.1" transform="matrix(-0.7071 0.7071 -1.8856 -1.8856 740.4843 692.1905)"></rect><path fill="#000000" fill-rule="evenodd" d="m364.1 425.3l-42.8 42.8l-85.3 -85.2c-9.4 -9.4 -9.4 -24.8 0 -34.2l8.7 -8.7c9.4 -9.4 24.6 -9.4 33.9 0l85.5 85.3z"></path><path fill="#000000" fill-rule="evenodd" d="m468.7 320.7l-42.8 42.8l-85.2 -85.2c-9.4 -9.4 -9.4 -24.8 0 -34.2l8.7 -8.7c9.4 -9.4 24.6 -9.4 33.9 0l85.4 85.3z"></path><ellipse fill="#e1edff" rx="16.6" ry="16.6" transform="translate(266 370.1)"></ellipse><ellipse fill="#e1edff" rx="16.6" ry="16.6" transform="translate(371.3 266.2)"></ellipse><ellipse fill="#fff" rx="69.2884" ry="32.6" transform="matrix(0.7314 -0.682 0.682 0.7314 491.9183 491.3129)"></ellipse></g><g transform="translate(0 0)" style="animation-name: eaf-388b-5, eaf-388b-6, eaf-388b-7; animation-composition: replace, add, add;"><path fill="#7ebfe2" fill-rule="evenodd" stroke="#000000" stroke-width="12" d="m372.8 137.8l-234.5 234.4c-4.7 4.7 -12.3 4.7 -17 0l-25.3 -25.3c-4.7 -4.7 -4.7 -12.3 0 -17l234.5 -234.4c4.7 -4.7 12.3 -4.7 17 0l25.3 25.3c4.7 4.7 4.7 12.3 0 17z"></path><path fill="#000000" fill-rule="evenodd" d="m317.5 108.5l-208.4 208.4l-49.1 -49c-40.7 -40.7 -40.7 -106.6 0 -147.3l61.6 -61.6c40.4 -40.4 106 -40.4 146.4 0l49.5 49.5z" transform="translate(-1.9 1.6)"></path><path fill="#7ebfe2" fill-rule="evenodd" d="m117.3 275.5l-30.3 -30.2c-28.2 -28.2 -28.2 -73.9 0 -102l57.2 -57.3c27.9 -27.9 73.2 -27.9 101.1 0l30.7 30.7l-158.7 158.8z"></path><path fill="#fff" fill-rule="evenodd" d="m119.1 248.3c-20.4 -20.4 -20.4 -53.5 0 -73.9l56.3 -56.3c9.7 -9.7 22.6 -15.1 36.4 -15.1c13.7 0 26.7 5.4 36.4 15.1l1.3 1.3l-129.7 129.6l-0.7 -0.7z" transform="translate(-0.1 -0.4)"></path><rect fill="#000000" width="59.4" height="91.1" transform="matrix(0.7071 -0.7071 2.3265 2.3265 -126.9715 -83.2698)"></rect></g><g style="filter: blur(1px);"><polygon points="390.6,328.7 315.6,196.3 335.7,289.8 348.2,282.7 357.1,364.3" fill="#ffc300" fill-opacity="0" fill-rule="evenodd" stroke="#fff" stroke-opacity="0" stroke-width="16" paint-order="stroke" transform="matrix(1.1678 -0.1641 0.1641 1.1678 -72.5202 38.3059)" style="animation-name: eaf-388b-8, eaf-388b-9, eaf-388b-10, eaf-388b-11, eaf-388b-12; animation-composition: replace, replace, replace, add, add;"></polygon></g><g style="filter: blur(1px);"><polygon points="513.9,241.9 325,196.3 444.7,197.2 441.5,210.4 542.3,203" fill="#ffc300" fill-opacity="0" fill-rule="evenodd" stroke="#fff" stroke-opacity="0" stroke-width="16" paint-order="stroke" transform="matrix(0.9903 -0.1392 0.1392 0.9903 -17.5259 75.0062)" style="animation-name: eaf-388b-13, eaf-388b-9, eaf-388b-14, eaf-388b-15, eaf-388b-16; animation-composition: replace, replace, replace, add, add;"></polygon></g><g style="filter: blur(1px);"><polygon points="290.2,522.9 207.3,297.8 226.6,452.6 243.2,446.5 248.2,564.5" fill="#ffc300" fill-opacity="0" fill-rule="evenodd" stroke="#fff" stroke-opacity="0" stroke-width="16" paint-order="stroke" transform="matrix(0.9903 -0.1392 0.1392 0.9903 -35.1422 42.8772)" style="animation-name: eaf-388b-17, eaf-388b-9, eaf-388b-18, eaf-388b-19, eaf-388b-20; animation-composition: replace, replace, replace, add, add;"></polygon></g><g style="filter: blur(1px);"><polygon points="360.8,407.3 221.2,289.8 352.6,353.8 341.2,367.5 410,393.9" fill="#ffc300" fill-opacity="0" fill-rule="evenodd" stroke="#fff" stroke-opacity="0" stroke-width="16" paint-order="stroke" transform="matrix(0.9903 -0.1392 0.1392 0.9903 -44.0094 58.6671)" style="animation-name: eaf-388b-21, eaf-388b-9, eaf-388b-22, eaf-388b-19, eaf-388b-23; animation-composition: replace, replace, replace, add, add;"></polygon></g></g></g></svg>

