<svg xmlns="http://www.w3.org/2000/svg" viewBox="0 0 769 769" overflow="hidden" preserveAspectRatio="xMidYMid meet" id="eaf-12abd-0"><defs><clipPath id="eaf-12abd-1"><rect x="0" y="0" width="769" height="769"></rect></clipPath><style>#eaf-12abd-0 * {animation: 12000ms linear infinite normal both running;offset-rotate:0deg}@keyframes eaf-12abd-2{0%,100%{transform:none;offset-path:path("m388 127.4l463.3381 0l0 0l-463.3381 0")}}@keyframes eaf-12abd-3{0%{offset-distance:0%}8.33%{offset-distance:50%}88.61%{offset-distance:50%}91.66%,100%{offset-distance:100%}}@keyframes eaf-12abd-4{0%,100%{transform:translate(-228.9px,-51.8px)}}@keyframes eaf-12abd-5{0%,100%{transform:none;offset-path:path("m389.9 256.6l0 0l461.4382 0l0 0l-461.4382 0")}}@keyframes eaf-12abd-6{0%,0.28%{offset-distance:0%}10.83%{offset-distance:0%}19.17%{offset-distance:50%}84.73%{offset-distance:50%}88.33%,100%{offset-distance:100%}}@keyframes eaf-12abd-7{0%,100%{transform:translate(-237.4px,-46.4px)}}@keyframes eaf-12abd-8{0%,100%{transform:none;offset-path:path("m399.95 364.3l0 0l448.2 0l0 0l-448.2 0")}}@keyframes eaf-12abd-9{0%{offset-distance:0%}20.83%{offset-distance:0%}29.17%{offset-distance:50%}80.83%{offset-distance:50%}84.17%,100%{offset-distance:100%}}@keyframes eaf-12abd-10{0%,100%{transform:translate(-247.45px,-37.7px)}}@keyframes eaf-12abd-11{0%,100%{transform:none;offset-path:path("m171.9999 491.6001l0 0l236.7502 0l0 0l193.9998 0l0 0l-430.75 0")}}@keyframes eaf-12abd-12{0%{offset-distance:0%}31.39%{offset-distance:0%}37.5%{offset-distance:27.4812%}47.78%{offset-distance:27.4812%}48.06%{offset-distance:50%}76.67%{offset-distance:50%}80.28%,100%{offset-distance:100%}}@keyframes eaf-12abd-13{0%,100%{transform:translate(-2.05px,-78.45px)}}</style></defs><g clip-path="url('#eaf-12abd-1')" style="isolation: isolate;"><g><path fill="#aaaaaa" d="m768.1 385.5c0 96.2 0 192.5 0 288.8c0 44.1 -33.3 84.4 -76.7 92.7c-6.4 1.2 -13.1 1.9 -19.6 1.9c-191.9 0.1 -383.8 0.1 -575.7 0.1c-47 0 -88.1 -36.1 -94.2 -82.9c-0.6 -4.1 -0.9 -8.3 -0.9 -12.5c0 -192.4 0 -384.7 0 -577c0 -44.1 33.3 -84.5 76.7 -92.7c6.4 -1.3 13 -1.9 19.6 -1.9c192 -0.1 384.1 -0.1 576.1 -0.1c44.1 0 84.5 33.3 92.7 76.7c1.2 6.4 1.9 13.1 1.9 19.6c0.1 95.8 0.1 191.6 0.1 287.3z"></path><path fill="#fefadf" d="m80.1 196.7c0 -81.1 65.6 -146.7 146.7 -146.7l307.9 0c81.1 0 146.7 65.6 146.7 146.7l0 235c0 81.1 -65.6 146.7 -146.7 146.7c-18.2 0 -35.5 8.2 -47.4 21l-86.5 97.5l0 0c-10 11.8 -30.1 11.8 -40.1 0l-86.5 -97.5c-11.8 -13.7 -29.2 -21 -47.4 -21c-81.1 0 -146.7 -65.6 -146.7 -146.7c0 0 0 -235 0 -235z"></path><g><path fill="#000000" d="m171.8 123.7l13.4 0l0 30.1c0 3 0.3 5.1 0.9 6.1c0.6 1 1.8 1.5 3.7 1.5c1.7 0 3.1 -0.4 4 -1.3c0.9 -0.8 1.5 -2 1.6 -3.5c0.2 -1.5 0.3 -4.5 0.3 -9.1l0 -24l13.4 0l0 46.9l-12.6 0l0 -6.4c-1.9 3.2 -3.8 5.2 -5.7 6.1c-1.9 0.9 -4.1 1.3 -6.7 1.3c-3.5 0 -6.1 -0.7 -8 -2.1c-1.8 -1.4 -3 -3.2 -3.6 -5.3c-0.5 -2.1 -0.8 -5.5 -0.8 -10l0 -30.3l0.1 0z"></path><path fill="#000000" d="m219 123.7l12.7 0l0 6.4c2.2 -4.9 6.2 -7.3 12.1 -7.3c3.1 0 5.7 0.7 7.8 2.1c2 1.4 3.4 3.1 3.9 5.3c0.6 2.1 0.9 5.4 0.9 9.8l0 30.8l-13.4 0l0 -30.8c0 -3.2 -0.4 -5.1 -1.2 -5.9c-0.8 -0.7 -1.9 -1.1 -3.3 -1.1c-2.4 0 -4 0.7 -4.8 2.2c-0.8 1.5 -1.1 4.1 -1.1 8.1l0 27.5l-13.6 0l0 -47.1z"></path><path fill="#000000" d="m266.8 107.2l20.4 0c4 0 7 0.2 9.1 0.5c2.1 0.4 4.2 1.3 6.4 2.9c2.2 1.6 3.9 3.7 5.1 6.4c1.2 2.7 1.8 5.8 1.8 9.1c0 7.9 -3.1 13.5 -9.2 16.7l12 27.7l-15.6 0l-8.7 -25.1l-7.1 0l0 25.1l-14.3 0l0 -63.3l0.1 0zm14.3 10.3l0 17.8l6.3 0c5.6 0 8.4 -3.1 8.4 -9.2c0 -2.1 -0.4 -3.8 -1.2 -5.2c-0.8 -1.3 -1.8 -2.3 -2.9 -2.7c-1.1 -0.5 -2.7 -0.7 -4.8 -0.7l-5.8 0l0 0z"></path><path fill="#000000" d="m331.4 107.2l14.4 0l18.6 63.4l-14.6 0l-3.2 -13.1l-18.3 0l-3.2 13.1l-13.1 0l19.4 -63.4zm12.5 39.5l-6.6 -26l-6.3 26l12.9 0z"></path><path fill="#000000" d="m369.9 107.2l14.3 0l0 63.4l-14.3 0l0 -63.4z"></path><path fill="#000000" d="m396.5 107.2l15.4 0c6.7 0 12.1 0.9 16.3 2.6c4.2 1.8 7.5 5 10 9.7c2.5 4.7 3.8 11.1 3.8 19.1c0 5.7 -0.8 10.8 -2.3 15.2c-1.5 4.4 -3.5 7.9 -6 10.4c-2.5 2.5 -5.3 4.2 -8.4 5.1c-3.1 0.9 -7 1.3 -11.7 1.3l-17.1 0l0 -63.4l0 0zm14.3 10.9l0 41.7l2.4 0c3.3 0 5.9 -0.6 7.7 -1.9c1.8 -1.3 3.3 -3.4 4.4 -6.5c1.1 -3.1 1.6 -7.5 1.6 -13.4c0 -5.4 -0.6 -9.6 -1.8 -12.5c-1.2 -2.9 -2.7 -4.9 -4.5 -5.9c-1.8 -1 -4.3 -1.6 -7.4 -1.6l-2.4 0l0 0.1z"></path><path fill="#000000" d="m481.2 138.6l-12.7 -1.2c0.6 -4.7 2.7 -8.3 6.2 -10.9c3.5 -2.5 7.9 -3.8 13.3 -3.8c4.5 0 8.1 0.8 10.9 2.5c2.7 1.7 4.5 3.6 5.2 5.9c0.7 2.2 1.1 5.7 1.1 10.4l0 18.7c0 5.8 0.3 9.3 0.8 10.4l-12.5 0c-0.4 -1.3 -0.7 -3.7 -0.7 -7.2c-3 5.5 -7.3 8.2 -13.2 8.2c-3.7 0 -6.8 -1.1 -9.1 -3.3c-2.3 -2.2 -3.5 -5.4 -3.5 -9.5c0 -5.2 1.8 -9.3 5.3 -12.2c3.6 -2.9 10 -4.6 19.4 -5.1l0 -1.8c0 -3.1 -0.3 -5.3 -1 -6.5c-0.6 -1.2 -1.9 -1.8 -3.8 -1.8c-3.5 0 -5.3 2.4 -5.7 7.2zm10.4 9.7c-3.9 0.4 -6.7 1.3 -8.4 2.5c-1.7 1.3 -2.5 3.4 -2.5 6.3c0 4 1.5 5.9 4.5 5.9c1.6 0 3.1 -0.9 4.4 -2.7c1.3 -1.8 2 -5 2 -9.8l0 -2.2z"></path><path fill="#000000" d="m514.9 123.7l12.7 0l0 6.4c2.2 -4.9 6.2 -7.3 12.1 -7.3c3.1 0 5.7 0.7 7.8 2.1c2 1.4 3.4 3.1 3.9 5.3c0.6 2.1 0.9 5.4 0.9 9.8l0 30.8l-13.4 0l0 -30.8c0 -3.2 -0.4 -5.1 -1.2 -5.9c-0.8 -0.7 -1.9 -1.1 -3.3 -1.1c-2.4 0 -4 0.7 -4.8 2.2c-0.8 1.4 -1.1 4.1 -1.1 8.1l0 27.5l-13.4 0l0 -47.1l-0.2 0z"></path><path fill="#000000" d="m585 107.2l13.2 0l0 63.4l-12.5 0l0 -7.8c-2 5.6 -5.7 8.4 -10.9 8.4c-5.2 0 -9 -2.2 -11.6 -6.6c-2.5 -4.4 -3.8 -10.2 -3.8 -17.3c0 -8.1 1.5 -14.2 4.4 -18.3c2.9 -4 6.8 -6 11.7 -6c4.5 0 7.7 1.7 9.6 5l0 -20.8l-0.1 0zm0 36.2c0 -4.6 -0.5 -7.7 -1.5 -9.3c-1 -1.6 -2.5 -2.3 -4.4 -2.3c-2.3 0 -3.8 1.1 -4.6 3.2c-0.8 2.2 -1.2 6.7 -1.2 13.5c0 5.1 0.4 8.6 1.3 10.7c0.9 2 2.4 3.1 4.4 3.1c1.7 0 3.2 -0.7 4.3 -2.1c1.1 -1.4 1.7 -4.2 1.7 -8.5l0 -8.3z"></path><path fill="#000000" d="m196 221.4l13.2 0l0 63.4l-12.5 0l0 -7.8c-2 5.6 -5.7 8.4 -10.9 8.4c-5.2 0 -9 -2.2 -11.6 -6.6c-2.5 -4.4 -3.8 -10.2 -3.8 -17.3c0 -8.1 1.5 -14.2 4.4 -18.3c2.9 -4 6.8 -6 11.7 -6c4.5 0 7.7 1.7 9.6 5l0 -20.8l-0.1 0zm0 36.2c0 -4.6 -0.5 -7.7 -1.5 -9.3c-1 -1.6 -2.5 -2.3 -4.4 -2.3c-2.3 0 -3.8 1.1 -4.6 3.2c-0.8 2.2 -1.2 6.7 -1.2 13.5c0 5.1 0.4 8.6 1.3 10.7c0.9 2 2.4 3.1 4.4 3.1c1.7 0 3.2 -0.7 4.3 -2.1c1.1 -1.4 1.7 -4.2 1.7 -8.5l0 -8.3z"></path><path fill="#000000" d="m256 261.4c0 16.3 -6.5 24.4 -19.5 24.4c-13 0 -19.6 -8.1 -19.6 -24.4c0 -16.3 6.5 -24.4 19.6 -24.4c13 0 19.5 8.1 19.5 24.4zm-13.8 0c0 -6 -0.4 -10 -1.3 -12.1c-0.8 -2.1 -2.3 -3.2 -4.4 -3.2c-2 0 -3.5 1 -4.4 3c-0.9 2 -1.3 6.1 -1.3 12.3c0 5.7 0.4 9.7 1.1 12c0.8 2.2 2.3 3.4 4.6 3.4c2.2 0 3.7 -1.1 4.5 -3.3c0.8 -2.3 1.2 -6.3 1.2 -12.1z"></path><path fill="#000000" d="m299.8 255.2l-12.5 0.5c-0.2 -2.9 -0.7 -5.1 -1.4 -6.5c-0.8 -1.5 -2 -2.2 -3.9 -2.2c-4.5 0 -6.8 4.6 -6.8 13.8c0 5.4 0.5 9.1 1.6 11.2c1.1 2.1 2.7 3.2 4.9 3.2c3.4 0 5.2 -2.9 5.5 -8.7l12.5 0.8c-1.1 12.3 -7.4 18.5 -18.9 18.5c-6.2 0 -10.9 -2 -14.2 -6.1c-3.3 -4.1 -4.9 -10.1 -4.9 -18.2c0 -8 1.7 -14.1 5.2 -18.3c3.4 -4.2 8.3 -6.3 14.5 -6.3c11.4 0.1 17.5 6.2 18.4 18.3z"></path><path fill="#000000" d="m307.1 221.4l13.4 0l0 34.6l13.5 -18.1l12.2 0l-12.2 15.8l13.4 31.2l-14.4 0l-7.5 -21.8l-4.9 6.6l0 15.2l-13.4 0l0 -63.5l-0.1 0z"></path><path fill="#000000" d="m388 263.6l-25.2 0l0 2.6c0 4.2 0.6 7 1.8 8.4c1.2 1.4 2.7 2.1 4.6 2.1c4.1 0 6.4 -2.7 6.9 -8l12 0.7c-2.1 10.9 -8.5 16.4 -19.1 16.4c-6.5 0 -11.5 -2.2 -14.9 -6.5c-3.4 -4.3 -5.1 -10.1 -5.1 -17.3c0 -8.1 1.8 -14.4 5.4 -18.7c3.6 -4.3 8.4 -6.4 14.5 -6.4c5.5 0 10 1.9 13.7 5.7c3.5 3.9 5.4 10.8 5.4 21zm-12.7 -7.6c0 -0.6 0 -1 0 -1.3c0 -6 -2.1 -9.1 -6.3 -9.1c-4.1 0 -6.2 3.5 -6.2 10.4l12.5 0l0 0z"></path><path fill="#000000" d="m395.8 237.9l11.8 0l0 11.3c2.1 -8 5.9 -11.9 11.4 -11.9c0.7 0 1.4 0.1 2.3 0.2l0 12.8c-1 -0.1 -1.7 -0.2 -2.2 -0.2c-6.5 0 -9.8 4.8 -9.8 14.5l0 20.2l-13.4 0l0 -46.9l-0.1 0z"></path><path fill="#000000" d="m458.9 249.2l-9.6 2.8c-1.3 -4.2 -3.6 -6.4 -7.1 -6.4c-2.8 0 -4.2 1.4 -4.2 4.1c0 1.5 0.5 2.7 1.6 3.5c1 0.8 3.2 1.8 6.5 2.9c3.7 1.3 6.4 2.4 8.1 3.3c1.7 1 3.2 2.4 4.3 4.3c1.2 1.9 1.8 4.2 1.8 6.7c0 4.3 -1.6 8 -4.8 10.9c-3.2 2.9 -7.7 4.4 -13.4 4.4c-10.8 0 -16.8 -4.7 -18 -14l10.7 -1.7c0.9 4.7 3.4 7 7.6 7c3.6 0 5.3 -1.5 5.3 -4.4c0 -1.5 -0.5 -2.7 -1.6 -3.5c-1 -0.8 -3.1 -1.7 -6.1 -2.6c-5.5 -1.7 -9.3 -3.8 -11.4 -6.3c-2.1 -2.4 -3.1 -5.3 -3.1 -8.5c0 -4.5 1.6 -8.1 4.9 -10.9c3.3 -2.7 7.3 -4.1 12.2 -4.1c8.6 0.3 14 4.3 16.3 12.5z"></path><path fill="#000000" d="m498.1 252.8l-12.7 -1.2c0.6 -4.7 2.7 -8.3 6.2 -10.9c3.5 -2.5 7.9 -3.8 13.3 -3.8c4.5 0 8.1 0.8 10.9 2.5c2.7 1.7 4.5 3.6 5.2 5.9c0.7 2.2 1.1 5.7 1.1 10.4l0 18.7c0 5.8 0.3 9.3 0.8 10.4l-12.5 0c-0.4 -1.3 -0.7 -3.7 -0.7 -7.2c-3 5.5 -7.3 8.2 -13.2 8.2c-3.7 0 -6.8 -1.1 -9.1 -3.3c-2.3 -2.2 -3.5 -5.4 -3.5 -9.5c0 -5.2 1.8 -9.3 5.3 -12.2c3.6 -2.9 10 -4.6 19.4 -5.1l0 -1.7c0 -3.1 -0.3 -5.3 -1 -6.5c-0.6 -1.2 -1.9 -1.8 -3.8 -1.8c-3.3999 -0.1 -5.2999 2.3 -5.6999 7.1zm10.4 9.7c-3.9 0.4 -6.7 1.3 -8.4 2.5c-1.7 1.3 -2.5 3.4 -2.5 6.3c0 4 1.5 5.9 4.5 5.9c1.6 0 3.1 -0.9 4.4 -2.7c1.3 -1.8 2 -5 2 -9.8l0 -2.2z"></path><path fill="#000000" d="m531.8 237.9l11.8 0l0 11.3c2.1 -8 5.9 -11.9 11.4 -11.9c0.7 0 1.4 0.1 2.3 0.2l0 12.8c-1 -0.1 -1.7 -0.2 -2.2 -0.2c-6.5 0 -9.8 4.8 -9.8 14.5l0 20.2l-13.4 0l0 -46.9l-0.1 0z"></path><path fill="#000000" d="m598.8 263.6l-25.2 0l0 2.6c0 4.2 0.6 7 1.8 8.4c1.2 1.4 2.7 2.1 4.6 2.1c4.1 0 6.4 -2.7 6.9 -8l12 0.7c-2.1 10.9 -8.5 16.4 -19.1 16.4c-6.5 0 -11.5 -2.2 -14.9 -6.5c-3.4 -4.3 -5.1 -10.1 -5.1 -17.3c0 -8.1 1.8 -14.4 5.4 -18.7c3.6 -4.3 8.4 -6.4 14.5 -6.4c5.5 0 10 1.9 13.7 5.7c3.6 3.9 5.4 10.8 5.4 21zm-12.7 -7.6c0 -0.6 0 -1 0 -1.3c0 -6 -2.1 -9.1 -6.3 -9.1c-4.1 0 -6.2 3.5 -6.2 10.4l12.5 0l0 0z"></path><path fill="#000000" d="m174.4 337.7l13.1 -0.4l0 14.8l8.9 0l0 10.3l-8.9 0l0 17.2c0 3.2 0.1 5.3 0.2 6.2c0.1 0.9 0.6 1.7 1.4 2.4c0.8 0.6 2.2 1 4.1 1c1 0 2.3 0 3.8 -0.1l0 9.9c-3 0.7 -5.7 1 -8.2 1c-4.1 0 -7.2 -0.8 -9.3 -2.3c-2.2 -1.5 -3.5 -3.4 -4.1 -5.7c-0.6 -2.3 -0.9 -5.9 -0.9 -10.9l0 -18.7l-5.3 0l0 -10.3l5.3 0l0 -14.4l-0.1 0z"></path><path fill="#000000" d="m202.4 335.6l13.4 0l0 21.5c2.4 -4 6.4 -5.9 11.8 -5.9c3.3 0 5.9 0.7 7.7 2.2c1.9 1.5 3.1 3.4 3.6 5.6c0.5 2.3 0.8 5.6 0.8 9.9l0 30.1l-13.4 0l0 -30.1c0 -3.1 -0.3 -5.1 -0.9 -6.1c-0.6 -1 -1.8 -1.5 -3.6 -1.5c-1.8 0 -3.3 0.5 -4.3 1.4c-1.1 1 -1.6 3.1 -1.6 6.6l0 29.8l-13.4 0l0 -63.5l-0.1 0z"></path><path fill="#000000" d="m286 377.8l-25.2 0l0 2.6c0 4.2 0.6 7 1.8 8.4c1.2 1.4 2.7 2.1 4.6 2.1c4.1 0 6.4 -2.7 6.9 -8l12 0.7c-2.1 10.9 -8.5 16.4 -19.1 16.4c-6.5 0 -11.5 -2.2 -14.9 -6.5c-3.4 -4.3 -5.1 -10.1 -5.1 -17.3c0 -8.1 1.8 -14.4 5.4 -18.7c3.6 -4.3 8.4 -6.4 14.5 -6.4c5.5 0 10 1.9 13.7 5.7c3.5 3.9 5.4 10.8 5.4 21zm-12.7 -7.6c0 -0.6 0 -1 0 -1.3c0 -6 -2.1 -9.1 -6.3 -9.1c-4.1 0 -6.2 3.5 -6.2 10.4l12.5 0z"></path><path fill="#000000" d="m348 369.4l-12.5 0.5c-0.2 -2.9 -0.7 -5.1 -1.4 -6.5c-0.8 -1.5 -2 -2.2 -3.9 -2.2c-4.5 0 -6.8 4.6 -6.8 13.8c0 5.4 0.5 9.1 1.6 11.2c1.1 2.1 2.7 3.2 4.9 3.2c3.4 0 5.2 -2.9 5.5 -8.7l12.5 0.8c-1.1 12.3 -7.4 18.5 -18.9 18.5c-6.2 0 -10.9 -2 -14.2 -6.1c-3.3 -4.1 -4.9 -10.1 -4.9 -18.2c0 -8 1.7 -14.1 5.2 -18.3c3.4 -4.2 8.3 -6.3 14.5 -6.3c11.3 0.1 17.4 6.2 18.4 18.3z"></path><path fill="#000000" d="m392.3 375.6c0 16.3 -6.5 24.4 -19.5 24.4c-13 0 -19.6 -8.1 -19.6 -24.4c0 -16.3 6.5 -24.4 19.6 -24.4c13 0 19.5 8.1 19.5 24.4zm-13.9 0c0 -6 -0.4 -10 -1.3 -12.1c-0.8 -2.1 -2.3 -3.2 -4.4 -3.2c-2 0 -3.5 1 -4.4 3c-0.9 2 -1.3 6.1 -1.3 12.3c0 5.7 0.4 9.7 1.1 12c0.8 2.2 2.3 3.4 4.6 3.4c2.2 0 3.7 -1.1 4.5 -3.3c0.9 -2.3 1.2 -6.3 1.2 -12.1z"></path><path fill="#000000" d="m437.2 375.6c0 16.3 -6.5 24.4 -19.5 24.4c-13 0 -19.6 -8.1 -19.6 -24.4c0 -16.3 6.5 -24.4 19.6 -24.4c13 0 19.5 8.1 19.5 24.4zm-13.8 0c0 -6 -0.4 -10 -1.3 -12.1c-0.8 -2.1 -2.3 -3.2 -4.4 -3.2c-2 0 -3.5 1 -4.4 3c-0.9 2 -1.3 6.1 -1.3 12.3c0 5.7 0.4 9.7 1.1 12c0.8 2.2 2.3 3.4 4.6 3.4c2.2 0 3.7 -1.1 4.5 -3.3c0.8 -2.3 1.2 -6.3 1.2 -12.1z"></path><path fill="#000000" d="m445 335.6l13.4 0l0 63.4l-13.4 0l0 -63.4z"></path><path fill="#000000" d="m505.4 377.8l-25.2 0l0 2.6c0 4.2 0.6 7 1.8 8.4c1.2 1.4 2.7 2.1 4.6 2.1c4.1 0 6.4 -2.7 6.9 -8l12 0.7c-2.1 10.9 -8.5 16.4 -19.1 16.4c-6.5 0 -11.5 -2.2 -14.9 -6.5c-3.4 -4.3 -5.1 -10.1 -5.1 -17.3c0 -8.1 1.8 -14.4 5.4 -18.7c3.6 -4.3 8.4 -6.4 14.5 -6.4c5.5 0 10 1.9 13.7 5.7c3.6 3.9 5.4 10.8 5.4 21zm-12.7 -7.6c0 -0.6 0 -1 0 -1.3c0 -6 -2.1 -9.1 -6.3 -9.1c-4.1 0 -6.2 3.5 -6.2 10.4l12.5 0z"></path><path fill="#000000" d="m545 363.4l-9.6 2.8c-1.3 -4.2 -3.6 -6.4 -7.1 -6.4c-2.8 0 -4.2 1.4 -4.2 4.1c0 1.5 0.5 2.7 1.6 3.5c1 0.8 3.2 1.8 6.5 2.9c3.7 1.3 6.4 2.4 8.1 3.3c1.7 1 3.2 2.4 4.3 4.3c1.2 1.9 1.8 4.2 1.8 6.7c0 4.3 -1.6 8 -4.8 10.9c-3.2 2.9 -7.7 4.4 -13.4 4.4c-10.8 0 -16.8 -4.7 -18 -14l10.7 -1.7c0.9 4.7 3.4 7 7.6 7c3.6 0 5.3 -1.5 5.3 -4.4c0 -1.5 -0.5 -2.7 -1.6 -3.5c-1 -0.8 -3.1 -1.7 -6.1 -2.6c-5.5 -1.7 -9.3 -3.8 -11.4 -6.3c-2.1 -2.4 -3.1 -5.3 -3.1 -8.5c0 -4.5 1.6 -8.1 4.9 -10.9c3.3 -2.7 7.3 -4.1 12.2 -4.1c8.5001 0.3 14.0001 4.3 16.3 12.5z"></path><path fill="#000000" d="m01507b.5 337.7l13.1 -0.4l0 14.8l8.9 0l0 10.3l-8.9 0l0 17.2c0 3.2 0.1 5.3 0.2 6.2c0.1 0.9 0.6 1.7 1.4 2.4c0.8 0.6 2.2 1 4.1 1c1 0 2.3 0 3.8 -0.1l0 9.9c-3 0.7 -5.7 1 -8.2 1c-4.1 0 -7.2 -0.8 -9.3 -2.3c-2.2 -1.5 -3.5 -3.4 -4.1 -5.7c-0.6 -2.3 -0.9 -5.9 -0.9 -10.9l0 -18.7l-5.3 0l0 -10.3l5.3 0l0 -14.4l-0.1 0z"></path><path fill="#000000" d="m174.4 451.9l13.1 -0.4l0 14.8l8.9 0l0 10.3l-8.9 0l0 17.2c0 3.2 0.1 5.3 0.2 6.2c0.1 0.9 0.6 1.7 1.4 2.4c0.8 0.6 2.2 1 4.1 1c1 0 2.3 0 3.8 -0.1l0 9.9c-3 0.7 -5.7 1 -8.2 1c-4.1 0 -7.2 -0.8 -9.3 -2.3c-2.2 -1.5 -3.5 -3.4 -4.1 -5.7c-0.6 -2.3 -0.9 -5.9 -0.9 -10.9l0 -18.7l-5.3 0l0 -10.3l5.3 0l0 -14.4l-0.1 0z"></path><path fill="#000000" d="m202.4 449.8l13.4 0l0 21.5c2.4 -4 6.4 -5.9 11.8 -5.9c3.3 0 5.9 0.7 7.7 2.2c1.9 1.5 3.1 3.4 3.6 5.6c0.5 2.3 0.8 5.6 0.8 9.9l0 30.1l-13.4 0l0 -30.1c0 -3.1 -0.3 -5.1 -0.9 -6.1c-0.6 -1 -1.8 -1.5 -3.6 -1.5c-1.8 0 -3.3 0.5 -4.3 1.4c-1.1 1 -1.6 3.1 -1.6 6.6l0 29.8l-13.4 0l0 -63.5l-0.1 0z"></path><path fill="#000000" d="m262.4 462.5l-13.6 0l0 -13l13.6 0l0 13zm-13.5 3.8l13.4 0l0 46.9l-13.4 0l0 -46.9z"></path><path fill="#000000" d="m272.2 466.3l12.7 0l0 6.4c2.2 -4.9 6.2 -7.3 12.1 -7.3c3.1 0 5.7 0.7 7.8 2.1c2 1.4 3.4 3.1 3.9 5.3c0.6 2.1 0.9 5.4 0.9 9.8l0 30.8l-13.4 0l0 -30.8c0 -3.2 -0.4 -5.1 -1.2 -5.9c-0.8 -0.7 -1.9 -1.1 -3.3 -1.1c-2.4 0 -4 0.7 -4.8 2.2c-0.8 1.4 -1.1 4.1 -1.1 8.1l0 27.5l-13.4 0l0 -47.1l-0.2 0z"></path><path fill="#000000" d="m359.7 458.6l0 8.6c-1 -0.2 -2 -0.4 -2.9 -0.4c-2.8 0 -4.5 1.4 -5.1 4.2c2.4 2.4 3.6 5.6 3.6 9.4c0 4.2 -1.6 7.6 -4.9 10.2c-3.2 2.6 -7.4 3.8 -12.6 3.8c-2 0 -4.1 -0.3 -6.2 -0.8c-2.1 1.1 -3.1 2.4 -3.1 3.9c0 1.2 0.6 2 1.8 2.3c1.2 0.4 4.4 0.7 9.6 1c4.8 0.3 8.4 0.7 10.8 1.4c2.4 0.7 4.4 2 6 4c1.6 2 2.4 4.7 2.4 7.9c0 10.5 -7.8 15.7 -23.5 15.7c-13.2 0 -19.7 -3.7 -19.7 -11.2c0 -4.1 2.6 -7 7.9 -8.7c-4.2 -1.9 -6.3 -4.6 -6.3 -8.1c0 -4 2.8 -7.5 8.3 -10.3c-4.8 -2.3 -7.2 -6.2 -7.2 -11.7c0 -4.7 1.6 -8.2 4.9 -10.7c3.3 -2.4 7.7 -3.7 13.2 -3.7c3.7 0 7.1 0.7 10.3 2c0.3 -3.3 1.2 -5.7 2.6 -7.2c1.4 -1.4 3.5 -2.1 6.4 -2.1c1.4001 0 2.6001 0.2 3.7001 0.5zm-28.5 52.6c-2.8 1.3 -4.2 3.2 -4.2 5.7c0 3.2 3.7 4.7 11.1 4.7c6.3 0 9.5 -1.6 9.5 -4.9c0 -1.2 -0.3 -2.2 -1 -3c-0.7 -0.8 -1.6 -1.2 -2.6 -1.4c-1.1 -0.2 -3.3 -0.4 -6.7 -0.5c-2.2 -0.2 -4.2 -0.3 -6.1 -0.6zm10.2 -31.2c0 -5 -1.4 -7.6 -4.2 -7.6c-1.7 0 -2.9 0.6 -3.6 1.8c-0.7 1.2 -1.1 3.2 -1.1 6.1c0 4.7 1.5 7.1 4.6 7.1c1.6 0 2.7 -0.6 3.3 -1.7c0.7 -1.1 1 -3 1 -5.7z"></path><path fill="#000000" d="m379.4 449.8l17.1 0l-4.2 44.5l-8.7 0l-4.2 -44.5zm1.9 49.4l13.3 0l0 14l-13.3 0l0 -14z"></path></g><g><path fill="#000" d="m505.8 452.1c-8.1 -13.5 -21.6 -22.9 -37.7 -22.9c-22.9 0 -40.4 17.5 -40.4 40.4c0 44.5 24.3 51.2 78.2 102.4c53.9 -51.2 78.2 -58 78.2 -102.4c0 -22.9 -17.5 -40.4 -40.4 -40.4c-16.4 0 -29.7999 9.4 -37.9 22.9z" opacity="0.49"></path><path fill="#e00000" d="m496 443.4c-8.1 -13.5 -21.6 -22.9 -37.7 -22.9c-22.9 0 -40.4 17.5 -40.4 40.4c0 44.5 24.3 51.2 78.2 102.4c53.9 -51.2 78.2 -58 78.2 -102.4c0 -22.9 -17.5 -40.4 -40.4 -40.4c-16.3 0 -29.8 9.5 -37.9 22.9z"></path><polygon points="463.8,430.4 456.6,427.8 450.2,429.1 441.5,433.5 433.5,440.3 428.3,447.8 423.3,456.9 426.4,460.7 434.7,456.5 440,449.7 443.6,444.2 454.3,437.6 463.8,436.5" fill="#fff"></polygon></g><rect fill="#fefadf" width="457.8" height="103.6" transform="translate(159.1 75.6)" style="animation-name: eaf-12abd-2, eaf-12abd-3, eaf-12abd-4; animation-composition: replace, add, add;"></rect><rect fill="#fefadf" width="474.8" height="92.8" transform="translate(152.5 210.2)" style="animation-name: eaf-12abd-5, eaf-12abd-6, eaf-12abd-7; animation-composition: replace, add, add;"></rect><rect fill="#fefadf" width="494.9" height="75.4" transform="translate(152.5 326.6)" style="animation-name: eaf-12abd-8, eaf-12abd-9, eaf-12abd-10; animation-composition: replace, add, add;"></rect><rect fill="#fefadf" width="436.3" height="168.7" transform="translate(169.95 413.15)" style="animation-name: eaf-12abd-11, eaf-12abd-12, eaf-12abd-13; animation-composition: replace, add, add;"></rect><path fill="#aaaaaa" d="m768 98.2c0 -6.5 -0.7 -13.2 -1.9 -19.6c-8.2 -43.4 -48.6 -76.7 -92.7 -76.7c-192 0 -384.1 0 -576.1 0.1c-6.6 0 -13.2 0.6 -19.6 1.9c-43.4 8.2 -76.7 48.6 -76.7 92.7c0 192.3 0 384.6 0 577c0 4.2 0.3 8.4 0.9 12.5c6.1 46.8 47.2 82.9 94.2 82.9c191.9 0 383.8 0 575.7 -0.1c6.5 0 13.2 -0.7 19.6 -1.9c43.4 -8.3 76.7 -48.6 76.7 -92.7c0 -96.3 0 -192.6 0 -288.8c0 -95.7 0 -191.5 -0.1 -287.3zm-86.6 333.5c0 81.1 -65.6 146.7 -146.7 146.7c-18.2 0 -35.5 8.2 -47.4 21l-86.5 97.5c-10 11.8 -30.1 11.8 -40.1 0l-86.5 -97.5c-11.8 -13.7 -29.2 -21 -47.4 -21c-81.1 0 -146.7 -65.6 -146.7 -146.7l0 -235c0 -81.1 65.6 -146.7 146.7 -146.7l307.9 0c81.1 0 146.7 65.6 146.7 146.7l0 235z"></path><path fill="#000000" d="m534.7 13.6l-307.9 0c-101.1 0 -183.1 82 -183.1 183.1l0 235c0 100.2 82 182.2 183.1 182.2c7.3 0 14.6 3.6 20 9.1l86.5 97.5c11.8 13.7 29.2 21.9 47.4 21.9c18.2 0 35.5 -8.2 47.4 -21l86.5 -97.5c5.5 -5.5 12.8 -9.1 20 -9.1c101.1 0 183.1 -82 183.1 -183.1l0 -235c0.1 -101.1 -81.9 -183.1 -182.9999 -183.1zm146.7 418.1c0 81.1 -65.6 146.7 -146.7 146.7c-18.2 0 -35.5 8.2 -47.4 21l-86.5 97.5c-10 11.8 -30.1 11.8 -40.1 0l-86.5 -97.5c-11.8 -13.7 -29.2 -21 -47.4 -21c-81.1 0 -146.7 -65.6 -146.7 -146.7l0 -235c0 -81.1 65.6 -146.7 146.7 -146.7l307.9 0c81.1 0 146.7 65.6 146.7 146.7l0 235z"></path><path fill="#000000" d="m560.8 26.6l-308 0c-101.1 0 -183.1 82 -183.1 183.1l0 235c0 100.2 82 182.2 183.1 182.2c7.3 0 14.6 3.6 20 9.1l86.5 97.5c11.8 13.7 29.2 21.9 47.4 21.9c18.2 0 35.5 -8.2 47.4 -21l86.5 -97.5c5.5 -5.5 12.8 -9.1 20 -9.1c101.1 0 183.1 -82 183.1 -183.1l0 -235c0.2001 -101.1 -81.7999 -183.1 -182.9 -183.1zm120.6 405.1c0 81.1 -65.6 146.7 -146.7 146.7c-18.2 0 -35.5 8.2 -47.4 21l-86.5 97.5c-10 11.8 -30.1 11.8 -40.1 0l-86.5 -97.5c-11.8 -13.7 -29.2 -21 -47.4 -21c-81.1 0 -146.7 -65.6 -146.7 -146.7l0 -235c0 -81.1 65.6 -146.7 146.7 -146.7l307.9 0c81.1 0 146.7 65.6 146.7 146.7l0 235z"></path></g></g></svg>