<svg xmlns="http://www.w3.org/2000/svg" viewBox="0 0 500 500" overflow="hidden" preserveAspectRatio="xMidYMid meet" id="eaf-83f1-0">
    <defs>
        <clipPath id="eaf-83f1-1"><rect x="0" y="0" width="500" height="500"></rect></clipPath>
        <style>
            #eaf-83f1-0 * {
                animation: 8000ms linear infinite normal both running;
                offset-rotate: 0deg;
            }
            @keyframes eaf-83f1-2 {
                0% {
                    opacity: 1;
                }
                10.41% {
                    opacity: 1;
                }
                11.25% {
                    opacity: 0;
                }
                80.41% {
                    opacity: 0;
                }
                97.09%,
                100% {
                    opacity: 1;
                }
            }
            @keyframes eaf-83f1-3 {
                0%,
                0.41% {
                    opacity: 1;
                }
                15% {
                    opacity: 1;
                }
                15.84% {
                    opacity: 0;
                }
                80.41% {
                    opacity: 0;
                }
                94.59%,
                100% {
                    opacity: 1;
                }
            }
            @keyframes eaf-83f1-4 {
                0% {
                    opacity: 1;
                }
                19.16% {
                    opacity: 1;
                }
                19.59% {
                    opacity: 0;
                }
                80.41% {
                    opacity: 0;
                }
                90.84%,
                100% {
                    opacity: 1;
                }
            }
            @keyframes eaf-83f1-5 {
                0% {
                    opacity: 1;
                }
                24.16% {
                    opacity: 1;
                }
                25% {
                    opacity: 0;
                }
                80.41% {
                    opacity: 0;
                }
                87.93%,
                100% {
                    opacity: 1;
                }
            }
            @keyframes eaf-83f1-6 {
                0%,
                100% {
                    transform: none;
                    offset-path: path("m-158.6278 238.323l0 0l534.0987 0l-538.0987 0");
                }
            }
            @keyframes eaf-83f1-7 {
                0% {
                    offset-distance: 0%;
                }
                25% {
                    offset-distance: 0%;
                }
                43.75% {
                    offset-distance: 49.8135%;
                }
                68.75%,
                100% {
                    offset-distance: 100%;
                }
            }
            @keyframes eaf-83f1-8 {
                0% {
                    transform: scale(1, 1);
                }
                43.75% {
                    transform: scale(1, 1);
                }
                45.84% {
                    transform: scale(0.71, 0.71);
                }
                46.25%,
                100% {
                    transform: scale(-0.71, 0.71);
                }
            }
            @keyframes eaf-83f1-9 {
                0%,
                100% {
                    transform: translate(-162.65px, -238.323px);
                }
            }
            @keyframes eaf-83f1-10 {
                0% {
                    opacity: 0;
                }
                2.5% {
                    opacity: 0;
                    animation-timing-function: step-start;
                }
                5% {
                    opacity: 1;
                    animation-timing-function: step-start;
                }
                7.5% {
                    opacity: 0;
                    animation-timing-function: step-start;
                }
                10% {
                    opacity: 1;
                    animation-timing-function: step-start;
                }
                12.5% {
                    opacity: 0;
                    animation-timing-function: step-start;
                }
                15% {
                    opacity: 1;
                    animation-timing-function: step-start;
                }
                17.5% {
                    opacity: 0;
                    animation-timing-function: step-start;
                }
                20% {
                    opacity: 1;
                    animation-timing-function: step-start;
                }
                22.5% {
                    opacity: 0;
                    animation-timing-function: step-start;
                }
                25% {
                    opacity: 1;
                    animation-timing-function: step-start;
                }
                27.5% {
                    opacity: 0;
                    animation-timing-function: step-start;
                }
                30% {
                    opacity: 1;
                    animation-timing-function: step-start;
                }
                32.5% {
                    opacity: 0;
                    animation-timing-function: step-start;
                }
                35% {
                    opacity: 1;
                    animation-timing-function: step-start;
                }
                37.5% {
                    opacity: 0;
                    animation-timing-function: step-start;
                }
                40% {
                    opacity: 1;
                    animation-timing-function: step-start;
                }
                42.5% {
                    opacity: 0;
                    animation-timing-function: step-start;
                }
                45% {
                    opacity: 1;
                    animation-timing-function: step-start;
                }
                47.5% {
                    opacity: 0;
                    animation-timing-function: step-start;
                }
                50% {
                    opacity: 1;
                    animation-timing-function: step-start;
                }
                52.5% {
                    opacity: 0;
                    animation-timing-function: step-start;
                }
                55% {
                    opacity: 1;
                    animation-timing-function: step-start;
                }
                57.5% {
                    opacity: 0;
                    animation-timing-function: step-start;
                }
                60% {
                    opacity: 1;
                    animation-timing-function: step-start;
                }
                62.5% {
                    opacity: 0;
                    animation-timing-function: step-start;
                }
                65% {
                    opacity: 1;
                    animation-timing-function: step-start;
                }
                67.5% {
                    opacity: 0;
                    animation-timing-function: step-start;
                }
                70% {
                    opacity: 1;
                    animation-timing-function: step-start;
                }
                72.5% {
                    opacity: 0;
                    animation-timing-function: step-start;
                }
                75% {
                    opacity: 1;
                    animation-timing-function: step-start;
                }
                77.5% {
                    opacity: 0;
                    animation-timing-function: step-start;
                }
                80% {
                    opacity: 1;
                    animation-timing-function: step-start;
                }
                82.5% {
                    opacity: 0;
                    animation-timing-function: step-start;
                }
                85% {
                    opacity: 1;
                    animation-timing-function: step-start;
                }
                87.5% {
                    opacity: 0;
                    animation-timing-function: step-start;
                }
                90% {
                    opacity: 1;
                    animation-timing-function: step-start;
                }
                92.5% {
                    opacity: 0;
                    animation-timing-function: step-start;
                }
                95% {
                    opacity: 1;
                    animation-timing-function: step-start;
                }
                97.5% {
                    opacity: 0;
                    animation-timing-function: step-start;
                }
                100% {
                    opacity: 1;
                }
            }
            @keyframes eaf-83f1-11 {
                0% {
                    opacity: 1;
                }
                2.5% {
                    opacity: 1;
                    animation-timing-function: step-start;
                }
                4.99% {
                    opacity: 0;
                }
                5% {
                    opacity: 0;
                    animation-timing-function: step-start;
                }
                7.5% {
                    opacity: 1;
                    animation-timing-function: step-start;
                }
                10% {
                    opacity: 0;
                    animation-timing-function: step-start;
                }
                12.5% {
                    opacity: 1;
                    animation-timing-function: step-start;
                }
                15% {
                    opacity: 0;
                    animation-timing-function: step-start;
                }
                17.5% {
                    opacity: 1;
                    animation-timing-function: step-start;
                }
                19.99% {
                    opacity: 0;
                }
                20% {
                    opacity: 0;
                    animation-timing-function: step-start;
                }
                22.5% {
                    opacity: 1;
                    animation-timing-function: step-start;
                }
                25% {
                    opacity: 0;
                    animation-timing-function: step-start;
                }
                27.5% {
                    opacity: 1;
                    animation-timing-function: step-start;
                }
                30% {
                    opacity: 0;
                    animation-timing-function: step-start;
                }
                32.5% {
                    opacity: 1;
                    animation-timing-function: step-start;
                }
                34.99% {
                    opacity: 0;
                }
                35% {
                    opacity: 0;
                    animation-timing-function: step-start;
                }
                37.5% {
                    opacity: 1;
                    animation-timing-function: step-start;
                }
                40% {
                    opacity: 0;
                    animation-timing-function: step-start;
                }
                42.5% {
                    opacity: 1;
                    animation-timing-function: step-start;
                }
                45% {
                    opacity: 0;
                    animation-timing-function: step-start;
                }
                47.5% {
                    opacity: 1;
                    animation-timing-function: step-start;
                }
                49.99% {
                    opacity: 0;
                }
                50% {
                    opacity: 0;
                    animation-timing-function: step-start;
                }
                52.5% {
                    opacity: 1;
                    animation-timing-function: step-start;
                }
                55% {
                    opacity: 0;
                    animation-timing-function: step-start;
                }
                57.5% {
                    opacity: 1;
                    animation-timing-function: step-start;
                }
                60% {
                    opacity: 0;
                    animation-timing-function: step-start;
                }
                62.5% {
                    opacity: 1;
                    animation-timing-function: step-start;
                }
                64.99% {
                    opacity: 0;
                }
                65% {
                    opacity: 0;
                    animation-timing-function: step-start;
                }
                67.5% {
                    opacity: 1;
                    animation-timing-function: step-start;
                }
                70% {
                    opacity: 0;
                    animation-timing-function: step-start;
                }
                72.5% {
                    opacity: 1;
                    animation-timing-function: step-start;
                }
                75% {
                    opacity: 0;
                    animation-timing-function: step-start;
                }
                77.5% {
                    opacity: 1;
                    animation-timing-function: step-start;
                }
                79.99% {
                    opacity: 0;
                }
                80% {
                    opacity: 0;
                    animation-timing-function: step-start;
                }
                82.5% {
                    opacity: 1;
                    animation-timing-function: step-start;
                }
                85% {
                    opacity: 0;
                    animation-timing-function: step-start;
                }
                87.5% {
                    opacity: 1;
                    animation-timing-function: step-start;
                }
                90% {
                    opacity: 0;
                    animation-timing-function: step-start;
                }
                92.5% {
                    opacity: 1;
                    animation-timing-function: step-start;
                }
                94.99% {
                    opacity: 0;
                }
                95% {
                    opacity: 0;
                    animation-timing-function: step-start;
                }
                97.5% {
                    opacity: 1;
                    animation-timing-function: step-start;
                }
                100% {
                    opacity: 0;
                }
            }
            @keyframes eaf-83f1-12 {
                0%,
                100% {
                    transform: none;
                    offset-path: path("m-181.2778 249.7l904.4648 0l0 0l-948.087 -1.5265");
                }
            }
            @keyframes eaf-83f1-13 {
                0% {
                    offset-distance: 0%;
                }
                31.25% {
                    offset-distance: 48.8226%;
                }
                52.5% {
                    offset-distance: 48.8226%;
                }
                85%,
                100% {
                    offset-distance: 100%;
                }
            }
            @keyframes eaf-83f1-14 {
                0% {
                    transform: rotate(0);
                }
                31.25% {
                    transform: rotate(0);
                }
                33.34%,
                100% {
                    transform: rotate(-180deg);
                }
            }
            @keyframes eaf-83f1-15 {
                0% {
                    transform: scale(0.8, 0.8);
                }
                31.25% {
                    transform: scale(0.8, 0.8);
                }
                32.09% {
                    transform: scale(1, 1);
                }
                33.34%,
                100% {
                    transform: scale(1.1, 1.1);
                }
            }
            @keyframes eaf-83f1-16 {
                0%,
                100% {
                    transform: translate(-265.9px, -249.7px);
                }
            }
        </style>
    </defs>
    <g clip-path="url('#eaf-83f1-1')" style="isolation: isolate;">
        <g>
            <g transform="matrix(4 0 0 4 -827.28 -2254.5264)">
                <path
                    fill="#888888"
                    d="m331.8 626.1c0 15.6 0 31.3 0 46.9c0 7.2 -5.4 13.7 -12.5 15.1c-1 0.2 -2.1 0.3 -3.2 0.3c-31.2 0 -62.4 0 -93.6 0c-7.6 0 -14.3 -5.9 -15.3 -13.5c-0.1 -0.7 -0.1 -1.4 -0.1 -2c0 -31.3 0 -62.5 0 -93.8c0 -7.2 5.4 -13.7 12.5 -15.1c1 -0.2 2.1 -0.3 3.2 -0.3c31.2 0 62.4 0 93.6 0c7.2 0 13.7 5.4 15.1 12.5c0.2 1 0.3 2.1 0.3 3.2c0 15.6 0 31.1 0 46.7z"
                ></path>
            </g>
            <g>
                <ellipse fill="#000000" rx="47" ry="47" transform="translate(50.2 246.1)" style="animation-name: eaf-83f1-2;"></ellipse>
                <ellipse fill="#000000" rx="47" ry="47" transform="translate(183.7 246.1)" style="animation-name: eaf-83f1-3;"></ellipse>
                <ellipse fill="#000000" rx="47" ry="47" transform="translate(317.3 246.1)" style="animation-name: eaf-83f1-4;"></ellipse>
                <ellipse fill="#000000" rx="47" ry="47" transform="translate(450.8 246.1)" style="animation-name: eaf-83f1-5;"></ellipse>
            </g>
            <g transform="translate(-321.2778 0)" style="animation-name: eaf-83f1-6, eaf-83f1-7, eaf-83f1-8, eaf-83f1-9; animation-composition: replace, add, add, add;">
                <path
                    fill="#000000"
                    d="m7.9 290.2c0 -25 0 -49.9 0 -74.9c0.1 -36.1 11.2 -68.6 33.8 -96.8c22.8 -28.5 52.3 -46.9 88.2 -54.6c38.3 -8.2 74.9 -2.7 109 16.6c33.1 18.7 56.1 46.2 69.3 81.9c6.4 17.3 9.2 35.3 9.2 53.8c-0.1 53.2 0 106.4 -0.1 159.6c0 2.2 -0.5 4.7 -1.5 6.7c-5.9 11.7 -13.7 21.9 -25.3 28.5c-10.6 6 -21.8 7.3 -33.2 2.5c-5.4 -2.3 -9.7 -6.4 -13.7 -10.6c-3.4 -3.5 -6.7 -7.2 -10.1 -10.7c-4.6 -4.6 -10.1 -7.2 -16.8 -7c-5 0.2 -9.4 1.5 -13.1 4.9c-3 2.8 -5.7 5.8 -8.5 8.7c-2.7 2.7 -5.3 5.5 -8 8.1c-8.1 7.7 -17.9 10 -28.7 9.1c-8.3 -0.7 -15.2 -4.3 -21 -10c-2.9 -2.8 -5.5 -5.8 -8.3 -8.7c-2 -2.1 -4 -4.2 -6 -6.3c-7.8 -8.1 -20 -6.9 -26.4 -2.6c-3.6 2.5 -6.9 5.5 -10.2 8.6c-3.5 3.2 -6.7 6.8 -10.2 10.1c-12.4 11.7 -26.8 11.3 -39.3 3.9c-12.3 -7.2 -20.9 -18 -28.1 -30c-0.8 -1.3 -0.9 -3.1 -0.9 -4.6c-0.1 -28.7 -0.1 -57.4 -0.1 -86.2zm293.9 1.2c0 -25.3 0 -50.5 0 -75.8c0 -10.2 -0.9 -20.2 -3.1 -30.1c-8.2 -36.4 -27.6 -65.3 -58.5 -86c-33.2 -22.2 -69.7 -28.7 -108.6 -20.1c-30.9 6.8 -56.4 22.8 -76.5 47.2c-21.1 25.5 -31.6 55.1 -31.7 88.2c-0.1 53.1 0 106.1 0 159.2c0 1 0.3 2.1 0.9 2.8c2.7 3.7 5.4 7.4 8.4 10.8c4.6 5.2 9.7 9.8 16.4 12.2c5 1.8 9.9 1.4 14.1 -2c3.5 -2.8 6.6 -6.1 9.9 -9.2c4.3 -4 8.3 -8.3 13.1 -11.7c11.5 -8.2 24.1 -9.3 37.1 -4.2c6.4 2.5 11.1 7.6 15.7 12.6c3 3.3 5.9 6.7 9.2 9.7c8.4 7.8 20.1 7.9 28.7 0.4c1.8 -1.6 3.4 -3.3 5.1 -5c3.3 -3.4 6.4 -7.1 9.9 -10.3c11.5 -10.9 29.1 -13.4 42.6 -6.2c5 2.6 9 6.4 12.9 10.4c3.6 3.7 7 7.5 10.7 11.2c2.5 2.5 5.5 4.4 9.2 5.1c7.2 1.3 13.5 -0.9 19.2 -5.2c6.3 -4.8 10.9 -10.9 14.7 -17.8c0.6 -1 0.9 -2.3 0.9 -3.5c-0.3 -27.6 -0.3 -55.2 -0.3 -82.7z"
                ></path>
                <path
                    fill="#2ad346"
                    d="m301.8 291.4c0 27.5 0 55.1 0 82.6c0 1.2 -0.3 2.4 -0.9 3.5c-3.8 6.8 -8.4 13 -14.7 17.8c-5.7 4.3 -12 6.5 -19.2 5.2c-3.6 -0.7 -6.6 -2.6 -9.2 -5.1c-3.7 -3.6 -7.1 -7.4 -10.7 -11.2c-3.9 -4 -7.9 -7.8 -12.9 -10.4c-13.5 -7.2 -31.1 -4.7 -42.6 6.2c-3.5 3.3 -6.6 6.9 -9.9 10.3c-1.7 1.7 -3.3 3.5 -5.1 5c-8.6 7.6 -20.3 7.5 -28.7 -0.4c-3.2 -3 -6.1 -6.4 -9.2 -9.7c-4.6 -5 -9.3 -10.1 -15.7 -12.6c-13 -5.1 -25.6 -4 -37.1 4.2c-4.7 3.4 -8.8 7.8 -13.1 11.7c-3.3 3 -6.4 6.3 -9.9 9.2c-4.2 3.4 -9 3.8 -14.1 2c-6.7 -2.4 -11.8 -7 -16.4 -12.2c-3 -3.4 -5.7 -7.1 -8.4 -10.8c-0.6 -0.8 -0.9 -1.9 -0.9 -2.8c0 -53.1 -0.1 -106.1 0 -159.2c0.1 -33.1 10.6 -62.7 31.7 -88.2c20.1 -24.4 45.7 -40.3 76.5 -47.2c38.9 -8.6 75.4 -2 108.6 20.1c30.9 20.7 50.3 49.6 58.5 86c2.2 9.9 3.1 20 3.1 30.1c0.3 25.4 0.3 50.6 0.3 75.9zm-131.8 -107.1c0.1 0 0.2 0 0.3 0c0 -5.1 0 -10.2 0 -15.3c-0.1 -20 -14.4 -36.2 -34.2 -38.7c-22.4 -2.8 -42.8 14.9 -43.1 37.5c-0.1 10.9 -0.2 21.8 0.1 32.7c0.1 3.9 0.8 7.9 2 11.5c6.2 17.8 22.7 28 41.5 26c17 -1.9 31.6 -16.3 33.2 -33.4c0.7 -6.8 0.2 -13.6 0.2 -20.3zm31.6 -0.2c-0.1 0 -0.2 0 -0.4 0c0 5 0 10.1 0 15.1c0 20.1 14.3 36.3 34.3 38.9c22.1 2.8 42.7 -14.9 43 -37.2c0.2 -11.1 0.1 -22.3 0 -33.5c0 -5 -1.2 -9.8 -3.3 -14.4c-8.4 -18 -27.3 -26.7 -46.4 -21.4c-14.2 4 -25.8 17.4 -27.1 32c-0.6 6.8 -0.1 13.7 -0.1 20.5z"
                ></path>
                <path
                    fill="#000000"
                    d="m170 184.3c0 6.8 0.5 13.6 -0.1 20.3c-1.6 17.1 -16.2 31.5 -33.2 33.4c-18.8 2.1 -35.3 -8.1 -41.5 -26c-1.3 -3.6 -1.9 -7.7 -2 -11.5c-0.3 -10.9 -0.2 -21.8 -0.1 -32.7c0.3 -22.6 20.7 -40.3 43.1 -37.5c19.8 2.5 34.2 18.7 34.2 38.7c0 5.1 0 10.2 0 15.3c-0.2 0 -0.3 0 -0.4 0zm-15.2 1.8c0 -6.4 0 -12.6 0 -18.8c0 -0.7 -0.2 -1.4 -0.3 -2.1c-1.8 -11.9 -12.4 -20.4 -24.6 -19.6c-11.7 0.8 -21.3 10.5 -21.5 22.4c-0.2 10.8 -0.3 21.7 0 32.5c0.3 9.8 5.3 16.9 14.3 20.7c9.1 3.8 17.5 1.9 24.9 -4.6c0.3 -0.3 0.6 -0.7 1 -1.2c-8.2 -0.4 -13.4 -3.5 -15.8 -9.6c-2.4 -6.1 -1.5 -11.8 3 -16.5c5.4 -5.8 11.9 -6.5 19 -3.2z"
                ></path>
                <path
                    fill="#000000"
                    d="m201.6 184.1c0 -6.8 -0.5 -13.7 0.1 -20.5c1.3 -14.7 12.9 -28 27.1 -32c19.1 -5.4 38.1 3.3 46.4 21.4c2.1 4.5 3.3 9.4 3.3 14.4c0.1 11.2 0.2 22.3 0 33.5c-0.3 22.3 -20.9 40 -43 37.2c-20 -2.5 -34.3 -18.7 -34.3 -38.9c0 -5 0 -10.1 0 -15.1c0.2 0 0.3 0 0.4 0zm61.5 1.8c0 -6.4 0.4 -12.9 -0.1 -19.3c-0.8 -11.6 -10.6 -20.7 -22.1 -21.1c-13.3 -0.5 -24 9.7 -24.2 23c-0.1 10.2 0 20.4 0 30.5c0 15.1 12.4 25.7 27.3 23.4c5.1 -0.8 9.4 -3.2 13.2 -7.3c-5.5 0.2 -10 -1.4 -13.4 -5.3c-3.4 -4 -4.6 -8.6 -3.4 -13.7c2.1 -9.7 11 -13.7 22.7 -10.2z"
                ></path>
                <path
                    fill="#fff"
                    d="m154.8 186.1c-7.1 -3.2 -13.6 -2.6 -18.9 3c-4.5 4.7 -5.4 10.4 -3 16.5c2.4 6.1 7.6 9.2 15.8 9.6c-0.4 0.5 -0.6 0.9 -1 1.2c-7.4 6.6 -15.8 8.4 -24.9 4.6c-9 -3.7 -14 -10.9 -14.3 -20.7c-0.3 -10.8 -0.2 -21.7 0 -32.5c0.2 -11.8 9.7 -21.6 21.5 -22.4c12.1 -0.8 22.8 7.7 24.6 19.6c0.1 0.7 0.3 1.4 0.3 2.1c-0.1 6.3 -0.1 12.5 -0.1 19z"
                ></path>
                <path
                    fill="#fff"
                    d="m263.1 185.9c-11.7 -3.5 -20.6 0.5 -22.7 10.2c-1.1 5.1 0 9.7 3.4 13.7c3.4 4 7.9 5.5 13.4 5.3c-3.8 4.1 -8.1 6.5 -13.2 7.3c-14.9 2.3 -27.2 -8.3 -27.3 -23.4c0 -10.2 -0.1 -20.4 0 -30.5c0.1 -13.3 10.9 -23.5 24.2 -23c11.5 0.4 21.3 9.5 22.1 21.1c0.4 6.4 0.1 12.9 0.1 19.3z"
                ></path>
            </g>
            <g transform="matrix(0.8 0 0 0.8 -393.9978 49.94)" style="animation-name: eaf-83f1-12, eaf-83f1-13, eaf-83f1-14, eaf-83f1-15, eaf-83f1-16; animation-composition: replace, add, add, add, add;">
                <g opacity="0" style="animation-name: eaf-83f1-10;">
                    <ellipse fill="#000000" rx="196.9" ry="196.9" transform="translate(265.9 249.7)"></ellipse>
                    <ellipse fill="#fbe09d" rx="176.9" ry="176.9" transform="translate(265.9 249.7)"></ellipse>
                </g>
                <g style="animation-name: eaf-83f1-11;">
                    <path
                        fill="#000000"
                        d="m287.2 252l140.1 -74.8l17.7 -9.4c-2.8 -6.1 -5.9 -12 -9.3 -17.7c-34.3 -58.1 -97.5 -97.2 -169.8 -97.2c-108.6 -0.2 -196.9 88.2 -196.9 196.8c0 108.6 88.3 196.9 196.9 196.9c70.8 0 133 -37.5 167.7 -93.8c3.5 -5.7 6.7 -11.5 9.6 -17.5l-17.7 -9.4l-138.3 -73.9z"
                    ></path>
                    <path fill="#fbe09d" d="m265.9 426.6c-97.5 0 -176.9 -79.4 -176.9 -176.9c0 -97.5 79.4 -177 176.9 -177c64.6 0 121.2 34.8 152.1 86.7l-173.3 92.6l171.2 91.4c-31.3 49.9 -86.8 83.2 -150 83.2z"></path>
                </g>
            </g>
        </g>
    </g>
</svg>
