<svg xmlns="http://www.w3.org/2000/svg" viewBox="0 0 769 769" overflow="hidden" preserveAspectRatio="xMidYMid meet" id="eaf-13114-0"><defs><clipPath id="eaf-13114-1"><rect x="0" y="0" width="769" height="769"></rect></clipPath><style>#eaf-13114-0 * {animation: 6000ms linear infinite normal both running;offset-rotate:0deg}@keyframes eaf-13114-2{0%{opacity:1}16.67%{opacity:1;animation-timing-function:ease-in-out}17.78%{opacity:0}23.88%{opacity:0;animation-timing-function:ease-in-out}25.02%{opacity:1}29.45%{opacity:1;animation-timing-function:ease-in-out}30.57%{opacity:0}36.67%{opacity:0;animation-timing-function:ease-in-out}37.8%,100%{opacity:1}}@keyframes eaf-13114-3{0%,100%{transform:translate(384.5145px,303.3111px)}}@keyframes eaf-13114-4{0%{transform:scale(1,1)}16.67%{transform:scale(1,1);animation-timing-function:ease-in-out}20%{transform:scale(1,-0.0001);animation-timing-function:ease-in-out}25.58%{transform:scale(1,1)}29.45%{transform:scale(1,1);animation-timing-function:ease-in-out}32.78%{transform:scale(1,-0.0001);animation-timing-function:ease-in-out}38.37%,100%{transform:scale(1,1)}}@keyframes eaf-13114-5{0%,100%{transform:translate(-384.5145px,-303.3111px)}}</style></defs><g clip-path="url('#eaf-13114-1')" style="isolation: isolate;"><g><path fill="#666666" d="m768.1 385.5c0 96.2 0 192.5 0 288.8c0 44.1 -33.3 84.4 -76.7 92.7c-6.4 1.2 -13.1 1.9 -19.6 1.9c-191.9 0.1 -383.8 0.1 -575.7 0.1c-47 0 -88.1 -36.1 -94.2 -82.9c-0.6 -4.1 -0.9 -8.3 -0.9 -12.5c0 -192.4 0 -384.7 0 -577c0 -44.1 33.3 -84.5 76.7 -92.7c6.4 -1.3 13 -1.9 19.6 -1.9c192 -0.1 384.1 -0.1 576.1 -0.1c44.1 0 84.5 33.3 92.7 76.7c1.2 6.4 1.9 13.1 1.9 19.6c0.1 95.8 0.1 191.6 0.1 287.3z"></path><g><path fill="#000000" d="m140.7 749.4c-14 0 -25.4 -11.4 -25.4 -25.4l0 -30.5c0 -39.8 32.4 -72.1 72.1 -72.1l47.2 0c26.6 0 50 -18.9 55.7 -44.9l1.6 -7.4l-7 -2.7c-52.8 -20.1 -98 -55.2 -130.6 -101.7c-33.4 -47.5 -51.1 -103.3 -51.1 -161.4c0 -155.1 126.2 -281.3 281.3 -281.3c155.1 0 281.3 126.2 281.3 281.3c0 58.1 -17.7 113.9 -51.1 161.4c-32.7 46.4 -77.8 81.6 -130.6 101.7l-7 2.7l1.6 7.4c5.6 26 29.1 44.9 55.7 44.9l47.2 0c39.8 0 72.1 32.4 72.1 72.1l0 30.5c0 14 -11.4 25.4 -25.4 25.4l-487.6 0z"></path><path fill="#e1f3fd" d="m129.6 339.3c13 -6.8 21.8 -20.4 21.8 -36c0 -15.6 -8.8 -29.2 -21.8 -36c17.6 -125 125.2 -221.4 254.9 -221.4c129.7 0 237.3 96.5 254.9 221.4c-13 6.8 -21.8 20.3 -21.8 36c0 15.6 8.8 29.2 21.8 36c-17.6 125 -125.2 221.4 -254.9 221.4c-129.7 0 -237.3 -96.4999 -254.9 -221.4z"></path><path fill="#e1f3fd" d="m186.3 645.3l47.2 0c37.7 0 70.6 -34.1 79.6 -69c22.9 5.8 46.8 8.9 71.5 8.9c24.7 0 48.6 -3.1 71.5 -8.9c9 34.9 39.5 69 77.1 69l47.2 0c24.3 0 44.5 18.1 47.8 57l-489.7 0c3.3 -38.9 23.4 -57 47.8 -57z"></path><path fill="#ffefae" d="m629.7 724c0 0.8 -0.7 1.5 -1.5 1.5l-487.5 0c-0.8 0 -1.5 -0.7 -1.5 -1.5l0 -4.5l490.5 0l0 4.5z"></path><polygon points="351.7,59.6 312.2,66 272.2,83.1 234.4,107.9 213.8,133.9 212.4,153.1 222.8,157.5 250.5,127.7 270.6,112.4 292,98.1 319,87.2 340.2,86.6 366.6,86.4 375.9,64.4" fill="#fff"></polygon></g><g style="filter: drop-shadow(rgb(85, 85, 85) 8px 8px 10px);"><g style="animation-name: eaf-13114-3, eaf-13114-4, eaf-13114-5; animation-composition: replace, add, add;"><ellipse fill="#000000" rx="179.1" ry="179.1" transform="matrix(0.9993 -0.0384 0.0384 0.9993 384.5145 303.3111)"></ellipse><path fill="#f7e79c" d="m228.7 303.3c0 -85.9 69.9 -155.8 155.8 -155.8c85.9 0 155.8 69.9 155.8 155.8c0 85.9 -69.9 155.8 -155.8 155.8c-85.9 0 -155.8 -69.9 -155.8 -155.8z" style="animation-name: eaf-13114-2;"></path><ellipse fill="#000000" rx="121.3" ry="121.3" transform="translate(384.5 303.3)" style="animation-name: eaf-13114-2;"></ellipse><path fill="#fff" d="m473.5 264.8c0 19.9 -16.2 36.1 -36.1 36.1c-19.9 0 -36.1 -16.2 -36.1 -36.1c0 -19.9 16.2 -36.1 36.1 -36.1c19.9 0 36.1 16.2 36.1 36.1z" style="animation-name: eaf-13114-2;"></path><path fill="#000" d="m384.5 352.1c-26.9 0 -48.8 -21.9 -48.8 -48.8c0 -12.8 4.9 -24.8 13.8 -34c8.9 -9.1 20.8 -14.4 33.5 -14.8l6.5 -0.2l-0.8 6.5c-0.3 2 -0.4 4 -0.4 5.8c0 22.3 16 41.4 37.9 45.4l6.4 1.2l-2.2 6.2c-6.7 19.5 -25.2 32.7 -45.9 32.7z" style="animation-name: eaf-13114-2;"></path><path fill="#fff" d="m279.1 303.3c0 -58.1 47.3 -105.4 105.4 -105.4c21.6 0 41.7 6.5 58.5 17.8c-2.8 -0.5 -5.6 -0.7 -8.5 -0.7c-13.6 0 -26 5.3 -35.2 13.9c-4.8 -1 -9.8 -1.5 -14.8 -1.5c-41.9 0 -75.9 34.1 -75.9 75.9c0 41.8 34.1 75.9 75.9 75.9c39.1 0 71.3 -29.7 75.5 -67.6c13.7 -7.8 23.4 -21.6 25.7 -37.8c2.7 9.4 4.2 19.3 4.2 29.5c0 58.1 -47.3 105.4 -105.4 105.4c-58.1 0 -105.4 -47.3 -105.4 -105.4z" style="animation-name: eaf-13114-2;"></path></g></g></g></g></svg>

