<svg xmlns="http://www.w3.org/2000/svg" viewBox="0 0 700 700" overflow="hidden" preserveAspectRatio="xMidYMid meet" id="eaf-11098-0"><defs><clipPath id="eaf-11098-1"><rect x="0" y="0" width="700" height="700"></rect></clipPath><style>#eaf-11098-0 * {animation: 14000ms linear infinite normal both running;offset-rotate:0deg}@keyframes eaf-11098-2{0%{fill-opacity:0}1.66%{fill-opacity:0}7.62%{fill-opacity:1}12.38%{fill-opacity:1}15.95%{fill-opacity:0}18.33%{fill-opacity:0}24.29%{fill-opacity:1}29.04%{fill-opacity:1}32.61%{fill-opacity:0}35%{fill-opacity:0}40.96%{fill-opacity:1}45.71%{fill-opacity:1}49.29%{fill-opacity:0}51.66%{fill-opacity:0}57.62%{fill-opacity:1}62.38%{fill-opacity:1}65.95%{fill-opacity:0}68.33%{fill-opacity:0}74.29%{fill-opacity:1}79.04%{fill-opacity:1}82.61%{fill-opacity:0}84.99%{fill-opacity:0}90.95%{fill-opacity:1}95.71%{fill-opacity:1}99.28%,100%{fill-opacity:0}}@keyframes eaf-11098-3{0%,100%{transform:translate(407.5px,354.3px)}}@keyframes eaf-11098-4{0%{transform:scale(0,0)}9.53%{transform:scale(1,1)}10.95%{transform:scale(1,1)}16.66%{transform:scale(0,0)}26.19%{transform:scale(1,1)}27.61%{transform:scale(1,1)}33.33%{transform:scale(0,0)}33.34%{transform:scale(0,0)}42.86%{transform:scale(1,1)}44.29%{transform:scale(1,1)}50%{transform:scale(0,0)}59.53%{transform:scale(1,1)}60.95%{transform:scale(1,1)}66.66%{transform:scale(0,0)}76.19%{transform:scale(1,1)}77.61%{transform:scale(1,1)}83.33%{transform:scale(0,0)}92.86%{transform:scale(1,1)}94.28%{transform:scale(1,1)}99.99%,100%{transform:scale(0,0)}}@keyframes eaf-11098-5{0%,100%{transform:translate(-407.5px,-354.3px)}}@keyframes eaf-11098-6{0%,2.14%{fill-opacity:0}3.81%{fill-opacity:0}10.95%{fill-opacity:1}15.95%{fill-opacity:1}20.95%{fill-opacity:0}23.33%{fill-opacity:0}30.47%{fill-opacity:1}35.47%{fill-opacity:1}40.47%{fill-opacity:0}42.86%{fill-opacity:0}50%{fill-opacity:1}55%{fill-opacity:1}60%{fill-opacity:0}62.38%{fill-opacity:0}69.52%{fill-opacity:1}74.52%{fill-opacity:1}79.52%{fill-opacity:0}81.9%{fill-opacity:0}89.04%{fill-opacity:1}94.04%{fill-opacity:1}99.04%,100%{fill-opacity:0}}@keyframes eaf-11098-7{0%,100%{transform:translate(407.5px,354.1px)}}@keyframes eaf-11098-8{0%,2.14%{transform:scale(0,0)}12.86%{transform:scale(1,1)}14.52%{transform:scale(1,1)}21.66%{transform:scale(0,0)}32.38%{transform:scale(1,1)}34.04%{transform:scale(1,1)}41.19%{transform:scale(0,0)}51.91%{transform:scale(1,1)}53.57%{transform:scale(1,1)}60.71%{transform:scale(0,0)}71.43%{transform:scale(1,1)}73.09%{transform:scale(1,1)}80.24%{transform:scale(0,0)}90.95%{transform:scale(1,1)}92.61%{transform:scale(1,1)}100%{transform:scale(0,0)}}@keyframes eaf-11098-9{0%,100%{transform:translate(-407.5px,-354.1px)}}@keyframes eaf-11098-10{0%{transform:scale(0,0)}6.66%{transform:scale(0,0)}12.38%{transform:scale(1,1)}15.95%{transform:scale(0,0)}22.61%{transform:scale(0,0)}28.33%{transform:scale(1,1)}31.9%{transform:scale(0,0)}38.57%{transform:scale(0,0)}44.29%{transform:scale(1,1)}47.86%{transform:scale(0,0)}54.52%{transform:scale(0,0)}60.24%{transform:scale(1,1)}63.81%{transform:scale(0,0)}70.47%{transform:scale(0,0)}76.19%{transform:scale(1,1)}79.76%{transform:scale(0,0)}86.43%{transform:scale(0,0)}92.14%{transform:scale(1,1)}95.71%,100%{transform:scale(0,0)}}@keyframes eaf-11098-11{0%,100%{transform:translate(5.3754px,350.251px)}}@keyframes eaf-11098-12{0%{transform:scale(1,1)}3.57%{transform:scale(1.103,1.103)}6.19%{transform:scale(1,1)}10.71%{transform:scale(1.103,1.103)}12.62%{transform:scale(1,1)}15%{transform:scale(1.103,1.103)}17.62%{transform:scale(1,1)}21.19%{transform:scale(1.103,1.103)}23.81%{transform:scale(1,1)}23.81%{transform:scale(1,1)}26.66%{transform:scale(1.103,1.103)}29.52%{transform:scale(1,1)}34.52%{transform:scale(1.103,1.103)}36.91%{transform:scale(1,1)}38.34%{transform:scale(1.103,1.103)}42.38%{transform:scale(1,1)}45%{transform:scale(1.103,1.103)}46.43%{transform:scale(1,1)}51.19%{transform:scale(1.103,1.103)}54.76%{transform:scale(1,1)}58.34%{transform:scale(1.103,1.103)}59.76%{transform:scale(1,1)}62.62%{transform:scale(1.103,1.103)}65.24%{transform:scale(1,1)}68.81%{transform:scale(1.103,1.103)}71.43%{transform:scale(1,1)}74.05%{transform:scale(1.103,1.103)}75.48%{transform:scale(1,1)}80.24%{transform:scale(1.103,1.103)}83.81%{transform:scale(1,1)}87.39%{transform:scale(1.103,1.103)}88.81%{transform:scale(1,1)}91.67%{transform:scale(1.103,1.103)}94.29%{transform:scale(1,1)}97.86%{transform:scale(1.103,1.103)}100%{transform:scale(1,1)}}@keyframes eaf-11098-13{0%,100%{transform:translate(-3.3754px,-350px)}}</style></defs><g clip-path="url('#eaf-11098-1')" style="isolation: isolate;"><g><path fill="#666666" fill-rule="evenodd" d="m70.1 1.9c-1.1 2 -6 4.1 -9.4 4.1c-2.7 0 -11.6 4.4 -20.1 9.9c-8 5.2 -20.3 17.2 -24 23.4c-6 10.1 -9.6 18.4 -10.7 24.1c-1.2 6.6 -2.5 9.7 -4.5 10.9c-1.2 0.7 -1.4 45.3 -1.4 273.9l0 273l2.4 2.9c1.6 1.9 2.7 4.8 3.2 8.5c0.3 3.1 1.6 7.5 2.9 9.7c1.2 2.3 2.7 5.8 3.4 7.8c0.6 2 2.1 4.5 3.1 5.4c1.1 1 2 2.3 2 3c0 0.7 4 5.2 8.9 10.1c10.9 10.8 15 14.4 16.6 14.4c0.7 0 2.3 0.8 3.6 1.9c3.8 2.9 14.8 7.2 22.4 8.7c5.8 1.1 55.5 1.3 280 1.3c171.5 0.1 275.6 -0.3 280 -0.9c3.9 -0.5 9 -1.9 11.5 -3c9.7 -4.2 11.6 -5.1 15.1 -7.3c2 -1.2 4.9 -3.1 6.5 -4.2c4.7 -3.3 20.2 -19.4 21 -21.8c0.4 -1.2 1.7 -3.5 3 -5c1.3 -1.6 2.4 -3.4 2.4 -4.1c0 -0.7 1.1 -3.4 2.5 -6c1.5 -2.7 3.1 -8.5 4 -14.2c0.8 -5.3 2 -10.4 2.5 -11.5c0.7 -1.2 1 -33.9 0.9 -93.6c-0.2 -139.6 -0.2 -297.2 0.1 -372.4c0.2 -37.2 -0.1 -68.2 -0.5 -68.9c-1.1 -1.8 -3.4 -12.8 -3.5 -16.5c0 -1.7 -1.3 -5.7 -3 -9c-1.6 -3.3 -3 -6.5 -3 -7.2c0 -0.6 -2.5 -4.9 -5.6 -9.5c-5.9 -8.7 -15.2 -18.3 -21.9 -22.6c-2.2 -1.4 -4.2 -2.8 -4.5 -3.2c-0.9 -1.3 -15.7 -8 -17.7 -8c-3.4 0 -8.3 -2.1 -9.4 -4.1c-0.9 -1.9001 -7.1 -1.9001 -279.4 -1.9001c-272.3 0 -278.5 0 -279.4 1.9z"></path><path fill="#c40017" fill-opacity="0" d="m411.4 118.6577c-1.9 -1.9 -3.9 -3.9 -5.9 -5.8c-4.2 -4 -10.9 -3.4 -14.4 1.2l-30.5 41c-2.9 3.9 -2.4 9.2 1 12.6c0.1 0.1 0.2 0.2 0.4 0.4c47.9 47.9 74.3 111.6 74.3 179.3c0 67.7 -26.4 131.4 -74.3 179.3c0 0 0 0 -0.1 0.1c-3.4 3.4 -3.8 8.8 -1 12.6l30.5 41.1c3.5 4.6 10.2 5.2 14.4 1.2c1.9 -1.8 3.7 -3.6 5.6 -5.5c61.1 -61.1 94.8 -142.4 94.8 -228.8c-0.1 -86.4 -33.7 -167.5999 -94.8 -228.7z" transform="matrix(0 0 0 0 407.5 354.3)" style="animation-name: eaf-11098-2, eaf-11098-3, eaf-11098-4, eaf-11098-5; animation-composition: replace, replace, add, add;"></path><path fill="#c40017" fill-opacity="0" d="m505.7 354.3c0 31.7 -10.5 61.1 -28.1 84.8c-4.6 6.1 -4.5 14.6 0.1 20.7l21.7 29.1c6.8 9.1 20.2 9.4 27.5 0.7c30.5 -36.7 48.9 -83.9 48.9 -135.3c0 -51.6 -18.5 -98.9 -49.2 -135.7c-7.2 -8.7 -20.7 -8.3 -27.4 0.7l-21.6 29.1c-4.6 6.2 -4.7 14.6 -0.1 20.8c17.7 23.7 28.2 53.2 28.2 85.1z" transform="matrix(0 0 0 0 407.5 354.1)" style="animation-name: eaf-11098-6, eaf-11098-7, eaf-11098-8, eaf-11098-9; animation-composition: replace, replace, add, add;"></path><ellipse fill="#c40017" rx="44.9" ry="44.9" transform="matrix(0 0 0 0 407.5 354.1)" style="animation-name: eaf-11098-7, eaf-11098-10; animation-composition: replace, add;"></ellipse><g transform="translate(2 0.251)" style="animation-name: eaf-11098-11, eaf-11098-12, eaf-11098-13; animation-composition: replace, add, add;"><path fill="#000000" stroke="#000000" stroke-width="30" stroke-miterlimit="10" d="m402.8 84.5c-1.6 -2.7 -2.8 -5.3 -2.8 -5.8c0 -1.5 -8.2 -11.9 -12.2 -15.5c-4.8 -4.4 -13.7 -10.2 -15.6 -10.2c-0.7 0 -3.1 -0.9 -5.3 -2.1c-3.1 -1.5 -6.5 -2.1 -14.2 -2.4c-11.7 -0.4 -16.9 0.3 -24.7 3.5c-10.7 4.3 -14.3 6.9 -20.9 14.7l0 565.3c7.9 8.1 15.2 14 17.8 14c0.5 0 4.3 1.1 8.5 2.5c9.8 3.2 22.9 3.5 29.2 0.6c2.3 -1 5.7 -2.2 7.5 -2.6c6.2 -1.3 21 -12.7 25.8 -19.8c3.6 -5.4 3.6 -5.4 6.8 -12.1l2.8 -5.9l0 -259.6l0 -259.6l-2.7 -5z" transform="matrix(1 0 0 1.0572 0 -20.0194)"></path><g><path fill="#000000" stroke="#000000" stroke-width="30" stroke-miterlimit="10" d="m100.5 212l-37 0.6l-7 3.4c-12.4 6 -18.8 11.7 -26.7 23.5c-1.5 2.2 -3 5.3 -3.4 7c-0.4 1.6 -1.5 4.8 -2.5 7c-1.8 3.8 -1.9 9.3 -1.9 95.6l0 91.5l2.9 8.1c6.1 16.7 17.2 28.1 33.7 34.9l8.9 3.7l38 0.6c21.4 0.3 31.2 0.6 36 1.1l0 -279.3c-3.5 1.5 -8.5 1.8 -41 2.3z" transform="matrix(1 0 0 0.9495 0 17.6289)"></path><path fill="#fefadf" stroke="#000000" stroke-width="30" stroke-miterlimit="10" d="m213 160.6c-2.5 2.2 -5.6 5 -7 6.4c-2.5 2.4 -8.6 7.7 -16 13.7c-3.2 2.6 -5.7 4.6 -19.3 15.1c-2.3 1.8 -5.8 4 -7.7 5c-1.9 0.9 -4.6 2.5 -6 3.4c-1.4 0.9 -4.5 2.1 -7 2.7c-1.9 0.4 -4.6 1.2 -6.8 2.1c-1 0.4 -1.7 1.4 -1.7 2.5l0 275.2c0 1.3 0.9 2.4 2.2 2.6c1.2 0.2 1.9 0.5 2.4 0.9c1.4 0.9 4.6 2.2 7 2.8c2.4 0.7 5.1 1.8 5.9 2.5c0.8 0.7 3.1 2 5 3c1.9 1 4.2 2.4 5 3.1c2.3 2.1 8.1 6.7 12.5 9.9c6.1 4.5 30.6 25.6 44 37.9c16.7 15.3 63.5 62.5 76.8 77.4c0 0 0 0 0 0.1c1.7 1.9 4.8 0.7 4.8 -1.8l0 -551.2c0 -2.5 -3.1 -3.7 -4.7 -1.8c-19.9 21.9 -70.9 72.6 -89.4 88.5z" transform="matrix(1 0 0 0.962 0 13.2887)"></path><line x1="97.6" y1="364.9" x2="337.1" y2="489" fill="none" stroke="#000000" stroke-width="20" stroke-miterlimit="10"></line></g><line x1="110.4" y1="326.4" x2="320" y2="238.7" fill="none" stroke="#000000" stroke-width="20" stroke-miterlimit="10"></line></g></g></g></svg>