<svg xmlns="http://www.w3.org/2000/svg" viewBox="0 0 650 650" overflow="hidden" preserveAspectRatio="xMidYMid meet" id="eaf-13cb0-0"><!-- Created with Expressive Animator v1.3.1 | https://expressive.app/expressive-animator/ --><defs><clipPath id="eaf-13cb0-1"><rect x="0" y="0" width="650" height="650"></rect></clipPath><style>#eaf-13cb0-0 * {animation: 3000ms linear infinite normal both running;offset-rotate:0deg}@keyframes eaf-13cb0-2{0%{fill:#fff;animation-timing-function:cubic-bezier(0.42,0,0.58,1)}31.1%{fill:#64db60}56.67%{fill:#64db60;animation-timing-function:cubic-bezier(0.42,0,0.58,1)}63.33%{fill:#ff745b;animation-timing-function:cubic-bezier(0.42,0,0.58,1)}84.43%{fill:#d60000;animation-timing-function:cubic-bezier(0.42,0,0.58,1)}98.9%,100%{fill:#fff}}@keyframes eaf-13cb0-3{0%,100%{transform:none;offset-path:path("m521.5 524.4611l1.1015 31.3435l-1.1015 -31.3435")}}@keyframes eaf-13cb0-4{0%{offset-distance:0%}41.1%{offset-distance:50%}100%{offset-distance:100%}}@keyframes eaf-13cb0-5{0%{transform:scale(0.8385,0.8385)}32.23%{transform:scale(1.2291,1.2291)}100%{transform:scale(0.8385,0.8385)}}@keyframes eaf-13cb0-6{0%,100%{transform:translate(-523.4px,-523.65px)}}@keyframes eaf-13cb0-7{0%{fill:#ffd800}26.67%{fill:#ffd800}53.33%{fill:#fff}66.67%{fill:#fff}100%{fill:#ffd800}}@keyframes eaf-13cb0-8{0%,100%{transform:none;offset-path:path("m166.719 554.6l57.8862 0l-21.5169 0.7817l-36.3693 -0.7817")}}@keyframes eaf-13cb0-9{0%{offset-distance:0%}32.23%{offset-distance:49.9902%}52.23%{offset-distance:68.5844%}100%{offset-distance:100%}}@keyframes eaf-13cb0-10{0%{transform:scale(0.9561,0.9561)}38.9%{transform:scale(1.3061,1.3061)}100%{transform:scale(0.9561,0.9561)}}@keyframes eaf-13cb0-11{0%,100%{transform:translate(-182.5px,-554.6px)}}@keyframes eaf-13cb0-12{0%,100%{transform:none;offset-path:path("m538.8861 200.2841l16.4854 -12.5178l-16.4854 12.5178")}}@keyframes eaf-13cb0-13{0%{offset-distance:0%}62.23%{offset-distance:50%}100%{offset-distance:100%}}@keyframes eaf-13cb0-14{0%{transform:rotate(-1deg);animation-timing-function:cubic-bezier(0,0,0.58,1)}41.1%{transform:rotate(-19deg);animation-timing-function:ease-in-out}67.77%{transform:rotate(7deg);animation-timing-function:ease-in-out}100%{transform:rotate(-1deg)}}@keyframes eaf-13cb0-15{0%,100%{transform:translate(-539.4431px,-201.592px)}}@keyframes eaf-13cb0-16{0%{fill:#fff;animation-timing-function:ease-in-out}42.23%{fill:#d60000}61.1%{fill:#ff745b;animation-timing-function:ease-in-out}63.33%{fill:#64db60}86.67%{fill:#64db60;animation-timing-function:ease-in-out}96.67%,100%{fill:#fff}}@keyframes eaf-13cb0-17{0%,100%{transform:none;offset-path:path("m266.5729 68.0985l-0.0729 38.303l0 -35.3015")}}@keyframes eaf-13cb0-18{0%{offset-distance:0%}36.67%{offset-distance:52.039%}100%{offset-distance:100%}}@keyframes eaf-13cb0-19{0%{transform:scale(0.8385,0.8385)}28.9%{transform:scale(1.2291,1.2291)}100%{transform:scale(0.8385,0.8385)}}@keyframes eaf-13cb0-20{0%,100%{transform:translate(-266.5px,-71.1px)}}@keyframes eaf-13cb0-21{0%,100%{transform:none;offset-path:path("m504.5 78.55l-52.9 0l52.9 0")}}@keyframes eaf-13cb0-22{0%{offset-distance:0%}54.43%{offset-distance:50%}100%{offset-distance:100%}}@keyframes eaf-13cb0-23{0%,100%{transform:translate(-493.1px,-78.55px)}}@keyframes eaf-13cb0-24{0%,100%{transform:none;offset-path:path("m606.1885 347l0.9386 0l-0.9386 0")}}@keyframes eaf-13cb0-25{0%{offset-distance:0%}64.43%{offset-distance:50%}100%{offset-distance:100%}}@keyframes eaf-13cb0-26{0%{transform:scale(0.7785,0.7785)}37.77%{transform:scale(0.6134,0.6134)}100%{transform:scale(0.7785,0.7785)}}@keyframes eaf-13cb0-27{0%,100%{transform:translate(-585.6px,-347px)}}@keyframes eaf-13cb0-28{0%,100%{transform:none;offset-path:path("m406.2 584.2l2.5475 23.6l0.8737 -19.7628l-3.4212 -3.8372")}}@keyframes eaf-13cb0-29{0%{offset-distance:0%;animation-timing-function:ease-in-out}32.23%{offset-distance:48.7814%;animation-timing-function:ease-in-out}68.9%{offset-distance:89.435%;animation-timing-function:ease-in-out}100%{offset-distance:100%}}@keyframes eaf-13cb0-30{0%{transform:scale(0.8647,0.8647)}32.23%{transform:scale(0.604,0.604)}45.57%{transform:scale(0.5432,0.5432)}63.33%{transform:scale(0.9037,0.9037)}100%{transform:scale(0.8647,0.8647)}}@keyframes eaf-13cb0-31{0%,100%{transform:translate(-406.2px,-584.2px)}}@keyframes eaf-13cb0-32{0%,100%{transform:none;offset-path:path("m111.4 151.5l29.8015 21.1954l-29.8015 -21.1954")}}@keyframes eaf-13cb0-33{0%{offset-distance:0%}46.67%{offset-distance:50%}100%{offset-distance:100%}}@keyframes eaf-13cb0-34{0%{transform:scale(1.0913,1.0913)}44.43%{transform:scale(0.7469,0.7469)}100%{transform:scale(1.0913,1.0913)}}@keyframes eaf-13cb0-35{0%,100%{transform:translate(-111.4px,-151.5px)}}@keyframes eaf-13cb0-36{0%,100%{transform:none;offset-path:path("m75.9 418.0832l52.674 0l-52.674 0")}}@keyframes eaf-13cb0-37{0%{offset-distance:0%}42.23%{offset-distance:50%}100%{offset-distance:100%}}@keyframes eaf-13cb0-38{0%{transform:scale(0.8,0.8)}32.23%{transform:scale(1.4448,1.4448)}100%{transform:scale(0.8,0.8)}}@keyframes eaf-13cb0-39{0%,100%{transform:translate(-76.4944px,-417.387px)}}@keyframes eaf-13cb0-40{0%,100%{transform:translate(339.6067px,324.5px)}}@keyframes eaf-13cb0-41{0%{transform:scale(1,0.9996);animation-timing-function:ease-in-out}47.77%{transform:scale(1.2,1.0894);animation-timing-function:ease-in-out}75.57%{transform:scale(1.0889,0.9363);animation-timing-function:ease-in-out}100%{transform:scale(1,1)}}@keyframes eaf-13cb0-42{0%,100%{transform:translate(-339.6067px,-324.5px)}}@keyframes eaf-13cb0-43{0%,100%{transform:translate(345.692px,325px)}}@keyframes eaf-13cb0-44{0%{transform:scale(1,1);animation-timing-function:ease-in-out}28.9%{transform:scale(0.9051,0.8037);animation-timing-function:ease-in-out}50%{transform:scale(0.85,0.85);animation-timing-function:ease-in-out}100%{transform:scale(1,1)}}@keyframes eaf-13cb0-45{0%,100%{transform:translate(-347.173px,-325px)}}</style></defs><g clip-path="url('#eaf-13cb0-1')" style="isolation: isolate;"><g><path fill="#f3582c" d="m650 325.1c0 81.6 0 163.1 0 244.7c0 37.4 -28.2 71.6 -65 78.6c-5.5 1 -11.1 1.6 -16.6 1.6c-162.6 0 -325.2 0 -487.7 0c-39.9 0.0001 -74.7 -30.5999 -79.9 -70.2c-0.5 -3.5 -0.8 -7 -0.8 -10.6c0 -163 0 -326 0 -488.9c0 -37.4 28.2 -71.6 65 -78.6c5.4 -1 11.1 -1.6 16.6 -1.6c162.7 -0.1 325.4 -0.1 488.1 -0.1c37.4 0 71.6 28.2 78.6 65c1 5.4 1.6 11.1 1.6 16.6c0.1 81.2 0.1 162.3 0.1 243.5l0 0z"></path><g transform="matrix(0.8385 0 0 0.8385 82.6497 85.4012)" style="animation-name: eaf-13cb0-3, eaf-13cb0-4, eaf-13cb0-5, eaf-13cb0-6; animation-composition: replace, add, add, add;"><g><g><g><g><path fill="none" stroke="#000" stroke-width="12" stroke-miterlimit="20" d="m442 471.1l73.4 75.1l59.4 0"></path></g></g><g><g><ellipse fill="#fff" stroke="#000" stroke-width="12" stroke-miterlimit="20" rx="30" ry="30" transform="translate(574.8 546.2)" style="animation-name: eaf-13cb0-2;"></ellipse></g></g></g></g></g><g transform="matrix(0.9561 0 0 0.9561 -7.7674 24.3526)" style="animation-name: eaf-13cb0-8, eaf-13cb0-9, eaf-13cb0-10, eaf-13cb0-11; animation-composition: replace, add, add, add;"><g><g><g><g><path fill="none" stroke="#000" stroke-width="12" stroke-miterlimit="20" d="m287.1 501.4l-63.7 76.4l-121.8 0"></path></g></g><g><g><ellipse fill="#ffd800" stroke="#000" stroke-width="12" stroke-miterlimit="20" rx="30" ry="30" transform="translate(107.9 577.8)" style="animation-name: eaf-13cb0-7;"></ellipse></g></g></g></g></g><g transform="matrix(0.9998 -0.0175 0.0175 0.9998 -3.993 8.1373)" style="animation-name: eaf-13cb0-12, eaf-13cb0-13, eaf-13cb0-14, eaf-13cb0-15; animation-composition: replace, add, add, add;"><g><g><g><g><path fill="none" stroke="#000" stroke-width="12" stroke-miterlimit="20" d="m540 202.9l56 -58.8"></path></g></g><g><g><ellipse fill="#fff" stroke="#000" stroke-width="12" stroke-miterlimit="20" rx="30" ry="30" transform="translate(592.9 147.4)"></ellipse></g></g></g></g></g><g transform="matrix(0.8385 0 0 0.8385 43.1231 8.484)" style="animation-name: eaf-13cb0-17, eaf-13cb0-18, eaf-13cb0-19, eaf-13cb0-20; animation-composition: replace, add, add, add;"><g><g><g><g><path fill="none" stroke="#000" stroke-width="12" stroke-miterlimit="20" d="m266.5 129.9l0 -77.6"></path></g></g><g><g><ellipse fill="#fff" stroke="#000" stroke-width="12" stroke-miterlimit="20" rx="30" ry="30" transform="translate(266.5 42.3)" style="animation-name: eaf-13cb0-16;"></ellipse></g></g></g></g></g><g transform="translate(11.4 0)" style="animation-name: eaf-13cb0-21, eaf-13cb0-22, eaf-13cb0-23; animation-composition: replace, add, add;"><g><g><g><g><path fill="none" stroke="#000" stroke-width="12" stroke-miterlimit="20" d="m404.7 129.9l52.1 -72.8l94.6 0"></path></g></g><g><g><ellipse fill="#fff" stroke="#000" stroke-width="12" stroke-miterlimit="20" rx="30" ry="30" transform="translate(551.5 57.2)"></ellipse></g></g></g></g></g><g transform="matrix(0.7785 0 0 0.7785 150.2864 76.853)" style="animation-name: eaf-13cb0-24, eaf-13cb0-25, eaf-13cb0-26, eaf-13cb0-27; animation-composition: replace, add, add, add;"><g><g><g><g><path fill="none" stroke="#555" stroke-width="12" stroke-miterlimit="20" d="m541.3 347l57.3 0"></path></g></g><g><g><ellipse fill="#fff" stroke="#000" stroke-width="12" stroke-miterlimit="20" rx="30" ry="30" transform="translate(599.9 347)"></ellipse></g></g></g></g></g><g transform="matrix(0.8647 0 0 0.8647 54.9419 79.0178)" style="animation-name: eaf-13cb0-28, eaf-13cb0-29, eaf-13cb0-30, eaf-13cb0-31; animation-composition: replace, add, add, add;"><g><g><g><g><path fill="none" stroke="#000" stroke-width="12" stroke-miterlimit="20" d="m406.2 530.6l0 77.2"></path></g></g><g><g><ellipse fill="#fff" stroke="#000" stroke-width="12" stroke-miterlimit="20" rx="30" ry="30" transform="translate(406.2 607.8)"></ellipse></g></g></g></g></g><g transform="matrix(1.0913 0 0 1.0913 -10.1741 -13.8365)" style="animation-name: eaf-13cb0-32, eaf-13cb0-33, eaf-13cb0-34, eaf-13cb0-35; animation-composition: replace, add, add, add;"><g><g><g><g><path fill="none" stroke="#000" stroke-width="12" stroke-miterlimit="20" d="m193.1 197.4l-56.1 -59.9l-75.4 0"></path></g></g><g><g><ellipse fill="#fff" stroke="#000" stroke-width="12" stroke-miterlimit="20" rx="31.9" ry="31.9" transform="translate(61.6 137.5)"></ellipse></g></g></g></g></g><g transform="matrix(0.8 0 0 0.8 14.7045 84.1736)" style="animation-name: eaf-13cb0-36, eaf-13cb0-37, eaf-13cb0-38, eaf-13cb0-39; animation-composition: replace, add, add, add;"><g><g><g><g><path fill="none" stroke="#000" stroke-width="12" stroke-miterlimit="20" d="m138.7 417.4l-91.9 0"></path></g></g><g><g><ellipse fill="#fff" stroke="#000" stroke-width="12" stroke-miterlimit="20" rx="30" ry="30" transform="matrix(0.9951 -0.0985 0.0985 0.9951 47.0979 417.387)"></ellipse></g></g></g></g></g><g transform="matrix(1 0 0 0.9996 0 0.136)" style="animation-name: eaf-13cb0-40, eaf-13cb0-41, eaf-13cb0-42; animation-composition: replace, add, add;"><g><g><g><g><g><path fill="#fff" d="m411.3 105.7c34.7 0 63 28.3 63 63c0 15.7 -5.8 30.8 -16.4 42.4c-2.7 2.9 -5.7 5.5 -8.9 7.8c-7.7 -16.6 -21.9 -29.2 -39.2 -34.9l-6 18.5c2.3 0.7 4.5 1.7 6.6 2.8c12.4 6.2 21.3 17.7 24.3 31.2c2.5 11.3 0.6 23.2 -5.3 33.2c-1.2 2.1 -2.5 4 -4 5.9l15.1 12.3c2.8 -3.5 5.2 -7.2 7.3 -11.1c6.2 -11.7 8.6 -25 7 -38.2c6.1 -4 11.5 -7.6 17.6 -14.3c8.8 -9.7 15.2 -21.4 18.6 -34.1c0.9 -3.2 1.5 -6.5 2 -9.9c27.7 6.7 48.2 31.9 48.2 61.2c0 16.9 -6.8 33.1 -18.9 44.9c-1 1 -2 2 -3 2.9l12.7 14.8c5.6 -4.9 10.5 -10.5 14.6 -16.7c1.1 -1.7 2.2 -3.3 3.2 -5.1c10.6 11.5 16.5 26.7 16.5 42.4c0 16 -5.9 30.9 -16.5 42.4c-5.1 -9 -11.9 -17 -19.9 -23.5l-6.1 7.6l-6.1 7.6c1 0.8 2 1.8 3 2.7c13.1 11.9 20.6 28.8 20.6 46.4c0 29.3 -20.5 54.4 -48.2 61.2c-2.2 -16.1 -9.2 -31.1 -20 -43.2c4.4 -12.6 5.7 -26 3.8 -39.1c-1.1 -8 -3.5 -15.7 -6.9 -23l-13.4 6.3l-4.2 2c2.6 5.6 4.3 11.5 5.2 17.6c4.2 28.8 -11.8 56.7 -38.8 67.4c-2.6 1.1 -5.4 2 -8.1 2.7l4.7 18.9c19.6 -4.9 36.8 -16.8 48.2 -33.5c7.2 10.5 11 22.9 11 35.6c0 34.7 -28.3 63 -63 63c-34.7 0 -63 -28.3 -63 -63l0 -312.0999c-0.3 -34.8 28 -63 62.7 -63l0 0z"></path></g></g><g><g><path fill="#000" d="m328.8 168.7l0 311.8c0 45.5 37 82.5 82.5 82.5c42.7 0 77.9 -32.6 82 -74.2c38.3 -7.2 67.2 -41.2 67.2 -81c0 -7.2 -1 -14.5 -2.9 -21.4c17.6 -15.6 28 -38.1 28 -61.7c0 -23.6 -10.4 -46.2 -28 -61.8c1.9 -7 2.9 -14.2 2.9 -21.4c0 -39.8 -28.9 -73.8 -67.2 -81c-4.2 -41.6 -39.4 -74.2 -82 -74.2c-45.5 -0.1 -82.5 36.9 -82.5 82.4zm19.5 0c0 -34.7 28.3 -63 63 -63c34.7 0 63 28.3 63 63c0 15.7 -5.8 30.8 -16.4 42.4c-2.7 2.9 -5.7 5.5 -8.9 7.8c-7.7 -16.6 -21.9 -29.2 -39.2 -34.9l-6 18.5c15.6 5.1 27.3 18 30.9 33.9c3.1 13.8 -0.3 28.2 -9.3 39.1l15.1 12.3c11.3 -13.8 16.4 -31.6 14.2 -49.3c6.1 -4 11.5 -7.6 17.6 -14.3c11.1 -12.2 18.3 -27.6 20.6 -44c27.7 6.7 48.2 31.9 48.2 61.2c0 18.4 -8 35.8 -21.9 47.8l12.7 14.8c7.1 -6.2 13.2 -13.5 17.8 -21.7c10.6 11.5 16.5 26.7 16.5 42.4c0 16 -5.9 30.9 -16.5 42.4c-5.1 -9 -11.9 -17 -19.9 -23.5l-12.2 15.2c14.9 11.9 23.6 30 23.6 49.1c0 29.3 -20.5 54.4 -48.2 61.2c-2.2 -16.1 -9.2 -31.1 -20 -43.2c4.4 -12.6 5.7 -26 3.8 -39.1c-1.1 -8 -3.5 -15.7 -6.9 -23l-17.7 8.2c2.6 5.5 4.3 11.5 5.2 17.6c4.7 32 -15.6 62.3 -47 70.1l4.7 18.9c19.6 -4.9 36.8 -16.8 48.2 -33.5c7.2 10.5 11 22.9 11 35.6c0 34.7 -28.3 63 -63 63c-34.7 0 -63 -28.3 -63 -63l0 -312l0 0z"></path></g></g><g><g><path fill="#000" d="m585.6 324.6c0 -23.6 -10.4 -46.2 -28 -61.8c1.9 -7 2.9 -14.2 2.9 -21.4c0 -39.8 -28.9 -73.8 -67.2 -81c-3.9 -38.8 -34.8 -69.7 -73.6 -73.7c1.4 8.2 2 16.7 1.6 25.5c38.2 14 62.5 60.5 56.3 110.7c-1.2 9.1 -3.3 18 -6.4 26.6c15.6 21.9 22.8 51.6 19.1 81.4c-3.7 29.8 -17.8 56.9 -38.3 74.4c0.8 9 0.8 18.1 -0.3 27.4c-6.2 50.2 -41.1 89.4 -81.5 93.7c-1.5 7.3 -3.7 14.4 -6.5 21.3c13.9 9.9 30.5 15.2 47.5 15.2c42.7 0 77.9 -32.6 82 -74.2c38.3 -7.2 67.2 -41.2 67.2 -81c0 -7.2 -1 -14.5 -2.9 -21.4c17.7 -15.5 28.1 -38.1 28.1 -61.7l0 0z" opacity="0.2"></path></g></g></g></g></g><g><g><path fill="none" stroke="#fff" stroke-width="7" stroke-linecap="round" stroke-miterlimit="20" d="m368.5 205l0 5.1"></path></g></g><g><g><path fill="none" stroke="#fff" stroke-width="7" stroke-linecap="round" stroke-miterlimit="20" d="m406.2 128.4c-23.9 0 -34.1 17 -36.8 46.2"></path></g></g></g><g transform="matrix(1 0 0 1 -1.481 0)" style="animation-name: eaf-13cb0-43, eaf-13cb0-44, eaf-13cb0-45; animation-composition: replace, add, add;"><g><g><path fill="#f7e79d" d="m266.2 105.7c-34.7 0 -63 28.3 -63 63c0 15.7 5.8 30.8 16.4 42.4c3 3.3 5.8 5.6 8.9 7.8c7.7 -16.6 21.9 -29.2 39.2 -34.9l6 18.5c-2.3 0.7 -4.4 1.7 -6.6 2.8c-12.4 6.2 -21.3 17.7 -24.3 31.2c-2.5 11.3 -0.6 23.2 5.3 33.2c1.2 2 2.5 4 4 5.9l-15.1 12.3c-2.8 -3.5 -5.2 -7.2 -7.3 -11.1c-6.2 -11.7 -8.6 -25 -7 -38.2c-6.1 -4 -11.5 -7.6 -17.6 -14.3c-8.8 -9.7 -15.2 -21.4 -18.6 -34.1c-0.9 -3.2 -1.5 -6.5 -2 -9.9c-27.7 6.7 -48.2 31.9 -48.2 61.2c0 17 6.9 33.1 18.9 44.9c1 1 2 2 3 2.9l-12.7 14.8c-5.6 -4.9 -10.5 -10.5 -14.6 -16.7c-1.1 -1.6 -2.2 -3.3 -3.2 -5.1c-10.6 11.5 -16.5 26.7 -16.5 42.4c0 16 5.9 30.9 16.5 42.4c5.1 -9 11.9 -17 19.9 -23.5l6.1 7.6l6.1 7.6c-1 0.8 -2 1.8 -3 2.7c-13.1 11.9 -20.6 28.8 -20.6 46.4c0 29.3 20.5 54.4 48.2 61.2c2.2 -16.1 9.2 -31.1 20 -43.2c-4.4 -12.6 -5.7 -26 -3.8 -39.1c1.1 -8 3.5 -15.7 6.9 -23l13.4 6.3l4.2 2c-2.6 5.6 -4.3 11.5 -5.2 17.6c-4.2 28.8 11.8 56.7 38.8 67.4c2.6 1.1 5.3 2 8.1 2.7l-4.7 18.9c-19.6 -4.9 -36.8 -16.8 -48.2 -33.5c-7.2 10.5 -11 22.9 -11 35.6c0 34.7 28.3 63 63 63c34.7 0 63 -28.3 63 -63l0 -312.0999c0.3 -34.8 -27.9 -63 -62.7 -63z"></path></g></g><g><g><path fill="#000" stroke="#555" d="m266.3 86.2c-42.7 0 -77.9 32.6 -82 74.2c-38.3 7.2 -67.2 41.2 -67.2 81c0 7.3 1.1 14.5 2.9 21.4c-17.6 15.6 -28 38.1 -28 61.8c0 23.6 10.4 46.2 28 61.7c-1.9 7 -2.9 14.2 -2.9 21.4c0 39.8 28.9 73.8 67.2 81c4.2 41.6 39.4 74.2 82 74.2c45.5 0 82.5 -37 82.5 -82.5l0 -311.7c0 -45.5 -37 -82.5 -82.5 -82.5zm63 394.3c0 34.7 -28.3 63 -63 63c-34.7 0 -63 -28.3 -63 -63c0 -12.9 3.9 -25.2 11 -35.6c11.4 16.7 28.5 28.7 48.2 33.5l4.7 -18.9c-31.4 -7.8 -51.7 -38.1 -47 -70.1c0.9 -6.1 2.6 -12 5.2 -17.6l-17.7 -8.2c-3.4 7.3 -5.7 15.1 -6.9 23c-1.9 13.2 -0.6 26.6 3.8 39.1c-10.8 12.1 -17.8 27.1 -20 43.2c-27.7 -6.7 -48.2 -31.9 -48.2 -61.2c0 -19.1 8.6 -37.2 23.6 -49.1l-12.2 -15.2c-8.1 6.5 -14.8 14.5 -19.9 23.5c-10.6 -11.5 -16.5 -26.7 -16.5 -42.4c0 -16 5.9 -30.9 16.5 -42.4c4.7 8.2 10.7 15.6 17.8 21.7l12.7 -14.8c-13.9 -12 -22 -29.4 -21.9 -47.8c0 -29.3 20.5 -54.5 48.2 -61.2c2.3 16.4 9.5 31.7 20.6 44c6.1 6.7 11.5 10.4 17.6 14.3c-2.2 17.7 2.9 35.5 14.2 49.3l15.1 -12.3c-8.9 -10.9 -12.4 -25.3 -9.3 -39.1c3.6 -16 15.3 -28.9 30.9 -33.9l-6 -18.5c-17.5 5.7 -31.6 18.5 -39.2 34.9c-3.3 -2.2 -6.2 -4.9 -8.9 -7.8c-10.6 -11.6 -16.4 -26.7 -16.4 -42.4c0 -34.7 28.3 -63 63 -63c34.7 0 63 28.3 63 63l-0.0001 312l0 0z"></path></g></g><g><g><path fill="#000" d="m266.3 86.2c-2.3 0 -4.5 0.1 -6.8 0.3c8.6 13.4 13.3 28.9 13.3 44.8l0 324.7c0 39.2 -27.5 72.3 -64.9 82.5c15.4 15.6 36.4 24.4 58.4 24.4c45.5 0 82.5 -37 82.5 -82.5l0 -311.7c0 -45.5 -37 -82.5 -82.5 -82.5z" opacity="0.2"></path></g></g><g><g><path fill="none" stroke="#fff" stroke-width="7" stroke-linecap="round" stroke-miterlimit="20" d="m162.7 228.2c2.3 -6.2 6.1 -11.6 11 -15.9"></path></g></g><g><g><path fill="none" stroke="#fff" stroke-width="7" stroke-linecap="round" stroke-miterlimit="20" d="m164.1 259.2c-0.4 -0.8 -0.8 -1.7 -1.1 -2.6"></path></g></g></g></g></g></svg>