<svg xmlns="http://www.w3.org/2000/svg" viewBox="0 0 500 500" overflow="hidden" preserveAspectRatio="xMidYMid meet" id="eaf-47d4-0"><defs><clipPath id="eaf-47d4-1"><rect x="0" y="0" width="500" height="500"></rect></clipPath><style>#eaf-47d4-0 * {animation: 17000ms linear infinite normal both running;offset-rotate:0deg}@keyframes eaf-47d4-2{0%,100%{transform:none;offset-path:path("m-106.9564 130.511l699.0651 -4.124")}}@keyframes eaf-47d4-3{0%{offset-distance:0%}17.65%,100%{offset-distance:100%}}@keyframes eaf-47d4-4{0%,100%{transform:matrix(0.8829,0.4695,-0.4695,0.8829,-6.9256,-214.7799)}}@keyframes eaf-47d4-5{0%,100%{transform:none;offset-path:path("m215.6568 348.4228l-0.2886 -22.8228l0.2886 22.8228l-0.2886 -22.8228l0.2886 22.8228l0 0l-0.2886 -22.8228l0.2886 22.8228l-0.2886 -22.8228l0.2886 22.8228l-0.2886 -22.8228l0.2886 22.8228")}}@keyframes eaf-47d4-6{0%{offset-distance:0%;animation-timing-function:ease-in-out}10.2%{offset-distance:10%;animation-timing-function:ease-in-out}19.22%{offset-distance:20%;animation-timing-function:ease-in-out}29.42%{offset-distance:30%;animation-timing-function:ease-in-out}38.43%{offset-distance:40%}38.44%{offset-distance:40%;animation-timing-function:ease-in-out}48.63%{offset-distance:50%;animation-timing-function:ease-in-out}57.65%{offset-distance:60%;animation-timing-function:ease-in-out}67.85%{offset-distance:70%;animation-timing-function:ease-in-out}76.86%{offset-distance:80%;animation-timing-function:ease-in-out}87.06%{offset-distance:90%;animation-timing-function:ease-in-out}100%{offset-distance:100%}}@keyframes eaf-47d4-7{0%,100%{transform:matrix(0.6889,0,0,0.6889,-318.7333,-253.9323)}}@keyframes eaf-47d4-8{0%{opacity:1}5.49%{opacity:1;animation-timing-function:ease-in-out}11.37%{opacity:0.41;animation-timing-function:ease-in-out}19.81%{opacity:0.52;animation-timing-function:ease-in-out}28.24%{opacity:0.37;animation-timing-function:ease-in-out}38.43%{opacity:0.47;animation-timing-function:ease-in-out}46.47%{opacity:0.36;animation-timing-function:ease-in-out}52.75%{opacity:0.52;animation-timing-function:ease-in-out}61.96%{opacity:0.36;animation-timing-function:ease-in-out}76.28%{opacity:0.23;animation-timing-function:ease-in-out}90.78%{opacity:0.41;animation-timing-function:ease-in-out}98.82%{opacity:0.58;animation-timing-function:ease-in-out}100%{opacity:1}}@keyframes eaf-47d4-9{0%,100%{transform:none;offset-path:path("m718.6669 911.9354l-648.6276 -927.8941")}}@keyframes eaf-47d4-10{0%{offset-distance:0%}94.12%,100%{offset-distance:100%}}@keyframes eaf-47d4-11{0%{transform:rotate(-25.49deg);animation-timing-function:ease-in-out}5.88%{transform:rotate(-21.49deg);animation-timing-function:ease-in-out}11.76%{transform:rotate(-25.49deg);animation-timing-function:ease-in-out}17.65%{transform:rotate(-21.49deg);animation-timing-function:ease-in-out}23.53%{transform:rotate(-25.49deg);animation-timing-function:ease-in-out}29.41%{transform:rotate(-21.49deg);animation-timing-function:ease-in-out}35.29%{transform:rotate(-25.49deg);animation-timing-function:ease-in-out}41.18%{transform:rotate(-21.49deg);animation-timing-function:ease-in-out}47.06%{transform:rotate(-25.49deg);animation-timing-function:ease-in-out}52.94%{transform:rotate(-21.49deg);animation-timing-function:ease-in-out}58.82%{transform:rotate(-25.49deg);animation-timing-function:ease-in-out}64.71%{transform:rotate(-21.49deg);animation-timing-function:ease-in-out}70.59%{transform:rotate(-25.49deg);animation-timing-function:ease-in-out}76.47%{transform:rotate(-21.49deg);animation-timing-function:ease-in-out}82.35%{transform:rotate(-25.49deg);animation-timing-function:ease-in-out}88.24%{transform:rotate(-21.49deg);animation-timing-function:ease-in-out}94.12%,100%{transform:rotate(-25.49deg)}}@keyframes eaf-47d4-12{0%,100%{transform:matrix(0.9448,0,0,0.9448,-380.5394,-575.3369)}}</style></defs><g clip-path="url('#eaf-47d4-1')" style="isolation: isolate;"><g><g transform="matrix(4 0 0 4 -827.28 -2254.5264)"><path fill="#f3582c" d="m331.8 626.1c0 15.6 0 31.3 0 46.9c0 7.2 -5.4 13.7 -12.5 15.1c-1 0.2 -2.1 0.3 -3.2 0.3c-31.2 0 -62.4 0 -93.6 0c-7.6 0 -14.3 -5.9 -15.3 -13.5c-0.1 -0.7 -0.1 -1.4 -0.1 -2c0 -31.3 0 -62.5 0 -93.8c0 -7.2 5.4 -13.7 12.5 -15.1c1 -0.2 2.1 -0.3 3.2 -0.3c31.2 0 62.4 0 93.6 0c7.2 0 13.7 5.4 15.1 12.5c0.2 1 0.3 2.1 0.3 3.2c0 15.6 0 31.1 0 46.7z"></path></g><g transform="matrix(0.8829 0.4695 -0.4695 0.8829 -113.882 -84.2689)" style="animation-name: eaf-47d4-2, eaf-47d4-3, eaf-47d4-4; animation-composition: replace, add, add;"><path fill="#fff" d="m45.2 245.6c0.5 -0.1 1.1 -0.5 1.3 -0.8l20.1 -29.9l4.2 1.4c2.9 1 6 1.5 9.3 1.5c5.9 0 10.7 -0.2 15.9 -0.7l2.3 -0.2l1.4 1.8c3.7 4.7 8.5 8.3 13.4 9.9c7 2.3 14.5 1.8 21 -1.4c6.5 -3.3 11.4 -8.9 13.8 -16c1.3 -3.8 1.7 -7.2 1.3 -10l-0.4 -2.7l2.3 -1.5c11.7 -7.6 22 -17.2 29.8 -27.6c7.8 -10.5 13.2 -22 15.5 -33.2l0.1 -0.2l0.1 -0.2c0 -0.2 -0.2 -0.6 -0.3 -0.7l-0.2 -0.1l-0.2 -0.1c-2.7 -1.3 -5.5 -2.4 -8.3 -3.3c-20.4 -6.8 -44.6 -5.7 -68.1 2.9l-2.5 0.9l-1.9 -1.9c-2 -2 -4.9 -3.7 -8.8 -4.9c-7 -2.3 -14.5 -1.8 -21 1.4c-6.5 3.3 -11.4 8.9 -13.8 16c-1.7 5 -1.7 10.9 -0.1 16.7l0.6 2.4l-1.7 1.7c-3.4 3.4 -6.5 7.6 -9.8 11.9c-1.5 2.8 -3.2 6.2 -4.2 9.3l-1 3.1l-36 -1.8c-0.5 0 -1.3 0.4 -1.7 0.8c-0.3 0.6 -0.4 1.1 -0.2 2l26.2 52.4c0.3 0.6 0.4 0.7 0.9 0.9l0.7 0.2z"></path><path fill="#f3582c" d="m104.4 135.9l-0.7 0.4c-9.7 4.8 -18.4 10.6 -26.2 17.3c0.6 -1.7 0.6 -3.5 1.1 -5.2c3.5 -10.6 14.7 -16.2 25.3 -12.6c0.5 0.1 0.5 0.1 0.5 0.1z"></path><path fill="#f3582c" d="m188 139.6c-4.1 14.1 -13 27.9 -25.5 39.2c-11 -11.7 -18.4 -26.6 -21.2 -42.4c16.6 -3.1 32.9 -2 46.7 3.2z"></path><path fill="#f3582c" d="m111.4 218.8c10 -2.2 19.9 -5.8 29.5 -10.6l0.7 -0.4c-0.2 0.6 -0.2 0.6 -0.4 1.1c-3.5 10.6 -14.7 16.2 -25.3 12.6c-2 -0.6 -3.7 -1.2 -4.5 -2.7z"></path><path fill="#fff" d="m64 201.2c-2.6 -5.2 -1.7 -11.7 3 -18.2c3.5 -5 7.6 -9.9 11.3 -13.6l0 0c9.1 -8.7 19 -16 30.8 -21.9c6.7 -3.3 13.8 -6 20.6 -8c3.4 17.8 11.5 34.2 23.8 47.6c-5.6 3.7 -11.9 7.8 -18.6 11.2c-11.9 6 -23.8 10 -36.1 11.5l0 0c-6.3 0.4 -12.1 0.9 -18.2 0.7c-7.6 -0.8 -14 -4.1 -16.6 -9.3z"></path><path fill="#f3582c" d="m28.7 197.5l22.5 1.3c0.4 2.6 0.7 5.2 2.2 8.2c1.1 2.2 3.3 4.8 5.2 6.7l-12.4 18.8l-17.5 -35z"></path><path fill="#fff" d="m163.8 147.1c0.6 -1.7 0.4 -3 -0.4 -4.5c-1.5 -3 -4.8 -4.1 -7.8 -2.6c-1.5 0.7 -2.4 1.7 -3 3.3c-0.6 1.7 -0.4 3 0.4 4.5c0.8 1.5 1.7 2.4 3.3 3c1.7 0.6 3 0.4 4.5 -0.4c1.5 -0.7 2.5 -1.7 3 -3.3z"></path></g><g transform="matrix(0.6889 0 0 0.6889 -103.0765 94.4905)" style="animation-name: eaf-47d4-5, eaf-47d4-6, eaf-47d4-7, eaf-47d4-8; animation-composition: replace, add, add, replace;"><g transform="translate(253.9844 183.2794)"><path fill="#f3582c" d="m250.99 48.28c-0.15 -3.04 -1.69 -6.33 -3.44 -8.93c-6.38 -9.47 -16.2 -14.41 -26.33 -18.67c-21.82 -9.18 -44.89 -12.91 -68.26 -14.69c-30.5 -2.33 -60.84 -0.74 -90.73 6.16c-16.39 3.79 -32.38 8.77 -45.99 19.26c-7.29 5.62 -11.61 12.6 -11.2 22.33c0.43 10.26 0.25 20.56 0.05 30.84c-0.13 6.84 2.34 12.39 7.05 17.13c8.57 8.63 19.35 13.41 30.56 17.38c18.74 6.65 38.18 10.03 57.91 11.48c13.6 1 27.27 0.96 40.74 1.39c0.48 -1.09 0.81 -1.53 0.88 -2.02c1.57 -11.5 8.31 -19.66 17.16 -26.38c12.42 -9.43 26.63 -15.28 41.61 -18.8c16.4 -3.85 33.07 -6.53 50.15 -9.82c0 -8.48 0.29 -17.59 -0.16 -26.66l0 0z"></path><path fill="#f3582c" d="m130.52 152.98c-28.62 0.19 -56.91 -2.42 -84.24 -11.34c-16.17 -5.28 -32.21 -11.28 -41.15 -28.43c0 18.85 0.3 37.04 -0.12 55.23c-0.23 9.86 3.9 16.92 11.31 22.68c10.34 8.05 22.31 12.66 34.7 16.26c27.72 8.05 56.13 10.39 84.86 9.93c1.91 -0.03 3.82 -0.2 5.83 -0.31l0 -64.02c-3.96 0 -7.57 -0.02 -11.19 0l0 0z"></path><path fill="#f3582c" d="m136.86 239.5c-18.51 0.45 -36.94 -0.35 -55.26 -3.15c-17.51 -2.67 -34.73 -6.51 -50.85 -14.11c-10.44 -4.92 -20.32 -10.66 -25.61 -22.09c0 18.74 0.14 37.48 -0.07 56.22c-0.08 7.28 2.44 13.17 7.56 18.11c8.83 8.52 19.73 13.38 31.12 17.2c29.71 9.96 60.42 12.65 91.53 12.22c2.05 -0.03 4.11 -0.18 6.34 -0.29l0 -64.12c-1.71 0.01 -3.24 -0.03 -4.76 0.01l0 0z"></path><g><path fill="#fff" d="m136.23 126.82c-2.51 -0.06 -5.02 -0.12 -7.48 -0.17c-9.13 -0.19 -18.57 -0.39 -27.78 -1.07c-21.24 -1.56 -39.75 -5.23 -56.61 -11.21c-10.1 -3.58 -20.56 -8.01 -28.68 -16.19c-3.92 -3.94 -5.7 -8.24 -5.6 -13.51c0.19 -9.56 0.4 -20.4 -0.05 -31.15c-0.31 -7.38 2.54 -12.98 9.26 -18.16c13.29 -10.24 29.03 -14.87 44.06 -18.35c20.25 -4.67 41.68 -7.02 63.99 -7.02c8.3 0 16.71 0.32 25.24 0.98c27.6 2.1 48.17 6.52 66.7 14.31c5.21 2.19 9.72 4.35 13.58 6.83c4.68 -0.57 9.37 -1.04 14.06 -1.41c-6.97 -7.15 -15.78 -11.28 -23.77 -14.64c-19.56 -8.22 -41.09 -12.87 -69.81 -15.05c-32.44 -2.48 -63.47 -0.37 -92.24 6.27c-16.13 3.73 -33.11 8.76 -47.92 20.17c-9.29 7.16 -13.59 15.83 -13.14 26.5c0.44 10.44 0.23 21.11 0.05 30.54c-0.15 7.94 2.71 14.92 8.5 20.75c9.53 9.6 21.22 14.6 32.44 18.57c17.7 6.28 37.07 10.13 59.22 11.75c9.48 0.7 19.05 0.9 28.31 1.09c2.53 0.05 5.1 0.11 7.68 0.18c0 -3.57 0 -6.92 0 -10.01l-0.01 0z"></path><path fill="#fff" d="m136.19 212.3c-0.13 0 -0.26 0 -0.39 0.01c-32.25 0.51 -58.74 -2.58 -83.38 -9.73c-9.83 -2.86 -22.48 -7.19 -33.03 -15.41c-6.67 -5.18 -9.56 -10.92 -9.38 -18.62c0.3 -12.87 0.24 -25.45 0.17 -38.76c0 -0.48 0 -0.97 0 -1.46c9.44 9.2 21.73 13.87 34.55 18.06c24.9 8.13 52.18 11.81 85.82 11.59c1.87 0 3.74 0 5.66 0c0 -3.44 0 -6.78 0 -10c-1.94 0 -3.84 0 -5.73 0l0 0c-32.53 0.23 -58.8 -3.31 -82.65 -11.09c-16.3 -5.32 -30.43 -10.95 -38.27 -25.99l-9.43 -18.1l0 20.41c0 5.6 0.03 11.13 0.05 16.63c0.06 13.25 0.12 25.76 -0.17 38.48c-0.25 10.87 4.08 19.62 13.24 26.74c11.89 9.26 25.69 14.01 36.38 17.12c23.55 6.84 49.67 10.18 79.67 10.18c2.2 0 4.42 -0.02 6.66 -0.05c0.08 0 0.16 0 0.23 0c0 -3.33 0 -6.66 0 -10l0 -0.01z"></path><path fill="#fff" d="m136.28 298.87c-0.36 0.01 -0.72 0.02 -1.07 0.03c-35.52 0.49 -64.06 -3.31 -89.87 -11.96c-9.55 -3.2 -20.49 -7.62 -29.24 -16.06c-4.18 -4.03 -6.1 -8.62 -6.03 -14.46c0.15 -13.42 0.12 -27.04 0.09 -40.22c0 -0.32 0 -0.64 0 -0.97c5.64 5.17 12.27 8.6 18.46 11.52c18.25 8.6 37.5 12.28 52.23 14.53c17.14 2.62 35.26 3.68 55.35 3.22c0 -3.3 0 -6.64 0 -10c-19.6 0.45 -37.22 -0.56 -53.84 -3.1c-14.06 -2.14 -32.39 -5.64 -49.47 -13.69c-11.13 -5.25 -18.9 -10.37 -23.2 -19.67l-9.55 -20.6l0 22.71c0 5.36 0.01 10.72 0.02 16.08c0.03 13.14 0.06 26.73 -0.09 40.08c-0.09 8.53 2.96 15.85 9.09 21.76c10.24 9.88 23.02 14.99 33 18.34c25.39 8.51 53.18 12.52 87.04 12.52c2.03 0 4.08 -0.01 6.15 -0.04c0.33 0 0.65 -0.02 0.97 -0.03c-0.02 -2.94 -0.03 -6.29 -0.04 -10l0 0.01z"></path></g></g><g transform="translate(253.9844 183.2794)"><path fill="#fff" d="m393.15 52.21c-6.45 -3.29 -13.17 -6.21 -20.01 -8.56c-26.35 -9.03 -53.65 -12.61 -81.37 -13.71c-15.03 -0.59 -29.99 -0.4 -44.85 0.77c-4.7 0.37 -9.39 0.84 -14.06 1.41c-12.71 1.55 -25.34 3.87 -37.88 7.09c-16.45 4.23 -32.4 9.8 -46.07 20.4c-8.33 6.46 -13.24 14.4 -12.8 25.51c0.41 10.25 -0.08 20.53 0.13 30.79c0 3.1 0 6.78 0 10.91c0 3.09 0 6.44 0 10.01c-0.04 55.74 -0.1 165.67 0.2 183.25c0.07 3.9 1.76 8.23 3.94 11.55c7.16 10.91 18.38 16.64 29.98 21.44c30.5 12.62 62.7 17.09 95.33 17.53c20.58 0.28 41.26 -1.37 61.78 -3.33c19.99 -1.92 39.47 -6.89 57.89 -15.09c13.57 -6.04 26.35 -13.29 31.99 -28.41l0 -247.21c-4.44 -11.74 -13.55 -18.93 -24.18 -24.35l-0.02 0zm-231.5 21.43c12.31 -9.54 26.67 -14.55 41.48 -18.36c14.14 -3.64 28.42 -6.01 42.8 -7.33c3.32 -0.3 6.64 -0.55 9.96 -0.74c11.4 -0.67 22.86 -0.73 34.37 -0.28c24.95 0.99 49.53 4.22 73.25 12.34c6.17 2.11 12.21 4.74 18.02 7.7c9.58 4.88 17.78 11.35 21.74 21.91l0 45.79c-5.4 13.56 -17.01 20.14 -29.39 25.52c-19.41 8.43 -39.97 12.36 -60.9 14.65c-21.62 2.37 -43.28 2.63 -64.93 0.72c-25.8 -2.27 -51.15 -6.62 -74.64 -18.33c-7.35 -3.66 -14.54 -7.9 -18.91 -15.05c-2.26 -3.7 -3.86 -8.34 -4.08 -12.65c-0.15 -2.8 -0.21 -5.59 -0.23 -8.39c-0.04 -5.45 0.09 -10.91 0.08 -16.36c0 -2.73 -0.04 -5.45 -0.15 -8.17c-0.4 -10 4.03 -17.15 11.53 -22.96l0 -0.01zm241.62 237.77c-5.08 13.61 -16.58 20.14 -28.79 25.58c-16.59 7.39 -34.12 11.86 -52.12 13.59c-18.47 1.77 -37.08 3.25 -55.61 3c-29.37 -0.4 -58.36 -4.42 -85.82 -15.78c-10.44 -4.32 -20.54 -9.48 -26.98 -19.3c-1.96 -2.99 -3.48 -6.89 -3.54 -10.4c-0.34 -19.94 -0.17 -39.89 -0.16 -59.83c0 -0.33 0.17 -0.65 0.35 -1.33c6.62 14.37 19.45 20.5 32.65 25.77c20.89 8.34 42.87 12.05 65.2 13.87c21.8 1.77 43.58 1.58 65.32 -0.82c19.45 -2.15 38.58 -5.84 56.78 -13.21c13.65 -5.53 26.49 -12.35 32.72 -27.01l0 65.87zm2.21 -89.18c-5.19 14.12 -17.18 20.68 -29.82 26.12c-20.45 8.8 -42.11 12.68 -64.15 14.85c-18.83 1.85 -37.68 2.17 -56.53 0.73c-27.32 -2.08 -54.16 -6.35 -79.09 -18.57c-7.74 -3.79 -15.1 -8.4 -19.72 -15.94c-1.94 -3.17 -3.5 -7.16 -3.56 -10.81c-0.34 -20.07 -0.16 -40.16 -0.16 -60.58c11.74 20.49 32.21 26.37 52.47 31.85c28.74 7.79 58.2 9.72 87.91 8.49c24.01 -0.99 47.66 -4.07 70.59 -11.51c11.49 -3.72 22.84 -8.1 31.76 -16.51c4.15 -3.91 6.92 -9.3 10.31 -14.01c-0.01 21.98 -0.01 43.94 -0.01 65.89l0 0z"></path><g><path fill="#d1dbe0" d="m150.41 129.52c0.22 4.3 1.82 8.95 4.08 12.65c4.38 7.15 11.57 11.39 18.91 15.05c23.49 11.71 48.84 16.06 74.64 18.33c21.65 1.91 43.31 1.65 64.93 -0.72c20.93 -2.29 41.49 -6.22 60.9 -14.65c12.38 -5.38 23.99 -11.96 29.39 -25.52l0 -45.79c-3.97 -10.56 -12.17 -17.03 -21.74 -21.91c-5.81 -2.96 -11.85 -5.59 -18.02 -7.7c-23.72 -8.13 -48.3 -11.36 -73.25 -12.34c-29.43 -1.16 -58.55 0.99 -87.13 8.35c-14.8 3.81 -29.17 8.82 -41.48 18.36c-7.5 5.81 -11.92 12.97 -11.53 22.96c0.45 10.97 -0.26 21.98 0.3 32.93l0 0z"></path><path fill="#d1dbe0" d="m370.54 272.54c-18.2 7.37 -37.33 11.06 -56.78 13.21c-21.74 2.4 -43.52 2.6 -65.32 0.82c-22.33 -1.81 -44.3 -5.53 -65.2 -13.87c-13.2 -5.27 -26.03 -11.4 -32.65 -25.77c-0.19 0.68 -0.35 1 -0.35 1.33c-0.01 19.94 -0.18 39.89 0.16 59.83c0.06 3.51 1.58 7.41 3.54 10.4c6.44 9.82 16.55 14.98 26.98 19.3c27.46 11.36 56.44 15.38 85.82 15.78c18.53 0.25 37.14 -1.23 55.61 -3c17.99 -1.73 35.53 -6.2 52.12 -13.59c12.22 -5.44 23.72 -11.97 28.79 -25.58l0 -65.88c-6.22 14.67 -19.06 21.49 -32.72 27.02l0 0z"></path><path fill="#d1dbe0" d="m363.42 186.88c-22.93 7.43 -46.58 10.52 -70.59 11.51c-29.71 1.22 -59.17 -0.7 -87.91 -8.49c-20.25 -5.49 -40.72 -11.36 -52.47 -31.85c0 20.42 -0.18 40.51 0.16 60.58c0.06 3.65 1.62 7.64 3.56 10.81c4.62 7.53 11.98 12.14 19.72 15.94c24.93 12.22 51.78 16.49 79.09 18.57c18.85 1.44 37.7 1.12 56.53 -0.73c22.04 -2.17 43.7 -6.05 64.15 -14.85c12.64 -5.44 24.63 -11.99 29.82 -26.12l0 -65.88c-3.39 4.72 -6.16 10.1 -10.31 14.01c-8.92 8.4 -20.27 12.77 -31.75 16.5l0 0z"></path></g></g></g><g style="filter: drop-shadow(rgb(140, 140, 140) 8px 7px 7px);"><g transform="matrix(0.8528 -0.4066 0.4066 0.8528 127.5705 556.3684)" style="animation-name: eaf-47d4-9, eaf-47d4-10, eaf-47d4-11, eaf-47d4-12; animation-composition: replace, add, add, add;"><path fill="#fff" d="m334.658 131.5229l-17.5 -21.6l-14.2 -11.7l-13 3.8l-5.7 22.9l2 42.5l-7.6 53.7l3.6 12.3l-26.8 28.6c0 0 -26.9 43.5 -26.2 45.8c0.7 2.3 4 32.5 4 32.5l10.8 1.3l34.6 -32.4l-6.8 41.1l6.4 41.8l18.9 53.3l31.1 60.7l83.7526 107.4382l13.7925 -26.5064l-37.0451 -109.3318l56.9 18.5l-21.5 -58.6l-27 -29.7l11.5 -108.3l-10.1 -70.3l-27.4 -58.3l-28.3 -23.9l-8.2 -15.5999z"></path><g><path fill="#fff" d="m437 490.1c-16.7 -10.6 -30.8 -16.7 -44.5 -18.7c-3.9 -0.6 -9 -3.7 -11.8 0.1c0.7 2.7 -0.8 5.6 -0.7 8.8c0 5.7 1 14.1 3.3 19.5c2.4 6 4.8 12.1 7.7 17.8c5.2 10 12.7 18.5 17.7 28.4c2.9 5.7 5.2 12.3 8 18.3c1.3 3.1 1.1 6.7 3.5 9.5l0.4 -0.6c-0.3 -2.8 0.9 -5.8 0.7 -8.8c-0.8 -3.4 -1.8 -6.5 -2.7 -9.9c-1.2 -11.9 -4.5 -23.7 -9.2 -34.5c-4 -8.7 -15 -23.9 -13 -33.4c0 0 -0.1 -0.3 -0.2 -0.7c4.9 2.4 11.4 4 16.6 5.4c8.3 2.4 14.6 6.8 23.2 9.3c3.9 1.2 7.9 2.2 11.9 3.1l1.1 -1.9c-1.5 -6.1 -1.2 -12.8 -3.1 -18.8c-5.2 -15.8 -11.6 -31.9 -19.3 -46.9c-4 -8.2 -10.8 -16 -15.6 -23.7c-1.8 -2.8 -5.6 -6 -5.8 -9c-1 -6.9 0.5 -14.3 1.1 -21.5c0.8 -15.3 2.6 -31.7 4.7 -47.2c1.1 -10.5 3.8 -20.2 3.7 -30.6c-0.2 -49 -10.9 -84.9 -34.4 -128.1c-5.2 -9.1 -13.3 -16.6 -21.9 -24.9c-5.2 -3.4 -10.2 -7 -15.3 -10.3c-2.5 -3.5 -3.5 -9.5 -5.3 -13.2c-7.5 -14.8 -28.7 -49.9 -50.6 -33.5c-13.9 10.3 -7.9 32.3 -7.2 42.2c0.7 7 2 15.3 1.3 22.3c-0.7 4.5 -2.5 8.5 -3.3 13.2c-2.2 11.3 -5.2 23.6 -6 34.9c-0.3 5.8 -0.6 12 0 17.8c0.3 3.3 2.6 6.2 1 10.4c-5.5 2.5 -9.5 8.7 -14.4 12.9c-21.9 19.3 -36.7 50.7 -36.4 74.7c0.2 7.3 1.3 23.7 14.7 25.8c11.8 1.9 16.9 -11.4 26 -20.3c2.2 -2.2 2.7 -4.1 5 -5c-0.1 0.2 -0.3 0.4 -0.3 0.4c-0.6 7.7 -1 15.2 -1.8 22.7c0.3 14.3 5.3 31.9 10.5 44.8c2.8 6.8 7.8 21 7.8 21c-0.1 -2.7 -1.5 -4.6 -2.3 -7.1c-1.5 -6.1 -3 -13.3 -3.4 -19.3c-1.8 -17.2 -1.7 -34.9 -0.6 -52.7c0.5 -8.6 1.9 -17.5 3.1 -25.7c0.3 -3.3 2.5 -7.1 1.2 -9.6c-6 2.7 -13 4 -18.8 8.3c-9.5 6.7 -16.6 17.6 -25 28.4c-1 -0.3 -0.4 -0.3 -1.1 -0.1c-5.7 -5.7 -3.9 -14.1 -2.9 -21.6c2.7 -18.8 16 -43.5 31.9 -57.6c4.1 -3.6 18.8 -13.7 18.8 -19.4c1.1 -4.8 -1.7 -9.6 -2.1 -14.2c-0.3 -5.7 -0.3 -12.5 0.5 -18.1c2 -14.9 7.3 -29.5 8.9 -44.6c0.8 -7 -0.3 -15.4 -0.8 -22.6c-0.6 -8.1 -2.6 -14.8 -1.7 -23.5c0.3 -3 1.1 -7.6 4.3 -9.2c1.4 -1.4 2.7 -1.6 4.6 -1c4.1 -0.7 10.2 7 12.2 9.9c5.9 7.9 10.7 14.7 14.6 23.1c1.7 3.9 2.5 9.8 5.6 13.1l4.4 2.7c5.9 5.5 14.1 9 19.3 14.7c9 10.3 16 21.7 21.7 32.8c17.2 34.1 25 72.8 22.6 111.8c-0.4 6.4 -2 11.5 -2.7 17.9c-1.8 13 -2.6 26.9 -4.3 39.7c-1.5 12.6 -3.4 25.3 -2 37.3c0.5 6.3 11.8 16.3 16.1 22c3.1 4.4 8.6 10.1 11 14.7c4.5 8.7 8.7 18.1 12.5 27c1.7999 4.9001 9.1999 16.5001 7.2999 21.1001l0 0l0 0z"></path><path fill="#fff" d="m331.5 177.3c-3.6 -2.2 -6.4 -3.2 -9.3 -4.1c0 0 -0.1 0.2 -0.3 0.4l0.4 0.3c-0.3 4.4 1.2 8.5 1.6 12.7c-0.3 4.4 -0.9 8.7 -1.2 13.1c0.3 -0.1 0.7 -0.2 0.7 -0.2c4.2 -0.3 7.7 -2.8 10.8 -7.9c-0.4 -2.2 0.3 -3.8 0.1 -6c0 -2.9 -2.1 -5.6 -2.8 -8.3l0 0l0 0z"></path></g></g></g></g></g></svg>