<svg xmlns="http://www.w3.org/2000/svg" viewBox="0 0 769 769" overflow="hidden" preserveAspectRatio="xMidYMid meet" id="eaf-18616-0"><defs><clipPath id="eaf-18616-1"><rect x="0" y="0" width="769" height="769"></rect></clipPath><style>#eaf-18616-0 * {animation: 6000ms linear infinite normal both running;offset-rotate:0deg}@keyframes eaf-18616-2{0%{fill:#f3582c}43.88%{fill:#f3582c}50%{fill:#f4b526;animation-timing-function:ease-in-out}53.88%{fill:#f3582c}58.33%{fill:#f4b526;animation-timing-function:ease-in-out}62.22%{fill:#f3582c}66.67%{fill:#f4b526;animation-timing-function:ease-in-out}70.55%{fill:#f3582c}75%{fill:#f4b526;animation-timing-function:ease-in-out}78.88%{fill:#f3582c}83.33%{fill:#f4b526;animation-timing-function:ease-in-out}87.22%{fill:#f3582c}91.67%{fill:#f4b526;animation-timing-function:ease-in-out}93.33%,100%{fill:#f3582c}}@keyframes eaf-18616-3{0%,100%{transform:translate(212.9389px,568.7531px)}}@keyframes eaf-18616-4{0%{transform:scale(1,1)}43.88%{transform:scale(1,1);animation-timing-function:ease-in-out}50%{transform:scale(1.1,1.1);animation-timing-function:ease-in-out}53.88%{transform:scale(1,1);animation-timing-function:ease-in-out}58.33%{transform:scale(1.1,1.1);animation-timing-function:ease-in-out}62.22%{transform:scale(1,1);animation-timing-function:ease-in-out}66.67%{transform:scale(1.1,1.1);animation-timing-function:ease-in-out}70.55%{transform:scale(1,1);animation-timing-function:ease-in-out}75%{transform:scale(1.1,1.1);animation-timing-function:ease-in-out}78.88%{transform:scale(1,1);animation-timing-function:ease-in-out}83.33%{transform:scale(1.1,1.1);animation-timing-function:ease-in-out}87.22%{transform:scale(1,1);animation-timing-function:ease-in-out}91.67%{transform:scale(1.1,1.1);animation-timing-function:ease-in-out}93.33%,100%{transform:scale(1,1)}}@keyframes eaf-18616-5{0%,100%{transform:translate(-204.4389px,-577.1531px)}}@keyframes eaf-18616-6{0%{fill:#bababa}46.12%{fill:#bababa;animation-timing-function:ease-in-out}51.67%{fill:#6dff0c;animation-timing-function:ease-in-out}57.22%{fill:#4a0;animation-timing-function:ease-in-out}62.77%{fill:#6dff0c;animation-timing-function:ease-in-out}68.32%{fill:#bababa;animation-timing-function:ease-in-out}68.33%{fill:#4a0;animation-timing-function:ease-in-out}73.88%{fill:#6dff0c;animation-timing-function:ease-in-out}79.43%{fill:#bababa;animation-timing-function:ease-in-out}79.45%{fill:#4a0;animation-timing-function:ease-in-out}85%{fill:#6dff0c;animation-timing-function:ease-in-out}90.55%,100%{fill:#bababa}}@keyframes eaf-18616-7{0%,100%{filter:none}}@keyframes eaf-18616-8{0%{filter:drop-shadow(0 0 12px #0000)}46.12%{filter:drop-shadow(0 0 12px #0000)}51.67%{filter:drop-shadow(0 0 12px #37ff00)}57.22%{filter:drop-shadow(0 0 12px #0000)}62.77%{filter:drop-shadow(0 0 12px #37ff00)}68.32%{filter:drop-shadow(0 0 12px #6b6b6b)}68.33%{filter:drop-shadow(0 0 12px #0000)}73.88%{filter:drop-shadow(0 0 12px #37ff00)}79.43%{filter:drop-shadow(0 0 12px #6b6b6b)}79.45%{filter:drop-shadow(0 0 12px #6b6b6b)}85%{filter:drop-shadow(0 0 12px #37ff00)}90.55%,100%{filter:drop-shadow(0 0 12px #0000)}}@keyframes eaf-18616-9{0%,100%{transform:none;offset-path:path("m642.2779 745.8487l0 0l-96.2375 -89.0309l0 0l96.2375 89.0309")}}@keyframes eaf-18616-10{0%{offset-distance:0%}16.67%{offset-distance:0%}43.88%{offset-distance:50%}93.33%{offset-distance:50%}100%{offset-distance:100%}}@keyframes eaf-18616-11{0%,100%{transform:matrix(-1,0,0,1,289.0688,-614.8375)}}@keyframes eaf-18616-12{0%{fill:#808080}43.88%{fill:#f3582c}50%{fill:#f4b526;animation-timing-function:ease-in-out}53.88%{fill:#f3582c}58.33%{fill:#f4b526;animation-timing-function:ease-in-out}62.22%{fill:#f3582c}66.67%{fill:#f4b526;animation-timing-function:ease-in-out}70.55%{fill:#f3582c}75%{fill:#f4b526;animation-timing-function:ease-in-out}78.88%{fill:#f3582c}83.33%{fill:#f4b526;animation-timing-function:ease-in-out}87.22%{fill:#f3582c}91.67%{fill:#f4b526;animation-timing-function:ease-in-out}93.33%,100%{fill:#f3582c}}@keyframes eaf-18616-13{0%,100%{transform:none;offset-path:path("m161.9654 25.1627l0 0l64.3626 70.8927l0 0l-64.3626 -70.8927")}}@keyframes eaf-18616-14{0%,100%{transform:matrix(1,0,0,-1,-289.0688,614.8375)}}@keyframes eaf-18616-15{0%,100%{transform:translate(306.7544px,400.645px)}}@keyframes eaf-18616-16{0%,27.22%{transform:scale(0.85,0.85)}31.12%,100%{transform:scale(1,1)}}@keyframes eaf-18616-17{0%,100%{transform:translate(-306.7544px,-400.645px)}}@keyframes eaf-18616-18{0%{opacity:0}27.22%{opacity:0}28.33%{opacity:0.41}29.45%{opacity:0.21}30.55%{opacity:1}32.78%,100%{opacity:0}}@keyframes eaf-18616-19{0%,100%{transform:translate(428.4421px,262.8664px)}}@keyframes eaf-18616-20{0%,28.33%{transform:scale(0.85,0.85)}32.23%,100%{transform:scale(1,1)}}@keyframes eaf-18616-21{0%,100%{transform:translate(-428.4421px,-262.8664px)}}</style></defs><g clip-path="url('#eaf-18616-1')" style="isolation: isolate;"><g><path fill="#f3582c" d="m768.1 385.5c0 96.2 0 192.5 0 288.8c0 44.1 -33.3 84.4 -76.7 92.7c-6.4 1.2 -13.1 1.9 -19.6 1.9c-191.9 0.1 -383.8 0.1 -575.7 0.1c-47 0 -88.1 -36.1 -94.2 -82.9c-0.6 -4.1 -0.9 -8.3 -0.9 -12.5c0 -192.4 0 -384.7 0 -577c0 -44.1 33.3 -84.5 76.7 -92.7c6.4 -1.3 13 -1.9 19.6 -1.9c192 -0.1 384.1 -0.1 576.1 -0.1c44.1 0 84.5 33.3 92.7 76.7c1.2 6.4 1.9 13.1 1.9 19.6c0.1 95.8 0.1 191.6 0.1 287.3z"></path><g transform="matrix(-1 0 0 1 931.3467 131.0112)" style="animation-name: eaf-18616-9, eaf-18616-10, eaf-18616-11; animation-composition: replace, add, add;"><path fill="#f3582c" stroke="#fff" stroke-width="10" d="m27.4 845.9c16.1 -18 31.5 -24.7 43.9 -30.2c9.6 -4.2 17.2 -7.6 27 -16.9c19.4 -18.5 37.5 -51.7 34.2 -84.2c-1.2 -12.3 -5.1 -19.8 -9.6 -28.6c-6.1 -11.9 -14.5 -28.2 -10.7 -51.1c4.8 -28.9 26 -53.3 63.1 -72.9l45 45c-42.5 17.5 -48.3 33.1 -49 37.7c-0.5 2.8 -0.1 4.2 4.9 13.9c5.8 11.2 13.6 26.5 16 50.1c4.6 46.3 -16 98.6 -52.5 133.4c-17.3 16.5 -32.2 23.1 -44.2 28.4c-9.9 4.4 -15.9 7 -23.4 15.3c-13.2 14.7 -42.7 126.6 -43.7 153.7l-69.2 26.4c1.5 -41.4 45.5 -194.6 68.2 -220z" transform="translate(8.5 -8.4)" style="animation-name: eaf-18616-2, eaf-18616-3, eaf-18616-4, eaf-18616-5; animation-composition: replace, replace, add, add;"></path><g transform="matrix(1.2397 0 0 1.2397 -121.2348 -66.346)"><path fill="#fff" d="m612.4 272.8l-10.2 -10.2c-8.7 -8.7 -22.8 -8.7 -31.4 0l-85.7 85.7l41.6 41.6l85.8 -85.8c8.6 -8.5 8.6 -22.6 -0.0999 -31.3zm-26.8 32.5c-8.9 0 -16 -7.2 -16 -16c0 -8.9 7.2 -16 16 -16c8.8 0 16 7.2 16 16c0 8.8 -7.2 16 -16 16z" transform="translate(-21.7229 1.2107)"></path><path fill="#fff" d="m520.1 211.9c8.7 -8.7 8.7 -22.8 0 -31.4l-10.2 -10.2c-8.7 -8.7 -22.8 -8.7 -31.4 0l-85.7 85.7l41.6 41.6l85.7 -85.7zm-27.7 -30.3c8.9 0 16 7.2 16 16c0 8.9 -7.2 16 -16 16c-8.9 0 -16 -7.2 -16 -16c-0.1 -8.8 7.1 -16 16 -16z" transform="translate(-5.1661 26.5982)"></path></g><path fill="#fff" d="m256.8 595.7l14.2 -14.2c0.7 -0.7 1.9 -0.7 2.7 0l0.4 0.4c29 29 76.1 29 105.1 0l149.3 -125.5c10.2 -10.2 10.2 -26.8 0 -37l-166.8 -166.8c-10.5 -10.5 -27.6 -10.5 -38.2 0l-124 148.8c-29.2 29.2 -29.2 76.6 0 105.9l0 0c0.7 0.7 0.7 1.9 0 2.7l-14.2 14.2c-9.6 9.6 -9.6 25.2 0 34.9l36.6 36.6c9.7 9.6 25.3 9.6 34.9 0z"></path><line x1="177.7" y1="492.8" x2="283.7" y2="598.8" fill="none" stroke="#a1a1a1" stroke-width="10.6552" stroke-miterlimit="10" transform="translate(7.85 0)"></line><path fill="#9b9b9b" d="m323.1 315l0 0l-94.3 113.2c0 0 0 0 -0.1 0.1l-1.2 1.2c-13.8 13.8 -13.8 36.2 0 49.9l74.2 74.2c5.1 5.1 11.6 8.8 18.7 10c11.5 2 22.8 -1.6 30.8 -9.7l1.2 -1.2c0 0 0 0 0.1 -0.1l113.1 -95.1l0 0l-142.5 -142.5z"></path><path fill="#f3582c" d="m326.7 542.7c-0.8 0 -1.7 -0.1 -2.6 -0.2c-2.5 -0.4 -5.1 -1.9 -7.3 -4.1l-74.2 -74.2c-5.4 -5.4 -5.4 -14.3 0 -19.8l1.1 -1.1l0.7 -0.7l0.8 -1l79.3 -95.2l109.6 109.6l-95.2 80.1l-0.9 0.7l-0.8 0.8l-1.1 1.1c-2.5 2.6 -5.9 4 -9.4 4l0 0z"></path><g style="animation-name: eaf-18616-7, eaf-18616-8; animation-composition: replace, add;"><ellipse fill="#bababa" stroke="#f3582c" stroke-width="6" rx="22.2375" ry="22.2375" transform="matrix(1.8 0 0 1.8 328.7 450.7724)" style="animation-name: eaf-18616-6;"></ellipse></g><path fill="#fff" d="m0 0l9.59 -10.0711l9.11 -1.2l8.3 1.2l-8.3 10.0711l-18.7 11.2013l0 -11.2013z" transform="translate(301.7 439.5711)"></path></g><g transform="matrix(1 0 0 -1 -127.1034 640.0002)" style="animation-name: eaf-18616-13, eaf-18616-10, eaf-18616-14; animation-composition: replace, add, add;"><path fill="#808080" stroke="#fff" stroke-width="10" d="m27.4 845.9c16.1 -18 31.5 -24.7 43.9 -30.2c9.6 -4.2 17.2 -7.6 27 -16.9c19.4 -18.5 37.5 -51.7 34.2 -84.2c-1.2 -12.3 -5.1 -19.8 -9.6 -28.6c-6.1 -11.9 -14.5 -28.2 -10.7 -51.1c4.8 -28.9 26 -53.3 63.1 -72.9l45 45c-42.5 17.5 -48.3 33.1 -49 37.7c-0.5 2.8 -0.1 4.2 4.9 13.9c5.8 11.2 13.6 26.5 16 50.1c4.6 46.3 -16 98.6 -52.5 133.4c-17.3 16.5 -32.2 23.1 -44.2 28.4c-9.9 4.4 -15.9 7 -23.4 15.3c-13.2 14.7 -42.7 126.6 -43.7 153.7l-69.2 26.4c1.5 -41.4 45.5 -194.6 68.2 -220z" transform="translate(8.5 -8.4)" style="animation-name: eaf-18616-12, eaf-18616-3, eaf-18616-4, eaf-18616-5; animation-composition: replace, replace, add, add;"></path><path fill="#fff" d="m256.8 595.7l14.2 -14.2c0.7 -0.7 1.9 -0.7 2.7 0l0.4 0.4c29 29 76.1 29 105.1 0l149.3 -125.5c10.2 -10.2 10.2 -26.8 0 -37l-166.8 -166.8c-10.5 -10.5 -27.6 -10.5 -38.2 0l-124 148.8c-29.2 29.2 -29.2 76.6 0 105.9l0 0c0.7 0.7 0.7 1.9 0 2.7l-14.2 14.2c-9.6 9.6 -9.6 25.2 0 34.9l36.6 36.6c9.7 9.6 25.3 9.6 34.9 0z"></path><line x1="177.7" y1="492.8" x2="283.7" y2="598.8" fill="none" stroke="#a1a1a1" stroke-width="10.6552" stroke-miterlimit="10" transform="translate(7.85 0)"></line><path fill="#9b9b9b" d="m323.1 315l0 0l-94.3 113.2c0 0 0 0 -0.1 0.1l-1.2 1.2c-13.8 13.8 -13.8 36.2 0 49.9l74.2 74.2c5.1 5.1 11.6 8.8 18.7 10c11.5 2 22.8 -1.6 30.8 -9.7l1.2 -1.2c0 0 0 0 0.1 -0.1l113.1 -95.1l0 0l-142.5 -142.5z"></path><path fill="#f3582c" d="m326.7 542.7c-0.8 0 -1.7 -0.1 -2.6 -0.2c-2.5 -0.4 -5.1 -1.9 -7.3 -4.1l-74.2 -74.2c-5.4 -5.4 -5.4 -14.3 0 -19.8l1.1 -1.1l0.7 -0.7l0.8 -1l79.3 -95.2l109.6 109.6l-95.2 80.1l-0.9 0.7l-0.8 0.8l-1.1 1.1c-2.5 2.6 -5.9 4 -9.4 4l0 0z"></path><g style="animation-name: eaf-18616-7, eaf-18616-8; animation-composition: replace, add;"><ellipse fill="#bababa" stroke="#f3582c" stroke-width="6" rx="22.2375" ry="22.2375" transform="matrix(1.8 0 0 1.8 328.7 450.7724)" style="animation-name: eaf-18616-6;"></ellipse></g><path fill="#fff" d="m0 0l9.59 -10.0711l9.11 -1.2l8.3 1.2l-8.3 10.0711l-18.7 11.2013l0 -11.2013z" transform="translate(301.7 439.5711)"></path></g><g transform="matrix(0.85 0 0 0.85 46.0132 60.0967)" opacity="0" style="animation-name: eaf-18616-15, eaf-18616-16, eaf-18616-17, eaf-18616-18; animation-composition: replace, add, add, replace;"><g><path fill="none" stroke="#00b7ff" stroke-width="18" d="m0 0l-23.3 24.6638q-3.9112 42.6507 -3.9112 42.6507c0 0 -16.4169 24.4775 -22.4 33.5237c-8.4759 12.8151 -42.1687 13.5255 -43.5875 13.5255c-1.4188 0 -20.6013 49.75 -20.6013 49.75" transform="matrix(1.7954 -0.5834 0.545 1.6772 298.6002 412.7612)"></path><path fill="none" stroke="#00b7ff" stroke-width="18" d="m0 0q-58.5729 42.9751 -68.7229 42.9751q-10.15 0 -84.55 -23.5324l-39.55 55.2125" transform="translate(270.2085 498.5612)"></path><path fill="none" stroke="#00b7ff" stroke-width="18" d="m0 0q46.732 38.1235 47.9618 39.3533c1.2298 1.2298 0 39.3533 0 43.0426c0 3.6894 -17.2171 54.1107 -20.9064 56.5703q-3.6894 2.4596 72.5576 28.2852" transform="translate(279.699 575.4921)"></path><path fill="none" stroke="#00b7ff" stroke-width="18" d="m0 0c0 1.2298 0 -56.5703 0 -56.5703q0 0 -63.9491 -36.8937" transform="translate(159.1797 520.1516)"></path><path fill="none" stroke="#00b7ff" stroke-width="18" d="m0 0q-5.05 -1.6 -57.4396 -31.1l-66.7854 46.6" transform="translate(241.1606 632.2164)"></path></g><g style="filter: blur(18px);"><g><path fill="none" stroke="#00b7ff" stroke-width="18" d="m0 0l-23.3 24.6638q-3.9112 42.6507 -3.9112 42.6507c0 0 -16.4169 24.4775 -22.4 33.5237c-8.4759 12.8151 -42.1687 13.5255 -43.5875 13.5255c-1.4188 0 -20.6013 49.75 -20.6013 49.75" transform="matrix(1.7954 -0.5834 0.545 1.6772 298.6002 412.7612)"></path><path fill="none" stroke="#00b7ff" stroke-width="18" d="m0 0q-58.5729 42.9751 -68.7229 42.9751q-10.15 0 -84.55 -23.5324l-39.55 55.2125" transform="translate(270.2085 498.5612)"></path><path fill="none" stroke="#00b7ff" stroke-width="18" d="m0 0q46.732 38.1235 47.9618 39.3533c1.2298 1.2298 0 39.3533 0 43.0426c0 3.6894 -17.2171 54.1107 -20.9064 56.5703q-3.6894 2.4596 72.5576 28.2852" transform="translate(279.699 575.4921)"></path><path fill="none" stroke="#00b7ff" stroke-width="18" d="m0 0c0 1.2298 0 -56.5703 0 -56.5703q0 0 -63.9491 -36.8937" transform="translate(159.1797 520.1516)"></path><path fill="none" stroke="#00b7ff" stroke-width="18" d="m0 0q-5.05 -1.6 -57.4396 -31.1l-66.7854 46.6" transform="translate(241.1606 632.2164)"></path></g></g></g><g transform="matrix(0.85 0 0 0.85 64.2663 39.43)" opacity="0" style="animation-name: eaf-18616-19, eaf-18616-20, eaf-18616-21, eaf-18616-18; animation-composition: replace, add, add, replace;"><g transform="matrix(-0.2005 0.804 0.804 0.2005 158.9931 -57.7617)"><path fill="none" stroke="#00b7ff" stroke-width="18" d="m0 0l-23.3 24.6638q-3.9112 42.6507 -3.9112 42.6507c0 0 -16.4169 24.4775 -22.4 33.5237c-8.4759 12.8151 -42.1687 13.5255 -43.5875 13.5255c-1.4188 0 -20.6013 49.75 -20.6013 49.75" transform="matrix(1.7954 -0.5834 0.545 1.6772 298.6002 412.7612)"></path><path fill="none" stroke="#00b7ff" stroke-width="18" d="m0 0q-58.5729 42.9751 -68.7229 42.9751q-10.15 0 -84.55 -23.5324l-39.55 55.2125" transform="translate(270.2085 498.5612)"></path><path fill="none" stroke="#00b7ff" stroke-width="18" d="m0 0q46.732 38.1235 47.9618 39.3533c1.2298 1.2298 0 39.3533 0 43.0426c0 3.6894 -17.2171 54.1107 -20.9064 56.5703q-3.6894 2.4596 72.5576 28.2852" transform="translate(279.699 575.4921)"></path><path fill="none" stroke="#00b7ff" stroke-width="18" d="m0 0c0 1.2298 0 -56.5703 0 -56.5703q0 0 -63.9491 -36.8937" transform="translate(159.1797 520.1516)"></path><path fill="none" stroke="#00b7ff" stroke-width="18" d="m0 0q-5.05 -1.6 -57.4396 -31.1l-66.7854 46.6" transform="translate(241.1606 632.2164)"></path></g><g style="filter: blur(16px);"><g transform="matrix(-0.2005 0.804 0.804 0.2005 158.9931 -57.7617)"><path fill="none" stroke="#00b7ff" stroke-width="18" d="m0 0l-23.3 24.6638q-3.9112 42.6507 -3.9112 42.6507c0 0 -16.4169 24.4775 -22.4 33.5237c-8.4759 12.8151 -42.1687 13.5255 -43.5875 13.5255c-1.4188 0 -20.6013 49.75 -20.6013 49.75" transform="matrix(1.7954 -0.5834 0.545 1.6772 298.6002 412.7612)"></path><path fill="none" stroke="#00b7ff" stroke-width="18" d="m0 0q-58.5729 42.9751 -68.7229 42.9751q-10.15 0 -84.55 -23.5324l-39.55 55.2125" transform="translate(270.2085 498.5612)"></path><path fill="none" stroke="#00b7ff" stroke-width="18" d="m0 0q46.732 38.1235 47.9618 39.3533c1.2298 1.2298 0 39.3533 0 43.0426c0 3.6894 -17.2171 54.1107 -20.9064 56.5703q-3.6894 2.4596 72.5576 28.2852" transform="translate(279.699 575.4921)"></path><path fill="none" stroke="#00b7ff" stroke-width="18" d="m0 0c0 1.2298 0 -56.5703 0 -56.5703q0 0 -63.9491 -36.8937" transform="translate(159.1797 520.1516)"></path><path fill="none" stroke="#00b7ff" stroke-width="18" d="m0 0q-5.05 -1.6 -57.4396 -31.1l-66.7854 46.6" transform="translate(241.1606 632.2164)"></path></g></g></g><ellipse fill="#fff" stroke="#fff" stroke-width="10" rx="0.8707" ry="0.8707" transform="translate(-260.8619 1239.2263)"></ellipse></g></g></svg>