<svg xmlns="http://www.w3.org/2000/svg" viewBox="0 0 769 769" overflow="hidden" preserveAspectRatio="xMidYMid meet" id="eaf-a78c-0"><defs><clipPath id="eaf-a78c-1"><rect x="0" y="0" width="769" height="769"></rect></clipPath><style>#eaf-a78c-0 * {animation: 9200ms linear infinite normal both running;offset-rotate:0deg}@keyframes eaf-a78c-2{0%{opacity:1}34.05%{opacity:1;animation-timing-function:ease-in-out}37.32%{opacity:0}67.75%{opacity:0;animation-timing-function:ease-in-out}71.01%,100%{opacity:1}}@keyframes eaf-a78c-3{0%{opacity:0}34.05%{opacity:0;animation-timing-function:ease-in-out}37.32%{opacity:1}67.75%{opacity:1;animation-timing-function:ease-in-out}71.01%,100%{opacity:0}}@keyframes eaf-a78c-4{0%,100%{transform:none;offset-path:path("m444.0328 -122.5866l-570.4957 552.0543")}}@keyframes eaf-a78c-5{0%{offset-distance:0%}97.83%,100%{offset-distance:100%}}@keyframes eaf-a78c-6{0%,100%{transform:translate(-150.7153px,-146.6244px)}}@keyframes eaf-a78c-7{0%,100%{transform:translate(436.7px,605.7px)}}@keyframes eaf-a78c-8{0%{transform:scale(0.9,0.9);animation-timing-function:ease-in-out}5.43%{transform:scale(0.95,0.95);animation-timing-function:ease-in-out}10.87%{transform:scale(0.8,0.8);animation-timing-function:ease-in-out}16.3%{transform:scale(0.9,0.9)}25%{transform:scale(0.9,0.9);animation-timing-function:ease-in-out}30.43%{transform:scale(0.95,0.95);animation-timing-function:ease-in-out}35.87%{transform:scale(0.8,0.8);animation-timing-function:ease-in-out}41.3%{transform:scale(0.9,0.9)}50%{transform:scale(0.9,0.9);animation-timing-function:ease-in-out}55.43%{transform:scale(0.95,0.95);animation-timing-function:ease-in-out}60.87%{transform:scale(0.8,0.8);animation-timing-function:ease-in-out}66.3%{transform:scale(0.9,0.9)}75%{transform:scale(0.9,0.9);animation-timing-function:ease-in-out}80.43%{transform:scale(0.95,0.95);animation-timing-function:ease-in-out}85.87%{transform:scale(0.8,0.8);animation-timing-function:ease-in-out}91.3%,100%{transform:scale(0.9,0.9)}}@keyframes eaf-a78c-9{0%,100%{transform:translate(-385.7px,-605.7px)}}@keyframes eaf-a78c-10{0%,100%{transform:none;offset-path:path("m385.7 605.7l0 98.7342l0 -98.7342")}}@keyframes eaf-a78c-11{0%{offset-distance:0%;animation-timing-function:ease-in-out}51.82%{offset-distance:50%;animation-timing-function:ease-in-out}100%{offset-distance:100%}}@keyframes eaf-a78c-12{0%,100%{transform:matrix(0.8233,0,0,0.8233,-266.5352,-498.6546)}}</style></defs><g clip-path="url('#eaf-a78c-1')" style="isolation: isolate;"><g><path fill="#f3582c" d="m768.1 385.5c0 96.2 0 192.5 0 288.8c0 44.1 -33.3 84.4 -76.7 92.7c-6.4 1.2 -13.1 1.9 -19.6 1.9c-191.9 0.1 -383.8 0.1 -575.7 0.1c-47 0 -88.1 -36.1 -94.2 -82.9c-0.6 -4.1 -0.9 -8.3 -0.9 -12.5c0 -192.4 0 -384.7 0 -577c0 -44.1 33.3 -84.5 76.7 -92.7c6.4 -1.3 13 -1.9 19.6 -1.9c192 -0.1 384.1 -0.1 576.1 -0.1c44.1 0 84.5 33.3 92.7 76.7c1.2 6.4 1.9 13.1 1.9 19.6c0.1 95.8 0.1 191.6 0.1 287.3z"></path><path fill="#fff" d="m717 417.4c-28.4 -28.4 -5.8 -8.6 -34.4 -36.9c-3.3 -3.3 -4.7 -6.5 -4.7 -11.2c0.2 -50.5 0.1 -60.5 0.1 -111c0 -3.6 -0.2 -7.2 -0.8 -10.7c-1 -6.2 -4.3 -9.3 -11.3 -9.1c-17.5 0.5 -35 0.2 -52.4 0.2c-13.4 0 -15.4 1.8 -16.4 15.3c-0.2 1.9 -0.2 3.8 -0.2 5.7c0 22 0 3.5 0 25.5c0 2.5 0 5 0 9.1c-3.3 -3.1 -5.2 -4.9 -7.1 -6.7c-48.2999 -48.2 -147.4999 -144.6 -195.7999 -192.8c-6.9 -6.9 -9.6 -7 -16.1 -0.6c-108.3 108.3 -216.6 216.5 -324.9 324.8c-6 6 -6 8.9 0 15c7.1 7.1 14.1 14.2 21.2 21.2l0 276.4l80.4 0c153.8 0 307.7 0 461.5 0l83.6 0l0 -278.9c5.8 -5.7 11.5 -11.5 17.2 -17.2c8.0001 -8 8.0001 -10.1 0.1 -18.1z" transform="matrix(0.8834 0 0 0.9154 95.9825 34.7397)"></path><g transform="translate(293.3174 -269.211)" style="animation-name: eaf-a78c-4, eaf-a78c-5, eaf-a78c-6; animation-composition: replace, add, add;"><path fill="#f4b526" stroke="#fff" stroke-width="18" paint-order="stroke" d="m447.5 605.7l-0.1 -2.9l-0.2 -2.9l-0.3 -2.9c-4.3 -30 -29.4 -52.3 -59.7 -53.2l-2.9 0l-2.9 0.2c-30.2 2.1 -54.4 25.8 -57.2 55.9l-0.2 2.9l-0.1 2.9l0.1 2.9l0.2 2.9c2.8 30.1 27 53.8 57.2 55.9l2.9 0.2l2.9 0c30.3 -0.8 55.5 -23.2 59.7 -53.2l0.3 -2.9l0.2 -2.9l0.1 -2.9z" transform="matrix(1.7808 0 0 1.7808 -535.1326 -934.8329)" style="animation-name: eaf-a78c-2;"></path><path fill="#fff" stroke="#fff" stroke-width="24" paint-order="stroke" d="m96.5458 83.3624c0.3392 -3.6462 0.8897 -7.2293 1.6391 -10.7368c-28.8296 13.4629 -49.4883 41.4527 -52.5807 74.696l-0.2972 4.3093l-0.1486 4.3093l0.1486 4.3093l0.2972 4.3093c4.1607 44.7274 40.1209 79.9447 84.997 83.0653l4.3093 0.2972l4.3093 0c42.8091 -1.1303 78.7673 -31.2763 87.5667 -72.557c-11.1911 5.2195 -23.5905 8.2537 -36.6252 8.5978l-4.3093 0l-4.3093 -0.2972c-44.876 -3.1206 -80.8363 -38.3379 -84.9969 -83.0653l-0.2972 -4.3093l-0.1486 -4.3093l0.1486 -4.3093l0.2972 -4.3093z" transform="matrix(1.274 0 0 1.274 -22.5165 -56.1573)" opacity="0" style="animation-name: eaf-a78c-3;"></path></g><g transform="matrix(0.9 0 0 0.9 89.57 60.57)" style="animation-name: eaf-a78c-7, eaf-a78c-8, eaf-a78c-9; animation-composition: replace, add, add;"><path fill="#f7e79c" d="m277.1 565.4l-0.8 1.9l-0.9 1.9c-7.4 14.1 -23.7 21 -38.9 16.4l-2 -0.7l-1.9 -0.8c-14.6 -6.5 -22.3 -22.2 -18.8 -37.8l0.6 -2l0.7 -2l1.8 -4.6l1.9 -4.6c28.2 -64.9 91.3 -107.5 162.1 -109.5l4.9 -0.1l4.9 0.1c70.7 2 133.9 44.6 162.1 109.5l1.9 4.6c0 0 1.8 4.6 1.8 4.6l0.7 2l0.6 2c3.5 15.6 -4.2 31.2 -18.8 37.8l-1.9 0.8l-2 0.7c-15.2 4.6 -31.6 -2.2 -38.9 -16.4l-0.9 -1.9l-0.8 -1.9l-0.1 0l-1.4 -3.7c-40.8 -95.6 -173.4 -95.6 -214.2 0l-1.4 3.7"></path><path fill="#fefadf" d="m607 523.5l0.8 1.9l0.9 1.9c7.4 14.1 23.7 21 38.9 16.4l2 -0.7l1.9 -0.8c14.6 -6.5 22.3 -22.2 18.8 -37.8l-0.6 -2l-0.7 -2l0 0.1l-2.3 -6l-2.4 -6c-46.4 -110.1 -152.7 -182.3 -272.2 -185l-6.4 -0.1l-6.4 0.1c-119.5 2.7 -225.8 74.9 -272.2 185l-2.4 6l-2.3 6l0 -0.1l-0.7 2l-0.6 2c-3.5 15.6 4.2 31.2 18.8 37.8l1.9 0.8l2 0.7c15.2 4.6 31.6 -2.2 38.9 -16.4l0.9 -1.9l0.8 -1.9l0.1 0.1l2 -5.3l2.1 -5.2c36.5 -85.1 118.8 -141 211.4 -143.3l5.6 -0.1l5.6 0.1c92.6 2.3 175 58.2 211.4 143.3l2.1 5.2l2.2999 5.2"></path></g><path fill="#f4b526" stroke="#fff" stroke-width="18" paint-order="stroke" d="m447.5 605.7l-0.1 -2.9l-0.2 -2.9l-0.3 -2.9c-4.3 -30 -29.4 -52.3 -59.7 -53.2l-2.9 0l-2.9 0.2c-30.2 2.1 -54.4 25.8 -57.2 55.9l-0.2 2.9l-0.1 2.9l0.1 2.9l0.2 2.9c2.8 30.1 27 53.8 57.2 55.9l2.9 0.2l2.9 0c30.3 -0.8 55.5 -23.2 59.7 -53.2l0.3 -2.9l0.2 -2.9l0.1 -2.9z" transform="matrix(0.8233 0 0 0.8233 119.1648 107.0454)" style="animation-name: eaf-a78c-10, eaf-a78c-11, eaf-a78c-12; animation-composition: replace, add, add;"></path></g></g></svg>