<?xml version="1.0" encoding="UTF-8"?>

<svg id="Layer_1" data-name="Layer 1" xmlns="http://www.w3.org/2000/svg" viewBox="0 0 191.79 191.79">
  <defs>
    <style>
      .cls-1 {
        fill: #fff;
      }

      .cls-2 {
        fill: #ffd528;
      }

      .cls-2a {
        fill: #fff;
      }

      .cls-3 {
        fill: #ffd528;

      }

      .cls-4 {
        fill: #f3582c;
      }
	  
	  
	<![CDATA[#Layer_1{pointer-events: all} 
		#Layer_1:hover * {animation-play-state: running !important}
		  #star {animation: star_f_o 2500ms linear infinite normal forwards}
		  @keyframes star_f_o { 
			  0% {fill-opacity: 1;animation-timing-function: step-end} 
			  25% {fill-opacity: 0;animation-timing-function: step-end} 
			  100% {fill-opacity: 0;animation-timing-function: step-end} 
			  2% {fill-opacity: 1} 100% {fill-opacity: 1} 
		  }
	]]>
	  
    </style>
	
	
	
  </defs>

  <path id="Background" class="cls-4" d="M191.79,95.91c0,24.06,0,48.13,0,72.19,0,11.03-8.32,21.11-19.18,23.18-1.61,.31-3.27,.48-4.9,.48-47.97,.03-95.93,.02-143.9,.02-11.76,0-22.02-9.02-23.56-20.72-.14-1.03-.23-2.08-.23-3.12C0,119.86,0,71.77,0,23.68,0,12.65,8.32,2.56,19.18,.5,20.79,.2,22.45,.02,24.08,.02,72.09,0,120.1,0,168.11,0c11.03,0,21.13,8.33,23.18,19.18,.3,1.61,.48,3.27,.48,4.9,.03,23.94,.02,47.89,.02,71.83h0Z"/>
  <path id="Cambody" class="cls-1" d="M94.95,161.72c-17.2,0-34.41-.06-51.61,.03-6.96,.04-13.03-2.27-18.4-6.44-6.63-5.15-10.59-12.01-11.42-20.37-.5-5.1-.41-10.27-.42-15.4-.03-18.07-.06-36.13,.11-54.2,.02-2.1,1.16-4.28,2.13-6.25,1.89-3.87,5.05-6.56,8.86-8.48,.88-.45,1.38-.93,1.53-1.97,.32-2.21,1.19-4.17,3.32-5.26,.58-.3,1.24-.65,1.86-.65,4.86-.05,9.73-.17,14.58,.05,2.85,.13,4.61,2.05,5.26,4.8,.22,.94,.63,1.17,1.51,1.15,2.94-.04,5.89-.05,8.84,0,.84,.02,1.26-.31,1.66-.99,2.48-4.33,5-8.63,7.49-12.95,1.84-3.19,4.65-4.73,8.25-4.73,14.77-.03,29.53-.02,44.3,0,1.14,0,2.28,.11,3.4,.27,2.09,.3,3.82,1.35,4.93,3.12,2.37,3.79,4.61,7.67,6.9,11.51,.72,1.21,1.18,2.87,2.24,3.5,1.06,.63,2.74,.3,4.14,.3,6.42,0,12.48,1.34,17.94,4.85,7.39,4.74,12.09,11.46,13.67,20.04,.76,4.12,.57,8.45,.58,12.68,.06,14.89,.05,29.77,.03,44.66-.03,13.56-8.53,25.25-21.29,29.43-2.82,.92-5.68,1.36-8.67,1.35-17.24-.05-34.48-.03-51.73-.03h0Zm5.59-106.77c-22.72,.12-43.55,18.35-43.57,44.33-.02,25.34,21.11,43.84,43.65,43.93,24.86,.09,44.27-19.48,44.79-43.2,.54-24.73-19.75-45.7-44.86-45.06h0Zm-71.41,6.48c-.37,4.72,4.05,9.11,8.8,9.15,5.43,.04,9.47-3.73,9.56-9.02,.09-5.19-3.91-9.33-9.1-9.4-5.31-.08-9.19,3.8-9.26,9.28h0Z"/>
  <path id="Lens" class="cls-1" d="M101.13,129.04c-15.24,.98-30.34-12.73-30.23-30.22,.1-16.42,13.69-29.73,30.25-29.99,14.45-.23,31.83,12.37,30.01,32.77,.2,12.73-13.9,28.73-30.03,27.43Zm-24.66-33.36c0,2,1.31,3.39,3.15,3.58,1.87,.19,3.32-.83,3.72-2.61,.13-.57,.21-1.15,.36-1.72,1.28-5.1,4.29-8.87,8.81-11.53,2.26-1.33,2.2-4.31-.04-5.69-1.57-.97-3.05-.65-4.51,.3-3.62,2.36-6.54,5.36-8.63,9.15-1.51,2.73-2.46,5.66-2.85,8.53h0Z"/>
  <path id="bulb" class="cls-2" d="M29.13,61.43c.07-5.47,3.95-9.36,9.26-9.28,5.19,.08,9.19,4.22,9.1,9.4-.1,5.29-4.13,9.07-9.56,9.02-4.75-.04-9.16-4.43-8.8-9.15h0Z"/>
  <path id="lens" class="cls-2a" d="M76.47,95.68c.39-2.87,1.34-5.8,2.85-8.53,2.09-3.79,5.02-6.79,8.63-9.15,1.46-.95,2.94-1.27,4.51-.3,2.24,1.38,2.3,4.36,.04,5.69-4.51,2.66-7.52,6.43-8.81,11.53-.14,.57-.23,1.14-.36,1.72-.39,1.78-1.85,2.8-3.72,2.61-1.84-.19-3.14-1.57-3.15-3.58h0Z"/>
  <polygon id="star" class="cls-3" points="63.1 61.37 86.21 48.53 59.78 48.97 73.37 26.3 50.7 39.89 51.14 13.46 38.3 36.57 25.46 13.46 25.9 39.89 3.23 26.3 16.82 48.97 0 48.69 0 53.87 13.5 61.37 0 68.86 0 74.05 16.82 73.77 3.23 96.44 25.9 82.84 25.46 109.28 38.3 86.17 51.14 109.28 50.7 82.84 73.37 96.44 59.78 73.77 86.21 74.2 63.1 61.37"/>
  
</svg>