<svg xmlns="http://www.w3.org/2000/svg" viewBox="0 0 650 650" overflow="hidden" preserveAspectRatio="xMidYMid meet" id="eaf-166b4-0"><!-- Created with Expressive Animator v1.3.1 | https://expressive.app/expressive-animator/ --><defs><clipPath id="eaf-166b4-1"><rect x="0" y="0" width="650" height="650"></rect></clipPath><style>#eaf-166b4-0 * {animation: 3000ms linear infinite normal both running;offset-rotate:0deg}@keyframes eaf-166b4-2{0%,100%{transform:translate(325px,325px)}}@keyframes eaf-166b4-3{0%{transform:scale(0.9941,0.9941);animation-timing-function:cubic-bezier(0.75,0,0.28,0.95)}26.67%{transform:scale(0.7102,0.7809)}30%{transform:scale(0.7075,0.7789);animation-timing-function:cubic-bezier(0.75,0,0.28,0.95)}98.9%,100%{transform:scale(0.9941,0.9941)}}@keyframes eaf-166b4-4{0%,100%{transform:translate(-324.7251px,-324.5658px)}}@keyframes eaf-166b4-5{0%{fill:#0ed900;animation-timing-function:ease-in-out}16.67%{fill:#d82b00;animation-timing-function:ease-in-out}27.8%{fill:#24d800}74.43%{fill:#24d800;animation-timing-function:ease-in-out}85.53%,100%{fill:#d82b00}}</style></defs><g clip-path="url('#eaf-166b4-1')" style="isolation: isolate;"><g><path fill="#f3582c" d="m650 325.1c0 81.6 0 163.1 0 244.7c0 37.4 -28.2 71.6 -65 78.6c-5.5 1 -11.1 1.6 -16.6 1.6c-162.6 0 -325.2 0 -487.7 0c-39.9 0.0001 -74.7 -30.5999 -79.9 -70.2c-0.5 -3.5 -0.8 -7 -0.8 -10.6c0 -163 0 -326 0 -488.9c0 -37.4 28.2 -71.6 65 -78.6c5.4 -1 11.1 -1.6 16.6 -1.6c162.7 -0.1 325.4 -0.1 488.1 -0.1c37.4 0 71.6 28.2 78.6 65c1 5.4 1.6 11.1 1.6 16.6c0.1 81.2 0.1 162.3 0.1 243.5l0 0z"></path><g transform="matrix(0.9941 0 0 0.9941 2.1793 2.3377)" style="animation-name: eaf-166b4-2, eaf-166b4-3, eaf-166b4-4; animation-composition: replace, add, add;"><g transform="matrix(1.208 0 0 1.3148 -72.6224 -102.1567)"><g><g><g><g><g><path fill="#fff9e0" d="m411.3 105.7c34.7 0 63 28.3 63 63c0 15.7 -5.8 30.8 -16.4 42.4c-2.7 2.9 -5.7 5.5 -8.9 7.8c-7.7 -16.6 -21.9 -29.2 -39.2 -34.9l-6 18.5c2.3 0.7 4.5 1.7 6.6 2.8c12.4 6.2 21.3 17.7 24.3 31.2c2.5 11.3 0.6 23.2 -5.3 33.2c-1.2 2.1 -2.5 4 -4 5.9l15.1 12.3c2.8 -3.5 5.2 -7.2 7.3 -11.1c6.2 -11.7 8.6 -25 7 -38.2c6.1 -4 11.5 -7.6 17.6 -14.3c8.8 -9.7 15.2 -21.4 18.6 -34.1c0.9 -3.2 1.5 -6.5 2 -9.9c27.7 6.7 48.2 31.9 48.2 61.2c0 16.9 -6.8 33.1 -18.9 44.9c-1 1 -2 2 -3 2.9l12.7 14.8c5.6 -4.9 10.5 -10.5 14.6 -16.7c1.1 -1.7 2.2 -3.3 3.2 -5.1c10.6 11.5 16.5 26.7 16.5 42.4c0 16 -5.9 30.9 -16.5 42.4c-5.1 -9 -11.9 -17 -19.9 -23.5l-6.1 7.6l-6.1 7.6c1 0.8 2 1.8 3 2.7c13.1 11.9 20.6 28.8 20.6 46.4c0 29.3 -20.5 54.4 -48.2 61.2c-2.2 -16.1 -9.2 -31.1 -20 -43.2c4.4 -12.6 5.7 -26 3.8 -39.1c-1.1 -8 -3.5 -15.7 -6.9 -23l-13.4 6.3l-4.2 2c2.6 5.6 4.3 11.5 5.2 17.6c4.2 28.8 -11.8 56.7 -38.8 67.4c-2.6 1.1 -5.4 2 -8.1 2.7l4.7 18.9c19.6 -4.9 36.8 -16.8 48.2 -33.5c7.2 10.5 11 22.9 11 35.6c0 34.7 -28.3 63 -63 63c-34.7 0 -63 -28.3 -63 -63l0 -312.0999c-0.3 -34.8 28 -63 62.7 -63l0 0z"></path></g></g><g><g><path fill="#000" stroke="#000" d="m328.8 168.7l0 311.8c0 45.5 37 82.5 82.5 82.5c42.7 0 77.9 -32.6 82 -74.2c38.3 -7.2 67.2 -41.2 67.2 -81c0 -7.2 -1 -14.5 -2.9 -21.4c17.6 -15.6 28 -38.1 28 -61.7c0 -23.6 -10.4 -46.2 -28 -61.8c1.9 -7 2.9 -14.2 2.9 -21.4c0 -39.8 -28.9 -73.8 -67.2 -81c-4.2 -41.6 -39.4 -74.2 -82 -74.2c-45.5 -0.1 -82.5 36.9 -82.5 82.4zm19.5 0c0 -34.7 28.3 -63 63 -63c34.7 0 63 28.3 63 63c0 15.7 -5.8 30.8 -16.4 42.4c-2.7 2.9 -5.7 5.5 -8.9 7.8c-7.7 -16.6 -21.9 -29.2 -39.2 -34.9l-6 18.5c15.6 5.1 27.3 18 30.9 33.9c3.1 13.8 -0.3 28.2 -9.3 39.1l15.1 12.3c11.3 -13.8 16.4 -31.6 14.2 -49.3c6.1 -4 11.5 -7.6 17.6 -14.3c11.1 -12.2 18.3 -27.6 20.6 -44c27.7 6.7 48.2 31.9 48.2 61.2c0 18.4 -8 35.8 -21.9 47.8l12.7 14.8c7.1 -6.2 13.2 -13.5 17.8 -21.7c10.6 11.5 16.5 26.7 16.5 42.4c0 16 -5.9 30.9 -16.5 42.4c-5.1 -9 -11.9 -17 -19.9 -23.5l-12.2 15.2c14.9 11.9 23.6 30 23.6 49.1c0 29.3 -20.5 54.4 -48.2 61.2c-2.2 -16.1 -9.2 -31.1 -20 -43.2c4.4 -12.6 5.7 -26 3.8 -39.1c-1.1 -8 -3.5 -15.7 -6.9 -23l-17.7 8.2c2.6 5.5 4.3 11.5 5.2 17.6c4.7 32 -15.6 62.3 -47 70.1l4.7 18.9c19.6 -4.9 36.8 -16.8 48.2 -33.5c7.2 10.5 11 22.9 11 35.6c0 34.7 -28.3 63 -63 63c-34.7 0 -63 -28.3 -63 -63l0 -312l0 0z"></path></g></g><g><g><path fill="#000" d="m585.6 324.6c0 -23.6 -10.4 -46.2 -28 -61.8c1.9 -7 2.9 -14.2 2.9 -21.4c0 -39.8 -28.9 -73.8 -67.2 -81c-3.9 -38.8 -34.8 -69.7 -73.6 -73.7c1.4 8.2 2 16.7 1.6 25.5c38.2 14 62.5 60.5 56.3 110.7c-1.2 9.1 -3.3 18 -6.4 26.6c15.6 21.9 22.8 51.6 19.1 81.4c-3.7 29.8 -17.8 56.9 -38.3 74.4c0.8 9 0.8 18.1 -0.3 27.4c-6.2 50.2 -41.1 89.4 -81.5 93.7c-1.5 7.3 -3.7 14.4 -6.5 21.3c13.9 9.9 30.5 15.2 47.5 15.2c42.7 0 77.9 -32.6 82 -74.2c38.3 -7.2 67.2 -41.2 67.2 -81c0 -7.2 -1 -14.5 -2.9 -21.4c17.7 -15.5 28.1 -38.1 28.1 -61.7l0 0z" opacity="0.2"></path></g></g></g></g></g><g><g><path fill="none" stroke="#fff" stroke-width="7" stroke-linecap="round" stroke-miterlimit="20" d="m368.5 205l0 5.1"></path></g></g><g><g><path fill="none" stroke="#fff" stroke-width="7" stroke-linecap="round" stroke-miterlimit="20" d="m406.2 128.4c-23.9 0 -34.1 17 -36.8 46.2"></path></g></g></g><g transform="matrix(1.3148 0 0 1.3154 -106.2701 -102.3358)"><g><g><path fill="#ffd56b" d="m266.2 105.7c-34.7 0 -63 28.3 -63 63c0 15.7 5.8 30.8 16.4 42.4c3 3.3 5.8 5.6 8.9 7.8c7.7 -16.6 21.9 -29.2 39.2 -34.9l6 18.5c-2.3 0.7 -4.4 1.7 -6.6 2.8c-12.4 6.2 -21.3 17.7 -24.3 31.2c-2.5 11.3 -0.6 23.2 5.3 33.2c1.2 2 2.5 4 4 5.9l-15.1 12.3c-2.8 -3.5 -5.2 -7.2 -7.3 -11.1c-6.2 -11.7 -8.6 -25 -7 -38.2c-6.1 -4 -11.5 -7.6 -17.6 -14.3c-8.8 -9.7 -15.2 -21.4 -18.6 -34.1c-0.9 -3.2 -1.5 -6.5 -2 -9.9c-27.7 6.7 -48.2 31.9 -48.2 61.2c0 17 6.9 33.1 18.9 44.9c1 1 2 2 3 2.9l-12.7 14.8c-5.6 -4.9 -10.5 -10.5 -14.6 -16.7c-1.1 -1.6 -2.2 -3.3 -3.2 -5.1c-10.6 11.5 -16.5 26.7 -16.5 42.4c0 16 5.9 30.9 16.5 42.4c5.1 -9 11.9 -17 19.9 -23.5l6.1 7.6l6.1 7.6c-1 0.8 -2 1.8 -3 2.7c-13.1 11.9 -20.6 28.8 -20.6 46.4c0 29.3 20.5 54.4 48.2 61.2c2.2 -16.1 9.2 -31.1 20 -43.2c-4.4 -12.6 -5.7 -26 -3.8 -39.1c1.1 -8 3.5 -15.7 6.9 -23l13.4 6.3l4.2 2c-2.6 5.6 -4.3 11.5 -5.2 17.6c-4.2 28.8 11.8 56.7 38.8 67.4c2.6 1.1 5.3 2 8.1 2.7l-4.7 18.9c-19.6 -4.9 -36.8 -16.8 -48.2 -33.5c-7.2 10.5 -11 22.9 -11 35.6c0 34.7 28.3 63 63 63c34.7 0 63 -28.3 63 -63l0 -312.0999c0.3 -34.8 -27.9 -63 -62.7 -63z"></path></g></g><g><g><path fill="#000" stroke="#545454" d="m266.3 86.2c-42.7 0 -77.9 32.6 -82 74.2c-38.3 7.2 -67.2 41.2 -67.2 81c0 7.3 1.1 14.5 2.9 21.4c-17.6 15.6 -28 38.1 -28 61.8c0 23.6 10.4 46.2 28 61.7c-1.9 7 -2.9 14.2 -2.9 21.4c0 39.8 28.9 73.8 67.2 81c4.2 41.6 39.4 74.2 82 74.2c45.5 0 82.5 -37 82.5 -82.5l0 -311.7c0 -45.5 -37 -82.5 -82.5 -82.5zm63 394.3c0 34.7 -28.3 63 -63 63c-34.7 0 -63 -28.3 -63 -63c0 -12.9 3.9 -25.2 11 -35.6c11.4 16.7 28.5 28.7 48.2 33.5l4.7 -18.9c-31.4 -7.8 -51.7 -38.1 -47 -70.1c0.9 -6.1 2.6 -12 5.2 -17.6l-17.7 -8.2c-3.4 7.3 -5.7 15.1 -6.9 23c-1.9 13.2 -0.6 26.6 3.8 39.1c-10.8 12.1 -17.8 27.1 -20 43.2c-27.7 -6.7 -48.2 -31.9 -48.2 -61.2c0 -19.1 8.6 -37.2 23.6 -49.1l-12.2 -15.2c-8.1 6.5 -14.8 14.5 -19.9 23.5c-10.6 -11.5 -16.5 -26.7 -16.5 -42.4c0 -16 5.9 -30.9 16.5 -42.4c4.7 8.2 10.7 15.6 17.8 21.7l12.7 -14.8c-13.9 -12 -22 -29.4 -21.9 -47.8c0 -29.3 20.5 -54.5 48.2 -61.2c2.3 16.4 9.5 31.7 20.6 44c6.1 6.7 11.5 10.4 17.6 14.3c-2.2 17.7 2.9 35.5 14.2 49.3l15.1 -12.3c-8.9 -10.9 -12.4 -25.3 -9.3 -39.1c3.6 -16 15.3 -28.9 30.9 -33.9l-6 -18.5c-17.5 5.7 -31.6 18.5 -39.2 34.9c-3.3 -2.2 -6.2 -4.9 -8.9 -7.8c-10.6 -11.6 -16.4 -26.7 -16.4 -42.4c0 -34.7 28.3 -63 63 -63c34.7 0 63 28.3 63 63l-0.0001 312l0 0z"></path></g></g><g><g><path fill="#000" d="m266.3 86.2c-2.3 0 -4.5 0.1 -6.8 0.3c8.6 13.4 13.3 28.9 13.3 44.8l0 324.7c0 39.2 -27.5 72.3 -64.9 82.5c15.4 15.6 36.4 24.4 58.4 24.4c45.5 0 82.5 -37 82.5 -82.5l0 -311.7c0 -45.5 -37 -82.5 -82.5 -82.5z" opacity="0.2"></path></g></g><g><g><path fill="none" stroke="#fff" stroke-width="7" stroke-linecap="round" stroke-miterlimit="20" d="m162.7 228.2c2.3 -6.2 6.1 -11.6 11 -15.9"></path></g></g><g><g><path fill="none" stroke="#fff" stroke-width="7" stroke-linecap="round" stroke-miterlimit="20" d="m164.1 259.2c-0.4 -0.8 -0.8 -1.7 -1.1 -2.6"></path></g></g></g></g><ellipse fill="#0ed900" stroke="#000" stroke-width="14" rx="97.1077" ry="97.1077" transform="translate(325 330.9)" style="animation-name: eaf-166b4-5;"></ellipse><path fill="#fffa" d="m0 0.6l37.9484 -26.9744l47.2354 -5.0902l34.9374 18.8461l21.2301 25.973l-29.0708 17.1052l-39.9979 -28.3551l-46.1431 37.8287l-36.4286 -21.9235l10.289 -17.4098z" transform="translate(256.3888 285.1667)"></path></g></g></svg>