<svg id="er0zs9ajx7h81" xmlns="http://www.w3.org/2000/svg" xmlns:xlink="http://www.w3.org/1999/xlink" viewBox="0 0 499.170000 498.380000" shape-rendering="geometricPrecision" text-rendering="geometricPrecision">
    <style>
        <![CDATA[#er0zs9ajx7h85_tr {animation: er0zs9ajx7h85_tr__tr 35000ms linear infinite normal forwards}@keyframes er0zs9ajx7h85_tr__tr { 0% {transform: translate(250.589844px,249.511719px) rotate(0deg)} 30% {transform: translate(250.589844px,249.511719px) rotate(0deg);animation-timing-function: cubic-bezier(0.600000,-0.020000,0.245000,0.985000)} 54% {transform: translate(250.589844px,249.511719px) rotate(0deg)} 100% {transform: translate(250.589844px,249.511719px) rotate(0deg)} }#er0zs9ajx7h85_ts {animation: er0zs9ajx7h85_ts__ts 3500ms linear infinite normal forwards}@keyframes er0zs9ajx7h85_ts__ts { 0% {transform: scale(1,1)} 68% {transform: scale(1,1);animation-timing-function: cubic-bezier(0.420000,0,0.580000,1)} 76% {transform: scale(1.214359,0.936995);animation-timing-function: cubic-bezier(0.420000,0,0.580000,1)} 80% {transform: scale(1.214359,0.936995);animation-timing-function: cubic-bezier(0.420000,0,0.260000,1.005000)} 86% {transform: scale(0.400000,0.400000);animation-timing-function: cubic-bezier(0.420000,0,0.260000,1.005000)} 92% {transform: scale(0.400000,0.400000);animation-timing-function: cubic-bezier(0.870000,0.015000,0.580000,1)} 100% {transform: scale(1,1)} }]]>
    </style>
	
	<style type="text/css">
	.st0{fill:#b0d4f7;}
	.st1{fill:#f3582c;}
	.st2{display:none;fill:#2e4f7b;}
	.st3{fill:#2e4f7b;}
</style>
    <g id="er0zs9ajx7h82">
        <path
            id="er0zs9ajx7h83"
            d="M498.970000,249.560000C498.970000,311.890000,498.970000,374.220000,498.970000,436.550000C498.970000,465.120000,477.420000,491.240000,449.280000,496.590000C445.120000,497.380000,440.820000,497.830000,436.590000,497.830000C312.350000,497.900000,188.110000,497.880000,63.870000,497.880000C33.420000,497.880000,6.830000,474.520000,2.840000,444.210000C2.490000,441.540000,2.250000,438.820000,2.250000,436.130000C2.210000,311.580000,2.210000,187.020000,2.210000,62.470000C2.210000,33.890000,23.770000,7.770000,51.900000,2.430000C56.060000,1.640000,60.360000,1.190000,64.590000,1.190000C188.940000,1.130000,313.280000,1.140000,437.630000,1.140000C466.200000,1.140000,492.360000,22.720000,497.670000,50.830000C498.460000,54.990000,498.910000,59.290000,498.910000,63.520000C498.990000,125.530000,498.970000,187.550000,498.970000,249.560000Z"
            fill="#b0d4f7"
            stroke="none"
            stroke-width="1"
        />
    </g>
	<g id="er0zs9ajx7h84">
		<g id="er0zs9ajx7h85_tr" transform="translate(250.589844,249.511719) rotate(0)">
			<g id="er0zs9ajx7h85_ts" transform="scale(1,1)">
				<g id="er0zs9ajx7h85" transform="translate(-250.589844,-249.511719)">
					<circle id="er0zs9ajx7h86" class="st1" cx="250.6" cy="249.5" r="208.9"/>
					<path id="er0zs9ajx7h87" class="st2" d="M472,249.4c0.1,122-99.3,221.5-221.4,221.5c-122.1,0-221.4-99.4-221.4-221.5
						c0-122.1,99.4-221.4,221.5-221.4C372.7,28.2,471.9,127.3,472,249.4z M155.5,238.8c28.4,0,56.4,0,84.4,0c0-27.3,0-54.4,0-81.6
						c-0.6,0-1.1-0.1-1.6-0.1c-21.3,0-42.6,0-63.9,0c-1.5,0-2,0.6-2.4,1.8c-7.9,20.5-12.9,41.7-15.2,63.6
						C156.2,227.9,155.9,233.3,155.5,238.8z M261.2,238.8c28.1,0,56.2,0,84.2,0c0-0.4,0.1-0.7,0.1-0.9c-1.2-27.2-6.6-53.6-16.4-79.1
						c-0.6-1.5-1.5-1.6-2.8-1.6c-21,0-41.9,0-62.9,0c-0.7,0-1.5,0-2.2,0C261.2,184.5,261.2,211.6,261.2,238.8z M239.9,260.2
						c-28.2,0-56.2,0-84.2,0c0,0.4-0.1,0.7-0.1,0.9c1.2,27.2,6.6,53.6,16.3,79.1c0.5,1.4,1.3,1.6,2.6,1.6c21.1,0,42.2,0,63.3,0
						c0.7,0,1.3-0.1,2.1-0.1C239.9,314.4,239.9,287.3,239.9,260.2z M261.2,341.7c0.8,0,1.5,0.1,2.1,0.1c21,0,42.1,0,63.1,0
						c1.5,0,2.3-0.4,2.8-1.9c8.3-21.8,13.4-44.3,15.5-67.5c0.4-4.1,0.5-8.1,0.8-12.3c-28.3,0-56.3,0-84.4,0
						C261.2,287.4,261.2,314.5,261.2,341.7z M350.9,157.1c9.4,26.6,14.6,53.7,15.7,81.7c24.5,0,48.9,0,73.4,0c0-0.8,0-1.6,0-2.3
						c-1.9-27.6-9.5-53.6-22.7-77.9c-0.7-1.3-1.5-1.5-2.8-1.5c-20.4,0-40.9,0-61.3,0C352.6,157.1,351.9,157.1,350.9,157.1z
						 M150.2,157.3c-0.8-0.1-1.3-0.1-1.7-0.1c-20.7,0-41.4,0-62.1,0c-1.4,0-2,0.6-2.6,1.7c-12.1,22.4-19.5,46.2-22.1,71.6
						c-0.3,2.8-0.4,5.5-0.6,8.4c24.7,0,49,0,73.5,0C135.6,210.8,140.8,183.8,150.2,157.3z M351,341.7c0.8,0.1,1.2,0.1,1.7,0.1
						c20.7,0,41.4,0,62.1,0c1.4,0,2-0.6,2.6-1.7c12.1-22.4,19.5-46.2,22.1-71.6c0.3-2.8,0.4-5.5,0.6-8.4c-24.6,0-49,0-73.5,0
						C365.5,288.1,360.4,315.1,351,341.7z M134.5,260.1c-24.6,0-48.9,0-73.4,0c0,0.9,0,1.6,0,2.4c1.9,27.4,9.4,53.2,22.4,77.3
						c0.8,1.5,1.6,2,3.3,2c20.3-0.1,40.6,0,60.9,0c0.7,0,1.4,0,2.5,0c-4.7-13.3-8.3-26.6-10.9-40.2
						C136.6,288,135.1,274.2,134.5,260.1z M207.9,434.6c-0.2-0.5-0.2-0.7-0.3-0.8c-0.2-0.3-0.4-0.5-0.7-0.8
						c-19.8-20.1-35.3-43-47.2-68.5c-0.7-1.4-1.5-1.8-2.9-1.8c-18.7,0-37.3,0-56,0c-0.7,0-1.3,0.1-2.5,0.1
						C126.6,399.7,162.8,423.6,207.9,434.6z M402.9,362.9c-1.2-0.1-1.9-0.1-2.5-0.1c-18.7,0-37.3,0-56-0.1c-1.6,0-2.4,0.6-3,2
						c-11.8,25.4-27.3,48.2-47,68.2c-0.4,0.4-0.7,0.8-1,1.2C338.4,423.6,374.6,399.7,402.9,362.9z M208.1,64.4
						c-22.3,5.2-42.6,13.9-61.3,26.1c-18.7,12.2-34.8,27.3-48.5,45.6c1.3,0,2.1,0,2.8,0c18.4,0,36.8,0,55.1,0.1
						c1.9,0,2.9-0.6,3.7-2.3c11.8-25.2,27.2-47.9,46.8-67.8C207.1,65.7,207.4,65.2,208.1,64.4z M402.8,136.1
						c-13.8-18.3-29.9-33.4-48.5-45.6c-18.7-12.2-38.9-20.9-61.3-26.1c0.7,0.8,0.9,1.1,1.2,1.4c19.8,20.1,35.4,43.1,47.3,68.6
						c0.6,1.4,1.4,1.7,2.8,1.7c18.7,0,37.3,0,55.9,0C401,136.1,401.6,136.1,402.8,136.1z M239.9,434.6c0-24.2,0-47.9,0-71.7
						c-19.2,0-38.3,0-57.8,0C196.4,390.9,215.2,414.8,239.9,434.6z M261.3,362.9c0,23.9,0,47.6,0,71.5c18.4-12.7,55.9-59.6,57.2-71.5
						C299.5,362.9,280.5,362.9,261.3,362.9z M182.2,136c19.5,0,38.6,0,57.7,0c0-23.8,0-47.5,0-71.6C215.3,84.2,196.6,108.1,182.2,136
						z M261.3,64.4c0,24.1,0,47.8,0,71.5c19.2,0,38.3,0,57.7,0C304.6,108.1,285.9,84.2,261.3,64.4z"/>
					<path class="st3" d="M249.7,25.5c123.4,0.4,222.9,101.1,222.9,224.6c0,120-97,224-223.4,223.4
						C124.6,472.9,26.5,372.7,26.6,248.8C26.7,129.3,123,26.4,249.7,25.5z M204.3,80.6C135.1,96.7,61.6,172,76.3,275.4
						c12.7,89.5,94.9,159.4,192.3,149.1c93.3-9.9,165.7-94.5,155.3-193.3c-4.7-44.8-24.3-82.3-57.6-112.5
						c-20.2-18.2-43.4-31.1-70-38.2c-0.6,2-1,3.2-1.2,4.4c-9.1,42.8-18.4,85.6-27.3,128.4c-2.9,13.8-6.1,27.7-7.3,41.7
						c-1.6,17.8,6.8,25.9,24.5,26.2c16.9,0.3,29.7-8,40.4-20.2c8.3-9.4,14.1-20.3,18.3-32.1c0.6-1.6,2.1-3.9,3.3-4
						c7.7-0.4,15.4-0.2,23.6-0.2c-0.5,1.8-0.7,2.6-1,3.4c-7.9,22.3-18.2,43.4-32.7,62.2c-26.3,34.2-60.1,53.4-104.2,52.2
						c-29.1-0.8-50.9-17-59.4-44.9c-6.3-20.5-5.4-41.3-1.3-61.9c7.7-39,16.2-77.7,24.4-116.6C198.9,106.5,201.5,93.9,204.3,80.6z"/>
				</g>
			</g>
		</g>
	</g>
   
</svg>
