<svg xmlns="http://www.w3.org/2000/svg" viewBox="0 0 500 500" overflow="hidden" preserveAspectRatio="xMidYMid meet" id="eaf-1466a-0"><defs><clipPath id="eaf-1466a-1"><rect x="0" y="0" width="500" height="500"></rect></clipPath><style>#eaf-1466a-0 * {animation: 13000ms linear infinite normal both running;offset-rotate:0deg}@keyframes eaf-1466a-2{0%,0.01%{opacity:0}69.49%{opacity:0;animation-timing-function:ease-in-out}75.38%{opacity:1}90.78%{opacity:1;animation-timing-function:ease-in-out}96.16%,100%{opacity:0}}@keyframes eaf-1466a-3{0%,0.01%{opacity:0}36.42%{opacity:0;animation-timing-function:ease-in-out}43.85%{opacity:1}75.38%{opacity:1;animation-timing-function:ease-in-out}79.23%,100%{opacity:0}}@keyframes eaf-1466a-4{0%{animation-timing-function:step-start}0.01%{opacity:0;animation-timing-function:ease-in-out}11.55%{opacity:1}75.38%{opacity:1;animation-timing-function:ease-in-out}79.23%,100%{opacity:0}}@keyframes eaf-1466a-5{0%{fill:#f4b526}94.1%{fill:#f4b526}98.21%,100%{fill:#fefadf}}@keyframes eaf-1466a-6{0%,100%{transform:translate(250.1203px,104.2975px)}}@keyframes eaf-1466a-7{0%{transform:rotate(0)}68.46%{transform:rotate(0);animation-timing-function:ease-in-out}71.79%{transform:rotate(-45deg)}79.23%{transform:rotate(-45deg);animation-timing-function:ease-in-out}87.95%,100%{transform:rotate(180deg)}}@keyframes eaf-1466a-8{0%,100%{transform:translate(-250.1203px,-104.2975px)}}@keyframes eaf-1466a-9{0%,100%{transform:none;offset-path:path("m249.3199 104.5581l0 0l0 0l0 0l-0.0199 136.0419l-134.7454 0.1l-0.0343 136.1974l0 0l270.875 0")}}@keyframes eaf-1466a-10{0%,0.01%{offset-distance:0%}53.6%{offset-distance:0%;animation-timing-function:ease-in-out}58.21%{offset-distance:20.0693%;animation-timing-function:ease-in-out}65.13%{offset-distance:39.9474%;animation-timing-function:ease-in-out}69.49%{offset-distance:60.0397%}78.72%{offset-distance:60.0397%;animation-timing-function:ease-in-out}84.62%,100%{offset-distance:100%}}@keyframes eaf-1466a-11{0%,0.01%{transform:rotate(0)}48.22%{transform:rotate(0);animation-timing-function:ease-in-out}69.49%,100%{transform:rotate(180deg)}}@keyframes eaf-1466a-12{0%,100%{transform:translate(-114.5203px,-376.8974px)}}@keyframes eaf-1466a-13{0%,0.01%{opacity:1}90.78%{opacity:1;animation-timing-function:ease-in-out}96.16%,100%{opacity:0}}@keyframes eaf-1466a-14{0%,100%{transform:none;offset-path:path("m249.1542 104.7026l0 0l1.6012 135.8974l133.1998 0.1l1.6651 136.1974l0 0l-269.625 0")}}@keyframes eaf-1466a-15{0%,0.01%{offset-distance:0%}15.39%{offset-distance:0%;animation-timing-function:ease-in-out}21.8%{offset-distance:20.1362%;animation-timing-function:ease-in-out}29.24%{offset-distance:39.8712%;animation-timing-function:ease-in-out}36.42%{offset-distance:60.052%}78.72%{offset-distance:60.052%;animation-timing-function:ease-in-out}84.62%,100%{offset-distance:100%}}@keyframes eaf-1466a-16{0%,0.01%{transform:rotate(0)}15.39%{transform:rotate(0);animation-timing-function:ease-in-out}36.42%,100%{transform:rotate(180deg)}}@keyframes eaf-1466a-17{0%,100%{transform:translate(-385.6204px,-376.8974px)}}@keyframes eaf-1466a-18{0%{opacity:0}69.75%{opacity:0}74.1%{opacity:1}75.38%{opacity:1}78.46%{opacity:0}87.95%{opacity:0}89.48%{opacity:1}91.54%{opacity:1}94.87%,100%{opacity:0}}@keyframes eaf-1466a-19{0%{opacity:0}69.75%{opacity:0}72.31%{opacity:1}73.59%{opacity:1}78.46%{opacity:0}87.18%{opacity:0}88.72%{opacity:1}90.77%{opacity:1}93.85%,100%{opacity:0}}</style></defs><g clip-path="url('#eaf-1466a-1')" style="isolation: isolate;"><g><g transform="matrix(4 0 0 4 -827.28 -2254.5264)"><path fill="#f3582c" d="m331.5 626.3c0 15.6 0 31.3 0 46.9c0 7.2 -5.4 13.7 -12.5 15.1c-1 0.2 -2.1 0.3 -3.2 0.3c-31.2 0 -62.4 0 -93.6 0c-7.6 0 -14.3 -5.9 -15.3 -13.5c-0.1 -0.7 -0.1 -1.4 -0.1 -2c0 -31.3 0 -62.5 0 -93.8c0 -7.2 5.4 -13.7 12.5 -15.1c1 -0.2 2.1 -0.3 3.2 -0.3c31.2 0 62.4 0 93.6 0c7.2 0 13.7 5.4 15.1 12.5c0.2 1 0.3 2.1 0.3 3.2c0 15.6 0 31.1 0 46.7z"></path></g><path fill="#fff" d="m402.6 276.6c0 -30.8 -22.5 -53.1 -53.5 -53c-25.1 0.1 -50.3 0.1 -75.4 0.1l-24.4 0l-22.8 0c-26.4 0 -52.7 -0.1 -79.1 0.1c-26.3 0.3 -47.2 19.1 -50.3 45.2c-0.9 7.2 -0.8 14.5 -1.1 22.8l34.5 0.1c0 -5.4 -0.1 -10 0 -14.6c0.2 -12.8 6.7 -19.3 19.6 -19.4c22.5 -0.1 45 0 67.5 0c44.2 0 88.4 0 132.6 0c9.3 0 16.7 4.9 17.8 13.2c0.9 6.7 0.2 13.5 0.2 20.8l34.4 0.1l0 -15.4l0 0z" opacity="0" style="animation-name: eaf-1466a-2;"></path><path fill="#fff" d="m232.2 223.6l-5.6 0c-26.4 0 -52.7 -0.1 -79.1 0.1c-26.3 0.3 -47.2 19.1 -50.3 45.2c-0.9 7.2 -0.8 14.5 -1.1 22.8l0 0l34.5 0.1c0 -5.4 -0.1 -10 0 -14.6c0.2 -12.8 6.7 -19.3 19.6 -19.4c22.5 -0.1 45 0 67.5 0c44.2 0 46.4 -0.4 48.5 -23.2l0.4 -28.4l0 -16.5l-34.3 -0.1l-0.1 34l0 0z" opacity="0" style="animation-name: eaf-1466a-3;"></path><path fill="#fff" d="m402.7 291.6c-0.4 -8.2 -0.3 -15.6 -1.1 -22.8c-3.1 -26.1 -24 -44.9 -50.3 -45.2c-26.3 -0.2 -52.7 -0.1 -79.1 -0.1l-5.6 0l0 -34l-34.3 0.1l0 16.5l0.4 28.4c2.1 22.7 4.3 23.2 48.5 23.2c22.5 0 45 -0.1 67.5 0c12.9 0.1 19.5 6.6 19.6 19.4c0.1 4.6 0 9.2 0 14.6l34.4 -0.1l0 0z" opacity="0" style="animation-name: eaf-1466a-4;"></path><g style="animation-name: eaf-1466a-6, eaf-1466a-7, eaf-1466a-8; animation-composition: replace, add, add;"><path fill="#fff" d="m232.7 19.3c-10.8 0 -21.4 -0.1 -31.8 0c-20.8 0.2 -35.4 14.3 -35.6 35c-0.3 33.2 -0.3 66.5 0 99.7c0.1 20.6 14.7 35.2 35.3 35.3c33 0.2 66.1 0.2 99.1 -0.1c21.2 -0.2 35.4 -14.6 35.4 -35.7c0.1 -32.8 0.1 -65.7 -0.1 -98.5c-0.1 -21.6 -14.1 -35.6 -35.8 -35.8c-10.5 -0.1 -20.9 0 -32.2 0l-34.3 0.1l0 0z"></path><path fill="#f4b526" d="m199.6 155.1l0 -101.4l101 0l0 101.4l-101 0z" style="animation-name: eaf-1466a-5;"></path></g><g transform="translate(134.7996 -272.3393)" style="animation-name: eaf-1466a-9, eaf-1466a-10, eaf-1466a-11, eaf-1466a-12, eaf-1466a-13; animation-composition: replace, add, add, add, replace;"><path fill="#fff" d="m97.1 291.9c-10.8 0 -21.4 -0.1 -31.8 0c-20.8 0.2 -35.4 14.3 -35.6 35c-0.3 33.2 -0.3 66.5 0 99.7c0.1 20.6 14.7 35.2 35.3 35.3c33 0.2 66.1 0.2 99.1 -0.1c21.2 -0.2 35.4 -14.6 35.4 -35.7c0.1 -32.8 0.1 -65.7 -0.1 -98.5c-0.1 -21.6 -14.1 -35.6 -35.8 -35.8c-10.5 -0.1 -20.9 0 -32.2 0l-34.3 0.1l0 0z"></path><path fill="#f7e79c" d="m64 427.7l0 -101.4l101 0l0 101.4l-101 0l0 0z"></path></g><g transform="translate(-136.4662 -272.1949)" style="animation-name: eaf-1466a-14, eaf-1466a-15, eaf-1466a-16, eaf-1466a-17, eaf-1466a-13; animation-composition: replace, add, add, add, replace;"><path fill="#fff" d="m368.2 291.9c-10.8 0 -21.4 -0.1 -31.8 0c-20.8 0.2 -35.4 14.3 -35.6 35c-0.3 33.2 -0.3 66.5 0 99.7c0.1 20.6 14.7 35.2 35.3 35.3c33 0.2 66.1 0.2 99.1 -0.1c21.2 -0.2 35.4 -14.6 35.4 -35.7c0.1 -32.8 0.1 -65.7 -0.1 -98.5c-0.1 -21.6 -14.1 -35.6 -35.8 -35.8c-10.5 -0.1 -20.9 0 -32.2 0l-34.3 0.1l0 0z"></path><path fill="#fefadf" d="m335.1 427.7l0 -101.4l101 0l0 101.4l-101 0l0 0z"></path></g><ellipse fill="#d60018" rx="48.4239" ry="48.4239" transform="matrix(0.8593 0 0 0.8593 114.4438 376.8974)" opacity="0" style="animation-name: eaf-1466a-18;"></ellipse><ellipse fill="#d60019" rx="48.4239" ry="48.4239" transform="matrix(0.8593 0 0 0.8593 385.6407 376.8974)" opacity="0" style="animation-name: eaf-1466a-19;"></ellipse></g></g></svg>