<svg xmlns="http://www.w3.org/2000/svg" viewBox="0 0 500 500" overflow="hidden" preserveAspectRatio="xMidYMid meet" id="eaf-645f-0"><defs><clipPath id="eaf-645f-1"><rect x="0" y="0" width="500" height="500"></rect></clipPath><style>#eaf-645f-0 * {animation: 11000ms linear infinite normal both running;offset-rotate:0deg}@keyframes eaf-645f-2{0%,100%{transform:translate(345.2273px,156.8px)}}@keyframes eaf-645f-3{0%{transform:rotate(0);animation-timing-function:ease-in-out}4.85%{transform:rotate(8deg);animation-timing-function:ease-in-out}11.06%{transform:rotate(0);animation-timing-function:ease-in-out}16.05%{transform:rotate(8deg);animation-timing-function:ease-in-out}22.27%{transform:rotate(0);animation-timing-function:ease-in-out}27.12%{transform:rotate(8deg);animation-timing-function:ease-in-out}33.34%{transform:rotate(0);animation-timing-function:ease-in-out}38.18%{transform:rotate(8deg);animation-timing-function:ease-in-out}50.45%,100%{transform:rotate(0)}}@keyframes eaf-645f-4{0%,100%{transform:translate(-345.2273px,-156.8px)}}@keyframes eaf-645f-5{0%,100%{transform:translate(240.8px,249.4px)}}@keyframes eaf-645f-6{0%{transform:rotate(0)}59.85%{transform:rotate(0);animation-timing-function:ease-in-out}64.39%{transform:rotate(-46deg)}85.31%{transform:rotate(-46deg);animation-timing-function:ease-in-out}90.91%,100%{transform:rotate(0)}}@keyframes eaf-645f-7{0%,100%{transform:translate(-240.8px,-249.4px)}}@keyframes eaf-645f-8{0%,100%{transform:translate(272.5335px,489.1605px)}}@keyframes eaf-645f-9{0%,100%{transform:translate(-277.1136px,-487.9px)}}</style></defs><g clip-path="url('#eaf-645f-1')" style="isolation: isolate;"><g><g transform="matrix(4 0 0 4 -827.28 -2254.5264)"><path fill="#f3582c" d="m331.8 626.1c0 15.6 0 31.3 0 46.9c0 7.2 -5.4 13.7 -12.5 15.1c-1 0.2 -2.1 0.3 -3.2 0.3c-31.2 0 -62.4 0 -93.6 0c-7.6 0 -14.3 -5.9 -15.3 -13.5c-0.1 -0.7 -0.1 -1.4 -0.1 -2c0 -31.3 0 -62.5 0 -93.8c0 -7.2 5.4 -13.7 12.5 -15.1c1 -0.2 2.1 -0.3 3.2 -0.3c31.2 0 62.4 0 93.6 0c7.2 0 13.7 5.4 15.1 12.5c0.2 1 0.3 2.1 0.3 3.2c0 15.6 0 31.1 0 46.7z"></path></g><g transform="translate(-4.5801 1.2605)" style="animation-name: eaf-645f-8, eaf-645f-3, eaf-645f-9; animation-composition: replace, add, add;"><path fill="#fefadf" stroke="#fff" stroke-width="7" d="m368.1 210.8l5 12.9c1.9 4.8 1.8 10.1 -0.2 14.8l-1.5 3.6c-2 4.7 -0.8 10.2 3.1 13.6l21 18.8c3.4 3.1 1.5 8.7 -3.1 9l-13.5 0.9l5.7 7.8l2.4 9.5l-3.2 12.2l8.6 6.3c2.3 1.7 3.7 4.4 3.7 7.3l0 2.2l-20.1 17.3l-122.5 -68.1l0 -62.8l114.6 -5.3z"></path><g><path fill="#fff" d="m265.8 146.2c-50 8.3 -87.4 39 -99.9 82.1c-5.5 19.1 -5.5 40.2 0.1 59.6c3.6 12.5 12.5 30.2 20.6 40.9c7.5 9.9 8.1 11.7 11.2 31.8c1.2 7.9 1.8 18.1 1.8 29.7l0.1 17.6q-6.7 12.6001 -6.7 14.6c-0.3 -0.2 -4.8 8.4 -10 18.9c-5.2 10.6 -36.3999 46.2 -36.2 46.5c0.3 0.4 62.6198 -6.3 103.7198 0c41.1 6.1 84.9801 -2.2 99.2801 0c4.0464 0.5942 7.9005 1.1644 11.3474 1.6743l0.0097 0.0014c8.7292 1.2914 14.8429 2.1959 14.8429 2.1242c0.4 -0.4 -17 -35.4 -17.5 -35.4c-0.0216 0 -0.1511 -0.0222 -0.3839 -0.0657l-7.3331 -16.5432c1.1187 0.0711 0.3685 -0.9931 -3.083 -4.6912c-6.2 -7 -12 -17 -13.4 -23.6c-2.5 -10.7 1.9 -17.6 13.6 -21.8c3.6 -1.2 9.1 -3.2 12.4 -4.3c3.2 -1.1 5.8 -2.3 5.8 -2.8l26.4 -9l-0.9899 -1.6164c0.5124 0.1405 0.8246 0.2164 0.8899 0.2164c0.4 0 0.4 -5.2 0.1 -11.6l-0.6 -11.7l6 -4.5c3.4 -2.5 6 -4.7 6.1 -5c0 -0.4 -4 -1.3 -8.9 -2.4c-42.4 -8.6 -91.7 -33.9 -127.9 -65.5l-4 -3.6l3.2 -3.7c4.9 -5.5 6.2 -10.7 4.1 -16.8c-0.9 -2.7 -1.3 -5.2 -0.9 -5.6c0.4 -0.4 32 -9.3 70.2 -19.9c45.7 -12.7 69.4 -19.7 69.4 -20.6c0 -2.3 -19.6 -21 -28.4 -27.3c-17.1 -12.2 -39.3 -21.8 -60.6 -26.4c-13 -2.7 -41.8 -3.5 -54.4001 -1.3z"></path></g><g style="animation-name: eaf-645f-2, eaf-645f-3, eaf-645f-4; animation-composition: replace, add, add;"><g><path fill="#fff" d="m123.1 113.4l-13.7 12.3l-3 29.5l-4.3 32.6c0.9 4.8 1.9 10.1 3.1 15.8c5.1 25.1 5.2 26 5.3 44.1c0.1 14.9 -0.2 19.6 -1.6 24.2c-2.4 7.6 -7.5 15 -12.9 18.9c-4.2 2.9 -5 3.1 -14.3 3.1c-8.7 0 -10.6 -0.4 -15.2 -2.8c-4.7 -2.5 -10 -7.5 -13.5 -12.7c-2.2 -3.2 -0.7 12.1 1.8 20.6c7.2 22.7 20.3 39.1 36.7 45.8c5.1 2.1 7.6 2.4 20.2 2.4c16.2 0 23.1 -1.4 34.8 -7.1c4 -1.9 9.2 -5.2 11.8 -7.5l4.5 -4.1l-4.2 -9.1c-5.4 -11.8 -10.1 -26.6 -12.2 -38.6c-2.6 -14.4 -1.5 -40 2.1 -53c5.9 -21.1 17.2 -40.8 33.1 -57.4c9.6 -10.1 17.4 -16.4 28.4 -22.7c4 -2.4 7.5 -4.4 7.8 -4.6c0.3 -0.4 -0.8 -1.7 -2.6 -3c-8.6 -7 -27 -7.4 -46 -1c-11.6 3.9 -17 4.5 -20.8 2.4c-2.4 -1.3 -7 -6.7 -6.2 -7.4l-11.9 -17.2l-7.2 -3.5z" transform="translate(7.9509 1.8395)"></path><path fill="#fff" d="m253.5 77.1c0 0 -28 -32.5 -29 -32.5c-1 0 -24.8 -4.6 -24.8 -4.6c-1.5 0 -3.2 0 -5.1 0c-50.5 0 -78.3 15 -90.7 49c-4.7 13 -6.2 21.8 -6.9 41.2c-0.6 19.2 0.6 33.6 5 57.4l4.3 -32.6l3 -29.5l13.7 -12.3l7 3.3l11.9 17.2c0.2 -0.4 2.3 0.4 4.4 1c0.5 0.2 1 0.3 1.5 0.5c0 0 0 0 2.3 -9c2.3 -9 16.7 -16.4 16.7 -16.4l31.7 -18.6l4.1 -1.5c2.3 -0.9 8.3 -2.4 13.3 -3.2c16.9 -3 30.1 0 39.8 8.8c4.3 3.9 7.6 8.7 9.9 14.6l0 -0.1l-12.1 -32.7z" transform="translate(9.9001 5.6395)"></path><path fill="#fff" d="m363.2 55.6c-4.1 -11.9 -8.6 -19 -18 -28.4c-9.2 -9.3 -18.5 -14.9 -29.3 -17.4c-8.1 -1.9 -26.6 -1.9 -35.7 0l0 0.2c-3.7 0.8 -11.3 3.7 -17 6.6c-5.6 2.8 -11.1 5.1 -12 5.1c-0.9 0 -5.7 -2.1 -10.7 -4.6c-15.6 -8 -27 -9.4 -37.7 -4.7c-4.6 2.1 -11.7 7.9 -14.8 12.3l-1.9 2.7l9.9 0c12.2 0 15.5 1.5 15.5 7.2c0 4.3 -1.7 5.4 -11.8 5.6c0 0 23.8 4.6 24.8 4.6c1 0 29 32.5 29 32.5l12.2 32.8l0 0.1c1.2 3.2 2.2 6.7 2.9 10.5l1.5 8.2l19.1 0c18.7 0 34.8 1.7 50.3 5.1l6.7 1.4l5.7 -6.1c10.4 -11 15 -22.5 16 -39.4c0.7 -12.4 -0.7 -22.6 -4.7 -34.3z" transform="translate(5.0273 11.0395)"></path><path fill="#f4b526" d="m150.2 126.4c-2.3 9 -9.5967 20.7198 -9.5967 20.7198c1.8 0.6 10.9967 -10.7198 11.6967 -10.7198c1 0 8.2504 -1.3222 14.2203 -3.1c5.7086 -1.7 14.5893 -4.558 17.5893 -6.658c7.3756 -0.242 12.6896 -3.3688 16.9757 -2.367c7.3802 1.725 12.8446 5.1899 23.3595 13.7185l14.1552 -2.9936l7 -1.7l7 -1.7l-0.6 -5.6c-1.2 -11 3.7122 -33.0051 -2.5878 -38.5051c-7.4 -6.6 -33.9122 1.9051 -45.5122 3.2051l-5.2 0.5l-31.8 18.8c0 0 -14.4 7.3 -16.7 16.4z" transform="matrix(1.4364 0 0 1.4364 -81.4926 -42.5714)"></path></g></g><g style="animation-name: eaf-645f-5, eaf-645f-6, eaf-645f-7; animation-composition: replace, add, add;"><path fill="#ccc" stroke="#fff" stroke-width="8" d="m409.2 201.3q-165.7 45.9 -166.6 49.7c-0.4 1.6 23 18.9 23 18.9c0 0 28.7 22.4 28.8 22.4c0.1 0 29.7 18 29.7 18l24.1 11.6l26.3 9.7l20.7 5.3l8.9 2.4l5.1 1.3l9.1 -16.2l20.6 -40.5l2.8 -6.9l-19.6 -62.6l-12.9 -13.1z" transform="matrix(1.1789 0 0 1.0302 -61.2134 -8.1884)"></path><g><path fill="#fff" d="m298 251.6c-11 3.2 -11.3 3.4 -11 6c0.1 1.5 -0.4 3.9 -1.3 5.2c-1.6 2.5 -1.6 2.5 8.4 9.6l10 7.3l3.4 -5.8c5.3 -9.4 5.9 -12.3 3.7 -19.5l-1.9 -6l-11.3 3.2l0 0z"></path><path fill="#fff" d="m334.1 241.3c-9.9 2.9 -11.1 3.4 -10.7 5.2c0.2 1.2 1.5 6.1 2.9 11l2.4 8.8l-3.9 7.6c-2.2 4.2 -4.8 9 -5.8 10.8l-1.9 3.2l3.9 2.6c2.1 1.4 6.9 4.2 10.6 6.3l6.7 3.8l7.9 -14.7c4.5 -8.3 7.9 -15.9 7.9 -17.5c0 -3.2 -7.4 -30.3 -8.2 -30.1c-0.5 -0.3 -5.7 1.2 -11.8 3l0 0z"></path><path fill="#fff" d="m370.3 230.9c-5.9 1.7 -10.9 3.2 -11 3.3c-0.1 0 2.3 8.6 5.3 18.7c3.1 10.2 5.6 19.2 5.6 19.9c0 0.6 -3.8 8.4 -8.4 17.2c-4.7 8.8 -8.6 16.3 -8.8 16.7c-0.4 0.8 5 3.4 15.9 7.5l6.4 2.5l10.2 -19.4c6.1 -11.4 10.3 -20.5 10.3 -22.2c0 -1.5 -3 -12.8 -6.7 -24.9c-3.7 -12.1 -6.7 -22 -6.7 -22.2c0.2 -0.6 -1.2 -0.1 -12.1 2.9l0 0z"></path><path fill="#fff" d="m408.7 219.2c-5.6 1.9 -10.3 3.7 -10.4 3.7c-0.1 0 3.5 12 7.9 26.5l8 26.4l-11.7 21.7c-6.5 12 -11.7 22 -11.7 22.3c0 1.1 23.8 5.2 24.6 4.3c0.5 -0.4 5.9 -10.3 12.2 -21.9c8 -15 11.4 -22.2 11.4 -24.6c0 -4.8 -17.5 -62.4 -18.9 -62.3c-0.6 0.1 -5.8 1.8 -11.4 3.9l0 0z"></path></g><path fill="#fff" stroke="#a8a8a8" stroke-width="16" paint-order="stroke" d="m259.6 234c3.3 3.9 6.1 10.5 6.1 15.2c0 11.6 -13.3 24.6 -24.9 24.6c-10.5 0 -24.9 -13 -24.9 -22.7c0.6 -23.4 28.2 -34.5 43.7 -17.1l0 0z"></path></g></g></g></g></svg>