<svg xmlns="http://www.w3.org/2000/svg" viewBox="0 0 500 500" overflow="hidden" preserveAspectRatio="xMidYMid meet" id="eaf-c228-0"><defs><clipPath id="eaf-c228-1"><rect x="0" y="0" width="500" height="500"></rect></clipPath><style>#eaf-c228-0 * {animation: 10000ms linear infinite normal both running;offset-rotate:0deg}@keyframes eaf-c228-2{0%{opacity:0;animation-timing-function:ease-in-out}12.67%{opacity:1}87.33%{opacity:1;animation-timing-function:ease-in-out}95%,100%{opacity:0}}@keyframes eaf-c228-3{0%{opacity:1}17.67%{opacity:1;animation-timing-function:ease-in-out}27.67%,100%{opacity:0}}@keyframes eaf-c228-4{0%{opacity:1}34.34%{opacity:1;animation-timing-function:ease-in-out}44.34%,100%{opacity:0}}</style></defs><g clip-path="url('#eaf-c228-1')" style="isolation: isolate;"><g><g transform="matrix(4 0 0 4 -827.28 -2254.5264)"><path fill="#f3582c" d="m331.7 626.3c0 15.6 0 31.3 0 46.9c0 7.2 -5.4 13.7 -12.5 15.1c-1 0.2 -2.1 0.3 -3.2 0.3c-31.2 0 -62.4 0 -93.6 0c-7.6 0 -14.3 -5.9 -15.3 -13.5c-0.1 -0.7 -0.1 -1.4 -0.1 -2c0 -31.3 0 -62.5 0 -93.8c0 -7.2 5.4 -13.7 12.5 -15.1c1 -0.2 2.1 -0.3 3.2 -0.3c31.2 0 62.4 0 93.6 0c7.2 0 13.7 5.4 15.1 12.5c0.2 1 0.3 2.1 0.3 3.2c0 15.6 0 31.1 0 46.7z"></path></g><ellipse fill="#fff" rx="236.4" ry="236.4" transform="translate(258.9 248.9)"></ellipse><path fill="#f4b526" d="m418.8 183.7c-15.3 34.5 -62 143.8 -93.1 215c0 0 -8.2 0 -8.2 0l-49.1 -115.8c-19.5 38.2 -41.1 77.9 -59.5 115.7c-0.1 0.2 -8.9 0.1 -8.9 0c-28.2 -65.9 -57.5 -131.3 -85.8 -197.1c-6.6 -16.1 -29.6 -42 -45.4 -41.8c0 -1.9 -0.1 -6 -0.1 -8.6l97.1 0l-0.1 8.4c-11.4 0.5 -31.1 7.8 -26 20.4c13.7 29.6 62.2 144.1 75.3 173.2c9.1 -17.9 34.7 -65.6 45.2 -85.8c-8.2 -16.9 -35.5 -80.1 -43.6 -96c-6.2 -10.4 -21.6 -11.6 -33.5 -11.8c0 -2.7 0.1 -4.7 0.1 -8.3l85.4 0.3l0 7.8c-11.6 0.3 -22.5 4.6 -17.5 15.7c11.5 23.8 18.2 40.8 28.7 62.9c3.4 -6.5 20.6 -41.9 28.9 -60.6c5 -12.4 -2.5 -17.1 -23.3 -17.6c0.3 -2 0.1 -6.1 0.3 -8.1l73.8 0.1l0 7.7c-13.6 0.5 -27.6 7.7 -34.9 19l-35.5 73.7c3.9 9.7 38 85.6 41.6 94l73.4 -169.5c-5.2 -13.7 -21.9 -16.8 -28.4 -16.9c0 -2.2 0.1 -5.5 0.1 -8.3l76.7 0.2l0.1 0.4l-0.1 7.7c-17.0999 0.2 -27.4999 9.2 -33.7 24z" opacity="0" style="animation-name: eaf-c228-2;"></path><polygon points="263.1,201.3 279.6,237.8 330.5,345.9 368.8,157.8 366.8,123.7 277.7,136.3" fill="#fff" style="animation-name: eaf-c228-3;"></polygon><path fill="#fff" d="m260.1 267.3l8.2 15.6c0 0 -34 118.7 -33.5 117.9c0.5 -0.8 -57.8 14 -57.8 14l-65.6 -129l-55.1 -134.7l8.4 -20.5l96.9 1.3l11.6 21.6l47 105.5l39.9 8.3z" style="animation-name: eaf-c228-4;"></path></g></g></svg>