<svg xmlns="http://www.w3.org/2000/svg" viewBox="0 0 500 500" overflow="hidden" preserveAspectRatio="xMidYMid meet" id="eaf-c9db-0"><defs><clipPath id="eaf-c9db-1"><rect x="0" y="0" width="500" height="500"></rect></clipPath><style>#eaf-c9db-0 * {animation: 12000ms linear infinite normal both running;offset-rotate:0deg}@keyframes eaf-c9db-2{0%,100%{transform:none;offset-path:path("m-43.7094 122.9107l192.0094 0l-192.0094 0")}}@keyframes eaf-c9db-3{0%{offset-distance:0%;animation-timing-function:ease-in-out}50%{offset-distance:50%;animation-timing-function:ease-in-out}100%{offset-distance:100%}}@keyframes eaf-c9db-4{0%,100%{transform:translate(8.9594px,-157.4107px)}}@keyframes eaf-c9db-5{0%{opacity:0}6.11%{opacity:0}11.11%{opacity:1}33.61%{opacity:1}40.55%{opacity:0}56.11%{opacity:0}68.61%{opacity:1}83.61%{opacity:1}90.56%,100%{opacity:0}}@keyframes eaf-c9db-6{0%{opacity:0}13.61%{opacity:1}43.05%{opacity:1}50%{opacity:0}63.61%{opacity:1}93.05%{opacity:1}100%{opacity:0}}</style></defs><g clip-path="url('#eaf-c9db-1')" style="isolation: isolate;"><g><g transform="matrix(4 0 0 4 -827.28 -2254.5264)"><path fill="#f3582c" d="m331.5 626.3c0 15.6 0 31.3 0 46.9c0 7.2 -5.4 13.7 -12.5 15.1c-1 0.2 -2.1 0.3 -3.2 0.3c-31.2 0 -62.4 0 -93.6 0c-7.6 0 -14.3 -5.9 -15.3 -13.5c-0.1 -0.7 -0.1 -1.4 -0.1 -2c0 -31.3 0 -62.5 0 -93.8c0 -7.2 5.4 -13.7 12.5 -15.1c1 -0.2 2.1 -0.3 3.2 -0.3c31.2 0 62.4 0 93.6 0c7.2 0 13.7 5.4 15.1 12.5c0.2 1 0.3 2.1 0.3 3.2c0 15.6 0 31.1 0 46.7z"></path></g><g transform="translate(-34.75 -34.5)" opacity="0.54" style="animation-name: eaf-c9db-2, eaf-c9db-3, eaf-c9db-4; animation-composition: replace, add, add;"><path fill="#fff" stroke="#fff" stroke-width="9.1637" stroke-miterlimit="16" d="m128.6 193.8c-1.3 4.9 -2.2 10 -4 14.8c-7.8 20.3 -27.1 33.3 -48.8 33.3c-58.9 0 -117.8 0 -176.7 0c-13.5 0 -25.4 -3.9 -34.5 -14.2c-11.1 -12.6 -14 -27.3 -8.2 -42.9c5.8 -15.6 17.5 -24.8 34.1 -27.3c1.6 -0.2 3.2 -0.4 4.9 -0.6c0.9 -4.8 1.5 -9.7 2.8 -14.4c8.1 -27.8 36.8 -43.6 64.5 -35.7c3 0.9 4.1 0 5.6 -2.5c13.4 -22.7 37.4 -33.9 62.4 -30.9c27.1 3.3 48.3 23.3 54.1 49.6c0.8 3.8 1.1 7.8 1.3 11.7c0.1 1.8 0.5 2.5 2.4 3.1c22.6 6.8 36 21.6 39.4 45.1c0.1 0.5 0.4 1 0.6 1.5c0.1 3.3 0.1 6.4 0.1 9.4z"></path></g><path fill="#fff" d="m101.1 265.8c-9.2 9.3 -17.3 17.5 -25.5 25.7c-4.3 4.3 -6.3 4.4 -10.5 0.1c-8.4 -8.4 -16.8 -16.7 -25.2 -25.2c-4.1 -4.1 -4.1 -6.1 0 -10.2c73.6 -73.5 147.2 -147 220.8 -220.6c4.4 -4.4 6.2 -4.3 10.9 0.4c32.8 32.7 65.5 65.5 98.3 98.2c1.2 1.2 2.5 2.4 4.8 4.6c0 -2.8 0 -4.5 0 -6.2c0 -14.9 0 -29.8 0 -44.8c0 -1.3 0 -2.6 0.1 -3.9c0.7 -9.2 2 -10.4 11.2 -10.4c11.9 0 23.7 0.2 35.6 -0.1c4.8 -0.1 7 1.9 7.7 6.2c0.4 2.4 0.5 4.8 0.5 7.3c0 34.3 0.1 68.6 -0.1 102.9c0 3.2 1 5.4 3.2 7.6c19.4 19.2 38.7 38.5 58 57.8c5.4 5.4 5.4 6.8 0 12.3c-8 8 -16.1 16.1 -24.2 24.1c-4.3 4.3 -6.2 4.3 -10.5 -0.1c-8.2 -8.2 -16.3 -16.3 -25.5 -25.6c0 3 0 4.8 0 6.6c0 62.6 0 125.1 0 187.7c0 7.6 -0.8 8.4 -8.3 8.4c-104.5 0 -209.1 0 -313.6 0c-6.8 0 -7.8 -1 -7.8 -8c0 -62.7 0 -125.5 0 -188.2c0.1 -1.6 0.1 -3.3 0.1 -6.6z"></path><path fill="#fefadf" d="m265.2 231.7c-44.3 1.1 -83.8 16.7 -116.9 48.1c-9.2 8.7 -22.2 9.1 -30.4 0.5c-9.5 -9.8 -9.1 -22.4 0.9 -31.9c34 -32.1 74.2 -52 120.6 -57.5c67.8 -8 126.7 12.1 176.3 59c7.6 7.2 8.1 18.8 1.8 27.1c-6.8 9.1 -17.9 12 -27.2 6.9c-2.5 -1.4 -4.7 -3.5 -6.8 -5.4c-33.1 -30.4 -72.2 -45.9 -118.3 -46.8z" opacity="0" style="animation-name: eaf-c9db-5;"></path><path fill="#f7e79c" d="m274.1 269c29.1 0.8 60.2 13.2 86.1 38.4c9.8 9.5 9.6 21.6 0 31.4c-8.2 8.4 -20.8 8.1 -30 -0.7c-36.6 -35.4 -90.7 -35.2 -127.5 0.3c-7.7 7.4 -17.9 8.8 -26.3 3.6c-8.5 -5.3 -13.3 -16.6 -9.8 -25.3c1.7 -4.2 4.9 -8 8.2 -11.2c25.2 -23.8 57.5 -36.5 99.3 -36.5z" opacity="0" style="animation-name: eaf-c9db-6;"></path><path fill="#f4b526" d="m312.4 388.6c0.8 22.7 -17.7 45.2 -43.3 46.7c-26.3 1.5 -48 -19.2 -48.7 -45.2c-0.7 -25.2 19.5 -46.3 44.8 -47c25.6 -0.8 46.5 19.4 47.2 45.5z"></path></g></g></svg>