<svg xmlns="http://www.w3.org/2000/svg" viewBox="0 0 500 500" overflow="hidden" preserveAspectRatio="xMidYMid meet" id="eaf-16252-0"><defs><clipPath id="eaf-16252-1"><rect x="0" y="0" width="500" height="500"></rect></clipPath><style>#eaf-16252-0 * {animation: 6000ms linear infinite normal both running;offset-rotate:0deg}@keyframes eaf-16252-2{0%,100%{transform:none;offset-path:path("m50.7199 -47.9451l154.6036 241.5528")}}@keyframes eaf-16252-3{0%{offset-distance:0%;animation-timing-function:cubic-bezier(0,0,0.58,1)}16.67%,100%{offset-distance:100%}}@keyframes eaf-16252-4{0%,100%{transform:translate(-205.3235px,-193.6078px)}}@keyframes eaf-16252-5{0%,100%{transform:none;offset-path:path("m449.52 549.6084l-140.8435 -255.2168")}}@keyframes eaf-16252-6{0%,100%{transform:translate(-308.6765px,-294.3916px)}}@keyframes eaf-16252-7{0%,100%{transform:none;offset-path:path("m257 244l0 0l449 0")}}@keyframes eaf-16252-8{0%{offset-distance:0%}60%{offset-distance:0%;animation-timing-function:ease-in}90.55%,100%{offset-distance:100%}}@keyframes eaf-16252-9{0%{transform:rotate(0)}60%{transform:rotate(0);animation-timing-function:ease-in}90.55%,100%{transform:rotate(90deg)}}@keyframes eaf-16252-10{0%,100%{transform:translate(-257px,-244px)}}</style></defs><g clip-path="url('#eaf-16252-1')" style="isolation: isolate;"><g><g transform="matrix(4 0 0 4 -827.28 -2254.5264)"><path fill="#99d6f7" d="m331.7 626.3c0 15.6 0 31.3 0 46.9c0 7.2 -5.4 13.7 -12.5 15.1c-1 0.2 -2.1 0.3 -3.2 0.3c-31.2 0 -62.4 0 -93.6 0c-7.6 0 -14.3 -5.9 -15.3 -13.5c-0.1 -0.7 -0.1 -1.4 -0.1 -2c0 -31.3 0 -62.5 0 -93.8c0 -7.2 5.4 -13.7 12.5 -15.1c1 -0.2 2.1 -0.3 3.2 -0.3c31.2 0 62.4 0 93.6 0c7.2 0 13.7 5.4 15.1 12.5c0.2 1 0.3 2.1 0.3 3.2c0 15.6 0 31.1 0 46.7z"></path></g><g style="animation-name: eaf-16252-7, eaf-16252-8, eaf-16252-9, eaf-16252-10; animation-composition: replace, add, add, add;"><path fill="#fff" d="m255.6 45c-101.5 0 -95.2 44 -95.2 44l0.1 45.6l96.9 0l0 13.7l-135.4 0c0 0 -65 -7.4 -65 95.1c0 102.4 56.7 98.8 56.7 98.8l33.9 0l0 -47.6c0 0 -1.8 -56.7 55.8 -56.7l96.1 0c0 0 54 0.9 54 -52.2l0 -87.6c0 0 8.2 -53.1 -97.9 -53.1zm-53.5 30.7c9.6 0 17.4 7.8 17.4 17.4c0 9.6 -7.8 17.4 -17.4 17.4c-9.6 0 -17.4 -7.8 -17.4 -17.4c0 0 0 0 0 -0.1c0 -9.5 7.8 -17.3 17.4 -17.3z" transform="translate(-154.6036 -241.5528)" style="animation-name: eaf-16252-2, eaf-16252-3, eaf-16252-4; animation-composition: replace, add, add;"></path><path fill="#ffd849" stroke="#fff" stroke-width="10" stroke-miterlimit="133.3333" d="m258.4 443c101.5 0 95.2 -44 95.2 -44l-0.1 -45.6l-96.9 0l0 -13.7l135.4 0c0 0 65 7.4 65 -95.1c0 -102.5 -56.7 -98.8 -56.7 -98.8l-33.9 0l0 47.5c0 0 1.8 56.7 -55.8 56.7l-96.1 0c0 0 -54 -0.9 -54 52.2l0 87.7c0 0 -8.2 53.1 97.9 53.1zm53.5 -30.7c-9.6 0 -17.4 -7.8 -17.4 -17.4c0 0 0 0 0 -0.1c0 -9.6 7.8 -17.4 17.4 -17.4c9.6 0 17.4 7.8 17.4 17.4c0 9.7 -7.8 17.5 -17.4 17.5z" transform="translate(140.8435 255.2168)" style="animation-name: eaf-16252-5, eaf-16252-3, eaf-16252-6; animation-composition: replace, add, add;"></path></g></g></g></svg>