<svg xmlns="http://www.w3.org/2000/svg" viewBox="0 0 650 650" overflow="hidden" preserveAspectRatio="xMidYMid meet" id="eaf-6ef3-0"><defs><clipPath id="eaf-6ef3-1"><rect x="0" y="0" width="650" height="650"></rect></clipPath><style>#eaf-6ef3-0 * {animation: 8000ms linear infinite normal both running;offset-rotate:0deg}@keyframes eaf-6ef3-2{0%,100%{transform:translate(321.2px,448.25px)}}@keyframes eaf-6ef3-3{0%,67.91%{transform:rotate(0)}73.34%{transform:rotate(0);animation-timing-function:ease-in-out}74.16%{transform:rotate(0.5deg);animation-timing-function:ease-in-out}74.18%{transform:rotate(1.2deg);animation-timing-function:ease-in-out}75%{transform:rotate(-1.2deg);animation-timing-function:ease-in-out}75.84%{transform:rotate(1.2deg);animation-timing-function:ease-in-out}76.66%{transform:rotate(-0.5deg);animation-timing-function:ease-in-out}76.68%{transform:rotate(-1.2deg);animation-timing-function:ease-in-out}77.5%{transform:rotate(1.2deg);animation-timing-function:ease-in-out}78.34%{transform:rotate(-1.2deg);animation-timing-function:ease-in-out}79.18%{transform:rotate(1.2deg);animation-timing-function:ease-in-out}80%{transform:rotate(-1.2deg);animation-timing-function:ease-in-out}80.83%{transform:rotate(0.5deg);animation-timing-function:ease-in-out}80.84%{transform:rotate(1.2deg);animation-timing-function:ease-in-out}81.66%{transform:rotate(-1.2deg);animation-timing-function:ease-in-out}82.5%{transform:rotate(1.2deg);animation-timing-function:ease-in-out}83.33%{transform:rotate(-0.5deg);animation-timing-function:ease-in-out}83.34%{transform:rotate(-1.2deg);animation-timing-function:ease-in-out}84.16%{transform:rotate(1.2deg);animation-timing-function:ease-in-out}85%{transform:rotate(-1.2deg);animation-timing-function:ease-in-out}85.84%{transform:rotate(1.2deg);animation-timing-function:ease-in-out}86.66%{transform:rotate(-1.2deg);animation-timing-function:ease-in-out}86.68%,100%{transform:rotate(0)}}@keyframes eaf-6ef3-4{0%,100%{transform:matrix(1,0,0,1.2383,-317.4,-525.0599)}}@keyframes eaf-6ef3-5{0%,100%{transform:translate(412.5113px,212.0766px)}}@keyframes eaf-6ef3-6{0%{transform:scale(0,0)}12.5%{transform:scale(0,0)}18.75%,100%{transform:scale(1,1)}}@keyframes eaf-6ef3-7{0%,100%{transform:translate(-412.25px,-211.25px)}}@keyframes eaf-6ef3-8{0%{animation-timing-function:step-start}81.25%{opacity:1;animation-timing-function:ease-in-out}84.58%,100%{opacity:0}}@keyframes eaf-6ef3-9{0%,100%{transform:translate(533.2113px,212.0766px)}}@keyframes eaf-6ef3-10{0%{animation-timing-function:step-start}35%{transform:rotate(0);animation-timing-function:ease-in-out}36.25%{transform:rotate(-16deg);animation-timing-function:ease-in-out}37.5%{transform:rotate(16deg);animation-timing-function:ease-in-out}38.34%{transform:rotate(-16deg);animation-timing-function:ease-in-out}39.17%{transform:rotate(0);animation-timing-function:ease-in-out}40.42%{transform:rotate(-16deg);animation-timing-function:ease-in-out}41.68%{transform:rotate(16deg);animation-timing-function:ease-in-out}42.51%{transform:rotate(-16deg);animation-timing-function:ease-in-out}43.34%,100%{transform:rotate(0)}}@keyframes eaf-6ef3-11{0%{transform:scale(0,0)}25%{transform:scale(0,0);animation-timing-function:ease-in-out}31.25%,100%{transform:scale(1,1)}}@keyframes eaf-6ef3-12{0%,100%{transform:translate(-532.95px,-211.25px)}}@keyframes eaf-6ef3-13{0%{animation-timing-function:step-start}75%{opacity:1;animation-timing-function:ease-in-out}78.33%,100%{opacity:0}}@keyframes eaf-6ef3-14{0%,100%{transform:translate(291.0266px,435.2693px)}}@keyframes eaf-6ef3-15{0%,50.84%{transform:rotate(0)}52.09%{transform:rotate(-16deg)}53.34%{transform:rotate(16deg)}54.18%{transform:rotate(-16deg)}55.01%{transform:rotate(0)}56.26%{transform:rotate(-16deg)}57.51%{transform:rotate(16deg)}58.35%{transform:rotate(-16deg)}59.18%,100%{transform:rotate(0)}}@keyframes eaf-6ef3-16{0%{transform:scale(0,0)}44.59%{transform:scale(0,0);animation-timing-function:ease-in-out}50%{transform:scale(1,1)}65.84%{transform:scale(1,1)}67.09%,100%{transform:scale(1.1,1.1)}}@keyframes eaf-6ef3-17{0%,100%{transform:translate(-291.65px,-428.25px)}}@keyframes eaf-6ef3-18{0%,70%{opacity:1}73.33%,100%{opacity:0}}@keyframes eaf-6ef3-19{0%,100%{transform:translate(411.6266px,435.2693px)}}@keyframes eaf-6ef3-20{0%,55.84%{transform:rotate(0)}57.09%{transform:rotate(-16deg)}58.34%{transform:rotate(16deg)}59.18%{transform:rotate(-16deg)}60.01%{transform:rotate(0)}61.26%{transform:rotate(-16deg)}62.51%{transform:rotate(16deg)}63.35%{transform:rotate(-16deg)}64.18%,100%{transform:rotate(0)}}@keyframes eaf-6ef3-21{0%{transform:scale(0,0)}49.59%{transform:scale(0,0);animation-timing-function:ease-in-out}55%{transform:scale(1,1)}65.84%{transform:scale(1,1)}67.09%,100%{transform:scale(1.1,1.1)}}@keyframes eaf-6ef3-22{0%,100%{transform:translate(-412.25px,-428.25px)}}@keyframes eaf-6ef3-23{0%,69.16%{opacity:1}72.49%,100%{opacity:0}}@keyframes eaf-6ef3-24{0%,100%{transform:translate(532.3266px,435.2693px)}}@keyframes eaf-6ef3-25{0%,58.34%{transform:rotate(0)}59.59%{transform:rotate(-16deg)}60.84%{transform:rotate(16deg)}61.68%{transform:rotate(-16deg)}62.51%{transform:rotate(0)}63.76%{transform:rotate(-16deg)}65.01%{transform:rotate(16deg)}65.84%{transform:rotate(-15.5224deg)}65.85%{transform:rotate(-16deg)}66.68%,100%{transform:rotate(0)}}@keyframes eaf-6ef3-26{0%,100%{transform:matrix(1,0,0,1,0,0)}}@keyframes eaf-6ef3-27{0%{transform:scale(0,0)}52.09%{transform:scale(0,0);animation-timing-function:ease-in-out}57.5%{transform:scale(1,1)}65.84%{transform:scale(1,1)}67.09%{transform:scale(1.1,1.1)}68.34%,100%{transform:scale(1,1)}}@keyframes eaf-6ef3-28{0%,100%{transform:translate(-532.95px,-428.25px)}}@keyframes eaf-6ef3-29{0%,68.34%{opacity:1}71.66%,100%{opacity:0}}</style></defs><g clip-path="url('#eaf-6ef3-1')" style="isolation: isolate;"><g><path fill="#f3582c" d="m651.4 325.1c0 81.6 0 163.1 0 244.7c0 37.4 -28.2 71.6 -65 78.6c-5.5 1 -11.1 1.6 -16.6 1.6c-162.6 0 -325.2 0 -487.7 0c-39.9 0 -74.7 -30.6 -79.9 -70.2c-0.5 -3.5 -0.8 -7 -0.8 -10.6c0 -163 0 -326 0 -488.9c0 -37.4 28.2 -71.6 65 -78.6c5.4 -1 11.1 -1.6 16.6 -1.6c162.7 -0.1 325.4 -0.1 488.0999 -0.1c37.4 0 71.6 28.2 78.6 65c1 5.4 1.6 11.1 1.6 16.6c0.1001 81.2 0.1001 162.3 0.1001 243.5l0 0l0 0z"></path><g style="filter: drop-shadow(rgb(85, 85, 85) 8px 8px 8px);"><path fill="#f3582c" fill-rule="evenodd" stroke="#fff" stroke-width="15.3356" stroke-miterlimit="10" d="m585.5 292l-528.6 0c-19.1 0 -34.5 -15.4 -34.5 -34.5l0 -92.5c0 -19.1 15.4 -34.5 34.5 -34.5l528.6 0c19.1 0 34.5 15.4 34.5 34.5l0 92.5c0 19.1 -15.4 34.5 -34.5 34.5z" transform="matrix(1 0 0 1.2454 3.8 -68.5925)"></path></g><path fill="#f4c14a" fill-rule="evenodd" stroke="#fff" stroke-width="12.0475" stroke-miterlimit="10" d="m143.4 260.6l-63.8 0c-9.7 0 -17.5 -7.8 -17.5 -17.5l0 -63.7c0 -9.7 7.8 -17.5 17.5 -17.5l63.7 0c9.7 0 17.5 7.8 17.5 17.5l0 63.7c0.1 9.7 -7.8 17.5 -17.4 17.5z" transform="matrix(1 0 0 1.2454 3.8 -68.5925)"></path><g style="filter: drop-shadow(rgb(85, 85, 85) 8px 8px 8px);"><path fill="#f3582c" fill-rule="evenodd" stroke="#fff" stroke-width="15.3356" stroke-miterlimit="10" d="m585.5 509l-528.6 0c-19.1 0 -34.5 -15.4 -34.5 -34.5l0 -92.5c0 -19.1 15.4 -34.5 34.5 -34.5l528.6 0c19.1 0 34.5 15.4 34.5 34.5l0 92.5c0 19.1 -15.4 34.5 -34.5 34.5z" transform="matrix(1 0 0 1.2383 3.8 -76.8099)" style="animation-name: eaf-6ef3-2, eaf-6ef3-3, eaf-6ef3-4; animation-composition: replace, add, add;"></path></g><path fill="#f4c14a" fill-rule="evenodd" stroke="#fff" stroke-width="12.0475" stroke-miterlimit="10" d="m143.4 477.6l-63.8 0c-9.7 0 -17.5 -7.8 -17.5 -17.5l0 -63.7c0 -9.7 7.8 -17.5 17.5 -17.5l63.7 0c9.7 0 17.5 7.8 17.5 17.5l0 63.7c0.1 9.7 -7.8 17.5 -17.4 17.5z" transform="matrix(0.9998 -0.0209 0.0259 1.238 -7.2815 -74.3595)"></path><ellipse fill="#fff" rx="24.5" ry="30.5" transform="matrix(1 0 0 1.2454 114.3 194.45)"></ellipse><ellipse fill="#fff" rx="24.5" ry="30.5" transform="matrix(0.9998 -0.0209 0.0259 1.238 115.3 453.45)"></ellipse><g transform="matrix(1.1304 0 0 1.1304 -54.8874 -43.0115)"><path fill="#bfbfbf" fill-rule="evenodd" stroke="#fff" stroke-width="12.9602" stroke-miterlimit="10" d="m315.9 254l-48.5 0c-10.2 0 -18.5 -8.3 -18.5 -18.5l0 -48.5c0 -10.2 8.3 -18.5 18.5 -18.5l48.5 0c10.2 0 18.5 8.3 18.5 18.5l0 48.5c0 10.2 -8.3 18.5 -18.5 18.5z" transform="translate(0.2613 0.8266)"></path><path fill="#bfbfbf" fill-rule="evenodd" stroke="#fff" stroke-width="12.9602" stroke-miterlimit="10" d="m436.5 254l-48.5 0c-10.2 0 -18.5 -8.3 -18.5 -18.5l0 -48.5c0 -10.2 8.3 -18.5 18.5 -18.5l48.5 0c10.2 0 18.5 8.3 18.5 18.5l0 48.5c0 10.2 -8.2 18.5 -18.5 18.5z" transform="matrix(0 0 0 0 412.5113 212.0766)" style="animation-name: eaf-6ef3-5, eaf-6ef3-6, eaf-6ef3-7, eaf-6ef3-8; animation-composition: replace, add, add, replace;"></path><path fill="#bfbfbf" fill-rule="evenodd" stroke="#fff" stroke-width="12.9602" stroke-miterlimit="10" d="m557.2 254l-48.5 0c-10.2 0 -18.5 -8.3 -18.5 -18.5l0 -48.5c0 -10.2 8.3 -18.5 18.5 -18.5l48.5 0c10.2 0 18.5 8.3 18.5 18.5l0 48.5c0 10.2 -8.3 18.5 -18.5 18.5z" transform="matrix(0 0 0 0 533.2113 212.0766)" style="animation-name: eaf-6ef3-9, eaf-6ef3-10, eaf-6ef3-11, eaf-6ef3-12, eaf-6ef3-13; animation-composition: replace, add, add, add, replace;"></path><path fill="#bfbfbf" fill-rule="evenodd" stroke="#fff" stroke-width="12.9602" stroke-miterlimit="10" d="m315.9 471l-48.5 0c-10.2 0 -18.5 -8.3 -18.5 -18.5l0 -48.5c0 -10.2 8.3 -18.5 18.5 -18.5l48.5 0c10.2 0 18.5 8.3 18.5 18.5l0 48.5c0 10.2 -8.3 18.5 -18.5 18.5z" transform="matrix(0 0 0 0 291.0266 435.2693)" style="animation-name: eaf-6ef3-14, eaf-6ef3-15, eaf-6ef3-16, eaf-6ef3-17, eaf-6ef3-18; animation-composition: replace, add, add, add, replace;"></path><path fill="#bfbfbf" fill-rule="evenodd" stroke="#fff" stroke-width="12.9602" stroke-miterlimit="10" d="m436.5 471l-48.5 0c-10.2 0 -18.5 -8.3 -18.5 -18.5l0 -48.5c0 -10.2 8.3 -18.5 18.5 -18.5l48.5 0c10.2 0 18.5 8.3 18.5 18.5l0 48.5c0 10.2 -8.2 18.5 -18.5 18.5z" transform="matrix(0 0 0 0 411.6266 435.2693)" style="animation-name: eaf-6ef3-19, eaf-6ef3-20, eaf-6ef3-21, eaf-6ef3-22, eaf-6ef3-23; animation-composition: replace, add, add, add, replace;"></path><path fill="#bfbfbf" fill-rule="evenodd" stroke="#fff" stroke-width="12.9602" stroke-miterlimit="10" d="m557.2 471l-48.5 0c-10.2 0 -18.5 -8.3 -18.5 -18.5l0 -48.5c0 -10.2 8.3 -18.5 18.5 -18.5l48.5 0c10.2 0 18.5 8.3 18.5 18.5l0 48.5c0 10.2 -8.3 18.5 -18.5 18.5z" transform="matrix(0 0 0 0 532.3266 435.2693)" style="animation-name: eaf-6ef3-24, eaf-6ef3-25, eaf-6ef3-26, eaf-6ef3-27, eaf-6ef3-28, eaf-6ef3-29; animation-composition: replace, add, add, add, add, replace;"></path></g></g></g></svg>