<svg xmlns="http://www.w3.org/2000/svg" viewBox="0 0 500 500" overflow="hidden" preserveAspectRatio="xMidYMid meet" id="eaf-33cc-0"><defs><clipPath id="eaf-33cc-1"><rect x="0" y="0" width="500" height="500"></rect></clipPath><style>#eaf-33cc-0 * {animation: 12000ms linear infinite normal both running;offset-rotate:0deg}@keyframes eaf-33cc-2{0%,100%{transform:none;offset-path:path("m252.7 142.4l0 0l0 87.8542l0 0l0 -87.8542")}}@keyframes eaf-33cc-3{0%{offset-distance:0%}56.11%{offset-distance:0%;animation-timing-function:ease-in-out}66.11%{offset-distance:50%}92.23%{offset-distance:50%}96.94%,100%{offset-distance:100%}}@keyframes eaf-33cc-4{0%{transform:scale(1,1)}21.39%{transform:scale(1,1)}23.61%{transform:scale(0,0)}42.23%{transform:scale(0,0);animation-timing-function:linear(0 0%,0.43 9%,0.75 18%,0.97 27%,1.12 37%,1.18 46%,1.19 56%,1.15 66%,1.03 89%,1 100%)}44.44%{transform:scale(1,1)}56.11%{transform:scale(1,1);animation-timing-function:ease-in-out}66.11%{transform:scale(1.3926,1.3926)}92.23%{transform:scale(1.3926,1.3926)}96.94%,100%{transform:scale(1,1)}}@keyframes eaf-33cc-5{0%,100%{transform:translate(-252.7px,-142.4px)}}@keyframes eaf-33cc-6{0%,100%{transform:none;offset-path:path("m-149.0737 478.7711l0 0l430.7271 -308.8304l-27.4 22.747l0 0l282.6534 228.6357")}}@keyframes eaf-33cc-7{0%{offset-distance:0%}8.61%{offset-distance:0%;animation-timing-function:ease-in-out}15%{offset-distance:57.0409%;animation-timing-function:ease-in-out}16.67%{offset-distance:60.8735%}48.61%{offset-distance:60.8735%;animation-timing-function:ease-in-out}60.83%,100%{offset-distance:100%}}@keyframes eaf-33cc-8{0%{transform:rotate(0)}48.61%{transform:rotate(0);animation-timing-function:ease-in-out}60.83%,100%{transform:rotate(-105deg)}}@keyframes eaf-33cc-9{0%,100%{transform:translate(-252.8px,-192.6708px)}}@keyframes eaf-33cc-10{0%,100%{transform:none;offset-path:path("m654.7625 474.4125l-429.9218 -303.2508l27.9593 21.5091l0 0l-298.3761 228.6533")}}@keyframes eaf-33cc-11{0%{offset-distance:0%;animation-timing-function:ease-in-out}6.67%{offset-distance:56.1305%;animation-timing-function:ease-in-out}8.33%{offset-distance:59.8941%}48.61%{offset-distance:59.8941%;animation-timing-function:ease-in-out}60.83%,100%{offset-distance:100%}}@keyframes eaf-33cc-12{0%{transform:rotate(0)}48.61%{transform:rotate(0);animation-timing-function:ease-in-out}60.83%,100%{transform:rotate(105deg)}}@keyframes eaf-33cc-13{0%,100%{transform:translate(252.5607px,231.337px)}}@keyframes eaf-33cc-14{0%{transform:scale(0,0)}68.06%{transform:scale(0,0);animation-timing-function:linear(0 0%,0.44 8%,0.81 17%,1.09 27%,1.23 37%,1.29 46%,1.28 55%,1.23 64%,1.04 88%,1 100%)}70.83%{transform:scale(1.2446,1.2446)}89.17%{transform:scale(1.2446,1.2446);animation-timing-function:ease-in-out}90.83%,100%{transform:scale(0,0)}}@keyframes eaf-33cc-15{0%,100%{transform:translate(-247.8925px,-222.2361px)}}@keyframes eaf-33cc-16{0%,100%{transform:translate(254.8px,159.9959px)}}@keyframes eaf-33cc-17{0%{transform:scale(0,0)}23.89%{transform:scale(0,0);animation-timing-function:linear(0 0%,0.45 8%,0.83 17%,1.1 27%,1.25 37%,1.3 46%,1.29 55%,1.24 64%,1.04 88%,1 100%)}26.39%{transform:scale(0.2106,0.2106)}38.89%{transform:scale(0.2106,0.2106);animation-timing-function:linear(0 0%,-0.04 12%,-0.19 35%,-0.23 44%,-0.23 54%,-0.18 63%,-0.03 73%,0.2 82%,0.54 91%,1 100%)}41.39%,100%{transform:scale(0,0)}}@keyframes eaf-33cc-18{0%,100%{transform:translate(-1024.9996px,-1024.9995px)}}</style></defs><g clip-path="url('#eaf-33cc-1')" style="isolation: isolate;"><g><g transform="matrix(4 0 0 4 -827.28 -2254.5264)"><path fill="#f3582c" d="m331.8 626.1c0 15.6 0 31.3 0 46.9c0 7.2 -5.4 13.7 -12.5 15.1c-1 0.2 -2.1 0.3 -3.2 0.3c-31.2 0 -62.4 0 -93.6 0c-7.6 0 -14.3 -5.9 -15.3 -13.5c-0.1 -0.7 -0.1 -1.4 -0.1 -2c0 -31.3 0 -62.5 0 -93.8c0 -7.2 5.4 -13.7 12.5 -15.1c1 -0.2 2.1 -0.3 3.2 -0.3c31.2 0 62.4 0 93.6 0c7.2 0 13.7 5.4 15.1 12.5c0.2 1 0.3 2.1 0.3 3.2c0 15.6 0 31.1 0 46.7z"></path></g><g transform="translate(0 0)" style="animation-name: eaf-33cc-2, eaf-33cc-3, eaf-33cc-4, eaf-33cc-5; animation-composition: replace, add, add, add;"><path fill="#fff" fill-rule="evenodd" d="m182.7 45.4c12.4 -22.3 39.1 -37.7 70.1 -37.7c31 0 57.7 15.4 70.1 37.7c1.2 0 2.5 -0.1 3.7 -0.1c46.9 0 84.9 32.3 84.9 72c0 27.3 -17.9 51.1 -44.3 63.3l0 37.6c0 11.3 0 20.6 -1.2 28.1c-1.2 7.9 -4 15 -10.7 20.7c-6.7 5.7 -15.1 8 -24.4 9.1c-8.8 1 -19.9 1 -33.1 1l-90.2 0c-13.3 0 -24.3 0 -33.1 -1c-9.3 -1.1 -17.6 -3.4 -24.4 -9.1c-6.7 -5.7 -9.5 -12.8 -10.7 -20.7c-1.2 -7.5 -1.2 -16.8 -1.2 -28.1l0 -37.6c-26.4 -12.2 -44.3 -36 -44.3 -63.3c0 -39.8 38 -72 84.9 -72c1.4 0 2.6 0 3.9 0.1z"></path><path fill="#fefadf" fill-rule="evenodd" d="m176 64.1c-33.3 1.3 -59.9 24.6 -59.9 53.2c0 21.8 15.5 40.6 37.7 48.8c4 1.5 6.6 4.9 6.6 8.6l0 33.4l184.6 0l0 -33.4c0 -3.7 2.6 -7.1 6.6 -8.6c22.2 -8.2 37.7 -27 37.7 -48.8c0 -28.6 -26.5 -51.9 -59.9 -53.2c0.5 3.1 0.8 6.2 0.8 9.3l0 6.3c0 5.2 -5 9.4 -11.1 9.4c-6.1 0 -11.1 -4.2 -11.1 -9.4l0 -6.3c0 -5.3 -1 -10.4 -2.9 -15.1c-7.4 -18.6 -28.1 -31.9 -52.5 -31.9c-24.4 0 -45.1 13.3 -52.5 31.9c-1.9 4.7 -2.9 9.8 -2.9 15.1l0 6.3c0 5.2 -5 9.4 -11.1 9.4c-6.1 0 -11.1 -4.2 -11.1 -9.4l0 -6.3c0.2 -3.1 0.5 -6.2 1 -9.3z"></path><path fill="#f4b526" fill-rule="evenodd" d="m345.1 227l-184.6 0c0.1 7.1 0.3 12.5 1 16.8c0.9 5.8 2.5 8.3 4.4 9.9c1.9 1.6 4.8 3 11.7 3.8c7.1 0.8 16.7 0.8 30.9 0.8l88.6 0c14.2 0 23.8 0 30.9 -0.8c6.8 -0.8 9.7 -2.1 11.7 -3.8c1.9 -1.6 3.5 -4.1 4.4 -9.9c0.7 -4.3 0.9 -9.7 1 -16.8z"></path></g><path fill="#fff" d="m292.8 383.1c13.1 -10.1 44.1 -42 59.1 -43.3c19 -1.4 80.4 3.4 105 -13.2c50.6 -34.1 40.8 -73.5 30.9 -89.2c-7.9 -12.4 -37.9 -35.4 -88.6 -1.3c-26 17.5 -55.5 59.8 -62.6 75.9c-6.9 13.5 -49.5 33.1 -63.7 41.5l-133.2 77c-11.5 6.5 -21.3 15.6 -26.6 25.5c-5.3 9.9 -4.7 19.6 0 26.6c4.7 7 12.9 10.3 24.6 10c11.1 -1.2 23.8 -5.9 32.3 -14.1l122.8 -95.4z" transform="translate(-401.8737 286.1004)" style="animation-name: eaf-33cc-6, eaf-33cc-7, eaf-33cc-8, eaf-33cc-9; animation-composition: replace, add, add, add;"></path><path fill="#fff" d="m122.6 257.8l-56.6 -35.7c-8.5 -5.3 -16.6 -5.1 -20.1 0.5c-3.5 5.6 -0.1 12.9 8.4 18.2l56.5 35.7c2.8 1.8 5.7 3.5 7.1 4.4l-5.8 9.4l-63.6 -40.1c-8.5 -5.3 -16.6 -5.1 -20.1 0.5c-3.5 5.6 -0.1 12.9 8.4 18.2l63.6 40.1l-5.8 9.4c-2.8 -1.8 -5.7 -3.5 -7.1 -4.4l-56.5 -35.7c-8.5 -5.3 -16.6 -5.1 -20.1 0.5c-3.5 5.6 -0.1 12.9 8.4 18.2l56.5 35.7c27 16.8 51.3 25.4 69.3 25c15.5 0.5 31.4 6.6 45.1 16.4l148.2 104.7c10.8 8 23.3 13.2 34.8 13.9c12 -0.3 20.4 -4.2 25 -11.7c4.7 -7.5 4.5 -16.7 -0.6 -27.6c-5.6 -10 -15.3 -19.9 -26.4 -24.2l-159.8 -85.9c-14.8 -7.9 -27.3 -19.6 -34.6 -33.2c-10.2 -18.3999 -28.6 -36.3 -54.2 -52.3z" transform="translate(401.9624 281.7417)" style="animation-name: eaf-33cc-10, eaf-33cc-11, eaf-33cc-12, eaf-33cc-9; animation-composition: replace, add, add, add;"></path><g transform="matrix(0 0 0 0 252.5607 231.337)" style="animation-name: eaf-33cc-13, eaf-33cc-14, eaf-33cc-15; animation-composition: replace, add, add;"><g opacity="0.22" style="filter: blur(2px);"><path fill="#ed0000" d="m58 17c-6 -10 -16 -17 -28 -17c-17 0 -30 13 -30 30c0 33 18 38 58 76c40 -38 58 -43 58 -76c0 -17 -13 -30 -30 -30c-12 0 -22 7 -28 17z" transform="translate(195.5169 172.45)"></path></g><path fill="#ed0000" d="m58 17c-6 -10 -16 -17 -28 -17c-17 0 -30 13 -30 30c0 33 18 38 58 76c40 -38 58 -43 58 -76c0 -17 -13 -30 -30 -30c-12 0 -22 7 -28 17z" transform="translate(189.8925 169.2361)"></path><polygon points="30.7,5.13 25.3,5.13 18.6,6.93 14.49,9.25 10.37,12.85 7.79,16.71 5.73,21.09 5.73,25.47 5.73,26.75 9.08,28.3 12.68,28.3 14.74,25.21 16.03,21.6 18.22,16.71 22.72,13.37 28.9,12.08 32.5,13.37 36.88,13.11 38.94,8.99 36.62,5.13 30.7,5.13" fill="#fff" transform="translate(189.8925 169.2361)" opacity="0.88"></polygon></g><g transform="matrix(0 0 0 0 254.8 159.9959)" style="animation-name: eaf-33cc-16, eaf-33cc-17, eaf-33cc-18; animation-composition: replace, add, add;"><ellipse fill="#ffda5e" rx="613.7" ry="613.7" transform="translate(1025 1025)"></ellipse><path fill="#c4b11f" d="m1068.4 1551.8c-338.9 0 -613.7 -274.8 -613.6 -613.7q-0.1663 -119.2408 44.5 -229.8q-43.3263 71.6414 -65.741 152.3088q-22.4147 80.6675 -22.259 164.3911c0 338.9 274.7 613.7 613.7 613.7c257.7 0 478.2 -158.8 569.2 -383.9c-107.3999 178.0001 -302.7 297.0001 -525.7999 297.0001z"></path><path fill="#ffe059" d="m1025 411.3q-98.6168 -0.1685 -192.2728 30.7167q-93.6559 30.8852 -172.8272 89.6833q53.9695 -20.8267 110.6071 -32.6018q56.6375 -11.7751 114.4359 -14.1855q57.7984 -2.4104 115.2197 4.6081q57.4213 7.0185 112.9375 23.2792q-1.8245 2.4371 -3.3 5.1c-18.2 33.9 18.9 89.1 82.8 123.3c63.9 34.2 130.3 34.6 148.5 0.8q2.615 -4.9805 3.7 -10.5c165.3 128.1 271.9 328.1 272.9 553.0999q21.0642 -78.41 21 -159.6c-0.0001 -338.8999 -274.7001 -613.6999 -613.7001 -613.6999z"></path><ellipse fill="#ffe059" rx="30.8" ry="52.8" transform="matrix(0.1925 -0.9813 0.9813 0.1925 1340.4104 699.5928)"></ellipse><ellipse fill="#ffe059" rx="17.2" ry="25" transform="matrix(0.5 -0.866 0.866 0.5 1235.0625 718.7221)"></ellipse><path fill="#e30000" d="m1326 1355.3q-22.2729 0.0461 -42.8602 -8.4539q-20.5873 -8.5 -36.3397 -24.2461l-70.1 -70.2q-3.9745 -4.2654 -6.0623 -9.7086q-2.0878 -5.4432 -1.9849 -11.2723q0.1027 -5.8291 2.3811 -11.1954q2.2784 -5.3663 6.401 -9.4886q4.1223 -4.1226 9.4886 -6.4009q5.3663 -2.2784 11.1954 -2.3812q5.829 -0.1029 11.2722 1.9849q5.4434 2.0878 9.7087 6.0623l75.3 -71.9q-3.9745 -4.2651 -6.0623 -9.7085q-2.0879 -5.4434 -1.985 -11.2725q0.1029 -5.8291 2.3813 -11.1954q2.2784 -5.3663 6.4009 -9.4888q4.1224 -4.1224 9.4888 -6.4009q5.3663 -2.2784 11.1954 -2.3812q5.8291 -0.1028 11.2723 1.9851q5.4432 2.0876 9.7085 6.0621l68.4 68.4q11.7489 11.7476 19.5814 26.4q7.8325 14.6523 11.0741 30.9475q3.2417 16.2952 1.6133 32.8297q-1.6284 16.5345 -7.9866 31.8843q-6.3583 15.3497 -16.8988 28.1926q-10.5404 12.8429 -24.3553 22.0729q-13.8149 9.2301 -29.7142 14.0521q-15.8993 4.822 -32.5138 4.8208l-0.0002 0z"></path><path fill="#fff" d="m1025 1308.7l0 0c-74.2 0 -144.6 -22.2 -203.5 -64.2q-42.4647 -30.2242 -73.5 -72.1q-30.9738 -41.9165 -46.4 -91.7q-1.7562 -5.7106 -1.1922 -11.6582q0.564 -5.9476 3.3624 -11.2262q2.7983 -5.2786 7.4044 -9.0835q4.6061 -3.8051 10.3181 -5.5564q5.7119 -1.7515 11.6592 -1.1824q5.9473 0.5691 11.2235 3.3718q5.2761 2.8027 9.0771 7.4121q3.801 4.6093 5.5476 10.3228c16 52.1 50.6 99.2 97.4 132.5c48.6 34.7 107 53.1 168.6 53.1l0 0c61.6 0 119.9 -18.4 168.6 -53.1c46.8 -33.3 81.4 -80.4 97.4 -132.5q1.7466 -5.7135 5.5476 -10.3229q3.801 -4.6093 9.0773 -7.412q5.2762 -2.8027 11.2235 -3.3718q5.9473 -0.5691 11.6592 1.1824q5.7119 1.7513 10.318 5.5563q4.6061 3.8051 7.4044 9.0836q2.7983 5.2786 3.3623 11.2262q0.564 5.9476 -1.1923 11.6582q-15.4263 49.7833 -46.4 91.7q-31.0353 41.8756 -73.5 72.1c-59 42 -129.3 64.2 -203.5 64.2z"></path><ellipse fill="none" stroke="#fff" stroke-width="11" rx="73.6517" ry="73.6517" transform="matrix(8.3325 0 0 8.3325 1025 1024.9999)"></ellipse><ellipse fill="#fff" rx="23.7657" ry="28.0894" transform="matrix(3.9277 0 0 3.9277 831.5975 860.6089)"></ellipse><ellipse fill="#fff" rx="23.7657" ry="28.0894" transform="matrix(3.9277 0 0 3.9277 1224.1 860.6089)"></ellipse></g></g></g></svg>