<svg xmlns="http://www.w3.org/2000/svg" viewBox="0 0 500 500" overflow="hidden" preserveAspectRatio="xMidYMid meet" id="eaf-9f28-0"><!-- Created with Expressive Animator v1.3.1 | https://expressive.app/expressive-animator/ --><defs><clipPath id="eaf-9f28-1"><rect x="0" y="0" width="500" height="500"></rect></clipPath><style>#eaf-9f28-0 * {animation: 20000ms linear infinite normal both running;offset-rotate:0deg}@keyframes eaf-9f28-2{0%{fill:#f4b526}30%{fill:#f4b526}50%{fill:#fefadf}70%,100%{fill:#f4b526}}@keyframes eaf-9f28-3{0%{fill:#fff}39.84%{fill:#fff}42.34%{fill:#f20000}62.5%{fill:#f20000}65.17%,100%{fill:#fff}}@keyframes eaf-9f28-4{0%,100%{transform:translate(233.9px,257.0001px)}}@keyframes eaf-9f28-5{0%{transform:rotate(0)}100%{transform:rotate(360deg)}}@keyframes eaf-9f28-6{0%,100%{transform:translate(-233.9px,-257.0001px)}}</style></defs><g clip-path="url('#eaf-9f28-1')" style="isolation: isolate;"><g><g transform="matrix(4 0 0 4 -827.28 -2254.5264)"><path fill="#f3582c" d="m331.5 626.3c0 15.6 0 31.3 0 46.9c0 7.2 -5.4 13.7 -12.5 15.1c-1 0.2 -2.1 0.3 -3.2 0.3c-31.2 0 -62.4 0 -93.6 0c-7.6 0 -14.3 -5.9 -15.3 -13.5c-0.1 -0.7 -0.1 -1.4 -0.1 -2c0 -31.3 0 -62.5 0 -93.8c0 -7.2 5.4 -13.7 12.5 -15.1c1 -0.2 2.1 -0.3 3.2 -0.3c31.2 0 62.4 0 93.6 0c7.2 0 13.7 5.4 15.1 12.5c0.2 1 0.3 2.1 0.3 3.2c0 15.6 0 31.1 0 46.7z"></path></g><g style="animation-name: eaf-9f28-4, eaf-9f28-5, eaf-9f28-6; animation-composition: replace, add, add;"><path fill="#000" d="m185.6 353l0.6 -1.2l0.5 -1.2l0.3 -1.4l0.3 -1.2l0 -2.6l-0.2 -1.4l-0.2 -1.2l-0.9 -2.4l-0.6 -1.2l-0.8 -1.1l-0.8 -0.9l-0.9 -1.1l-1.1 -0.8l-0.2 -0.2l-0.2 0l-0.3 -0.3c-10.8 -7.9 -18.7 -17.1 -25.3 -28.7l-2.7 -5.5l-0.3 -0.3c-16 -34.4 -9.4 -74.3 16.5 -101.9l0.2 -0.2l0.2 0l0 -0.2l0 0.2l0.2 0.2l0.2 0.5l0.3 0.5c4.1 8.9 8.4 18 12.7 26.9l0.5 0.9l0 0.2c0.4 0.9 2 3 2.7 3.7l1.2 0.9c1.9 1 3.6 1.7 5.8 1.7l0.8 0l2.3 -0.5l0.8 -0.3l0.8 -0.2c1.5 -1 3 -1.9 4.1 -3.4l0.5 -0.6l0 -0.2l0.2 -0.2l0 -0.2l0.3 -0.3l0.2 -0.3l0.3 -0.6l0.9 -1.4l0.3 -0.6c8.4 -13.6 16.7 -27.3 25 -40.9l2 -3.2l2.1 -3.4l4.1 -6.9l8.5 -13.7l4.1 -7c11.5 -18.6 22.8 -37.2 34.3 -55.8l0.3 -0.6l0.5 -0.8l0.3 -0.6c0.8 -0.8 1.2 -2 1.8 -2.9l0.2 -0.1l0 -0.2l0.2 -0.2l0.8 -1.5l0.5 -1.4l0.2 -1.4l0.2 -1.4l-0.2 -1.5l-0.3 -1.4l-0.5 -1.4l-0.6 -1.2l-0.9 -1.2l-0.9 -0.9l-1.1 -0.9l-1.2 -0.8l-1.2 -0.6l-1.4 -0.5l-0.8 -0.2l-0.3 0l-0.2 -0.2l-0.9 0l-0.5 -0.2l-0.5 0l-0.5 -0.2l-0.6 0l-0.6 -0.2l-0.8 0l-2.3 -0.5l-0.9 0c-26.9 -3.9 -53.8 -7.4 -80.7 -11.1l-7.9 -1.2l-7.9 -1.1l-3.8 -0.5l-3.8 -0.6l-3.8 -0.5l-3.8 0l-3.5 -0.5c-12.4 -1.8 -25.1 -3.7 -37.5 -5.2l-0.5 -0.2l-0.5 0l-0.3 -0.2c-1.1 0.1 -1.5 -0.2 -2.6 -0.2l-0.8 0.2l-0.8 0c-2 0.4 -3.9 1.4 -5.5 2.7l-0.5 0.6l-0.6 0.5l-0.5 0.8l-0.3 0.6l-0.5 0.6c-1.8 4 -1.3 7.3 0.6 11l0.5 0.8l0.5 1.1c5.1 11.2 10.6 22.3 15.7 33.4l0.2 0.2l0 0.2l0.2 0.2l-0.3 0.2c-76.9 54 -104.3 156.5 -63.9 241.5l0 0.2l0.2 0l0 0.3l0.5 0.9c9.4 19.2 21.6 37.1 36.8 52.2l2.4 2.6l2.6 2.4c7.6 5.9 25.9 24.8 36.3 23.5l1.4 -0.3l1.5 -0.5l1.4 -0.5l1.4 -0.8l1.2 -0.8l1.2 -0.9l1.1 -1.2l1.4 -1.8l0.2 -0.3l0.2 -0.2l0 -0.3l0.2 -0.2c0.7 -1.3 1.3 -2.6 2.1 -3.8l0.5 -0.9l0.5 -1.1l0.6 -0.9c8.3 -15.3 16.8 -30.7 25 -46.1l0.8 -1.4l0.8 -1.2l0.6 -1.2l0.6 -1.2c1.4 -2.5 2.9 -5 4.1 -7.6l-0.1 -0.2z"></path><path fill="#f4b526" stroke="#000" stroke-width="18" stroke-miterlimit="10" d="m294.4 176.8l-1.1 1.5c-2 4.4 -1.5 10 1.8 13.6l1.2 1.4l0.3 0.3c15.8 14 26 33.8 29.1 54.6l0.2 2.7l-2.7 -0.9l-1.7 -0.6l-2 -0.6c-5.4 -1.5 -10.7 -3.3 -16 -4.9l-1.8 -0.6l-1.7 -0.6c-2 -0.8 -3.3 -0.9 -5.2 -1.4l-2 0l-0.6 0.2c-1.5 0 -2.9 0.7 -4.1 1.4l-0.5 0.5l-0.6 0.3l-1.8 1.8l-0.3 0.6l-0.5 0.5l-0.3 0.6l-0.2 0.6l-0.3 0.5l-0.2 0.6l-0.3 0.6l-0.2 0.6l0 0.6l-0.2 0.8c-0.1 1.9 0.4 3.7 0.9 5.5l3.1 10.7c8.9 30.9 17.5 62 26.4 92.9l3.4 11.9l3.2 11l2.7 9.8l2.3 8.1c1.8 4.3 1.9 9.4 4.1 13.6l0.3 0.6l0.3 0.5c0.8 1.3 2 2.2 3.4 3.1l0.6 0.3l0.5 0.3l0.6 0.3l0.5 0.2l1.2 0.3l0.6 0c7 1.4 11.1 -5.2 16.2 -8.7l6.3 -5l7.5 -6.3l8.5 -7c23.3 -19 46.4 -38.3 69.6 -57.4l8.2 -6.7l7 -5.8l5.6 -4.6l3.8 -3.2l2 -1.5l1.8 -1.8l0.3 -0.6l0.3 -0.5l0.3 -0.6l0.3 -0.5l0.3 -0.6l0.2 -0.6c1.3 -3.9 0.2 -8.4 -2.9 -11.1l-0.9 -0.9l-0.5 -0.3c-2 -1 -2.2 -1.4 -4.6 -1.8l-1.8 -0.6l-2.1 -0.6c-8.1 -2.8 -16.4 -5 -24.6 -7.8l-2.5999 -1.1l-2.4 -0.8l-2 -0.6l-2.3 -0.8l0.2 -3.4c5.6 -59.2 -16.5 -117.6 -59.3 -158.8c0 0 -11.7 -10.4 -11.7 -10.4l-1.4 -1.1c-5 -3.1 -12 -2.6 -15.9 2l-1.1 1.4l-0.2 0l-44.7 64.1" style="animation-name: eaf-9f28-2;"></path><ellipse fill="#fff" stroke="#000" stroke-width="10" rx="46.8739" ry="46.8739" transform="matrix(-0.6211 -0.7838 0.7838 -0.6211 236.0571 429.5226)" style="animation-name: eaf-9f28-3;"></ellipse></g></g></g></svg>