<svg xmlns="http://www.w3.org/2000/svg" viewBox="0 0 500 500" overflow="hidden" preserveAspectRatio="xMidYMid meet" id="eaf-f442-0"><defs><clipPath id="eaf-f442-1"><rect x="0" y="0" width="500" height="500"></rect></clipPath><style>#eaf-f442-0 * {animation: 4000ms linear infinite normal both running;offset-rotate:0deg}@keyframes eaf-f442-2{0%,100%{transform:none;offset-path:path("m271.7849 376.1l0 0l47.418 5.2717l-47.418 -5.2717")}}@keyframes eaf-f442-3{0%{offset-distance:0%}25%{offset-distance:0%}35%{offset-distance:50%}75%,100%{offset-distance:100%}}@keyframes eaf-f442-4{0%{transform:rotate(194deg);animation-timing-function:cubic-bezier(0.2,0,0.83,1)}25%{transform:rotate(0);animation-timing-function:cubic-bezier(0.17,0.01,0.86,1)}50%,100%{transform:rotate(-195deg)}}@keyframes eaf-f442-5{0%,100%{transform:translate(-272.3452px,-376.1041px)}}@keyframes eaf-f442-6{0%{opacity:1}45.83%{opacity:1}46.68%{opacity:0}99.18%{opacity:0}100%{opacity:1}}@keyframes eaf-f442-7{0%,100%{transform:translate(275.6939px,390.146px)}}@keyframes eaf-f442-8{0%{transform:rotate(0);animation-timing-function:ease-in-out}10%{transform:rotate(21deg);animation-timing-function:ease-in-out}40.83%{transform:rotate(-25deg);animation-timing-function:ease-in-out}60%{transform:rotate(21deg);animation-timing-function:ease-in-out}100%{transform:rotate(0)}}@keyframes eaf-f442-9{0%,100%{transform:translate(10.8896px,-21.6319px)}}@keyframes eaf-f442-10{0%,100%{transform:translate(73.28px,400.2851px)}}@keyframes eaf-f442-11{0%{transform:rotate(0);animation-timing-function:ease-in-out}25%{transform:rotate(21deg);animation-timing-function:ease-in-out}50%{transform:rotate(-25deg);animation-timing-function:ease-in-out}75%{transform:rotate(21deg);animation-timing-function:ease-in-out}100%{transform:rotate(0)}}@keyframes eaf-f442-12{0%,100%{transform:none;offset-path:path("m147.4666 365.5733l0.7377 12.9989l-0.7377 -64.2079l0 58.8677")}}@keyframes eaf-f442-13{0%{offset-distance:0%;animation-timing-function:ease-in-out}41.68%{offset-distance:9.5664%;animation-timing-function:ease-in-out}56.68%{offset-distance:56.7466%;animation-timing-function:ease-in-out}71.68%,100%{offset-distance:100%}}@keyframes eaf-f442-14{0%{transform:rotate(0)}56.68%{transform:rotate(0)}71.68%,100%{transform:rotate(-49deg)}}@keyframes eaf-f442-15{0%{transform:scale(1,0)}41.68%{transform:scale(1,0);animation-timing-function:ease-in-out}44.18%{transform:scale(0.79,0.35)}56.68%{transform:scale(1.52,1.47);animation-timing-function:ease-in-out}70.03%{transform:scale(0.79,0.35)}71.68%,100%{transform:scale(1,0)}}@keyframes eaf-f442-16{0%,100%{transform:translate(-147.4666px,-365.5733px)}}@keyframes eaf-f442-17{0%{opacity:1}66.68%{opacity:1;animation-timing-function:ease-in-out}70.03%,100%{opacity:0}}</style></defs><g clip-path="url('#eaf-f442-1')" style="isolation: isolate;"><g><g transform="matrix(4 0 0 4 -827.2998 -2255.1379)"><path fill="#f3582c" d="m331.8 626.1c0 15.6 0 31.3 0 46.9c0 7.2 -5.4 13.7 -12.5 15.1c-1 0.2 -2.1 0.3 -3.2 0.3c-31.2 0 -62.4 0 -93.6 0c-7.6 0 -14.3 -5.9 -15.3 -13.5c-0.1 -0.7 -0.1 -1.4 -0.1 -2c0 -31.3 0 -62.5 0 -93.8c0 -7.2 5.4 -13.7 12.5 -15.1c1 -0.2 2.1 -0.3 3.2 -0.3c31.2 0 62.4 0 93.6 0c7.2 0 13.7 5.4 15.1 12.5c0.2 1 0.3 2.1 0.3 3.2c0 15.6 0 31.1 0 46.7z"></path></g><g transform="matrix(-0.9703 -0.2419 0.2419 -0.9703 445.0524 806.9185)" style="animation-name: eaf-f442-2, eaf-f442-3, eaf-f442-4, eaf-f442-5, eaf-f442-6; animation-composition: replace, add, add, add, replace;"><g><path fill="#ababab" fill-rule="evenodd" stroke="#fff" stroke-width="8.8655" d="m65.5 289.1c19.8 5 38.5 -15.6 57 -18.5c43.4 -6.7 94.4 -11.6 133.7 -34.5c25.2 -15.2 53 -18.4 78.9 -3.2c14.3 8.4 24.4 22.7 38.7 30.6c15.9 8.8 -20.9 54.7 -16.6 71.3c4.6 13.1 13.5 18.1 13.5 18.1c5.3 -24.9 56.1 -34.6 44.9 -62.5c29.7 5.6 49.5 -22 76.9 -27.9c-10.3 -6.5 -21.3 -11.3 -33.7 -11.4c-16.2 0.8 -41.9 9.6 -54.3 -5.2c-15.1 -45.8 -35.5 -111.5 -85.6 -129.8c-9.7 -13.5 -4.8 -33.4 3.8 -46.3c5.8 -8.7 14.8 -18.7 15.7 -28.9c-21.9 3 -45 18.2 -61.3 31.6c-10.3 8.4 -19.8 19.1 -30.9 26.8c-62.6 -3.9 -119 39.4 -151.1 88.4c-7.7 11.8 -8.6 28.2 -13 40.7c-5.5 15.5 -19.8 29 -27.9 44.3c-4.4 7.6 5.9 13.3 11.3 16.4z"></path><path fill="#cfcfcf" fill-rule="evenodd" d="m75.2 285.8c24.2 -45.3 71.7 -56.5 106.8 -89.4c53 -49.8 144.5 -44.8 200 -4.1c-14.6 -28.8 -37.1 -61.6 -66.5 -76.6c-20 -2.9 -47 -17.9 -67 -12.6c-71.4 -2.4 -148.9 57.2 -161.5 126.8c-3.2 17.5 -23 29.6 -26.6 47.4c-1.6 8.1 9.5 5.6 14.8 8.5z"></path><path fill="none" stroke="#fffced" stroke-width="7.0714" d="m78.6 279.9c17.2 -8.1 34 -15.7 52.9 -19c16.8 -2.9 33.5 -3.9 50.1 -8.4c24.6 -6.7 51.3 -11.8 73.7 -24.2c26.1 -14.5 55.2 -19.1 82.3 -4.2c16.1 8.8 27.3 23.4 42.5 33.3c22.4 8 -4.4 45.8 -9.2 56.8c-5 13.2 -2.4 21.6 -2.4 21.6c13.9 -20.6 53 -24.7 32.1 -57.7c14.8 3.7 28.7 6.5 43 -0.4c8.9 -4.3 15.5 -11.8 25.1 -15c-8.9 -4.5 -16.2 -2.4 -23.9 -1.6c-17.1 0.5 -36.1 5.9 -49.2 -9c-14.4 -48.1 -32.3 -106.6 -82 -129.6c-13.6 -11.5 -10.1 -32.3 -5.1 -44.8c2.4 -5.9 8.2 -11.7 12.2 -17.6c0.7 -1 9.7 -10.8 3.6 -6.3c-19 5.4 -36.7 21.4 -52 33c-8.3 6.5 -15.2 14.8 -23.9 20.7c-62.6 -2.6 -116.5 34.9 -146.9 86.1c-6.9 11.6 -7.1 27.5 -12 39.4c-5.8 14 -19.5 26.7 -24.3 41.2c-2.5 7.5 4.7 9 13.4 5.7z" opacity="0.94"></path><path fill="#cfcfcf" fill-rule="evenodd" d="m152.7 261.1c37.5 -5.4 69.3 -14.9 103.2 -32.7c41.6 -20.4 68.5 -16.3 106.3 6.6c1.4 -10.4 -7.8 -21.7 -18.2 -24.1c-11.7 -1.8 -38.3 -3.9 -21.4 -15c7.3 -4.8 28 -8.6 26.8 -12.6c-2.3 -7.7 -50.8 -0.9 -64.4 4.9c-20.6 8.8 -42.3 21.7 -65 27.7c-23.9 6 -42.9 7.2 -60.7 25.6c-2.8 2.8 -22.5 21.9 -6.6 19.6z" opacity="0.97"></path><path fill="#a8a8a8" fill-rule="evenodd" stroke="#fff" stroke-width="8.8655" d="m260 229.5c7.6 1.8 82 23.2 61.6 32.6c-23 5 -51.1 11.1 -73.6 0.6c-8.9 -4.1 -15.6 -12.6 -26 -12.8c-8.6 -11.6 29.1 -20.5 38 -20.4z"></path><path fill="none" stroke="#fcf9eb" stroke-width="8.8655" stroke-linecap="round" stroke-linejoin="round" d="m260.1 238.6c8.8 2.2 49.8 8.5 49.9 18.2c-17.1 2.1 -38.4 5.5 -52.8 0c-8.4 -3.2 -15 -9.2 -20.5 -11.7c-1.4 0.3 14.3 -7.4 23.4 -6.5z"></path><path fill="#fff" fill-rule="evenodd" d="m195.3 191.5c-3.3 9.2 -15.2 12.1 -22.3 18.1c-6 5.1 -17.6 23.9 -27.1 20c-8.9 -25.8 26.8 -53.8 49.4 -38.1z"></path><path fill="#fcf9eb" fill-rule="evenodd" d="m187.3 198.4c1.5 3.5 -7.4 5.4 -13.3 10.7c-7.2 6.3 -12.2 15.4 -15.9 12c-5.2 -15.5 15.6 -32.1 29.2 -22.7z"></path><path fill="#fff" fill-rule="evenodd" d="m181.2 210.4c0.2 4.9 -4.3 9 -10.2 9.3c-5.9 0.2 -10.8 -3.6 -10.9 -8.5l0 0c-0.1 -4.9 4.5 -8.9 10.2 -9.1c5.8 -0.3 10.7 3.5 10.9 8.3z"></path></g></g><path fill="#70b9e0" d="m1.1 385.2l87 -25.4c16.3 -4.7 33.5 -4.9 49.9 -0.3l73.6 20.4c11.5 3.2 23.7 1.8 34.2 -3.8c16.6 -8.8 43.7 -19.8 65 -12.9c33.1 10.7 63.1 40.7 111.2 22c48.1 -18.7 77.9 -41.2 77.9 -41.2l0 93.5l-5.8 25.5l-13.5 18.7l-12.9 9.6l-10.4 8.7l-405.2 0l-13.8 -6.2l-14.3 -8.9l-16.4 -20.3l-5.4 -15.5l-1.1 -27.1l0 -36.8z"></path><path fill="#fff" d="m0 0l-9.5055 0l-9.132 3.3862q-13.1863 7.0167 -13.1863 7.3453q0 0.3286 -13.1863 10.236l-5.0265 13.232l5.0265 9.0643q4.1235 0 5.5272 0q1.4038 0 7.659 -3.9273q6.2813 -8.8597 6.2813 -8.8597c0 0 6.905 -9.5093 6.905 -9.5093q0 0 9.132 -4.936l13.4082 0q14.9895 4.936 15.2916 4.936q0.3021 0 9.0631 -4.936l-5.5363 -9.2652l-11.9856 -6.7663l-10.7354 0z" transform="translate(286.5835 368.5141)" opacity="0.43" style="animation-name: eaf-f442-7, eaf-f442-8, eaf-f442-9; animation-composition: replace, add, add;"></path><path fill="#fff" d="m0 0l-9.5055 0l-9.132 3.3862q-13.1863 7.0167 -13.1863 7.3453q0 0.3286 -13.1863 10.236l-5.0265 13.232l5.0265 9.0643q4.1235 0 5.5272 0q1.4038 0 7.659 -3.9273q6.2813 -8.8597 6.2813 -8.8597c0 0 6.905 -9.5093 6.905 -9.5093q0 0 9.132 -4.936l13.4082 0q14.9895 4.936 15.2916 4.936q0.3021 0 9.0631 -4.936l-5.5363 -9.2652l-11.9856 -6.7663l-10.7354 0z" transform="translate(84.1695 378.6532)" opacity="0.43" style="animation-name: eaf-f442-10, eaf-f442-11, eaf-f442-9; animation-composition: replace, add, add;"></path><g transform="matrix(1 0 0 0 0 365.5733)" style="animation-name: eaf-f442-12, eaf-f442-13, eaf-f442-14, eaf-f442-15, eaf-f442-16, eaf-f442-17; animation-composition: replace, add, add, add, add, replace;"><g><path fill="#fff" d="m16.1 93.8c14.91 0.91 25.19 7.67 33.46 17.95c2.07 2.58 3.88 5.41 5.48 8.32c0.68 1.24 0.52 2.96 0.74 4.46c-1.46 -0.34 -3.07 -0.39 -4.35 -1.07c-3.96 -2.09 -7.7 -4.58 -11.69 -6.58c-3.52 -1.76 -7.02 -1.37 -10.33 1.03c-2.41 1.75 -4.99 3.32 -7.63 4.72c-8.53 4.52 -15.94 2.86 -19.87 -4.33c-4.18 -7.63 -1.26 -18.07 6.47 -22.04c2.74 -1.4 5.93 -1.91 7.72 -2.45l0 -0.01zm29.34 20.36c-5.9 -7.86 -13.28 -13.58 -23.03 -15.27c-3.47 -0.6 -7.41 -0.47 -10.74 0.58c-6.35 2.01 -9.21 10.04 -6.38 16.11c2.62 5.6 7.68 6.8 14.36 3.36c1.47 -0.76 3.03 -1.47 4.29 -2.51c6.62 -5.47 13.62 -6.45 21.49 -2.27l0.01 0z" transform="matrix(0.8829 0.4695 -0.4695 0.8829 129.6832 202.2827)"></path><path fill="#fff" d="m2.34 44.1c0.34 -1.97 0.55 -4.66 1.31 -7.18c1.99 -6.61 6.84 -10.17 12.8 -9.71c5.96 0.46 11.22 5.17 12.04 11.53c0.42 3.23 -0.17 6.6 -0.42 9.91c-0.53 6.95 -1.83 13.94 -1.46 20.84c0.24 4.38 2.94 8.62 4.47 12.95c0.44 1.25 0.61 2.59 0.9 3.89c-1.37 -0.13 -3.03 0.19 -4.08 -0.47c-15.15 -9.53 -24.64 -22.61 -25.56 -41.76zm20.3 32.09c-2.12 -10.45 -0.27 -20.59 1.77 -30.74c0.35 -1.76 0.32 -3.68 0.06 -5.47c-0.69 -4.82 -4.25 -8.35 -8.45 -8.5c-5.15 -0.18 -7.51 3.1 -8.51 7.52c-0.58 2.57 -0.92 5.3 -0.71 7.91c0.93 11.92 6.5 21.49 15.84 29.29l0 -0.01z" transform="matrix(0.8829 0.4695 -0.4695 0.8829 129.6832 202.2827)"></path><path fill="#fff" d="m44.33 10.56c-0.3 5.5 -5.33 9.99 -10.74 9.6c-5.56 -0.4 -9.88 -5.35 -9.46 -10.85c0.41 -5.4 5.02 -9.51 10.44 -9.31c5.57 0.21 10.06 5.07 9.76 10.55l0 0.01zm-3.43 0.53c-0.03 -0.81 -0.05 -1.61 -0.08 -2.42c-2.21 -1.47 -4.31 -3.88 -6.67 -4.18c-3.65 -0.47 -5.85 2.19 -5.63 5.97c0.2 3.56 2.58 5.86 5.94 5.11c2.36 -0.53 4.31 -2.92 6.44 -4.48z" transform="matrix(0.8829 0.4695 -0.4695 0.8829 129.6832 202.2827)"></path><path fill="#fff" d="m98.72 40.12c-1.94 4.29 -3.31 8.99 -5.97 12.77c-3.03 4.3 -6.95 8.09 -10.95 11.56c-9.62 8.33 -11.8 18.83 -7.11 29.82c3.59 8.4 9.68 15.73 14.55 23.59c0.95 1.54 1.46 3.36 2.17 5.05c-1.86 -0.11 -3.9 0.26 -5.54 -0.39c-24.47 -9.64 -42.75 -25.12 -47.65 -52.44c-2.45 -13.65 -1.17 -26.99 6.57 -38.98c6.48 -10.04 15.4 -16.67 27.76 -17.09c13.94 -0.47 25 11.04 26.17 26.1l0 0.01zm-17.97 75.46c-3.3 -6.17 -7.13 -12.06 -9.74 -18.45c-5.74 -14.06 -2.65 -25.97 8.47 -36.19c2.94 -2.7 5.88 -5.46 8.46 -8.5c7 -8.28 7.31 -17.66 1.14 -26.14c-5.53 -7.59 -15.78 -10.25 -25.16 -6.27c-10.35 4.39 -16.71 12.48 -20.08 22.97c-9.19 28.57 7.49 61.27 36.92 72.58l-0.01 0z" transform="matrix(0.8829 0.4695 -0.4695 0.8829 129.6832 202.2827)"></path><path fill="#fffdd8" d="m44.7 56.3c3.8 -14.24 9.26 -26.25 23.41 -31.74c1.08 -0.42 2.24 -0.93 3.34 -0.89c0.98 0.04 1.93 0.79 2.9 1.23c-0.56 0.88 -0.95 2.33 -1.7 2.54c-14.45 4.08 -19.85 15.48 -23.44 28.49c-0.32 1.17 -1.65 2.07 -2.51 3.09c-0.75 -1.03 -1.51 -2.07 -1.99 -2.73l-0.01 0.01z" transform="matrix(0.8829 0.4695 -0.4695 0.8829 129.6832 202.2827)"></path><path fill="#fff" d="m89.84 88.35c-0.06 -18.74 15.45 -32.01 31.67 -28.12c7.78 1.87 13.24 8.65 13.72 17.04c0.41 7.31 -3.05 12 -11.2 15.14c-12.29 4.74 -16.83 12.04 -15.62 25.14c0.12 1.33 0.51 2.67 0.4 3.97c-0.1 1.16 -0.72 2.28 -1.1 3.42c-1.11 -0.56 -2.56 -0.83 -3.28 -1.71c-8.6 -10.42 -14.13 -22.14 -14.58 -34.88l-0.01 0zm13.92 26.98c0.26 -14.34 6.86 -22.55 18.66 -26.91c6.86 -2.53 8.88 -5.47 8.41 -11.68c-0.47 -6.27 -4.5 -11.06 -10.44 -12.43c-11.15 -2.56 -23.37 5.25 -25.61 16.76c-2.36 12.15 1.79 22.77 8.98 34.25l0 0.01z" transform="matrix(0.8829 0.4695 -0.4695 0.8829 129.6832 202.2827)"></path><path fill="#fffdd9" d="m96.4 90.41c0.53 -13.36 8.99 -22.12 20.39 -22.08c1.54 0 3.08 1.18 4.61 1.82c-1.39 0.78 -2.73 2.13 -4.17 2.26c-10.22 0.88 -14.96 5.7 -16.69 16.97c-0.22 1.43 -1.63 2.67 -2.5 4c-0.73 -1.31 -1.45 -2.61 -1.65 -2.97l0.01 0z" transform="matrix(0.8829 0.4695 -0.4695 0.8829 129.6832 202.2827)"></path></g><g><path fill="#9eddff" d="m45.45 114.16c-7.87 -4.18 -14.87 -3.19 -21.49 2.27c-1.26 1.04 -2.82 1.75 -4.29 2.51c-6.68 3.44 -11.74 2.25 -14.36 -3.36c-2.83 -6.07 0.03 -14.1 6.38 -16.11c3.33 -1.05 7.27 -1.18 10.74 -0.58c9.74 1.69 17.13 7.41 23.03 15.27l-0.01 0z" transform="matrix(0.8829 0.4695 -0.4695 0.8829 129.6832 202.2827)"></path><path fill="#9eddff" d="m22.64 76.19c-9.34 -7.8 -14.91 -17.38 -15.84 -29.29c-0.2 -2.61 0.13 -5.34 0.71 -7.91c1 -4.42 3.36 -7.7 8.51 -7.52c4.21 0.15 7.77 3.67 8.45 8.5c0.25 1.79 0.29 3.71 -0.06 5.47c-2.04 10.15 -3.89 20.29 -1.77 30.74l0 0.01z" transform="matrix(0.8829 0.4695 -0.4695 0.8829 129.6832 202.2827)"></path><path fill="#9eddff" d="m40.89 11.09c-2.13 1.56 -4.08 3.95 -6.44 4.48c-3.36 0.75 -5.74 -1.56 -5.94 -5.11c-0.22 -3.79 1.98 -6.45 5.63 -5.97c2.37 0.31 4.46 2.72 6.67 4.18c0.03 0.81 0.05 1.61 0.08 2.42z" transform="matrix(0.8829 0.4695 -0.4695 0.8829 129.6832 202.2827)"></path><path fill="#9eddff" d="m80.75 115.58c-29.43 -11.31 -46.11 -44.01 -36.92 -72.58c3.37 -10.49 9.73 -18.58 20.08 -22.97c9.38 -3.98 19.64 -1.32 25.16 6.27c6.18 8.48 5.87 17.86 -1.14 26.14c-2.57 3.04 -5.52 5.8 -8.46 8.5c-11.12 10.22 -14.21 22.13 -8.47 36.19c2.61 6.39 6.44 12.28 9.74 18.45l0.01 0zm-36.05 -59.28c0.48 0.66 1.23 1.7 1.99 2.73c0.86 -1.02 2.19 -1.92 2.51 -3.09c3.59 -13.01 8.99 -24.41 23.44 -28.49c0.75 -0.21 1.14 -1.67 1.7 -2.54c-0.96 -0.44 -1.92 -1.19 -2.9 -1.23c-1.1 -0.05 -2.26 0.47 -3.34 0.89c-14.15 5.49 -19.6 17.5 -23.41 31.74l0.01 -0.01z" transform="matrix(0.8829 0.4695 -0.4695 0.8829 129.6832 202.2827)"></path><path fill="#9eddff" d="m103.76 115.33c-7.19 -11.48 -11.34 -22.1 -8.98 -34.25c2.24 -11.51 14.46 -19.33 25.61 -16.76c5.94 1.36 9.97 6.16 10.44 12.43c0.47 6.21 -1.54 9.15 -8.41 11.68c-11.8 4.36 -18.41 12.56 -18.66 26.91l0 -0.01zm-7.36 -24.92c0.2 0.35 0.92 1.66 1.65 2.97c0.86 -1.33 2.28 -2.57 2.5 -4c1.73 -11.26 6.48 -16.09 16.69 -16.97c1.44 -0.12 2.78 -1.47 4.17 -2.26c-1.54 -0.64 -3.07 -1.81 -4.61 -1.82c-11.41 -0.04 -19.87 8.72 -20.39 22.08l-0.01 0z" transform="matrix(0.8829 0.4695 -0.4695 0.8829 129.6832 202.2827)"></path></g></g><rect fill="#70b9e0" width="566.2322" height="82.9703" transform="matrix(0.254 0 0 1 357.6583 417.0297)"></rect><rect fill="#70b9e0" width="67.fff" height="64.1fff" transform="translate(1.5 436.3065)"></rect></g></g></svg>