<svg xmlns="http://www.w3.org/2000/svg" viewBox="0 0 500 500" overflow="hidden" preserveAspectRatio="xMidYMid meet" id="eaf-5464-0"><defs><clipPath id="eaf-5464-1"><rect x="0" y="0" width="500" height="500"></rect></clipPath><style>#eaf-5464-0 * {animation: 18000ms linear infinite normal both running;offset-rotate:0deg}@keyframes eaf-5464-2{0%{fill:#a6cce3;animation-timing-function:ease-in-out}9.26%{fill:#a5cce2;animation-timing-function:ease-in-out}15.18%{fill:#fcf9ea;animation-timing-function:ease-in-out}87.96%{fill:#fff;animation-timing-function:ease-in-out}90.74%,100%{fill:#a5cce2}}@keyframes eaf-5464-3{0%,100%{transform:none;offset-path:path("m255.6 401.45l0 0l0 -346.35")}}@keyframes eaf-5464-4{0%{offset-distance:0%}18.71%{offset-distance:0%}36.11%{offset-distance:8.1645%}53.52%{offset-distance:33.1841%}70.93%{offset-distance:66.8159%}88.33%{offset-distance:91.8355%}100%{offset-distance:99.1543%}}@keyframes eaf-5464-5{0%,100%{transform:translate(-255.6px,-401.45px)}}@keyframes eaf-5464-6{0%{opacity:0}18.71%{opacity:0;animation-timing-function:ease-in-out}21.85%{opacity:0.53}87.96%{opacity:0.53;animation-timing-function:ease-in-out}90.73%,100%{opacity:0}}@keyframes eaf-5464-7{0%{fill:#c5dce8}5.56%{fill:#c5dce8;animation-timing-function:ease-in-out}7.22%{fill:#f4b526}8.89%{fill:#f4b526;animation-timing-function:ease-in-out}10%{fill:#c5dce8}83.15%{fill:#c5dce8;animation-timing-function:ease-in-out}84.82%{fill:#f4b526}87.41%{fill:#f4b526;animation-timing-function:ease-in-out}88.52%,100%{fill:#c5dce8}}@keyframes eaf-5464-8{0%{opacity:0.21}8.89%{opacity:0.21}12.59%{opacity:0}89.26%{opacity:0}91.48%,100%{opacity:0.21}}</style></defs><g clip-path="url('#eaf-5464-1')" style="isolation: isolate;"><g><g transform="matrix(4 0 0 4 -827.28 -2254.5264)"><path fill="#f3582c" d="m331.7 626.4c0 15.6 0 31.3 0 46.9c0 7.2 -5.4 13.7 -12.5 15.1c-1 0.2 -2.1 0.3 -3.2 0.3c-31.2 0 -62.4 0 -93.6 0c-7.6 0 -14.3 -5.9 -15.3 -13.5c-0.1 -0.7 -0.1 -1.4 -0.1 -2c0 -31.3 0 -62.5 0 -93.8c0 -7.2 5.4 -13.7 12.5 -15.1c1 -0.2 2.1 -0.3 3.2 -0.3c31.2 0 62.4 0 93.6 0c7.2 0 13.7 5.4 15.1 12.5c0.2 1 0.3 2.1 0.3 3.2c0 15.5999 0 31.0999 0 46.7z"></path></g><rect fill="#a6cce3" width="263.1" height="346.4" transform="translate(121.9 54.1)" style="animation-name: eaf-5464-2;"></rect><g transform="translate(0 0)" opacity="0" style="animation-name: eaf-5464-3, eaf-5464-4, eaf-5464-5, eaf-5464-6; animation-composition: replace, add, add, replace;"><path fill="#c90606" d="m148 88.1l92.7 0c3 0 5.5 -2.4 5.5 -5.5c0 -3 -2.4 -5.5 -5.5 -5.5l-92.7 0c-3 0 -5.5 2.4 -5.5 5.5c0 3.1 2.5 5.5 5.5 5.5z"></path><path fill="#c90606" d="m148 112.4l215.2 0c3 0 5.5 -2.4 5.5 -5.5c0 -3 -2.4 -5.5 -5.5 -5.5l-215.2 0c-3 0 -5.5 2.4 -5.5 5.5c0 3.1 2.5 5.5 5.5 5.5z"></path><path fill="#c90606" d="m148 136.7l215.2 0c3 0 5.5 -2.4 5.5 -5.5c0 -3 -2.4 -5.5 -5.5 -5.5l-215.2 0c-3 0 -5.5 2.4 -5.5 5.5c0 3 2.5 5.5 5.5 5.5z"></path><path fill="#c90606" d="m148 161l215.2 0c3 0 5.5 -2.4 5.5 -5.5c0 -3.1 -2.4 -5.5 -5.5 -5.5l-215.2 0c-3 0 -5.5 2.4 -5.5 5.5c0 3.1 2.5 5.5 5.5 5.5z"></path><path fill="#c90606" d="m148 185.3l215.2 0c3 0 5.5 -2.4 5.5 -5.5c0 -3.1 -2.4 -5.5 -5.5 -5.5l-215.2 0c-3 0 -5.5 2.4 -5.5 5.5c0 3.1 2.5 5.5 5.5 5.5z"></path><path fill="#c90606" d="m148 209.5l215.2 0c3 0 5.5 -2.4 5.5 -5.5c0 -3 -2.4 -5.5 -5.5 -5.5l-215.2 0c-3 0 -5.5 2.4 -5.5 5.5c0 3.1 2.5 5.5 5.5 5.5z"></path><path fill="#c90606" d="m148 233.8l215.2 0c3 0 5.5 -2.4 5.5 -5.5c0 -3.1 -2.4 -5.5 -5.5 -5.5l-215.2 0c-3 0 -5.5 2.4 -5.5 5.5c0 3.1 2.5 5.5 5.5 5.5z"></path><path fill="#c90606" d="m148 258.1l215.2 0c3 0 5.5 -2.4 5.5 -5.5c0 -3.1 -2.4 -5.5 -5.5 -5.5l-215.2 0c-3 0 -5.5 2.4 -5.5 5.5c0 3.1 2.5 5.5 5.5 5.5z"></path><path fill="#c90606" d="m148 282.4l215.2 0c3 0 5.5 -2.4 5.5 -5.5c0 -3 -2.4 -5.5 -5.5 -5.5l-215.2 0c-3 0 -5.5 2.4 -5.5 5.5c0 3.1 2.5 5.5 5.5 5.5z"></path><path fill="#c90606" d="m148 306.7l215.2 0c3 0 5.5 -2.4 5.5 -5.5c0 -3.1 -2.4 -5.5 -5.5 -5.5l-215.2 0c-3 0 -5.5 2.4 -5.5 5.5c0 3.1 2.5 5.5 5.5 5.5z"></path><path fill="#c90606" d="m148 331l215.2 0c3 0 5.5 -2.4 5.5 -5.5c0 -3.1 -2.4 -5.5 -5.5 -5.5l-215.2 0c-3 0 -5.5 2.4 -5.5 5.5c0 3.1 2.5 5.5 5.5 5.5z"></path><path fill="#c90606" d="m148 355.3l215.2 0c3 0 5.5 -2.4 5.5 -5.5c0 -3.1 -2.4 -5.5 -5.5 -5.5l-215.2 0c-3 0 -5.5 2.4 -5.5 5.5c0 3.1 2.5 5.5 5.5 5.5z"></path><path fill="#c90606" d="m148 379.5l215.2 0c3 0 5.5 -2.4 5.5 -5.5c0 -3.1 -2.4 -5.5 -5.5 -5.5l-215.2 0c-3 0 -5.5 2.4 -5.5 5.5c0 3.1 2.5 5.5 5.5 5.5z"></path><path fill="#c90606" d="m148 434.3l92.7 0c3 0 5.5 -2.4 5.5 -5.5c0 -3 -2.4 -5.5 -5.5 -5.5l-92.7 0c-3 0 -5.5 2.4 -5.5 5.5c0 3.1 2.5 5.5 5.5 5.5z"></path><path fill="#c90606" d="m148 458.6l215.2 0c3 0 5.5 -2.4 5.5 -5.5c0 -3.1 -2.4 -5.5 -5.5 -5.5l-215.2 0c-3 0 -5.5 2.4 -5.5 5.5c0 3.1 2.5 5.5 5.5 5.5z"></path><path fill="#c90606" d="m148 482.9l215.2 0c3 0 5.5 -2.4 5.5 -5.5c0 -3 -2.4 -5.5 -5.5 -5.5l-215.2 0c-3 0 -5.5 2.4 -5.5 5.5c0 3.1 2.5 5.5 5.5 5.5z"></path><path fill="#c90606" d="m148 507.2l215.2 0c3 0 5.5 -2.4 5.5 -5.5c0 -3 -2.4 -5.5 -5.5 -5.5l-215.2 0c-3 0 -5.5 2.4 -5.5 5.5c0 3.1 2.5 5.5 5.5 5.5z"></path><path fill="#c90606" d="m148 531.5l215.2 0c3 0 5.5 -2.4 5.5 -5.5c0 -3.1 -2.4 -5.5 -5.5 -5.5l-215.2 0c-3 0 -5.5 2.4 -5.5 5.5c0 3.1 2.5 5.5 5.5 5.5z"></path><path fill="#c90606" d="m148 555.8l215.2 0c3 0 5.5 -2.4 5.5 -5.5c0 -3.1 -2.4 -5.5 -5.5 -5.5l-215.2 0c-3 0 -5.5 2.4 -5.5 5.5c0 3.1 2.5 5.5 5.5 5.5z"></path><path fill="#c90606" d="m148 580.1l215.2 0c3 0 5.5 -2.4 5.5 -5.5c0 -3.1 -2.4 -5.5 -5.5 -5.5l-215.2 0c-3 0 -5.5 2.4 -5.5 5.5c0 3.1 2.5 5.5 5.5 5.5z"></path><path fill="#c90606" d="m148 604.4l215.2 0c3 0 5.5 -2.4 5.5 -5.5c0 -3 -2.4 -5.5 -5.5 -5.5l-215.2 0c-3 0 -5.5 2.4 -5.5 5.5c0 3 2.5 5.5 5.5 5.5z"></path><path fill="#c90606" d="m148 628.6l215.2 0c3 0 5.5 -2.4 5.5 -5.5c0 -3 -2.4 -5.5 -5.5 -5.5l-215.2 0c-3 0 -5.5 2.4 -5.5 5.5c0 3.1 2.5 5.5 5.5 5.5z"></path><path fill="#c90606" d="m148 652.9l215.2 0c3 0 5.5 -2.4 5.5 -5.5c0 -3 -2.4 -5.5 -5.5 -5.5l-215.2 0c-3 0 -5.5 2.4 -5.5 5.5c0 3.1 2.5 5.5 5.5 5.5z"></path><path fill="#c90606" d="m148 677.2l215.2 0c3 0 5.5 -2.4 5.5 -5.5c0 -3 -2.4 -5.5 -5.5 -5.5l-215.2 0c-3 0 -5.5 2.4 -5.5 5.5c0 3.1 2.5 5.5 5.5 5.5z"></path><path fill="#c90606" d="m148 701.5l215.2 0c3 0 5.5 -2.4 5.5 -5.5c0 -3 -2.4 -5.5 -5.5 -5.5l-215.2 0c-3 0 -5.5 2.4 -5.5 5.5c0 3 2.5 5.5 5.5 5.5z"></path><path fill="#c90606" d="m148 725.8l215.2 0c3 0 5.5 -2.4 5.5 -5.5c0 -3 -2.4 -5.5 -5.5 -5.5l-215.2 0c-3 0 -5.5 2.4 -5.5 5.5c0 3 2.5 5.5 5.5 5.5z"></path></g><path fill="#fff" d="m402.1 17.9l-297.3 0c-10.5 0 -19 8.5 -19 19l0 429.5c0 10.5 8.5 19 19 19l297.4 0c10.5 0 19 -8.5 19 -19l0 -429.5c-0.1 -10.4 -8.6 -19 -19.1 -19zm-17.1 382.6l-263.1 0l0 -346.4l263.1 0l0 346.4z"></path><path fill="#f3582c" d="m499.4 64.1c0 -4.4 -0.4 -8.8 -1.2 -12.8c-5.6 -28.4 -31.6 -50 -60.4 -50c-124.8 0 -249.6 0 -374.4 0c-4.4 0 -8.8 0.4 -12.8 1.2c-28.4 5.6 -50 31.6 -50 60.4c0 125.2 0 250 0 375.2c0 2.4 0 5.2 0.4 8c4 30.4 30.8 54 61.2 54c124.8 0 249.6 0 374.4 0c4.4 0 8.8 -0.4 12.8 -1.2c28.4 -5.6 50 -31.6 50 -60.4c0 -62.4 0 -125.2 0 -187.6c0 -62.4 0 -124.4 0 -186.8zm-78.3 402.4c0 10.5 -8.5 19 -19 19l-297.3 0c-10.5 0 -19 -8.5 -19 -19l0 -429.6c0 -10.5 8.5 -19 19 -19l297.4 0c10.5 0 19 8.5 19 19l0 429.6l-0.1 0z"></path><path fill="#84acc2" d="m410.2 466.5l0 -429.6c0 -4.5 -3.6 -8.1 -8.1 -8.1l-297.3 0c-4.5 0 -8.1 3.6 -8.1 8.1l0 429.5c0 4.5 3.6 8.1 8.1 8.1l297.4 0c4.4 0.1 8 -3.6 8 -8l0 0zm-25.2 -66l-263.1 0l0 -346.4l263.1 0l0 346.4z"></path><path fill="#fff" d="m390.5 43.2l-274 0c-3 0 -5.5 2.4 -5.5 5.5l0 406.2c0 3 2.4 5.5 5.5 5.5l274 0c3 0 5.5 -2.4 5.5 -5.5l0 -406.3c-0.1 -3 -2.5 -5.4 -5.5 -5.4zm-5.5 357.3l-263.1 0l0 -346.4l263.1 0l0 346.4z"></path><g style="filter: drop-shadow(rgb(0, 0, 0) 3px 3px 3px);"><g><rect fill="#c5dce8" width="126.1" height="37.9" transform="translate(121.9 411.4)"></rect><rect fill="#c5dce8" width="126.1" height="37.9" transform="translate(258.9 411.4)" style="animation-name: eaf-5464-7;"></rect><path fill="#fff" d="m322 424.9c-1.4 0 -2.9 0.6 -3.9 1.6c-1 1 -1.6 2.4 -1.6 3.9c0 1.4 0.6 2.8 1.6 3.9c1 1 2.4 1.6 3.9 1.6c1.4 0 2.8 -0.6 3.9 -1.6c1 -1 1.6 -2.4 1.6 -3.9c0 -1.4 -0.6 -2.9 -1.6 -3.9c-1.1 -1 -2.5 -1.6 -3.9 -1.6z"></path><path fill="#fff" d="m188.8 426.5c-1 -1 -2.4 -1.6 -3.9 -1.6c-1.4 0 -2.9 0.6 -3.9 1.6c-1 1 -1.6 2.4 -1.6 3.9c0 1.4 0.6 2.8 1.6 3.9c1 1 2.4 1.6 3.9 1.6c1.4 0 2.8 -0.6 3.9 -1.6c1 -1 1.6 -2.4 1.6 -3.9c0 -1.5 -0.6 -2.9 -1.6 -3.9z"></path></g></g><g transform="matrix(0.1486 0 0 0.1486 71.3987 36.2736)" opacity="0.21" style="animation-name: eaf-5464-8;"><path fill="#fff" fill-rule="evenodd" d="m1942.4 437.4l6.7 -97.9l-1238.2 -17.7c-96.9 -1.4 -175.9 101.2 -175.9 209.9l0 1288.6c18.3 67.8 84.4 126.4 176.4 170.3l684.2001 326l0 -306.4l546.8 0l0 -1388.1001c-48 -21.4 -74.3 -52.2 -74.3 -92.7c0.0999 -40.4 26.5999 -72.7 74.2999 -92zm-1272.4 86.9l0 -6.8c0 -53.8 44 -98.8 97.9 -97.9l985.5 17.8c-47.7 19.3 -71.7 54.1 -71.7 94.6c0 40.5 23.8 68.7 71.7 90.1l-985.5 0c-53.8 0 -97.9 -44 -97.9 -97.8zm524.6 1053.8c0 80.5 -46.8 125.8 -134.6 125.8l-220.9 0c-87.8 0 -134.6 -45.4 -134.6 -125.8l0 -412.6c0 -83.4 46.8 -128.8 134.6 -128.8l220.9 0c87.8 0 134.6 45.4 134.6 128.8l0 257.5l-340.9 0l0 152.2l193.1 0l0 -77.5l147.8 0l0 80.4l-0.0001 0zm617.8 297.9l0 0l-425.2999 0l0 -917.7l-568.1001 -206.8l993.4 0l0 1124.5z"></path><rect fill="#fff" width="193.1" height="143.4" transform="translate(853.7 1165.5)"></rect></g></g></g></svg>