<svg xmlns="http://www.w3.org/2000/svg" viewBox="0 0 650 650" overflow="hidden" preserveAspectRatio="xMidYMid meet" id="eaf-11f1f-0"><defs><clipPath id="eaf-11f1f-1"><rect x="0" y="0" width="650" height="650"></rect></clipPath><style>#eaf-11f1f-0 * {animation: 6000ms linear infinite normal both running;offset-rotate:0deg}@keyframes eaf-11f1f-2{0%,100%{transform:translate(325px,309.5px)}}@keyframes eaf-11f1f-3{0%{transform:rotate(0)}50%{transform:rotate(0)}99.72%,100%{transform:rotate(360deg)}}@keyframes eaf-11f1f-4{0%,100%{transform:translate(-325px,-309.5px)}}@keyframes eaf-11f1f-5{0%,100%{transform:none;offset-path:path("m325 329.55l0 0l616.0971 0l0 0l-1254.991 0l638.8939 0")}}@keyframes eaf-11f1f-6{0%{offset-distance:0%}50%{offset-distance:0%}75%{offset-distance:24.5459%}75.83%{offset-distance:24.5459%}77.78%{offset-distance:74.5459%}99.72%,100%{offset-distance:100%}}@keyframes eaf-11f1f-7{0%{transform:scale(1,1)}4.72%{transform:scale(1,1);animation-timing-function:ease-in-out}15.55%{transform:scale(0.6646,0.6646);animation-timing-function:ease-in-out}18.33%{transform:scale(0.6588,0.6588);animation-timing-function:ease-in-out}20.28%{transform:scale(0.69,0.69)}33.33%{transform:scale(0.69,0.69);animation-timing-function:ease-in-out}38.05%{transform:scale(1.1,1.1);animation-timing-function:ease-in-out}39.72%,100%{transform:scale(1,1)}}@keyframes eaf-11f1f-8{0%,100%{transform:translate(-325px,-329.55px)}}@keyframes eaf-11f1f-9{0%{opacity:1}75%{opacity:1}75.83%{opacity:0}77.78%{opacity:0}78.05%,100%{opacity:1}}</style></defs><g clip-path="url('#eaf-11f1f-1')" style="isolation: isolate;"><g><path fill="#f3582c" d="m651.4 325.1c0 81.6 0 163.1 0 244.7c0 37.4 -28.2 71.6 -65 78.6c-5.5 1 -11.1 1.6 -16.6 1.6c-162.6 0 -325.2 0 -487.7 0c-39.9 0 -74.7 -30.6 -79.9 -70.2c-0.5 -3.5 -0.8 -7 -0.8 -10.6c0 -163 0 -326 0 -488.9c0 -37.4 28.2 -71.6 65 -78.6c5.4 -1 11.1 -1.6 16.6 -1.6c162.7 -0.1 325.4 -0.1 488.0999 -0.1c37.4 0 71.6 28.2 78.6 65c1 5.4 1.6 11.1 1.6 16.6c0.1001 81.2 0.1001 162.3 0.1001 243.5l0 0l0 0z"></path><g transform="translate(0 0)" style="animation-name: eaf-11f1f-5, eaf-11f1f-6, eaf-11f1f-7, eaf-11f1f-8, eaf-11f1f-9; animation-composition: replace, add, add, add, replace;"><g style="filter: drop-shadow(rgb(85, 85, 85) 8px 8px 12px);"><g><ellipse fill="#fff" rx="276.1" ry="276.1" transform="translate(325 340.5)"></ellipse></g></g><g style="animation-name: eaf-11f1f-2, eaf-11f1f-3, eaf-11f1f-4; animation-composition: replace, add, add;"><ellipse fill="#f3582c" stroke="#fff" stroke-width="16" stroke-miterlimit="10" rx="267" ry="267" transform="translate(325 309.5)"></ellipse><g style="filter: drop-shadow(rgb(191, 191, 191) 9px 9px 2px);"><path fill="#fff" d="m137.2 76.8c-1.2 -9.4 -8.3 -12.5 -17.7 -13.6c-1.5 -0.2 -2.6 -1.4 -2.7 -2.9l-0.1 -3.4c0 -1.6 -1.4 -3 -3 -3l-2.2 0c-1.7 0 -3.1 1.4 -3 3.1l0.1 2.6c0.1 1.7 -1.3 3.1 -3 3.1l-0.7 0c-1.7 0 -3 -1.3 -3.1 -3l0 -2.8c0 -1.7 -1.4 -3 -3.1 -3l-2.3 0c-1.7 0 -3.1 1.5 -3 3.2l0.2 2.9c0.1 1.7 -1.2 3.1 -2.9 3.2l-2.2 0.1l-8.4 0.1c-1.7 0 -3 1.5 -3 3.2l0.1 2.7c0.1 1.6 1.4 2.9 3.1 2.9l2.9 0c3.4 0 4.7 2.2 4.7 3.9l0.4 15.3l0.7 0l-0.7 0l0.4 21.6c0 1.5 -1.2 2.8 -2.8 2.8c-0.1 0 -0.3 0 -0.4 0l-3.2 0.1c-1.5 0 -2.7 1.1 -2.9 2.6l-0.6 3.8c-0.3 1.8 1.2 3.5 3 3.5l10 -0.2c1.6 0 3 1.2 3.1 2.9l0.1 3.5c0.1 1.6 1.5 2.9 3.1 2.9l2.1 -0.1c1.7 0 3 -1.4 2.9 -3.1l-0.1 -3c0 -1.7 1.3 -3 2.9 -3.1l0.3 0c1.7 -0.1 3 1.2 3.1 2.9l0.1 3c0.1 1.6 1.4 2.9 3 2.9l2.3 0c1.7 0 3.1 -1.4 3 -3.1l-0.1 -3.2c0 -1.6 1.1 -2.9 2.7 -3.1c12.4 -1.3 20.9 -5.5 21.8 -17.6c0.5 -8 -2.4 -12.6 -7.4 -15.1c-1.8 -0.9 -2.2 -3.3 -0.9 -4.8c2.7 -2.4 3.9 -6 3.4 -10.7l0 0zm-11 29.3c0 8.6 -12.9 9.5 -20.1 9.6c-1.7 0 -3 -1.3 -3 -3l-0.1 -12.3c0 -1.6 1.3 -3 2.9 -3.1c7.2 -0.1 20.2 -0.4 20.3 8.8l0 0zm-4.6 -25.6c0.3 8 -9.8 8.7 -15.9 8.7c-1.7 0 -3 -1.3 -3 -3l-0.2 -10.6c0 -1.6 1.3 -3 2.9 -3.1c6.1 -0.2 16.3 -0.1 16.2 8l0 0z" transform="matrix(4.9 0 0 4.9 -211.2985 -151.4246)"></path></g></g></g></g></g></svg>