<svg xmlns="http://www.w3.org/2000/svg" viewBox="0 0 769 769" overflow="hidden" preserveAspectRatio="xMidYMid meet" id="eaf-6fc3-0"><defs><clipPath id="eaf-6fc3-1"><rect x="0" y="0" width="769" height="769"></rect></clipPath><style>#eaf-6fc3-0 * {animation: 10000ms linear infinite normal both running;offset-rotate:0deg}@keyframes eaf-6fc3-2{0%,100%{transform:none;offset-path:path("m478.5 434.9l-274.9539 0l209.891 0l-209.891 0l209.891 0l-64.7578 0l129.8206 0")}}@keyframes eaf-6fc3-3{0%{offset-distance:0%}23%{offset-distance:25.0139%}44.67%{offset-distance:44.1087%}55.33%{offset-distance:63.2035%}77%{offset-distance:82.2983%}87.66%{offset-distance:88.1896%}100%{offset-distance:100%}}@keyframes eaf-6fc3-4{0%,100%{transform:translate(-478.5px,-434.9px)}}@keyframes eaf-6fc3-5{0%,100%{transform:none;offset-path:path("m266.7 245.7l221.4873 0l-221.4873 0")}}@keyframes eaf-6fc3-6{0%{offset-distance:0%}50%{offset-distance:50%}100%{offset-distance:100%}}@keyframes eaf-6fc3-7{0%,100%{transform:translate(-266.7px,-245.7px)}}@keyframes eaf-6fc3-8{0%,100%{transform:none;offset-path:path("m399.6 624.1l87.5063 0l-159.3614 0l91.6599 0l70.2382 0l-86.1432 0l83.6064 0l-159.3614 0l91.6599 0l70.2382 0l-86.1432 0l41.5406 0l42.0658 0l-159.3614 0l91.6599 0l70.2382 0l-86.1432 0l41.5406 0l42.0658 0l-159.3614 0l91.6599 0l70.2382 0l-86.1432 0l15.9049 0l-19.8049 0")}}@keyframes eaf-6fc3-9{0%{offset-distance:0%}8.67%{offset-distance:4.3674%}15.33%{offset-distance:12.3209%}18.67%{offset-distance:16.8956%}22.33%{offset-distance:20.4011%}26.67%{offset-distance:24.7004%}29.33%{offset-distance:28.8731%}35.99%{offset-distance:36.8267%}39.33%{offset-distance:41.4014%}42.99%{offset-distance:44.9069%}47.33%{offset-distance:49.2062%}49.99%{offset-distance:51.2795%}50%{offset-distance:53.3789%}56.66%{offset-distance:61.3325%}60%{offset-distance:65.9071%}63.66%{offset-distance:69.4127%}68%{offset-distance:73.712%}70.66%{offset-distance:75.7852%}70.67%{offset-distance:77.8847%}77.33%{offset-distance:85.8383%}80.67%{offset-distance:90.4129%}84.33%{offset-distance:93.9184%}88.67%{offset-distance:98.2178%}94%{offset-distance:99.0116%}100%{offset-distance:100%}}@keyframes eaf-6fc3-10{0%,100%{transform:translate(-399.6px,-624.1px)}}@keyframes eaf-6fc3-11{0%,100%{transform:translate(260.7874px,586.8999px)}}@keyframes eaf-6fc3-12{0%{transform:rotate(0)}100%{transform:rotate(180deg)}}@keyframes eaf-6fc3-13{0%,100%{transform:translate(-260.7874px,-586.8999px)}}@keyframes eaf-6fc3-14{0%,100%{transform:none;offset-path:path("m625.8512 244.4488l211.1021 0l-211.1021 0")}}@keyframes eaf-6fc3-15{0%,100%{transform:matrix(0.733,0.733,-0.733,0.733,0,-67.9533)}}</style></defs><g clip-path="url('#eaf-6fc3-1')" style="isolation: isolate;"><g><path fill="#f3582c" d="m768.1 385.5c0 96.2 0 192.5 0 288.8c0 44.1 -33.3 84.4 -76.7 92.7c-6.4 1.2 -13.1 1.9 -19.6 1.9c-191.9 0.1 -383.8 0.1 -575.7 0.1c-47 0 -88.1 -36.1 -94.2 -82.9c-0.6 -4.1 -0.9 -8.3 -0.9 -12.5c0 -192.4 0 -384.7 0 -577c0 -44.1 33.3 -84.5 76.7 -92.7c6.4 -1.3 13 -1.9 19.6 -1.9c192 -0.1 384.1 -0.1 576.1 -0.1c44.1 0 84.5 33.3 92.7 76.7c1.2 6.4 1.9 13.1 1.9 19.6c0.1 95.8 0.1 191.6 0.1 287.3z"></path><path fill="#fffefd" stroke="#fff" stroke-width="14" stroke-miterlimit="10" d="m708.4 501.7l-459.8 0c-19.8 0 -35.8 -16 -35.8 -35.8l0 -62c0 -19.8 16 -35.8 35.8 -35.8l459.8 0c19.8 0 35.8 16 35.8 35.8l0 62c0 19.8 -16 35.8 -35.8 35.8z" transform="translate(0 0)" style="animation-name: eaf-6fc3-2, eaf-6fc3-3, eaf-6fc3-4; animation-composition: replace, add, add;"></path><path fill="#f4b526" stroke="#f4b526" stroke-width="10" stroke-miterlimit="10" d="m496.6 312.5l-459.8 0c-19.8 0 -35.8 -16 -35.8 -35.8l0 -62c0 -19.8 16 -35.8 35.8 -35.8l459.8 0c19.8 0 35.8 16 35.8 35.8l0 62c0.0001 19.8 -15.9999 35.8 -35.8 35.8z" transform="translate(0 0)" style="animation-name: eaf-6fc3-5, eaf-6fc3-6, eaf-6fc3-7; animation-composition: replace, add, add;"></path><path fill="#f7e79c" stroke="#fff" stroke-width="14" stroke-miterlimit="10" d="m629.5 690.9l-459.8 0c-19.8 0 -35.8 -16 -35.8 -35.8l0 -62c0 -19.8 16 -35.8 35.8 -35.8l459.8 0c19.8 0 35.8 16 35.8 35.8l0 62c0 19.7 -16 35.8 -35.8 35.8z" transform="translate(0 0)" style="animation-name: eaf-6fc3-8, eaf-6fc3-9, eaf-6fc3-10; animation-composition: replace, add, add;"></path><rect fill="#f3582c" width="212.8" height="582.8" transform="translate(0 112.3)"></rect><path fill="#fff" d="m324.4 356c-2.4 -3.6 -3.3 -5.9 -3.2 -7.6c0 -0.3 35.1 -49.4 44.3 -64.6c10 -16.4 31.4 -42.1 26.3 -62.8c-1.6 -6.6 -9.1 -11.8 -15.7 -13.5l1.5 -65.4c-0.5 -22.7 -9.2 -44.6 -24.5 -61.4c-24 -25.9 -85.4 -60.1 -122.8 -59.2c-16 0.3 -8.9 24.9 -23.5 30.2c-36.3 13.2 -65 41.5 -68.5 81.4c-0.3 8.8 -0.5 17.8 -0.5 26.7c0 15 0.6 30.2 1.5 45.2c-11.3 2.9 -19.2 15.9 -19.2 25.9c0 17.7 17.8 38.2 27.3 53.3l0 0c3.6 5.8 44 62.9 44 63.8c0 1.7 -1.2 3.9 -3.9 7.8c-54.5 74.9 -170.1 10 -170.1 159.1l0 167.5c0 27.5 22.3 49.8 49.8 49.8l412.1 0c27.7 0 50.1 -22.4 50.1 -50.1l0 -166.9999c0.1 -149 -150.5 -84.2 -205 -159.1z"></path><path fill="#f3582c" d="m379.2 571.5l-0.4 -2.6l0 0l-0.2 -0.6c-0.4 -2 -2.2 -4 -4.2 -4.5l-0.6 -0.2l0 0l-22.4 -5c0 0 -0.6 -0.2 -0.6 -0.2c-1.6 -0.5 -3 -1.7 -3.7 -3.3l-0.2 -0.6l0 0l-0.5 -1.5l-0.6 -1.5l-0.6 -1.5l-0.6 -1.4l-0.2 -0.6c-0.5 -1.7 -0.4 -3.4 0.4 -5l0.3 -0.5l12.3 -19.4l0 0l0.3 -0.5c1 -2 0.9 -4.2 -0.2 -6.2l-0.3 -0.5l-1.5 -2.1c-6.3 -8.1 -13.7 -15.5 -21.8 -21.8l-2.1 -1.5l0 0l-0.5 -0.3c-2 -1.1 -4.1 -1.2 -6.2 -0.2l-0.5 0.3l-19.4 12.3c0 0 -0.5 0.3 -0.5 0.3c-1.6 0.8 -3.3 0.9 -5 0.4l-0.6 -0.2l-1.4 -0.6l-1.5 -0.6l-1.5 -0.6l-1.5 -0.5l0 0l-0.6 -0.2c-1.5 -0.7 -2.7 -2.1 -3.3 -3.7l-0.2 -0.6l-5 -22.4l0 0l-0.2 -0.6c-0.5 -2 -2.5 -3.8 -4.5 -4.2l-0.6 -0.2l0 0l-2.6 -0.4c-10.2 -1.3 -20.6 -1.3 -30.8 0l-2.6 0.4l-0.6 0.2c-2 0.4 -4 2.2 -4.5 4.2l-0.2 0.6l0 0l-5 22.4l0 0l-0.2 0.6c-0.5 1.6 -1.7 3 -3.3 3.7l-0.6 0.2l0 0l-1.5 0.5l-1.5 0.6l-1.5 0.6l-1.4 0.6l-0.6 0.2c-1.7 0.5 -3.4 0.4 -5 -0.4l-0.5 -0.3l0 0l-19.4 -12.3l0 0l-0.5 -0.3c-2 -1 -4.2 -0.9 -6.2 0.2l-0.5 0.3l-2.1 1.5c-8.1 6.3 -15.5 13.7 -21.8 21.8l-1.5 2.1l0 0l-0.3 0.5c-1.1 2 -1.2 4.1 -0.2 6.2l0.3 0.5l0 0l12.3 19.4c0 0 0.3 0.5 0.3 0.5c0.8 1.6 0.9 3.3 0.4 5l-0.2 0.6l0 0l-0.6 1.4l-0.6 1.5l-0.6 1.5l-0.5 1.5l-0.1 0l-0.2 0.6c-0.7 1.5 -2.1 2.7 -3.7 3.3l-0.6 0.2l0 0l-22.4 5l0 0l-0.6 0.2c-2 0.5 -3.8 2.5 -4.2 4.5l-0.2 0.6l0 0l-0.4 2.6c-1.3 10.2 -1.3 20.6 0 30.8l0.4 2.6l0 0l0.2 0.6c0.4 2 2.2 4 4.2 4.5l0.6 0.2l0 0l22.4 4.9l0 0l0.6 0.2c1.6 0.5 3 1.7 3.7 3.3l0.2 0.6l0.1 0l0.5 1.5l0.6 1.5l0.6 1.5l0.6 1.4l0 0l0.2 0.6c0.5 1.7 0.4 3.4 -0.4 5l-0.3 0.5l0 0l-12.3 19.4l-0.3 0.5c-1 2 -0.9 4.2 0.2 6.2l0.3 0.5l0 0l1.5 2.1c6.3 8.1 13.7 15.5 21.8 21.8l2.1 1.5l0 0l0.5 0.3c2 1.1 4.1 1.2 6.2 0.2l0.5 -0.3l0 0l19.4 -12.3l0 0l0.5 -0.3c1.6 -0.8 3.3 -0.9 5 -0.4l0.6 0.2l0 0l1.4 0.6l1.5 0.6l1.5 0.6l1.5 0.5l0 0.1l0.6 0.2c1.5 0.7 2.7 2.1 3.3 3.7l0.2 0.6l0 0l5 22.4l0.2 0.6c0.5 2 2.5 3.8 4.5 4.2l0.6 0.2l0 0l2.6 0.4c10.2 1.3 20.6 1.3 30.8 0l2.6 -0.4l0 0l0.6 -0.2c2 -0.4 4 -2.2 4.5 -4.2l0.2 -0.6l0 0l5 -22.4l0.2 -0.6c0.5 -1.6 1.7 -3 3.3 -3.7l0.6 -0.2l0 0.0001l1.5 -0.5l1.5 -0.6l1.5 -0.6l1.4 -0.6l0 0l0.6 -0.2c1.7 -0.5 3.4 -0.5 5 0.4l0.5 0.3l19.4 12.3l0.5 0.3c2 1 4.2 0.9 6.2 -0.2l0.5 -0.3l0 0l2.1 -1.5c8.1 -6.3 15.5 -13.7 21.8 -21.8l1.5 -2.1l0.3 -0.5c1.1 -2 1.2 -4.1 0.2 -6.2l-0.3 -0.5l-12.3 -19.4l0 0l-0.3 -0.5c-0.8 -1.6 -0.9 -3.3 -0.4 -5l0.2 -0.6l0.6 -1.4l0.6 -1.5l0.6 -1.5l0.5 -1.5l0 0l0.2 -0.6c0.7 -1.5 2.1 -2.7 3.7 -3.3l0.6 -0.2l0 0l22.4 -4.9l0 0l0.6 -0.2c2 -0.5 3.8 -2.5 4.2 -4.5l0.2 -0.6l0.4 -2.6c1.4 -10.4001 1.4 -20.8001 0 -30.9001zm-74.6 16.7c-0.7 22.2 -17.8 40.3 -39.9 42.4l-1.3 0.1l-1.3 0.1l-1.3 0l-1.3 0l-1.3 -0.1l-1.3 -0.1c-22.6 -2.1 -39.9 -21 -39.9 -43.8l0 -1.3l0.1 -1.3c1.4 -22.2 19 -39.8 41.2 -41.2l1.3 -0.1l1.3 0l1.3 0l1.3 0.1c22.7 1.4 40.5 19.8 41.2 42.5l0 1.3l-0.1001 1.4z" style="animation-name: eaf-6fc3-11, eaf-6fc3-12, eaf-6fc3-13; animation-composition: replace, add, add;"></path><rect fill="#fff" stroke="#fff" stroke-width="10" stroke-miterlimit="10" width="92.7" height="92.7" transform="matrix(0.733 0.733 -0.733 0.733 625.8512 176.4955)" style="animation-name: eaf-6fc3-14, eaf-6fc3-6, eaf-6fc3-15; animation-composition: replace, add, add;"></rect></g></g></svg>