<svg xmlns="http://www.w3.org/2000/svg" viewBox="0 0 650 650" overflow="hidden" preserveAspectRatio="xMidYMid meet" id="eaf-112c-0"><defs><clipPath id="eaf-112c-1"><rect x="0" y="0" width="650" height="650"></rect></clipPath><style>#eaf-112c-0 * {animation: 3000ms linear infinite normal both running;offset-rotate:0deg}@keyframes eaf-112c-2{0%,100%{transform:none;offset-path:path("m107.2781 579.8l-69.5639 -112.2302l0 0l69.5639 112.2302")}}@keyframes eaf-112c-3{0%{offset-distance:0%;animation-timing-function:cubic-bezier(0,0,0.58,1)}14.43%{offset-distance:50%}31.1%{offset-distance:50%;animation-timing-function:ease-in-out}66.67%,100%{offset-distance:100%}}@keyframes eaf-112c-4{0%{transform:rotate(0);animation-timing-function:cubic-bezier(0,0,0.58,1)}14.43%{transform:rotate(55deg)}31.1%{transform:rotate(55deg);animation-timing-function:ease-in-out}66.67%,100%{transform:rotate(0)}}@keyframes eaf-112c-5{0%,100%{transform:translate(-12.3876px,-89.6px)}}@keyframes eaf-112c-6{0%,14.43%{fill-opacity:0}16.67%{fill-opacity:1}27.77%{fill-opacity:1}36.63%,100%{fill-opacity:0}}@keyframes eaf-112c-7{0%,14.43%{stroke-opacity:0}16.67%{stroke-opacity:1}27.77%{stroke-opacity:1}36.63%,100%{stroke-opacity:0}}@keyframes eaf-112c-8{0%,100%{transform:none;offset-path:path("m368.8399 611.4209l0 0l-135.6115 -219.7108")}}@keyframes eaf-112c-9{0%{offset-distance:0%}14.43%{offset-distance:0%}36.63%,100%{offset-distance:100%}}@keyframes eaf-112c-10{0%,100%{transform:matrix(0.9744,0.225,-0.225,0.9744,0,0)}}@keyframes eaf-112c-11{0%,14.43%{transform:scale(0.8,0.8)}36.63%,100%{transform:scale(1.4,1.4)}}@keyframes eaf-112c-12{0%,100%{transform:translate(-0.2126px,-5.3758px)}}@keyframes eaf-112c-13{0%,14.43%{fill-opacity:0}16.67%{fill-opacity:1}26.63%{fill-opacity:1}36.63%,100%{fill-opacity:0}}@keyframes eaf-112c-14{0%,14.43%{stroke-opacity:0}17.77%{stroke-opacity:1}26.63%{stroke-opacity:1}36.63%,100%{stroke-opacity:0}}@keyframes eaf-112c-15{0%,100%{transform:none;offset-path:path("m543.7215 590.2773l55.4241 -351.4879")}}@keyframes eaf-112c-16{0%,14.43%{offset-distance:0%}36.63%,100%{offset-distance:100%}}@keyframes eaf-112c-17{0%,14.43%{transform:scale(1,1)}36.63%{transform:scale(1.4,1.4)}36.67%,100%{transform:scale(1.7,1.7)}}@keyframes eaf-112c-18{0%,100%{transform:none;offset-path:path("m457.5922 629.4585l-11.162 -545.7068")}}@keyframes eaf-112c-19{0%,14.43%{offset-distance:0%}36.67%,100%{offset-distance:100%}}</style></defs><g clip-path="url('#eaf-112c-1')" style="isolation: isolate;"><g><path fill="#f3582c" d="m650 325.1c0 81.6 0 163.1 0 244.7c0 37.4 -28.2 71.6 -65 78.6c-5.5 1 -11.1 1.6 -16.6 1.6c-162.6 0 -325.2 0 -487.7 0c-39.9 0.0001 -74.7 -30.5999 -79.9 -70.2c-0.5 -3.5 -0.8 -7 -0.8 -10.6c0 -163 0 -326 0 -488.9c0 -37.4 28.2 -71.6 65 -78.6c5.4 -1 11.1 -1.6 16.6 -1.6c162.7 -0.1 325.4 -0.1 488.1 -0.1c37.4 0 71.6 28.2 78.6 65c1 5.4 1.6 11.1 1.6 16.6c0.1 81.2 0.1 162.3 0.1 243.5l0 0l0 0z"></path><g transform="translate(94.8905 490.2)" style="animation-name: eaf-112c-2, eaf-112c-3, eaf-112c-4, eaf-112c-5; animation-composition: replace, add, add, add;"><g transform="matrix(0.9908 -0.1352 0.1352 0.9908 0 0)"><g transform="translate(-87.9523 -470.2948)"><path fill="#fff" d="m242.6 222.4l-228.6 227.1c-10 10 -10.2 26.1 -0.3 36.3l58.7 60.4c10.4 10.7 27.6 10.4 37.6 -0.6l217 -237.8l-84.4 -85.4001z"></path><path fill="#ffffff" stroke="#fff" stroke-width="22" d="m536.5 292.1c-0.1 -36.5 -66.5 -67.4 -66.5 -67.4c-11.3 10.5 -28.8 5 -32.9 0.7l-15.6 -16.2c3.6 -5.3 5.5 -11.5 5.5 -18c0 -8.5 -3.1 -16.4 -8.8 -22.3l-40.9 -42.6c-0.2 -0.2 -0.7 -0.7 -1.1 -1l-8.6 -9c-17.8 -18.5 -34.4 -35.8 -38.6 -40.2c-36 -37.6 -167.6 -39.2 -182.5 -39.3l-11.6 0l0 26.5c0 0 2.9 0.6 7.4 2.3c5.4 2 41.9 12.7 90.3 65.6c21.7 23.7 44.4 55.1 29.1 70.8c-0.3 0.4 -2.2 2.4 -8.9 9.4c-0.6 0.7 -1 1.3 -1.5 1.9l-18.9 19.5l86.6 83.5l23.1 -23.9c0.2 -0.1 0.2 -0.4 0.3 -0.5l12.2 -12.7c0.5 0.6 3.5 3.6 15.2 15.8c4.4 4.6 9.3 21.4 -4.1 33.6c2.1 2.2 29.9 70 66.9 70.2c37 0.2 104 -70.2 103.9 -106.7z"></path><path fill="#fff" d="m470 224.7c-11.3 10.5 -28.8 5 -32.9 0.7l-15.5 -16.1l-66.7 69.9c0.6 0.6 3.6 3.7 15.2 15.8c4.4 4.6 9.3 21.4 -4.1 33.6l104 -103.9z"></path></g></g></g><path fill="#ffb300" fill-opacity="0" stroke="#fff" stroke-opacity="0" stroke-width="8" stroke-miterlimit="10" d="m-55.3419 18.705l33.0351 -25.6636l-12.5843 -39.8945l34.616 23.4877l34.0532 -24.2965l-11.6412 40.1798l33.6303 24.8785l-41.8106 1.3448l-13.2685 39.6722l-14.1992 -39.3487l-41.8307 -0.3597z" transform="matrix(0.7795 0.18 -0.18 0.7795 369.6417 607.1922)" style="animation-name: eaf-112c-6, eaf-112c-7, eaf-112c-8, eaf-112c-9, eaf-112c-10, eaf-112c-11, eaf-112c-12; animation-composition: replace, replace, replace, add, add, add, add;"></path><path fill="#ffb300" fill-opacity="0" stroke="#fff" stroke-opacity="0" stroke-width="8" stroke-miterlimit="10" d="m-55.3419 18.705l33.0351 -25.6636l-12.5843 -39.8945l34.616 23.4877l34.0532 -24.2965l-11.6412 40.1798l33.6303 24.8785l-41.8106 1.3448l-13.2685 39.6722l-14.1992 -39.3487l-41.8307 -0.3597z" transform="matrix(0.9744 0.225 -0.225 0.9744 544.7237 584.9914)" style="animation-name: eaf-112c-13, eaf-112c-14, eaf-112c-15, eaf-112c-16, eaf-112c-10, eaf-112c-17, eaf-112c-12; animation-composition: replace, replace, replace, add, add, add, add;"></path><path fill="#ffb300" fill-opacity="0" stroke="#fff" stroke-opacity="0" stroke-width="8" stroke-miterlimit="10" d="m-55.3419 18.705l33.0351 -25.6636l-12.5843 -39.8945l34.616 23.4877l34.0532 -24.2965l-11.6412 40.1798l33.6303 24.8785l-41.8106 1.3448l-13.2685 39.6722l-14.1992 -39.3487l-41.8307 -0.3597z" transform="matrix(0.9744 0.225 -0.225 0.9744 458.5944 624.1727)" style="animation-name: eaf-112c-13, eaf-112c-14, eaf-112c-18, eaf-112c-19, eaf-112c-10, eaf-112c-17, eaf-112c-12; animation-composition: replace, replace, replace, add, add, add, add;"></path></g></g></svg>
