<svg xmlns="http://www.w3.org/2000/svg" viewBox="0 0 650 650" overflow="hidden" preserveAspectRatio="xMidYMid meet" id="eaf-10726-0"><defs><clipPath id="eaf-10726-1"><rect x="0" y="0" width="650" height="650"></rect></clipPath><style>#eaf-10726-0 * {animation: 7000ms linear infinite normal both running;offset-rotate:0deg}@keyframes eaf-10726-2{0%,100%{transform:none;offset-path:path("m462.15 -168.8091l0 336.5088l0 0l333.2458 0")}}@keyframes eaf-10726-3{0%{offset-distance:0%;animation-timing-function:ease-in-out}21.43%{offset-distance:50.2436%}76.67%{offset-distance:50.2436%;animation-timing-function:ease-in-out}92.86%,100%{offset-distance:100%}}@keyframes eaf-10726-4{0%,100%{transform:translate(-462.15px,-167.6997px)}}@keyframes eaf-10726-5{0%{opacity:0}25.71%{opacity:0;animation-timing-function:ease-in-out}39.04%,100%{opacity:1}}@keyframes eaf-10726-6{0%,100%{transform:none;offset-path:path("m466.5 131.4l0 0l333.2458 0")}}@keyframes eaf-10726-7{0%{offset-distance:0%}76.67%{offset-distance:0%;animation-timing-function:ease-in-out}92.86%,100%{offset-distance:100%}}@keyframes eaf-10726-8{0%{transform:rotate(0)}41.43%{transform:rotate(0);animation-timing-function:ease-in-out}43.33%{transform:rotate(-7deg);animation-timing-function:ease-in-out}44.76%{transform:rotate(8deg);animation-timing-function:ease-in-out}46.19%{transform:rotate(-7deg);animation-timing-function:ease-in-out}47.61%{transform:rotate(8deg);animation-timing-function:ease-in-out}49.04%{transform:rotate(-7deg);animation-timing-function:ease-in-out}50.47%{transform:rotate(8deg);animation-timing-function:ease-in-out}51.9%{transform:rotate(-7deg);animation-timing-function:ease-in-out}53.33%{transform:rotate(8deg);animation-timing-function:ease-in-out}54.76%{transform:rotate(-7deg);animation-timing-function:ease-in-out}55.71%,100%{transform:rotate(0)}}@keyframes eaf-10726-9{0%,100%{transform:translate(-466.5px,-131.4px)}}@keyframes eaf-10726-10{0%,100%{transform:translate(188.1782px,280.1215px)}}@keyframes eaf-10726-11{0%{transform:scale(0,0)}60.96%{transform:scale(0,0);animation-timing-function:linear(0 0%,0.43 8%,0.79 17%,1.06 27%,1.21 37%,1.26 46%,1.25 56%,1.2 65%,1.04 88%,1 100%)}70.47%{transform:scale(0.6836,0.6836)}75.71%{transform:scale(0.6836,0.6836);animation-timing-function:linear(0 0%,-0.02 11%,-0.13 33%,-0.16 43%,-0.15 54%,-0.09 63%,0.06 73%,0.27 82%,0.58 91%,1 100%)}83.33%,100%{transform:scale(0,0)}}@keyframes eaf-10726-12{0%,100%{transform:translate(1.4397px,14.8432px)}}</style></defs><g clip-path="url('#eaf-10726-1')" style="isolation: isolate;"><g><path fill="#ffcb29" d="m651 325.1c0 81.6 0 163.1 0 244.7c0 37.4 -28.2 71.6 -65 78.6c-5.5 1 -11.1 1.6 -16.6 1.6c-162.6 0 -325.2 0 -487.7 0c-39.9 0.0001 -74.7 -30.5999 -79.9 -70.2c-0.5 -3.5 -0.8 -7 -0.8 -10.6c0 -163 0 -326 0 -488.9c0 -37.4 28.2 -71.6 65 -78.6c5.4 -1 11.1 -1.6 16.6 -1.6c162.7 -0.1 325.4 -0.1 488.1 -0.1c37.4 0 71.6 28.2 78.6 65c1 5.4 1.6 11.1 1.6 16.6c0.1 81.2 0.1 162.3 0.1 243.5l0 0l0 0z" transform="translate(1 0)"></path><path fill="#01507b" d="m147.7 423c-7.9 -12.6 -22.7 -29.7 -22.7 -44.4c0 -8.3 6.6 -19.2 16 -21.6c-0.7 -12.5 -1.2 -25.1 -1.2 -37.7c0 -7.4 0.1 -14.9 0.4 -22.3c2.9 -33.3 26.8 -56.8 57.1 -67.8c12.1 -4.4 6.3 -24.9 19.6 -25.1c31.1 -0.8 82.3 27.7 102.3 49.3c12.7 14 20 32.2 20.4 51.2l-1.3 54.5c5.5 1.4 11.7 5.7 13.1 11.2c4.3 17.2 -13.6 38.6 -21.9 52.3c-7.7 12.6 -36.9 53.5 -36.9 53.8c-0.1 1.5 0.6 3.4 2.6 6.4c41 56.3 135.2 29.8 153.3 115.1c3.5 16.5 -9.1 32.1 -26 32.1l-372.1001 0c-14.7 0 -26 -13.3 -23.4 -27.8c15.8 -90.6 112.5 -62.2 154.1 -119.4c2.2 -3.3 3.3 -5.1 3.2 -6.5c0 -0.9 -33.6 -48.5 -36.6 -53.3l0 0z" transform="matrix(1.2731 0 0 1.2731 -114.6475 -156.5387)"></path><g transform="translate(16 8.2008)"><path fill="#fefadf" stroke="#01507b" stroke-width="14" stroke-miterlimit="10" d="m371.4 308.4c2.2 -14.1 4.4 -28.2 6.6 -42.3c1.6 -10 3.1 -19.9 4.8 -29.9c0.7 -3.9 -0.6 -4.6 -3.9 -4.6c-65 0.1 41 -0.3 -23.9 0.4c-20.1 0.2 -35.7 -16.1 -38.3 -35.6c-0.4 -3.2 -0.7 -6.4 -0.7 -9.7c0 -55.6 0 -61.5 0 -117c0 -19.4 10.7 -36 26.4 -41.5c3.5 -1.3 7 -1.7 10.7 -1.7c88 0 129 0.2 217 -0.1c18.6 -0.1 33.8 14.1 37.4 34.8c0.8 4.2 0.8 8.3 0.8 12.6c0 54.4 0 59 -0.1 113.3c0 13.1 -3.8 24.9 -12.7 34.3c-6.5 6.9 -14.4 10.4 -23.5 10.4c-4.7 0 -133.3 0.3 -138 -0.1c-3.5 -0.3 -5.6 1.3 -7.7 4c-17.6 23.9 -35.3 47.8 -52.9 71.6c-0.4 0.5 -0.8 1.2 -1.3 1.7c-0.2 -0.3 -0.4 -0.4 -0.7 -0.6z" transform="translate(0 -336.5088)" style="animation-name: eaf-10726-2, eaf-10726-3, eaf-10726-4; animation-composition: replace, add, add;"></path><g transform="translate(0 0)" style="animation-name: eaf-10726-6, eaf-10726-7, eaf-10726-8, eaf-10726-9; animation-composition: replace, add, add, add;"><g opacity="0" style="animation-name: eaf-10726-5;"><path fill="#c20000" stroke="#fefadf" stroke-width="8" d="m455.4 104l-95.6 0c-6.7 0 -12.2 -5.4 -12.2 -12.2l0 -5.8c0 -6.7 5.4 -12.2 12.2 -12.2l95.6 0c6.7 0 12.2 5.4 12.2 12.2l0 5.8c0 6.7 -5.5 12.2 -12.2 12.2z"></path><path fill="#c20000" stroke="#fefadf" stroke-width="8" d="m516.3 104l-24.3 0c-6.7 0 -12.2 -5.4 -12.2 -12.2l0 -5.8c0 -6.7 5.4 -12.2 12.2 -12.2l24.3 0c6.7 0 12.2 5.4 12.2 12.2l0 5.8c0 6.7 -5.4 12.2 -12.2 12.2z"></path><path fill="#c20000" stroke="#fefadf" stroke-width="8" d="m515.4 146.5l-95.6 0c-6.7 0 -12.2 -5.4 -12.2 -12.2l0 -5.8c0 -6.7 5.4 -12.2 12.2 -12.2l95.6 0c6.7 0 12.2 5.4 12.2 12.2l0 5.8c-0.1 6.8 -5.5001 12.2 -12.2 12.2z"></path><path fill="#c20000" stroke="#fefadf" stroke-width="8" d="m573.2 102l-24.3 0c-6.7 0 -12.2 -5.4 -12.2 -12.2l0 -5.8c0 -6.7 5.4 -12.2 12.2 -12.2l24.3 0c6.7 0 12.2 5.4 12.2 12.2l0 5.8c0 6.8 -5.5 12.2 -12.2 12.2z"></path><path fill="#c20000" stroke="#fefadf" stroke-width="8" d="m384.1 146.5l-24.3 0c-6.7 0 -12.2 -5.4 -12.2 -12.2l0 -5.8c0 -6.7 5.4 -12.2 12.2 -12.2l24.3 0c6.7 0 12.2 5.4 12.2 12.2l0 5.8c0 6.8 -5.5 12.2 -12.2 12.2z"></path><path fill="#c20000" stroke="#fefadf" stroke-width="8" d="m561.6 146.5l-12.8 0c-6.7 0 -12.2 -5.4 -12.2 -12.2l0 -5.8c0 -6.7 5.4 -12.2 12.2 -12.2l12.8 0c6.7 0 12.2 5.4 12.2 12.2l0 5.8c0 6.8 -5.5 12.2 -12.2 12.2z"></path><path fill="#c20000" stroke="#fefadf" stroke-width="8" d="m415 191l-54.1 0c-6.7 0 -12.2 -5.4 -12.2 -12.2l0 -5.8c0 -6.7 5.4 -12.2 12.2 -12.2l54.1 0c6.7 0 12.2 5.4 12.2 12.2l0 5.8c-0.1 6.7 -5.5 12.2 -12.2 12.2z"></path><path fill="#c20000" stroke="#fefadf" stroke-width="8" d="m475.5 189l-24.3 0c-6.7 0 -12.2 -5.4 -12.2 -12.2l0 -5.8c0 -6.7 5.4 -12.2 12.2 -12.2l24.3 0c6.7 0 12.2 5.4 12.2 12.2l0 5.8c-0.1 6.8 -5.5 12.2 -12.2 12.2z"></path></g></g></g><path fill="#ffc636" d="m103.562 134.6148c0 0 -99.758 -66.7349 -102.3571 -66.6888c-2.5991 0.0461 -97.2289 72.1656 -97.2289 72.1656c0 0 32.6418 -115.4977 31.7947 -117.9553c-0.847 -2.4576 -98.6789 -70.1698 -98.6789 -70.1698c0 0 119.9317 -4.6466 122.0073 -6.2116c2.0756 -1.565 36.242 -115.5329 36.242 -115.5329c0 0 41.4801 112.6259 43.6099 114.1163c2.1298 1.4904 121.0777 -1.2335 121.0777 -1.2335c0 0 -94.2956 74.2533 -95.0549 76.7394c-0.7593 2.4861 38.5882 114.7705 38.5882 114.7705z" transform="matrix(0 0 0 0 188.1782 280.1215)" style="animation-name: eaf-10726-10, eaf-10726-11, eaf-10726-12; animation-composition: replace, add, add;"></path></g></g></svg>