<svg xmlns="http://www.w3.org/2000/svg" viewBox="0 0 769 769" overflow="hidden" preserveAspectRatio="xMidYMid meet" id="eaf-405e-0"><defs><clipPath id="eaf-405e-1"><rect x="0" y="0" width="769" height="769"></rect></clipPath><style>#eaf-405e-0 * {animation: 6000ms linear infinite normal both running;offset-rotate:0deg}@keyframes eaf-405e-2{0%,100%{transform:none;offset-path:path("m246 385.5l-734.5672 0l734.5672 0")}}@keyframes eaf-405e-3{0%{animation-timing-function:step-start}0.28%{offset-distance:0%;animation-timing-function:ease-in-out}49.45%{offset-distance:50%;animation-timing-function:ease-in-out}100%{offset-distance:100%}}@keyframes eaf-405e-4{0%,100%{transform:translate(-246px,-385.5px)}}@keyframes eaf-405e-5{0%,100%{transform:none;offset-path:path("m1663.1669 385.45l-1288.5341 0l1288.5341 0")}}@keyframes eaf-405e-6{0%{offset-distance:0%;animation-timing-function:ease-in-out}49.45%{offset-distance:50%;animation-timing-function:ease-in-out}100%{offset-distance:100%}}@keyframes eaf-405e-7{0%,100%{transform:translate(-1109.2px,-385.45px)}}@keyframes eaf-405e-8{0%{opacity:0}49.17%{opacity:0;animation-timing-function:ease-in-out}49.45%,100%{opacity:1}}@keyframes eaf-405e-9{0%{opacity:1}49.17%{opacity:1;animation-timing-function:ease-in-out}49.45%,100%{opacity:0}}@keyframes eaf-405e-10{0%,100%{transform:none;offset-path:path("m1605.3719 458.4003l-1288.5341 0l1288.5341 0")}}@keyframes eaf-405e-11{0%,100%{transform:translate(-1051.405px,-458.4003px)}}@keyframes eaf-405e-12{0%,100%{transform:none;offset-path:path("m303.595 458.4003l-734.5672 0l734.5672 0")}}@keyframes eaf-405e-13{0%,100%{transform:translate(-303.595px,-458.4003px)}}</style></defs><g clip-path="url('#eaf-405e-1')" style="isolation: isolate;"><g><path fill="#ffcb29" d="m768.1 385.5c0 96.2 0 192.5 0 288.8c0 44.1 -33.3 84.4 -76.7 92.7c-6.4 1.2 -13.1 1.9 -19.6 1.9c-191.9 0.1 -383.8 0.1 -575.7 0.1c-47 0 -88.1 -36.1 -94.2 -82.9c-0.6 -4.1 -0.9 -8.3 -0.9 -12.5c0 -192.4 0 -384.7 0 -577c0 -44.1 33.3 -84.5 76.7 -92.7c6.4 -1.3 13 -1.9 19.6 -1.9c192 -0.1 384.1 -0.1 576.1 -0.1c44.1 0 84.5 33.3 92.7 76.7c1.2 6.4 1.9 13.1 1.9 19.6c0.1 95.8 0.1 191.6 0.1 287.3z"></path><path fill="#f4b526" stroke="#01507b" stroke-width="20" stroke-miterlimit="10" d="m467.2 326.3l-316.1 11.7c-10.5 0 -16.6 3.9 -19.4 14l-65.7 224.5c-2.7 9.5 -15.7 14 -24.8 14l0 0c-9 0 -16.4 -7.4 -16.4 -16.4l0 -62.9l0 -257.8l0 -12.3l0 -37.7c0 -12.7 10.3 -22.9 22.9 -22.9l162.8 0c6.1 0 11.9 2.4 16.2 6.7l47.2 47.2c4.3 4.3 10.1 6.7 16.2 6.7l154.2 0c12.7 0 22.9 10.3 22.9 22.9l0 7.8c0 0 0 54.5 0 54.5z" transform="translate(0 0)" style="animation-name: eaf-405e-2, eaf-405e-3, eaf-405e-4; animation-composition: replace, add, add;"></path><path fill="#f4b526" stroke="#01507b" stroke-width="20" stroke-miterlimit="10" d="m888 271.8l0 -7.8c0 -12.7 10.3 -22.9 22.9 -22.9l154.2 0c6.1 0 11.9 -2.4 16.2 -6.7l47.2 -47.2c4.3 -4.3 10.1 -6.7 16.2 -6.7l162.8 0c12.7 0 22.9 10.3 22.9 22.9l0 37.7l0 12.3l0 257.7l0 62.9c0 9 -7.4 16.4 -16.4 16.4l0 0c-9 0 -22.1 -4.5 -24.8 -14l-65.5999 -224.4c-2.9 -10.1 -9 -14 -19.4 -14l-316.2 -11.7c0 0 0 -54.5 0 -54.5z" transform="translate(553.9669 0)" style="animation-name: eaf-405e-5, eaf-405e-6, eaf-405e-7; animation-composition: replace, add, add;"></path><g opacity="0" style="animation-name: eaf-405e-8;"><rect fill="#c90606" width="61.9" height="139.6" transform="translate(223.6 388.6)"></rect><path fill="#c90606" d="m175.2 388.6l-63.9 0c-4.5 0 -8.2 3.7 -8.2 8.2l0 123.2c0 4.5 3.7 8.2 8.2 8.2l63.9 0l0 -139.6z"></path><path fill="#c90606" d="m528.5 449.9l-147 -128.1c-4.6 -4 -11.8 -0.7 -11.8 5.4l0 61.4l-35.7 0l0 139.6l35.7 0l0 61.4c0 6.1 7.2 9.4 11.8 5.4l147 -128.1c5.1 -4.5 5.1 -12.5 0 -17z"></path></g><g transform="matrix(-1 0 0 -1 628.4249 916.8)" style="animation-name: eaf-405e-9;"><rect fill="#c90606" width="61.9" height="139.6" transform="translate(223.6 388.6)"></rect><path fill="#c90606" d="m175.2 388.6l-63.9 0c-4.5 0 -8.2 3.7 -8.2 8.2l0 123.2c0 4.5 3.7 8.2 8.2 8.2l63.9 0l0 -139.6z"></path><path fill="#c90606" d="m528.5 449.9l-147 -128.1c-4.6 -4 -11.8 -0.7 -11.8 5.4l0 61.4l-35.7 0l0 139.6l35.7 0l0 61.4c0 6.1 7.2 9.4 11.8 5.4l147 -128.1c5.1 -4.5 5.1 -12.5 0 -17z"></path></g><path fill="#fefadf" stroke="#01507b" stroke-width="20" stroke-miterlimit="10" d="m878 590.5c-13.4 0.1 -19.9 -12.3 -22.9 -22.9l-65.5 -222.7c-2.7 -9.3 4.2 -18.6 13.9 -18.6l405.3 0c10.5 0 19.7 6.9 22.5 17l66.1 230.8c2.7 9.5 7.4 16.4 16.4 16.4l0 0l-435.8 0z" transform="translate(553.9669 0)" style="animation-name: eaf-405e-10, eaf-405e-6, eaf-405e-11; animation-composition: replace, add, add;"></path><path fill="#fefadf" stroke="#01507b" stroke-width="20" stroke-miterlimit="10" d="m41.2 590.5l0 0c9 0 13.7 -6.9 16.4 -16.4l66.1 -230.8c2.9 -10.1 12.1 -17 22.5 -17l405.3 0c9.7 0 16.6 9.3 13.9 18.6l-65.5 222.7c-3 10.5 -9.5 23 -22.9 22.9l-435.8 0z" transform="translate(0 0)" style="animation-name: eaf-405e-12, eaf-405e-6, eaf-405e-13; animation-composition: replace, add, add;"></path></g></g></svg>