<svg xmlns="http://www.w3.org/2000/svg" viewBox="0 0 769 769" overflow="hidden" preserveAspectRatio="xMidYMid meet" id="eaf-cbe1-0"><defs><clipPath id="eaf-cbe1-1"><rect x="0" y="0" width="769" height="769"></rect></clipPath><linearGradient gradientUnits="userSpaceOnUse" x1="182.0679" y1="301.4562" x2="729.1069" y2="617.291" id="eaf-cbe1-2"><stop stop-color="#aa5cc3" offset="0"></stop><stop stop-color="#00a4dc" offset="1"></stop></linearGradient><linearGradient gradientUnits="userSpaceOnUse" x1="177.8663" y1="316.8434" x2="724.9052" y2="632.6783" id="eaf-cbe1-3"><stop stop-color="#aa5cc3" offset="0"></stop><stop stop-color="#00a4dc" offset="1"></stop></linearGradient><style>#eaf-cbe1-0 * {animation: 9000ms linear infinite normal both running;offset-rotate:0deg}@keyframes eaf-cbe1-4{0%,100%{transform:none;offset-path:path("m392.0818 1142.5234l0 -740.8421l0 0l20 34l0 0l482.348 0l0 0l-1014.0797 0l511.7317 -34l0 0l0 -529.8569")}}@keyframes eaf-cbe1-5{0%{offset-distance:0%;animation-timing-function:ease-in-out}12.22%{offset-distance:22.3183%}33.33%{offset-distance:22.3183%;animation-timing-function:ease-in-out}41.86%{offset-distance:23.5067%}47.41%{offset-distance:23.5067%;animation-timing-function:ease-in-out}52.59%{offset-distance:38.0377%}53.7%{offset-distance:38.0377%;animation-timing-function:ease-in-out}55.92%{offset-distance:68.5875%;animation-timing-function:ease-in-out}64.81%{offset-distance:84.0377%}87.78%{offset-distance:84.0377%;animation-timing-function:ease-in-out}98.16%,100%{offset-distance:100%}}@keyframes eaf-cbe1-6{0%{transform:rotate(0)}33.33%{transform:rotate(0);animation-timing-function:ease-in-out}41.86%{transform:rotate(90deg)}55.92%{transform:rotate(90deg);animation-timing-function:ease-in-out}64.81%,100%{transform:rotate(0)}}@keyframes eaf-cbe1-7{0%,100%{transform:translate(-392.0818px,-401.6813px)}}@keyframes eaf-cbe1-8{0%{opacity:1}52.59%{opacity:1}53.33%{opacity:0}55.56%{opacity:0}55.92%,100%{opacity:1}}@keyframes eaf-cbe1-9{0%,100%{transform:none;offset-path:path("m392.0645 1118.2236l0 0l0 -740.8421l0 0l0 -725.9571")}}@keyframes eaf-cbe1-10{0%{offset-distance:0%}3.33%{offset-distance:0%;animation-timing-function:linear(0 0%,0.43 9%,0.75 18%,0.97 27%,1.12 37%,1.18 46%,1.19 56%,1.15 66%,1.03 89%,1 100%)}15.56%{offset-distance:50.5074%}89.26%{offset-distance:50.5074%;animation-timing-function:ease-in-out}100%{offset-distance:100%}}@keyframes eaf-cbe1-11{0%,100%{transform:translate(-392.0645px,-377.3815px)}}</style></defs><g clip-path="url('#eaf-cbe1-1')" style="isolation: isolate;"><g><path fill="#ffcb29" d="m768.1 385.5c0 96.2 0 192.5 0 288.8c0 44.1 -33.3 84.4 -76.7 92.7c-6.4 1.2 -13.1 1.9 -19.6 1.9c-191.9 0.1 -383.8 0.1 -575.7 0.1c-47 0 -88.1 -36.1 -94.2 -82.9c-0.6 -4.1 -0.9 -8.3 -0.9 -12.5c0 -192.4 0 -384.7 0 -577c0 -44.1 33.3 -84.5 76.7 -92.7c6.4 -1.3 13 -1.9 19.6 -1.9c192 -0.1 384.1 -0.1 576.1 -0.1c44.1 0 84.5 33.3 92.7 76.7c1.2 6.4 1.9 13.1 1.9 19.6c0.1 95.8 0.1 191.6 0.1 287.3z"></path><path fill="url('#eaf-cbe1-2')" d="m284.1 489.9c14.2 28.5 202 28.2 216 0c14.1 -28.2 -79 -197.6 -108 -197.7c-29 0.1 -122.3 169.2 -108 197.7z" transform="translate(0 740.8421)" style="animation-name: eaf-cbe1-4, eaf-cbe1-5, eaf-cbe1-6, eaf-cbe1-7, eaf-cbe1-8; animation-composition: replace, add, add, add, replace;"></path><path fill="url('#eaf-cbe1-3')" d="m66.6 643.1c42.9 86 608.6 85.1 651 0c42.4 -85.1 -238.1 -595.6 -325.4 -595.6c-87.4 0 -368.4 509.5 -325.6 595.6l0 0zm112.3 -74.7c-28.1 -56.4 156.1 -390.2 213.3 -390.2c57.2 0 241.1 334.5 213.3 390.2c-27.8 55.8 -398.5 56.4 -426.6 0z" transform="translate(0 740.842)" style="animation-name: eaf-cbe1-9, eaf-cbe1-10, eaf-cbe1-11; animation-composition: replace, add, add;"></path></g></g></svg>