<svg xmlns="http://www.w3.org/2000/svg" viewBox="0 0 769 769" overflow="hidden" preserveAspectRatio="xMidYMid meet" id="eaf-b7cf-0"><defs><clipPath id="eaf-b7cf-1"><rect x="0" y="0" width="769" height="769"></rect></clipPath><style>#eaf-b7cf-0 * {animation: 6000ms linear infinite normal both running;offset-rotate:0deg}@keyframes eaf-b7cf-2{0%,100%{transform:translate(396.9258px,434.7571px)}}@keyframes eaf-b7cf-3{0%{transform:scale(4,4)}47.22%{transform:scale(4,4)}53.88%{transform:scale(4,0)}56.12%{transform:scale(4,0)}63.33%,100%{transform:scale(4,4)}}@keyframes eaf-b7cf-4{0%,100%{transform:translate(-307.7625px,-672.1329px)}}@keyframes eaf-b7cf-5{0%{fill:#fff9db}52.22%{fill:#fff9db}53.33%{fill:#01507b}56.12%{fill:#01507b}57.22%,100%{fill:#fff9db}}@keyframes eaf-b7cf-6{0%{fill:#fff}52.22%{fill:#fff}53.33%{fill:#01507b}56.12%{fill:#01507b}57.22%,100%{fill:#fff}}@keyframes eaf-b7cf-7{0%,100%{transform:translate(385.14px,400.6399px)}}@keyframes eaf-b7cf-8{0%{transform:scale(4,4)}47.22%{transform:scale(4,4)}53.88%{transform:scale(4,0.6032)}56.12%{transform:scale(4,0.6032)}63.33%,100%{transform:scale(4,4)}}@keyframes eaf-b7cf-9{0%{fill-opacity:1}50%{fill-opacity:1}51.67%{fill-opacity:0}57.22%{fill-opacity:0}58.33%,100%{fill-opacity:1}}@keyframes eaf-b7cf-10{0%,100%{transform:translate(383.56px,397px)}}@keyframes eaf-b7cf-11{0%{transform:scale(1,1)}47.22%{transform:scale(1,1)}53.33%{transform:scale(1,0)}57.22%{transform:scale(1,0)}63.33%,100%{transform:scale(1,1)}}@keyframes eaf-b7cf-12{0%,100%{transform:translate(-383.56px,-397px)}}@keyframes eaf-b7cf-13{0%,100%{transform:translate(399.5423px,378.6517px)}}@keyframes eaf-b7cf-14{0%,53.33%{transform:scale(1,0)}54.45%{transform:scale(1,-1)}56.12%{transform:scale(1,-1)}57.22%,100%{transform:scale(1,0)}}@keyframes eaf-b7cf-15{0%,100%{transform:translate(-382.4667px,-335.3011px)}}</style></defs><g clip-path="url('#eaf-b7cf-1')" style="isolation: isolate;"><g><g transform="matrix(4 0 0 4 -846.84 -2287.9199)"><path fill="#ffcb29" d="m403.5 667.9c0 24.1 0 48.1 0 72.2c0 11 -8.3 21.1 -19.2 23.2c-1.6 0.3 -3.3 0.5 -4.9 0.5c-48 0 -95.9 0 -143.9 0c-11.8 0 -22 -9 -23.6 -20.7c-0.1 -1 -0.2 -2.1 -0.2 -3.1c0 -48.1 0 -96.2 0 -144.3c0 -11 8.3 -21.1 19.2 -23.2c1.6 -0.3 3.3 -0.5 4.9 -0.5c48 0 96 0 144 0c11 0 21.1 8.3 23.2 19.2c0.3 1.6 0.5 3.3 0.5 4.9c0 23.8999 0 47.8999 0 71.7999z"></path></g><g transform="matrix(4 0 0 4 -834.1243 -2253.7746)" opacity="0.41" style="animation-name: eaf-b7cf-2, eaf-b7cf-3, eaf-b7cf-4; animation-composition: replace, add, add;"><g><path fill="#01507b" d="m217.2 671.8c1.4 -2.4 2.8 -4.9 4.3 -7.3c9.5 -15.5 22.1 -27.7 38 -36.6c9.9 -5.5 20.5 -9.3 31.7 -11.1c25.3 -4.1 48.9 0.6 70.5 14.2c15.9 10 27.9 23.5 36.5 40.1c0.3 0.5 0.3 1.4 0 1.9c-12.2 23.3 -30.4 39.9 -55 49.4c-14.9 5.7 -30.4 7.8 -46.3 5.7c-34.9 -4.4 -60.6 -22.4 -78 -52.7c-0.6 -1 -1.2 -2 -1.8 -3c0.1 -0.2001 0.1 -0.4001 0.1 -0.6001z"></path><path fill="#01507b" d="m264.9 644.6c-0.1 0.1 -0.4 0.1 -0.6 0.2c-10.9 6.8 -20 15.6 -26.9 26.5c-0.3 0.5 -0.2 1.5 0.2 2c18.9 29.2 53.6 44 87.7 36.7c22.7 -4.8 40.4 -17.5 53.3 -36.7c0.6 -0.8 0.5 -1.4 0 -2.2c-6.9 -10.5 -15.6 -19 -26.2 -25.8c-0.4 -0.2 -0.8 -0.4 -1.4 -0.7c7.3 22.3 -2.4 42.5 -17.1 52.6c-14.5 10 -34.5 11.5 -50.3 0.7c-19.2 -13.1 -24.5 -31.4 -18.7 -53.3z"></path></g></g><g transform="matrix(4 0 0 4 -855.7242 -2364.9941)" opacity="0.15"><g><path fill="#01507b" d="m217.2 671.8c1.4 -2.4 2.8 -4.9 4.3 -7.3c9.5 -15.5 22.1 -27.7 38 -36.6c9.9 -5.5 20.5 -9.3 31.7 -11.1c25.3 -4.1 48.9 0.6 70.5 14.2c15.9 10 18.0844 11.6406 32.4343 26.9494c0.3 0.5 8.5439 13.9507 8.2439 14.4507c-1.0924 3.2353 -11.975 15.3894 -58.3 24.7999c-17.7714 2.0474 -31.5782 2.8 -47.4782 0.7c-34.9 -4.4 -41.7968 -0.7 -77.7 -22.4999c-0.6 -1 -1.2 -2 -1.8 -3c0.1 -0.2001 0.1 -0.4001 0.1 -0.6001z" transform="matrix(1 0 0 1.299 1.4467 -198.1665)"></path><path fill="#01507b" d="m264.9 644.6c-0.1 0.1 -0.4 0.1 -0.6 0.2c-10.9 6.8 -20 15.6 -26.9 26.5c-0.3 0.5 -0.2 1.5 0.2 2c18.9 29.2 53.6 44 87.7 36.7c22.7 -4.8 40.4 -17.5 53.3 -36.7c0.6 -0.8 0.5 -1.4 0 -2.2c-6.9 -10.5 -15.6 -19 -26.2 -25.8c-0.4 -0.2 -0.8 -0.4 -1.4 -0.7c7.3 22.3 -2.4 42.5 -17.1 52.6c-14.5 10 -34.5 11.5 -50.3 0.7c-19.2 -13.1 -24.5 -31.4 -18.7 -53.3z"></path></g></g><g transform="matrix(4 0 0 4 -845.91 -2287.8918)" style="animation-name: eaf-b7cf-7, eaf-b7cf-8, eaf-b7cf-4; animation-composition: replace, add, add;"><g><path fill="#01507b" d="m217.2 671.8c1.4 -2.4 2.8 -4.9 4.3 -7.3c9.5 -15.5 22.1 -27.7 38 -36.6c9.9 -5.5 20.5 -9.3 31.7 -11.1c25.3 -4.1 48.9 0.6 70.5 14.2c15.9 10 27.9 23.5 36.5 40.1c0.3 0.5 0.3 1.4 0 1.9c-12.2 23.3 -30.4 39.9 -55 49.4c-14.9 5.7 -30.4 7.8 -46.3 5.7c-34.9 -4.4 -60.6 -22.4 -78 -52.7c-0.6 -1 -1.2 -2 -1.8 -3c0.1 -0.2001 0.1 -0.4001 0.1 -0.6001z"></path><path fill="#fff9db" d="m264.9 644.6c-0.1 0.1 -0.4 0.1 -0.6 0.2c-10.9 6.8 -20 15.6 -26.9 26.5c-0.3 0.5 -0.2 1.5 0.2 2c18.9 29.2 53.6 44 87.7 36.7c22.7 -4.8 40.4 -17.5 53.3 -36.7c0.6 -0.8 0.5 -1.4 0 -2.2c-6.9 -10.5 -15.6 -19 -26.2 -25.8c-0.4 -0.2 -0.8 -0.4 -1.4 -0.7c7.3 22.3 -2.4 42.5 -17.1 52.6c-14.5 10 -34.5 11.5 -50.3 0.7c-19.2 -13.1 -24.5 -31.4 -18.7 -53.3z" style="animation-name: eaf-b7cf-5;"></path><path fill="#fff" d="m290.7 671c8.8 -0.1 16.9 -6.3 17.2 -16.7c0.3 -8.8 -6.2 -17 -16.7 -17.3c-8.8 -0.2 -16.9 6.2 -17.2 16.6c-0.2 8.9 6.3 16.9 16.7 17.4z" style="animation-name: eaf-b7cf-6;"></path></g></g><path fill="#01507b" d="m22.4 269.9l47.3 46c-13.6 13.6 -24.3 25.4 -31.5 33.9l-0.8 0.9c-4.2 3.7 -9.1 9.3 -12.5 17.6c-4.2 11.1 0 25.1 10.8 30.6c10.8 4.6 22.5 0 27.4 -12.1l4.2 -4.6l1.7 -1.9c34.9 -40.8 163 -172.6 312.6 -172.6c149.6 0 277.7 132.7 312.6 172.6l1.7 1.9c0.8 0.9 3.3 2.8 3.3 3.7c5 11.1 16.6 16.7 27.4 11.1c10 -5.6 15 -18.6 10 -30.6c-3.3 -8.4 -8.3 -13.9 -11.6 -17.6l-0.8 -0.9c-6.8 -7.8 -16.9 -18.7 -29.6 -31.4l47.9 -46.5c6.7 -6.5 7.5 -18.6 1.7 -26c-3.3 -4.6 -7.5 -6.5 -12.5 -6.5c-4.2 0 -8.3 1.9 -10.8 4.6l-51.7 50.2c-19 -17.2 -41.6 -35.7 -67.1 -53.3l33.2 -54.5c5.8 -8.4 3.3 -20.4 -4.2 -26c-2.5 -1.9 -5.8 -2.8 -9.1 -2.8c-5.8 0 -10.8 2.8 -14.1 7.4l-34.9002 57.2c-19.9 -12 -41.2 -23 -63.7 -32.2l19.5 -61.1c3.3 -10.2 -1.7 -20.4 -10 -24.1c-2.5 -0.9 -4.2 -0.9 -5.8 -0.9c-6.7 0 -13.3 4.6 -15.8 12.1l-19.9 62.6c-25.3 -7.9 -51.7 -13.2 -79 -14.7l0 -68.5c0 -10.2 -7.5 -18.6 -16.6 -18.6c-9.1 0 -16.6 8.4 -16.6 18.6l0 68.3c-26.8 1.5 -52.7 6.6 -77.5 14.3l-19.9 -62.1c-2.5 -7.4 -9.1 -12.1 -15.8 -12.1l0 0c-1.7 0 -4.2 0 -5.8 0.9c-8.3 3.7 -13.3 14.9 -10 24.1l19.3 60.6c-23 9.3 -44.8 20.6 -65.1 32.9l-38.1 -57.2c-3.3 -4.6 -8.3 -7.4 -13.3 -7.4l0 0c-3.3 0 -6.7 0.9 -10 3.7c-7.5 6.5 -9.1 17.6 -3.3 26l35.8 53.7c-25 17.3 -47.3 35.6 -66.1 52.6l-51.3 -49.8c-3.3 -2.8 -6.7 -4.6 -10.8 -4.6c-4.2 0 -9.1 2.8 -12.5 6.5c-5.8 7.4 -4.9 19.5 1.7 26z" style="animation-name: eaf-b7cf-9, eaf-b7cf-10, eaf-b7cf-11, eaf-b7cf-12; animation-composition: replace, replace, add, add;"></path><path fill="#01507b" d="m22.4 270.6337l47.3 46c-13.6 13.6 7.2 0.0912 0 8.5912l8.742 -11.6586c-4.2 3.7 16.157 -5.2325 12.757 3.0675c-4.2 11.1 -10.8 1.7534 0 7.2534c10.8 4.6 28.601 7.2295 33.501 -4.8705l10.099 6.3428l-4.199 7.298c34.9 -40.8 103.6945 -19.3029 253.2945 -19.3029c149.6 0 216.5057 -25.7052 251.4057 14.1948l0 -4.9954c0.8 0.9 17.3564 -8.3971 17.3564 -7.497c5 11.1 19.9101 22.8183 30.7101 17.2183c10 -5.6 5 -3.9515 0 -15.9515c-3.3 -8.4 -69.9665 -43.7621 -14.1666 12.698l25.4 -27.1143c-6.8 -7.8 12.7 28.0264 0 15.3264l47.9 -46.5c6.7 -6.5 7.5 -18.6 1.7 -26c-3.3 -4.6 -7.5 -6.5 -12.5 -6.5c-4.2 0 -8.3 1.9 -10.8 4.6l-51.7 50.2c-19 -17.2 -41.6 -35.7 -67.1 -53.3l33.2 -54.5c5.8 -8.4 3.3 -20.4 -4.2 -26c-2.5 -1.9 -5.8 -2.8 -9.1 -2.8c-5.8 0 -10.8 2.8 -14.1 7.4l-34.9002 57.2c-19.9 -12 -41.2 -23 -63.7 -32.2l19.5 -61.1c3.3 -10.2 -1.7 -20.4 -10 -24.1c-2.5 -0.9 -4.2 -0.9 -5.8 -0.9c-6.7 0 -13.3 4.6 -15.8 12.1l-19.9 62.6c-25.3 -7.9 -51.7 -13.2 -79 -14.7l0 -68.5c0 -10.2 -7.5 -18.6 -16.6 -18.6c-9.1 0 -16.6 8.4 -16.6 18.6l0 68.3c-26.8 1.5 -52.7 6.6 -77.5 14.3l-19.9 -62.1c-2.5 -7.4 -9.1 -12.1 -15.8 -12.1l0 0c-1.7 0 -4.2 0 -5.8 0.9c-8.3 3.7 -13.3 14.9 -10 24.1l19.3 60.6c-23 9.3 -44.8 20.6 -65.1 32.9l-38.1 -57.2c-3.3 -4.6 -8.3 -7.4 -13.3 -7.4l0 0c-3.3 0 -6.7 0.9 -10 3.7c-7.5 6.5 -9.1 17.6 -3.3 26l35.8 53.7c-25 17.3 -47.3 35.6 -66.1 52.6l-51.3 -49.8c-3.3 -2.8 -6.7 -4.6 -10.8 -4.6c-4.2 0 -9.1 2.8 -12.5 6.5c-5.8 7.4 -4.9 19.5 1.7 26z" transform="matrix(1 0 0 0 17.0756 378.6517)" style="animation-name: eaf-b7cf-13, eaf-b7cf-14, eaf-b7cf-15; animation-composition: replace, add, add;"></path></g></g></svg>