<svg xmlns="http://www.w3.org/2000/svg" viewBox="0 0 650 650" overflow="hidden" preserveAspectRatio="xMidYMid meet" id="eaf-14850-0"><defs><clipPath id="eaf-14850-1"><rect x="0" y="0" width="650" height="650"></rect></clipPath><style>#eaf-14850-0 * {animation: 11000ms linear infinite normal both running;offset-rotate:0deg}@keyframes eaf-14850-2{0%,100%{transform:none;offset-path:path("m446.2005 444.8l-242.4005 -178.75")}}@keyframes eaf-14850-3{0%{animation-timing-function:step-start}15.15%{offset-distance:0%;animation-timing-function:ease-in-out}62.43%,100%{offset-distance:100%}}@keyframes eaf-14850-4{0%{animation-timing-function:step-start}20.3%{transform:rotate(43deg);animation-timing-function:ease-in-out}65.15%,100%{transform:rotate(0)}}@keyframes eaf-14850-5{0%,100%{transform:translate(-203.8px,-266.05px)}}@keyframes eaf-14850-6{0%{animation-timing-function:step-start}1.21%{opacity:0;animation-timing-function:ease-in-out}9.39%{opacity:1}88.79%{opacity:1;animation-timing-function:ease-in-out}92.13%,100%{opacity:0}}@keyframes eaf-14850-7{0%,100%{transform:none;offset-path:path("m492.488 206.31l-46.2874 189.6401")}}@keyframes eaf-14850-8{0%{animation-timing-function:step-start}9.39%{offset-distance:0%;animation-timing-function:ease-in-out}62.12%,100%{offset-distance:100%}}@keyframes eaf-14850-9{0%{animation-timing-function:step-start}18.18%{transform:rotate(-175deg);animation-timing-function:ease-in-out}60%,100%{transform:rotate(0)}}@keyframes eaf-14850-10{0%,100%{transform:translate(-446.2005px,-395.95px)}}@keyframes eaf-14850-11{0%{opacity:0;animation-timing-function:ease-in-out}7.87%{opacity:1}85.45%{opacity:1;animation-timing-function:ease-in-out}94.25%,100%{opacity:0}}@keyframes eaf-14850-12{0%,100%{transform:none;offset-path:path("m222.5 194.0056l37.633 258.1944")}}@keyframes eaf-14850-13{0%{animation-timing-function:step-start}29.4%{offset-distance:0%;animation-timing-function:ease-in-out}56.05%,100%{offset-distance:100%}}@keyframes eaf-14850-14{0%{animation-timing-function:step-start}34.55%{transform:rotate(316deg);animation-timing-function:ease-in-out}59.09%,100%{transform:rotate(0)}}@keyframes eaf-14850-15{0%,100%{transform:translate(-260.133px,-452.2px)}}@keyframes eaf-14850-16{0%{opacity:0;animation-timing-function:ease-in-out}9.69%{opacity:1}91.21%{opacity:1;animation-timing-function:ease-in-out}96.06%,100%{opacity:0}}@keyframes eaf-14850-17{0%,100%{transform:none;offset-path:path("m197.7364 441.9039l192.2311 -232.1539")}}@keyframes eaf-14850-18{0%{animation-timing-function:step-start}31.2%{offset-distance:0%;animation-timing-function:ease-in-out}68.18%,100%{offset-distance:100%}}@keyframes eaf-14850-19{0%{animation-timing-function:step-start}27.25%{transform:rotate(-131deg);animation-timing-function:ease-in-out}65.15%,100%{transform:rotate(0)}}@keyframes eaf-14850-20{0%,100%{transform:translate(-389.9676px,-209.75px)}}@keyframes eaf-14850-21{0%{animation-timing-function:step-start}1.21%{opacity:0;animation-timing-function:ease-in-out}9.99%{opacity:1}90.91%{opacity:1;animation-timing-function:ease-in-out}94.25%,100%{opacity:0}}</style></defs><g clip-path="url('#eaf-14850-1')" style="isolation: isolate;"><g><path fill="#ffcb29" d="m651.4 325.1c0 81.6 0 163.1 0 244.7c0 37.4 -28.2 71.6 -65 78.6c-5.5 1 -11.1 1.6 -16.6 1.6c-162.6 0 -325.2 0 -487.7 0c-39.9 0 -74.7 -30.6 -79.9 -70.2c-0.5 -3.5 -0.8 -7 -0.8 -10.6c0 -163 0 -326 0 -488.9c0 -37.4 28.2 -71.6 65 -78.6c5.4 -1 11.1 -1.6 16.6 -1.6c162.7 -0.1 325.4 -0.1 488.0999 -0.1c37.4 0 71.6 28.2 78.6 65c1 5.4 1.6 11.1 1.6 16.6c0.1001 81.2 0.1001 162.3 0.1001 243.5l0 0l0 0z"></path><g transform="matrix(0.7314 0.682 -0.682 0.7314 478.5964 111.2321)" opacity="0" style="animation-name: eaf-14850-2, eaf-14850-3, eaf-14850-4, eaf-14850-5, eaf-14850-6; animation-composition: replace, add, add, add, replace;"><path fill="#8bd0f5" stroke="#01507b" stroke-width="16" stroke-miterlimit="10" d="m323.9 114l0 -8.2c0 -8.9 -7.3 -16.2 -16.2 -16.2l-207.9 0c-8.9 0 -16.2 7.3 -16.2 16.2l0 207.8c0 8.9 7.3 16.2 16.2 16.2l14.2 0c0 -1.6 -0.1 -3.2 -0.1 -4.9c0.1 -116.1 94 -210.3 210 -210.9z"></path><path fill="#fefadf" stroke="#01507b" stroke-width="16" stroke-miterlimit="10" d="m182.5 335c3.3 3.3 5.1 7.6 5.1 12.2l0 4c0 5.7 -2.9 11 -8 14.6c-13.5 9.5 -20.1 25.6 -17.3 42c2.8 16.5 16.2 30.4 32.4 33.7c3.1 0.6 6.1 1 9.2 1c9.7 0 18.9 -3.3 26.5 -9.4c9.9 -8.1 15.6 -20 15.6 -32.8c0 -13.8 -6.8 -26.8 -18.2 -34.7c-4.9 -3.4 -7.8 -8.7 -7.8 -14.4l0 -4.1c0 -9.5 7.8 -17.3 17.3 -17.3l86.6 0l0 -86.6c0 -8.3 -6.8 -15.1 -15.1 -15.1l-4.1 0c-5 0 -9.5 2.5 -12.5 6.8c-8.3 12 -21.9 19.2 -36.5 19.2c-13.4 0 -26 -6 -34.5 -16.4c-8.5 -10.4 -11.7 -24.1 -8.9 -37.6c3.6 -17.4 17.9 -31.1 35.6 -34.2c2.6 -0.4 5.3 -0.7 7.9 -0.7c14.6 0 27.9 6.9 36.3 18.9c3.2 4.5 7.8 7.1 12.8 7.1l4 0c8.3 0 15.1 -6.8 15.1 -15.1l0 -62.1c-116 0.6 -209.9 94.8 -209.9 211c0 1.6 0 3.3 0.1 4.9l56.2 0c4.5 0 8.8 1.8 12.1 5.1z"></path></g><g transform="matrix(-0.9962 -0.0872 0.0872 -0.9962 902.4813 639.6422)" opacity="0" style="animation-name: eaf-14850-7, eaf-14850-8, eaf-14850-9, eaf-14850-10, eaf-14850-11; animation-composition: replace, add, add, add, replace;"><path fill="#8bd0f5" stroke="#01507b" stroke-width="16" stroke-miterlimit="10" d="m550.2 332.1l-14.3 0c-3.8 112.9 -96.1 203.3 -209.8 203.9l0 20.2c0 8.9 7.3 16.2 16.2 16.2l207.8 0c8.9 0 16.2 -7.3 16.2 -16.2l0 -207.9c0.1 -8.9 -7.2001 -16.2 -16.1 -16.2z"></path><path fill="#fefadf" stroke="#01507b" stroke-width="16" stroke-miterlimit="10" d="m535.9 332.1l-56.1 0c-9.5 0 -17.3 -7.8 -17.3 -17.3l0 -4c0 -5.7 2.9 -11 8 -14.6c13.5 -9.5 20.1 -25.6 17.3 -42c-2.8 -16.5 -16.2 -30.4 -32.4 -33.7c-3.1 -0.6 -6.1 -1 -9.2 -1c-9.7 0 -18.9 3.3 -26.5 9.4c-9.9 8.1 -15.6 20 -15.6 32.8c0 13.8 6.8 26.8 18.2 34.7c4.9 3.4 7.8 8.7 7.8 14.4l0 4.1c0 9.5 -7.8 17.3 -17.3 17.3l-86.6 0l0 86.6c0 8.3 6.8 15.1 15.1 15.1l4 0c5 0 9.6 -2.6 12.8 -7.1c8.4 -12 21.7 -18.9 36.3 -18.9c2.6 0 5.3 0.2 7.9 0.7c17.6 3 31.9 16.8 35.6 34.2c2.8 13.4 -0.4 27.1 -8.9 37.6c-8.5 10.4 -21.1 16.4 -34.5 16.4c-14.6 0 -28.2 -7.2 -36.5 -19.2c-3 -4.3 -7.6 -6.8 -12.5 -6.8l-4.1 0c-8.3 0 -15.1 6.8 -15.1 15.1l0 50.0999c113.5 -0.6 205.8 -91 209.6 -203.9z"></path></g><g transform="matrix(0.7193 -0.6947 0.6947 0.7193 -278.7485 49.4237)" opacity="0" style="animation-name: eaf-14850-12, eaf-14850-13, eaf-14850-14, eaf-14850-15, eaf-14850-16; animation-composition: replace, add, add, add, replace;"><path fill="#8bd0f5" stroke="#01507b" stroke-width="16" stroke-miterlimit="10" d="m114.1 332.1l-14.3 0c-8.9 0 -16.2 7.3 -16.2 16.2l0 207.8c0 8.9 7.3 16.2 16.2 16.2l207.8 0c8.9 0 16.2 -7.3 16.2 -16.2l0 -20.1c-113.6 -0.6 -205.9 -91 -209.7 -203.9z"></path><path fill="#fefadf" stroke="#01507b" stroke-width="16" stroke-miterlimit="10" d="m341.2 468.4l4.1 0c5.6 0 11 2.9 14.4 7.8c7.9 11.4 20.8 18.2 34.7 18.2c12.8 0 24.7 -5.7 32.8 -15.6c8.2 -10.1 11.2 -22.7 8.5 -35.7c-3.4 -16.3 -17.3 -29.6 -33.7 -32.4c-2.5 -0.4 -5 -0.6 -7.4 -0.6c-13.7 0 -26.7 6.7 -34.5 18c-3.6 5.1 -8.9 8 -14.6 8l-4 0c-9.5 0 -17.3 -7.8 -17.3 -17.3l0 -86.6l-86.6 0c-8.3 0 -15.1 6.8 -15.1 15.1l0 4.1c0 5 2.5 9.5 6.8 12.5c12 8.3 19.2 21.9 19.2 36.5c0 13.4 -6 26 -16.4 34.5c-7.9 6.4 -17.8 9.9 -28.1 9.9c-3.2 0 -6.4 -0.3 -9.5 -1c-17.4 -3.6 -31.1 -17.9 -34.2 -35.6c-3 -17.3 4 -34.2 18.2 -44.2c4.5 -3.2 7.1 -7.8 7.1 -12.8l0 -4c0 -8.3 -6.8 -15.1 -15.1 -15.1l-56.1 0c3.5 112.9 95.8 203.3 209.5 203.9l0 -50.3c0 -9.5 7.7 -17.3 17.3 -17.3z"></path></g><g transform="matrix(-0.6561 -0.7547 0.7547 -0.6561 295.2779 873.8246)" opacity="0" style="animation-name: eaf-14850-17, eaf-14850-18, eaf-14850-19, eaf-14850-20, eaf-14850-21; animation-composition: replace, add, add, add, replace;"><path fill="#8bd0f5" stroke="#01507b" stroke-width="16" stroke-miterlimit="10" d="m550.2 89.6l-207.9 0c-8.9 0 -16.2 7.3 -16.2 16.2l0 8.2c116 0.6 209.9 94.8 209.9 211c0 1.6 0 3.3 -0.1 4.9l14.2 0c8.9 0 16.2 -7.3 16.2 -16.2l0 -207.9c0.1 -8.9 -7.2001 -16.2 -16.1 -16.2z"></path><path fill="#fefadf" stroke="#01507b" stroke-width="16" stroke-miterlimit="10" d="m326.1 114l0 62.3c0 9.5 -7.8 17.3 -17.3 17.3l-4 0c-5.7 0 -11 -2.9 -14.6 -8c-7.9 -11.2 -20.8 -18 -34.5 -18c-2.5 0 -5 0.2 -7.4 0.6c-16.5 2.8 -30.4 16.2 -33.7 32.4c-2.7 13 0.3 25.6 8.5 35.7c8.1 9.9 20 15.6 32.8 15.6c13.8 0 26.8 -6.8 34.7 -18.2c3.4 -4.9 8.7 -7.8 14.4 -7.8l4.1 0c9.5 0 17.3 7.8 17.3 17.3l0 86.6l86.6 0c8.3 0 15.1 -6.8 15.1 -15.1l0 -4.1c0 -5 -2.5 -9.5 -6.8 -12.5c-12 -8.3 -19.2 -21.9 -19.2 -36.5c0 -13.4 6 -26 16.4 -34.5c7.9 -6.4 17.8 -9.9 28.1 -9.9c3.2 0 6.4 0.3 9.5 1c17.4 3.6 31.1 17.9 34.2 35.6c3 17.3 -4 34.2 -18.2 44.2c-4.5 3.2 -7.1 7.8 -7.1 12.8l0 4c0 8.3 6.8 15.1 15.1 15.1l56.2 0c0 -1.6 0.1 -3.2 0.1 -4.9c-0.4 -116.2 -94.3 -210.4 -210.3 -211z"></path></g></g></g></svg>


