<svg xmlns="http://www.w3.org/2000/svg" viewBox="0 0 650 650" overflow="hidden" preserveAspectRatio="xMidYMid meet" id="eaf-1020f-0"><defs><clipPath id="eaf-1020f-1"><rect x="0" y="0" width="650" height="650"></rect></clipPath><style>#eaf-1020f-0 * {animation: 15000ms linear infinite normal both running;offset-rotate:0deg}@keyframes eaf-1020f-2{0%,100%{transform:none;offset-path:path("m-40.3805 573.25l367.5327 0l0 -248.15l-367.5327 248.15l367.5327 0l0 -248.15l-367.5327 248.15l367.5327 0l0 -248.15l-367.5327 248.15l367.5327 0l0 -248.15l-367.5327 248.15l367.5327 0l0 -248.15l-367.5327 248.15l367.5327 0l0 -248.15")}}@keyframes eaf-1020f-3{0%{offset-distance:0%}10%{offset-distance:6.2173%}16.67%{offset-distance:10.4152%}16.95%{offset-distance:17.917%}26.95%{offset-distance:24.1343%}33.61%{offset-distance:28.3321%}33.89%{offset-distance:35.8339%}43.89%{offset-distance:42.0513%}50.55%{offset-distance:46.2491%}50.83%{offset-distance:53.7509%}60.83%{offset-distance:59.9682%}67.5%{offset-distance:64.1661%}67.78%{offset-distance:71.6679%}77.78%{offset-distance:77.8852%}84.45%{offset-distance:82.083%}84.72%{offset-distance:89.5848%}94.72%{offset-distance:95.8022%}100%{offset-distance:99.1269%}}@keyframes eaf-1020f-4{0%,100%{transform:translate(43.15px,-573.25px)}}@keyframes eaf-1020f-5{0%,100%{transform:none;offset-path:path("m691.55 573.25l-366.55 0l0 -169.25l367.45 169.25l-367.45 0l0 -173.15l367.45 173.15l0 0l0 0l-367.45 0l0 -230.65l367.45 230.65l-367.45 0l0 -173.15l381.2212 173.15l-377.9086 0l0 -173.15l368.9688 169.7l-369.9688 0l0 -169.7l367.7141 173.2l-370.0267 0l0 -169.3l375.6635 169.3l-374.9634 0l0 -167.3l368.1994 167.25l-365.5868 0l0 -173.15")}}@keyframes eaf-1020f-6{0%{offset-distance:0%}5%{offset-distance:4.4601%}8.89%{offset-distance:6.5194%}9.17%{offset-distance:11.4419%}17.5%{offset-distance:15.913%}26.11%{offset-distance:18.0198%}26.39%{offset-distance:22.9623%}31.67%{offset-distance:22.9623%}40%{offset-distance:27.4333%}48.61%{offset-distance:30.2398%}48.89%{offset-distance:35.5187%}52.78%{offset-distance:39.9897%}56.95%{offset-distance:42.0965%}57.22%{offset-distance:47.1911%}64.17%{offset-distance:51.7894%}70%{offset-distance:53.8962%}70.28%{offset-distance:58.8378%}74.17%{offset-distance:63.3395%}77.78%{offset-distance:65.4043%}78.05%{offset-distance:70.35%}81.67%{offset-distance:74.8524%}87.78%{offset-distance:76.9124%}88.05%{offset-distance:81.9261%}91.11%{offset-distance:86.4885%}93.33%{offset-distance:88.5242%}93.61%{offset-distance:93.4448%}97.78%{offset-distance:97.8932%}100%{offset-distance:100%}}@keyframes eaf-1020f-7{0%,100%{transform:translate(-694.45px,-573.25px)}}@keyframes eaf-1020f-8{0%,100%{transform:none;offset-path:path("m188.194 406l103.3684 0l0 0l89.8376 0l0 0l-193.206 0")}}@keyframes eaf-1020f-9{0%{offset-distance:0%}33.33%{offset-distance:26.7508%}53.33%{offset-distance:26.7508%}86.11%{offset-distance:50%}96.11%{offset-distance:50%}99.17%,100%{offset-distance:100%}}@keyframes eaf-1020f-10{0%,100%{transform:translate(-188px,-406px)}}@keyframes eaf-1020f-11{0%{fill-opacity:0}33.33%{fill-opacity:0}33.61%{fill-opacity:1}53.33%{fill-opacity:1}53.61%{fill-opacity:0}86.39%{fill-opacity:0}86.67%{fill-opacity:1}95.83%{fill-opacity:1}96.11%,100%{fill-opacity:0}}@keyframes eaf-1020f-12{0%{opacity:0}95.83%{opacity:0}96.11%{opacity:1}99.17%{opacity:1}99.45%,100%{opacity:0}}@keyframes eaf-1020f-13{0%{fill-opacity:1}33.33%{fill-opacity:1}33.61%{fill-opacity:0}53.33%{fill-opacity:0}53.61%{fill-opacity:1}86.11%{fill-opacity:1}86.39%{fill-opacity:0}99.72%{fill-opacity:0}100%{fill-opacity:1}}</style></defs><g clip-path="url('#eaf-1020f-1')" style="isolation: isolate;"><g><path fill="#dff1fb" d="m650.7 325.1c0 81.6 0 163.1 0 244.7c0 37.4 -28.2 71.6 -65 78.6c-5.5 1 -11.1 1.6 -16.6 1.6c-162.6 0 -325.2 0 -487.7 0c-39.9 0 -74.7 -30.6 -79.9 -70.2c-0.5 -3.5 -0.8 -7 -0.8 -10.6c0 -163 0 -326 0 -488.9c0 -37.4 28.2 -71.6 65 -78.6c5.4 -1 11.1 -1.6 16.6 -1.6c162.7 -0.1 325.4 -0.1 488.1 -0.1c37.4 0 71.6 28.2 78.6 65c1 5.4 1.6 11.1 1.6 16.6c0.1 81.2 0.1 162.3 0.1 243.5l0 0z"></path><rect fill="#01507b" width="50.1" height="146.5" transform="translate(300.6 469.6)"></rect><rect fill="#01507b" width="579.2" height="41.8" transform="translate(36.1 552.4)"></rect><path fill="#bbb" stroke="#01507b" stroke-width="14" stroke-miterlimit="10" d="m415.1 621.5l-178.8 0c-6.6 0 -12 -5.4 -12 -12l0 -72.5c0 -6.6 5.4 -12 12 -12l178.8 0c6.6 0 12 5.4 12 12l0 72.5c0 6.6 -5.4 12 -12 12z"></path><path fill="#fff" stroke="#01507b" stroke-width="16" d="m-17.3 611.1l-51.7 0c-6.6 0 -12 -5.4 -12 -12l0 -51.7c0 -6.6 5.4 -12 12 -12l51.7 0c6.6 0 12 5.4 12 12l0 51.7c0 6.6 -5.4 12 -12 12z" transform="translate(2.7695 0)" style="animation-name: eaf-1020f-2, eaf-1020f-3, eaf-1020f-4; animation-composition: replace, add, add;"></path><path fill="#fff" stroke="#01507b" stroke-width="16" d="m720.3 611.1l-51.7 0c-6.6 0 -12 -5.4 -12 -12l0 -51.7c0 -6.6 5.4 -12 12 -12l51.7 0c6.6 0 12 5.4 12 12l0 51.7c0 6.6 -5.4 12 -12 12z" transform="translate(-2.8999 0)" style="animation-name: eaf-1020f-5, eaf-1020f-6, eaf-1020f-7; animation-composition: replace, add, add;"></path><path fill="#01507b" d="m108.7 400.1l0 -298.4c0 -38.4 31.1 -69.5 69.5 -69.5l309.2 0c38.4 0 69.5 31.1 69.5 69.5l0 298.4c0 38.4 -31.1 69.5 -69.5 69.5l-309.2 0c-38.4 0 -69.5 -31.1 -69.5 -69.5z"></path><path fill="#fefadf" d="m487.4 342.6l-309.2 0c-21.7 0 -39.5 -17.8 -39.5 -39.5l0 -201.4c0 -21.7 17.8 -39.5 39.5 -39.5l309.2 0c21.7 0 39.5 17.8 39.5 39.5l0 201.4c0.1 21.7 -17.7 39.5 -39.5 39.5z"></path><path fill="#ffcb29" d="m486 419.2l-306 0c-8.4 0 -15.2 -6.9 -15.2 -15.2c0 -8.4 6.9 -15.2 15.2 -15.2l306 0c8.4 0 15.2 6.9 15.2 15.2c0.1 8.3 -6.8 15.2 -15.2 15.2l0 0z"></path><g transform="translate(0.194 0)" style="animation-name: eaf-1020f-8, eaf-1020f-9, eaf-1020f-10; animation-composition: replace, add, add;"><path fill="#f7e79d" stroke="#666" stroke-width="9" d="m188 462c-17.1 0 -31.1 -14 -31.1 -31.1l0 -49.8c0 -17.1 14 -31.1 31.1 -31.1c17.1 0 31.1 14 31.1 31.1l0 49.8c0 17.1 -14 31.1 -31.1 31.1l0 0z"></path></g><rect fill="#01507b" fill-opacity="0" width="41.7" height="195.3" transform="translate(274 109.1)" style="animation-name: eaf-1020f-11;"></rect><rect fill="#01507b" fill-opacity="0" width="41.7" height="195.3" transform="translate(356.1 109.1)" style="animation-name: eaf-1020f-11;"></rect><g transform="matrix(1.3815 0 0 1.3815 -139.0506 -76.3469)" opacity="0" style="animation-name: eaf-1020f-12;"><path fill="#01507b" d="m400.3 200.1c0 -14 0 -27.9 0 -41.9c0 -1.1 -0.1 -2.3 -0.4 -3.4c-1.1 -4 -4.4 -5.8 -8.4 -4.7c-1.2 0.3 -2.5 0.9 -3.6 1.5c-24.2 13.8 -48.3 27.6 -72.5 41.4c-0.7 0.4 -1.4 0.8 -2 1.3c-4.4 3.5 -4.5 8.2 0 11.6c1.8 1.4 3.9 2.5 5.9 3.6c22.7 13 45.5 26 68.2 39c0.9 0.5 1.8 1 2.7 1.3c5.5 2.1 10 -1 10.1 -6.8c0.1 -8 0 -15.9 0 -23.9c0 -6.3 0 -12.6001 0 -19l0 0z"></path><path fill="#01507b" d="m350.7 200.1c0 -14 0 -27.9 0 -41.9c0 -1.1 -0.1 -2.3 -0.4 -3.4c-1.1 -4 -4.4 -5.8 -8.4 -4.7c-1.2 0.3 -2.5 0.9 -3.6 1.5c-24.2 13.8 -48.3 27.6 -72.5 41.4c-0.7 0.4 -1.4 0.8 -2 1.3c-4.4 3.5 -4.5 8.2 0 11.6c1.8 1.4 3.9 2.5 5.9 3.6c22.7 13 45.5 26 68.2 39c0.9 0.5 1.8 1 2.7 1.3c5.5 2.1 10 -1 10.1 -6.8c0.1 -8 0 -15.9 0 -23.9c0 -6.3 0 -12.6001 0 -19l0 0z"></path></g><path fill="#01507b" d="m249.6 200.6c0 -27.9 0 -55.8 0 -83.7c0 -2.3 0.2 -4.6 0.9 -6.8c2.3 -7.9 8.8 -11.6 16.7 -9.4c2.5 0.7 4.9 1.7 7.1 3c48.4 27.6 96.7 55.2 145 82.8c1.4 0.8 2.7 1.7 4 2.6c8.9 7 9 16.4 0 23.2c-3.7 2.8 -7.8 4.9 -11.8 7.2c-45.5 26 -90.9 52 -136.4 77.9c-1.8 1 -3.5 2 -5.4 2.7c-10.9 4.1 -20.1 -2 -20.2 -13.7c-0.1 -15.9 0 -31.8 0 -47.7c0.1 -12.6 0.1 -25.4 0.1 -38.1l0 0z" style="animation-name: eaf-1020f-13;"></path></g></g></svg>