<svg xmlns="http://www.w3.org/2000/svg" viewBox="0 0 500 500" overflow="hidden" preserveAspectRatio="xMidYMid meet" id="eaf-741-0"><defs><clipPath id="eaf-741-1"><rect x="0" y="0" width="500" height="500"></rect></clipPath><style>#eaf-741-0 * {animation: 6500ms linear infinite normal both running;offset-rotate:0deg}@keyframes eaf-741-2{0%,100%{transform:none;offset-path:path("m194.3 174l46.4198 0l30.7309 0l37.6691 0l0 36.5449l-33.2226 0l-35.1775 0l-49.6 0l0 39.4551l49.6 0l37.3754 0l31.0246 0l0 35.7143l-30.7309 0l0 41.5592l0.8306 40.6977l0 52.3024l0 45.6811l0 34.0453l0 36.6958l0 38.7041l0 40.2737l0 52.8l0 -839.0735l-88.0997 0l3.1802 344.6l0 0")}}@keyframes eaf-741-3{0%{offset-distance:0%;animation-timing-function:step-start}3.85%{offset-distance:2.1613%;animation-timing-function:step-start}7.69%{offset-distance:3.592%;animation-timing-function:step-start}11.28%{offset-distance:5.3459%;animation-timing-function:step-start}15.38%{offset-distance:7.0474%;animation-timing-function:step-start}19.74%{offset-distance:8.5942%;animation-timing-function:step-start}23.08%{offset-distance:10.232%;animation-timing-function:step-start}26.92%{offset-distance:12.5413%;animation-timing-function:step-start}30.77%{offset-distance:14.3783%;animation-timing-function:step-start}35.38%{offset-distance:16.6876%;animation-timing-function:step-start}38.46%{offset-distance:18.4278%;animation-timing-function:step-start}42.82%{offset-distance:19.8722%;animation-timing-function:step-start}46.15%{offset-distance:21.535%;animation-timing-function:step-start}50.26%{offset-distance:22.9658%;animation-timing-function:step-start}53.85%{offset-distance:24.9008%;animation-timing-function:step-start}57.69%{offset-distance:26.796%;animation-timing-function:step-start}61.54%{offset-distance:29.2312%;animation-timing-function:step-start}65.38%{offset-distance:31.358%;animation-timing-function:step-start}69.23%{offset-distance:32.9431%;animation-timing-function:step-start}73.08%{offset-distance:34.6516%;animation-timing-function:step-start}76.92%{offset-distance:36.4537%;animation-timing-function:step-start}81.28%{offset-distance:38.3287%;animation-timing-function:step-start}84.62%{offset-distance:40.7871%;animation-timing-function:step-start}87.95%{offset-distance:79.8533%;animation-timing-function:step-start}88.2%{offset-distance:83.9551%;animation-timing-function:ease-in-out}92.31%,100%{offset-distance:100%}}@keyframes eaf-741-4{0%,100%{transform:translate(-194.3px,-174px)}}@keyframes eaf-741-5{0%{opacity:1}81.54%{opacity:1}82.05%{opacity:0}88.2%{opacity:0}88.72%,100%{opacity:1}}</style></defs><g clip-path="url('#eaf-741-1')" style="isolation: isolate;"><g><g transform="matrix(4 0 0 4 -827.28 -2254.5264)"><path fill="#ffcb29" d="m331.8 626.1c0 15.6 0 31.3 0 46.9c0 7.2 -5.4 13.7 -12.5 15.1c-1 0.2 -2.1 0.3 -3.2 0.3c-31.2 0 -62.4 0 -93.6 0c-7.6 0 -14.3 -5.9 -15.3 -13.5c-0.1 -0.7 -0.1 -1.4 -0.1 -2c0 -31.3 0 -62.5 0 -93.8c0 -7.2 5.4 -13.7 12.5 -15.1c1 -0.2 2.1 -0.3 3.2 -0.3c31.2 0 62.4 0 93.6 0c7.2 0 13.7 5.4 15.1 12.5c0.2 1 0.3 2.1 0.3 3.2c0 15.6 0 31.1 0 46.7z"></path></g><g transform="translate(0 0)" style="animation-name: eaf-741-2, eaf-741-3, eaf-741-4, eaf-741-5; animation-composition: replace, add, add, replace;"><rect fill="#01507b" width="38.1" height="38.1" transform="translate(80.3 3.4)"></rect><rect fill="#01507b" width="37.6" height="38.1" transform="translate(270.2 3.4)"></rect><polygon points="345.8,117.1 345.8,41.5 383.9,41.5 383.9,193.3 345.8,193.3 345.8,230.9 307.8,230.9 307.8,268.9 345.8,268.9 345.8,307 383.9,307 383.9,344.6 307.8,344.6 307.8,307 270.2,307 270.2,268.9 118.4,268.9 118.4,307 80.3,307 80.3,344.6 4.7,344.6 4.7,307 42.8,307 42.8,268.9 80.3,268.9 80.3,230.9 42.8,230.9 42.8,193.3 4.7,193.3 4.7,41.5 42.8,41.5 42.8,117.1 80.3,117.1 80.3,79.6 118.4,79.6 118.4,41.5 156.5,41.5 156.5,79.6 232.1,79.6 232.1,41.5 270.2,41.5 270.2,79.6 307.8,79.6 307.8,117.1" fill="#01507b"></polygon><rect fill="#f4b526" width="38.1" height="38.1" transform="translate(118.4 117.1)"></rect><rect fill="#f4b526" width="38.1" height="38.1" transform="translate(232.1 117.1)"></rect></g></g></g></svg>