<svg xmlns="http://www.w3.org/2000/svg" viewBox="0 0 499.20001220703125 498.3999938964844" overflow="hidden" preserveAspectRatio="xMidYMid meet" id="eaf-11cc3-0"><defs><clipPath id="eaf-11cc3-1"><rect x="0" y="0" width="499.2" height="498.4"></rect></clipPath><style>#eaf-11cc3-0 * {animation: 10000ms linear infinite normal both running;offset-rotate:0deg}@keyframes eaf-11cc3-2{0%{opacity:0}57.33%{opacity:0}59.33%,100%{opacity:1}}@keyframes eaf-11cc3-3{0%,100%{transform:translate(249.6px,246.6px)}}@keyframes eaf-11cc3-4{0%{transform:scale(0.7332,0.7332)}10%{transform:scale(0.7332,0.7332);animation-timing-function:ease-in-out}15.67%{transform:scale(1.1,1.1);animation-timing-function:ease-in-out}18%,100%{transform:scale(1,1)}}@keyframes eaf-11cc3-5{0%,100%{transform:translate(-249.6px,-246.6px)}}@keyframes eaf-11cc3-6{0%{opacity:1}34.33%{opacity:1}39%,100%{opacity:0}}@keyframes eaf-11cc3-7{0%,100%{transform:none;offset-path:path("m249.6 246.5l0 0l-457.8447 0")}}@keyframes eaf-11cc3-8{0%{offset-distance:0%}80.33%{offset-distance:0%;animation-timing-function:ease-in-out}100%{offset-distance:100%}}@keyframes eaf-11cc3-9{0%,100%{transform:translate(-249.6px,-246.5px)}}@keyframes eaf-11cc3-10{0%,100%{transform:none;offset-path:path("m249.6 246.55l0 0l337.96 0")}}@keyframes eaf-11cc3-11{0%{offset-distance:0%}68%{offset-distance:0%;animation-timing-function:ease-in-out}93%,100%{offset-distance:100%}}@keyframes eaf-11cc3-12{0%{transform:rotate(0)}68%{transform:rotate(0);animation-timing-function:ease-in-out}93%,100%{transform:rotate(180deg)}}@keyframes eaf-11cc3-13{0%,100%{transform:translate(-249.6px,-246.55px)}}@keyframes eaf-11cc3-14{0%,100%{transform:none;offset-path:path("m249.6 246.5l0 0.1")}}@keyframes eaf-11cc3-15{0%{offset-distance:0%}65%,100%{offset-distance:100%}}@keyframes eaf-11cc3-16{0%{opacity:0}27.33%{opacity:0;animation-timing-function:ease-in-out}52.33%,100%{opacity:1}}</style></defs><g clip-path="url('#eaf-11cc3-1')" style="isolation: isolate;"><g><path fill="#ffcb29" d="m499.9 249.8c0 62.6 0 125.2 0 187.8c0 28.7 -21.6 54.9 -49.9 60.3c-4.2 0.8 -8.5 1.2 -12.8 1.2c-124.8 0.1 -249.6 0 -374.4 0c-30.6 0 -57.3 -23.5 -61.3 -53.9c-0.4 -2.7 -0.6 -5.4 -0.6 -8.1c0 -125.1 0 -250.2 0 -375.4c0 -28.7 21.7 -55 49.9 -60.3c4.2 -0.8 8.5 -1.2 12.8 -1.2c124.9 -0.1 249.8 -0.1 374.7 -0.1c28.7 0 55 21.7 60.3 49.9c0.8 4.2 1.2 8.5 1.2 12.8c0.0999 62.4 0.0999 124.7 0.0999 187z"></path><g transform="matrix(0.7332 0 0 0.7332 66.5993 65.7988)" opacity="0" style="animation-name: eaf-11cc3-2;"><polygon points="272.7,113.4 190.4,113.4 272.7,255.2 190.4,396.9 272.7,396.9 355,255.2" fill="#01507b" opacity="0.33"></polygon><polygon points="249.6,104.8 167.3,104.8 249.6,246.6 167.3,388.3 249.6,388.3 331.9,246.6" fill="#01507b"></polygon></g><g transform="matrix(0.7332 0 0 0.7332 66.5993 65.7988)" style="animation-name: eaf-11cc3-3, eaf-11cc3-4, eaf-11cc3-5, eaf-11cc3-6; animation-composition: replace, add, add, replace;"><polygon points="272.7,113.4 190.4,113.4 272.7,255.2 190.4,396.9 272.7,396.9 355,255.2" fill="#01507b" opacity="0.33"></polygon><polygon points="249.6,104.8 167.3,104.8 249.6,246.6 167.3,388.3 249.6,388.3 331.9,246.6" fill="#01507b"></polygon></g><g transform="translate(0 0)" opacity="0" style="animation-name: eaf-11cc3-14, eaf-11cc3-15, eaf-11cc3-9, eaf-11cc3-16; animation-composition: replace, add, add, replace;"><path fill="#282a2d" d="m113 51.4l273.2 0c32.3 0 58.5 26.2 58.5 58.5l0 273.2c0 32.3 -26.2 58.5 -58.5 58.5l-273.2 0c-32.3 0 -58.5 -26.2 -58.5 -58.5l0 -273.1c0 -32.4 26.2 -58.6 58.5 -58.6l0 0z" transform="translate(0 0)" style="animation-name: eaf-11cc3-7, eaf-11cc3-8, eaf-11cc3-9; animation-composition: replace, add, add;"></path><polygon points="249.6,104.8 167.3,104.8 249.6,246.6 167.3,388.3 249.6,388.3 331.9,246.6" fill="#e5a00d" transform="translate(0 0)" style="animation-name: eaf-11cc3-10, eaf-11cc3-11, eaf-11cc3-12, eaf-11cc3-13; animation-composition: replace, add, add, add;"></polygon></g></g></g></svg>