<svg xmlns="http://www.w3.org/2000/svg" viewBox="0 0 650 650" overflow="hidden" preserveAspectRatio="xMidYMid meet" id="eaf-11c2-0"><defs><clipPath id="eaf-11c2-1"><rect x="0" y="0" width="650" height="650"></rect></clipPath><style>#eaf-11c2-0 * {animation: 9000ms linear infinite normal both running;offset-rotate:0deg}@keyframes eaf-11c2-2{0%,100%{transform:none;offset-path:path("m337.6697 329.2582l-99.8132 87.7835l0 0l99.8132 -87.7835")}}@keyframes eaf-11c2-3{0%{offset-distance:0%;animation-timing-function:ease-in-out}10%{offset-distance:50%}67.96%{offset-distance:50%;animation-timing-function:ease-in-out}73.14%,100%{offset-distance:100%}}@keyframes eaf-11c2-4{0%{transform:scale(1.3175,1.3175);animation-timing-function:ease-in-out}10%{transform:scale(1,1)}67.96%{transform:scale(1,1);animation-timing-function:ease-in-out}73.14%,100%{transform:scale(1.3175,1.3175)}}@keyframes eaf-11c2-5{0%,100%{transform:translate(-237.8565px,-417.0417px)}}@keyframes eaf-11c2-6{0%,100%{transform:none;offset-path:path("m462.15 -159.963l0 333.863")}}@keyframes eaf-11c2-7{0%{animation-timing-function:step-start}3.33%{offset-distance:0%;animation-timing-function:ease-in-out}12.22%,100%{offset-distance:100%}}@keyframes eaf-11c2-8{0%,100%{transform:translate(-462.15px,-167.6997px)}}@keyframes eaf-11c2-9{0%{animation-timing-function:step-start}37.59%{fill:#01507b;animation-timing-function:ease-in-out}39.07%,100%{fill:#d80000}}@keyframes eaf-11c2-10{0%{opacity:0}17.22%{opacity:0;animation-timing-function:ease-in-out}18.14%{opacity:1}44.62%{opacity:1;animation-timing-function:ease-in-out}47.4%{opacity:0}49.26%{opacity:0;animation-timing-function:ease-in-out}50.92%{opacity:1}53.88%{opacity:1;animation-timing-function:ease-in-out}56.29%{opacity:0}59.07%{opacity:0;animation-timing-function:ease-in-out}60.73%,100%{opacity:1}}@keyframes eaf-11c2-11{0%{animation-timing-function:step-start}37.77%{fill:#01507b;animation-timing-function:ease-in-out}39.06%{fill:#e80000;animation-timing-function:ease-in-out}39.07%,100%{fill:#d80000}}@keyframes eaf-11c2-12{0%{opacity:0}19.63%{opacity:0;animation-timing-function:ease-in-out}20.56%{opacity:1}44.62%{opacity:1;animation-timing-function:ease-in-out}47.4%{opacity:0}49.26%{opacity:0;animation-timing-function:ease-in-out}50.92%{opacity:1}53.88%{opacity:1;animation-timing-function:ease-in-out}56.29%{opacity:0}59.07%{opacity:0;animation-timing-function:ease-in-out}60.73%,100%{opacity:1}}@keyframes eaf-11c2-13{0%{opacity:0}21.86%{opacity:0;animation-timing-function:ease-in-out}22.78%{opacity:1}44.62%{opacity:1;animation-timing-function:ease-in-out}47.4%{opacity:0}49.26%{opacity:0;animation-timing-function:ease-in-out}50.92%{opacity:1}53.88%{opacity:1;animation-timing-function:ease-in-out}56.29%{opacity:0}59.07%{opacity:0;animation-timing-function:ease-in-out}60.73%,100%{opacity:1}}@keyframes eaf-11c2-14{0%{opacity:0}24.08%{opacity:0;animation-timing-function:ease-in-out}25%{opacity:1}44.62%{opacity:1;animation-timing-function:ease-in-out}47.4%{opacity:0}49.26%{opacity:0;animation-timing-function:ease-in-out}50.92%{opacity:1}53.88%{opacity:1;animation-timing-function:ease-in-out}56.29%{opacity:0}59.07%{opacity:0;animation-timing-function:ease-in-out}60.73%,100%{opacity:1}}@keyframes eaf-11c2-15{0%{opacity:0}26.67%{opacity:0;animation-timing-function:ease-in-out}27.59%{opacity:1}44.62%{opacity:1;animation-timing-function:ease-in-out}47.4%{opacity:0}49.26%{opacity:0;animation-timing-function:ease-in-out}50.92%{opacity:1}53.88%{opacity:1;animation-timing-function:ease-in-out}56.29%{opacity:0}59.07%{opacity:0;animation-timing-function:ease-in-out}60.73%,100%{opacity:1}}@keyframes eaf-11c2-16{0%,100%{transform:none;offset-path:path("m462.15 167.6997l347.0103 0")}}@keyframes eaf-11c2-17{0%{animation-timing-function:step-start}66.29%{offset-distance:0%;animation-timing-function:ease-in-out}72.4%,100%{offset-distance:100%}}@keyframes eaf-11c2-18{0%,100%{transform:translate(246.9319px,417.0183px)}}@keyframes eaf-11c2-19{0%{animation-timing-function:step-start}16.29%{transform:scale(1,0.3796);animation-timing-function:ease-in-out}17.59%{transform:scale(0.8521,0.6418);animation-timing-function:ease-in-out}19.07%{transform:scale(0.9598,0.908);animation-timing-function:ease-in-out}20.73%{transform:scale(0.5768,0.908);animation-timing-function:ease-in-out}22.77%{transform:scale(0.7835,0.9418);animation-timing-function:ease-in-out}24.99%{transform:scale(0.9994,1.0918);animation-timing-function:ease-in-out}26.66%{transform:scale(0.8013,1.0918);animation-timing-function:ease-in-out}27.77%{transform:scale(0.9552,0.758);animation-timing-function:ease-in-out}28.51%{transform:scale(1,0.3796);animation-timing-function:ease-in-out}29.81%{transform:scale(0.8521,0.6418);animation-timing-function:ease-in-out}31.29%{transform:scale(0.9598,0.908);animation-timing-function:ease-in-out}32.96%{transform:scale(0.5768,0.908);animation-timing-function:ease-in-out}34.99%{transform:scale(0.7835,0.9418);animation-timing-function:ease-in-out}37.21%{transform:scale(0.9994,1.0918);animation-timing-function:ease-in-out}38.88%{transform:scale(0.8013,1.0918);animation-timing-function:ease-in-out}39.99%{transform:scale(0.9552,0.758);animation-timing-function:ease-in-out}40.73%{transform:scale(1,0.3796);animation-timing-function:ease-in-out}42.03%{transform:scale(0.8521,0.6418);animation-timing-function:ease-in-out}43.51%{transform:scale(0.9598,0.908);animation-timing-function:ease-in-out}45.18%{transform:scale(0.5768,0.908);animation-timing-function:ease-in-out}47.21%{transform:scale(0.7835,0.9418);animation-timing-function:ease-in-out}49.43%{transform:scale(0.9994,1.0918);animation-timing-function:ease-in-out}51.1%{transform:scale(0.8013,1.0918);animation-timing-function:ease-in-out}52.21%{transform:scale(0.9552,0.758);animation-timing-function:ease-in-out}52.96%{transform:scale(0.8521,0.6418);animation-timing-function:ease-in-out}54.43%{transform:scale(0.9598,0.908);animation-timing-function:ease-in-out}56.1%{transform:scale(0.5768,0.908);animation-timing-function:ease-in-out}58.13%{transform:scale(0.7835,0.9418);animation-timing-function:ease-in-out}60.36%{transform:scale(0.9994,1.0918);animation-timing-function:ease-in-out}62.02%{transform:scale(0.8013,1.0918);animation-timing-function:ease-in-out}63.13%{transform:scale(0.9552,0.758);animation-timing-function:ease-in-out}63.88%,100%{transform:scale(0.7353,0.8918)}}@keyframes eaf-11c2-20{0%,100%{transform:translate(-246.9319px,-417.0183px)}}@keyframes eaf-11c2-21{0%{opacity:0}16.29%{opacity:0;animation-timing-function:ease-in-out}17.03%{opacity:1}61.66%{opacity:1;animation-timing-function:ease-in-out}62.03%,100%{opacity:0}}@keyframes eaf-11c2-22{0%,100%{transform:translate(340.9853px,250.1562px)}}@keyframes eaf-11c2-23{0%{transform:scale(0,0)}72.22%{transform:scale(0,0);animation-timing-function:linear(0 0%,0.37 9%,0.65 18%,0.87 28%,1.01 38%,1.08 48%,1.1 59%,1 100%)}77.22%{transform:scale(1,1)}88.89%{transform:scale(1,1);animation-timing-function:ease-in-out}91.86%,100%{transform:scale(0,0)}}@keyframes eaf-11c2-24{0%,100%{transform:translate(0.9605px,8.9455px)}}</style></defs><g clip-path="url('#eaf-11c2-1')" style="isolation: isolate;"><g><path fill="#bee4fa" d="m651 325.1c0 81.6 0 163.1 0 244.7c0 37.4 -28.2 71.6 -65 78.6c-5.5 1 -11.1 1.6 -16.6 1.6c-162.6 0 -325.2 0 -487.7 0c-39.9 0.0001 -74.7 -30.5999 -79.9 -70.2c-0.5 -3.5 -0.8 -7 -0.8 -10.6c0 -163 0 -326 0 -488.9c0 -37.4 28.2 -71.6 65 -78.6c5.4 -1 11.1 -1.6 16.6 -1.6c162.7 -0.1 325.4 -0.1 488.1 -0.1c37.4 0 71.6 28.2 78.6 65c1 5.4 1.6 11.1 1.6 16.6c0.1 81.2 0.1 162.3 0.1 243.5l0 0l0 0z"></path><path fill="#01507b" d="m147.7 423c-7.9 -12.6 -22.7 -29.7 -22.7 -44.4c0 -8.3 6.6 -19.2 16 -21.6c-0.7 -12.5 -1.2 -25.1 -1.2 -37.7c0 -7.4 0.1 -14.9 0.4 -22.3c2.9 -33.3 26.8 -56.8 57.1 -67.8c12.1 -4.4 6.3 -24.9 19.6 -25.1c31.1 -0.8 82.3 27.7 102.3 49.3c12.7 14 20 32.2 20.4 51.2l-1.3 54.5c5.5 1.4 11.7 5.7 13.1 11.2c4.3 17.2 -13.6 38.6 -21.9 52.3c-7.7 12.6 -36.9 53.5 -36.9 53.8c-0.1 1.5 0.6 3.4 2.6 6.4c41 56.3 135.2 29.8 153.3 115.1c3.5 16.5 -9.1 32.1 -26 32.1l-372.1001 0c-14.7 0 -26 -13.3 -23.4 -27.8c15.8 -90.6 112.5 -62.2 154.1 -119.4c2.2 -3.3 3.3 -5.1 3.2 -6.5c0 -0.9 -33.6 -48.5 -36.6 -53.3l0 0z" transform="matrix(1.3175 0 0 1.3175 24.3053 -220.1739)" style="animation-name: eaf-11c2-2, eaf-11c2-3, eaf-11c2-4, eaf-11c2-5; animation-composition: replace, add, add, add;"></path><g transform="translate(0 0)" style="animation-name: eaf-11c2-16, eaf-11c2-17, eaf-11c2-8; animation-composition: replace, add, add;"><path fill="#fefadf" stroke="#01507b" stroke-width="17.3804" stroke-miterlimit="10" d="m371.4 308.4c2.2 -14.1 4.4 -28.2 6.6 -42.3c1.6 -10 3.1 -19.9 4.8 -29.9c0.7 -3.9 -0.6 -4.6 -3.9 -4.6c-65 0.1 41 -0.3 -23.9 0.4c-20.1 0.2 -35.7 -16.1 -38.3 -35.6c-0.4 -3.2 -0.7 -6.4 -0.7 -9.7c0 -55.6 0 -61.5 0 -117c0 -19.4 10.7 -36 26.4 -41.5c3.5 -1.3 7 -1.7 10.7 -1.7c88 0 129 0.2 217 -0.1c18.6 -0.1 33.8 14.1 37.4 34.8c0.8 4.2 0.8 8.3 0.8 12.6c0 54.4 0 59 -0.1 113.3c0 13.1 -3.8 24.9 -12.7 34.3c-6.5 6.9 -14.4 10.4 -23.5 10.4c-4.7 0 -133.3 0.3 -138 -0.1c-3.5 -0.3 -5.6 1.3 -7.7 4c-17.6 23.9 -35.3 47.8 -52.9 71.6c-0.4 0.5 -0.8 1.2 -1.3 1.7c-0.2 -0.3 -0.4 -0.4 -0.7 -0.6z" transform="translate(0 -327.6627)" style="animation-name: eaf-11c2-6, eaf-11c2-7, eaf-11c2-8; animation-composition: replace, add, add;"></path><g transform="translate(-2 16)"><path fill="#01507b" stroke="#fefadf" stroke-width="6" d="m455.4 104l-95.6 0c-6.7 0 -12.2 -5.4 -12.2 -12.2l0 -5.8c0 -6.7 5.4 -12.2 12.2 -12.2l95.6 0c6.7 0 12.2 5.4 12.2 12.2l0 5.8c0 6.7 -5.5 12.2 -12.2 12.2z" opacity="0" style="animation-name: eaf-11c2-9, eaf-11c2-10;"></path><path fill="#01507b" stroke="#fefadf" stroke-width="6" d="m516.3 104l-24.3 0c-6.7 0 -12.2 -5.4 -12.2 -12.2l0 -5.8c0 -6.7 5.4 -12.2 12.2 -12.2l24.3 0c6.7 0 12.2 5.4 12.2 12.2l0 5.8c0 6.7 -5.4 12.2 -12.2 12.2z" opacity="0" style="animation-name: eaf-11c2-11, eaf-11c2-12;"></path><path fill="#01507b" stroke="#fefadf" stroke-width="6" d="m573.2 102l-24.3 0c-6.7 0 -12.2 -5.4 -12.2 -12.2l0 -5.8c0 -6.7 5.4 -12.2 12.2 -12.2l24.3 0c6.7 0 12.2 5.4 12.2 12.2l0 5.8c0 6.8 -5.5 12.2 -12.2 12.2z" opacity="0" style="animation-name: eaf-11c2-11, eaf-11c2-13;"></path><path fill="#01507b" stroke="#fefadf" stroke-width="6" d="m384.1 146.5l-24.3 0c-6.7 0 -12.2 -5.4 -12.2 -12.2l0 -5.8c0 -6.7 5.4 -12.2 12.2 -12.2l24.3 0c6.7 0 12.2 5.4 12.2 12.2l0 5.8c0 6.8 -5.5 12.2 -12.2 12.2z" transform="translate(0 7)" opacity="0" style="animation-name: eaf-11c2-11, eaf-11c2-14;"></path><path fill="#01507b" stroke="#fefadf" stroke-width="6" d="m515.4 146.5l-95.6 0c-6.7 0 -12.2 -5.4 -12.2 -12.2l0 -5.8c0 -6.7 5.4 -12.2 12.2 -12.2l95.6 0c6.7 0 12.2 5.4 12.2 12.2l0 5.8c-0.1 6.8 -5.5001 12.2 -12.2 12.2z" transform="translate(0 7)" opacity="0" style="animation-name: eaf-11c2-11, eaf-11c2-15;"></path></g></g><path fill="#f9f1c0" d="m222.7 412.1l4.6 -5.7c1 -1.2 2.3 -2 3.7 -2.4l5.8 -1.5c3.5 -0.9 9.3 -2 12.7 -0.5l8.8 3.5l10.7 4.9l4.7 2.4c2.5 1.3 3.6 4.1 2.8 6.8l-1.1 3.4c-0.9 2.8 -3.1 5 -5.9 5.9l-9.9 3c-2.8 0.8 -5.7 1.1 -8.5 0.7l-20.9 -2.6c-2 -0.2 -3.9 -0.7 -5.8 -1.3l-3.7 -1.2c-3.2 -1.1 -4.6 -4.9 -2.8 -7.8l4.8 -7.6z" transform="matrix(1 0 0 0.3796 0 258.7195)" opacity="0" style="animation-name: eaf-11c2-18, eaf-11c2-19, eaf-11c2-20, eaf-11c2-21; animation-composition: replace, add, add, replace;"></path><path fill="#ffd736" d="m63.2004 81.7c0 0 -60.7771 -40.4241 -62.3577 -40.3919c-1.5806 0.0322 -59.0141 44.0458 -59.0141 44.0458c0 0 19.6645 -70.2942 19.1454 -71.7874c-0.5191 -1.4933 -60.1264 -42.5148 -60.1264 -42.5148c0 0 72.9304 -3.02 74.1902 -3.9752c1.2598 -0.9551 21.8539 -70.3214 21.8539 -70.3214c0 0 25.409 68.4277 26.7066 69.3306c1.2977 0.903 73.6329 -0.9462 73.6329 -0.9462c0 0 -57.2268 45.3107 -57.6846 46.8239c-0.4578 1.5132 23.6537 69.7366 23.6537 69.7366z" transform="matrix(0 0 0 0 340.9853 250.1562)" style="animation-name: eaf-11c2-22, eaf-11c2-23, eaf-11c2-24; animation-composition: replace, add, add;"></path></g></g></svg>