<svg xmlns="http://www.w3.org/2000/svg" viewBox="0 0 500 500" overflow="hidden" preserveAspectRatio="xMidYMid meet" id="eaf-b2c5-0"><defs><clipPath id="eaf-b2c5-1"><rect x="0" y="0" width="500" height="500"></rect></clipPath><style>#eaf-b2c5-0 * {animation: 9000ms linear infinite normal both running;offset-rotate:0deg}@keyframes eaf-b2c5-2{0%,100%{transform:none;offset-path:path("m250.5199 -798.8959l0 502.252l0 0l0 -88.4264l0 0l-0.3042 -78.6917l0 0l0 -107.5555l0 0l0 -110.5235l0 0l0 -67.8365l0 0l0 -120.5557")}}@keyframes eaf-b2c5-3{0%{offset-distance:0%;animation-timing-function:linear(0 0%,0.01 4%,0.06 8%,0.26 17%,0.56 25%,1 33.38%,0.62 42%,0.53 46%,0.5 50%,0.53 54%,0.61 58%,1 66.76%,0.81 71%,0.75 75%,0.8 79%,1 83.44%,0.89 86%,0.88 88%,1 91.79%,0.94 94%,1 96%,0.97 97%,1 98.04%,0.98 98.57%,1 100%)}33.33%{offset-distance:46.6846%}43.52%{offset-distance:46.6846%;animation-timing-function:ease-in-out}52.4%{offset-distance:54.9038%}55.37%{offset-distance:54.9038%;animation-timing-function:ease-in-out}61.11%{offset-distance:62.2183%}64.26%{offset-distance:62.2183%;animation-timing-function:ease-in-out}69.26%{offset-distance:72.2156%}72.02%{offset-distance:72.2156%;animation-timing-function:ease-in-out}77.97%{offset-distance:82.4889%}81.12%{offset-distance:82.4889%;animation-timing-function:ease-in-out}86.86%{offset-distance:88.7943%}89.63%{offset-distance:88.7943%;animation-timing-function:ease-in-out}96.11%,100%{offset-distance:100%}}@keyframes eaf-b2c5-4{0%{transform:rotate(0)}44.81%{transform:rotate(0);animation-timing-function:cubic-bezier(0.78,0,0.87,1)}53.7%{transform:rotate(-2.9deg);animation-timing-function:ease-in-out}62.41%{transform:rotate(3deg);animation-timing-function:ease-in-out}70.74%{transform:rotate(-3deg);animation-timing-function:ease-in-out}79.44%{transform:rotate(2deg);animation-timing-function:ease-in-out}88.33%{transform:rotate(-3deg);animation-timing-function:ease-in-out}97.96%{transform:rotate(3deg)}99.88%{transform:rotate(2.5124deg)}100%{transform:rotate(2.4465deg)}}@keyframes eaf-b2c5-5{0%,100%{transform:translate(-250.9741px,382.8439px)}}</style></defs><g clip-path="url('#eaf-b2c5-1')" style="isolation: isolate;"><g><g transform="matrix(4 0 0 4 -827.28 -2254.5264)"><path fill="#bee4fa" d="m331.8 626.1c0 15.6 0 31.3 0 46.9c0 7.2 -5.4 13.7 -12.5 15.1c-1 0.2 -2.1 0.3 -3.2 0.3c-31.2 0 -62.4 0 -93.6 0c-7.6 0 -14.3 -5.9 -15.3 -13.5c-0.1 -0.7 -0.1 -1.4 -0.1 -2c0 -31.3 0 -62.5 0 -93.8c0 -7.2 5.4 -13.7 12.5 -15.1c1 -0.2 2.1 -0.3 3.2 -0.3c31.2 0 62.4 0 93.6 0c7.2 0 13.7 5.4 15.1 12.5c0.2 1 0.3 2.1 0.3 3.2c0 15.6 0 31.1 0 46.7z"></path></g><g transform="translate(-0.4542 -416.052)" style="animation-name: eaf-b2c5-2, eaf-b2c5-3, eaf-b2c5-4, eaf-b2c5-5; animation-composition: replace, add, add, add;"><path fill="#01507b" d="m395.7 117.1c-27.1 -12.7 -56 -21.9 -86.3 -27.1c-3.7 6.7 -8.1 15.8 -11.1 23c-32.2 -4.8 -64.1 -4.8 -95.7 0c-3 -7.2 -7.4 -16.2 -11.2 -23c-30.3 5.2 -59.3 14.5 -86.4 27.2c-54.6 82.5 -69.4 163 -62 242.4c36.2 27.1 71.3 43.5 105.9 54.2c8.5 -11.7 16.1 -24.2 22.7 -37.3c-12.5 -4.7 -24.4 -10.6 -35.7 -17.4c3 -2.2 5.9 -4.5 8.8 -6.9c68.8 32.2 143.6 32.2 211.6 0c2.9 2.4 5.8 4.7 8.8 6.9c-11.3 6.8 -23.3 12.7 -35.8 17.4c6.5 13.1 14.1 25.6 22.7 37.3c34.6 -10.8 69.7 -27.2 105.9 -54.3c8.7 -91.9 -14.8 -171.7 -62.2 -242.4z"></path><g><path fill="#bee4fa" d="m181 310.8c-20.7 0 -37.6 -19.3 -37.6 -42.8c0 -23.5 16.6 -42.8 37.6 -42.8c21 0 38 19.3 37.6 42.8c0.1 23.5 -16.6 42.8 -37.6 42.8z"></path><path fill="#bee4fa" d="m320 310.8c-20.7 0 -37.6 -19.3 -37.6 -42.8c0 -23.5 16.6 -42.8 37.6 -42.8c21 0 38 19.3 37.6 42.8c0 23.5 -16.6 42.8 -37.6 42.8z"></path></g></g></g></g></svg>