<svg xmlns="http://www.w3.org/2000/svg" viewBox="0 0 500 500" overflow="hidden" preserveAspectRatio="xMidYMid meet" id="eaf-15153-0"><defs><clipPath id="eaf-15153-1"><rect x="0" y="0" width="500" height="500"></rect></clipPath><style>#eaf-15153-0 * {animation: 9000ms linear infinite normal both running;offset-rotate:0deg}@keyframes eaf-15153-2{0%,100%{transform:translate(235.1px,184.6px)}}@keyframes eaf-15153-3{0%{transform:scale(0,1)}11.11%{transform:scale(1,1)}88.89%{transform:scale(1,1)}97.78%,100%{transform:scale(0,1)}}@keyframes eaf-15153-4{0%,100%{transform:translate(-235.1px,-184.6px)}}@keyframes eaf-15153-5{0%,100%{transform:translate(235.1px,274.3px)}}@keyframes eaf-15153-6{0%{transform:scale(0,1)}22.22%{transform:scale(0,1)}33.33%{transform:scale(1,1)}88.89%{transform:scale(1,1)}97.78%,100%{transform:scale(0,1)}}@keyframes eaf-15153-7{0%,100%{transform:translate(-235.1px,-274.3px)}}@keyframes eaf-15153-8{0%,100%{transform:translate(235.1px,369.1px)}}@keyframes eaf-15153-9{0%{transform:scale(0,1)}44.44%{transform:scale(0,1)}55.56%{transform:scale(1,1)}88.89%{transform:scale(1,1)}97.78%,100%{transform:scale(0,1)}}@keyframes eaf-15153-10{0%,100%{transform:translate(-235.1px,-369.1px)}}@keyframes eaf-15153-11{0%{opacity:0}61.11%{opacity:0}72.22%{opacity:1}83.33%{opacity:1}91.86%,100%{opacity:0}}@keyframes eaf-15153-12{0%{opacity:0}38.89%{opacity:0}50%{opacity:1}83.33%{opacity:1}91.86%,100%{opacity:0}}@keyframes eaf-15153-13{0%{opacity:0}16.67%{opacity:0}27.78%{opacity:1}83.33%{opacity:1}91.86%,100%{opacity:0}}</style></defs><g clip-path="url('#eaf-15153-1')" style="isolation: isolate;"><g><g transform="matrix(4 0 0 4 -827.28 -2254.5264)"><path fill="#bee4fa" d="m331.8 626.1c0 15.6 0 31.3 0 46.9c0 7.2 -5.4 13.7 -12.5 15.1c-1 0.2 -2.1 0.3 -3.2 0.3c-31.2 0 -62.4 0 -93.6 0c-7.6 0 -14.3 -5.9 -15.3 -13.5c-0.1 -0.7 -0.1 -1.4 -0.1 -2c0 -31.3 0 -62.5 0 -93.8c0 -7.2 5.4 -13.7 12.5 -15.1c1 -0.2 2.1 -0.3 3.2 -0.3c31.2 0 62.4 0 93.6 0c7.2 0 13.7 5.4 15.1 12.5c0.2 1 0.3 2.1 0.3 3.2c0 15.6 0 31.1 0 46.7z"></path></g><path fill="#fefadf" d="m397.8 455.4l-284.4 0c-18.5 0 -33.4 -15 -33.4 -33.4l0 -312.9c0 -18.5 15 -33.4 33.4 -33.4l284.5 0c18.5 0 33.4 15 33.4 33.4l0 312.9c0 18.4 -15 33.4 -33.5 33.4z" transform="matrix(1.0915 0 0 1 -23.4039 0)"></path><g><path fill="#01507b" d="m186.5 118.1l139 0c22 0 39.9 -16.5 39.9 -36.9c0 -20.4 -17.9 -36.9 -39.9 -36.9l-7.1 0c-3.1 -20.8 -22.4 -36.8 -45.7 -36.8l-33.4 0c-23.3 0 -42.6 16 -45.7 36.7l-7.1 0c-22 0 -39.9 16.5 -39.9 36.9c0 20.4 17.9 37 39.9 37z" transform="matrix(1 0 0 0.8373 0 10.2206)"></path><path fill="#01507b" d="m383.7 52.1l-20.8 0c12.6 6.3 22 17.5 25.1 30.8c25.4 2 45.4 21.8 45.4 45.8l0 274.9c0 25.4 -22.3 46 -49.7 46l-259.1 0c-27.4 0 -49.7 -20.6 -49.7 -46l0 -274.9c0 -24 20 -43.8 45.4 -45.8c3.2 -13.3 12.5 -24.5 25.1 -30.8l-20.8 0c-45.7 0 -82.9 34.4 -82.9 76.7l0 274.9c0 42.3 37.2 76.7 82.9 76.7l259.1 0c45.7 0 82.9 -34.4 82.9 -76.7l0 -275c0 -42.3 -37.2 -76.6 -82.9 -76.6z"></path></g><g><path fill="#01507b" d="m374.9 169.3l-124.5 0c-8.5 0 -15.3 6.9 -15.3 15.3c0 8.4 6.9 15.3 15.3 15.3l124.5 0c8.5 0 15.3 -6.9 15.3 -15.3c0 -8.4 -6.8 -15.3 -15.3 -15.3z" transform="matrix(0 0 0 1 235.1 0)" style="animation-name: eaf-15153-2, eaf-15153-3, eaf-15153-4; animation-composition: replace, add, add;"></path><path fill="#01507b" d="m374.9 259l-124.5 0c-8.5 0 -15.3 6.9 -15.3 15.3c0 8.5 6.9 15.3 15.3 15.3l124.5 0c8.5 0 15.3 -6.9 15.3 -15.3c0 -8.4 -6.8 -15.3 -15.3 -15.3z" transform="matrix(0 0 0 1 235.1 0)" style="animation-name: eaf-15153-5, eaf-15153-6, eaf-15153-7; animation-composition: replace, add, add;"></path><path fill="#01507b" d="m374.9 353.8l-124.5 0c-8.5 0 -15.3 6.9 -15.3 15.3c0 8.5 6.9 15.3 15.3 15.3l124.5 0c8.5 0 15.3 -6.9 15.3 -15.3c0 -8.4 -6.8 -15.3 -15.3 -15.3z" transform="matrix(0 0 0 1 235.1 0)" style="animation-name: eaf-15153-8, eaf-15153-9, eaf-15153-10; animation-composition: replace, add, add;"></path></g><path fill="#01507b" d="m211.6 179.3c0 -29.5 -23.9 -53.5 -53.5 -53.5c-29.5 0 -53.5 23.9 -53.5 53.5c0 20.7 11.8 38.6 29 47.5c-17.2 8.9 -29 26.8 -29 47.5c0 20.7 11.8 38.6 29 47.5c-17.2 8.9 -29 26.8 -29 47.5c0 29.5 23.9 53.5 53.5 53.5c29.5 0 53.5 -23.9 53.5 -53.5c0 -20.7 -11.8 -38.6 -29 -47.5c17.2 -8.9 29 -26.8 29 -47.5c0 -20.7 -11.8 -38.6 -29 -47.5c17.3 -8.8 29 -26.8 29 -47.5z"></path><g><path fill="#f4b526" d="m192.5 349.1c4.1 4.1 4.1 10.7 0 14.8l-34 34c-2.1 2 -4.7 3.1 -7.4 3.1c-2.7 0 -5.4 -1 -7.4 -3.1l-20 -20c-4.1 -4.1 -4.1 -10.7 0 -14.8c4.1 -4.1 10.7 -4.1 14.8 0l12.5 12.5l26.5 -26.5c4.3 -4.1 10.9 -4.1 15 0z" opacity="0" style="animation-name: eaf-15153-11;"></path><path fill="#f4b526" d="m192.5 250c4.1 4.1 4.1 10.7 0 14.8l-34 34c-2.1 2 -4.7 3.1 -7.4 3.1c-2.7 0 -5.4 -1 -7.4 -3.1l-20 -20c-4.1 -4.1 -4.1 -10.7 0 -14.8c4.1 -4.1 10.7 -4.1 14.8 0l12.5 12.5l26.5 -26.5c4.3 -4.1 10.9 -4.1 15 0z" opacity="0" style="animation-name: eaf-15153-12;"></path><path fill="#f4b526" d="m192.5 170.6l-34 34c-2.1 2 -4.7 3.1 -7.4 3.1c-2.7 0 -5.4 -1 -7.4 -3.1l-20 -20c-4.1 -4.1 -4.1 -10.7 0 -14.8c4.1 -4.1 10.7 -4.1 14.8 0l12.5 12.5l26.5 -26.5c4.1 -4.1 10.7 -4.1 14.8 0c4.3 4.1 4.3 10.7 0.2 14.8z" opacity="0" style="animation-name: eaf-15153-13;"></path></g></g></g></svg>