<svg xmlns="http://www.w3.org/2000/svg" viewBox="0 0 650 650" overflow="hidden" preserveAspectRatio="xMidYMid meet" id="eaf-12363-0"><defs><clipPath id="eaf-12363-1"><rect x="0" y="0" width="650" height="650"></rect></clipPath><style>#eaf-12363-0 * {animation: 11000ms linear infinite normal both running;offset-rotate:0deg}@keyframes eaf-12363-2{0%,100%{transform:none;offset-path:path("m197.7 452.7l347.8017 -324.2854l0 0l-853.5475 821.6116l505.7458 -497.3262")}}@keyframes eaf-12363-3{0%{animation-timing-function:step-start}60.29%{offset-distance:0%;animation-timing-function:ease-in-out}78.18%{offset-distance:20.0682%}79.25%{offset-distance:20.0682%;animation-timing-function:ease-in-out}81.06%{offset-distance:70.0661%;animation-timing-function:ease-in-out}84.69%,100%{offset-distance:100%}}@keyframes eaf-12363-4{0%{animation-timing-function:step-start}35.75%{transform:rotate(0);animation-timing-function:ease-in-out}57.72%,100%{transform:rotate(360deg)}}@keyframes eaf-12363-5{0%,100%{transform:translate(-197.7px,-452.7px)}}@keyframes eaf-12363-6{0%{animation-timing-function:step-start}78.79%{opacity:1;animation-timing-function:ease-in-out}78.94%{opacity:0}81.06%{opacity:0;animation-timing-function:ease-in-out}81.21%,100%{opacity:1}}@keyframes eaf-12363-7{0%,100%{transform:none;offset-path:path("m197.7 452.7l396.8133 -391.6969l0 0l-804.5591 793.4232l407.7458 -401.7263")}}@keyframes eaf-12363-8{0%{animation-timing-function:step-start}67.42%{offset-distance:0%;animation-timing-function:ease-in-out}78.18%{offset-distance:24.672%}79.25%{offset-distance:24.672%;animation-timing-function:ease-in-out}81.06%{offset-distance:74.672%;animation-timing-function:ease-in-out}85.45%,100%{offset-distance:100%}}@keyframes eaf-12363-9{0%{animation-timing-function:step-start}36.95%{transform:rotate(0);animation-timing-function:ease-in-out}58.93%,100%{transform:rotate(360deg)}}@keyframes eaf-12363-10{0%,100%{transform:none;offset-path:path("m197.7 452.7l543.6737 -506.5501l-31.0604 29.4647l0 0l-778.3229 734.4392l265.7096 -257.3539")}}@keyframes eaf-12363-11{0%{animation-timing-function:step-start}69.85%{offset-distance:0%;animation-timing-function:ease-in-out}78.17%{offset-distance:33.3829%;animation-timing-function:ease-in-out}78.18%{offset-distance:35.3063%}79.25%{offset-distance:35.3063%;animation-timing-function:ease-in-out}81.06%{offset-distance:83.3819%;animation-timing-function:ease-in-out}90.9%,100%{offset-distance:100%}}@keyframes eaf-12363-12{0%,100%{transform:translate(197.7px,452.7px)}}@keyframes eaf-12363-13{0%{animation-timing-function:step-start}8.47%{transform:rotate(0);animation-timing-function:ease-in-out}35.75%,100%{transform:rotate(360deg)}}</style></defs><g clip-path="url('#eaf-12363-1')" style="isolation: isolate;"><g><path fill="#bee4fa" d="m651 325.1c0 81.6 0 163.1 0 244.7c0 37.4 -28.2 71.6 -65 78.6c-5.5 1 -11.1 1.6 -16.6 1.6c-162.6 0 -325.2 0 -487.7 0c-39.9 0.0001 -74.7 -30.5999 -79.9 -70.2c-0.5 -3.5 -0.8 -7 -0.8 -10.6c0 -163 0 -326 0 -488.9c0 -37.4 28.2 -71.6 65 -78.6c5.4 -1 11.1 -1.6 16.6 -1.6c162.7 -0.1 325.4 -0.1 488.1 -0.1c37.4 0 71.6 28.2 78.6 65c1 5.4 1.6 11.1 1.6 16.6c0.1 81.2 0.1 162.3 0.1 243.5l0 0l0 0z"></path><g><path fill="#fefadf" d="m201.6 79.2l246.8 0c67.6 0 122.4 54.8 122.4 122.4l0 246.8c0 67.6 -54.8 122.4 -122.4 122.4l-246.8 0c-67.6 -0.0001 -122.4 -54.8 -122.4 -122.4001l0 -246.8c0 -67.6 54.8 -122.4 122.4 -122.4z"></path><path fill="#01507b" d="m448.4 582.8l-246.8 0c-74.1 0 -134.4 -60.3 -134.4 -134.4l0 -246.8c0 -74.1 60.3 -134.4 134.4 -134.4l246.8 0c74.1 0 134.4 60.3 134.4 134.4l0 246.8c-0.0001 74.1 -60.3 134.4 -134.4001 134.4zm-246.8 -491.6c-60.9 0 -110.4 49.5 -110.4 110.4l0 246.8c0 60.9 49.5 110.4 110.4 110.4l246.8 0c60.9 0 110.4 -49.5 110.4 -110.4l0 -246.8c0 -60.9 -49.5 -110.4 -110.4 -110.4l-246.8 0z"></path></g><g style="animation-name: eaf-12363-12, eaf-12363-13, eaf-12363-5; animation-composition: replace, add, add;"><path fill="#01507b" d="m398.7 250.9c-61.9 -61.9 -142.8 -98 -229.7 -102.8c-10.9 -0.6 -20 8.1 -20 19l0 31.4c0 10.1 7.9 18.4 18 19c69 4.3 133.3 33.2 182.6 82.4c49.3 49.3 78.2 113.6 82.4 182.6c0.6 10.1 8.9 18 19 18l31.4 0c10.9 0 19.6 -9.1 19 -20c-4.7 -86.8 -40.8 -167.7 -102.7 -229.6z" style="animation-name: eaf-12363-2, eaf-12363-3, eaf-12363-4, eaf-12363-5, eaf-12363-6; animation-composition: replace, add, add, add, replace;"></path><path fill="#01507b" d="m148.4 286l0 29.4c0 10.2 7.7 18.9 17.8 20c77.3 8.3 139 69.9 147.3 147.3c1.1 10.2 9.7 17.8 20 17.8l29.4 0c11.8 0 21.1 -10.2 20 -22c-10.5 -112.3 -100.2 -202 -212.6 -212.5c-11.8 -1.1 -21.9 8.2 -21.9 20z" style="animation-name: eaf-12363-7, eaf-12363-8, eaf-12363-9, eaf-12363-5, eaf-12363-6; animation-composition: replace, add, add, add, replace;"></path><ellipse fill="#01507b" rx="49.7" ry="49.7" transform="translate(197.7 452.7)" style="animation-name: eaf-12363-10, eaf-12363-11, eaf-12363-6; animation-composition: replace, add, replace;"></ellipse></g></g></g></svg>