<svg xmlns="http://www.w3.org/2000/svg" viewBox="0 0 500 500" overflow="hidden" preserveAspectRatio="xMidYMid meet" id="eaf-5ee8-0"><defs><clipPath id="eaf-5ee8-1"><rect x="0" y="0" width="500" height="500"></rect></clipPath><linearGradient gradientUnits="userSpaceOnUse" x1="87.9937" y1="87.0763" x2="285.7813" y2="285.526" id="eaf-5ee8-2"><stop stop-color="#387eb8" offset="0"></stop><stop stop-color="#366994" offset="1"></stop></linearGradient><linearGradient gradientUnits="userSpaceOnUse" x1="209.6287" y1="213.4122" x2="422.0538" y2="416.9247" id="eaf-5ee8-3"><stop stop-color="#ffe052" offset="0"></stop><stop stop-color="#ffc331" offset="1"></stop></linearGradient><style>#eaf-5ee8-0 * {animation: 18000ms linear infinite normal both running;offset-rotate:0deg}@keyframes eaf-5ee8-4{0%,100%{transform:none;offset-path:path("m250.1295 728.5064l0 0l0 -473.6826l0 0l0 -492.3972")}}@keyframes eaf-5ee8-5{0%{offset-distance:0%}55.56%{offset-distance:0%;animation-timing-function:ease-in-out}61.11%{offset-distance:49.0314%}66.67%{offset-distance:49.0314%;animation-timing-function:ease-in-out}72.22%,100%{offset-distance:100%}}@keyframes eaf-5ee8-6{0%,100%{transform:translate(-250.5px,-250.45px)}}@keyframes eaf-5ee8-7{0%,100%{transform:none;offset-path:path("m250.1295 725.5064l0 0l0 -476.6826l0 0l0 -471.3972")}}@keyframes eaf-5ee8-8{0%{offset-distance:0%}77.78%{offset-distance:0%;animation-timing-function:ease-in-out}83.33%{offset-distance:50.2787%}88.89%{offset-distance:50.2787%;animation-timing-function:ease-in-out}94.44%,100%{offset-distance:100%}}@keyframes eaf-5ee8-9{0%,100%{transform:translate(-250.5px,-250.4122px)}}@keyframes eaf-5ee8-10{0%,100%{transform:none;offset-path:path("m250.1295 703.4627l0 0l0 -457.639l0 0l0 -447.4472")}}@keyframes eaf-5ee8-11{0%{offset-distance:0%}66.67%{offset-distance:0%;animation-timing-function:ease-in-out}72.22%{offset-distance:50.563%}77.78%{offset-distance:50.563%;animation-timing-function:ease-in-out}83.33%,100%{offset-distance:100%}}@keyframes eaf-5ee8-12{0%,100%{transform:translate(-250.5px,-250.35px)}}@keyframes eaf-5ee8-13{0%,100%{transform:none;offset-path:path("m250.1295 725.5064l0 0l0 -470.6826l0 0l0 -484.3972")}}@keyframes eaf-5ee8-14{0%{offset-distance:0%}44.44%{offset-distance:0%;animation-timing-function:ease-in-out}50%{offset-distance:49.282%}55.56%{offset-distance:49.282%;animation-timing-function:ease-in-out}61.11%,100%{offset-distance:100%}}@keyframes eaf-5ee8-15{0%,100%{transform:translate(-255px,-246.7px)}}@keyframes eaf-5ee8-16{0%,100%{transform:none;offset-path:path("m250.1295 588.9883l0 0l0 -334.1646l0 0l0 -345.4489")}}@keyframes eaf-5ee8-17{0%{offset-distance:0%}33.33%{offset-distance:0%;animation-timing-function:ease-in-out}38.89%{offset-distance:49.1698%}44.44%{offset-distance:49.1698%;animation-timing-function:ease-in-out}50%,100%{offset-distance:100%}}@keyframes eaf-5ee8-18{0%,100%{transform:translate(-246.5224px,-250.4563px)}}@keyframes eaf-5ee8-19{0%,100%{transform:none;offset-path:path("m250.1295 725.5064l0 0l0 -470.6826l0 0l0 -492.3972")}}@keyframes eaf-5ee8-20{0%{offset-distance:0%}11.11%{offset-distance:0%;animation-timing-function:ease-in-out}16.67%{offset-distance:48.8727%}22.22%{offset-distance:48.8727%;animation-timing-function:ease-in-out}27.78%,100%{offset-distance:100%}}@keyframes eaf-5ee8-21{0%,100%{transform:translate(-252.15px,-252.55px)}}@keyframes eaf-5ee8-22{0%,100%{transform:none;offset-path:path("m250.1295 749.5285l0 0l0 -494.7048l0 0l0 -498.3972")}}@keyframes eaf-5ee8-23{0%{offset-distance:0%}22.22%{offset-distance:0%;animation-timing-function:ease-in-out}27.78%{offset-distance:49.8141%}33.33%{offset-distance:49.8141%;animation-timing-function:ease-in-out}38.89%,100%{offset-distance:100%}}@keyframes eaf-5ee8-24{0%,100%{transform:translate(-252.05px,-250.3322px)}}@keyframes eaf-5ee8-25{0%,100%{transform:none;offset-path:path("m250.1295 250l0 -375.0002l0 0l0 19.7454l0 733.4867l0 0l0 -378.232l0 0")}}@keyframes eaf-5ee8-26{0%{offset-distance:0%;animation-timing-function:ease-in-out}5.56%{offset-distance:24.8927%}11.11%{offset-distance:24.8927%;animation-timing-function:ease-in-out}13.15%{offset-distance:26.2034%}15.74%{offset-distance:74.8927%}88.89%{offset-distance:74.8927%;animation-timing-function:ease-in-out}94.44%,100%{offset-distance:100%}}@keyframes eaf-5ee8-27{0%,100%{transform:translate(-250.5593px,-241.0687px)}}@keyframes eaf-5ee8-28{0%{opacity:1}11.11%{opacity:1;animation-timing-function:ease-in-out}13.15%{opacity:0}19.82%{opacity:0;animation-timing-function:ease-in-out}22.41%,100%{opacity:1}}@keyframes eaf-5ee8-29{0%,100%{transform:none;offset-path:path("m250.1295 725.5064l0 -475.5064l0 0l0 -461.5689")}}@keyframes eaf-5ee8-30{0%{offset-distance:0%;animation-timing-function:ease-in-out}5.56%{offset-distance:50.7437%}11.11%{offset-distance:50.7437%;animation-timing-function:ease-in-out}16.67%,100%{offset-distance:100%}}@keyframes eaf-5ee8-31{0%,100%{transform:translate(-237.1159px,-236.3045px)}}</style></defs><g clip-path="url('#eaf-5ee8-1')" style="isolation: isolate;"><g><g transform="matrix(4 0 0 4 -827.28 -2254.5264)"><path fill="#bee4fa" d="m331.8 626.3c0 15.6 0 31.3 0 46.9c0 7.2 -5.4 13.7 -12.5 15.1c-1 0.2 -2.1 0.3 -3.2 0.3c-31.2 0 -62.4 0 -93.6 0c-7.6 0 -14.3 -5.9 -15.3 -13.5c-0.1 -0.7 -0.1 -1.4 -0.1 -2c0 -31.3 0 -62.5 0 -93.8c0 -7.2 5.4 -13.7 12.5 -15.1c1 -0.2 2.1 -0.3 3.2 -0.3c31.2 0 62.4 0 93.6 0c7.2 0 13.7 5.4 15.1 12.5c0.2 1 0.3 2.1 0.3 3.2c0 15.6 0 31.1 0 46.7z"></path></g><path fill="#555" d="m474.6 244.8l-19.1 -11.8c-0.2 -1.9 -0.3 -3.7 -0.5 -5.6l16.4 -15.3c2.7 -2.4 2.8 -6.6 0.4 -9.2c-0.7 -0.8 -1.6 -1.4 -2.6 -1.7l-21 -7.8c-0.5 -1.8 -1.1 -3.6 -1.6 -5.4l13.1 -18.2c2.1 -2.9 1.5 -7 -1.5 -9.2c-0.8 -0.6 -1.8 -1 -2.8 -1.2l-22.1 -3.6c-0.9 -1.7 -1.7 -3.3 -2.7 -5l9.3 -20.4c1.5 -3.3 0.1 -7.2 -3.2 -8.7c-1 -0.4 -2 -0.7 -3 -0.6l-22.4 0.8c-1.2 -1.4 -2.3 -2.9 -3.6 -4.3l5.2 -21.9c0.8 -3.5 -1.3 -7.1 -4.8 -7.9c-1 -0.2 -2.1 -0.2 -3.1 0l-21.8 5.1c-1.4 -1.2 -2.8 -2.4 -4.3 -3.6l0.8 -22.4c0.2 -3.6 -2.6 -6.7 -6.2 -6.8c-1 0 -2.1 0.2 -3 0.6l-20.5 9.5c-1.6 -0.9 -3.3 -1.8 -5 -2.7l-3.6 -22.1c-0.6 -3.6 -3.9 -6 -7.5 -5.4c-1 0.2 -2 0.6 -2.8 1.2l-18.2 13.1c-1.8 -0.6 -3.6 -1.1 -5.4 -1.6l-7.8 -21c-1.2 -3.4 -5 -5.1 -8.4 -3.9c-1 0.4 -1.8 0.9 -2.5 1.7l-15.3 16.4c-1.8 -0.2 -3.7 -0.4 -5.6 -0.5l-11.8 -19.1c-1.9 -3.1 -5.9 -4 -9 -2.1c-0.9 0.5 -1.6 1.3 -2.1 2.1l-11.8 19.1c-1.8 0.1 -3.7 0.3 -5.6 0.5l-15.3 -16.4c-2.5 -2.6 -6.7 -2.8 -9.3 -0.3c-0.7 0.7 -1.3 1.5 -1.6 2.4l-7.8 21c-1.8 0.5 -3.6 1.1 -5.4 1.6l-18.2 -13.1c-2.9 -2.1 -7 -1.5 -9.1 1.4c-0.6 0.8 -1 1.8 -1.2 2.9l-3.7 22.1c-1.7 0.9 -3.3 1.8 -5 2.7l-20.4 -9.3c-3.3 -1.5 -7.2 -0.1 -8.7 3.2c-0.4 0.9 -0.6 2 -0.6 3l0.8 22.4c-1.4 1.2 -2.9 2.3 -4.3 3.6l-21.8 -5.2c-3.5 -0.8 -7.1 1.4 -7.9 4.9c-0.2 1 -0.2 2 0 3l5.2 21.9c-1.2 1.4 -2.4 2.8 -3.6 4.3l-22.4 -0.8c-3.6 -0.1 -6.7 2.7 -6.8 6.3c0 1 0.2 2 0.6 3l9.3 20.4c-0.9 1.6 -1.8 3.3 -2.7 5l-22.1 3.6c-3.6 0.6 -6 3.9 -5.4 7.5c0.2 1 0.6 2 1.2 2.8l13.1 18.2c-0.6 1.8 -1.1 3.6 -1.6 5.4l-21 7.9c-3.4 1.3 -5.1 5 -3.8 8.4c0.4 1 0.9 1.8 1.7 2.5l16.2 15.2c-0.2 1.8 -0.4 3.7 -0.6 5.6l-19.1 11.8c-3.1 1.9 -4 5.9 -2.1 9c0.5 0.9 1.3 1.6 2.1 2.1l19.1 11.8c0.2 1.9 0.3 3.7 0.6 5.6l-16.4 15.3c-2.7 2.5 -2.8 6.6 -0.3 9.3c0.7 0.7 1.6 1.3 2.5 1.7l21 7.8c0.5 1.8 1.1 3.6 1.6 5.4l-13.1 18.2c-2.1 2.9 -1.4 7 1.5 9.2c0.8 0.6 1.8 1 2.8 1.2l22.1 3.6c0.9 1.7 1.7 3.3 2.7 5l-9.4 20.2c-1.5 3.3 -0.1 7.2 3.2 8.7c0.9 0.4 1.9 0.6 3 0.6l22.4 -0.8c1.2 1.5 2.3 2.9 3.6 4.3l-5.2 21.9c-0.8 3.5 1.3 7 4.8 7.9c1 0.2 2.1 0.2 3.1 0l21.8 -5.1c1.4 1.2 2.9 2.4 4.3 3.5l-0.8 22.4c-0.1 3.6 2.7 6.7 6.3 6.8c1 0 2.1 -0.2 3 -0.6l20.4 -9.3c1.6 0.9 3.3 1.8 5 2.7l3.6 22.1c0.6 3.6 3.9 6 7.5 5.5c1 -0.2 2 -0.6 2.9 -1.2l18.2 -13.1c1.8 0.6 3.6 1.1 5.4 1.6l7.8 21c1.2 3.4 5 5.1 8.4 3.9c1 -0.4 1.9 -0.9 2.6 -1.7l15.3 -16.4c1.8 0.2 3.7 0.4 5.6 0.6l11.8 19.1c1.9 3.1 6 4 9.1 2.1c0.9 -0.5 1.6 -1.3 2.1 -2.1l11.8 -19.1c1.9 -0.2 3.7 -0.3 5.6 -0.6l15.3 16.4c2.4 2.7 6.6 2.8 9.2 0.4c0.8 -0.7 1.3 -1.6 1.7 -2.5l7.9 -21c1.8 -0.5 3.6 -1.1 5.4 -1.6l18.2 13.1c3 2.1 7.1 1.4 9.2 -1.5c0.6 -0.8 1 -1.8 1.1 -2.8l3.6 -22.1c1.7 -0.9 3.3 -1.8 5 -2.7l20.4 9.3c3.3 1.5 7.2 0.1 8.7 -3.2c0.4 -0.9 0.6 -2 0.6 -3l-0.8 -22.4c1.4 -1.1 2.9 -2.3 4.3 -3.5l21.8 5.1c3.5 0.9 7 -1.3 7.9 -4.8c0.2 -1 0.2 -2.1 0 -3.1l-5.1 -21.9c1.2 -1.4 2.4 -2.8 3.5 -4.3l22.4 0.8c3.6 0.1 6.6 -2.7 6.8 -6.3c0 -1 -0.2 -2.1 -0.6 -3l-9.3 -20.4c0.9 -1.6 1.8 -3.3 2.7 -5l22.1 -3.6c3.6 -0.6 6 -3.9 5.5 -7.5c-0.2 -1 -0.6 -2 -1.2 -2.9l-13.1 -18.2c0.6 -1.8 1.1 -3.6 1.6 -5.4l21 -7.8c3.4 -1.2 5.1 -5 3.9 -8.4c-0.4 -1 -0.9 -1.9 -1.7 -2.6l-16.6 -15.2c0.2 -1.8 0.4 -3.7 0.6 -5.6l19.1 -11.8c3.1 -1.9 4 -5.9 2.1 -9c-0.6 -0.9 -1.3 -1.6 -2.2 -2.1l0 0zm-127.7 158.2c-7.3 -1.8 -11.7 -9.1 -9.9 -16.3c1.7 -7 8.6 -11.4 15.6 -10.1c7.3 1.7 11.7 9 10 16.3c-1.7 7 -8.6 11.5 -15.7 10.1l0 0zm-6.5 -43.8c-6.6 -1.4 -13.2 2.8 -14.6 9.5c0 0 0 0 0 0l-6.8 31.6c-21.5 9.8 -44.9 14.8 -68.6 14.8c-25 0 -48.7 -5.5 -70 -15.4l-6.8 -31.6c-1.4 -6.6 -7.9 -10.9 -14.6 -9.5c0 0 0 0 0 0l-27.9 6c-5.2 -5.3 -10 -11 -14.4 -17l135.8 0c1.5 0 2.6 -0.3 2.6 -1.7l0 -48c0 -1.4 -1 -1.7 -2.6 -1.7l-39.7 0l0 -30.5l42.9 0c3.9 0 21 1.1 26.4 22.9c1.7 6.7 5.5 28.5 8 35.5c2.6 7.8 13 23.5 24 23.5l67.7 0c0.8 0 1.6 -0.1 2.5 -0.2c-4.7 6.4 -9.8 12.4 -15.4 18l-28.5 -6.2l0 0zm-187.8 43.1c-7.3 1.4 -14.4 -3.5 -15.8 -10.8c-1.3 -7.1 3.1 -13.9 10.1 -15.6c7.3 -1.6 14.5 3.1 16 10.4c1.7 7.3 -3 14.5 -10.3 16l0 0zm-51.5 -208.8c3 6.8 0 14.8 -6.9 17.8c-6.9 3 -14.8 0 -17.8 -6.9c-3 -6.9 0 -14.8 6.9 -17.8c6.8 -3 14.8 0.1 17.8 6.9zm-15.8 37.5l29.1 -12.9c6.2 -2.8 9 -10 6.2 -16.3l-6 -13.5l23.5 0l0 106.1l-47.4 0c-5.9 -20.6 -7.7 -42.1 -5.4 -63.4l0 0zm127.6 -10.3l0 -31.3l56.1 0c2.9 0 20.5 3.4 20.5 16.5c0 10.9 -13.5 14.8 -24.5 14.8l-52.1 0l0 0zm203.8 28.2c0 4.1 -0.2 8.3 -0.5 12.3l-17 0c-1.7 0 -2.4 1.1 -2.4 2.8l0 7.8c0 18.4 -10.4 22.4 -19.5 23.5c-8.7 1 -18.3 -3.6 -19.5 -8.9c-5.1 -28.8 -13.6 -34.9 -27.1 -45.5c16.7 -10.6 34.1 -26.2 34.1 -47.2c0 -22.6 -15.5 -36.9 -26.1 -43.9c-14.8 -9.8 -31.2 -11.8 -35.7 -11.8l-176.3 0c24.4 -27.2 57 -45.7 92.9 -52.5l20.8 21.8c4.7 4.9 12.5 5.1 17.4 0.4l23.3 -22.2c48 9 89.5 38.6 113.7 81l-15.9 36c-2.8 6.2 0 13.5 6.2 16.3l30.7 13.6c0.6 5.4 0.8 10.9 0.9 16.5l0 0zm-176.2 -181.9c5.4 -5.1 13.9 -5 19.1 0.4c0 0 0 0 0 0c5.2 5.4 4.9 14 -0.5 19.1c0 0 0 0 0 0c-5.4 5.1 -13.9 4.9 -19.1 -0.4c0 0 0 0 0 0c-5.1 -5.4 -4.9 -13.9 0.5 -19.1l0 0zm157.9 127.1c3 -6.8 11 -9.9 17.8 -6.9c6.8 3 9.9 11 6.9 17.8l0 0c-3 6.8 -11 9.9 -17.8 6.9c-6.8 -3 -9.9 -11 -6.9 -17.8z" transform="translate(-0.3705 478.0563)" style="animation-name: eaf-5ee8-4, eaf-5ee8-5, eaf-5ee8-6; animation-composition: replace, add, add;"></path><g transform="translate(-0.3705 475.0941)" style="animation-name: eaf-5ee8-7, eaf-5ee8-8, eaf-5ee8-9; animation-composition: replace, add, add;"><ellipse fill="#087a9f" rx="42.6" ry="42.6" transform="translate(250.5 250.3)"></ellipse><path fill="#087a9f" d="m415.7 179c-8.3 -3.2 -17.2 -6.1 -26.5 -8.7c2.4 -9.4 4.3 -18.5 5.7 -27.3c8 -50.1 -0.8 -85.4 -25 -99.4c-24.2 -14 -59.2 -4 -98.6 28c-6.9 5.6 -13.9 11.8 -20.8 18.6c-6.9 -6.7 -13.9 -12.9 -20.8 -18.6c-39.4 -32 -74.4 -42 -98.6 -28c-24.2 14 -33 49.3 -25 99.4c1.4 8.8 3.3 17.9 5.7 27.3c-9.3 2.6 -18.1 5.5 -26.5 8.7c-47.4 18.1 -73.6 43.5 -73.6 71.4c0 27.9 26.1 53.2 73.6 71.4c8.3 3.2 17.2 6.1 26.5 8.7c-2.4 9.4 -4.3 18.5 -5.7 27.3c-8 50.1 0.8 85.4 25 99.4c7.1 4.1 15.2 6.2 24.1 6.2c21.2 0 46.7 -11.6 74.5 -34.2c6.9 -5.6 13.9 -11.8 20.8 -18.6c6.9 6.7 13.9 12.9 20.8 18.6c27.8 22.6 53.4 34.2 74.5 34.2c8.9 0 16.9 -2 24.1 -6.2c24.2 -14 33 -49.3 25 -99.4c-1.4 -8.8 -3.3 -17.9 -5.7 -27.3c9.3 -2.6 18.1 -5.5 26.5 -8.7c47.4 -18.1 73.6 -43.5 73.6 -71.4c0 -28 -26.2 -53.3 -73.6 -71.4zm-131.3 -91.3c23.9 -19.4 45.2 -29.6 61.1 -29.6c5.3 0 10 1.1 14 3.4c15.9 9.2 21.4 37.7 14.9 78.1c-1.3 8.2 -3.1 16.7 -5.3 25.5c-19.9 -4.5 -41.3 -7.8 -63.7 -9.9c-13 -18.4 -26.6 -35.3 -40.4 -50.2c6.5 -6.3 12.9 -12.1 19.4 -17.3zm32.6 201c-7.4 12.8 -15.1 25.1 -23.1 36.8c-14.1 1.1 -28.7 1.6 -43.4 1.6c-14.8 0 -29.3 -0.5 -43.4 -1.6c-8 -11.7 -15.7 -24 -23.1 -36.8c-7.4 -12.8 -14.2 -25.6 -20.3 -38.4c6.2 -12.8 13 -25.6 20.3 -38.4c7.4 -12.8 15.1 -25.1 23.1 -36.8c14.1 -1.1 28.7 -1.6 43.4 -1.6c14.8 0 29.3 0.5 43.4 1.6c8 11.7 15.7 24 23.1 36.8c7.4 12.8 14.2 25.6 20.3 38.4c-6.1 12.8 -12.9 25.7 -20.3 38.4zm31.4 -14c5.9 13.9 10.9 27.6 15.1 40.8c-13.6 3 -27.9 5.5 -42.9 7.4c4.9 -7.7 9.8 -15.7 14.5 -23.8c4.6 -8.1 9.1 -16.3 13.3 -24.4zm-97.9 106c-9.4 -10.2 -18.8 -21.4 -27.8 -33.5c9.2 0.4 18.5 0.6 27.8 0.6c9.3 0 18.7 -0.2 27.8 -0.6c-9.1 12.1 -18.4 23.3 -27.8 33.5zm-70 -57.8c-15 -1.9 -29.3 -4.3 -42.9 -7.4c4.2 -13.3 9.2 -27 15.1 -40.8c4.2 8.2 8.7 16.3 13.4 24.4c4.6 8.1 9.4 16.1 14.4 23.8zm-27.9 -96.9c-5.9 -13.9 -10.9 -27.6 -15.1 -40.8c13.6 -3 27.9 -5.5 42.9 -7.4c-4.9 7.7 -9.8 15.7 -14.5 23.8c-4.6 8 -9.1 16.2 -13.3 24.4zm97.9 -106.1c9.4 10.2 18.8 21.4 27.8 33.5c-9.2 -0.4 -18.5 -0.6 -27.8 -0.6c-9.4 0 -18.7 0.2 -27.8 0.6c9 -12.1 18.4 -23.3 27.8 -33.5zm84.5 81.6c-4.7 -8.1 -9.5 -16.1 -14.5 -23.8c15 1.9 29.3 4.3 42.9 7.4c-4.2 13.3 -9.2 27 -15.1 40.8c-4.1 -8.1 -8.6 -16.3 -13.3 -24.4zm-208.4 -61.9c-6.5 -40.4 -1.1 -68.9 14.9 -78.1c4 -2.3 8.7 -3.4 14 -3.4c15.9 0 37.3 10.2 61.1 29.6c6.5 5.2 12.9 11 19.4 17.3c-13.8 15 -27.4 31.8 -40.4 50.2c-22.4 2.1 -43.8 5.4 -63.7 9.9c-2.2 -8.7 -4 -17.2 -5.3 -25.5zm-33.9 162.7c-38.3 -14.6 -60.2 -33.6 -60.2 -52c0 -18.4 21.9 -37.4 60.2 -52c7.8 -3 16 -5.7 24.7 -8.2c6 19.5 13.9 39.7 23.3 60.1c-9.4 20.4 -17.2 40.7 -23.3 60.1c-8.7 -2.3 -16.9 -5 -24.7 -8zm123.9 110.7c-31.8 25.8 -59.2 35.4 -75.1 26.2c-15.9 -9.2 -21.4 -37.7 -14.9 -78.1c1.3 -8.2 3.1 -16.7 5.3 -25.5c19.9 4.5 41.3 7.8 63.7 9.9c13 18.4 26.6 35.3 40.4 50.2c-6.5 6.2 -12.9 12 -19.4 17.3zm157.8 -52c6.5 40.4 1.1 68.9 -14.9 78.1c-15.9 9.2 -43.3 -0.3 -75.1 -26.2c-6.5 -5.2 -12.9 -11 -19.4 -17.3c13.8 -15 27.4 -31.8 40.4 -50.2c22.4 -2.1 43.8 -5.4 63.7 -9.9c2.2 8.8 4 17.3 5.3 25.5zm33.9 -58.7c-7.8 3 -16 5.7 -24.7 8.2c-6 -19.5 -13.9 -39.7 -23.3 -60.1c9.4 -20.4 17.2 -40.7 23.3 -60.1c8.7 2.5 16.9 5.2 24.7 8.2c38.3 14.6 60.2 33.6 60.2 52c0 18.4 -21.9 37.2 -60.2 51.8z"></path></g><g transform="translate(-0.3704 453.1127)" style="animation-name: eaf-5ee8-10, eaf-5ee8-11, eaf-5ee8-12; animation-composition: replace, add, add;"><path fill="url('#eaf-5ee8-2')" d="m249.1 51.4c-101.5 0 -95.2 44 -95.2 44l0.1 45.6l96.9 0l0 13.7l-135.4 0c0 0 -65 -7.4 -65 95.1c0 102.4 56.7 98.8 56.7 98.8l33.9 0l0 -47.6c0 0 -1.8 -56.7 55.8 -56.7l96.1 0c0 0 54 0.9 54 -52.2l0 -87.7c0 0.1 8.2 -53 -97.9 -53zm-53.5 30.6c9.6 0 17.4 7.8 17.4 17.4c0 9.6 -7.8 17.4 -17.4 17.4c-9.6 0 -17.4 -7.8 -17.4 -17.4c0 0 0 0 0 -0.1c0 -9.5 7.8 -17.3 17.4 -17.3z"></path><path fill="url('#eaf-5ee8-3')" d="m251.9 449.3c101.5 0 95.2 -44 95.2 -44l-0.1 -45.6l-96.9 0l0 -13.7l135.4 0c0 0 65 7.4 65 -95.1c0 -102.5 -56.7 -98.9 -56.7 -98.9l-33.8 0l0 47.5c0 0 1.8 56.7 -55.8 56.7l-96.2 0c0 0 -54 -0.9 -54 52.2l0 87.7c0 0.1 -8.2 53.2 97.9 53.2zm53.5 -30.7c-9.6 0 -17.4 -7.8 -17.4 -17.4c0 0 0 0 0 -0.1c0 -9.6 7.8 -17.4 17.4 -17.4c9.6 0 17.4 7.8 17.4 17.4c0 9.7 -7.8 17.5 -17.4 17.5z"></path></g><g transform="translate(-4.8705 478.8063)" style="animation-name: eaf-5ee8-13, eaf-5ee8-14, eaf-5ee8-15; animation-composition: replace, add, add;"><path fill="#00599c" d="m446.1 357c3.1 -5.3 5 -11.3 5 -16.7l0 -187.2c0 -5.4 -1.9 -11.4 -5 -16.7l-191.1 110.3l191.1 110.3z"></path><path fill="#004482" d="m272 463.3l162.1 -93.6c4.7 -2.7 8.9 -7.4 12 -12.7l-191.1 -110.3l-191.1 110.3c3.1 5.3 7.3 10 12 12.7l162.1 93.6c9.3 5.4 24.6 5.4 34 0z"></path><path fill="#659ad2" d="m446.1 136.4c-3.1 -5.3 -7.3 -10 -12 -12.7l-162.1 -93.6c-9.3 -5.4 -24.6 -5.4 -34 0l-162.1 93.6c-9.3 5.4 -17 18.6 -17 29.4l0 187.2c0 5.4 1.9 11.4 5 16.7l191.1 -110.3l191.1 -110.3z"></path><g><path fill="#fff" d="m255 377.4c-72.1 0 -130.7 -58.6 -130.7 -130.7c0 -72.1 58.6 -130.7 130.7 -130.7c46.5 0 89.9 25 113.2 65.3l-56.6 32.7c-11.7 -20.2 -33.4 -32.7 -56.6 -32.7c-36 0 -65.4 29.3 -65.4 65.4c0 36 29.3 65.4 65.4 65.4c23.3 0 45 -12.5 56.6 -32.7l56.6 32.7c-23.3 40.3 -66.7 65.3 -113.2 65.3z"></path></g><g><polygon points="385.7,239.4 371.2,239.4 371.2,224.9 356.7,224.9 356.7,239.4 342.1,239.4 342.1,253.9 356.7,253.9 356.7,268.5 371.2,268.5 371.2,253.9 385.7,253.9" fill="#fff"></polygon></g><g><polygon points="440.2,239.4 425.6,239.4 425.6,224.9 411.1,224.9 411.1,239.4 396.6,239.4 396.6,253.9 411.1,253.9 411.1,268.5 425.6,268.5 425.6,253.9 440.2,253.9" fill="#fff"></polygon></g></g><g transform="translate(3.6071 338.532)" style="animation-name: eaf-5ee8-16, eaf-5ee8-17, eaf-5ee8-18; animation-composition: replace, add, add;"><g><g><g><path fill="#555" d="m45.2 215.4c-0.9 0 -1.2 -0.5 -0.7 -1.2l4.8 -6.2c0.5 -0.7 1.6 -1.2 2.5 -1.2l82.4 0c0.9 0 1.2 0.7 0.7 1.4l-3.9 6c-0.5 0.7 -1.6 1.4 -2.3 1.4l-83.5 -0.2z"></path></g></g></g><g><g><g><path fill="#555" d="m10.3 236.6c-0.9 0 -1.2 -0.5 -0.7 -1.2l4.8 -6.2c0.5 -0.7 1.6 -1.2 2.5 -1.2l105.3 0c0.9 0 1.4 0.7 1.2 1.4l-1.8 5.5c-0.2 0.9 -1.2 1.4 -2.1 1.4l-109.2 0.3z"></path></g></g></g><g><g><g><path fill="#555" d="m66.2 257.9c-0.9 0 -1.2 -0.7 -0.7 -1.4l3.2 -5.8c0.5 -0.7 1.4 -1.4 2.3 -1.4l46.2 0c0.9 0 1.4 0.7 1.4 1.6l-0.5 5.5c0 0.9 -0.9 1.6 -1.6 1.6l-50.3 -0.1z"></path></g></g></g><g><g><g><g><path fill="#555" d="m305.8 211.2c-14.5 3.7 -24.5 6.5 -38.8 10.2c-3.5 0.9 -3.7 1.2 -6.7 -2.3c-3.5 -3.9 -6 -6.5 -10.9 -8.8c-14.5 -7.2 -28.6 -5.1 -41.8 3.5c-15.7 10.2 -23.8 25.2 -23.6 43.9c0.2 18.5 12.9 33.7 31.2 36.2c15.7 2.1 28.9 -3.5 39.3 -15.2c2.1 -2.5 3.9 -5.3 6.2 -8.5c-8.3 0 -18.7 0 -44.6 0c-4.8 0 -6 -3 -4.4 -6.9c3 -7.2 8.5 -19.2 11.8 -25.2c0.7 -1.4 2.3 -3.7 5.8 -3.7c11.8 0 55.2 0 84 0c-0.5 6.2 -0.5 12.5 -1.4 18.7c-2.5 16.6 -8.8 31.9 -18.9 45.3c-16.6 21.9 -38.3 35.6 -65.8 39.3c-22.6 3 -43.6 -1.4 -62.1 -15.2c-17.1 -12.9 -26.8 -30 -29.3 -51.3c-3 -25.2 4.4 -47.8 19.6 -67.6c16.4 -21.5 38.1 -35.1 64.6 -39.9c21.7 -3.9 42.5 -1.4 61.2 11.3c12.2 8.1 21 19.2 26.8 32.6c1.5 1.8 0.6 2.9 -2.2 3.6z"></path></g><g><path fill="#555" d="m382.3 338.9c-21 -0.5 -40.2 -6.5 -56.3 -20.3c-13.6 -11.8 -22.2 -26.8 -24.9 -44.6c-4.2 -26.1 3 -49.2 18.7 -69.7c16.9 -22.2 37.2 -33.7 64.6 -38.6c23.6 -4.2 45.7 -1.8 65.8 11.8c18.2 12.5 29.6 29.3 32.6 51.5c3.9 31.2 -5.1 56.6 -26.6 78.3c-15.2 15.5 -33.9 25.2 -55.4 29.6c-6.3 1.1 -12.5 1.3 -18.5 2zm54.9 -93.3c-0.2 -3 -0.2 -5.3 -0.7 -7.6c-4.2 -22.9 -25.2 -35.8 -47.1 -30.7c-21.5 4.8 -35.3 18.5 -40.4 40.2c-4.2 18 4.6 36.2 21.2 43.6c12.7 5.5 25.4 4.8 37.6 -1.4c18.3 -9.4 28.3 -24.2 29.4 -44.1z"></path></g></g></g></g></g><g transform="translate(-2.0205 472.9563)" style="animation-name: eaf-5ee8-19, eaf-5ee8-20, eaf-5ee8-21; animation-composition: replace, add, add;"><path fill="#e9ca32" d="m87.5 431.6l-33.2 -404.8l395.7 0.8l-35 404l-161.3 46.7l-166.2 -46.7z"></path><path fill="#ffde25" d="m253.6 439.2l0 -373.9l162.9 0.5l-29.1 334.5l-133.8 38.9z"></path><g><path fill="#555" d="m236.2 109.7l-43.1 0l0 248.9l-33.5 -6.4l0 -33.5l-39.9 -6.4l0 75l116.5 30.3l0 -307.9l0 0zm32.3 0l119.2 0l-8 47.7l-65.7 0l0 78.3l65.7 0l-8 158l-103.3 23.9l0 -49.5l69.8 -23.9l4 -65.4l-73.8 10.7l0 -179.8l0.1 0z"></path></g></g><path fill="#698e39" d="m232.2 14.7c12.1 -6.8 27.5 -6.9 39.3 0l180.5 101.7c11.3 6.3 18.8 18.9 18.7 31.9l0 204c0.1 13.6 -8.2 26.4 -20.1 32.6l-179.6 101.3c-12.5 6.9 -27.8 6.5 -39.9 -1.1l-53.8 -31.1c-3.7 -2.2 -7.8 -3.9 -10.4 -7.5c2.3 -3.1 6.4 -3.5 9.7 -4.8c7.5 -2.4 14.4 -6 21.2 -9.9c1.7 -1.2 3.9 -0.8 5.5 0.3l45.9 26.6c3.3 1.9 6.6 -0.6 9.4 -2.2l176.4 -99.5c2.2 -1.1 3.4 -3.4 3.2 -5.7l0 -202c0.2 -2.7 -1.3 -5.2 -3.8 -6.3l-179 -100.8c-2.1 -1.5 -4.9 -1.5 -7 0l-178.8 101c-2.4 1.1 -4.1 3.6 -3.8 6.3l0 202c-0.2 2.4 1.1 4.6 3.2 5.7l47.8 27c9 4.8 20 7.6 29.9 4c8.9 -3.3 14.7 -11.8 14.7 -21.3l0 -200.8c-0.2 -3 2.6 -5.4 5.5 -5.1l23 0c3 -0.1 5.4 3.1 5 6.1l0 202.1c0 18 -7.4 37.5 -24 46.3c-20.5 10.6 -45.8 8.4 -66 -1.8l-51.4 -28.4c-12.1 -6 -20.2 -19.1 -20.1 -32.6l0 -204c0.1 -13.5 7.5 -25.9 19.4 -32.3l179.4 -101.7zm52 141.4c26.1 -1.5 54 -1 77.5 11.9c18.2 9.9 28.3 30.5 28.6 50.7c-0.5 2.7 -3.4 4.2 -6 4c-7.6 0 -15.1 0.1 -22.7 0c-3.2 0.1 -5.1 -2.8 -5.5 -5.7c-2.2 -9.7 -7.4 -19.2 -16.5 -23.9c-14 -7 -30.2 -6.6 -45.4 -6.5c-11.1 0.6 -23.1 1.6 -32.5 8.1c-7.3 5 -9.4 15.1 -6.8 23c2.4 5.8 9.1 7.6 14.6 9.4c31.5 8.2 64.8 7.6 95.6 18.2c12.8 4.4 25.3 13 29.6 26.4c5.7 17.9 3.2 39.3 -9.5 53.7c-10.3 11.8 -25.4 18.1 -40.4 21.8c-20 4.5 -40.7 4.6 -61 2.6c-19.1 -2.2 -38.9 -7.2 -53.7 -20.2c-12.6 -10.9 -18.7 -28 -18.1 -44.4c0.2 -2.8 2.9 -4.7 5.6 -4.5l22.7 0c3.1 -0.2 5.3 2.4 5.4 5.3c1.4 9.1 4.9 18.9 12.9 24.2c15.5 10 34.9 9.3 52.7 9.6c14.7 -0.6 31.2 -0.8 43.2 -10.6c6.3 -5.5 8.2 -14.8 6.5 -22.8c-1.9 -6.7 -9.1 -9.9 -15.1 -12.1c-31.1 -9.8 -64.7 -6.3 -95.5 -17.4c-12.5 -4.4 -24.6 -12.8 -29.3 -25.6c-6.7 -18.1 -3.6 -40.6 10.5 -54.5c13.6 -13.8 33.5 -19.2 52.4 -21.1l0.2 0.4z" transform="translate(-1.9205 499.1963)" style="animation-name: eaf-5ee8-22, eaf-5ee8-23, eaf-5ee8-24; animation-composition: replace, add, add;"></path><g transform="translate(-0.4298 8.9313)" style="animation-name: eaf-5ee8-25, eaf-5ee8-26, eaf-5ee8-27, eaf-5ee8-28; animation-composition: replace, add, add, replace;"><path fill="#99a6ce" d="m490.8 250.3c-1.7 2.7 -1.6 5.9 -2.5 8.9c-5.8 20.1 -18.4 35.4 -34.1 48.3c-28.9 23.7 -62.8 37 -98.5 46.1c-24.1 6.2 -48.6 9.8 -73.4 11.4c-48.8 3.1 -97.1 -0.3 -144.3 -13.4c-33.1 -9.1 -64.4 -22.2 -91.2 -44.2c-16.2 -13.4 -29.3 -29.2 -34.5 -50.1c-6 -24.4 1.4 -45.6 16.7 -64.6c17.2 -21.2 39.8 -35 64.2 -46c31.8 -14.4 65.4 -22.5 100 -26.9c24.1 -3.1 48.2 -4.4 72.5 -3.4c55.1 2.2 108.6 11.9 157.9 38.1c19.9 10.6 37.9 23.7 51.5 42.1c7.6 10.3 13.1 21.6 15 34.4c0.1 0.5 0.6 1 0.8 1.5c-0.1 5.9 -0.1 11.9 -0.1 17.8zm-131.2 -68.5c-11.8 0 -21.5 0.1 -31.2 -0.1c-2.8 0 -4.2 0.7 -4.7 3.6c-8.2 42.1 -16.4 84.2 -24.9 126.2c-0.7 3.5 0.6 3.5 3.2 3.5c7.8 -0.1 15.6 -0.2 23.4 0c3.2 0.1 4.3 -1 4.8 -4.1c1.5 -8.9 3.4 -17.8 4.9 -26.7c0.5 -2.9 1.6 -4.1 4.8 -4c8.9 0.3 17.8 0 26.7 0.1c5.3 0 10.6 -0.4 15.7 -1.9c25.1 -7.3 42.1 -30.4 42.4 -57.7c0.2 -22.3 -11.2 -35.3 -33.3 -38.4c-11.1 -1.3 -22.5 0.1 -31.8 -0.5zm-220.5 0c-11.8 0 -21.5 0.1 -31.2 -0.1c-2.8 0 -4.2 0.7 -4.7 3.6c-8.2 42.1 -16.5 84.2 -24.8 126.3c-0.6 2.8 -0.1 3.6 2.7 3.5c8.1 -0.1 16.3 -0.2 24.4 0c3.1 0.1 3.9 -1.3 4.3 -4c1.5 -8.8 3.3 -17.5 4.8 -26.2c0.6 -3.3 1.8 -4.7 5.4 -4.5c9.4 0.3 18.8 0.1 28.1 0.2c9.3 0.1 18 -2.2 25.9 -6.9c20.1 -11.7 29.7 -29.8 30.3 -52.7c0.5 -22.3 -11.1 -35.3 -33.2 -38.4c-11.3 -1.6 -22.7 -0.2 -32 -0.8zm144.8 98.7c4.1 0 8.1 -0.2 12.2 0.1c3.4 0.3 4.6 -1.1 5.1 -4.3c3.4 -20.9 7 -41.9 10.6 -62.8c2.3 -13.6 -2.6 -22.7 -15.3 -28c-3.3 -1.4 -6.8 -2.2 -10.4 -2.8c-10.9 -1.7 -21.8 -0.6 -32.8 -0.8c-3 -0.1 -4.1 -0.5 -3.3 -3.9c2 -9.1 3.5 -18.4 5.4 -27.6c0.5 -2.6 -0.2 -3.3 -2.7 -3.2c-7.2 0.1 -14.4 0 -21.6 0.1c-7.5 0.1 -6.1 -1.3 -7.7 6.7c-4.4 21.6 -8.6 43.2 -12.8 64.7c-3.8 19.1 -7.6 38.3 -11.4 57.4c-0.7 3.5 0.1 4.7 3.9 4.6c6.9 -0.3 13.8 -0.5 20.6 0c5 0.4 6.5 -1.6 7.4 -6.2c4 -21.5 8.5 -42.8 12.8 -64.3c0.4 -1.9 0.4 -3.8 3.1 -3.7c8 0.1 16 -0.2 23.9 0.3c8.3 0.5 10 3.4 8.4 11.9c-3.7 19.5 -7.2 39 -11.1 58.4c-0.6 3.2 0.3 3.7 3.1 3.6c4.1 -0.3 8.3 -0.2 12.6 -0.2z"></path><path fill="#232632" d="m359.6 181.8c9.3 0.6 20.7 -0.8 32.1 0.8c22.1 3.1 33.5 16.1 33.3 38.4c-0.3 27.3 -17.3 50.4 -42.4 57.7c-5.2 1.5 -10.4 1.9 -15.7 1.9c-8.9 -0.1 -17.8 0.1 -26.7 -0.1c-3.2 -0.1 -4.3 1.1 -4.8 4c-1.6 8.9 -3.5 17.8 -4.9 26.7c-0.5 3.1 -1.7 4.2 -4.8 4.1c-7.8 -0.2 -15.6 -0.1 -23.4 0c-2.6 0 -3.9 0 -3.2 -3.5c8.4 -42.1 16.7 -84.1 24.9 -126.2c0.6 -2.9 1.9 -3.7 4.7 -3.6c9.4 -0.1 19.1 -0.2 30.9 -0.2zm4 24.6c-3.1 0 -6.3 0.2 -9.4 -0.1c-2.6 -0.2 -3.6 1 -4 3.4c-2.3 14.5 -4.6 28.9 -7.1 43.3c-0.4 2.5 0.2 2.9 2.5 2.9c5.6 -0.1 11.2 0.2 16.9 -0.1c15.4 -0.7 24.5 -8.3 28 -23.4c0.6 -2.4 0.8 -4.9 1.2 -7.4c1.5 -9.7 -3.4 -16.4 -13.1 -18c-5 -0.7 -10 -0.6 -15 -0.6z"></path><path fill="#232632" d="m139.1 181.8c9.3 0.6 20.7 -0.8 32.1 0.8c22.1 3.1 33.7 16.1 33.2 38.4c-0.6 22.9 -10.2 40.9 -30.3 52.7c-8 4.6 -16.6 7 -25.9 6.9c-9.4 -0.1 -18.8 0.2 -28.1 -0.2c-3.7 -0.1 -4.8 1.3 -5.4 4.5c-1.5 8.8 -3.4 17.5 -4.8 26.2c-0.5 2.8 -1.2 4.1 -4.3 4c-8.1 -0.2 -16.3 -0.2 -24.4 0c-2.8 0 -3.3 -0.7 -2.7 -3.5c8.4 -42.1 16.6 -84.2 24.8 -126.3c0.6 -2.9 1.9 -3.7 4.7 -3.6c9.6 0.2 19.3 0.1 31.1 0.1zm-6 74.1c2.5 0 4.4 0 6.3 0c17.6 -0.1 27.4 -8 31 -25c0.3 -1.7 0.5 -3.4 0.7 -5.1c1.7 -10.5 -3.3 -17.2 -13.8 -18.8c-7.6 -1.1 -15.3 -0.3 -22.9 -0.7c-3.2 -0.2 -4.4 1.1 -4.8 4.1c-1.8 11.4 -3.8 22.7 -5.6 34.1c-0.6 3.6 -3 8.4 -1 10.7c2 2.3 7 0.4 10.1 0.7z"></path><path fill="#232632" d="m283.9 280.5c-4.2 0 -8.4 -0.1 -12.7 0c-2.8 0.1 -3.8 -0.4 -3.1 -3.6c3.8 -19.4 7.4 -38.9 11.1 -58.4c1.6 -8.4 -0.1 -11.3 -8.4 -11.9c-7.9 -0.5 -15.9 -0.2 -23.9 -0.3c-2.7 0 -2.8 1.9 -3.1 3.7c-4.3 21.4 -8.7 42.8 -12.8 64.3c-0.9 4.6 -2.3 6.6 -7.4 6.2c-6.8 -0.5 -13.8 -0.3 -20.6 0c-3.7 0.2 -4.6 -1 -3.9 -4.6c3.9 -19.1 7.7 -38.2 11.4 -57.4c4.3 -21.6 8.5 -43.2 12.8 -64.7c1.6 -8 0.3 -6.6 7.7 -6.7c7.2 -0.1 14.4 0.1 21.6 -0.1c2.5 0 3.2 0.6 2.7 3.2c-1.9 9.2 -3.4 18.4 -5.4 27.6c-0.7 3.4 0.3 3.9 3.3 3.9c10.9 0.2 21.9 -0.9 32.8 0.8c3.6 0.6 7 1.4 10.4 2.8c12.7 5.3 17.6 14.4 15.3 28c-3.6 20.9 -7.1 41.8 -10.6 62.8c-0.5 3.2 -1.7 4.6 -5.1 4.3c-4 -0.1 -8.1 0.1 -12.1 0.1z"></path><path fill="#8892bd" d="m363.6 206.4c5 0 10 -0.1 14.9 0.7c9.7 1.6 14.6 8.3 13.1 18c-0.4 2.5 -0.7 4.9 -1.2 7.4c-3.5 15 -12.6 22.7 -28 23.4c-5.6 0.2 -11.2 0 -16.9 0.1c-2.2 0 -2.9 -0.4 -2.5 -2.9c2.5 -14.4 4.8 -28.9 7.1 -43.3c0.4 -2.3 1.4 -3.5 4 -3.4c3.2 0.2 6.4 0 9.5 0z"></path><path fill="#8892bd" d="m133.1 255.9c-3 -0.3 -8.1 1.6 -10.1 -0.7c-2 -2.3 0.5 -7 1 -10.7c1.7 -11.4 3.8 -22.7 5.6 -34.1c0.5 -3 1.6 -4.2 4.8 -4.1c7.6 0.4 15.3 -0.4 22.9 0.7c10.5 1.6 15.5 8.2 13.8 18.8c-0.3 1.7 -0.4 3.4 -0.7 5.1c-3.5 17 -13.4 25 -31 25c-1.9 0 -3.8 0 -6.3 0z"></path></g><g transform="translate(13.0137 489.2018)" style="animation-name: eaf-5ee8-29, eaf-5ee8-30, eaf-5ee8-31; animation-composition: replace, add, add;"><g><path fill="#000" d="m186.2 350.7c0 0 -15.7 9.6 10.9 12.3c32.1 4.1 49.2 3.4 84.8 -3.4c7.1 4.4 14.7 8 22.6 10.9c-80 34.2 -181.2 -2.1 -118.3 -19.8l0 0zm-10.2 -44.5c0 0 -17.1 13 9.6 15.7c34.9 3.4 62.2 4.1 109.4 -5.5c4.6 4.7 10.2 8.2 16.4 10.3c-96.4 28.8 -204.5 2.8 -135.4 -20.5l0 0zm188.7 77.9c0 0 11.6 9.6 -13 17.1c-45.8 13.7 -192.2 17.8 -233.2 0c-14.4 -6.1 13 -15 21.8 -16.4c8.9 -2 13.7 -2 13.7 -2c-15.7 -10.9 -104.6 22.6 -45.1 32.1c163.4 26.7 298.2 -11.6 255.8 -30.8l0 0zm-171.1 -124.4c0 0 -74.5 17.8 -26.7 23.9c20.5 2.7 60.9 2 98.5 -0.7c30.8 -2.7 61.6 -8.2 61.6 -8.2c0 0 -10.9 4.8 -18.5 9.6c-75.9 19.8 -221.6 10.9 -179.9 -9.6c35.6 -17.1 65 -15 65 -15l0 0zm133.4 74.5c76.6 -39.7 41 -77.9 16.4 -73.2c-6.1 1.4 -8.9 2.7 -8.9 2.7c0 0 2 -4.1 6.8 -5.5c48.6 -17.1 86.9 51.3 -15.7 77.9c0 0.2 0.7 -0.5 1.4 -1.9l0 0zm-125.8 108.1c73.9 4.8 186.7 -2.7 189.4 -37.6c0 0 -5.5 13.7 -60.9 23.9c-62.9 11.6 -140.9 10.2 -186.7 2.7c0 0 9.6 8.2 58.2 11l0 0z" opacity="0.18"></path><path fill="#000" d="m280.6 34c0 0 42.4 43.1 -40.3 108.1c-66.3 52.7 -15 82.7 0 116.9c-39 -34.9 -67 -65.7 -47.9 -94.4c28 -42.4 105.3 -62.8 88.2 -130.6zm-21.7 196.3c19.8 22.6 -5.5 43.1 -5.5 43.1c0 0 50.6 -26 27.4 -58.1c-21.2 -30.8 -37.6 -45.8 51.3 -97.1c-0.1 -0.1 -140.3 34.8 -73.2 112.1z" opacity="0.18"></path></g><g><path fill="#4e7896" d="m181.2 345.7c0 0 -15.7 9.6 10.9 12.3c32.1 4.1 49.2 3.4 84.8 -3.4c7.1 4.4 14.7 8 22.6 10.9c-80 34.2 -181.2 -2.1 -118.3 -19.8l0 0zm-10.2 -44.5c0 0 -17.1 13 9.6 15.7c34.9 3.4 62.2 4.1 109.4 -5.5c4.6 4.7 10.2 8.2 16.4 10.3c-96.4 28.8 -204.5 2.8 -135.4 -20.5l0 0zm188.7 77.9c0 0 11.6 9.6 -13 17.1c-45.8 13.7 -192.2 17.8 -233.2 0c-14.4 -6.1 13 -15 21.8 -16.4c8.9 -2 13.7 -2 13.7 -2c-15.7 -10.9 -104.6 22.6 -45.1 32.1c163.4 26.7 298.2 -11.6 255.8 -30.8l0 0zm-171.1 -124.4c0 0 -74.5 17.8 -26.7 23.9c20.5 2.7 60.9 2 98.5 -0.7c30.8 -2.7 61.6 -8.2 61.6 -8.2c0 0 -10.9 4.8 -18.5 9.6c-75.9 19.8 -221.6 10.9 -179.9 -9.6c35.6 -17.1 65 -15 65 -15l0 0zm133.4 74.5c76.6 -39.7 41 -77.9 16.4 -73.2c-6.1 1.4 -8.9 2.7 -8.9 2.7c0 0 2 -4.1 6.8 -5.5c48.6 -17.1 86.9 51.3 -15.7 77.9c0 0.2 0.7 -0.5 1.4 -1.9l0 0zm-125.8 108.1c73.9 4.8 186.7 -2.7 189.4 -37.6c0 0 -5.5 13.7 -60.9 23.9c-62.9 11.6 -140.9 10.2 -186.7 2.7c0 0 9.6 8.2 58.2 11l0 0z"></path><path fill="#f58219" d="m275.6 29c0 0 42.4 43.1 -40.3 108.1c-66.3 52.7 -15 82.7 0 116.9c-39 -34.9 -67 -65.7 -47.9 -94.4c28 -42.4 105.3 -62.8 88.2 -130.6zm-21.7 196.3c19.8 22.6 -5.5 43.1 -5.5 43.1c0 0 50.6 -26 27.4 -58.1c-21.2 -30.8 -37.6 -45.8 51.3 -97.1c-0.1 -0.1 -140.3 34.8 -73.2 112.1z"></path></g></g></g></g></svg>