<svg id="e752kylq1w3q1" xmlns="http://www.w3.org/2000/svg" xmlns:xlink="http://www.w3.org/1999/xlink" viewBox="0 0 769 769" shape-rendering="geometricPrecision" text-rendering="geometricPrecision">
    <style>
        <![CDATA[#e752kylq1w3q1{pointer-events: all} #e752kylq1w3q1:hover * {animation-play-state: running !important}#e752kylq1w3q4_to {animation: e752kylq1w3q4_to__to 3000ms linear infinite normal forwards}@keyframes e752kylq1w3q4_to__to { 0% {transform: translate(384.499664px,385.427155px)} 33.333333% {transform: translate(384.499664px,385.427155px)} 36.666667% {transform: translate(384.499963px,399.911284px)} 40% {transform: translate(384.499664px,385.427155px)} 50% {transform: translate(384.499664px,385.427155px)} 53.333333% {transform: translate(384.500000px,374.564058px)} 56.666667% {transform: translate(384.499664px,385.427155px)} 66.666667% {transform: translate(384.499664px,385.427155px)} 70% {transform: translate(384.500000px,398.100768px)} 73.333333% {transform: translate(384.499664px,385.427155px)} 100% {transform: translate(384.499664px,385.427155px)} }#e752kylq1w3q4_tr {animation: e752kylq1w3q4_tr__tr 3000ms linear infinite normal forwards}@keyframes e752kylq1w3q4_tr__tr { 0% {transform: rotate(0deg);animation-timing-function: step-end} 33.333333% {transform: rotate(-5deg);animation-timing-function: step-end} 36.666667% {transform: rotate(5deg);animation-timing-function: step-end} 40% {transform: rotate(0deg);animation-timing-function: step-end} 50% {transform: rotate(5deg);animation-timing-function: step-end} 53.333333% {transform: rotate(-5deg);animation-timing-function: step-end} 56.666667% {transform: rotate(0deg);animation-timing-function: step-end} 66.666667% {transform: rotate(-5deg);animation-timing-function: step-end} 70% {transform: rotate(5deg);animation-timing-function: step-end} 73.333333% {transform: rotate(0deg)} 100% {transform: rotate(0deg)} }]]>
    </style>
    <g id="e752kylq1w3q2" transform="matrix(4 0 0 4 -842.94323730499991 -2257.32641599500039)">
        <path
            id="e752kylq1w3q3"
            d="M402.750000,660.710000C402.750000,684.770000,402.750000,708.840000,402.750000,732.900000C402.750000,743.930000,394.430000,754.010000,383.570000,756.080000C381.960000,756.390000,380.300000,756.560000,378.670000,756.560000C330.700000,756.590000,282.740000,756.580000,234.770000,756.580000C223.010000,756.580000,212.750000,747.560000,211.210000,735.860000C211.070000,734.830000,210.980000,733.780000,210.980000,732.740000C210.970000,684.650000,210.970000,636.560000,210.970000,588.480000C210.970000,577.450000,219.290000,567.360000,230.150000,565.300000C231.760000,564.990000,233.420000,564.820000,235.050000,564.820000C283.060000,564.800000,331.070000,564.800000,379.070000,564.800000C390.100000,564.800000,400.200000,573.130000,402.250000,583.980000C402.550000,585.590000,402.730000,587.250000,402.730000,588.880000C402.760000,612.820000,402.750000,636.770000,402.750000,660.710000Z"
fill="#99d6f7"
            stroke="none"
            stroke-width="1"
        />
    </g>
    <g id="e752kylq1w3q4_to" transform="translate(384.499664,385.427155)">
        <g id="e752kylq1w3q4_tr" transform="rotate(0)">
            <g id="e752kylq1w3q4" transform="scale(4,4) translate(-306.860474,-660.681183)">
                <path
                    id="e752kylq1w3q5"
                    d="M396.300000,682.460000C394.550000,667.690000,391.050000,653.280000,386.710000,639.080000C383.780000,629.490000,380.360000,620.080000,374.570000,611.770000C366.440000,600.110000,355.320000,594.720000,341.090000,596.500000C337.450000,596.960000,333.890000,598.080000,330.340000,599.070000C319.200000,602.190000,307.890000,603.500000,296.430000,601.660000C290.020000,600.630000,283.700000,599.010000,277.400000,597.410000C265.810000,594.470000,255.260000,596.360000,245.940000,603.960000C240.410000,608.480000,236.790000,614.480000,233.760000,620.840000C228.880000,631.070000,225.800000,641.910000,223.030000,652.850000C219.330000,667.460000,216.460000,682.210000,216.370000,697.360000C216.370000,699.180000,216.270000,701,216.390000,702.810000C216.750000,708.320000,217.370000,713.800000,219.960000,718.810000C222.710000,724.140000,227.460000,726.270000,233.270000,724.810000C237.700000,723.700000,241.460000,721.250000,244.580000,718.080000C249.570000,713,254.300000,707.660000,259.010000,702.320000C262.510000,698.350000,266.680000,695.550000,271.900000,694.620000C275.400000,693.990000,278.960000,693.410000,282.500000,693.380000C299.050000,693.250000,315.600000,693.290000,332.150000,693.330000C342.490000,693.360000,351.030000,696.880000,357.400000,705.530000C360.800000,710.150000,365.080000,714.170000,369.180000,718.230000C372.050000,721.080000,375.450000,723.290000,379.380000,724.550000C385.140000,726.400000,390.300000,724.660000,393.130000,719.660000C394.210000,717.760000,395.050000,715.650000,395.600000,713.520000C398.210000,703.250000,397.530000,692.830000,396.300000,682.460000Z"
                    fill="#01507b"
                    stroke="none"
                    stroke-width="1"
                />
                <path
                    id="e752kylq1w3q6"
                    d="M255.190000,663.670000C246.440000,663.690000,239.310000,656.510000,239.340000,647.710000C239.370000,638.860000,246.440000,631.810000,255.250000,631.840000C264.090000,631.880000,270.970000,638.900000,270.950000,647.860000C270.940000,656.590000,263.900000,663.660000,255.190000,663.670000Z"
                    fill="#fff"
                    stroke="none"
                    stroke-width="1"
                />
                <path
                    id="e752kylq1w3q7"
                    d="M328.560000,655.520000C324.180000,655.550000,320.770000,652.160000,320.770000,647.770000C320.770000,643.480000,324.110000,640.050000,328.350000,640C332.670000,639.950000,336.250000,643.400000,336.290000,647.660000C336.340000,651.960000,332.870000,655.490000,328.560000,655.520000Z"
                    fill="#fff"
                    stroke="none"
                    stroke-width="1"
                />
                <path
                    id="e752kylq1w3q8"
                    d="M345.460000,672.730000C341.190000,672.680000,337.790000,669.110000,337.830000,664.750000C337.870000,660.510000,341.330000,657.060000,345.540000,657.060000C349.830000,657.070000,353.300000,660.590000,353.290000,664.930000C353.270000,669.240000,349.710000,672.780000,345.460000,672.730000Z"
                    fill="#fff"
                    stroke="none"
                    stroke-width="1"
                />
                <path
                    id="e752kylq1w3q9"
                    d="M345.500000,638.420000C341.210000,638.400000,337.790000,634.890000,337.820000,630.520000C337.850000,626.250000,341.230000,622.850000,345.480000,622.820000C349.800000,622.790000,353.280000,626.260000,353.280000,630.600000C353.290000,634.920000,349.790000,638.430000,345.500000,638.420000Z"
                    fill="#fff"
                    stroke="none"
                    stroke-width="1"
                />
                <path
                    id="e752kylq1w3q10"
                    d="M362.470000,655.520000C358.220000,655.460000,354.850000,652.050000,354.840000,647.800000C354.830000,643.510000,358.340000,639.990000,362.630000,640C366.960000,640.010000,370.340000,643.470000,370.310000,647.850000C370.280000,652.250000,366.870000,655.580000,362.470000,655.520000Z"
                    fill="#fff"
                    stroke="none"
                    stroke-width="1"
                />
            </g>
        </g>
    </g>
</svg>
