<svg xmlns="http://www.w3.org/2000/svg" viewBox="0 0 650 650" overflow="hidden" preserveAspectRatio="xMidYMid meet" id="eaf-15e7b-0"><defs><clipPath id="eaf-15e7b-1"><rect x="0" y="0" width="650" height="650"></rect></clipPath><style>#eaf-15e7b-0 * {animation: 6000ms linear infinite normal both running;offset-rotate:0deg}@keyframes eaf-15e7b-2{0%{fill:#fefadf}31.67%{fill:#fefadf}36.67%{fill:#fff}66.12%{fill:#fff}68.88%,100%{fill:#fefadf}}@keyframes eaf-15e7b-3{0%{fill:#f7e79c;animation-timing-function:ease-in-out}50%{fill:#fff;animation-timing-function:ease-in-out}100%{fill:#f7e79c}}@keyframes eaf-15e7b-4{0%{opacity:0.6}31.67%{opacity:0.6;animation-timing-function:ease-in-out}42.22%{opacity:0}61.67%{opacity:0;animation-timing-function:ease-in-out}71.12%,100%{opacity:0.6}}@keyframes eaf-15e7b-5{0%,100%{transform:translate(320.3797px,114.0821px)}}@keyframes eaf-15e7b-6{0%{transform:scale(0.899,0.899)}36.12%{transform:scale(0.866,0.866)}45.55%,100%{transform:scale(0.8574,0.8574)}}@keyframes eaf-15e7b-7{0%{transform:translate(0.1081px,24.3444px)}36.12%,100%{transform:translate(0.1081px,24.3444px)}}@keyframes eaf-15e7b-8{0%{opacity:0}34.45%{opacity:0;animation-timing-function:ease-in-out}41.12%{opacity:1}62.78%{opacity:1;animation-timing-function:ease-in-out}68.33%,100%{opacity:0}}@keyframes eaf-15e7b-9{0%,100%{transform:translate(324.95px,328.2399px)}}@keyframes eaf-15e7b-10{0%{transform:scale(0.95,0.95);animation-timing-function:ease-in-out}50%{transform:scale(1.05,1.05);animation-timing-function:ease-in-out}100%{transform:scale(0.95,0.95)}}@keyframes eaf-15e7b-11{0%,100%{transform:translate(-324.95px,-328.2399px)}}</style></defs><g clip-path="url('#eaf-15e7b-1')" style="isolation: isolate;"><g><path fill="#bee4fa" d="m650 325.1c0 81.6 0 163.1 0 244.7c0 37.4 -28.2 71.6 -65 78.6c-5.5 1 -11.1 1.6 -16.6 1.6c-162.6 0 -325.2 0 -487.7 0c-39.9 0.0001 -74.7 -30.5999 -79.9 -70.2c-0.5 -3.5 -0.8 -7 -0.8 -10.6c0 -163 0 -326 0 -488.9c0 -37.4 28.2 -71.6 65 -78.6c5.4 -1 11.1 -1.6 16.6 -1.6c162.7 -0.1 325.4 -0.1 488.1 -0.1c37.4 0 71.6 28.2 78.6 65c1 5.4 1.6 11.1 1.6 16.6c0.1 81.2 0.1 162.3 0.1 243.5l0 0l0 0z"></path><g transform="matrix(0.95 0 0 0.95 16.2475 16.412)" style="animation-name: eaf-15e7b-9, eaf-15e7b-10, eaf-15e7b-11; animation-composition: replace, add, add;"><g style="filter: blur(4px);"><path fill="#b2b2b2" d="m335.9 43.2c20.2 7.3 40.4 14.7 60.6 21.9c51.5 18.3 103 36.6 154.5 54.9c11.7 4.1 15.2 9.2 15.2 21.8c0 73.5 0 147.1 0 220.7c-0.1 113.4 -66.6 211 -172 252.5c-19.1 7.5 -38.8 13 -59.2 14.8c-9.1 0.8 -18.6 -1.2 -27.7 -3.4c-89.6 -21.3 -153.2 -74.3 -190.3 -158.6c-14.7 -33.4 -20.8 -68.9 -20.8 -105.3c0 -73.7 0 -147.5 0 -221.3c0 -12.1 3.6 -17.1 15.1 -21.2c70 -24.9 140.1 -49.7 210.1 -74.6c1.8 -0.6 3.4 -1.5 5.1 -2.3l9.4 0.1001l0 0z"></path></g><path fill="#01507b" d="m323.4 26.5c20.2 7.3 40.4 14.7 60.6 21.9c51.5 18.4 103 36.6 154.5 54.9c11.7 4.1 15.2 9.2 15.2 21.8c0 73.5 0 147.1 0 220.7c-0.1 113.4 -66.6 211 -172 252.5c-19.1 7.5 -38.8 13 -59.2 14.8c-9.1 0.8 -18.6 -1.2 -27.7 -3.4c-89.6 -21.3 -153.2 -74.3 -190.3 -158.6c-14.7 -33.4 -20.8 -68.9 -20.8 -105.3c0 -73.7 0 -147.5 0 -221.3c0 -12.1 3.6 -17.1 15.1 -21.2c70.2 -24.6999 140.2 -49.5999 210.2 -74.4999c1.8 -0.6 3.4 -1.5 5.1 -2.3l9.3 0l0 0z"></path><g><g><path fill="#fff" d="m157.2 476.1c1 1.7 1.6 2.8 2.4 3.8c32.1 46.1 75 77.1 129 92.5c11.7 3.3 23.5 7.7 35.8 5.6c49.7 -8.5 92.4 -30.7 127.7 -66.7c10.3 -10.5 19.2 -22.5 28.7 -33.8c-0.4 -0.5 -0.8 -1 -1.2 -1.4l-322.4 0l0 0z"></path></g><path fill="#fefadf" d="m118.8 164.2l400 0c0 -8.3 -0.3 -16.3 0.1 -24.2c0.3 -5 -1.3 -7.3 -6.2 -9c-62.9 -22.2 -125.7 -44.6 -188.5999 -66.7c-3.1 -1.1 -7.2 -1.1 -10.2 -0.1c-27.4 9.4 -54.6 19.2 -81.9 28.9c-36.1 12.8 -72.2 25.6 -108.2 38.5c-1.9 0.7 -4.7 2.4 -4.8 3.8c-0.4 9.5 -0.2 19 -0.2 28.8l0 0z" style="animation-name: eaf-15e7b-2;"></path><path fill="#f7e79c" d="m518.8 199.9l-399.6 0c-0.1 1.8 -0.3 3.3 -0.3 4.8c0 47.9 0 95.9 -0.1 143.8c-0.1 29.9 5.7 58.7 16.5 86.6c1.6 4.1 3.5 5.7 8.2 5.7c22.3 -0.3 44.7 -0.2 67.1 -0.2c94.7 0 189.5 0 284.3 0.1c3.5 0 5.4 -0.8 6.8 -4.3c10.1 -25.2 16.4 -51.2 16.8 -78.4c0.5 -40.3 0.3 -80.6 0.4 -120.9c-0.1 -12.2 -0.1 -24.4 -0.1 -37.2l0 0z" style="animation-name: eaf-15e7b-3;"></path></g><g opacity="0.6" style="animation-name: eaf-15e7b-4;"><line x1="151" y1="95.1" x2="151" y2="176.7" fill="none" stroke="#01507b" stroke-width="19.6387" stroke-miterlimit="10"></line><line x1="193" y1="95.1" x2="193" y2="176.7" fill="none" stroke="#01507b" stroke-width="19.6387" stroke-miterlimit="10"></line><line x1="235" y1="82.5" x2="235" y2="176.7" fill="none" stroke="#01507b" stroke-width="19.6387" stroke-miterlimit="10"></line><line x1="277.1" y1="60.6" x2="277.1" y2="170.4" fill="none" stroke="#01507b" stroke-width="19.6387" stroke-miterlimit="10"></line><line x1="319.1" y1="52.6" x2="319.1" y2="176.7" fill="none" stroke="#01507b" stroke-width="19.6387" stroke-miterlimit="10"></line><line x1="487.2" y1="100.4" x2="487.2" y2="182" fill="none" stroke="#01507b" stroke-width="19.6387" stroke-miterlimit="10"></line><line x1="445.2" y1="87.8" x2="445.2" y2="182" fill="none" stroke="#01507b" stroke-width="19.6387" stroke-miterlimit="10"></line><line x1="403.2" y1="65.9" x2="403.2" y2="175.7" fill="none" stroke="#01507b" stroke-width="19.6387" stroke-miterlimit="10"></line><line x1="361.1" y1="58" x2="361.1" y2="182" fill="none" stroke="#01507b" stroke-width="19.6387" stroke-miterlimit="10"></line></g><path fill="#f20020" stroke="#fff" stroke-width="28" paint-order="stroke" d="m78.6491 109.0125c0 0 -77.1426 -49.2878 -79.4267 -49.3176c-2.2841 -0.0298 -78.5956 48.7916 -78.5956 48.7916c0 0 23.0371 -88.5977 22.3596 -90.7793c-0.6775 -2.1815 -70.6909 -59.6714 -70.6909 -59.6714c0 0 91.3803 -5.4686 93.2457 -6.7871c1.8654 -1.3185 34.9062 -85.6705 34.9062 -85.6705c0 0 33.439 85.218 35.2694 86.5846c1.8304 1.3666 92.2641 6.7241 92.2641 6.7241c0 0 -70.7139 58.1362 -71.448 60.2993c-0.7341 2.1631 22.1162 89.8262 22.1162 89.8262z" transform="matrix(0.899 0 0 0.899 320.4769 135.9669)" opacity="0" style="animation-name: eaf-15e7b-5, eaf-15e7b-6, eaf-15e7b-7, eaf-15e7b-8; animation-composition: replace, add, add, replace;"></path><g><path fill="#01507b" d="m429.7 343c0 11.8 0.1 23.6 0 35.4c-0.1 10.2 -6.3 17.7 -15 18.6c-11.3 1.2 -19.8 -6.4 -19.9 -18.3c-0.1 -20.2 0 -40.5 0 -60.7c0 -18.7 -0.1 -37.4 0 -56.2c0.1 -12.1 8.2 -19.7 19.7 -18.5c7 0.7 11.3 5 14.2 11c5.9 12.6 11.7 25.3 17.5 37.9c0.8 1.7 1.6 3.4 3.1 6.4c0.3 -2.7 0.6 -4.1 0.6 -5.4c0.1 -10.5 0 -21 0.1 -31.5c0.2 -11 7.4 -18.6 17.6 -18.5c10.1 0 17.4 7.7 17.5 18.7c0.1 38.8 0 77.5 -0.1 116.3c0 9.8 -5.6 17.1 -13.7 18.7c-9.1 1.8 -16.2 -2.2 -20.5 -11.7c-6.5 -14.1 -13.1 -28.3 -19.6 -42.5c-0.6 0.1 -1.1 0.2 -1.5 0.3z"></path><path fill="#01507b" d="m202.3 312.7c5.4 -19.7 10.2 -37.8 15.3 -56c2.4 -8.5 8 -13.1 15.7 -13.6c12 -0.7 21 9.5 17.9 21.2c-9.2 35.2 -18.8 70.3 -28.3 105.4c-1.2 4.4 -2.4 8.8 -3.6 13.2c-2.8 9.5 -8.8 14.3 -17.6 14.1c-8.3 -0.2 -14.4 -5.2 -16.8 -14.5c-8.1 -30.5 -16.2 -61.1 -24.3 -91.6c-2.1 -8.1 -4.4 -16.2 -6.4 -24.3c-2.7 -11 2.3 -20.4 12.3 -23c9.7 -2.5 18.6 3.6 21.5 14.7c4.6 17.7 9.3 35.4 14.3 54.4z"></path><path fill="#01507b" d="m332.3 244.9c-14.8 -2.7 -30.4 -1.6 -45.6 -1.8c-11.6 -0.1 -18.3 7.1 -18.3 18.7c0 38.8 0 77.5 0 116.3c0 11.5 7.1 19.1 17.5 19c10.2 -0.1 17 -7.5 17 -18.8c0.1 -10.3 0 -20.6 0 -31.8c6.7 0 12.5 0.1 18.4 0c25.2 -0.4 47.3 -19.9 50.2 -44.1c3.1 -27.5 -13.1 -52.8 -39.2 -57.5zm-11.1 67c-5.8 0.5 -11.7 0.1 -18.1 0.1l0 -34.1c6.8 0 13.5 -0.6 20 0.2c8.5 1 14.4 8.9 14.1 17.4c-0.3 8.5 -6.9 15.6 -16 16.4l0 0z"></path></g></g></g></g></svg>