<svg xmlns="http://www.w3.org/2000/svg" viewBox="0 0 500 500" overflow="hidden" preserveAspectRatio="xMidYMid meet" id="eaf-d202-0"><defs><clipPath id="eaf-d202-1"><rect x="0" y="0" width="500" height="500"></rect></clipPath><linearGradient gradientUnits="userSpaceOnUse" x1="252.4594" y1="454.6" x2="252.4594" y2="169.7559" id="eaf-d202-2"><stop stop-color="#f4b526" offset="0"></stop><stop stop-color="#f4b526" offset="0"></stop><stop stop-color="#f7e79c" offset="1"></stop></linearGradient><linearGradient gradientUnits="userSpaceOnUse" x1="251.9406" y1="457.1533" x2="251.9406" y2="42.8467" id="eaf-d202-3"><stop stop-color="#f4b526" offset="0"></stop><stop stop-color="#c90606" offset="0"></stop><stop stop-color="#f7e79c" offset="1"></stop></linearGradient><linearGradient gradientUnits="userSpaceOnUse" x1="32.1089" y1="129.5564" x2="467.6733" y2="129.5564" id="eaf-d202-4"><stop stop-color="#c90606" offset="0"></stop><stop stop-color="#f4b526" offset="0.1566"></stop><stop stop-color="#61d400" offset="0.3175"></stop><stop stop-color="#42eaeb" offset="0.4871"></stop><stop stop-color="#0046ff" offset="0.6911"></stop><stop stop-color="#a400bf" offset="0.8261"></stop><stop stop-color="#000" offset="1"></stop></linearGradient><linearGradient gradientUnits="userSpaceOnUse" x1="32.4778" y1="250.5" x2="468.0421" y2="250.5" id="eaf-d202-5"><stop stop-color="#c90606" offset="0"></stop><stop stop-color="#9aff3f" offset="0.5129"></stop><stop stop-color="#2ae7ff" offset="1"></stop></linearGradient><linearGradient gradientUnits="userSpaceOnUse" x1="32.9976" y1="371.4435" x2="468.562" y2="371.4435" id="eaf-d202-6"><stop stop-color="#e1f3fd" offset="0"></stop><stop stop-color="#bdb9be" offset="0.1377"></stop><stop stop-color="#beb0c4" offset="0.2394"></stop><stop stop-color="#c1a0ce" offset="0.3295"></stop><stop stop-color="#c589dd" offset="0.413"></stop><stop stop-color="#ca6cf0" offset="0.491"></stop><stop stop-color="#ce55ff" offset="0.5417"></stop><stop stop-color="#2ae7ff" offset="1"></stop></linearGradient><style>#eaf-d202-0 * {animation: 30000ms linear infinite normal both running;offset-rotate:0deg}@keyframes eaf-d202-7{0%,100%{transform:translate(249.4px,250.7px)}}@keyframes eaf-d202-8{0%,0.33%{transform:rotate(0)}8.22%{transform:rotate(-107deg)}95.89%{transform:rotate(-107deg)}97%,100%{transform:rotate(0)}}@keyframes eaf-d202-9{0%,100%{transform:translate(-249.4px,-250.7px)}}@keyframes eaf-d202-10{0%{transform:scale(1,1)}4.89%{transform:scale(1,1);animation-timing-function:linear(0 0%,-0.04 12%,-0.24 36%,-0.29 45%,-0.3 54%,-0.25 63%,-0.1 73%,0.17 83%,0.55 92%,1 100%)}8.22%{transform:scale(0,0)}98%{transform:scale(0,0)}100%{transform:scale(1,1)}}@keyframes eaf-d202-11{0%,100%{transform:translate(252.6px,454.6px)}}@keyframes eaf-d202-12{0%{transform:scale(1,0)}11.56%{transform:scale(1,0);animation-timing-function:linear(0 0%,0.43 9%,0.74 18%,0.96 27%,1.1 37%,1.16 46%,1.17 57%,1.14 67%,1.02 89%,1 100%)}14.78%,100%{transform:scale(1,1)}}@keyframes eaf-d202-13{0%,100%{transform:translate(-252.6px,-454.6px)}}@keyframes eaf-d202-14{0%{opacity:0}13.67%{opacity:0}15.56%,100%{opacity:1}}@keyframes eaf-d202-15{0%,100%{transform:none;offset-path:path("m730.6972 250.6l0 0l-478.1773 0l0 0l-482.2275 0")}}@keyframes eaf-d202-16{0%{offset-distance:0%}8.22%{offset-distance:0%;animation-timing-function:linear(0 0%,0.39 9%,0.68 18%,0.9 28%,1.04 38%,1.1 47%,1.12 58%,1.1 68%,1.02 90%,1 100%)}11.56%{offset-distance:49.7891%}18.33%{offset-distance:49.7891%}20.67%,100%{offset-distance:100%}}@keyframes eaf-d202-17{0%{transform:rotate(0)}18.33%{transform:rotate(0)}20.67%,100%{transform:rotate(-90deg)}}@keyframes eaf-d202-18{0%,100%{transform:translate(-251.1px,-250.6px)}}@keyframes eaf-d202-19{0%{opacity:1}20.67%{opacity:1}21.22%,100%{opacity:0}}@keyframes eaf-d202-20{0%{opacity:0}24.78%{opacity:0;animation-timing-function:ease-in-out}26%,100%{opacity:1}}@keyframes eaf-d202-21{0%,100%{transform:none;offset-path:path("m250.95 -9.4l0 0l0 468.7l0 0l0 487.5")}}@keyframes eaf-d202-22{0%{offset-distance:0%}20.67%{offset-distance:0%}23.33%{offset-distance:49.0169%}30.33%{offset-distance:49.0169%;animation-timing-function:ease-in-out}32.44%,100%{offset-distance:100%}}@keyframes eaf-d202-23{0%{transform:scale(1,1)}23.33%{transform:scale(1,1);animation-timing-function:ease-in-out}24.22%{transform:scale(1,0.75);animation-timing-function:ease-in-out}25.22%,100%{transform:scale(1,1)}}@keyframes eaf-d202-24{0%,100%{transform:translate(-250.95px,-459.3px)}}@keyframes eaf-d202-25{0%,100%{transform:translate(251.9px,250.9px)}}@keyframes eaf-d202-26{0%{transform:scale(1,0)}35.89%{transform:scale(1,0);animation-timing-function:ease-in-out}37.56%,100%{transform:scale(1,1)}}@keyframes eaf-d202-27{0%,100%{transform:translate(-251.9px,-250.9px)}}@keyframes eaf-d202-28{0%{opacity:0}33.78%{opacity:0;animation-timing-function:ease-in-out}35.56%,100%{opacity:1}}@keyframes eaf-d202-29{0%{opacity:1;animation-timing-function:ease-in-out}37%{opacity:0;animation-timing-function:ease-in-out}37.89%,100%{opacity:1}}@keyframes eaf-d202-30{0%,100%{transform:none;offset-path:path("m251.85 250.9l0 0l512.968 0")}}@keyframes eaf-d202-31{0%{offset-distance:0%}41.89%{offset-distance:0%;animation-timing-function:linear(0 0%,-0.1 41%,-0.08 52%,-0.01 62%,0.13 72%,0.35 82%,0.63 91%,1 100%)}44.44%,100%{offset-distance:100%}}@keyframes eaf-d202-32{0%,100%{transform:translate(-251.85px,-250.9px)}}@keyframes eaf-d202-33{0%{opacity:0}33.11%{opacity:0;animation-timing-function:ease-in-out}35.33%{opacity:1}44.78%{opacity:1}45.44%,100%{opacity:0}}@keyframes eaf-d202-34{0%,100%{transform:translate(258.5px,425.6px)}}@keyframes eaf-d202-35{0%{transform:scale(0,1)}45.22%{transform:scale(0,1);animation-timing-function:linear(0 0%,0.02 5%,0.06 9%,0.25 18%,0.55 27%,1 36.37%,0.61 46%,0.52 51%,0.5 55%,0.54 60%,0.64 64%,1 72.73%,0.82 77%,0.77 79%,0.75 82%,0.8 86%,1 91%,0.88 95%,0.91 98%,1 100%)}48.11%{transform:scale(1,1)}53.11%{transform:scale(1,1);animation-timing-function:ease-in-out}55.44%,100%{transform:scale(20,20)}}@keyframes eaf-d202-36{0%,100%{transform:translate(-258.5px,-425.6px)}}@keyframes eaf-d202-37{0%{opacity:1}54.11%{opacity:1;animation-timing-function:ease-in-out}55.44%,100%{opacity:0}}@keyframes eaf-d202-38{0%{animation-timing-function:step-start}62.67%{opacity:0;animation-timing-function:ease-in-out}64.11%,100%{opacity:1}}@keyframes eaf-d202-39{0%{animation-timing-function:step-start}73.11%{opacity:0;animation-timing-function:ease-in-out}73.78%,100%{opacity:1}}@keyframes eaf-d202-40{0%{animation-timing-function:step-start}67.11%{opacity:0;animation-timing-function:ease-in-out}68.22%,100%{opacity:1}}@keyframes eaf-d202-41{0%,100%{transform:none;offset-path:path("m253.95 248.3426l209.8149 89.018l0 0l-137.4189 -94.3607l0 0l-151.6459 101.1l0 0l135.0456 -116.7001l0 0l-55.7956 20.9427l0 0")}}@keyframes eaf-d202-42{0%{offset-distance:0%}60.33%{offset-distance:27.967%}63.56%{offset-distance:27.967%;animation-timing-function:ease-in-out}67.11%{offset-distance:48.4219%}68.78%{offset-distance:48.4219%;animation-timing-function:ease-in-out}70.56%{offset-distance:70.786%}71.89%{offset-distance:70.786%;animation-timing-function:ease-in-out}73.11%{offset-distance:92.6871%}74.56%{offset-distance:92.6871%;animation-timing-function:ease-in-out}76.33%,100%{offset-distance:100%}}@keyframes eaf-d202-43{0%{transform:scale(1,1)}60.33%{transform:scale(1.9253,1.9253)}63.56%{transform:scale(1.9253,1.9253);animation-timing-function:ease-in-out}67.11%{transform:scale(1.7622,1.7622)}68.78%{transform:scale(1.7622,1.7622);animation-timing-function:ease-in-out}70.56%{transform:scale(2.3059,2.3059)}71.89%{transform:scale(2.3059,2.3059);animation-timing-function:ease-in-out}73.11%{transform:scale(1.8461,1.8461)}74.56%{transform:scale(1.8461,1.8461);animation-timing-function:ease-in-out}76.33%,100%{transform:scale(1,1)}}@keyframes eaf-d202-44{0%,100%{transform:translate(-253.95px,-248.3426px)}}@keyframes eaf-d202-45{0%{opacity:0}59.11%{opacity:0;animation-timing-function:ease-in-out}61.33%,100%{opacity:1}}@keyframes eaf-d202-46{0%{opacity:0}56.33%{opacity:0;animation-timing-function:ease-in-out}59%{opacity:1}81.78%{opacity:1;animation-timing-function:ease-in-out}84.22%,100%{opacity:0}}@keyframes eaf-d202-47{0%,100%{transform:none;offset-path:path("m249.95 251.7l0 0l14.2 -122.5l-23.75 -108.5l20.6001 -94.1238l-30.5107 -61.2762l19.4607 -69.1")}}@keyframes eaf-d202-48{0%{offset-distance:0%}91.67%{offset-distance:0%;animation-timing-function:ease-in-out}92.33%{offset-distance:26.1837%;animation-timing-function:ease-in-out}93%{offset-distance:49.7662%;animation-timing-function:ease-in-out}93.56%{offset-distance:70.2238%;animation-timing-function:ease-in-out}94%{offset-distance:84.7578%;animation-timing-function:ease-in-out}94.56%,100%{offset-distance:100%}}@keyframes eaf-d202-49{0%,100%{transform:translate(-249.95px,-251.7px)}}@keyframes eaf-d202-50{0%{opacity:0}83.78%{opacity:0}85.78%,100%{opacity:1}}</style></defs><g clip-path="url('#eaf-d202-1')" style="isolation: isolate;"><g><g transform="matrix(4 0 0 4 -827.28 -2254.5264)"><path fill="#bee4fa" d="m331.8 626.1c0 15.6 0 31.3 0 46.9c0 7.2 -5.4 13.7 -12.5 15.1c-1 0.2 -2.1 0.3 -3.2 0.3c-31.2 0 -62.4 0 -93.6 0c-7.6 0 -14.3 -5.9 -15.3 -13.5c-0.1 -0.7 -0.1 -1.4 -0.1 -2c0 -31.3 0 -62.5 0 -93.8c0 -7.2 5.4 -13.7 12.5 -15.1c1 -0.2 2.1 -0.3 3.2 -0.3c31.2 0 62.4 0 93.6 0c7.2 0 13.7 5.4 15.1 12.5c0.2 1 0.3 2.1 0.3 3.2c0 15.6 0 31.1 0 46.7z"></path></g><rect fill="#fefadf" width="81" height="73.2" transform="translate(-177 -9.7)"></rect><rect fill="#01507b" width="81" height="73.2" transform="translate(-177 83.8)"></rect><rect fill="#c90606" width="81" height="73.2" transform="translate(-177 177.3)"></rect><rect fill="#e1f3fd" width="81" height="73.2" transform="translate(-177 270.9)"></rect><rect fill="#f7e79c" width="81" height="73.2" transform="translate(-177 364.4)"></rect><rect fill="#f7e79c" width="81" height="73.2" transform="translate(-177 364.4)"></rect><rect fill="#f4b526" width="81" height="73.2" transform="translate(-177 457.2)"></rect><rect fill="#bee4fa" width="81" height="73.2" transform="translate(-177 551.4)"></rect><g style="animation-name: eaf-d202-7, eaf-d202-10, eaf-d202-9; animation-composition: replace, add, add;"><g style="animation-name: eaf-d202-7, eaf-d202-8, eaf-d202-9; animation-composition: replace, add, add;"><path fill="#c90606" stroke="#01507b" stroke-width="12.338" stroke-miterlimit="10" d="m374.3 70.8l-33.1 58.6c36.6 27.8 60.3 71.8 60.3 121.3c0 83.9 -68.3 152.2 -152.2 152.2c-83.9 0 -152.1 -68.3 -152.1 -152.2c0 -35.5 12.2 -68.2 32.7 -94.2l-48.7 -46.1c-31.7 38 -50.8 86.9 -50.8 140.3c0 121 98 219 219 219c121 0 219 -98 219 -219c-0.1 -74.6 -37.3 -140.4 -94.1 -179.9z"></path><path fill="#f4b526" stroke="#01507b" stroke-width="12.338" stroke-miterlimit="10" d="m249.3 98.5c34.5 0 66.3 11.5 91.8 30.9l33.1 -58.6c-35.4 -24.7 -78.5 -39.1 -124.9 -39.1c-67.6 0 -128 30.6 -168.2 78.7l48.7 46.1c28 -35.3 71.1 -58 119.5 -58z"></path></g><g><path fill="#01507b" d="m194.4 230.6l-23.6 2.8c-0.7 -7.4 -3.7 -11.1 -9 -11.1c-7.6 0 -11.6 8 -11.8 24c3.6 -5.7 9.8 -8.5 18.6 -8.5c8.4 0 15.1 2.7 20.4 8c5.2 5.4 7.8 12.3 7.8 20.7c0 8.8 -3.3 16.3 -9.9 22.5c-6.6 6.1 -15.1 9.2 -25.5 9.2c-7.6 0 -14.4 -1.8 -20.4 -5.5c-6 -3.7 -10.4 -9.1 -13.5 -16.3c-3 -7.2 -4.5 -15 -4.5 -23.5c0 -14.5 3.3 -26.5 9.9 -35.8c6.6 -9.4 16.1 -14 28.3 -14c8.7 0 16.1 2.4 22.1 7.1c6.2 4.8 9.8 11.6 11.1 20.4zm-33.9 48.8c3.1 0 5.6 -1.1 7.5 -3.2c1.9 -2.1 2.8 -4.7 2.8 -7.8c0 -3 -0.9 -5.7 -2.7 -7.9c-1.8 -2.3 -4.2 -3.4 -7.2 -3.4c-3.1 0 -5.6 1.1 -7.6 3.3c-2 2.2 -3 4.9 -3 8c0 3 0.9 5.6 2.8 7.7c1.8 2.3 4.3 3.3 7.4 3.3z"></path><path fill="#01507b" d="m275.7 274.2l-1 22.7l-70.3 0l0 -21.2l15.7 -11c2.3 -1.6 6.6 -5 12.9 -10.2c6.3 -5.2 10.4 -9.2 12.3 -12c1.9 -2.8 2.9 -5.7 2.9 -8.8c0 -2.9 -0.8 -5.3 -2.5 -7.1c-1.7 -1.8 -3.9 -2.7 -6.6 -2.7c-6.8 0 -10.6 5.3 -11.4 16l-23.3 -4.5c1.7 -10.9 6 -18.9 12.7 -24.2c6.8 -5.3 14.8 -7.9 24 -7.9c10 0 18.2 2.7 24.5 8c6.3 5.4 9.5 12.5 9.5 21.4c0 6 -1.7 11.6 -5.2 17c-3.4 5.4 -13.5 13.6 -30.3 24.6l36.1001 0l0 -0.1z"></path><path fill="#01507b" d="m304.2 251.3c-5.7 0 -10.3 -2.2 -13.6 -6.5c-3.4 -4.4 -5 -10.1 -5 -17.3c0 -7.3 1.7 -13.1 5.2 -17.3c3.4 -4.2 8 -6.3 13.8 -6.3c6 0 10.5 2.2 13.8 6.7c3.2 4.5 4.9 10.3 4.9 17.3c0 7.2 -1.7 12.9 -5.2 17.1c-3.6 4.2 -8.2 6.3 -13.9 6.3zm60.7 -46.8l-56.1 92.3l-12.8 0l56.5 -92.3l12.4 0l0 0zm-60.7 36.7c3.2 0 4.8 -4.5 4.8 -13.5c0 -4.1 -0.3 -7.4 -0.9 -10c-0.6 -2.6 -1.9 -3.9 -3.8 -3.9c-3.1 0 -4.6 4.4 -4.6 13.1c0 5.4 0.3 9.1 1 11.2c0.6 2.1 1.8 3.1 3.5 3.1zm52.5 56.3c-5.7 0 -10.2 -2.2 -13.6 -6.5c-3.4 -4.3 -5 -10.1 -5 -17.3c0 -7.3 1.7 -13.1 5.1 -17.4c3.4 -4.2 8 -6.3 13.8 -6.3c5.6 0 10.1 2.1 13.5 6.3c3.5 4.2 5.2 10.1 5.2 17.8c0 7.2 -1.7 12.9 -5.2 17.1c-3.5 4.2 -8.1 6.3 -13.8 6.3zm0.1 -10.1c3.2 0 4.8 -4.5 4.8 -13.5c0 -4.1 -0.3 -7.4 -0.9 -10c-0.6 -2.6 -1.9 -3.9 -3.8 -3.9c-3.2 0 -4.8 4.3 -4.8 13c0 5.5 0.3 9.3 1 11.3c0.8 2.1 2 3.1 3.7 3.1z"></path></g></g><g transform="translate(479.5971 0)" style="animation-name: eaf-d202-15, eaf-d202-16, eaf-d202-17, eaf-d202-18, eaf-d202-19; animation-composition: replace, add, add, add, replace;"><path fill="#01507b" d="m36.5 419.5l0 -337.8c0 -23 17.7 -41.7 39.6 -41.7l349.9 0c21.9 0 39.6 18.7 39.6 41.7l0 337.9c0 23 -17.7 41.7 -39.6 41.7l-349.8 0c-21.9 -0.1 -39.7 -18.8 -39.7 -41.8z"></path><path fill="url('#eaf-d202-2')" d="m37.9 307l0 0c0 -10.5 8.1 -19.1 18.1 -19.1l64.9 0c8.4 0 15.7 -6.1 17.6 -14.8l9.6 -44.3c1.9 -8.7 9.2 -14.8 17.6 -14.8l30.9 0c10 0 18.1 8.6 18.1 19.1l0 102.8c0 10.5 8.1 19.1 18.1 19.1l35.7 0c10 0 18.1 -8.6 18.1 -19.1l0 -49.3c0 -10.5 8.1 -19.1 18.1 -19.1l73.5 0c10 0 18.1 -8.6 18.1 -19.1l0 -77.3c0 -10.5 8.1 -19.1 18.1 -19.1l34.8 0c10 0 18.1 8.6 18.1 19.1l0 264.4c0 10.5 -8.1 19.1 -18.1 19.1l-393.2 0c-10 0 -18.1 -8.6 -18.1 -19.1l0 -123.5" transform="matrix(1 0 0 0 0 454.6)" style="animation-name: eaf-d202-11, eaf-d202-12, eaf-d202-13; animation-composition: replace, add, add;"></path><g opacity="0" style="animation-name: eaf-d202-14;"><path fill="#fefadf" d="m234.7 112.3l-0.5 11.8l-34.6 0l0 -11l7.7 -5.7c1.1 -0.8 3.2 -2.6 6.3 -5.3c3.1 -2.7 5.1 -4.8 6.1 -6.2c0.9 -1.5 1.4 -3 1.4 -4.6c0 -1.5 -0.4 -2.7 -1.2 -3.7c-0.8 -0.9 -1.9 -1.4 -3.2 -1.4c-3.3 0 -5.2 2.8 -5.6 8.3l-11.5 -2.4c0.8 -5.6 2.9 -9.8 6.3 -12.6c3.3 -2.8 7.3 -4.1 11.8 -4.1c4.9 0 8.9 1.4 12 4.2c3.1 2.8 4.7 6.5 4.7 11.1c0 3.1 -0.8 6 -2.5 8.8c-1.7 2.8 -6.7 7.1 -14.9 12.8l17.7 0l0 0z"></path><path fill="#fefadf" d="m238.3 109.5l11.8 -1.5c0.8 4.4 3 6.6 6.6 6.6c1.7 0 3 -0.5 4.1 -1.4c1.1 -0.9 1.6 -2.1 1.6 -3.7c0 -1 -0.3 -1.9 -0.8 -2.7c-0.6 -0.8 -1.2 -1.3 -1.8 -1.7c-0.6 -0.3 -1.7 -0.5 -3.3 -0.5l-5.5 0l0 -10l4.7 0c2.5 0 4.1 -0.5 4.8 -1.4c0.7 -0.9 1.1 -1.9 1.1 -2.9c0 -1.3 -0.4 -2.3 -1.3 -3.2c-0.9 -0.8 -2 -1.3 -3.5 -1.3c-3.1 0 -5 1.8 -5.7 5.5l-11 -1.8c1 -4.5 3.1 -8 6.3 -10.4c3.2 -2.4 7 -3.7 11.4 -3.7c5 0 8.9 1.2 12 3.7c3.1 2.5 4.5 5.7 4.5 9.8c0 2.5 -0.6 4.6 -1.9 6.4c-1.3 1.8 -2.9 3.1 -4.9 3.7c5.4 1.8 8.2 5.5 8.2 11.3c0 4.6 -1.7 8.2 -5 10.7c-3.3 2.5 -7.6 3.8 -12.9 3.8c-10.6001 0.1 -17.1001 -5.1 -19.5001 -15.3z"></path><path fill="#fefadf" d="m305.5 124.1l-7.5 0l0 -48l13 0l0 16.5c1.8 -3.3 4.7 -5 8.7 -5c2.8 0 5.2 0.8 7.1 2.3c1.9 1.5 3.4 3.8 4.4 6.6c1 2.9 1.4 5.9 1.4 9.1c0 5.8 -1.2 10.4 -3.7 13.9c-2.4 3.5 -6.1 5.3 -10.9 5.3c-4.8 0 -8.4 -1.9 -10.9 -5.7c-0.6 1.5 -1.2 3.1 -1.6 5zm5.5 -13.3c0 3.5 1.3 5.3 3.9 5.3c1.4 0 2.5 -0.6 3.2 -1.9c0.7 -1.3 1.1 -3.9 1.1 -7.9c0 -4.3 -0.4 -7.1 -1.3 -8.2c-0.8 -1.1 -1.9 -1.7 -3.1 -1.7c-1 0 -1.8 0.4 -2.6 1.2c-0.8 0.8 -1.2 2 -1.2 3.5l0 9.7z"></path><path fill="#fefadf" d="m351.2 135.4l-13.3 0l0 -47l12.2 0l0 5.1c1.7 -3.9 4.9 -5.8 9.5 -5.8c4 0 7.2 1.7 9.5 5c2.3 3.3 3.4 7.8 3.4 13.6c0 5.7 -1.2 10.3 -3.5 13.6c-2.3 3.3 -5.4 5.1 -9.3 5.1c-3.8 0 -6.6 -1.5 -8.6 -4.6l0 15l0.1 0zm0 -24.4c0 1.6 0.3 2.8 1 3.7c0.7 0.9 1.5 1.3 2.6 1.3c1.6 0 2.7 -0.8 3.3 -2.3c0.6 -1.6 0.9 -4 0.9 -7.2c0 -3.7 -0.3 -6.3 -1 -7.9c-0.7 -1.5 -1.7 -2.3 -3.1 -2.3c-0.8 0 -1.6 0.3 -2.4 1c-0.8 0.7 -1.2 1.8 -1.2 3.3l0 10.4l-0.1 0z"></path><path fill="#fefadf" d="m374.8 114l10.5 -1.5c0.6 2.6 3 3.9 7.1 3.9c3.4 0 5.2 -0.7 5.2 -2.1c0 -0.6 -0.3 -1.1 -1 -1.4c-0.7 -0.3 -2.2 -0.7 -4.7 -1c-6.9 -1 -11.2 -2.6 -12.9 -4.7c-1.7 -2.1 -2.6 -4.5 -2.6 -7.2c0 -3.7 1.4 -6.6 4.3 -8.9c2.9 -2.3 6.7 -3.4 11.3 -3.4c8.2 0 13.4 3.1 15.7 9.4l-10 2c-0.9 -2.1 -2.9 -3.2 -5.9 -3.2c-1.4 0 -2.5 0.2 -3.2 0.6c-0.7 0.4 -1 0.8 -1 1.2c0 1.2 1.1 1.9 3.2 2.1c5.5 0.6 9.3 1.3 11.3 2c2 0.7 3.7 1.9 5 3.7c1.4 1.8 2.1 4 2.1 6.5c0 3.9 -1.5 7 -4.6 9.3c-3.1 2.3 -7.3 3.4 -12.8 3.4c-9.2 0.2 -14.8 -3.5 -17 -10.7z"></path></g><path fill="#01507b" d="m426 467l-349.8 0c-25.1 0 -45.5 -21.3 -45.5 -47.5l0 -337.8c0 -26.2 20.4 -47.5 45.5 -47.5l349.8 0c25.1 0 45.5 21.3 45.5 47.5l0 337.9c-0.1 26.1 -20.5 47.4 -45.5 47.4zm-349.8 -421.2c-18.7 0 -33.8 16.1 -33.8 35.8l0 337.9c0 19.8 15.2 35.8 33.8 35.8l349.8 0c18.7 0 33.8 -16.1 33.8 -35.8l0 -337.8c0 -19.8 -15.2 -35.8 -33.8 -35.8l-349.8 0l0 -0.1z"></path></g><g transform="translate(0 -468.7)" style="animation-name: eaf-d202-21, eaf-d202-22, eaf-d202-23, eaf-d202-24; animation-composition: replace, add, add, add;"><path fill="url('#eaf-d202-3')" stroke="#01507b" stroke-width="11.7068" stroke-miterlimit="10" d="m455.4 91.8l0 -30.2c0 -4 -3.1 -7.3 -7 -7.3l-8 0c-3.8 0 -7 3.3 -7 7.3l0 0c0 4 -3.1 7.3 -7 7.3l-8 0c-3.8 0 -7 3.3 -7 7.3l0 47.7c0 4 -3.1 7.3 -7 7.3l-8 0c-3.8 0 -7 3.3 -7 7.3l0 118c0 4 -3.1 7.3 -7 7.3l-8 0c-3.8 0 -7 -3.3 -7 -7.3l0 -11.7c0 -4 -3.1 -7.3 -7 -7.3l-8 0c-3.8 0 -7 -3.3 -7 -7.3l0 -80.2c0 -4 -3.1 -7.3 -7 -7.3l-8 0c-3.8 0 -7 -3.3 -7 -7.3l0 -59.2c0 -4 -3.1 -7.3 -7 -7.3l-3.7 0c-3.8 0 -7 -3.3 -7 -7.3l0 -11.4c0 -4 -3.1 -7.3 -7 -7.3l-8 0c-3.8 0 -7 3.3 -7 7.3l0 152.2c0 4 -3.1 7.3 -7 7.3l-4.2 0c-3.8 0 -7 -3.3 -7 -7.3l0 -38.8c0 -4 -3.1 -7.3 -7 -7.3l-8 0c-3.8 0 -7 -3.3 -7 -7.3l0 -72.8c0 -4 -3.1 -7.3 -7 -7.3l-8 0c-3.8 0 -7 3.3 -7 7.3l0 42.3c0 4 -3.1 7.3 -7 7.3l-8 0c-3.8 0 -7 3.3 -7 7.3l0 37.9c0 4 -3.1 7.3 -7 7.3l-7 0c-3.8 0 -7 -3.3 -7 -7.3l0 -94.8c0 -4 -3.1 -7.3 -7 -7.3l-8 0c-3.8 0 -7 3.3 -7 7.3l0 42.3c0 4 -3.1 7.3 -7 7.3l-8 0c-3.8 0 -7 3.3 -7 7.3l0 5.1c0 4 -3.1 7.3 -7 7.3l-8 0c-3.8 0 -7 -3.3 -7 -7.3l0 -31.7c0 -4 -3.1 -7.3 -7 -7.3l-8 0c-3.8 0 -7 -3.3 -7 -7.3l0 -38.2c0 -4 -3.1 -7.3 -7 -7.3l-8 0c-3.8 0 -7 3.3 -7 7.3l0 7.8c0 4 -3.1 7.3 -7 7.3l-8 0c-3.8 0 -7 3.3 -7 7.3l0 110.9c0 4 -3.1 7.3 -7 7.3l-8 0c-3.8 0 -7 3.3 -7 7.3l0 248.1c0 4 3.1 7.3 7 7.3l14.9 0l21.9 0l21.9 0l21.9 0l23.9 0l21.9 0l20.9 0l1 0l20.9 0l21.9 0l21.9 0l21.9 0l18.2 0l3.7 0l13.9 0l4.2 0l17.6 0l22 0l21.9 0l21.9 0l21.9 0l21.9 0l21.9 0l14.9 0c3.8 0 7 -3.3 7 -7.3l0 -343.2c0 -4 -3.1 -7.3 -7 -7.3l-8 0c-3.9 0 -7 -3.3 -7 -7.4z"></path><g opacity="0" style="animation-name: eaf-d202-20;"><path fill="#fff" d="m155.6 426.7l10.2 0l0 9.6l-33.2 0l0 -9.6l10.6 0l0 -20.5c-4 1.8 -7.2 2.8 -9.5 3.2l0 -9.7c6.1 -1.3 10.3 -3.7 12.5 -7.1l9.4 0l0 34.1z"></path><path fill="#fff" d="m202.2 425.7l-0.5 10.6l-32.9 0l0 -9.9l7.3 -5.2c1.1 -0.7 3.1 -2.3 6 -4.8c2.9 -2.4 4.9 -4.3 5.8 -5.6c0.9 -1.3 1.3 -2.7 1.3 -4.1c0 -1.4 -0.4 -2.5 -1.2 -3.3c-0.8 -0.8 -1.8 -1.2 -3.1 -1.2c-3.2 0 -4.9 2.5 -5.3 7.5l-10.9 -2.1c0.8 -5.1 2.8 -8.9 6 -11.3c3.2 -2.5 6.9 -3.7 11.2 -3.7c4.7 0 8.5 1.3 11.5 3.8c3 2.5 4.4 5.8 4.4 10c0 2.8 -0.8 5.4 -2.4 7.9c-1.6 2.5 -6.3 6.3 -14.1 11.5l16.9 0l0 -0.1z"></path><path fill="#fff" d="m223.8 437c-5.2 0 -9.3 -2 -12.4 -6.1c-3 -4.1 -4.6 -9.5 -4.6 -16.2c0 -6.8 1.6 -12.3 4.7 -16.2c3.1 -4 7.3 -5.9 12.5 -5.9c5.5 0 9.6 2.1 12.5 6.3c2.9 4.2 4.4 9.6 4.4 16.2c0 6.7 -1.6 12 -4.7 16c-3.1 3.9 -7.3 5.9 -12.4 5.9zm0.1 -9.2c1.8 0 3 -1.2 3.6 -3.5c0.6 -2.3 0.9 -5.5 0.9 -9.5c0 -5.5 -0.4 -9.1 -1.2 -10.8c-0.8 -1.7 -1.9 -2.5 -3.3 -2.5c-1.7 0 -2.8 1.1 -3.5 3.3c-0.6 2.2 -1 5.3 -1 9.2c0 5.3 0.3 8.9 1 10.8c0.7 2.1 1.8 3 3.5 3z"></path><path fill="#fff" d="m301.7 436.3l-14.5 0l-7.5 -16.3l-4.5 6.3l0 10l-12.5 0l0 -43.1l12.5 0l0 17.8l11.9 -17.8l11.9 0l-10.8 15.8l13.5 27.3z"></path><path fill="#fff" d="m359.3 393.2l-11.4 43.1l-11.1 0l-6 -23.8l-5.7 23.8l-11.6 0l-11.5 -43.1l12.5 0l6 24.8l5.9 -24.8l10.4 0l6.4 24.9l6 -24.9l10.1 0z"></path><path fill="#fff" d="m394.6 436.3l-12.6 0l0 -19.3c0 -1.8 -0.2 -3 -0.6 -3.6c-0.4 -0.7 -1.1 -1 -2.2 -1c-0.9 0 -1.6 0.3 -2.2 0.8c-0.6 0.5 -1 1 -1.1 1.6c-0.1 0.5 -0.2 1.7 -0.2 3.4l0 18.2l-12.7 0l0 -43.1l12.6 0l0 14.7c2.3 -3 5.2 -4.5 8.9 -4.5c1.9 0 3.5 0.3 4.9 1c1.4 0.6 2.5 1.5 3.2 2.5c0.7 1 1.3 2 1.5 2.9c0.2 0.9 0.4 2.8 0.4 5.5l0 20.9l0.1 0z"></path></g></g><g transform="translate(0 0)" opacity="0" style="animation-name: eaf-d202-30, eaf-d202-31, eaf-d202-32, eaf-d202-33; animation-composition: replace, add, add, replace;"><path fill="#01507b" d="m453.6 457.2l-403.5 0c-20.5 0 -37.1 -16.6 -37.1 -37.1l0 -338.4c0 -20.5 16.6 -37.1 37.1 -37.1l403.5 0c20.5 0 37.1 16.6 37.1 37.1l0 338.5c0 20.4 -16.6 37 -37.1 37z"></path><g transform="matrix(1 0 0 0 0 250.9)" opacity="0" style="animation-name: eaf-d202-25, eaf-d202-26, eaf-d202-27, eaf-d202-28; animation-composition: replace, add, add, replace;"><polygon points="35.2,206.8 41.9,76.2 81.3,229.1 98.6,134.8 112.7,209.9 133.4,187.1 150.7,214 161.4,196.3 196.8,191 200.8,100.1 214.2,207.3 227.5,195.7 240.2,118.2 250.8,194.1 268.9,214 273.6,137.4 273.6,61.2 288.3,214 305,136.4 331.7,63.9 337.7,229.1 355.7,219.4 361.7,86.4 382.4,240.4 392.4,217.8 403.8,240.4 409.1,195.7 425.1,237.8 431.2,160.1 441.8,243 454.5,78.6 468.6,250.9 35.2,250.9" fill="#51af58"></polygon><polygon points="468.6,295 461.9,425.6 422.5,272.7 405.1,367 391.1,291.9 370.4,314.7 353,287.7 342.4,305.5 307,310.8 303,401.7 289.6,294.5 276.3,306.1 263.6,383.6 253,307.6 234.9,287.7 230.2,364.4 230.2,440.6 215.5,287.7 198.8,365.4 172.1,437.9 166.1,272.7 148.1,282.4 142,415.3 121.3,261.4 111.3,284 100,261.4 94.6,306.1 78.6,264 72.6,341.7 61.9,258.8 49.2,423.2 35.2,250.9 468.6,250.9" fill="#f4b526"></polygon></g><path fill="#75af62" d="m540.6 356.8"></path><g style="animation-name: eaf-d202-29;"><path fill="#fff" d="m359.4 407.6c7.3 3.7 11 9.3 11 16.8c0 6.8 -2.6 12 -7.9 15.7c-5.3 3.7 -12.2 5.5 -20.8 5.5c-8.6 0 -15.2 -1.7 -19.8 -5.2c-4.6 -3.5 -6.9 -8 -6.9 -13.7c0 -7.1 3.5 -12.2 10.6 -15.4c-5.7 -3.1 -8.5 -8.1 -8.5 -14.8c0 -5.9 2.3 -10.9 6.9 -14.9c4.6 -4 11 -6 19.2 -6c7.3 0 13.3 1.7 17.9 5c4.6 3.3 6.9 7.7 6.9 13.2c0 2.5 -0.5 4.8 -1.6 6.9c-0.9 2.1 -3.3 4.4 -7 6.9zm-22 10.5c-3.1 1.9 -4.7 4.3 -4.7 7c0 2.1 0.9 3.8 2.6 5.2c1.8 1.4 4.3 2.1 7.5 2.1c2.6 0 4.6 -0.5 6 -1.5c1.4 -1 2.1 -2.2 2.1 -3.8c0 -2.6 -1.9 -4.6 -5.8 -6.1l-7.7 -2.9zm9.3 -15.7c2.8 -1.4 4.2 -3.5 4.2 -6.3c0 -2.1 -0.8 -3.8 -2.3 -5.1c-1.6 -1.3 -3.8 -2 -6.6 -2c-2 0 -3.6 0.5 -4.7 1.4c-1.1 1 -1.7 2.1 -1.7 3.5c0 2.6 1.7 4.5 5 5.9l6.1 2.6z"></path><path fill="#fff" d="m428 395.8l-17.4 2.1c-0.5 -5.4 -2.7 -8.2 -6.6 -8.2c-5.6 0 -8.5 5.9 -8.7 17.6c2.7 -4.2 7.2 -6.3 13.7 -6.3c6.1 0 11.1 2 15 5.9c3.8 3.9 5.8 9 5.8 15.2c0 6.5 -2.4 12 -7.3 16.5c-4.9 4.5 -11.1 6.8 -18.8 6.8c-5.6 0 -10.6 -1.3 -15 -4.1c-4.4 -2.7 -7.7 -6.7 -9.9 -12c-2.2 -5.3 -3.3 -11 -3.3 -17.3c0 -10.7 2.4 -19.4 7.3 -26.3c4.9 -6.9 11.8 -10.3 20.8 -10.3c6.4 0 11.8 1.7 16.3 5.2c4.5 3.7 7.2 8.7 8.1 15.2zm-24.9 35.9c2.3 0 4.1 -0.8 5.5 -2.3c1.4 -1.6 2 -3.5 2 -5.7c0 -2.2 -0.7 -4.2 -2 -5.8c-1.3 -1.7 -3.1 -2.5 -5.3 -2.5c-2.3 0 -4.1 0.8 -5.6 2.5c-1.5 1.6 -2.2 3.6 -2.2 5.9c0 2.2 0.7 4.1 2.1 5.7c1.4 1.4 3.2 2.2 5.5 2.2z"></path></g></g><g transform="matrix(0 0 0 1 258.5 0)" style="animation-name: eaf-d202-34, eaf-d202-35, eaf-d202-36, eaf-d202-37; animation-composition: replace, add, add, replace;"><g><rect fill="#01507b" stroke="#01507b" stroke-width="10" stroke-miterlimit="10" width="80.2" height="336.8" transform="translate(38.9 86.2)"></rect><rect fill="#f7e79c" stroke="#01507b" stroke-width="10" stroke-miterlimit="10" width="80.2" height="223.5" transform="translate(38.9 199.6)"></rect></g><g><rect fill="#01507b" stroke="#01507b" stroke-width="10" stroke-miterlimit="10" width="80.2" height="336.8" transform="translate(277 86.2)"></rect><rect fill="#f7e79c" stroke="#01507b" stroke-width="10" stroke-miterlimit="10" width="80.2" height="296.9" transform="translate(277 126.2)"></rect></g><g><rect fill="#01507b" stroke="#01507b" stroke-width="10" stroke-miterlimit="10" width="80.2" height="336.8" transform="translate(158 86.2)"></rect><rect fill="#f7e79c" stroke="#01507b" stroke-width="10" stroke-miterlimit="10" width="80.2" height="271.2" transform="translate(158 151.8)"></rect></g><g><rect fill="#01507b" stroke="#01507b" stroke-width="10" stroke-miterlimit="10" width="80.2" height="336.8" transform="translate(396.1 86.2)"></rect><rect fill="#f7e79c" stroke="#01507b" stroke-width="10" stroke-miterlimit="10" width="80.2" height="256.3" transform="translate(396.1 166.8)"></rect></g></g><g opacity="0" style="animation-name: eaf-d202-46;"><path fill="#01507b" d="m72 460.3l363.6 0c25.4 0 46 -20.6 46 -46l0 -321.5c0 -25 -20.3 -45.3 -45.3 -45.3l-364.3 0c-25.1 0 -45.4 20.3 -45.4 45.4l0 322.1c0 25 20.3 45.3 45.4 45.3z"></path><g transform="translate(0 0)" opacity="0" style="animation-name: eaf-d202-41, eaf-d202-42, eaf-d202-43, eaf-d202-44, eaf-d202-45; animation-composition: replace, add, add, add, replace;"><g><path fill="#99d6f7" d="m73.9 50.7l-0.6 3.6c-0.4 2.4 -0.1 4.1 0.8 5c1.9 2 1.3 7.3 -1.2 9.7c-2.9 2.8 -4.4 2.5 -5.9 -1.1c-0.7 -1.7 -1.8 -3 -2.3 -3c-1.4 0 -3.6 -3.2 -3.7 -5.3c0 -2 2 -2.4 3.7 -0.6c1.5 1.6 1.5 0.3 0 -2.5c-2.5 -4.7 -1.7 -5.5 5.4 -5.6l3.8 -0.2l0 0z"></path><path fill="#99d6f7" d="m444 71.7c-0.3 0.4 -0.5 2.4 -0.6 6.3c0 7.6 1.4 11.6 3.1 8.8c0.5 -0.8 0.2 -1.4 -0.8 -1.6c-1.3 -0.3 -1.5 -1.3 -1 -6.1c0.3 -3.2 0.2 -6.4 -0.3 -7.2c-0.2 -0.2 -0.3 -0.3 -0.4 -0.2l0 0z"></path><path fill="#99d6f7" d="m465.4 72.5c-0.1 0.2 -0.3 0.8 -0.5 1.8c-0.4 1.8 -0.2 2.5 0.4 1.9c0.5 -0.5 0.8 -1.8 0.6 -2.9c-0.2 -0.7 -0.4 -1 -0.5 -0.8z"></path><path fill="#99d6f7" d="m391.8 81.5c0.5 0 1 0.4 1.8 1.2c1.7 1.6 1.7 1.9 0.2 3.6c-1.7 1.9 -3.5 2.4 -4.6 1.2c-1.1 -1.1 -0.7 -3.2 0.9 -4.9c0.8 -0.8 1.2 -1.1 1.7 -1.1l0 0z"></path><path fill="#99d6f7" d="m445.4 90.2c-0.5 0 -1 0.9 -1 2c0 1.1 -0.4 2.3 -1 2.6c-1 0.6 -1.4 3.5 -0.5 3.5c0.3 0 1.1 -1.3 2 -3c1.7 -3.5 1.9 -5.1 0.5 -5.1l0 0z"></path><path fill="#99d6f7" d="m440.9 98.9c-0.5 -0.1 -0.9 0 -1.4 0.1c-1.1 0.3 -2 0.7 -2 0.9c0 0.2 0.9 0.4 2 0.4c1.1 0 2 -0.4 2 -0.9c0 -0.3 -0.2 -0.4 -0.6 -0.5l0 0z"></path><path fill="#99d6f7" d="m235.4 99.4c0.8 0 1.6 0.7 2.5 2.1c0.8 1.2 1.5 1.8 1.5 1.2c0 -0.6 1.8 -1.2 4.1 -1.3c2.3 -0.1 4.4 -0.6 4.7 -1.1c1.1 -1.8 4.4 0.1 6.1 3.6c1.6 3.2 1.6 3.7 0.2 5.9c-0.8 1.3 -3.1 3.1 -4.9 4c-1.8 0.9 -3.6 2.1 -3.9 2.6c-0.8 1.4 -2.5 1.2 -5.4 -0.5c-1.3 -0.8 -3.3 -1.2 -4.3 -0.9c-1.6 0.5 -1.8 0.1 -1.2 -2.6c0.6 -2.6 0.4 -3 -0.9 -2.5c-2 0.8 -2 -0.5 0 -2.7c1.4 -1.6 1.3 -1.7 -1 -1.2c-3 0.6 -3.2 -1.3 -0.6 -4.6c1.5 -1.3 2.3 -2 3.1 -2l0 0z"></path><path fill="#99d6f7" d="m351.7 126.7c-0.9 0 -0.9 0.6 -0.1 2.4c1 2.1 3.6 2.6 3.6 0.7c0 -1.1 -2.2 -3.1 -3.5 -3.1z"></path><path fill="#99d6f7" d="m334.6 140.4c-0.6 0.4 -0.5 1.3 0.2 2.6c1.3 2.1 2.3 0.9 1.3 -1.7c-0.2 -0.8 -0.9 -1.3 -1.5 -0.9z"></path><path fill="#99d6f7" d="m325.3 140.9c1.8 0 1.9 2.2 0.3 3.8c-1.7 1.7 -3.1 1.5 -2.4 -0.4c0.3 -0.9 0.6 -2 0.6 -2.5c0 -0.5 0.7 -0.9 1.5 -0.9z"></path><path fill="#99d6f7" d="m113.9 238.7c1.4 -0.2 3.1 0.8 3.1 2.2c0 0.8 -0.2 1.4 -0.5 1.4c-0.3 0 -0.5 -0.5 -0.5 -1c0 -0.6 -1 -1 -2.1 -1c-1.5 0 -1.9 -0.3 -1.2 -1c0.3 -0.4 0.7 -0.6 1.2 -0.6l0 0z"></path><path fill="#99d6f7" d="m114.2 242.7c0.3 -0.1 0.6 -0.1 0.8 0.1c1.2 0.8 1.2 3.5 0 3.5c-0.5 0 -1.2 -0.5 -1.5 -1c-0.6 -1 -0.1 -2.3 0.7 -2.6l0 0z"></path><path fill="#99d6f7" d="m105.5 247.5c1.1 0 2.6 0.3 5 0.9c3 0.8 5.5 1.7 5.5 2c0 0.3 2.4 1.7 5.4 3.1c4.5 2 5.4 2.9 5.4 5c0 2.2 -0.4 2.6 -3 2.6c-1.7 0 -3.2 -0.2 -3.4 -0.4c-0.9 -1 -0.3 -2.1 1.1 -2.1c0.8 0 1.3 -0.5 0.9 -1c-0.3 -0.6 -2.1 -1 -3.9 -1c-2.1 0 -3.8 -0.7 -4.6 -1.9c-1.7 -2.5 -7.6 -3.9 -8.8 -2c-0.7 1.1 -1 1.1 -1.7 0.1c-0.5 -0.8 -1.5 -1 -2.6 -0.6c-2.7 1.1 -1.4 -1.9 1.6 -3.6c0.9 -0.7 2 -1.1 3.1 -1.1l0 0z"></path><path fill="#99d6f7" d="m123.3 248.4c0.8 0 1.5 0.4 1.5 1c0 1.3 -1.5 2.2 -2.3 1.4c-1.1 -1.2 -0.7 -2.4 0.8 -2.4z"></path><path fill="#99d6f7" d="m125.1 252.4c1.2 0.1 0.9 1.5 -0.3 2c-0.6 0.2 -1 -0.1 -0.8 -0.8c0.2 -0.8 0.7 -1.3 1.1 -1.2l0 0z"></path><path fill="#99d6f7" d="m130 255.5c2.4 0 6.6 2.6 6.6 4.1c0 0.5 -1.2 1 -2.7 1c-1.5 0 -3.2 0.5 -3.8 1c-0.5 0.6 -1.3 0.7 -1.7 0.3c-0.4 -0.4 -0.7 -2 -0.7 -3.6c0 -2.2 0.5 -2.8 2.3 -2.8z"></path><path fill="#99d6f7" d="m115.9 258.7c0.5 0 1.1 0.1 1.5 0.3c0.8 0.3 1.5 1 1.5 1.6c0 1.4 -4.6 1.4 -5.4 0c-0.6 -1 0.8 -1.9 2.4 -1.9l0 0z"></path><path fill="#99d6f7" d="m139.7 258.7c1.2 0.2 2.2 0.8 2.2 1.3c0 0.5 -1 1.2 -2.2 1.4c-1.5 0.2 -2.2 -0.2 -2.2 -1.4c0 -1.1 0.7 -1.5 2.2 -1.3z"></path><path fill="#99d6f7" d="m356.8 302.2c-1.5 0 -2.8 2.5 -1.8 3.5c0.7 0.7 3.2 -1.3 3.2 -2.6c-0.1 -0.5 -0.7 -0.9 -1.4 -0.9z"></path><path fill="#99d6f7" d="m378.7 327c0.6 -0.4 1 0.1 1 0.9c0 1.8 -0.6 2.1 -1.4 0.7c-0.3 -0.5 -0.1 -1.2 0.4 -1.6l0 0z"></path><path fill="#99d6f7" d="m391 328.6c0.8 0.1 1.8 0.7 2.4 1.9c1.3 2.4 1.3 6.3 0.1 9.4c-0.5 1.3 -1.9 6.1 -3.1 10.8c-1.8 6.8 -2.7 8.7 -4.6 9.4c-3.4 1.3 -4.9 1.1 -5.9 -0.9c-1.9 -3.9 -2.2 -7.4 -0.7 -10.3c0.8 -1.6 1.2 -3.7 0.9 -4.6c-1.2 -3.2 0.6 -6.6 4.1 -8.1c1.9 -0.8 3.4 -2.2 3.4 -3.1c0 -0.9 0.4 -1.6 1 -1.6c0.5 0 1 -0.7 1 -1.5c-0.1 -1 0.6 -1.5 1.4 -1.4l0 0z"></path><path fill="#99d6f7" d="m381.8 328.7c0.4 0.1 0.7 0.3 1 0.6c1.5 1.5 0.7 2.4 -1.2 1.2c-0.8 -0.5 -1.1 -1.2 -0.7 -1.7c0.3 -0.1 0.6 -0.1 0.9 -0.1l0 0z"></path><path fill="#99d6f7" d="m405.2 348.8c0.6 0 1 0.5 1 1c0 0.6 -0.4 1 -1 1c-0.5 0 -1 -0.5 -1 -1c0 0 0 0 0 0c0 -0.5 0.5 -1 1 -1z"></path></g><path fill="#99d6f7" d="m471.9 48.1c2.2 1.4 0.7 2.3 -4.6 3c-8.4 1.1 -8.5 1.1 -7.7 6.4c0.4 3 1.5 5.4 3.2 7c1.4 1.3 2 2.4 1.4 2.4c-0.6 0 -2.3 -1.2 -3.7 -2.6c-2.8 -2.7 -5.7 -2.6 -7.8 0.1c-1.2 1.6 -3 0.6 -2.9 -1.5c0.2 -2.3 -1.5 -5.2 -2.6 -4.5c-0.5 0.3 -0.8 1.4 -0.7 2.4c0.2 0.9 -0.7 3 -1.9 4.6c-1.2 1.6 -1.9 3.3 -1.5 3.9c0.4 0.6 0.1 0.8 -0.5 0.3c-0.8 -0.5 -0.8 -1.3 -0.2 -2.6c0.5 -1 1 -3.3 1 -5c0 -2.7 -0.3 -3.1 -2.7 -3.1c-2.3 0 -2.4 -0.2 -1 -1.1c1.9 -1.1 1.3 -4 -0.8 -4c-0.8 0 -1.7 0.8 -2.1 1.8c-0.5 1.1 -1.1 2.2 -1.9 3.1c-0.7 0.7 -1.3 2.3 -1.3 3.5c0 1.2 -1.2 3.9 -2.6 6.1c-2.2 3.3 -2.4 4.2 -1.4 5.9c0.6 1.1 0.9 3.1 0.5 4.5c-0.4 1.7 -0.1 3 0.9 3.8c1 1 1.8 2.3 2.2 3.6c0.7 2.3 0.6 2.3 -3.1 -0.7c-2.1 -1.7 -6 -3.9 -8.7 -4.8c-2.7 -0.9 -5.8 -2.6 -7 -3.7c-1.4 -1.3 -2.3 -1.6 -2.7 -0.9c-1 1.6 0.4 5.1 2 5.1c1.5 0 3.7 3.5 2.7 4.4c-0.3 0.3 -1.6 0.4 -2.8 0c-1.2 -0.3 -2.5 -0.1 -2.9 0.5c-0.4 0.6 -1.6 1.1 -2.9 1.1c-1.3 0 -2.5 0.5 -3.5 1.3c-1.1 1 -1.2 0.8 -0.8 -1c0.4 -1.7 0.1 -2.3 -1.2 -2.3c-1.2 0.1 -2.2 0.6 -3 1.5c-0.7 0.8 -1.6 1.5 -2.1 1.5c-1.8 0 -8.6 5.4 -9.2 7.2c-0.7 2.1 -2.9 2.6 -4 0.8c-0.4 -0.6 0.1 -1.8 1 -2.5c3.5 -2.6 0.1 -6.5 -5.7 -6.5c-1.3 0 -1.6 0.3 -0.9 1.3c0.5 0.7 1.2 3.7 1.5 6.7c0.6 5.2 0.5 5.4 -1.6 4.9c-2.9 -0.7 -8 4.5 -7.3 7.4c0.6 2.4 -1 2.7 -3.8 0.6c-2.7 -2.1 -3.4 -1.9 -3.4 0.9c0 1.4 0.8 2.9 1.7 3.5c1.5 0.9 1.5 1.1 0.2 1.1c-2.5 0 -5.1 -3.7 -5 -7.3c0.1 -1.8 -0.7 -4.2 -1.6 -5.3c-1.2 -1.4 -1.2 -1.7 -0.2 -0.9c0.8 0.6 3.6 1.7 6.1 2.4c4 1.1 5 1.1 7 -0.3c4.4 -2.9 3.9 -8.3 -1 -11.5c-1.5 -1 -4.2 -3.1 -6 -4.6c-1.8 -1.6 -4.3 -2.8 -5.5 -2.8c-1.5 0 -2.5 -0.7 -2.8 -2.1c-0.5 -1.8 -1 -2 -3.8 -1.4c-3.2 0.7 -3.2 0.7 -1.5 -1.3c1.6 -1.9 1.6 -2.1 -0.8 -4.4c-2.4 -2.3 -3.8 -2.5 -11 -1.7c-1.2 0.1 -2.1 0.5 -2 0.9c0.7 1.6 -2.7 4.1 -4.8 3.5c-1.2 -0.3 -2.3 -0.2 -2.3 0.3c0 0.5 -1.5 1.7 -3.4 2.8c-1.9 1 -4 3.1 -4.7 4.5c-0.8 1.6 -1.8 3.1 -3 4.5c-0.9 1.1 -1.7 2.6 -1.7 3.3c0 0.7 -0.4 1.3 -0.8 1.3c-0.7 0 -5.5 8.8 -5.5 10.3c-0.1 2 -6.8 11 -10.2 13.6c-2.2 1.7 -4 3.6 -4 4.4c0 0.7 -0.5 1 -1 0.7c-0.5 -0.3 -1 0 -1.1 0.7c-0.2 4 0 8 0.5 11.9c1 7.7 3.5 9 8.6 4.6l3 -2.6l1.9 5.7c1.8 5.4 1.8 5.8 0.2 7c-1 0.8 -1.4 1.9 -1.1 2.9c0.7 1.8 3.6 2.3 3.6 0.6c0 -0.6 0.9 -1 2 -1c1.1 0 2 -0.4 2 -1c0 -0.6 0.8 -1 1.9 -1c1.6 0 2.1 -1.1 3.1 -6.1c0.7 -3.6 1.7 -6.1 2.4 -6.1c2.8 0 3.2 -5.3 0.6 -8.8c-2.7 -3.5 -1.2 -7.8 4.4 -13.2c2.5 -2.4 4.2 -4.7 3.9 -5.3c-1 -1.6 1.5 -6.2 3.4 -6.2c1.1 0.1 2.1 0.6 2.8 1.4c1.2 1.5 1 2 -5.5 9.7c-2.8 3.4 -3.1 4.3 -2.8 8.7l0.5 5.6c0 0.4 1.1 1.4 2.4 2.3c2.2 1.5 2.7 1.5 6.7 -0.1c4.5 -1.7 9.5 -1.2 6.6 0.7c-0.8 0.5 -3.1 1 -5.1 1c-2.4 0 -4.4 0.7 -5.6 2c-1.1 1.1 -2.3 2 -2.8 2c-0.9 0 -1.7 3.2 -2.7 10.3c-0.5 3.5 -4.3 8.8 -4.3 6c0 -1.4 -3.9 -0.6 -8 1.5c-1.7 0.9 -2.9 1 -3.2 0.3c-0.3 -0.6 -1.8 -0.9 -3.3 -0.8c-4.7 0.4 -6.4 -2 -3.7 -5.2c1.4 -1.6 1.1 -8.2 -0.4 -8.2c-0.4 0 -1.9 0.9 -3.3 2.1c-2.6 2.1 -3.8 8 -1.6 8c0.5 0 1 1.3 1 2.9c0 2.5 -0.5 3 -3.7 3.8c-2.7 0.7 -4.1 1.8 -5.2 4.2c-0.8 1.8 -2.5 3.7 -3.8 4.3c-2.2 1.1 -2.3 1 -1.7 -2.3c0.5 -2.6 0.2 -3.6 -0.9 -4.1c-0.8 -0.3 -1.9 -1.6 -2.5 -2.9c-1.4 -3.2 -3.2 -6.3 -4.7 -8.2c-0.9 -1.2 -1 -2.1 -0.2 -3.6c1.5 -3 1.3 -4.2 -0.8 -4.2c-1.4 0 -1.7 -0.5 -1.4 -2c0.4 -1.6 0 -2 -2 -2c-1.4 0 -2.9 0.8 -3.4 1.8c-1.4 2.8 -2.2 8.4 -1.2 8.4c0.5 0 0.6 0.9 0.3 2.1c-0.4 1.4 -1.1 2 -2.3 1.6c-1.9 -0.5 -5.3 2.5 -4.1 3.7c0.4 0.4 0 0.5 -0.8 0.1c-1.9 -0.8 -3 1.8 -2.2 5.2c0.3 1.4 0.2 2.5 -0.4 2.5c-0.5 0 -0.8 0.9 -0.5 2c0.6 2.4 1 2.4 6.2 0.8c2.7 -0.9 4 -1.9 4.1 -3.3c0.1 -1.1 0.2 -2.5 0.3 -3.2c0.1 -0.6 0.7 -1.9 1.5 -2.8c1.2 -1.5 1.5 -1.5 2.8 -0.2c1.3 1.4 1.2 1.8 -0.9 3.6c-1.7 1.4 -1.9 2.1 -0.9 2.1c1.1 0.1 1.1 0.4 -0.4 1.5c-1.4 1.1 -1.6 1.8 -0.8 2.8c0.8 1 0.7 2 -0.5 3.7c-1.6 2.3 -1.5 2.4 0.8 1.7c4.2 -1.2 13 -2.6 13.5 -2.1c1 1.1 -3.4 3.4 -5.4 2.9c-1.8 -0.5 -2 -0.2 -1.6 1.6c0.5 1.9 0.2 2.1 -1.8 1.6c-1.3 -0.3 -2.9 -0.1 -3.7 0.4c-1.8 1.2 -0.6 4.2 1.7 4.2c2.6 0 5 4.2 5 8.7l0 3.7l-7.2 -0.5c-4.4 -0.3 -7.8 -0.1 -8.6 0.6c-1 0.8 -1.4 3.3 -1.3 8.2c0.1 11.9 0.1 11.7 3.3 11.7c5.1 0 4.5 3.8 -1.5 9.7c-2.1 2.1 -3.3 4.2 -3.3 5.9c-0.1 1.7 -0.8 3.3 -2 4.4c-5.2 4.6 -8 7.9 -10.8 13.1c-2.9 5.2 -3 5.8 -2 10.2c1.2 4.9 0.7 7.9 -1.6 10.6c-1 1.1 -1.1 1.9 -0.4 2.3c0.6 0.4 1.1 1.5 1.1 2.4c0 1 1.6 3.3 3.5 5.3c1.9 1.9 3.9 4.4 4.3 5.6c1 2.7 10.8 9.7 13.3 9.6c1 -0.1 4.5 -0.3 7.8 -0.4c3.2 -0.2 7.6 -1 9.7 -2c5.3 -2.3 8.1 -2.1 10 0.8c1.2 1.9 2.2 2.4 4.2 2c4 -0.8 5.3 0.7 4.5 5l-0.7 3.7l-0.7 2.3l-0.2 0c0 0.1 0.1 0.1 0.1 0.2c0 0.8 1.5 3.3 3.4 5.4c3.4 3.9 5.4 8 5.9 12c0.2 1.5 0.5 2.9 1 4.4c0.4 1.3 0.1 2.8 -0.8 3.9c-3.1 3.7 -4.8 13.5 -2.7 14.9c1.9 1.2 4.2 7.2 5.5 14.1c0.7 3.8 1.9 7.7 2.7 8.6c2.4 2.8 5.4 10.1 4.9 12c-0.6 2.4 1.7 5.4 4.1 5.5c5.1 0.1 16.2 -2.2 18.4 -3.8c3.5 -2.7 10.5 -13.2 11.2 -16.8c0.3 -1.8 1.5 -3.5 2.8 -4.1c2.5 -1.2 3.5 -6.2 2.2 -10c-0.6 -1.7 -0.2 -2.9 1.9 -5.1c1.5 -1.6 3.2 -2.9 3.8 -2.9c0.6 0 2.2 -1 3.6 -2.1c2.2 -1.8 2.5 -2.7 2.3 -8.4c-0.1 -3.5 -0.5 -6.9 -0.9 -7.5c-0.4 -0.6 -0.9 -3.3 -1.2 -5.9c-0.5 -5.1 0.6 -8.1 4.8 -12.9l2.4 -2.8l1.6 -1l5 -4.5c8.4 -7.6 15.1 -24.3 8.9 -22.3c-1.2 0.4 -4.4 1.2 -7.2 1.9c-4.5 1.1 -5.1 1 -6.1 -0.5c-0.9 -1.5 -0.3 -2 4.5 -3.5c2.7 -0.9 5.4 -1.9 8 -3.2c1.4 -0.7 3 -1.4 3.5 -1.4c0.6 0 1.8 -0.9 2.7 -2c0.9 -1.1 2.4 -2 3.4 -2c1.7 0 8.1 -5 8.1 -6.4c0 -0.4 0.9 -1.6 2 -2.8c3.1 -3.2 2.5 -6.5 -1.5 -8.4c-1.9 -0.9 -3.5 -2.4 -3.5 -3.3c0 -1.4 0.3 -1.4 1.5 -0.4c0.9 0.7 5 1.3 10.2 1.4c7.8 0.2 9 0.4 11.3 2.7c1.4 1.4 2.6 3 2.6 3.6c0 2.1 3.8 4.7 6.2 4.3c2 -0.4 2.3 -0.1 2.4 3.4c0.2 4 7.4 22.5 9.8 25.2c1.2 1.3 1.7 1.2 3.8 -1.4c2.7 -3.2 4.1 -3 2.4 0.3c-1.1 2.2 -0.5 7.2 0.9 7.2c4.1 0 5.5 -6.5 2.1 -9.9c-1.2 -1.2 -1.8 -3.4 -1.8 -6.9c-0.1 -4.9 0 -5.1 4.7 -8.4c2.6 -1.9 4.8 -3.8 4.8 -4.3c0 -0.5 1.3 -1.6 2.9 -2.4c1.6 -0.9 3 -2.2 3 -2.9c0 -0.7 1.4 -1.4 3.1 -1.5c1.3 -0.1 2.7 -0.5 3.7 -0.9l0 -204.3001l-10.3 0c0.4 0.3 0.5 0.5 0.8 0.7z"></path><path fill="#7aadc9" d="m206.7 312.5c-1.1 -0.2 -3.3 -1.4 -4.9 -2.6c-1.6 -1.2 -5 -2.6 -7.5 -2.9c-2.5 -0.3 -6 -1.5 -7.8 -2.7l-3.3 -2.1l-6.4 -1.8l0.2 -0.2c-0.1 0 -0.6 0 -0.6 -0.1c0.3 -0.6 -0.2 -2.8 -1.1 -5c-1.8 -4.4 -6.1 -7.2 -10.8 -7.1c-2.7 0 -5.3 -1.8 -12.2 -8.3c-2.4 -2.3 -3.7 -2.7 -8.5 -2.6c-3.1 0 -6.7 -0.5 -7.9 -1.2c-1.2 -0.7 -3.1 -0.9 -4.1 -0.6c-1.1 0.3 -1.9 0.2 -1.9 -0.3c0 -1.8 -8.3 1 -10.4 3.5c-1.7 2.1 -2.4 2.3 -4.7 1.4c-1.6 -0.7 -3.5 -0.7 -5.1 0.1c-3.7 1.8 -6.4 -1.9 -6.4 -8.8c0 -5.9 -0.6 -6.6 -6.9 -6.6c-3.6 0 -3.7 -0.2 -3 -2.3c1.3 -3.5 3.1 -9.4 3.1 -10.2c0 -1.2 -6.4 -0.7 -8.1 0.6c-1 0.9 -1.6 2 -1.9 3.3c-0.5 3 -7.3 4 -9.8 1.4c-3.1 -3.2 -3.9 -7 -3.2 -14c0.6 -5.9 1 -6.8 3.7 -8.6c2.2 -1.5 3.9 -1.9 6 -1.4c5.8 1.3 8.3 1.1 7.6 -0.8c-0.5 -1.5 0 -1.6 5.1 -1c6.5 0.8 7.4 1.2 7.4 3.4c0 1.9 4 9.4 5 9.4c0.4 0 1.3 -0.7 2 -1.6c1 -1.3 1 -2.5 -0.4 -6.9c-0.9 -2.9 -1.6 -6 -1.6 -6.9c0 -1.6 2.7 -4.3 9.1 -9.3c2.7 -2.1 3.6 -3.4 3.1 -4.8c-0.3 -1.1 0.5 -4.1 1.9 -6.9c1.4 -2.8 2.2 -5.2 1.9 -5.5c-0.5 -0.6 5.9 -2.7 8.2 -2.7c1.5 0 1.6 -1.7 0.1 -2.2c-2.2 -0.8 0.2 -4.7 3.5 -5.9c1.8 -0.6 3.5 -1.7 3.8 -2.3c0.3 -0.7 0.5 0.1 0.5 1.6c0.1 3 1.5 3.6 3.9 1.4c0.8 -0.7 3.1 -2 5 -2.7c4.6 -1.9 6.1 -3.6 5.4 -6c-0.7 -2.4 -2.3 -2.7 -3 -0.6c-0.3 0.9 -1.3 1.2 -2.7 0.8c-3.5 -0.9 -4.6 -2.8 -4 -6.2c0.6 -3 0.4 -3.1 -2.5 -3.1c-1.7 0 -3.1 -0.5 -3.1 -1c0 -1.5 3.3 -1.2 5.4 0.5c1.2 0.9 2.7 1.4 4.2 1.5c1.9 0 2.1 -0.2 1.2 -1.4c-0.9 -1.1 -0.6 -1.5 1.6 -2.1c1.6 -0.5 3.1 -1.2 4.5 -2.3c2.6 -2.5 3.3 -0.7 1.2 3.6c-1 2.1 -2 4.8 -2.2 6.1c-0.3 2 0.1 2.3 3.1 2.3c1.9 0 3.7 0.5 4 1.1c0.3 0.6 1 0.8 1.5 0.5c0.5 -0.3 1.8 -0.1 2.8 0.5c1.6 0.9 2.1 0.7 2.9 -0.8c1.1 -2 0.4 -6.3 -1 -6.3c-0.5 0 -0.6 -0.7 -0.3 -1.5c0.4 -1 0 -1.5 -1.1 -1.5c-2.8 0 -4.7 -2.7 -3.5 -5c0.8 -1.5 0.8 -2 -0.1 -2c-0.8 0 -0.9 -0.3 -0.2 -1c1.3 -1.4 0.5 -7.1 -1 -7.1c-0.7 0 -1.7 -1.1 -2.3 -2.5c-0.6 -1.3 -2.1 -2.8 -3.3 -3.2c-3.4 -1.1 -4.5 -2.7 -6.8 -9.7c-1.1 -3.6 -2.7 -7.2 -3.5 -8.1c-0.8 -0.9 -1.4 -2.1 -1.4 -2.8c0 -2.4 -2.9 -1.1 -3.6 1.5c-0.4 1.6 -1.1 3.1 -2.1 4.4c-1.4 1.6 -1.6 1.6 -3.4 -0.3c-1.2 -1.2 -2.1 -3.6 -2.2 -6.1c-0.2 -3 -0.7 -4.2 -1.9 -4.4c-0.9 -0.1 -2.8 -1.6 -4.2 -3.1c-2 -2.2 -3.5 -2.9 -6.6 -3c-2.2 -0.1 -4.6 -0.3 -5.4 -0.5c-1.2 -0.3 -1.4 0.9 -1.2 7.4c0.2 6.4 0 7.9 -1.2 7.9c-1.9 0 -1.9 2.9 0 3.7c1.2 0.5 3.4 6.1 3.4 8.8c0 0.5 -1.3 2.1 -2.9 3.7c-2.7 2.7 -2.9 3.1 -2.1 7.4c1.2 6.4 -0.2 8.1 -3.3 4.4c-1.8 -2.1 -2.4 -4 -2.4 -7.4c0 -4.3 -0.1 -4.5 -2.8 -4.5c-3.1 0 -5.7 -1.2 -10.8 -5c-1.8 -1.3 -4.5 -2.5 -6 -2.5c-2.3 -0.1 -2.9 -0.7 -3.3 -3.3c-0.4 -2 -1.3 -3.4 -2.5 -3.7c-3.9 -1 -1.7 -10.1 3.8 -15.4c1.7 -1.7 3.1 -3.6 3.1 -4.3c0 -0.7 1.4 -2.2 3.1 -3.3c1.7 -1.1 3.7 -3 4.4 -4.3l1.3 -2.3l-0.3 2.3c-0.2 1.2 -0.6 2.6 -1 3c-1.3 1.4 -0.6 2.9 2 4.2c2.3 1.1 2.9 1 4.8 -0.8c1.4 -1.4 2.4 -1.7 2.8 -1c0.8 1.4 5.1 1.4 5.9 0.1c0.3 -0.5 -0.3 -1.6 -1.4 -2.3c-1.1 -0.7 -2 -1.9 -2 -2.6c0 -0.7 -0.3 -1.3 -0.7 -1.3c-0.4 0 -2.5 -1.7 -4.7 -3.6c-3.6 -3.3 -3.7 -3.6 -1.4 -3.2c4.2 0.7 7.3 -4.1 7.5 -11.7c0.1 -4.7 -0.3 -6.6 -1.5 -7.5c-2.2 -1.6 -1 -2.6 3.3 -2.6c1.9 0 3.8 -0.5 4.1 -1c0.9 -1.6 3.8 3.5 3.5 6.1c-0.2 2 0 2.3 1.4 1.8c2.2 -0.9 7.3 4 7.3 7c0 1.2 -0.9 3.4 -2 4.9c-1.1 1.5 -1.7 3.2 -1.3 3.8c1 1.7 -1.5 2.9 -4.6 2.2c-2.3 -0.5 -2.8 -0.2 -3.4 2.3c-0.8 3.3 1.8 6 4.4 4.7c3.5 -1.7 6.3 -0.2 8.8 4.6c0.8 1.4 2.1 2.4 3.6 2.9c1.3 0.4 2.4 1 2.4 1.5c0 0.5 1 1.1 2.2 1.5c6.2 1.9 5.9 1.9 5.4 -0.9c-0.3 -1.5 -0.1 -2.7 0.3 -2.7c0.5 0 0.8 0.5 0.8 1.1c0 0.6 0.6 0.9 1.2 0.7c3 -1 0.6 -12.9 -2.6 -12.9c-1.8 0 -2.7 -2.8 -1.6 -4.9c0.5 -0.9 1 -1.2 1 -0.6c0 1.5 4.6 6.5 5.9 6.5c0.6 0 1 -0.6 1.1 -1.3c0 -0.7 0.9 -2.4 1.9 -3.8c2.7 -3.6 2.5 -4.9 -2 -9.1c-2.2 -2.1 -3.6 -4.1 -3.2 -4.6c0.4 -0.5 -0.1 -0.5 -1 -0.2c-0.9 0.4 -1.7 0.2 -1.7 -0.3c0 -0.5 -0.9 -1.2 -2 -1.5c-2.4 -0.8 -2.5 -2.4 -0.2 -4.2c1.1 -0.9 1.3 -1.4 0.4 -1.4c-0.8 0 -1.1 -0.7 -0.7 -1.8c0.5 -1.6 -2 -5.1 -6.5 -9c-0.7 -0.6 -2.1 -2.1 -3.1 -3.4c-1 -1.2 -2.3 -2 -2.9 -1.8c-1.2 0.4 -6.5 -6 -6.5 -7.9c0 -0.6 -1 -2.2 -2.2 -3.7c-2.8 -3.4 -11.4 -4.7 -15.8 -2.4c-2.5 1.3 -2.7 1.3 -2.2 0c0.4 -1.2 -0.2 -1.5 -2.7 -1.5c-5.1 0 -8 4.2 -9.1 12.9c-0.8 5.4001 2.8 13.2001 6.1 13.2001c4 0 5.4 5.6 2.9 11.5c-0.9 2.2 -1.7 4.5 -1.7 5.1c0 0.6 -0.4 0.5 -0.9 -0.3c-0.5 -0.8 -0.9 -3 -0.9 -4.9c0 -4.5 -2.4 -7.2 -4.6 -5.3c-1.3 1.1 -1.5 1 -1.5 -0.8c0 -1.3 -0.6 -2.2 -1.6 -2.2c-1.2 0 -1.3 -0.3 -0.5 -1.4c0.8 -1.1 0.6 -2 -0.9 -4c-1.1 -1.4 -2 -3.3 -2 -4.3c0 -0.9 -0.5 -2.6 -1 -3.6c-1.3 -2.4 -0.2 -7.1 1.6 -7.1c0.8 0 1.8 -1.3 2.4 -2.8c0.6 -1.5 1.5 -3.6 1.9 -4.5c1.4 -2.9 1.1 -3.4 -2.8 -4.6c-1.9 -0.6 -3.5 -0.8 -4.7 -0.7l0 0c-3.8 0.4 -4.8 4.2 -3.9 12.3c0.5 4.1 0.3 6.1 -0.8 7.8c-0.8 1.2 -1.5 4.2 -1.5 6.7c0 3.5 0.5 4.8 2.5 6.6c1.4 1.2 2.2 2.8 1.9 3.4c-0.4 0.7 -1.9 -0.2 -3.9 -2.5l-3.2 -3.7l-2.1 3.7c-2.5 4.4 -2.5 4.6 -0.8 4.6c0.9 0 1.2 0.8 0.9 2.3c-0.3 1.9 -1.1 2.4 -3.8 2.4c-1.8 0.1 -3.6 -0.3 -3.9 -0.8c-0.3 -0.5 -1.4 -0.9 -2.3 -0.9c-6.4 -3.2 -9.1 0.4 -11.3 2c-0.8 0 -1.7 -0.5 -2 -1c-0.4 -0.7 -1.2 -0.7 -2.4 0c-1 0.6 -3.5 1 -5.6 1c-3.3 0 -3.5 -0.2 -2 -1.4c0.9 -0.7 1.4 -1.4 1.3 -1.7l-1.8 -2.9c-0.7 -0.6 -2.2 -1.2 -3.4 -1.2c-1 0 -3.1 -0.7 -5.2 -1.6l0 138.7c1.3 1.2 2.7 3.1 3.6 4.9c1.2 2.5 3.1 5.4 4 6.4c1.5 1.5 1.5 2 0.3 2.7c-0.8 0.5 -1.2 1.1 -1 1.3c1.2 0.9 2.4 1.8 3.7 2.7c1.8 1.3 2.9 2.7 2.6 3.2c-0.6 1.1 4.4 5.9 6.2 6c0.7 0 1.2 -0.6 1.2 -1.4c0 -0.8 -0.5 -1.8 -1.2 -2.3c-0.7 -0.4 -2.4 -3 -3.7 -5.7c-1.4 -2.7 -3.4 -6 -4.6 -7.5c-2.4 -2.9 -2.8 -4.4 -1.2 -4.4c0.6 0 1.4 1.2 2 2.6c1.1 2.9 5.9 9.3 12.5 16.5c3.1 3.4 4.1 5.2 3.7 6.8c-0.7 2.9 1.4 4.7 10.7 9.1c5.9 2.8 8.5 3.5 10.9 3.1c2.4 -0.5 3.8 -0.1 5.9 1.8c1.5 1.3 4.8 3 7.2 3.8c4.2 1.4 7.7 4.3 7.9 6.6c0.1 1.3 6.5 5.6 8.3 5.6c0.8 0 1.5 0.4 2 1c0.9 1.6 3.4 1.2 3.4 -0.5c0 -0.8 0.6 -1.5 1.4 -1.5c1.3 0 1.8 1.8 2.7 8.7c0.1 1.1 -0.9 3.4 -2.4 5.1c-1.5 1.6 -2.7 3.3 -2.7 3.8l-1.5 2.3l0 3.2c0 1.8 -0.3 3.5 -0.7 4c-1.4 1.4 -0.7 5.2 1.2 7c1 1 3.7 5.6 5.9 10.2c3.6 7.5 7.7 12.5 10.5 12.7c0.5 0 1.8 0.9 3 1.9c1.9 1.6 2.2 2.9 2.2 9c-0.1 5.1 -0.6 10.1 -1.5 15.1c-0.8 4.4 -1.5 9.9 -1.5 12.3c0 2.4 -0.8 6.5 -1.9 9.1c-1 2.6 -2.1 7.7 -2.4 11.3c-0.3 3.6 -0.8 7.6 -1.2 8.9c-0.5 1.7 -0.2 2.3 1.1 2.3c1.1 0 1.5 0.5 1.1 1.6c-0.3 0.9 -0.6 2.4 -0.6 3.4c0 1 -0.9 2 -2 2.3c-1.2 0.3 -2 1.4 -2 2.8c0 1.4 0.5 2 1.2 1.7c0.9 -0.4 1.1 0.6 0.9 3.6c-0.4 4 1.2 13.9 2.7 17c0.6 1.1 1.6 1.9 2.6 2.5c1 0.6 1.7 1.8 1.6 2.7c-0.2 1.1 0.5 1.8 2 2.1c5 0.8 11.9 0.3 12.3 -1c0.2 -0.7 -0.1 -1.3 -0.8 -1.3c-1.9 0 -5.8 -4.2 -5.8 -6.2c0 -1 -0.5 -3 -1.2 -4.5c-1 -2.3 -0.9 -2.9 0.5 -4c0.9 -0.7 1.7 -1.7 1.7 -2.3c0 -0.6 0.9 -1.8 1.9 -2.8c3.1 -2.9 3.4 -5.4 0.8 -7.7l-2.3 -2l2.7 -2.3c1.5 -1.3 2.7 -3.1 2.7 -4c0 -0.9 0.9 -2.2 1.9 -2.8c2.1 -1.2 1.7 -4.1 -0.6 -4.1c-0.8 0 -1.4 -0.4 -1.4 -0.9c0 -0.5 1.2 -0.8 2.6 -0.7c2.2 0.2 2.7 -0.3 3.5 -3.1c0.7 -2.6 1.4 -3.3 3.2 -3.3c5.5 0 10.8 -5 8.8 -8.3c-1.6 -2.7 -1.1 -3.5 2.1 -3.1c2.7 0.3 3.5 -0.1 5.5 -3c1.3 -1.9 3.1 -4.3 4.1 -5.4c3.5 -3.9 6.6 -9.8 6.6 -12.6c0 -3.8 4.7 -7.9 10 -8.8c3.1 -0.5 4.4 -1.4 6.1 -4.3c3 -5 4.5 -9.8 4.5 -14.6c0 -3.3 0.8 -5.1 4.4 -9.7c3.9 -4.9 4.4 -6.1 4.2 -9.7c0.1 -3.1 -0.4 -4.1 -1.9 -4.3z"></path><path fill="#99d6f7" d="m162.4 47.4c0.8 3.4 2.8 9.8 3.8 12c0.7 1.6 0.7 2.6 0 3.6c-1 1.3 -1.6 4.1 -1.3 6.6c0.1 1.5 3.2 1.7 4.8 0.2c0.7 -0.6 1 -0.7 0.7 -0.3c-0.3 0.4 0.6 1.7 1.9 2.9l2.4 2.3l-3.7 -0.5c-3.4 -0.5 -3.8 -0.3 -5.5 3c-1.7 3.3 -1.8 3.6 -0.2 5.3c2.2 2.3 6.9 1.3 6.3 -1.4c-0.4 -1.4 0 -1.7 1.7 -1.4c1.8 0.4 2 1 1.7 4c-0.3 2.3 -1 3.8 -2 4c-4 1.1 -5.2 14.4 -1.8 19.8c0.9 1.7 1.6 3.5 2.1 5.4c0.8 3.6 5.4 13.5 7.4 15.7c1 0.9 2.3 1.4 3.6 1.2c1.5 -0.2 2.4 0.3 2.8 1.8c0.5 1.5 1.5 2.1 3.4 2.1c2.5 0 2.9 -0.5 4 -5.1c0.7 -2.8 0.9 -5.8 0.6 -6.6c-0.4 -1 0 -1.5 1 -1.5c0.9 0 1.3 -0.3 1 -0.7c-0.4 -0.4 -0.2 -1.2 0.3 -1.8c0.5 -0.7 1.1 -2.9 1.2 -4.9c0.1 -2 0.6 -3.7 1 -3.7c0.4 0 0.7 -0.6 0.7 -1.4c0 -0.8 1.4 -1.7 3.3 -2.1c4.3 -0.8 8.1 -4 10.2 -8.5c1.9 -4 2.3 -4.3 10 -6.9c5.4 -1.8 14.6 -8.9 14.7 -11.4c0 -0.7 -1 -1.3 -2.3 -1.3c-1.3 0 -2.7 -0.4 -2.9 -0.9c-0.3 -0.5 1.1 -0.7 3.2 -0.4l3.8 0.5l-0.7 -4.7c-0.4 -2.6 -0.6 -4.7 -0.5 -4.7c0.1 0 -1.6 -1.8 -3.7 -4.1c-4.4 -4.5 -4.5 -6.7 -0.1 -2.5l2.8 2.6l0.8 -2.3c1.1 -3.1 -1.6 -5.2 -5.6 -4.4c-2.8 0.6 -2.8 0.5 -1.1 -1.5c1.6 -1.9 2 -1.9 3.5 -0.5c2.4 2.3 6.8 1 6.8 -2.1c0 -1.5 -0.7 -2.5 -2.1 -2.9c-1.1 -0.3 -1.8 -1 -1.4 -1.6c0.5 -0.8 1.2 -0.8 2.6 0c1.1 0.6 2.3 0.8 2.9 0.4c0.6 -0.4 0.9 -1 1 -1.7l-83.1 0l0 0.4z"></path><path fill="#99d6f7" d="m413.9 47.5c0 -0.1 0.1 -0.1 0 0l-10.2 0c-0.1 0.3 -0.3 0.5 -0.4 0.7c-1.2 2 -2 4.2 -1.8 4.8c0.1 0.6 -0.6 2.4 -1.5 3.9c-0.9 1.5 -1.7 3.3 -1.6 4.1c0.3 2.6 -0.1 4 -1 3.4c-0.6 -0.4 -1 0.5 -1 2c0 1.9 0.5 2.6 2 2.6c1.3 0 2.2 0.9 2.6 2.8c0.4 1.5 1.1 3.1 1.5 3.4c1.2 0.8 6.8 1 7.9 0.2c0.5 -0.3 -0.1 -1.6 -1.2 -2.8c-3.5 -3.9 -3.6 -8.4 -0.2 -16c1.6 -3.7 3.9 -7.8 4.9 -9.1z"></path><path fill="#99d6f7" d="m26.7 70.8c0 3.7 1.2 5.2 4.3 5.2l3.1 0.1l-2.7 1c-1.5 0.6 -2.7 1.4 -2.7 1.9c0 2.4 1.5 4.1 4.5 5.1c1.8 0.6 3.3 1.6 3.3 2.3c1.1 3 3.5 1.5 5.3 2.1c1.1 0 2.2 0 3.2 0.2c1.5 -0.4 9.8 -2.8 9.8 -2.8c0.3 0 3.2 0.9 4.3 1.2c2.7 0 5.3 -2.2 4.1 -3.5c-0.4 -0.4 0.1 -1.2 1 -1.7c0.9 -0.5 1.7 -1.7 1.7 -2.5c0 -1.7 -3.7 -5.3 -5.6 -5.4c-0.6 0 -1.4 -1.1 -1.7 -2.3c-0.3 -1.2 -1.1 -4 -1.7 -6.2c-0.8 -2.9 -0.8 -5 -0.1 -8.1c0.6 -2.3 0.9 -4.6 0.6 -5c-0.8 -1.4 -5.3 -0.8 -5.9 0.7c-0.3 0.8 -1.2 1.5 -1.9 1.5c-0.8 0 -1.4 1 -1.4 2.5c0 2.5 -0.1 2.5 -2.4 0.9c-2.3 -1.6 -2.5 -1.5 -2.5 0.1c0 1.6 -0.2 1.6 -2.5 0.1c-1.4 -0.9 -2.9 -1.4 -3.4 -1.1c-0.5 0.3 -1 0.2 -1 -0.3c0 -0.5 -1.8 -2.9 -3.9 -5.4c-2.3 -2.6 -4 -3.9 -5.4 -4.1l-0.6 0l0 22.7c0.2 0.2 0.2 0.5 0.2 0.8z"></path><g><path fill="#01507b" d="m396.6 183.1c-3 0.1 -7.6 2.9 -8.4 5.1c-0.8 2.1 1.1 7.3 4.3 11.5c1.7 2.2 2.6 4 2.1 4c-0.6 0 -1.5 1 -2.2 2.2c-1 1.9 -0.7 2.5 1.7 4.5c1.5 1.3 3.4 2.1 4.1 1.9c0.7 -0.3 1.5 -0.4 2.2 -0.5c1.3 0 1.1 -4.3 -0.4 -6.6c-0.7 -1.1 -1.4 -3.5 -1.5 -5.2c-0.1 -2 -1.3 -4.5 -3.1 -6.6c-1.9 -2.2 -2.5 -3.5 -1.7 -3.8c0.7 -0.2 1.9 -1.1 2.6 -1.9c0.8 -0.8 2.4 -1.2 3.7 -1c2.2 0.4 2.3 0.3 0.9 -1.7c-0.9 -1.3 -2.3 -2 -4.3 -1.9l0 0z"></path><path fill="#01507b" d="m365.4 183.9c-1.1 -0.2 -2.3 0.2 -3.1 1c-1.5 1.5 -1.4 1.7 1 1.7c1.4 0 2.9 -0.5 3.2 -1c0.5 -1 -0.1 -1.6 -1.1 -1.7l0 0z"></path><path fill="#01507b" d="m354.2 185.3c-1 -0.2 -2.3 0.1 -2.9 0.8c-0.6 0.7 -2.1 3.4 -3.4 6c-2 4.1 -2.1 4.9 -0.9 6.2c1.8 1.9 5.2 1.8 7.6 -0.1c2.5 -1.9 6.9 -1.9 8.7 0c1.7 1.7 8.2 2 10.4 0.5c1.2 -0.8 0.9 -1.5 -2 -4.1c-5.5 -4.8 -8.5 -6.1 -11.3 -4.9c-1.9 0.9 -2.7 0.8 -3.9 -0.5c-0.9 -0.9 -1.3 -2.1 -1 -2.6c0.5999 -0.7 -0.2001 -1.2 -1.3 -1.3l0 0z"></path><path fill="#01507b" d="m415.9 186c-0.6 0 -1.2 0.2 -1.7 0.5c-2.5 1.4 -2.8 4.8 -0.4 5.4c2.1 0.5 1.7 0.7 3 -1.8c1.1 -2.3 0.6 -4 -0.9 -4.1l0 0z"></path><path fill="#01507b" d="m313.3 186.6c-0.2 0 -0.4 0.5 -0.7 1.4c-0.5 1.3 -0.3 2.3 0.6 3c0.8 0.6 2.2 2.4 3.1 3.9c1 1.6 2.2 2.6 2.7 2.2c0.5 -0.3 1.2 0.1 1.5 0.9c0.3 0.8 1.4 1.8 2.4 2.1c1.8 0.6 3.4 3.4 2.5 4.3c-0.3 0.3 -1.2 -0.1 -2.1 -0.9c-1.5 -1.3 -1.6 -1.2 -1 0.8c0.5 1.6 0.1 2.9 -1.3 4.3c-1.1 1.1 -2 2.5 -2 3c0 1.9 -2 2.1 -4.9 0.5c-3.6 -1.9 -3.4 -4 0.4 -4.1c4.4 -0.1 5.4 -2.1 2.4 -5c-1.4 -1.4 -3.1 -2.5 -3.6 -2.5c-1.1 0 -6.5 -6.3 -7.2 -8.3c-0.4 -1.1 -1.3 -0.9 -4.3 0.8c-2.8 1.6 -4.3 1.9 -5.5 1.2c-2.1 -1.2 -3.6 -0.3 -3.6 2.1c0 1 -1.6 3.1 -3.5 4.5c-2.2 1.7 -3.4 3.6 -3.4 5c0 3.4 -4.1 7.5 -8 7.9c-1.8 0.2 -3.3 0.8 -3.3 1.3c0 1.8 6.5 1.4 9.8 -0.6c3.2 -2 20.9 -4.3 23.8 -3.2c1.5 0.6 1.6 7 0.2 7.9c-1.6 1 2.1 3.4 5.2 3.5c1.8 0.1 3.4 0.9 4.7 2.1c3.3 3.4 8.8 5.2 8.8 2.8c0 -3.4 5.9 -6.3 8.4 -4c0.5 0.5 3.4 1.6 6.5 2.6c4.2 1.3 6.4 1.5 9 0.8c1.9 -0.5 3.8 -0.6 4.2 -0.1c1.5 1.5 5.3 -0.2 6.3 -2.8c0.5 -1.4 0.9 -4.3 0.9 -6.5c0 -3.8 -0.2 -4 -2.2 -3.3c-1.2 0.4 -3.1 0.7 -4.2 0.6c-1.5 -0.1 -3 -0.2 -4.6 -0.2c-3.8 0 -7.7 -1.8 -7.7 -3.5c0 -0.8 -0.5 -1.5 -1.1 -1.5c-0.6 0 -0.9 -0.9 -0.6 -2c0.3 -1.1 0.1 -2 -0.3 -2c-0.4 0 -0.5 -0.9 -0.3 -2c0.4 -1.6 0 -2 -1.6 -2c-1.2 0 -1.9 0.5 -1.5 1c0.3 0.6 -0.1 1.3 -0.9 1.6c-1.8 0.7 -2 3.1 -0.3 3.7c1.6 0.6 -1.1 6.4 -3 6.4c-1.6 0 -4.1 -3.4 -4.1 -5.5c0 -0.9 -0.9 -2.7 -1.9 -4.1c-1.1 -1.4 -1.9 -3.5 -1.9 -4.8c0 -1.5 -1.5 -3.3 -4.4 -5.4c-2.4 -1.7 -4.4 -3.8 -4.4 -4.6c0 -0.8 -0.6 -1.2 -1.4 -0.9c-0.8 0.3 -1.6 -0.2 -1.8 -1.3c-0.5 -0.7 -0.6 -1.1 -0.8 -1.1l0 0z"></path><path fill="#01507b" d="m304.5 194.8c2.2 -0.5 2.3 11.5 0.2 12.4c-0.8 0.3 -1.7 0 -2 -0.7c-1.1 -2.8 0.3 -11.3 1.8 -11.7z"></path><path fill="#01507b" d="m400.6 199.1c-0.2 0.1 -0.3 0.3 -0.3 0.6c0 0.6 0.4 1.1 1 1.1c0.5 0 1 -0.2 1 -0.5c0 -0.2 -0.4 -0.7 -1 -1.1c-0.3 -0.2 -0.5 -0.2 -0.7 -0.1z"></path><path fill="#01507b" d="m292.1 203.3c0.3 0 0.6 0.1 0.8 0.4c0.7 1.2 -0.8 2.9 -2.1 2.5c-0.7 -0.2 -1.2 -0.8 -1.2 -1.3c-0.1 -0.9 1.5 -1.7 2.5 -1.6l0 0z"></path><path fill="#01507b" d="m391.9 232.3c-0.3 -0.1 -0.6 0 -0.9 0.1c-0.3 0.2 -0.5 0.5 -0.5 1c0 0.8 0.9 2.4 2 3.6c1.1 1.2 2 2.6 2 3.2c0 0.6 0.7 0.8 1.5 0.4c1.1 -0.4 1.5 0.1 1.5 2.1c0 3.7 3.7 3.6 7.2 -0.3l2.7 -2.9l-2.7 0.5c-3.3 0.6 -8.5 -2.1 -9.8 -5.1c-0.5 -1.2 -1.6 -2.2 -3 -2.6l0 0z"></path><path fill="#01507b" d="m254.2 234.2c0.5 0 1 0.4 1 1c0 0.5 -0.5 1.2 -1 1.6c-0.5 0.3 -1 -0.1 -1 -0.9c0 -0.8 0.5 -1.7 1 -1.7z"></path><path fill="#01507b" d="m248.9 234.6c0.6 -0.2 1.4 0 2.3 0.6c1.2 0.8 1.2 1.2 0.3 2.2c-0.9 0.9 -1.2 0.9 -1.2 0.1c0 -0.7 -0.7 -0.9 -1.6 -0.6c-1.1 0.4 -1.5 0.2 -1.2 -0.7c0.3 -0.9 0.8 -1.5 1.4 -1.6l0 0z"></path><path fill="#01507b" d="m359.9 237.4c-0.2 0 -0.3 0 -0.4 0.1c-0.6 0.7 1.7 5.9 6.2 14.2c0.7 1.2 1.2 3.2 1.2 4.4c0 1.2 0.5 2.5 1 2.9c0.5 0.3 1.6 2.2 2.4 4c0.7 1.9 2.2 3.7 3.3 4c1.1 0.3 2.2 1.3 2.5 2.1c1 2.8 1.8 1.5 1.1 -1.8c-0.9 -4.2 -5 -11.6 -6.8 -12.3c-0.8 -0.3 -1.4 -1.7 -1.4 -3.1c0 -1.4 -0.8 -3.4 -1.9 -4.5c-1.1 -1.1 -1.9 -2.4 -2.5 -3.8c-0.8 -2.5 -3.5 -5.9 -4.7 -6.2l0 0z"></path></g><g><path fill="#01507b" d="m119.5 89.3c1.3 0.3 1.9 1.2 1.9 3.4c0 2.5 -0.4 3.1 -2.7 3.4c-2.3 0.3 -2.7 -0.1 -2.7 -2c0 -3.4 1.4 -5.2 3.5 -4.8z"></path><path fill="#01507b" d="m114.4 115.5l0 0c0.8 0 1.6 0.7 1.9 1.5c0.6 1.5 -1.4 2.1 -2.6 0.8c-1.1 -1 -0.8 -2.3 0.7 -2.3l0 0z"></path><path fill="#01507b" d="m105.5 118.7c1.5 0.3 1.6 0.5 0.1 2.6c-1.5 2.2 -4.4 3.2 -4.4 1.5c0.1 -1.8 2.8 -4.4 4.3 -4.1z"></path><path fill="#01507b" d="m111 121.6c1.4 0 1.8 0.5 1.4 2c-0.6 2.3 -1.7 3.3 -2.6 2.3c-1.5 -1.4 -0.6 -4.3 1.2 -4.3z"></path><path fill="#01507b" d="m37.9 124.4c-0.5 -0.3 -2 0.6 -3.3 1.9c-2.9 2.8 -1.3 3.3 2 0.5c1.2 -1 1.8 -2.1 1.3 -2.4l0 0z"></path><path fill="#01507b" d="m70.7 160.2c-0.9 0 -0.8 0.3 0.2 1c0.8 0.5 1.1 1 0.7 1c-0.4 0 -0.5 0.5 -0.2 1.1c0.9 1.5 1.8 0.3 1.1 -1.5c-0.3 -0.9 -1.2 -1.6 -1.8 -1.6l0 0z"></path><path fill="#01507b" d="m93.8 177.9c-1.1 0 -2.1 0.5 -3.5 1.3c-3 1.8 -3.8 3.9 -1 2.8c3.4 -1.4 5.2 -1.8 5.1 -0.9c-0.3 2 0.2 2.6 1.6 2c0.8 -0.3 1.9 -0.6 2.4 -0.6c1.6 0 1 -2.8 -0.8 -3.6c-1.6 -0.7 -2.7 -1.1 -3.8 -1l0 0z"></path><path fill="#01507b" d="m102.9 186.2c-0.2 0.2 0.2 1.2 1.1 3.4c0.9 2.2 1.7 4 1.9 4c0.1 0 0.2 -1.2 0.2 -2.8c0 -1.7 -0.8 -3.3 -1.9 -4c-0.3 -0.2 -0.7 -0.4 -1 -0.6c-0.1 -0.1 -0.2 -0.1 -0.3 0l0 0z"></path><path fill="#01507b" d="m108 186.5c-0.5 0 -0.7 0.5 -0.4 1c0.3 0.6 1.1 1 1.6 1c0.5 0 0.7 -0.4 0.4 -1c-0.4 -0.5 -1.1 -1 -1.6 -1l0 0z"></path><path fill="#01507b" d="m97.6 187c-0.2 0 -0.4 0.1 -0.6 0.2c-1.6 0.6 -2.5 3.6 -2.5 7.8c0 1.6 0.4 2.6 1 2.2c0.5 -0.3 0.7 -1.7 0.4 -3.1l0 0c-0.3 -1.7 0 -3.5 1 -5c0.8 -1.5 1 -2.1 0.7 -2.1l0 0z"></path></g><ellipse fill="#f4b526" stroke="#01507b" stroke-width="5" stroke-miterlimit="10" rx="20.8" ry="20.8" transform="translate(137.5 197.3)" opacity="0" style="animation-name: eaf-d202-38;"></ellipse><ellipse fill="#f4b526" stroke="#01507b" stroke-width="5" stroke-miterlimit="10" rx="20.8" ry="20.8" transform="translate(193.2 348.8)" opacity="0" style="animation-name: eaf-d202-39;"></ellipse><ellipse fill="#f4b526" stroke="#01507b" stroke-width="3.9341" stroke-miterlimit="10" rx="16.4" ry="16.4" transform="translate(334.2 173.4)" opacity="0" style="animation-name: eaf-d202-40;"></ellipse></g><path fill="#bee4fa" d="m499.9 62.8c0 -4.4 -0.4 -8.8 -1.2 -12.8c-5.6 -28.4 -31.6 -50 -60.4 -50c-124.8 0 -249.6 0 -374.4 0c-4.4 0 -8.8 0.4 -12.8 1.2c-28.4 5.6 -50 31.6 -50 60.4c0 125.2 0 250 0 375.2c0 2.4 0 5.2 0.4 8c4 30.4 30.8 54 61.2 54c124.8 0 249.6 0 374.4 0c4.4 0 8.8 -0.4 12.8 -1.2c28.4 -5.6 50 -31.6 50 -60.4c0 -62.4 0 -125.2 0 -187.6c0 -62.4 0 -124.4 0 -186.8zm-18.3 351.2c0 25.4 -20.6 46 -46 46l-363.6 0c-25 0 -45.3 -20.3 -45.3 -45.3l0 -322.2c-0.1 -25 20.3 -45.4 45.3 -45.4l364.2 0c25 0 45.3 20.3 45.3 45.3l0 321.6l0.1 0z"></path></g><g transform="translate(0 0)" opacity="0" style="animation-name: eaf-d202-47, eaf-d202-48, eaf-d202-49, eaf-d202-50; animation-composition: replace, add, add, replace;"><path fill="#01507b" d="m423.8 443.8l-347.8 0c-31.9 0 -57.7 -25.9 -57.7 -57.7l0 -268.8c0 -31.9 25.9 -57.7 57.7 -57.7l347.9 0c31.9 0 57.7 25.9 57.7 57.7l0 268.7c0 31.9 -25.9 57.8 -57.8 57.8z"></path><path fill="url('#eaf-d202-4')" stroke="#01507b" stroke-width="9" stroke-miterlimit="10" d="m434.8 171.8l-369.9 0c-18.1 0 -32.8 -14.7 -32.8 -32.8l0 -18.8c0 -18.1 14.7 -32.8 32.8 -32.8l369.9 0c18.1 0 32.8 14.7 32.8 32.8l0 18.8c0.1 18.1 -14.6 32.8 -32.8 32.8z"></path><path fill="url('#eaf-d202-5')" stroke="#01507b" stroke-width="9" stroke-miterlimit="10" d="m435.7 292.7l-370.8 0c-17.9 0 -32.4 -14.5 -32.4 -32.4l0 -19.7c0 -17.9 14.5 -32.4 32.4 -32.4l370.8 0c17.9 0 32.4 14.5 32.4 32.4l0 19.7c-0.1 17.9 -14.6 32.4 -32.4 32.4z"></path><path fill="url('#eaf-d202-6')" stroke="#01507b" stroke-width="9" stroke-miterlimit="10" d="m436.2 413.7l-370.8 0c-17.9 0 -32.4 -14.5 -32.4 -32.4l0 -19.7c0 -17.9 14.5 -32.4 32.4 -32.4l370.8 0c17.9 0 32.4 14.5 32.4 32.4l0 19.7c0 17.9 -14.5 32.4 -32.4 32.4z"></path></g></g></g></svg>