<svg id="el782ov6nnvp1" xmlns="http://www.w3.org/2000/svg" viewBox="0 0 500 500" width="500" height="500" shape-rendering="geometricPrecision" text-rendering="geometricPrecision">
  <style>
    @keyframes el782ov6nnvp14_f_o{0%,54%,56%{fill-opacity:0;animation-timing-function:step-end}1%,53%,55%{fill-opacity:1;animation-timing-function:step-end}to{fill-opacity:0}}@keyframes el782ov6nnvp15_f_o{0%,84%,86%{fill-opacity:0;animation-timing-function:step-end}2%,83%,85%{fill-opacity:1;animation-timing-function:step-end}to{fill-opacity:0}}@keyframes el782ov6nnvp16_f_o{0%,36%,38%{fill-opacity:0;animation-timing-function:step-end}3%,35%,37%{fill-opacity:1;animation-timing-function:step-end}to{fill-opacity:0}}@keyframes el782ov6nnvp17_f_o{0%,88%,90%{fill-opacity:0;animation-timing-function:step-end}4%,87%,89%{fill-opacity:1;animation-timing-function:step-end}to{fill-opacity:0}}@keyframes el782ov6nnvp18_f_o{0%,38%,40%{fill-opacity:0;animation-timing-function:step-end}37%,39%,5%{fill-opacity:1;animation-timing-function:step-end}to{fill-opacity:0}}@keyframes el782ov6nnvp19_f_o{0%,36%,38%{fill-opacity:0;animation-timing-function:step-end}35%,37%,6%{fill-opacity:1;animation-timing-function:step-end}to{fill-opacity:0}}@keyframes el782ov6nnvp20_f_o{0%,64%,66%{fill-opacity:0;animation-timing-function:step-end}63%,65%,7%{fill-opacity:1;animation-timing-function:step-end}to{fill-opacity:0}}@keyframes el782ov6nnvp21_f_o{0%,93%,95%{fill-opacity:0;animation-timing-function:step-end}8%,92%,94%{fill-opacity:1;animation-timing-function:step-end}to{fill-opacity:0}}@keyframes el782ov6nnvp22_f_o{0%,79%,81%{fill-opacity:0;animation-timing-function:step-end}78%,80%,9%{fill-opacity:1;animation-timing-function:step-end}to{fill-opacity:0}}@keyframes el782ov6nnvp23_f_o{0%,63%,65%{fill-opacity:0;animation-timing-function:step-end}10%,62%,64%{fill-opacity:1;animation-timing-function:step-end}to{fill-opacity:0}}@keyframes el782ov6nnvp24_f_o{0%,73%,75%{fill-opacity:0;animation-timing-function:step-end}11%,72%,74%{fill-opacity:1;animation-timing-function:step-end}to{fill-opacity:0}}@keyframes el782ov6nnvp25_f_o{0%,38%,40%{fill-opacity:0;animation-timing-function:step-end}12%,37%,39%{fill-opacity:1;animation-timing-function:step-end}to{fill-opacity:0}}@keyframes el782ov6nnvp26_f_o{0%,42%,44%{fill-opacity:0;animation-timing-function:step-end}13%,41%,43%{fill-opacity:1;animation-timing-function:step-end}to{fill-opacity:0}}@keyframes el782ov6nnvp27_f_o{0%,38%,40%{fill-opacity:0;animation-timing-function:step-end}14%,37%,39%{fill-opacity:1;animation-timing-function:step-end}to{fill-opacity:0}}@keyframes el782ov6nnvp28_f_o{0%,78%,80%{fill-opacity:0;animation-timing-function:step-end}15%,77%,79%{fill-opacity:1;animation-timing-function:step-end}to{fill-opacity:0}}@keyframes el782ov6nnvp29_f_o{0%,42%,44%{fill-opacity:0;animation-timing-function:step-end}16%,41%,43%{fill-opacity:1;animation-timing-function:step-end}to{fill-opacity:0}}@keyframes el782ov6nnvp30_f_o{0%,74%,76%{fill-opacity:0;animation-timing-function:step-end}17%,73%,75%{fill-opacity:1;animation-timing-function:step-end}to{fill-opacity:0}}@keyframes el782ov6nnvp31_f_o{0%,87%,89%{fill-opacity:0;animation-timing-function:step-end}18%,86%,88%{fill-opacity:1;animation-timing-function:step-end}to{fill-opacity:0}}@keyframes el782ov6nnvp32_f_o{0%,55%,57%{fill-opacity:0;animation-timing-function:step-end}19%,54%,56%{fill-opacity:1;animation-timing-function:step-end}to{fill-opacity:0}}@keyframes el782ov6nnvp33_f_o{0%,58%,60%{fill-opacity:0;animation-timing-function:step-end}20%,57%,59%{fill-opacity:1;animation-timing-function:step-end}to{fill-opacity:0}}@keyframes el782ov6nnvp34_f_o{0%,47%,49%{fill-opacity:0;animation-timing-function:step-end}21%,46%,48%{fill-opacity:1;animation-timing-function:step-end}to{fill-opacity:0}}@keyframes el782ov6nnvp35_f_o{0%,44%,46%{fill-opacity:0;animation-timing-function:step-end}22%,43%,45%{fill-opacity:1;animation-timing-function:step-end}to{fill-opacity:0}}@keyframes el782ov6nnvp36_f_o{0%,53%,55%{fill-opacity:0;animation-timing-function:step-end}23%,52%,54%{fill-opacity:1;animation-timing-function:step-end}to{fill-opacity:0}}@keyframes el782ov6nnvp37_f_o{0%,49%,51%{fill-opacity:0;animation-timing-function:step-end}24%,48%,50%{fill-opacity:1;animation-timing-function:step-end}to{fill-opacity:0}}@keyframes el782ov6nnvp38_f_o{0%,71%,73%{fill-opacity:0;animation-timing-function:step-end}25%,70%,72%{fill-opacity:1;animation-timing-function:step-end}to{fill-opacity:0}}@keyframes el782ov6nnvp39_f_o{0%,53%,55%{fill-opacity:0;animation-timing-function:step-end}26%,52%,54%{fill-opacity:1;animation-timing-function:step-end}to{fill-opacity:0}}@keyframes el782ov6nnvp40_f_o{0%,58%,60%{fill-opacity:0;animation-timing-function:step-end}27%,57%,59%{fill-opacity:1;animation-timing-function:step-end}to{fill-opacity:0}}@keyframes el782ov6nnvp41_f_o{0%,66%,68%{fill-opacity:0;animation-timing-function:step-end}28%,65%,67%{fill-opacity:1;animation-timing-function:step-end}to{fill-opacity:0}}@keyframes el782ov6nnvp42_f_o{0%,78%,80%{fill-opacity:0;animation-timing-function:step-end}29%,77%,79%{fill-opacity:1;animation-timing-function:step-end}to{fill-opacity:0}}@keyframes el782ov6nnvp43_f_o{0%,60%,62%{fill-opacity:0;animation-timing-function:step-end}30%,59%,61%{fill-opacity:1;animation-timing-function:step-end}to{fill-opacity:0}}#el782ov6nnvp1{pointer-events:all} #el782ov6nnvp1:hover *{animation-play-state:running!important}#el782ov6nnvp14{animation:el782ov6nnvp14_f_o 10000ms linear infinite normal forwards}#el782ov6nnvp15{animation:el782ov6nnvp15_f_o 10000ms linear infinite normal forwards}#el782ov6nnvp16{animation:el782ov6nnvp16_f_o 10000ms linear infinite normal forwards}#el782ov6nnvp17{animation:el782ov6nnvp17_f_o 10000ms linear infinite normal forwards}#el782ov6nnvp18{animation:el782ov6nnvp18_f_o 10000ms linear infinite normal forwards}#el782ov6nnvp19{animation:el782ov6nnvp19_f_o 10000ms linear infinite normal forwards}#el782ov6nnvp20{animation:el782ov6nnvp20_f_o 10000ms linear infinite normal forwards}#el782ov6nnvp21{animation:el782ov6nnvp21_f_o 10000ms linear infinite normal forwards}#el782ov6nnvp22{animation:el782ov6nnvp22_f_o 10000ms linear infinite normal forwards}#el782ov6nnvp23{animation:el782ov6nnvp23_f_o 10000ms linear infinite normal forwards}#el782ov6nnvp24{animation:el782ov6nnvp24_f_o 10000ms linear infinite normal forwards}#el782ov6nnvp25{animation:el782ov6nnvp25_f_o 10000ms linear infinite normal forwards}#el782ov6nnvp26{animation:el782ov6nnvp26_f_o 10000ms linear infinite normal forwards}#el782ov6nnvp27{animation:el782ov6nnvp27_f_o 10000ms linear infinite normal forwards}#el782ov6nnvp28{animation:el782ov6nnvp28_f_o 10000ms linear infinite normal forwards}#el782ov6nnvp29{animation:el782ov6nnvp29_f_o 10000ms linear infinite normal forwards}#el782ov6nnvp30{animation:el782ov6nnvp30_f_o 10000ms linear infinite normal forwards}#el782ov6nnvp31{animation:el782ov6nnvp31_f_o 10000ms linear infinite normal forwards}#el782ov6nnvp32{animation:el782ov6nnvp32_f_o 10000ms linear infinite normal forwards}#el782ov6nnvp33{animation:el782ov6nnvp33_f_o 10000ms linear infinite normal forwards}#el782ov6nnvp34{animation:el782ov6nnvp34_f_o 10000ms linear infinite normal forwards}#el782ov6nnvp35{animation:el782ov6nnvp35_f_o 10000ms linear infinite normal forwards}#el782ov6nnvp36{animation:el782ov6nnvp36_f_o 10000ms linear infinite normal forwards}#el782ov6nnvp37{animation:el782ov6nnvp37_f_o 10000ms linear infinite normal forwards}#el782ov6nnvp38{animation:el782ov6nnvp38_f_o 10000ms linear infinite normal forwards}#el782ov6nnvp39{animation:el782ov6nnvp39_f_o 10000ms linear infinite normal forwards}#el782ov6nnvp40{animation:el782ov6nnvp40_f_o 10000ms linear infinite normal forwards}#el782ov6nnvp41{animation:el782ov6nnvp41_f_o 10000ms linear infinite normal forwards}#el782ov6nnvp42{animation:el782ov6nnvp42_f_o 10000ms linear infinite normal forwards}#el782ov6nnvp43{animation:el782ov6nnvp43_f_o 10000ms linear infinite normal forwards}
  </style>
  <g id="el782ov6nnvp2" transform="translate(-3.699 .35)">
    <path id="el782ov6nnvp3" d="M503.693 249.704v188.212c0 28.757-21.69 55.047-50.014 60.432-4.187.795-8.515 1.248-12.773 1.248-125.051.07-250.102.05-375.153.05-30.65 0-57.413-23.512-61.429-54.02-.352-2.688-.594-5.425-.594-8.133C3.69 312.12 3.7 186.755 3.7 61.381 3.7 32.614 25.4 6.323 53.714.948 57.902.153 62.23-.3 66.487-.3 191.65-.36 316.801-.35 441.963-.35c28.756 0 55.087 21.721 60.432 50.015.795 4.187 1.248 8.515 1.248 12.773.08 62.425.05 124.84.05 187.266z" fill="#99d6f7" stroke="none" stroke-width="1"/>
  </g>
  <g id="el782ov6nnvp4">
    <g id="el782ov6nnvp5" fill="#01507b" stroke="none" stroke-width="1">
      <path id="el782ov6nnvp6" d="M80.34 99.69v161.23H44.48V99.69H18.91v-50.8h86.99v50.79H80.34z"/>
      <path id="el782ov6nnvp7" d="M169.95 264.18c-17.34 0-31.48-9.89-42.41-29.67-10.93-19.78-16.4-46.23-16.4-79.37 0-31.69 5.22-57.86 15.67-78.52 10.45-20.66 24.95-30.99 43.49-30.99 17.16 0 31.15 9.73 41.96 29.2 10.81 19.47 16.21 45.46 16.21 77.97 0 33.65-5.45 60.63-16.35 80.92-10.89 20.31-24.95 30.46-42.17 30.46zm-.18-48.15c6.38 0 10.97-4.79 13.78-14.37 2.8-9.58 4.2-27.1 4.2-52.58 0-36.86-5.75-55.3-17.25-55.3-12.41 0-18.61 21.02-18.61 63.06-.01 39.46 5.96 59.19 17.88 59.19z"/>
      <path id="el782ov6nnvp8" d="M354.23 260.92h-41.96l-18.01-81.08h-11.94v81.08h-37.85V48.89h64.41c14.21 0 25.25 5.72 33.11 17.16 7.86 11.44 11.79 26.54 11.79 45.28 0 12.22-1.45 23.02-4.34 32.39-2.89 9.37-8.73 17.63-17.52 24.77l22.31 92.43zm-71.91-126.44h16.17c4.76 0 8.58-1.71 11.47-5.13 2.89-3.42 4.34-8.44 4.34-15.07 0-13.56-4.85-20.35-14.54-20.35h-17.43v40.55z"/>
      <path id="el782ov6nnvp9" d="M481.87 260.92h-41.96l-18.01-81.08h-11.94v81.08h-37.85V48.89h64.41c14.21 0 25.25 5.72 33.11 17.16 7.86 11.44 11.79 26.54 11.79 45.28 0 12.22-1.45 23.02-4.34 32.39-2.89 9.37-8.73 17.63-17.52 24.77l22.31 92.43zm-71.91-126.44h16.17c4.76 0 8.58-1.71 11.47-5.13 2.89-3.42 4.34-8.44 4.34-15.07 0-13.56-4.85-20.35-14.54-20.35h-17.43v40.55z"/>
      <path id="el782ov6nnvp10" d="M165.28 413.34v42.99H33.69v-180h131.58v41.54H86.35v26.11h63.81v39.96H86.35v29.41h78.93z"/>
      <path id="el782ov6nnvp11" d="M336.07 456.32h-43.69l-47.9-79.53c-6.15-10.2-12.35-22.59-18.6-37.17 2.82 11.6 4.23 21.45 4.23 29.54v87.16h-43.56v-180h50.74l40.75 65.93c8.12 13.1 14.26 24.62 18.45 34.55-2.73-15.38-4.1-31.12-4.1-47.21v-53.27h43.69v180z"/>
      <path id="el782ov6nnvp12" d="M438.44 319.45v136.88h-50.86V319.45h-36.26v-43.12H474.7v43.12h-36.26z"/>
    </g>
  </g>
  <g id="el782ov6nnvp13" fill="#99d6f7" fill-opacity="0" stroke="none" stroke-width="1">
    <rect id="el782ov6nnvp14" width="95.7" height="69.75" rx="0" ry="0" transform="translate(10.69 43.82)"/>
    <rect id="el782ov6nnvp15" width="95.7" height="69.75" rx="0" ry="0" transform="translate(106.39 43.82)"/>
    <rect id="el782ov6nnvp16" width="95.7" height="69.75" rx="0" ry="0" transform="translate(202.09 43.82)"/>
    <rect id="el782ov6nnvp17" width="95.7" height="69.75" rx="0" ry="0" transform="translate(297.79 43.82)"/>
    <rect id="el782ov6nnvp18" width="95.7" height="69.75" rx="0" ry="0" transform="translate(393.49 43.82)"/>
    <rect id="el782ov6nnvp19" width="95.7" height="69.75" rx="0" ry="0" transform="translate(10.69 113.57)"/>
    <rect id="el782ov6nnvp20" width="95.7" height="69.75" rx="0" ry="0" transform="translate(106.39 113.57)"/>
    <rect id="el782ov6nnvp21" width="95.7" height="69.75" rx="0" ry="0" transform="translate(202.09 113.57)"/>
    <rect id="el782ov6nnvp22" width="95.7" height="69.75" rx="0" ry="0" transform="translate(297.79 113.57)"/>
    <rect id="el782ov6nnvp23" width="95.7" height="69.75" rx="0" ry="0" transform="translate(393.49 113.57)"/>
    <rect id="el782ov6nnvp24" width="95.7" height="69.75" rx="0" ry="0" transform="translate(10.69 183.32)"/>
    <rect id="el782ov6nnvp25" width="95.7" height="69.75" rx="0" ry="0" transform="translate(106.39 183.32)"/>
    <rect id="el782ov6nnvp26" width="95.7" height="69.75" rx="0" ry="0" transform="translate(202.09 183.32)"/>
    <rect id="el782ov6nnvp27" width="95.7" height="69.75" rx="0" ry="0" transform="translate(297.79 183.32)"/>
    <rect id="el782ov6nnvp28" width="95.7" height="69.75" rx="0" ry="0" transform="translate(393.49 183.32)"/>
    <rect id="el782ov6nnvp29" width="95.7" height="69.75" rx="0" ry="0" transform="translate(10.69 253.07)"/>
    <rect id="el782ov6nnvp30" width="95.7" height="69.75" rx="0" ry="0" transform="translate(106.39 253.07)"/>
    <rect id="el782ov6nnvp31" width="95.7" height="69.75" rx="0" ry="0" transform="translate(202.09 253.07)"/>
    <rect id="el782ov6nnvp32" width="95.7" height="69.75" rx="0" ry="0" transform="translate(297.79 253.07)"/>
    <rect id="el782ov6nnvp33" width="95.7" height="69.75" rx="0" ry="0" transform="translate(393.49 253.07)"/>
    <rect id="el782ov6nnvp34" width="95.7" height="69.75" rx="0" ry="0" transform="translate(10.69 322.82)"/>
    <rect id="el782ov6nnvp35" width="95.7" height="69.75" rx="0" ry="0" transform="translate(106.39 322.82)"/>
    <rect id="el782ov6nnvp36" width="95.7" height="69.75" rx="0" ry="0" transform="translate(202.09 322.82)"/>
    <rect id="el782ov6nnvp37" width="95.7" height="69.75" rx="0" ry="0" transform="translate(297.79 322.82)"/>
    <rect id="el782ov6nnvp38" width="95.7" height="69.75" rx="0" ry="0" transform="translate(393.49 322.82)"/>
    <rect id="el782ov6nnvp39" width="95.7" height="69.75" rx="0" ry="0" transform="translate(10.69 392.57)"/>
    <rect id="el782ov6nnvp40" width="95.7" height="69.75" rx="0" ry="0" transform="translate(106.39 392.57)"/>
    <rect id="el782ov6nnvp41" width="95.7" height="69.75" rx="0" ry="0" transform="translate(202.09 392.57)"/>
    <rect id="el782ov6nnvp42" width="95.7" height="69.75" rx="0" ry="0" transform="translate(297.79 392.57)"/>
    <rect id="el782ov6nnvp43" width="95.7" height="69.75" rx="0" ry="0" transform="translate(393.49 392.57)"/>
  </g>
</svg>