<svg xmlns="http://www.w3.org/2000/svg" viewBox="0 0 500 500" overflow="hidden" preserveAspectRatio="xMidYMid meet" id="eaf-1566-0"><defs><clipPath id="eaf-1566-1"><rect x="0" y="0" width="500" height="500"></rect></clipPath><style>#eaf-1566-0 * {animation: 20000ms linear infinite normal both running;offset-rotate:0deg}@keyframes eaf-1566-2{0%{fill:#f4b526}25%{fill:#f4b526;animation-timing-function:ease-in-out}35%{fill:#fefadf}65%{fill:#fefadf;animation-timing-function:ease-in-out}75%,100%{fill:#f4b526}}@keyframes eaf-1566-3{0%,100%{transform:translate(250.3px,249.7px)}}@keyframes eaf-1566-4{0%{transform:rotate(0);animation-timing-function:ease-in-out}50%{transform:rotate(180deg);animation-timing-function:ease-in-out}100%{transform:rotate(0)}}@keyframes eaf-1566-5{0%,100%{transform:translate(-250.3px,-249.7px)}}</style></defs><g clip-path="url('#eaf-1566-1')" style="isolation: isolate;"><g><g transform="matrix(4 0 0 4 -827.28 -2254.5264)"><path fill="#bee4fa" d="m331.8 626.1c0 15.6 0 31.3 0 46.9c0 7.2 -5.4 13.7 -12.5 15.1c-1 0.2 -2.1 0.3 -3.2 0.3c-31.2 0 -62.4 0 -93.6 0c-7.6 0 -14.3 -5.9 -15.3 -13.5c-0.1 -0.7 -0.1 -1.4 -0.1 -2c0 -31.3 0 -62.5 0 -93.8c0 -7.2 5.4 -13.7 12.5 -15.1c1 -0.2 2.1 -0.3 3.2 -0.3c31.2 0 62.4 0 93.6 0c7.2 0 13.7 5.4 15.1 12.5c0.2 1 0.3 2.1 0.3 3.2c0 15.6 0 31.1 0 46.7z"></path></g><g style="animation-name: eaf-1566-3, eaf-1566-4, eaf-1566-5; animation-composition: replace, add, add;"><path fill="#bee4fa" d="m250.3 520.9l7.6 -0.1l7.6 -0.4l7.6 -0.5c137.6 -11.7 244.3 -124.5 248.3 -262.6l0.1 -7.6l-0.1 -7.6c-4.1 -141 -115.1 -255.2 -255.9 -263.1l-7.6 -0.4l-7.6 -0.1l-7.6 0.1l-7.6 0.4c-137.8 7.7 -247.8 117.7 -255.5 255.5l-0.4 7.6l-0.1 7.6c0.2 141 107.9 258.3 248.5 270.2l7.6 0.5l7.6 0.4l7.5 0.1z"></path><g style="filter: drop-shadow(rgb(163, 163, 163) 8px 8px 12px);"><path fill="#fff" d="m250.3 387.6l5.4 -0.1l5.5 -0.4l5.4 -0.5c67.5 -8.1 118.8 -63.7 121.6 -131.6l0.1 -5.4l-0.1 -5.4c-2.9 -70 -57.2 -126.5 -127 -132.1l-5.5 -0.4l-5.4 -0.1l-5.4 0.1l-5.5 0.4c-67.7 5.4 -121.3 59 -126.6 126.6l-0.4 5.5l-0.1 5.4c0.1 70 52.2 128.7 121.7 137l5.4 0.5l5.5 0.4l5.4 0.1z"></path></g><g style="filter: drop-shadow(rgb(163, 163, 163) 8px 8px 12px);"><path fill="#01507b" d="m219.4 297.9c0 0 -16.1 7.5 -16.1 7.5l3 2.4c25.5 19.1 59.9 19.7 86 1.4l3.1 -2.3l0 0.1l1.7 -1.2c8.5 -5.5 19.3 -4.8 27.1 1.6c0 0 1.5 1.4 1.5 1.4l60 59.9l-0.1 0.1l1.4 1.5c7.4 9 7 21.9 -1 30.4l-1.5 1.4l0.1 0l-4.9 4.1c-91 74.9 -225.5 57.5 -294.5 -38.1c0 0 -3.7 -5.3 -3.7 -5.3l-21.4 10.1l-0.1 -0.1l-1.9 0.8c-15.6 5.6 -31.5 -6.3 -30.7 -22.9l0.3 -2l-0.1 -0.1l23.8 -155.9l0.1 0l0.4 -2c3.8 -14.2 18.9 -21.4 32.2 -15.1l1.8 1l0 -0.1l135.4 81l0 0.1l1.7 1.1c13.4 9.5 12.3 29.9 -1.9 38.1l-1.7 1.1"></path></g><path fill="#f4b526" d="m215.4 267.5l1.1 0.8c6.2 5 5.6 13.9 -0.9 18.4l-1.2 0.6l0.1 0l-30.7 14.5l0.1 -0.1l2.6 3.3c28.6 32.9 77.2 38.7 112.7 13.5l3.4 -2.5l0 0.1l1.1 -0.8c3.9 -2.3 9.2 -2.1 12.7 0.8l1.1 0.9l60 59.9l-0.1 0.1l0.9 1c3.3 4.2 3.2 10.5 -0.4 14.5l-1 0.9l0.1 0l-4.8 4.1c-89 72.9 -220.4 52.4 -282.9 -44.2l-3.3 -5.3l-0.1 0.1c0 0 -30.7 14.4 -30.7 14.4l-1.2 0.5c-7.6 2.2 -14.7 -3 -14.7 -11l0.1 -1.3l0 -0.1l23.7 -155.9l0.1 0l0.4 -1.3c1.7 -6.5 9.2 -10.1 15.3 -7.2l1.2 0.6l0 -0.1l135.2999 80.8" style="animation-name: eaf-1566-2;"></path><path fill="#01507b" d="m414.5 322.9l-135.3 -80.9l0 -0.1l-1.7 -1.1c-13.4 -9.5 -12.3 -29.9 1.9 -38.1l1.9 -1l0 -0.1l16 -7.6l0.1 0l-3 -2.4c-25.5 -19.2 -59.9 -19.7 -86 -1.4l-3.1 2.3l0 -0.1l-1.7 1.2c-8.5 5.5 -19.3 4.8 -27.1 -1.6l-1.5 -1.4l-0.1 0.1c0 0 -59.9 -60 -59.9 -60l-1.4 -1.5c-7.4 -9 -7 -21.9 1 -30.4l1.5 -1.4l0 -0.1l4.9 -4.1c91 -74.9 225.5 -57.5 294.5 38.1c0 0 3.7 5.3 3.7 5.3l21.4 -10.1l0 0.1l1.9 -0.8c15.6 -5.6 31.5 6.3 30.7 22.9l-0.3 2l0.1 0c0 0 -23.8 155.9 -23.8 155.9l-0.4 2c-3.8 14.2 -18.9 21.4 -32.2 15.1l-2.1 -0.8"></path><path fill="#01507b" d="m183.2 182.4l1.1 0.9c3.5 2.9 8.8 3.1 12.7 0.8l1.1 -0.8l0 0.1l3.4 -2.5c35.5 -25.2 84.1 -19.3 112.7 13.5l2.6 3.3l0 -0.1l-30.6 14.5l0 0.1l-1.2 0.6c-6.5 4.4 -7.1 13.4 -0.9 18.4l1.1 0.8l135.4 81l0.1 -0.1l1.2 0.6c6.1 2.9 13.6 -0.8 15.3 -7.2l0.4 -1.3l23.7 -156l-0.1 0l0.1 -1.3c0 -8 -7.1 -13.3 -14.7 -11l-1.2 0.5l0 -0.1l-30.6 14.5l-0.1 0l-3.3 -5.3c-62.5 -96.7 -193.9 -117.1 -282.9 -44.3l-4.8 4.1l0 0.1l-1 0.9c-3.6 3.9 -3.8 10.3 -0.4 14.5l0.9 1c0 -0.1 59.9 59.9 60 59.8"></path></g></g></g></svg>