<svg xmlns="http://www.w3.org/2000/svg" viewBox="0 0 499.20001220703125 498.3999938964844" overflow="hidden" preserveAspectRatio="xMidYMid meet" id="eaf-16f90-0"><defs><clipPath id="eaf-16f90-1"><rect x="0" y="0" width="499.2" height="498.4"></rect></clipPath><style>#eaf-16f90-0 * {animation: 16000ms linear infinite normal both running;offset-rotate:0deg}@keyframes eaf-16f90-2{0%,100%{transform:none;offset-path:path("m-1131.3918 239.7564l3040.4078 0")}}@keyframes eaf-16f90-3{0%{offset-distance:0%}100%{offset-distance:100%}}@keyframes eaf-16f90-4{0%,100%{transform:matrix(1.229,0,0,1.229,1015.6763,-446.4308)}}@keyframes eaf-16f90-5{0%,100%{transform:translate(186.6562px,245.8px)}}@keyframes eaf-16f90-6{0%{transform:rotate(0)}100%{transform:rotate(360deg)}}@keyframes eaf-16f90-7{0%,100%{transform:matrix(0.9011,0,0,0.9011,-225.0566,-231.3194)}}</style></defs><g clip-path="url('#eaf-16f90-1')" style="isolation: isolate;"><g><g transform="matrix(1.0081 0 0 1 -3.0283 -1)"><path fill="#bee4fa" d="m499.2 250.1c0 62.3 0 124.7 0 187c0 28.6 -21.5 54.7 -49.7 60c-4.2 0.8 -8.5 1.2 -12.7 1.2c-124.2 0.1 -248.5 0 -372.7 0c-30.5 0 -57 -23.4 -61 -53.7c-0.3 -2.7 -0.6 -5.4 -0.6 -8.1c0 -132 0 -256.6 0 -373.7c0 -28.6 21.6 -54.7 49.7 -60c4.2 -0.8 8.5 -1.2 12.7 -1.2c124.3 -0.1 248.7 -0.1 373 -0.1c28.6 0 54.7 21.6 60 49.7c0.8 4.2 1.2 8.5 1.2 12.7c0.1 54.7 0.1 116.7 0.1 186.2z" transform="translate(-1 0)"></path></g><g transform="matrix(1.229 0 0 1.229 -115.7155 -206.6745)" style="animation-name: eaf-16f90-2, eaf-16f90-3, eaf-16f90-4; animation-composition: replace, add, add;"><rect fill="#01507b" width="1177.9" height="51.1" transform="matrix(2.2898 0 0 2.2898 -2174.9853 304.7392)"></rect><g transform="matrix(2.2898 0 0 2.2898 -2240.8021 56.7553)"><rect fill="#fff" width="46.2" height="25.5" transform="translate(1044.4 121.1)"></rect><rect fill="#fff" width="46.2" height="25.5" transform="translate(991.5 121.1)"></rect><rect fill="#fff" width="46.1" height="25.5" transform="translate(1097.3 121.1)"></rect><rect fill="#fff" width="46.1" height="25.5" transform="translate(1150.2 121.1)"></rect><rect fill="#fff" width="46.2" height="25.5" transform="translate(991.5 121.1)"></rect><rect fill="#fff" width="46.1" height="25.5" transform="translate(938.6 121.1)"></rect><rect fill="#fff" width="46.2" height="25.5" transform="translate(1044.4 121.1)"></rect><rect fill="#fff" width="46.1" height="25.5" transform="translate(832.8 121.1)"></rect><rect fill="#fff" width="46.1" height="25.5" transform="translate(779.9 121.1)"></rect><rect fill="#fff" width="46.1" height="25.5" transform="translate(885.7 121.1)"></rect><rect fill="#fff" width="46.1" height="25.5" transform="translate(674 121.1)"></rect><rect fill="#fff" width="46.1" height="25.5" transform="translate(621.1 121.1)"></rect><rect fill="#fff" width="46.1" height="25.5" transform="translate(726.9 121.1)"></rect><rect fill="#fff" width="46.1" height="25.5" transform="translate(621.1 121.1)"></rect><rect fill="#fff" width="46.1" height="25.5" transform="translate(568.2 121.1)"></rect><rect fill="#fff" width="46.1" height="25.5" transform="translate(674 121.1)"></rect><rect fill="#fff" width="46.2" height="25.5" transform="translate(462.3 121.1)"></rect><rect fill="#fff" width="46.1" height="25.5" transform="translate(409.5 121.1)"></rect><rect fill="#fff" width="46.2" height="25.5" transform="translate(515.3 121.1)"></rect><rect fill="#fff" width="46.1" height="25.5" transform="translate(303.6 121.1)"></rect><rect fill="#fff" width="46.1" height="25.5" transform="translate(250.7 121.1)"></rect><rect fill="#fff" width="46.1" height="25.5" transform="translate(356.6 121.1)"></rect><rect fill="#fff" width="46.1" height="25.5" transform="translate(250.7 121.1)"></rect><rect fill="#fff" width="46.1" height="25.5" transform="translate(197.8 121.1)"></rect><rect fill="#fff" width="46.1" height="25.5" transform="translate(303.6 121.1)"></rect><rect fill="#fff" width="46.1" height="25.5" transform="translate(92 121.1)"></rect><rect fill="#fff" width="46.1" height="25.5" transform="translate(39 121.1)"></rect><rect fill="#fff" width="46.1" height="25.5" transform="translate(144.9 121.1)"></rect></g><g transform="matrix(2.2898 0 0 2.2898 -2238.545 56.7553)"><rect fill="#bee4fa" width="4.3" height="4.4" transform="translate(1038.9 111.9)"></rect><path fill="#bee4fa" d="m1038.9 111.9"></path><path fill="#bee4fa" d="m28.8 159.4"></path><rect fill="#bee4fa" width="4.3" height="4.4" transform="translate(1065.3 111.9)"></rect><path fill="#bee4fa" d="m1065.3 111.9"></path><rect fill="#bee4fa" width="4.3" height="4.4" transform="translate(1052.1 111.9)"></rect><path fill="#bee4fa" d="m1052.1 111.9"></path><rect fill="#bee4fa" width="4.3" height="4.4" transform="translate(1078.5 111.9)"></rect><path fill="#bee4fa" d="m1082.9 111.9"></path><rect fill="#bee4fa" width="4.3" height="4.4" transform="translate(1091.8 111.9)"></rect><path fill="#bee4fa" d="m1096.1 111.9"></path><rect fill="#bee4fa" width="4.3" height="4.4" transform="translate(1122.6 111.9)"></rect><path fill="#bee4fa" d="m1122.6 111.9"></path><rect fill="#bee4fa" width="4.3" height="4.4" transform="translate(1109.4 111.9)"></rect><path fill="#bee4fa" d="m1109.4 111.9"></path><rect fill="#bee4fa" width="4.4" height="4.4" transform="translate(1135.8 111.9)"></rect><path fill="#bee4fa" d="m1140.2 111.9"></path><rect fill="#bee4fa" width="4.3" height="4.4" transform="translate(1149 111.9)"></rect><path fill="#bee4fa" d="m1153.4 111.9"></path><rect fill="#bee4fa" width="4.4" height="4.4" transform="translate(1179.8 111.9)"></rect><path fill="#bee4fa" d="m1179.8 111.9"></path><rect fill="#bee4fa" width="4.4" height="4.4" transform="translate(1166.6 111.9)"></rect><path fill="#bee4fa" d="m1166.6 111.9"></path><rect fill="#bee4fa" width="4.3" height="4.4" transform="translate(1193.1 111.9)"></rect><path fill="#bee4fa" d="m1197.4 111.9"></path><rect fill="#bee4fa" width="4.4" height="4.4" transform="translate(871.4 111.9)"></rect><path fill="#bee4fa" d="m871.4 111.9"></path><rect fill="#bee4fa" width="4.4" height="4.4" transform="translate(897.9 111.9)"></rect><path fill="#bee4fa" d="m897.9 111.9"></path><rect fill="#bee4fa" width="4.4" height="4.4" transform="translate(884.7 111.9)"></rect><path fill="#bee4fa" d="m884.7 111.9"></path><rect fill="#bee4fa" width="4.3" height="4.4" transform="translate(911.1 111.9)"></rect><path fill="#bee4fa" d="m915.5 111.9"></path><rect fill="#bee4fa" width="4.4" height="4.4" transform="translate(924.3 111.9)"></rect><path fill="#bee4fa" d="m928.7 111.9"></path><rect fill="#bee4fa" width="4.3" height="4.4" transform="translate(955.2 111.9)"></rect><path fill="#bee4fa" d="m955.2 111.9"></path><rect fill="#bee4fa" width="4.4" height="4.4" transform="translate(941.9 111.9)"></rect><path fill="#bee4fa" d="m941.9 111.9"></path><rect fill="#bee4fa" width="4.3" height="4.4" transform="translate(968.4 111.9)"></rect><path fill="#bee4fa" d="m972.7 111.9"></path><rect fill="#bee4fa" width="4.3" height="4.4" transform="translate(981.6 111.9)"></rect><path fill="#bee4fa" d="m986 111.9"></path><rect fill="#bee4fa" width="4.3" height="4.4" transform="translate(1012.4 111.9)"></rect><path fill="#bee4fa" d="m1012.4 111.9"></path><rect fill="#bee4fa" width="4.3" height="4.4" transform="translate(999.2 111.9)"></rect><path fill="#bee4fa" d="m999.2 111.9"></path><rect fill="#bee4fa" width="4.3" height="4.4" transform="translate(1025.6 111.9)"></rect><path fill="#bee4fa" d="m1029.9 111.9"></path><rect fill="#bee4fa" width="4.3" height="4.4" transform="translate(704 111.9)"></rect><path fill="#bee4fa" d="m704 111.9"></path><rect fill="#bee4fa" width="4.3" height="4.4" transform="translate(730.5 111.9)"></rect><path fill="#bee4fa" d="m730.5 111.9"></path><rect fill="#bee4fa" width="4.3" height="4.4" transform="translate(717.3 111.9)"></rect><path fill="#bee4fa" d="m717.3 111.9"></path><rect fill="#bee4fa" width="4.3" height="4.4" transform="translate(743.7 111.9)"></rect><path fill="#bee4fa" d="m748 111.9"></path><rect fill="#bee4fa" width="4.3" height="4.4" transform="translate(756.9 111.9)"></rect><path fill="#bee4fa" d="m761.3 111.9"></path><rect fill="#bee4fa" width="4.4" height="4.4" transform="translate(787.7 111.9)"></rect><path fill="#bee4fa" d="m787.7 111.9"></path><rect fill="#bee4fa" width="4.3" height="4.4" transform="translate(774.5 111.9)"></rect><path fill="#bee4fa" d="m774.5 111.9"></path><rect fill="#bee4fa" width="4.4" height="4.4" transform="translate(800.9 111.9)"></rect><path fill="#bee4fa" d="m805.3 111.9"></path><rect fill="#bee4fa" width="4.4" height="4.4" transform="translate(814.2 111.9)"></rect><path fill="#bee4fa" d="m818.6 111.9"></path><rect fill="#bee4fa" width="4.4" height="4.4" transform="translate(845 111.9)"></rect><path fill="#bee4fa" d="m845 111.9"></path><rect fill="#bee4fa" width="4.4" height="4.4" transform="translate(831.8 111.9)"></rect><path fill="#bee4fa" d="m831.8 111.9"></path><rect fill="#bee4fa" width="4.3" height="4.4" transform="translate(858.2 111.9)"></rect><path fill="#bee4fa" d="m862.5 111.9"></path><rect fill="#bee4fa" width="4.3" height="4.4" transform="translate(536.6 111.9)"></rect><path fill="#bee4fa" d="m536.6 111.9"></path><rect fill="#bee4fa" width="4.4" height="4.4" transform="translate(563 111.9)"></rect><path fill="#bee4fa" d="m563 111.9"></path><rect fill="#bee4fa" width="4.4" height="4.4" transform="translate(549.8 111.9)"></rect><path fill="#bee4fa" d="m549.8 111.9"></path><rect fill="#bee4fa" width="4.3" height="4.4" transform="translate(576.3 111.9)"></rect><path fill="#bee4fa" d="m580.6 111.9"></path><rect fill="#bee4fa" width="4.4" height="4.4" transform="translate(589.5 111.9)"></rect><path fill="#bee4fa" d="m593.9 111.9"></path><rect fill="#bee4fa" width="4.3" height="4.4" transform="translate(620.3 111.9)"></rect><path fill="#bee4fa" d="m620.3 111.9"></path><rect fill="#bee4fa" width="4.3" height="4.4" transform="translate(607.1 111.9)"></rect><path fill="#bee4fa" d="m607.1 111.9"></path><rect fill="#bee4fa" width="4.3" height="4.4" transform="translate(633.5 111.9)"></rect><path fill="#bee4fa" d="m637.8 111.9"></path><rect fill="#bee4fa" width="4.3" height="4.4" transform="translate(646.8 111.9)"></rect><path fill="#bee4fa" d="m651.1 111.9"></path><rect fill="#bee4fa" width="4.3" height="4.4" transform="translate(677.6 111.9)"></rect><path fill="#bee4fa" d="m677.6 111.9"></path><rect fill="#bee4fa" width="4.3" height="4.4" transform="translate(664.4 111.9)"></rect><path fill="#bee4fa" d="m664.4 111.9"></path><rect fill="#bee4fa" width="4.4" height="4.4" transform="translate(690.8 111.9)"></rect><path fill="#bee4fa" d="m695.1 111.9"></path><rect fill="#bee4fa" width="4.3" height="4.4" transform="translate(369.2 111.9)"></rect><path fill="#bee4fa" d="m369.2 111.9"></path><rect fill="#bee4fa" width="4.3" height="4.4" transform="translate(395.6 111.9)"></rect><path fill="#bee4fa" d="m395.6 111.9"></path><rect fill="#bee4fa" width="4.3" height="4.4" transform="translate(382.4 111.9)"></rect><path fill="#bee4fa" d="m382.4 111.9"></path><rect fill="#bee4fa" width="4.4" height="4.4" transform="translate(408.8 111.9)"></rect><path fill="#bee4fa" d="m413.2 111.9"></path><rect fill="#bee4fa" width="4.3" height="4.4" transform="translate(422.1 111.9)"></rect><path fill="#bee4fa" d="m426.4 111.9"></path><rect fill="#bee4fa" width="4.4" height="4.4" transform="translate(452.9 111.9)"></rect><path fill="#bee4fa" d="m452.9 111.9"></path><rect fill="#bee4fa" width="4.3" height="4.4" transform="translate(439.7 111.9)"></rect><path fill="#bee4fa" d="m439.7 111.9"></path><rect fill="#bee4fa" width="4.3" height="4.4" transform="translate(466.1 111.9)"></rect><path fill="#bee4fa" d="m470.4 111.9"></path><rect fill="#bee4fa" width="4.4" height="4.4" transform="translate(479.3 111.9)"></rect><path fill="#bee4fa" d="m483.7 111.9"></path><rect fill="#bee4fa" width="4.3" height="4.4" transform="translate(510.2 111.9)"></rect><path fill="#bee4fa" d="m510.2 111.9"></path><rect fill="#bee4fa" width="4.4" height="4.4" transform="translate(496.9 111.9)"></rect><path fill="#bee4fa" d="m496.9 111.9"></path><rect fill="#bee4fa" width="4.3" height="4.4" transform="translate(523.4 111.9)"></rect><path fill="#bee4fa" d="m527.7 111.9"></path><rect fill="#bee4fa" width="4.4" height="4.4" transform="translate(215 111.9)"></rect><path fill="#bee4fa" d="m215 111.9"></path><rect fill="#bee4fa" width="4.4" height="4.4" transform="translate(241.4 111.9)"></rect><path fill="#bee4fa" d="m241.4 111.9"></path><rect fill="#bee4fa" width="4.4" height="4.4" transform="translate(228.2 111.9)"></rect><path fill="#bee4fa" d="m228.2 111.9"></path><rect fill="#bee4fa" width="4.3" height="4.4" transform="translate(254.7 111.9)"></rect><path fill="#bee4fa" d="m259 111.9"></path><rect fill="#bee4fa" width="4.4" height="4.4" transform="translate(267.9 111.9)"></rect><path fill="#bee4fa" d="m272.3 111.9"></path><rect fill="#bee4fa" width="4.3" height="4.4" transform="translate(298.7 111.9)"></rect><path fill="#bee4fa" d="m298.7 111.9"></path><rect fill="#bee4fa" width="4.4" height="4.4" transform="translate(285.5 111.9)"></rect><path fill="#bee4fa" d="m285.5 111.9"></path><rect fill="#bee4fa" width="4.3" height="4.4" transform="translate(311.9 111.9)"></rect><path fill="#bee4fa" d="m316.2 111.9"></path><rect fill="#bee4fa" width="4.3" height="4.4" transform="translate(325.2 111.9)"></rect><path fill="#bee4fa" d="m329.5 111.9"></path><rect fill="#bee4fa" width="4.3" height="4.4" transform="translate(356 111.9)"></rect><path fill="#bee4fa" d="m356 111.9"></path><rect fill="#bee4fa" width="4.3" height="4.4" transform="translate(342.8 111.9)"></rect><path fill="#bee4fa" d="m342.8 111.9"></path><rect fill="#bee4fa" width="4.3" height="4.4" transform="translate(47.6 111.9)"></rect><path fill="#bee4fa" d="m47.6 111.9"></path><rect fill="#bee4fa" width="4.3" height="4.4" transform="translate(74 111.9)"></rect><path fill="#bee4fa" d="m74 111.9"></path><rect fill="#bee4fa" width="4.3" height="4.4" transform="translate(60.8 111.9)"></rect><path fill="#bee4fa" d="m60.8 111.9"></path><rect fill="#bee4fa" width="4.3" height="4.4" transform="translate(87.2 111.9)"></rect><path fill="#bee4fa" d="m91.5 111.9"></path><rect fill="#bee4fa" width="4.3" height="4.4" transform="translate(100.5 111.9)"></rect><path fill="#bee4fa" d="m104.8 111.9"></path><rect fill="#bee4fa" width="4.4" height="4.4" transform="translate(131.3 111.9)"></rect><path fill="#bee4fa" d="m131.3 111.9"></path><rect fill="#bee4fa" width="4.3" height="4.4" transform="translate(118.1 111.9)"></rect><path fill="#bee4fa" d="m118.1 111.9"></path><rect fill="#bee4fa" width="4.4" height="4.4" transform="translate(144.5 111.9)"></rect><path fill="#bee4fa" d="m148.8 111.9"></path><rect fill="#bee4fa" width="4.4" height="4.4" transform="translate(157.7 111.9)"></rect><path fill="#bee4fa" d="m162.1 111.9"></path><rect fill="#bee4fa" width="4.4" height="4.4" transform="translate(188.5 111.9)"></rect><path fill="#bee4fa" d="m188.5 111.9"></path><rect fill="#bee4fa" width="4.4" height="4.4" transform="translate(175.3 111.9)"></rect><path fill="#bee4fa" d="m175.3 111.9"></path><rect fill="#bee4fa" width="4.3" height="4.4" transform="translate(201.8 111.9)"></rect><path fill="#bee4fa" d="m206.1 111.9"></path><rect fill="#bee4fa" width="4.3" height="4.4" transform="translate(34.4 111.9)"></rect><path fill="#bee4fa" d="m34.4 111.9"></path><rect fill="#bee4fa" width="4.3" height="4.3" transform="translate(1038.9 151.5)"></rect><path fill="#bee4fa" d="m1038.9 155.8"></path><rect fill="#bee4fa" width="4.3" height="4.3" transform="translate(1065.3 151.5)"></rect><path fill="#bee4fa" d="m1065.3 155.8"></path><rect fill="#bee4fa" width="4.3" height="4.3" transform="translate(1052.1 151.5)"></rect><path fill="#bee4fa" d="m1052.1 155.8"></path><rect fill="#bee4fa" width="4.3" height="4.3" transform="translate(1078.5 151.5)"></rect><path fill="#bee4fa" d="m1082.9 155.8"></path><rect fill="#bee4fa" width="4.3" height="4.3" transform="translate(1091.8 151.5)"></rect><path fill="#bee4fa" d="m1096.1 155.8"></path><rect fill="#bee4fa" width="4.3" height="4.3" transform="translate(1122.6 151.5)"></rect><path fill="#bee4fa" d="m1122.6 155.8"></path><rect fill="#bee4fa" width="4.3" height="4.3" transform="translate(1109.4 151.5)"></rect><path fill="#bee4fa" d="m1109.4 155.8"></path><rect fill="#bee4fa" width="4.4" height="4.3" transform="translate(1135.8 151.5)"></rect><path fill="#bee4fa" d="m1140.2 155.8"></path><rect fill="#bee4fa" width="4.3" height="4.3" transform="translate(1149 151.5)"></rect><path fill="#bee4fa" d="m1153.4 155.8"></path><rect fill="#bee4fa" width="4.4" height="4.3" transform="translate(1179.8 151.5)"></rect><path fill="#bee4fa" d="m1179.8 155.8"></path><rect fill="#bee4fa" width="4.4" height="4.3" transform="translate(1166.6 151.5)"></rect><path fill="#bee4fa" d="m1166.6 155.8"></path><rect fill="#bee4fa" width="4.3" height="4.3" transform="translate(1193.1 151.5)"></rect><path fill="#bee4fa" d="m1197.4 155.8"></path><rect fill="#bee4fa" width="4.4" height="4.3" transform="translate(871.4 151.5)"></rect><path fill="#bee4fa" d="m871.4 155.8"></path><rect fill="#bee4fa" width="4.4" height="4.3" transform="translate(897.9 151.5)"></rect><path fill="#bee4fa" d="m897.9 155.8"></path><rect fill="#bee4fa" width="4.4" height="4.3" transform="translate(884.7 151.5)"></rect><path fill="#bee4fa" d="m884.7 155.8"></path><rect fill="#bee4fa" width="4.3" height="4.3" transform="translate(911.1 151.5)"></rect><path fill="#bee4fa" d="m915.5 155.8"></path><rect fill="#bee4fa" width="4.4" height="4.3" transform="translate(924.3 151.5)"></rect><path fill="#bee4fa" d="m928.7 155.8"></path><rect fill="#bee4fa" width="4.3" height="4.3" transform="translate(955.2 151.5)"></rect><path fill="#bee4fa" d="m955.2 155.8"></path><rect fill="#bee4fa" width="4.4" height="4.3" transform="translate(941.9 151.5)"></rect><path fill="#bee4fa" d="m941.9 155.8"></path><rect fill="#bee4fa" width="4.3" height="4.3" transform="translate(968.4 151.5)"></rect><path fill="#bee4fa" d="m972.7 155.8"></path><rect fill="#bee4fa" width="4.3" height="4.3" transform="translate(981.6 151.5)"></rect><path fill="#bee4fa" d="m986 155.8"></path><rect fill="#bee4fa" width="4.3" height="4.3" transform="translate(1012.4 151.5)"></rect><path fill="#bee4fa" d="m1012.4 155.8"></path><rect fill="#bee4fa" width="4.3" height="4.3" transform="translate(999.2 151.5)"></rect><path fill="#bee4fa" d="m999.2 155.8"></path><rect fill="#bee4fa" width="4.3" height="4.3" transform="translate(1025.6 151.5)"></rect><path fill="#bee4fa" d="m1029.9 155.8"></path><rect fill="#bee4fa" width="4.3" height="4.3" transform="translate(704 151.5)"></rect><path fill="#bee4fa" d="m704 155.8"></path><rect fill="#bee4fa" width="4.3" height="4.3" transform="translate(730.5 151.5)"></rect><path fill="#bee4fa" d="m730.5 155.8"></path><rect fill="#bee4fa" width="4.3" height="4.3" transform="translate(717.3 151.5)"></rect><path fill="#bee4fa" d="m717.3 155.8"></path><rect fill="#bee4fa" width="4.3" height="4.3" transform="translate(743.7 151.5)"></rect><path fill="#bee4fa" d="m748 155.8"></path><rect fill="#bee4fa" width="4.3" height="4.3" transform="translate(756.9 151.5)"></rect><path fill="#bee4fa" d="m761.3 155.8"></path><rect fill="#bee4fa" width="4.4" height="4.3" transform="translate(787.7 151.5)"></rect><path fill="#bee4fa" d="m787.7 155.8"></path><rect fill="#bee4fa" width="4.3" height="4.3" transform="translate(774.5 151.5)"></rect><path fill="#bee4fa" d="m774.5 155.8"></path><rect fill="#bee4fa" width="4.4" height="4.3" transform="translate(800.9 151.5)"></rect><path fill="#bee4fa" d="m805.3 155.8"></path><rect fill="#bee4fa" width="4.4" height="4.3" transform="translate(814.2 151.5)"></rect><path fill="#bee4fa" d="m818.6 155.8"></path><rect fill="#bee4fa" width="4.4" height="4.3" transform="translate(845 151.5)"></rect><path fill="#bee4fa" d="m845 155.8"></path><rect fill="#bee4fa" width="4.4" height="4.3" transform="translate(831.8 151.5)"></rect><path fill="#bee4fa" d="m831.8 155.8"></path><rect fill="#bee4fa" width="4.3" height="4.3" transform="translate(858.2 151.5)"></rect><path fill="#bee4fa" d="m862.5 155.8"></path><rect fill="#bee4fa" width="4.3" height="4.3" transform="translate(536.6 151.5)"></rect><path fill="#bee4fa" d="m536.6 155.8"></path><rect fill="#bee4fa" width="4.4" height="4.3" transform="translate(563 151.5)"></rect><path fill="#bee4fa" d="m563 155.8"></path><rect fill="#bee4fa" width="4.4" height="4.3" transform="translate(549.8 151.5)"></rect><path fill="#bee4fa" d="m549.8 155.8"></path><rect fill="#bee4fa" width="4.3" height="4.3" transform="translate(576.3 151.5)"></rect><path fill="#bee4fa" d="m580.6 155.8"></path><rect fill="#bee4fa" width="4.4" height="4.3" transform="translate(589.5 151.5)"></rect><path fill="#bee4fa" d="m593.9 155.8"></path><rect fill="#bee4fa" width="4.3" height="4.3" transform="translate(620.3 151.5)"></rect><path fill="#bee4fa" d="m620.3 155.8"></path><rect fill="#bee4fa" width="4.3" height="4.3" transform="translate(607.1 151.5)"></rect><path fill="#bee4fa" d="m607.1 155.8"></path><rect fill="#bee4fa" width="4.3" height="4.3" transform="translate(633.5 151.5)"></rect><path fill="#bee4fa" d="m637.8 155.8"></path><rect fill="#bee4fa" width="4.3" height="4.3" transform="translate(646.8 151.5)"></rect><path fill="#bee4fa" d="m651.1 155.8"></path><rect fill="#bee4fa" width="4.3" height="4.3" transform="translate(677.6 151.5)"></rect><path fill="#bee4fa" d="m677.6 155.8"></path><rect fill="#bee4fa" width="4.3" height="4.3" transform="translate(664.4 151.5)"></rect><path fill="#bee4fa" d="m664.4 155.8"></path><rect fill="#bee4fa" width="4.4" height="4.3" transform="translate(690.8 151.5)"></rect><path fill="#bee4fa" d="m695.1 155.8"></path><rect fill="#bee4fa" width="4.3" height="4.3" transform="translate(369.2 151.5)"></rect><path fill="#bee4fa" d="m369.2 155.8"></path><rect fill="#bee4fa" width="4.3" height="4.3" transform="translate(395.6 151.5)"></rect><path fill="#bee4fa" d="m395.6 155.8"></path><rect fill="#bee4fa" width="4.3" height="4.3" transform="translate(382.4 151.5)"></rect><path fill="#bee4fa" d="m382.4 155.8"></path><rect fill="#bee4fa" width="4.4" height="4.3" transform="translate(408.8 151.5)"></rect><path fill="#bee4fa" d="m413.2 155.8"></path><rect fill="#bee4fa" width="4.3" height="4.3" transform="translate(422.1 151.5)"></rect><path fill="#bee4fa" d="m426.4 155.8"></path><rect fill="#bee4fa" width="4.4" height="4.3" transform="translate(452.9 151.5)"></rect><path fill="#bee4fa" d="m452.9 155.8"></path><rect fill="#bee4fa" width="4.3" height="4.3" transform="translate(439.7 151.5)"></rect><path fill="#bee4fa" d="m439.7 155.8"></path><rect fill="#bee4fa" width="4.3" height="4.3" transform="translate(466.1 151.5)"></rect><path fill="#bee4fa" d="m470.4 155.8"></path><rect fill="#bee4fa" width="4.4" height="4.3" transform="translate(479.3 151.5)"></rect><path fill="#bee4fa" d="m483.7 155.8"></path><rect fill="#bee4fa" width="4.3" height="4.3" transform="translate(510.2 151.5)"></rect><path fill="#bee4fa" d="m510.2 155.8"></path><rect fill="#bee4fa" width="4.4" height="4.3" transform="translate(496.9 151.5)"></rect><path fill="#bee4fa" d="m496.9 155.8"></path><rect fill="#bee4fa" width="4.3" height="4.3" transform="translate(523.4 151.5)"></rect><path fill="#bee4fa" d="m527.7 155.8"></path><rect fill="#bee4fa" width="4.4" height="4.3" transform="translate(215 151.5)"></rect><path fill="#bee4fa" d="m215 155.8"></path><rect fill="#bee4fa" width="4.4" height="4.3" transform="translate(241.4 151.5)"></rect><path fill="#bee4fa" d="m241.4 155.8"></path><rect fill="#bee4fa" width="4.4" height="4.3" transform="translate(228.2 151.5)"></rect><path fill="#bee4fa" d="m228.2 155.8"></path><rect fill="#bee4fa" width="4.3" height="4.3" transform="translate(254.7 151.5)"></rect><path fill="#bee4fa" d="m259 155.8"></path><rect fill="#bee4fa" width="4.4" height="4.3" transform="translate(267.9 151.5)"></rect><path fill="#bee4fa" d="m272.3 155.8"></path><rect fill="#bee4fa" width="4.3" height="4.3" transform="translate(298.7 151.5)"></rect><path fill="#bee4fa" d="m298.7 155.8"></path><rect fill="#bee4fa" width="4.4" height="4.3" transform="translate(285.5 151.5)"></rect><path fill="#bee4fa" d="m285.5 155.8"></path><rect fill="#bee4fa" width="4.3" height="4.3" transform="translate(311.9 151.5)"></rect><path fill="#bee4fa" d="m316.2 155.8"></path><rect fill="#bee4fa" width="4.3" height="4.3" transform="translate(325.2 151.5)"></rect><path fill="#bee4fa" d="m329.5 155.8"></path><rect fill="#bee4fa" width="4.3" height="4.3" transform="translate(356 151.5)"></rect><path fill="#bee4fa" d="m356 155.8"></path><rect fill="#bee4fa" width="4.3" height="4.3" transform="translate(342.8 151.5)"></rect><path fill="#bee4fa" d="m342.8 155.8"></path><rect fill="#bee4fa" width="4.3" height="4.3" transform="translate(47.6 151.5)"></rect><path fill="#bee4fa" d="m47.6 155.8"></path><rect fill="#bee4fa" width="4.3" height="4.3" transform="translate(74 151.5)"></rect><path fill="#bee4fa" d="m74 155.8"></path><rect fill="#bee4fa" width="4.3" height="4.3" transform="translate(60.8 151.5)"></rect><path fill="#bee4fa" d="m60.8 155.8"></path><rect fill="#bee4fa" width="4.3" height="4.3" transform="translate(87.2 151.5)"></rect><path fill="#bee4fa" d="m91.5 155.8"></path><rect fill="#bee4fa" width="4.3" height="4.3" transform="translate(100.5 151.5)"></rect><path fill="#bee4fa" d="m104.8 155.8"></path><rect fill="#bee4fa" width="4.4" height="4.3" transform="translate(131.3 151.5)"></rect><path fill="#bee4fa" d="m131.3 155.8"></path><rect fill="#bee4fa" width="4.3" height="4.3" transform="translate(118.1 151.5)"></rect><path fill="#bee4fa" d="m118.1 155.8"></path><rect fill="#bee4fa" width="4.4" height="4.3" transform="translate(144.5 151.5)"></rect><path fill="#bee4fa" d="m148.8 155.8"></path><rect fill="#bee4fa" width="4.4" height="4.3" transform="translate(157.7 151.5)"></rect><path fill="#bee4fa" d="m162.1 155.8"></path><rect fill="#bee4fa" width="4.4" height="4.3" transform="translate(188.5 151.5)"></rect><path fill="#bee4fa" d="m188.5 155.8"></path><rect fill="#bee4fa" width="4.4" height="4.3" transform="translate(175.3 151.5)"></rect><path fill="#bee4fa" d="m175.3 155.8"></path><rect fill="#bee4fa" width="4.3" height="4.3" transform="translate(201.8 151.5)"></rect><path fill="#bee4fa" d="m206.1 155.8"></path><rect fill="#bee4fa" width="4.3" height="4.3" transform="translate(34.4 151.5)"></rect><path fill="#bee4fa" d="m34.4 155.8"></path></g><ellipse fill="#cf0000" rx="15.2271" ry="15.2271" transform="translate(-490.1789 374.0098)"></ellipse><ellipse fill="#ce0000" rx="15.2271" ry="15.2271" transform="translate(-616.6896 374.0098)"></ellipse><ellipse fill="#ce0000" rx="15.2271" ry="15.2271" transform="translate(-742.2844 374.0098)"></ellipse><ellipse fill="#ce0000" rx="15.2271" ry="15.2271" transform="translate(-871.7391 374.0098)"></ellipse><ellipse fill="#ce0000" rx="15.2271" ry="15.2271" transform="translate(-1004.9229 374.0098)"></ellipse><ellipse fill="#ce0000" rx="15.2271" ry="15.2271" transform="translate(-1136.0131 374.0098)"></ellipse><ellipse fill="#ce0000" rx="15.2271" ry="15.2271" transform="translate(-1265.5823 374.0098)"></ellipse><ellipse fill="#ce0000" rx="15.2271" ry="15.2271" transform="translate(-1398.537 374.0098)"></ellipse><ellipse fill="#ce0000" rx="15.2271" ry="15.2271" transform="translate(-1529.5128 374.0098)"></ellipse><ellipse fill="#ce0000" rx="15.2271" ry="15.2271" transform="translate(-1645.4904 363.2432)"></ellipse><ellipse fill="#ce0000" rx="15.2271" ry="15.2271" transform="translate(-1761.2391 356.7827)"></ellipse><ellipse fill="#ce0000" rx="15.2271" ry="15.2271" transform="translate(-1874.4457 352.7827)"></ellipse><ellipse fill="#ce0000" rx="15.2271" ry="15.2271" transform="translate(-1953.1231 349.2755)"></ellipse><ellipse fill="#ce0000" rx="15.2271" ry="15.2271" transform="translate(-2062.1684 363.2432)"></ellipse><path d="M1.31836 17L1.31836 14.2412L4.03809 14.2412L4.03809 7.67871L1.64062 7.67871L1.64062 5.55957Q2.71973 5.33984 3.47656 5.05176Q4.23828 4.75879 4.96094 4.31934L7.48047 4.31934L7.48047 14.2412L9.76074 14.2412L9.76074 17L1.31836 17Z" fill="#cf0000" transform="matrix(2.9206 0 0 3.4951 -176.4711 326.7107)"></path><path d="M1.31836 17L1.31836 14.2412L4.03809 14.2412L4.03809 7.67871L1.64062 7.67871L1.64062 5.55957Q2.71973 5.33984 3.47656 5.05176Q4.23828 4.75879 4.96094 4.31934L7.48047 4.31934L7.48047 14.2412L9.76074 14.2412L9.76074 17L1.31836 17Z" fill="#ce0000" transform="matrix(2.9206 0 0 3.4951 -293.4538 326.0574)"></path><path d="M0.717773 17L0.717773 14.8809Q2.20215 13.6211 3.4082 12.4639Q4.61914 11.3018 5.32715 10.291Q6.04004 9.28027 6.04004 8.44043Q6.04004 7.58105 5.61035 7.1709Q5.18066 6.76074 4.48242 6.76074Q3.8623 6.76074 3.35938 7.13184Q2.86133 7.49805 2.40234 7.96191L0.639648 6.19922Q1.60156 5.12012 2.58789 4.60254Q3.5791 4.08008 4.96094 4.08008Q6.24023 4.08008 7.2168 4.59277Q8.19824 5.10059 8.75977 6.0332Q9.32129 6.96094 9.32129 8.20117Q9.32129 9.31934 8.73047 10.3594Q8.13965 11.3994 7.22656 12.3809Q6.31836 13.3623 5.36133 14.2803Q5.83984 14.2217 6.4502 14.1729Q7.06055 14.1191 7.48047 14.1191L9.92188 14.1191L9.92188 17L0.717773 17Z" fill="#ce0000" transform="matrix(2.9206 0 0 3.4951 69.4771 325.7107)"></path><path d="M0.717773 17L0.717773 14.8809Q2.20215 13.6211 3.4082 12.4639Q4.61914 11.3018 5.32715 10.291Q6.04004 9.28027 6.04004 8.44043Q6.04004 7.58105 5.61035 7.1709Q5.18066 6.76074 4.48242 6.76074Q3.8623 6.76074 3.35938 7.13184Q2.86133 7.49805 2.40234 7.96191L0.639648 6.19922Q1.60156 5.12012 2.58789 4.60254Q3.5791 4.08008 4.96094 4.08008Q6.24023 4.08008 7.2168 4.59277Q8.19824 5.10059 8.75977 6.0332Q9.32129 6.96094 9.32129 8.20117Q9.32129 9.31934 8.73047 10.3594Q8.13965 11.3994 7.22656 12.3809Q6.31836 13.3623 5.36133 14.2803Q5.83984 14.2217 6.4502 14.1729Q7.06055 14.1191 7.48047 14.1191L9.92188 14.1191L9.92188 17L0.717773 17Z" fill="#ce0000" transform="matrix(2.9206 0 0 3.4951 -56.5755 326.0574)"></path><path d="M4.92188 17.2393Q3.90137 17.2393 3.05176 17.0195Q2.20215 16.7998 1.53809 16.3994Q0.878906 15.999 0.400391 15.4424L1.95801 13.2793Q2.53906 13.8213 3.20801 14.1533Q3.88184 14.4805 4.56055 14.4805Q5.40039 14.4805 5.89844 14.1826Q6.40137 13.8799 6.40137 13.2793Q6.40137 12.8008 6.15723 12.4639Q5.91797 12.1221 5.24902 11.9414Q4.58008 11.7607 3.24219 11.7607L3.24219 9.3584Q4.30176 9.3584 4.89746 9.18262Q5.49805 9.00195 5.74707 8.68457Q6.00098 8.3623 6.00098 7.91797Q6.00098 7.3418 5.65918 7.05371Q5.32227 6.76074 4.67773 6.76074Q4.05762 6.76074 3.5498 7.01953Q3.04199 7.27832 2.44141 7.80078L0.717773 5.7207Q1.66016 4.93945 2.6709 4.50977Q3.68164 4.08008 4.83887 4.08008Q6.24023 4.08008 7.27051 4.5Q8.30078 4.91992 8.86719 5.71094Q9.43848 6.50195 9.43848 7.65918Q9.43848 8.58203 8.92578 9.26074Q8.41797 9.93945 7.40234 10.3984L7.40234 10.4814Q8.12012 10.7012 8.66699 11.1113Q9.21875 11.5215 9.52637 12.1221Q9.83887 12.7178 9.83887 13.5186Q9.83887 14.7197 9.16016 15.5498Q8.48145 16.3799 7.3584 16.8096Q6.24023 17.2393 4.92188 17.2393Z" fill="#ce0000" transform="matrix(2.9206 0 0 3.4951 187.3848 325.4907)"></path><path d="M4.92188 17.2393Q3.90137 17.2393 3.05176 17.0195Q2.20215 16.7998 1.53809 16.3994Q0.878906 15.999 0.400391 15.4424L1.95801 13.2793Q2.53906 13.8213 3.20801 14.1533Q3.88184 14.4805 4.56055 14.4805Q5.40039 14.4805 5.89844 14.1826Q6.40137 13.8799 6.40137 13.2793Q6.40137 12.8008 6.15723 12.4639Q5.91797 12.1221 5.24902 11.9414Q4.58008 11.7607 3.24219 11.7607L3.24219 9.3584Q4.30176 9.3584 4.89746 9.18262Q5.49805 9.00195 5.74707 8.68457Q6.00098 8.3623 6.00098 7.91797Q6.00098 7.3418 5.65918 7.05371Q5.32227 6.76074 4.67773 6.76074Q4.05762 6.76074 3.5498 7.01953Q3.04199 7.27832 2.44141 7.80078L0.717773 5.7207Q1.66016 4.93945 2.6709 4.50977Q3.68164 4.08008 4.83887 4.08008Q6.24023 4.08008 7.27051 4.5Q8.30078 4.91992 8.86719 5.71094Q9.43848 6.50195 9.43848 7.65918Q9.43848 8.58203 8.92578 9.26074Q8.41797 9.93945 7.40234 10.3984L7.40234 10.4814Q8.12012 10.7012 8.66699 11.1113Q9.21875 11.5215 9.52637 12.1221Q9.83887 12.7178 9.83887 13.5186Q9.83887 14.7197 9.16016 15.5498Q8.48145 16.3799 7.3584 16.8096Q6.24023 17.2393 4.92188 17.2393Z" fill="#ce0000" transform="matrix(2.9206 0 0 3.4951 307.6666 325.0574)"></path><path d="M4.92188 17.2393Q3.90137 17.2393 3.05176 17.0195Q2.20215 16.7998 1.53809 16.3994Q0.878906 15.999 0.400391 15.4424L1.95801 13.2793Q2.53906 13.8213 3.20801 14.1533Q3.88184 14.4805 4.56055 14.4805Q5.40039 14.4805 5.89844 14.1826Q6.40137 13.8799 6.40137 13.2793Q6.40137 12.8008 6.15723 12.4639Q5.91797 12.1221 5.24902 11.9414Q4.58008 11.7607 3.24219 11.7607L3.24219 9.3584Q4.30176 9.3584 4.89746 9.18262Q5.49805 9.00195 5.74707 8.68457Q6.00098 8.3623 6.00098 7.91797Q6.00098 7.3418 5.65918 7.05371Q5.32227 6.76074 4.67773 6.76074Q4.05762 6.76074 3.5498 7.01953Q3.04199 7.27832 2.44141 7.80078L0.717773 5.7207Q1.66016 4.93945 2.6709 4.50977Q3.68164 4.08008 4.83887 4.08008Q6.24023 4.08008 7.27051 4.5Q8.30078 4.91992 8.86719 5.71094Q9.43848 6.50195 9.43848 7.65918Q9.43848 8.58203 8.92578 9.26074Q8.41797 9.93945 7.40234 10.3984L7.40234 10.4814Q8.12012 10.7012 8.66699 11.1113Q9.21875 11.5215 9.52637 12.1221Q9.83887 12.7178 9.83887 13.5186Q9.83887 14.7197 9.16016 15.5498Q8.48145 16.3799 7.3584 16.8096Q6.24023 17.2393 4.92188 17.2393Z" fill="#ce0000" transform="matrix(2.9206 0 0 3.4951 428.7192 327.0574)"></path></g><path fill="#bee4fa" d="m253.2 65.9c-105.6 0 -140.7881 29.3593 -172.4383 53.4325c-6.6572 5.0635 -17.3654 -101.5127 -21.7995 -100.7854q0.1469 -23.8207 -88.272 95.6854l2.8097 333.6675l266.3 0c4.4 0.3 8.9 0.5 13.5 0.5c105.6 0 191.2 -85.6 191.2 -191.2c0 -105.7 -85.7 -191.3 -191.3 -191.3z" transform="matrix(0.7971 0 0 0.7971 -39.0184 43.7986)"></path><g style="filter: drop-shadow(rgb(85, 85, 85) 9px 9px 18px);"><g transform="matrix(0.9011 0 0 0.9011 -38.4004 14.4806)" style="animation-name: eaf-16f90-5, eaf-16f90-6, eaf-16f90-7; animation-composition: replace, add, add;"><path fill="#01507b" d="m253 451.6c-107.2 0 -194.4 -87.2 -194.4 -194.5c0 -107.2 87.2 -194.5 194.4 -194.5c107.2 0 194.5 87.2 194.5 194.5c-0.1 107.3 -87.3 194.5 -194.5 194.5z" transform="matrix(1.0045 0 0 1.0029 -7.3989 -1.1502)"></path><path fill="#e8e2c5" d="m253 434.2c97.6 0 177 -79.4 177 -177c0 -97.6 -79.4 -177 -177 -177c-97.6 0 -177 79.4 -177 177c-0.1 97.6 79.3 177 177 177z" transform="translate(-6.25 -0.4)"></path><g transform="translate(-6.25 -0.4)"><path fill="#8c8c8c" stroke="#01507b" stroke-width="7" d="m110.6 229c-1 -1.4 -1.4 -3.2 -1.1 -5c6 -32.2 23.6 -61.6 49.1 -82c1.4 -1.1 3.2 -1.6 4.9 -1.4c1.8 0.2 3.4 1.2 4.4 2.6l33.1 44.6c1.6 2.2 1.7 5 0.4 7.2c-0.4 0.6 -0.9 1.2 -1.5 1.7c-11.6 9.8 -19.7 23.2 -22.8 38.3c-0.7 3.4 -4 5.7 -7.4 5.2l-54.8 -8.4c-1.7 -0.4 -3.2 -1.4 -4.3 -2.8z"></path><path fill="#8c8c8c" stroke="#01507b" stroke-width="7" d="m174.8 274.8c-0.1 -0.8 -0.4 -1.5 -0.8 -2.1c-1.3 -2.2 -3.8 -3.5 -6.4 -3.2l-55.1 6.4c-1.8 0.2 -3.4 1.1 -4.5 2.5c-1.1 1.4 -1.5 3.2 -1.3 5c5 32.3 21.6 62.2 46.5 83.5c1.4 1.2 3.1 1.7 4.9 1.5c1.8 -0.2 3.4 -1 4.5 -2.4l34.7 -43.3c2.2 -2.7 1.9 -6.7 -0.8 -9c-11.4 -10.2 -19 -23.9 -21.7 -38.9z"></path><path fill="#8c8c8c" stroke="#01507b" stroke-width="7" d="m282.6 340.1c-1.3 -3.3 -4.9 -5 -8.2 -3.8c-14.6 4.9 -30.3 4.6 -44.5 -0.6c-0.7 -0.3 -1.5 -0.4 -2.2 -0.4c-2.5 0 -5 1.5 -6 4l-22.1 50.9c-0.7 1.6 -0.7 3.5 0 5.1c0.7 1.7 2 2.9 3.7 3.6c30.4 11.8 64.7 12.4 95.6 1.5c1.7 -0.6 3 -1.8 3.8 -3.4c0.7 -1.6 0.8 -3.5 0.1 -5.1l-20.2 -51.8z"></path><path fill="#8c8c8c" stroke="#01507b" stroke-width="7" d="m399.6 286.1c-1 -1.4 -2.6 -2.4 -4.3 -2.7l-54.8 -8.4c-3.4 -0.5 -6.7 1.7 -7.4 5.2c-3.1 15.1 -11.1 28.5 -22.8 38.3c-0.6 0.5 -1.1 1.1 -1.5 1.7c-1.3 2.2 -1.2 5 0.4 7.2l33.1 44.6c1.1 1.4 2.7 2.4 4.4 2.6c1.8 0.2 3.5 -0.3 4.9 -1.4c25.4 -20.4 43.1 -49.8 49.1 -82c0.3 -1.8 -0.1 -3.6 -1.1 -5.1z"></path><path fill="#8c8c8c" stroke="#01507b" stroke-width="7" d="m335.4 240.3c0.1 0.8 0.4 1.5 0.8 2.1c1.3 2.2 3.8 3.5 6.4 3.2l55.1 -6.4c1.8 -0.2 3.4 -1.1 4.5 -2.5c1.1 -1.4 1.5 -3.2 1.3 -5c-5 -32.3 -21.6 -62.2 -46.5 -83.5c-1.4 -1.2 -3.1 -1.7 -4.9 -1.5c-1.8 0.2 -3.4 1 -4.5 2.4l-34.7 43.3c-2.2 2.7 -1.9 6.7 0.8 9c11.5001 10.2 19.1 23.9 21.7 38.9z"></path><path fill="#8c8c8c" stroke="#01507b" stroke-width="7" d="m227.6 174.9c1.3 3.3 4.9 5 8.2 3.8c14.6 -4.9 30.3 -4.6 44.5 0.6c0.7 0.3 1.5 0.4 2.2 0.4c2.5 0 5 -1.5 6 -4l22 -50.9c0.7 -1.6 0.7 -3.5 0 -5.1c-0.7 -1.6 -2 -2.9 -3.7 -3.6c-30.4 -11.8 -64.7 -12.4 -95.6 -1.5c-1.7 0.6 -3 1.8 -3.8 3.4c-0.7 1.6 -0.8 3.5 -0.2 5.1l20.4 51.8z"></path><path fill="#8c8c8c" stroke="#01507b" stroke-width="7" d="m256 223.9c-18.4 0 -33.3 14.9 -33.3 33.3c0 18.4 14.9 33.3 33.3 33.3c18.4 0 33.3 -14.9 33.3 -33.3c0 -18.4 -14.9 -33.3 -33.3 -33.3z"></path></g></g></g></g></g></svg>