<svg xmlns="http://www.w3.org/2000/svg" viewBox="0 0 499.20001220703125 498.3999938964844" overflow="hidden" preserveAspectRatio="xMidYMid meet" id="eaf-263b-0"><defs><clipPath id="eaf-263b-1"><rect x="0" y="0" width="499.2" height="498.4"></rect></clipPath><style>#eaf-263b-0 * {animation: 6000ms linear infinite normal both running;offset-rotate:0deg}@keyframes eaf-263b-2{0%,100%{transform:none;offset-path:path("m252.9 189.2l0 120.7l0 -120.7l0 -75.6")}}@keyframes eaf-263b-3{0%{offset-distance:0%;animation-timing-function:ease-in-out}50%{offset-distance:38.0757%;animation-timing-function:linear(0 0%,0.26 3%,1.33 10%,1.61 14%,1.62 15%,1.55 17%,0.76 26%,0.63 30%,0.7 33%,1.13 41%,1.21 45%,1.18 48%,0.94 56%,0.88 60%,0.9 63%,1.05 74%,1.05 78%,0.99 88%,1 100%)}100%{offset-distance:76.1514%}}@keyframes eaf-263b-4{0%,100%{transform:translate(-252.9px,-189.2px)}}@keyframes eaf-263b-5{0%,100%{transform:translate(252.8px,496.4px)}}@keyframes eaf-263b-6{0%{animation-timing-function:step-start}0.55%{transform:rotate(0);animation-timing-function:cubic-bezier(0,0,0.58,1)}25%{transform:rotate(7deg);animation-timing-function:ease-in-out}75%{transform:rotate(-6deg);animation-timing-function:ease-in}100%{transform:rotate(0)}}@keyframes eaf-263b-7{0%,100%{transform:translate(-252.8px,-496.4px)}}</style></defs><g clip-path="url('#eaf-263b-1')" style="isolation: isolate;"><g><g><path fill="#bee4fa" d="m498.1 249.4c0 62.3 0 124.7 0 187c0 28.6 -21.6 54.7 -49.7 60c-4.2 0.8 -8.5 1.2 -12.7 1.2c-124.2 0.1 -248.5 0 -372.7 0c-30.5 0 -57 -23.4 -61 -53.7c-0.4 -2.7 -0.6 -5.4 -0.6 -8.1c0 -124.5 0 -249.1 0 -373.7c0 -28.6 21.6 -54.7 49.7 -60c4.1 -0.6 8.4 -1.1 12.6 -1.1c124.4 -0.1 248.7 0 373 0c28.6 0 54.7 21.6 60 49.7c0.8 4.2 1.2 8.5 1.2 12.7c0.2 62 0.2 124 0.2 186z"></path></g><g style="animation-name: eaf-263b-5, eaf-263b-6, eaf-263b-7; animation-composition: replace, add, add;"><g><polygon points="87.2,81.5 143.4,45.7 192.9,29.6 221.4,25 252.9,23.3 266.6,26.1 282.2,24.1 355.9,42.3 393,61.5 419.6,81.5 437.4,101.9 441.1,161.9 439.3,290.2 424.6,341.4 392.2,393 361.2,424.8 329.2,449.7 286.1,475.3 264.1,485.9 239.7,485.1 226.7,476.2 211.9,472.1 167,444 124.7,406.9 87.2,355.3 69.9,309.9 64.7,224.7 64.7,118.6 72.7,96.1" fill="#d8d8d8"></polygon><path fill="none" stroke="#01507b" stroke-width="8.4041" stroke-miterlimit="10" d="m252.9 487.7c-10.4 0 -19.7 -4.4 -26.2 -11.5c-5.1 -0.3 -10.2 -1.7 -14.8 -4.1c-44.2 -23.4 -147.1 -90.2 -147.1 -206.2l0 -147.3c0 -8.2 2.8 -16.1 8 -22.5l0.2 -0.2c2.8 -3.4 18.4 -21.3 47.9 -38.5c38.1 -22.2 83.7 -34 132.1 -34c4.8 0 9.5 1 13.7 2.8c3.8 -1.4 7.9 -2.1 12.2 -2.1c0.8 0 1.7 0 2.5 0.1l0.4 0l0.5 0c40.6 4.1 78.9 17 110.9 37.4c24.6 15.7 37.5 30.6 39.8 33.4c5.3 6.3 8.2 14.4 8.2 22.7l0 146.7c0 33 -8.5 64.7 -25.2 94.4c-13.2 23.5 -31.6 45.7 -54.7 66c-35.4 31.1 -72.2 49.6 -88.5 56.9c-5.9 3.9 -12.8 6 -19.9 6z"></path><path fill="#01507b" d="m252.9 465.3c-7.3 0 -13.2 -5.9 -13.2 -13.2l0 -4.3c-2.4 3.8 -6.6 6.1 -11.1 6.1c-2.1 0 -4.3 -0.5 -6.2 -1.5c-40.6 -21.5 -135.2 -82.6 -135.2 -186.4l0 -147.4c0 -3 1.1 -6 3 -8.4l0 -0.1c1.5 -1.8 15.2 -17.8 41.9 -33.5c34.7 -20.2 76.4 -30.9 120.8 -30.9c6.3 0 11.7 4.5 12.9 10.5c1.5 -5.7 6.7 -9.8 12.9 -9.8c0.3 0 0.6 0 0.9 0l0.1 0l0.1 0c90.3 9.1 133.8 60.6 135.6 62.8c2 2.3 3 5.4 3 8.4l0 146.7c0 29.1 -7.5 57.1 -22.3 83.4c-12 21.3 -28.8 41.5 -50 60.2c-35.3 31 -72.6 48.8 -84.9 54.2c-2.1 2.1 -5.2 3.2 -8.3 3.2z"></path><path fill="#a5a5a5" d="m113.6 265.9c0 86.2 75.9 139.1 121.1 163c0 0 0 0 0.1 0c2.2 1.2 4.9 -0.4 4.9 -2.9l0 -353.4c-40.3 2.2 -70.9 13.9 -92.2 26c-21 11.9 -33.9 34.3 -33.9 58.4l0 108.9z"></path><path fill="#fefadf" d="m266.1 421.6c0 4.1 4.4 6.7 8 4.7c42.3 -23.3 118.1 -76.9 118.1 -162l0 -107.7c0 -24.5 -13.2 -47.2 -34.6 -59.1c-19.3 -10.8 -46 -21.3 -80.3 -24.7c-5.3 -0.5 -9.5 -4.1 -11.2 -8.8l0 357.6l0 0z"></path><path fill="#fff" d="m185.5 125.5l-0.4 -16.9c-0.1 -3.3 -3.4 -5.5 -6.4 -4.2c-19.4 8 -33.5 17.8 -42.2 25c-2.8 2.3 -4.5 5.8 -4.5 9.5c0 13.9 0 50 0 66.3c0 3.5 3.9 5.7 6.9 3.7l11.6 -7.6c2.2 -1.5 3.6 -4 3.6 -6.7l0 -46.5c0 -2.8 1.4 -5.5 3.7 -7.2c6.9 -4.9 16.1 -10.4 27.7 -15.4l0 0l-0.5 -23.6" opacity="0.61"></path></g><g style="animation-name: eaf-263b-2, eaf-263b-3, eaf-263b-4; animation-composition: replace, add, add;"><ellipse fill="#af0000" stroke="#fcfcfc" stroke-width="14.7335" stroke-miterlimit="10" rx="66.3" ry="66.3" transform="translate(252.9 189.2)"></ellipse><polygon points="232.8,147.2 220.9,153.8 207.6,163.3 203.8,174.3 210.9,185.7 218.3,182.8 230.4,175.2 238,163.8 243.7,149.6 239.4,143.4" fill="#fcfcfc" opacity="0.78"></polygon></g></g></g></g></svg>