<svg xmlns="http://www.w3.org/2000/svg" viewBox="0 0 500 500" overflow="hidden" preserveAspectRatio="xMidYMid meet" id="eaf-f9de-0"><defs><clipPath id="eaf-f9de-1"><rect x="0" y="0" width="500" height="500"></rect></clipPath><style>#eaf-f9de-0 * {animation: 2000ms linear infinite normal both running;offset-rotate:0deg}@keyframes eaf-f9de-2{0%,100%{filter:none}}@keyframes eaf-f9de-3{0%{filter:drop-shadow(0 0 0 #000)}10%{filter:drop-shadow(0 0 23px #0d0d0d)}36.65%,100%{filter:drop-shadow(0 0 12px #303030)}}@keyframes eaf-f9de-4{0%,100%{transform:translate(250.12px,249.1016px)}}@keyframes eaf-f9de-5{0%{transform:scale(0.4825,0.4825);animation-timing-function:ease-in}50%,100%{transform:scale(1.4893,1.4893)}}@keyframes eaf-f9de-6{0%{opacity:1}35%{opacity:1;animation-timing-function:cubic-bezier(0,0,0.58,1)}48.35%,100%{opacity:0}}</style></defs><g clip-path="url('#eaf-f9de-1')" style="isolation: isolate;"><g><g transform="matrix(4 0 0 4 -827.28 -2254.5264)"><path fill="#bee4fa" d="m331.7 626.1c0 15.6 0 31.3 0 46.9c0 7.2 -5.4 13.7 -12.5 15.1c-1 0.2 -2.1 0.3 -3.2 0.3c-31.2 0 -62.4 0 -93.6 0c-7.6 0 -14.3 -5.9 -15.3 -13.5c-0.1 -0.7 -0.1 -1.4 -0.1 -2c0 -31.3 0 -62.5 0 -93.8c0 -7.2 5.4 -13.7 12.5 -15.1c1 -0.2 2.1 -0.3 3.2 -0.3c31.2 0 62.4 0 93.6 0c7.2 0 13.7 5.4 15.1 12.5c0.2 1 0.3 2.1 0.3 3.2c0 15.6 0 31.1 0 46.7z"></path></g><g style="filter: drop-shadow(rgb(0, 0, 0) 0px 0px 0px); animation-name: eaf-f9de-2, eaf-f9de-3; animation-composition: replace, add;"><ellipse fill="#c90606" rx="197.7636" ry="197.7636" transform="matrix(0.6107 0 0 0.6107 250.12 249.1016)"></ellipse></g><ellipse fill="none" stroke="#c90606" stroke-width="86" rx="197.7636" ry="197.7636" transform="matrix(0.4825 0 0 0.4825 250.12 249.1016)" style="animation-name: eaf-f9de-4, eaf-f9de-5, eaf-f9de-6; animation-composition: replace, add, replace;"></ellipse></g></g></svg>