<svg xmlns="http://www.w3.org/2000/svg" viewBox="0 0 650 650" overflow="hidden" preserveAspectRatio="xMidYMid meet" id="eaf-e80a-0"><defs><clipPath id="eaf-e80a-1"><rect x="0" y="0" width="650" height="650"></rect></clipPath><style>#eaf-e80a-0 * {animation: 5000ms linear infinite normal both running;offset-rotate:0deg}@keyframes eaf-e80a-2{0%,100%{transform:none;offset-path:path("m323.8 290.6l0 -0.5")}}@keyframes eaf-e80a-3{0%{offset-distance:0%}73.34%,100%{offset-distance:100%}}@keyframes eaf-e80a-4{0%,100%{transform:translate(-325px,-291.3px)}}@keyframes eaf-e80a-5{0%,100%{transform:none;offset-path:path("m429.453 325.9l-5.4554 -1.9364l15.2573 -0.4869l-12.3316 -1.3975l9.6146 -1.9465l-10.738 -1.3985l1.1234 3.345l7.7902 -3.6398l-4.8026 -2.1932l4.5701 8.8107l-5.0281 0.8431")}}@keyframes eaf-e80a-6{0%{offset-distance:0%}12.66%{offset-distance:6.6897%}24%{offset-distance:24.3305%}36%{offset-distance:38.6724%}42.66%{offset-distance:50.0087%}54.66%{offset-distance:62.5225%}65.34%{offset-distance:66.6003%}72%{offset-distance:76.537%}84%{offset-distance:82.6383%}90.7%{offset-distance:94.1083%}100%{offset-distance:100%}}@keyframes eaf-e80a-7{0%{transform:rotate(0);animation-timing-function:ease-in-out}20%{transform:rotate(-4deg);animation-timing-function:ease-in-out}40%{transform:rotate(5deg)}53.34%{transform:rotate(5deg);animation-timing-function:ease-in-out}74%{transform:rotate(-6deg);animation-timing-function:ease-in-out}100%{transform:rotate(0)}}@keyframes eaf-e80a-8{0%,100%{transform:matrix(1.029,0,0,1.029,-441.8363,-329.0392)}}@keyframes eaf-e80a-9{0%,100%{transform:translate(430.7864px,286.75px)}}@keyframes eaf-e80a-10{0%{transform:scale(1.1243,1.1243);animation-timing-function:ease-in-out}6%{transform:scale(0.9194,1.3662);animation-timing-function:ease-in-out}10%{transform:scale(0.9817,1.0575);animation-timing-function:ease-in-out}12.66%{transform:scale(0.8376,1.3966);animation-timing-function:ease-in-out}15.34%{transform:scale(0.9245,1.1035);animation-timing-function:ease-in-out}18.66%{transform:scale(0.8126,1.3459);animation-timing-function:ease-in-out}22%{transform:scale(0.9324,1.2222);animation-timing-function:ease-in-out}26%{transform:scale(0.916,1.0665);animation-timing-function:ease-in-out}29.34%{transform:scale(1.1243,1.1243);animation-timing-function:ease-in-out}35.34%{transform:scale(0.9194,1.3662);animation-timing-function:ease-in-out}39.34%{transform:scale(0.9817,1.0575);animation-timing-function:ease-in-out}42%{transform:scale(0.8376,1.3966);animation-timing-function:ease-in-out}44.68%{transform:scale(0.9245,1.1035);animation-timing-function:ease-in-out}48%{transform:scale(0.8126,1.3459);animation-timing-function:ease-in-out}51.34%{transform:scale(0.9324,1.2222);animation-timing-function:ease-in-out}55.34%{transform:scale(0.916,1.0665);animation-timing-function:ease-in-out}58.66%{transform:scale(1.1243,1.1243);animation-timing-function:ease-in-out}58.68%{transform:scale(0.9158,1.0787);animation-timing-function:ease-in-out}64.66%{transform:scale(0.9194,1.3662);animation-timing-function:ease-in-out}68.66%{transform:scale(0.9817,1.0575);animation-timing-function:ease-in-out}71.32%{transform:scale(0.8376,1.3966);animation-timing-function:ease-in-out}74%{transform:scale(0.9245,1.1035);animation-timing-function:ease-in-out}77.32%{transform:scale(0.8126,1.3459);animation-timing-function:ease-in-out}80.66%{transform:scale(0.9324,1.2222);animation-timing-function:ease-in-out}84.66%{transform:scale(0.916,1.0665);animation-timing-function:ease-in-out}88%{transform:scale(0.8126,1.3459);animation-timing-function:ease-in-out}91.34%{transform:scale(0.9324,1.2222);animation-timing-function:ease-in-out}95.34%{transform:scale(0.916,1.0665);animation-timing-function:ease-in-out}98.68%{transform:scale(0.9158,1.0787);animation-timing-function:ease-in-out}100%{transform:scale(1.1243,1.1243)}}@keyframes eaf-e80a-11{0%,100%{transform:translate(-430.7864px,-280.75px)}}@keyframes eaf-e80a-12{0%{fill:#c4c4c4;animation-timing-function:ease-in-out}7.34%{fill:#e0dede;animation-timing-function:ease-in-out}20%{fill:#93deff}35.34%{fill:#93deff;animation-timing-function:ease-in-out}56%{fill:#aff;animation-timing-function:ease-in-out}68.66%{fill:#cef7ff}72%{fill:#efffff;animation-timing-function:ease-in-out}88%{fill:#cef7ff}94%,100%{fill:#c4c4c4}}@keyframes eaf-e80a-13{0%{opacity:1}35.34%{opacity:1;animation-timing-function:ease-in-out}48.68%{opacity:0}56%{opacity:0;animation-timing-function:ease-in-out}69.34%,100%{opacity:1}}@keyframes eaf-e80a-14{0%{opacity:1}39.34%{opacity:1}42%{opacity:0}96%{opacity:0}100%{opacity:1}}@keyframes eaf-e80a-15{0%{opacity:0}59.34%{opacity:0}64%{opacity:1}88%{opacity:1}93.34%,100%{opacity:0}}</style></defs><g clip-path="url('#eaf-e80a-1')" style="isolation: isolate;"><g><path fill="#bee4fa" d="m651 325.1c0 81.6 0 163.1 0 244.7c0 37.4 -28.2 71.6 -65 78.6c-5.5 1 -11.1 1.6 -16.6 1.6c-162.6 0 -325.2 0 -487.7 0c-39.9 0.0001 -74.7 -30.5999 -79.9 -70.2c-0.5 -3.5 -0.8 -7 -0.8 -10.6c0 -163 0 -326 0 -488.9c0 -37.4 28.2 -71.6 65 -78.6c5.4 -1 11.1 -1.6 16.6 -1.6c162.7 -0.1 325.4 -0.1 488.1 -0.1c37.4 0 71.6 28.2 78.6 65c1 5.4 1.6 11.1 1.6 16.6c0.1 81.2 0.1 162.3 0.1 243.5l0 0l0 0z" transform="translate(0.45 -3.2)"></path><path fill="#01507b" fill-rule="evenodd" d="m203.3 503.9l-14.1 46.3l-0.2 0l0 3.6l271.5 0l0 -3.4l0.2 0l-17.7 -46.4l-239.7 0l0 -0.1z"></path><path fill="#01507b" fill-rule="evenodd" d="m273.4 457.9l0 37.6l0 7.6l0 15.6l0.1 10.8l106 0.1l0 -71.7l-106.1 0z"></path><path fill="#fff" fill-rule="evenodd" d="m190.2 549.7l-1 3.5l0.3 0l0.8 -2.6l269.3 0l1 2.6l0.3 0l-1.3 -3.5l-269.4 0z"></path><path fill="#01507b" fill-rule="evenodd" d="m44 99.1l562 0c3.5 0 6.2 2.8 6.2 6.2l0 372c0 3.5 -2.8 6.2 -6.2 6.2l-562 0c-3.5 0 -6.2 -2.8 -6.2 -6.2l0 -372c-0.1 -3.5 2.7 -6.2 6.2 -6.2z"></path><path fill="#898989" fill-rule="evenodd" d="m44 104.1c-0.8 0 -1.2 0.4 -1.2 1.2l0 372c0 0.8 0.4 1.2 1.2 1.2l562 0c0.8 0 1.2 -0.4 1.2 -1.2l0 -372c0 -0.8 -0.4 -1.2 -1.2 -1.2c0 0 -562 0 -562 0z" transform="translate(-1.2 -0.7)" opacity="0.4" style="animation-name: eaf-e80a-2, eaf-e80a-3, eaf-e80a-4; animation-composition: replace, add, add;"></path><path fill="#fefadf" fill-rule="evenodd" d="m61.8 123.1l0 336.4l526.4 0l0 -336.4l-526.4 0z"></path><g transform="translate(15.1 0.2278)"><g><polygon points="467.8,340.6 392.8,340.6 397.8,278.4 462.8,278.4" fill="#f9bda0"></polygon><polygon points="467.8,340.6 430.2,340.6 392.8,278.4 462.8,278.4" fill="#e28f71"></polygon></g><g transform="matrix(1.029 0 0 1.029 -12.3833 -3.1392)" style="animation-name: eaf-e80a-5, eaf-e80a-6, eaf-e80a-7, eaf-e80a-8; animation-composition: replace, add, add, add;"><path fill="#01507b" d="m503.7 185.4c0 35 -26.4 63.4 -58.9 63.4l-28.9 0c-32.5 0 -58.9 -28.4 -58.9 -63.4l0 0c0 -35 26.4 -63.4 58.9 -63.4l28.9 0c32.5 0.1 58.9 28.4 58.9 63.4l0 0z"></path><path fill="#fcccb9" d="m501.4 204.3c0 61.8 -31.1 117.8 -71.1 117.8c-39.9 0 -71.1 -55.9 -71.1 -117.8c0 -61.8 31.2 -72.1 71.1 -72.1c39.9 0 71.1 10.2 71.1 72.1z"></path><path fill="#f9bda0" d="m430.3 132.2c39.9 0 71.1 10.3 71.1 72.1c0 61.8 -31.1 117.8 -71.1 117.8"></path><path fill="#01507b" d="m500.7 174.3c-0.4 -1 -0.9 -1.9 -1.4 -2.7c-1.1 -7.8 -2.9 -16.6 -5.5 -19.1c-4.8 -4.8 -19.6 -19.2 -19.6 -19.2l-6.6 0.8l-21.8 -6.4c-67.4 -11.2 -81.1 30.6 -83.7 42.6c-0.8 1.3 -1.6 2.7 -2.3 4.2c-3.3 7.6 -4.1 18.8 -0.3 20.4l13.6 -14.1c37.7 7.5 63.1 -1.8 78.7 -12.2c9.8 8.2 24.5 17.5 40.4 17.2l8.6 8.9c3.9 -1.6 3.2 -12.8 -0.1 -20.4z"></path></g><g><polygon points="544.6,365 469,321.8 434.7,461 561.6,461" fill="#01507b"></polygon><polygon points="316,365 299,461 425.8,461 391.6,321.8" fill="#01507b"></polygon><polygon points="429.2,423.6 388.9,369 374.4,330 394.9,321.4 430.3,343.9 465.7,321.4 486.2,330 471.6,369 431.4,423.6 430.3,425.5" fill="#f7f9f9"></polygon><polygon points="438.3136,359.6 444.7136,354.9 434.7136,339.4 428.3136,339.4 418.2136,354.9 424.7136,359.6 415.6136,461 430.3,461 451.1,461" fill="#01507b"></polygon></g><path fill="#8c5b25" d="m405.8 275.2l17.4 -7.2c1.9 -0.8 4 -1.2 6.1 -1.2l6.9 0c1.9 0 3.7 0.2 5.5 0.6l12.3 2.9c4.7 1.1 6.7 6.8 3.6 10.6l-6.5 8c-3 3.7 -7.5 5.8 -12.3 5.8l-6.2 0l-10.8 0c-3.4 0 -6.6 -1.2 -9.2 -3.4l-8.2 -7c-3.1 -2.7 -2.3 -7.6 1.4 -9.1z" transform="matrix(1.1243 0 0 1.1243 -53.5284 -28.8853)" style="animation-name: eaf-e80a-9, eaf-e80a-10, eaf-e80a-11; animation-composition: replace, add, add;"></path></g><g><rect fill="#fff" stroke="#01507b" stroke-width="10" width="261.7" height="41.5" transform="translate(112.7 394.2)"></rect><path fill="#d30000" fill-rule="evenodd" d="m160.9 450.2l-57.1 0c-15.5 0 -28.1 -12.6 -28.1 -28.1l0 -35.1c0 -15.5 12.6 -28.1 28.1 -28.1l57.1 0c15.5 0 28.1 12.6 28.1 28.1l0 35c0.1 15.6 -12.5 28.2 -28.1 28.2z"></path><rect fill="#fff" width="29.1" height="51.7" transform="translate(98.2 382.6)"></rect><rect fill="#fff" width="27.8" height="51.7" transform="translate(139.9 382.6)"></rect><path fill="#c4c4c4" fill-rule="evenodd" stroke="#01507b" stroke-width="7" stroke-miterlimit="10" d="m282.9 321.8l-162.1 0c-17.2 0 -31.2 -14 -31.2 -31.2l0 -104.8c0 -17.2 14 -31.2 31.2 -31.2l162.1 0c17.2 0 31.2 14 31.2 31.2l0 104.8c0 17.2 -14 31.2 -31.2 31.2z" style="animation-name: eaf-e80a-12, eaf-e80a-13;"></path></g><path fill="#ed008e" stroke="#5b5b5b" stroke-width="5" d="m0 0l36.1 -22.2787l27.8 0q10.1323 -6.5716 15.6153 -10.3468q18.5347 -13.1667 18.5347 -13.1667q0 0 9.2892 -30.6654l47.6982 -2.9842l32.3666 14.2007l0 42.9624l0 60.6927q-187.404 9.1824 -187.404 4.6127q0 -4.6127 0 -43.0267z" transform="translate(103.8 252.886)" style="animation-name: eaf-e80a-14;"></path><path fill="#606060" d="m147.532 262.835c-9.491 -15.114 -27.284 -35.632 -27.284 -53.334c0 -10.001 7.88 -23.041 19.17 -25.943c-0.898 -14.966 -1.485 -30.172 -1.485 -45.209c0 -8.905 0.168 -17.894 0.504 -26.715c3.507 -39.979 32.149 -68.182 68.492 -81.43c14.575 -5.314 7.511 -29.861 23.502 -30.184c37.366 -0.968 98.79 33.225 122.753 59.168c15.251 16.864 23.961 38.69 24.469 61.43l-1.52 65.434c6.645 1.621 14.069 6.807 15.712 13.451c5.109 20.652 -16.32 46.356 -26.28 62.779c-9.196 15.164 -44.304 64.211 -44.337 64.551c-0.167 1.771 0.741 4.024 3.155 7.637c54.512 74.926 187.617 27.649 187.617 176.672l-512 0c0 -149.115 133.15 -101.744 187.617 -176.67c2.691 -3.957 3.92 -6.089 3.89 -7.826c-0.016 -0.93 -40.362 -58.059 -43.975 -63.811l0 0z" transform="matrix(0.3291 0 0 0.2977 119.0607 163.907)" opacity="0" style="animation-name: eaf-e80a-15;"></path></g></g></svg>