<svg xmlns="http://www.w3.org/2000/svg" viewBox="0 0 500 500" overflow="hidden" preserveAspectRatio="xMidYMid meet" id="eaf-f0f6-0"><defs><clipPath id="eaf-f0f6-1"><rect x="0" y="0" width="500" height="500"></rect></clipPath><style>#eaf-f0f6-0 * {animation: 18000ms linear infinite normal both running;offset-rotate:0deg}@keyframes eaf-f0f6-2{0%,100%{filter:none}}@keyframes eaf-f0f6-3{0%{filter:drop-shadow(0 0 0 #f00)}8.33%{filter:drop-shadow(22px 6px 21px #15ff00)}16.67%{filter:drop-shadow(0 0 0 #f00)}25%{filter:drop-shadow(22px 6px 11px #f00)}33.33%{filter:drop-shadow(0 0 0 #15ff00)}41.67%{filter:drop-shadow(22px 6px 11px #f00)}50%{filter:drop-shadow(0 0 0 #f00)}58.33%{filter:drop-shadow(22px 6px 11px #15ff00)}66.67%{filter:drop-shadow(0 0 0 #f00)}75%{filter:drop-shadow(22px 6px 11px #f00)}83.33%{filter:drop-shadow(0 0 0 #15ff00)}91.67%{filter:drop-shadow(22px 6px 11px #f00)}100%{filter:drop-shadow(0 0 0 #f00)}}@keyframes eaf-f0f6-4{0%,100%{transform:none;offset-path:path("m1012.6752 251.55l-1307.2998 0")}}@keyframes eaf-f0f6-5{0%{offset-distance:0%}100%{offset-distance:100%}}@keyframes eaf-f0f6-6{0%,100%{transform:translate(-1012.6752px,-251.55px)}}</style></defs><g clip-path="url('#eaf-f0f6-1')" style="isolation: isolate;"><g><g transform="matrix(4 0 0 4 -827.28 -2254.5264)"><path fill="#bee4fa" d="m331.8 626.1c0 15.6 0 31.3 0 46.9c0 7.2 -5.4 13.7 -12.5 15.1c-1 0.2 -2.1 0.3 -3.2 0.3c-31.2 0 -62.4 0 -93.6 0c-7.6 0 -14.3 -5.9 -15.3 -13.5c-0.1 -0.7 -0.1 -1.4 -0.1 -2c0 -31.3 0 -62.5 0 -93.8c0 -7.2 5.4 -13.7 12.5 -15.1c1 -0.2 2.1 -0.3 3.2 -0.3c31.2 0 62.4 0 93.6 0c7.2 0 13.7 5.4 15.1 12.5c0.2 1 0.3 2.1 0.3 3.2c0 15.6 0 31.1 0 46.7z"></path></g><g transform="translate(0 0)" style="animation-name: eaf-f0f6-4, eaf-f0f6-5, eaf-f0f6-6; animation-composition: replace, add, add;"><g style="filter: blur(5px) drop-shadow(rgb(255, 0, 0) 0px 0px 0px); animation-name: eaf-f0f6-2, eaf-f0f6-3; animation-composition: replace, add;"><path fill="#fefadf" stroke="#f4b526" stroke-width="8" d="m2048.3 162.8c0 -10.8 -4.9 -19.6 -7.8 -23.8c-7.2 -10.6 -19.4 -17 -32.5 -17c-4.5 0 -8.9 0.7 -13.1 2.1c-1.2 0.4 -2.3 0.8 -3.4 1.3l0 -36.6c0 -1.8 0 -3.8 -0.1 -6c-1.2 -20.2 -17.1 -36.7 -37.1 -38.4c-1.1 -0.1 -2.2 -0.1 -3.4 -0.1c-19.5 0 -36.2 14 -39.8 33.2c-0.9 4.7 -0.9 9 -0.9 12.1c0 19.8 0 38.9 0 57.6c-4.8 -2.2 -10 -3.3 -15.5 -3.3c-5.4 0 -10.8 1.1 -16.1 3.3c-0.4 0.2 -0.7 0.3 -1.1 0.5c-0.2 -1.9 -0.5 -3.9 -1 -6.1c-4.5 -18.2 -20.7 -30.9 -39.4 -30.9c-1.5 0 -3 0.1 -4.5 0.3c-20.5 2.3 -36 19.7 -36.1 40.5c0 2.4 0 4.8 0 7.1c-5 -2.1 -10.5 -3.3 -16.3 -3.3c-1 0 -2.1 0 -3.2 0.1c-4.6 0.3 -9 1.4 -13 3.1c0 -0.1 0 -0.2 0 -0.2c0 -19.6 -11.7 -35.5 -29.8 -40.4c-3.7 -1 -7.4 -1.5 -11.1 -1.5c-5.7 0 -11.2 1.2 -16.1 3.3c0 -21.1 0 -42.3 0 -63.4l0 -1c0 -2.2 0 -5 -0.3 -8.1c-2.1 -20.3 -19.7 -36.2 -40.3 -36.2c-3.8 0 -7.6 0.5 -11.2 1.6c-8.9 2.6 -29.5 11.9 -29.5 42.4c0 12.4 0 24.7 0 37.1c-4.9 -2.1 -10.4 -3.2 -16.2 -3.2c-1.3 0 -2.6 0.1 -3.9 0.2c-19.7 1.8 -34 16.5 -36.2 36.5c-5.1 -2.3 -10.7 -3.5 -16.5 -3.5c-4.5 0 -8.9 0.7 -13.1 2.1c-1.2 0.4 -2.3 0.8 -3.4 1.3l0 -36.7c0 -1.8 0 -3.8 -0.1 -6c-1.2 -20.2 -17.1 -36.7 -37.1 -38.4c-1.1 -0.1 -2.2 -0.1 -3.4 -0.1c-19.5 0 -36.2 14 -39.8 33.2c-0.9 4.7 -0.9 9 -0.9 12.1c0 19.8 0 39 0 57.6c-4.8 -2.2 -10 -3.3 -15.5 -3.3c-5.4 0 -10.8 1.1 -16.1 3.3c-0.4 0.2 -0.7 0.3 -1.1 0.5c-0.2 -1.9 -0.5 -3.9 -1 -6.1c-4.5 -18.2 -20.7 -30.9 -39.4 -30.9c-1.5 0 -3 0.1 -4.5 0.3c-20.5 2.3 -36 19.7 -36.1 40.5c0 9.7 -0.1 19.5 -0.1 29.2c-4.9 -2.1 -10.2 -3.3 -15.9 -3.3l-0.3 0c-5.7 0 -11 1.1 -15.9 3.2c-6.1 -15.2 -20.6 -25.3 -37.7 -25.3c-1 0 -2.1 0 -3.2 0.1c-4.6 0.3 -9 1.4 -13 3.1c0 -0.1 0 -0.2 0 -0.2c0 -19.6 -11.7 -35.5 -29.8 -40.4c-3.7 -1 -7.4 -1.5 -11.1 -1.5c-5.7 0 -11.2 1.2 -16.1 3.3c0 -21.1 0 -42.3 0 -63.4l0 -1c0 -2.2 0 -5 -0.3 -8.1c-2.1 -20.3 -19.7 -36.2 -40.3 -36.2c-3.8 0 -7.6 0.5 -11.2 1.6c-8.9 2.6 -29.5 11.9 -29.5 42.4c0 12.4 0 24.7 0 37.1c-4.9 -2.1 -10.4 -3.2 -16.2 -3.2c-1.3 0 -2.6 0.1 -3.9 0.2c-19.7 1.8 -34 16.5 -36.2 36.5c-5.1 -2.3 -10.7 -3.5 -16.5 -3.5c-4.5 0 -8.9 0.7 -13.1 2.1c-1.2 0.4 -2.3 0.8 -3.4 1.3l0 -36.7c0 -1.8 0 -3.8 -0.1 -6c-1.2 -20.2 -17.1 -36.7 -37.1 -38.4c-1.1 -0.1 -2.2 -0.1 -3.4 -0.1c-19.5 0 -36.2 14 -39.8 33.2c-0.9 4.7 -0.9 9 -0.9 12.1c0 24.3 0 47.7 0 70.4c-5.7 -3 -12.2 -4.6 -19.1 -4.6c-1 0 -2.1 0 -3.2 0.1c-4.6 0.3 -9 1.4 -13 3.1c0 -0.1 0 -0.2 0 -0.2c0 -19.6 -11.7 -35.5 -29.8 -40.4c-3.7 -1 -7.4 -1.5 -11.1 -1.5c-5.7 0 -11.2 1.2 -16.1 3.3c0 -21.1 0 -42.3 0 -63.4l0 -1c0 -2.2 0 -5 -0.3 -8.1c-1.9001 -20.4 -19.6002 -36.3 -40.1002 -36.3c-3.8 0 -7.6 0.5 -11.2 1.6c-8.9 2.6 -29.5 11.9 -29.5 42.4c0 12.4 0 24.7 0 37.1c-4.9 -2.1 -10.4 -3.2 -16.2 -3.2c-1.3 0 -2.6 0.1 -3.9 0.2c-19.7 1.8 -34 16.5 -36.2 36.5c-5.1 -2.3 -10.7 -3.5 -16.5 -3.5c-4.5 0 -8.9 0.7 -13.1 2.1c-1.2 0.4 -2.3 0.8 -3.4 1.3l0 -36.7c0 -1.8 0 -3.8 -0.1 -6c-1.2 -20.2 -17.1 -36.7 -37.1 -38.4c-1.1 -0.1 -2.2 -0.1 -3.4 -0.1c-19.5 0 -36.2 14 -39.8 33.2c-0.9 4.7 -0.9 9 -0.9 12.1c0 19.8 0 39 0 57.6c-4.8 -2.2 -10 -3.3 -15.5 -3.3c-5.4 0 -10.8 1.1 -16.1 3.3c-0.4 0.2 -0.7 0.3 -1.1 0.5c-0.2 -1.9 -0.5 -3.9 -1 -6.1c-4.5 -18.2 -20.7 -30.9 -39.4 -30.9c-1.5 0 -3 0.1 -4.5 0.3c-20.5 2.3 -36 19.7 -36.1 40.5c0 2.4 0 4.8 0 7.1c-5 -2.1 -10.5 -3.3 -16.3 -3.3c-1 0 -2.1 0 -3.2 0.1c-4.6 0.3 -9 1.4 -13 3.1c0 -0.1 0 -0.2 0 -0.2c0 -19.6 -11.7 -35.5 -29.8 -40.4c-3.7 -1 -7.4 -1.5 -11.1 -1.5c-5.7 0 -11.2 1.2 -16.1 3.3c0 -21.1 0 -42.3 0 -63.4l0 -1c0 -2.2 0 -5 -0.3 -8.1c-2.1 -20.3 -19.7 -36.2 -40.3 -36.2c-3.8 0 -7.6 0.5 -11.2 1.6c-8.9 2.6 -29.5 11.9 -29.5 42.4c0 12.4 0 24.7 0 37.1c-4.9 -2.1 -10.4 -3.2 -16.2 -3.2c-1.3 0 -2.6 0.1 -3.9 0.2c-19.7 1.8 -34 16.5 -36.2 36.5c-5.1 -2.3 -10.7 -3.5 -16.5 -3.5c-4.5 0 -8.9 0.7 -13.1 2.1c-1.2 0.4 -2.3 0.8 -3.4 1.3l0 -35.6l0 -1.1c0 -1.8 0 -3.8 -0.1 -6c-1.2 -20.2 -17.1 -36.7 -37.1 -38.4c-1.1 -0.1 -2.2 -0.1 -3.4 -0.1c-19.5 0 -36.2 14 -39.8 33.2c-0.9 4.7 -0.9 9 -0.9 12.1c0 19.7 0 38.9 0 57.6c-4.8 -2.2 -10 -3.3 -15.5 -3.3c-5.4 0 -10.8 1.1 -16.1 3.3c-0.4 0.2 -0.7 0.3 -1.1 0.5c-0.2 -1.9 -0.5 -3.9 -1 -6.1c-4.5 -18.2 -20.7 -30.9 -39.4 -30.9c-1.5 0 -3 0.1 -4.5 0.3c-20.5 2.3 -36 19.7 -36.1 40.5c0 9.7 -0.1 19.5 -0.1 29.2c-4.9 -2.1 -10.2 -3.3 -15.9 -3.3l-0.3 0c-22.6 0 -40.5 18.1 -40.7 41.2c-0.2 21.4 -0.2 43.4 0 65.4c0.2 23.1 18 41.3 40.7 41.3l0.3 0c5.7 0 11.1 -1.2 16 -3.3c0 9.1 0 18.2 0 27.3c0 12.8 4.2 23.3 12.6 31.2c7.8 7.5 17.4 11.5 27.7 11.5c5 0 10 -0.9 14.9 -2.8c14.5 -5.5 24.1 -18.3 25.7 -33.9c4.9 2.2 10.4 3.4 16.3 3.4l0.3 0c5.8 0 11.2 -1.2 16.2 -3.3c0 19.7 0 38.9 0 57.9c0 4.5 0.1 9.7 1.6 15.3c4.6 17.6 20.7 29.9 39.2 29.9c9 0 17.5 -2.9 24.7 -8.4c10.6 -8.2 15.9 -20 15.9 -35.1c0 -12.5 0 -25 0 -37.5c5 2.1 10.5 3.3 16.3 3.3l0.3 0c5.8 0 11.3 -1.3 16.3 -3.4c1.8 20.3 18.4 36 38.8 36.7c0.5 0 1 0 1.5 0c5.8 0 11.3 -1.1 16.2 -3.2c0 12.3 0 24.6 0 36.9c0 3.3 0.1 7.7 1.2 12.5c4.2 18.6 20.4 31.6 39.4 31.6c6.1 0 12.3 -1.4 17.8 -4.2c8.6 -4.2 22.9 -15 22.9 -39.1c0 -21.8 -0.1 -43.7 -0.1 -65.6c5.2 2.3 10.7 3.6 16.2 3.6c6.3 0 12.4 -1.5 18.2 -4.5c14.3 -7.2 22.5 -20.7 22.5 -37l0 -0.9c5 2.1 10.5 3.3 16.3 3.3c0.7 0 1.4 0 2.1 -0.1c5 -0.2 9.7 -1.3 14 -3.1c0 1.7 0 3.4 0 5.1c0 12.8 4.2 23.3 12.6 31.2c8 7.5 17.6 11.5 27.9 11.5c5 0 10 -0.9 14.9 -2.8c14.5 -5.5 24.1 -18.3 25.7 -33.9c4.9 2.2 10.4 3.4 16.3 3.4l0.3 0c5.8 0 11.2 -1.2 16.2 -3.3c0 19.7 0 39 0 57.9c0 4.5 0.1 9.7 1.6 15.3c4.6 17.6 20.7 29.9 39.2 29.9c9 0 17.5 -2.9 24.7 -8.4c10.6 -8.2 15.9 -20 15.9 -35.1c0 -12.5 0 -25 0 -37.5c5 2.1 10.5 3.3 16.3 3.3l0.3 0c5.8 0 11.3 -1.3 16.3 -3.4c1.8 20.3 18.4 36 38.8 36.7c0.5 0 1 0 1.5 0c5.8 0 11.3 -1.1 16.2 -3.2c0 12.3 0 24.6 0 36.9c0 3.3 0.1 7.7 1.2 12.5c4.2 18.6 20.4 31.6 39.4 31.6c6.1 0 12.3 -1.4 17.8 -4.2c8.6 -4.2 22.9 -15 22.9 -39.1c0 -21.8 -0.1 -43.7 -0.1 -65.6c5.2 2.3 10.7 3.6 16.2 3.6c6.2 0 12.4 -1.5 18.2 -4.5c14.3 -7.2 22.5 -20.7 22.5 -37l0 -0.9c5 2.1 10.5 3.3 16.3 3.3c0.7 0 1.4 0 2.1 -0.1c6.1 -0.3 11.8 -1.9 16.8 -4.4c0 23.9 0 47.3 0 70.3c0 4.5 0.1 9.7 1.6 15.3c4.6 17.6 20.7 29.9 39.2 29.9c9 0 17.5 -2.9 24.7 -8.4c10.6 -8.2 15.9 -20 15.9 -35.1c0 -12.5 0 -25 0 -37.5c5 2.1 10.5 3.3 16.3 3.3l0.3 0c5.8 0 11.3 -1.3 16.3 -3.4c1.8 20.3 18.4 36 38.8 36.7c0.5 0 1 0 1.5 0c5.8 0 11.3 -1.1 16.2 -3.2c0 12.3 0 24.6 0 36.9c0 3.3 0.1 7.7 1.2 12.5c4.2 18.6 20.4 31.6 39.4 31.6c6.1 0 12.3 -1.4 17.8 -4.2c8.6 -4.2 22.9 -15 22.9 -39.1c0 -21.8 -0.1 -43.7 -0.1 -65.6c5.2 2.3 10.7 3.6 16.2 3.6c6.3 0 12.4 -1.5 18.2 -4.5c14.3 -7.2 22.5 -20.7 22.5 -37l0 -0.9c5 2.1 10.5 3.3 16.3 3.3c0.7 0 1.4 0 2.1 -0.1c16.5 -0.8 29.7 -10.7 35.4 -25.2c4.9 2.1 10.2 3.2 15.9 3.2l0.3 0c5.7 0 11.1 -1.2 16 -3.3c0 9.1 0 18.2 0 27.3c0 12.8 4.2 23.3 12.6 31.2c8 7.5 17.6 11.5 27.9 11.5c5 0 10 -0.9 14.9 -2.8c14.5 -5.5 24.1 -18.3 25.7 -33.9c4.9 2.2 10.4 3.4 16.3 3.4l0.3 0c5.8 0 11.2 -1.2 16.2 -3.3c0 19.7 0 39 0 57.9c0 4.5 0.1 9.7 1.6 15.3c4.6 17.6 20.7 29.9 39.2 29.9c9 0 17.5 -2.9 24.7 -8.4c10.6 -8.2 15.9 -20 15.9 -35.1c0 -12.5 0 -25 0 -37.5c5 2.1 10.5 3.3 16.3 3.3l0.3 0c5.8 0 11.3 -1.3 16.3 -3.4c1.8 20.3 18.4 36 38.8 36.7c0.5 0 1 0 1.5 0c5.8 0 11.3 -1.1 16.2 -3.2c0 12.3 0 24.6 0 36.9c0 3.3 0.1 7.7 1.2 12.5c4.2 18.6 20.4 31.6 39.4 31.6c6.1 0 12.3 -1.4 17.8 -4.2c8.6 -4.2 22.9 -15 22.9 -39.1c0 -21.8 -0.1 -43.7 -0.1 -65.6c5.2 2.3 10.7 3.6 16.2 3.6c6.2 0 12.4 -1.5 18.2 -4.4c14.3 -7.2 22.5 -20.7 22.5 -37l0 -0.9c5 2.1 10.5 3.3 16.3 3.3c0.7 0 1.4 0 2.1 -0.1c5 -0.2 9.7 -1.3 14 -3.1c0 1.7 0 3.4 0 5.1c0 12.8 4.2 23.3 12.6 31.2c8 7.5 17.6 11.5 27.9 11.5c5 0 10 -0.9 14.9 -2.8c14.5 -5.5 24.1 -18.3 25.7 -33.9c4.9 2.2 10.4 3.4 16.3 3.4l0.3 0c5.8 0 11.2 -1.2 16.2 -3.3c0 19.7 0 38.9 0 57.9c0 4.5 0.1 9.7 1.6 15.3c4.6 17.6 20.7 29.9 39.2 29.9c9 0 17.5 -2.9 24.7 -8.4c10.6 -8.2 15.9 -20 15.9 -35.1c0 -12.5 0 -25 0 -37.5c5 2.1 10.5 3.3 16.3 3.3l0.3 0c22.6 -0.1 40.2999 -17.9 40.2999 -40.5c-0.5005 -49.1999 -0.4004 -113.2999 -0.6003 -177.8999z"></path></g><g><path fill="#01507b" d="m375.2 251.9c0 65.5 0 131.1 0.1 196.6c0 7.8 -2.3 14 -9.5 17.6c-9.5 4.7 -20.9 -0.8 -23.2 -11.2c-0.5 -2.3 -0.6 -4.8 -0.6 -7.2c0 -130.9 0 -261.8 0 -392.7c0 -10.7 4 -16.9 12.3 -19.3c9.6 -2.8 19.8 4 20.9 13.9c0.2 2.2 0.2 4.5 0.2 6.8c-0.2 65.2 -0.2 130.4 -0.2 195.5z"></path><path fill="#01507b" d="m204.5 251.6c0 54.4 0 108.9 0.1 163.3c0 6.4 -1.3 12 -6.6 16.1c-9.1 7.1 -23 2.6 -25.9 -8.6c-0.8 -3 -0.8 -6.2 -0.8 -9.3c0 -107.8 0 -215.7 0 -323.5c0 -2.6 0 -5.2 0.5 -7.8c1.6 -8.6 9.1 -14.3 17.6 -13.6c8.2 0.7 14.6 7.4 15.1 15.8c0.1 1.9 0.1 3.8 0.1 5.7c-0.1 54.1 -0.1 108 -0.1 161.9z"></path><path fill="#01507b" d="m318.5 251.6c0 39.9 0 79.7 0 119.6c0 11.7 -7 19.2 -17.4 18.8c-8.3 -0.3 -15.1 -6.7 -15.7 -15.1c-0.1 -1 -0.1 -2.1 -0.1 -3.1c0 -80.2 0 -160.5 0 -240.7c0 -10.4 5.7 -17.4 14.7 -18.2c10.4 -0.9 18.3 6.2 18.5 17.1c0.2 10.4 0.1 20.8 0.1 31.2c-0.1 30.1 -0.1 60.3 -0.1 90.4z"></path><path fill="#01507b" d="m90.8 251.5c0 32.9 0 65.9 0 98.8c0 7.8 -3.9 13.9 -10.5 16.4c-6.7 2.5 -12.6 1.1 -17.8 -3.7c-3.9 -3.7 -5 -8.4 -5 -13.7c0.1 -41.4 0 -82.9 0 -124.3c0 -24.4 -0.1 -48.9 0 -73.3c0 -8.9 6.4 -15.8 14.7 -16.7c8.2 -0.9 15.9 4.4 17.9 12.6c0.5 2.1 0.5 4.5 0.6 6.7c0.1 32.4 0.1 64.8 0.1 97.2z"></path><path fill="#01507b" d="m432.2 251.5c0 31.2 0 62.4 0 93.6c0 7.1 -3 12.4 -9.3 15.6c-5.9 3 -11.8 2.4 -17.1 -1.6c-4.8 -3.5 -6.9 -8.4 -6.8 -14.4c0.1 -20.8 0 -41.6 0 -62.4c0 -41.4 0 -82.8 0 -124.2c0 -12.1 10 -20 21.1 -16.9c7.4 2 12.1 8.6 12.1 17.3c0 30.9 0 61.9 0 93z"></path><path fill="#01507b" d="m228.2 251.5c0 -29.5 0 -58.9 0 -88.4c0 -7.9 4.4 -14 11.4 -16.3c6.6 -2.2 14.1 -0.3 18.1 5.5c2 3 3.7 6.9 3.7 10.5c0.2 59.1 0.2 118.2 0.1 177.3c0 9.5 -7.3 16.5 -16.5 16.6c-9.4 0.1 -16.7 -7.1 -16.8 -16.8c-0.1 -29.4 0 -58.9 0 -88.4z"></path><path fill="#01507b" d="m114.5 250.9c0 -22 0 -44 0 -66c0 -7.4 3.6 -12.6 10.3 -15.4c6.6 -2.7 13.1 -1.7 17.6 3.7c2.8 3.3 5.1 8.3 5.1 12.5c0.4 43.9 0.3 87.7 0.2 131.6c0 10.3 -7.3 17.5 -16.8 17.5c-9.4 -0.1 -16.4 -7.4 -16.4 -17.7c0 -22.2 0 -44.2 0 -66.2c0 0 0 0 0 0z"></path><path fill="#01507b" d="m489.2 251.4c0 18 0.1 36 0 54c-0.1 10.3 -6.5 17.5 -15.7 17.9c-9.5 0.5 -17.4 -6.3 -17.5 -15.9c-0.2 -37.4 -0.2 -74.8 0 -112.2c0 -8.6 6.6 -15.2 14.9 -15.8c8.8 -0.6 16.1 4.7 17.7 13.3c0.4 2.2 0.5 4.5 0.5 6.7c0.1 17.4 0.1 34.7 0.1 52z"></path><path fill="#01507b" d="m33.9 251.4c0 10.7 0.1 21.5 0 32.2c-0.1 10.3 -7 17.6 -16.4 17.7c-9.4 0.1 -16.7 -7.2 -16.8 -17.4c-0.2 -21.7 -0.2 -43.3 0 -65c0.1 -10.3 7.3 -17.5 16.8 -17.4c9.4 0.1 16.2 7.4 16.4 17.7c0 0.3 0 0.7 0 1c0 10.4 0 20.8 0 31.2z"></path><path fill="#01507b" d="m830.3 251.9c0 65.5 0 131.1 0.1 196.6c0 7.8 -2.3 14 -9.5 17.6c-9.5 4.7 -20.9 -0.8 -23.2 -11.2c-0.5 -2.3 -0.6 -4.8 -0.6 -7.2c0 -130.9 0 -261.8 0 -392.7c0 -10.7 4 -16.9 12.3 -19.3c9.6 -2.8 19.8 4 20.9 13.9c0.2 2.2 0.2 4.5 0.2 6.8c-0.2 65.2 -0.2 130.4 -0.2 195.5z"></path><path fill="#01507b" d="m659.6 251.6c0 54.4 0 108.9 0.1 163.3c0 6.4 -1.3 12 -6.6 16.1c-9.1 7.1 -23 2.6 -25.9 -8.6c-0.8 -3 -0.8 -6.2 -0.8 -9.3c0 -107.8 0 -215.7 0 -323.5c0 -2.6 0 -5.2 0.5 -7.8c1.6 -8.6 9.1 -14.3 17.6 -13.6c8.2 0.7 14.6 7.4 15.1 15.8c0.1 1.9 0.1 3.8 0.1 5.7c-0.0999 54.1 -0.0999 108 -0.0999 161.9z"></path><path fill="#01507b" d="m773.6 251.6c0 39.9 0 79.7 0 119.6c0 11.7 -7 19.2 -17.4 18.8c-8.3 -0.3 -15.1 -6.7 -15.7 -15.1c-0.1 -1 -0.1 -2.1 -0.1 -3.1c0 -80.2 0 -160.5 0 -240.7c0 -10.4 5.7 -17.4 14.7 -18.2c10.4 -0.9 18.3 6.2 18.5 17.1c0.2 10.4 0.1 20.8 0.1 31.2c-0.1 30.1 -0.1 60.3 -0.1 90.4z"></path><path fill="#01507b" d="m545.9 251.5c0 32.9 0 65.9 0 98.8c0 7.8 -3.9 13.9 -10.5 16.4c-6.7 2.5 -12.6 1.1 -17.8 -3.7c-3.9 -3.7 -5 -8.4 -5 -13.7c0.1 -41.4 0 -82.9 0 -124.3c0 -24.4 -0.1 -48.9 0 -73.3c0 -8.9 6.4 -15.8 14.7 -16.7c8.2 -0.9 15.9 4.4 17.9 12.6c0.5 2.1 0.5 4.5 0.6 6.7c0.1 32.4 0.1 64.8 0.1 97.2z"></path><path fill="#01507b" d="m887.3 251.5c0 31.2 0 62.4 0 93.6c0 7.1 -3 12.4 -9.3 15.6c-5.9 3 -11.8 2.4 -17.1 -1.6c-4.8 -3.5 -6.9 -8.4 -6.8 -14.4c0.1 -20.8 0 -41.6 0 -62.4c0 -41.4 0 -82.8 0 -124.2c0 -12.1 10 -20 21.1 -16.9c7.4 2 12.1 8.6 12.1 17.3c0 30.9 0 61.9 0 93z"></path><path fill="#01507b" d="m683.3 251.5c0 -29.5 0 -58.9 0 -88.4c0 -7.9 4.4 -14 11.4 -16.3c6.6 -2.2 14.1 -0.3 18.1 5.5c2 3 3.7 6.9 3.7 10.5c0.2 59.1 0.2 118.2 0.1 177.3c0 9.5 -7.3 16.5 -16.5 16.6c-9.4 0.1 -16.7 -7.1 -16.8 -16.8c-0.1 -29.4 0 -58.9 0 -88.4z"></path><path fill="#01507b" d="m569.6 250.9c0 -22 0 -44 0 -66c0 -7.4 3.6 -12.6 10.3 -15.4c6.6 -2.7 13.1 -1.7 17.6 3.7c2.8 3.3 5.1 8.3 5.1 12.5c0.4 43.9 0.3 87.7 0.2 131.6c0 10.3 -7.3 17.5 -16.8 17.5c-9.4 -0.1 -16.4 -7.4 -16.4 -17.7c-0.0999 -22.2 0.0001 -44.2 0.0001 -66.2c0 0 0 0 0 0z"></path><path fill="#01507b" d="m944.2 251.4c0 18 0.1 36 0 54c-0.1 10.3 -6.5 17.5 -15.7 17.9c-9.5 0.5 -17.4 -6.3 -17.5 -15.9c-0.2 -37.4 -0.2 -74.8 0 -112.2c0 -8.6 6.6 -15.2 14.9 -15.8c8.8 -0.6 16.1 4.7 17.7 13.3c0.4 2.2 0.5 4.5 0.5 6.7c0.2 17.4 0.1 34.7 0.1 52z"></path><path fill="#01507b" d="m1174.4 251.9c0 65.5 0 131.1 0.1 196.6c0 7.8 -2.3 14 -9.5 17.6c-9.5 4.7 -20.9 -0.8 -23.2 -11.2c-0.5 -2.3 -0.6 -4.8 -0.6 -7.2c0 -130.9 0 -261.8 0 -392.7c0 -10.7 4 -16.9 12.3 -19.3c9.6 -2.8 19.8 4 20.9 13.9c0.2 2.2 0.2 4.5 0.2 6.8c-0.2001 65.2 -0.2001 130.4 -0.2001 195.5z"></path><path fill="#01507b" d="m1003.8 251.6c0 54.4 0 108.9 0.1 163.3c0 6.4 -1.3 12 -6.6 16.1c-9.1 7.1 -23 2.6 -25.9 -8.6c-0.8 -3 -0.8 -6.2 -0.8 -9.3c0 -107.8 0 -215.7 0 -323.5c0 -2.6 0 -5.2 0.5 -7.8c1.6 -8.6 9.1 -14.3 17.6 -13.6c8.2 0.7 14.6 7.4 15.1 15.8c0.1 1.9 0.1 3.8 0.1 5.7c-0.0999 54.1 -0.0999 108 -0.0999 161.9z"></path><path fill="#01507b" d="m1117.7 251.6c0 39.9 0 79.7 0 119.6c0 11.7 -7 19.2 -17.4 18.8c-8.3 -0.3 -15.1 -6.7 -15.7 -15.1c-0.1 -1 -0.1 -2.1 -0.1 -3.1c0 -80.2 0 -160.5 0 -240.7c0 -10.4 5.7 -17.4 14.7 -18.2c10.4 -0.9 18.3 6.2 18.5 17.1c0.2 10.4 0.1 20.8 0.1 31.2c-0.1 30.1 -0.1 60.3 -0.1 90.4z"></path><path fill="#01507b" d="m1231.4 251.5c0 31.2 0 62.4 0 93.6c0 7.1 -3 12.4 -9.3 15.6c-5.9 3 -11.8 2.4 -17.1 -1.6c-4.8 -3.5 -6.9 -8.4 -6.8 -14.4c0.1 -20.8 0 -41.6 0 -62.4c0 -41.4 0 -82.8 0 -124.2c0 -12.1 10 -20 21.1 -16.9c7.4 2 12.1 8.6 12.1 17.3c0.0001 30.9 0.0001 61.9 0.0001 93z"></path><path fill="#01507b" d="m1027.4 251.5c0 -29.5 0 -58.9 0 -88.4c0 -7.9 4.4 -14 11.4 -16.3c6.6 -2.2 14.1 -0.3 18.1 5.5c2 3 3.7 6.9 3.7 10.5c0.2 59.1 0.2 118.2 0.1 177.3c0 9.5 -7.3 16.5 -16.5 16.6c-9.4 0.1 -16.7 -7.1 -16.8 -16.8c0.0001 -29.4 0.0001 -58.9 0.0001 -88.4z"></path><path fill="#01507b" d="m1288.4 251.4c0 18 0.1 36 0 54c-0.1 10.3 -6.5 17.5 -15.7 17.9c-9.5 0.5 -17.4 -6.3 -17.5 -15.9c-0.2 -37.4 -0.2 -74.8 0 -112.2c0 -8.6 6.6 -15.2 14.9 -15.8c8.8 -0.6 16.1 4.7 17.7 13.3c0.4 2.2 0.5 4.5 0.5 6.7c0.1 17.4 0.1 34.7 0.1 52z"></path><path fill="#01507b" d="m1683 251.9c0 65.5 0 131.1 0.1 196.6c0 7.8 -2.3 14 -9.5 17.6c-9.5 4.7 -20.9 -0.8 -23.2 -11.2c-0.5 -2.3 -0.6 -4.8 -0.6 -7.2c0 -130.9 0 -261.8 0 -392.7c0 -10.7 4 -16.9 12.3 -19.3c9.6 -2.8 19.8 4 20.9 13.9c0.2 2.2 0.2 4.5 0.2 6.8c-0.2001 65.2 -0.2001 130.4 -0.2001 195.5z"></path><path fill="#01507b" d="m1512.4 251.6c0 54.4 0 108.9 0.1 163.3c0 6.4 -1.3 12 -6.6 16.1c-9.1 7.1 -23 2.6 -25.9 -8.6c-0.8 -3 -0.8 -6.2 -0.8 -9.3c0 -107.8 0 -215.7 0 -323.5c0 -2.6 0 -5.2 0.5 -7.8c1.6 -8.6 9.1 -14.3 17.6 -13.6c8.2 0.7 14.6 7.4 15.1 15.8c0.1 1.9 0.1 3.8 0.1 5.7c-0.0999 54.1 -0.0999 108 -0.0999 161.9z"></path><path fill="#01507b" d="m1626.3 251.6c0 39.9 0 79.7 0 119.6c0 11.7 -7 19.2 -17.4 18.8c-8.3 -0.3 -15.1 -6.7 -15.7 -15.1c-0.1 -1 -0.1 -2.1 -0.1 -3.1c0 -80.2 0 -160.5 0 -240.7c0 -10.4 5.7 -17.4 14.7 -18.2c10.4 -0.9 18.3 6.2 18.5 17.1c0.2 10.4 0.1 20.8 0.1 31.2c-0.1 30.1 -0.1 60.3 -0.1 90.4z"></path><path fill="#01507b" d="m1398.7 251.5c0 32.9 0 65.9 0 98.8c0 7.8 -3.9 13.9 -10.5 16.4c-6.7 2.5 -12.6 1.1 -17.8 -3.7c-3.9 -3.7 -5 -8.4 -5 -13.7c0.1 -41.4 0 -82.9 0 -124.3c0 -24.4 -0.1 -48.9 0 -73.3c0 -8.9 6.4 -15.8 14.7 -16.7c8.2 -0.9 15.9 4.4 17.9 12.6c0.5 2.1 0.5 4.5 0.6 6.7c0.1001 32.4 0.1001 64.8 0.1001 97.2z"></path><path fill="#01507b" d="m1740 251.5c0 31.2 0 62.4 0 93.6c0 7.1 -3 12.4 -9.3 15.6c-5.9 3 -11.8 2.4 -17.1 -1.6c-4.8 -3.5 -6.9 -8.4 -6.8 -14.4c0.1 -20.8 0 -41.6 0 -62.4c0 -41.4 0 -82.8 0 -124.2c0 -12.1 10 -20 21.1 -16.9c7.4 2 12.1 8.6 12.1 17.3c0.0001 30.9 0.0001 61.9 0.0001 93z"></path><path fill="#01507b" d="m1536 251.5c0 -29.5 0 -58.9 0 -88.4c0 -7.9 4.4 -14 11.4 -16.3c6.6 -2.2 14.1 -0.3 18.1 5.5c2 3 3.7 6.9 3.7 10.5c0.2 59.1 0.2 118.2 0.1 177.3c0 9.5 -7.3 16.5 -16.5 16.6c-9.4 0.1 -16.7 -7.1 -16.8 -16.8c0.0001 -29.4 0.0001 -58.9 0.0001 -88.4z"></path><path fill="#01507b" d="m1422.4 250.9c0 -22 0 -44 0 -66c0 -7.4 3.6 -12.6 10.3 -15.4c6.6 -2.7 13.1 -1.7 17.6 3.7c2.8 3.3 5.1 8.3 5.1 12.5c0.4 43.9 0.3 87.7 0.2 131.6c0 10.3 -7.3 17.5 -16.8 17.5c-9.4 -0.1 -16.4 -7.4 -16.4 -17.7c-0.0999 -22.2 -0.0999 -44.2 0.0001 -66.2c0 0 0 0 0 0z"></path><path fill="#01507b" d="m1797 251.4c0 18 0.1 36 0 54c-0.1 10.3 -6.5 17.5 -15.7 17.9c-9.5 0.5 -17.4 -6.3 -17.5 -15.9c-0.2 -37.4 -0.2 -74.8 0 -112.2c0 -8.6 6.6 -15.2 14.9 -15.8c8.8 -0.6 16.1 4.7 17.7 13.3c0.4 2.2 0.5 4.5 0.5 6.7c0.1 17.4 0.1 34.7 0.1 52z"></path><path fill="#01507b" d="m1341.7 251.4c0 10.7 0.1 21.5 0 32.2c-0.1 10.3 -7 17.6 -16.4 17.7c-9.4 0.1 -16.7 -7.2 -16.8 -17.4c-0.2 -21.7 -0.2 -43.3 0 -65c0.1 -10.3 7.3 -17.5 16.8 -17.4c9.4 0.1 16.2 7.4 16.4 17.7c0 0.3 0 0.7 0 1c0 10.4 0 20.8 0 31.2z"></path><path fill="#01507b" d="m1967.4 251.6c0 54.4 0 108.9 0.1 163.3c0 6.4 -1.3 12 -6.6 16.1c-9.1 7.1 -23 2.6 -25.9 -8.6c-0.8 -3 -0.8 -6.2 -0.8 -9.3c0 -107.8 0 -215.7 0 -323.5c0 -2.6 0 -5.2 0.5 -7.8c1.6 -8.6 9.1 -14.3 17.6 -13.6c8.2 0.7 14.6 7.4 15.1 15.8c0.1 1.9 0.1 3.8 0.1 5.7c-0.0999 54.1 -0.0999 108 -0.0999 161.9z"></path><path fill="#01507b" d="m1853.7 251.5c0 32.9 0 65.9 0 98.8c0 7.8 -3.9 13.9 -10.5 16.4c-6.7 2.5 -12.6 1.1 -17.8 -3.7c-3.9 -3.7 -5 -8.4 -5 -13.7c0.1 -41.4 0 -82.9 0 -124.3c0 -24.4 -0.1 -48.9 0 -73.3c0 -8.9 6.4 -15.8 14.7 -16.7c8.2 -0.9 15.9 4.4 17.9 12.6c0.5 2.1 0.5 4.5 0.6 6.7c0.2002 32.4 0.1001 64.8 0.1001 97.2z"></path><path fill="#01507b" d="m1991.1 251.5c0 -29.5 0 -58.9 0 -88.4c0 -7.9 4.4 -14 11.4 -16.3c6.6 -2.2 14.1 -0.3 18.1 5.5c2 3 3.7 6.9 3.7 10.5c0.2 59.1 0.2 118.2 0.1 177.3c0 9.5 -7.3 16.5 -16.5 16.6c-9.4 0.1 -16.7 -7.1 -16.8 -16.8c0.0001 -29.4 0.0001 -58.9 0.0001 -88.4z"></path><path fill="#01507b" d="m1877.4 250.9c0 -22 0 -44 0 -66c0 -7.4 3.6 -12.6 10.3 -15.4c6.6 -2.7 13.1 -1.7 17.6 3.7c2.8 3.3 5.1 8.3 5.1 12.5c0.4 43.9 0.3 87.7 0.2 131.6c0 10.3 -7.3 17.5 -16.8 17.5c-9.4 -0.1 -16.4 -7.4 -16.4 -17.7c0.0001 -22.2 0.0001 -44.2 0.0001 -66.2c0 0 0 0 0 0z"></path></g></g></g></g></svg>