<svg xmlns="http://www.w3.org/2000/svg" viewBox="0 0 769 769" overflow="hidden" preserveAspectRatio="xMidYMid meet" id="eaf-7ea8-0"><defs><clipPath id="eaf-7ea8-1"><rect x="0" y="0" width="769" height="769"></rect></clipPath><linearGradient gradientUnits="userSpaceOnUse" x1="0.05" y1="337.851" x2="0.05" y2="-337.951" id="eaf-7ea8-2"><stop stop-color="#0882c8" offset="0"></stop><stop stop-color="#26b6db" offset="1"></stop></linearGradient><style>#eaf-7ea8-0 * {animation: 20000ms linear infinite normal both running;offset-rotate:0deg}@keyframes eaf-7ea8-3{0%,100%{transform:translate(383.7264px,384.3px)}}@keyframes eaf-7ea8-4{0%{transform:rotate(0);animation-timing-function:ease-in-out}50%{transform:rotate(180deg);animation-timing-function:ease-in-out}100%{transform:rotate(0)}}@keyframes eaf-7ea8-5{0%,100%{transform:translate(-383.7264px,-384.3px)}}</style></defs><g clip-path="url('#eaf-7ea8-1')" style="isolation: isolate;"><g><path fill="#99d6f7" d="m768.1 385.5c0 96.2 0 192.5 0 288.8c0 44.1 -33.3 84.4 -76.7 92.7c-6.4 1.2 -13.1 1.9 -19.6 1.9c-191.9 0.1 -383.8 0.1 -575.7 0.1c-47 0 -88.1 -36.1 -94.2 -82.9c-0.6 -4.1 -0.9 -8.3 -0.9 -12.5c0 -192.4 0 -384.7 0 -577c0 -44.1 33.3 -84.5 76.7 -92.7c6.4 -1.3 13 -1.9 19.6 -1.9c192 -0.1 384.1 -0.1 576.1 -0.1c44.1 0 84.5 33.3 92.7 76.7c1.2 6.4 1.9 13.1 1.9 19.6c0.1 95.8 0.1 191.6 0.1 287.3z"></path><ellipse fill="url('#eaf-7ea8-2')" rx="337.9" ry="337.9" transform="translate(384.5 385.5)"></ellipse><g style="animation-name: eaf-7ea8-3, eaf-7ea8-4, eaf-7ea8-5; animation-composition: replace, add, add;"><ellipse fill="none" stroke="#fff" stroke-width="34.5384" stroke-miterlimit="10" rx="251.6" ry="251.6" transform="translate(384.5 384.3)"></ellipse><g><path fill="#fff" d="m591.8 322.7c27.1 9.2 56.4 -5.2 65.6 -32.2c9.2 -27.1 -5.2 -56.4 -32.2 -65.6c-27.1 -9.2 -56.4 5.2 -65.6 32.2c-9.3 27 5.1 56.4 32.2 65.6z"></path><line x1="608.5" y1="274.4" x2="435.2" y2="418.3" fill="none" stroke="#fff" stroke-width="34.5384" stroke-miterlimit="10"></line></g><g><path fill="#fff" d="m493.3 571.4c-2.3 28.2 18.4 53.5 47.2 56.4c28.8 2.3 53.5 -18.4 56.4 -47.2c2.3 -28.2 -18.4 -53.5 -47.2 -56.4c-28.7 -2.3 -54.1 18.4 -56.4 47.2z"></path><line x1="544.6" y1="576" x2="435.2" y2="418.3" fill="none" stroke="#fff" stroke-width="34.5384" stroke-miterlimit="10"></line></g><path fill="#fff" d="m392 446.5c15.5 24.2 47.8 31.1 71.4 15.5c24.2 -15.5 31.1 -47.8 15.5 -71.4c-15.5 -24.2 -47.8 -31.1 -71.4 -15.5c-24.1 15 -31 47.2 -15.5 71.4z"></path><g><path fill="#fff" d="m168.7 401c-24.8 -14.4 -56.4 -6.3 -70.8 17.8c-14.4 24.8 -6.3 56.4 17.8 70.8c24.8 14.4 56.4 6.3 70.8 -17.8c14.4 -24.2 6.4 -55.8 -17.8 -70.8z"></path><line x1="142.2" y1="445.3" x2="435.2" y2="418.3" fill="none" stroke="#fff" stroke-width="34.5384" stroke-miterlimit="10"></line></g></g></g></g></svg>