<svg xmlns="http://www.w3.org/2000/svg" viewBox="0 0 499.20001220703125 498.3999938964844" overflow="hidden" preserveAspectRatio="xMidYMid meet" id="eaf-1c56-0"><defs><clipPath id="eaf-1c56-1"><rect x="0" y="0" width="499.2" height="498.4"></rect></clipPath><style>#eaf-1c56-0 * {animation: 12000ms linear infinite normal both running;offset-rotate:0deg}@keyframes eaf-1c56-2{0%,100%{transform:none;offset-path:path("m293.3044 366.5404l90.0414 -18.2771l-90.0414 18.2771")}}@keyframes eaf-1c56-3{0%{offset-distance:0%;animation-timing-function:ease-in-out}16.11%{offset-distance:50%;animation-timing-function:ease-in-out}32.78%,100%{offset-distance:100%}}@keyframes eaf-1c56-4{0%,100%{transform:translate(-261.6542px,-382.6412px)}}@keyframes eaf-1c56-5{0%,100%{transform:none;offset-path:path("m174.7297 292.9115l-66.5016 11.5465l8.2561 41.1768l58.2455 -52.7234")}}@keyframes eaf-1c56-6{0%{offset-distance:0%;animation-timing-function:ease-in-out}12.23%{offset-distance:35.8916%;animation-timing-function:ease-in-out}18.61%{offset-distance:58.2233%;animation-timing-function:ease-in-out}32.78%,100%{offset-distance:100%}}@keyframes eaf-1c56-7{0%,100%{transform:translate(-174.7297px,-292.9115px)}}@keyframes eaf-1c56-8{0%,100%{transform:none;offset-path:path("m325.5022 211.1959l-36.25 -5.7918l11.2662 18.5823l-7.214 -27.2942")}}@keyframes eaf-1c56-9{0%{offset-distance:0%;animation-timing-function:ease-in-out}10.28%{offset-distance:42.3548%;animation-timing-function:ease-in-out}21.38%{offset-distance:67.4272%;animation-timing-function:ease-in-out}32.78%,100%{offset-distance:100%}}@keyframes eaf-1c56-10{0%,100%{transform:translate(-325.5022px,-211.1959px)}}@keyframes eaf-1c56-11{0%,100%{transform:none;offset-path:path("m408.7957 272.5177l37.7044 -71.5853l-75 3.5709l37.2957 68.0145")}}@keyframes eaf-1c56-12{0%{offset-distance:0%;animation-timing-function:ease-in-out}5.56%{offset-distance:34.6409%;animation-timing-function:ease-in-out}16.11%{offset-distance:66.7887%;animation-timing-function:ease-in-out}32.78%,100%{offset-distance:100%}}@keyframes eaf-1c56-13{0%,100%{transform:translate(-408.7957px,-272.5177px)}}@keyframes eaf-1c56-14{0%,100%{transform:none;offset-path:path("m267.9797 325.7912l0 0l406.1445 -0.3912l0 0l-844.6632 0.3912l0 0l438.5187 0")}}@keyframes eaf-1c56-15{0%{offset-distance:0%}28.06%{offset-distance:0%;animation-timing-function:ease-in-out}32.78%{offset-distance:24.0418%}66.39%{offset-distance:24.0418%}83.06%{offset-distance:74.0418%}95.83%{offset-distance:74.0418%}100%{offset-distance:100%}}@keyframes eaf-1c56-16{0%,100%{transform:translate(-267.9797px,-325.7912px)}}@keyframes eaf-1c56-17{0%{opacity:1}56.39%{opacity:1}63.06%{opacity:0}85%{opacity:0}89.17%,100%{opacity:1}}@keyframes eaf-1c56-18{0%,100%{transform:none;offset-path:path("m-161.0321 312.1228l0 0l414.3321 0l1.5528 0l401.6256 0")}}@keyframes eaf-1c56-19{0%{offset-distance:0%}61.94%{offset-distance:0%;animation-timing-function:ease-in-out}66.67%{offset-distance:50.6822%;animation-timing-function:ease-in-out}95.83%{offset-distance:50.8721%}100%{offset-distance:100%}}@keyframes eaf-1c56-20{0%{transform:rotate(0)}100%{transform:rotate(360deg)}}@keyframes eaf-1c56-21{0%,100%{transform:translate(181.2698px,-323.7381px)}}@keyframes eaf-1c56-22{0%{fill:#f7e79d}28.06%{fill:#b8e5fc}66.67%,100%{fill:#a7c9db}}@keyframes eaf-1c56-23{0%,100%{transform:translate(-203.7px,422.3778px)}}@keyframes eaf-1c56-24{0%{transform:scale(1,1)}28.06%{transform:scale(0.9931,1);animation-timing-function:ease-in-out}37.78%{transform:scale(0.8325,1);animation-timing-function:ease-in-out}52.78%{transform:scale(0.7063,1);animation-timing-function:ease-in-out}62.78%{transform:scale(0.8898,1);animation-timing-function:ease-in-out}66.67%,100%{transform:scale(0.9957,1)}}@keyframes eaf-1c56-25{0%,100%{transform:translate(203.7px,-422.3778px)}}@keyframes eaf-1c56-26{0%,100%{transform:none;offset-path:path("m-205.85 350.15l0 0l-22.5169 -8.9305l51.2162 0.0557l-12.8 11.1248l-13.7493 -12.1989l0 11.3989")}}@keyframes eaf-1c56-27{0%{offset-distance:0%}28.06%{offset-distance:0%;animation-timing-function:ease-in-out}36.67%{offset-distance:19.8262%;animation-timing-function:ease-in-out}42.78%{offset-distance:61.7455%;animation-timing-function:ease-in-out}52.23%{offset-distance:75.6259%;animation-timing-function:ease-in-out}61.39%{offset-distance:90.6703%;animation-timing-function:ease-in-out}66.67%,100%{offset-distance:100%}}@keyframes eaf-1c56-28{0%{transform:rotate(0)}28.06%{transform:rotate(-1deg);animation-timing-function:ease-in-out}33.61%{transform:rotate(-29deg);animation-timing-function:ease-in-out}46.11%{transform:rotate(20deg);animation-timing-function:ease-in-out}58.61%{transform:rotate(-190deg);animation-timing-function:ease-in-out}66.67%,100%{transform:rotate(-17deg)}}@keyframes eaf-1c56-29{0%,100%{transform:translate(205.85px,-350.15px)}}@keyframes eaf-1c56-30{0%,100%{transform:none;offset-path:path("m-189.9507 261.7424l0 2.2297l446.9984 -0.8675l-1.7478 0.096l0.8302 0l425.0947 0.0065")}}@keyframes eaf-1c56-31{0%{offset-distance:0%}28.33%{offset-distance:0.2543%}32.78%{offset-distance:51.229%;animation-timing-function:ease-in-out}38.89%{offset-distance:51.4286%}61.67%{offset-distance:51.5232%;animation-timing-function:ease-in-out}66.67%,100%{offset-distance:100%}}@keyframes eaf-1c56-32{0%,100%{transform:translate(189.9507px,-314.749px)}}</style></defs><g clip-path="url('#eaf-1c56-1')" style="isolation: isolate;"><g><g transform="translate(1.1 -2.6754)"><g><path fill="#99d6f7" stroke="#01507b" stroke-width="14" d="m498.1 251.5c0 62.3 0 124.7 0 187c0 28.6 -21.5 54.7 -49.7 60c-4.2 0.8 -8.5 1.2 -12.7 1.2c-124.2 0.1 -248.5 0 -372.7 0c-30.5 0 -57 -23.4 -61 -53.7c-0.3 -2.7 -0.6 -5.4 -0.6 -8.1c0 -132 0 -256.6 0 -373.7c0 -28.6 21.6 -54.7 49.7 -60c4.2 -0.8 8.5 -1.2 12.7 -1.2c124.2 0 248.6 0 372.9 0c28.6 0 54.7 21.6 60 49.7c0.8 4.2 1.2 8.5 1.2 12.7c0.2 54.6 0.2 116.6 0.2 186.1z" transform="matrix(0.9743 0 0 0.9743 6.4303 6.472)"></path><path fill="#01507b" d="m131.3 2.6c101.7 0 203.5 0 305.2 0c28.6 0 54.7 21.6 60 49.7c0.8 4.2 1.2 8.5 1.2 12.7c0 34.6 0.1 48.8 0.1 83.4c-60.3 0 -412.1 0 -496.8 0c0 -35 0 -49.5 0 -84.5c0 -28.6 21.6 -54.7 49.7 -60c4.2 -0.8 8.5 -1.2 12.7 -1.2c22.7 -0.1 45.3 -0.1 67.9 -0.1z"></path></g><g><g><path fill="#ffc954" d="m298.1 137.4l0 0c9.1 0 18.3 0 27.4 -0.1c1.1 0 2.5 -0.5 3.2 -1.3c4.2 -4.6 8.3 -9.3 12.4 -14c10.9 -12.3 21.8 -24.7 32.6 -37.1c0.7 -0.8 0.9 -1.9 1.4 -2.9c-1 -0.2 -2 -0.7 -3 -0.7c-18 -0.1 -35.9 -0.1 -53.9 0c-1.4 0 -3.2 0.8 -4.1 1.8c-15.1 17 -30.1 34 -45 51c-0.6 0.6 -0.7 1.6 -1 2.4c0.9 0.2 1.7 0.7 2.6 0.7c9.1 0.3 18.2 0.2 27.4 0.2z"></path><path fill="#ffc954" d="m267.3 14.1c1.1 1.7 1.7 2.9 2.5 3.8c14.4 16.4 28.9 32.8 43.2 49.2c1.6 1.8 3.2 2.3 5.6 2.3c17.6 -0.1 35.3 0 52.9 -0.1c1.1 0 2.3 -0.1 4.1 -0.3c-0.9 -1.4 -1.4 -2.2 -2.1 -2.9c-14.7 -16.7 -29.4 -33.4 -44 -50.1c-1.3 -1.5 -2.7 -2 -4.7 -2c-17.9 0.1 -35.7 0 -53.5 0c-1.1 0.1 -2.1 0.1 -4 0.1z"></path><path fill="#ffc954" d="m146.9 137.4c2 0 3 0 3.9 0c17.1 0 34.2 -0.1 51.3 0.1c3.1 0 5 -0.7 7.1 -3.1c14.2 -16.4 28.7 -32.7 43 -49c0.8 -0.9 1.4 -2.1 2.3 -3.5c-1.4 -0.2 -2.2 -0.3 -2.9 -0.3c-18.2 0 -36.4 0 -54.5 0.1c-1.3 0 -3 1 -3.9 2.1c-14.8 16.7 -29.6 33.5 -44.3 50.3c-0.9 0.7 -1.2 1.7 -2 3.3z"></path><path fill="#ffc954" d="m496.4 81.9c-1.4 -0.2 -1.9 -0.3 -2.4 -0.3c-18.4 0 -36.8 -0.1 -55.2 0c-1.2 0 -2.6 0.9 -3.4 1.8c-15 16.9 -29.9 33.8 -44.8 50.8c-0.6 0.7 -0.9 1.8 -1.3 2.7c0.8 0.3 1 0.4 1.2 0.4c18.8 0 37.7 0 56.5 0c0.8 0 1.9 -0.5 2.4 -1.1c15 -16.9 29.9 -33.9 44.8 -50.8c0.6 -0.9 1.2 -2 2.2 -3.5z"></path><path fill="#ffc954" d="m133.6 82.5c-0.2 -0.3 -0.4 -0.6 -0.6 -0.9c-1.3 0 -2.6 0 -3.8 0c-16.7 0 -33.3 0.1 -50 -0.1c-3.6 0 -5.9 1 -8.2 3.7c-14.4 16.6 -28.9 32.9 -43.4 49.4c-0.6 0.7 -0.8 1.6 -1.3 2.8c19.8 0 38.9 0 58.1 -0.1c0.8 0 1.8 -0.6 2.3 -1.2c14.8 -16.7 29.5 -33.4 44.1 -50.1c1.1 -1.1 1.9 -2.3 2.8 -3.5z"></path><path fill="#ffc954" d="m146.8 14.2c1 1.6 1.5 2.6 2.2 3.4c14.6 16.7 29.2 33.3 43.9 49.9c0.9 1 2.7 1.8 4.1 1.8c18.2 0.1 36.4 0.1 54.5 0.1c0.8 0 1.6 -0.2 2.7 -0.4c-0.7 -1 -1 -1.6 -1.5 -2.2c-14.9 -17 -29.8 -33.9 -44.8 -50.8c-0.9 -1 -2.9 -1.8 -4.4 -1.8c-17.3 -0.1 -34.6 -0.1 -51.9 -0.1c-1.3 0.1 -2.5 0.1 -4.8 0.1z"></path><path fill="#ffc954" d="m27 14.2c-0.3 0.2 -0.5 0.5 -0.8 0.8c0.9 1.1 1.8 2.2 2.7 3.3c14.3 16.2 28.6 32.4 42.8 48.7c1.4 1.6 2.9 2.4 5.2 2.4c17.6 -0.1 35.3 0 52.9 0c1 0 2.1 -0.1 3.6 -0.2c-0.5 -1 -0.8 -1.7 -1.2 -2.2c-15 -17.1 -30.1 -34.2 -45.2 -51.3c-0.7 -0.8 -1.9 -1.5 -2.9 -1.5c-19 -0.1 -38.1 0 -57.1 0z"></path><path fill="#ffc954" d="m496.2 69.1c-0.9 -1.2 -1.3 -1.9 -1.9 -2.6c-14.7 -16.7 -29.4 -33.4 -44 -50.2c-1.4 -1.6 -2.7 -2.2 -4.9 -2.2c-17.6 0.1 -35.2 0 -52.9 0.1c-1 0 -2 0.1 -3.7 0.2c0.9 1.4 1.4 2.4 2.1 3.2c14.5 16.6 29.1 33.1 43.6 49.7c1.4 1.6 2.9 2.1 5 2.1c17.6 -0.1 35.2 -0.1 52.9 -0.1c1.1 0 2.1 -0.1 3.8 -0.2z"></path></g></g></g><g transform="translate(0 0)" style="animation-name: eaf-1c56-14, eaf-1c56-15, eaf-1c56-16, eaf-1c56-17; animation-composition: replace, add, add, replace;"><path fill="#01507b" stroke="#01507b" stroke-width="7" stroke-miterlimit="10" d="m223.6 292.8l124.9 -20.3l0 169.4c0 14 -10.4 25.2 -26.8 29.3c-17.9 4.4 -35.2 -3.1 -38.6 -16.8c-3.4 -13.8 8.3 -28.5 26.2 -33c8.1 -2 16.1 -1.6 22.7 0.8l0 -102l-91.5 16.8l-0.4 126.9c-0.1 12 -10.9 23.8 -26.5 27.7c-17.7 4.4 -36.2 -4 -38.2 -16.6c-3.4 -13.6 8.2 -28.2 25.9 -32.6c8 -2 15.8 -1.6 22.3 0.7l0 -150.3l0 0z" transform="translate(31.6503 -16.1008)" style="animation-name: eaf-1c56-2, eaf-1c56-3, eaf-1c56-4; animation-composition: replace, add, add;"></path><path fill="#01507b" stroke="#01507b" stroke-width="16" stroke-miterlimit="10" d="m176.7 375.3l0.4 -156.9c0 0 34.2 -1.8 67.6 50.6c0 0 0.1 -27.1 -25.6 -46.9c-50.2 -35 -50 -43.3 -50 -43.3c-9.6 1.1 -10.6 8.4 -10.6 8.4l0 165.2c-7.2 -2.5 -15.8 -3 -24.6 -0.8c-19.5 4.8 -32.2 20.9 -28.5 35.9c2.2 13.8 22.6 23.1 42 18.2c17.2 -4.3 29.1 -17.2 29.3 -30.4l0 0z" transform="translate(0 0)" style="animation-name: eaf-1c56-5, eaf-1c56-6, eaf-1c56-7; animation-composition: replace, add, add;"></path><path fill="#01507b" stroke="#01507b" stroke-width="9" stroke-miterlimit="10" d="m313 263c7.9 -2 13.4 -7.9 13.4 -14l0 0l0.2 -72.1c0 0 15.7 -0.8 31.1 23.3c0 0 0 -12.4 -11.8 -21.5c-23.1 -16.1 -23 -19.9 -23 -19.9c-4.4 0.5 -4.9 3.9 -4.9 3.9l0 76c-3.3 -1.2 -7.2 -1.4 -11.3 -0.4c-9 2.2 -14.8 9.6 -13.1 16.5c1.1 6.2 10.5 10.4 19.4 8.2z" transform="translate(0 0)" style="animation-name: eaf-1c56-8, eaf-1c56-9, eaf-1c56-10; animation-composition: replace, add, add;"></path><path fill="#f7e79d" stroke="#01507b" stroke-width="9" stroke-miterlimit="10" d="m400.2 308.7c5.5 -1.4 9.3 -5.5 9.3 -9.8l0.1 -50.3c0 0 10.9 -0.6 21.6 16.2c0 0 0 -8.7 -8.2 -15c-16.1 -11.2 -16 -13.9 -16 -13.9c-3.1 0.4 -3.4 2.7 -3.4 2.7l0 52.9c-2.3 -0.8 -5 -1 -7.9 -0.2c-6.2 1.5 -10.3 6.7 -9.1 11.5c0.8 4.5 7.3 7.5 13.6 5.9z" transform="translate(0 0)" style="animation-name: eaf-1c56-11, eaf-1c56-12, eaf-1c56-13; animation-composition: replace, add, add;"></path></g><g style="filter: drop-shadow(rgb(85, 85, 85) -10px 10px 12px);"><g transform="translate(20.2378 -11.6153)" style="animation-name: eaf-1c56-18, eaf-1c56-19, eaf-1c56-20, eaf-1c56-21; animation-composition: replace, add, add, add;"><g transform="matrix(0.9011 0 0 0.9011 -38.4004 14.4806)"><path fill="#01507b" d="m-161.1 506.4c-90.1 0 -163.4 -73.2 -163.4 -163.2c0 -89.9 73.3 -163.2 163.4 -163.2c90.1 0 163.5 73.2 163.5 163.2c-0.1 90 -73.4 163.2 -163.5 163.2z"></path><path fill="#e8e2c5" d="m-161 491.4c81.7 0 148.1 -66.4 148.1 -148.1c0 -81.7 -66.5 -148.1 -148.1 -148.1c-81.6 0 -148.1 66.4 -148.1 148.1c-0.1 81.6 66.3 148.1 148.1 148.1z"></path><g transform="translate(-6.25 -0.4)"><path fill="#8c8c8c" stroke="#01507b" stroke-width="6.3077" stroke-miterlimit="3.6044" d="m-273.9 320.1c-0.8 -1.2 -1.2 -2.7 -0.9 -4.2c5 -26.9 19.7 -51.5 41.1 -68.6c1.2 -0.9 2.7 -1.3 4.1 -1.2c1.5 0.2 2.8 1 3.7 2.2l27.7 37.3c1.3 1.8 1.4 4.2 0.3 6c-0.3 0.5 -0.8 1 -1.3 1.4c-9.7 8.2 -16.5 19.4 -19.1 32c-0.6 2.8 -3.3 4.8 -6.2 4.4l-45.8 -7c-1.5 -0.3 -2.7 -1.1 -3.6 -2.3l0 0z"></path><path fill="#8c8c8c" stroke="#01507b" stroke-width="6.3077" stroke-miterlimit="3.6044" d="m-220.2 358.4c-0.1 -0.7 -0.3 -1.3 -0.7 -1.8c-1.1 -1.8 -3.2 -2.9 -5.4 -2.7l-46.1 5.4c-1.5 0.2 -2.8 0.9 -3.8 2.1c-0.9 1.2 -1.3 2.7 -1.1 4.2c4.2 27 18.1 52 38.9 69.9c1.2 1 2.6 1.4 4.1 1.3c1.5 -0.2 2.8 -0.8 3.8 -2l29 -36.2c1.8 -2.3 1.6 -5.6 -0.7 -7.5c-9.4 -8.7 -15.8 -20.1 -18 -32.7z"></path><path fill="#8c8c8c" stroke="#01507b" stroke-width="6.3077" stroke-miterlimit="3.6044" d="m-130 413.1c-1.1 -2.8 -4.1 -4.2 -6.9 -3.2c-12.2 4.1 -25.3 3.8 -37.2 -0.5c-0.6 -0.3 -1.3 -0.3 -1.8 -0.3c-2.1 0 -4.2 1.3 -5 3.3l-18.5 42.6c-0.6 1.3 -0.6 2.9 0 4.3c0.6 1.4 1.7 2.4 3.1 3c25.4 9.9 54.1 10.4 80 1.3c1.4 -0.5 2.5 -1.5 3.2 -2.8c0.6 -1.3 0.7 -2.9 0.1 -4.3l-17 -43.4l0 0z"></path><path fill="#8c8c8c" stroke="#01507b" stroke-width="6.3077" stroke-miterlimit="3.6044" d="m-32.1 367.9c-0.8 -1.2 -2.2 -2 -3.6 -2.3l-45.8 -7c-2.8 -0.4 -5.6 1.4 -6.2 4.4c-2.6 12.6 -9.3 23.8 -19.1 32c-0.5 0.4 -0.9 0.9 -1.3 1.4c-1.1 1.8 -1 4.2 0.3 6l27.7 37.3c0.9 1.2 2.3 2 3.7 2.2c1.5 0.2 2.9 -0.3 4.1 -1.2c21.2 -17.1 36.1 -41.7 41.1 -68.6c0.2 -1.5 -0.1 -3 -0.9 -4.2l0 0z"></path><path fill="#8c8c8c" stroke="#01507b" stroke-width="6.3077" stroke-miterlimit="3.6044" d="m-85.9 329.6c0.1 0.7 0.3 1.3 0.7 1.8c1.1 1.8 3.2 2.9 5.4 2.7l46.1 -5.4c1.5 -0.2 2.8 -0.9 3.8 -2.1c1 -1.2 1.3 -2.7 1.1 -4.2c-4.2 -27 -18.1 -52 -38.9 -69.9c-1.2 -1 -2.6 -1.4 -4.1 -1.3c-1.5 0.2 -2.8 0.8 -3.8 2l-29 36.2c-1.8 2.3 -1.6 5.6 0.7 7.5c9.5 8.6 15.9 20.1 18 32.7l0 0z"></path><path fill="#8c8c8c" stroke="#01507b" stroke-width="6.3077" stroke-miterlimit="3.6044" d="m-176 274.8c1.1 2.8 4.1 4.2 6.9 3.2c12.2 -4.1 25.3 -3.8 37.2 0.5c0.6 0.3 1.3 0.3 1.8 0.3c2.1 0 4.2 -1.3 5 -3.3l18.4 -42.6c0.6 -1.3 0.6 -2.9 0 -4.3c-0.6 -1.3 -1.7 -2.4 -3.1 -3c-25.4 -9.9 -54.1 -10.4 -80 -1.3c-1.4 0.5 -2.5 1.5 -3.2 2.8c-0.6 1.3 -0.7 2.9 -0.2 4.3l17.2 43.4l0 0z"></path><path fill="#8c8c8c" stroke="#01507b" stroke-width="6.3077" stroke-miterlimit="3.6044" d="m-152.3 315.8c-15.4 0 -27.9 12.5 -27.9 27.9c0 15.4 12.5 27.9 27.9 27.9c15.4 0 27.9 -12.5 27.9 -27.9c0 -15.4 -12.5 -27.9 -27.9 -27.9l0 0z"></path></g></g></g></g><g transform="translate(0 -53.0066)" style="animation-name: eaf-1c56-30, eaf-1c56-31, eaf-1c56-32; animation-composition: replace, add, add;"><path fill="#fff" fill-rule="evenodd" stroke="#01507b" stroke-width="19.2959" stroke-linecap="round" stroke-linejoin="round" d="m-342.2 245.4l304.5 0c6.8 0 12.3 5.5 12.3 12.3l0 205.5c0 6.8 -5.5 12.3 -12.3 12.3l-304.5 0c-6.8 0 -12.3 -5.5 -12.3 -12.3l0 -205.4c-0.1 -6.9 5.4 -12.4 12.3 -12.4z"></path><g><rect fill="#f7e79d" stroke="#01507b" stroke-width="6.1747" stroke-linecap="round" stroke-linejoin="round" width="236.9" height="184.8" transform="translate(-328.4 268.8)" style="animation-name: eaf-1c56-22;"></rect><path fill="#b70000" fill-rule="evenodd" stroke="#01507b" stroke-width="8.6475" stroke-linecap="round" stroke-linejoin="round" d="m-239.1 391.6c-23.1 12.3 -37.1 36.7 -45.8 62l162.4 0c-8 -24.8 -21 -48.8 -42.2 -62c-21.5 -1 -48.4 0 -74.4 0z" style="animation-name: eaf-1c56-23, eaf-1c56-24, eaf-1c56-25; animation-composition: replace, add, add;"></path><path fill="#faddc0" fill-rule="evenodd" stroke="#01507b" stroke-width="8.6475" stroke-linecap="round" stroke-linejoin="round" d="m-139.8 350.2c0 -36.5 -29.6 -66 -66 -66.1c-36.5 0 -66 29.6 -66.1 66c0 0 0 0 0 0c0 36.5 29.6 66 66 66.1c36.5 0 66.1 -29.5 66.1 -66c0 0 0 0 0 0l-66 0l66 0z" transform="translate(0 0)" style="animation-name: eaf-1c56-26, eaf-1c56-27, eaf-1c56-28, eaf-1c56-29; animation-composition: replace, add, add, add;"></path></g><g><path fill="#b3b3b3" fill-rule="evenodd" stroke="#01507b" stroke-width="7.7184" d="m-45 281.4c0.1 -8.2 -6.5 -15 -14.8 -15.1c-8.3 -0.1 -15 6.5 -15.1 14.8c0 0.1 0 0.2 0 0.3c-0.1 8.2 6.5 15 14.8 15.1c8.3 0.1 15 -6.5 15.1 -14.8c0 -0.2 0 -0.2 0 -0.3l-15 0l15 0z"></path><path fill="#b3b3b3" fill-rule="evenodd" stroke="#01507b" stroke-width="7.7184" d="m-45 325.1c0.1 -8.2 -6.5 -15 -14.8 -15.1c-8.3 -0.1 -15 6.5 -15.1 14.8c0 0.1 0 0.2 0 0.3c-0.1 8.2 6.5 15 14.8 15.1c8.2 0.1 15 -6.5 15.1 -14.8c0 -0.1 0 -0.2 0 -0.3l-15 0l15 0z"></path><path fill="#b3b3b3" fill-rule="evenodd" stroke="#01507b" stroke-width="7.7184" d="m-45 368.9c0.1 -8.2 -6.5 -15 -14.8 -15.1c-8.3 -0.1 -15 6.5 -15.1 14.8c0 0.1 0 0.2 0 0.3c-0.1 8.2 6.5 15 14.8 15.1c8.2 0.1 15 -6.5 15.1 -14.8c0 -0.1 0 -0.2 0 -0.3l-15 0l15 0z"></path></g></g></g></g></svg>