<svg xmlns="http://www.w3.org/2000/svg" viewBox="0 0 650 650" overflow="hidden" preserveAspectRatio="xMidYMid meet" id="eaf-3769-0"><defs><clipPath id="eaf-3769-1"><rect x="0" y="0" width="650" height="650"></rect></clipPath><style>#eaf-3769-0 * {animation: 20000ms linear infinite normal both running;offset-rotate:0deg}@keyframes eaf-3769-2{0%,100%{transform:none;offset-path:path("m335.8444 347.96l-47.6444 -65.36l81.9 86.1594l-34.2556 -20.7993")}}@keyframes eaf-3769-3{0%{offset-distance:0%}25%{offset-distance:33.7245%}75%{offset-distance:83.2901%}100%{offset-distance:100%}}@keyframes eaf-3769-4{0%{transform:rotate(0)}100%{transform:rotate(-360deg)}}@keyframes eaf-3769-5{0%,100%{transform:translate(-335.8444px,-347.96px)}}@keyframes eaf-3769-6{0%,100%{transform:none;offset-path:path("m335.75 423.7l0 -35.3442l0 18.8596l0 -74.0718l0 80.7307l0 -37.5483l0 47.3739l0 -35.3442l0 18.8596l0 -74.0718l0 80.7307l0 -37.5483l0 35.2662l0 12.1077l0 -35.3442l0 18.8596l0 -74.0718l0 80.7307l0 -37.5483l0 47.3739l0 -35.3442l0 18.8596l0 -74.0718l0 80.7307l0 -37.5483l0 47.3739l0 -35.3442l0 18.8596l0 -74.0718l0 80.7307l0 -37.5483l0 35.2662l0 12.1077l0 -35.3442l0 18.8596l0 -74.0718l0 80.7307l0 -37.5483l0 30.8894l0 -74.0718l0 80.7307l0 -37.5483l0 35.2662l0 12.1077")}}@keyframes eaf-3769-7{0%{offset-distance:0%}3.17%{offset-distance:1.7789%}4.84%{offset-distance:2.7282%}8%{offset-distance:6.4564%}10.16%{offset-distance:10.5197%}13%{offset-distance:12.4096%}14.67%{offset-distance:14.794%}17.83%{offset-distance:16.5729%}19.5%{offset-distance:17.5222%}22.67%{offset-distance:21.2503%}24.83%{offset-distance:25.3137%}27.67%{offset-distance:27.2035%}29.33%{offset-distance:28.9786%}29.34%{offset-distance:29.588%}32.5%{offset-distance:31.3669%}34.17%{offset-distance:32.3161%}37.34%{offset-distance:36.0443%}39.5%{offset-distance:40.1077%}42.34%{offset-distance:41.9975%}44%{offset-distance:44.3819%}47.17%{offset-distance:46.1609%}48.84%{offset-distance:47.1101%}52%{offset-distance:50.8383%}54.17%{offset-distance:54.9016%}57%{offset-distance:56.7915%}58.67%{offset-distance:59.1759%}61.83%{offset-distance:60.9549%}63.5%{offset-distance:61.9041%}66.67%{offset-distance:65.6323%}68.83%{offset-distance:69.6956%}71.67%{offset-distance:71.5855%}73.33%{offset-distance:73.3605%}73.33%{offset-distance:73.9699%}76.5%{offset-distance:75.7489%}78.17%{offset-distance:76.6981%}81.33%{offset-distance:80.4263%}83.5%{offset-distance:84.4896%}86.34%{offset-distance:86.3795%}88%{offset-distance:87.9342%}91.17%{offset-distance:91.6624%}93.33%{offset-distance:95.7257%}96.17%{offset-distance:97.6156%}97.83%{offset-distance:99.3906%}100%{offset-distance:100%}}@keyframes eaf-3769-8{0%,100%{transform:translate(-335.75px,-385.0719px)}}@keyframes eaf-3769-9{0%,100%{transform:none;offset-path:path("m249.35 394.2797l0 26.5204l0 -26.5204l0 26.5204l0 -26.5204l0 26.5204l0 -26.5204l0 26.5204l0 -26.5204l0 26.5204l0 -26.5204l0 26.5204l0 -26.5204l0 26.5204l0 -26.5204l0 26.5204l0 -26.5204l0 26.5204l0 -26.5204l0 26.5204l0 -26.5204l0 26.5204l0 -26.5204l0 26.5204l0 -26.5204l0 26.5204l0 -26.5204l0 26.5204l0 -26.5204l0 26.5204l0 -26.5204l0 26.5204l0 -26.5204l0 26.5204l0 -26.5204l0 26.5204l0 -26.5204l0 26.5204l0 -26.5204l0 26.5204l0 -25.7116")}}@keyframes eaf-3769-10{0%{offset-distance:0%}2.34%{offset-distance:2.5019%}5%{offset-distance:5.0038%}7.34%{offset-distance:7.5057%}10%{offset-distance:10.0076%}12.34%{offset-distance:12.5095%}15%{offset-distance:15.0114%}17.34%{offset-distance:17.5134%}20%{offset-distance:20.0153%}22.34%{offset-distance:22.5172%}25%{offset-distance:25.0191%}27.34%{offset-distance:27.521%}30%{offset-distance:30.0229%}32.34%{offset-distance:32.5248%}35%{offset-distance:35.0267%}37.34%{offset-distance:37.5286%}40%{offset-distance:40.0305%}42.34%{offset-distance:42.5324%}45%{offset-distance:45.0343%}47.34%{offset-distance:47.5362%}50%{offset-distance:50.0382%}52.34%{offset-distance:52.5401%}55%{offset-distance:55.042%}57.34%{offset-distance:57.5439%}60%{offset-distance:60.0458%}62.34%{offset-distance:62.5477%}65%{offset-distance:65.0496%}67.33%{offset-distance:67.5515%}70%{offset-distance:70.0534%}72.33%{offset-distance:72.01507b3%}75%{offset-distance:75.0572%}77.33%{offset-distance:77.5591%}80%{offset-distance:80.061%}82.34%{offset-distance:82.5629%}85%{offset-distance:85.0649%}87.34%{offset-distance:87.5668%}90%{offset-distance:90.0687%}92.34%{offset-distance:92.5706%}95%{offset-distance:95.0725%}97.34%{offset-distance:97.5744%}100%{offset-distance:100%}}@keyframes eaf-3769-11{0%,100%{transform:translate(-249.35px,-394.2797px)}}@keyframes eaf-3769-12{0%,100%{transform:translate(335.35px,347.55px)}}@keyframes eaf-3769-13{0%{transform:rotate(0)}100%{transform:rotate(360deg)}}@keyframes eaf-3769-14{0%,100%{transform:translate(-335.35px,-347.55px)}}@keyframes eaf-3769-15{0%,100%{transform:none;offset-path:path("m422.4 274.6l0 -65.4752l0 65.4752l0 -65.4752l0 65.4752l0 0l0 -65.4752l0 65.4752l0 -65.4752l0 65.4752l0 -65.4752l0 65.4752l0 0l0 -65.4752l0 65.4752l0 -65.4752l0 65.4752")}}@keyframes eaf-3769-16{0%{offset-distance:0%;animation-timing-function:ease-in-out}10%{offset-distance:7.1429%;animation-timing-function:ease-in-out}14.84%{offset-distance:14.2857%;animation-timing-function:ease-in-out}24.84%{offset-distance:21.4286%;animation-timing-function:ease-in-out}29.67%{offset-distance:28.5714%}29.67%{offset-distance:28.5714%;animation-timing-function:ease-in-out}39.67%{offset-distance:35.7143%;animation-timing-function:ease-in-out}44.5%{offset-distance:42.8571%;animation-timing-function:ease-in-out}54.5%{offset-distance:50%;animation-timing-function:ease-in-out}59.34%{offset-distance:57.1429%;animation-timing-function:ease-in-out}69.33%{offset-distance:64.2857%;animation-timing-function:ease-in-out}74.17%{offset-distance:71.4286%}74.17%{offset-distance:71.4286%;animation-timing-function:ease-in-out}84.17%{offset-distance:78.5714%;animation-timing-function:ease-in-out}88.84%{offset-distance:85.7143%;animation-timing-function:ease-in-out}94.84%{offset-distance:92.8571%;animation-timing-function:ease-in-out}100%{offset-distance:100%}}@keyframes eaf-3769-17{0%,100%{transform:translate(-422.3942px,-209.2px)}}</style></defs><g clip-path="url('#eaf-3769-1')" style="isolation: isolate;"><g><path fill="#99d6f7" d="m651 325.1c0 81.6 0 163.1 0 244.7c0 37.4 -28.2 71.6 -65 78.6c-5.5 1 -11.1 1.6 -16.6 1.6c-162.6 0 -325.2 0 -487.7 0c-39.9 0.0001 -74.7 -30.5999 -79.9 -70.2c-0.5 -3.5 -0.8 -7 -0.8 -10.6c0 -163 0 -326 0 -488.9c0 -37.4 28.2 -71.6 65 -78.6c5.4 -1 11.1 -1.6 16.6 -1.6c162.7 -0.1 325.4 -0.1 488.1 -0.1c37.4 0 71.6 28.2 78.6 65c1 5.4 1.6 11.1 1.6 16.6c0.1 81.2 0.1 162.3 0.1 243.5l0 0l0 0z"></path><path fill="#01507b" stroke="#000" stroke-width="8" d="m612.2 325.8l-0.6 -7.2l0 0.1l-0.3 -1.9c-1.1 -5.5 -2.9 -8.8 -6.7 -12.9l-1.4 -1.3l0.1 -0.1l-32 -28l0 -0.1l-1.6 -1.5l-1.4 -1.6l-1.3 -1.7l-1.1 -1.7l-0.9 -1.9l-0.8 -1.9l0.1 0.1l-2.4 -6.4c-4.9 -12.7 -10.8 -25.1 -17.8 -36.8l-3.6 -5.9l0.1 -0.1l-1 -1.8l-0.9 -1.9l-0.7 -2l-0.5 -2l-0.4 -2l-0.2 -2.1l-0.1 0l-1.9 -42.5l-0.2 -1.8c-0.5 -4.5 -2.9 -10 -6 -13.3l-1.3 -1.4l0 0.1l-5.3 -5c-10.7 -9.9 -22 -18.9 -34 -27.2l-6.1 -3.9l0 -0.1l-1.6 -0.9c-4.6 -2.4 -9.2 -3.4 -14.4 -2.9l-1.8 0.3l0.1 0c0 0 -41.9 7.5 -41.9 7.5l-2.1 0.3l-2.1 0.1l-2.1 -0.1l-2.1 -0.3l-2 -0.4l-2 -0.6l0 0.2l-6.5 -2.2c-13 -4 -26.3 -7.2 -39.9 -9.1l-6.8 -0.9l0 -0.2l-2.1 -0.3l-2 -0.5l-2 -0.6l-1.9 -0.9l-1.8 -1l-1.7 -1.1l-0.1 0.1l-34.4 -24.9l-0.1 0l-1.6 -1c-3.8 -2.6 -9.6 -3.9 -14.1 -3.7c0 0 -1.8 0.2 -1.8 0.2l-7.1 1c-14.4 2.1 -28.6 5.4 -42.5 9.7l-6.9 2.2l-0.1 -0.1l-1.6 0.6c-4.5 1.9 -8.6 5.3 -11.2 9.4c0 0 -1 1.6 -1 1.6l-20.2 37.4l0 -0.1l-1.1 1.8l-1.3 1.7l-1.4 1.6l-1.5 1.5l-1.6 1.4l-1.7 1.2l0.1 0.2l-5.8 3.7c-11.5 7.9 -21.8 16 -32 25.6l-4.9 4.8l-0.1 -0.1l-1.6 1.4l-1.6 1.3l-1.7 1.1l-1.9 1l-1.9 0.8l-2 0.6l0.1 0l-41 11.5l0.1 0l-1.8 0.5c-5.1 2.2 -8.3 4.3 -11.6 8.8c0 0 -1 1.6 -1 1.6l-3.8 6.2c-7.2 12.6 -13.6 25.7 -18.9 39.3l-2.6 6.8l0 -0.1l-0.5 1.7c-1.4 5.2 -1.2 9.5 0.4 14.7l0.7 1.7l-0.1 0l16.6 39.1l-0.1 0l0.8 2l0.5 2l0.4 2.1l0.2 2l0.1 2.1l-0.2 2.1l0.1 0.1l-0.6 6.8c-1.1 13.6 -1.1 27.3 0 40.9l0.6 6.8l-0.1 0.1l0.2 2.1l-0.1 2.1l-0.2 2l-0.4 2.1l-0.5 2l-0.8 2l0.1 0l-16.6 39l0.1 0l-0.7 1.7c-1.6 5.1 -1.8 9.4 -0.4 14.7l0.5 1.7l2.6 6.8c5.3 13.6 11.7 26.7 18.9 39.3l3.8 6.2l0 -0.1l1 1.6c3.4 4.5 6.5 6.6 11.6 8.8l1.8 0.5l-0.1 0.1l41 11.4l-0.1 0.1l2 0.6l1.9 0.8l1.9 1l1.7 1.1l1.6 1.3l1.6 1.4l0.1 -0.1l4.9 4.8c10.2 9.6 20.4 17.7 32 25.6l5.8 3.7l-0.1 0.2l1.7 1.2l1.6 1.4l1.5 1.5l1.4 1.6l1.3 1.7l1.1 1.8l0 -0.1l20.2 37.4l0 -0.1l1 1.6c2.6 4.2 6.7 7.5 11.2 9.4l1.6 0.6l0.1 0l6.9 2.2c13.9 4.3 28.1 7.6 42.5 9.7c0 0 7.1 1 7.1 1l1.8 0.2c4.6 0.3 10.3 -1.1 14.1 -3.7l1.6 -1l0.1 0l34.4 -24.9l0.1 0l1.7 -1.1l1.8 -1l1.9 -0.9l2 -0.6l2 -0.5l2.1 -0.3l0 -0.1l6.8 -0.9c13.5 -1.9 26.8 -5 39.9 -9.1l6.5 -2.2l0 0.2l2 -0.6l2 -0.4l2.1 -0.3l2.1 -0.1l2.1 0.1c0 0 2.1 0.3 2.1 0.3l41.9 7.5l-0.1 -0.1l1.8 0.3c5.1 0.5 9.8 -0.5 14.4 -2.9c0 0 1.6 -0.9 1.6 -0.9l6.1 -3.9c12 -8.3 23.3 -17.3 34 -27.2l5.3 -5l0 0.1l1.3 -1.4c3.1 -3.3 5.5 -8.8 6 -13.3l0.2 -1.8l0 -0.1l1.9 -42.4l0.1 0l0.2 -2.1l0.4 -2l0.5 -2l0.7 -2l0.9 -1.9l1 -1.8l-0.1 -0.1l3.6 -5.9c7 -11.7 12.8 -24.1 17.8 -36.8l2.4 -6.4l-0.1 0.1l0.8 -1.9l0.9 -1.9l1.1 -1.7l1.3 -1.7l1.4 -1.6l1.6 -1.5l0 -0.1l32 -28l-0.1 0l1.4 -1.3c3.8 -4.1 5.6 -7.4 6.7 -12.9l0.3 -1.9l0 0.1l0.6 -7.2c1.1 -15.3001 1.1 -29.9001 0 -44.4001zm-284.6 229.3c-115.2 0 -208.6 -93.4 -208.6 -208.6c0 -115.2 93.4 -208.5 208.6 -208.5c115.2 0 208.6 93.4 208.6 208.6c0 115.2 -93.4 208.5 -208.6 208.5z" transform="translate(0 0)" opacity="0.21" style="animation-name: eaf-3769-2, eaf-3769-3, eaf-3769-4, eaf-3769-5; animation-composition: replace, add, add, add;"></path><ellipse fill="#fefadf" rx="144.3" ry="144.3" transform="translate(335.7 344.6)"></ellipse><path fill="#949494" d="m370.1 372c0 57.4 0 47.2 0 104.6c-22.9 5.8 -45.9 5.8 -68.8 0c0 -57.5 0 -47.2 0 -104.7c3.8 -9.5 10.7 -13.7 21 -13.1c8.9 0.5 18 0.5 26.9 0c10.3 -0.5 17.1 3.7 20.9 13.2z" transform="translate(0 1)"></path><path fill="#949494" d="m301.3 444c0 -57.5 0 -47.2 0 -104.7c3.8 -9.5 10.7 -13.7 21 -13.1c8.9 0.5 18 0.5 26.9 0c10.3 -0.6 17.2 3.6 21 13.1c0 57.4 0 47.2 0 104.6" transform="translate(0 38.6281)" style="animation-name: eaf-3769-6, eaf-3769-7, eaf-3769-8; animation-composition: replace, add, add;"></path><path fill="#f4b526" d="m283.8 383.9c0 26.6 0.1 59.7 0.1 86.3c-13.2 -4.2 -24.5 -11.7 -35.1 -20.3c-14 -11.4 -25.8 -24.8 -34 -41.2c0.1 -6.1 0.2 -18.7 0.3 -24.8c3.6 -9.3 10.3 -13.5 20.4 -13.1c9.1 0.4 18.3 0.4 27.4 0c10.2 -0.5 17.1 3.6 20.9 13.1z" transform="translate(0 1)"></path><path fill="#f4b526" d="m283.8 357.7c0 26.6 0.1 59.7 0.1 86.3c-13.2 -4.2 -24.5 -11.7 -35.1 -20.3c-14 -11.4 -25.8 -24.8 -34 -41.2c0.1 -6.1 0.2 -18.7 0.3 -24.8c3.6 -9.3 10.3 -13.5 20.4 -13.1c9.1 0.4 18.3 0.4 27.4 0c10.2 -0.5 17.1 3.6 20.9 13.1z" style="animation-name: eaf-3769-9, eaf-3769-10, eaf-3769-11; animation-composition: replace, add, add;"></path><g transform="translate(0 1)"><path fill="#fff" d="m464.6 341.4c0 -4.9 0 -15.3 0 -28.2c-2 -7.6 -4.7 -15 -8 -22c0 21 0 38.5 0 45.9c0 13 0 25.9 0 38.9c0 9.4 0 18.8 0 28.3c3.3 -7 6 -14.3 8 -21.9l0 -9.6l0 -31.4z"></path><path fill="#d30000" d="m387.3 224.6l0 0c0 3 0 6.1 0 9.1c0.1 2.3 0.2 81 0.2 83.3c0 51.2 0 102.4 0 153.6c9.6 -4 18.5 -9.1 26.8 -15.1c0 0 0.1 0 0.1 -0.1c0.8 -0.6 1.6 -1.2 2.3 -1.7c0.1 0 0.1 -0.1 0.2 -0.1c0.7 -0.6 1.5 -1.1 2.2 -1.7c0.1 -0.1 0.2 -0.1 0.2 -0.2c0.7 -0.6 1.4 -1.1 2.1 -1.7c0.1 -0.1 0.2 -0.2 0.3 -0.2c0.7 -0.6 1.4 -1.1 2 -1.7c0.1 -0.1 0.2 -0.2 0.3 -0.3c0.7 -0.6 1.3 -1.2 2 -1.8c0.1 -0.1 0.2 -0.2 0.3 -0.3c0.6 -0.6 1.3 -1.2 1.9 -1.8c0.1 -0.1 0.2 -0.2 0.3 -0.3c0.6 -0.6 1.2 -1.2 1.8 -1.8c0.1 -0.1 0.2 -0.2 0.3 -0.3c0.6 -0.6 1.2 -1.2 1.8 -1.8c0.1 -0.1 0.2 -0.2 0.3 -0.3c0.6 -0.6 1.2 -1.3 1.7 -1.9c0.1 -0.1 0.2 -0.2 0.3 -0.3c0.6 -0.6 1.1 -1.3 1.7 -1.9c0.1 -0.1 0.2 -0.2 0.3 -0.3c0.6 -0.7 1.1 -1.3 1.7 -2c0.1 -0.1 0.2 -0.2 0.3 -0.3c0.6 -0.7 1.1 -1.3 1.6 -2c0.1 -0.1 0.2 -0.2 0.3 -0.3c0.5 -0.7 1.1 -1.4 1.6 -2.1c0.1 -0.1 0.2 -0.2 0.2 -0.3c0.5 -0.7 1.1 -1.4 1.6 -2.1c0.1 -0.1 0.1 -0.2 0.2 -0.3c0.5 -0.7 1 -1.5 1.5 -2.2c0.1 -0.1 0.1 -0.2 0.2 -0.3c0.5 -0.7 1 -1.5 1.5 -2.3c0.1 -0.1 0.1 -0.2 0.2 -0.3c0.5 -0.8 1 -1.5 1.5 -2.3c0 -0.1 0.1 -0.2 0.1 -0.2c0.5 -0.8 1 -1.6 1.4 -2.4c0 -0.1 0.1 -0.1 0.1 -0.2c0.5 -0.8 1 -1.7 1.4 -2.5c0 -0.1 0.1 -0.1 0.1 -0.2c0.5 -0.8 0.9 -1.7 1.4 -2.6c0 0 0 -0.1 0.1 -0.1c0.5 -0.9 0.9 -1.8 1.4 -2.7c0 0 0 0 0 -0.1c0.5 -0.9 0.9 -1.8 1.3 -2.8c0 -10.5 0 -21.1 0 -31.6c0 -10.4 0 -20.8 0 -31.2c0 -7.5 0 -27.7 -0.1 -50.3c-13.8 -30.0001 -38.5 -53.8001 -69 -66.7001z"></path><path fill="#fff" d="m387.3 224.7c-2.6 -1.1 -5.3 -2.1 -8 -3.1l0 12.3c0.1 2.6 0.2 78.9 0.2 83.1c0 43.8 0 87.5 0 131.3l0 25.4c2.7 -0.9 5.4 -2 8 -3.1c0 -54.6 0 -109.3 0 -163.9c-0.1 -2 -0.1 -52.2 -0.2 -82z"></path></g><path fill="#01507b" d="m573.9 316.8l-0.7 -5.2l0 0.1l-0.3 -1.3c-0.9 -4 -4.5 -7.9 -8.4 -9l-1.3 -0.4l0 0l-45 -10c0 0 -1.3 -0.4 -1.3 -0.4c-3.2 -1 -6.1 -3.5 -7.5 -6.5l-0.5 -1.2l-0.1 0l-1.1 -3l-1.2 -3l-1.3 -3l-1.3 -2.9l-0.5 -1.2c-1 -3.4 -0.9 -6.8 0.7 -10l0.6 -1.1l24.8 -39l0 -0.1l0.6 -1.1c2 -4.1 1.8 -8.5 -0.4 -12.4l-0.7 -1l-3.1 -4.1c-12.6 -16.3 -27.5 -31.2 -43.8 -43.8l-4.1 -3.1l-0.1 0l-1 -0.7c-3.9 -2.3 -8.3 -2.4 -12.4 -0.4l-1.1 0.6l-39 24.8c0 0 -1.1 0.6 -1.1 0.6c-3.2 1.6 -6.6 1.7 -10 0.7l-1.2 -0.5l-2.9 -1.3l-3 -1.3l-3 -1.2l-3 -1.1l0 -0.1l-1.2 -0.5c-3.1 -1.4 -5.5 -4.3 -6.5 -7.5l-0.4 -1.3c0 0 -10 -45.1 -10 -45.1l-0.1 0.1l-0.4 -1.3c-1.1 -3.9 -5.1 -7.6 -9 -8.4l-1.3 -0.3l0.1 0l-5.2 -0.7c-20.5 -2.7 -41.3 -2.7 -61.8 0l-5.2 0.7l-1.3 0.3c-4 0.9 -7.9 4.5 -9 8.4l-0.4 1.3l0 -0.1l-10 45.1l-0.1 0l-0.4 1.3c-1 3.2 -3.5 6.1 -6.5 7.5l-1.2 0.5l0.1 0.1l-3 1.1l-3 1.2l-3 1.3l-2.9 1.3l-1.2 0.5c-3.4 1 -6.8 0.9 -10 -0.7l-1.1 -0.6l-0.1 0l-38.9 -24.8l-0.1 0l-1.1 -0.6c-4.1 -2 -8.5 -1.8 -12.4 0.4l-1 0.7l-4.1 3.1c-16.3 12.6 -31.2 27.5 -43.8 43.8l-3.1 4.1l-0.1 0l-0.7 1c-2.3 3.9 -2.4 8.3 -0.4 12.4l0.6 1.1l0 0.1l24.8 39c0 0 0.6 1.1 0.6 1.1c1.6 3.2 1.7 6.6 0.7 10l-0.5 1.2l0.1 0l-1.3 2.9l-1.3 3l-1.2 3l-1.1 3l-0.1 0l-0.5 1.2c-1.4 3.1 -4.3 5.5 -7.5 6.5l-1.3 0.4l0.1 0l-45.1 10l0 0.1l-1.3 0.4c-3.9 1.1 -7.6 5.1 -8.4 9l-0.3 1.3l0.1 -0.1l-0.7 5.2c-2.7 20.5 -2.7 41.3 0 61.8l0.7 5.2l-0.1 0l0.3 1.3c0.9 4 4.5 7.9 8.4 9l1.3 0.4l0 0.1l45.1 9.9l-0.1 0.1l1.3 0.4c3.2 1 6.1 3.5 7.5 6.5l0.5 1.2l0.1 -0.1l1.1 3l1.2 3l1.3 3l1.3 2.9l-0.1 0l0.5 1.2c1 3.4 0.9 6.8 -0.7 10l-0.6 1.1l0 0.1l-24.8 39l-0.6 1.1c-2 4.1 -1.8 8.5 0.4 12.4l0.7 1l0.1 0l3.1 4.1c12.6 16.3 27.5 31.2 43.8 43.8l4.1 3.1l0 0.1l1 0.7c3.9 2.3 8.3 2.4 12.4 0.4l1.1 -0.6l0.1 0l38.9 -24.8l0.1 0l1.1 -0.6c3.2 -1.6 6.6 -1.7 10 -0.7l1.2 0.5l0 -0.5001l2.9 1.3l3 1.3l3 1.2l3 1.1l-0.1 0.1l1.2 0.5c3.1 1.4 5.5 4.3 6.5 7.5l0.4 1.3l0.1 0l10 45l0.4 1.3c1.1 3.9 5.1 7.6 9 8.4l1.3 0.3l0 -0.1l5.2 0.7c20.5 2.7 41.3 2.7 61.8 0l5.2 -0.7l-0.1 0.1l1.3 -0.3c4 -0.9 7.9 -4.5 9 -8.4l0.4 -1.3l0.1 0l10 -45l0.4 -1.3c1 -3.2 3.5 -6.1 6.5 -7.5l1.2 -0.5l0 -0.1l3 -1.1l3 -1.2l3 -1.3l2.9 -1.3l0 0.1l1.2 -0.5c3.4 -1 6.8 -0.9 10 0.7l1.1 0.6l39 24.8l1.1 0.6c4.1 2 8.5 1.8 12.4 -0.4l1 -0.7l0.1 -0.1l4.1 -3.1c16.3 -12.6 31.2 -27.5 43.8 -43.8l3.1 -4.1l0.7 -1c2.3 -3.9 2.4 -8.3 0.4 -12.4l-0.6 -1.1c0 0 -24.8 -39 -24.8 -39l0 -0.1l-0.6 -1.1c-1.6 -3.2 -1.7 -6.6 -0.7 -10l0.5 -1.2l1.3 -2.9l1.3 -3l1.2 -3l1.1 -3l0.1 0.1l0.5 -1.2c1.4 -3.1 4.3 -5.5 7.5 -6.5l1.3 -0.4l0 -0.1l45 -9.9l0 -0.1l1.3 -0.4c3.9 -1.1 7.6 -5.1 8.4 -9l0.3 -1.3l0.7 -5.2c2.7 -20.1999 2.7 -40.9999 0 -61.4999zm-238.2 -102.5l4.4 0.1l4.4 0.2c67.6 4.5 121.1 58.9 124.5 126.5l0.2 4.4l0 4.4c-1.2 67.8 -52.7 123.8 -120.2 130.6l-4.4 0.4l-4.4 0.2l-4.4 0.1l-4.4 -0.1l-4.4 -0.2l-4.4 -0.4c-67.5 -6.8 -119 -62.8 -120.2 -130.6l0 -4.4l0.2 -4.4c3.4 -67.7 56.8 -122 124.5 -126.5l4.4 -0.2l4.2 -0.1z" style="animation-name: eaf-3769-12, eaf-3769-13, eaf-3769-14; animation-composition: replace, add, add;"></path><path fill="#01507b" d="m573.9 316.8l-0.7 -5.2l0 0.1l-0.3 -1.3c-0.9 -4 -4.5 -7.9 -8.4 -9l-1.3 -0.4l0 0l-45 -10c0 0 -1.3 -0.4 -1.3 -0.4c-3.2 -1 -6.1 -3.5 -7.5 -6.5l-0.5 -1.2l-0.1 0l-1.1 -3l-1.2 -3l-1.3 -3l-1.3 -2.9l-0.5 -1.2c-1 -3.4 -0.9 -6.8 0.7 -10l0.6 -1.1l24.8 -39l0 -0.1l0.6 -1.1c2 -4.1 1.8 -8.5 -0.4 -12.4l-0.7 -1l-3.1 -4.1c-12.6 -16.3 -27.5 -31.2 -43.8 -43.8l-4.1 -3.1l-0.1 0l-1 -0.7c-3.9 -2.3 -8.3 -2.4 -12.4 -0.4l-1.1 0.6l-39 24.8c0 0 -1.1 0.6 -1.1 0.6c-3.2 1.6 -6.6 1.7 -10 0.7l-1.2 -0.5l-2.9 -1.3l-3 -1.3l-3 -1.2l-3 -1.1l0 -0.1l-1.2 -0.5c-3.1 -1.4 -5.5 -4.3 -6.5 -7.5l-0.4 -1.3c0 0 -10 -45.1 -10 -45.1l-0.1 0.1l-0.4 -1.3c-1.1 -3.9 -5.1 -7.6 -9 -8.4l-1.3 -0.3l0.1 0l-5.2 -0.7c-20.5 -2.7 -41.3 -2.7 -61.8 0l-5.2 0.7l-1.3 0.3c-4 0.9 -7.9 4.5 -9 8.4l-0.4 1.3l0 -0.1l-10 45.1l-0.1 0l-0.4 1.3c-1 3.2 -3.5 6.1 -6.5 7.5l-1.2 0.5l0.1 0.1l-3 1.1l-3 1.2l-3 1.3l-2.9 1.3l-1.2 0.5c-3.4 1 -6.8 0.9 -10 -0.7l-1.1 -0.6l-0.1 0l-38.9 -24.8l-0.1 0l-1.1 -0.6c-4.1 -2 -8.5 -1.8 -12.4 0.4l-1 0.7l-4.1 3.1c-16.3 12.6 -31.2 27.5 -43.8 43.8l-3.1 4.1l-0.1 0l-0.7 1c-2.3 3.9 -2.4 8.3 -0.4 12.4l0.6 1.1l0 0.1l24.8 39c0 0 0.6 1.1 0.6 1.1c1.6 3.2 1.7 6.6 0.7 10l-0.5 1.2l0.1 0l-1.3 2.9l-1.3 3l-1.2 3l-1.1 3l-0.1 0l-0.5 1.2c-1.4 3.1 -4.3 5.5 -7.5 6.5l-1.3 0.4l0.1 0l-45.1 10l0 0.1l-1.3 0.4c-3.9 1.1 -7.6 5.1 -8.4 9l-0.3 1.3l0.1 -0.1l-0.7 5.2c-2.7 20.5 -2.7 41.3 0 61.8l0.7 5.2l-0.1 0l0.3 1.3c0.9 4 4.5 7.9 8.4 9l1.3 0.4l0 0.1l45.1 9.9l-0.1 0.1l1.3 0.4c3.2 1 6.1 3.5 7.5 6.5l0.5 1.2l0.1 -0.1l1.1 3l1.2 3l1.3 3l1.3 2.9l-0.1 0l0.5 1.2c1 3.4 0.9 6.8 -0.7 10l-0.6 1.1l0 0.1l-24.8 39l-0.6 1.1c-2 4.1 -1.8 8.5 0.4 12.4l0.7 1l0.1 0l3.1 4.1c12.6 16.3 27.5 31.2 43.8 43.8l4.1 3.1l0 0.1l1 0.7c3.9 2.3 8.3 2.4 12.4 0.4l1.1 -0.6l0.1 0l38.9 -24.8l0.1 0l1.1 -0.6c3.2 -1.6 6.6 -1.7 10 -0.7l1.2 0.5l0 -0.5001l2.9 1.3l3 1.3l3 1.2l3 1.1l-0.1 0.1l1.2 0.5c3.1 1.4 5.5 4.3 6.5 7.5l0.4 1.3l0.1 0l10 45l0.4 1.3c1.1 3.9 5.1 7.6 9 8.4l1.3 0.3l0 -0.1l5.2 0.7c20.5 2.7 41.3 2.7 61.8 0l5.2 -0.7l-0.1 0.1l1.3 -0.3c4 -0.9 7.9 -4.5 9 -8.4l0.4 -1.3l0.1 0l10 -45l0.4 -1.3c1 -3.2 3.5 -6.1 6.5 -7.5l1.2 -0.5l0 -0.1l3 -1.1l3 -1.2l3 -1.3l2.9 -1.3l0 0.1l1.2 -0.5c3.4 -1 6.8 -0.9 10 0.7l1.1 0.6l39 24.8l1.1 0.6c4.1 2 8.5 1.8 12.4 -0.4l1 -0.7l0.1 -0.1l4.1 -3.1c16.3 -12.6 31.2 -27.5 43.8 -43.8l3.1 -4.1l0.7 -1c2.3 -3.9 2.4 -8.3 0.4 -12.4l-0.6 -1.1c0 0 -24.8 -39 -24.8 -39l0 -0.1l-0.6 -1.1c-1.6 -3.2 -1.7 -6.6 -0.7 -10l0.5 -1.2l1.3 -2.9l1.3 -3l1.2 -3l1.1 -3l0.1 0.1l0.5 -1.2c1.4 -3.1 4.3 -5.5 7.5 -6.5l1.3 -0.4l0 -0.1l45 -9.9l0 -0.1l1.3 -0.4c3.9 -1.1 7.6 -5.1 8.4 -9l0.3 -1.3l0.7 -5.2c2.7 -20.1999 2.7 -40.9999 0 -61.4999zm-238.2 -102.5l4.4 0.1l4.4 0.2c67.6 4.5 121.1 58.9 124.5 126.5l0.2 4.4l0 4.4c-1.2 67.8 -52.7 123.8 -120.2 130.6l-4.4 0.4l-4.4 0.2l-4.4 0.1l-4.4 -0.1l-4.4 -0.2l-4.4 -0.4c-67.5 -6.8 -119 -62.8 -120.2 -130.6l0 -4.4l0.2 -4.4c3.4 -67.7 56.8 -122 124.5 -126.5l4.4 -0.2l4.2 -0.1z" style="animation-name: eaf-3769-12, eaf-3769-13, eaf-3769-14; animation-composition: replace, add, add;"></path><g transform="translate(0.0058 65.4)" style="animation-name: eaf-3769-15, eaf-3769-16, eaf-3769-17; animation-composition: replace, add, add;"><path fill="#d30000" d="m485.7 100.4c-9.3 -10.5 -18.6 -21 -27.8 -31.5c-9.1 -10.4 -18.1 -20.8 -27.2 -31.2c-6.3 -7.2 -11.3 -7.2 -17.6 0c-7.8 8.9 -15.6 17.7 -23.5 26.5c-3.6 4 -7.2 8 -10.7 12.1c-7.7 8.9 -15.3 17.9 -23 26.8c-2.7 3.1 -3.9 6.4 -2 10.3c1.7 3.7 4.8 5 8.7 5c5.7 -0.1 11.4 -0.1 17.2 0c8.2 0.2 7.8 -2 7.7 8.1c0 0.2 0 0.4 0 0.5c0 3.1 0 6.2 0 9.2c0 3 0 6.1 0 9.1c0.1 2.3 0.2 81 0.2 83.3c0 51.2 0 102.4 0 153.6c30.6 -12.9 55.2 -36.7 69.1 -66.5c0 -10.5 0 -21.1 0 -31.6c0 -10.4 0 -20.8 0 -31.2c0 -7.5 0 -27.7 -0.1 -50.3c0 -32.6 -0.1 -70.1 -0.2 -80.9c0 -3 1.2 -3.7 3.8 -3.5c1.6 0.2 3.2 0.1 4.8 0.2c2.7 -0.1 5.3 -0.2 8 -0.1c6.9 0.1 14 1 18.7 -5.7c-0.9 -4.6 -2.8 -8.5 -6.1 -12.2z"></path><path fill="#fff" d="m499.5 111.2c-1.1 -6.1 -3.6 -11.4 -7.9 -16.2c-8.4 -9.4 -17.2 -19.4 -27.7 -31.4c-8.9 -10.2 -17.9 -20.5 -26.8 -30.7l-0.4 -0.5c-1.8 -2 -7.1 -8.2 -14.8 -8.2c-7.7 0 -13.1 6.1 -14.8 8.1c-8.1 9.2 -16.6 18.8 -23.5 26.5l-2 2.2c-2.9 3.3 -5.8 6.6 -8.8 9.8l-6.7 7.8c-5.4 6.3 -10.9 12.7 -16.4 19c-6.5 7.5 -5.4 14.5 -3.2 19c2.9 6.2 8.5 9.6 15.8 9.6l0.3 0c3.1 0 6.3 -0.1 9.4 -0.1c2.7 0 5.1 0 7.3 0.1l0 0.3l0 18.9c0.1 2.6 0.2 78.9 0.2 83.1c0 43.7 0 87.4 0 131.2l0 34.5l8 -3.4l0 -79.3c0 -27.7 0 -55.4 0 -83c0 -2.3 -0.1 -81 -0.2 -83.3c0 -3 0 -6.1 0 -9.1c0 -3.1 0 -6.2 0 -9.2c0 -0.2 0 -0.4 0 -0.5c0.2 -10.1 0.5 -7.9 -7.7 -8.1c-5.7 -0.1 -11.4 -0.1 -17.2 0c-3.9 0 -7 -1.3 -8.7 -5c-1.9 -3.9 -0.6 -7.2 2 -10.3c7.7 -8.9 15.4 -17.9 23 -26.8c3.6 -4 7.2 -8 10.7 -12.1c7.9 -8.8 15.7 -17.7 23.5 -26.5c6.3 -7.2 11.3 -7.2 17.6 0c9.1 10.4 18.1 20.8 27.2 31.2c9.2 10.5 18.5 21 27.8 31.5c3.3 3.7 5.1 7.6 5.9 12.2c-4.7 6.8 -11.8 5.9 -18.7 5.7c-2.7 -0.1 -5.3 0.1 -8 0.1c-1.6 -0.1 -3.2 0 -4.8 -0.2c-2.6 -0.3 -3.8 0.5 -3.8 3.5c0.1 10.8 0.2 48.3 0.2 80.9c0 22.6 0 42.8 0.1 50.3c0 10.4 0 20.8 0 31.2c0 8.9 0 17.7 0 26.6l0 0l0 5l0 16.9c2.6 -4.4 5.1 -8.9 7.2 -13.5l0.8 -1.6l0 -33.4l0 -31.3c0 -6.3 0 -21.9 -0.1 -40.2l0 -10.1c0 -31.5 -0.1 -62.1 -0.1 -76.2c0.1 0 0.5 0 0.5 0l0.2 0c0.9 0 1.7 0 2.6 -0.1c1.4 0 2.7 -0.1 4.1 -0.1c0.3 0 0.7 0 1 0c0.6 0 1.2 0 1.8 0c1.2 0 2.3 0.1 3.5 0.1c0 0 0 0 0 0c6.4 0 14.4 -1.1 20.2 -9.3l1.9 -2.7l-0.5 -2.9z"></path></g></g></g></svg>