<svg xmlns="http://www.w3.org/2000/svg" viewBox="0 0 500 500" overflow="hidden" preserveAspectRatio="xMidYMid meet" id="eaf-706e-0"><defs><clipPath id="eaf-706e-1"><rect x="0" y="0" width="500" height="500"></rect></clipPath><style>#eaf-706e-0 * {animation: 6000ms linear infinite normal both running;offset-rotate:0deg}@keyframes eaf-706e-2{0%,100%{transform:translate(250.05px,247.6375px)}}@keyframes eaf-706e-3{0%{transform:rotate(0)}24.45%{transform:rotate(-9deg);animation-timing-function:ease-in-out}74.45%{transform:rotate(9deg)}99.45%,100%{transform:rotate(0)}}@keyframes eaf-706e-4{0%{transform:scale(0,0);animation-timing-function:ease-in-out}33.33%,100%{transform:scale(4.03,4.03)}}@keyframes eaf-706e-5{0%,100%{transform:translate(-250.05px,-247.6375px)}}@keyframes eaf-706e-6{0%{opacity:0.77;animation-timing-function:ease-in-out}25.55%,100%{opacity:0}}@keyframes eaf-706e-7{0%,0.55%{transform:rotate(0)}25%{transform:rotate(-9deg);animation-timing-function:ease-in-out}75%{transform:rotate(9deg)}100%{transform:rotate(0)}}</style></defs><g clip-path="url('#eaf-706e-1')" style="isolation: isolate;"><g><g transform="matrix(4 0 0 4 -827.28 -2254.5264)"><path fill="#444444" d="m331.7 626.3c0 15.6 0 31.3 0 46.9c0 7.2 -5.4 13.7 -12.5 15.1c-1 0.2 -2.1 0.3 -3.2 0.3c-31.2 0 -62.4 0 -93.6 0c-7.6 0 -14.3 -5.9 -15.3 -13.5c-0.1 -0.7 -0.1 -1.4 -0.1 -2c0 -31.3 0 -62.5 0 -93.8c0 -7.2 5.4 -13.7 12.5 -15.1c1 -0.2 2.1 -0.3 3.2 -0.3c31.2 0 62.4 0 93.6 0c7.2 0 13.7 5.4 15.1 12.5c0.2 1 0.3 2.1 0.3 3.2c0 15.6 0 31.1 0 46.7z"></path></g><rect fill="#000000" width="81" height="73.2" transform="translate(-177 -9.7)"></rect><rect fill="#ffffff" width="81" height="73.2" transform="translate(-177 83.8)"></rect><rect fill="#000000" width="81" height="73.2" transform="translate(-177 177.3)"></rect><rect fill="#bcbcbc" width="81" height="73.2" transform="translate(-177 270.9)"></rect><rect fill="#ffbf00" width="81" height="73.2" transform="translate(-177 364.4)"></rect><rect fill="#ffbf00" width="81" height="73.2" transform="translate(-177 364.4)"></rect><rect fill="#000000" width="81" height="73.2" transform="translate(-177 457.2)"></rect><rect fill="#444444" width="81" height="73.2" transform="translate(-177 551.4)"></rect><g transform="matrix(0 0 0 0 250.05 247.6375)" opacity="0.77" style="animation-name: eaf-706e-2, eaf-706e-3, eaf-706e-4, eaf-706e-5, eaf-706e-6; animation-composition: replace, add, add, add, replace;"><path fill="#000000" d="m171.3 349.3c-5.7 0 -11.4 -2.2 -15.7 -6.5c-25.2 -25.2 -39.1 -58.7 -39.1 -94.4c0 -35.7 13.9 -69.2 39.1 -94.4c8.7 -8.7 22.8 -8.7 31.5 0c8.7 8.7 8.7 22.8 0 31.5c-16.8 16.8 -26.1 39.2 -26.1 62.9c0 23.7 9.3 46.1 26.1 62.9c8.7 8.7 8.7 22.8 0 31.5c-4.4 4.3 -10.1 6.5 -15.8 6.5z"></path><path fill="#000000" d="m108.4 412.2c-5.7 0 -11.4 -2.2 -15.7 -6.5c-42 -42 -65.2 -97.9 -65.2 -157.3c0 -59.4 23.1 -115.3 65.2 -157.3c8.7 -8.7 22.8 -8.7 31.5 0c8.7 8.7 8.7 22.8 0 31.5c-69.4 69.4 -69.4 182.3 0 251.7c8.7 8.7 8.7 22.8 0 31.5c-4.4 4.3 -10.1 6.4 -15.8 6.4z"></path><path fill="#000000" d="m328.7 348.5c-5.7 0 -11.4 -2.2 -15.7 -6.5c-8.7 -8.7 -8.7 -22.8 0 -31.5c34.7 -34.7 34.7 -91.2 0 -125.9c-8.7 -8.7 -8.7 -22.8 0 -31.5c8.7 -8.7 22.8 -8.7 31.5 0c52.1 52.1 52.1 136.7 0 188.8c-4.4 4.5 -10.1 6.6 -15.8 6.6z"></path><path fill="#000000" d="m391.6 410.8c-5.7 0 -11.4 -2.2 -15.7 -6.5c-8.7 -8.7 -8.7 -22.8 0 -31.5c69.4 -69.4 69.4 -182.3 0 -251.7c-8.7 -8.7 -8.7 -22.8 0 -31.5c8.7 -8.7 22.8 -8.7 31.5 0c42 42 65.2 97.9 65.2 157.3c0 59.4 -23.1 115.3 -65.2 157.3c-4.4 4.4 -10.1 6.6 -15.8 6.6z"></path></g><g style="animation-name: eaf-706e-2, eaf-706e-7, eaf-706e-5; animation-composition: replace, add, add;"><path fill="#ffffff" d="m171.3 349.3c-5.7 0 -11.4 -2.2 -15.7 -6.5c-25.2 -25.2 -39.1 -58.7 -39.1 -94.4c0 -35.7 13.9 -69.2 39.1 -94.4c8.7 -8.7 22.8 -8.7 31.5 0c8.7 8.7 8.7 22.8 0 31.5c-16.8 16.8 -26.1 39.2 -26.1 62.9c0 23.7 9.3 46.1 26.1 62.9c8.7 8.7 8.7 22.8 0 31.5c-4.4 4.3 -10.1 6.5 -15.8 6.5z"></path><path fill="#ffffff" d="m108.4 412.2c-5.7 0 -11.4 -2.2 -15.7 -6.5c-42 -42 -65.2 -97.9 -65.2 -157.3c0 -59.4 23.1 -115.3 65.2 -157.3c8.7 -8.7 22.8 -8.7 31.5 0c8.7 8.7 8.7 22.8 0 31.5c-69.4 69.4 -69.4 182.3 0 251.7c8.7 8.7 8.7 22.8 0 31.5c-4.4 4.3 -10.1 6.4 -15.8 6.4z"></path><path fill="#ffffff" d="m328.7 348.5c-5.7 0 -11.4 -2.2 -15.7 -6.5c-8.7 -8.7 -8.7 -22.8 0 -31.5c34.7 -34.7 34.7 -91.2 0 -125.9c-8.7 -8.7 -8.7 -22.8 0 -31.5c8.7 -8.7 22.8 -8.7 31.5 0c52.1 52.1 52.1 136.7 0 188.8c-4.4 4.5 -10.1 6.6 -15.8 6.6z"></path><path fill="#ffffff" d="m391.6 410.8c-5.7 0 -11.4 -2.2 -15.7 -6.5c-8.7 -8.7 -8.7 -22.8 0 -31.5c69.4 -69.4 69.4 -182.3 0 -251.7c-8.7 -8.7 -8.7 -22.8 0 -31.5c8.7 -8.7 22.8 -8.7 31.5 0c42 42 65.2 97.9 65.2 157.3c0 59.4 -23.1 115.3 -65.2 157.3c-4.4 4.4 -10.1 6.6 -15.8 6.6z"></path></g><path fill="#000000" stroke="#ffffff" stroke-width="18" stroke-miterlimit="133.3333" d="m250 292.9c-24.5 0 -44.5 -20 -44.5 -44.5c0 -24.5 20 -44.5 44.5 -44.5c24.5 0 44.5 20 44.5 44.5c0 24.5 -20 44.5 -44.5 44.5z"></path></g></g></svg>


