<svg xmlns="http://www.w3.org/2000/svg" viewBox="0 0 500 500" overflow="hidden" preserveAspectRatio="xMidYMid meet" id="eaf-17bf6-0"><defs><clipPath id="eaf-17bf6-1"><rect x="0" y="0" width="500" height="500"></rect></clipPath><style>#eaf-17bf6-0 * {animation: 9000ms linear infinite normal both running;offset-rotate:0deg}@keyframes eaf-17bf6-2{0%{fill:#f4c14a;animation-timing-function:ease-in-out}88.89%{fill:#fff}90.37%{fill:#c8030a;animation-timing-function:ease-in-out}100%{fill:#f4c14a}}@keyframes eaf-17bf6-3{0%{fill:#fff;animation-timing-function:ease-in-out}88.89%{fill:#ffffff}90.37%,100%{fill:#fff}}@keyframes eaf-17bf6-4{0%,100%{transform:none;offset-path:path("m249.36 250.6335l0.64 0")}}@keyframes eaf-17bf6-5{0%{offset-distance:0%}88.89%,100%{offset-distance:100%}}@keyframes eaf-17bf6-6{0%{transform:rotate(0);animation-timing-function:cubic-bezier(0,0,0.58,1)}88.89%{transform:rotate(-360deg)}90.37%{transform:rotate(-360deg);animation-timing-function:ease-in-out}100%{transform:rotate(0)}}@keyframes eaf-17bf6-7{0%,100%{transform:translate(134.3557px,135.2002px)}}</style></defs><g clip-path="url('#eaf-17bf6-1')" style="isolation: isolate;"><g><g transform="matrix(4 0 0 4 -897.24 -2361.3665)"><path fill="#444444" d="m349 653c0 15.6 0 31.3 0 46.9c0 7.2 -5.4 13.7 -12.5 15.1c-1 0.2 -2.1 0.3 -3.2 0.3c-31.2 0 -62.4 0 -93.6 0c-7.6 0 -14.3 -5.9 -15.3 -13.5c-0.1 -0.7 -0.1 -1.4 -0.1 -2c0 -31.3 0 -62.5 0 -93.8c0 -7.2 5.4 -13.7 12.5 -15.1c1 -0.2 2.1 -0.3 3.2 -0.3c31.2 0 62.4 0 93.6 0c7.2 0 13.7 5.4 15.1 12.5c0.2 1 0.3 2.1 0.3 3.2c0 15.6 0 31.1 0 46.7z"></path></g><g transform="translate(383.7156 385.8337)" style="animation-name: eaf-17bf6-4, eaf-17bf6-5, eaf-17bf6-6, eaf-17bf6-7; animation-composition: replace, add, add, add;"><g transform="matrix(4 0 0 4 -1280.7557 -2746.8)"><g><path fill="#f4c14a" stroke="#515151" stroke-width="4" stroke-miterlimit="104.0312" d="m264.7 647.6c-0.2 0 -0.3 0 -0.5 0c-2.5 -0.1 -5.3 -0.2 -8.7 -0.2c-2 0 -4.1 0 -6.1 0c-2 0 -4.1 0 -6.1 0l-1.3 0c-6.3 0 -10.2 -4 -10.2 -10.4c0 -7.4 0 -14.8 0 -22.1c0 -5.8 3.9 -10.2 9.3 -10.5c0.2 0 0.3 0 0.5 0c4.4 0 7.9 3 9.1 7.4c5.8 -5 12.1 -8.7 19.2 -11.2c5.6 -1.9 11.5 -2.9 17.6 -2.9c22.3 0 42.8 13.4 51 33.3c1.2 2.8 1.2 5.7 0.2 8.2c-1 2.3 -2.9 4.1 -5.3 5c-1.2 0.5 -2.4 0.7 -3.7 0.7c-3.8 0 -7.2 -2.4 -8.9 -6.3c-3.9 -8.6 -9.9 -14.6 -18.5 -18.6c-4.3 -2 -9.3 -3 -14.3 -3c-10.4 0 -20.2 4.2 -26.5 11.2c0 0 2.1 0 3 0c6.2 0 10.3 3.7 10.5 9.5c0.1 2.5 -0.9 4.8 -2.7 6.7c-1.9001 2.1 -4.7 3.2 -7.6 3.2z" style="animation-name: eaf-17bf6-2;"></path><path fill="#000000" stroke="#ffffff" stroke-width="4" stroke-miterlimit="104.0312" d="m287.8 708.1c-22.1 0 -42.5 -13.4 -51 -33.4c-2 -4.8 -0.6 -9.8 3.7 -12.4c1.5 -0.9 3.3 -1.4 5 -1.4c2.9 0 5.7 1.3 7.5 3.6c0.7 0.8 1.1 1.7 1.5 2.5c0.1 0.2 0.2 0.4 0.3 0.7c6.8 13.6 17.7 20.6 32.5 21c0.3 0 0.7 0 1 0c9.4 0 17.6 -3.4 24.5 -10.2c-0.5 0 -1 0 -1.5 0c-1.1 0 -2.2 0 -3.3 0c-5.7 -0.1 -9.7 -4.2 -9.7 -9.8c0 -5.3 4.1 -9.3 9.5 -9.4c4.2 0 8.4 -0.1 12.7 -0.1c3.8 0 7.5 0 11.2 0c5.6 0 9.6 4.2 9.7 9.9c0 8 0 16 0 22.9c0 5.6 -3.6 9.6 -9 10.2c-0.3 0 -0.6 0 -0.9 0c-3.9 0 -7.4 -2.6 -8.8 -6.5c-0.9 0.5 -1.8 1.1 -2.6 1.6c-3.4 2.1 -7 4.3 -10.8 6c-6.7 3.3 -14.0001 4.8 -21.5001 4.8z" style="animation-name: eaf-17bf6-3;"></path></g></g></g></g></g></svg>