<svg xmlns="http://www.w3.org/2000/svg" viewBox="0 0 500 500" overflow="hidden" preserveAspectRatio="xMidYMid meet" id="eaf-6fe6-0"><defs><clipPath id="eaf-6fe6-1"><rect x="0" y="0" width="500" height="500"></rect></clipPath><style>#eaf-6fe6-0 * {animation: 3867ms linear infinite normal both running;offset-rotate:0deg}@keyframes eaf-6fe6-2{0%,100%{transform:translate(250px,246.8px)}}@keyframes eaf-6fe6-3{0%{transform:rotate(0)}30.18%,100%{transform:rotate(360deg)}}@keyframes eaf-6fe6-4{0%,100%{transform:translate(-252.1437px,-246.4409px)}}@keyframes eaf-6fe6-5{0%{fill-opacity:1}49.13%{fill-opacity:1;animation-timing-function:ease-in-out}56.04%{fill-opacity:0}68.97%{fill-opacity:0;animation-timing-function:ease-in-out}87.07%,100%{fill-opacity:1}}@keyframes eaf-6fe6-6{0%{stroke-opacity:1}49.13%{stroke-opacity:1}56.04%{stroke-opacity:0}68.97%{stroke-opacity:0;animation-timing-function:ease-in-out}87.07%,100%{stroke-opacity:1}}@keyframes eaf-6fe6-7{0%,100%{transform:none;offset-path:path("m248.4241 244.7973l1.5759 2.0027l-78.4374 0l407.3679 0l82.1462 0l0 0l-794.8487 -2.0027l0 0l458.3282 0l-76.1322 0")}}@keyframes eaf-6fe6-8{0%{offset-distance:0%}28.45%{offset-distance:0.1341%;animation-timing-function:ease-in-out}37.91%{offset-distance:4.2628%;animation-timing-function:ease-in-out}58.6%{offset-distance:25.7054%}58.62%{offset-distance:30.0293%}62.06%{offset-distance:30.0293%}65.5%{offset-distance:71.8677%}67.24%{offset-distance:71.8677%}87.92%{offset-distance:95.9926%}90.51%,100%{offset-distance:100%}}@keyframes eaf-6fe6-9{0%{transform:rotate(0)}37.94%{transform:rotate(0);animation-timing-function:ease-in-out}62.06%{transform:rotate(180deg);animation-timing-function:ease-in-out}65.5%{transform:rotate(-180deg);animation-timing-function:ease-in-out}87.92%,100%{transform:rotate(0)}}@keyframes eaf-6fe6-10{0%{transform:scale(0.92,0.92)}30.18%{transform:scale(0.92,0.92);animation-timing-function:ease-in-out}38.79%{transform:scale(0.5,0.92);animation-timing-function:ease-in-out}43.11%{transform:scale(1.4,0.92);animation-timing-function:ease-in-out}50.87%{transform:scale(0.92,0.92)}86.19%{transform:scale(0.92,0.92);animation-timing-function:ease-in-out}87.92%{transform:scale(0.73,0.92)}90.51%{transform:scale(0.62,0.92);animation-timing-function:ease-in-out}92.24%,100%{transform:scale(0.92,0.92)}}@keyframes eaf-6fe6-11{0%,100%{transform:translate(-250px,-246.8px)}}</style></defs><g clip-path="url('#eaf-6fe6-1')" style="isolation: isolate;"><g><g transform="matrix(4 0 0 4 -806.0065 -2320.3999)"><path fill="#222222" d="m326.5 642.5c0 15.6 0 31.3 0 46.9c0 7.2 -5.4 13.7 -12.5 15.1c-1 0.2 -2.1 0.3 -3.2 0.3c-31.2 0 -62.4 0 -93.6 0c-7.6 0 -14.3 -5.9 -15.3 -13.5c-0.1 -0.7 -0.1 -1.4 -0.1 -2c0 -31.3 0 -62.5 0 -93.8c0 -7.2 5.4 -13.7 12.5 -15.1c1 -0.2 2.1 -0.3 3.2 -0.3c31.2 0 62.4 0 93.6 0c7.2 0 13.7 5.4 15.1 12.5c0.2 1 0.3 2.1 0.3 3.2c0 15.4999 0 31.1 0 46.7z"></path></g><g transform="translate(-2.1437 0.3591)" style="animation-name: eaf-6fe6-2, eaf-6fe6-3, eaf-6fe6-4; animation-composition: replace, add, add;"><g transform="translate(250.5898 249.5117)"><g><g transform="translate(-250.5898 -249.5117)"><path fill="#ffffff"  d="m416.5 86.9c-11.5 -4 -23.1 -8 -34.6 -12c19.9 17.9 38.1 36.9 53.1 60.9c-21.1 -11.4 -40.9 -22.1 -60.7 -32.8c-0.4 0.6 -0.9 1.3 -1.3 1.9c12.8 13 26.8 24.9 36.4 42.4c-26.6 -17.1 -53.4 -30.7 -82.7 -38.7c-14.5 -4 -29.5 -6.4 -44.3 -9.1c-14.6 -2.6 -29.2 -2.7 -44.2 -1.7c-27.8 1.8 -53.4 9.4 -77.5 23c-27.9 15.7 -45.8 39.5 -55.4 69.5c-3.8 11.8 -6.8 24.1 -7.9 36.4c-1 12.1 1.1 24.4 1.6 36.6c0.7 17.8 6.5 34.3 12 51c11 33.3 34.9 55.3 63.3 73.4c21.1 13.5 44.3 21.9 69.5 22c44.1 0.2 81.2 -16.5 111.7 -48.1c32.6 -33.8 50.1 -75 59.2 -120.4c4.7 -23.5 5.8 -47.3 5.3 -71.2c0 -1.8 0 -3.7 0 -5.5c0.7 -0.2 1.5 -0.4 2.2 -0.6c5.7 16.7 11.4 33.3 17.6 51.6c0.9 -23.1 1.7 -44.9 2.5 -68.2c13.8 25.6 21.4 52 25.4 79.9c1.9 -7.3 3.7 -14.7 5.6 -22c0.6 0 1.1 0 1.7 0c1.2 7.5 2.8 14.9 3.4 22.4c0.9 10.8 1.8 21.6 1.3 32.4c-1.8 37.1 -10.8 72.2 -29.3 104.8c-10.2 17.9 -22.3 34.3 -36.8 48.8c-15.6 15.6 -33.2 28.8 -52.7 39.2c-19.6 10.5 -40.4 17.9 -62.1 21.8c-23.7 4.3 -47.5 4.5 -71.5 0.8c-23.5 -3.7 -45.9 -10.7 -67.4 -20.4c-19.1 -8.6 -36.2 -20.5 -52.2 -34.1c-20.3 -17.1 -36.6 -37.6 -50.5 -60c-14.7 -23.6 -25 -49.2 -28.9 -76.8c-2.4 -16.8 -4.2 -33.9 -3.8 -50.8c0.6 -25.6 6.5 -50.3 16.5 -74c10.7 -25.6 26.6 -47.8 44.4 -68.8c27.8 -32.9 62.9 -54.1 104 -66.7c27 -8.3 54.4 -10.3 82.1 -8.1c35.4 2.8 68.8 13.2 98.6 32.9c15 9.9 28.8 21.5 43.1 32.4c1.6 1.3 2.9 3.1 4.3 4.6c-0.5 0.5 -0.8 0.9 -1 1.3z"></path></g></g></g></g><path fill="#ffffff" stroke="#ffffff" stroke-width="10" d="m268.1 113.5c0.8 1.6 1.4 3.3 2.3 4.8c27.3 43.1 54.5 86.1 81.9 129.1c2.1 3.3 2.3 5.6 0.1 9.1c-27.5 43.1 -54.9 86.3 -82.1 129.6c-2.1 3.3 -4.1 4.6 -8.1 4.5c-24.5 -0.2 -49 -0.1 -74.3 -0.1c1.1 -2 1.9 -3.5 2.8 -5c27.1 -42.7 54.1 -85.5 81.4 -128.2c2.5 -3.8 2.7 -6.5 0.1 -10.5c-27.4 -42.9 -54.7 -86 -81.9 -129.1c-0.9 -1.3 -1.5 -2.8 -2.2 -4.3c26.6 0.1 53.3 0.1 80 0.1z" transform="matrix(0.92 0 0 0.92 18.4241 17.7413)" style="animation-name: eaf-6fe6-5, eaf-6fe6-6, eaf-6fe6-7, eaf-6fe6-8, eaf-6fe6-9, eaf-6fe6-10, eaf-6fe6-11; animation-composition: replace, replace, replace, add, add, add, add;"></path></g></g></svg>

