<?xml version="1.0" encoding="utf-8"?>
<svg xmlns="http://www.w3.org/2000/svg" viewBox="0 0 769 769" overflow="hidden" preserveAspectRatio="xMidYMid meet" id="eaf-8a45-0">
  <defs>
    <clipPath id="eaf-8a45-1">
      <rect x="0" y="0" width="769" height="769"/>
    </clipPath>
    <style>#eaf-8a45-0 * {animation: 15000ms linear infinite normal both running;offset-rotate:0deg}@keyframes eaf-8a45-2{0%,100%{transform:none;offset-path:path("m637.0327 340.633q0.2577 -38.9534 2.2534 -72.4123q9.1593 -87.2938 -2.687 -133.6779q-20.604 -64.4319 -123.5287 -236.5188")}}@keyframes eaf-8a45-3{0%{offset-distance:0%;animation-timing-function:ease-in-out}3.78%{offset-distance:15.2856%;animation-timing-function:ease-in-out}20.89%{offset-distance:43.6244%;animation-timing-function:ease-in-out}34.89%,100%{offset-distance:100%}}@keyframes eaf-8a45-4{0%,100%{transform:matrix(0,1,-1,0,0,0)}}@keyframes eaf-8a45-5{0%{transform:scale(1,0.477);animation-timing-function:ease-in-out}2.45%{transform:scale(1,0.3815);animation-timing-function:ease-in-out}8.45%{transform:scale(1,0.4458);animation-timing-function:ease-in-out}19.55%{transform:scale(0.5995,0.9377);animation-timing-function:ease-in-out}34.89%,100%{transform:scale(0.8261,1.2923)}}@keyframes eaf-8a45-6{0%,100%{transform:translate(-628.4762px,-288.5513px)}}@keyframes eaf-8a45-7{0%{opacity:0;animation-timing-function:ease-in-out}1.55%,100%{opacity:1}}@keyframes eaf-8a45-8{0%,100%{transform:none;offset-path:path("m637.0327 340.633l0 0q0.2577 -38.9534 2.2534 -72.4123q-8.0825 -77.2032 8.3139 -133.6779q25.7999 -55.9427 130.3398 -253.3526")}}@keyframes eaf-8a45-9{0%{offset-distance:0%}52.89%{offset-distance:0%;animation-timing-function:ease-in-out}56.67%{offset-distance:14.7221%;animation-timing-function:ease-in-out}73.78%{offset-distance:42.1047%;animation-timing-function:ease-in-out}92.45%,100%{offset-distance:100%}}@keyframes eaf-8a45-10{0%{transform:rotate(90deg)}65.79%{transform:rotate(90deg);animation-timing-function:ease-in-out}90.67%,100%{transform:rotate(205deg)}}@keyframes eaf-8a45-11{0%{transform:scale(1,0.477)}52.89%{transform:scale(1,0.477);animation-timing-function:ease-in-out}55.34%{transform:scale(1,0.3815);animation-timing-function:ease-in-out}61.34%{transform:scale(1,0.4458);animation-timing-function:ease-in-out}72.45%{transform:scale(0.5995,0.9377);animation-timing-function:ease-in-out}86.89%,100%{transform:scale(0.8261,1.2923)}}@keyframes eaf-8a45-12{0%{opacity:0}52.89%{opacity:0;animation-timing-function:ease-in-out}54.45%,100%{opacity:1}}@keyframes eaf-8a45-13{0%{opacity:0}69.78%{opacity:0;animation-timing-function:ease-in-out}75.78%{opacity:1}85.79%{opacity:1;animation-timing-function:ease-in-out}88.44%,100%{opacity:0}}@keyframes eaf-8a45-14{0%,100%{transform:none;offset-path:path("m385.7 605.7l0 0l-249.7 -447.2l0.9908 -2.5598l0 0l248.7092 449.7597")}}@keyframes eaf-8a45-15{0%{offset-distance:0%}53.55%{offset-distance:0%;animation-timing-function:ease-in-out}60.45%{offset-distance:49.7813%;animation-timing-function:ease-in-out}63.11%{offset-distance:50.048%}88.45%{offset-distance:50.048%;animation-timing-function:ease-in-out}95.55%,100%{offset-distance:100%}}@keyframes eaf-8a45-16{0%{transform:scale(1,1)}54.67%{transform:scale(1,1);animation-timing-function:ease-in-out}63.11%{transform:scale(1.486,1.486)}86.45%{transform:scale(1.486,1.486);animation-timing-function:ease-in-out}95.55%,100%{transform:scale(1,1)}}@keyframes eaf-8a45-17{0%,100%{transform:translate(-385.7px,-605.7px)}}@keyframes eaf-8a45-18{0%{opacity:1}69.78%{opacity:1;animation-timing-function:ease-in-out}75.78%{opacity:0}85.79%{opacity:0;animation-timing-function:ease-in-out}88.89%,100%{opacity:1}}@keyframes eaf-8a45-19{0%{opacity:0}6.67%{opacity:0;animation-timing-function:ease-in-out}16.67%{opacity:1}50%{opacity:1;animation-timing-function:ease-in-out}62.22%,100%{opacity:0}}@keyframes eaf-8a45-20{0%{opacity:0}16%{opacity:0;animation-timing-function:ease-in-out}26%{opacity:1}48%{opacity:1;animation-timing-function:ease-in-out}60.22%,100%{opacity:0}}@keyframes eaf-8a45-21{0%,100%{transform:translate(385.7px,605.7px)}}@keyframes eaf-8a45-22{0%{transform:scale(1,1)}26.89%{transform:scale(1,1);animation-timing-function:ease-in-out}30.67%{transform:scale(1.1,1.1);animation-timing-function:ease-in-out}34.22%{transform:scale(1,1)}47.99%{transform:scale(1,1);animation-timing-function:ease-in-out}63.77%{transform:scale(2.2965,2.2965)}97.76%{transform:scale(2.2965,2.2965);animation-timing-function:ease-in-out}98.43%,100%{transform:scale(1,1)}}</style>
  </defs>
  <g clip-path="url('#eaf-8a45-1')" style="isolation: isolate;">
    <g>
      <path fill="#444444" d="m768.1 385.5c0 96.2 0 192.5 0 288.8c0 44.1 -33.3 84.4 -76.7 92.7c-6.4 1.2 -13.1 1.9 -19.6 1.9c-191.9 0.1 -383.8 0.1 -575.7 0.1c-47 0 -88.1 -36.1 -94.2 -82.9c-0.6 -4.1 -0.9 -8.3 -0.9 -12.5c0 -192.4 0 -384.7 0 -577c0 -44.1 33.3 -84.5 76.7 -92.7c6.4 -1.3 13 -1.9 19.6 -1.9c192 -0.1 384.1 -0.1 576.1 -0.1c44.1 0 84.5 33.3 92.7 76.7c1.2 6.4 1.9 13.1 1.9 19.6c0.1 95.8 0.1 191.6 0.1 287.3z"/>
      <path fill="#eee" stroke="#ffffff" stroke-width="9" stroke-miterlimit="10" d="m572 326.7l-2.1 0.5l-2.1 0.3c-22.9 2.6 -43.4 -14.1 -45.1 -37.1l-0.1 -2.2l0 -2.2c0.7 -23 20.6 -40.7 43.6 -38.9l2.1 0.2l2.2 0.3l0 0l0 0l0.1 0l0.1 -2.3l0.2 -2.3c2.5 -19.1 16.2 -34.4 34.9 -39l2.3 -0.5l2.3 -0.4c18.9 -2.6 37.6 6.8 46.7 23.6l1.1 2.1l1 2.1l0 -0.1l0 0c0 0 1.3 -1.4 1.3 -1.4l1.4 -1.4c12.1 -11.1 30.2 -11.4 42.5 -0.6l1.4 1.3l1.3 1.4c10.7 12.1 10.5 30.8 -0.7 42.5l-1.4 1.4l-1.4 1.3l0 0l0 0c0 0 2.2 0.6 2.2 0.6l2.1 0.8c22.2 9.1 32.4 34.5 22.9 56.5l-1 2.1l-1.1 2c-11.9 20.8 -38.5 27.7 -59 15.3l-1.9 -1.2l-1.8 -1.3l0 0l0 0.1l-1.3 2.1c-27.3 38.7 -86.4 23.9 -92.2 -23.1l-0.2 -2.5" transform="matrix(0 1 -0.477 0 774.6801 -287.8432)" opacity="0" style="animation-name: eaf-8a45-2, eaf-8a45-3, eaf-8a45-4, eaf-8a45-5, eaf-8a45-6, eaf-8a45-7; animation-composition: replace, add, add, add, add, replace;"/>
      <path fill="#eee" stroke="#ffffff" stroke-width="9" stroke-miterlimit="10" d="m572 326.7l-2.1 0.5l-2.1 0.3c-22.9 2.6 -43.4 -14.1 -45.1 -37.1l-0.1 -2.2l0 -2.2c0.7 -23 20.6 -40.7 43.6 -38.9l2.1 0.2l2.2 0.3l0 0l0 0l0.1 0l0.1 -2.3l0.2 -2.3c2.5 -19.1 16.2 -34.4 34.9 -39l2.3 -0.5l2.3 -0.4c18.9 -2.6 37.6 6.8 46.7 23.6l1.1 2.1l1 2.1l0 -0.1l0 0c0 0 1.3 -1.4 1.3 -1.4l1.4 -1.4c12.1 -11.1 30.2 -11.4 42.5 -0.6l1.4 1.3l1.3 1.4c10.7 12.1 10.5 30.8 -0.7 42.5l-1.4 1.4l-1.4 1.3l0 0l0 0c0 0 2.2 0.6 2.2 0.6l2.1 0.8c22.2 9.1 32.4 34.5 22.9 56.5l-1 2.1l-1.1 2c-11.9 20.8 -38.5 27.7 -59 15.3l-1.9 -1.2l-1.8 -1.3l0 0l0 0.1l-1.3 2.1c-27.3 38.7 -86.4 23.9 -92.2 -23.1l-0.2 -2.5" transform="matrix(0 1 -0.477 0 774.6801 -287.8432)" opacity="0" style="animation-name: eaf-8a45-8, eaf-8a45-9, eaf-8a45-10, eaf-8a45-11, eaf-8a45-6, eaf-8a45-12; animation-composition: replace, add, add, add, add, replace;"/>
      <path fill="#ffffff" d="m717 417.4c-28.4 -28.4 -5.8 -8.6 -34.4 -36.9c-3.3 -3.3 -4.7 -6.5 -4.7 -11.2c0.2 -50.5 0.1 -60.5 0.1 -111c0 -3.6 -0.2 -7.2 -0.8 -10.7c-1 -6.2 -4.3 -9.3 -11.3 -9.1c-17.5 0.5 -35 0.2 -52.4 0.2c-13.4 0 -15.4 1.8 -16.4 15.3c-0.2 1.9 -0.2 3.8 -0.2 5.7c0 22 0 3.5 0 25.5c0 2.5 0 5 0 9.1c-3.3 -3.1 -5.2 -4.9 -7.1 -6.7c-48.2999 -48.2 -147.4999 -144.6 -195.7999 -192.8c-6.9 -6.9 -9.6 -7 -16.1 -0.6c-108.3 108.3 -216.6 216.5 -324.9 324.8c-6 6 -6 8.9 0 15c7.1 7.1 14.1 14.2 21.2 21.2l0 276.4l80.4 0c153.8 0 307.7 0 461.5 0l83.6 0l0 -278.9c5.8 -5.7 11.5 -11.5 17.2 -17.2c8.0001 -8 8.0001 -10.1 0.1 -18.1z"/>
      <path stroke="#ffffff" stroke-width="9" d="m96.5458 83.3624c0.3392 -3.6462 0.8897 -7.2293 1.6391 -10.7368c-28.8296 13.4629 -49.4883 41.4527 -52.5807 74.696l-0.2972 4.3093l-0.1486 4.3093l0.1486 4.3093l0.2972 4.3093c4.1607 44.7274 40.1209 79.9447 84.997 83.0653l4.3093 0.2972l4.3093 0c42.8091 -1.1303 78.7673 -31.2763 87.5667 -72.557c-11.1911 5.2195 -23.5905 8.2537 -36.6252 8.5978l-4.3093 0l-4.3093 -0.2972c-44.876 -3.1206 -80.8363 -38.3379 -84.9969 -83.0653l-0.2972 -4.3093l-0.1486 -4.3093l0.1486 -4.3093l0.2972 -4.3093z" opacity="0" style="animation-name: eaf-8a45-13; fill: rgb(255, 255, 255);"/>
      <path fill="#f4b526" stroke="#ffffff" stroke-width="18" paint-order="stroke" d="m447.5 605.7l-0.1 -2.9l-0.2 -2.9l-0.3 -2.9c-4.3 -30 -29.4 -52.3 -59.7 -53.2l-2.9 0l-2.9 0.2c-30.2 2.1 -54.4 25.8 -57.2 55.9l-0.2 2.9l-0.1 2.9l0.1 2.9l0.2 2.9c2.8 30.1 27 53.8 57.2 55.9l2.9 0.2l2.9 0c30.3 -0.8 55.5 -23.2 59.7 -53.2l0.3 -2.9l0.2 -2.9l0.1 -2.9z" style="animation-name: eaf-8a45-14, eaf-8a45-15, eaf-8a45-16, eaf-8a45-17, eaf-8a45-18; animation-composition: replace, add, add, add, replace;"/>
      <g style="animation-name: eaf-8a45-21, eaf-8a45-22, eaf-8a45-17; animation-composition: replace, add, add;">
        <path fill="#ffbf00" d="m277.1 565.4l-0.8 1.9l-0.9 1.9c-7.4 14.1 -23.7 21 -38.9 16.4l-2 -0.7l-1.9 -0.8c-14.6 -6.5 -22.3 -22.2 -18.8 -37.8l0.6 -2l0.7 -2l1.8 -4.6l1.9 -4.6c28.2 -64.9 91.3 -107.5 162.1 -109.5l4.9 -0.1l4.9 0.1c70.7 2 133.9 44.6 162.1 109.5l1.9 4.6c0 0 1.8 4.6 1.8 4.6l0.7 2l0.6 2c3.5 15.6 -4.2 31.2 -18.8 37.8l-1.9 0.8l-2 0.7c-15.2 4.6 -31.6 -2.2 -38.9 -16.4l-0.9 -1.9l-0.8 -1.9l-0.1 0l-1.4 -3.7c-40.8 -95.6 -173.4 -95.6 -214.2 0l-1.4 3.7" opacity="0" style="animation-name: eaf-8a45-19;"/>
        <path d="m607 523.5l0.8 1.9l0.9 1.9c7.4 14.1 23.7 21 38.9 16.4l2 -0.7l1.9 -0.8c14.6 -6.5 22.3 -22.2 18.8 -37.8l-0.6 -2l-0.7 -2l0 0.1l-2.3 -6l-2.4 -6c-46.4 -110.1 -152.7 -182.3 -272.2 -185l-6.4 -0.1l-6.4 0.1c-119.5 2.7 -225.8 74.9 -272.2 185l-2.4 6l-2.3 6l0 -0.1l-0.7 2l-0.6 2c-3.5 15.6 4.2 31.2 18.8 37.8l1.9 0.8l2 0.7c15.2 4.6 31.6 -2.2 38.9 -16.4l0.9 -1.9l0.8 -1.9l0.1 0.1l2 -5.3l2.1 -5.2c36.5 -85.1 118.8 -141 211.4 -143.3l5.6 -0.1l5.6 0.1c92.6 2.3 175 58.2 211.4 143.3l2.1 5.2l2.2999 5.2" opacity="0" style="animation-name: eaf-8a45-20; fill: rgb(238, 185, 36);"/>
      </g>
    </g>
  </g>
</svg>