<svg xmlns="http://www.w3.org/2000/svg" viewBox="0 0 499.20001220703125 498.3999938964844" overflow="hidden" preserveAspectRatio="xMidYMid meet" id="eaf-7b7d-0"><defs><clipPath id="eaf-7b7d-1"><rect x="0" y="0" width="499.2" height="498.4"></rect></clipPath><style>#eaf-7b7d-0 * {animation: 7000ms linear infinite normal both running;offset-rotate:0deg}@keyframes eaf-7b7d-2{0%,100%{transform:translate(249.6px,250px)}}@keyframes eaf-7b7d-3{0%{transform:rotate(0)}14.29%{transform:rotate(0);animation-timing-function:ease-in-out}25.71%,100%{transform:rotate(360deg)}}@keyframes eaf-7b7d-4{0%{transform:scale(1,1)}35.24%{transform:scale(1,1);animation-timing-function:ease-in-out}40.01%{transform:scale(1.0781,0.6635)}42.87%{transform:scale(1.0781,0.6635);animation-timing-function:ease-in-out}44.77%{transform:scale(0.5,0.5)}95.24%{transform:scale(0.5,0.5);animation-timing-function:ease-in-out}97.63%,100%{transform:scale(1,1)}}@keyframes eaf-7b7d-5{0%,100%{transform:translate(-255.4px,-249.2px)}}@keyframes eaf-7b7d-6{0%,100%{transform:none;offset-path:path("m140.5719 246.2117l0 0.3871l-129.0557 -29.6488l0 0l475.9701 118.0579l0 0l-250.315 -84.2")}}@keyframes eaf-7b7d-7{0%{offset-distance:0%}50%{offset-distance:0.0436%}61.91%{offset-distance:14.9674%}67.16%{offset-distance:14.9674%}82.39%{offset-distance:70.2357%}85.24%{offset-distance:70.2357%}90.96%,100%{offset-distance:100%}}@keyframes eaf-7b7d-8{0%{transform:rotate(12deg)}61.91%{transform:rotate(11deg)}67.16%{transform:rotate(-163deg)}82.39%{transform:rotate(-163deg)}85.24%,100%{transform:rotate(-334deg)}}@keyframes eaf-7b7d-9{0%,100%{transform:matrix(1.661,0,0,1.661,-42.3218,-430.8304)}}@keyframes eaf-7b7d-10{0%{opacity:0}48.57%{opacity:0}50%{opacity:1}90.96%{opacity:1}91.43%,100%{opacity:0}}@keyframes eaf-7b7d-11{0%{opacity:0}48.57%{opacity:0}49.06%{opacity:1}70%{opacity:1}70.47%{opacity:0}82.39%{opacity:0}82.86%{opacity:1}90.96%{opacity:1}91.43%,100%{opacity:0}}</style></defs><g clip-path="url('#eaf-7b7d-1')" style="isolation: isolate;"><g><g><path fill="#444444" d="m498.1 249.4c0 62.3 0 124.7 0 187c0 28.6 -21.6 54.7 -49.7 60c-4.2 0.8 -8.5 1.2 -12.7 1.2c-124.2 0.1 -248.5 0 -372.7 0c-30.5 0 -57 -23.4 -61 -53.7c-0.4 -2.7 -0.6 -5.4 -0.6 -8.1c0 -124.5 0 -249.1 0 -373.7c0 -28.6 21.6 -54.7 49.7 -60c4.1 -0.6 8.4 -1.1 12.6 -1.1c124.4 -0.1 248.7 0 373 0c28.6 0 54.7 21.6 60 49.7c0.8 4.2 1.2 8.5 1.2 12.7c0.2 62 0.2 124 0.2 186z"></path></g><g transform="translate(-5.8 0.8)" style="animation-name: eaf-7b7d-2, eaf-7b7d-3, eaf-7b7d-4, eaf-7b7d-5; animation-composition: replace, add, add, add;"><g><g><ellipse fill="#faf6dc" stroke="#ffffff" stroke-width="28" stroke-miterlimit="8" rx="222.8" ry="222.8" transform="translate(255.4 249.2)"></ellipse></g></g><g><g><path fill="#ffffff" stroke="#ffffff" stroke-width="5" stroke-miterlimit="10" d="m438.6 350c-2.2 -3.3 -5.6 -5.6 -9.5 -7.2l3.9 -2.2c-3.9 0.6 -7.2 1.7 -11.1 2.2c-2.8 0.6 -13.4 2.8 -17.8 3.3c-1.1 -3.3 -3.3 -4.5 -7.2 -3.9l-2.2 -3.3c-1.7 1.1 -2.2 2.2 -0.6 3.9c-4.5 3.9 -5.6 7.8 -6.7 12.8c-1.1 -1.7 -4.5 -13.9 -2.2 -11.7l2.8 -1.1c-1.1 -10 -2.8 2.2 -13.9 2.8c-1.1 3.9 -3.3 7.2 -6.7 10c-2.2 1.1 -4.5 2.8 -5.6 4.5c-3.9 -1.7 -7.2 -2.8 -11.7 -3.3l0 -0.6c-3.9 1.7 -10.6 3.3 -13.9 3.9c-0.6 0.6 -1.7 1.1 -2.8 0.6c-6.1 -5 -12.8 -21.2 -6.1 -30.1c-1.7 -1.1 -21.7 -7.8 -25.6 -2.2c-0.6 0 -1.7 -0.6 -2.2 -0.6l0.6 0.6l-1.7 -1.1c2.8 -3.3 3.9 -7.8 3.9 -12.8l-1.1 0l0 -0.6c1.1 -0.6 1.7 0 2.2 1.1c2.8 -3.3 3.3 -5.6 0.6 -7.2c0.6 -2.2 1.7 -3.9 2.2 -6.1c3.9 -1.1 7.2 -2.8 8.4 -3.3l-1.7 1.1c10 -0.6 18.4 2.2 25.6 8.4l-2.8 3.3l6.7 -1.1c3.3 -0.6 6.1 -1.1 9.5 -1.7c0 1.1 1.1 2.2 2.2 2.8c-2.8 1.7 -6.1 2.2 -9.5 1.1c0 2.8 1.7 3.3 4.5 1.7c6.1 -0.6 7.8 -1.1 10 2.2c0 -2.2 1.1 -3.9 2.8 -4.5c2.2 0.6 5.6 -1.1 9.5 0c2.8 -2.8 1.7 -3.9 -3.3 -3.9l0 -1.7999c-3.3 -1.1 -8.4 -1.1 -11.7 -0.6c-3.3 -1.7 -5.6 -1.7 -7.2 0c-1.1 0 -2.8 0 -4.5 0.6c-10.6 -6.1 -30.6 -14.5 -43.4 -4.5c-22.3 8.9 -51.2 24.5 -47.3 -16.7c2.2 -21.7 17.8 -31.7 39 -25.1c-1.7 -1.1 -2.2 -2.2 -2.2 -4.5c19.5 -6.7 15.6 6.1 25.1 -0.6c0.6 1.1 16.2 27.3 20.1 23.4c-3.3 -13.4 -7.2 -25.6 -3.3 -39.5c2.8 -8.9 12.8 -8.9 12.8 -20.1c-1.1 -2.2 -2.8 -4.5 -5.6 -6.1l2.8 0.6c-1.7 -1.7 -1.7 -3.3 -1.1 -5c0 2.8 1.1 4.5 3.9 5.6l-0.6 3.3l0.6 0c2.8 -3.9 2.8 -7.8 -1.1 -11.1c1.7 0 2.8 1.1 3.3 2.2c1.7 -2.2 2.2 -4.5 1.7 -7.2l-1.1 0l0.6 -1.7l0 0.6c2.8 -0.6 5 -1.1 7.2 -2.2c-2.2 -0.6 -4.5 -0.6 -6.7 0.6c3.9 -2.2 8.4 -3.9 12.8 -5c0 -1.1 -0.6 -1.7 -1.7 -2.2l1.1 1.7c-4.5 -5 -3.3 -11.1 6.1 -15l1.1 -0.6c2.8 -1.1 5.6 -1.7 8.9 -2.2c-2.2 4.5 -6.1 2.8 -2.8 8.4c7.8 0.6 12.8 -3.9 15.6 -13.4c-2.2 -0.6 -3.9 -1.7 -4.5 -4.5c-1.1 1.7 -2.2 2.8 -3.3 3.3c-2.8 1.1 -5.6 0.6 -7.2 -1.7c0 0.6 0 0.6 -0.6 1.1c-1.7 -1.7 -2.8 -4.5 -3.9 -8.4c-8.4 -1.1 -15 3.9 -18.9 11.7c8.4 -19.5 17.3 -15 27.3 -22.8c-2.2 5.6 -1.1 8.9 3.3 10.6c-2.2 6.7 4.5 1.1 12.3 1.7l-0.6 2.2c2.2 -0.6 2.8 -2.2 2.8 -4.5c1.7 1.7 2.8 6.1 6.1 3.9c-1.7 -2.8 -3.9 -5.6 -5.6 -8.4l-1.1 0.6c0 -2.8 -1.7 -4.5 -4.5 -3.9l-0.6 1.1l-3.3 -0.6l0 -1.7l-2.2 -0.6l-1.1 1.7c0 -2.2 -0.6 -4.5 -0.6 -6.7c1.1 -1.1 1.7 -2.2 2.8 -3.3c-7.2 -7.2 -34.5 -21.7 -42.3 -26.2c1.1 3.9 0.6 6.7 -2.8 8.9c-8.4 -8.4 -20.1 -15 -32.9 -12.3c3.3 7.2 7.2 7.2 3.9 12.8c9.5 5 10.6 10.6 1.1 16.2c7.8 6.7 9.5 11.1 3.3 14.5c-6.7 -3.3 -10.6 -8.4 -11.7 -15.6c-15.6 -3.3 -27.9 -5 -37.9 -13.9c-0.6 -6.7 5.6 -13.4 9.5 -17.3c2.8 -0.6 5 -2.2 6.7 -4.5c0 1.7 -0.6 3.3 -2.2 4.5c2.2 -1.1 3.9 -0.6 4.5 1.7c1.7 -1.1 3.3 -2.2 5 -3.9c1.1 1.1 2.2 1.7 3.3 2.2c1.7 1.1 3.9 0 4.5 -1.7l-1.7 0c-0.6 -0.6 -1.7 -0.6 -2.2 0c-1.7 -2.8 -5.6 -4.5 -8.9 -3.9l0 -0.6c0.6 -1.1 1.1 -2.2 1.1 -3.9c8.9 0.6 10.6 -1.7 6.1 -5.6c1.1 -1.7 1.1 -2.8 0.6 -3.3c1.1 -0.6 2.2 -1.7 2.8 -3.3c2.2 0.6 3.9 1.7 6.1 2.8l-0.6 1.1c3.9 0 7.8 1.7 10.6 4.5c-1.1 2.2 -1.1 4.5 0.6 6.1c-2.8 0.6 -5.6 1.1 -8.4 1.1l-0.6 2.8c2.8 1.1 5.6 1.1 8.4 0l-0.6 -1.1c2.8 1.1 5.6 1.7 8.4 2.8l0 1.1c5 2.2 10.6 3.3 16.7 3.3c-2.8 -2.2 -6.1 -3.9 -9.5 -5.6c3.3 1.1 6.7 1.7 10.6 2.2c-3.3 -5 -8.9 -8.9 -14.5 -11.1c3.9 -1.7 7.2 -1.1 11.1 2.8c0.6 -9.5 -5 -12.8 -17.8 -10l2.2 -1.7c-1.1 -0.6 -20.6 -7.8 -24.5 -8.4c-0.6 1.7 -1.7 2.2 -3.9 2.2c0 -1.1 -0.6 -2.2 -0.6 -2.8c0.6 0.6 1.1 0.6 1.7 1.1c1.7 -0.6 3.3 -0.6 5 -0.6c-2.2 -2.2 -5 -2.8 -7.8 -1.7c-0.6 -0.6 -1.1 -0.6 -1.7 -0.6c0.6 -0.6 1.1 -0.6 1.1 -1.1c-0.6 -0.6 -1.7 -0.6 -2.8 -1.1c1.1 -0.6 1.7 -1.1 1.1 -1.7c1.7 -1.1 2.2 -1.7 1.1 -2.2c15.6 -0.6 29 8.4 42.9 11.7c-1.7 -0.6 -3.3 0 -5 0.6c3.9 5.6 6.7 5.6 7.8 1.1c3.3 1.7 4.5 3.3 2.2 5c11.7 11.7 27.9 21.2 44.6 20.6c-6.1 -5 -11.7 -11.1 -15.6 -18.4c3.9 -3.9 2.8 -7.2 -2.8 -11.1c3.3 -3.3 2.2 -6.1 -2.8 -9.5c-1.1 0.6 -2.2 1.1 -2.8 1.7c-1.1 -1.7 -2.8 -2.8 -5 -2.8c1.7 0.6 3.9 0.6 5.6 1.1l0 -1.1c-3.3 -1.1 -7.2 -2.2 -10.6 -2.8l2.8 0c-1.7 -1.1 -3.9 -1.7 -6.1 -1.7c1.7 -1.7 0 -2.8 -3.3 -2.2l0.6 -1.1c-1.7 0 -3.9 -0.6 -5 -1.7c-2.8 -0.6 -6.1 -1.1 -8.9 -2.2l0 -0.6c-6.7 -6.1 -12.3 -7.2 -16.7 -3.9c-0.6 -3.3 -3.3 -3.9 -8.4 -2.8c0.6 1.1 1.7 1.7 2.2 2.2c-1.7 -0.6 -2.8 -1.1 -4.5 -1.1l1.1 0.6c-2.2 0.6 -2.2 0.6 -3.9 0.6l1.7 -1.7c-3.3 -1.1 -7.2 -1.1 -10 1.1l1.1 0.6l-1.7 0.6c1.1 1.1 2.2 2.2 3.9 2.2l2.2 0l-6.1 0l0.6 1.1c-2.2 -0.6 -3.9 0 -5.6 1.7l1.7 0.6c-0.6 1.1 -0.6 1.7 -1.1 1.7c-2.8 0 -5.6 0.6 -7.8 1.1l0 1.3c-2.2 -1.1 -3.9 -0.6 -5.6 1.1c0 0.6 0.6 1.1 1.1 1.1c2.2 1.7 5 2.2 7.8 1.7c-1.1 1.1 -2.2 1.7 -4.5 0.6l0.6 0.6c-2.2 -2.2 -4.5 -3.3 -7.8 -2.8l0.6 0.6c-2.2 1.1 -2.8 2.2 -1.1 3.3c-1.1 -0.6 -2.8 0 -3.9 0.6l-1.1 0l-0.6 2.8l2.2 0l-0.6 1.7c0.6 0 1.1 0.6 1.7 0.6c0.6 0.6 1.1 0.6 1.7 0.6c0.6 0.6 1.1 1.1 2.2 1.7c-1.7 0.6 -2.2 1.7 -2.2 3.9c-2.2 -0.6 -3.9 0 -5 1.1l1.1 1.7l-3.3 -0.6l0 1.1c1.7 0.6 3.3 2.2 4.5 3.3c0.6 0 0.6 0 1.1 0.6c-0.6 1.1 -1.7 1.7 -2.8 2.2c1.7 1.1 3.3 1.7 5 1.7c0.6 1.1 0.6 1.7 1.1 2.2c-1.7 -0.6 -2.8 0 -2.8 2.2c-1.1 -4.5 -2.8 -4.5 -4.5 -1.7c-3.3 0 -6.7 -0.6 -10.6 -1.1c1.7 -0.6 2.8 -1.7 3.9 -3.3l-1.1 -1.1c2.2 0.6 3.3 0.6 3.3 -1.7c-4.5 -0.6 -6.1 -2.2 -5.6 -5.6c0.5 -3.4 -1.1 -5 -4.5 -4.5c0.6 1.7 0 3.3 -1.1 3.9c0 -3.9 -1.1 -5 -3.3 -2.8c-1.1 -2.2 -2.8 -2.2 -5 -1.1l1.7 -1.1c-0.6 -0.6 -1.7 -0.6 -2.2 -1.1l0.6 0c-2.8 -2.8 -6.7 -4.5 -11.1 -3.9c0 3.3 -2.8 5.6 -7.8 6.1c1.7 0.6 2.2 1.7 1.7 3.3c3.3 -0.6 6.1 -1.7 9.5 -3.3c-0.6 0.6 -1.7 1.1 -2.2 2.2c1.1 1.1 2.8 1.7 4.5 1.1l-4.5 0.6l0 1.1c3.3 0 6.1 0.6 8.9 1.7c-3.3 0 -6.1 0 -8.9 0.6l0.6 2.8c2.8 -0.6 4.5 0.6 3.9 2.2c1.7 1.1 3.3 1.7 5 2.2c-3.3 0.6 -6.7 0.6 -9.5 -0.6l3.3 -1.1c-2.8 -3.9 -7.2 -6.1 -12.8 -6.1c-1.1 1.1 -2.2 1.1 -3.9 1.1l1.7 -2.2l-3.9 1.7c0.6 -1.7 0.6 -2.8 -1.1 -3.3c-1.1 1.1 -2.2 1.7 -3.3 1.7l0 -1.3c-12.8 0 -18.9 0 -26.7 -8.9l1.1 -0.6c-0.6 -1.1 -1.7 -1.1 -2.8 -0.6c1.1 -0.6 1.7 -1.7 1.1 -2.2c-13.4 -2.8 -19.5 1.7 -27.9 10l-1.7 -1.1l2.2 -1.1c-7.2 -2.2 -11.1 1.1 -8.9 5l-0.6 1.1c1.1 -0.6 2.8 -0.6 3.9 0c-1.7 1.1 -6.1 2.2 -6.7 2.2l-2.8 0.6l0 -1.1c-6.7 0.6 -11.7 3.9 -15 9.5l2.2 0.6c-1.1 1.7 -2.8 3.3 -5 4.5c1.1 1.1 2.2 0.6 3.3 0l-0.6 2.8l1.7 -1.1l-1.7 2.2l2.2 -0.6l-0.6 0.6l2.8 0c-8.9 4.5 -17.8 7.2 -27.3 8.4c16.7 1.7 30.6 -7.2 45.7 -11.7c-1.7 3.3 -5 5.6 -10 6.1c6.7 -0.6 8.9 -0.6 13.9 -2.8c0.6 10 26.2 18.4 13.9 32.3c1.7 2.2 1.7 4.5 0 6.7l2.2 2.2c-3.3 2.8 -3.3 5 -1.7 7.2c-1.1 -0.6 -2.2 -1.1 -3.3 -1.1c-2.8 2.2 1.7 6.7 3.3 7.8c0.6 2.8 3.3 4.5 6.1 3.9c0 -2.8 -0.6 -5 -1.7 -6.7c3.9 3.3 7.8 6.7 2.2 12.8c1.1 -3.3 -0.6 -5.6 -3.9 -6.7c-10 32.9 -13.4 41.2 -1.1 69.1c5.6 11.7 12.3 24 8.4 31.7c1.7 2.2 3.3 4.5 5.6 6.1l0.6 -0.6c4.5 2.2 6.1 6.1 4.5 10.6c1.7 6.7 5 10 10 10.6c2.8 -1.7 -17.8 -40.1 -11.7 -29.5c-1.1 -6.1 -2.2 -11.7 -4.5 -17.3c11.1 5.6 8.4 23.4 20.6 29l-1.1 3.3c9.5 6.7 15 17.3 17.3 27.9l-1.7 0.6c18.4 23.4 63.5 37.3 91.3 36.8c1.7 0 2.2 0.6 2.8 2.2l-0.6 0.6l-1.1 -0.6l0.6 1.1c3.3 2.8 7.2 5.6 10.6 8.9l-1.1 1.1l1.7 0.6c-1.1 2.8 0 5 3.3 6.1c1.1 -0.6 1.1 -1.7 0.6 -2.8c1.1 0.6 1.7 1.1 1.7 2.2c2.8 3.3 6.1 5.6 9.5 7.2l0 -1.1c6.1 0 5.6 2.2 9.5 1.7l1.1 2.8c1.7 0 3.3 -0.6 4.5 -2.2c-2.8 -6.7 1.7 -7.2 8.9 -4.5l-1.1 1.7c2.8 3.3 8.4 13.9 5.6 19.5l1.7 1.1c-1.1 1.1 -8.4 8.4 -7.2 11.1l-1.7 0.6l0.6 1.7c-5 3.9 -8.9 7.2 -10.6 12.8c1.1 2.2 1.1 3.9 0 5.6l3.3 1.7l2.2 -2.2c-3.3 5 -6.7 12.8 -6.7 18.9c1.1 1.1 2.8 2.2 3.9 3.3c38.3 -19.0001 71.1 -50.1001 92.8 -88.6001l0 0zm-152.6 -280.7l2.8 0c-0.6 0 -1.1 0.6 -1.1 0.6c-1.1 -0.1 -1.1 -0.6 -1.7 -0.6zm-20 13.4c0 0 0 -0.6 0 0c0 -0.6 0 0 0 0zm17.2 -4.5c-0.6 0.6 -1.1 1.1 -1.1 1.7c-1.1 -0.6 -1.1 -1.1 -1.7 -1.7l2.8 0zm-7.2 -8.9l-0.6 -0.6c0.6 0 0.6 0.6 1.1 0.6l0 1.1c-1.1 0 -1.7 0.6 -2.2 1.7c1.7 0 2.8 0.6 3.9 1.7c-1.1 -1.1 -2.8 -1.1 -3.9 -0.6l0.6 1.7c-1.1 0 -2.2 -0.6 -3.3 -0.6l0 -1.1c-0.6 -0.6 -1.1 -1.1 -1.7 -1.1c2.2 -0.6 3.9 -1.7 6.1 -2.8zm-9.5 0c0 0 0.6 0 0 0c0.6 0 0 0 0 0zm1.2 1.1l0.6 0l0 -0.6c-0.6 -0.6 -1.1 -0.6 -1.1 -0.6l1.7 0c0 0.6 0.6 1.1 0.6 1.7c-0.7 0.1 -1.3 -0.5 -1.8 -0.5zm-0.6 11.7c0 0 0.6 0 0.6 -0.6l0.6 0l3.9 -3.9c1.7 0.6 2.8 0.6 4.5 0.6l1.1 0c-4.5 4.5 -4.5 6.1 0 5.6l-1.7 1.7c3.3 2.2 5.6 3.3 8.4 4.5c0.6 2.2 0 5 -2.2 6.7c-1.7 -2.8 -2.8 -3.9 -5 -6.7l-2.2 2.8l-0.6 -3.3l-2.2 -0.6c3.1 -2.9 1.5 -5.1 -5.2 -6.8l0 0zm-28.4 12.8l-1.1 -1.7c1.1 0.6 1.7 0.6 2.8 0.6c0 0 -1.7 1.1 -1.7 1.1z"></path></g></g></g><g transform="matrix(1.6247 0.3453 -0.3453 1.6247 188.7496 -184.0032)" opacity="0" style="animation-name: eaf-7b7d-6, eaf-7b7d-7, eaf-7b7d-8, eaf-7b7d-9, eaf-7b7d-10; animation-composition: replace, add, add, add, replace;"><g style="filter: blur(2px);"><path fill="#ffa632" d="m0 0c0 0 9.9466 -5.274 10.8509 -7.2q0.9042 -1.926 11.303 -8.65q21.2496 0 22.1539 0q0.9042 0 12.6594 8.65q-19.4023 4.2108 -19.4023 4.2108q0 0 33.15 10.9891l-38.6143 5.35l-21.2496 -7.25l-10.8509 -1.65q0 -4.45 0 -4.45z" transform="translate(93.9878 256.4)"></path></g><path fill="#b7001b" stroke="#000000" stroke-width="18" paint-order="stroke" d="m-0.8956 1.3877l25.7009 -25.7265q6.9227 -5.3444 96.4615 11.1225q19.7938 -2.0266 25.6792 -23.9716q28.0719 0.701 29.5 0q1.4281 -0.701 -24.45 37.2755l24.45 18.1023q-17.4245 -0.5692 -29.5 0c-12.0755 0.5692 -12.0239 -18.3387 -24.05 -16.8023q-12.0261 1.5364 -96.1027 16.8023l-27.6889 -16.8023z" transform="matrix(0.4827 0 0 0.6717 20.182 259.713)"></path></g><g transform="matrix(0.5 0 0 0.5 121.9 125.4)" opacity="0" style="animation-name: eaf-7b7d-11;"><g><g><ellipse fill="#faf6dc" stroke="#ffffff" stroke-width="28" stroke-miterlimit="8" rx="222.8" ry="222.8" transform="translate(255.4 249.2)"></ellipse></g></g><g><g><path fill="#ffffff" stroke="#ffffff" stroke-width="5" stroke-miterlimit="10" d="m438.6 350c-2.2 -3.3 -5.6 -5.6 -9.5 -7.2l3.9 -2.2c-3.9 0.6 -7.2 1.7 -11.1 2.2c-2.8 0.6 -13.4 2.8 -17.8 3.3c-1.1 -3.3 -3.3 -4.5 -7.2 -3.9l-2.2 -3.3c-1.7 1.1 -2.2 2.2 -0.6 3.9c-4.5 3.9 -5.6 7.8 -6.7 12.8c-1.1 -1.7 -4.5 -13.9 -2.2 -11.7l2.8 -1.1c-1.1 -10 -2.8 2.2 -13.9 2.8c-1.1 3.9 -3.3 7.2 -6.7 10c-2.2 1.1 -4.5 2.8 -5.6 4.5c-3.9 -1.7 -7.2 -2.8 -11.7 -3.3l0 -0.6c-3.9 1.7 -10.6 3.3 -13.9 3.9c-0.6 0.6 -1.7 1.1 -2.8 0.6c-6.1 -5 -12.8 -21.2 -6.1 -30.1c-1.7 -1.1 -21.7 -7.8 -25.6 -2.2c-0.6 0 -1.7 -0.6 -2.2 -0.6l0.6 0.6l-1.7 -1.1c2.8 -3.3 3.9 -7.8 3.9 -12.8l-1.1 0l0 -0.6c1.1 -0.6 1.7 0 2.2 1.1c2.8 -3.3 3.3 -5.6 0.6 -7.2c0.6 -2.2 1.7 -3.9 2.2 -6.1c3.9 -1.1 7.2 -2.8 8.4 -3.3l-1.7 1.1c10 -0.6 18.4 2.2 25.6 8.4l-2.8 3.3l6.7 -1.1c3.3 -0.6 6.1 -1.1 9.5 -1.7c0 1.1 1.1 2.2 2.2 2.8c-2.8 1.7 -6.1 2.2 -9.5 1.1c0 2.8 1.7 3.3 4.5 1.7c6.1 -0.6 7.8 -1.1 10 2.2c0 -2.2 1.1 -3.9 2.8 -4.5c2.2 0.6 5.6 -1.1 9.5 0c2.8 -2.8 1.7 -3.9 -3.3 -3.9l0 -1.7999c-3.3 -1.1 -8.4 -1.1 -11.7 -0.6c-3.3 -1.7 -5.6 -1.7 -7.2 0c-1.1 0 -2.8 0 -4.5 0.6c-10.6 -6.1 -30.6 -14.5 -43.4 -4.5c-22.3 8.9 -51.2 24.5 -47.3 -16.7c2.2 -21.7 17.8 -31.7 39 -25.1c-1.7 -1.1 -2.2 -2.2 -2.2 -4.5c19.5 -6.7 15.6 6.1 25.1 -0.6c0.6 1.1 16.2 27.3 20.1 23.4c-3.3 -13.4 -7.2 -25.6 -3.3 -39.5c2.8 -8.9 12.8 -8.9 12.8 -20.1c-1.1 -2.2 -2.8 -4.5 -5.6 -6.1l2.8 0.6c-1.7 -1.7 -1.7 -3.3 -1.1 -5c0 2.8 1.1 4.5 3.9 5.6l-0.6 3.3l0.6 0c2.8 -3.9 2.8 -7.8 -1.1 -11.1c1.7 0 2.8 1.1 3.3 2.2c1.7 -2.2 2.2 -4.5 1.7 -7.2l-1.1 0l0.6 -1.7l0 0.6c2.8 -0.6 5 -1.1 7.2 -2.2c-2.2 -0.6 -4.5 -0.6 -6.7 0.6c3.9 -2.2 8.4 -3.9 12.8 -5c0 -1.1 -0.6 -1.7 -1.7 -2.2l1.1 1.7c-4.5 -5 -3.3 -11.1 6.1 -15l1.1 -0.6c2.8 -1.1 5.6 -1.7 8.9 -2.2c-2.2 4.5 -6.1 2.8 -2.8 8.4c7.8 0.6 12.8 -3.9 15.6 -13.4c-2.2 -0.6 -3.9 -1.7 -4.5 -4.5c-1.1 1.7 -2.2 2.8 -3.3 3.3c-2.8 1.1 -5.6 0.6 -7.2 -1.7c0 0.6 0 0.6 -0.6 1.1c-1.7 -1.7 -2.8 -4.5 -3.9 -8.4c-8.4 -1.1 -15 3.9 -18.9 11.7c8.4 -19.5 17.3 -15 27.3 -22.8c-2.2 5.6 -1.1 8.9 3.3 10.6c-2.2 6.7 4.5 1.1 12.3 1.7l-0.6 2.2c2.2 -0.6 2.8 -2.2 2.8 -4.5c1.7 1.7 2.8 6.1 6.1 3.9c-1.7 -2.8 -3.9 -5.6 -5.6 -8.4l-1.1 0.6c0 -2.8 -1.7 -4.5 -4.5 -3.9l-0.6 1.1l-3.3 -0.6l0 -1.7l-2.2 -0.6l-1.1 1.7c0 -2.2 -0.6 -4.5 -0.6 -6.7c1.1 -1.1 1.7 -2.2 2.8 -3.3c-7.2 -7.2 -34.5 -21.7 -42.3 -26.2c1.1 3.9 0.6 6.7 -2.8 8.9c-8.4 -8.4 -20.1 -15 -32.9 -12.3c3.3 7.2 7.2 7.2 3.9 12.8c9.5 5 10.6 10.6 1.1 16.2c7.8 6.7 9.5 11.1 3.3 14.5c-6.7 -3.3 -10.6 -8.4 -11.7 -15.6c-15.6 -3.3 -27.9 -5 -37.9 -13.9c-0.6 -6.7 5.6 -13.4 9.5 -17.3c2.8 -0.6 5 -2.2 6.7 -4.5c0 1.7 -0.6 3.3 -2.2 4.5c2.2 -1.1 3.9 -0.6 4.5 1.7c1.7 -1.1 3.3 -2.2 5 -3.9c1.1 1.1 2.2 1.7 3.3 2.2c1.7 1.1 3.9 0 4.5 -1.7l-1.7 0c-0.6 -0.6 -1.7 -0.6 -2.2 0c-1.7 -2.8 -5.6 -4.5 -8.9 -3.9l0 -0.6c0.6 -1.1 1.1 -2.2 1.1 -3.9c8.9 0.6 10.6 -1.7 6.1 -5.6c1.1 -1.7 1.1 -2.8 0.6 -3.3c1.1 -0.6 2.2 -1.7 2.8 -3.3c2.2 0.6 3.9 1.7 6.1 2.8l-0.6 1.1c3.9 0 7.8 1.7 10.6 4.5c-1.1 2.2 -1.1 4.5 0.6 6.1c-2.8 0.6 -5.6 1.1 -8.4 1.1l-0.6 2.8c2.8 1.1 5.6 1.1 8.4 0l-0.6 -1.1c2.8 1.1 5.6 1.7 8.4 2.8l0 1.1c5 2.2 10.6 3.3 16.7 3.3c-2.8 -2.2 -6.1 -3.9 -9.5 -5.6c3.3 1.1 6.7 1.7 10.6 2.2c-3.3 -5 -8.9 -8.9 -14.5 -11.1c3.9 -1.7 7.2 -1.1 11.1 2.8c0.6 -9.5 -5 -12.8 -17.8 -10l2.2 -1.7c-1.1 -0.6 -20.6 -7.8 -24.5 -8.4c-0.6 1.7 -1.7 2.2 -3.9 2.2c0 -1.1 -0.6 -2.2 -0.6 -2.8c0.6 0.6 1.1 0.6 1.7 1.1c1.7 -0.6 3.3 -0.6 5 -0.6c-2.2 -2.2 -5 -2.8 -7.8 -1.7c-0.6 -0.6 -1.1 -0.6 -1.7 -0.6c0.6 -0.6 1.1 -0.6 1.1 -1.1c-0.6 -0.6 -1.7 -0.6 -2.8 -1.1c1.1 -0.6 1.7 -1.1 1.1 -1.7c1.7 -1.1 2.2 -1.7 1.1 -2.2c15.6 -0.6 29 8.4 42.9 11.7c-1.7 -0.6 -3.3 0 -5 0.6c3.9 5.6 6.7 5.6 7.8 1.1c3.3 1.7 4.5 3.3 2.2 5c11.7 11.7 27.9 21.2 44.6 20.6c-6.1 -5 -11.7 -11.1 -15.6 -18.4c3.9 -3.9 2.8 -7.2 -2.8 -11.1c3.3 -3.3 2.2 -6.1 -2.8 -9.5c-1.1 0.6 -2.2 1.1 -2.8 1.7c-1.1 -1.7 -2.8 -2.8 -5 -2.8c1.7 0.6 3.9 0.6 5.6 1.1l0 -1.1c-3.3 -1.1 -7.2 -2.2 -10.6 -2.8l2.8 0c-1.7 -1.1 -3.9 -1.7 -6.1 -1.7c1.7 -1.7 0 -2.8 -3.3 -2.2l0.6 -1.1c-1.7 0 -3.9 -0.6 -5 -1.7c-2.8 -0.6 -6.1 -1.1 -8.9 -2.2l0 -0.6c-6.7 -6.1 -12.3 -7.2 -16.7 -3.9c-0.6 -3.3 -3.3 -3.9 -8.4 -2.8c0.6 1.1 1.7 1.7 2.2 2.2c-1.7 -0.6 -2.8 -1.1 -4.5 -1.1l1.1 0.6c-2.2 0.6 -2.2 0.6 -3.9 0.6l1.7 -1.7c-3.3 -1.1 -7.2 -1.1 -10 1.1l1.1 0.6l-1.7 0.6c1.1 1.1 2.2 2.2 3.9 2.2l2.2 0l-6.1 0l0.6 1.1c-2.2 -0.6 -3.9 0 -5.6 1.7l1.7 0.6c-0.6 1.1 -0.6 1.7 -1.1 1.7c-2.8 0 -5.6 0.6 -7.8 1.1l0 1.3c-2.2 -1.1 -3.9 -0.6 -5.6 1.1c0 0.6 0.6 1.1 1.1 1.1c2.2 1.7 5 2.2 7.8 1.7c-1.1 1.1 -2.2 1.7 -4.5 0.6l0.6 0.6c-2.2 -2.2 -4.5 -3.3 -7.8 -2.8l0.6 0.6c-2.2 1.1 -2.8 2.2 -1.1 3.3c-1.1 -0.6 -2.8 0 -3.9 0.6l-1.1 0l-0.6 2.8l2.2 0l-0.6 1.7c0.6 0 1.1 0.6 1.7 0.6c0.6 0.6 1.1 0.6 1.7 0.6c0.6 0.6 1.1 1.1 2.2 1.7c-1.7 0.6 -2.2 1.7 -2.2 3.9c-2.2 -0.6 -3.9 0 -5 1.1l1.1 1.7l-3.3 -0.6l0 1.1c1.7 0.6 3.3 2.2 4.5 3.3c0.6 0 0.6 0 1.1 0.6c-0.6 1.1 -1.7 1.7 -2.8 2.2c1.7 1.1 3.3 1.7 5 1.7c0.6 1.1 0.6 1.7 1.1 2.2c-1.7 -0.6 -2.8 0 -2.8 2.2c-1.1 -4.5 -2.8 -4.5 -4.5 -1.7c-3.3 0 -6.7 -0.6 -10.6 -1.1c1.7 -0.6 2.8 -1.7 3.9 -3.3l-1.1 -1.1c2.2 0.6 3.3 0.6 3.3 -1.7c-4.5 -0.6 -6.1 -2.2 -5.6 -5.6c0.5 -3.4 -1.1 -5 -4.5 -4.5c0.6 1.7 0 3.3 -1.1 3.9c0 -3.9 -1.1 -5 -3.3 -2.8c-1.1 -2.2 -2.8 -2.2 -5 -1.1l1.7 -1.1c-0.6 -0.6 -1.7 -0.6 -2.2 -1.1l0.6 0c-2.8 -2.8 -6.7 -4.5 -11.1 -3.9c0 3.3 -2.8 5.6 -7.8 6.1c1.7 0.6 2.2 1.7 1.7 3.3c3.3 -0.6 6.1 -1.7 9.5 -3.3c-0.6 0.6 -1.7 1.1 -2.2 2.2c1.1 1.1 2.8 1.7 4.5 1.1l-4.5 0.6l0 1.1c3.3 0 6.1 0.6 8.9 1.7c-3.3 0 -6.1 0 -8.9 0.6l0.6 2.8c2.8 -0.6 4.5 0.6 3.9 2.2c1.7 1.1 3.3 1.7 5 2.2c-3.3 0.6 -6.7 0.6 -9.5 -0.6l3.3 -1.1c-2.8 -3.9 -7.2 -6.1 -12.8 -6.1c-1.1 1.1 -2.2 1.1 -3.9 1.1l1.7 -2.2l-3.9 1.7c0.6 -1.7 0.6 -2.8 -1.1 -3.3c-1.1 1.1 -2.2 1.7 -3.3 1.7l0 -1.3c-12.8 0 -18.9 0 -26.7 -8.9l1.1 -0.6c-0.6 -1.1 -1.7 -1.1 -2.8 -0.6c1.1 -0.6 1.7 -1.7 1.1 -2.2c-13.4 -2.8 -19.5 1.7 -27.9 10l-1.7 -1.1l2.2 -1.1c-7.2 -2.2 -11.1 1.1 -8.9 5l-0.6 1.1c1.1 -0.6 2.8 -0.6 3.9 0c-1.7 1.1 -6.1 2.2 -6.7 2.2l-2.8 0.6l0 -1.1c-6.7 0.6 -11.7 3.9 -15 9.5l2.2 0.6c-1.1 1.7 -2.8 3.3 -5 4.5c1.1 1.1 2.2 0.6 3.3 0l-0.6 2.8l1.7 -1.1l-1.7 2.2l2.2 -0.6l-0.6 0.6l2.8 0c-8.9 4.5 -17.8 7.2 -27.3 8.4c16.7 1.7 30.6 -7.2 45.7 -11.7c-1.7 3.3 -5 5.6 -10 6.1c6.7 -0.6 8.9 -0.6 13.9 -2.8c0.6 10 26.2 18.4 13.9 32.3c1.7 2.2 1.7 4.5 0 6.7l2.2 2.2c-3.3 2.8 -3.3 5 -1.7 7.2c-1.1 -0.6 -2.2 -1.1 -3.3 -1.1c-2.8 2.2 1.7 6.7 3.3 7.8c0.6 2.8 3.3 4.5 6.1 3.9c0 -2.8 -0.6 -5 -1.7 -6.7c3.9 3.3 7.8 6.7 2.2 12.8c1.1 -3.3 -0.6 -5.6 -3.9 -6.7c-10 32.9 -13.4 41.2 -1.1 69.1c5.6 11.7 12.3 24 8.4 31.7c1.7 2.2 3.3 4.5 5.6 6.1l0.6 -0.6c4.5 2.2 6.1 6.1 4.5 10.6c1.7 6.7 5 10 10 10.6c2.8 -1.7 -17.8 -40.1 -11.7 -29.5c-1.1 -6.1 -2.2 -11.7 -4.5 -17.3c11.1 5.6 8.4 23.4 20.6 29l-1.1 3.3c9.5 6.7 15 17.3 17.3 27.9l-1.7 0.6c18.4 23.4 63.5 37.3 91.3 36.8c1.7 0 2.2 0.6 2.8 2.2l-0.6 0.6l-1.1 -0.6l0.6 1.1c3.3 2.8 7.2 5.6 10.6 8.9l-1.1 1.1l1.7 0.6c-1.1 2.8 0 5 3.3 6.1c1.1 -0.6 1.1 -1.7 0.6 -2.8c1.1 0.6 1.7 1.1 1.7 2.2c2.8 3.3 6.1 5.6 9.5 7.2l0 -1.1c6.1 0 5.6 2.2 9.5 1.7l1.1 2.8c1.7 0 3.3 -0.6 4.5 -2.2c-2.8 -6.7 1.7 -7.2 8.9 -4.5l-1.1 1.7c2.8 3.3 8.4 13.9 5.6 19.5l1.7 1.1c-1.1 1.1 -8.4 8.4 -7.2 11.1l-1.7 0.6l0.6 1.7c-5 3.9 -8.9 7.2 -10.6 12.8c1.1 2.2 1.1 3.9 0 5.6l3.3 1.7l2.2 -2.2c-3.3 5 -6.7 12.8 -6.7 18.9c1.1 1.1 2.8 2.2 3.9 3.3c38.3 -19.0001 71.1 -50.1001 92.8 -88.6001l0 0zm-152.6 -280.7l2.8 0c-0.6 0 -1.1 0.6 -1.1 0.6c-1.1 -0.1 -1.1 -0.6 -1.7 -0.6zm-20 13.4c0 0 0 -0.6 0 0c0 -0.6 0 0 0 0zm17.2 -4.5c-0.6 0.6 -1.1 1.1 -1.1 1.7c-1.1 -0.6 -1.1 -1.1 -1.7 -1.7l2.8 0zm-7.2 -8.9l-0.6 -0.6c0.6 0 0.6 0.6 1.1 0.6l0 1.1c-1.1 0 -1.7 0.6 -2.2 1.7c1.7 0 2.8 0.6 3.9 1.7c-1.1 -1.1 -2.8 -1.1 -3.9 -0.6l0.6 1.7c-1.1 0 -2.2 -0.6 -3.3 -0.6l0 -1.1c-0.6 -0.6 -1.1 -1.1 -1.7 -1.1c2.2 -0.6 3.9 -1.7 6.1 -2.8zm-9.5 0c0 0 0.6 0 0 0c0.6 0 0 0 0 0zm1.2 1.1l0.6 0l0 -0.6c-0.6 -0.6 -1.1 -0.6 -1.1 -0.6l1.7 0c0 0.6 0.6 1.1 0.6 1.7c-0.7 0.1 -1.3 -0.5 -1.8 -0.5zm-0.6 11.7c0 0 0.6 0 0.6 -0.6l0.6 0l3.9 -3.9c1.7 0.6 2.8 0.6 4.5 0.6l1.1 0c-4.5 4.5 -4.5 6.1 0 5.6l-1.7 1.7c3.3 2.2 5.6 3.3 8.4 4.5c0.6 2.2 0 5 -2.2 6.7c-1.7 -2.8 -2.8 -3.9 -5 -6.7l-2.2 2.8l-0.6 -3.3l-2.2 -0.6c3.1 -2.9 1.5 -5.1 -5.2 -6.8l0 0zm-28.4 12.8l-1.1 -1.7c1.1 0.6 1.7 0.6 2.8 0.6c0 0 -1.7 1.1 -1.7 1.1z"></path></g></g></g></g></g></svg>