<svg id="egqz9tzsn5ck1" xmlns="http://www.w3.org/2000/svg" xmlns:xlink="http://www.w3.org/1999/xlink" viewBox="0 0 769 769" shape-rendering="geometricPrecision" text-rendering="geometricPrecision">
    <style>
        <![CDATA[#egqz9tzsn5ck1{pointer-events: all} #egqz9tzsn5ck1:hover * {animation-play-state: running !important}
		
		#egqz9tzsn5ck7_to {animation: egqz9tzsn5ck7_to__to 30000ms linear infinite normal forwards}@keyframes egqz9tzsn5ck7_to__to { 0% {transform: translate(0px,0px)} 3.333333% {transform: translate(-0.010000px,-32.621792px)} 20% {transform: translate(-0.010000px,98.534615px)} 36.666667% {transform: translate(-0.010000px,-38.050000px)} 53.333333% {transform: translate(-0.010000px,96.256316px)} 70% {transform: translate(-0.010000px,-31.444042px)} 86.666667% {transform: translate(2.060226px,95.257620px)} 100% {transform: translate(0px,0px)} }
		
		#egqz9tzsn5ck9_to {animation: egqz9tzsn5ck9_to__to 20000ms linear infinite normal forwards}@keyframes egqz9tzsn5ck9_to__to { 0% {transform: translate(0px,0px)} 3.333333% {transform: translate(0.001446px,43.151611px)} 13.333333% {transform: translate(0.001446px,-88.780827px)} 23.333333% {transform: translate(-0.232752px,43.977479px)} 33.333333% {transform: translate(0.001446px,-84.651486px)} 43.333333% {transform: translate(-0.232752px,43.923951px)} 53.333333% {transform: translate(0.001446px,-88.008155px)} 63.333333% {transform: translate(0.001446px,42.012079px)} 73.333333% {transform: translate(0.001446px,-88.529091px)} 83.333333% {transform: translate(0.001446px,42.354551px)} 93.333333% {transform: translate(0.001446px,-87.146240px)} 100% {transform: translate(0px,0px)} }
		
		#egqz9tzsn5ck11_to {animation: egqz9tzsn5ck11_to__to 50000ms linear infinite normal forwards}@keyframes egqz9tzsn5ck11_to__to { 0% {transform: translate(0px,0px)} 30% {transform: translate(0px,77.750000px)} 80% {transform: translate(0px,-47.841157px)} 100% {transform: translate(0px,0px)} }]]>
    </style>
    <g id="egqz9tzsn5ck2" transform="matrix(4 0 0 4 -825.44641111500027 -2258.58312988000034)">
        <path
            id="egqz9tzsn5ck3"
            d="M398.610000,660.790000C398.610000,684.850000,398.610000,708.920000,398.610000,732.980000C398.610000,744.010000,390.290000,754.090000,379.430000,756.160000C377.820000,756.470000,376.160000,756.640000,374.530000,756.640000C326.560000,756.670000,278.600000,756.660000,230.630000,756.660000C218.870000,756.660000,208.610000,747.640000,207.070000,735.940000C206.930000,734.910000,206.840000,733.860000,206.840000,732.820000C206.830000,684.730000,206.830000,636.640000,206.830000,588.560000C206.830000,577.530000,215.150000,567.440000,226.010000,565.380000C227.620000,565.070000,229.280000,564.900000,230.910000,564.900000C278.920000,564.880000,326.930000,564.880000,374.930000,564.880000C385.960000,564.880000,396.060000,573.210000,398.110000,584.060000C398.410000,585.670000,398.590000,587.330000,398.590000,588.960000C398.620000,612.900000,398.610000,636.850000,398.610000,660.790000Z"
            fill="#444444"
            stroke="none"
            stroke-width="1"
        />
    </g>
    <g id="egqz9tzsn5ck4" transform="matrix(4 0 0 4 -825.42899322000017 -2258.56582640500028)">
        <g id="egqz9tzsn5ck5">
            <path
                id="egqz9tzsn5ck6"
                d="M249.980000,730.880000L243.690000,730.880000C240.990000,730.880000,238.770000,728.670000,238.770000,725.960000L238.770000,595.570000C238.770000,592.870000,240.980000,590.650000,243.690000,590.650000L249.980000,590.650000C252.680000,590.650000,254.900000,592.860000,254.900000,595.570000L254.900000,725.960000C254.900000,728.670000,252.690000,730.880000,249.980000,730.880000Z"
                fill="#ffffff"
                stroke="#ffffff"
                stroke-width="7"
                stroke-miterlimit="10"
            />
            <g id="egqz9tzsn5ck7_to" transform="translate(0,0)">
                <path
                    id="egqz9tzsn5ck7"
                    d="M257.230000,650.090000L236.460000,650.090000C230.220000,650.090000,225.120000,644.990000,225.120000,638.750000L225.120000,618.650000C225.120000,612.410000,230.220000,607.310000,236.460000,607.310000L257.230000,607.310000C263.470000,607.310000,268.570000,612.410000,268.570000,618.650000L268.570000,638.750000C268.570000,644.990000,263.460000,650.090000,257.230000,650.090000Z"
                    transform="translate(0,0)"
                    fill="#ffffff"
                    stroke="none"
                    stroke-width="1"
                />
            </g>
            <path
                id="egqz9tzsn5ck8"
                d="M305.860000,730.880000L299.570000,730.880000C296.870000,730.880000,294.650000,728.670000,294.650000,725.960000L294.650000,595.570000C294.650000,592.870000,296.860000,590.650000,299.570000,590.650000L305.860000,590.650000C308.560000,590.650000,310.780000,592.860000,310.780000,595.570000L310.780000,725.960000C310.770000,728.670000,308.560000,730.880000,305.860000,730.880000Z"
                fill="#ffffff"
                stroke="#ffffff"
                stroke-width="7"
                stroke-miterlimit="10"
            />
            <g id="egqz9tzsn5ck9_to" transform="translate(0,0)">
                <path
                    id="egqz9tzsn5ck9"
                    d="M313.100000,703.380000L292.330000,703.380000C286.090000,703.380000,280.990000,698.280000,280.990000,692.040000L280.990000,671.940000C280.990000,665.700000,286.090000,660.600000,292.330000,660.600000L313.100000,660.600000C319.340000,660.600000,324.440000,665.700000,324.440000,671.940000L324.440000,692.040000C324.440000,698.280000,319.340000,703.380000,313.100000,703.380000Z"
                    transform="translate(0,0)"
                    fill="#ffffff"
                    stroke="none"
                    stroke-width="1"
                />
            </g>
            <path
                id="egqz9tzsn5ck10"
                d="M361.730000,730.880000L355.440000,730.880000C352.740000,730.880000,350.520000,728.670000,350.520000,725.960000L350.520000,595.570000C350.520000,592.870000,352.730000,590.650000,355.440000,590.650000L361.730000,590.650000C364.430000,590.650000,366.650000,592.860000,366.650000,595.570000L366.650000,725.960000C366.650000,728.670000,364.430000,730.880000,361.730000,730.880000Z"
                fill="#ffffff"
                stroke="#ffffff"
                stroke-width="7"
                stroke-miterlimit="10"
            />
            <g id="egqz9tzsn5ck11_to" transform="translate(0,0)">
                <path
                    id="egqz9tzsn5ck11"
                    d="M368.970000,668.410000L348.200000,668.410000C341.960000,668.410000,336.860000,663.310000,336.860000,657.070000L336.860000,636.970000C336.860000,630.730000,341.960000,625.630000,348.200000,625.630000L368.970000,625.630000C375.210000,625.630000,380.310000,630.730000,380.310000,636.970000L380.310000,657.070000C380.310000,663.310000,375.210000,668.410000,368.970000,668.410000Z"
                    transform="translate(0,0)"
                    fill="#ffffff"
                    stroke="none"
                    stroke-width="1"
                />
            </g>
        </g>
    </g>
</svg>
