<svg xmlns="http://www.w3.org/2000/svg" viewBox="0 0 500 500" overflow="hidden" preserveAspectRatio="xMidYMid meet" id="eaf-334d-0"><defs><clipPath id="eaf-334d-1"><rect x="0" y="0" width="500" height="500"></rect></clipPath><style>#eaf-334d-0 * {animation: 20000ms linear infinite normal both running;offset-rotate:0deg}@keyframes eaf-334d-2{0%,100%{transform:none;offset-path:path("m98.4 195.7l0 -236.4871")}}@keyframes eaf-334d-3{0%{offset-distance:0%}100%{offset-distance:100%}}@keyframes eaf-334d-4{0%,100%{transform:translate(-98.4px,-195.7px)}}@keyframes eaf-334d-5{0%,100%{transform:none;offset-path:path("m141.55 255.0237l0 -208.6355l0 208.6355")}}@keyframes eaf-334d-6{0%{offset-distance:0%;animation-timing-function:ease-in-out}50%{offset-distance:50%;animation-timing-function:ease-in-out}100%{offset-distance:100%}}@keyframes eaf-334d-7{0%,100%{transform:translate(-141.55px,-357.65px)}}@keyframes eaf-334d-8{0%,100%{transform:none;offset-path:path("m163.0287 197.1599l0 -176.7861")}}@keyframes eaf-334d-9{0%,100%{transform:translate(-163.1px,-299.45px)}}@keyframes eaf-334d-10{0%,100%{transform:none;offset-path:path("m184.7 229.25l0 -69.3l0 69.3")}}@keyframes eaf-334d-11{0%{offset-distance:0%;animation-timing-function:ease-in-out}44.84%{offset-distance:50%;animation-timing-function:ease-in-out}100%{offset-distance:100%}}@keyframes eaf-334d-12{0%,100%{transform:translate(-184.7px,-229.25px)}}</style></defs><g clip-path="url('#eaf-334d-1')" style="isolation: isolate;"><g><g transform="matrix(4 0 0 4 -827.28 -2254.5264)"><path fill="#222222" d="m331.7 626.3c0 15.6 0 31.3 0 46.9c0 7.2 -5.4 13.7 -12.5 15.1c-1 0.2 -2.1 0.3 -3.2 0.3c-31.2 0 -62.4 0 -93.6 0c-7.6 0 -14.3 -5.9 -15.3 -13.5c-0.1 -0.7 -0.1 -1.4 -0.1 -2c0 -31.3 0 -62.5 0 -93.8c0 -7.2 5.4 -13.7 12.5 -15.1c1 -0.2 2.1 -0.3 3.2 -0.3c31.2 0 62.4 0 93.6 0c7.2 0 13.7 5.4 15.1 12.5c0.2 1 0.3 2.1 0.3 3.2c0 15.6 0 31.1 0 46.7z"></path></g><path fill="#ffffff" d="m275.1 383.7c-28.8 -1.3 -50.9 -8.6 -68.1 -19.2c11.6 50.4 55 75.2 57.1 76.3l12.8 7.1c98 -6.5 155.4 -69.8 155.4 -152.5l0 -17.9c-23.2 75.9 -77.4 109.8 -157.2 106.2"></path><path fill="#ffffff" d="m130.8 215.8l21.5 0l0 47.5l21.6 0l0 -79.5l21.6 0l0 155.4c0 73.7 64.5 109.3 64.5 109.3c-108.4 0 -172.4 -65.7 -172.4 -153.1l0 -175.8l21.6 0l0 117.6l21.6 0l0 -21.4z"></path><path fill="#ffffff" d="m424 274.9l8.4 -27.3l0 -186.8c-97.7 0 -107.9 37.5 -107.9 73.2l0 205.2c0 10.6 -1 21.9 -3.2 32.9c51.8 -9.3 85.6 -41.4 102.7 -97.2l0 0z"></path><g transform="translate(0 0)" style="animation-name: eaf-334d-2, eaf-334d-3, eaf-334d-4; animation-composition: replace, add, add;"><rect fill="#ffffff" width="21.6" height="21.6" transform="translate(87.6 -21.6)"></rect><rect fill="#ffffff" width="21.6" height="21.6" transform="translate(87.6 37.4)"></rect><rect fill="#ffffff" width="21.6" height="21.6" transform="translate(87.6 96.4)"></rect><rect fill="#ffffff" width="21.6" height="21.6" transform="translate(87.6 155.4)"></rect><rect fill="#ffffff" width="21.6" height="21.6" transform="translate(87.6 214.4)"></rect><rect fill="#ffffff" width="21.6" height="21.6" transform="translate(87.6 273.4)"></rect><rect fill="#ffffff" width="21.6" height="21.6" transform="translate(87.6 332.4)"></rect><rect fill="#ffffff" width="21.6" height="21.6" transform="translate(87.6 391.4)"></rect></g><g transform="translate(0 -102.6263)" style="animation-name: eaf-334d-5, eaf-334d-6, eaf-334d-7; animation-composition: replace, add, add;"><polygon points="152.2,125 130.9,125 130.9,103.7 152.2,103.7" fill="#ffffff"></polygon><rect fill="#ffffff" width="21.3" height="21.3" transform="translate(130.9 173.2)"></rect><polygon points="152.2,264 130.9,264 130.9,242.7 152.2,242.7" fill="#ffffff"></polygon><rect fill="#ffffff" width="21.3" height="21.3" transform="translate(130.9 312.2)"></rect><polygon points="152.2,403.1 130.9,403.1 130.9,381.7 152.2,381.7" fill="#ffffff"></polygon><rect fill="#ffffff" width="21.3" height="21.3" transform="translate(130.9 451.2)"></rect><polygon points="152.2,542.1 130.9,542.1 130.9,520.7 152.2,520.7" fill="#ffffff"></polygon><rect fill="#ffffff" width="21.3" height="21.3" transform="translate(130.9 590.3)"></rect></g><g transform="translate(-0.0713 -102.2901)" style="animation-name: eaf-334d-8, eaf-334d-3, eaf-334d-9; animation-composition: replace, add, add;"><rect fill="#ffffff" width="21.3" height="21.3" transform="translate(152.4 141.2)"></rect><rect fill="#ffffff" width="21.6" height="21.3" transform="translate(152.3 82.1)"></rect><rect fill="#ffffff" width="21.3" height="21.3" transform="translate(152.4 259.3)"></rect><rect fill="#ffffff" width="21.6" height="21.3" transform="translate(152.3 200.2)"></rect><rect fill="#ffffff" width="21.3" height="21.3" transform="translate(152.4 377.4)"></rect><rect fill="#ffffff" width="21.6" height="21.3" transform="translate(152.3 318.3)"></rect><rect fill="#ffffff" width="21.3" height="21.3" transform="translate(152.4 495.5)"></rect><rect fill="#ffffff" width="21.6" height="21.3" transform="translate(152.3 436.4)"></rect></g><g transform="translate(0 0)" style="animation-name: eaf-334d-10, eaf-334d-11, eaf-334d-12; animation-composition: replace, add, add;"><polygon points="195.5,135.7 173.9,135.7 173.9,114.3 195.5,114.3" fill="#ffffff"></polygon><polygon points="195.5,205.2 173.9,205.2 173.9,183.9 195.5,183.9" fill="#ffffff"></polygon><polygon points="195.5,274.7 173.9,274.7 173.9,253.4 195.5,253.4" fill="#ffffff"></polygon><polygon points="195.5,344.2 173.9,344.2 173.9,322.9 195.5,322.9" fill="#ffffff"></polygon></g><path fill="#222222" d="m432.2 302.3c-3.1 79.3 -60 139.3 -155.2 145.6l-12.8 -7.1c-2.1 -1.2 -45.5 -25.9 -57.1 -76.3c17.1 10.6 39.3 17.9 68.1 19.2c70.5 3.2 121 -22.9 147.9 -81.4l-9.6 0c-19 39 -49.4 62.1 -92.1 69.9c2.2 -11 3.2 -22.3 3.2 -32.9l0 -37l-129 0l0 37c0 73.7 64.5 109.3 64.5 109.3c-105.5 0 -169 -62.3 -172.2 -146.2l-87 0c0 45.2 0 90.3 0 135.6c0 2.4 0 5.2 0.4 8c4 30.4 30.8 54 61.2 54c124.8 0 249.6 0 374.4 0c4.4 0 8.8 -0.4 12.8 -1.2c28.4 -5.6 50 -31.6 50 -60.4c0 -45.2 0 -90.6 0 -136l-67.5 0l0 -0.1z"></path></g></g></svg>

