<svg xmlns="http://www.w3.org/2000/svg" viewBox="0 0 500 500" overflow="hidden" preserveAspectRatio="xMidYMid meet" id="eaf-b946-0"><defs><clipPath id="eaf-b946-1"><rect x="0" y="0" width="500" height="500"></rect></clipPath><style>#eaf-b946-0 * {animation: 7000ms linear infinite normal both running;offset-rotate:0deg}@keyframes eaf-b946-2{0%,100%{transform:none;offset-path:path("m376.0742 463.4l0 0q-29.1586 -146.2136 -124.8328 -147.9q-62.4067 -1.1 -122.6769 147.9l0 -25.9264l0 25.9264l0 0l247.5096 0")}}@keyframes eaf-b946-3{0%{offset-distance:0%}42.39%{offset-distance:0%;animation-timing-function:ease-in-out}45.71%{offset-distance:29.6305%;animation-timing-function:ease-in-out}49.04%{offset-distance:57.9592%;animation-timing-function:ease-in-out}51.43%{offset-distance:61.6002%;animation-timing-function:ease-in-out}53.33%{offset-distance:65.2411%}85.71%{offset-distance:65.2411%;animation-timing-function:ease-in-out}100%{offset-distance:100%}}@keyframes eaf-b946-4{0%{transform:rotate(0)}18.57%{transform:rotate(0);animation-timing-function:ease-in-out}19.53%{transform:rotate(2deg);animation-timing-function:ease-in-out}20.47%{transform:rotate(-2deg);animation-timing-function:ease-in-out}21.43%{transform:rotate(2deg);animation-timing-function:ease-in-out}22.39%{transform:rotate(-2deg);animation-timing-function:ease-in-out}23.34%{transform:rotate(2deg);animation-timing-function:ease-in-out}24.3%{transform:rotate(-2deg);animation-timing-function:ease-in-out}25.23%{transform:rotate(2deg)}25.24%{transform:rotate(2deg);animation-timing-function:ease-in-out}26.19%{transform:rotate(-2deg);animation-timing-function:ease-in-out}27.14%{transform:rotate(2deg);animation-timing-function:ease-in-out}30.96%{transform:rotate(-2deg);animation-timing-function:ease-in-out}34.76%{transform:rotate(2deg);animation-timing-function:ease-in-out}38.57%{transform:rotate(-2deg);animation-timing-function:ease-in-out}42.37%{transform:rotate(2deg);animation-timing-function:ease-in-out}42.39%,100%{transform:rotate(0)}}@keyframes eaf-b946-5{0%{transform:scale(1,1)}28.57%{transform:scale(1,1);animation-timing-function:ease-in-out}31.9%{transform:scale(0.8934,0.8934);animation-timing-function:ease-in-out}34.29%{transform:scale(1,1);animation-timing-function:ease-in-out}37.61%{transform:scale(0.8934,0.8934);animation-timing-function:ease-in-out}46.67%{transform:scale(0.75,0.75);animation-timing-function:ease-in-out}49.04%{transform:scale(1,0.8932);animation-timing-function:ease-in-out}51.9%,100%{transform:scale(1,1)}}@keyframes eaf-b946-6{0%,100%{transform:translate(-376.0742px,-463.4px)}}@keyframes eaf-b946-7{0%,100%{transform:translate(376.0742px,463.4px)}}@keyframes eaf-b946-8{0%{transform:rotate(0)}18.57%{transform:rotate(0);animation-timing-function:ease-in-out}19.53%{transform:rotate(2deg);animation-timing-function:ease-in-out}20.47%{transform:rotate(-2deg);animation-timing-function:ease-in-out}21.43%{transform:rotate(2deg);animation-timing-function:ease-in-out}22.37%{transform:rotate(-2deg);animation-timing-function:ease-in-out}23.34%{transform:rotate(2deg);animation-timing-function:ease-in-out}24.3%{transform:rotate(-2deg);animation-timing-function:ease-in-out}25.23%{transform:rotate(2deg)}25.24%{transform:rotate(2deg);animation-timing-function:ease-in-out}26.19%{transform:rotate(-2deg);animation-timing-function:ease-in-out}27.14%{transform:rotate(2deg);animation-timing-function:ease-in-out}30.96%{transform:rotate(-2deg);animation-timing-function:ease-in-out}34.76%{transform:rotate(2deg);animation-timing-function:ease-in-out}38.57%{transform:rotate(-2deg);animation-timing-function:ease-in-out}42.37%{transform:rotate(2deg);animation-timing-function:ease-in-out}42.39%{transform:rotate(0);animation-timing-function:ease-in-out}43.81%{transform:rotate(-3deg);animation-timing-function:ease-in-out}45.24%,100%{transform:rotate(0)}}@keyframes eaf-b946-9{0%{transform:scale(1,1)}28.57%{transform:scale(1,1);animation-timing-function:ease-in-out}31.9%{transform:scale(0.8934,0.8934);animation-timing-function:ease-in-out}34.29%{transform:scale(1,1);animation-timing-function:ease-in-out}37.61%{transform:scale(0.8934,0.8934);animation-timing-function:ease-in-out}40%{transform:scale(1,1);animation-timing-function:ease-in-out}42.86%{transform:scale(1,0.634);animation-timing-function:ease-in-out}48.1%,100%{transform:scale(1,1)}}@keyframes eaf-b946-10{0%,100%{transform:none;offset-path:path("m127.5903 458l0 0l-31.0991 -237.9")}}@keyframes eaf-b946-11{0%{offset-distance:0%}48.57%{offset-distance:0%}63.33%,100%{offset-distance:100%}}@keyframes eaf-b946-12{0%{transform:scale(0.45,0)}48.57%{transform:scale(0.45,0)}50%{transform:scale(0.57,0.26)}63.33%,100%{transform:scale(0.94,0.76)}}@keyframes eaf-b946-13{0%,100%{transform:translate(-423.8842px,-635.6px)}}@keyframes eaf-b946-14{0%{opacity:0.51;animation-timing-function:ease-in-out}48.57%{opacity:0.97}59.53%{opacity:0.51}63.33%,100%{opacity:0}}</style></defs><g clip-path="url('#eaf-b946-1')" style="isolation: isolate;"><g><g transform="matrix(4 0 0 4 -827.28 -2254.5264)"><path fill="#222222" d="m331.8 626.1c0 15.6 0 31.3 0 46.9c0 7.2 -5.4 13.7 -12.5 15.1c-1 0.2 -2.1 0.3 -3.2 0.3c-31.2 0 -62.4 0 -93.6 0c-7.6 0 -14.3 -5.9 -15.3 -13.5c-0.1 -0.7 -0.1 -1.4 -0.1 -2c0 -31.3 0 -62.5 0 -93.8c0 -7.2 5.4 -13.7 12.5 -15.1c1 -0.2 2.1 -0.3 3.2 -0.3c31.2 0 62.4 0 93.6 0c7.2 0 13.7 5.4 15.1 12.5c0.2 1 0.3 2.1 0.3 3.2c0 15.6 0 31.1 0 46.7z"></path></g><g><rect fill="#000000" width="81" height="73.2" transform="translate(-190 -3.5)"></rect><rect fill="#ffffff" stroke="#f04d28" stroke-miterlimit="10" width="81" height="73.2" transform="translate(-190 90)"></rect><rect fill="#000000" width="81" height="73.2" transform="translate(-190 183.5)"></rect><rect fill="#bcbcbc" width="81" height="73.2" transform="translate(-190 277.1)"></rect><rect fill="#ffbf00" width="81" height="73.2" transform="translate(-190 370.6)"></rect><rect fill="#ffbf00" width="81" height="73.2" transform="translate(-190 370.6)"></rect><rect fill="#f4b526" width="81" height="73.2" transform="translate(-190 463.4)"></rect><rect fill="#e1f3fd" width="81" height="73.2" transform="translate(-190 557.6)"></rect></g><g style="animation-name: eaf-b946-2, eaf-b946-3, eaf-b946-4, eaf-b946-5, eaf-b946-6; animation-composition: replace, add, add, add, add;"><path fill="#ffffff" d="m451.2 463.4l-149.3 0c-18.2 0 -32.9 -14.7 -32.9 -32.9l0 -364.5c0 -18.2 14.7 -32.9 32.9 -32.9l149.2 0c18.2 0 32.9 14.7 32.9 32.9l0 364.5c0.1 18.2 -14.7 32.9 -32.8 32.9z"></path><path fill="#000000" d="m301.9 445.4c-8.2 0 -14.9 -6.7 -14.9 -14.9l0 -364.5c0 -8.2 6.7 -14.9 14.9 -14.9l149.2 0c8.2 0 14.9 6.7 14.9 14.9l0 364.5c0 8.2 -6.7 14.9 -14.9 14.9l-149.2 0z"></path><rect fill="#c6c6c6" width="124.1" height="71.9" transform="translate(314.1 97.9)"></rect><path fill="#f4b526" d="m376.1 381c-9.7 -0.2 -17.6 7.5 -17.8 17.1c0 0.2 0 0.4 0 0.6c-0.5 9.5 6.8 17.6 16.3 18.1c0.5 0 1 0 1.5 0c10.8 0 17.8 -7.4 17.8 -18.1c0.1 -9.7 -7.6 -17.6 -17.2 -17.7c-0.2 0 -0.4 0 -0.6 0z"></path><path fill="#ffffff" d="m438.2 89.7l-124.1 0c-2.7 0.1 -5 3.7 -5 8.2l0 71.9c0 4.5 2.3 8.1 5 8.2l124.1 0c2.7 -0.1 5 -3.7 5 -8.2l0 -71.9c0 -10.5 -10 -10.5 -10 0l0 71.9l5 -8.2l-124.1 0l5 8.2l0 -71.9l-5 8.2l124.1 0c6.4 0 6.4 -16.4 0 -16.4z"></path><path fill="#ffffff" d="m446.6 267.1l-141 0c-6.4 0 -6.5 10 0 10l141 0c6.5 0 6.5 -10 0 -10z"></path><path fill="#ffffff" d="m446.6 303.2l-141 0c-6.4 0 -6.5 10 0 10l141 0c6.5 0 6.5 -10 0 -10z"></path><path fill="#ffffff" d="m446.6 339.2l-141 0c-6.4 0 -6.5 10 0 10l141 0c6.5 0 6.5 -10 0 -10z"></path><path fill="#ffffff" d="m376.1 376c-10 0 -18.8 6.4 -21.8 15.9c-2.8 9.1 0.1 19 7.4 25.1c7.7 5.7 18 6.4 26.4 1.8c8.4 -4.8 11.9 -14.7 10.5 -24c-1.9 -10.9 -11.4 -18.9 -22.5 -18.8c-2.8 0 -5 2.2 -5 5c0 2.8 2.2 5 5 5c0.5 0 1 0 1.6 0.1c1.5 0.1 -0.8 -0.2 0.7 0.1c0.8 0.2 1.6 0.4 2.3 0.6c0.3 0.1 0.6 0.2 0.9 0.3c-1 -0.4 0.4 0.2 0.5 0.3c0.8 0.4 1.6 0.9 2.3 1.5c-0.8 -0.6 0.3 0.3 0.4 0.4c0.2 0.2 0.4 0.4 0.6 0.6c0.3 0.3 0.6 0.7 0.9 1c-0.6 -0.7 0 0 0.2 0.2c0.5 0.7 0.8 1.4 1.3 2.1c0.1 0.1 0.4 0.9 0.1 0c0.2 0.6 0.4 1.1 0.6 1.7c0.2 0.7 0.4 1.5 0.5 2.3c-0.1 -1 0 0.1 0 0.3c0 0.4 0 0.8 0 1.2c0 0.8 0 1.6 -0.1 2.4c0.1 -1.1 -0.1 0.4 -0.1 0.5c-0.1 0.5 -0.2 1 -0.4 1.5c-0.1 0.4 -0.2 0.7 -0.3 1.1c-0.1 0.2 -0.7 1.4 -0.2 0.4c-0.3 0.6 -0.6 1.3 -1 1.9c-0.2 0.3 -0.4 0.6 -0.6 0.9c-0.5 0.6 0.8 -0.8 -0.1 0.1c-0.6 0.6 -1.2 1.2 -1.8 1.7c0.8 -0.7 -0.7 0.5 -1.1 0.7c-0.4 0.2 -0.8 0.4 -1.1 0.6c-1.2 0.7 0.6 -0.2 -0.2 0.1c-0.8 0.3 -1.6 0.5 -2.4 0.7c-0.3 0.1 -0.6 0.1 -0.9 0.2c-0.6 0.1 -0.6 0.1 -0.1 0c-0.3 0 -0.6 0.1 -1 0.1c-0.8 0.1 -1.6 0.1 -2.5 0c-0.5 0 -1 -0.1 -1.4 -0.1c0.2 0 0.9 0.2 -0.1 0c-0.8 -0.2 -1.6 -0.4 -2.4 -0.6c-0.4 -0.1 -0.7 -0.2 -1 -0.4c1 0.4 -0.4 -0.2 -0.6 -0.3c-0.7 -0.4 -1.4 -0.8 -2 -1.3c0.8 0.6 -0.7 -0.7 -0.9 -0.9c-0.2 -0.2 -0.5 -0.5 -0.7 -0.8c-0.5 -0.6 0.6 1 -0.1 -0.2c-0.5 -0.7 -0.9 -1.5 -1.3 -2.2c-0.7 -1.2 0.2 0.9 -0.2 -0.4c-0.1 -0.3 -0.2 -0.6 -0.3 -0.9c-0.3 -0.9 -0.5 -1.8 -0.6 -2.7c0 0.2 0.1 0.9 0 -0.1c0 -0.5 -0.1 -1 -0.1 -1.5c0 -0.4 0 -0.8 0 -1.2c0 -0.2 0.2 -1.8 0 -0.8c0.1 -0.9 0.3 -1.8 0.6 -2.7c0.1 -0.4 0.3 -0.9 0.5 -1.3c-0.3 0.8 0.1 -0.2 0.3 -0.4c0.4 -0.8 0.9 -1.6 1.4 -2.3c-0.6 0.8 0.3 -0.3 0.4 -0.4c0.3 -0.3 0.6 -0.7 1 -1c0.1 -0.1 1.2 -1 0.4 -0.4c0.4 -0.3 0.7 -0.5 1.1 -0.8c0.4 -0.2 0.8 -0.5 1.2 -0.7c0.2 -0.1 1.3 -0.6 0.5 -0.3c0.9 -0.4 1.8 -0.6 2.8 -0.8c0.1 0 1.6 -0.2 0.6 -0.1c0.7 -0.1 1.4 -0.1 2.1 -0.1c2.8 0 5 -2.2 5 -5c-0.2 -2.7001 -2.4 -4.9001 -5.2 -4.9001l0 0z"></path></g><g style="animation-name: eaf-b946-7, eaf-b946-8, eaf-b946-9, eaf-b946-6; animation-composition: replace, add, add, add;"><path fill="#ffffff" d="m451.2 463.4l-149.3 0c-18.2 0 -32.9 -14.7 -32.9 -32.9l0 -364.5c0 -18.2 14.7 -32.9 32.9 -32.9l149.2 0c18.2 0 32.9 14.7 32.9 32.9l0 364.5c0.1 18.2 -14.7 32.9 -32.8 32.9z"></path><path fill="#000000" d="m301.9 445.4c-8.2 0 -14.9 -6.7 -14.9 -14.9l0 -364.5c0 -8.2 6.7 -14.9 14.9 -14.9l149.2 0c8.2 0 14.9 6.7 14.9 14.9l0 364.5c0 8.2 -6.7 14.9 -14.9 14.9l-149.2 0z"></path><rect fill="#c6c6c6" width="124.1" height="71.9" transform="translate(314.1 97.9)"></rect><path fill="#f4b526" d="m376.1 381c-9.7 -0.2 -17.6 7.5 -17.8 17.1c0 0.2 0 0.4 0 0.6c-0.5 9.5 6.8 17.6 16.3 18.1c0.5 0 1 0 1.5 0c10.8 0 17.8 -7.4 17.8 -18.1c0.1 -9.7 -7.6 -17.6 -17.2 -17.7c-0.2 0 -0.4 0 -0.6 0z"></path><path fill="#ffffff" d="m438.2 89.7l-124.1 0c-2.7 0.1 -5 3.7 -5 8.2l0 71.9c0 4.5 2.3 8.1 5 8.2l124.1 0c2.7 -0.1 5 -3.7 5 -8.2l0 -71.9c0 -10.5 -10 -10.5 -10 0l0 71.9l5 -8.2l-124.1 0l5 8.2l0 -71.9l-5 8.2l124.1 0c6.4 0 6.4 -16.4 0 -16.4z"></path><path fill="#ffffff" d="m446.6 267.1l-141 0c-6.4 0 -6.5 10 0 10l141 0c6.5 0 6.5 -10 0 -10z"></path><path fill="#ffffff" d="m446.6 303.2l-141 0c-6.4 0 -6.5 10 0 10l141 0c6.5 0 6.5 -10 0 -10z"></path><path fill="#ffffff" d="m446.6 339.2l-141 0c-6.4 0 -6.5 10 0 10l141 0c6.5 0 6.5 -10 0 -10z"></path><path fill="#ffffff" d="m376.1 376c-10 0 -18.8 6.4 -21.8 15.9c-2.8 9.1 0.1 19 7.4 25.1c7.7 5.7 18 6.4 26.4 1.8c8.4 -4.8 11.9 -14.7 10.5 -24c-1.9 -10.9 -11.4 -18.9 -22.5 -18.8c-2.8 0 -5 2.2 -5 5c0 2.8 2.2 5 5 5c0.5 0 1 0 1.6 0.1c1.5 0.1 -0.8 -0.2 0.7 0.1c0.8 0.2 1.6 0.4 2.3 0.6c0.3 0.1 0.6 0.2 0.9 0.3c-1 -0.4 0.4 0.2 0.5 0.3c0.8 0.4 1.6 0.9 2.3 1.5c-0.8 -0.6 0.3 0.3 0.4 0.4c0.2 0.2 0.4 0.4 0.6 0.6c0.3 0.3 0.6 0.7 0.9 1c-0.6 -0.7 0 0 0.2 0.2c0.5 0.7 0.8 1.4 1.3 2.1c0.1 0.1 0.4 0.9 0.1 0c0.2 0.6 0.4 1.1 0.6 1.7c0.2 0.7 0.4 1.5 0.5 2.3c-0.1 -1 0 0.1 0 0.3c0 0.4 0 0.8 0 1.2c0 0.8 0 1.6 -0.1 2.4c0.1 -1.1 -0.1 0.4 -0.1 0.5c-0.1 0.5 -0.2 1 -0.4 1.5c-0.1 0.4 -0.2 0.7 -0.3 1.1c-0.1 0.2 -0.7 1.4 -0.2 0.4c-0.3 0.6 -0.6 1.3 -1 1.9c-0.2 0.3 -0.4 0.6 -0.6 0.9c-0.5 0.6 0.8 -0.8 -0.1 0.1c-0.6 0.6 -1.2 1.2 -1.8 1.7c0.8 -0.7 -0.7 0.5 -1.1 0.7c-0.4 0.2 -0.8 0.4 -1.1 0.6c-1.2 0.7 0.6 -0.2 -0.2 0.1c-0.8 0.3 -1.6 0.5 -2.4 0.7c-0.3 0.1 -0.6 0.1 -0.9 0.2c-0.6 0.1 -0.6 0.1 -0.1 0c-0.3 0 -0.6 0.1 -1 0.1c-0.8 0.1 -1.6 0.1 -2.5 0c-0.5 0 -1 -0.1 -1.4 -0.1c0.2 0 0.9 0.2 -0.1 0c-0.8 -0.2 -1.6 -0.4 -2.4 -0.6c-0.4 -0.1 -0.7 -0.2 -1 -0.4c1 0.4 -0.4 -0.2 -0.6 -0.3c-0.7 -0.4 -1.4 -0.8 -2 -1.3c0.8 0.6 -0.7 -0.7 -0.9 -0.9c-0.2 -0.2 -0.5 -0.5 -0.7 -0.8c-0.5 -0.6 0.6 1 -0.1 -0.2c-0.5 -0.7 -0.9 -1.5 -1.3 -2.2c-0.7 -1.2 0.2 0.9 -0.2 -0.4c-0.1 -0.3 -0.2 -0.6 -0.3 -0.9c-0.3 -0.9 -0.5 -1.8 -0.6 -2.7c0 0.2 0.1 0.9 0 -0.1c0 -0.5 -0.1 -1 -0.1 -1.5c0 -0.4 0 -0.8 0 -1.2c0 -0.2 0.2 -1.8 0 -0.8c0.1 -0.9 0.3 -1.8 0.6 -2.7c0.1 -0.4 0.3 -0.9 0.5 -1.3c-0.3 0.8 0.1 -0.2 0.3 -0.4c0.4 -0.8 0.9 -1.6 1.4 -2.3c-0.6 0.8 0.3 -0.3 0.4 -0.4c0.3 -0.3 0.6 -0.7 1 -1c0.1 -0.1 1.2 -1 0.4 -0.4c0.4 -0.3 0.7 -0.5 1.1 -0.8c0.4 -0.2 0.8 -0.5 1.2 -0.7c0.2 -0.1 1.3 -0.6 0.5 -0.3c0.9 -0.4 1.8 -0.6 2.8 -0.8c0.1 0 1.6 -0.2 0.6 -0.1c0.7 -0.1 1.4 -0.1 2.1 -0.1c2.8 0 5 -2.2 5 -5c-0.2 -2.7001 -2.4 -4.9001 -5.2 -4.9001l0 0z"></path></g><path fill="#000000" stroke="#ffffff" stroke-width="14" stroke-miterlimit="10" d="m490.5 487.7l2.5 -0.6l2.5 -0.4c27.3 -3.9 52.3 15.4 55.2 42.9l0.2 2.6l0 2.6c-0.1 27.6 -23.3 49.4 -50.8 48l-2.6 -0.2l-2.6 -0.3l-0.1 0l0 0.1l-0.1 -0.1l0 2.8l-0.2 2.7c-2.4 22.9 -18.2 41.6 -40.4 47.8l-2.7 0.6l-2.7 0.5c-22.5 3.8 -45.2 -6.9 -56.6 -26.6l-1.3 -2.4l-1.2 -2.5l-0.1 0.1l0 -0.1l-1.5 1.8l-1.6 1.7c-14.1 13.7 -35.7 14.6 -50.8 2.1l-1.7 -1.5l-1.6 -1.6c-13.2 -14.1 -13.6 -36.4 -0.6 -50.8l1.6 -1.7l1.7 -1.6l-0.1 0l0 -0.1l-2.6 -0.7l-2.5 -0.9c-26.8 -10.1 -39.9 -40.2 -29.2 -66.8l1.1 -2.5l1.2 -2.4c13.5 -25.2 45.1 -34.3 70.1 -20.2l2.3 1.4l2.2 1.5l0 0.1l0.1 -0.1l1.5 -2.5c31.3 -47.2 102.5 -31.5 111 24.5l0.3 2.9" transform="matrix(0.45 0 0 0 -63.1575 458)" opacity="0.51" style="animation-name: eaf-b946-10, eaf-b946-11, eaf-b946-12, eaf-b946-13, eaf-b946-14; animation-composition: replace, add, add, add, replace;"></path></g></g></svg>

