<svg xmlns="http://www.w3.org/2000/svg" viewBox="0 0 769 769" overflow="hidden" preserveAspectRatio="xMidYMid meet" id="eaf-7c5c-0"><defs><clipPath id="eaf-7c5c-1"><rect x="0" y="0" width="769" height="769"></rect></clipPath><style>#eaf-7c5c-0 * {animation: 7000ms linear infinite normal both running;offset-rotate:0deg}@keyframes eaf-7c5c-2{0%,100%{transform:none;offset-path:path("m409.8851 264l-724.3348 0l0 0l724.3348 0")}}@keyframes eaf-7c5c-3{0%{offset-distance:0%;animation-timing-function:ease-in-out}42.61%{offset-distance:50%}57.14%{offset-distance:50%;animation-timing-function:ease-in-out}100%{offset-distance:100%}}@keyframes eaf-7c5c-4{0%,100%{transform:matrix(0.8658,0,0,0.8252,-340.0906,-318.105)}}@keyframes eaf-7c5c-5{0%,100%{transform:none;offset-path:path("m395.595 476.4003l-31.186 0")}}@keyframes eaf-7c5c-6{0%{animation-timing-function:step-start}42.61%{offset-distance:0%;animation-timing-function:ease-in-out}57.14%,100%{offset-distance:100%}}@keyframes eaf-7c5c-7{0%{transform:skewX(0)}42.61%{transform:skewX(0);animation-timing-function:ease-in-out}57.14%,100%{transform:skewX(15deg)}}@keyframes eaf-7c5c-8{0%,100%{transform:matrix(1.2632,0,0,1.2632,-383.5068,-579.0597)}}@keyframes eaf-7c5c-9{0%,100%{transform:none;offset-path:path("m1091.1189 264l0 0l-724.042 0l0 0l724.042 0")}}@keyframes eaf-7c5c-10{0%{offset-distance:0%}3.33%{offset-distance:0%;animation-timing-function:ease-in-out}42.61%{offset-distance:50%}57.14%{offset-distance:50%;animation-timing-function:ease-in-out}95.96%,100%{offset-distance:100%}}@keyframes eaf-7c5c-11{0%,100%{transform:matrix(-0.8658,0,0,0.8252,340.0906,-318.105)}}@keyframes eaf-7c5c-12{0%{animation-timing-function:step-start}40.24%{opacity:1;animation-timing-function:ease-in-out}43.1%{opacity:0;animation-timing-function:ease-in-out}45.96%{opacity:1}50.96%{opacity:1;animation-timing-function:ease-in-out}53.81%{opacity:0;animation-timing-function:ease-in-out}56.2%{opacity:1;animation-timing-function:ease-in-out}59.06%{opacity:0;animation-timing-function:ease-in-out}61.91%{opacity:1}66.91%{opacity:1;animation-timing-function:ease-in-out}69.77%{opacity:0;animation-timing-function:ease-in-out}72.14%{opacity:1}72.16%{opacity:1;animation-timing-function:ease-in-out}75%{opacity:0;animation-timing-function:ease-in-out}77.86%{opacity:1}82.86%{opacity:1;animation-timing-function:ease-in-out}85.71%{opacity:0;animation-timing-function:ease-in-out}88.1%{opacity:1;animation-timing-function:ease-in-out}90.96%{opacity:0;animation-timing-function:ease-in-out}93.81%{opacity:1}98.81%{opacity:1}100%{opacity:0.585}}@keyframes eaf-7c5c-13{0%{opacity:0}38.81%{opacity:0;animation-timing-function:ease-in-out}45.47%{opacity:1}96.19%{opacity:1;animation-timing-function:ease-in-out}100%{opacity:0}}@keyframes eaf-7c5c-14{0%{opacity:1;animation-timing-function:ease-in-out}2.86%{opacity:0;animation-timing-function:ease-in-out}5.71%{opacity:1}10.71%{opacity:1;animation-timing-function:ease-in-out}13.57%{opacity:0;animation-timing-function:ease-in-out}15.96%{opacity:1;animation-timing-function:ease-in-out}18.81%{opacity:0;animation-timing-function:ease-in-out}21.67%{opacity:1}26.67%{opacity:1;animation-timing-function:ease-in-out}29.53%{opacity:0;animation-timing-function:ease-in-out}31.9%{opacity:1}31.91%{opacity:1;animation-timing-function:ease-in-out}34.76%{opacity:0;animation-timing-function:ease-in-out}37.61%,100%{opacity:1}}@keyframes eaf-7c5c-15{0%{opacity:1}38.83%{opacity:1;animation-timing-function:ease-in-out}45.49%{opacity:0}96.19%{opacity:0;animation-timing-function:ease-in-out}100%{opacity:1}}</style></defs><g clip-path="url('#eaf-7c5c-1')" style="isolation: isolate;"><g><path fill="#444444" d="m768.1 385.5c0 96.2 0 192.5 0 288.8c0 44.1 -33.3 84.4 -76.7 92.7c-6.4 1.2 -13.1 1.9 -19.6 1.9c-191.9 0.1 -383.8 0.1 -575.7 0.1c-47 0 -88.1 -36.1 -94.2 -82.9c-0.6 -4.1 -0.9 -8.3 -0.9 -12.5c0 -192.4 0 -384.7 0 -577c0 -44.1 33.3 -84.5 76.7 -92.7c6.4 -1.3 13 -1.9 19.6 -1.9c192 -0.1 384.1 -0.1 576.1 -0.1c44.1 0 84.5 33.3 92.7 76.7c1.2 6.4 1.9 13.1 1.9 19.6c0.1 95.8 0.1 191.6 0.1 287.3z"></path><g transform="matrix(0.8658 0 0 0.8252 69.7945 -54.105)" style="animation-name: eaf-7c5c-2, eaf-7c5c-3, eaf-7c5c-4; animation-composition: replace, add, add;"><path fill="#f4b526" stroke="#ffffff" stroke-width="20" stroke-miterlimit="10" d="m467.2 326.3l-316.1 11.7c-10.5 0 -16.6 3.9 -19.4 14l-65.7 224.5c-2.7 9.5 -15.7 14 -24.8 14l0 0c-9 0 -16.4 -7.4 -16.4 -16.4l0 -62.9l0 -257.8l0 -12.3l0 -37.7c0 -12.7 10.3 -22.9 22.9 -22.9l162.8 0c6.1 0 11.9 2.4 16.2 6.7l47.2 47.2c4.3 4.3 10.1 6.7 16.2 6.7l154.2 0c12.7 0 22.9 10.3 22.9 22.9l0 7.8c0 0 0 54.5 0 54.5z" transform="matrix(1.2632 0 0 1.2632 27.2483 -101.4707)"></path><path fill="#000000" stroke="#ffffff" stroke-width="20" stroke-miterlimit="10" d="m41.2 590.5l0 0c9 0 13.7 -6.9 16.4 -16.4l66.1 -230.8c2.9 -10.1 12.1 -17 22.5 -17l405.3 0c9.7 0 16.6 9.3 13.9 18.6l-65.5 222.7c-3 10.5 -9.5 23 -22.9 22.9l-435.8 0z" transform="matrix(1.2632 0 0 1.2632 12.0882 -102.6594)"></path></g><g transform="matrix(-0.8658 0 0 0.8252 1431.2095 -54.105)" style="animation-name: eaf-7c5c-9, eaf-7c5c-10, eaf-7c5c-11; animation-composition: replace, add, add;"><path fill="#f4b526" stroke="#ffffff" stroke-width="20" stroke-miterlimit="10" d="m467.2 326.3l-316.1 11.7c-10.5 0 -16.6 3.9 -19.4 14l-65.7 224.5c-2.7 9.5 -15.7 14 -24.8 14l0 0c-9 0 -16.4 -7.4 -16.4 -16.4l0 -62.9l0 -257.8l0 -12.3l0 -37.7c0 -12.7 10.3 -22.9 22.9 -22.9l162.8 0c6.1 0 11.9 2.4 16.2 6.7l47.2 47.2c4.3 4.3 10.1 6.7 16.2 6.7l154.2 0c12.7 0 22.9 10.3 22.9 22.9l0 7.8c0 0 0 54.5 0 54.5z" transform="matrix(1.2632 0 0 1.2632 27.2483 -101.4707)"></path><path fill="#000000" stroke="#ffffff" stroke-width="20" stroke-miterlimit="10" d="m41.2 590.5l0 0c9 0 13.7 -6.9 16.4 -16.4l66.1 -230.8c2.9 -10.1 12.1 -17 22.5 -17l405.3 0c9.7 0 16.6 9.3 13.9 18.6l-65.5 222.7c-3 10.5 -9.5 23 -22.9 22.9l-435.8 0z" transform="matrix(1.2632 0 0 1.2632 12.0882 -102.6594)" style="animation-name: eaf-7c5c-5, eaf-7c5c-6, eaf-7c5c-7, eaf-7c5c-8; animation-composition: replace, add, add, add;"></path></g><g transform="matrix(0.8904 0 0 0.8904 105.3169 226.1278)" opacity="0" style="animation-name: eaf-7c5c-13;"><rect fill="#000000" width="61.9" height="139.6" transform="translate(223.6 388.6)" style="animation-name: eaf-7c5c-12;"></rect><path fill="#000000" d="m175.2 388.6l-63.9 0c-4.5 0 -8.2 3.7 -8.2 8.2l0 123.2c0 4.5 3.7 8.2 8.2 8.2l63.9 0l0 -139.6z"></path><path fill="#000000" d="m528.5 449.9l-147 -128.1c-4.6 -4 -11.8 -0.7 -11.8 5.4l0 61.4l-35.7 0l0 139.6l35.7 0l0 61.4c0 6.1 7.2 9.4 11.8 5.4l147 -128.1c5.1 -4.5 5.1 -12.5 0 -17z"></path></g><g transform="matrix(-0.8904 0 0 -0.8904 671.0998 1042.4472)" style="animation-name: eaf-7c5c-15;"><rect fill="#000000" width="61.9" height="139.6" transform="translate(223.6 388.6)" style="animation-name: eaf-7c5c-14;"></rect><path fill="#000000" d="m175.2 388.6l-63.9 0c-4.5 0 -8.2 3.7 -8.2 8.2l0 123.2c0 4.5 3.7 8.2 8.2 8.2l63.9 0l0 -139.6z"></path><path fill="#000000" d="m528.5 449.9l-147 -128.1c-4.6 -4 -11.8 -0.7 -11.8 5.4l0 61.4l-35.7 0l0 139.6l35.7 0l0 61.4c0 6.1 7.2 9.4 11.8 5.4l147 -128.1c5.1 -4.5 5.1 -12.5 0 -17z"></path></g></g></g></svg>