<svg xmlns="http://www.w3.org/2000/svg" viewBox="0 0 500 500" overflow="hidden" preserveAspectRatio="xMidYMid meet" id="eaf-671-0"><defs><clipPath id="eaf-671-1"><rect x="0" y="0" width="500" height="500"></rect></clipPath><style>#eaf-671-0 * {animation: 5000ms linear infinite normal both running;offset-rotate:0deg}@keyframes eaf-671-2{0%,100%{transform:translate(250.5px,344.71px)}}@keyframes eaf-671-3{0%{transform:rotate(-24deg);animation-timing-function:ease-in-out}10%{transform:rotate(-27deg);animation-timing-function:ease-in-out}20%{transform:rotate(-24deg);animation-timing-function:ease-in-out}30%{transform:rotate(-30deg);animation-timing-function:ease-in-out}40%{transform:rotate(-34deg)}42.66%{transform:rotate(-34deg);animation-timing-function:ease-in-out}48%{transform:rotate(79deg)}52.66%{transform:rotate(79deg);animation-timing-function:ease-in-out}54%{transform:rotate(76deg);animation-timing-function:ease-in-out}55.34%{transform:rotate(82.116deg);animation-timing-function:ease-in-out}56.66%{transform:rotate(75.9925deg);animation-timing-function:ease-in-out}57.34%{transform:rotate(81.0564deg);animation-timing-function:ease-in-out}58.66%{transform:rotate(75.9698deg);animation-timing-function:ease-in-out}88.66%{transform:rotate(79deg);animation-timing-function:ease-in-out}97.34%,100%{transform:rotate(-24deg)}}@keyframes eaf-671-4{0%,100%{transform:translate(-117.1992px,-172.67px)}}</style></defs><g clip-path="url('#eaf-671-1')" style="isolation: isolate;"><g><g transform="matrix(4 0 0 4 -828.3998 -2255.0379)"><path fill="#444444" d="m331.8 626.1c0 15.6 0 31.3 0 46.9c0 7.2 -5.4 13.7 -12.5 15.1c-1 0.2 -2.1 0.3 -3.2 0.3c-31.2 0 -62.4 0 -93.6 0c-7.6 0 -14.3 -5.9 -15.3 -13.5c-0.1 -0.7 -0.1 -1.4 -0.1 -2c0 -31.3 0 -62.5 0 -93.8c0 -7.2 5.4 -13.7 12.5 -15.1c1 -0.2 2.1 -0.3 3.2 -0.3c31.2 0 62.4 0 93.6 0c7.2 0 13.7 5.4 15.1 12.5c0.2 1 0.3 2.1 0.3 3.2c0 15.6 0 31.1 0 46.7z"></path></g><rect fill="#e1f3fd" width="81" height="73.2" transform="translate(-190 557.6)"></rect><g style="filter: blur(3px);"><path fill="#ffffff" d="m250.5 102.7c-2.2 0 -4.3 0.1 -6.5 0.2c122.8 3.9 221.7 116.8 221.7 255.2c0 25.2 -11.9 38.6 -34.4 38.6l12.9 0c22.5 0 34.4 -13.3 34.4 -38.6c0 -140.8 -102.3 -255.4 -228.1 -255.4z"></path></g><path fill="#ffffff" d="m56.8 396.6c-22.5 0 -34.4 -13.3 -34.4 -38.6c0 -140.8 102.3 -255.4 228.1 -255.4c125.8 0 228.1 114.6 228.1 255.4c0 25.2 -11.9 38.6 -34.4 38.6l-387.4 0z"></path><path fill="#000000" d="m73.4 358.1c-9.3 0 -16.6 -7.8 -16 -17.1c7.8 -111.8 91.3 -199.8 193.1 -199.8c101.8 0 185.3 88 193.1 199.8c0.6 9.2 -6.7 17.1 -16 17.1l-354.2 0z"></path><g style="filter: blur(2px);"><path fill="#54545442" d="m259.1 141.5c-2.9 -0.1 -5.7 -0.2 -8.6 -0.2c-101.6 0 -185 87.6 -193 199.1c-0.7 9.6 7 17.7 16.6 17.7l0 0c0 -116.5 82.1 -211.6 185 -216.6z"></path></g><g style="filter: drop-shadow(rgb(186, 186, 182) 4px 4px 2px);"><g><path fill="#cc6152" d="m322.3 247.2c19.9 15.3 35.4 37.4 44.4 64.6c3.3 10 13.2 15.1 22.1 11.4c8.9 -3.7 13.5 -14.8 10.2 -24.8c-11 -33.2 -30.1 -60.8 -54.6 -80.5l-22.1 29.3z"></path><path fill="#74b340" d="m171.2 253.6l-23.6 -27.7c-20.1 18.9 -36 43.5 -45.6 72.5c-3.3 10 1.3 21.1 10.2 24.8c2 0.8 4 1.2 6 1.2c7 0 13.6 -4.8 16.1 -12.6c7.9 -23.7 20.6 -43.4 36.9 -58.2z"></path><path fill="#e78244" d="m250.5 184.6l0 38.6c27 0 51.6 8.6 71.8 24.1l22.1 -29.2c-26.4 -21.3 -58.9 -33.5 -93.9 -33.5z"></path><path fill="#ffd464" d="m250.5 223.2l0 -38.6c-39.1 0 -75 15.1 -102.9 41.2l23.6 27.7c21.4 -19.4 48.9 -30.3 79.3 -30.3z"></path></g></g><g transform="matrix(0.9135 -0.4067 0.4067 0.9135 73.202 234.6373)" style="animation-name: eaf-671-2, eaf-671-3, eaf-671-4; animation-composition: replace, add, add;"><path fill="#000000" d="m23.41 0c-4.98 0 -9.74 1.57 -13.73 4.52c-9.78 7.18 -12.59 21.05 -6.4 31.58l74.51 126.95c0 -24.11 18.01 -43.72 40.13 -43.72c2.21 0 4.37 0.2 6.49 0.58l-82.29 -110.42c-4.4 -5.94 -11.39 -9.49 -18.71 -9.49z"></path><g style="filter: drop-shadow(rgb(94, 94, 94) 3px 3px 4px);"><path fill="#000000" d="m145.59 172.67c-0.21 -5.25 -1.91 -10.16 -4.92 -14.19l-106.58 -143.04c-2.52 -3.41 -6.51 -5.44 -10.68 -5.44c-2.83 0 -5.54 0.9 -7.81 2.58c-5.7 4.18 -7.32 12.29 -3.69 18.46l83.36 142.02l50.34 0l-0.02 -0.39z"></path></g></g><path fill="#000000" d="m210.4 358.1l0 -10c0 -24.1 18 -43.7 40.1 -43.7c22.1 0 40.1 19.6 40.1 43.7l0 10l-80.2 0z"></path><path fill="#ffffff" d="m228.12 0c-125.79 0 -228.12 114.57 -228.12 255.4c0 25.22 11.91 38.55 34.43 38.55l387.37 0c22.52 0 34.43 -13.33 34.43 -38.55c0 -140.83 -102.33 -255.4 -228.11 -255.4zm177.12 255.4l-354.25 0c-9.26 0 -16.61 -7.84 -15.97 -17.09c7.79 -111.78 91.26 -199.76 193.1 -199.76c101.84 0 185.31 87.98 193.09 199.76c0.64 9.24 -6.71 17.09 -15.97 17.09z" transform="translate(22.2137 102.1871)"></path></g></g></svg>