<svg xmlns="http://www.w3.org/2000/svg" viewBox="0 0 650 650" overflow="hidden" preserveAspectRatio="xMidYMid meet" id="eaf-aaaa-0"><defs><clipPath id="eaf-aaaa-1"><rect x="0" y="0" width="650" height="650"></rect></clipPath><style>#eaf-aaaa-0 * {animation: 13000ms linear infinite normal both running;offset-rotate:0deg}@keyframes eaf-aaaa-2{0%{fill-opacity:0}45.38%{fill-opacity:0;animation-timing-function:ease-in-out}46.67%{fill-opacity:1}52.05%{fill-opacity:1;animation-timing-function:ease-in-out}53.34%,100%{fill-opacity:0}}@keyframes eaf-aaaa-3{0%{fill-opacity:0}43.08%{fill-opacity:0;animation-timing-function:ease-in-out}44.36%{fill-opacity:1}53.85%{fill-opacity:1;animation-timing-function:ease-in-out}55.13%,100%{fill-opacity:0}}@keyframes eaf-aaaa-4{0%{fill-opacity:0}40.51%{fill-opacity:0;animation-timing-function:ease-in-out}41.79%{fill-opacity:1}55.9%{fill-opacity:1;animation-timing-function:ease-in-out}57.18%,100%{fill-opacity:0}}@keyframes eaf-aaaa-5{0%{fill-opacity:0}38.46%{fill-opacity:0;animation-timing-function:ease-in-out}39.75%{fill-opacity:1}58.21%{fill-opacity:1;animation-timing-function:ease-in-out}59.49%,100%{fill-opacity:0}}@keyframes eaf-aaaa-6{0%,100%{transform:translate(333.0686px,288.3668px)}}@keyframes eaf-aaaa-7{0%{transform:rotate(0);animation-timing-function:ease-in-out}1.28%{transform:rotate(6deg);animation-timing-function:ease-in-out}2.56%{transform:rotate(-8deg);animation-timing-function:ease-in-out}3.85%{transform:rotate(6deg);animation-timing-function:ease-in-out}4.87%{transform:rotate(-8deg);animation-timing-function:ease-in-out}5.9%{transform:rotate(6deg);animation-timing-function:ease-in-out}6.92%{transform:rotate(-8deg);animation-timing-function:ease-in-out}8.21%{transform:rotate(6deg);animation-timing-function:ease-in-out}9.23%{transform:rotate(-8deg);animation-timing-function:ease-in-out}10.26%{transform:rotate(6deg);animation-timing-function:ease-in-out}11.28%{transform:rotate(-8deg)}20.51%{transform:rotate(-8deg);animation-timing-function:ease-in-out}21.79%{transform:rotate(6deg);animation-timing-function:ease-in-out}22.82%{transform:rotate(-8deg);animation-timing-function:ease-in-out}23.85%{transform:rotate(6deg);animation-timing-function:ease-in-out}24.87%{transform:rotate(-8deg);animation-timing-function:ease-in-out}26.15%{transform:rotate(6deg);animation-timing-function:ease-in-out}27.18%{transform:rotate(-8deg);animation-timing-function:ease-in-out}28.21%{transform:rotate(6deg);animation-timing-function:ease-in-out}29.23%{transform:rotate(-8deg)}97.44%{transform:rotate(0);animation-timing-function:ease-in-out}98.72%{transform:rotate(6deg);animation-timing-function:ease-in-out}100%{transform:rotate(-8deg)}}@keyframes eaf-aaaa-8{0%,100%{transform:matrix(0.92,0,0,0.92,-306.4231,-265.2975)}}@keyframes eaf-aaaa-9{0%{opacity:1}30.77%{opacity:1;animation-timing-function:ease-in-out}34.62%{opacity:0}98.46%{opacity:0;animation-timing-function:ease-in-out}100%{opacity:1}}@keyframes eaf-aaaa-10{0%,100%{transform:none;offset-path:path("m-144.3375 27.0078l0 0l-28.6273 3.8543l17.7711 0.8784l-31.2586 0.5602l42.1148 -5.2929l-28.6273 3.8543l17.7711 0.8784")}}@keyframes eaf-aaaa-11{0%{offset-distance:0%}70.26%{offset-distance:0%;animation-timing-function:ease-in-out}74.36%{offset-distance:17.2899%;animation-timing-function:ease-in-out}77.69%{offset-distance:27.94%;animation-timing-function:ease-in-out}81.79%{offset-distance:46.6533%;animation-timing-function:ease-in-out}84.87%{offset-distance:72.06%;animation-timing-function:ease-in-out}88.97%{offset-distance:89.3499%;animation-timing-function:ease-in-out}93.08%,100%{offset-distance:100%}}@keyframes eaf-aaaa-12{0%{transform:rotate(-4deg)}59.75%{transform:rotate(-4deg);animation-timing-function:ease-in-out}61.8%{transform:rotate(4deg);animation-timing-function:ease-in-out}64.88%{transform:rotate(-1deg);animation-timing-function:ease-in-out}65.9%{transform:rotate(3deg);animation-timing-function:ease-in-out}68.72%{transform:rotate(-6deg);animation-timing-function:ease-in-out}72.82%{transform:rotate(-2deg);animation-timing-function:ease-in-out}75.64%{transform:rotate(1deg);animation-timing-function:ease-in-out}78.46%{transform:rotate(3deg);animation-timing-function:ease-in-out}81.79%{transform:rotate(-4deg)}84.87%{transform:rotate(-4deg);animation-timing-function:ease-in-out}86.92%{transform:rotate(4deg);animation-timing-function:ease-in-out}90%{transform:rotate(-1deg);animation-timing-function:ease-in-out}91.02%{transform:rotate(-6deg);animation-timing-function:ease-in-out}95.13%,100%{transform:rotate(-2deg)}}@keyframes eaf-aaaa-13{0%,100%{transform:translate(172.4195px,-35.6px)}}@keyframes eaf-aaaa-14{0%,100%{transform:translate(333.0686px,281.8px)}}@keyframes eaf-aaaa-15{0%{transform:scale(0,0)}60.52%{transform:scale(0,0);animation-timing-function:ease-in-out}62.31%{transform:scale(0.94,0.94)}93.08%{transform:scale(0.94,0.94);animation-timing-function:ease-in-out}96.92%,100%{transform:scale(0,0)}}@keyframes eaf-aaaa-16{0%,100%{transform:translate(93.1976px,108.95px)}}</style></defs><g clip-path="url('#eaf-aaaa-1')" style="isolation: isolate;"><g><g transform="translate(0.0024 0)"><path fill="#222222" d="m650 325.1c0 81.6 0 163.1 0 244.7c0 37.4 -28.2 71.6 -65 78.6c-5.5 1 -11.1 1.6 -16.6 1.6c-162.6 0 -325.2 0 -487.7 0c-39.9 0.0001 -74.7 -30.5999 -79.9 -70.2c-0.5 -3.5 -0.8 -7 -0.8 -10.6c0 -163 0 -326 0 -488.9c0 -37.4 28.2 -71.6 65 -78.6c5.4 -1 11.1 -1.6 16.6 -1.6c162.7 -0.1 325.4 -0.1 488.1 -0.1c37.4 0 71.6 28.2 78.6 65c1 5.4 1.6 11.1 1.6 16.6c0.1 81.2 0.1 162.3 0.1 243.5l0 0l0 0z"></path></g><g transform="translate(0 0)"><path fill="#ffffff" d="m593.9 420.2l-176 223.3l0.6 -153.1l175.4 -70.2"></path><ellipse fill="#ffffff" rx="316.1" ry="272.6" transform="translate(323.1 281.8)"></ellipse></g><rect fill="#000000" fill-opacity="0" width="90.8" height="90.8" transform="matrix(0.94 0 0 0.94 469.624 315.024)" style="animation-name: eaf-aaaa-2;"></rect><rect fill="#000000" fill-opacity="0" width="90.8" height="90.8" transform="matrix(0.94 0 0 0.94 342.824 315.024)" style="animation-name: eaf-aaaa-3;"></rect><rect fill="#000000" fill-opacity="0" width="90.8" height="90.8" transform="matrix(0.94 0 0 0.94 215.924 315.024)" style="animation-name: eaf-aaaa-4;"></rect><rect fill="#000000" fill-opacity="0" width="90.8" height="90.8" transform="matrix(0.94 0 0 0.94 89.024 315.024)" style="animation-name: eaf-aaaa-5;"></rect><path fill="#000000" d="m163.5 88.7l72.7 2.6c15.3 0.6 28.9 10.2 34.8 24.7l21.5 53.2c5 12.4 3.7 26.5 -3.6 37.6l-27.5 42.4c16.3 23.4 60.6 78.2 107.6 110.3l35 -21.5c8.9 -5.5 19.5 -7.1 29.6 -4.5l69.6 17.8c18.5 4.7 31 22.5 29.5 42l-4.5 59.6c-1.6 20.9 -18.7 37.3 -39 34.9c-268.2 -31.1 -425.4 -399.1 -325.7 -399.1z" transform="matrix(0.92 0 0 0.92 26.6455 23.0693)" style="animation-name: eaf-aaaa-6, eaf-aaaa-7, eaf-aaaa-8, eaf-aaaa-9; animation-composition: replace, add, add, replace;"></path><g transform="matrix(0 0 0 0 333.0686 281.8)" style="animation-name: eaf-aaaa-14, eaf-aaaa-15, eaf-aaaa-16; animation-composition: replace, add, add;"><path fill="#000000" d="m116.7 -212l-115.4 63.9l0 -44.5c0 -33.5 -27.4 -60.9 -60.9 -60.9l-226.8 0c-33.5 0 -60.9 27.4 -60.9 60.9l0 167.3c0 33.5 27.4 60.9 60.9 60.9l226.8 0c33.5 0 60.9 -27.4 60.9 -60.9l0 -48.4l111.7 67.1c19.6 11.8 44.7 -2.1 45.1 -25l2.8 -154c0.4 -22.8 -24.1 -37.6 -44.2 -26.4l0 0z"></path><path fill="#ffc926" d="m-124.1 -22.6c-1.6 -2.4 -2.2 -3.9 -2.1 -5.1c0 -0.2 23.6 -33.1 29.8 -43.3c6.7 -11 21.1 -28.3 17.6 -42.1c-1.1 -4.5 -6.1 -7.9 -10.5 -9l1 -43.9c-0.3 -15.3 -6.2 -29.9 -16.4 -41.2c-5 -5.4 -12.4 -11.3 -21 -16.9c-3.2 -0.3 -6.5 -0.6 -9.8 -0.9c-17.3 -9.7 -37.1 -17.2 -51.6 -16.9c-8 0.2 -7.4 9.3 -10.6 15.4c-2.1 0.1 -4.2 0.2 -6.3 0.3c-23.9 9.1 -42.6 27.8 -44.9 54.2c-0.2 5.9 -0.3 12 -0.3 17.9c0 10.1 0.4 20.3 1 30.3c-7.6 1.9 -12.9 10.7 -12.9 17.4c0 11.9 11.9 25.7 18.3 35.8c2.4 3.9 29.5 42.2 29.5 42.8c0 1.2 -0.8 2.6 -2.6 5.3c-18.3 25.2 -49.8 29.8 -76.7 40.6c25.3 6.3 52.9 10.6 82.1 12.5l64 0c33.1 -2.1 64.2 -7.3 92.1 -15.1c-25.2 -9.2 -53 -15.1 -69.7 -38.1z" transform="matrix(0.9976 -0.0698 0.0698 0.9976 25.1786 -20.5329)" style="animation-name: eaf-aaaa-10, eaf-aaaa-11, eaf-aaaa-12, eaf-aaaa-13; animation-composition: replace, add, add, add;"></path></g></g></g></svg>