<?xml version="1.0" encoding="utf-8"?>
<svg xmlns="http://www.w3.org/2000/svg" viewBox="0 0 500 500" overflow="hidden" preserveAspectRatio="xMidYMid meet" id="eaf-db5-0">
  <defs>
    <clipPath id="eaf-db5-1">
      <rect x="0" y="0" width="500" height="500"/>
    </clipPath>
    <style>#eaf-db5-0 * {animation: 12000ms linear infinite normal both running;offset-rotate:0deg}@keyframes eaf-db5-2{0%{fill:#000000}12.5%{fill:#fff}49.17%{fill:#fff}53.33%,100%{fill:#000000}}@keyframes eaf-db5-3{0%{opacity:0}48.33%{opacity:0;animation-timing-function:ease-in-out}55.83%{opacity:1}73.33%{opacity:1;animation-timing-function:ease-in-out}80%,100%{opacity:0}}@keyframes eaf-db5-4{0%,100%{transform:none;offset-path:path("m247.8632 156.5321l-1.1132 -19.6826l0.2275 -30.0841l0 0l0 -80.1742l0 0l0.8858 129.9409")}}@keyframes eaf-db5-5{0%{offset-distance:0%;animation-timing-function:ease-in-out}12.5%{offset-distance:7.5848%;animation-timing-function:ease-in-out}33.61%{offset-distance:19.1596%}40.83%{offset-distance:19.1596%;animation-timing-function:ease-in-out}48.06%{offset-distance:50.0056%}55.28%{offset-distance:50.0056%;animation-timing-function:ease-in-out}62.5%,100%{offset-distance:100%}}@keyframes eaf-db5-6{0%{transform:scale(0.8804,0.8804);animation-timing-function:ease-in-out}12.5%{transform:scale(1,1)}19.73%{transform:scale(1,1);animation-timing-function:ease-in-out}23.89%{transform:scale(0.95,0.95);animation-timing-function:ease-in-out}26.11%{transform:scale(1,1)}33.61%{transform:scale(1,1);animation-timing-function:ease-in-out}40.83%{transform:scale(1,-0.9029);animation-timing-function:ease-in-out}62.5%,100%{transform:scale(0.8804,0.8804)}}@keyframes eaf-db5-7{0%{transform:translate(-246.095px,-139.1431px)}12.5%{transform:translate(-246.095px,-139.1431px);animation-timing-function:ease-in-out}33.61%{transform:translate(-246.3225px,-109.059px);animation-timing-function:ease-in-out}62.5%,100%{transform:translate(-246.095px,-139.1431px)}}@keyframes eaf-db5-8{0%{opacity:1}55.28%{opacity:1;animation-timing-function:ease-in-out}55.55%{opacity:0}81.39%{opacity:0;animation-timing-function:ease-in-out}89.73%,100%{opacity:1}}@keyframes eaf-db5-9{0%,100%{transform:none;offset-path:path("m198.695 235.6736l-16.445 15.7264l-47.795 20.4l0 0l0 0l-186.4486 -1.099l250.6886 -35.0274")}}@keyframes eaf-db5-10{0%{offset-distance:0%;animation-timing-function:ease-in-out}12.5%{offset-distance:4.4243%;animation-timing-function:ease-in-out}33.61%{offset-distance:14.5287%}48.06%{offset-distance:14.5287%;animation-timing-function:ease-in-out}55.28%{offset-distance:50.7825%;animation-timing-function:ease-in-out}62.5%,100%{offset-distance:100%}}@keyframes eaf-db5-11{0%{transform:rotate(0)}40.83%{transform:rotate(0);animation-timing-function:ease-in-out}48.06%{transform:rotate(-90deg)}55.28%{transform:rotate(-90deg);animation-timing-function:ease-in-out}62.5%,100%{transform:rotate(0)}}@keyframes eaf-db5-12{0%{transform:scale(1,1)}19.73%{transform:scale(1,1);animation-timing-function:ease-in-out}23.89%{transform:scale(0.95,0.95);animation-timing-function:ease-in-out}26.11%{transform:scale(1,1)}33.61%{transform:scale(1,1);animation-timing-function:ease-in-out}40.83%{transform:scale(-0.69,1)}56.94%{transform:scale(-0.69,1);animation-timing-function:ease-in-out}62.5%,100%{transform:scale(1,1)}}@keyframes eaf-db5-13{0%{transform:translate(-181.595px,-253.6936px)}12.5%{transform:translate(-181.595px,-253.6936px);animation-timing-function:ease-in-out}33.61%{transform:translate(-133.8px,-274.0936px);animation-timing-function:ease-in-out}62.5%,100%{transform:translate(-181.595px,-253.6936px)}}@keyframes eaf-db5-14{0%{opacity:1}55.28%{opacity:1;animation-timing-function:ease-in-out}55.55%{opacity:0}80%{opacity:0;animation-timing-function:ease-in-out}86.11%,100%{opacity:1}}@keyframes eaf-db5-15{0%,100%{transform:none;offset-path:path("m296.7449 236.4936l14.455 14.7064l50.055 17.7065l0 0l0 0l179.4268 0l-243.9368 -32.4129")}}@keyframes eaf-db5-16{0%{offset-distance:0%;animation-timing-function:ease-in-out}12.5%{offset-distance:4.1306%;animation-timing-function:ease-in-out}33.61%{offset-distance:14.766%}48.06%{offset-distance:14.766%;animation-timing-function:ease-in-out}55.28%{offset-distance:50.7072%;animation-timing-function:ease-in-out}62.5%,100%{offset-distance:100%}}@keyframes eaf-db5-17{0%{transform:rotate(0)}40.83%{transform:rotate(0);animation-timing-function:ease-in-out}48.06%{transform:rotate(90deg)}56.94%{transform:rotate(90deg);animation-timing-function:ease-in-out}62.5%,100%{transform:rotate(0)}}@keyframes eaf-db5-18{0%{transform:scale(1,1)}19.73%{transform:scale(1,1);animation-timing-function:ease-in-out}23.89%{transform:scale(0.95,0.95);animation-timing-function:ease-in-out}26.11%{transform:scale(1,1)}33.61%{transform:scale(1,1);animation-timing-function:ease-in-out}40.83%{transform:scale(-0.6938,1)}56.94%{transform:scale(-0.6938,1);animation-timing-function:ease-in-out}62.5%,100%{transform:scale(1,1)}}@keyframes eaf-db5-19{0%{transform:translate(-310.545px,-253.4936px)}12.5%{transform:translate(-310.545px,-253.4936px);animation-timing-function:ease-in-out}33.61%{transform:translate(-360.6px,-271.2px);animation-timing-function:ease-in-out}62.5%,100%{transform:translate(-310.545px,-253.4936px)}}@keyframes eaf-db5-20{0%{opacity:1}55.28%{opacity:1;animation-timing-function:ease-in-out}55.55%{opacity:0}78.33%{opacity:0;animation-timing-function:ease-in-out}83.06%,100%{opacity:1}}@keyframes eaf-db5-21{0%{fill:#fff}12.5%{fill:#f4b526}49.17%{fill:#f4b526}53.33%,100%{fill:#fff}}@keyframes eaf-db5-22{0%,100%{filter:none}}@keyframes eaf-db5-23{0%{filter:drop-shadow(0 0 0 #ffe669)}12.5%{filter:drop-shadow(0 0 0 #ffe669)}13.61%{filter:drop-shadow(4.4563px 4.4563px 14px #ffe669)}49.17%{filter:drop-shadow(4px 4px 14px #ffe669)}50.55%,100%{filter:drop-shadow(0 0 0 #ffe669)}}</style>
  </defs>
  <g clip-path="url('#eaf-db5-1')" style="isolation: isolate;">
    <g>
      <g>
        <rect fill="#000000" width="81" height="73.2" transform="translate(-190 -3.5)"/>
        <rect fill="#ffffff" stroke="#f04d28" stroke-miterlimit="10" width="81" height="73.2" transform="translate(-190 90)"/>
        <rect fill="#000000" width="81" height="73.2" transform="translate(-190 183.5)"/>
        <rect fill="#bcbcbc" width="81" height="73.2" transform="translate(-190 277.1)"/>
        <rect fill="#ffbf00" width="81" height="73.2" transform="translate(-190 370.6)"/>
        <rect fill="#ffbf00" width="81" height="73.2" transform="translate(-190 370.6)"/>
        <rect fill="#f4b526" width="81" height="73.2" transform="translate(-190 463.4)"/>
        <rect fill="#444444" width="81" height="73.2" transform="translate(-190 557.6)"/>
      </g>
      <path fill="#000000" d="m448.3 323.5c0 10.2 -8.3 18.5 -18.5 18.5l-357.8 0c-10.2 0 -18.5 -8.3 -18.5 -18.5l0 -240.7c0 -10.2 8.3 -18.5 18.5 -18.5l357.8 0c10.2 0 18.5 8.3 18.5 18.5l0 240.7z" transform="translate(1.6199 0)" style="animation-name: eaf-db5-2;"/>
      <path d="m180.5 238.9c4.2 -9.8 8.1 -18.9 12 -28c1.8 -4.1 3.5 -8.3 5.3 -12.5c9.1 -21 33.3 -25.6 49.6 -9.4c0.5 0.5 0.8 1.1 1.4 2c7.9 -7.1 16.6 -11.3 26.9 -11.4c10.3 -0.1 19 3.2 26.1 11.1c6.4 -5.9 13.8 -9.3 22.3 -10.7c19.9 -3.4 36.4 10.2 36.4 30.4c0 15.8 0 31.6 0 47.4c0 10 -7.4 15.7 -17 13.3c-5.9 -1.4 -9.4 -5.6 -9.4 -11.8c-0.1 -14.4 -0.2 -28.8 -0.3 -43.2c-0.1 -10.4 -7.7 -15.9 -17.7 -12.6c-5.7 1.8 -8 5 -8 11.4c-0.1 14.3 0 28.6 -0.1 42.8c-0.1 8.3 -3.2 12.2 -10.6 13.7c-9 1.8 -16.1 -3.7 -16.5 -12.9c-0.2 -5.2 -0.1 -10.4 -0.1 -15.6c0 -9.5 0.1 -18.9 0 -28.4c-0.1 -7.6 -4.6 -11.7 -12.7 -11.7c-7.9 0 -12.8 4.4 -12.9 11.7c-0.1 14.4 0 28.8 0 43.2c0 8.9 -4.9 14.1 -13 14.1c-8.1 0 -13.4 -5.7 -13.4 -14.4c0 -15.9 0 -31.8 0 -47.8c0 -1.4 0.1 -2.8 -0.3 -4.1c-0.8 -2.9 -3.3 -3.4 -5.2 -1.2c-1.1 1.3 -1.9 3 -2.7 4.6c-7.7 16.6 -15.4 33.2 -23.1 49.8c-3.1 6.7 -7.7 11.7 -15.5 12.4c-8.3 0.7 -14.8 -3.5 -19 -12.3c-7 -14.8 -13.8 -29.8 -20.7 -44.6c-2.4 -5.1 -4.7 -10.2 -7.1 -15.3c-3.7 -8 -1.4 -15.1 5.8 -18.2c7.2 -3.2 13.7 -0.3 17.2 7.7c6.8 15.4 13.5 30.8 20.3 46.2c0.5 1.2 1.1001 2.4 2 4.3z" transform="translate(0 -15.6)" opacity="0" style="animation-name: eaf-db5-3; fill: rgb(238, 185, 36);"/>
      <path fill="#007599" d="m133.8 136.8c9.3 -5.4 18.3 -10.6 27.3 -15.9c27.5 -15.9 55.1 -31.8 82.6 -47.8c2 -1.1 3.5 -1.5 5.7 -0.2c35.5 20.7 71.1 41.2 106.7 61.8c1.1 0.6 2.1 1.3 3.6 2.2c-4.4 2.5 -8.4 4.9 -12.4 7.3c-32.5 18.8 -65 37.5 -97.4 56.4c-2.3 1.3 -3.9 1.4 -6.3 0c-35.9 -20.9 -71.9 -41.6 -107.8 -62.4c-0.5 -0.3 -1.1 -0.8 -2 -1.4z" transform="matrix(0.8804 0 0 0.8804 31.204 34.0321)" style="animation-name: eaf-db5-4, eaf-db5-5, eaf-db5-6, eaf-db5-7, eaf-db5-8; animation-composition: replace, add, add, add, replace;"/>
      <path fill="#007599" d="m133.1 171.7c1.4 0.7 2.4 1.2 3.3 1.8c30.7 17.8 61.5 35.5 92.2 53.3c1.8 1.1 3.1 2.1 3.1 4.6c-0.1 32.4 -0.1 64.8 -0.1 97.2c0 0.7 -0.1 1.4 -0.2 2.5c-2.9 -1.7 -5.5 -3.1 -8.2 -4.6c-29.3 -16.9 -58.5 -33.9 -87.8 -50.8c-1.9 -1.1 -2.6 -2.3 -2.6 -4.5c0.1 -32.1 0 -64.2 0.1 -96.3c0 -0.8 0.1 -1.8 0.2 -3.2z" transform="translate(17.1 -18.02)" style="animation-name: eaf-db5-9, eaf-db5-10, eaf-db5-11, eaf-db5-12, eaf-db5-13, eaf-db5-14; animation-composition: replace, add, add, add, add, replace;"/>
      <path fill="#007599" d="m262.1 331c-0.1 -1.2 -0.2 -2.1 -0.2 -3.1c0 -32 0 -64 -0.1 -96c0 -2.6 0.9 -4 3 -5.3c30.8 -17.7 61.5 -35.5 92.2 -53.3c1 -0.6 2 -1.1 3.5 -1.9c0 1.7 0 2.8 0 4c0 31.7 0 63.3 0.1 95c0 2.7 -0.8 4.1 -3.2 5.5c-31.2 18 -62.4 36 -93.6 54.1c-0.3 0.4 -0.9 0.7 -1.7 1z" transform="translate(-13.8 -17)" style="animation-name: eaf-db5-15, eaf-db5-16, eaf-db5-17, eaf-db5-18, eaf-db5-19, eaf-db5-20; animation-composition: replace, add, add, add, add, replace;"/>
      <path fill="#444444" d="m499.9 63.1c0 -4.4 -0.4 -8.8 -1.2 -12.8c-5.6 -28.4 -31.6 -50 -60.4 -50c-124.8 0 -249.6 0 -374.4 0c-4.4 0 -8.8 0.4 -12.8 1.2c-28.4 5.6 -50 31.6 -50 60.4c0 125.2 0 250 0 375.2c0 2.4 0 5.2 0.4 8c4 30.4 30.8 54 61.2 54c124.8 0 249.6 0 374.4 0c4.4 0 8.8 -0.4 12.8 -1.2c28.4 -5.6 50 -31.6 50 -60.4c0 -62.4 0 -125.2 0 -187.6c0 -62.4 0 -124.4 0 -186.8zm-70.1 278.9l-357.8 0c-10.2 0 -18.5 -8.3 -18.5 -18.5l0 -240.7c0 -10.2 8.3 -18.5 18.5 -18.5q74.2076 0 357.8 0c10.2 0 18.5 8.3 18.5 18.5l0 240.7c0 10.2 -8.3 18.5 -18.5 18.5z"/>
      <path fill="#ffffff" d="m475.5 52.3c0 -10.2 -8.3 -18.5 -18.5 -18.5l-412.2 0c-10.2 0 -18.5 8.3 -18.5 18.5l0 132.3l0 63.6l0 147.5c0 10.2 8.3 18.5 18.5 18.5l150.5 0c0 0 1.3 -0.1 2.6 0.4l-24.5 36.4c-8.2 0 -24 -0.1 -24 -0.1c-8.6 0 -15.6 7 -15.6 15.6c0 8.6 7 15.6 15.6 15.6l194.2 0.1c8.6 0 15.6 -7 15.6 -15.6c0 -8.6 -7 -15.6 -15.6 -15.6c0 0 -10.5 0 -21.1 0l-18.7 -36.7c0.7 -0.2 1.2 -0.2 1.2 -0.2l152 0c10.2 0 18.5 -8.3 18.5 -18.5l0 -343.3zm-205.5 395.3c0 1.5 -0.8 3.2 -3 3.2c-8.2 0 -23.4 0 -32.2 0c-2.8 0 -3 -1.5 -3 -3.9c0 -7 0 -21.6 0 -27.7c0 -4.1 4.8 -4.2 4.8 -4.2l29.3 0c0 0 4.1 -0.3 4.1 4c0 6.6 0 22.4 0 28.6zm159.8 -105.6l-357.8 0c-10.2 0 -18.5 -8.3 -18.5 -18.5l0 -240.7c0 -10.2 8.3 -18.5 18.5 -18.5l357.8 0c10.2 0 18.5 8.3 18.5 18.5l0 240.7c0 10.2 -8.3 18.5 -18.5 18.5z"/>
      <g style="filter: drop-shadow(rgb(255, 230, 105) 0px 0px 0px); animation-name: eaf-db5-22, eaf-db5-23; animation-composition: replace, add;">
        <ellipse fill="#000000" rx="18.2" ry="18.2" transform="translate(250.9 375.5)" style="animation-name: eaf-db5-21;"/>
      </g>
    </g>
  </g>
</svg>