<svg xmlns="http://www.w3.org/2000/svg" viewBox="0 0 769 769" overflow="hidden" preserveAspectRatio="xMidYMid meet" id="eaf-89d6-0"><defs><clipPath id="eaf-89d6-1"><rect x="0" y="0" width="769" height="769"></rect></clipPath><style>#eaf-89d6-0 * {animation: 20000ms linear infinite normal both running;offset-rotate:0deg}@keyframes eaf-89d6-2{0%,100%{transform:translate(2350.4416px,53.9397px)}}@keyframes eaf-89d6-3{0%{animation-timing-function:step-start}44.34%{transform:rotate(0);animation-timing-function:ease-in-out}47.34%{transform:rotate(28deg);animation-timing-function:ease-in-out}50%,100%{transform:rotate(0)}}@keyframes eaf-89d6-4{0%,100%{transform:translate(-2350.4416px,-53.9397px)}}@keyframes eaf-89d6-5{0%,100%{transform:translate(2927.8003px,204.9px)}}@keyframes eaf-89d6-6{0%{transform:scale(1,1)}44%{transform:scale(1,1);animation-timing-function:ease-in-out}48.84%{transform:scale(0.5119,0.8567);animation-timing-function:ease-in-out}52.34%{transform:scale(0.8057,0.9968);animation-timing-function:ease-in-out}55.5%{transform:scale(0.8057,0.7549);animation-timing-function:ease-in-out}60.17%{transform:scale(1.1272,1.1301);animation-timing-function:ease-in-out}62.84%{transform:scale(0.8057,1.1301);animation-timing-function:ease-in-out}68.67%,100%{transform:scale(0.9791,1.0338)}}@keyframes eaf-89d6-7{0%,100%{transform:translate(-2871.85px,-124.85px)}}@keyframes eaf-89d6-8{0%,100%{transform:none;offset-path:path("m1773.0407 593.5l0 0q184.9132 -469.1604 248.8332 -493.9q63.92 -24.7396 147.9947 35.7l-42.6084 -83.6783")}}@keyframes eaf-89d6-9{0%{offset-distance:0%}40.34%{offset-distance:0%}42.84%{offset-distance:68.7997%;animation-timing-function:cubic-bezier(0,0,0.58,1)}45.84%{offset-distance:88.4103%;animation-timing-function:cubic-bezier(0,0,0.58,1)}49.17%,100%{offset-distance:100%}}@keyframes eaf-89d6-10{0%,100%{transform:translate(-1773.0407px,-593.5px)}}@keyframes eaf-89d6-11{0%,100%{transform:translate(2048.2501px,492.55px)}}@keyframes eaf-89d6-12{0%{transform:rotate(0)}24.34%{transform:rotate(0);animation-timing-function:ease-in-out}26.5%{transform:rotate(21deg);animation-timing-function:ease-in-out}29.84%{transform:rotate(-11.09deg);animation-timing-function:ease-in-out}33%{transform:rotate(21deg);animation-timing-function:ease-in-out}36.34%{transform:rotate(-11.09deg);animation-timing-function:ease-in-out}39.5%{transform:rotate(21deg);animation-timing-function:ease-in-out}42.84%{transform:rotate(-11.09deg);animation-timing-function:ease-in-out}46%{transform:rotate(21deg);animation-timing-function:ease-in-out}49.34%,100%{transform:rotate(-11.09deg)}}@keyframes eaf-89d6-13{0%,100%{transform:translate(-2048.2501px,-492.55px)}}@keyframes eaf-89d6-14{0%,100%{transform:translate(3266.8003px,554.75px)}}@keyframes eaf-89d6-15{0%{transform:skewX(0)}51.34%{transform:skewX(0)}57.67%{transform:skewX(-18deg)}62.67%{transform:skewX(13deg)}66.33%{transform:skewX(-9deg)}69.5%{transform:skewX(-28deg)}72.67%{transform:skewX(25deg)}78.33%,100%{transform:skewX(3deg)}}@keyframes eaf-89d6-16{0%,100%{transform:translate(-3290.8003px,-554.75px)}}@keyframes eaf-89d6-17{0%,100%{transform:translate(2855.4001px,572.0012px)}}@keyframes eaf-89d6-18{0%{transform:rotate(0)}43.67%{transform:rotate(0)}66.33%,100%{transform:rotate(360deg)}}@keyframes eaf-89d6-19{0%,100%{transform:translate(-2855.4001px,-572.0012px)}}@keyframes eaf-89d6-20{0%,100%{transform:translate(4855.4893px,416.3432px)}}@keyframes eaf-89d6-21{0%{animation-timing-function:step-start}86.84%{transform:rotate(-12deg);animation-timing-function:ease-in-out}91.5%{transform:rotate(15deg);animation-timing-function:ease-in-out}95.17%{transform:rotate(-19deg);animation-timing-function:ease-in-out}100%{transform:rotate(19deg)}}@keyframes eaf-89d6-22{0%,100%{transform:translate(-4855.4893px,-416.3432px)}}@keyframes eaf-89d6-23{0%,100%{transform:translate(342.3867px,416.3432px)}}@keyframes eaf-89d6-24{0%{transform:rotate(19deg);animation-timing-function:ease-in-out}4.17%{transform:rotate(-14.7191deg);animation-timing-function:ease-in-out}8.16%{transform:rotate(16.2809deg);animation-timing-function:ease-in-out}13.34%,100%{transform:rotate(-11.7191deg)}}@keyframes eaf-89d6-25{0%,100%{transform:translate(-342.3867px,-416.3432px)}}@keyframes eaf-89d6-26{0%,100%{transform:none;offset-path:path("m3727.1003 337.45l0 -132.55l0 408.4l0 -408.4l0 408.4l0 -408.4l0 408.4l0 -408.4")}}@keyframes eaf-89d6-27{0%{offset-distance:0%}61.34%{offset-distance:5.1317%;animation-timing-function:cubic-bezier(0.34,0,0.67,0.99)}67.67%{offset-distance:20.9431%;animation-timing-function:cubic-bezier(0.34,0,0.67,0.99)}72.83%{offset-distance:36.7545%;animation-timing-function:cubic-bezier(0.34,0,0.67,0.99)}79.17%{offset-distance:52.5659%;animation-timing-function:cubic-bezier(0.34,0,0.67,0.99)}84.34%{offset-distance:68.3772%;animation-timing-function:cubic-bezier(0.34,0,0.67,0.99)}90.67%{offset-distance:84.1886%;animation-timing-function:cubic-bezier(0.34,0,0.67,0.99)}95.84%,100%{offset-distance:100%}}@keyframes eaf-89d6-28{0%,100%{transform:translate(-3727.1003px,-337.45px)}}@keyframes eaf-89d6-29{0%,100%{transform:translate(4198.9868px,543.65px)}}@keyframes eaf-89d6-30{0%{transform:rotate(0)}70.67%{transform:rotate(0)}96%,100%{transform:rotate(-360deg)}}@keyframes eaf-89d6-31{0%,100%{transform:translate(-4198.9868px,-543.65px)}}@keyframes eaf-89d6-32{0%,100%{transform:none;offset-path:path("m1540.8499 358.25l0 0l45.4532 -133.8q-16.6662 194.8 -16.6662 194.8c0 0 -109.5072 -221.4595 -138.3155 -193.85c-21.796 20.889 86.8152 270.8678 103.4064 247.5939c63.4801 -89.0494 53.0288 -275.4267 53.0288 -275.4267q0 0 -7.5755 194.0661")}}@keyframes eaf-89d6-33{0%{offset-distance:0%}15%{offset-distance:0%;animation-timing-function:ease-in-out}17.34%{offset-distance:10.5395%;animation-timing-function:ease-in-out}21.17%{offset-distance:25.1215%;animation-timing-function:ease-in-out}25%{offset-distance:43.5161%;animation-timing-function:ease-in-out}29.34%{offset-distance:64.2821%;animation-timing-function:ease-in-out}32.84%{offset-distance:85.5147%;animation-timing-function:ease-in-out}37.17%,100%{offset-distance:100%}}@keyframes eaf-89d6-34{0%,100%{transform:translate(-1540.8499px,-358.25px)}}@keyframes eaf-89d6-35{0%,100%{transform:none;offset-path:path("m2549.0882 352.7l0 0l-28.8762 66.8531")}}@keyframes eaf-89d6-36{0%{offset-distance:0%}43%{offset-distance:0%;animation-timing-function:ease-in-out}46.34%,100%{offset-distance:100%}}@keyframes eaf-89d6-37{0%{transform:rotate(-45deg)}36%{transform:rotate(-45deg);animation-timing-function:ease-in-out}44%{transform:rotate(-11deg)}46.34%{transform:rotate(-50deg)}59.17%,100%{transform:rotate(-16deg)}}@keyframes eaf-89d6-38{0%,100%{transform:matrix(0.6399,0,0,0.6399,-271.4948,-240.4503)}}@keyframes eaf-89d6-39{0%,100%{transform:none;offset-path:path("m2528.1425 328.5801l0 0l-17.1432 59.568l-3.6202 -53.5389")}}@keyframes eaf-89d6-40{0%{offset-distance:0%}43%{offset-distance:0%;animation-timing-function:ease-in-out}46.34%{offset-distance:53.5992%;animation-timing-function:ease-in-out}60.67%,100%{offset-distance:100%}}@keyframes eaf-89d6-41{0%,100%{transform:matrix(1.7945,0,0,1.7945,-282.3067,-251.1988)}}@keyframes eaf-89d6-42{0%,100%{transform:none;offset-path:path("m2953.4007 336.95l-4512.6806 0")}}@keyframes eaf-89d6-43{0%{offset-distance:0%}100%{offset-distance:100%}}@keyframes eaf-89d6-44{0%,100%{transform:translate(-2953.4007px,-358.95px)}}</style></defs><g clip-path="url('#eaf-89d6-1')" style="isolation: isolate;"><g><path fill="#444444" d="m768.1 385.5c0 96.2 0 192.5 0 288.8c0 44.1 -33.3 84.4 -76.7 92.7c-6.4 1.2 -13.1 1.9 -19.6 1.9c-191.9 0.1 -383.8 0.1 -575.7 0.1c-47 0 -88.1 -36.1 -94.2 -82.9c-0.6 -4.1 -0.9 -8.3 -0.9 -12.5c0 -192.4 0 -384.7 0 -577c0 -44.1 33.3 -84.5 76.7 -92.7c6.4 -1.3 13 -1.9 19.6 -1.9c192 -0.1 384.1 -0.1 576.1 -0.1c44.1 0 84.5 33.3 92.7 76.7c1.2 6.4 1.9 13.1 1.9 19.6c0.1 95.8 0.1 191.6 0.1 287.3z"></path><g transform="translate(0 -22)"><line x1="-15.9" y1="112.9" x2="7845.8999" y2="112.9" fill="none" stroke="#c4c4c4" stroke-width="8" stroke-miterlimit="10"></line><line x1="-15.9" y1="415.7" x2="7845.8999" y2="415.7" fill="none" stroke="#c4c4c4" stroke-width="8" stroke-miterlimit="10"></line><line x1="-15.9" y1="567.2" x2="7845.8999" y2="567.2" fill="none" stroke="#c4c4c4" stroke-width="8" stroke-miterlimit="10"></line><line x1="-15.9" y1="718.6" x2="7845.8999" y2="718.6" fill="none" stroke="#c4c4c4" stroke-width="8" stroke-miterlimit="10"></line><line x1="-15.9" y1="264.3" x2="7845.8999" y2="264.3" fill="none" stroke="#c4c4c4" stroke-width="8" stroke-miterlimit="10"></line></g><g transform="translate(0 -22)" style="animation-name: eaf-89d6-42, eaf-89d6-43, eaf-89d6-44; animation-composition: replace, add, add;"><path fill="#ffffff" d="m2349.3 40.2c-8.5 0 -15.5 6.9 -15.5 15.5l0 169.7c-8.8 -3.6 -19 -5.7 -29.8 -5.7c-33.6001 0 -60.8 19.8 -60.8 44.1c0 24.4 27.2 44.1 60.8 44.1c26.8999 0 49.8 -12.8 57.7 -30.4c1.8999 -2.6 3 -5.7 3 -9.2l0 -212.6c0.1001 -8.6 -6.8 -15.5 -15.3999 -15.5z" style="animation-name: eaf-89d6-2, eaf-89d6-3, eaf-89d6-4; animation-composition: replace, add, add;"></path><path fill="#ffffff" d="m3010.1001 -0.8l-197.1001 0c-8.3 0 -15.1001 6.8 -15.1001 15.1l0 24.6l0 35.7l0 103.5c-7.7 -3.2 -16.6001 -5 -26.1001 -5c-29.3999 0 -53.3 17.3 -53.3 38.7c0 21.4 23.8999 38.7 53.3 38.7c26.5 0 48.3999 -14 52.6001 -32.4c0.5 -1.4 0.7 -2.8 0.7 -4.3l0 -1.7c0 -0.1 0 -0.2 0 -0.3c0 -0.1 0 -0.2 0 -0.3l0 -121.8l172.9001 0l0 88.4c-7.7 -3.2 -16.6001 -5 -26.1001 -5c-29.3999 0 -53.3 17.3 -53.3 38.7c0 21.4 23.8999 38.7 53.3 38.7c26.5 0 48.5 -14 52.6001 -32.4c0.2 -0.7 0.3999 -1.5 0.5 -2.2c0 0 0.1001 -0.1 0.1001 -0.2c0.1001 -0.2 0.1001 -0.5 0 -0.6c0 -0.4 0.1001 -0.8 0.1001 -1.2l0 -139.3l0 -35.7l0 -24.6c-0.0002 -8.4 -6.8003 -15.1 -15.1001 -15.1z" transform="translate(55.9503 80.05)" style="animation-name: eaf-89d6-5, eaf-89d6-6, eaf-89d6-7; animation-composition: replace, add, add;"></path><path fill="#ffffff" d="m1824 69.1l0 -7.4c0 -8.6 -6.9 -15.5 -15.5 -15.5c-8.5 0 -15.5 6.9 -15.5 15.5l0 180.8c-8.8 -3.6 -19 -5.7 -29.8 -5.7c-33.6 0 -60.8 19.8 -60.8 44.1c0 24.4 27.2 44.1 60.8 44.1c27 0 49.8 -12.8 57.7 -30.4c1.9 -2.6 3 -5.7 3 -9.2l0 -165.8c13.2 0.5 45.6 4.8 60.5 33c23.2 44 -23.2 91.7 -23.2 91.7c43 -18.3 56.3 -58.7 56.3 -58.7c19.2 -91.7 -85.3 -114.8 -93.5 -116.5z"></path><path fill="#ffffff" d="m1798.9 501.7c-6.8 0 -12.3 5.5 -12.3 12.3l0 80.4c-9.6 -3.8 -19.6 -4.8 -28.7 -2.6c-8.5 2 -15 7 -19 14.5c-4.8 9 -5.3 21 -1.5 31.3c6.3 16.5 23.4 28.2 39.4 37.5c5.6 3.2 11.2 6.1 15.6 8.3l3.7 1.9l0 -0.8c0.9 0.2 1.8 0.3 2.8 0.3c6.8 0 12.3 -5.5 12.3 -12.3l0 -158.5001c-0.0001 -6.8 -5.5001 -12.3 -12.3 -12.3zm-35.9 136.6c-3.5 -4.4 -5.3 -8.8 -5.5 -13.4c-0.2 -4.8 0.2 -10.6 4.3 -13c2 -1.2 4.3 -1.8 6.8 -1.8c6.1 0 12.8 3.7 18 8l0 38.9c-9.0001 -5.3 -17.6001 -11.2 -23.6001 -18.7z" transform="translate(0.0001 0)" style="animation-name: eaf-89d6-8, eaf-89d6-9, eaf-89d6-10; animation-composition: replace, add, add;"></path><path fill="#ffffff" d="m2177.1001 442c5.7 0 10.3 -6.6 10.3 -14.6l0 -44.9c0 -8.1 -4.6001 -14.6 -10.3 -14.6l-58.1001 6.8l0 -16.9c0 -11.2 -9.1001 -20.2 -20.2 -20.2c-11.2 0 -20.2 9.1 -20.2 20.2l0 21.7l-67.4 7.9l0 -29.6c0 -11.2 -9.1 -20.2 -20.2 -20.2c-11.2 0 -20.2 9.1 -20.2 20.2l0 34.4l-51.4 6c-5.7 0 -10.3 6.6 -10.3 14.6l0 44.9c0 8.1 4.6 14.6 10.3 14.6l51.4 -6l0 47.2l-51.4 6c-5.7 0 -10.3 6.6 -10.3 14.6l0 44.9c0 8.1 4.6 14.6 10.3 14.6l51.4 -6l0 39.7c0 11.2 9.1 20.2 20.2 20.2c11.2 0 20.2 -9.1 20.2 -20.2l0 -44.5l67.4 -7.9l0 52.4c0 11.2 9.1001 20.2 20.2 20.2c11.2 0 20.2 -9.1 20.2 -20.2l0 -57.2l58.1001 -6.8c5.7 0 10.3 -6.6 10.3 -14.6l0 -44.9c0 -8.1 -4.6001 -14.6 -10.3 -14.6l-58.1001 6.8l0 -47.2l58.1001 -6.8zm-98.6001 58.8l-67.4 7.9l0 -47.2l67.4 -7.9l0 47.2z" style="animation-name: eaf-89d6-11, eaf-89d6-12, eaf-89d6-13; animation-composition: replace, add, add;"></path><path fill="#ffffff" d="m3450.8999 429.1l-248.3999 0c-4.7 0 -11.3999 6.8 -11.3999 15.1l0 24.6l0 35.7l0 103.5c-7.7 -3.2 -16.6001 -5 -26.1001 -5c-29.3999 0 -53.3 17.3 -53.3 38.7c0 21.4 23.8999 38.7 53.3 38.7c26.5 0 48.3999 -14 52.6001 -32.4c0.5 -1.4 0.7 -2.8 0.7 -4.3l0 -1.7c0 -0.1 0 -0.2 0 -0.3c0 -0.1 0 -0.2 0 -0.3l0 -121.8l99.6001 0l0 88.4c-7.7 -3.2 -16.6001 -5 -26.1001 -5c-29.3999 0 -53.3 17.3 -53.3 38.7c0 21.4 23.8999 38.7 53.3 38.7c26.5 0 48.5 -14 52.6001 -32.4c0.2 -0.7 0.3999 -1.5 0.5 -2.2c0 0 0.1001 -0.1 0.1001 -0.2c0.1001 -0.2 0.1001 -0.5 0 -0.6c0 -0.4 0.1001 -0.8 0.1001 -1.2l0 -124.2l97.6001 0l0 88.4c-7.7 -3.2 -16.6001 -5 -26.1001 -5c-29.3999 0 -53.3 17.3 -53.3 38.7c0 21.4 23.8999 38.7 53.3 38.7c26.5 0 48.5 -14 52.6001 -32.4c0.2 -0.7 0.3999 -1.5 0.5 -2.2c0 0 0.1001 -0.1 0.1001 -0.2c0.1001 -0.2 0.1001 -0.5 0 -0.6c0 -0.4 0.1001 -0.8 0.1001 -1.2l0 -199.6c-0.2007 -8.3 -7.0007 -15.1 -19.0007 -15.1z" transform="translate(-24 0)" style="animation-name: eaf-89d6-14, eaf-89d6-15, eaf-89d6-16; animation-composition: replace, add, add;"></path><path fill="#af0000" d="m2946.8 453.9c-10.8 -8.2 -26 -12.2 -39.5 -12.5c-57 -1.3 -76.1001 45.1 -81.3999 95.4l-34.6001 0c-8.3 0 -15 7.4 -15 16.6c0 9.2 6.7 16.6 15 16.6l32.8999 0c-0.2 25.4 1.8 49.2 2.8 65.6c1 15.7 -1.7 42 -23.2 45.8c6.5 -7.4 10.3999 -17.8 10.2 -29.2c-0.3999 -22.3 -16.3 -40.1 -35.6001 -39.8c-19.3 0.3 -34.6001 18.5 -34.2 40.8c0.3 16.3 8.8999 30.2 21.1001 36.4c10.8 8.5 26.3 12.6 40.1001 13c71.1001 1.7 83.2 -71 83.1001 -132.6l24.3 0c8.3 0 15 -7.4 15 -16.6c0 -9.2 -6.7 -16.6 -15 -16.6l-25.3 0c-0.6001 -10.9 -1.3 -20.7 -1.8 -28.7c-0.8999 -14.8 1.5 -38.8 19.8 -44.7c-5.5 7.2 -8.8 16.8 -8.7 27.2c0.3999 22.3 16.3 40.1 35.6001 39.8c19.3 -0.3 34.6001 -18.5 34.2 -40.8c-0.2004 -15.6999 -8.3003 -29.1999 -19.8003 -35.6999z" style="animation-name: eaf-89d6-17, eaf-89d6-18, eaf-89d6-19; animation-composition: replace, add, add;"></path><g><path fill="#ffffff" d="m5395.7002 122.1l-197.1001 33c-8.2998 0 -15.1001 6.8 -15.1001 15.1l0 24.6l0 35.7l0 103.5c-7.7002 -3.2 -16.6001 -5 -26.1001 -5c-29.3999 0 -53.2998 17.3 -53.2998 38.7c0 21.4 23.8999 38.7 53.2998 38.7c26.5 0 48.3999 -14 52.6001 -32.4c0.5 -1.4 0.7002 -2.8 0.7002 -4.3l0 -1.7c0 -0.1 0 -0.2 0 -0.3c0 -0.1 0 -0.2 0 -0.3l0 -121.8l172.8999 -33l0 88.4c-7.7002 -3.2 -16.6001 -5 -26.1001 -5c-29.3999 0 -53.2998 17.3 -53.2998 38.7c0 21.4 23.8999 38.7 53.2998 38.7c26.5 0 48.5 -14 52.6001 -32.4c0.2002 -0.7 0.3999 -1.5 0.5 -2.2c0 0 0.1001 -0.1 0.1001 -0.2c0.1001 -0.2 0.1001 -0.5 0 -0.6c0 -0.4 0.1001 -0.8 0.1001 -1.2l0 -139.3l0 -35.7l0 -24.6c-0.0005 -8.3 -6.7002 -15.1 -15.1001 -15.1z"></path><path fill="#ffffff" d="m4874.7998 403.1c0.2002 0.6 -0.2998 -0.2 -0.3999 -1.1c-1.5 -14.6 -4.6001 -69.7 -4.6001 -69.7c0 0 11.7002 -17.2 26.5 -34.7c35.2002 -41.5 62.7002 -135.7 9.1001 -162.8c-27.7998 -14 -50.2002 18.2 -59.8999 39.8c-19.2002 42.9 -15.5 87.9 -14.2002 133.6c0.1001 3.1 -46.8999 40.4 -75.1001 69.9c-32.5 34 -54.3999 80.8 -43.3999 127.5c14.8999 63.1 73.7998 82.8 136.5 90.6c4.1001 0.5 7.7998 0.7 7.7998 6.1c0.1001 14.3 1.2002 28.7 0 42.9c-0.1001 0.8 -0.2002 1.6 -0.2998 2.4c-5.8999 -6.8 -14.1001 -12.7 -24 -16.6c-24.7002 -9.5 -50.2998 -2.7 -57.2002 15.2c-6.8999 17.9 7.5 40.2 32.1001 49.7c7.6001 2.9 15.2998 4.3 22.5 4.3c-0.1001 0.4 -0.1001 0.7 -0.2002 1.1c1.6001 0 3.2002 -0.1 4.7998 -0.2c27.3999 -1.9 44.7998 -14.6 52.3999 -40.6c2.3999 -8.2 3.7002 -16.9 4.2002 -25.5c0.7002 -13 0.2002 -26.1 0.2002 -39.1c61.6001 -6.6 107.2002 -34.7 109.3999 -88.8c1.6006 -39.1 -33.5996 -109.4 -126.1997 -104zm-112.5 89.5c-17.2998 -59 72.8999 -138.1 74.2998 -137.3c1.5 15.2 2.8999 36.9 4.3999 52.8c-4.1001 1.5 -60 23.3 -52.5 74.1c2.6001 17.3 17.2998 41.2 41.2002 42.7c-32.3999 -39 14.7998 -77.3 15.2998 -72.3c3 34 6 68.1 9 102.1c-50.0996 2.1 -79.9995 -22.1 -91.6997 -62.0999zm102.5 -279.6c2.7998 -12.6 13.7002 -60.2 31.6001 -59.8c14.2998 0.3 12 30.7 11.7998 40.5c-0.8999 34.3 -42.8999 93.2 -44.2998 94.3c1.7998 -1.4 -3 -32.7 -3 -37c-0.1001 -12.7 1.1001 -25.4 3.8999 -38zm91.7002 306.8c-2.6001 11.4 -9.7002 19.7 -19.6001 25.4c-14.8999 8.6 -31.2998 10.3 -48.5 11c-3.2998 -36.4 -6.3999 -74.7 -9.6001 -110.8c23.1001 -2.9 44.2002 3.1 62 18.9c16.8003 15.1 20.5 34.2 15.7002 55.5z" transform="matrix(0.9781 -0.2079 0.2079 0.9781 19.5415 1018.6111)" style="animation-name: eaf-89d6-20, eaf-89d6-21, eaf-89d6-22; animation-composition: replace, add, add;"></path><path fill="#ffffff" d="m5646.2998 358.3l-197.1001 33c-8.2998 0 -15.1001 6.8 -15.1001 15.1l0 24.6l0 35.7l0 103.5c-7.7002 -3.2 -16.6001 -5 -26.1001 -5c-29.3999 0 -53.2998 17.3 -53.2998 38.7c0 21.4 23.8999 38.7 53.2998 38.7c26.5 0 48.3999 -14 52.6001 -32.4c0.5 -1.4 0.7002 -2.8 0.7002 -4.3l0 -1.7c0 -0.1 0 -0.2 0 -0.3c0 -0.1 0 -0.2 0 -0.3l0 -121.8l172.8999 -33l0 88.4c-7.7002 -3.2 -16.6001 -5 -26.1001 -5c-29.3999 0 -53.2998 17.3 -53.2998 38.7c0 21.4 23.8999 38.7 53.2998 38.7c26.5 0 48.5 -14 52.6001 -32.4c0.2002 -0.7 0.3999 -1.5 0.5 -2.2c0 0 0.1001 -0.1 0.1001 -0.2c0.1001 -0.2 0.1001 -0.5 0 -0.6c0 -0.4 0.1001 -0.8 0.1001 -1.2l0 -139.3l0 -35.7l0 -24.6c0 -8.3 -6.7998 -15.1 -15.1001 -15.1z"></path><path fill="#ffffff" d="m5891 422.3c-8.5 0 -15.5 6.9 -15.5 15.5l0 169.7c-8.7998 -3.6 -19 -5.7 -29.7998 -5.7c-33.6001 0 -60.7998 19.8 -60.7998 44.1c0 24.4 27.2002 44.1 60.7998 44.1c26.8999 0 49.7998 -12.8 57.7002 -30.4c1.8999 -2.6 3 -5.7 3 -9.2l0 -212.5999c0.0996 -8.5 -6.8003 -15.5 -15.4004 -15.5z"></path><g><rect fill="#ffffff" width="64.7" height="605.8" transform="translate(4513.5 112.9)"></rect></g><g><rect fill="#ffffff" width="28.3" height="606.2" transform="translate(4621.1001 112.4)"></rect></g></g><g><rect fill="#ffffff" width="64.7" height="605.8" transform="translate(0.4 112.9)"></rect></g><g><rect fill="#ffffff" width="28.3" height="605.8" transform="translate(107.9 112.9)"></rect></g><path fill="#ffffff" d="m882.6 122.1l-197.1 33c-8.3 0 -15.1 6.8 -15.1 15.1l0 24.6l0 35.7l0 103.5c-7.7 -3.2 -16.6 -5 -26.1 -5c-29.4 0 -53.3 17.3 -53.3 38.7c0 21.4 23.9 38.7 53.3 38.7c26.5 0 48.4 -14 52.6 -32.4c0.5 -1.4 0.7 -2.8 0.7 -4.3l0 -1.7c0 -0.1 0 -0.2 0 -0.3c0 -0.1 0 -0.2 0 -0.3l0 -121.8l172.9 -33l0 88.4c-7.7 -3.2 -16.6 -5 -26.1 -5c-29.4 0 -53.3 17.3 -53.3 38.7c0 21.4 23.9 38.7 53.3 38.7c26.5 0 48.5 -14 52.6 -32.4c0.2 -0.7 0.4 -1.5 0.5 -2.2c0 0 0.1 -0.1 0.1 -0.2c0.1 -0.2 0.1 -0.5 0 -0.6c0 -0.4 0.1 -0.8 0.1 -1.2l0 -139.3l0 -35.7l0 -24.6c0.0001 -8.3 -6.7999 -15.1 -15.1 -15.1z"></path><path fill="#ffffff" d="m361.7 403.1c0.2 0.6 -0.3 -0.2 -0.4 -1.1c-1.5 -14.6 -4.6 -69.7 -4.6 -69.7c0 0 11.7 -17.2 26.5 -34.7c35.2 -41.5 62.7 -135.7 9.1 -162.8c-27.8 -14 -50.2 18.2 -59.9 39.8c-19.2 42.9 -15.4 87.9 -14.2 133.6c0.1 3.1 -46.9 40.4 -75.1 69.9c-32.5 34 -54.4 80.8 -43.4 127.5c14.9 63.1 73.8 82.8 136.5 90.6c4.1 0.5 7.8 0.7 7.8 6.1c0.1 14.3 1.2 28.7 0 42.9c-0.1 0.8 -0.2 1.6 -0.3 2.4c-5.9 -6.8 -14.1 -12.7 -24 -16.6c-24.7 -9.5 -50.3 -2.7 -57.2 15.2c-6.9 17.9 7.5 40.2 32.1 49.7c7.6 2.9 15.3 4.3 22.5 4.3c-0.1 0.4 -0.1 0.7 -0.2 1.1c1.6 0 3.2 -0.1 4.8 -0.2c27.4 -1.9 44.8 -14.6 52.4 -40.6c2.4 -8.2 3.7 -16.9 4.2 -25.5c0.7 -13 0.2 -26.1 0.2 -39.1c61.6 -6.6 107.2 -34.7 109.4 -88.8c1.5 -39.1 -33.6 -109.4 -126.2 -104zm-112.5 89.5c-17.3 -59 72.9 -138.1 74.3 -137.3c1.5 15.2 2.9 36.9 4.4 52.8c-4.1 1.5 -60 23.3 -52.5 74.1c2.6 17.3 17.3 41.2 41.2 42.7c-32.4 -39 14.8 -77.3 15.3 -72.3c3 34 6 68.1 9 102.1c-50.1 2.1 -80 -22.1 -91.7 -62.0999zm102.4 -279.6c2.8 -12.6 13.7 -60.2 31.6 -59.8c14.3 0.3 12 30.7 11.8 40.5c-0.9 34.3 -42.9 93.2 -44.3 94.3c1.8 -1.4 -3 -32.7 -3 -37c0 -12.7 1.2 -25.4 3.9 -38zm91.8 306.8c-2.6 11.4 -9.7 19.7 -19.6 25.4c-14.9 8.6 -31.3 10.3 -48.5 11c-3.3 -36.4 -6.4 -74.7 -9.6 -110.8c23.1 -2.9 44.2 3.1 62 18.9c16.8 15.1 20.5 34.2 15.7 55.5z" transform="matrix(0.9455 0.3256 -0.3256 0.9455 154.2018 -88.7872)" style="animation-name: eaf-89d6-23, eaf-89d6-24, eaf-89d6-25; animation-composition: replace, add, add;"></path><path fill="#ffffff" d="m1133.1 358.3l-197.1 33c-8.3 0 -15.1 6.8 -15.1 15.1l0 24.6l0 35.7l0 103.5c-7.7 -3.2 -16.6 -5 -26.1 -5c-29.4 0 -53.3 17.3 -53.3 38.7c0 21.4 23.9 38.7 53.3 38.7c26.5 0 48.4 -14 52.6 -32.4c0.5 -1.4 0.7 -2.8 0.7 -4.3l0 -1.7c0 -0.1 0 -0.2 0 -0.3c0 -0.1 0 -0.2 0 -0.3l0 -121.8l172.9 -33l0 88.4c-7.7 -3.2 -16.6 -5 -26.1 -5c-29.4 0 -53.3 17.3 -53.3 38.7c0 21.4 23.9 38.7 53.3 38.7c26.5 0 48.5 -14 52.6 -32.4c0.2 -0.7 0.4 -1.5 0.5 -2.2c0 0 0.1 -0.1 0.1 -0.2c0.1 -0.2 0.1 -0.5 0 -0.6c0 -0.4 0.1 -0.8 0.1 -1.2l0 -139.3l0 -35.7l0 -24.6c0 -8.3 -6.7 -15.1 -15.1 -15.1z"></path><path fill="#ffffff" d="m1377.9 422.3c-8.5 0 -15.5 6.9 -15.5 15.5l0 169.7c-8.8 -3.6 -19 -5.7 -29.8 -5.7c-33.6 0 -60.8 19.8 -60.8 44.1c0 24.4 27.2 44.1 60.8 44.1c26.9 0 49.8 -12.8 57.7 -30.4c1.9 -2.6 3 -5.7 3 -9.2l0 -212.5999c0.0001 -8.5 -6.8999 -15.5 -15.3999 -15.5z"></path><path fill="#ffffff" d="m3887.2 211.8l-248.3999 0c-4.7 0 -11.3999 6.8 -11.3999 15.1l0 24.6l0 35.7l0 103.5c-7.7 -3.2 -16.6001 -5 -26.1001 -5c-29.3999 0 -53.3 17.3 -53.3 38.7c0 21.4 23.8999 38.7 53.3 38.7c26.5 0 48.3999 -14 52.6001 -32.4c0.5 -1.4 0.7 -2.8 0.7 -4.3l0 -1.7c0 -0.1 0 -0.2 0 -0.3c0 -0.1 0 -0.2 0 -0.3l0 -121.8001l99.6001 0l0 88.4c-7.7 -3.2 -16.6001 -5 -26.1001 -5c-29.3999 0 -53.3 17.3 -53.3 38.7c0 21.4 23.8999 38.7 53.3 38.7c26.5 0 48.5 -14 52.6001 -32.4c0.2 -0.7 0.3999 -1.5 0.5 -2.2c0 0 0.1001 -0.1 0.1001 -0.2c0.1001 -0.2 0.1001 -0.5 0 -0.6c0 -0.4 0.1001 -0.8 0.1001 -1.2l0 -124.2l97.6001 0l0 88.4c-7.7 -3.2 -16.6001 -5 -26.1001 -5c-29.3999 0 -53.3 17.3 -53.3 38.7c0 21.4 23.8999 38.7 53.3 38.7c26.5 0 48.5 -14 52.6001 -32.4c0.2 -0.7 0.3999 -1.5 0.5 -2.2c0 0 0.1001 -0.1 0.1001 -0.2c0.1001 -0.2 0.1001 -0.5 0 -0.6c0 -0.4 0.1001 -0.8 0.1001 -1.2l0 -199.6c-0.3008 -8.3 -7.0007 -15.1 -19.0007 -15.1z" transform="translate(0 0)" style="animation-name: eaf-89d6-26, eaf-89d6-27, eaf-89d6-28; animation-composition: replace, add, add;"></path><path fill="#ad0000" d="m4296.8999 59.9l-248.3999 0c-4.7 0 -11.3999 6.8 -11.3999 15.1l0 24.6l0 35.7l0 103.5c-7.7 -3.2 -16.6001 -5 -26.1001 -5c-29.3999 0 -53.3 17.3 -53.3 38.7c0 21.4 23.8999 38.7 53.3 38.7c26.5 0 48.3999 -14 52.6001 -32.4c0.5 -1.4 0.7 -2.8 0.7 -4.3l0 -1.7c0 -0.1 0 -0.2 0 -0.3c0 -0.1 0 -0.2 0 -0.3l0 -121.8l99.5999 0l0 88.4c-7.7002 -3.2 -16.6001 -5 -26.1001 -5c-29.3999 0 -53.3 17.3 -53.3 38.7c0 21.4 23.9001 38.7 53.3 38.7c26.5 0 48.5 -14 52.6001 -32.4c0.2002 -0.7 0.3999 -1.5 0.5 -2.2c0 0 0.1001 -0.1 0.1001 -0.2c0.1001 -0.2 0.1001 -0.5 0 -0.6c0 -0.4 0.1001 -0.8 0.1001 -1.2l0 -124.2l97.6001 0l0 88.4c-7.7002 -3.2 -16.6001 -5 -26.1001 -5c-29.3999 0 -53.2998 17.3 -53.2998 38.7c0 21.4 23.8999 38.7 53.2998 38.7c26.5 0 48.5 -14 52.6001 -32.4c0.2002 -0.7 0.3999 -1.5 0.5 -2.2c0 0 0.1001 -0.1 0.1001 -0.2c0.1001 -0.2 0.1001 -0.5 0 -0.6c0 -0.4 0.1001 -0.8 0.1001 -1.2l0 -199.6c-0.3003 -8.3 -7.0005 -15.1 -19.0005 -15.1z"></path><path fill="#ffffff" d="m3454.2 7.7c-8.5 0 -15.5 6.9 -15.5 15.5l0 169.7c-8.8 -3.6 -19 -5.7 -29.8 -5.7c-33.6001 0 -60.8 19.8 -60.8 44.1c0 24.4 27.2 44.1 60.8 44.1c26.8999 0 49.8 -12.8 57.7 -30.4c1.8999 -2.6 3 -5.7 3 -9.2l0 -212.7c0.1001 -8.5 -6.8999 -15.4 -15.3999 -15.4z" transform="translate(0 37)"></path><path fill="#ffffff" d="m3286.7 77.9c-8.5 0 -15.5 6.9 -15.5 15.5l0 169.7c-8.8 -3.6 -19 -5.7 -29.8 -5.7c-33.6001 0 -60.8 19.8 -60.8 44.1c0 24.4 27.2 44.1 60.8 44.1c26.8999 0 49.8 -12.8 57.7 -30.4c1.8999 -2.6 3 -5.7 3 -9.2l0 -212.6c0.0002 -8.5 -6.8999 -15.5 -15.3999 -15.5z" transform="translate(0 17)"></path><g style="animation-name: eaf-89d6-29, eaf-89d6-30, eaf-89d6-31; animation-composition: replace, add, add;"><path fill="#ffffff" d="m4173.3999 448c-9.7002 0 -17.5 7.8 -17.5 17.5l0 114.3c-13.7002 -5.4 -27.8999 -6.8 -40.7998 -3.7c-12.1001 2.9 -21.3999 10 -27 20.6c-6.8 12.8 -7.6001 29.9 -2.1001 44.5c8.8999 23.5 33.2998 40.1 56 53.3c7.8999 4.6 16 8.7 22.1001 11.8l5.2998 2.7l0 -1.1c1.2998 0.3 2.6001 0.5 4 0.5c9.7002 0 17.5 -7.8 17.5 -17.5l0 -225.4c0 -9.7 -7.8999 -17.5 -17.5 -17.5zm-51 194.1c-5 -6.2 -7.6001 -12.6 -7.7998 -19c-0.2002 -6.8 0.2998 -15.1 6.1001 -18.5c2.8999 -1.7 6.2002 -2.6 9.7002 -2.6c8.7002 0 18.1001 5.2 25.6001 11.3l0 55.4c-13.0005 -7.4 -25.1006 -15.9 -33.6006 -26.6z"></path><path fill="#ffffff" d="m4298.1001 378.3c-9.7002 0 -17.5 7.8 -17.5 17.5l0 114.2c-13.7002 -5.4 -27.8999 -6.8 -40.7998 -3.7c-12.1001 2.9 -21.3999 10 -27 20.6c-6.7998 12.8 -7.6001 29.9 -2.1001 44.5c8.8999 23.5 33.2998 40.1 56 53.3c7.8999 4.6 16 8.7 22.1001 11.8l5.2998 2.7l0 -1.2c1.2998 0.3 2.6001 0.5 4 0.5c9.7002 0 17.5 -7.8 17.5 -17.5l0 -225.2c0 -9.7 -7.8003 -17.5 -17.5 -17.5zm-51 194.1c-5 -6.2 -7.6001 -12.6 -7.7998 -19c-0.2002 -6.8 0.2998 -15.1 6.1001 -18.5c2.8999 -1.7 6.2002 -2.6 9.7002 -2.6c8.7002 0 18.1001 5.2 25.6001 11.3l0 55.4c-12.9009 -7.5 -25.1006 -15.9 -33.6006 -26.6z"></path></g><path fill="#bf0000" d="m1586.2 224.4c-8.5 0 -15.5 6.9 -15.5 15.5l0 169.7c-8.8 -3.6 -19 -5.7 -29.8 -5.7c-33.6 0 -60.8 19.8 -60.8 44.1c0 24.4 27.2 44.1 60.8 44.1c26.9 0 49.8 -12.8 57.7 -30.4c1.9 -2.6 3 -5.7 3 -9.2l0 -212.6c0.0001 -8.6 -6.8999 -15.5 -15.3999 -15.5z" transform="translate(0 0)" style="animation-name: eaf-89d6-32, eaf-89d6-33, eaf-89d6-34; animation-composition: replace, add, add;"></path><g opacity="0.74" style="filter: blur(9px);"><path fill="#ffffff" d="m789.5 74.1l-63.5 -63.5c-5.8 -5.8 -15.3 -5.8 -21.2 0l-63.5 63.5c-5.8 5.8 -5.8 15.3 0 21.2l-176 175.9c-57.9 -40.6 -122.3 -48.4 -155.8 -14.9c-7.6 7.6 -13.1 16.8 -16.5 27.1c-2.9 8.6 -6.3 17.4 -10.4 26.1c-4.8 10.3 -11.2 20 -19.8 28.6c-11.9 11.9 -26.4 19.7 -41.4 24.5c-31.2 10 -69.6 17.3 -101.8 27.1c-11.9 3 -23.3 7.2 -34.1 12.8c-5.2 2.5 -9.9 5.3 -14 8.2c0 0 0 0 0 0c-7.6 5.1 -14.9 11 -21.5 17.7c-29.6 29.6 -44 70 -43.9 113.2c0.1 58.8 26.8 123.1 78 174.3c51.4 51.4 115.3 78.1 174.3 78c43 -0.1 83.7 -14.4 113.2 -43.9c6.7 -6.7 12.6 -13.9 17.8 -21.6c2.9 -4 5.5 -8.5 8 -13.5c5.8 -11.1 10.2 -22.9 13.2 -35.2c9.6 -32 16.9 -70 26.8 -101c4.8 -15 12.5 -29.4 24.5 -41.4c8.5 -8.5 18.3 -14.9 28.6 -19.8c8.6 -4.1 17.3 -7.4 25.7 -10.3c10.5 -3.4 19.8 -9 27.5 -16.7c33.5 -33.5 25.7 -97.9 -14.9 -155.8l175.9 -175.9l0 0c5.8 5.8 15.3 5.8 21.2 0l63.5 -63.5c5.9 -5.9 5.9 -15.4 0.1 -21.2zm-529.2 571.8l-105.8 -105.9l21.2 -21.2l105.9 105.9l-21.3 21.2zm157 -183.8c-21.9 21.9 -57.5 21.9 -79.4 0c-21.9 -21.9 -21.9 -57.5 0 -79.4c21.9 -21.9 57.5 -21.9 79.4 0c21.9 21.9 21.9 57.5 0 79.4z" transform="matrix(0.4525 -0.4525 0.4525 0.4525 2187.0883 374.6518)" style="animation-name: eaf-89d6-35, eaf-89d6-36, eaf-89d6-37, eaf-89d6-38; animation-composition: replace, add, add, add;"></path></g><g transform="matrix(1.2689 -1.2689 1.2689 1.2689 2150.8972 350.5767)" style="animation-name: eaf-89d6-39, eaf-89d6-40, eaf-89d6-37, eaf-89d6-41; animation-composition: replace, add, add, add;"><path fill="#f9b65f" d="m155.629 218.245c8.355 -10.711 32.4 -18.058 41.303 -26.961c18.891 -18.891 7.414 -48.252 -17.775 -73.441c-25.189 -25.189 -54.549 -36.666 -73.441 -17.775c-8.903 8.903 -16.25 32.947 -26.961 41.303c-21.989 17.153 -47.71 9.413 -64.676 26.379c-26.238 26.238 -13.869 59.072 21.115 94.056c34.984 34.984 67.818 47.353 94.056 21.115c16.965 -16.966 9.226 -42.687 26.379 -64.676z"></path><path fill="#f9b65f" d="m191.814 132.417c8.863 17.144 9.451 33.893 -2.855 46.199c-8.903 8.903 -32.947 16.25 -41.303 26.961c-17.153 21.989 -9.413 47.71 -26.379 64.676c-26.238 26.238 -59.072 13.869 -94.056 -21.115c-7.596 -7.596 -14.122 -15.09 -19.422 -22.438c6.032 11.328 15.379 23.09 27.394 35.105c34.984 34.984 67.818 47.353 94.056 21.115c16.966 -16.966 9.227 -42.688 26.379 -64.676c8.355 -10.711 32.4 -18.058 41.303 -26.961c15.335 -15.334 10.659 -37.566 -5.117 -58.866z" opacity="0.3"></path><rect fill="#935733" width="31.671" height="181.426" transform="matrix(0.7071 0.7071 -0.7071 0.7071 251.297 23.3053)"></rect><rect fill="#935733" width="181.426" height="10.948" transform="matrix(0.7071 -0.7071 0.7071 0.7071 137.663 166.2478)" opacity="0.3"></rect><ellipse fill="#794c2b" rx="24.884" ry="24.884" transform="translate(123.651 173.349)"></ellipse><ellipse fill="#794c2b" rx="20.399" ry="20.399" transform="translate(123.651 173.349)" opacity="0.31"></ellipse><ellipse fill="#ae9676" rx="9.727" ry="9.727" transform="translate(123.651 173.349)"></ellipse><path fill="#794c2b" d="m55.39 213.86l27.75 27.75c2.408 2.408 6.313 2.408 8.721 0l3.116 -3.116c2.408 -2.408 2.408 -6.313 0 -8.721l-27.75 -27.75c-2.408 -2.408 -6.313 -2.408 -8.721 0l-3.116 3.116c-2.408 2.409 -2.408 6.313 0 8.721z"></path><path fill="#794c2b" d="m243.319 66.29l-12.608 -12.608c-3.667 -3.667 -4.015 -9.495 -0.811 -13.572l28.438 -36.194c3.794 -4.829 10.956 -5.257 15.298 -0.915l20.364 20.364c4.343 4.343 3.914 11.504 -0.915 15.298l-36.194 28.438c-4.077 3.204 -9.905 2.855 -13.572 -0.811z"></path><path fill="#794c2b" d="m294 23.365l-1.792 -1.792c-0.641 1.157 -1.509 2.216 -2.622 3.091l-36.194 28.438c-4.077 3.204 -9.906 2.855 -13.572 -0.811l-10.816 -10.816c-2.187 3.936 -1.567 8.933 1.708 12.208l12.608 12.608c3.667 3.667 9.495 4.015 13.572 0.811l36.194 -28.438c4.828 -3.795 5.256 -10.957 0.914 -15.299z" opacity="0.31"></path></g></g></g></g></svg>