<svg xmlns="http://www.w3.org/2000/svg" viewBox="0 0 500 500" overflow="hidden" preserveAspectRatio="xMidYMid meet" id="eaf-15358-0"><defs><clipPath id="eaf-15358-1"><rect x="0" y="0" width="500" height="500"></rect></clipPath><radialGradient gradientUnits="userSpaceOnUse" cx="250.5894" cy="17.5183" r="405.7781" fx="250.5894" fy="17.5183" fr="0" id="eaf-15358-2"><stop stop-color="#f2a05b" offset="0.187"></stop><stop stop-color="#f5ad68" offset="0.225"></stop><stop stop-color="#fecc88" offset="0.291"></stop><stop stop-color="#fecc88" offset="0.639"></stop><stop stop-color="#fecc88" offset="0.658"></stop><stop stop-color="#fcc581" offset="0.703"></stop><stop stop-color="#f7b16d" offset="0.769"></stop><stop stop-color="#f3a05c" offset="0.814"></stop><stop stop-color="#e6915b" offset="0.849"></stop><stop stop-color="#d77f59" offset="0.905"></stop><stop stop-color="#d17858" offset="0.946"></stop></radialGradient><radialGradient gradientUnits="userSpaceOnUse" cx="247.995" cy="51.6496" r="355.0838" fx="247.995" fy="51.6496" fr="0" id="eaf-15358-3"><stop stop-color="#f2a05b" offset="0.486"></stop><stop stop-color="#ee9b5b" offset="0.616"></stop><stop stop-color="#e38d5a" offset="0.768"></stop><stop stop-color="#d17759" offset="0.922"></stop></radialGradient><radialGradient gradientUnits="userSpaceOnUse" cx="248.0663" cy="340.5045" r="434.1262" fx="248.0663" fy="340.5045" fr="0" id="eaf-15358-4"><stop stop-color="#eddfdf" offset="0.181"></stop><stop stop-color="#e7ced1" offset="0.335"></stop><stop stop-color="#e3c1c6" offset="0.519"></stop><stop stop-color="#e1bdc2" offset="0.69"></stop></radialGradient><radialGradient gradientUnits="userSpaceOnUse" gradientTransform="matrix(-0.0099 -1 1.9706 -0.0196 -264.4264 514.1955)" cx="247.8671" cy="261.2189" r="98.3249" fx="247.8671" fy="261.2189" fr="0" id="eaf-15358-5"><stop stop-color="#f8f6f7b2" offset="0"></stop><stop stop-color="#f8f6f700" offset="0.824"></stop></radialGradient><radialGradient gradientUnits="userSpaceOnUse" cx="102.0719" cy="382.8645" r="135.1881" fx="102.0719" fy="382.8645" fr="0" id="eaf-15358-6"><stop stop-color="#c8a9b3" offset="0.181"></stop><stop stop-color="#d2b2ba" offset="0.488"></stop><stop stop-color="#dbbac0" offset="0.69"></stop></radialGradient><radialGradient gradientUnits="userSpaceOnUse" cx="410.8381" cy="357.7802" r="145.0963" fx="410.8381" fy="357.7802" fr="0" id="eaf-15358-7"><stop stop-color="#b494a7" offset="0.126"></stop><stop stop-color="#bb9bac" offset="0.283"></stop><stop stop-color="#c4a5b2" offset="0.6"></stop></radialGradient><radialGradient gradientUnits="userSpaceOnUse" cx="249.8063" cy="36.3499" r="409.0756" fx="249.8063" fy="36.3499" fr="0" id="eaf-15358-8"><stop stop-color="#a385a0" offset="0.094"></stop><stop stop-color="#c0a0ad" offset="0.403"></stop><stop stop-color="#c0a0ad" offset="0.405"></stop><stop stop-color="#d5b7c0" offset="0.559"></stop><stop stop-color="#e0c3ca" offset="0.671"></stop></radialGradient><radialGradient gradientUnits="userSpaceOnUse" cx="249.3006" cy="336.5258" r="196.4925" fx="249.3006" fy="336.5258" fr="0" id="eaf-15358-9"><stop stop-color="#f8f6f7" offset="0"></stop><stop stop-color="#f8f6f700" offset="0.782"></stop></radialGradient><radialGradient gradientUnits="userSpaceOnUse" cx="294.5181" cy="185.7907" r="238.045" fx="294.5181" fy="185.7907" fr="0" id="eaf-15358-10"><stop stop-color="#e0c3ca" offset="0.238"></stop><stop stop-color="#d8bbc5" offset="0.357"></stop><stop stop-color="#c3a6b6" offset="0.542"></stop><stop stop-color="#a385a0" offset="0.753"></stop><stop stop-color="#a688a2b4" offset="0.819"></stop><stop stop-color="#b092a978" offset="0.871"></stop><stop stop-color="#c0a3b442" offset="0.918"></stop><stop stop-color="#d7bac410" offset="0.963"></stop><stop stop-color="#e0c3ca00" offset="0.976"></stop></radialGradient><style>#eaf-15358-0 * {animation: 14000ms linear infinite normal both running;offset-rotate:0deg}@keyframes eaf-15358-11{0%,100%{transform:translate(189.5459px,473.9001px)}}@keyframes eaf-15358-12{0%{transform:rotate(0)}87.62%{transform:rotate(0);animation-timing-function:ease-in-out}89.53%{transform:rotate(11deg);animation-timing-function:ease-in-out}91.43%{transform:rotate(-5deg);animation-timing-function:ease-in-out}93.1%{transform:rotate(8deg);animation-timing-function:ease-in-out}94.76%,100%{transform:rotate(0)}}@keyframes eaf-15358-13{0%,100%{transform:translate(-189.5459px,-473.9001px)}}@keyframes eaf-15358-14{0%,100%{transform:none;offset-path:path("m-248.1768 249.9985l0 0l498.2968 0l0 0l495.2622 0")}}@keyframes eaf-15358-15{0%{offset-distance:0%}81.19%{offset-distance:0%;animation-timing-function:ease-in-out}84.76%{offset-distance:50.1527%}95.48%{offset-distance:50.1527%;animation-timing-function:ease-in-out}100%{offset-distance:100%}}@keyframes eaf-15358-16{0%,100%{transform:translate(-254.1702px,-249.9985px)}}@keyframes eaf-15358-17{0%,100%{transform:none;offset-path:path("m-246.2782 250.1l0 0l503.6094 0l0 0l459.5829 0")}}@keyframes eaf-15358-18{0%{offset-distance:0%}66.91%{offset-distance:0%;animation-timing-function:ease-in-out}70.48%{offset-distance:52.2854%}81.19%{offset-distance:52.2854%;animation-timing-function:ease-in-out}84.76%,100%{offset-distance:100%}}@keyframes eaf-15358-19{0%,100%{transform:translate(-256.0687px,-250.1px)}}@keyframes eaf-15358-20{0%,100%{transform:none;offset-path:path("m-244.5582 240.2792l0 0l498.5582 0l0 0l499.8252 0")}}@keyframes eaf-15358-21{0%{offset-distance:0%}53.57%{offset-distance:0%;animation-timing-function:ease-in-out}57.14%{offset-distance:49.9365%}66.91%{offset-distance:49.9365%;animation-timing-function:ease-in-out}70.48%,100%{offset-distance:100%}}@keyframes eaf-15358-22{0%,100%{transform:translate(-257.7888px,-240.2792px)}}@keyframes eaf-15358-23{0%,100%{transform:none;offset-path:path("m-248.4865 250.1056l0 0l499.4865 0l0 0l499.7252 0")}}@keyframes eaf-15358-24{0%{offset-distance:0%}39.29%{offset-distance:0%;animation-timing-function:ease-in-out}42.86%{offset-distance:49.9881%}53.57%{offset-distance:49.9881%;animation-timing-function:ease-in-out}57.14%,100%{offset-distance:100%}}@keyframes eaf-15358-25{0%,100%{transform:translate(-253.8605px,-250.1056px)}}@keyframes eaf-15358-26{0%,100%{transform:none;offset-path:path("m-256.1162 252.8388l0 0l502.8108 -2.9776l0 0l473.0561 0")}}@keyframes eaf-15358-27{0%{offset-distance:0%}10.71%{offset-distance:0%;animation-timing-function:ease-in-out}14.05%{offset-distance:51.525%}25%{offset-distance:51.525%;animation-timing-function:ease-in-out}28.57%,100%{offset-distance:100%}}@keyframes eaf-15358-28{0%,100%{transform:translate(-246.2308px,-252.8388px)}}@keyframes eaf-15358-29{0%,100%{transform:none;offset-path:path("m249.0569 253.5498l0 0l508.71 0l0 0l-1006.9138 0l0 0l498.2038 0")}}@keyframes eaf-15358-30{0%{offset-distance:0%}10.48%{offset-distance:0%;animation-timing-function:ease-in-out}14.05%{offset-distance:25.2609%}17.86%{offset-distance:25.2609%;animation-timing-function:ease-in-out}21.67%{offset-distance:75.2609%}95.48%{offset-distance:75.2609%;animation-timing-function:ease-in-out}100%{offset-distance:100%}}@keyframes eaf-15358-31{0%,100%{transform:translate(-249.7416px,-253.5498px)}}@keyframes eaf-15358-32{0%{opacity:1}15.48%{opacity:1;animation-timing-function:ease-in-out}16.67%{opacity:0}22.86%{opacity:0;animation-timing-function:ease-in-out}24.05%,100%{opacity:1}}@keyframes eaf-15358-33{0%,100%{transform:none;offset-path:path("m-238.3885 247.8224l0 0l488.228 0l0 0l504.5215 1.7")}}@keyframes eaf-15358-34{0%{offset-distance:0%}25%{offset-distance:0%;animation-timing-function:ease-in-out}28.57%{offset-distance:49.1792%}39.29%{offset-distance:49.1792%;animation-timing-function:ease-in-out}42.86%,100%{offset-distance:100%}}@keyframes eaf-15358-35{0%,100%{transform:translate(-243.8365px,-246.9px)}}</style></defs><g clip-path="url('#eaf-15358-1')" style="isolation: isolate;"><g><g transform="matrix(4 0 0 4 -827.28 -2254.5264)"><path fill="#222222" d="m331.7 626.3c0 15.6 0 31.3 0 46.9c0 7.2 -5.4 13.7 -12.5 15.1c-1 0.2 -2.1 0.3 -3.2 0.3c-31.2 0 -62.4 0 -93.6 0c-7.6 0 -14.3 -5.9 -15.3 -13.5c-0.1 -0.7 -0.1 -1.4 -0.1 -2c0 -31.3 0 -62.5 0 -93.8c0 -7.2 5.4 -13.7 12.5 -15.1c1 -0.2 2.1 -0.3 3.2 -0.3c31.2 0 62.4 0 93.6 0c7.2 0 13.7 5.4 15.1 12.5c0.2 1 0.3 2.1 0.3 3.2c0 15.6 0 31.1 0 46.7z"></path></g><g transform="translate(-502.347 0)" style="animation-name: eaf-15358-14, eaf-15358-15, eaf-15358-16; animation-composition: replace, add, add;"><g style="filter: drop-shadow(rgba(0, 0, 0, 0.29) -23px 8px 15px);"><g><path fill="#f4d4bd" stroke="#ffffff" stroke-width="8.6503" stroke-miterlimit="10" d="m228.7 31.4c-10.5 4.1 -21.8 13.4 -31.8 26.3c-20.7 26.4 -38.9 66.3 -48.8 106.6c-11.8 47.8 -11.2 92 1.7 128.1c7.4 20.8 18.8 38.7 33.9 53.2c6.5 6.2 17.3 14.3 25.2 18.7c16.8 9.5 36.5 15.5 55.6 16.9c29.9 2.1 60.4 -5.7 85.1 -21.8c39.5 -25.8 61.2 -69.6 58.9 -118.7c-0.7 -15.1 -4.2 -33.6 -9 -48.3c-7.3 -22.1 -17.2 -42.4 -31.2 -63.9c-4.7 -7.1 -15.2 -21.5 -20.8 -28.2c-26 -31.5 -54.1 -55.1 -78.4 -65.8c-8.2 -3.6 -17.7 -5.9 -24.7 -5.9c-4.4 -0.0001 -12 1.3999 -15.7 2.7999z"></path><path fill="#000000" d="m346.9 331.6l17.4 -16.6c0.5 -0.4 0.8 -1 1.1 -1.6l14 -30.1c0.2 -0.3 0.3 -0.7 0.4 -1l6.1 -27.3c0.1 -0.4 0.1 -0.9 0.1 -1.3l-1.2 -32.1c0 -0.2 0 -0.5 -0.1 -0.7l-4.2 -24c-0.5 -2.6 -2.8 -4.4 -5.4 -4.2l-2 0.1c-2 0.1 -3.8 1.4 -4.5 3.3l-5.4 14c-0.1 0.4 -0.2 0.7 -0.3 1.1l-4.3 28.7l-6.7 40.2c-0.1 0.4 -0.2 0.7 -0.3 1l-11 27.9c-0.2 0.6 -0.5 1.1 -1 1.5l-12.6 14.3c-2.2 2.5 -1.5 6.4 1.4 8l2.6 1.4c1 0.5 2.2 0.7 3.3 0.5l9.9 -1.7c1 -0.2 1.9 -0.7 2.7 -1.4z" opacity="0.47"></path></g></g><g style="filter: drop-shadow(rgba(0, 0, 0, 0.4) -33px 8px 6px);"><g><path fill="#eac09d" stroke="#ffffff" stroke-width="9.7295" stroke-miterlimit="10" d="m405.3 70.9c-12.3 -3.1 -28.7 -1.9 -46.3 3.4c-36.1 10.8 -78.8 35.6 -114.1 66c-41.9 36.2 -70.1 77.1 -81.8 118.6c-6.7 23.9 -7.9 47.8 -3.5 70.9c1.9 10 6.6 24.4 10.9 33.6c9.2 19.7 23.4 38 40 51.6c26.1 21.4 59.1 34.1 92.3 35.4c53 2 101.4 -24 131.2 -70.6c9.2 -14.3 18 -33.5 23.1 -50.2c7.7 -25 11.8 -50.1 12.9 -78.9c0.3 -9.6 0 -29.6 -0.7 -39.4c-3.3 -45.8 -13.8 -85.7 -29.1 -111.4c-5.2 -8.7 -12.4 -17 -18.9 -21.5c-3.8 -2.8 -11.6 -6.4 -16 -7.5z"></path><path fill="#000000" d="m318.4 423.2l26.8 -3.9c0.7 -0.1 1.4 -0.3 2 -0.7l32.4 -18.5c0.4 -0.2 0.7 -0.4 1 -0.7l23.4 -21c0.4 -0.3 0.7 -0.7 1 -1.1l19.9 -30.2c0.1 -0.2 0.3 -0.5 0.4 -0.7l11.7 -24.7c1.3 -2.7 0.3 -5.8 -2.2 -7.4l-1.9 -1.2c-1.9 -1.2 -4.4 -1.2 -6.3 0.1l-14.1 9.3c-0.4 0.2 -0.7 0.5 -1 0.8l-22.5 23.5001l-32.3 32.5c-0.3 0.3 -0.6 0.5 -0.9 0.8l-28.3 18.5c-0.6 0.4 -1.2 0.6 -1.9 0.8l-20.9 4.8c-3.7 0.8 -5.6 4.9 -3.9 8.2l1.5 2.9c0.6 1.1 1.5 2.1 2.7 2.6l10.2 4.8c0.8999 0.5001 2.0999 0.7 3.1999 0.5001z" opacity="0.47"></path></g></g><g style="filter: drop-shadow(rgba(0, 0, 0, 0.49) 15px 8px 6px);"><g style="animation-name: eaf-15358-11, eaf-15358-12, eaf-15358-13; animation-composition: replace, add, add;"><path fill="#edab70" stroke="#ffffff" stroke-width="9.7295" stroke-miterlimit="10" d="m136.3 78.2c-11.8 4.7 -24.4 15.3 -35.6 29.9c-22.8 29.9 -43 74.9 -53.7 120.3c-12.7 53.9 -11.6 103.5 3.2 144c8.5 23.3 21.6 43.3 38.7 59.5c7.4 7 19.6 15.9 28.5 20.8c19 10.5 41.2 17.1 62.7 18.4c33.7 2.1 67.9 -7 95.5 -25.4c44.1 -29.4 68.1 -78.9 65 -134.1c-1 -17 -5 -37.7 -10.7 -54.2c-8.4 -24.8 -19.8 -47.6 -35.8 -71.5c-5.3 -8 -17.4 -24 -23.7 -31.5c-29.5 -35.2 -61.4 -61.4 -88.9 -73.3c-9.3 -4 -20 -6.4 -27.9 -6.3c-4.7 0 -13.1 1.7 -17.3 3.4z"></path><path fill="#000000" d="m272.3 414.6l19.4 -18.8c0.5 -0.5 0.9 -1.1 1.2 -1.8l15.4 -34c0.2 -0.4 0.3 -0.8 0.4 -1.2l6.6 -30.7c0.1 -0.5 0.1 -1 0.1 -1.5l-1.6 -36.1c0 -0.3 0 -0.5 -0.1 -0.8l-5 -26.9c-0.5 -2.9 -3.1 -4.9 -6.1 -4.7l-2.2 0.1c-2.3 0.2 -4.2 1.6 -5 3.7l-5.9 15.8c-0.1 0.4 -0.3 0.8 -0.3 1.2l-4.5 32.3l-7.1 45.3c-0.1 0.4 -0.2 0.8 -0.3 1.2l-12.1 31.5c-0.2 0.6 -0.6 1.2 -1.1 1.7l-14.2 16.1c-2.5 2.8 -1.7 7.2 1.7 9l2.9 1.5c1.1 0.6 2.5 0.8 3.7 0.6l11.1 -2.1c1.1 -0.1 2.2 -0.6 3 -1.4z" opacity="0.47"></path></g></g></g><g style="filter: drop-shadow(rgba(0, 0, 0, 0.55) -10px 8px 6px);"><g transform="translate(-502.347 0)" style="animation-name: eaf-15358-17, eaf-15358-18, eaf-15358-19; animation-composition: replace, add, add;"><path fill="url('#eaf-15358-2')" stroke="#ffffff" stroke-width="10" stroke-miterlimit="10" d="m251.8 38.4c0 0 -26.1 -18.5 -28.2 -9.5c-2.1 9 1.5 26.9 -6 38.7c-7.5 11.8 -18 17.3 -26.2 20c-8.3 2.8 -98.1 36.6 -125 126.4c-26.9 89.8 14.5 166.4 77.7 203.1c51.8 30.1 86 25.6 86 25.6c0 0 -6.9 6.2 -9.7 6.9c-2.8 0.7 -12.1 1 -16.6 1.7c-4.5 0.7 -20.4 6.2 -19 10.4c1.4 4.2 15.2 -1.7 21.1 -2.8c5.9 -1 15.9 -1.7 18 -2.8c2.1 -1 12.1 -7.9 12.1 -7.9c0 0 -3.8 10.4 -7.2 14.2c-3.5 3.8 3.1 9 10.7 6.9c7.6 -2.1 13.1 -20 13.1 -20c0 0 0.3 10.7 0.3 14.2c0 3.5 -1 9 0.3 10.4c1.4 1.4 11.7 3.1 14.9 1.4c3.2 -1.7 2.4 -8.6 2.4 -8.6c0 0 9.3 5.9 15.2 9c5.9 3.1 11.7 6.2 13.8 3.5c2.1 -2.7 0.3 -8.3 -1.7 -9.7c-2 -1.4 -9.3 -4.8 -10.7 -6.9c-1.4 -2.1 -4.2 -8.3 -4.2 -8.3c0 0 7.9 -5.5 11.4 -4.8c3.5 0.7 12.4 10.4 17.3 12.4c4.8 2.1 14.5 8.6 18 7.6c3.5 -1 5.9 -4.2 4.5 -5.9c-1.4 -1.7 -12.8 -7.2 -15.5 -10c-2.9 -2.9001 -13.6 -11.6001 -13.6 -11.6001c0 0 53.8 -9 89.8 -43c41.3 -39 83.2 -124.2 43 -206.7c-38.3 -78.7 -112.9 -103.1 -138.3 -111.9c-13.1 -4.6 -15.5 -11.4 -17.1 -20.7c-1.5 -9.3 -2.6 -35.7 -9.8 -37.3c-7.2 -1.6 -20.8 16 -20.8 16l0 0z"></path><path fill="#d17759" d="m240 55.4c5.5 0.5 2.9 -9.3 11.2 -10.5c7.1 -1 7.6 9.2 12.1 7.4c4.5 -1.7 2.9 -14.8 3.6 -21.9c0.7 -6.9 5.5 -8.1 5.5 -8.1c0 0 -3.4 -3.8 -10.7 -1.7c-7.2 2.1 -10 11.4 -10 11.4c0 0 -6.9 -12.1 -16.6 -11c-8.9 1 -11 6.9 -11 6.9c0 0 6.9 0.3 9 5.5c2.1 5.2 -0.5 21.3 6.9 22l0 0z"></path><path fill="url('#eaf-15358-3')" d="m265.6 133.9c2.1 13 19.5 77.9 20.4 122.9c1 56.3 -5.5 94.4 -10.9 119.9c-6 28.7 -12.4 51.3 -12.4 51.3l16 -20.2c0 0 13.5 -47 17.6 -91.2c3.6 -38.9 0.5 -86.5 -9.3 -132.6c-9.9 -46.1 -17.4 -79.1 -19.2 -94.8c-1.3 -11.4 -3.1 -29.2 -3.1 -29.2c0 0 10.9 23.1 18.5 34.2c6.8 9.9 23.5 31.8 40.1 64.9c18.5 37.1 31.4 87.7 29.4 129.2c-2 41.5 -9.7 72.3 -18 88.4c-8.3 16 -31.1 38.9 -31.1 38.9l-10.9 9.3c0 0 28.5 -8.8 39.4 -25.4c10.9 -16.6 33 -50.1 31.9 -117.4c-1 -67.3 -19.4 -105.4 -32.5 -132.3c-10.5 -21.5 -43.8 -65.8 -43.8 -65.8c0 0 52.4 37.7 65.2 49.3c32.1 29 56.6 63.9 60.4 127.9c2.8 47.8 -10.4 79.3 -24.9 100c-14.5 20.7 -42.1 50.8 -42.1 50.8l42.8 -34.9c0 0 39.7 -40.2 36.1 -116.4c-3.6 -76.2 -39.9 -111.5 -62.2 -132.1c-19 -17.6 -54.3 -39.7 -68.6 -48.2c-12.2 -7.2 -14.9 -14 -16.4 -19.7c-1.5 -5.7 -4.7 -5.5 -4.7 -5.5l-41.1 3.8l-4 -1.8c0 0 -19.5 30.5 -39.6 44.8c-15 10.7 -51.8 35.4 -76.3 72.3c-24.8 37.5 -27.8 77 -24.5 116.7c3.5 41.4 22.8 87.2 59.6 110c36.8 22.8 82.4 29 82.4 29c0 0 -28.4 -10.5 -42.8 -16.4c-15.9 -6.6 -35.9 -15.5 -55.1 -38c-16.3 -19 -42.9 -66.8 -34.7 -129.5c5.9 -44.9 25.9 -76.6 51.8 -100.5c27.1 -25 41.1 -34.1 47.8 -39.7c15.5 -13 29.4 -33.6 29.4 -33.6c0 0 6.3 -6 1 5.4c-4.5 9.8 -20.5 31.9 -23.6 36.2c-11.2 16 -27 29.9 -47.1 82.7c-20.7 54.6 -14.7 103.1 -7.9 128.5c6.7 25.4 15.5 46.6 28.3 62.9c15.4 19.6 50.8 39.7 50.8 39.7c0 0 -29.4 -25.4 -41.4 -42.5c-14.9 -21.1 -22.6 -44 -29 -71.5c-5.5 -23.5 -7.6 -62.4 8.3 -110.9c12.4 -37.8 22 -50.3 34.4 -68.5c12.4 -18.1 20.8 -29.3 31.2 -46.2c6.1 -9.9 11.8 -26.1 11.8 -26.1l2.3 -0.7c0 0 -2.6 21.2 -5.2 32.1c-2.6 10.9 -5.3 28 -12.1 46.1c-6.7 18.1 -30.3 67.7 -28.3 124.5c2.4 68.6 19.5 110.5 26.2 126.6c6.7 16.1 17.3 44.4 17.3 44.4l5.9 -20.5c0 0 -26.2 -54.1 -33.5 -99.1c-6.6 -40.7 -7.1 -68.2 -2.1 -99.1c3.2 -19.5 22.4 -66.1 26.1 -79.6c3.7 -13.5 8.3 -34.9 9.3 -41.1l5.4 -22.9l11.3 61.2z"></path><path fill="#feeac4" d="m154.7 156.3c-8.6 -2.1 -16.6 6.6 -25.2 21.7c-8.1 14.2 -12.1 30.1 -1 33.2c11.4 3.1 22.4 -19.4 25.6 -28.7c3.1 -9.3 7.2 -24.6 0.6 -26.2l0 0z"></path><path fill="#feeac4" d="m179.3 183.2c-8.6 22.9 -10 40.7 -2.1 43.5c7.9 2.8 21.4 -23.5 25.2 -35.6c3.8 -12.1 10 -35.6 1.4 -38.3c-8.7 -2.7 -18.7 14.9 -24.5 30.4l0 0z"></path><path fill="#feeac4" d="m229.7 206.4c-3 15.1 -1.7 22.8 5.2 24.2c6.9 1.4 9.7 -14.9 10.7 -22.1c1 -7.2 4.5 -22.4 -3.5 -24.2c-7.9 -1.8 -10 10 -12.4 22.1z"></path></g></g><g style="filter: drop-shadow(rgba(0, 0, 0, 0.55) -10px 8px 6px);"><g transform="translate(-502.347 0)" style="animation-name: eaf-15358-20, eaf-15358-21, eaf-15358-22; animation-composition: replace, add, add;"><path fill="#ed6c31" d="m223.4 266.6l-190 175.4c0 0 -6 10.1 0.4 17.9c6.4 7.8 25.5 4 55.5 -12.6c27.2 -15.1 96.7 -58.8 130.1 -85.4c24.5 -19.5 62.2 -45.6 84.7 -70.5c10.4 -11.5 16.1 -20.1 18.7 -33.1c7.9 -39.6 -14.4 -53.9 -14.4 -53.9l-85 62.2z"></path><path fill="#ff8d02" d="m46.1 447.9c22 -5.8 79.2 -49.1 108.5 -69.4c29.3 -20.3 131 -94.1 143.2 -121.2c6.8 -15.1 8.4 -42.1 -5.3 -57.9c-13.7 -15.8 -38.2 -27 -69 -8.7c-28.4 16.9 -80.1 99.4 -106.6 134.3c-35.9 47.3 -67.6 91.6 -80.4 110.8c-4.4 6.5 -4.8 9.7 -4.8 9.7c0 0 5.9 4.7 14.4 2.4z"></path><path fill="#ffa726" d="m189.4 260.3c9.1 7 17.4 0.2 22.7 -6c4.7 -5.6 15.8 -18.3 20.8 -22.4c5 -4.1 15 -13.2 21.6 -19.2c6.5 -5.9 4.3 -23.8 -11.2 -19.7c-9.3 2.5 -19.3 12 -30.3 22.8c-8.8 8.6 -18.9 21.5 -22.9 28c-4 6.4 -5.6 12.7 -0.7 16.5z"></path><path fill="#ffa726" d="m156.8 302.4c-6.3 -5.3 -11.5 -0.9 -18.7 8.4c-7.2 9.3 -7.6 15.3 -2.6 19.4c7.1 5.7 13.3 -2.8 18.4 -9.5c5 -6.8 10 -12.3 2.9 -18.3l0 0z"></path><path fill="#ed6c31" d="m236.9 237.8c-3.9 4.1 -3.1 10.5 2.3 15.6c6.5 6.2 12.7 11.5 18.1 15.3c5.3 3.8 11.7 1.3 13.7 -1.9c2.7 -4.4 1.7 -9.7 -3.2 -14.1c-4.1 -3.7 -13.3 -12.5 -18.6 -15.7c-3.5 -2.2 -8.6 -3.1 -12.3 0.8l0 0z"></path><path fill="#ed6c31" d="m169.2 275.4c-5.7 5.9 -1.6 13.9 3.4 20.1c5.1 6.1 13 14 20.8 8.3c7.8 -5.7 -0.6 -18.8 -4.8 -24c-4.1 -5.2 -12.2 -11.8 -19.4 -4.4l0 0z"></path><path fill="#ed6c31" d="m137.1 346c-5 6.5 -0.4 13 6.5 17.3c7.1 4.4 15.9 6.7 19.7 0.9c3.8 -5.9 -2.4 -13.4 -7.9 -16.6c-5.6 -3.4 -13.5 -7.7 -18.3 -1.6z"></path><path fill="#ed6c31" d="m72.5 394.2c-6.2 5.6 -0.8 14.6 2.8 18.4c3.6 3.7 10 8.7 15.3 3.2c5.2 -5.3 1.3 -12.6 -2.2 -17.6c-4.8 -6.9 -11.9 -7.6 -15.9 -4l0 0z"></path><path fill="#2f7c31" d="m314.2 146.4c-0.4 7 -6.8 14 -18.1 25.9c-14.8 15.7 -21.4 15.5 -23.7 23.1c-1.4 4.8 3.1 14.4 13.6 24.1c9.4 8.7 17.5 11.1 20.7 10.2c7.7 -2 11.3 -12.9 26.6 -27.9c11.3 -11.1 15.3 -14.9 21.5 -15c6.2 -0.1 11.9 5.2 19.2 11.6c10.7 9.4 30.7 17.1 50.1 8.7c23.1 -10 22.2 -32.1 24.4 -34.8c2.2 -2.7 20.5 -3.8 29 -15.7c8.5 -11.9 9 -38.9 4.3 -46c-4.7 -7 -199.2 -43.9 -199.2 -43.9c0 0 -6.1 24 1.3 40.4c11.8 26 31.1 26.1 30.3 39.3l0 0z"></path><path fill="#709921" d="m335.5 40.6c3 -0.8 29.3 -37.7 75.6 -18.1c44.7 18.9 28.4 56.9 30.2 59c1.8 2.2 20.6 -0.1 32.4 14.8c12.7 16 10.1 25.6 10.1 25.6c0 0 -2.7 16.2 -21.4 21.5c-11.8 3.4 -25.6 -0.9 -29.2 1.3c-3.6 2.2 -1.2 19.6 -22.4 28.2c-13.5 5.5 -41.8 2.1 -61.5 -13.6c-19.9 -16 -15.2 -35 -27.3 -43c-16.8 -11.1 -50.8 -25.9 -37.5 -55.3c15.3 -33.8 48.1 -19.7 51 -20.4l0 0z"></path><path fill="none" stroke="#ffffff" stroke-width="10" stroke-miterlimit="10" d="m483.3 114c-1.1 -4.3 -3.7 -10.4 -9.6 -17.7c-11.8 -14.9 -30.6 -12.6 -32.4 -14.8c-1.8 -2.2 14.5 -40.1 -30.2 -59c-46.3 -19.6 -72.7 17.3 -75.6 18.1l0 0c-2.9 0.8 -35.7 -13.4 -51 20.4c-1.8 4 -2.8 7.8 -3 11.3c-1.3 8.1 -2.8 23.3 2.4 34.8c11.7 25.9 31 26.1 30.2 39.2l0 0c-0.4 7 -6.8 14 -18.1 25.9c-8.1 8.6 -13.8 12.4 -17.6 15.4c-14 -8 -32.8 -10.1 -54.8 3c-28.4 16.9 -80.1 99.4 -106.6 134.3c-35.9 47.3 -67.6 91.6 -80.4 110.8c-2.9 4.4 -4.1 7.3 -4.5 8.7c-1.3 3.5 -2.8 10 1.6 15.4c6.4 7.8 25.5 4 55.5 -12.6c27.2 -15.1 96.7 -58.8 130.1 -85.4c24.5 -19.5 62.2 -45.6 84.7 -70.5c10.4 -11.5 16.1 -20.1 18.7 -33.1c3.7 -18.8 0.7 -31.8 -3.5 -40.4c3.4 -4.4 7.7 -9.9 14 -16.1c11.3 -11.1 15.3 -14.9 21.5 -15c6.2 -0.1 11.9 5.2 19.2 11.6c10.7 9.4 30.7 17.1 50.1 8.7c23.1 -10 22.2 -32.1 24.4 -34.8c2.2 -2.7 20.5 -3.8 29 -15.7c7.7 -10.3 8.9 -32.5 5.9 -42.5z"></path></g></g><g style="filter: drop-shadow(rgba(0, 0, 0, 0.55) -10px 8px 6px);"><g transform="translate(-502.347 0)" style="animation-name: eaf-15358-23, eaf-15358-24, eaf-15358-25; animation-composition: replace, add, add;"><path fill="#8bc34a" d="m181.8 106.6c-28.4 -28.4 -22.7 -45.1 -51.2 -16.7l-37.4 37.4c-28.4 28.4 -11.7 34.7 16.7 63.1l233.8 265.9c28.4 28.4 74.4 28.4 102.9 0l13.7 -13.2c28.4 -28.4 28.4 -74.4 0 -102.9l-278.5 -233.6l0 0z"></path><path fill="#689f38" d="m216.1 186.7c39.6 39.4 79.2 78.8 119 118.1c59.2 58.5 98.4 79.9 114.4 89.7c1.8 18.1 2.5 34.7 -4.1 47.7c-15.6 5.2 -33.4 1.4 -51.6 -2.7c-14.6 -23.4 -38.7 -59.3 -85.9 -106.3c-39.5 -39.3 -81.1 -80.5 -114 -113.1c-1.1 6.6 -5.8 13 -12.8 14.7c-1.9 0.4 -3.8 0.6 -5.7 0.6l187.8 194.6c16.4 16.4 48.3 68.9 90.3 19.2c54.1 -45.2 -8.1 -76.6 -24.4 -93l-198.3 -183.8c-4.2 4.9 -11 9.3 -17.6 9.1c1.4 1.2 2.3 3 2.9 5.2l0 0z"></path><path fill="#558b2f" d="m83.6 55.6c5.4 -39.6 34.4 -19.8 36.2 -12.6c18.1 -32.3 43.5 -19.8 38.1 -9c7.3 -5.4 10.9 -10.8 32.6 -10.8c5.4 0 14.5 7.2 5.4 27c7.2 -7.2 27.2 -16.2 39.9 -9c5.4 3.6 5.4 12.6 1.8 16.2c10.9 -1.8 43.5 -1.8 48.9 14.4c10.9 21.6 -7.3 25.2 -18.1 32.3c30.8 3.6 14.5 32.3 -1.8 30.6c20 30.5 -5.4 39.6 -18.1 28.7c21.7 23.4 7.3 41.4 -10.9 34.2c10.9 9 9.1 53.9 -29 34.2c5.4 5.4 5.4 44.9 -21.7 25.2c7.2 19.8 -12.7 50.3 -32.6 18c0 21.6 -16.3 39.6 -29 19.8c-10.9 32.4 -25.4 5.4 -32.6 -9c-3.6 7.2 -10.9 26.9 -21.7 -3.6c-10.9 10.7 -16.3 -9 -12.7 -37.7c-10.9 9 -38.1 -3.6 -9.1 -54c-23.6 9 -29 -9 -16.3 -34.2c-10.9 3.6 -7.3 -26.9 7.3 -34.1c-16.3 -12.6 -9.1 -43.2 14.5 -39.6c-9.1 -14.5 9 -43.2 28.9 -27l0 0z"></path><path fill="#7cb342" d="m82.2 132.7c-12.4 1.5 -23.3 11.8 -22.2 25c0.6 6.8 14.5 14.3 18.1 6c-11.5 5 -11.9 24.6 -10.4 34.6c1 6.8 5.3 12.5 13.1 11.2c8.9 -1.5 9.6 -9.8 11.3 -16.8c-8.1 11.7 -2 36.6 8.3 45.3c3.6 3 11.6 8.1 16.3 4.9c4.5 -3.1 5.4 -13 3.8 -17.6c2 12 14.6 26.2 26.8 28.8c5.2 1.1 11.6 0.5 13.2 -5.2c1.5 -5.3 0.2 -17.1 -6.1 -19.3c6.1 4.8 19.3 7 26.8 5.2c14.1 -3.5 19.6 -26.3 3.2 -30.6c6 3.7 19.5 5.8 25.9 2.4c8.9 -4.5 9.5 -29.2 -2.6 -26.6c9.2 5.1 20.7 -3.3 25.3 -10.5c7.4 -11.4 13.2 -37.5 -8.2 -38c12 -0.1 -80.3 -62.4 -77.1 -53.2c-0.7 -8.2 -9.8 -19 -19.3 -14.3c-10.3 5.1 -12.7 25.2 -5.4 32.8c-4.3 -5.8 -18 -21.5 -25.6 -11.4c-6.5 8.6 -4.3 24.7 4.8 30.4c-5.7 -6.2 -12.4 -14.8 -22.1 -14c-5.5 0.4 -9.7 6.8 -11.1 11.7c-1.1 3.9 -0.9 10.2 1.6 13.7c1.8 2.6 6.4 4 7.8 5.6"></path><path fill="#33691e" d="m121.3 146c4.8 9.1 12.6 13 20.4 5c-5.6 9.2 -0.3 43.3 17.2 35.1c5.7 -2.7 4.2 -14.2 1.9 -18.6c3.4 8.8 14.2 26.9 26.2 26.5c16.3 -0.5 21.2 -26.4 6.7 -31.5c12.5 3.9 28.3 12 39.5 0.1c13.4 -14.2 3.9 -38.2 -12.2 -44.2c13.5 6.2 23.9 -7.9 17.3 -20.4c-8 -14.9 -24.2 -14.9 -35.6 -3.4c3.2 -9.5 3 -22.9 -6.9 -29.1c-19.2 -11.9 -23.6 10 -23.6 24.8c-2.9 -7.9 -18.8 -25 -29.6 -18.9c-13.1 7.3 -5.7 31.7 4.5 41.4c-5.2 -4.4 -13.1 -11.3 -18.2 -6.8c-11.6 10.2 4.6 17.9 16 17.9c0 0.1 -29.1 2 -23.6 22.1z"></path><path fill="#dcedc8" d="m373 440.9c-12.7 2.6 -26.8 3 -42.5 0.5l13.2 15c25.7 25.7 65.7 27.9 94.1 7.1c-27.5 18 -49.7 -5.3 -64.8 -22.6zm69.4 -73.7c19.2 15.2 45.4 37.4 26 66.1c19.8 -28.4 17.3 -67.7 -8.1 -93l-21.8 -18.3c4.9 14.6 6.2 30.1 3.9 45.2l0 0z"></path><path fill="#dcedc8" d="m453.9 449.9c-14 14 -36 13.2 -50.8 0c-11.3 -10.1 -23.2 -31.3 -23.2 -31.3c0 0 33.1 9 42.5 -0.3c9.6 -9.6 0.8 -41.6 0.2 -41.3c-0.6 0.3 16.9 6.7 31.3 22c15.5 16.6 14 36.8 0 50.9l0 0z"></path><path fill="none" stroke="#ffffff" stroke-width="10" stroke-miterlimit="10" d="m460.3 340.3l-207.6 -174.2c13.2 6.1 31.8 -4 13.9 -31.4c16.3 1.8 32.6 -27 1.8 -30.6c10.9 -7.2 29 -10.8 18.1 -32.3c-5.5 -16.2 -38.1 -16.2 -48.9 -14.4c3.6 -3.6 3.6 -12.6 -1.8 -16.2c-12.7 -7.2 -32.7 1.8 -39.9 9c9.1 -19.8 0 -27 -5.4 -27c-21.7 0 -25.3 5.4 -32.6 10.8c5.4 -10.8 -19.9 -23.3 -38.1 9c-1.8 -7.2 -30.8 -27 -36.2 12.6l0 0c-20 -16.1 -38 12.6 -29 27c-23.5 -3.6 -30.8 27 -14.5 39.6c-14.5 7.2 -18.1 37.7 -7.3 34.1c-12.7 25.2 -7.3 43.1 16.3 34.2c-29 50.3 -1.8 62.9 9.1 54c-3.6 28.7 1.8 48.5 12.7 37.7c10.9 30.5 18.1 10.8 21.7 3.6c7.3 14.4 21.7 41.3 32.6 9c12.7 19.8 29 1.8 29 -19.8c13.4 21.8 26.8 15.1 31.9 2.4l157.5 179.2c28.4 28.4 74.4 28.4 102.9 0l13.7 -13.2c28.5 -28.6 28.5 -74.7 0.1 -103.1z"></path></g></g><g style="filter: drop-shadow(rgba(0, 0, 0, 0.55) -10px 8px 6px);"><g transform="translate(-502.347 0)" style="animation-name: eaf-15358-26, eaf-15358-27, eaf-15358-28; animation-composition: replace, add, add;"><path fill="#bb9176" d="m242.7 384.3l-60.8 40.7c0 0 14.3 7.4 20.9 19.5c7.9 14.6 3.1 24.6 6.5 25.6c2.8 0.8 10.5 -1.6 12.6 -5.8c2.7 -5.3 2.6 -8.9 2.6 -8.9c0 0 4 2.6 10.1 12.8c4 6.8 6.2 13.9 10.3 13.9c5.5 0 6.5 -7 6.8 -11.1c0.3 -4.1 0.6 -11.7 0.6 -11.7c0 0 7.7 13.9 10.8 17c3.1 3.1 8.3 4.4 10.5 0c2.2 -4.5 1.3 -10.4 5.7 -21.4c6.2 -15.8 25.8 -34.8 25.8 -34.8l-62.4 -35.8z"></path><path fill="url('#eaf-15358-4')" d="m107.6 375.4c0 0 12.4 28.5 35.2 39.7c30.7 15.1 56.4 9.9 56.4 9.9c0 0 19.5 15.7 51.6 15.7c32.2 0 61.6 -26.3 61.6 -26.3c0 0 20.6 8 50.6 -8.2c26 -14 28 -34.9 28 -34.9c0 0 25.3 -10.3 33.9 -36.6c8.6 -26.3 8.7 -55.4 -8.9 -82.8c-18.5 -28.7 -75.3 -65 -84.5 -72.2c-9.2 -7.2 -40.3 -27 -47.2 -42.8c-6.9 -15.8 -12.1 -49.7 -12.6 -66.8c-0.9 -27.7 1.4 -41.3 -6.2 -45.4c-7.5 -4.1 -21.9 4.1 -29.4 7.5c-7.5 3.4 -25 12.1 -26.2 15.8c-1.2 3.7 2.6 22.9 0.2 46.5c-2.4 23.6 -8.6 46.5 -24.3 61.2c-36.3 34.2 -78.7 51 -101.6 83.5c-22.9 32.5 -30.1 75.3 -12.6 103.6c17.5 28.5 36 32.6 36 32.6l0 0z"></path><path fill="url('#eaf-15358-5')" d="m107.6 375.4c0 0 12.4 28.5 35.2 39.7c30.7 15.1 56.4 9.9 56.4 9.9c0 0 19.5 15.7 51.6 15.7c32.2 0 61.6 -26.3 61.6 -26.3c0 0 20.6 8 50.6 -8.2c26 -14 28 -34.9 28 -34.9c0 0 25.3 -10.3 33.9 -36.6c8.6 -26.3 8.7 -55.4 -8.9 -82.8c-18.5 -28.7 -53 -51.2 -84.5 -72.2c-9.7 -6.5 -40.3 -27 -47.2 -42.8c-6.9 -15.8 -12.3 -45.6 -13 -62.7c-0.9 -21.9 -58.7 -3.2 -61.1 20.3c-2.4 23.6 -8.6 46.5 -24.3 61.2c-36.3 34.2 -78.7 51 -101.6 83.5c-22.9 32.5 -30.1 75.3 -12.6 103.6c17.4 28.5 35.9 32.6 35.9 32.6l0 0z"></path><path fill="url('#eaf-15358-6')" d="m156.5 252.7c0 0 -44.5 14.8 -60.8 53.6c-12.4 29.6 -6.1 58.2 -6.1 58.2c0 0 5.4 6 9.6 7.9c4.2 1.8 8.3 3.1 8.3 3.1c0 0 2.8 6.3 5.2 9.9c2.4 3.6 8.5 11.4 8.5 11.4c0 0 -8.2 -21.9 -0.3 -61.1c11.2 -54.5 35.6 -83 35.6 -83l0 0z"></path><path fill="url('#eaf-15358-7')" d="m334.9 223.8c0 0 37.1 43.1 47.8 72.4c18.6 50.8 8.5 75 8.5 75c0 0 12.4 -3.5 21.4 -14.3c9.1 -10.8 12.5 -26.2 6.4 -55.2c-5.6 -26.7 -33.4 -47.4 -33.4 -47.4l6.3 24.5c0 0 -6.7 -12.6 -21.1 -28c-19.5 -20.6 -35.9 -27 -35.9 -27l0 0z"></path><path fill="url('#eaf-15358-8')" d="m171.4 233c0 0 29.3 -49.7 39 -73.9c10.3 -25.6 16.8 -35.9 15.6 -74.8c-0.6 -19.4 -5.6 -44.1 -5.6 -44.1l11.1 -5.6c0 0 12.1 30.5 16.7 66.8c4.6 36.3 6.3 60.2 -11.6 113.8c-14.9 44.6 -32.2 69.3 -43.6 98.3c-11.4 29 -25.7 105.2 53.3 115.5c70.3 9.2 76.9 -53.9 56.5 -100.5c-15.6 -35.6 -36.3 -79.5 -36.7 -106.6c-0.4 -27.1 1.4 -38.1 1.4 -38.1c0 0 22.9 39 33.5 59.7c10.6 20.7 34.6 62.2 34.1 101.7c-0.5 38.2 -12.2 94.5 -88.5 97c-71.6 2.3 -107.3 -75.2 -81.6 -137.6c27.4 -66.4 42.2 -82 50.3 -102.4c10.5 -26.3 10.3 -40.4 10.3 -40.4c0 0 -16 24.2 -28 40.3c-7.9 10.7 -26.2 30.9 -26.2 30.9l0 0z"></path><path fill="url('#eaf-15358-9')" d="m258.5 145c0 0 5.6 17.8 6.7 46.8c1.1 29 5.3 47.3 11.7 75.8c5.1 22.5 33.9 60.1 35.3 106.4c0.9 30.9 -13.9 57.1 -59.8 55.2c-74.1 -3 -69.3 -69.4 -67.1 -90.5c2.4 -22.4 42.6 -91.7 53.7 -129c7.2 -24.5 19.5 -64.7 19.5 -64.7l0 0z"></path><path fill="url('#eaf-15358-10')" d="m302.8 328.5c27.7 63.2 -11.5 102.1 -11.5 102.1c36.1 -18.2 43.5 -56.3 43.8 -85.3c0.5 -39.5 -23.6 -81.1 -34.1 -101.7c-10.6 -20.7 -33.5 -59.7 -33.5 -59.7c0 0 -1.8 11 -1.4 38.1c0.4 27.1 21 71 36.7 106.5"></path><path fill="none" stroke="#ffffff" stroke-width="10" stroke-miterlimit="10" d="m416.1 251.9c-18.5 -28.7 -75.3 -65 -84.5 -72.2c-9.2 -7.2 -40.3 -27 -47.2 -42.8c-6.9 -15.7 -12.1 -49.7 -12.6 -66.8c-0.9 -27.7 1.4 -41.3 -6.2 -45.4c-7.5 -4.1 -21.9 4.1 -29.4 7.5c-7.5 3.4 -25.1 12.2 -26.2 15.8c-1.2 3.7 2.6 22.9 0.2 46.5c-2.4 23.6 -8.6 46.5 -24.3 61.2c-36.3 34.2 -78.7 51 -101.6 83.5c-22.9 32.5 -30.1 75.3 -12.6 103.6c17.5 28.5 36 32.6 36 32.6c0 0 12.4 28.5 35.2 39.7c15.6 7.7 29.9 10.1 40.2 10.6c3.6 2.1 14.2 8.8 19.7 18.8c7.9 14.6 3.1 24.6 6.5 25.6c2.8 0.8 10.5 -1.6 12.6 -5.8c2.7 -5.3 2.6 -8.9 2.6 -8.9c0 0 4 2.6 10.1 12.8c4 6.8 6.2 13.9 10.3 13.9c5.5 0 6.5 -7 6.8 -11.1c0.3 -4.1 0.6 -11.7 0.6 -11.7c0 0 7.7 13.9 10.8 17c3.1 3.1 8.3 4.4 10.5 0c2.2 -4.5 1.3 -10.4 5.7 -21.4c5.5 -13.8 21.1 -30.2 24.9 -34c5.3 -3.7 8.4 -6.5 8.4 -6.5c0 0 20.6 8 50.6 -8.2c26 -14 28 -34.9 28 -34.9c0 0 25.3 -10.3 33.9 -36.6c8.4 -26.4 8.5 -55.5 -9 -82.8z"></path></g></g><g transform="translate(-0.6848 0)" style="animation-name: eaf-15358-29, eaf-15358-30, eaf-15358-31, eaf-15358-32; animation-composition: replace, add, add, replace;"><g style="filter: drop-shadow(rgba(0, 0, 0, 0.55) -10px 8px 6px);"><g><path fill="#fc873d" d="m169.1 269.7l-82.6 113.3l18.1 15.2c0 0 31.7 6.3 61.9 -18.3c30.2 -24.6 39.5 -49.5 42.5 -56.2c3 -6.7 16.3 -30.7 33.6 -40.2c25.9 -14.4 51.7 -11.2 60.2 -13.1c8.6 -1.9 24.2 -7.1 35.4 -24.6c11.2 -17.5 8.7 -34.9 26.6 -48.4c17.9 -13.4 37.3 -9.6 59.6 -23.4c22.3 -13.8 41.1 -44.2 45.8 -54.1c6.8 -14.3 11.8 -27.9 11.6 -37.4c-0.2 -7.1 -3.7 -12.1 -11.4 -16.2c-6.3 -3.3 -9.9 -4.7 -9.9 -4.7l-291.4 208.1z"></path><path fill="#d9411c" d="m192.1 206.4l-51.4 38.7c0 0 -64.8 84.6 -65.7 87.1c-0.9 2.5 -3.5 5.1 -9.6 8.3c-5.5 3 -15.2 7 -15.2 7c0 0 21.2 21.9 27.5 27.8c6.3 6 18.3 15.5 18.3 15.5c0 0 29 0.1 55.4 -21.8c26.5 -22 37.3 -50.3 43.9 -65.9c6.7 -15.7 19.7 -36.5 36.1 -43.9c16.4 -7.5 55.1 -5.6 80.9 -25c25.7 -19.4 19 -45.1 40.3 -59.9c21.2 -14.9 37.9 -10.4 56.2 -22.6c19.4 -12.8 32.6 -32.5 40.3 -46.6c8.4 -15.4 16.3 -41.3 16.3 -41.3c0 0 -15.7 -9.1 -34.3 -16.6c-14.3 -5.7 -32 -11.5 -32 -11.5c0 0 -28.7 40.6 -36.5 48.8c-7.8 8.1 -58.8 23.5 -58.8 23.5l-50.3 70.5l-61.4 27.9z"></path><path fill="#b42f17" d="m50.4 323.8l-24.2 -5.3c0 0 -11.8 -13.1 -13.9 -17.1c-2.1 -3.9 -0.6 -8.7 5.5 -9.2c6.1 -0.5 24.5 -0.6 36.1 -1.9c11.5 -1.3 33.2 -5.8 46.6 -22.3c13.4 -16.6 19.5 -40.8 22.9 -55.6c4.9 -20.7 17.3 -32.3 35.8 -36.8c18.5 -4.5 51.6 -3.6 63.6 -13.1c12.1 -9.5 15.9 -40.6 20 -53.6c5.5 -17.1 17.1 -26.6 29.5 -27.4c15.2 -1 32.9 7.2 32.9 7.2l-21.4 25.3l-25.2 67.1c0 0 -92.2 28.8 -93.4 28.8c-1.2 0 -34.6 53.1 -36.6 56.4c-2 3.3 -31.3 44.5 -38.3 45.7c-7 1.3 -39.9 11.8 -39.9 11.8l0 0z"></path><path fill="#feb896" d="m366 28.9c-9.3 -0.1 -11.8 11.8 -12.9 18.4c-1.1 6.6 -1.6 17.4 -7.3 27.4c-5.7 10 -14.2 14.2 -14.2 14.2c0 0 -53.7 -7.2 -68.2 22.7c-15.6 31.9 -7.3 50.5 -26 65.3c-30.5 24.1 -57.1 2.6 -85.2 27.9c-21.3 19.2 -28.9 79.2 -64 98.7c-35.1 19.5 -62.7 14.2 -62.7 14.2l13.7 17.3c0 0 15.5 -3.6 25.7 -5.1c4.6 -0.7 7 -0.1 8.1 0.2c2.4 0.7 1.9 3 1.9 3c0 0 17.3 -5.9 34.7 -21.5c17.4 -15.5 35.3 -50.3 38.7 -57.9c3.5 -7.6 10.8 -20.5 14.7 -16.8c3.9 3.7 -9.3 52.7 -31.1 83.4c-18.4 26 -38.1 33.5 -50 38.3c-11.6 4.7 -16.1 5.2 -16.1 5.2c0 0 4.8 4.9 8.8 8.8c2.8 2.8 8.2 7.5 8.2 7.5c0 0 26 -4.7 58.1 -35.8c32.1 -31.1 44.3 -88.7 66.2 -117.1c19 -24.6 44.5 -26.3 57.2 -31.8c12.7 -5.5 21.8 -14.6 26.6 -31.9c4.7 -17.4 8.1 -46.9 33.7 -53.7c25.6 -6.8 54.7 1.6 65.8 -22.6c11 -24.2 11.2 -50.5 11.2 -50.5c0 0 -22.6 -7.8 -35.6 -7.8z"></path><path fill="#fc6b4a" d="m308.3 125c4.7 -1.9 18.6 6.4 20.7 13.8c2 7.5 2 11.7 5.8 15.7c3.8 4 13.3 6.9 13.4 11.2c0.2 5.3 -16.1 19.1 -34.9 12.8c-18.9 -6.2 -17.3 -19.3 -17.5 -21.7c-0.1 -2.4 6.7 -29.3 12.5 -31.8l0 0z"></path><path fill="#fc6b4a" d="m262.3 104.3c-0.6 -2.3 -12.2 -6.7 -15.9 2.7c-3.8 9.7 -4.4 16.4 -0.5 20.8c2.4 2.6 5.2 2.8 6.8 1.4c1.6 -1.4 0.9 -4.1 5.4 -14.2c1.8 -4.2 4.8 -8.2 4.2 -10.7z"></path><path fill="#faffff" d="m254.7 135.7c0 0 1.4 1.2 5.9 1.3c6.4 0.2 9.5 -5.8 14.6 -3.8c5.5 2.2 6.7 8.3 7.4 12.3c0.7 4.3 3 6.7 5.6 7.2c2.4 0.5 5.5 -1 5.5 -1c0 0 1.9 -7.6 5.2 -16.7c1.8 -4.8 6.1 -11.5 6.1 -11.5c0 0 -1.9 -3.8 -8.7 -5c-6 -1 -9.1 2.9 -15.4 -0.6c-5.2 -2.8 -3.5 -6.4 -8.3 -10.4c-3.7 -3.1 -4.9 -2.7 -4.9 -2.7c0 0 -3.6 4 -7.2 12.6c-3.3 8.1 -5.8 18.3 -5.8 18.3l0 0z"></path><path fill="#faffff" d="m379 50.1c-5.4 1.9 -11.8 15.5 -7 23.9c4.7 8.4 20.3 8.4 20.3 8.4c0 0 2.7 -7.3 4 -12.3c1.3 -4.9 2.7 -11.3 2.7 -11.3c0 0 -7.3 -3.4 -9.8 -5.4c-2.6 -1.8 -5 -5.1 -10.2 -3.3l0 0z"></path><path fill="#fc6b48" d="m399.1 59c0 0 7.5 3.6 21.7 2.3c11.3 -1 17 -1.1 20.1 2.7c3.1 3.8 2.8 10.1 1.3 17.8c-2 10.1 -7 12.5 -14.8 10c-7.9 -2.5 -16 -5.5 -19.6 -6.5c-6.5 -1.8 -15.5 -2.8 -15.5 -2.8c0 0 2.5 -7.2 3.8 -11.8c1.3 -4.5 3 -11.7 3 -11.7l0 0z"></path><path fill="#fa6c43" d="m144 187.3c-3.9 0.2 -13.3 9.8 -12.3 16.1c0.7 4.8 6.2 7.9 7.5 8.4c3.4 1.4 7.2 -5.8 9.3 -8c2.1 -2.2 6.8 -5.2 6.6 -8c-0.5 -3.7 -6.1 -8.8 -11.1 -8.5l0 0z"></path><path fill="#fefeff" d="m142.8 216.5c-1.1 2.3 4.9 7.6 8.8 9.7c3.8 2 11.2 -3 17.8 2c6.6 4.9 4.4 13 6.7 15.9c2.4 3 6.7 7.2 12.1 8.9c3.9 1.2 5.1 -2.6 8.9 -10c3.9 -7.4 5.2 -7.8 5.1 -10c-0.2 -2.8 -8.5 -11.5 -15.3 -16.1c-6.7 -4.6 -16.3 -8.9 -19 -11.7c-2.7 -2.7 -5 -8.1 -7.2 -6.9c-1.6 0.9 -6.1 3.5 -10.1 7.9c-3.2 3.2 -6.6 8 -7.8 10.3l0 0z"></path><path fill="#fa6c43" d="m202.7 242.6c-4.3 1.7 -9.4 12.6 -9.6 15.5c-0.3 3.6 7.8 11.2 12.5 11.2c4.7 0 11.3 -11.3 10.2 -15.2c-1.1 -3.8 -9.2 -13 -13.1 -11.5z"></path><path fill="none" stroke="#ffffff" stroke-width="9.7735" stroke-miterlimit="10" d="m470.3 66.3c-1.9 -1 -3.5 -1.8 -4.9 -2.5c0 0 0 -0.1 0 -0.1c0 0 -15.7 -9.1 -34.3 -16.6c-14.3 -5.7 -32 -11.5 -32 -11.5c0 0 0 0 -0.1 0.1c-6.2 -2 -22.6 -6.9 -33 -6.9c-9.3 -0.1 -11.8 11.8 -12.9 18.4c-1 6.6 -1.6 17.4 -7.3 27.4c-5.7 10 -14.2 14.2 -14.2 14.2c0 0 -12.2 -1.6 -26.5 -0.1l0.1 -0.1c0 0 -17.7 -8.1 -32.9 -7.2c-12.3 0.8 -24 10.3 -29.5 27.4c-4.1 13 -8 44.1 -20 53.6c-12.1 9.5 -45.2 8.6 -63.6 13.1c-18.4 4.5 -30.9 16.1 -35.8 36.8c-3.4 14.7 -9.4 39 -22.9 55.6c-13.4 16.5 -35.1 21 -46.6 22.3c-11.6 1.3 -30 1.4 -36.1 1.9c-6 0.5 -7.6 5.2 -5.5 9.2c2.1 4 13.9 17.1 13.9 17.1l0 0l13 16.5c0 0 15.5 -3.6 25.7 -5.1c4.6 -0.7 7 -0.1 8.1 0.2c1.8 0.6 1.9 1.9 1.9 2.6c-1 2.4 -3.7 4.8 -9.4 7.8c-5.5 3 -15.2 7 -15.2 7c0 0 8.1 8.4 15.8 16.2c-0.2 0 -0.3 0 -0.3 0c0 0 4.8 4.9 8.8 8.8c2.8 2.8 8.2 7.5 8.2 7.5c0 0 0.1 0 0.2 0c3.3 2.9 6.8 5.8 9.4 7.9l12.3 10.3c0 0 31.7 6.3 61.9 -18.3c30.2 -24.6 39.5 -49.5 42.5 -56.2c3 -6.7 16.3 -30.7 33.6 -40.2c25.9 -14.4 51.7 -11.2 60.2 -13.1c8.6 -1.9 24.2 -7.1 35.4 -24.6c11.2 -17.5 8.7 -34.9 26.6 -48.4c17.9 -13.4 37.3 -9.6 59.6 -23.4c22.3 -13.8 41.1 -44.2 45.8 -54.1c6.8 -14.3 11.8 -27.9 11.6 -37.4c-0.4 -7 -3.9 -12 -11.6 -16.1z"></path></g></g><g style="filter: drop-shadow(rgba(0, 0, 0, 0.55) -10px 8px 6px);"><g><path fill="#fc873d" d="m38.9 141c0 0 -3.6 1.4 -9.9 4.7c-7.7 4.1 -11.2 9.1 -11.4 16.2c-0.2 9.5 4.8 23.1 11.6 37.4c4.7 9.9 23.4 40.3 45.8 54.1c22.3 13.8 41.8 9.9 59.6 23.4c17.9 13.4 15.4 30.8 26.6 48.4c11.2 17.6 26.8 22.8 35.4 24.6c8.5 1.9 34.3 -1.2 60.2 13.1c17.2 9.5 30.6 33.5 33.6 40.2c3 6.7 12.3 31.6 42.5 56.2c30.2 24.5 61.9 18.3 61.9 18.3l18.1 -15.2l-82.6 -113.4l-291.4 -208z"></path><path fill="#d9411c" d="m245.8 257.9l-50.3 -70.5c0 0 -51 -15.4 -58.8 -23.5c-7.8 -8.1 -36.5 -48.8 -36.5 -48.8c0 0 -17.7 5.8 -32 11.5c-18.6 7.5 -34.3 16.6 -34.3 16.6c0 0 7.9 25.9 16.3 41.3c7.6 14.1 20.9 33.9 40.3 46.6c18.4 12.1 35 7.6 56.2 22.6c21.3 14.9 14.6 40.6 40.3 59.9c25.7 19.3 64.4 17.5 80.9 25c16.4 7.4 29.4 28.2 36.1 43.9c6.7 15.6 17.5 44 43.9 65.9c26.4 22 55.4 21.8 55.4 21.8c0 0 12 -9.5 18.3 -15.5c6.4 -5.9 27.5 -27.8 27.5 -27.8c0 0 -9.7 -4.1 -15.2 -7c-6.1 -3.3 -8.7 -5.8 -9.6 -8.3c-0.9 -2.5 -65.7 -87.1 -65.7 -87.1l-51.4 -38.7l-61.4 -27.9z"></path><path fill="#b42f17" d="m448.9 403.3c0 0 -32.9 -10.5 -39.8 -11.9c-7 -1.2 -36.3 -42.4 -38.3 -45.7c-2 -3.3 -35.4 -56.4 -36.6 -56.4c-1.2 0 -93.4 -28.8 -93.4 -28.8l-25.2 -67.1l-21.3 -25.2c0 0 17.7 -8.1 32.9 -7.2c12.3 0.8 24 10.3 29.5 27.4c4.1 13 8 44.1 20 53.6c12.1 9.5 45.2 8.6 63.6 13.1c18.4 4.5 30.9 16.1 35.8 36.8c3.4 14.7 9.4 39 22.9 55.6c13.4 16.5 35.1 21 46.6 22.3c11.6 1.3 30 1.4 36.1 1.9c6 0.5 7.6 5.2 5.5 9.2c-2.1 4 -13.9 17.1 -13.9 17.1l-24.4 5.3l0 0z"></path><path fill="#feb896" d="m97.8 116c0 0 0.1 26.3 11.2 50.5c11.1 24.2 40.3 15.8 65.8 22.6c25.5 6.8 28.9 36.3 33.7 53.7c4.7 17.4 13.9 26.5 26.6 31.9c12.7 5.4 38.2 7.2 57.2 31.8c22 28.4 34.1 86 66.2 117.1c32.1 31.1 58.1 35.8 58.1 35.8c0 0 5.4 -4.7 8.2 -7.5c3.9 -3.8 8.8 -8.8 8.8 -8.8c0 0 -4.5 -0.5 -16.1 -5.2c-11.9 -4.8 -31.6 -12.3 -50 -38.3c-21.8 -30.8 -35 -79.7 -31.1 -83.4c3.9 -3.7 11.3 9.2 14.7 16.8c3.5 7.6 21.3 42.4 38.7 57.9c17.3 15.5 34.7 21.5 34.7 21.5c0 0 -0.6 -2.2 1.9 -3c1 -0.3 3.5 -0.9 8.1 -0.2c10.1 1.4 25.7 5.1 25.7 5.1l13.7 -17.3c0 0 -27.6 5.4 -62.7 -14.2c-35 -19.6 -42.6 -79.6 -64 -98.7c-28.1 -25.3 -54.8 -3.8 -85.2 -27.9c-18.7 -14.7 -10.4 -33.3 -26 -65.3c-14.6 -29.9 -68.2 -22.7 -68.2 -22.7c0 0 -8.5 -4.3 -14.2 -14.2c-5.7 -9.9 -6.3 -20.8 -7.3 -27.4c-1 -6.6 -3.6 -18.5 -12.9 -18.4c-13.1001 0.2 -35.6001 7.8 -35.6001 7.8z"></path><path fill="#fc6b4a" d="m191 204.5c5.8 2.5 12.6 29.4 12.4 31.8c-0.2 2.4 1.4 15.5 -17.5 21.7c-18.8 6.2 -35.2 -7.5 -34.9 -12.8c0.2 -4.3 9.6 -7.2 13.4 -11.2c3.8 -4 3.8 -8.2 5.8 -15.7c2.2 -7.4 16.1 -15.8 20.8 -13.8l0 0z"></path><path fill="#fc6b4a" d="m241.2 194.5c4.5 10.2 3.8 12.9 5.4 14.2c1.6 1.4 4.4 1.2 6.8 -1.4c3.9 -4.4 3.3 -11 -0.5 -20.8c-3.7 -9.4 -15.4 -5 -15.9 -2.7c-0.6 2.5 2.4 6.4 4.2 10.7z"></path><path fill="#faffff" d="m244.5 215.1c0 0 -2.5 -10.2 -5.7 -18.1c-3.6 -8.6 -7.2 -12.6 -7.2 -12.6c0 0 -1.2 -0.4 -4.9 2.7c-4.8 3.9 -3.1 7.5 -8.3 10.4c-6.3 3.5 -9.4 -0.4 -15.4 0.6c-6.8 1.2 -8.7 5 -8.7 5c0 0 4.3 6.7 6.1 11.5c3.3 9 5.2 16.7 5.2 16.7c0 0 3.1 1.5 5.5 1c2.7 -0.5 4.9 -2.9 5.6 -7.2c0.7 -4 1.9 -10.1 7.4 -12.3c5.1 -2 8.1 3.9 14.6 3.8c4.4 -0.3 5.8 -1.5 5.8 -1.5l0 0z"></path><path fill="#faffff" d="m120.3 129.6c-5.2 -1.9 -7.6 1.5 -10.2 3.4c-2.5 2 -9.8 5.4 -9.8 5.4c0 0 1.4 6.4 2.7 11.3c1.3 4.9 4 12.3 4 12.3c0 0 15.5 0 20.3 -8.4c4.8 -8.4 -1.7 -22.1 -7 -24l0 0z"></path><path fill="#fc6b48" d="m100.2 138.5c0 0 1.7 7.2 2.9 11.7c1.3 4.6 3.8 11.8 3.8 11.8c0 0 -8.9 1 -15.5 2.8c-3.5 1 -11.7 4 -19.6 6.5c-7.8 2.5 -12.8 0.1 -14.8 -10c-1.5 -7.6 -1.9 -13.9 1.3 -17.8c3.1 -3.8 8.8 -3.8 20.1 -2.7c14.3 1.3 21.8 -2.3 21.8 -2.3l0 0z"></path><path fill="#fa6c43" d="m355.3 266.7c-4.9 -0.3 -10.6 4.8 -11 8.6c-0.2 2.8 4.5 5.8 6.6 8c2.1 2.2 5.9 9.4 9.3 8c1.3 -0.5 6.7 -3.6 7.5 -8.4c0.9 -6.4 -8.5 -15.9 -12.4 -16.2l0 0z"></path><path fill="#fefeff" d="m356.5 296c-1.2 -2.3 -4.6 -7.1 -7.6 -10.4c-4 -4.4 -8.5 -7 -10.1 -7.9c-2.2 -1.2 -4.5 4.2 -7.2 6.9c-2.7 2.8 -12.3 7.2 -19 11.7c-6.8 4.6 -15 13.3 -15.3 16.1c-0.2 2.2 1.2 2.6 5.1 10c3.8 7.4 4.9 11.2 8.9 10c5.4 -1.7 9.7 -5.9 12.1 -8.9c2.3 -2.9 0.1 -11 6.7 -15.9c6.6 -4.9 13.9 0 17.8 -2c3.7 -2 9.7 -7.3 8.6 -9.6l0 0z"></path><path fill="#fa6c43" d="m283.5 333.5c-1.1 3.8 5.5 15.2 10.2 15.2c4.7 0 12.8 -7.6 12.5 -11.2c-0.2 -2.9 -5.3 -13.8 -9.6 -15.5c-3.9 -1.5 -12 7.7 -13.1 11.5z"></path><path fill="none" stroke="#ffffff" stroke-width="9.7735" stroke-miterlimit="10" d="m29 145.7c1.9 -1 3.5 -1.8 4.9 -2.5c0 0 0 -0.1 0 -0.1c0 0 15.7 -9.1 34.3 -16.6c14.3 -5.7 32 -11.5 32 -11.5c0 0 0 0 0.1 0.1c6.2 -2 22.6 -6.9 33 -6.9c9.3 -0.1 11.8 11.8 12.9 18.4c1 6.6 1.6 17.4 7.3 27.4c5.7 10 14.2 14.2 14.2 14.2c0 0 12.2 -1.6 26.5 -0.1l-0.1 -0.1c0 0 17.7 -8.1 32.9 -7.2c12.3 0.8 24 10.3 29.5 27.4c4.1 13 8 44.1 20 53.6c12 9.5 45.2 8.6 63.6 13.1c18.4 4.5 30.9 16.1 35.8 36.8c3.4 14.7 9.4 39 22.9 55.6c13.4 16.5 35.1 21 46.6 22.3c11.6 1.3 30 1.4 36.1 1.9c6 0.5 7.6 5.2 5.5 9.2c-2.1 4 -13.9 17.1 -13.9 17.1l0 0l-13 16.5c0 0 -15.5 -3.6 -25.7 -5.1c-4.6 -0.7 -7 -0.1 -8.1 0.2c-1.8 0.6 -1.9 1.9 -1.9 2.6c1 2.4 3.7 4.8 9.4 7.8c5.5 3 15.2 7 15.2 7c0 0 -8.1 8.4 -15.8 16.2c0.2 0 0.3 0 0.3 0c0 0 -4.8 4.9 -8.8 8.8c-2.8 2.8 -8.2 7.5 -8.2 7.5c0 0 -0.1 0 -0.2 0c-3.3 2.9 -6.8 5.8 -9.4 7.9l-12.3 10.3c0 0 -31.7 6.3 -61.9 -18.3c-30.2 -24.6 -39.5 -49.5 -42.5 -56.2c-3 -6.7 -16.3 -30.7 -33.6 -40.2c-25.9 -14.4 -51.7 -11.2 -60.2 -13.1c-8.6 -1.9 -24.2 -7.1 -35.4 -24.6c-11.2 -17.5 -8.7 -34.9 -26.6 -48.4c-17.9 -13.4 -37.3 -9.6 -59.6 -23.4c-22.3 -13.8 -41.1 -44.2 -45.8 -54.1c-6.8 -14.3 -11.8 -27.9 -11.6 -37.4c0.4 -6.8999 3.9 -11.8999 11.6 -16.0999z"></path></g></g></g><g style="filter: drop-shadow(rgba(0, 0, 0, 0.55) -10px 8px 6px);"><g transform="translate(-482.225 0.9224)" style="animation-name: eaf-15358-33, eaf-15358-34, eaf-15358-35; animation-composition: replace, add, add;"><path fill="#bc998f" d="m19.3 405.4l0.5 0c4 39.9 33.9 68.8 77.6 68.8c218.1 0 312.5 -98.2 312.5 -98.2c4.8 -4.8 65.6 -60.7 65.6 -124.2c0 -56 -43.4 -107.2 -83 -140.9c-32.2 -27.4 -65.3 -60.7 -110.9 -60.7c-49.7 0 -95.6 20.7 -128.7 52.7l0 0.3c-26.8 26.2 -23.5 56.3 -20.5 82.9c2.9 25.3 5.6 49.1 -13.2 73.6c-14 18.4 -29.8 31.7 -45.1 44.6c-30 25.5 -58.4 49.5 -54.8 101.1z"></path><path fill="#f44336" d="m33.2 353.9c5.4 41.5 33.2 72.9 72.5 72.9c192.5 0 294.3 -91.9 294.3 -91.9c4.5 -4.5 61.6 -57 61.6 -116.6c0 -52.6 -40.7 -100.7 -77.9 -132.3c-30.2 -25.7 -61.3 -57 -104.1 -57c-76 0 -120 28.9 -137.4 80.5c31.2 178.6 -119.4 164 -109 244.4l0 0z"></path><path fill="#ff8a80" d="m250.9 238.3c-3 -5.4 -1.1 -12.2 4.3 -15.2c5.4 -3 12.2 -1.1 15.2 4.3c0.3 0.5 0.5 0.9 0.7 1.4c6.3 16 9.4 31.8 8.9 48.6c-0.5 16.5 -6.9 33.8 -18.9 45.4c-6.1 5.9 -12.5 9.8 -18.4 14.4c-6 4.5 -11.9 9.2 -17.5 14c-5.7 4.8 -11.2 9.9 -16.4 15.3c-4.9 5.5 -10.4 11.1 -12.3 18.4c1 -7.6 5.9 -14 10.2 -20.2c4.5 -6.1 9.5 -11.9 14.7 -17.5c5.2 -5.6 10.5 -11 16 -16.3c5.4 -5.4 11.5 -10.3 15.6 -15.5c8.5 -10.8 11.6 -24.4 10.4 -37.9c-1.1 -13.4 -5.9 -27.4 -12.2 -38.8l-0.3 -0.4l0 0zm85.6 -43.5c-0.7 -6.2 3.7 -11.8 9.9 -12.5c6.2 -0.7 11.8 3.7 12.5 9.9l0 0.2c0.9 8.2 0.8 15.3 0.3 22.9c-0.5 7.4 -1.8 14.8 -3.7 22c-3.9 14.3 -11.7 27.9 -23.2 36c9 -10.9 12.2 -24.5 12.2 -37.6c0 -6.6 -0.7 -13.1 -2 -19.5c-1.2 -6.3 -2.9 -12.4 -5.2 -18.3c-0.5 -1.1 -0.7 -2.1 -0.8 -3.1l0 0zm-21.6 -64.6c7.7 -5.2 18.1 -3.2 23.3 4.5c0.6 0.8 1 1.7 1.4 2.6c3.8 8.5 0 18.4 -8.5 22.2c-14.5 6.5 -28.3 10.9 -43.9 13.4c-7.7 1.1 -15.8 1.7 -24.2 0.6c-8.6 -1 -16.9 -4.3 -23.9 -9.4c-7.1 -5.2 -12.1 -12.7 -15 -19.9c-2.9 -7.3 -4.3 -14.4 -5.6 -21.2c-1.3 -6.8 -2.7 -13.4 -5 -19.7c-2.5 -6 -5.2 -13 -11.6 -15.9c7.2 1.4 11.8 8.1 15.7 13.8c4 6 7 12.7 9.7 19c5.4 12.8 11.8 24.5 21.5 28.2c9.8 4.1 20.7 3 32.5 -1c11.4 -3.8 23.4 -10.1 33.2 -16.9l0.4 -0.3l0 0z"></path><path fill="#ff8a80" d="m353.4 133.4c-0.7 13.5 0 26.9 2.1 40.3c2.1 13.3 5.8 26.4 12.5 37.4c3.5 5.7 7.2 9.5 13.3 14.9c5.7 5.4 10.8 11.5 14.4 18.7c3.6 7.1 5.2 15.4 4 23c-1.2 7.7 -4.7 14.4 -8.6 20.5c2.6 -6.8 4.7 -13.9 4.4 -20.7c-0.3 -6.7 -2.7 -13.2 -6.9 -18.4c-4 -5.2 -9.4 -9.6 -15 -13.2c-5.6 -3.2 -13.5 -8.4 -18.7 -14.4c-11.1 -12.1 -18.2 -26.6 -23.6 -41.2c-5.4 -14.8 -9.2 -30.1 -11.3 -45.6l33.4 -1.3l0 0zm-89.1 162.5c0.5 -3.1 3.3 -5.2 6.4 -4.7c2.8 0.4 4.8 2.8 4.8 5.7l0 0.1c-0.8 9.7 -0.7 20 0.7 29.9c0.7 4.9 1.9 9.9 3.9 14.4c2 4.5 4.8 8.9 9.4 11.5c-5 -1.7 -8.9 -5.7 -11.9 -10.1c-2.9 -4.5 -5.2 -9.3 -6.8 -14.4c-3.3 -10.1 -5.5 -20.6 -6.4 -31.3c-0.1 -0.4 -0.1 -0.7 -0.1 -1.1l0 0z"></path><path fill="#fbe9e7" d="m315 118.6c26.4 -95 -84.9 -90.9 -108.6 -86.7c50.6 -15.8 100.1 -31.9 182.4 58.8c78.8 71.9 95.6 121.5 81.8 159.1c10.5 -65.6 -92.7 -174 -123.5 -106c-53 117.2 -242.6 198.6 -255.3 206.5c-13.6 8.4 -27.4 -7.7 -16.7 -16.7c12 -10.4 203.7 -84.5 239.9 -215l0 0z"></path><path fill="#ffccbc" d="m19.3 371.2l0.5 0c4 39.9 33.9 68.8 77.6 68.8c218.1 0 312.5 -98.2 312.5 -98.2c4.8 -4.8 65.6 -60.7 65.6 -124.2c0 -56 -43.4 -107.2 -83 -140.9c-32.2 -27.4 -65.3 -60.7 -110.9 -60.7c-49.7 0 -95.6 20.7 -128.7 52.7l0 0.3c-26.8 26.2 -23.5 56.3 -20.5 82.9c2.9 25.3 5.6 49.1 -13.2 73.6c-14 18.4 -29.8 31.7 -45.1 44.6c-30 25.5 -58.4 49.6 -54.8 101.1zm22.3 -9.1c0 -3.3 0.1 -6.3 0.4 -9.1c0.3 -2.3 0.7 -4.5 1.1 -6.7c1.2 -5 3.1 -10.2 6.1 -17c8.3 -15.6 22.3 -27.8 39.3 -42.1c15.4 -13 32.9 -27.8 48.4 -48.1c24.2 -31.6 20.7 -62.5 17.6 -89.7c-2.9 -25.5 -5.1 -45.7 13.7 -64.2c30.1 -30 70.8 -46.8 113.2 -46.8c32.5 0 58.7 22.6 86.3 46.6c3.4 2.9 6.8 5.9 10.2 8.8c28.1 23.9 75.1 71.7 75.1 123.9c0 46.2 -40.4 90.4 -57.8 107.2l-0.6 0.6c-5.2 4.5 -101.1 94.7 -297.3 92.2c-31.5 0.3 -55.7001 -23.9 -55.7001 -55.5999l0 0z"></path><path fill="none" stroke="#ffffff" stroke-width="10" stroke-miterlimit="10" d="m475.5 217.7c0 -56 -43.4 -107.2 -83 -140.9c-32.2 -27.4 -65.3 -60.7 -110.9 -60.7c-49.7 0 -95.6 20.7 -128.7 52.7l0 0.3c-24.2 23.7 -23.8 50.4 -21.3 75c-2.3 14.3 -0.7 28.7 0.9 42.1c0.3 2.6 0.6 5.2 0.8 7.7c-1.8 10.6 -5.9 21.1 -14 31.8c-14 18.4 -29.8 31.7 -45.1 44.6c-30.1 25.4 -58.4 49.5 -54.8 101.1l0.5 0c0.2 2.2 0.5 4.5 0.9 6.6c-1.5 8.3 -2.1 17.4 -1.4 27.6l0.5 0c4 39.9 33.9 68.8 77.6 68.8c218.1 0 312.5 -98.2 312.5 -98.2c4.8 -4.8 65.6 -60.7 65.6 -124.2c0 -5.9 -0.5 -11.6 -1.4 -17.4c0.8 -5.7 1.3 -11.3 1.3 -16.9z"></path></g></g></g></g></svg>

