<svg
    id="ewCpy1t7Qoh1"
    xmlns="http://www.w3.org/2000/svg"
    xmlns:xlink="http://www.w3.org/1999/xlink"
    viewBox="0 0 191.7893 191.7878"
    shape-rendering="geometricPrecision"
    text-rendering="geometricPrecision"
    width="191.7893"
    height="191.7878"
>


    <style>
        <![CDATA[
        #ewCpy1t7Qoh3_tr {animation: ewCpy1t7Qoh3_tr__tr 3000ms linear infinite normal forwards}
		
		@keyframes ewCpy1t7Qoh3_tr__tr { 0% 
		
			{transform: translate(96.466956px,108.30584px) rotate(0deg)} 20% 
		
			{transform: translate(96.466956px,108.30584px) rotate(120deg)} 100% 
			
			{transform: translate(96.466956px,108.30584px) rotate(120deg)}
		}
		
		
        ]]>
    </style>
    <path
        d="M191.7879,95.9147c0,24.0643.0005,48.1285-.0002,72.1928-.0003,11.0298-8.3192,21.1131-19.1838,23.1787-1.6073.3056-3.2659.4798-4.9008.4807-47.9673.0251-95.9346.0207-143.9019.0204-11.7579,0-22.0229-9.02-23.5636-20.7217-.136-1.0325-.2278-2.0796-.228-3.12-.011-48.0882-.01-96.1765-.009-144.2647C0.0008,12.6485,8.3229,2.5618,19.1835,0.5004c1.6073-.3051,3.2657-.4795,4.9005-.4803c48.0076-.0247,96.0153-.0202,144.0229-.019c11.0321.0003,21.1312,8.333,23.1801,19.1827.3036,1.6078.4782,3.2658.4802,4.9008.0301,23.9433.0207,47.8867.0207,71.83Z"
        fill="#444444"
    />
    <g id="ewCpy1t7Qoh3_tr" transform="translate(96.466956,108.30584) rotate(180)">
        <path d="M96.4706,73.7094c-7.2143,0-30.4693,42.175-26.9403,49.2741c3.5372,7.1155,50.3846,7.0415,53.8807,0c3.4961-7.0251-19.6932-49.2741-26.9403-49.2741Z" transform="translate(-96.466952,-108.30584)" fill="#00000" />
    </g>
    <path
        d="M96.4706,10.6732c-21.7744,0-91.844,127.0597-81.1666,148.5214c10.6774,21.4536,151.7708,21.2068,162.3413,0c10.5705-21.215-59.3921-148.5214-81.183-148.5214h.0082.0001Zm53.2061,129.9224c-6.9263,13.902-99.3708,14.0666-106.3794,0C36.3052,126.529,82.223,43.2649,96.4705,43.2649s60.1325,83.404,53.2062,97.3307Z"
        fill="#ffffff"
    />
</svg>
