<svg xmlns="http://www.w3.org/2000/svg" viewBox="0 0 500 500" overflow="hidden" preserveAspectRatio="xMidYMid meet" id="eaf-d6f7-0"><defs><clipPath id="eaf-d6f7-1"><rect x="0" y="0" width="500" height="500"></rect></clipPath><style>#eaf-d6f7-0 * {animation: 14000ms linear infinite normal both running;offset-rotate:0deg}@keyframes eaf-d6f7-2{0%{fill:#ffbf00}6.19%{fill:#ffbf00;animation-timing-function:ease-in-out}8.34%{fill:#2bff05}36.44%{fill:#2bff05;animation-timing-function:ease-in-out}40.96%,100%{fill:#ffbf00}}@keyframes eaf-d6f7-3{0%,100%{transform:translate(271.9px,334.4px)}}@keyframes eaf-d6f7-4{0%{transform:scale(1,1)}5.48%{transform:scale(1,1);animation-timing-function:ease-in-out}7.38%{transform:scale(0.84,0.84);animation-timing-function:ease-in-out}9.29%{transform:scale(1,1)}34.29%,100%{transform:scale(1.06,1.06)}}@keyframes eaf-d6f7-5{0%,100%{transform:translate(-273.9px,-356.4px)}}@keyframes eaf-d6f7-6{0%{opacity:1}9.76%{opacity:1;animation-timing-function:ease-in-out}13.34%{opacity:0}34.77%{opacity:0;animation-timing-function:ease-in-out}39.06%,100%{opacity:1}}@keyframes eaf-d6f7-7{0%{opacity:1}51.66%{opacity:1;animation-timing-function:ease-in-out}59.52%,100%{opacity:0}}@keyframes eaf-d6f7-8{0%{opacity:0}46.91%{opacity:0;animation-timing-function:ease-in-out}55.01%,100%{opacity:1}}@keyframes eaf-d6f7-9{0%{opacity:0}43.34%{opacity:0;animation-timing-function:ease-in-out}50.71%,100%{opacity:1}}@keyframes eaf-d6f7-10{0%,100%{transform:none;offset-path:path("m139.02 553.1483l253.416 -261.7083")}}@keyframes eaf-d6f7-11{0%{animation-timing-function:step-start}29.76%{offset-distance:0%;animation-timing-function:ease-in-out}57.62%,100%{offset-distance:100%}}@keyframes eaf-d6f7-12{0%{animation-timing-function:step-start}29.76%{transform:rotate(-47deg);animation-timing-function:ease-in-out}57.62%,100%{transform:rotate(0)}}@keyframes eaf-d6f7-13{0%{animation-timing-function:step-start}33.34%{transform:scale(4.4,4.4);animation-timing-function:ease-in-out}44.76%{transform:scale(4.4,4.4);animation-timing-function:ease-in-out}57.62%,100%{transform:scale(1.54,1.54)}}@keyframes eaf-d6f7-14{0%,100%{transform:translate(-408.55px,-293.4px)}}@keyframes eaf-d6f7-15{0%{opacity:0}18.57%{opacity:0;animation-timing-function:ease-in-out}30.71%{opacity:1}78.1%{opacity:1}88.81%,100%{opacity:0}}@keyframes eaf-d6f7-16{0%,100%{transform:none;offset-path:path("m51.7689 177.7528l-9.1802 -9.5992l0 0l9.1802 9.5992")}}@keyframes eaf-d6f7-17{0%{offset-distance:0%;animation-timing-function:ease-in}6.19%{offset-distance:50%}6.66%{offset-distance:50%;animation-timing-function:cubic-bezier(0,0,0.58,1)}12.86%,100%{offset-distance:100%}}@keyframes eaf-d6f7-18{0%{transform:rotate(5deg);animation-timing-function:ease-in}6.19%{transform:rotate(14deg)}6.66%{transform:rotate(14deg);animation-timing-function:cubic-bezier(0,0,0.58,1)}12.86%,100%{transform:rotate(5deg)}}@keyframes eaf-d6f7-19{0%,100%{transform:matrix(1.06,0,0,1.06,-70.0664,-213.378)}}</style></defs><g clip-path="url('#eaf-d6f7-1')" style="isolation: isolate;"><g><path fill="#222222" d="m331.7 626.3c0 15.6 0 31.3 0 46.9c0 7.2 -5.4 13.7 -12.5 15.1c-1 0.2 -2.1 0.3 -3.2 0.3c-31.2 0 -62.4 0 -93.6 0c-7.6 0 -14.3 -5.9 -15.3 -13.5c-0.1 -0.7 -0.1 -1.4 -0.1 -2c0 -31.3 0 -62.5 0 -93.8c0 -7.2 5.4 -13.7 12.5 -15.1c1 -0.2 2.1 -0.3 3.2 -0.3c31.2 0 62.4 0 93.6 0c7.2 0 13.7 5.4 15.1 12.5c0.2 1 0.3 2.1 0.3 3.2c0 15.6 0 31.1 0 46.7z" transform="matrix(4 0 0 4 -827.28 -2254.5264)"></path><path fill="#ffffff" d="m110.9 196.3c-2.6 -22.4 -21.7 -39.8 -44.8 -39.8c-24.9 0 -45.1 20.2 -45.1 45.1c0 16.9 9.4 31.7 23.2 39.4l0 212.3c0 8.3 6.7 15 15 15l395.5 0c8.3 0 15 -6.7 15 -15l0 -257l-358.8 0l0 0z" transform="matrix(1.06 0 0 1.06 -16.721 -40.744)"></path><g transform="matrix(1.06 0 0 1.06 -18.7869 -42.222)"><polygon points="158.9,251.9 104.7,251.9 132.3,208.4 186.4,208.4" fill="#000000"></polygon><polygon points="292.7,251.9 238.6,251.9 266.1,208.4 320.3,208.4" fill="#000000"></polygon><polygon points="426.6,251.9 372.4,251.9 400,208.4 454.1,208.4" fill="#000000"></polygon></g><polygon points="212.2,433.8 212.2,279 335.6,356.4" fill="#ffbf00" transform="translate(-2 -22)" style="animation-name: eaf-d6f7-2, eaf-d6f7-3, eaf-d6f7-4, eaf-d6f7-5, eaf-d6f7-6; animation-composition: replace, replace, add, add, replace;"></polygon><g transform="matrix(1.06 0 0 1.06 -17.522 -43.642)" opacity="0" style="animation-name: eaf-d6f7-15;"><rect fill="#bee4fa" width="398.4" height="198" transform="translate(58.6 261.6)"></rect><path fill="#ffffff" d="m434.7 258.9c12.4 25.7 19.4 54.5 19.4 84.9c0.1 41.7 -13.3 82.3 -38.1 115.8c-6.2 -2.8 -11.7 -7.2 -15.7 -12.7c-27.8 -34.5 -47.6 -56.6 -52.2 -61.6c-9.7 -10.5 -14.2 -11.2 -21.6 -14.9c-1.3 -0.6 -2.3 -1.6 -3 -2.8l-37.8 -66.4c-2.7 -5.5 -6.8 -10.2 -11.8 -13.7l-9.4 -6.6c-1.9 -1.4 -4.5 -1.3 -6.5 0.1l-7.8 5.7c-0.6 0.5 -1.2 1 -1.7 1.7l-17.8 24.8l-8.7 6.8l-59.8 75.8l-5.5 2.4c-1.1 0.5 -2.1 1.3 -2.9 2.2l-36.4 46.5c-3.3 4.1 -7.8 9.3 -16 12.9c-24.9 -33.5 -38.3 -74.2 -38.2 -116c0 -30.4 7 -59.2 19.4 -84.9l-28.3 0l0 203.6l408.8 0l0 -203.6l-28.4 0z"></path><path fill="#000000" d="m215.8 402.5c-2 -0.8 -5.2 -4.4 0.2 -14.4l12.4 -25.9c0.4 -0.8 -0.5 -1.8 -1.1 -1.1l-10.9 10.9c-5.1 5.3 -13.8 20.4 -15.5 23.1l-13.1 21.7c1 0 1.8 0.7 1.8 1.7c0 0.3 -0.1 0.6 -0.2 0.9l-12 20.2c-2.9 5 2.3 8.5 3 7.3c18.9 -30.4 29.9 -28 29.9 -28l6.3 -14.6c0.4 -0.6 0 -1.4 -0.8 -1.8c0.1 0 0 0 0 0l0 0z"></path><path fill="#000000" d="m329.5 456.7c0.9 -1.4 2.5 -5.1 -0.4 -12l-8.6 -23.2c-1.2 -3 1.4 -4.8 3.1 -2.8c0 0 16.3 18.8 20.6 26.7l8.1 13.4c6.9 0.4 26.1 1 44.5 1c-1.9 -1.8 -3.6 -3.8 -5.1 -5.9c-31.4 -38.9 -51.4 -60.6 -51.6 -60.8c-6.4 -6.9 -9.3 -8.3 -14.2 -10.5c-0.7 -0.3 -1.5 -0.7 -2.3 -1l0 5.9c0 0.4 -0.2 0.8 -0.6 0.8c-0.3 0 -0.6 -0.1 -0.8 -0.4l-46.2 -81.4l-0.1 -0.3c-1.9 -3.8 -4.8 -7.1 -8.3 -9.6l-4.5 -3.2l-22 50.8c2.6 0 4.8 2.1 4.8 4.8c0 0.7 -0.1 1.3 -0.4 1.9l-20.5 47.2l18.7 0c7.2 0 14.4 1.4 21.1 4.1l4.9 2c0 0 -14.9 30.6 -14.9 46.7c0 2.9 0.4 5.8 1.2 8.7l34.3 0l-1.6 -9.7c13.5 3.1 27.1 5.3 40.8 6.8l0 0l0 0z"></path><polygon points="101.5,459.8 416,459.6 280.1,268.3 241.5,274.1 116,427.6" fill="#bee4fa" style="animation-name: eaf-d6f7-7;"></polygon><g transform="matrix(1.5363 0 0 1.5363 -56.0991 -184.3868)" opacity="0" style="animation-name: eaf-d6f7-8;"><polygon points="116,354.6 103.3,350.4 95.5,361.2 95.5,347.9 82.9,343.8 95.5,339.7 95.5,326.4 103.3,337.1 116,333 108.2,343.8" fill="#000000" stroke="#ffffff" stroke-width="2.2844" stroke-miterlimit="10" transform="translate(-0.6141 0)"></polygon><polygon points="113,398.1 108.9,410.8 104.8,398.1 91.5,398.1 102.2,390.3 98.1,377.6 108.9,385.5 119.7,377.6 115.6,390.3 126.3,398.1" fill="#000000" stroke="#ffffff" stroke-width="2.2844" stroke-miterlimit="10" transform="translate(1.6883 -8.5448)"></polygon><polygon points="115.6,297.3 119.7,310 108.9,302.1 98.1,310 102.2,297.3 91.5,289.5 104.8,289.5 108.9,276.8 113,289.5 126.3,289.5" fill="#000000" stroke="#ffffff" stroke-width="2.2844" stroke-miterlimit="10" transform="translate(9.8455 15.3377)"></polygon></g><g opacity="0" style="animation-name: eaf-d6f7-9;"><polygon points="401.4,333 414.1,337.1 421.9,326.4 421.9,339.7 434.6,343.8 421.9,347.9 421.9,361.2 414.1,350.4 401.4,354.6 409.3,343.8" fill="#000000" stroke="#ffffff" stroke-width="2.2844" stroke-miterlimit="10" transform="matrix(1.54 0 0 1.54 -225.72 -185.652)"></polygon><polygon points="412.7,398.1 408.5,410.8 404.4,398.1 391.1,398.1 401.9,390.3 397.8,377.6 408.5,385.5 419.3,377.6 415.2,390.3 426,398.1" fill="#000000" stroke="#ffffff" stroke-width="2.2844" stroke-miterlimit="10" transform="matrix(1.54 0 0 1.54 -227.117 -192.9734)"></polygon></g><polygon points="404.4,289.5 408.5,276.8 412.7,289.5 426,289.5 415.2,297.3 419.3,310 408.6,302.1 397.8,310 401.9,297.3 391.1,289.5" fill="#000000" stroke="#ffffff" stroke-width="2.2844" stroke-miterlimit="10" transform="matrix(3.0008 -3.218 3.218 3.0008 -2031.1022 987.4117)" style="animation-name: eaf-d6f7-10, eaf-d6f7-11, eaf-d6f7-12, eaf-d6f7-13, eaf-d6f7-14; animation-composition: replace, add, add, add, add;"></polygon><path fill="#ffffff" d="m463.1 258.9l-28.4 0c12.4 25.7 19.4 54.5 19.4 84.9c0.1 41.7 -13.3 82.3 -38.1 115.8c-0.4 -0.2 -0.7 -0.3 -1 -0.5l0 3.4l48.1 0l0 -203.6z"></path><path fill="#ffffff" d="m101.5 459.8c-24.9 -33.5 -38.3 -74.2 -38.2 -116c0 -30.4 7 -59.2 19.4 -84.9l-28.4 0l0 203.6l47.4 0l0 -2.8c-0.1 0 -0.1 0 -0.2 0.1z"></path><rect fill="#ffffff" width="339.2" height="8.6" transform="matrix(0.9986 0 0 1.6125 95.7446 457.1661)"></rect></g><path fill="#222222" d="m499.52 250.6736l0 187.6001c0 28.8 -21.6 54.8 -50 60.3999c-4 0.8 -8.4 1.2 -12.8 1.2l-374.4 0c-30.4 0 -57.2 -23.6001 -61.2 -54c-0.4 -2.8 -0.4 -5.6001 -0.4 -8l0 -375.2c0 -28.8 21.6 -54.8 50 -60.3999c4 -0.8 8.4 -1.2 12.8 -1.2l374.4 0c28.8 0 54.8 21.6001 60.4 50c0.8 4 1.2 8.3999 1.2 12.8l0.0001 186.7998zm-398.687 -83.3396c-2.756 -23.7439 -23.002 -42.188 -47.488 -42.188c-26.394 0 -47.806 21.4121 -47.806 47.8059c0 17.9141 9.964 33.6021 24.592 41.7642l0 225.0378c0 8.7981 7.1021 15.9001 15.9 15.9001l419.23 0c8.798 0 15.9 -7.1021 15.9 -15.9001l0 -272.4199l-380.328 0z"></path><g transform="matrix(1.056 0.0924 -0.0924 1.056 0.5662 -40.92)" style="animation-name: eaf-d6f7-16, eaf-d6f7-17, eaf-d6f7-18, eaf-d6f7-19; animation-composition: replace, add, add, add;"><path fill="#ffffff" d="m452.2 40.2c-2 -8.1 -10.2 -12.9 -18.3 -10.9l-383.4 97.4c-8 2 -12.9 10.2 -10.9 18.3l5.2 20.5l1.7 6.6c-0.1 0.1 -0.2 0.1 -0.2 0.2l6.2 29l61.3 -16.3l352.4 -89.5l-14 -55.3z"></path><g><polygon points="153.7,160.5 99.6,174.2 116.1,123.8 170.2,110.1" fill="#000000"></polygon><polygon points="287.3,126.5 233.2,140.3 249.7,89.9 303.7,76.2" fill="#000000"></polygon><polygon points="420.8,92.6 366.8,106.4 383.2,56 437.3,42.2" fill="#000000"></polygon></g></g><path fill="#bcbcbc" d="m66.1 224.6c-12.6 0 -22.9 -10.3 -22.9 -22.9c0 -12.6 10.3 -22.9 22.9 -22.9c12.6 0 22.9 10.3 22.9 22.9c0.1 12.6 -10.2 22.9 -22.9 22.9z" transform="matrix(1.06 0 0 1.06 -15.966 -41.102)"></path></g></g></svg>