<svg xmlns="http://www.w3.org/2000/svg" viewBox="0 0 769 769" overflow="hidden" preserveAspectRatio="xMidYMid meet" id="eaf-2e4f-0">

<defs><clipPath id="eaf-2e4f-1"><rect x="0" y="0" width="769" height="769"></rect></clipPath><style>#eaf-2e4f-0 * {animation: 5000ms linear infinite normal both running;offset-rotate:0deg}@keyframes eaf-2e4f-2{0%,100%{transform:translate(384.55px,686.1px)}}@keyframes eaf-2e4f-3{0%{transform:rotate(0)}20%{transform:rotate(0);animation-timing-function:ease-in-out}21.34%{transform:rotate(2deg);animation-timing-function:ease-in-out}22.66%{transform:rotate(-1deg);animation-timing-function:ease-in-out}24%{transform:rotate(2deg);animation-timing-function:ease-in-out}25.32%{transform:rotate(-1deg);animation-timing-function:ease-in-out}26.66%{transform:rotate(2deg);animation-timing-function:ease-in-out}27.98%{transform:rotate(-1deg);animation-timing-function:ease-in-out}29.32%{transform:rotate(2deg);animation-timing-function:ease-in-out}30.64%{transform:rotate(-1deg);animation-timing-function:ease-in-out}31.98%{transform:rotate(3deg);animation-timing-function:ease-in-out}32%{transform:rotate(0)}57.34%{transform:rotate(0);animation-timing-function:ease-in-out}58.68%{transform:rotate(2deg);animation-timing-function:ease-in-out}60%{transform:rotate(-1deg);animation-timing-function:ease-in-out}61.34%{transform:rotate(2deg);animation-timing-function:ease-in-out}62.66%{transform:rotate(-1deg);animation-timing-function:ease-in-out}64%{transform:rotate(2deg);animation-timing-function:ease-in-out}65.32%{transform:rotate(-1deg);animation-timing-function:ease-in-out}66.66%{transform:rotate(2deg);animation-timing-function:ease-in-out}67.98%{transform:rotate(-1deg);animation-timing-function:ease-in-out}69.32%{transform:rotate(3deg);animation-timing-function:ease-in-out}69.34%{transform:rotate(0)}80.66%{transform:rotate(0);animation-timing-function:ease-in-out}82%{transform:rotate(2deg);animation-timing-function:ease-in-out}83.32%{transform:rotate(-1deg);animation-timing-function:ease-in-out}84.66%{transform:rotate(2deg);animation-timing-function:ease-in-out}85.98%{transform:rotate(-1deg);animation-timing-function:ease-in-out}87.32%{transform:rotate(2deg);animation-timing-function:ease-in-out}88.64%{transform:rotate(-1deg);animation-timing-function:ease-in-out}89.98%{transform:rotate(2deg);animation-timing-function:ease-in-out}91.3%{transform:rotate(-1deg);animation-timing-function:ease-in-out}92.64%{transform:rotate(3deg);animation-timing-function:ease-in-out}92.66%,100%{transform:rotate(0)}}@keyframes eaf-2e4f-4{0%,100%{transform:translate(-384.55px,-686.1px)}}</style></defs><g clip-path="url('#eaf-2e4f-1')" style="isolation: isolate;"><g><path fill="#222222" d="m768.1 385.5c0 96.2 0 192.5 0 288.8c0 44.1 -33.3 84.4 -76.7 92.7c-6.4 1.2 -13.1 1.9 -19.6 1.9c-191.9 0.1 -383.8 0.1 -575.7 0.1c-47 0 -88.1 -36.1 -94.2 -82.9c-0.6 -4.1 -0.9 -8.3 -0.9 -12.5c0 -192.4 0 -384.7 0 -577c0 -44.1 33.3 -84.5 76.7 -92.7c6.4 -1.3 13 -1.9 19.6 -1.9c192 -0.1 384.1 -0.1 576.1 -0.1c44.1 0 84.5 33.3 92.7 76.7c1.2 6.4 1.9 13.1 1.9 19.6c0.1 95.8 0.1 191.6 0.1 287.3z"></path><g style="animation-name: eaf-2e4f-2, eaf-2e4f-3, eaf-2e4f-4; animation-composition: replace, add, add;"><path fill="#000000" stroke="#ffffff" stroke-width="23.2892" stroke-miterlimit="10" d="m738.7 473.7c-6.9 -60.5 -20.8 -119.5 -38 -177.6c-11.6 -39.3 -25.1 -77.8 -48.1 -111.8c-32.2 -47.7 -76.2 -69.8 -132.6 -62.5c-14.4 1.9 -28.5 6.5 -42.6 10.5c-44.1 12.8 -88.9 18.1 -134.3 10.6c-25.4 -4.2 -50.4 -10.9 -75.4 -17.4c-45.9 -12 -87.7 -4.3 -124.6 26.8c-21.9 18.5 -36.2 43.1 -48.2 69.1c-19.3 41.9 -31.5 86.3 -42.5 131.1c-14.7 59.8 -26 120.2 -26.4 182.3c0 7.5 -0.4 14.9 0.1 22.3c1.4 22.6 3.9 45 14.1 65.5c10.9 21.8 29.7 30.5 52.7 24.6c17.5 -4.5 32.4 -14.6 44.8 -27.6c19.8 -20.8 38.5 -54.5 57.1 -76.3c13.9 -16.3 30.4 -27.7 51 -31.5c13.9 -2.6 28 -5 42 -5.1c65.5 -0.5 131.1 -0.4 196.6 -0.2c40.9 0.1 74.8 14.5 100 50c13.5 18.9 30.4 47.2 46.6 63.8c11.4 11.7 24.8 20.7 40.4 25.9c22.8 7.6 43.2 0.5 54.4 -20c4.3 -7.8 7.6 -16.4 9.8 -25.1c10.6 -42.3 7.9 -84.9 3.1 -127.4z"></path><path fill="#5760ff" stroke="#ffffff" stroke-width="12" stroke-miterlimit="10" d="m468.1 361.8c-21.4 0.1 -38.1 -16.5 -38.1 -37.9c0 -21 16.4 -37.8 37.1 -38c21.2 -0.2 38.7 16.6 38.9 37.5c0.2 21 -16.8 38.3 -37.9 38.4z"></path><path fill="#0f0" stroke="#ffffff" stroke-width="12" stroke-miterlimit="10" d="m538.8 438.5c-20.9 -0.2 -37.6 -17.7 -37.4 -39.1c0.2 -20.8 17.1 -37.7 37.8 -37.7c21 0 38 17.3 37.9 38.5c-0.0001 21.2 -17.5001 38.6 -38.3 38.3z"></path><path fill="#fce300" stroke="#ffffff" stroke-width="12" stroke-miterlimit="10" d="m539.1 285.8c-21 -0.1 -37.8 -17.3 -37.6 -38.7c0.1 -20.9 16.7 -37.6 37.5 -37.7c21.2 -0.1 38.2 16.8 38.2 38.1c0 21.2 -17.1 38.4 -38.1 38.3z"></path><path fill="#f00" stroke="#ffffff" stroke-width="12" stroke-miterlimit="10" d="m614.5 361.8c-20.8 -0.3 -37.3 -17 -37.4 -37.8c0 -21 17.1 -38.2 38.1 -38.2c21.2 0 37.8 17 37.6 38.4c0.0001 21.6 -16.7 37.9 -38.2999 37.6z"></path><polygon points="115,296.5 175.7,296.5 175.7,238.9 233.3,238.9 233.3,296.5 297,296.5 297,349.6 240.3,349.6 240.3,408.7 175.7,408.7 174.1,349.6 115,351.1" fill="#000000" stroke="#ffffff" stroke-width="16" stroke-miterlimit="10"></polygon></g></g></g>

</svg>


