<svg xmlns="http://www.w3.org/2000/svg" viewBox="0 0 500 500" overflow="hidden" preserveAspectRatio="xMidYMid meet" id="eaf-8d62-0"><defs><clipPath id="eaf-8d62-1"><rect x="0" y="0" width="500" height="500"></rect></clipPath><style>#eaf-8d62-0 * {animation: 60000ms linear infinite normal both running;offset-rotate:0deg}@keyframes eaf-8d62-2{0%,100%{transform:translate(365.15px,245.2px)}}@keyframes eaf-8d62-3{0%{transform:scale(1,0)}0.17%{transform:scale(1,1)}1.67%{transform:scale(1,1)}1.83%{transform:scale(1,0)}16.67%{transform:scale(1,0)}16.83%{transform:scale(1,1)}18.33%{transform:scale(1,1)}18.5%{transform:scale(1,0)}33.33%{transform:scale(1,0)}33.5%{transform:scale(1,1)}35%{transform:scale(1,1)}35.17%{transform:scale(1,0)}50%{transform:scale(1,0)}50.17%{transform:scale(1,1)}51.67%{transform:scale(1,1)}51.83%{transform:scale(1,0)}66.67%{transform:scale(1,0)}66.83%{transform:scale(1,1)}68.33%{transform:scale(1,1)}68.5%{transform:scale(1,0)}83.33%{transform:scale(1,0)}83.5%{transform:scale(1,1)}85%{transform:scale(1,1)}85.17%{transform:scale(1,0)}100%{transform:scale(1,0)}}@keyframes eaf-8d62-4{0%,100%{transform:translate(-365.15px,-245.2px)}}@keyframes eaf-8d62-5{0%,100%{transform:translate(346.75px,245.6px)}}@keyframes eaf-8d62-6{0%{transform:scale(1,0)}1.67%{transform:scale(1,0)}1.83%{transform:scale(1,1)}3.33%{transform:scale(1,1)}3.5%{transform:scale(1,0)}18.33%{transform:scale(1,0)}18.5%{transform:scale(1,1)}20%{transform:scale(1,1)}20.17%{transform:scale(1,0)}35%{transform:scale(1,0)}35.17%{transform:scale(1,1)}36.67%{transform:scale(1,1)}36.83%{transform:scale(1,0)}51.67%{transform:scale(1,0)}51.83%{transform:scale(1,1)}53.33%{transform:scale(1,1)}53.5%{transform:scale(1,0)}68.33%{transform:scale(1,0)}68.5%{transform:scale(1,1)}70%{transform:scale(1,1)}70.17%{transform:scale(1,0)}85%{transform:scale(1,0)}85.17%{transform:scale(1,1)}86.67%{transform:scale(1,1)}86.83%,100%{transform:scale(1,0)}}@keyframes eaf-8d62-7{0%,100%{transform:translate(-346.75px,-245.6px)}}@keyframes eaf-8d62-8{0%,100%{transform:translate(368px,243.5px)}}@keyframes eaf-8d62-9{0%{transform:scale(1,0)}3.33%{transform:scale(1,0)}3.5%{transform:scale(1,1)}5%{transform:scale(1,1)}5.17%{transform:scale(1,0)}20%{transform:scale(1,0)}20.17%{transform:scale(1,1)}21.67%{transform:scale(1,1)}21.83%{transform:scale(1,0)}36.67%{transform:scale(1,0)}36.83%{transform:scale(1,1)}38.33%{transform:scale(1,1)}38.5%{transform:scale(1,0)}53.33%{transform:scale(1,0)}53.5%{transform:scale(1,1)}55%{transform:scale(1,1)}55.17%{transform:scale(1,0)}70%{transform:scale(1,0)}70.17%{transform:scale(1,1)}71.67%{transform:scale(1,1)}71.83%{transform:scale(1,0)}86.67%{transform:scale(1,0)}86.83%{transform:scale(1,1)}88.33%{transform:scale(1,1)}88.5%,100%{transform:scale(1,0)}}@keyframes eaf-8d62-10{0%,100%{transform:translate(-368px,-243.5px)}}@keyframes eaf-8d62-11{0%,100%{transform:translate(365.7px,245.85px)}}@keyframes eaf-8d62-12{0%{transform:scale(1,0)}5%{transform:scale(1,0)}5.17%{transform:scale(1,1)}6.67%{transform:scale(1,1)}6.83%{transform:scale(1,0)}21.67%{transform:scale(1,0)}21.83%{transform:scale(1,1)}23.33%{transform:scale(1,1)}23.5%{transform:scale(1,0)}38.33%{transform:scale(1,0)}38.5%{transform:scale(1,1)}40%{transform:scale(1,1)}40.17%{transform:scale(1,0)}55%{transform:scale(1,0)}55.17%{transform:scale(1,1)}56.67%{transform:scale(1,1)}56.83%{transform:scale(1,0)}71.67%{transform:scale(1,0)}71.83%{transform:scale(1,1)}73.33%{transform:scale(1,1)}73.5%{transform:scale(1,0)}88.33%{transform:scale(1,0)}88.5%{transform:scale(1,1)}90%{transform:scale(1,1)}90.17%,100%{transform:scale(1,0)}}@keyframes eaf-8d62-13{0%,100%{transform:translate(-365.7px,-245.85px)}}@keyframes eaf-8d62-14{0%,100%{transform:translate(364.4px,244.75px)}}@keyframes eaf-8d62-15{0%{transform:scale(1,0)}6.67%{transform:scale(1,0)}6.83%{transform:scale(1,1)}8.33%{transform:scale(1,1)}8.5%{transform:scale(1,0)}23.33%{transform:scale(1,0)}23.5%{transform:scale(1,1)}25%{transform:scale(1,1)}25.17%{transform:scale(1,0)}40%{transform:scale(1,0)}40.17%{transform:scale(1,1)}41.67%{transform:scale(1,1)}41.83%{transform:scale(1,0)}56.67%{transform:scale(1,0)}56.83%{transform:scale(1,1)}58.33%{transform:scale(1,1)}58.5%{transform:scale(1,0)}73.33%{transform:scale(1,0)}73.5%{transform:scale(1,1)}75%{transform:scale(1,1)}75.17%{transform:scale(1,0)}90%{transform:scale(1,0)}90.17%{transform:scale(1,1)}91.67%{transform:scale(1,1)}91.83%,100%{transform:scale(1,0)}}@keyframes eaf-8d62-16{0%,100%{transform:translate(-364.4px,-244.75px)}}@keyframes eaf-8d62-17{0%,100%{transform:translate(367.6px,246.9px)}}@keyframes eaf-8d62-18{0%{transform:scale(1,0)}8.33%{transform:scale(1,0)}8.5%{transform:scale(1,1)}10%{transform:scale(1,1)}10.17%{transform:scale(1,0)}25%{transform:scale(1,0)}25.17%{transform:scale(1,1)}26.67%{transform:scale(1,1)}26.83%{transform:scale(1,0)}41.67%{transform:scale(1,0)}41.83%{transform:scale(1,1)}43.33%{transform:scale(1,1)}43.5%{transform:scale(1,0)}58.33%{transform:scale(1,0)}58.5%{transform:scale(1,1)}60%{transform:scale(1,1)}60.17%{transform:scale(1,0)}75%{transform:scale(1,0)}75.17%{transform:scale(1,1)}76.67%{transform:scale(1,1)}76.83%{transform:scale(1,0)}91.67%{transform:scale(1,0)}91.83%{transform:scale(1,1)}93.33%{transform:scale(1,1)}93.5%,100%{transform:scale(1,0)}}@keyframes eaf-8d62-19{0%,100%{transform:translate(-367.6px,-246.9px)}}@keyframes eaf-8d62-20{0%,100%{transform:translate(366.7px,245.45px)}}@keyframes eaf-8d62-21{0%{transform:scale(1,0)}10%{transform:scale(1,0)}10.17%{transform:scale(1,1)}11.67%{transform:scale(1,1)}11.83%{transform:scale(1,0)}26.67%{transform:scale(1,0)}26.83%{transform:scale(1,1)}28.33%{transform:scale(1,1)}28.5%{transform:scale(1,0)}43.33%{transform:scale(1,0)}43.5%{transform:scale(1,1)}45%{transform:scale(1,1)}45.17%{transform:scale(1,0)}60%{transform:scale(1,0)}60.17%{transform:scale(1,1)}61.67%{transform:scale(1,1)}61.83%{transform:scale(1,0)}76.67%{transform:scale(1,0)}76.83%{transform:scale(1,1)}78.33%{transform:scale(1,1)}78.5%{transform:scale(1,0)}93.33%{transform:scale(1,0)}93.5%{transform:scale(1,1)}95%{transform:scale(1,1)}95.17%,100%{transform:scale(1,0)}}@keyframes eaf-8d62-22{0%,100%{transform:translate(-366.7px,-245.45px)}}@keyframes eaf-8d62-23{0%,100%{transform:translate(373.2px,247.25px)}}@keyframes eaf-8d62-24{0%{transform:scale(1,0)}11.67%{transform:scale(1,0)}11.83%{transform:scale(1,1)}13.33%{transform:scale(1,1)}13.5%{transform:scale(1,0)}28.33%{transform:scale(1,0)}28.5%{transform:scale(1,1)}30%{transform:scale(1,1)}30.17%{transform:scale(1,0)}45%{transform:scale(1,0)}45.17%{transform:scale(1,1)}46.67%{transform:scale(1,1)}46.83%{transform:scale(1,0)}61.67%{transform:scale(1,0)}61.83%{transform:scale(1,1)}63.33%{transform:scale(1,1)}63.5%{transform:scale(1,0)}78.33%{transform:scale(1,0)}78.5%{transform:scale(1,1)}80%{transform:scale(1,1)}80.17%{transform:scale(1,0)}95%{transform:scale(1,0)}95.17%{transform:scale(1,1)}96.67%{transform:scale(1,1)}96.83%,100%{transform:scale(1,0)}}@keyframes eaf-8d62-25{0%,100%{transform:translate(-373.2px,-247.25px)}}@keyframes eaf-8d62-26{0%{transform:scale(1,0)}13.33%{transform:scale(1,0)}13.5%{transform:scale(1,1)}15%{transform:scale(1,1)}15.17%{transform:scale(1,0)}30%{transform:scale(1,0)}30.17%{transform:scale(1,1)}31.67%{transform:scale(1,1)}31.83%{transform:scale(1,0)}46.67%{transform:scale(1,0)}46.83%{transform:scale(1,1)}48.33%{transform:scale(1,1)}48.5%{transform:scale(1,0)}63.33%{transform:scale(1,0)}63.5%{transform:scale(1,1)}65%{transform:scale(1,1)}65.17%{transform:scale(1,0)}80%{transform:scale(1,0)}80.17%{transform:scale(1,1)}81.67%{transform:scale(1,1)}81.83%{transform:scale(1,0)}96.67%{transform:scale(1,0)}96.83%{transform:scale(1,1)}98.33%{transform:scale(1,1)}98.5%,100%{transform:scale(1,0)}}@keyframes eaf-8d62-27{0%,100%{transform:translate(362.35px,245.45px)}}@keyframes eaf-8d62-28{0%{transform:scale(1,0)}15%{transform:scale(1,0)}15.17%{transform:scale(1,1)}16.67%{transform:scale(1,1)}16.83%{transform:scale(1,0)}31.67%{transform:scale(1,0)}31.83%{transform:scale(1,1)}33.33%{transform:scale(1,1)}33.5%{transform:scale(1,0)}48.33%{transform:scale(1,0)}48.5%{transform:scale(1,1)}50%{transform:scale(1,1)}50.17%{transform:scale(1,0)}65%{transform:scale(1,0)}65.17%{transform:scale(1,1)}66.67%{transform:scale(1,1)}66.83%{transform:scale(1,0)}81.67%{transform:scale(1,0)}81.83%{transform:scale(1,1)}83.33%{transform:scale(1,1)}83.5%{transform:scale(1,0)}98.33%{transform:scale(1,0)}98.5%{transform:scale(1,1)}100%{transform:scale(1,1)}}@keyframes eaf-8d62-29{0%,100%{transform:translate(-362.35px,-245.45px)}}@keyframes eaf-8d62-30{0%,100%{transform:translate(135.35px,245.2px)}}@keyframes eaf-8d62-31{0%{transform:scale(1,0)}0.17%{transform:scale(1,1)}16.67%{transform:scale(1,1)}16.83%,100%{transform:scale(1,0)}}@keyframes eaf-8d62-32{0%,100%{transform:translate(-135.35px,-245.2px)}}@keyframes eaf-8d62-33{0%,100%{transform:translate(116.95px,245.6px)}}@keyframes eaf-8d62-34{0%{transform:scale(1,0)}16.67%{transform:scale(1,0)}16.83%{transform:scale(1,1)}33.33%{transform:scale(1,1)}33.5%,100%{transform:scale(1,0)}}@keyframes eaf-8d62-35{0%,100%{transform:translate(-116.95px,-245.6px)}}@keyframes eaf-8d62-36{0%,100%{transform:translate(138.2px,243.5px)}}@keyframes eaf-8d62-37{0%{transform:scale(1,0)}33.33%{transform:scale(1,0)}33.5%{transform:scale(1,1)}50%{transform:scale(1,1)}50.17%,100%{transform:scale(1,0)}}@keyframes eaf-8d62-38{0%,100%{transform:translate(-138.2px,-243.5px)}}@keyframes eaf-8d62-39{0%,100%{transform:translate(136px,245.85px)}}@keyframes eaf-8d62-40{0%{transform:scale(1,0)}50%{transform:scale(1,0)}50.17%{transform:scale(1,1)}66.67%{transform:scale(1,1)}66.83%,100%{transform:scale(1,0)}}@keyframes eaf-8d62-41{0%,100%{transform:translate(-136px,-245.85px)}}@keyframes eaf-8d62-42{0%,100%{transform:translate(134.6px,244.75px)}}@keyframes eaf-8d62-43{0%{transform:scale(1,0)}66.67%{transform:scale(1,0)}66.83%{transform:scale(1,1)}83.33%{transform:scale(1,1)}83.5%,100%{transform:scale(1,0)}}@keyframes eaf-8d62-44{0%,100%{transform:translate(-134.6px,-244.75px)}}@keyframes eaf-8d62-45{0%,100%{transform:translate(137.8px,246.9px)}}@keyframes eaf-8d62-46{0%{transform:scale(1,0)}83.33%{transform:scale(1,0)}83.5%{transform:scale(1,1)}100%{transform:scale(1,1)}}@keyframes eaf-8d62-47{0%,100%{transform:translate(-137.8px,-246.9px)}}</style></defs><g clip-path="url('#eaf-8d62-1')" style="isolation: isolate;"><g><g transform="matrix(4 0 0 4 -827.28 -2254.5264)"><path fill="#444444" d="m331.7 626.4c0 15.6 0 31.3 0 46.9c0 7.2 -5.4 13.7 -12.5 15.1c-1 0.2 -2.1 0.3 -3.2 0.3c-31.2 0 -62.4 0 -93.6 0c-7.6 0 -14.3 -5.9 -15.3 -13.5c-0.1 -0.7 -0.1 -1.4 -0.1 -2c0 -31.3 0 -62.5 0 -93.8c0 -7.2 5.4 -13.7 12.5 -15.1c1 -0.2 2.1 -0.3 3.2 -0.3c31.2 0 62.4 0 93.6 0c7.2 0 13.7 5.4 15.1 12.5c0.2 1 0.3 2.1 0.3 3.2c0 15.5999 0 31.0999 0 46.7z"></path></g><g style="filter: drop-shadow(rgba(0, 0, 0, 0.42) 6px 6px 5px);"><path fill="#ffffff" d="m229.3 424.7l-187.6 0c-6.6 0 -12 -5.4 -12 -12l0 -310.7c0 -6.6 5.4 -12 12 -12l187.5 0c6.6 0 12 5.4 12 12l0 310.7c0.1 6.6 -5.3 12 -11.9 12z" transform="translate(-0.7199 -8.4739)"></path></g><g style="filter: drop-shadow(rgba(0, 0, 0, 0.42) 6px 6px 5px);"><path fill="#ffffff" d="m459 424.7l-187.5 0c-6.6 0 -12 -5.4 -12 -12l0 -310.7c0 -6.6 5.4 -12 12 -12l187.5 0c6.6 0 12 5.4 12 12l0 310.7c0 6.6 -5.4 12 -12 12z" transform="translate(-0.7199 -8.4739)"></path></g><g style="filter: drop-shadow(rgba(0, 0, 0, 0.42) 6px 6px 5px);"><g transform="translate(-0.7199 -8.4739)"><path fill="#000000" d="m445.2 246.5c0 17.1 -1 31.8 -3.1 44.1c-2.1 12.3 -5.9 23.4 -11.6 33.4c-7.1 12.3 -16.2 21.8 -27.5 28.4c-11.3 6.6 -23.8 10 -37.5 10c-15.8 0 -30 -4.5 -42.6 -13.4c-12.6 -9 -22 -21.4 -28.4 -37.2c-3.2 -8.6 -5.6 -18.2 -7.1 -28.7c-1.5 -10.5 -2.3 -21.8 -2.3 -34c0 -15.7 0.8 -29.9 2.5 -42.5c1.7 -12.6 4.3 -23.4 7.8 -32.5c6.1 -15 15.1 -26.4 26.8 -34.3c11.8 -7.8 25.8 -11.8 42.1 -11.8c10.7 0 20.5 1.7 29.2 5.2c8.8 3.5 16.4 8.6 23 15.3c6.6 6.7 12.2 15 16.8 24.9c7.9 17.3 11.9 41.6 11.9 73.1zm-42.8 -3.2c0 -19.1 -1.1 -34.7 -3.4 -46.8c-2.3 -12.1 -6.1 -21.3 -11.6 -27.5c-5.4 -6.2 -12.9 -9.3 -22.5 -9.3c-13.8 0 -23.3 6.9 -28.7 20.8c-5.4 13.9 -8 35.2 -8 64.1c0 19.6 1.1 35.6 3.4 48.1c2.3 12.5 6.1 22 11.6 28.4c5.4 6.4 12.8 9.6 22 9.6c9.6 0 17.1 -3.3 22.5 -10c5.4 -6.7 9.2 -16.2 11.4 -28.6c2.2 -12.4 3.3 -28.7 3.3 -48.8z" transform="matrix(1 0 0 0 0 245.2)" style="animation-name: eaf-8d62-2, eaf-8d62-3, eaf-8d62-4; animation-composition: replace, add, add;"></path><path fill="#000000" d="m360.5 337.4l0 -142.2c-26.5 20.3 -44.3 30.5 -53.4 30.5c-4.4 0 -8.3 -1.7 -11.6 -5.2c-3.4 -3.5 -5.1 -7.5 -5.1 -12.1c0 -5.3 1.7 -9.2 5 -11.7c3.3 -2.5 9.2 -5.7 17.7 -9.7c12.6 -5.9 22.7 -12.2 30.2 -18.8c7.6 -6.6 14.2 -13.9 20.1 -22c5.8 -8.1 9.6 -13.1 11.4 -15c1.8 -1.9 5.1 -2.8 10 -2.8c5.5 0 9.9 2.1 13.3 6.4c3.3 4.3 5 10.2 5 17.7l0 178.9c0 20.9 -7.1 31.4 -21.4 31.4c-6.4 0 -11.5 -2.1 -15.3 -6.4c-4 -4.4 -5.9 -10.7 -5.9 -19z" transform="matrix(1 0 0 0 0 245.6)" style="animation-name: eaf-8d62-5, eaf-8d62-6, eaf-8d62-7; animation-composition: replace, add, add;"></path><path fill="#000000" d="m341.6 321.9l81.6 0c8.1 0 14.3 1.7 18.6 5c4.3 3.3 6.4 7.9 6.4 13.6c0 5.1 -1.7 9.4 -5.1 13c-3.4 3.5 -8.5 5.3 -15.4 5.3l-115 0c-7.8 0 -13.9 -2.2 -18.3 -6.5c-4.4 -4.3 -6.6 -9.4 -6.6 -15.2c0 -3.8 1.4 -8.7 4.2 -14.9c2.8 -6.2 5.9 -11.1 9.2 -14.6c13.9 -14.4 26.4 -26.7 37.5 -37c11.1 -10.3 19.1 -17 23.9 -20.2c8.5 -6 15.6 -12.1 21.3 -18.2c5.7 -6.1 10 -12.3 13 -18.8c3 -6.5 4.5 -12.7 4.5 -18.8c0 -6.7 -1.6 -12.6 -4.8 -17.9c-3.2 -5.3 -7.5 -9.3 -13 -12.3c-5.5 -2.9 -11.4 -4.4 -17.9 -4.4c-13.6 0 -24.4 6 -32.2 18c-1 1.6 -2.8 5.8 -5.2 12.8c-2.4 7 -5.2 12.3 -8.3 16.1c-3.1 3.8 -7.6 5.6 -13.5 5.6c-5.2 0 -9.5 -1.7 -13 -5.2c-3.5 -3.5 -5.2 -8.1 -5.2 -14.1c0 -7.2 1.6 -14.7 4.8 -22.5c3.2 -7.8 8 -14.9 14.5 -21.2c6.4 -6.4 14.5 -11.5 24.4 -15.4c9.9 -3.9 21.4 -5.9 34.6 -5.9c15.9 0 29.5 2.5 40.8 7.5c7.3 3.3 13.7 7.9 19.2 13.8c5.5 5.8 9.8 12.6 12.9 20.2c3.1 7.7 4.6 15.6 4.6 23.8c0 12.9 -3.2 24.7 -9.6 35.2c-6.4 10.6 -12.9 18.9 -19.6 24.8c-6.7 6 -17.8 15.4 -33.5 28.2c-15.7 12.8 -26.4 22.8 -32.3 29.8c-2.3 3.1 -4.9 6.5 -7.5 10.4z" transform="matrix(1 0 0 0 0 243.5)" style="animation-name: eaf-8d62-8, eaf-8d62-9, eaf-8d62-10; animation-composition: replace, add, add;"></path><path fill="#000000" d="m357.8 220.5c9.6 0 17.8 -2.8 24.8 -8.4c6.9 -5.6 10.4 -13.7 10.4 -24.2c0 -8 -2.8 -14.9 -8.3 -20.7c-5.5 -5.8 -13 -8.7 -22.3 -8.7c-6.4 0 -11.6 0.9 -15.7 2.7c-4.1 1.8 -7.4 4.1 -9.8 7c-2.4 2.9 -4.7 6.7 -6.8 11.2c-2.1 4.6 -4.1 8.9 -5.9 13c-1 2.2 -2.9 3.9 -5.6 5.2c-2.7 1.2 -5.8 1.9 -9.4 1.9c-4.2 0 -8 -1.7 -11.5 -5.1c-3.5 -3.4 -5.2 -7.9 -5.2 -13.5c0 -5.4 1.6 -11.1 4.9 -17.1c3.3 -6 8.1 -11.7 14.4 -17.1c6.3 -5.4 14.1 -9.8 23.5 -13c9.4 -3.2 19.8 -4.9 31.4 -4.9c10.1 0 19.3 1.4 27.7 4.1c8.3 2.8 15.6 6.7 21.7 12c6.1 5.2 10.8 11.2 13.9 18.1c3.1 6.9 4.7 14.3 4.7 22.2c0 10.4 -2.3 19.4 -6.8 26.8c-4.5 7.4 -11 14.7 -19.5 21.8c8.1 4.4 15 9.4 20.5 15c5.6 5.6 9.8 11.9 12.6 18.7c2.8 6.8 4.2 14.2 4.2 22.1c0 9.5 -1.9 18.6 -5.7 27.5c-3.8 8.9 -9.4 16.7 -16.8 23.7c-7.4 6.9 -16.2 12.3 -26.3 16.2c-10.1 3.9 -21.4 5.9 -33.7 5.9c-12.5 0 -23.7 -2.2 -33.6 -6.7c-9.9 -4.5 -18 -10.1 -24.5 -16.8c-6.5 -6.7 -11.2 -13.7 -14.5 -20.9c-3.3 -7.2 -4.9 -13.1 -4.9 -17.8c0 -6 2 -10.9 5.9 -14.6c3.9 -3.7 8.8 -5.5 14.6 -5.5c2.9 0 5.7 0.9 8.4 2.6c2.7 1.7 4.5 3.8 5.3 6.2c5.4 14.5 11.2 25.2 17.4 32.3c6.2 7 14.9 10.5 26.2 10.5c6.5 0 12.7 -1.6 18.7 -4.8c6 -3.2 10.9 -7.9 14.8 -14.1c3.9 -6.2 5.9 -13.5 5.9 -21.7c0 -12.2 -3.3 -21.7 -10 -28.7c-6.7 -6.9 -15.9 -10.4 -27.8 -10.4c-2.1 0 -5.3 0.2 -9.7 0.6c-4.4 0.4 -7.2 0.6 -8.4 0.6c-5.7 0 -10.2 -1.4 -13.3 -4.3c-3.1 -2.9 -4.7 -6.8 -4.7 -12c0 -5 1.9 -9 5.6 -12.1c3.8 -3.1 9.3 -4.6 16.7 -4.6l6.4999 0l0 -0.2z" transform="matrix(1 0 0 0 0 245.85)" style="animation-name: eaf-8d62-11, eaf-8d62-12, eaf-8d62-13; animation-composition: replace, add, add;"></path><path fill="#000000" d="m382.2 339l0 -29.1l-78.4 0c-9.9 0 -17.3 -2.2 -22.3 -6.7c-4.9 -4.5 -7.4 -10.6 -7.4 -18.3c0 -2 0.4 -4 1.1 -6c0.7 -2 1.8 -4.2 3.3 -6.4c1.5 -2.2 3 -4.4 4.5 -6.5c1.6 -2.1 3.5 -4.6 5.8 -7.7l82.8 -110.8c5.4 -7.3 9.9 -12.6 13.4 -15.9c3.5 -3.3 7.7 -4.9 12.6 -4.9c15.8 0 23.8 9.1 23.8 27.2l0 120.9l6.7 0c8 0 14.5 1.1 19.3 3.3c4.8 2.2 7.3 7 7.3 14.4c0 6 -2 10.4 -5.9 13.2c-4 2.8 -9.9 4.1 -17.8 4.1l-9.5 0l0 29.2c0 8 -1.8 14 -5.3 17.9c-3.5 3.9 -8.3 5.9 -14.2 5.9c-5.8 0 -10.5 -2 -14.1 -6c-3.6 -4 -5.7 -10 -5.7 -17.8zm-67.2 -64.1l67.2 0l0 -90.8l-67.2 90.8z" transform="matrix(1 0 0 0 0 244.75)" style="animation-name: eaf-8d62-14, eaf-8d62-15, eaf-8d62-16; animation-composition: replace, add, add;"></path><path fill="#000000" d="m418.3 168.3l-74.2 0l-8.9 50.6c14.8 -7.9 28.4 -11.9 40.9 -11.9c10 0 19.3 1.9 28 5.6c8.7 3.8 16.3 8.9 22.9 15.5c6.6 6.6 11.7 14.5 15.5 23.5c3.8 9 5.6 18.8 5.6 29.2c0 15.1 -3.4 28.9 -10.2 41.2c-6.8 12.4 -16.5 22.2 -29.3 29.5c-12.8 7.3 -27.5 10.9 -44.1 10.9c-18.6 0 -33.8 -3.4 -45.4 -10.3c-11.6 -6.9 -19.8 -14.8 -24.7 -23.7c-4.9 -8.9 -7.3 -16.7 -7.3 -23.4c0 -4.1 1.7 -7.9 5.1 -11.6c3.4 -3.6 7.6 -5.5 12.7 -5.5c8.8 0 15.3 5.1 19.5 15.2c4.2 9.3 9.8 16.5 16.9 21.6c7.1 5.2 15 7.7 23.8 7.7c8 0 15.1 -2.1 21.1 -6.2c6 -4.2 10.7 -9.9 14 -17.2c3.3 -7.3 4.9 -15.6 4.9 -24.8c0 -10 -1.8 -18.5 -5.3 -25.6c-3.5 -7.1 -8.3 -12.4 -14.2 -15.9c-5.9 -3.5 -12.6 -5.2 -19.8 -5.2c-9 0 -15.4 1.1 -19.2 3.3c-3.9 2.2 -9.4 6 -16.6 11.5c-7.2 5.5 -13.2 8.2 -17.9 8.2c-5.1 0 -9.6 -1.8 -13.6 -5.5c-4 -3.7 -5.9 -7.9 -5.9 -12.6c0 -0.5 0.6 -4.1 1.7 -10.6l13.1 -74.8c1.5 -9 4.2 -15.5 8.1 -19.5c4 -4.1 10.4 -6.1 19.4 -6.1l82.5 0c16.2 0 24.4 6.2 24.4 18.6c0 5.4 -2 9.8 -5.9 13.1c-4 3.5999 -9.9 5.2 -17.6 5.2z" transform="matrix(1 0 0 0 0 246.9)" style="animation-name: eaf-8d62-17, eaf-8d62-18, eaf-8d62-19; animation-composition: replace, add, add;"></path><path fill="#000000" d="m328.2 234.9c7.1 -8.4 14.8 -14.7 23.1 -18.8c8.3 -4.1 17.7 -6.1 28 -6.1c9.9 0 19 1.9 27.4 5.5c8.4 3.7 15.7 9 22 15.8c6.3 6.8 11.2 14.9 14.6 24.1c3.4 9.3 5.2 19 5.2 29.1c0 14.7 -3.4 28 -10.1 40c-6.7 12 -16.1 21.3 -28.1 28c-12 6.7 -25.7 10.1 -40.9 10.1c-17.5 0 -32.6 -4.3 -45.3 -12.8c-12.7 -8.5 -22.4 -21.2 -29.1 -37.9c-6.7 -16.7 -10.1 -37.2 -10.1 -61.3c0 -19.7 2 -37.3 6.1 -52.8c4.1 -15.5 9.9 -28.4 17.5 -38.6c7.6 -10.2 16.8 -17.9 27.7 -23.1c10.8 -5.2 23.2 -7.8 37 -7.8c13.3 0 25.1 2.6 35.2 7.8c10.2 5.2 17.8 11.7 23 19.4c5.2 7.7 7.7 15.1 7.7 22.2c0 4.3 -1.6 8.2 -4.8 11.6c-3.2 3.5 -7.3 5.2 -12.3 5.2c-4.4 0 -8.4 -1.4 -12.2 -4.1c-3.8 -2.8 -6.5 -6.6 -8.3 -11.5c-2.4 -6.2 -6.2 -11.3 -11.4 -15.1c-5.2 -3.8 -11.2 -5.7 -18.1 -5.7c-5.5 0 -11 1.6 -16.5 4.8c-5.5 3.2 -10.1 7.5 -13.8 12.9c-7.7001 11.1 -12.2001 30.8 -13.5001 59.1zm42.1 97c10.5 0 19.2 -4.3 26.1 -12.9c6.9 -8.6 10.3 -19.9 10.3 -33.8c0 -9.5 -1.6 -17.6 -4.8 -24.5c-3.2 -6.8 -7.7 -12 -13.3 -15.6c-5.6 -3.6 -11.8 -5.4 -18.6 -5.4c-6.5 0 -12.6 1.7 -18.5 5.2c-5.9 3.4 -10.6 8.4 -14.2 14.9c-3.6 6.5 -5.4 14.1 -5.4 22.9c0 14.1 3.6 25.8 10.9 35.2c7.3 9.3 16.5 14 27.5 14z" transform="matrix(1 0 0 0 0 245.45)" style="animation-name: eaf-8d62-20, eaf-8d62-21, eaf-8d62-22; animation-composition: replace, add, add;"></path><path fill="#000000" d="m320 131.9l104.1 0c10 0 17.2 1.6 21.7 4.7c4.5 3.1 6.7 8.3 6.7 15.5c0 4.4 -2.6 10.2 -7.9 17.3c-5.3 7.2 -11.2 15.1 -18 23.8c-6.7 8.7 -13.6 19.5 -20.8 32.4c-7.1 12.9 -13.7 28.7 -19.6 47.3c-2.5 8.2 -4.3 15.1 -5.3 20.5c-1 5.4 -2.2 12.4 -3.4 21.1c-1.2 8.6 -2.3 15.3 -3.3 19.8c-2.2 10.6 -5.3 18 -9.3 22.1c-4 4.1 -9.4 6.2 -16 6.2c-6.4 0 -11.5 -2.2 -15.3 -6.6c-3.9 -4.4 -5.8 -11 -5.8 -19.6c0 -6.7 1.4 -15.7 4.2 -27.2c2.8 -11.5 7.4 -25.2 13.8 -41.2c6.4 -16 14.3 -32.4 23.8 -49.2c9.5 -16.8 20.9 -33.6 34 -50.2l-83.6001 0c-8.8 0 -15.3 -1.6 -19.6 -4.8c-4.3 -3.2 -6.5 -8.1 -6.5 -14.9c0 -7.2 2.3 -11.8 6.9 -13.9c4.6 -2 11 -3.1 19.2 -3.1z" transform="matrix(1 0 0 0 0 247.25)" style="animation-name: eaf-8d62-23, eaf-8d62-24, eaf-8d62-25; animation-composition: replace, add, add;"></path><path fill="#000000" d="m291.6 187.9c0 -10.4 2.8 -20.2 8.5 -29.5c5.7 -9.2 14 -16.6 25 -22.1c11 -5.5 23.8 -8.3 38.5 -8.3c12.4 0 23.3 1.6 32.7 4.8c9.4 3.2 17.2 7.7 23.4 13.4c6.2 5.7 10.9 12.1 13.9 19.2c3 7.1 4.5 14.7 4.5 22.7c0 10.2 -2.6 19.3 -7.9 27.3c-5.3 8 -13.1 14.6 -23.5 19.7c8.9 3.4 16.2 7.9 22 13.5c5.8 5.6 10.2 12 13.2 19.4c3 7.4 4.5 15.5 4.5 24.5c0 13.1 -3.2 25 -9.5 35.7c-6.4 10.7 -15.7 19 -28 25.1c-12.3 6 -26.8 9.1 -43.4 9.1c-17.3 0 -32.1 -3 -44.4 -9.1c-12.3 -6 -21.6 -14.3 -27.8 -24.9c-6.2 -10.6 -9.4 -22.4 -9.4 -35.5c0 -28 13.2 -47.2 39.7 -57.7c-21.3001 -10 -32.0001 -25.8 -32.0001 -47.3zm112 103.4c0 -8.1 -1.7 -15.2 -5 -21.2c-3.3 -6 -8 -10.7 -14.1 -13.9c-6 -3.2 -12.8 -4.8 -20.3 -4.8c-10.6 0 -19.5 3.5 -26.7 10.6c-7.2 7.1 -10.8 17 -10.8 29.7c0 8.1 1.7 15.3 5.1 21.5c3.4 6.2 8 11 13.8 14.4c5.8 3.4 12.3 5.1 19.5 5.1c7.3 0 13.9 -1.7 19.7 -5.2c5.8 -3.4 10.4 -8.3 13.8 -14.5c3.4 -6.4 5 -13.6 5 -21.7zm-39 -133.4c-9.8 0 -17.7 3 -23.7 9.1c-6 6.1 -9 13.9 -9 23.5c0 8.9 3.1 16.2 9.2 22.1c6.1 5.9 14.1 8.8 23.8 8.8c4.9 0 9.3 -0.8 13.4 -2.3c4 -1.6 7.4 -3.7 10.3 -6.5c2.9 -2.8 5.1 -6 6.6 -9.8c1.6 -3.8 2.3 -8 2.3 -12.6c0 -6.1 -1.4 -11.7 -4.1 -16.6c-2.8 -4.9 -6.6 -8.8 -11.6 -11.6c-5 -2.8 -10.8 -4.1 -17.2 -4.1z" transform="matrix(1 0 0 0 0 245.2)" style="animation-name: eaf-8d62-2, eaf-8d62-26, eaf-8d62-4; animation-composition: replace, add, add;"></path><path fill="#000000" d="m400.5 256.2c-6.9 8.1 -14.6 14.2 -23 18.4c-8.5 4.1 -17.9 6.2 -28.2 6.2c-9.8 0 -18.9 -1.9 -27.4 -5.7c-8.5 -3.8 -15.8 -9.1 -22 -15.9c-6.2 -6.8 -11 -14.8 -14.3 -23.9c-3.3 -9.1 -5 -18.7 -5 -28.7c0 -10.7 1.9 -20.9 5.6 -30.5c3.8 -9.6 9.1 -18 16.1 -25.1c7 -7.1 15.3 -12.6 24.9 -16.6c9.6 -4 20.3 -5.9 32 -5.9c13.4 0 25.4 2.4 35.9 7.3c10.5 4.9 19.4 12 26.6 21.3c7.2 9.3 12.7 21.1 16.6 35.2c3.9 14.2 5.8 30.2 5.8 48.1c0 20 -2 37.6 -6.1 52.9c-4.1 15.3 -10 28.1 -17.7 38.4c-7.8 10.4 -17.1 18.1 -27.9 23.1c-10.8 5.1 -23.1 7.6 -36.9 7.6c-13.5 0 -25.3 -2.6 -35.3 -7.7c-10 -5.1 -17.6 -11.6 -22.8 -19.2c-5.2 -7.7 -7.8 -15 -7.8 -22.1c0 -4.4 1.6 -8.3 4.8 -11.7c3.2 -3.4 7.3 -5.2 12.3 -5.2c4.6 0 8.7 1.3 12.3 3.8c3.6 2.6 6.4 6.4 8.3 11.5c2.3 6.2 6.1 11.3 11.4 15.1c5.3 3.8 11.3 5.7 18 5.7c5.9 0 11.6 -1.5 16.9 -4.5c5.3 -3 9.8 -7.3 13.6 -12.8c7.4 -11.2 11.8 -30.9 13.3 -59.1zm-3.6 -47.9c0 -7.1 -1 -13.6 -2.9 -19.6c-1.9 -6 -4.6 -11.2 -8.1 -15.5c-3.5 -4.4 -7.7 -7.8 -12.5 -10.3c-4.8 -2.5 -10.1 -3.8 -15.9 -3.8c-9.9 0 -18.3 4.2 -25.2 12.7c-6.9 8.5 -10.3 19.7 -10.3 33.7c0 13.9 3.4 24.9 10.3 33.1c6.9 8.2 15.6 12.3 26.1 12.3c6.5 0 12.6 -1.7 18.5 -5.1c5.9 -3.4 10.7 -8.3 14.4 -14.8c3.8 -6.3 5.6 -13.9 5.6 -22.7z" transform="matrix(1 0 0 0 0 245.45)" style="animation-name: eaf-8d62-27, eaf-8d62-28, eaf-8d62-29; animation-composition: replace, add, add;"></path></g></g><g style="filter: drop-shadow(rgba(0, 0, 0, 0.42) 6px 6px 5px);"><g transform="translate(-0.7199 -8.4739)"><path fill="#000000" d="m215.4 246.5c0 17.1 -1 31.8 -3.1 44.1c-2.1 12.3 -5.9 23.4 -11.6 33.4c-7.1 12.3 -16.2 21.8 -27.5 28.4c-11.3 6.6 -23.8 10 -37.5 10c-15.8 0 -30 -4.5 -42.6 -13.4c-12.6 -9 -22 -21.4 -28.4 -37.2c-3.2 -8.6 -5.6 -18.2 -7.1 -28.7c-1.5 -10.5 -2.3 -21.8 -2.3 -34c0 -15.7 0.8 -29.9 2.5 -42.5c1.7 -12.6 4.3 -23.4 7.8 -32.5c6.1 -15 15.1 -26.4 26.8 -34.3c11.7 -7.9 25.7 -11.8 42 -11.8c10.7 0 20.5 1.7 29.2 5.2c8.8 3.5 16.4 8.6 23 15.3c6.6 6.7 12.2 15 16.8 24.9c8.1 17.3 12 41.6 12 73.1zm-42.8 -3.2c0 -19.1 -1.1 -34.7 -3.4 -46.8c-2.3 -12.1 -6.1 -21.3 -11.6 -27.5c-5.4 -6.2 -12.9 -9.3 -22.5 -9.3c-13.8 0 -23.3 6.9 -28.7 20.8c-5.4 13.9 -8 35.2 -8 64.1c0 19.6 1.1 35.6 3.4 48.1c2.3 12.5 6.1 22 11.6 28.4c5.4 6.4 12.8 9.6 22 9.6c9.6 0 17.1 -3.3 22.5 -10c5.4 -6.7 9.2 -16.2 11.4 -28.6c2.2 -12.4 3.3 -28.7 3.3 -48.8z" transform="matrix(1 0 0 0 0 245.2)" style="animation-name: eaf-8d62-30, eaf-8d62-31, eaf-8d62-32; animation-composition: replace, add, add;"></path><path fill="#000000" d="m130.7 337.4l0 -142.2c-26.5 20.3 -44.3 30.5 -53.4 30.5c-4.4 0 -8.3 -1.7 -11.6 -5.2c-3.4 -3.5 -5.1 -7.5 -5.1 -12.1c0 -5.3 1.7 -9.2 5 -11.7c3.3 -2.5 9.2 -5.7 17.7 -9.7c12.6 -5.9 22.7 -12.2 30.2 -18.8c7.6 -6.6 14.2 -13.9 20.1 -22c5.8 -8.1 9.6 -13.1 11.4 -15c1.8 -1.9 5.1 -2.8 10 -2.8c5.5 0 9.9 2.1 13.3 6.4c3.3 4.3 5 10.2 5 17.7l0 178.9c0 20.9 -7.1 31.4 -21.4 31.4c-6.4 0 -11.5 -2.1 -15.3 -6.4c-3.9 -4.4 -5.9 -10.7 -5.9 -19z" transform="matrix(1 0 0 0 0 245.6)" style="animation-name: eaf-8d62-33, eaf-8d62-34, eaf-8d62-35; animation-composition: replace, add, add;"></path><path fill="#000000" d="m111.8 321.9l81.6 0c8.1 0 14.3 1.7 18.6 5c4.3 3.3 6.4 7.9 6.4 13.6c0 5.1 -1.7 9.4 -5.1 13c-3.4 3.5 -8.5 5.3 -15.4 5.3l-115 0c-7.8 0 -13.9 -2.2 -18.3 -6.5c-4.4 -4.3 -6.6 -9.4 -6.6 -15.2c0 -3.8 1.4 -8.7 4.2 -14.9c2.8 -6.2 5.9 -11.1 9.2 -14.6c13.9 -14.4 26.4 -26.7 37.5 -37c11.1 -10.3 19.1 -17 23.9 -20.2c8.5 -6 15.6 -12.1 21.3 -18.2c5.7 -6.1 10 -12.3 13 -18.8c3 -6.5 4.5 -12.7 4.5 -18.8c0 -6.7 -1.6 -12.6 -4.8 -17.9c-3.2 -5.3 -7.5 -9.3 -13 -12.3c-5.5 -2.9 -11.4 -4.4 -17.9 -4.4c-13.6 0 -24.4 6 -32.2 18c-1 1.6 -2.8 5.8 -5.2 12.8c-2.4 7 -5.2 12.3 -8.3 16.1c-3.1 3.8 -7.6 5.6 -13.5 5.6c-5.2 0 -9.5 -1.7 -13 -5.2c-3.5 -3.5 -5.2 -8.1 -5.2 -14.1c0 -7.2 1.6 -14.7 4.8 -22.5c3.2 -7.8 8 -14.9 14.5 -21.2c6.4 -6.4 14.5 -11.5 24.4 -15.4c9.9 -3.9 21.4 -5.9 34.6 -5.9c15.9 0 29.5 2.5 40.8 7.5c7.3 3.3 13.7 7.9 19.2 13.8c5.5 5.8 9.8 12.6 12.9 20.2c3.1 7.7 4.6 15.6 4.6 23.8c0 12.9 -3.2 24.7 -9.6 35.2c-6.4 10.6 -12.9 18.9 -19.6 24.8c-6.7 6 -17.8 15.4 -33.5 28.2c-15.7 12.8 -26.4 22.8 -32.3 29.8c-2.3 3.1 -4.9 6.5 -7.5 10.4z" transform="matrix(1 0 0 0 0 243.5)" style="animation-name: eaf-8d62-36, eaf-8d62-37, eaf-8d62-38; animation-composition: replace, add, add;"></path><path fill="#000000" d="m128.1 220.5c9.6 0 17.8 -2.8 24.8 -8.4c6.9 -5.6 10.4 -13.7 10.4 -24.2c0 -8 -2.8 -14.9 -8.3 -20.7c-5.5 -5.8 -13 -8.7 -22.3 -8.7c-6.4 0 -11.6 0.9 -15.7 2.7c-4.1 1.8 -7.4 4.1 -9.8 7c-2.4 2.9 -4.7 6.7 -6.8 11.2c-2.1 4.6 -4.1 8.9 -5.9 13c-1 2.2 -2.9 3.9 -5.6 5.2c-2.7 1.2 -5.8 1.9 -9.4 1.9c-4.2 0 -8 -1.7 -11.5 -5.1c-3.5 -3.4 -5.2 -7.9 -5.2 -13.5c0 -5.4 1.6 -11.1 4.9 -17.1c3.3 -6 8.1 -11.7 14.4 -17.1c6.3 -5.4 14.1 -9.8 23.5 -13c9.4 -3.2 19.8 -4.9 31.4 -4.9c10.1 0 19.3 1.4 27.7 4.1c8.3 2.8 15.6 6.7 21.7 12c6.1 5.2 10.8 11.2 13.9 18.1c3.1 6.9 4.7 14.3 4.7 22.2c0 10.4 -2.3 19.4 -6.8 26.8c-4.5 7.4 -11 14.7 -19.5 21.8c8.1 4.4 15 9.4 20.5 15c5.6 5.6 9.8 11.9 12.6 18.7c2.8 6.8 4.2 14.2 4.2 22.1c0 9.5 -1.9 18.6 -5.7 27.5c-3.8 8.9 -9.4 16.7 -16.8 23.7c-7.4 6.9 -16.2 12.3 -26.3 16.2c-10.1 3.9 -21.4 5.9 -33.7 5.9c-12.5 0 -23.7 -2.2 -33.6 -6.7c-9.9 -4.5 -18 -10.1 -24.5 -16.8c-6.5 -6.7 -11.2 -13.9 -14.4 -21.1c-3.2 -7.2 -5 -13.1 -5 -17.8c0 -6 2 -10.9 5.9 -14.6c3.9 -3.7 8.8 -5.5 14.6 -5.5c2.9 0 5.7 0.9 8.4 2.6c2.7 1.7 4.5 3.8 5.3 6.2c5.4 14.5 11.2 25.2 17.4 32.3c6.2 7 14.9 10.5 26.2 10.5c6.5 0 12.7 -1.6 18.7 -4.8c6 -3.2 10.9 -7.9 14.8 -14.1c3.9 -6.2 5.9 -13.5 5.9 -21.7c0 -12.2 -3.3 -21.7 -10 -28.7c-6.7 -6.9 -15.9 -10.4 -27.8 -10.4c-2.1 0 -5.3 0.2 -9.7 0.6c-4.4 0.4 -7.2 0.6 -8.4 0.6c-5.7 0 -10.2 -1.4 -13.3 -4.3c-3.1 -2.9 -4.7 -6.8 -4.7 -12c0 -5 1.9 -9 5.6 -12.1c3.8 -3.1 9.3 -4.6 16.7 -4.6l6.5 0l0 0z" transform="matrix(1 0 0 0 0 245.85)" style="animation-name: eaf-8d62-39, eaf-8d62-40, eaf-8d62-41; animation-composition: replace, add, add;"></path><path fill="#000000" d="m152.4 339l0 -29.1l-78.4 0c-9.9 0 -17.3 -2.2 -22.3 -6.7c-4.9 -4.5 -7.4 -10.6 -7.4 -18.3c0 -2 0.4 -4 1.1 -6c0.7 -2 1.8 -4.2 3.3 -6.4c1.5 -2.2 3 -4.4 4.5 -6.5c1.6 -2.1 3.5 -4.6 5.8 -7.7l82.8 -110.8c5.4 -7.3 9.9 -12.6 13.4 -15.9c3.5 -3.3 7.7 -4.9 12.6 -4.9c15.8 0 23.8 9.1 23.8 27.2l0 120.9l6.7 0c8 0 14.5 1.1 19.3 3.3c4.8 2.2 7.3 7 7.3 14.4c0 6 -2 10.4 -5.9 13.2c-4 2.8 -9.9 4.1 -17.8 4.1l-9.5 0l0 29.2c0 8 -1.8 14 -5.3 17.9c-3.5 3.9 -8.3 5.9 -14.2 5.9c-5.8 0 -10.5 -2 -14.1 -6c-3.6 -4 -5.7 -10 -5.7 -17.8zm-67.1 -64.1l67.2 0l0 -90.8l-67.2 90.8z" transform="matrix(1 0 0 0 0 244.75)" style="animation-name: eaf-8d62-42, eaf-8d62-43, eaf-8d62-44; animation-composition: replace, add, add;"></path><path fill="#000000" d="m188.5 168.3l-74.2 0l-8.9 50.6c14.8 -7.9 28.4 -11.9 40.9 -11.9c10 0 19.3 1.9 28 5.6c8.7 3.8 16.3 8.9 22.9 15.5c6.6 6.6 11.7 14.5 15.5 23.5c3.8 9 5.6 18.8 5.6 29.2c0 15.1 -3.4 28.9 -10.2 41.2c-6.8 12.4 -16.5 22.2 -29.3 29.5c-12.8 7.3 -27.5 10.9 -44.1 10.9c-18.6 0 -33.8 -3.4 -45.4 -10.3c-11.6 -6.9 -19.8 -14.8 -24.7 -23.7c-4.9 -8.9 -7.3 -16.7 -7.3 -23.4c0 -4.1 1.7 -7.9 5.1 -11.6c3.4 -3.6 7.6 -5.5 12.7 -5.5c8.8 0 15.3 5.1 19.5 15.2c4.2 9.3 9.8 16.5 16.9 21.6c7.1 5.2 15 7.7 23.8 7.7c8 0 15.1 -2.1 21.1 -6.2c6 -4.2 10.7 -9.9 14 -17.2c3.3 -7.3 4.9 -15.6 4.9 -24.8c0 -10 -1.8 -18.5 -5.3 -25.6c-3.5 -7.1 -8.3 -12.4 -14.2 -15.9c-5.9 -3.5 -12.6 -5.2 -19.8 -5.2c-9 0 -15.4 1.1 -19.2 3.3c-3.9 2.2 -9.4 6 -16.6 11.5c-7.2 5.5 -13.2 8.2 -17.9 8.2c-5.1 0 -9.6 -1.8 -13.6 -5.5c-4 -3.7 -5.9 -7.9 -5.9 -12.6c0 -0.5 0.6 -4.1 1.7 -10.6l13.1 -74.8c1.5 -9 4.2 -15.5 8.1 -19.5c4 -4.1 10.4 -6.1 19.4 -6.1l82.5 0c16.2 0 24.4 6.2 24.4 18.6c0 5.4 -2 9.8 -5.9 13.1c-4 3.5999 -9.9 5.2 -17.6 5.2z" transform="matrix(1 0 0 0 0 246.9)" style="animation-name: eaf-8d62-45, eaf-8d62-46, eaf-8d62-47; animation-composition: replace, add, add;"></path></g></g><line x1="29.7" y1="256.7" x2="240.6" y2="256.7" fill="none" stroke="#004970" stroke-width="12" stroke-miterlimit="10" transform="translate(-0.7199 -8.4739)"></line><line x1="259.8" y1="256.7" x2="470.7" y2="256.7" fill="none" stroke="#004970" stroke-width="12" stroke-miterlimit="10" transform="translate(-0.7199 -8.4739)"></line><g transform="translate(0 -7)"><path fill="#ccc" stroke="#666" stroke-width="2" d="m38.2345 60.9761c0 5.3823 4.3632 9.7456 9.7456 9.7456l402.7 0l0 -0.0012c5.3111 -0.0825 9.5912 -4.4136 9.5912 -9.7444c0 -5.3823 -4.3632 -9.7456 -9.7455 -9.7456c-0.7472 0 -1.4747 0.0841 -2.1737 0.2433l-398.1982 0c-0.699 -0.1592 -1.4265 -0.2433 -2.1737 -0.2433c-5.3823 0 -9.7456 4.3632 -9.7456 9.7456z" transform="translate(-1.9911 0)"></path><g style="filter: drop-shadow(rgba(0, 0, 0, 0.42) 6px 6px 5px);"><path fill="#9e9e9e" stroke="#757575" stroke-width="4" stroke-miterlimit="10" d="m128 105l-18.2 -44.9c-2.1 -5.1 1.7 -13.6 7.2 -13.6l36.4 0c5.5 0 9.2 8.5 7.2 13.6l-18.3 44.9c-2.6 6.4 -11.7 6.4 -14.3 0z" transform="translate(-0.7199 0.8761)"></path></g><g style="filter: drop-shadow(rgba(0, 0, 0, 0.42) 6px 6px 5px);"><path fill="#9e9e9e" stroke="#757575" stroke-width="4" stroke-miterlimit="10" d="m358.1 109.7l-18.2 -44.9c-2.1 -5.1 1.7 -13.6 7.2 -13.6l36.4 0c5.5 0 9.2 8.5 7.2 13.6l-18.2 44.9c-2.7 6.4 -11.8 6.4 -14.4 0z" transform="translate(-0.7199 -3.8239)"></path></g></g><g transform="translate(0 -7)"><path fill="#c4c4c4" stroke="#7d7d7d" stroke-width="2" d="m38.2345 60.9761c0 5.3823 4.3632 9.7456 9.7456 9.7456l402.7 0l0 -0.0012c5.3111 -0.0825 9.5912 -4.4136 9.5912 -9.7444c0 -5.3823 -4.3632 -9.7456 -9.7455 -9.7456c-0.7472 0 -1.4747 0.0841 -2.1737 0.2433l-398.1982 0c-0.699 -0.1592 -1.4265 -0.2433 -2.1737 -0.2433c-5.3823 0 -9.7456 4.3632 -9.7456 9.7456z" transform="matrix(1 0 0 1.5872 0.7471 358.1958)"></path><g style="filter: drop-shadow(rgba(0, 0, 0, 0.42) 6px 6px 5px);"><path fill="#9e9e9e" stroke="#757575" stroke-width="4" stroke-miterlimit="10" d="m128 390.3l-18.2 44.9c-2.1 5.1 1.7 10.6 7.2 10.6l36.4 0c5.5 0 9.2 -5.5 7.2 -10.6l-18.2 -44.9c-2.7 -6.4 -11.8 -6.4 -14.4 0z" transform="translate(-0.7199 3.1761)"></path></g><g style="filter: drop-shadow(rgba(0, 0, 0, 0.42) 6px 6px 5px);"><path fill="#9e9e9e" stroke="#757575" stroke-width="4" stroke-miterlimit="10" d="m358.1 385.6l-18.2 44.9c-2.1 5.1 1.7 10.6 7.2 10.6l36.4 0c5.5 0 9.2 -5.5 7.2 -10.6l-18.2 -44.9c-2.7 -6.4 -11.8 -6.4 -14.4 0z" transform="translate(-0.7199 7.8761)"></path></g></g></g></g></svg>

