<svg xmlns="http://www.w3.org/2000/svg" viewBox="0 0 769 769" overflow="hidden" preserveAspectRatio="xMidYMid meet" id="eaf-6192-0"><defs><clipPath id="eaf-6192-1"><rect x="0" y="0" width="769" height="769"></rect></clipPath><linearGradient gradientUnits="userSpaceOnUse" gradientTransform="matrix(0 -1 1 0 13.1078 863.1777)" x1="454.7982" y1="425.035" x2="421.4874" y2="425.035" id="eaf-6192-2"><stop stop-color="#bfbfbf" offset="0"></stop><stop stop-color="#e0e0e0" offset="1"></stop></linearGradient><linearGradient gradientUnits="userSpaceOnUse" gradientTransform="matrix(0 1 -1 0 811.0015 -153.1033)" x1="542.6175" y1="328.9491" x2="421.4874" y2="328.9491" id="eaf-6192-3"><stop stop-color="#000000" offset="0"></stop><stop stop-color="#c9c9c9" offset="1"></stop></linearGradient><style>#eaf-6192-0 * {animation: 6000ms linear infinite normal both running;offset-rotate:0deg}@keyframes eaf-6192-4{0%{opacity:0}24.45%{opacity:0}26.12%{opacity:1}73.88%{opacity:1}75.55%,100%{opacity:0}}@keyframes eaf-6192-5{0%{opacity:1}24.45%{opacity:1}26.12%{opacity:0}73.88%{opacity:0}75.55%,100%{opacity:1}}</style></defs><g clip-path="url('#eaf-6192-1')" style="isolation: isolate;"><g><path fill="#222222" d="m768.1 385.5c0 96.2 0 192.5 0 288.8c0 44.1 -33.3 84.4 -76.7 92.7c-6.4 1.2 -13.1 1.9 -19.6 1.9c-191.9 0.1 -383.8 0.1 -575.7 0.1c-47 0 -88.1 -36.1 -94.2 -82.9c-0.6 -4.1 -0.9 -8.3 -0.9 -12.5c0 -192.4 0 -384.7 0 -577c0 -44.1 33.3 -84.5 76.7 -92.7c6.4 -1.3 13 -1.9 19.6 -1.9c192 -0.1 384.1 -0.1 576.1 -0.1c44.1 0 84.5 33.3 92.7 76.7c1.2 6.4 1.9 13.1 1.9 19.6c0.1 95.8 0.1 191.6 0.1 287.3z"></path><g style="filter: drop-shadow(rgb(143, 143, 143) 10px 5px 9px);"><path fill="#ffffff" d="m655.6 378c0 97.8 0 228.6 0 326.4c0 28.3 -13 41.6 -41.1 41.6c-148.4 0.1 -296.8 0.1 -445.2 0c-28.6 0 -41.4 -12.7 -41.5 -41.1c-0.2 -59.9 0 -152.8 0 -212.7c0 -135.1 -0.1 -283.8 0 -419c0 -34.4 11 -45.5 45.3 -45.5c145.6 0 291.3 0 436.9 0c34.7 0 45.7 11 45.7 45c-0.1 97.3 -0.1 208.1 -0.1 305.3zm-505.4 -2.5c0 0 0 0 0 0c-0.1 96.8 -0.1 226.5 0 323.2c0 22.5 2.1 24.7 24.4 24.7c144.6 0 289.2 0 433.7 0c22.7 0 24.8 -2.1 24.8 -24.3c-0.2 -100.5 -0.8 -234.1 -0.8 -334.6c0 -91.8 0.6 -197.1 0.9 -288.9c0.1 -23.8 -1.5 -25.3 -25.2 -25.3c-144 0 -288.1 0 -432.1 0c-24.7 0 -25.6 1 -25.6 26.5c-0.1 95 -0.1 203.6 -0.1 298.7z"></path></g><path fill="#000000" d="m150.2 375.5c0 -95.1 0 -203.6 0 -298.7c0 -25.5 1 -26.5 25.6 -26.5c144 0 288.1 0 432.1 0c23.7 0 25.3 1.5 25.2 25.3c-0.3 91.8 -0.9 197.1 -0.9 288.9c0 100.5 0.6 234.1 0.8 334.6c0.1 22.2 -2.1 24.3 -24.8 24.3c-144.6 0 -289.2 0 -433.7 0c-22.3 0 -24.4 -2.1 -24.4 -24.7c0 -96.7 0.1 -226.4999 0.1 -323.2c0 0 0 0 0 0z"></path><g opacity="0" style="filter: drop-shadow(rgb(130, 130, 130) 24px 12px 12px); animation-name: eaf-6192-4;"><g transform="matrix(0.82 0 0 1 76.7649 0)"><g><path fill="#ffffff" d="m247.7 376.2c0 -72.5 0.3 -145.1 -0.2 -217.6c-0.1 -15.2 4.3 -21.7 20.6 -21.6c82.4 0.6 164.8 0 247.3 0.6c8.1 0.1 17.5 3.2 23.9 8c30.5 23.1 51.5 53.9 65.1 89.4c2.3 5.9 1 15.8 -2.7 21c-47.3 66.5 -67.7 140.6 -66.1 221.7c0.8 39.5 -0.3 79.1 0.3 118.7c0.2 14.9 -5.3 20.5 -20.3 20.4c-82.4 -0.4 -164.8 -0.5 -247.3 0c-15.9 0.1 -21 -5.8 -20.9 -21.4c0.5999 -73.1 0.2999 -146.1 0.2999 -219.2zm325.2 -120.3c-77.9 0 -152.6 -0.1 -227.3 0.3c-4.5 0 -10.5 3.6 -13.2 7.3c-32.3 45.6 -53.2 96.6 -57.8 151.9c-4.6 54.1 -2.7 108.6 -4.4 162.9c-0.4 12.6 3.9 15.8 16 15.7c70.4 -0.5 140.7 -0.5 211.1 0.1c12.3 0.1 16.2 -3.7 16 -15.9c-0.7 -37.9 -0.1 -75.9 -0.3 -113.8c-0.4 -69.8 17 -134.6 52.8 -194.6c1.9999 -3.4999 3.7 -7.3999 7.1 -13.8999zm5.4 -23.7c-11.5 -25.5 -26.2 -46.3 -46.3 -62.7c-6.5 -5.3 -16.4 -9.1 -24.8 -9.3c-62 -0.8 -124 -0.4 -186 -0.4c-4.5 0 -9.1 0.7 -13 1c12.8 20.4 25.9 39.3 36.7 59.4c5.2 9.6 10.1 13.4 21.2 13.3c65.3 -0.5 130.6 -0.2 195.9 -0.3c4.7 0.1 9.4 -0.5 16.3 -1zm-300.5 -69.3c-2.1 1.1 -4.2 2.3 -6.3 3.4c0 51.9 0 103.7 0 155.1c17.4 -28.4 34.8 -56.5 51.7 -84.9c1.5 -2.5 1.2 -7.8 -0.4 -10.2c-14.8 -21.4 -30 -42.3 -45 -63.4z"></path><path fill="url('#eaf-6192-2')" d="m572.9 255.9c-3.3 6.5 -5.1 10.4 -7.2 14c-35.8 59.9 -53.2 124.8 -52.8 194.6c0.2 37.9 -0.4 75.9 0.3 113.8c0.2 12.2 -3.6 16 -16 15.9c-70.4 -0.5 -140.7 -0.5 -211.1 -0.1c-12.1 0.1 -16.4 -3.1 -16 -15.7c1.7 -54.3 -0.1 -108.9 4.4 -162.9c4.7 -55.4 25.5 -106.3 57.8 -151.9c2.7 -3.8 8.7 -7.3 13.2 -7.3c74.8 -0.6001 149.5 -0.4001 227.4 -0.4001z"></path><path fill="#000000" d="m578.3 232.2c-6.9 0.5 -11.6 1.1 -16.3 1.1c-65.3 0.1 -130.6 -0.2 -195.9 0.3c-11 0.1 -16 -3.7 -21.2 -13.3c-10.8 -20.1 -23.9 -39 -36.7 -59.4c3.9 -0.3 8.4 -1 13 -1c62 -0.1 124 -0.4 186 0.4c8.4 0.1 18.2 3.9 24.8 9.3c20.2 16.2 34.8 37.1 46.3 62.6z"></path><path fill="#000000" d="m277.8 162.9c15.1 21.1 30.3 42 45 63.4c1.7 2.4 1.9 7.7 0.4 10.2c-16.9 28.4 -34.3 56.5 -51.7 84.9c0 -51.4 0 -103.2 0 -155.1c2.1 -1.1 4.2 -2.3 6.3 -3.4z"></path></g><g><path fill="#f4b526" stroke="#ffffff" stroke-width="7" stroke-miterlimit="10" d="m450.4 511.8c-0.1 31.7 -18 56.1 -41.5 56.8c-24.4 0.7 -43.3 -23.9 -43.4 -56.8c-0.1 -33 18 -57.7 42.4 -57.8c24.4 0 42.7 24.9 42.5 57.8zm-63.3 -0.7c8.3 12.1 14.1 20.7 20 29.3c5.3 -9.4 14.6 -18.8 14.8 -28.3c0.2 -9.9 -8.4 -19.9 -13.2 -29.9c-6.7 9 -13.4 18 -21.6 28.9z"></path><path fill="#f4b526" stroke="#ffffff" stroke-width="12" stroke-miterlimit="10" d="m394.3 344.1c13.6 -23.4 26.1 -46.2 40.3 -68c1.9 -2.9 13.5 -2.6 18.1 0.2c3.3 2 5.2 11.9 3.2 16.3c-9 20.2 -18.9 40 -29.9 59.1c-2.8 4.9 -11 10 -16.1 9.3c-4.7 -0.6 -8.4 -8.7 -15.6 -16.9z"></path></g></g></g><g style="filter: drop-shadow(rgb(130, 130, 130) 24px 24px 12px); animation-name: eaf-6192-5;"><g transform="matrix(0.8177 0 0 1 77.7449 0)"><g><path fill="#ffffff" d="m247.4 158.5c-0.1 -15.6 5 -21.5 20.9 -21.4c82.4 0.5 164.8 0.4 247.3 0c14.9 -0.1 20.5 5.4 20.3 20.4c-0.6 39.6 0.5 79.1 -0.3 118.7c-1.6 81.1 18.8 155.2 66.1 221.7c3.7 5.2 5 15.1 2.7 21c-13.5 35.5 -34.5 66.3 -65.1 89.4c-6.4 4.9 -15.8 7.9 -23.9 8c-82.4 0.6 -164.8 0 -247.3 0.6c-16.3 0.1 -20.7 -6.3 -20.6 -21.6c0.5 -72.5 0.2 -145 0.2 -217.6c0 -73.1 0.3 -146.1 -0.3 -219.2zm318.3 325.5c-35.8 -59.9 -53.2 -124.8 -52.8 -194.6c0.2 -37.9 -0.4 -75.9 0.3 -113.8c0.2 -12.2 -3.6 -16 -16 -15.9c-70.4 0.5 -140.7 0.5 -211.1 0.1c-12.1 -0.1 -16.4 3.1 -16 15.7c1.7 54.3 -0.1 108.9 4.4 162.9c4.7 55.4 25.5 106.3 57.8 151.9c2.7 3.8 8.7 7.3 13.2 7.3c74.7 0.5 149.4 0.3 227.3 0.3c-3.3 -6.4 -5 -10.3 -7.1 -13.9zm-3.7 36.6c-65.3 -0.1 -130.6 0.2 -195.9 -0.3c-11 -0.1 -16 3.7 -21.2 13.3c-10.8 20.1 -23.9 39 -36.7 59.4c3.9 0.3 8.4 1 13 1c62 0.1 124 0.4 186 -0.4c8.4 -0.1 18.2 -3.9 24.8 -9.3c20.1 -16.4 34.7 -37.2 46.3 -62.7c-6.9 -0.4 -11.6 -1 -16.3 -1zm-239.3 7.1c1.7 -2.4 1.9 -7.7 0.4 -10.2c-16.9 -28.4 -34.3 -56.5 -51.7 -84.9c0 51.4 0 103.2 0 155.1c2.1 1.1 4.2 2.3 6.3 3.4c15.1 -21.2 30.3 -42.1 45 -63.4z"></path><path fill="url('#eaf-6192-3')" d="m345.5 497.7c-4.5 0 -10.5 -3.6 -13.2 -7.3c-32.3 -45.6 -53.2 -96.6 -57.8 -151.9c-4.6 -54.1 -2.7 -108.6 -4.4 -162.9c-0.4 -12.6 3.9 -15.8 16 -15.7c70.4 0.5 140.7 0.5 211.1 -0.1c12.3 -0.1 16.2 3.7 16 15.9c-0.7 37.9 -0.1 75.9 -0.3 113.8c-0.4 69.8 17 134.6 52.8 194.6c2.2 3.6 3.9 7.5 7.2 14c-77.9 -0.1 -152.6 0.1 -227.4 -0.4z"></path><path fill="#bfbfbf" d="m578.3 521.7c-6.9 -0.5 -11.6 -1.1 -16.3 -1.1c-65.3 -0.1 -130.6 0.2 -195.9 -0.3c-11 -0.1 -16 3.7 -21.2 13.3c-10.8 20.1 -23.9 39 -36.7 59.4c3.9 0.3 8.4 1 13 1c62 0.1 124 0.4 186 -0.4c8.4 -0.1 18.2 -3.9 24.8 -9.3c20.2 -16.2001 34.8 -37.1 46.3 -62.6z"></path><path fill="#c6c6c6" d="m277.8 591c15.1 -21.1 30.3 -42 45 -63.4c1.7 -2.4 1.9 -7.7 0.4 -10.2c-16.9 -28.4 -34.3 -56.5 -51.7 -84.9c0 51.4 0 103.2 0 155.1c2.1 1.1 4.2 2.3 6.3 3.4z"></path></g><g><path fill="#ffffff" d="m423.3 376.8c20.1 0 35.1 20.4 35 47.7c-0.1 27.1 -15.7 47.5 -35.8 46.9c-19.4 -0.6 -34.1 -20.7 -34.3 -46.9c-0.1 -27.1 15 -47.7 35.1 -47.7zm-0.7 23.3c-3.9 8.2 -11.1 16.5 -10.9 24.7c0.2 7.9 7.8 15.6 12.2 23.4c4.8 -7.1 9.7 -14.2 16.5 -24.2c-6.6 -9 -12.2 -16.5 -17.8 -23.9z"></path><path fill="#ffffff" d="m425.9 241.2c-10.6 -18.3 -20.4 -36.2 -31.5 -53.3c-1.5 -2.3 -10.6 -2 -14.2 0.2c-2.6 1.6 -4 9.3 -2.5 12.8c7 15.8 14.8 31.3 23.4 46.3c2.2 3.8 8.7 7.8 12.6 7.3c3.7 -0.5 6.6 -6.8 12.2 -13.3z"></path></g></g></g></g></g></svg>